ply
format ascii 1.0
comment INFO-3111 Flatenator generated
comment TextureFile Dungeons_Texture_01.png
element vertex 178
property float x
property float y
property float z
element face 216
property list uchar int vertex_indices
end_header
0 0 -4e-06 
0 5 5 
5 0 -4e-06 
2.5 5 4.78682 
0 5 2.5 
0 2.5 -4e-06 
0.213177 0.161493 -4e-06 
4.99151 0.131396 0.005508 
0.138424 2.5 -4e-06 
0.277094 5 4.7561 
0.213179 5 2.5 
0.290966 0.444191 0.147717 
4.75705 0.356437 0.22039 
4.81649 2.46468 0.166813 
0.290966 2.44703 0.127876 
0.354881 4.85018 4.61943 
0.251785 4.93653 2.52629 
1.15012 1.1063 0.149815 
3.93777 1.0768 0.149815 
3.93777 2.44703 0.127876 
1.06223 2.44703 0.127876 
2.0549 4.87212 2.55297 
2.44704 4.87212 3.93777 
1.06223 4.87212 2.55297 
1.26766 1.2312 -0.016209 
3.8476 1.16358 -0.016209 
3.8476 2.50461 -0.01384 
1.22331 2.50461 -0.01384 
1.90477 5.01383 2.49537 
2.50464 5.01383 3.78764 
1.1776 5.01383 2.49537 
0.290966 4.87031 2.73077 
0.290966 4.71378 2.39462 
0.407021 4.87212 2.55297 
1.06223 4.85247 3.37601 
0.895172 4.85018 4.01919 
1.60163 4.85018 3.97402 
2.44704 4.87212 4.70903 
0.234333 0.180809 0.040741 
0.528934 0.232517 0.149815 
0 4.37034 1.87034 
0.248787 4.36988 1.86988 
0.434805 4.29934 1.98019 
1.06223 4.29806 1.97891 
2.4669 4.29015 1.971 
1.17177 4.3752 1.85674 
2.35838 4.36801 1.84955 
3.02109 4.29806 2.45512 
0 3.31352 0.813523 
0.163006 3.32209 0.822091 
0.290966 3.27905 0.959897 
1.13498 3.3074 0.988244 
3.22716 3.48295 1.1638 
1.26263 3.37111 0.852655 
3.11246 3.53079 1.01234 
5 -1e-06 5 
2.5 5 5 
5 2.5 5 
5 0.132462 4.8173 
5 2.5 4.78682 
4.85018 0.268681 4.66181 
4.87212 2.44703 4.59582 
4.85018 1.1063 1.15012 
4.85018 1.0768 3.93777 
4.87212 2.44703 3.93777 
4.87212 2.44703 1.06223 
2.44947 4.87212 3.01876 
5.01621 1.2312 1.26766 
5.01621 1.16358 3.8476 
5.01384 2.50461 3.8476 
5.01384 2.50461 1.22331 
2.50464 5.01383 3.14137 
4.57908 2.74007 4.70903 
4.95734 2.48233 4.76086 
4.86923 2.15501 4.70903 
4.85018 0.232517 0.528934 
4.93961 1.12354 2.26411 
4.85018 0.931736 2.08113 
3.14151 4.35849 5 
3.141 4.359 4.78682 
3.02901 4.29015 3.86619 
3.14326 4.3752 2.56466 
3.15045 4.36801 3.75767 
3.03028 4.28887 4.70903 
3.92365 3.57636 5 
3.93485 3.56515 4.78682 
4.01175 3.3074 1.72228 
3.8362 3.48295 3.93777 
4.14735 3.37111 1.84993 
3.98766 3.53079 3.82308 
3.80786 3.51129 4.57086 
1.21569 4.85228 3.37026 
1.67614 4.85265 3.82665 
1.16365 5.01514 3.06914 
1.7793 5.01548 3.84835 
1.53515 1.36015 0.150241 
3.58009 1.30655 0.150254 
3.56796 2.42249 0.172105 
1.48786 2.42249 0.172111 
1.28201 4.82173 2.53832 
1.85838 4.82173 2.53832 
1.31026 4.23299 1.94958 
2.25081 4.22729 1.94388 
1.46103 3.25844 0.975039 
2.92727 3.38501 1.10161 
4.84976 1.36015 1.53515 
4.84974 1.30655 3.58009 
4.8272 2.42318 3.59327 
4.8272 2.42318 1.51317 
2.4632 4.82021 3.1685 
2.4632 4.82021 3.68075 
3.05229 4.23112 2.67523 
3.05799 4.22542 3.62084 
4.02538 3.25802 2.04779 
3.89881 3.38459 3.61177 
0.528934 0.232517 0.149815 
4.75705 0.356437 0.22039 
3.93777 1.0768 0.149815 
3.93777 2.44703 0.127876 
1.06223 2.44703 0.127876 
0.290966 4.71378 2.39462 
1.06223 4.87212 2.55297 
0.290966 4.87031 2.73077 
1.60163 4.85018 3.97402 
0.290966 0.444191 0.147717 
0.434805 4.29934 1.98019 
1.13498 3.3074 0.988244 
2.4669 4.29015 1.971 
0.290966 2.44703 0.127876 
0.290966 3.27905 0.959897 
4.85018 0.232517 0.528934 
4.86923 2.15501 4.70903 
4.87212 2.44703 3.93777 
4.85018 1.0768 3.93777 
4.87212 2.44703 1.06223 
4.57908 2.74007 4.70903 
4.85018 1.1063 1.15012 
4.85018 0.931736 2.08113 
3.03028 4.28887 4.70903 
2.44704 4.87212 3.93777 
3.02109 4.29806 2.45512 
3.80786 3.51129 4.57086 
3.8362 3.48295 3.93777 
4.01175 3.3074 1.72228 
1.06223 4.85247 3.37601 
2.0549 4.87212 2.55297 
2.44947 4.87212 3.01876 
1.21569 4.85228 3.37026 
1.53515 1.36015 0.150241 
1.48786 2.42249 0.172111 
1.85838 4.82173 2.53832 
2.25081 4.22729 1.94388 
1.31026 4.23299 1.94958 
2.92727 3.38501 1.10161 
1.46103 3.25844 0.975039 
3.56796 2.42249 0.172105 
4.84976 1.36015 1.53515 
4.8272 2.42318 1.51317 
2.4632 4.82021 3.68075 
2.4632 4.82021 3.1685 
3.05799 4.22542 3.62084 
4.02538 3.25802 2.04779 
3.05229 4.23112 2.67523 
3.89881 3.38459 3.61177 
4.8272 2.42318 3.59327 
3.58009 1.30655 0.150254 
1.28201 4.82173 2.53832 
1.15012 1.1063 0.149815 
1.06223 4.29806 1.97891 
3.22716 3.48295 1.1638 
0.354881 4.85018 4.61943 
0.407021 4.87212 2.55297 
2.44704 4.87212 4.70903 
4.84974 1.30655 3.58009 
4.85018 0.268681 4.66181 
4.87212 2.44703 4.59582 
3.02901 4.29015 3.86619 
1.67614 4.85265 3.82665 
3 95 97 98
3 100 101 102
3 2 6 0
3 5 6 8
3 4 9 1
3 40 10 4
3 7 12 39
3 6 38 11
3 115 18 17
3 13 18 116
3 14 17 20
3 33 31 16
3 16 32 33
3 13 52 19
3 24 117 25
3 118 25 117
3 119 24 27
3 94 36 92
3 23 45 30
3 118 54 26
3 10 16 31
3 41 42 32
3 120 43 121
3 34 35 122
3 9 37 3
3 15 35 123
3 38 39 11
3 124 115 17
3 102 103 104
3 40 49 41
3 34 123 35
3 45 51 53
3 46 21 28
3 41 50 42
3 125 126 43
3 52 13 44
3 54 127 46
3 104 98 97
3 48 8 49
3 53 119 27
3 49 128 50
3 129 20 126
3 105 107 108
3 109 112 110
3 2 58 7
3 57 58 55
3 57 85 59
3 58 75 7
3 59 73 74
3 83 90 79
3 77 130 60
3 131 64 63
3 13 62 65
3 72 87 64
3 67 76 68
3 132 68 133
3 134 67 70
3 66 81 71
3 132 89 69
3 73 135 61
3 74 73 61
3 7 75 12
3 136 137 76
3 136 76 67
3 68 76 133
3 77 60 63
3 130 62 116
3 76 137 133
3 111 114 112
3 79 56 3
3 138 22 80
3 47 88 81
3 82 139 29
3 140 13 86
3 84 79 85
3 141 80 87
3 142 82 89
3 113 107 114
3 143 70 88
3 86 13 65
3 56 9 3
3 66 94 92
3 93 23 30
3 28 93 30
3 21 93 28
3 91 144 93
3 94 71 29
3 139 94 29
3 145 140 146
3 147 123 34
3 146 147 145
3 44 13 140
3 24 96 148
3 26 96 25
3 27 148 149
3 28 99 150
3 45 99 30
3 46 150 151
3 53 152 45
3 46 153 54
3 53 149 154
3 54 155 26
3 67 106 156
3 69 106 68
3 70 156 157
3 71 158 29
3 81 159 71
3 82 158 160
3 81 161 162
3 89 160 163
3 88 157 161
3 89 164 69
3 95 165 97
3 100 166 101
3 2 7 6
3 5 0 6
3 4 10 9
3 40 41 10
3 38 6 39
3 6 7 39
3 128 8 11
3 8 6 11
3 115 116 18
3 13 19 18
3 14 124 17
3 24 167 117
3 118 26 25
3 119 167 24
3 23 168 45
3 118 169 54
3 170 9 31
3 9 10 31
3 16 10 32
3 10 41 32
3 121 171 120
3 120 125 43
3 35 15 122
3 122 171 121
3 121 34 122
3 9 170 37
3 123 22 172
3 172 15 123
3 102 101 103
3 40 48 49
3 45 168 51
3 46 127 21
3 41 49 50
3 125 129 126
3 54 169 127
3 104 103 98
3 48 5 8
3 53 51 119
3 49 8 128
3 129 14 20
3 105 173 107
3 109 111 112
3 2 55 58
3 57 59 58
3 57 84 85
3 58 174 75
3 174 58 74
3 58 59 74
3 73 59 135
3 59 85 135
3 79 3 37
3 85 79 90
3 90 135 85
3 79 37 83
3 63 60 131
3 131 175 64
3 13 116 62
3 64 175 72
3 72 141 87
3 132 69 68
3 134 136 67
3 66 47 81
3 132 142 89
3 130 77 62
3 111 113 114
3 79 78 56
3 138 172 22
3 47 143 88
3 82 176 139
3 84 78 79
3 141 138 80
3 142 176 82
3 113 108 107
3 143 134 70
3 56 1 9
3 66 71 94
3 93 144 23
3 21 91 93
3 139 36 94
3 145 44 140
3 147 177 123
3 146 177 147
3 24 25 96
3 26 155 96
3 27 24 148
3 28 30 99
3 45 152 99
3 46 28 150
3 53 154 152
3 46 151 153
3 53 27 149
3 54 153 155
3 67 68 106
3 69 164 106
3 70 67 156
3 71 159 158
3 81 162 159
3 82 29 158
3 81 88 161
3 89 82 160
3 88 70 157
3 89 163 164
