ply
format ascii 1.0
comment INFO-3111 Flatenator generated
comment TextureFile Dungeons_Texture_01.png
element vertex 180
property float x
property float y
property float z
element face 200
property list uchar int vertex_indices
end_header
5 2e-06 5 
0 2e-06 5 
5 3e-06 0 
0 3e-06 0 
4.75354 2e-06 4.75354 
0.24646 2e-06 4.75354 
0.24646 3e-06 0.246468 
4.75354 3e-06 0.246468 
4.29591 2e-06 4.58562 
0.35157 -0.149818 4.40474 
0.782234 -0.149817 0.420364 
4.64431 -0.149817 0.631676 
3.95466 2e-06 3.95466 
0.957138 -0.149818 4.04285 
1.58349 3e-06 1.40147 
4.04286 -0.149817 0.957146 
1.04534 2e-06 3.95466 
3.85433 3e-06 1.05455 
5 2e-06 3.38152 
4.68896 2e-06 3.26428 
4.59175 -0.149818 3.23 
4.07083 -0.149818 3.13007 
3.76634 2e-06 3.21028 
1.09372 3e-06 3.01477 
0.389168 -0.149818 3.20798 
0.24646 2e-06 3.29461 
0 2e-06 3.38152 
0 3e-06 1.45282 
0.271103 3e-06 1.66296 
0.373718 -0.149817 1.41894 
0.824913 -0.149817 1.71101 
1.48321 3e-06 1.88601 
3.95466 3e-06 1.89069 
4.09609 -0.149817 1.83144 
4.6031 -0.149817 1.61907 
4.75354 3e-06 1.55605 
5 3e-06 1.45282 
2.38637 3e-06 0 
2.39757 3e-06 0.246468 
2.67352 -0.149817 0.536407 
2.39321 -0.149817 1.09601 
2.39855 3e-06 1.21332 
2.43388 2e-06 3.95466 
2.39414 -0.149818 4.08855 
2.57115 -0.149818 4.54791 
2.53307 2e-06 4.70738 
2.38637 2e-06 5 
0.286324 -0.061437 4.71368 
0.550148 -0.149818 4.64628 
0.957138 -0.149818 3.51907 
0.783585 -0.149818 3.09412 
0.880707 -0.149817 2.45798 
4.34131 -0.149817 0.34774 
4.72427 -0.045095 0.275726 
0.872269 -0.149817 1.28579 
1.62873 -0.149817 1.17078 
0.828957 -0.149817 1.02707 
2.2506 0.810279 2.00763 
2.54344 -0.149817 2.86002 
1.17862 -0.149817 2.98311 
1.76699 3e-06 1.95196 
2.43636 -0.149818 3.86519 
1.26045 -0.149818 3.73795 
2.54323 0.810279 0.921588 
1.67912 0.810279 1.2935 
4.053 0.810279 2.05928 
3.79358 0.810279 0.950953 
3.40002 -0.149818 3.33521 
3.58812 -0.149818 3.76403 
3.7754 -0.149818 4.06538 
3.96243 -0.149818 4.50325 
4.26448 2e-06 4.74337 
4.73612 2e-06 4.35202 
4.64421 -0.149818 4.14744 
4.03088 -0.149818 3.8258 
4.62323 2e-06 4.33133 
0.404724 -0.149817 0.816864 
3.95972 -0.149818 3.41449 
3.98312 -0.149817 2.58049 
1.54635 -0.149817 2.26894 
2.08065 -0.149817 2.33132 
1.64231 0.810279 1.80546 
3.63646 0.810279 2.83567 
2.82236 0.810279 2.6184 
2.20487 3e-06 2.124 
3.61188 3e-06 3.05962 
2.59654 3e-06 2.72358 
0.816277 -0.149817 2.06805 
0.439499 -0.149817 2.04745 
0.807465 3e-06 1.86536 
1.69375 -0.149817 0.40139 
3.60848 -0.149817 0.3582 
3.50499 0.202816 2.79306 
3.7744 0.250739 1.96676 
3.66554 0.250739 1.1777 
2.40117 0.250739 1.415 
1.86955 0.250739 1.45792 
1.78852 0.225936 1.79217 
2.29697 0.168521 1.98648 
2.73585 0.244854 2.52232 
3.84168 -0.149817 1.35903 
3.73433 3e-06 1.39196 
3.47725 0.250739 1.49735 
2.71534 0.250739 1.05287 
2.73505 3e-06 0.865625 
2.74641 -0.149817 0.749791 
1.69375 -0.149817 0.40139 
0.782234 -0.149817 0.420364 
4.6031 -0.149817 1.61907 
4.59175 -0.149818 3.23 
1.62873 -0.149817 1.17078 
2.39321 -0.149817 1.09601 
4.09609 -0.149817 1.83144 
3.98312 -0.149817 2.58049 
4.64421 -0.149818 4.14744 
3.95972 -0.149818 3.41449 
4.03088 -0.149818 3.8258 
0.404724 -0.149817 0.816864 
2.54344 -0.149817 2.86002 
3.7754 -0.149818 4.06538 
2.39414 -0.149818 4.08855 
3.96243 -0.149818 4.50325 
2.57115 -0.149818 4.54791 
0.957138 -0.149818 4.04285 
0.550148 -0.149818 4.64628 
0.35157 -0.149818 4.40474 
0.389168 -0.149818 3.20798 
0.957138 -0.149818 3.51907 
0.783585 -0.149818 3.09412 
0.271103 3e-06 1.66296 
0.816277 -0.149817 2.06805 
0.807465 3e-06 1.86536 
4.64431 -0.149817 0.631676 
3.84168 -0.149817 1.35903 
4.04286 -0.149817 0.957146 
4.34131 -0.149817 0.34774 
0.828957 -0.149817 1.02707 
3.60848 -0.149817 0.3582 
2.74641 -0.149817 0.749791 
1.17862 -0.149817 2.98311 
1.26045 -0.149818 3.73795 
2.43636 -0.149818 3.86519 
3.40002 -0.149818 3.33521 
3.58812 -0.149818 3.76403 
3.96243 -0.149818 4.50325 
3.95466 2e-06 3.95466 
3.7754 -0.149818 4.06538 
4.29591 2e-06 4.58562 
4.62323 2e-06 4.33133 
4.03088 -0.149818 3.8258 
4.64421 -0.149818 4.14744 
0.824913 -0.149817 1.71101 
0.373718 -0.149817 1.41894 
0.872269 -0.149817 1.28579 
4.07083 -0.149818 3.13007 
2.08065 -0.149817 2.33132 
1.78852 0.225936 1.79217 
1.76699 3e-06 1.95196 
1.54635 -0.149817 2.26894 
1.54635 -0.149817 2.26894 
3.61188 3e-06 3.05962 
3.50499 0.202816 2.79306 
3.40002 -0.149818 3.33521 
0.439499 -0.149817 2.04745 
0.880707 -0.149817 2.45798 
0.816277 -0.149817 2.06805 
0.439499 -0.149817 2.04745 
0.824913 -0.149817 1.71101 
0.373718 -0.149817 1.41894 
2.67352 -0.149817 0.536407 
3.63646 0.810279 2.83567 
4.053 0.810279 2.05928 
3.79358 0.810279 0.950953 
2.54323 0.810279 0.921588 
1.67912 0.810279 1.2935 
1.64231 0.810279 1.80546 
2.2506 0.810279 2.00763 
1.64231 0.810279 1.80546 
2.82236 0.810279 2.6184 
3.63646 0.810279 2.83567 
3 59 80 58
3 45 46 5
3 5 46 1
3 3 37 6
3 6 37 38
3 35 36 19
3 19 36 18
3 48 47 9
3 38 90 6
3 6 90 10
3 35 19 34
3 34 19 20
3 23 50 51
3 39 40 106
3 40 55 106
3 106 55 107
3 107 55 56
3 108 109 33
3 33 109 78
3 109 21 78
3 42 43 16
3 16 43 13
3 14 110 41
3 41 110 111
3 112 113 32
3 32 113 22
3 19 18 72
3 72 18 0
3 20 19 73
3 73 19 72
3 114 74 109
3 74 77 109
3 77 21 109
3 22 115 12
3 12 115 116
3 58 61 59
3 59 61 62
3 1 26 5
3 5 26 25
3 28 27 6
3 6 27 3
3 29 28 76
3 76 28 6
3 56 117 107
3 31 30 14
3 14 30 54
3 15 100 17
3 17 100 101
3 2 36 7
3 7 36 35
3 38 37 7
3 7 37 2
3 52 53 11
3 104 105 17
3 17 105 15
3 65 57 66
3 66 57 63
3 86 118 84
3 68 61 67
3 67 61 58
3 12 69 42
3 42 69 43
3 70 44 119
3 119 44 120
3 71 45 121
3 121 45 122
3 0 46 71
3 71 46 45
3 5 25 47
3 47 25 9
3 25 24 9
3 49 50 23
3 120 44 123
3 123 44 124
3 5 47 45
3 47 48 45
3 122 45 48
3 125 126 123
3 123 126 127
3 126 128 127
3 87 88 89
3 89 88 129
3 31 130 131
3 13 49 16
3 16 49 23
3 132 133 134
3 134 135 132
3 38 7 91
3 7 53 91
3 91 53 52
3 7 35 53
3 53 35 11
3 35 34 11
3 136 110 14
3 54 136 14
3 135 134 137
3 39 137 138
3 138 137 134
3 124 125 123
3 31 79 23
3 23 79 139
3 16 140 42
3 42 140 141
3 16 23 140
3 140 23 139
3 31 97 60
3 14 41 96
3 96 41 95
3 103 104 94
3 94 104 17
3 17 101 94
3 94 101 102
3 85 22 142
3 12 42 143
3 143 42 141
3 12 143 22
3 22 143 142
3 8 144 145
3 145 144 146
3 147 71 121
3 0 71 4
3 72 0 4
3 75 4 147
3 145 148 8
3 149 150 145
3 145 150 148
3 73 72 75
3 75 72 4
3 4 71 147
3 76 6 10
3 151 152 153
3 117 56 152
3 152 56 153
3 22 154 115
3 22 113 154
3 79 31 60
3 155 84 118
3 31 14 97
3 97 14 96
3 63 57 64
3 64 57 81
3 65 83 57
3 22 92 32
3 32 92 93
3 156 98 157
3 157 98 84
3 98 99 84
3 84 99 86
3 92 22 85
3 158 80 59
3 84 155 157
3 157 155 159
3 82 83 65
3 160 86 161
3 161 86 99
3 118 86 162
3 162 86 160
3 23 51 31
3 31 51 130
3 126 163 128
3 128 163 164
3 164 163 165
3 24 25 166
3 166 25 28
3 25 26 28
3 28 26 27
3 89 129 167
3 167 129 168
3 31 131 30
3 90 38 169
3 169 38 91
3 92 170 93
3 93 170 171
3 94 102 172
3 173 103 172
3 172 103 94
3 96 95 174
3 174 95 173
3 97 96 175
3 175 96 174
3 98 156 176
3 176 156 177
3 178 99 176
3 176 99 98
3 99 178 161
3 161 178 179
3 132 108 133
3 133 108 33
3 101 100 32
3 32 100 112
3 102 101 93
3 93 101 32
3 172 102 171
3 171 102 93
3 95 103 173
3 104 103 41
3 41 103 95
3 41 111 104
3 104 111 105
3 40 39 138
