ply
format ascii 1.0
comment INFO-3111 Flatenator generated
comment TextureFile Dungeons_Texture_01.png
element vertex 180
property float x
property float y
property float z
property float nx
property float ny
property float nz
element face 200
property list uchar int vertex_indices
end_header
5 2e-06 5 0 -1 0 
0 2e-06 5 0 -1 0 
5 3e-06 0 0 -1 0 
0 3e-06 0 0 -1 0 
4.75354 2e-06 4.75354 0 -1 0 
0.24646 2e-06 4.75354 -0.15758 -0.974164 0.161783 
0.24646 3e-06 0.246468 -0.125916 -0.970762 -0.20437 
4.75354 3e-06 0.246468 0.138514 -0.951331 -0.275286 
4.29591 2e-06 4.58562 0.231507 -0.964742 -0.125211 
0.35157 -0.149818 4.40474 -0.629886 -0.773879 0.0659913 
0.782234 -0.149817 0.420364 -0.112695 -0.897617 -0.426127 
4.64431 -0.149817 0.631676 0.607184 -0.791506 -0.0696113 
3.95466 2e-06 3.95466 -0.304307 -0.952538 0.00827352 
0.957138 -0.149818 4.04285 0.554128 -0.639754 -0.532595 
1.58349 3e-06 1.40147 0.29274 -0.90556 0.307026 
4.04286 -0.149817 0.957146 -0.513741 -0.816912 0.262153 
1.04534 2e-06 3.95466 0.262619 -0.933694 -0.243408 
3.85433 3e-06 1.05455 -0.590989 -0.742233 0.315947 
5 2e-06 3.38152 6.51439e-08 -1 -1.72828e-07 
4.68896 2e-06 3.26428 0.526914 -0.849875 -0.00859974 
4.59175 -0.149818 3.23 0.840911 -0.54076 -0.0211536 
4.07083 -0.149818 3.13007 1.79731e-07 -1 -9.36989e-07 
3.76634 2e-06 3.21028 -0.171168 -0.969939 -0.172976 
1.09372 3e-06 3.01477 -0.14932 -0.985117 -0.0851325 
0.389168 -0.149818 3.20798 -0.731668 -0.681112 -0.0273663 
0.24646 2e-06 3.29461 -0.582389 -0.812843 -0.0104152 
0 2e-06 3.38152 4.6154e-08 -1 -2.83661e-07 
0 3e-06 1.45282 1.33962e-07 -1 -1.72828e-07 
0.271103 3e-06 1.66296 -0.40722 -0.913298 -0.00763173 
0.373718 -0.149817 1.41894 -0.856263 -0.514655 -0.0440959 
0.824913 -0.149817 1.71101 0.139602 -0.952371 0.271111 
1.48321 3e-06 1.88601 0.138449 -0.981254 -0.134063 
3.95466 3e-06 1.89069 -0.731981 -0.678935 0.057018 
4.09609 -0.149817 1.83144 -5.57767e-07 -1 -2.78233e-07 
4.6031 -0.149817 1.61907 0.757101 -0.652962 0.0209241 
4.75354 3e-06 1.55605 0.558173 -0.829654 0.0108426 
5 3e-06 1.45282 -1.34295e-08 -1 -2.78327e-07 
2.38637 3e-06 0 0 -1 0 
2.39757 3e-06 0.246468 -0.00104696 -0.903988 -0.427557 
2.67352 -0.149817 0.536407 0 -1 0 
2.39321 -0.149817 1.09601 0 -1 0 
2.39855 3e-06 1.21332 0.363764 -0.584624 0.725183 
2.43388 2e-06 3.95466 -0.00646956 -0.991407 0.130652 
2.39414 -0.149818 4.08855 0.00489624 -0.618959 -0.785408 
2.57115 -0.149818 4.54791 0 -1 0 
2.53307 2e-06 4.70738 0.0122439 -0.833494 0.552393 
2.38637 2e-06 5 0 -1 0 
0.286324 -0.061437 4.71368 -0.452404 -0.768278 0.452859 
0.550148 -0.149818 4.64628 -0.0738631 -0.790168 0.608424 
0.957138 -0.149818 3.51907 0.716152 -0.696694 -0.041747 
0.783585 -0.149818 3.09412 0.424758 -0.904092 -0.0468786 
0.880707 -0.149817 2.45798 0.336672 -0.940227 0.0512296 
4.34131 -0.149817 0.34774 0.110625 -0.805192 -0.582605 
4.72427 -0.045095 0.275726 0.443264 -0.767303 -0.463425 
0.872269 -0.149817 1.28579 0.207125 -0.978293 -0.00642778 
1.62873 -0.149817 1.17078 0 -1 0 
0.828957 -0.149817 1.02707 0 -1 0 
2.2506 0.810279 2.00763 0 -1 0 
2.54344 -0.149817 2.86002 -2.23561e-07 -1 -6.85982e-07 
1.17862 -0.149817 2.98311 1.35939e-08 -1 -5.85306e-07 
1.76699 3e-06 1.95196 0.141358 -0.781105 -0.608188 
2.43636 -0.149818 3.86519 -1.31466e-07 -1 -8.49071e-07 
1.26045 -0.149818 3.73795 1.4482e-07 -1 -1.33834e-06 
2.54323 0.810279 0.921588 0 -1 0 
1.67912 0.810279 1.2935 0 -1 0 
4.053 0.810279 2.05928 0 -1 0 
3.79358 0.810279 0.950953 0 -1 0 
3.40002 -0.149818 3.33521 -2.9012e-07 -1 -5.27531e-07 
3.58812 -0.149818 3.76403 0 -1 0 
3.7754 -0.149818 4.06538 -0.00627584 -0.63005 -0.77653 
3.96243 -0.149818 4.50325 0 -1 0 
4.26448 2e-06 4.74337 0.0656799 -0.99215 0.106414 
4.73612 2e-06 4.35202 0.142204 -0.983839 0.108805 
4.64421 -0.149818 4.14744 0.650017 -0.728475 0.216339 
4.03088 -0.149818 3.8258 0 -1 0 
4.62323 2e-06 4.33133 -0.0398935 -0.975208 0.217664 
0.404724 -0.149817 0.816864 -0.629104 -0.773137 -0.0805377 
3.95972 -0.149818 3.41449 0 -1 0 
3.98312 -0.149817 2.58049 -5.26737e-07 -1 -1.04354e-06 
1.54635 -0.149817 2.26894 -0.500049 -0.779484 -0.377301 
2.08065 -0.149817 2.33132 0 -1 0 
1.64231 0.810279 1.80546 0 -1 0 
3.63646 0.810279 2.83567 0 -1 0 
2.82236 0.810279 2.6184 0 -1 0 
2.20487 3e-06 2.124 0.471486 -0.74421 -0.47313 
3.61188 3e-06 3.05962 0.46565 -0.745157 -0.4774 
2.59654 3e-06 2.72358 0.373962 -0.746617 -0.550196 
0.816277 -0.149817 2.06805 0.0325322 -0.803053 -0.595018 
0.439499 -0.149817 2.04745 0.0957479 -0.854881 -0.509912 
0.807465 3e-06 1.86536 -0.0241951 -0.989136 -0.145 
1.69375 -0.149817 0.40139 0.0191567 -0.788577 -0.614638 
3.60848 -0.149817 0.3582 -0.0257588 -0.667009 -0.744604 
3.50499 0.202816 2.79306 -0.63008 -0.608115 -0.482903 
3.7744 0.250739 1.96676 -0.982659 -0.181335 0.0387083 
3.66554 0.250739 1.1777 -0.782085 -0.499131 0.373111 
2.40117 0.250739 1.415 0.446936 0.0356748 0.893854 
1.86955 0.250739 1.45792 0.671718 -0.220087 0.707359 
1.78852 0.225936 1.79217 0.780273 -0.616544 -0.105108 
2.29697 0.168521 1.98648 0.50055 -0.403201 -0.76608 
2.73585 0.244854 2.52232 0.614833 -0.348123 -0.707666 
3.84168 -0.149817 1.35903 -0.755507 -0.655106 0.00675271 
3.73433 3e-06 1.39196 -0.780974 -0.624563 0.000198595 
3.47725 0.250739 1.49735 -0.994432 -0.100367 0.0321139 
2.71534 0.250739 1.05287 0.365195 -0.105683 0.924913 
2.73505 3e-06 0.865625 0.277039 -0.562339 0.779118 
2.74641 -0.149817 0.749791 0.13418 -0.610972 0.780198 
1.69375 -0.149817 0.40139 0 -1 0 
0.782234 -0.149817 0.420364 0 -1 0 
4.6031 -0.149817 1.61907 -8.67884e-08 -1 -2.07197e-07 
4.59175 -0.149818 3.23 -2.18973e-07 -1 -4.51446e-07 
1.62873 -0.149817 1.17078 0.0373934 -0.772518 0.633891 
2.39321 -0.149817 1.09601 0.46077 -0.540924 0.703628 
4.09609 -0.149817 1.83144 -0.699803 -0.705333 0.113055 
3.98312 -0.149817 2.58049 -0.657867 -0.751335 -0.0520232 
4.64421 -0.149818 4.14744 0 -1 0 
3.95972 -0.149818 3.41449 -0.694605 -0.717789 0.0480012 
4.03088 -0.149818 3.8258 -0.826969 -0.543744 0.143057 
0.404724 -0.149817 0.816864 0 -1 0 
2.54344 -0.149817 2.86002 0.480888 -0.732862 -0.481311 
3.7754 -0.149818 4.06538 0 -1 0 
2.39414 -0.149818 4.08855 0 -1 0 
3.96243 -0.149818 4.50325 0.142241 -0.876301 0.460286 
2.57115 -0.149818 4.54791 0.0277897 -0.72521 0.687966 
0.957138 -0.149818 4.04285 0 -1 0 
0.550148 -0.149818 4.64628 0 -1 0 
0.35157 -0.149818 4.40474 0 -1 0 
0.389168 -0.149818 3.20798 -6.28732e-08 -1 -2.17795e-07 
0.957138 -0.149818 3.51907 0 -1 0 
0.783585 -0.149818 3.09412 3.42397e-07 -1 -7.48463e-07 
0.271103 3e-06 1.66296 -0.140244 -0.956514 0.255758 
0.816277 -0.149817 2.06805 0.119945 -0.93601 -0.330904 
0.807465 3e-06 1.86536 -0.00200812 -0.997836 0.0657296 
4.64431 -0.149817 0.631676 0 -1 0 
3.84168 -0.149817 1.35903 0 -1 0 
4.04286 -0.149817 0.957146 0 -1 0 
4.34131 -0.149817 0.34774 0 -1 0 
0.828957 -0.149817 1.02707 0.0616341 -0.963298 0.261264 
3.60848 -0.149817 0.3582 0 -1 0 
2.74641 -0.149817 0.749791 0 -1 0 
1.17862 -0.149817 2.98311 -0.872218 -0.457974 -0.17174 
1.26045 -0.149818 3.73795 -0.453054 -0.77733 0.436464 
2.43636 -0.149818 3.86519 -0.00862633 -0.512802 0.858464 
3.40002 -0.149818 3.33521 0.305665 -0.927352 -0.21584 
3.58812 -0.149818 3.76403 0.239989 -0.904234 0.353223 
3.96243 -0.149818 4.50325 0.492455 -0.837793 -0.235779 
3.95466 2e-06 3.95466 0.0786251 -0.981653 0.17371 
3.7754 -0.149818 4.06538 0.536898 -0.811879 -0.229332 
4.29591 2e-06 4.58562 0.133304 -0.990719 0.0265614 
4.62323 2e-06 4.33133 -0.17312 -0.93574 0.30728 
4.03088 -0.149818 3.8258 -0.32873 -0.706393 0.626854 
4.64421 -0.149818 4.14744 -0.326553 -0.729235 0.601315 
0.824913 -0.149817 1.71101 0 -1 0 
0.373718 -0.149817 1.41894 0 -1 0 
0.872269 -0.149817 1.28579 0 -1 0 
4.07083 -0.149818 3.13007 -0.453156 -0.889489 -0.058821 
2.08065 -0.149817 2.33132 0.220288 -0.878466 -0.423993 
1.78852 0.225936 1.79217 0.320394 -0.147642 -0.935708 
1.76699 3e-06 1.95196 0.189314 -0.775935 -0.601735 
1.54635 -0.149817 2.26894 0 -1 0 
1.54635 -0.149817 2.26894 0.04671 -0.915281 -0.400099 
3.61188 3e-06 3.05962 0.174053 -0.832547 -0.5259 
3.50499 0.202816 2.79306 0.278591 -0.358372 -0.891042 
3.40002 -0.149818 3.33521 0.244047 -0.817952 -0.520956 
0.439499 -0.149817 2.04745 3.42397e-07 -1 -7.48463e-07 
0.880707 -0.149817 2.45798 6.39342e-07 -1 -6.87106e-07 
0.816277 -0.149817 2.06805 0 -1 0 
0.439499 -0.149817 2.04745 -0.693569 -0.720089 -0.0208496 
0.824913 -0.149817 1.71101 -0.262702 -0.796291 0.544893 
0.373718 -0.149817 1.41894 -0.270838 -0.866943 0.418397 
2.67352 -0.149817 0.536407 -0.00295975 -0.889545 -0.456837 
3.63646 0.810279 2.83567 -0.867138 0.344633 -0.359584 
4.053 0.810279 2.05928 -0.857691 0.504821 0.0975838 
3.79358 0.810279 0.950953 -0.667496 0.459325 0.586063 
2.54323 0.810279 0.921588 0.359346 0.415323 0.83569 
1.67912 0.810279 1.2935 0.528545 0.483311 0.69789 
1.64231 0.810279 1.80546 0.945183 0.286171 0.157273 
2.2506 0.810279 2.00763 0.560957 0.0613701 -0.825567 
1.64231 0.810279 1.80546 0.313816 0.0999928 -0.944204 
2.82236 0.810279 2.6184 0.45518 0.0426925 -0.889375 
3.63646 0.810279 2.83567 0.25785 0.0119615 -0.966111 
3 59 80 58
3 45 46 5
3 5 46 1
3 3 37 6
3 6 37 38
3 35 36 19
3 19 36 18
3 48 47 9
3 38 90 6
3 6 90 10
3 35 19 34
3 34 19 20
3 23 50 51
3 39 40 106
3 40 55 106
3 106 55 107
3 107 55 56
3 108 109 33
3 33 109 78
3 109 21 78
3 42 43 16
3 16 43 13
3 14 110 41
3 41 110 111
3 112 113 32
3 32 113 22
3 19 18 72
3 72 18 0
3 20 19 73
3 73 19 72
3 114 74 109
3 74 77 109
3 77 21 109
3 22 115 12
3 12 115 116
3 58 61 59
3 59 61 62
3 1 26 5
3 5 26 25
3 28 27 6
3 6 27 3
3 29 28 76
3 76 28 6
3 56 117 107
3 31 30 14
3 14 30 54
3 15 100 17
3 17 100 101
3 2 36 7
3 7 36 35
3 38 37 7
3 7 37 2
3 52 53 11
3 104 105 17
3 17 105 15
3 65 57 66
3 66 57 63
3 86 118 84
3 68 61 67
3 67 61 58
3 12 69 42
3 42 69 43
3 70 44 119
3 119 44 120
3 71 45 121
3 121 45 122
3 0 46 71
3 71 46 45
3 5 25 47
3 47 25 9
3 25 24 9
3 49 50 23
3 120 44 123
3 123 44 124
3 5 47 45
3 47 48 45
3 122 45 48
3 125 126 123
3 123 126 127
3 126 128 127
3 87 88 89
3 89 88 129
3 31 130 131
3 13 49 16
3 16 49 23
3 132 133 134
3 134 135 132
3 38 7 91
3 7 53 91
3 91 53 52
3 7 35 53
3 53 35 11
3 35 34 11
3 136 110 14
3 54 136 14
3 135 134 137
3 39 137 138
3 138 137 134
3 124 125 123
3 31 79 23
3 23 79 139
3 16 140 42
3 42 140 141
3 16 23 140
3 140 23 139
3 31 97 60
3 14 41 96
3 96 41 95
3 103 104 94
3 94 104 17
3 17 101 94
3 94 101 102
3 85 22 142
3 12 42 143
3 143 42 141
3 12 143 22
3 22 143 142
3 8 144 145
3 145 144 146
3 147 71 121
3 0 71 4
3 72 0 4
3 75 4 147
3 145 148 8
3 149 150 145
3 145 150 148
3 73 72 75
3 75 72 4
3 4 71 147
3 76 6 10
3 151 152 153
3 117 56 152
3 152 56 153
3 22 154 115
3 22 113 154
3 79 31 60
3 155 84 118
3 31 14 97
3 97 14 96
3 63 57 64
3 64 57 81
3 65 83 57
3 22 92 32
3 32 92 93
3 156 98 157
3 157 98 84
3 98 99 84
3 84 99 86
3 92 22 85
3 158 80 59
3 84 155 157
3 157 155 159
3 82 83 65
3 160 86 161
3 161 86 99
3 118 86 162
3 162 86 160
3 23 51 31
3 31 51 130
3 126 163 128
3 128 163 164
3 164 163 165
3 24 25 166
3 166 25 28
3 25 26 28
3 28 26 27
3 89 129 167
3 167 129 168
3 31 131 30
3 90 38 169
3 169 38 91
3 92 170 93
3 93 170 171
3 94 102 172
3 173 103 172
3 172 103 94
3 96 95 174
3 174 95 173
3 97 96 175
3 175 96 174
3 98 156 176
3 176 156 177
3 178 99 176
3 176 99 98
3 99 178 161
3 161 178 179
3 132 108 133
3 133 108 33
3 101 100 32
3 32 100 112
3 102 101 93
3 93 101 32
3 172 102 171
3 171 102 93
3 95 103 173
3 104 103 41
3 41 103 95
3 41 111 104
3 104 111 105
3 40 39 138
