ply
format ascii 1.0
comment VCGLIB generated
comment TextureFile Dungeons_Texture_01.png
element vertex 167
property float x
property float y
property float z
property float nx
property float ny
property float nz
property uchar red
property uchar green
property uchar blue
property uchar alpha
property float texture_u
property float texture_v
element face 242
property list uchar int vertex_indices
end_header
0.439696 0.057206 -0.749386 -0.4966033 0.8369308 0.2300698 120 120 119 255 0.199258 0.304582
0.425365 0.041339 -0.825325 -0.6047666 0.5670565 -0.5591996 120 120 119 255 0.199258 0.304582
0.395951 -0.030478 -0.796589 -0.8205389 -0.5680904 -0.06316092 120 120 119 255 0.199258 0.304582
0.487911 -0.021238 -0.662414 -0.4011275 -0.06038357 0.9140299 120 120 119 255 0.199258 0.304582
0.534901 0.039769 -0.869349 0.3079723 0.8080271 -0.5022403 120 120 119 255 0.199258 0.304582
0.493013 0.053073 -0.699718 0.1088813 0.5971683 0.7946917 120 120 119 255 0.199258 0.304582
0.544335 -0.017427 -0.905072 -0.03654589 -0.09503399 -0.994803 120 120 119 255 0.199258 0.304582
0.634491 -0.023463 -0.754242 0.9201475 -0.2671913 0.286247 120 120 119 255 0.199258 0.304582
0.601512 0.048609 -0.74577 0.4569014 0.8787788 0.1378001 120 120 119 255 0.199258 0.304582
0.990819 -0 0.085401 -0.888388 -0.4583628 -0.02589078 120 120 119 255 0.199278 0.300487
1.043433 -0.000875 0.155423 -0.006023365 0.1317407 0.991266 120 120 119 255 0.199278 0.300487
1.074203 0.062112 0.091478 0.09497567 0.9922871 0.07966159 120 120 119 255 0.199278 0.300487
1.117267 -0.000887 0.096697 0.7547162 -0.6454692 0.1173581 120 120 119 255 0.199278 0.300487
1.057974 -0.000272 0.008682 0.2201724 0.1960226 -0.9555623 120 120 119 255 0.199278 0.300487
-0.274281 0.117727 -0.360416 0.8185849 0.4937867 0.293417 120 120 119 255 0.199258 0.304582
-0.366294 0.131285 -0.342514 0.003781466 0.9599531 0.2801354 120 120 119 255 0.199258 0.304582
-0.340399 0.086839 -0.278625 0.2687567 0.3751519 0.8871477 120 120 119 255 0.199258 0.304582
-0.312523 -0.009386 -0.312415 0.5358699 -0.5920129 0.6019669 120 120 119 255 0.199258 0.304582
-0.338146 0.021425 -0.281296 0.1575979 -0.4454722 0.8813158 120 120 119 255 0.199258 0.304582
-0.275012 -0.014913 -0.393031 0.7415653 -0.6584818 0.1283848 120 120 119 255 0.199258 0.304582
-0.271874 0.002467 -0.461626 0.7046981 -0.6153902 -0.3531226 120 120 119 255 0.199258 0.304582
-0.348622 -0.030478 -0.390358 0.01620307 -0.99985 -0.006128936 120 120 119 255 0.199258 0.304582
-0.269795 0.108889 -0.459167 0.8135541 0.2960465 -0.5004861 120 120 119 255 0.199258 0.304582
-0.322533 0.123912 -0.501194 0.2651497 0.8493625 -0.456376 120 120 119 255 0.199258 0.304582
-0.431559 0.102114 -0.313683 -0.4194418 0.6276813 0.6558086 120 120 119 255 0.199258 0.304582
-0.396572 0.026197 -0.284532 -0.4065008 -0.1791525 0.8959138 120 120 119 255 0.199258 0.304582
-0.421853 -0.003289 -0.319325 -0.228182 -0.8563156 0.4633104 120 120 119 255 0.199258 0.304582
-0.354972 0.014332 -0.528249 0.2995082 -0.3070162 -0.9033471 120 120 119 255 0.199258 0.304582
-0.482227 0.083826 -0.353235 -0.9105409 0.2744077 0.3092179 120 120 119 255 0.199258 0.304582
-0.469091 -0.004777 -0.451929 -0.6797419 -0.7114501 -0.1782967 120 120 119 255 0.199258 0.304582
-0.448425 0.130978 -0.425481 -0.4025573 0.9145724 -0.03879552 120 120 119 255 0.199258 0.304582
-0.482262 0.009247 -0.353262 -0.7586054 -0.4459468 0.4750257 120 120 119 255 0.199258 0.304582
-0.399891 -0.010143 -0.502336 -0.005468556 -0.9312554 -0.3643261 120 120 119 255 0.199258 0.304582
-0.412838 0.100132 -0.53088 -0.3306938 0.4406726 -0.8345354 120 120 119 255 0.199258 0.304582
-0.466915 0.100776 -0.465386 -0.8716971 0.2902913 -0.3948104 120 120 119 255 0.199258 0.304582
-0.428545 -0.000313 -0.511258 -0.4924642 -0.4466092 -0.7470068 120 120 119 255 0.199258 0.304582
0.098254 0.074528 0.958949 -0.1460728 0.430049 0.89091 120 120 119 255 0.199258 0.304582
0.067583 0.085729 0.894041 -0.2276554 0.9728705 -0.04118419 120 120 119 255 0.199258 0.304582
0.025058 0.049012 0.925331 -0.928322 0.3021446 0.2166263 120 120 119 255 0.199258 0.304582
0.055403 -0.030478 0.939635 -0.3939584 -0.7524803 0.5277974 120 120 119 255 0.199258 0.304582
0.173824 -0.020686 0.941612 0.4311043 -0.5928923 0.6801675 120 120 119 255 0.199258 0.304582
0.172393 0.067227 0.94362 0.5659735 0.7406111 0.3621729 120 120 119 255 0.199258 0.304582
0.053634 0.046523 0.805972 -0.5221738 0.3684772 -0.7691289 120 120 119 255 0.199258 0.304582
0.053648 -0.015085 0.805941 -0.6980437 -0.5026332 -0.509995 120 120 119 255 0.199258 0.304582
0.20757 -0.010885 0.867351 0.9633023 -0.2596321 0.06811735 120 120 119 255 0.199258 0.304582
0.181059 -0.022983 0.815957 0.3411483 -0.6639496 -0.6654237 120 120 119 255 0.199258 0.304582
0.139764 0.060525 0.796147 0.1173931 0.7333606 -0.6696277 120 120 119 255 0.199258 0.304582
0.198589 0.059993 0.823907 0.8197209 0.3862369 -0.4229405 120 120 119 255 0.199258 0.304582
0.602584 0.059408 -0.29104 0.5846037 0.811183 0.01485554 120 120 119 255 0.199258 0.304582
0.59136 0.043143 -0.242298 0.339381 0.4740186 0.8124819 120 120 119 255 0.199258 0.304582
0.616261 -0.030478 -0.251696 0.7076986 -0.5977679 0.3766116 120 120 119 255 0.199258 0.304582
0.596586 -0.021006 -0.355123 0.7124092 -0.178574 -0.6786638 120 120 119 255 0.199258 0.304582
0.514989 0.041533 -0.244644 -0.5502936 0.7269619 0.4107352 120 120 119 255 0.199258 0.304582
0.583873 0.055171 -0.334332 0.2300738 0.5189744 -0.8232446 120 120 119 255 0.199258 0.304582
0.500118 -0.017099 -0.225916 -0.3791669 -0.1972568 0.9040588 120 120 119 255 0.199258 0.304582
0.485839 -0.023287 -0.338748 -0.7114329 -0.3831795 -0.5890981 120 120 119 255 0.199258 0.304582
0.50759 0.050596 -0.335206 -0.4236096 0.8490924 -0.3155902 120 120 119 255 0.199258 0.304582
0.999089 0.068105 -0.505669 0.041414 0.8484511 -0.5276511 120 120 119 255 0.199258 0.304582
1.052125 0.051165 -0.492146 0.753561 0.5976672 -0.2737512 120 120 119 255 0.199258 0.304582
1.052161 -0.030478 -0.531993 0.4626994 -0.5011616 -0.7312635 120 120 119 255 0.199258 0.304582
0.916565 -0.019301 -0.512862 -0.646929 -0.02163947 -0.7622432 120 120 119 255 0.199258 0.304582
1.044486 0.050242 -0.409511 0.3277469 0.8030893 0.497624 120 120 119 255 0.199258 0.304582
0.951267 0.063357 -0.488811 -0.7482836 0.6183245 -0.2403055 120 120 119 255 0.199258 0.304582
1.078368 -0.011511 -0.379802 0.9062892 0.02751123 0.4217618 120 120 119 255 0.199258 0.304582
0.931096 -0.020864 -0.368061 -0.6626816 -0.211075 0.7185405 120 120 119 255 0.199258 0.304582
0.947189 0.059039 -0.406232 -0.3082334 0.8807254 0.3596041 120 120 119 255 0.199258 0.304582
0.821431 0.07344 -0.057645 -0.5414456 0.8111819 0.2209539 120 120 119 255 0.199258 0.304582
0.810708 0.054635 -0.114468 -0.6368594 0.4740165 -0.6080448 120 120 119 255 0.199258 0.304582
0.788698 -0.030478 -0.092966 -0.7993428 -0.5977687 -0.06102232 120 120 119 255 0.199258 0.304582
0.857509 -0.019528 0.007433 -0.3802432 -0.1785795 0.9074825 120 120 119 255 0.199258 0.304582
0.89267 0.052774 -0.14741 0.3392501 0.7269621 -0.5970222 120 120 119 255 0.199258 0.304582
0.861327 0.068541 -0.020481 0.1195699 0.5189683 0.8463894 120 120 119 255 0.199258 0.304582
0.89973 -0.015011 -0.174141 -0.01543464 -0.1972515 -0.9802315 120 120 119 255 0.199258 0.304582
0.967191 -0.022164 -0.061279 0.8880202 -0.3831805 0.2541513 120 120 119 255 0.199258 0.304582
0.942514 0.063252 -0.05494 0.5146392 0.8490928 0.1191128 120 120 119 255 0.199258 0.304582
-0.288827 0.059408 -0.917815 -0.508038 0.8111815 -0.2896241 120 120 119 255 0.199258 0.304582
-0.255881 0.043143 -0.95545 0.08531843 0.4740249 -0.8763682 120 120 119 255 0.199258 0.304582
-0.282265 -0.030478 -0.958949 -0.4453654 -0.5977683 -0.6665754 120 120 119 255 0.199258 0.304582
-0.313855 -0.021006 -0.858518 -0.9486941 -0.1785772 0.26094 120 120 119 255 0.199258 0.304582
-0.189705 0.041533 -0.917257 0.6791214 0.7269649 -0.1015685 120 120 119 255 0.199258 0.304582
-0.29282 0.055171 -0.870823 -0.5921304 0.5189724 0.6164815 120 120 119 255 0.199258 0.304582
-0.167744 -0.017099 -0.926724 0.7617127 -0.1972487 -0.6171603 120 120 119 255 0.199258 0.304582
-0.208536 -0.023287 -0.820558 0.3481423 -0.3831785 0.8555532 120 120 119 255 0.199258 0.304582
-0.226025 0.050596 -0.833968 0.2239294 0.8490946 0.4784287 120 120 119 255 0.199258 0.304582
-1.091697 0.059408 -0.136055 -0.3756421 0.8111804 0.4481959 120 120 119 255 0.199258 0.304582
-1.122849 0.043143 -0.175188 -0.8470687 0.4740322 -0.2403501 120 120 119 255 0.199258 0.304582
-1.131001 -0.030478 -0.149853 -0.7353573 -0.5977656 0.3192585 120 120 119 255 0.199258 0.304582
-1.03782 -0.021006 -0.100846 0.08743078 -0.1785788 0.9800335 120 120 119 255 0.199258 0.304582
-1.073458 0.041533 -0.233486 0.02126861 0.7269647 -0.6863454 120 120 119 255 0.199258 0.304582
-1.046173 0.055171 -0.123739 0.5009028 0.5189666 0.6926544 120 120 119 255 0.199258 0.304582
-1.078854 -0.017099 -0.256784 -0.4713054 -0.1972454 -0.8596311 120 120 119 255 0.199258 0.304582
-0.981673 -0.023287 -0.197699 0.9039483 -0.3831864 -0.1898571 120 120 119 255 0.199258 0.304582
-0.997988 0.050596 -0.182884 0.5107161 0.8490928 -0.1349459 120 120 119 255 0.199258 0.304582
-0.671912 0.047931 0.336928 -0.5414408 0.8111838 0.2209588 120 120 119 255 0.199258 0.304582
-0.680003 0.033743 0.294053 -0.6368592 0.4740196 -0.6080425 120 120 119 255 0.199258 0.304582
-0.69661 -0.030478 0.310277 -0.799342 -0.5977703 -0.06101764 120 120 119 255 0.199258 0.304582
-0.64469 -0.022216 0.386031 -0.3802415 -0.1785791 0.9074833 120 120 119 255 0.199258 0.304582
-0.61816 0.032338 0.269197 0.3392539 0.7269633 -0.5970185 120 120 119 255 0.199258 0.304582
-0.641809 0.044235 0.364969 0.1195691 0.51897 0.8463885 120 120 119 255 0.199258 0.304582
-0.612833 -0.018808 0.249028 -0.01543603 -0.197256 -0.9802305 120 120 119 255 0.199258 0.304582
-0.561931 -0.024205 0.334186 0.8880192 -0.3831812 0.2541536 120 120 119 255 0.199258 0.304582
-0.580551 0.040244 0.338969 0.5146359 0.8490953 0.1191094 120 120 119 255 0.199258 0.304582
-0.024017 -0 0.550818 0.4602134 -0.4583648 -0.7603325 120 120 119 255 0.199278 0.300487
-0.110873 -0.000875 0.562106 -0.8596468 0.1317369 -0.493612 120 120 119 255 0.199278 0.300487
-0.070387 0.062112 0.620386 -0.1161166 0.9922869 0.04340174 120 120 119 255 0.199278 0.300487
-0.096145 -0.000887 0.65529 -0.4739565 -0.6454689 0.5989451 120 120 119 255 0.199278 0.300487
0.009659 -0.000272 0.647055 0.7230691 0.1960276 0.6623777 120 120 119 255 0.199278 0.300487
0.151857 -0 0.635079 -0.8883871 -0.4583647 -0.02589077 120 120 119 255 0.199278 0.300487
0.204471 -0.000875 0.705101 -0.006029896 0.1317346 0.9912667 120 120 119 255 0.199278 0.300487
0.235241 0.062112 0.641157 0.09497445 0.992287 0.07966414 120 120 119 255 0.199278 0.300487
0.278305 -0.000887 0.646376 0.7547141 -0.6454712 0.1173614 120 120 119 255 0.199278 0.300487
0.219012 -0.000272 0.558361 0.220176 0.1960233 -0.9555613 120 120 119 255 0.199278 0.300487
0.574359 -0.000287 0.327186 0.01742521 -0.4583693 -0.888591 120 120 119 255 0.199278 0.300487
0.527322 -0.000879 0.363236 -0.9912814 0.1317179 0.003421227 120 120 119 255 0.199278 0.300487
0.570784 0.04174 0.383643 -0.07876 0.9922861 0.09573502 120 120 119 255 0.199278 0.300487
0.567531 -0.000887 0.412813 -0.1101692 -0.6454734 0.7557955 120 120 119 255 0.199278 0.300487
0.626699 -0.000471 0.372129 0.9576146 0.1960197 0.21107 120 120 119 255 0.199278 0.300487
-0.506291 -0.000287 0.861424 -0.8883854 -0.4583681 -0.02588682 120 120 119 255 0.199278 0.300487
-0.470691 -0.000879 0.908802 -0.006024227 0.1317255 0.9912679 120 120 119 255 0.199278 0.300487
-0.449871 0.04174 0.865536 0.09497507 0.9922867 0.07966731 120 120 119 255 0.199278 0.300487
-0.420733 -0.000887 0.869067 0.7547128 -0.6454726 0.1173617 120 120 119 255 0.199278 0.300487
-0.460852 -0.000471 0.809514 0.2201737 0.1960174 -0.9555631 120 120 119 255 0.199278 0.300487
0.236896 0 -0.720802 0.4602124 -0.458361 -0.7603353 120 120 119 255 0.199278 0.300487
0.150041 -0.000875 -0.709514 -0.8596457 0.1317369 -0.4936139 120 120 119 255 0.199278 0.300487
0.190526 0.062112 -0.651233 -0.1161205 0.9922866 0.04339825 120 120 119 255 0.199278 0.300487
0.164768 -0.000887 -0.616329 -0.4739597 -0.6454718 0.5989394 120 120 119 255 0.199278 0.300487
0.270573 -0.000272 -0.624564 0.7230672 0.1960323 0.6623784 120 120 119 255 0.199278 0.300487
0.543335 -0.00045 -0.073294 -0.8883882 -0.4583623 -0.02589352 120 120 119 255 0.199278 0.300487
0.569259 -0.000881 -0.038792 -0.006027148 0.1317362 0.9912665 120 120 119 255 0.199278 0.300487
0.58442 0.030154 -0.070299 0.09497257 0.9922876 0.07965983 120 120 119 255 0.199278 0.300487
0.605639 -0.000887 -0.067728 0.7547187 -0.6454655 0.1173629 120 120 119 255 0.199278 0.300487
0.576424 -0.000584 -0.111095 0.2201715 0.1960384 -0.9555593 120 120 119 255 0.199278 0.300487
-0.44142 -0.000287 -0.152731 0.4602123 -0.4583692 -0.7603304 120 120 119 255 0.199278 0.300487
-0.500188 -0.000879 -0.145093 -0.8596509 0.1317213 -0.4936091 120 120 119 255 0.199278 0.300487
-0.472795 0.04174 -0.105659 -0.1161259 0.9922857 0.04340438 120 120 119 255 0.199278 0.300487
-0.490223 -0.000887 -0.082043 -0.4739595 -0.6454731 0.5989382 120 120 119 255 0.199278 0.300487
-0.418634 -0.000471 -0.087614 0.7230632 0.1960113 0.662389 120 120 119 255 0.199278 0.300487
1.004552 0 -0.799401 -0.8883871 -0.4583648 -0.02588663 120 120 119 255 0.199278 0.300487
1.057166 -0.000875 -0.72938 -0.006026456 0.1317348 0.9912667 120 120 119 255 0.199278 0.300487
1.087936 0.062112 -0.793324 0.0949743 0.9922869 0.07966636 120 120 119 255 0.199278 0.300487
1.131 -0.000887 -0.788105 0.7547138 -0.6454715 0.1173614 120 120 119 255 0.199278 0.300487
1.071707 -0.000272 -0.87612 0.2201723 0.1960226 -0.9555624 120 120 119 255 0.199278 0.300487
-0.894615 0 -0.540187 0.4602135 -0.4583648 -0.7603323 120 120 119 255 0.199278 0.300487
-0.981471 -0.000875 -0.528899 -0.8596469 0.1317368 -0.4936118 120 120 119 255 0.199278 0.300487
-0.940985 0.062112 -0.470619 -0.1161168 0.9922869 0.04340196 120 120 119 255 0.199278 0.300487
-0.966743 -0.000887 -0.435715 -0.4739566 -0.6454688 0.598945 120 120 119 255 0.199278 0.300487
-0.860939 -0.000272 -0.44395 0.7230688 0.1960278 0.662378 120 120 119 255 0.199278 0.300487
-1.036564 -0 0.049405 -0.8883889 -0.4583607 -0.02589615 120 120 119 255 0.199278 0.300487
-0.983951 -0.000875 0.119427 -0.006027944 0.1317412 0.9912658 120 120 119 255 0.199278 0.300487
-0.95318 0.062112 0.055482 0.09497344 0.9922874 0.07966077 120 120 119 255 0.199278 0.300487
-0.910116 -0.000887 0.060701 0.7547145 -0.6454707 0.1173607 120 120 119 255 0.199278 0.300487
-0.969409 -0.000272 -0.027314 0.2201724 0.1960225 -0.9555623 120 120 119 255 0.199278 0.300487
-0.80902 -0.000287 -0.189686 -0.8883846 -0.4583689 -0.02590155 120 120 119 255 0.199278 0.300487
-0.773421 -0.000879 -0.142307 -0.006036152 0.1317228 0.9912682 120 120 119 255 0.199278 0.300487
-0.752601 0.04174 -0.185573 0.09497205 0.9922873 0.07966373 120 120 119 255 0.199278 0.300487
-0.723463 -0.000887 -0.182042 0.7547146 -0.6454695 0.1173672 120 120 119 255 0.199278 0.300487
-0.763581 -0.000471 -0.241595 0.2201798 0.1960188 -0.9555613 120 120 119 255 0.199278 0.300487
0.138206 0 -0.426185 -0.8883885 -0.4583617 -0.02589522 120 120 119 255 0.199278 0.300487
0.19082 -0.000875 -0.356163 -0.006023466 0.131742 0.9912658 120 120 119 255 0.199278 0.300487
0.221591 0.062112 -0.420108 0.09497745 0.992287 0.07966126 120 120 119 255 0.199278 0.300487
0.264655 -0.000887 -0.414889 0.7547145 -0.6454708 0.1173608 120 120 119 255 0.199278 0.300487
0.205362 -0.000272 -0.502904 0.2201765 0.1960239 -0.9555611 120 120 119 255 0.199278 0.300487
-0.301093 -0 0.21406 -0.888389 -0.4583607 -0.02589626 120 120 119 255 0.199278 0.300487
-0.24848 -0.000875 0.284082 -0.0060281 0.1317412 0.9912658 120 120 119 255 0.199278 0.300487
-0.217709 0.062112 0.220137 0.09497342 0.9922874 0.07966076 120 120 119 255 0.199278 0.300487
-0.174645 -0.000887 0.225356 0.7547145 -0.6454708 0.1173608 120 120 119 255 0.199278 0.300487
-0.233938 -0.000272 0.137341 0.2201725 0.1960226 -0.9555623 120 120 119 255 0.199278 0.300487
3 0 1 2 
3 0 2 3 
3 0 4 1 
3 5 0 3 
3 2 1 6 
3 7 5 3 
3 6 7 2 
3 0 8 4 
3 1 4 6 
3 5 8 0 
3 8 5 7 
3 2 7 3 
3 4 8 7 
3 4 7 6 
3 9 10 11 
3 11 12 13 
3 12 9 13 
3 10 12 11 
3 13 9 11 
3 14 15 16 
3 17 16 18 
3 14 16 17 
3 14 17 19 
3 14 19 20 
3 21 19 17 
3 22 23 14 
3 21 20 19 
3 23 15 14 
3 15 24 16 
3 16 25 18 
3 17 18 26 
3 17 26 21 
3 16 24 25 
3 22 14 20 
3 18 25 26 
3 27 22 20 
3 27 23 22 
3 24 28 25 
3 26 29 21 
3 15 30 24 
3 31 26 25 
3 25 28 31 
3 23 30 15 
3 27 20 32 
3 33 23 27 
3 26 31 29 
3 33 30 23 
3 30 28 24 
3 21 32 20 
3 34 28 30 
3 30 33 34 
3 33 27 35 
3 34 33 35 
3 28 34 29 
3 34 35 29 
3 35 27 32 
3 28 29 31 
3 29 35 32 
3 29 32 21 
3 36 37 38 
3 36 38 39 
3 36 39 40 
3 41 37 36 
3 37 42 38 
3 41 36 40 
3 39 38 43 
3 44 41 40 
3 43 45 39 
3 37 46 42 
3 38 42 43 
3 41 46 37 
3 44 40 45 
3 47 41 44 
3 47 46 41 
3 39 45 40 
3 47 44 45 
3 46 47 45 
3 42 46 45 
3 42 45 43 
3 48 49 50 
3 48 50 51 
3 48 52 49 
3 53 48 51 
3 50 49 54 
3 55 53 51 
3 54 55 50 
3 48 56 52 
3 49 52 54 
3 53 56 48 
3 56 53 55 
3 50 55 51 
3 52 56 55 
3 52 55 54 
3 57 58 59 
3 57 59 60 
3 57 61 58 
3 62 57 60 
3 59 58 63 
3 64 62 60 
3 63 64 59 
3 57 65 61 
3 58 61 63 
3 62 65 57 
3 65 62 64 
3 59 64 60 
3 61 65 64 
3 61 64 63 
3 66 67 68 
3 66 68 69 
3 66 70 67 
3 71 66 69 
3 68 67 72 
3 73 71 69 
3 72 73 68 
3 66 74 70 
3 67 70 72 
3 71 74 66 
3 74 71 73 
3 68 73 69 
3 70 74 73 
3 70 73 72 
3 75 76 77 
3 75 77 78 
3 75 79 76 
3 80 75 78 
3 77 76 81 
3 82 80 78 
3 81 82 77 
3 75 83 79 
3 76 79 81 
3 80 83 75 
3 83 80 82 
3 77 82 78 
3 79 83 82 
3 79 82 81 
3 84 85 86 
3 84 86 87 
3 84 88 85 
3 89 84 87 
3 86 85 90 
3 91 89 87 
3 90 91 86 
3 84 92 88 
3 85 88 90 
3 89 92 84 
3 92 89 91 
3 86 91 87 
3 88 92 91 
3 88 91 90 
3 93 94 95 
3 93 95 96 
3 93 97 94 
3 98 93 96 
3 95 94 99 
3 100 98 96 
3 99 100 95 
3 93 101 97 
3 94 97 99 
3 98 101 93 
3 101 98 100 
3 95 100 96 
3 97 101 100 
3 97 100 99 
3 102 103 104 
3 104 105 106 
3 105 102 106 
3 103 105 104 
3 106 102 104 
3 107 108 109 
3 109 110 111 
3 110 107 111 
3 108 110 109 
3 111 107 109 
3 112 113 114 
3 114 115 116 
3 115 112 116 
3 113 115 114 
3 116 112 114 
3 117 118 119 
3 119 120 121 
3 120 117 121 
3 118 120 119 
3 121 117 119 
3 122 123 124 
3 124 125 126 
3 125 122 126 
3 123 125 124 
3 126 122 124 
3 127 128 129 
3 129 130 131 
3 130 127 131 
3 128 130 129 
3 131 127 129 
3 132 133 134 
3 134 135 136 
3 135 132 136 
3 133 135 134 
3 136 132 134 
3 137 138 139 
3 139 140 141 
3 140 137 141 
3 138 140 139 
3 141 137 139 
3 142 143 144 
3 144 145 146 
3 145 142 146 
3 143 145 144 
3 146 142 144 
3 147 148 149 
3 149 150 151 
3 150 147 151 
3 148 150 149 
3 151 147 149 
3 152 153 154 
3 154 155 156 
3 155 152 156 
3 153 155 154 
3 156 152 154 
3 157 158 159 
3 159 160 161 
3 160 157 161 
3 158 160 159 
3 161 157 159 
3 162 163 164 
3 164 165 166 
3 165 162 166 
3 163 165 164 
3 166 162 164 
3 12 10 9 
3 105 103 102 
3 110 108 107 
3 115 113 112 
3 120 118 117 
3 125 123 122 
3 130 128 127 
3 135 133 132 
3 140 138 137 
3 145 143 142 
3 150 148 147 
3 155 153 152 
3 160 158 157 
3 165 163 162 
