ply
format ascii 1.0
comment VCGLIB generated
comment TextureFile Dungeons_Texture_01.png
element vertex 14
property float x
property float y
property float z
property float nx
property float ny
property float nz
property uchar red
property uchar green
property uchar blue
property uchar alpha
property float texture_u
property float texture_v
element face 24
property list uchar int vertex_indices
end_header
0.307379 0.05029 0.181581 0.5914011 0.5015944 0.6313856 120 116 110 255 0.211923 0.303946
0.307379 0.10058 -0.043025 0.7259416 0.6859341 0.05003174 120 116 110 255 0.211923 0.303946
-0.041401 0.10058 0.181581 0.02354175 0.8391169 0.5434414 120 116 110 255 0.211923 0.303946
0.307379 0.10058 -0.09079 0.7677186 0.6212088 -0.1571871 120 116 110 255 0.211923 0.303946
0.307379 0.05029 -0.181581 0.6023315 0.3972419 -0.6923841 120 116 110 255 0.211923 0.303946
0.153688 0.10058 -0.181581 0.05311619 0.7413862 -0.6689732 120 116 110 255 0.211923 0.303946
-0.307377 -0.10058 -0.181581 -0.5345225 -0.2672613 -0.8017837 120 116 110 255 0.211923 0.303946
0.307379 -0.10058 -0.181581 0.7276069 -0.4850713 -0.4850713 120 116 110 255 0.211923 0.303946
0.307379 -0.10058 0.181581 0.6666667 -0.3333333 0.6666667 120 116 110 255 0.211923 0.303946
-0.307377 -0.10058 0.181581 -0.5773503 -0.5773503 0.5773503 120 116 110 255 0.211923 0.303946
-0.307377 0.05029 -0.181581 -0.6312352 0.3802877 -0.6759611 120 116 110 255 0.211923 0.303946
-0.307377 0.10058 -0.09079 -0.7619036 0.6394874 -0.1027559 120 116 110 255 0.211923 0.303946
-0.192112 0.10058 -0.181581 -0.09502752 0.7508086 -0.6536484 120 116 110 255 0.211923 0.303946
-0.307377 0.10058 0.181581 -0.5773503 0.5773503 0.5773503 120 116 110 255 0.211923 0.303946
3 0 1 2 
3 3 4 5 
3 7 9 6 
3 10 11 12 
3 8 0 2 
3 3 1 7 
3 12 11 2 
3 6 5 7 
3 9 13 11 
3 7 8 9 
3 13 9 2 
3 9 8 2 
3 0 8 1 
3 8 7 1 
3 7 4 3 
3 11 13 2 
3 2 1 5 
3 1 3 5 
3 5 12 2 
3 6 10 12 
3 12 5 6 
3 5 4 7 
3 10 6 11 
3 6 9 11 
