ply
format ascii 1.0
comment VCGLIB generated
comment TextureFile Dungeons_Texture_01.png
element vertex 87
property float x
property float y
property float z
property float nx
property float ny
property float nz
property uchar red
property uchar green
property uchar blue
property uchar alpha
property float texture_u
property float texture_v
element face 100
property list uchar int vertex_indices
end_header
-0.504677 0.143011 0.265444 -0.8015509 0.422733 0.4228628 120 120 119 255 0.199549 0.302024
-0.37788 0.137288 0.257994 0.04965065 0.9781334 0.2019648 97 95 95 255 0.199549 0.277902
0.08675 0.121143 0.264132 -0.08660848 0.7243341 0.6839876 97 95 95 255 0.199549 0.277902
0.379475 0.142936 0.265305 0.1392485 0.6569674 0.7409479 120 120 119 255 0.199549 0.302024
-0.132179 0.123479 0.258139 -0.00588035 0.9338907 0.3575104 97 95 95 255 0.199549 0.277902
0.504692 0.081497 0.265402 0.7806298 0.2404785 0.5768772 120 120 119 255 0.199549 0.302024
-0.504692 0.006859 0.265438 -0.6962276 0.01755456 0.7176064 120 120 119 255 0.199549 0.302024
-0.219818 0.070683 0.264668 -0.008652805 0.06262366 0.9979997 120 120 119 255 0.199549 0.302024
-0.282337 0.037412 0.244154 0.2049951 -0.9283231 0.3101505 97 95 95 255 0.199549 0.277902
-0.219307 0.006201 0.193172 -0.246686 -0.9343016 0.2573451 97 95 95 255 0.199549 0.277902
-0.197075 0.000388 0.263113 -0.5723581 -0.8119777 0.1144486 97 95 95 255 0.199549 0.277902
-0.363708 0.000419 0.265093 -0.008217495 0.05094714 0.9986675 120 120 119 255 0.199549 0.302024
0.504326 0.000271 0.265041 0.1933589 -0.009874554 0.9810784 120 120 119 255 0.199549 0.302024
-0.102432 0.144694 0.215237 -0.08033557 0.8739927 0.4792526 97 95 95 255 0.199549 0.277902
-0.205956 0.137909 0.212721 -0.009515942 0.9737082 0.2276003 97 95 95 255 0.199549 0.277902
-0.504528 5e-06 0.119135 -0.368205 -0.9212508 -0.1253878 97 95 95 255 0.199549 0.277902
0.158669 0.143133 0.265379 -0.002459832 0.6938446 0.7201205 120 120 119 255 0.199549 0.302024
0.480572 0.120289 0.242832 0.2905489 0.8371413 0.4634392 120 120 119 255 0.199549 0.302024
-0.165604 0.145548 0.161915 -0.01139681 0.9901117 0.1398178 97 95 95 255 0.199549 0.277902
-0.291775 0.002877 0.078665 0.01487582 -0.9991256 0.03907422 97 95 95 255 0.199549 0.277902
-0.504581 0.143685 -0.025454 -0.5518306 0.8339291 0.006720968 120 120 119 255 0.199549 0.302024
0.493191 0.13165 0.105518 0.3000783 0.9483386 0.1029902 97 95 95 255 0.199549 0.277902
-0.504692 0.060511 0.067364 -0.999987 -0.004310786 -0.002721224 120 120 119 255 0.199549 0.302024
0.433723 0.145548 0.150814 0.04945479 0.9986864 0.01340723 120 120 119 255 0.199549 0.302024
0.370632 0 -0.016586 0.01461336 -0.999272 -0.03523999 97 95 95 255 0.199549 0.277902
0.504433 7.4e-05 0.046753 0.6521715 -0.6782984 -0.3385021 97 95 95 255 0.199549 0.277902
0.481808 0.031248 0.001528 0.9550391 -0.01656514 -0.2960166 97 95 95 255 0.199549 0.277902
-0.455257 0.001672 -0.006584 -0.3129273 -0.949743 -0.008046445 97 95 95 255 0.199549 0.277902
0.495651 0.125773 -0.008442 0.8497078 0.382648 -0.3627357 97 95 95 255 0.199549 0.277902
-0.491123 0.01246 -0.071512 -0.6446378 -0.7513836 0.1409424 97 95 95 255 0.199549 0.277902
0.476871 0.010013 -0.037477 0.7932261 -0.6075191 -0.04138732 97 95 95 255 0.199549 0.277902
0.46418 0.118797 -0.067763 0.8722624 0.4869822 -0.04479614 97 95 95 255 0.199549 0.277902
0.504284 0.000175 -0.261952 -0.1031221 -0.9946686 0.0004166876 97 95 95 255 0.199549 0.277902
0.501877 0.002028 -0.059355 0.3661137 -0.6575677 0.6584569 97 95 95 255 0.199549 0.277902
0.504692 0.143685 -0.165905 0.7669771 0.6153042 0.1820626 120 120 119 255 0.199549 0.302024
-0.503399 0.080998 -0.173665 -0.9999353 -0.009552206 -0.006176087 120 120 119 255 0.199549 0.302024
-0.502087 0.002771 -0.207154 -0.771154 -0.6299415 -0.09217053 97 95 95 255 0.199549 0.277902
0.014717 0.001651 -0.196754 0.002366989 -0.9946244 -0.1035214 97 95 95 255 0.199549 0.277902
-0.501614 0.089025 -0.229881 -0.8486717 0.3211348 -0.4202723 97 95 95 255 0.199549 0.277902
0.298702 0.145548 -0.207373 -0.009389569 0.9999249 0.007878493 120 120 119 255 0.199549 0.302024
0.347935 0.017604 -0.26543 -0.03320321 -0.9873944 -0.1547577 97 95 95 255 0.199549 0.277902
-0.43314 0.142862 -0.216164 -0.002077029 0.999982 -0.005634446 120 120 119 255 0.199549 0.302024
-0.464813 0.00043 -0.26129 -0.4023082 -0.8453326 -0.3515125 97 95 95 255 0.199549 0.277902
-0.048874 0.006089 -0.240344 0.02557642 -0.8659054 -0.4995536 97 95 95 255 0.199549 0.277902
0.235844 0.138153 -0.233529 -0.01400561 0.999866 -0.008479434 120 120 119 255 0.199549 0.302024
0.504692 0.143531 -0.263078 0.2663738 0.7992624 -0.5387249 120 120 119 255 0.199549 0.302024
-0.331905 0.110961 -0.263594 -0.08202937 0.7370636 -0.6708267 97 95 95 255 0.199549 0.277902
0.172531 0.143536 -0.263125 0.02076942 0.7170304 -0.6967325 120 120 119 255 0.199549 0.302024
0.150032 0.021363 -0.262989 -0.01456854 -0.854368 -0.5194644 97 95 95 255 0.199549 0.277902
-0.463867 0.090416 -0.262473 -0.4526933 0.5188103 -0.7251928 97 95 95 255 0.199549 0.277902
-0.188301 0.006896 -0.265436 0.07716939 -0.9156867 -0.3944146 97 95 95 255 0.199549 0.277902
-0.09367 0.070677 -0.265446 0.0005974447 0.01448676 -0.9998949 120 120 119 255 0.199549 0.302024
-0.37788 0.137288 0.257994 0.01510313 0.4818228 0.8761386 120 120 119 255 0.199549 0.302024
0.08675 0.121143 0.264132 -0.0115295 0.04918488 0.9987231 120 120 119 255 0.199549 0.302024
-0.132179 0.123479 0.258139 -0.009737877 0.1386286 0.9902965 120 120 119 255 0.199549 0.302024
-0.219818 0.070683 0.264668 -0.1388995 -0.8704432 0.4722666 97 95 95 255 0.199549 0.277902
-0.363708 0.000419 0.265093 0.176284 -0.9823138 0.0631166 97 95 95 255 0.199549 0.277902
-0.197075 0.000388 0.263113 -0.002751886 -0.0230054 0.9997316 120 120 119 255 0.199549 0.302024
-0.504692 0.006859 0.265438 -0.04546754 -0.9978738 0.04669739 97 95 95 255 0.199549 0.277902
0.158669 0.143133 0.265379 -0.162419 0.4823835 0.8607707 97 95 95 255 0.199549 0.277902
-0.165604 0.145548 0.161915 -0.005561058 0.999963 0.006562359 120 120 119 255 0.199549 0.302024
0.504326 0.000271 0.265041 -0.004362588 -0.9999574 -0.008137412 97 95 95 255 0.199549 0.277902
0.504433 7.4e-05 0.046753 0.9982607 0.05852179 -0.00711703 120 120 119 255 0.199549 0.302024
-0.102432 0.144694 0.215237 0.0008055404 0.9998005 0.01995754 120 120 119 255 0.199549 0.302024
0.433723 0.145548 0.150814 0.5524226 0.831658 -0.05634147 97 95 95 255 0.199549 0.277902
0.480572 0.120289 0.242832 0.8729265 0.3382016 -0.3515951 97 95 95 255 0.199549 0.277902
0.504692 0.081497 0.265402 0.7190666 0.6924944 -0.05826521 97 95 95 255 0.199549 0.277902
0.493191 0.13165 0.105518 0.9958853 0.08996366 -0.01091372 120 120 119 255 0.199549 0.302024
-0.504528 5e-06 0.119135 -0.9999933 -0.003528846 -0.0009558531 120 120 119 255 0.199549 0.302024
0.495651 0.125773 -0.008442 0.7361107 0.6763156 -0.02717161 120 120 119 255 0.199549 0.302024
-0.504692 0.060511 0.067364 -0.8214715 -0.5700886 -0.01355534 97 95 95 255 0.199549 0.277902
0.298702 0.145548 -0.207373 0.4051642 0.8579547 -0.3158413 97 95 95 255 0.199549 0.277902
0.46418 0.118797 -0.067763 0.4920689 0.7735835 0.3992954 120 120 119 255 0.199549 0.302024
0.501877 0.002028 -0.059355 0.961358 0.1530302 0.2288506 120 120 119 255 0.199549 0.302024
-0.502087 0.002771 -0.207154 -0.999881 -0.01396548 -0.006550916 120 120 119 255 0.199549 0.302024
0.504284 0.000175 -0.261952 0.8984123 -0.009609299 -0.4390479 120 120 119 255 0.199549 0.302024
-0.43314 0.142862 -0.216164 -0.4319623 0.7855677 -0.4430485 97 95 95 255 0.199549 0.277902
-0.503399 0.080998 -0.173665 -0.8556845 0.5115225 -0.07841482 97 95 95 255 0.199549 0.277902
-0.504581 0.143685 -0.025454 -0.7235498 0.6336562 -0.27378 97 95 95 255 0.199549 0.277902
0.172531 0.143536 -0.263125 -0.0495638 0.7765568 -0.6280947 97 95 95 255 0.199549 0.277902
-0.331905 0.110961 -0.263594 -0.005657497 0.01708067 -0.9998381 120 120 119 255 0.199549 0.302024
0.150032 0.021363 -0.262989 -0.001404718 -0.0008543875 -0.9999987 120 120 119 255 0.199549 0.302024
-0.463867 0.090416 -0.262473 -0.01197442 -0.004034629 -0.9999202 120 120 119 255 0.199549 0.302024
-0.188301 0.006896 -0.265436 -0.01006163 0.000341919 -0.9999494 120 120 119 255 0.199549 0.302024
0.347935 0.017604 -0.26543 0.003062974 0.003913552 -0.9999877 120 120 119 255 0.199549 0.302024
-0.464813 0.00043 -0.26129 -0.01468723 -0.01298927 -0.9998078 120 120 119 255 0.199549 0.302024
-0.09367 0.070677 -0.265446 0.04915318 -0.332013 -0.9419933 97 95 95 255 0.199549 0.277902
3 13 4 2 
3 4 14 1 
3 17 3 5 
3 0 6 52 
3 16 53 12 
3 54 52 7 
3 53 54 7 
3 52 6 11 
3 52 11 7 
3 5 3 12 
3 55 8 9 
3 55 56 8 
3 55 9 10 
3 53 7 12 
3 3 16 12 
3 7 57 12 
3 15 56 58 
3 13 14 4 
3 59 13 2 
3 14 18 1 
3 20 0 52 
3 60 20 52 
3 24 25 61 
3 18 14 13 
3 23 3 17 
3 5 12 62 
3 56 19 8 
3 23 63 16 
3 23 16 3 
3 19 9 8 
3 23 60 63 
3 64 65 66 
3 64 66 21 
3 0 20 22 
3 67 5 62 
3 0 22 6 
3 6 22 68 
3 19 61 9 
3 61 10 9 
3 15 27 56 
3 27 19 56 
3 28 64 21 
3 67 62 69 
3 70 27 15 
3 26 28 25 
3 24 30 25 
3 30 26 25 
3 39 23 69 
3 70 29 27 
3 30 28 26 
3 41 20 60 
3 31 28 30 
3 32 30 24 
3 32 33 30 
3 31 71 28 
3 33 31 30 
3 20 35 22 
3 34 39 72 
3 34 72 73 
3 70 36 29 
3 37 24 61 
3 35 74 22 
3 36 27 29 
3 27 42 19 
3 34 73 75 
3 19 37 61 
3 76 77 78 
3 39 44 23 
3 77 76 38 
3 40 32 24 
3 36 42 27 
3 40 24 37 
3 77 38 36 
3 19 43 37 
3 48 40 37 
3 47 41 60 
3 23 47 60 
3 45 44 39 
3 45 34 75 
3 42 50 19 
3 50 43 19 
3 47 23 44 
3 46 76 79 
3 45 39 34 
3 43 48 37 
3 38 76 49 
3 76 46 49 
3 80 47 51 
3 44 45 47 
3 47 81 51 
3 82 80 83 
3 47 45 84 
3 82 83 85 
3 84 45 75 
3 38 49 42 
3 80 51 83 
3 38 42 36 
3 50 86 43 
3 86 48 43 
3 47 84 81 
