ply
format ascii 1.0
comment VCGLIB generated
comment TextureFile Dungeons_Texture_01.png
element vertex 17
property float x
property float y
property float z
property float nx
property float ny
property float nz
property uchar red
property uchar green
property uchar blue
property uchar alpha
property float texture_u
property float texture_v
element face 30
property list uchar int vertex_indices
end_header
0.148209 -0.029723 0.098082 0.6044849 -0.4633322 0.6480134 120 116 110 255 0.211594 0.300503
0.012451 0.086432 0.112131 -0.003077317 0.675876 0.737009 120 116 110 255 0.211594 0.300503
-0.043579 -0.032088 0.173393 -0.08123025 -0.3278194 0.9412418 120 116 110 255 0.211594 0.300503
0.134338 0.034274 0.104168 0.6488524 0.6719801 0.3569782 120 116 110 255 0.211594 0.300503
-0.140625 0.015862 0.113117 -0.8383008 -0.1000038 0.5359581 120 116 110 255 0.211594 0.300503
0.022888 -0.10605 0.026055 -0.03264789 -0.9741 0.2237484 120 116 110 255 0.211594 0.300503
-0.016479 0.107428 0.014125 -0.0009073138 0.9929526 -0.118509 120 116 110 255 0.211594 0.300503
0.169159 -0.012639 0.015666 0.9864939 0.03711253 -0.1595379 120 116 110 255 0.211594 0.300503
-0.127258 0.072582 0.050392 -0.5215076 0.8267567 0.2109581 120 116 110 255 0.211594 0.300503
0.088089 0.069798 -0.060574 0.5676646 0.6117293 -0.5509484 120 116 110 255 0.211594 0.300503
-0.153076 0.034655 -0.071244 -0.8706244 0.3628165 -0.3322311 120 116 110 255 0.211594 0.300503
0.105194 -0.076621 -0.042109 0.5758514 -0.674238 -0.4623833 120 116 110 255 0.211594 0.300503
-0.114014 -0.067221 -0.019958 -0.6374104 -0.7375003 -0.2231622 120 116 110 255 0.211594 0.300503
0.027832 -0.102753 -0.052779 0.0178697 -0.9426933 -0.3331818 120 116 110 255 0.211594 0.300503
-0.058167 0.024948 -0.142546 -0.3805957 0.3117963 -0.8705918 120 116 110 255 0.211594 0.300503
-0.049744 -0.044714 -0.128571 -0.2253786 -0.620931 -0.7507658 120 116 110 255 0.211594 0.300503
-0.007385 -0.014352 -0.151287 0.2620689 -0.1385451 -0.9550524 120 116 110 255 0.211594 0.300503
3 0 1 2 
3 3 1 0 
3 1 4 2 
3 0 2 5 
3 1 3 6 
3 3 0 7 
3 4 1 8 
3 3 9 6 
3 10 4 8 
3 1 6 8 
3 4 5 2 
3 0 11 7 
3 3 7 9 
3 5 11 0 
3 4 12 5 
3 4 10 12 
3 13 11 5 
3 10 8 6 
3 5 12 13 
3 11 9 7 
3 10 14 12 
3 9 14 6 
3 6 14 10 
3 12 14 15 
3 13 12 15 
3 11 16 9 
3 16 14 9 
3 13 15 11 
3 16 11 15 
3 14 16 15 
