ply
format ascii 1.0
comment INFO-3111 Flatenator generated
comment TextureFile Dungeons_Texture_01.png
element vertex 321
property float x
property float y
property float z
property float nx
property float ny
property float nz
element face 400
property list uchar int vertex_indices
end_header
0.41053 5.02597 0.416276 0.901035 0.326953 0.285022 
-0.414886 5.02597 0.416463 -0.507783 0.698033 0.504883 
0.413548 4.71112 0.416486 0.584783 -0.0898023 0.806204 
-0.025936 4.57753 0.416448 -0.00310262 -0.00517721 0.999982 
-0.414906 4.77063 0.415917 -0.457332 -0.143824 0.877589 
-0.414913 4.57754 0.308522 -0.967135 -0.134087 0.216033 
-0.228867 4.5811 0.41446 -0.236776 -0.239652 0.941543 
0.333225 4.57758 0.416383 0.357439 -0.215705 0.908685 
0.410568 4.57771 0.339391 0.904597 -0.22826 0.360002 
0.328091 4.50721 0.408196 0.250888 0.0740809 0.965177 
-0.12833 4.51203 0.400388 -0.428363 0.0375615 0.902826 
-0.043068 4.06988 0.416513 0.0179524 0.0338494 0.999266 
-0.12833 4.19441 0.416268 -0.888611 0.0219735 0.458135 
0.41301 4.51117 0.318677 0.924558 0.0861009 0.371185 
0.414932 4.0701 0.4162 0.848521 0.0541023 0.526389 
-0.12801 4.07043 0.365518 -0.284131 -0.86747 0.408368 
0.010593 3.99792 0.403375 -0.0139244 0.679066 0.733945 
-0.414886 4.00826 0.416463 0.0176551 0.94182 0.335655 
0.286404 3.93022 0.416524 0.00255403 0.200701 0.979649 
0.413269 3.9945 0.416524 0.265924 0.656648 0.705761 
-0.103737 3.56048 0.415734 -0.0267178 -0.0456991 0.998598 
0.410522 3.55982 0.416272 0.446225 -0.00354333 0.894914 
-0.414944 3.75292 0.41652 -0.539429 -0.12075 0.833328 
-0.245987 3.56634 0.405057 -0.241604 -0.275941 0.930314 
0.326656 3.23341 0.411431 0.105606 -0.035702 0.993767 
0.414932 3.49345 0.416257 0.69432 -0.0609325 0.717082 
-0.12833 3.49345 0.416257 -0.55078 0.000135677 0.834651 
0.382877 3.07994 0.388761 0.526899 -0.090024 0.845147 
0.251522 3.0523 0.416524 0.080405 -0.0149139 0.996651 
-0.12833 3.05239 0.416203 -0.707406 -8.654e-05 0.706808 
0.289162 2.99007 0.416439 0.0119218 -0.0114625 0.999863 
-0.414886 2.99007 0.416462 -0.293911 -0.0065236 0.955811 
-0.025944 2.6537 0.41634 0.0686852 -0.154415 0.985616 
-0.362854 2.69543 0.41143 0.0165379 0.0062743 0.999844 
0.407608 2.97333 0.413239 0.831899 -0.00953793 0.554846 
-0.414883 2.54163 0.416451 -0.693064 0.00202088 0.720873 
-0.125778 2.54163 0.416447 0.207581 -0.172394 0.962907 
0.410522 2.54163 0.416267 0.419775 -0.22218 0.880014 
-0.058487 2.52475 0.340733 0.246196 -0.53571 0.807715 
-0.043434 2.48923 0.345943 -0.346877 0.76359 0.544616 
-0.12833 2.47526 0.416256 -0.106757 0.992162 0.0649451 
0.414932 2.47527 0.416256 0.414906 0.893431 0.172148 
-0.12833 2.15851 0.416267 -0.698408 -0.0316554 0.714999 
-0.026253 2.03376 0.399899 0.0073202 -0.0443258 0.99899 
0.414932 2.03421 0.416199 0.891176 -5.86406e-05 0.453659 
-0.123161 2.03778 0.345474 -0.639933 -0.6695 0.377169 
-0.414944 1.9711 0.416512 -0.707117 0 0.707096 
-0.414944 1.52636 0.416512 -0.709521 -0.00936392 0.704623 
-0.04847 1.97279 0.416523 -1.44347e-05 -4.67205e-07 1 
0.411247 1.97249 0.416523 0.705746 0.00859375 0.708413 
-0.025936 1.63841 0.416523 0.0140913 -0.044238 0.998922 
0.413609 1.77851 0.416523 0.559083 -0.172378 0.810995 
0.028927 1.53075 0.399788 0.086899 -0.200829 0.975765 
0.34481 1.47678 0.341293 0.611767 -0.319869 0.723481 
0.414932 1.41646 0.416359 0.902538 0.030683 0.429516 
-0.12833 1.45983 0.416256 -0.44729 -0.000233687 0.894389 
0.414932 1.01878 0.416199 0.447137 -0.000233707 0.894466 
-0.12833 1.01878 0.416203 -0.894427 -5.37589e-05 0.447215 
0.108719 1.026 0.371456 0.0162877 -0.958438 0.284835 
-0.285275 0.955901 0.416523 0.000195372 -0.0011909 0.999999 
-0.414833 0.780968 0.41634 -0.707094 -0.0001622 0.70712 
0.411201 0.955121 0.416386 0.447061 -0.000222564 0.894503 
-0.414944 0.508174 0.416512 -0.447017 -5.51452e-05 0.894526 
-0.003887 0.508021 0.416191 7.66522e-05 -0.0005073 1 
0.41066 0.508018 0.416451 0.706202 -0.000751586 0.70801 
0.414932 0.441647 0.416256 0.894373 -7.70509e-05 0.447322 
0.175819 0.4431 0.415958 -0.000110197 0.000175945 1 
0.414917 0.1398 0.416271 0.446709 0.000347382 0.894679 
-0.042938 0.44257 0.416229 0.000778571 -0.000209288 1 
-0.12833 0.441646 0.416256 -0.706994 -8.50134e-05 0.707219 
-0.12833 0.000591 0.416203 -0.554464 9.92833e-05 0.832208 
0.311745 0.001191 0.4156 0.3223 -0.689592 0.648525 
0.342537 4.53471 0.336831 0.639908 0.451379 0.621912 
0.345943 3.51236 0.342496 0.674963 0.509004 0.534172 
-0.048885 2.99053 0.364025 -0.56642 0.786658 0.245636 
-0.063248 1.52452 0.363083 -0.294669 -0.84401 0.448125 
0.34742 1.0164 0.363811 0.299022 -0.850419 0.432866 
-0.103867 0.508018 0.364494 -0.151003 -0.984784 0.0860163 
0.414856 0 0.246922 0.268478 -0.948533 0.167942 
0.353855 3.03015 0.347116 0.808591 -0.13115 0.573569 
0.34758 2.03276 0.364197 0.271265 -0.904344 0.329511 
-0.087482 1.46674 0.345936 -0.592129 0.75451 0.283017 
0.407646 1.46626 0.339176 0.16787 0.949608 0.264697 
-0.059608 0.995345 0.342857 -0.485499 0.145967 0.861965 
-0.414913 0.954732 0.23827 -0.695169 0.514327 0.502202 
-0.05965 0.489694 0.34164 -0.644216 -0.508284 0.571519 
0.347504 0.44907 0.363991 0.545505 0.714678 0.437789 
-0.063351 4.01019 0.363244 -0.469215 0.747366 0.470406 
0.345943 4.0577 0.342603 0.645943 0.169316 0.744372 
0.410732 4.00826 -0.181167 0.155825 0.98717 -0.0348488 
-0.412804 3.56178 0.32377 -0.831927 -0.24976 0.495497 
-0.043575 3.0294 0.346829 -0.474097 -0.491016 0.730845 
0.344826 2.52463 0.340702 0.442047 -0.477064 0.759608 
-0.054173 2.00749 0.337677 -0.638578 -0.552041 0.536161 
-0.414944 1.97248 -0.412796 -0.00623325 0.99998 0.000941328 
0.348705 1.97594 0.363243 0.523713 0.764892 0.375053 
0.34893 0.957077 0.363529 0.48827 0.84602 0.214108 
-0.059093 4.52257 0.34224 -0.805729 0.485041 0.339905 
-0.043533 3.51373 0.34657 -0.493812 0.719897 0.487749 
0.414932 2.47526 -0.126484 0.706717 -0.00220127 -0.707492 
0.364677 1.52427 0.324028 0.711841 -0.357043 0.604816 
0.406162 1.52917 0.306374 0.931999 -0.159326 0.325566 
0.412788 4.57753 -0.156638 0.999936 -0.00977657 0.00572258 
0.414932 4.51116 -0.126483 0.880785 -0.0505632 -0.47081 
-0.059299 4.05768 -0.0535 -0.594513 -0.450657 -0.66593 
0.414932 3.05176 0.246979 0.99637 -0.0304647 0.0794896 
-0.059265 3.02957 0.144104 -0.796671 -0.604018 0.0218541 
-0.057934 2.48628 -0.052216 -0.577193 0.614771 -0.537498 
-0.059498 0.465767 -0.053707 -0.568621 0.687387 -0.451851 
0.414932 3.49344 -0.126483 0.0870182 0.993458 -0.0739499 
0.414932 2.0344 -0.031189 0.332858 -0.924744 -0.184535 
0.34576 4.52258 -0.053283 0.469293 0.808955 -0.354056 
-0.414692 3.55982 -0.412082 -0.8325 -0.00529575 -0.553999 
-0.080059 3.55753 0.08254 -0.589818 -0.807014 -0.0290304 
0.39994 2.5513 0.026524 0.303022 -0.951545 -0.0523418 
0.412788 3.55982 -0.156634 0.9978 -0.0336343 -0.0571329 
0.348732 2.54101 -0.072964 0.488906 -0.824684 -0.284372 
0.348579 1.97624 -0.072689 0.279815 0.927506 -0.247863 
0.348354 4.57518 -0.072284 0.354628 -0.838318 -0.414081 
0.414932 4.8512 0.079251 0.992213 0.124363 -0.00689679 
-0.05909 4.52259 -0.053267 -0.334227 0.742863 -0.58004 
0.344685 4.0134 -0.071052 0.205677 0.887228 -0.412945 
0.342724 4.05832 -0.052401 0.381285 -0.849237 -0.365265 
-0.060966 3.5004 -0.074553 -0.657124 0.674608 -0.336291 
0.345722 3.53634 -0.052821 0.630971 -0.686597 -0.361193 
0.330215 3.02945 -0.057095 0.414585 -0.593078 -0.690201 
0.34597 2.02106 -0.053467 0.577167 -0.608812 -0.544266 
-0.082382 1.5262 -0.090912 -0.388343 -0.896976 -0.211245 
0.414932 1.01878 -0.126427 0.858265 0.0469071 -0.511059 
-0.063648 0.957101 -0.072933 -0.223592 0.90975 -0.349803 
0.363842 0.508018 -0.051498 0.533951 -0.649164 -0.54174 
-0.12833 4.51116 -0.126475 -0.831972 -0.000677618 -0.554818 
0.4133 4.07139 0.009336 0.242082 -0.96745 -0.0737306 
-0.082382 4.00826 -0.090911 -0.217139 0.959025 -0.181996 
-0.12833 2.03421 -0.126419 -0.46698 -0.882482 -0.0561709 
-0.059601 0.995336 -0.05373 -0.419309 -0.817253 -0.39532 
0.411263 0.954778 -0.259201 0.213626 0.973866 -0.0771314 
0.412067 0.508018 -0.312386 0.96511 -0.0818996 -0.248707 
0.400124 5.0166 0.160089 0.711073 0.684288 -0.161633 
-0.082386 4.57753 -0.090911 -0.368672 -0.914735 -0.165352 
0.344616 2.48627 -0.052235 0.50575 0.66532 -0.549151 
-0.059315 2.02104 -0.053474 -0.343315 -0.833865 -0.432208 
-0.078262 1.97464 -0.051373 -0.433435 0.807702 -0.399689 
-0.063595 0.506905 -0.072842 -0.202862 -0.968934 -0.141474 
-0.08017 2.99165 0.125904 -0.239787 0.970759 0.0113942 
-0.082375 2.54163 -0.090908 -0.233647 -0.948583 -0.213538 
0.380898 4.97011 0.051198 0.854629 0.517953 -0.0365225 
-0.12833 3.49345 -0.126475 -0.105233 0.992983 -0.0539585 
-0.12833 3.05239 -0.126419 -0.707112 -8.97895e-05 -0.707102 
0.348701 2.99107 -0.072868 0.35383 0.871539 -0.339446 
-0.12833 2.47526 -0.126484 -0.894427 -6.59213e-05 -0.447214 
-0.12833 1.45983 -0.126476 -0.0887587 0.995059 -0.0444856 
0.414303 1.45955 0.009247 0.985584 0.0510558 -0.161297 
-0.414875 0.508018 -0.412224 -0.832273 -0.00283246 -0.554358 
0.414932 0.441645 -0.126484 0.257522 0.93052 -0.260415 
0.310539 5.0219 -0.075602 0.339459 0.940612 0.00415809 
0.414932 3.05239 -0.126427 0.0856578 -0.975262 -0.203783 
0.348759 0.957219 -0.07296 0.228369 0.946713 -0.227117 
0.34758 3.50039 -0.07455 0.287483 0.818247 -0.49782 
-0.059132 3.00738 -0.052715 -0.725103 0.603679 -0.331357 
-0.060978 1.46663 -0.074657 -0.356933 0.628497 -0.691079 
0.372162 1.46377 -0.10643 0.589245 0.749065 -0.302805 
-0.12833 1.01878 -0.126419 -0.707112 -9.14017e-05 -0.707102 
-0.12833 0.441647 -0.126476 -0.169835 0.972136 -0.161577 
-0.059349 3.53638 -0.05276 -0.384742 -0.597482 -0.703554 
-0.082378 2.99007 -0.090908 -0.0795746 0.985737 -0.148292 
0.41077 2.99007 -0.259197 0.978974 0.0786639 -0.18821 
0.414932 2.7938 -0.02718 0.99874 -0.0493557 -0.00907373 
0.414932 0.000593 -0.126427 -0.000789717 -0.999999 -0.000794323 
-0.4147 4.00826 -0.412082 -0.708112 -1.26119e-05 -0.706101 
-0.208004 0.956463 -0.414753 -0.00784886 0.972691 -0.231971 
0.376099 2.55199 -0.076576 0.36425 -0.929085 -0.0642148 
0.414299 1.97464 -0.415867 0.832405 -0.00604764 -0.554135 
0.3302 0.992938 -0.05714 0.700289 -0.172026 -0.692823 
0.412697 4.98951 -0.091517 0.895662 0.431361 0.108244 
0.348473 1.52446 -0.072445 0.329733 -0.740234 -0.585944 
-0.12833 4.0701 -0.126418 -0.707307 -9.13761e-05 -0.706906 
-0.05957 3.03152 -0.053703 -0.321391 -0.701465 -0.636124 
-0.414944 4.89232 -0.415175 -0.702108 0.0135091 -0.711942 
0.173607 3.00884 -0.056915 -0.0142712 0.464994 -0.885199 
0.412926 2.15851 -0.12542 0.70618 -0.00685062 -0.707999 
-0.12833 0.000591 -0.126419 -0.707112 -9.14015e-05 -0.707102 
0.32935 4.07037 -0.12638 0.31573 -0.0614773 -0.946855 
0.348251 2.03415 -0.12674 0.275158 -0.916977 -0.288863 
-0.403172 1.5262 -0.412113 -9.23182e-05 -1 9.22e-05 
0.413193 1.5262 -0.414753 0.0158248 -0.999875 -0.000403432 
0.414932 0.837922 -0.416512 0.58184 -0.124367 -0.803738 
0.413055 2.54163 -0.414619 0.738045 0.0587796 -0.672187 
-0.4147 2.99007 -0.412083 -0.705014 -0.00795455 -0.709149 
0.414932 4.59109 -0.416491 0.708832 0.00425042 -0.705364 
0.414677 2.57605 -0.287498 0.994027 -0.0841847 0.0694441 
0.413059 5.02597 -0.414622 0.352812 0.78684 -0.506365 
0.413059 4.00826 -0.414622 0.659911 -0.0466227 -0.749896 
0.129227 0.942248 -0.416519 0.0483444 0.695751 -0.716654 
-0.414944 0.941069 -0.414955 -0.706613 -0.00457489 -0.707585 
0.399799 0.936353 -0.394314 0.509811 0.649221 -0.564451 
0.350071 3.55982 -0.41159 0.611687 -0.0912306 -0.785822 
0.15604 0.508018 -0.414433 0.000510556 -0.999996 -0.00292999 
0.311195 2.97589 -0.416519 -0.00290874 0.99889 -0.0470192 
-0.402885 5.01179 -0.416518 -0.558192 0.601757 -0.571236 
-0.402885 4.59172 -0.416518 -0.700431 -0.0249118 -0.713285 
-0.402885 2.55583 -0.416519 -0.70078 -0.0117805 -0.713281 
-0.12833 4.19441 0.416268 -0.487091 -0.331928 0.807815 
-0.043068 4.06988 0.416513 -0.29922 -0.818938 0.489701 
0.286404 3.93022 0.416524 -2.15376e-05 -0.00107381 1 
0.413269 3.9945 0.416524 0.894483 -0.00113819 0.447101 
-0.414886 4.00826 0.416463 -0.894537 0.000193453 0.446994 
-0.12833 2.47526 0.416256 -0.707107 2.45496e-05 0.707107 
0.414932 2.47527 0.416256 0.320821 -0.0279659 0.946727 
-0.026253 2.03376 0.399899 -0.195479 -0.87238 0.448042 
-0.12833 2.15851 0.416267 -0.841074 -0.299948 0.450139 
-0.025936 1.63841 0.416523 0.0386368 -0.134231 0.990197 
-0.414944 1.52636 0.416512 0.0142958 -0.941468 0.336798 
0.028927 1.53075 0.399788 -0.013548 -0.80695 0.590464 
0.414932 1.01878 0.416199 -0.000605773 -0.999752 -0.0222484 
-0.12833 1.01878 0.416203 -0.141711 -0.988125 0.059389 
0.414917 0.1398 0.416271 0.423001 -0.318962 0.848136 
-0.12833 0.000591 0.416203 0.000370031 -0.948271 0.317463 
-0.12833 4.51203 0.400388 -0.0851697 0.98812 0.127925 
0.328091 4.50721 0.408196 0.196321 0.90099 0.386878 
0.41301 4.51117 0.318677 0.29261 0.947716 0.127332 
-0.12833 3.49345 0.416257 -0.0765293 0.980513 0.180936 
0.414932 3.49345 0.416257 0.134433 0.982843 0.126287 
-0.414886 2.99007 0.416462 -0.00286584 0.999995 0.00157187 
0.289162 2.99007 0.416439 -0.00318064 0.840275 0.542151 
0.34481 1.47678 0.341293 0.326996 0.722212 0.609494 
-0.12833 1.45983 0.416256 -0.043451 0.971179 0.234357 
0.414932 1.41646 0.416359 0.111171 0.822834 0.557302 
-0.003887 0.508021 0.416191 -0.0641792 -0.976661 0.204976 
-0.414944 0.508174 0.416512 -0.00126621 -0.999999 0.00116738 
0.251522 3.0523 0.416524 0.0983458 -0.895194 0.43469 
0.382877 3.07994 0.388761 0.514116 -0.706498 0.486359 
0.414932 2.03421 0.416199 0.0108811 -0.999847 0.0136729 
-0.285275 0.955901 0.416523 -0.0712324 0.988485 0.133507 
0.411201 0.955121 0.416386 0.0447142 0.989604 0.136693 
-0.285275 0.955901 0.416523 -0.695169 0.514327 0.502202 
-0.414833 0.780968 0.41634 -0.695169 0.514327 0.502202 
0.41066 0.508018 0.416451 0.175761 -0.944269 0.278325 
0.175819 0.4431 0.415958 0.0265294 0.938197 0.345083 
0.414932 0.441647 0.416256 0.0578493 0.996085 0.066838 
0.410568 4.57771 0.339391 0.219782 -0.941458 0.255641 
0.333225 4.57758 0.416383 0.000152391 -0.999999 -0.00158724 
-0.025936 4.57753 0.416448 -0.175489 -0.896588 0.406613 
0.414932 4.0701 0.4162 0.0550217 -0.996909 0.056075 
-0.12833 3.05239 0.416203 -0.191095 -0.975043 0.113023 
0.407608 2.97333 0.413239 0.366627 0.908374 0.2011 
-0.058487 2.52475 0.340733 -0.441682 -0.830206 0.340112 
0.410522 2.54163 0.416267 0.144604 -0.984832 0.0958908 
-0.414944 1.9711 0.416512 -0.00461972 0.999988 0.00167116 
-0.04847 1.97279 0.416523 -0.238905 0.962058 0.131788 
0.411247 1.97249 0.416523 0.03127 0.999259 0.0224522 
-0.412804 3.56178 0.32377 -0.023545 -0.998013 0.0584394 
-0.103737 3.56048 0.415734 -0.321554 -0.913546 0.249072 
-0.245987 3.56634 0.405057 -0.052876 -0.98509 0.163712 
0.410522 3.55982 0.416272 0.344242 -0.921779 0.178383 
-0.042938 0.44257 0.416229 -0.504281 0.803915 0.315313 
0.414932 3.05176 0.246979 0.442131 -0.892027 0.0938535 
-0.12833 0.441646 0.416256 -0.173096 0.984583 0.0251818 
0.414932 3.49344 -0.126483 0.707102 -8.97908e-05 -0.707112 
-0.414944 1.97248 -0.412796 -0.892109 -0.0124764 -0.451649 
0.414856 0 0.246922 1 -7.39642e-05 -3.85034e-05 
0.410732 4.00826 -0.181167 0.999985 0.00474399 0.00291143 
0.39994 2.5513 0.026524 0.996048 -0.0524806 -0.0716486 
-0.414913 4.57754 0.308522 -0.0140866 -0.999785 0.0151966 
-0.228867 4.5811 0.41446 -0.018203 -0.997686 0.065504 
0.412788 4.57753 -0.156638 0.00677842 -0.999519 -0.0302731 
0.412788 3.55982 -0.156634 0.0915327 -0.992638 -0.0793209 
0.414932 1.01878 -0.126427 0.0891205 -0.982971 -0.160701 
0.414932 4.51116 -0.126483 0.0548808 0.993144 -0.103213 
-0.414692 3.55982 -0.412082 -0.0430382 -0.99904 0.00821137 
0.411263 0.954778 -0.259201 0.999927 0.00035875 0.0121025 
-0.414883 2.54163 0.416451 -0.0273501 -0.998105 0.0551207 
-0.125778 2.54163 0.416447 3.00585e-06 -0.976037 0.217605 
0.414932 2.47526 -0.126484 0.0518006 0.993813 -0.0982524 
0.414932 2.0344 -0.031189 0.999884 -0.00321545 -0.0148756 
0.407646 1.46626 0.339176 0.999384 0.0317673 -0.0148918 
-0.414913 0.954732 0.23827 -0.0293139 0.999545 -0.00705113 
0.412067 0.508018 -0.312386 0.00120461 -0.999999 -0.000705555 
-0.12801 4.07043 0.365518 -1 -0.00104164 -0.000282688 
-0.12833 3.49345 -0.126475 -0.707112 -8.98013e-05 -0.707102 
-0.12833 1.45983 -0.126476 -0.700252 0.0173331 -0.713685 
-0.414913 0.954732 0.23827 -1 -0.00023216 0.000101018 
0.414932 0.441645 -0.126484 0.894462 -0.000134787 -0.447143 
0.4133 4.07139 0.009336 0.958303 -0.0875646 -0.272008 
0.414303 1.45955 0.009247 0.158379 0.987213 -0.0180742 
-0.12833 3.05239 -0.126419 -0.202191 -0.974556 -0.0967472 
0.364677 1.52427 0.324028 0.895793 -0.444331 0.0112001 
-0.12833 1.01878 -0.126419 -0.165562 -0.973555 -0.157413 
-0.12833 0.441647 -0.126476 -0.707112 -9.14019e-05 -0.707102 
0.41077 2.99007 -0.259197 0.0215214 0.999601 -0.0182816 
0.406162 1.52917 0.306374 0.0831329 -0.996539 -0.000277618 
-0.12833 4.51116 -0.126475 -0.0811406 0.993608 -0.078484 
-0.12833 4.0701 -0.126418 -0.0588024 -0.992114 -0.110688 
0.376099 2.55199 -0.076576 0.987839 -0.151492 -0.0349991 
-0.12833 2.47526 -0.126484 -0.0777302 0.994241 -0.0737689 
0.414932 0.000593 -0.126427 0.447239 -0.000115614 -0.894414 
0.414932 3.05239 -0.126427 0.707102 -8.97791e-05 -0.707112 
-0.12833 2.03421 -0.126419 -0.447455 0.000239103 -0.894307 
0.32935 4.07037 -0.12638 0.180531 -0.965085 -0.189786 
0.414299 1.97464 -0.415867 0.0106363 0.999941 -0.00208009 
0.372162 1.46377 -0.10643 0.587326 0.0925827 -0.804038 
-0.4147 4.00826 -0.412082 -0.000367294 0.999977 -0.00671298 
0.412926 2.15851 -0.12542 0.756373 -0.38776 -0.526823 
-0.12833 0.000591 -0.126419 3.68139e-06 -1 0 
0.348251 2.03415 -0.12674 0.0132595 -0.00142411 -0.999911 
0.413193 1.5262 -0.414753 0.709406 -0.0035005 -0.704791 
-0.414875 0.508018 -0.412224 -0.00168131 -0.999997 -0.00153923 
0.413059 4.00826 -0.414622 0 1 0 
0.414677 2.57605 -0.287498 0.607794 -0.792012 0.0574722 
0.413055 2.54163 -0.414619 0.438989 -0.894832 0.0810219 
0.414932 0.837922 -0.416512 0.447693 0.16505 -0.878823 
-0.414944 0.941069 -0.414955 -0.0741472 0.997029 -0.0208506 
-0.402885 4.59172 -0.416518 -0.00995935 -0.99927 -0.0368802 
0.414932 4.59109 -0.416491 -0.000762795 -0.998639 -0.0521491 
0.350071 3.55982 -0.41159 0 -1 0 
-0.4147 2.99007 -0.412083 0.00970366 0.999902 -0.0100404 
0.311195 2.97589 -0.416519 0.46601 0.105464 -0.878472 
-0.402885 2.55583 -0.416519 -0.0145248 -0.999649 -0.0221515 
-0.403172 1.5262 -0.412113 -0.446957 -0.0135409 -0.894453 
-0.208004 0.956463 -0.414753 -0.00197474 -0.00457186 -0.999988 
0.15604 0.508018 -0.414433 0.118803 -0.0996576 -0.987904 
3 0 1 2
3 1 3 2
3 1 4 3
3 4 5 6
3 4 6 3
3 2 3 7
3 2 7 8
3 9 10 11
3 11 10 12
3 13 9 14
3 9 11 14
3 202 15 203
3 16 17 18
3 19 16 18
3 204 20 21
3 205 204 21
3 204 206 22
3 204 22 20
3 20 22 23
3 24 25 26
3 25 24 27
3 24 26 28
3 24 28 27
3 26 29 28
3 30 31 32
3 31 33 32
3 34 30 32
3 33 35 36
3 37 34 32
3 32 33 36
3 32 36 38
3 32 38 37
3 39 40 41
3 207 42 208
3 208 42 43
3 208 43 44
3 209 210 45
3 46 47 48
3 48 51 49
3 50 48 47
3 51 50 52
3 211 212 213
3 53 51 52
3 54 55 56
3 55 57 56
3 214 215 58
3 59 60 61
3 60 62 61
3 61 63 64
3 63 61 62
3 65 66 67
3 68 69 70
3 66 68 70
3 67 66 70
3 216 217 71
3 1 5 4
3 72 218 219
3 220 72 219
3 73 221 222
3 74 223 224
3 75 213 212
3 225 226 227
3 76 214 58
3 77 228 229
3 217 78 71
3 230 79 231
3 209 80 232
3 225 81 226
3 82 225 227
3 83 233 234
3 235 84 236
3 85 237 228
3 86 238 239
3 240 241 242
3 15 243 203
3 87 17 16
3 88 87 16
3 88 16 19
3 89 88 19
3 90 23 22
3 91 230 244
3 91 79 230
3 79 224 245
3 246 92 247
3 45 93 209
3 93 80 209
3 94 248 249
3 95 249 250
3 96 83 234
3 77 85 228
3 242 97 72
3 240 242 72
3 218 72 97
3 243 15 88
3 15 87 88
3 251 252 253
3 254 252 73
3 73 252 98
3 221 73 98
3 74 224 91
3 224 79 91
3 33 31 35
3 92 246 39
3 92 39 41
3 208 44 99
3 249 95 93
3 95 80 93
3 213 75 225
3 100 51 53
3 100 101 51
3 225 75 81
3 58 215 83
3 76 58 83
3 76 83 96
3 237 85 86
3 255 238 85
3 238 86 85
3 216 71 78
3 102 2 8
3 103 13 14
3 15 104 87
3 25 27 105
3 79 256 231
3 91 106 74
3 246 107 39
3 40 39 107
3 108 257 255
3 108 255 85
3 109 73 222
3 258 25 105
3 80 110 232
3 46 259 47
3 65 67 260
3 220 111 72
3 22 112 90
3 251 113 252
3 92 114 247
3 206 112 22
3 261 205 115
3 115 205 21
3 34 37 262
3 116 92 41
3 117 95 250
3 0 2 102
3 263 242 264
3 72 118 240
3 0 102 119
3 72 111 118
3 118 265 240
3 218 97 120
3 121 122 88
3 89 121 88
3 113 123 252
3 254 73 124
3 124 266 254
3 252 123 98
3 79 125 256
3 126 80 95
3 117 126 95
3 212 127 75
3 127 81 75
3 128 54 56
3 76 267 214
3 83 129 233
3 237 86 130
3 220 268 111
3 10 131 12
3 122 132 88
3 132 243 88
3 133 17 87
3 133 87 104
3 269 113 251
3 45 134 93
3 215 135 83
3 136 96 234
3 270 61 137
3 138 0 119
3 139 242 263
3 242 139 97
3 271 246 272
3 116 41 140
3 273 140 41
3 99 44 274
3 134 141 93
3 142 249 93
3 77 143 85
3 144 223 74
3 271 145 246
3 116 114 92
3 142 94 249
3 275 54 128
3 129 276 233
3 229 143 77
3 138 1 0
3 139 120 97
3 210 134 45
3 61 64 137
3 277 237 130
3 138 119 146
3 12 131 278
3 98 147 221
3 26 279 148
3 245 149 79
3 207 150 42
3 81 151 226
3 152 275 128
3 55 280 57
3 60 281 153
3 60 153 62
3 154 86 239
3 282 65 260
3 155 1 138
3 103 14 283
3 26 148 29
3 244 106 91
3 125 156 256
3 125 79 149
3 284 225 82
3 136 157 96
3 124 73 158
3 109 158 73
3 285 106 244
3 106 159 74
3 144 74 159
3 141 142 93
3 127 160 81
3 286 225 161
3 284 161 225
3 280 162 57
3 287 135 215
3 135 129 83
3 163 257 108
3 69 288 70
3 269 164 113
3 113 164 123
3 165 223 144
3 166 34 167
3 262 167 34
3 246 145 107
3 85 143 108
3 217 168 78
3 146 155 138
3 206 169 112
3 165 144 159
3 289 149 245
3 170 276 129
3 123 147 98
3 116 171 114
3 172 51 101
3 157 173 96
3 174 146 119
3 175 290 286
3 120 291 218
3 131 176 278
3 292 104 15
3 106 177 159
3 126 110 80
3 49 51 172
3 76 173 267
3 1 178 5
3 174 119 102
3 106 285 177
3 167 262 293
3 107 294 40
3 175 286 161
3 160 151 81
3 96 173 76
3 130 86 154
3 295 282 260
3 139 118 120
3 118 111 120
3 104 122 121
3 133 104 121
3 124 158 164
3 158 123 164
3 258 105 296
3 177 156 125
3 177 179 159
3 177 125 179
3 125 149 179
3 165 159 179
3 165 179 149
3 145 116 107
3 116 140 107
3 273 107 140
3 99 274 180
3 297 42 150
3 141 126 142
3 126 117 142
3 127 175 160
3 160 175 161
3 287 267 135
3 267 173 135
3 135 173 129
3 157 129 173
3 143 130 108
3 130 154 108
3 288 181 70
3 174 155 146
3 103 283 182
3 298 132 122
3 109 123 158
3 141 183 126
3 183 110 126
3 250 299 117
3 128 300 152
3 265 118 139
3 292 122 104
3 292 298 122
3 301 133 121
3 89 301 121
3 269 266 164
3 266 124 164
3 109 147 123
3 273 294 107
3 302 110 183
3 299 142 117
3 185 127 184
3 185 290 175
3 151 160 161
3 170 129 157
3 136 170 157
3 186 270 137
3 143 277 130
3 303 168 217
3 268 291 120
3 268 120 111
3 285 156 177
3 187 166 167
3 31 188 35
3 134 183 141
3 154 163 108
3 174 102 189
3 131 103 182
3 131 182 176
3 279 258 148
3 148 258 296
3 289 165 149
3 190 167 293
3 297 150 99
3 99 180 304
3 99 304 297
3 172 101 305
3 212 184 127
3 280 300 128
3 280 128 162
3 306 143 229
3 282 295 288
3 288 295 181
3 187 167 190
3 191 1 155
3 192 261 115
3 174 191 155
3 191 174 189
3 307 301 89
3 308 171 116
3 309 308 116
3 136 193 170
3 281 194 153
3 195 136 310
3 192 115 196
3 143 197 277
3 198 165 289
3 299 94 142
3 170 311 276
3 195 193 136
3 191 199 1
3 1 199 178
3 5 178 200
3 312 139 263
3 312 265 139
3 312 313 265
3 301 17 133
3 269 314 266
3 315 223 165
3 198 315 165
3 316 166 187
3 188 201 35
3 317 145 271
3 317 116 145
3 317 309 116
3 47 259 318
3 197 143 306
3 199 191 178
3 191 189 178
3 178 189 200
3 169 192 112
3 192 196 112
3 188 316 187
3 188 187 201
3 259 172 318
3 172 305 318
3 319 153 194
3 193 195 310
3 153 319 320
3 193 310 170
3 319 186 320
3 186 137 320
3 48 50 51
3 185 175 127
