ply
format ascii 1.0
comment INFO-3111 Flatenator generated
comment TextureFile Dungeons_Texture_01.png
element vertex 1030
property float x
property float y
property float z
element face 1176
property list uchar int vertex_indices
end_header
0.852684 5.02988 0.264745 
0.010666 5.02774 0.261716 
0.086411 4.54661 0.264714 
1.53355 5.02717 0.238908 
0.950653 5.05178 0.2641 
0.967751 4.58289 0.249154 
2.21406 5.01368 0.264875 
0.804184 4.59278 0.262963 
2.19663 4.53365 0.26489 
1.05432 3.92772 0.264688 
0.144424 3.89177 0.265378 
0.751068 3.43495 0.265317 
3.92163 3.91462 0.196389 
3.93736 3.44711 0.265012 
4.24205 3.91583 0.266385 
4.96718 3.89362 0.264844 
4.99676 3.41199 0.265836 
3.87337 3.90396 0.263913 
3.89153 3.42314 0.265847 
3.05138 3.92857 0.264459 
3.04086 3.50811 0.264318 
0.009415 3.88552 0.228883 
0.013138 3.40522 0.264554 
1.07917 3.4332 0.202283 
3.03287 3.4334 0.20321 
5.01086 2.78994 0.264996 
4.54918 2.78201 0.266628 
4.86346 2.30891 0.262421 
3.98375 2.39026 0.245621 
5.00825 2.32595 0.234829 
4.9464 1.68404 0.21904 
4.81702 1.66961 0.261505 
5.00841 1.18765 0.263939 
3.342 1.08072 0.265846 
2.49052 1.11058 0.264759 
2.64493 0.627896 0.251575 
2.49523 0.674229 0.257244 
3.31601 0.588356 0.200203 
1.47987 0.564509 0.260292 
1.39894 0.596794 0.236122 
1.36435 0.099033 0.272461 
1.69574 4.48586 0.19661 
4.28541 3.99819 0.238389 
3.13431 4.48776 0.271779 
3.43277 4.03634 0.263784 
3.3439 3.98265 0.196942 
3.04833 3.95401 0.196313 
0.019592 2.80596 0.26849 
0.024498 2.36898 0.247959 
1.02758 2.77097 0.245613 
3.9443 2.805 0.202515 
3.86822 2.80609 0.244282 
3.69096 2.35923 0.240196 
3.91085 2.37571 0.214611 
3.94831 1.60484 0.247078 
2.40631 0.627387 0.263523 
2.42238 1.09213 0.24987 
1.60412 0.652281 0.255775 
1.8609 0.019386 0.241352 
5.02048 5.0136 0.247212 
3.80312 5.05491 0.247651 
4.56449 4.54969 0.247464 
3.14764 4.54656 0.24035 
3.73968 5.02949 0.2478 
2.87741 5.02949 0.2478 
2.97142 4.60872 0.224919 
3.81023 4.55957 0.229665 
5.00324 4.53391 0.247651 
2.27826 5.02463 0.242097 
2.90303 4.57166 0.200826 
2.26994 4.5476 0.247922 
4.25557 4.54882 0.195943 
3.1115 4.50878 0.196683 
2.47305 4.49929 0.196401 
4.22523 4.46319 0.240911 
0.886253 4.50878 0.195291 
0.593643 4.4951 0.247922 
1.65104 4.46935 0.247922 
0.50563 4.47879 0.24767 
0.004257 4.48109 0.214078 
0.460701 4.00259 0.238889 
1.29207 3.99682 0.247582 
1.69568 3.98279 0.196778 
4.96976 4.47667 0.246862 
4.33682 4.47972 0.246743 
4.96927 3.99682 0.247922 
2.43207 4.47682 0.247003 
1.71056 4.47682 0.247003 
2.11654 3.99276 0.232411 
3.06945 4.47765 0.245763 
2.48611 4.47722 0.247991 
2.75947 4.03326 0.240438 
3.29999 3.99584 0.248231 
1.71133 3.99686 0.247922 
2.42949 3.99064 0.204721 
-0.00487 4.03877 0.217666 
0.568924 4.00712 0.19365 
4.89989 3.91275 0.203008 
1.39417 3.91283 0.247598 
1.13882 3.92469 0.202741 
1.1461 3.58664 0.247922 
1.6824 3.44178 0.229222 
1.72272 3.52552 0.241666 
2.99808 3.89906 0.252797 
2.4594 3.92726 0.240254 
2.97307 3.41617 0.24838 
5.02916 3.37388 1e-06 
2.25795 3.46177 0.234315 
3.20232 3.3761 0.188554 
1.64914 3.41647 0.193105 
1.24178 3.32366 0.241956 
1.65153 2.87291 0.246952 
0.525536 3.36591 0.196832 
0.594421 2.83906 0.247921 
4.34274 3.3392 0.244504 
4.93271 2.8625 0.247272 
4.93237 3.34144 0.247922 
4.27582 3.34937 0.247884 
3.3868 3.31647 0.247705 
4.28051 2.86696 0.247875 
1.71084 3.34178 0.247827 
1.7105 2.86241 0.246822 
2.43182 3.34181 0.247861 
-0.055176 3.34143 0.247922 
0.522003 2.86252 0.247265 
0.521667 3.34143 0.247922 
4.32838 2.83946 0.196423 
2.49108 2.84462 0.233757 
3.40311 2.83408 0.247921 
0.573387 2.82822 0.196251 
2.20518 2.78993 0.247051 
1.14848 2.78939 0.245277 
2.13788 2.31114 0.24147 
1.3024 2.31461 0.248047 
3.02841 2.77802 0.225639 
2.26168 2.78425 0.247314 
2.94262 2.28761 0.247314 
2.28481 2.321 0.242622 
2.22504 2.3128 0.19545 
-0.050132 2.30527 0 
1.0258 2.29524 0.229839 
1.04982 2.27207 0.196346 
4.97488 2.23021 0.242428 
4.34476 2.27099 0.194386 
4.34376 2.05001 0.245041 
0.478111 2.19571 0.237175 
-0.051865 2.21074 0.237728 
0.094345 1.73795 0.245365 
2.43106 2.23019 0.246014 
1.71084 2.16491 0.247921 
1.71079 1.7541 0.247314 
3.31333 2.23322 0.247025 
2.49271 2.22442 0.241016 
3.34014 1.75005 0.24564 
4.76996 1.75623 0.247395 
0.524429 1.75614 0.247921 
3.39568 2.21319 0.269657 
3.40434 1.68268 0.195862 
3.39833 1.73538 0.247467 
2.48682 1.7804 0.247921 
3.94144 1.68625 0.193745 
1.06485 1.66409 0.250507 
0.021688 1.72516 0.210767 
0.99881 1.23202 0.246372 
2.2589 1.67553 0.196423 
1.14491 1.66455 0.247845 
2.09028 1.23146 0.244663 
3.00945 1.73218 0.189377 
3.05726 1.21522 0.238907 
3.09833 1.66407 0.247921 
3.87189 1.66666 0.243053 
0.00412 1.1862 0.249493 
5.00444 1.72134 0.071539 
2.23587 1.248 0.197823 
3.83184 1.18712 0.247227 
2.99064 1.65114 0.246815 
2.26949 1.66459 0.247387 
2.98283 1.18665 0.24651 
3.94305 1.1591 0.196785 
2.32635 1.24301 0.243423 
1.19528 1.23168 0.242695 
2.48518 1.13825 0.19463 
1.70294 1.13483 0.240829 
0.583626 1.10686 0.192936 
-0.035019 1.08603 0.247841 
0.492981 0.777006 0.241173 
0.586128 0.603593 0.247581 
1.18272 1.08628 0.247368 
1.5648 0.603705 0.247589 
4.9769 1.0798 0.242306 
4.29131 1.07897 0.247921 
4.97364 0.604755 0.247921 
4.45871 0.604113 0.247921 
-0.036514 0.602044 0.242702 
2.46348 0.58084 0.192894 
0.551826 0.718502 0.1833 
0.438011 0.543407 0.190456 
3.97836 0.591656 0.19669 
3.40125 1.10448 0.247665 
3.38646 0.626163 0.247658 
1.56618 0.578414 0.196423 
3.10457 0.524283 0.245014 
1.90042 0.520246 0.19659 
3.10383 0.041854 0.247921 
4.06529 0.517279 0.247921 
3.16615 0.541674 0.245575 
3.15462 0.055239 0.247738 
4.41061 0.520827 0.247414 
5.01077 0.042231 0.247921 
5.01131 0.525557 0.239925 
-0.001884 0.495423 0.247894 
1.29952 0.056095 0.247658 
1.93628 0.041864 0.247921 
4.15247 0.511754 0.192848 
4.11941 0.033576 0.247791 
0.011857 0.003756 0.185637 
0.227425 0.02329 0.247288 
2.22236 5.0129 0.195235 
2.28208 3.96139 0.196546 
3.30159 2.91151 0.239277 
3.39691 2.8207 0.20256 
1.72426 2.80079 0.200344 
0.044373 2.24162 0.19405 
2.95712 2.26896 0.205582 
1.64423 2.25703 0.197937 
4.98194 2.25874 0.131691 
0.535553 2.29327 0.191154 
0.583374 2.10656 0.24052 
1.63889 2.2497 0.234512 
4.28622 2.22296 0.255032 
4.30092 1.74257 0.195766 
0.594154 1.73267 0.241123 
1.70683 1.74203 0.202312 
0.619087 1.68255 0.195686 
3.03854 1.15648 0.192822 
1.14757 1.18201 0.202847 
1.29307 1.12104 0.188755 
0.942996 5.07071 0.048576 
0.935219 4.99903 0.20329 
2.19853 4.50888 0.196313 
0.006274 3.38619 0.170178 
3.92181 3.43406 0.196424 
3.12121 3.31838 0.243623 
1.0876 2.79743 0.194096 
2.25852 2.83911 0.196857 
3.38491 2.25509 0.191189 
1.14717 1.68195 0.195396 
3.10045 0.593776 0.19659 
3.1097 0.028723 0.040589 
3.12987 0.038815 0.063601 
4.14401 0.024292 0.063633 
0.225868 3.92122 0.193692 
2.47277 2.22445 0.196777 
3.88161 2.24234 0.20203 
3.35889 1.10103 0.196423 
0.586113 4.51978 0.196733 
-0.049393 2.81383 0.06353 
1.8701 -0.004802 0.048874 
2.23508 5.03369 0.07964 
4.96988 4.49408 0.163814 
4.99736 3.95856 1e-06 
4.29257 3.35559 0.195466 
4.92752 3.36542 0.132728 
4.89983 1.17271 0.202461 
1.34984 0.079174 0.201954 
3.10969 0.078277 0.203094 
-0.046749 3.96124 1e-06 
2.93461 3.32662 0.236505 
4.97562 1.15547 -0.036448 
1.86609 0.069707 0.194195 
1.33267 0.041184 0.070966 
-0.109889 2.25146 0 
-0.085733 1.68244 0 
5.00627 0.585776 0.063608 
5.01743 5.03282 0.063674 
2.88649 5.04199 0.071619 
0.917661 5.11327 1e-06 
-0.089569 2.81924 0 
5.04409 2.83226 0 
3.79069 5.05939 1e-06 
2.24533 4.99868 0.054642 
5.04582 2.26327 0 
-0.003025 1.11691 0 
4.93647 1.14989 -0.005957 
0.007568 5.04847 0.072597 
-0.000409 0.545121 0 
2.91153 5.04151 0.063501 
-0.046749 4.53044 1e-06 
1.85054 0.017229 0 
4.99938 4.5061 1e-06 
5.04509 0.554899 0 
5.04422 -0.015314 0 
-0.087697 3.38944 1e-06 
-0.012069 1.71696 0 
4.96969 1.13866 -0.036088 
-0.070084 1.11973 0 
0.706571 -0.014832 0 
5.04597 3.94415 1e-06 
4.17081 -0.015314 0 
-0.01671 -0.041635 0 
2.25496 5.04353 1e-06 
1.8464 -0.055288 0 
2.89117 5.05628 1e-06 
5.05554 1.70513 0 
-0.012444 5.05406 1e-06 
5.0567 1.1361 0 
3.1208 -0.015314 0 
5.02157 5.02973 1e-06 
4.99737 1.71538 0 
-0.021543 0.050325 0 
0.024445 3.48653 1e-06 
3.75834 5.05639 1e-06 
4.94647 2.83986 0 
4.94817 3.33633 1e-06 
1.31378 0.017126 0 
0.852684 5.02988 -0.264743 
0.086411 4.54661 -0.264712 
0.010666 5.02774 -0.261714 
1.53355 5.02717 -0.238906 
0.967751 4.58289 -0.249152 
0.950653 5.05178 -0.264098 
2.21406 5.01368 -0.264873 
0.804184 4.59278 -0.262961 
2.19663 4.53365 -0.264888 
1.05432 3.92772 -0.264686 
0.751068 3.43495 -0.265315 
0.144424 3.89177 -0.265376 
3.92163 3.91462 -0.196387 
4.24205 3.91583 -0.266383 
3.93736 3.44711 -0.26501 
4.96718 3.89362 -0.264842 
4.99676 3.41199 -0.265834 
3.89153 3.42314 -0.265845 
3.87337 3.90396 -0.263911 
3.04086 3.50811 -0.264316 
3.05138 3.92857 -0.264457 
0.009415 3.88552 -0.228881 
0.013138 3.40522 -0.264552 
1.07917 3.4332 -0.202281 
3.03287 3.4334 -0.203208 
5.01086 2.78994 -0.264996 
4.86346 2.30891 -0.262421 
4.54918 2.78201 -0.266628 
3.98375 2.39026 -0.245621 
5.00825 2.32595 -0.234829 
4.9464 1.68404 -0.21904 
5.00841 1.18765 -0.263939 
4.81702 1.66961 -0.261505 
3.342 1.08072 -0.265846 
2.64493 0.627896 -0.251575 
2.49052 1.11058 -0.264759 
2.49523 0.674229 -0.257244 
3.31601 0.588356 -0.200203 
1.47987 0.564509 -0.260292 
1.36435 0.099033 -0.272461 
1.39894 0.596794 -0.236122 
1.69574 4.48586 -0.196608 
4.28541 3.99819 -0.238387 
3.43277 4.03634 -0.263782 
3.13431 4.48776 -0.271777 
3.3439 3.98265 -0.19694 
3.04833 3.95401 -0.196311 
0.019592 2.80596 -0.26849 
1.02758 2.77097 -0.245613 
0.024498 2.36898 -0.247959 
3.9443 2.805 -0.202515 
3.86822 2.80609 -0.244282 
3.91085 2.37571 -0.214611 
3.69096 2.35923 -0.240196 
3.94831 1.60484 -0.247078 
2.40631 0.627387 -0.263523 
1.60412 0.652281 -0.255775 
2.42238 1.09213 -0.24987 
1.8609 0.019386 -0.241352 
5.02048 5.0136 -0.24721 
4.56449 4.54969 -0.247462 
3.80312 5.05491 -0.247649 
3.14764 4.54656 -0.240348 
2.87741 5.02949 -0.247798 
3.73968 5.02949 -0.247798 
2.97142 4.60872 -0.224917 
3.81023 4.55957 -0.229663 
5.00324 4.53391 -0.247649 
2.27826 5.02463 -0.242095 
2.90303 4.57166 -0.200824 
2.26994 4.5476 -0.24792 
4.25557 4.54882 -0.195941 
3.1115 4.50878 -0.196681 
2.47305 4.49929 -0.196399 
4.22523 4.46319 -0.240909 
0.886253 4.50878 -0.195289 
1.65104 4.46935 -0.24792 
0.593643 4.4951 -0.24792 
0.50563 4.47879 -0.247668 
0.460701 4.00259 -0.238887 
0.004257 4.48109 -0.214076 
1.29207 3.99682 -0.24758 
1.69568 3.98279 -0.196776 
4.96976 4.47667 -0.24686 
4.96927 3.99682 -0.24792 
4.33682 4.47972 -0.246741 
2.43207 4.47682 -0.247001 
2.11654 3.99276 -0.232409 
1.71056 4.47682 -0.247001 
3.06945 4.47765 -0.245761 
2.75947 4.03326 -0.240436 
2.48611 4.47722 -0.247989 
3.29999 3.99584 -0.248229 
1.71133 3.99686 -0.24792 
2.42949 3.99064 -0.204719 
-0.00487 4.03877 -0.217664 
0.568924 4.00712 -0.193648 
4.89989 3.91275 -0.203006 
1.39417 3.91283 -0.247596 
1.1461 3.58664 -0.24792 
1.13882 3.92469 -0.202739 
1.6824 3.44178 -0.22922 
1.72272 3.52552 -0.241664 
2.99808 3.89906 -0.252795 
2.97307 3.41617 -0.248378 
2.4594 3.92726 -0.240252 
2.25795 3.46177 -0.234313 
3.20232 3.3761 -0.188552 
1.64914 3.41647 -0.193103 
1.65153 2.87291 -0.246952 
1.24178 3.32366 -0.241954 
0.594421 2.83906 -0.247921 
0.525536 3.36591 -0.19683 
4.34274 3.3392 -0.244502 
4.93237 3.34144 -0.24792 
4.93271 2.8625 -0.247272 
4.27582 3.34937 -0.247882 
4.28051 2.86696 -0.247875 
3.3868 3.31647 -0.247703 
1.71084 3.34178 -0.247825 
2.43182 3.34181 -0.247859 
1.7105 2.86241 -0.246822 
-0.055176 3.34143 -0.24792 
0.522003 2.86252 -0.247265 
0.521667 3.34143 -0.24792 
4.32838 2.83946 -0.196423 
2.49108 2.84462 -0.233757 
3.40311 2.83408 -0.247921 
0.573387 2.82822 -0.196251 
2.20518 2.78993 -0.247051 
2.13788 2.31114 -0.24147 
1.14848 2.78939 -0.245277 
1.3024 2.31461 -0.248047 
3.02841 2.77802 -0.225639 
2.94262 2.28761 -0.247314 
2.26168 2.78425 -0.247314 
2.28481 2.321 -0.242622 
2.22504 2.3128 -0.19545 
1.0258 2.29524 -0.229839 
1.04982 2.27207 -0.196346 
4.97488 2.23021 -0.242428 
4.34376 2.05001 -0.245041 
4.34476 2.27099 -0.194386 
0.478111 2.19571 -0.237175 
0.094345 1.73795 -0.245365 
-0.051865 2.21074 -0.237728 
2.43106 2.23019 -0.246014 
1.71079 1.7541 -0.247314 
1.71084 2.16491 -0.247921 
3.31333 2.23322 -0.247025 
3.34014 1.75005 -0.24564 
2.49271 2.22442 -0.241016 
4.76996 1.75623 -0.247395 
0.524429 1.75614 -0.247921 
3.39568 2.21319 -0.269657 
3.39833 1.73538 -0.247467 
3.40434 1.68268 -0.195862 
2.48682 1.7804 -0.247921 
3.94144 1.68625 -0.193745 
1.06485 1.66409 -0.250507 
0.99881 1.23202 -0.246372 
0.021688 1.72516 -0.210767 
2.2589 1.67553 -0.196423 
2.09028 1.23146 -0.244663 
1.14491 1.66455 -0.247845 
3.00945 1.73218 -0.189377 
3.09833 1.66407 -0.247921 
3.05726 1.21522 -0.238907 
3.87189 1.66666 -0.243053 
0.00412 1.1862 -0.249493 
5.00444 1.72134 -0.071539 
2.23587 1.248 -0.197823 
3.83184 1.18712 -0.247227 
2.99064 1.65114 -0.246815 
2.98283 1.18665 -0.24651 
2.26949 1.66459 -0.247387 
3.94305 1.1591 -0.196785 
2.32635 1.24301 -0.243423 
1.19528 1.23168 -0.242695 
2.48518 1.13825 -0.19463 
1.70294 1.13483 -0.240829 
0.583626 1.10686 -0.192936 
0.492981 0.777006 -0.241173 
-0.035019 1.08603 -0.247841 
1.18272 1.08628 -0.247368 
0.586128 0.603593 -0.247581 
1.5648 0.603705 -0.247589 
4.9769 1.0798 -0.242306 
4.97364 0.604755 -0.247921 
4.29131 1.07897 -0.247921 
4.45871 0.604113 -0.247921 
-0.036514 0.602044 -0.242702 
2.46348 0.58084 -0.192894 
0.551826 0.718502 -0.1833 
0.438011 0.543407 -0.190456 
3.97836 0.591656 -0.19669 
3.38646 0.626163 -0.247658 
3.40125 1.10448 -0.247665 
1.56618 0.578414 -0.196423 
3.10457 0.524283 -0.245014 
3.10383 0.041854 -0.247921 
1.90042 0.520246 -0.19659 
4.06529 0.517279 -0.247921 
3.15462 0.055239 -0.247738 
3.16615 0.541674 -0.245575 
4.41061 0.520827 -0.247414 
5.01131 0.525557 -0.239925 
5.01077 0.042231 -0.247921 
1.29952 0.056095 -0.247658 
-0.001884 0.495423 -0.247894 
1.93628 0.041864 -0.247921 
4.15247 0.511754 -0.192848 
4.11941 0.033576 -0.247791 
0.227425 0.02329 -0.247288 
0.011857 0.003756 -0.185637 
2.22236 5.0129 -0.195233 
2.28208 3.96139 -0.196544 
3.30159 2.91151 -0.239277 
3.39691 2.8207 -0.20256 
1.72426 2.80079 -0.200344 
0.044373 2.24162 -0.19405 
2.95712 2.26896 -0.205582 
1.64423 2.25703 -0.197937 
4.98194 2.25874 -0.131691 
0.583374 2.10656 -0.24052 
0.535553 2.29327 -0.191154 
1.63889 2.2497 -0.234512 
4.28622 2.22296 -0.255032 
4.30092 1.74257 -0.195766 
0.594154 1.73267 -0.241123 
1.70683 1.74203 -0.202312 
0.619087 1.68255 -0.195686 
3.03854 1.15648 -0.192822 
1.14757 1.18201 -0.202847 
1.29307 1.12104 -0.188755 
0.942996 5.07071 -0.048574 
0.935219 4.99903 -0.203288 
2.19853 4.50888 -0.196311 
0.006274 3.38619 -0.170176 
3.92181 3.43406 -0.196422 
3.12121 3.31838 -0.243621 
1.0876 2.79743 -0.194096 
2.25852 2.83911 -0.196857 
3.38491 2.25509 -0.191189 
1.14717 1.68195 -0.195396 
3.10045 0.593776 -0.19659 
3.1097 0.028723 -0.040589 
3.12987 0.038815 -0.063601 
4.14401 0.024292 -0.063633 
0.225868 3.92122 -0.19369 
2.47277 2.22445 -0.196777 
3.88161 2.24234 -0.20203 
3.35889 1.10103 -0.196423 
0.586113 4.51978 -0.196731 
-0.049393 2.81383 -0.06353 
1.8701 -0.004802 -0.048874 
2.23508 5.03369 -0.079638 
4.96988 4.49408 -0.163812 
4.29257 3.35559 -0.195464 
4.92752 3.36542 -0.132726 
4.89983 1.17271 -0.202461 
1.34984 0.079174 -0.201954 
3.10969 0.078277 -0.203094 
2.93461 3.32662 -0.236503 
4.97562 1.15547 0.036448 
1.86609 0.069707 -0.194195 
1.33267 0.041184 -0.070966 
5.00627 0.585776 -0.063608 
5.01743 5.03282 -0.063672 
2.88649 5.04199 -0.071617 
2.24533 4.99868 -0.05464 
4.93647 1.14989 0.005957 
0.007568 5.04847 -0.072595 
2.91153 5.04151 -0.063499 
4.96969 1.13866 0.036088 
3.92163 3.91462 0.196389 
3.87337 3.90396 0.263913 
3.89153 3.42314 0.265847 
3.04086 3.50811 0.264318 
2.19663 4.53365 0.26489 
0.967751 4.58289 0.249154 
4.28541 3.99819 0.238389 
3.43277 4.03634 0.263784 
3.05138 3.92857 0.264459 
1.47987 0.564509 0.260292 
1.36435 0.099033 0.272461 
3.81023 4.55957 0.229665 
2.87741 5.02949 0.2478 
4.56449 4.54969 0.247464 
3.81023 4.55957 0.229665 
3.14764 4.54656 0.24035 
2.90303 4.57166 0.200826 
2.26994 4.5476 0.247922 
3.13431 4.48776 0.271779 
1.65104 4.46935 0.247922 
0.593643 4.4951 0.247922 
4.22523 4.46319 0.240911 
4.28541 3.99819 0.238389 
2.42949 3.99064 0.204721 
4.24205 3.91583 0.266385 
4.96718 3.89362 0.264844 
4.99676 3.41199 0.265836 
1.72272 3.52552 0.241666 
1.6824 3.44178 0.229222 
1.1461 3.58664 0.247922 
1.07917 3.4332 0.202283 
0.013138 3.40522 0.264554 
0.751068 3.43495 0.265317 
4.27582 3.34937 0.247884 
4.28051 2.86696 0.247875 
4.32838 2.83946 0.196423 
3.9443 2.805 0.202515 
0.019592 2.80596 0.26849 
1.02758 2.77097 0.245613 
4.93271 2.8625 0.247272 
4.54918 2.78201 0.266628 
5.01086 2.78994 0.264996 
2.26168 2.78425 0.247314 
0.024498 2.36898 0.247959 
2.28481 2.321 0.242622 
2.20518 2.78993 0.247051 
2.13788 2.31114 0.24147 
3.39568 2.21319 0.269657 
3.39833 1.73538 0.247467 
4.9464 1.68404 0.21904 
2.48682 1.7804 0.247921 
3.09833 1.66407 0.247921 
3.05726 1.21522 0.238907 
4.9464 1.68404 0.21904 
5.00841 1.18765 0.263939 
2.2589 1.67553 0.196423 
2.09028 1.23146 0.244663 
3.87189 1.66666 0.243053 
3.83184 1.18712 0.247227 
2.26949 1.66459 0.247387 
2.32635 1.24301 0.243423 
3.94305 1.1591 0.196785 
2.49052 1.11058 0.264759 
3.342 1.08072 0.265846 
0.583626 1.10686 0.192936 
1.70294 1.13483 0.240829 
1.39894 0.596794 0.236122 
2.49523 0.674229 0.257244 
0.492981 0.777006 0.241173 
0.438011 0.543407 0.190456 
2.40631 0.627387 0.263523 
1.60412 0.652281 0.255775 
1.39894 0.596794 0.236122 
4.06529 0.517279 0.247921 
4.11941 0.033576 0.247791 
-0.001884 0.495423 0.247894 
4.15247 0.511754 0.192848 
4.11941 0.033576 0.247791 
0.227425 0.02329 0.247288 
2.21406 5.01368 0.264875 
2.87741 5.02949 0.2478 
2.97142 4.60872 0.224919 
0.50563 4.47879 0.24767 
0.460701 4.00259 0.238889 
0.568924 4.00712 0.19365 
1.71056 4.47682 0.247003 
1.71133 3.99686 0.247922 
2.99808 3.89906 0.252797 
2.42949 3.99064 0.204721 
2.4594 3.92726 0.240254 
2.25795 3.46177 0.234315 
3.3868 3.31647 0.247705 
3.3868 3.31647 0.247705 
3.30159 2.91151 0.239277 
2.49108 2.84462 0.233757 
1.14848 2.78939 0.245277 
1.0258 2.29524 0.229839 
1.04982 2.27207 0.196346 
1.3024 2.31461 0.248047 
4.34476 2.27099 0.194386 
4.86346 2.30891 0.262421 
3.98375 2.39026 0.245621 
2.95712 2.26896 0.205582 
2.49271 2.22442 0.241016 
3.31333 2.23322 0.247025 
1.63889 2.2497 0.234512 
0.583374 2.10656 0.24052 
3.34014 1.75005 0.24564 
2.48682 1.7804 0.247921 
0.021688 1.72516 0.210767 
1.06485 1.66409 0.250507 
2.99064 1.65114 0.246815 
3.94144 1.68625 0.193745 
0.99881 1.23202 0.246372 
0.583626 1.10686 0.192936 
0.00412 1.1862 0.249493 
1.18272 1.08628 0.247368 
2.42238 1.09213 0.24987 
1.90042 0.520246 0.19659 
3.10457 0.524283 0.245014 
1.53355 5.02717 0.238908 
0.950653 5.05178 0.2641 
2.43207 4.47682 0.247003 
2.48611 4.47722 0.247991 
3.06945 4.47765 0.245763 
0.009415 3.88552 0.228883 
-0.055176 3.34143 0.247922 
0.521667 3.34143 0.247922 
3.02841 2.77802 0.225639 
2.94262 2.28761 0.247314 
5.00825 2.32595 0.234829 
1.71084 2.16491 0.247921 
2.43106 2.23019 0.246014 
-0.051865 2.21074 0.237728 
0.478111 2.19571 0.237175 
0.594154 1.73267 0.241123 
0.524429 1.75614 0.247921 
0.094345 1.73795 0.245365 
1.70683 1.74203 0.202312 
1.71079 1.7541 0.247314 
1.14491 1.66455 0.247845 
2.98283 1.18665 0.24651 
3.40125 1.10448 0.247665 
4.29131 1.07897 0.247921 
3.31601 0.588356 0.200203 
3.38646 0.626163 0.247658 
1.70294 1.13483 0.240829 
2.64493 0.627896 0.251575 
3.97836 0.591656 0.19669 
1.90042 0.520246 0.19659 
3.16615 0.541674 0.245575 
3.15462 0.055239 0.247738 
3.10383 0.041854 0.247921 
1.93628 0.041864 0.247921 
5.01077 0.042231 0.247921 
0.010666 5.02774 0.261716 
0.004257 4.48109 0.214078 
0.086411 4.54661 0.264714 
0.804184 4.59278 0.262963 
3.29999 3.99584 0.248231 
1.69568 3.98279 0.196778 
-0.00487 4.03877 0.217666 
2.75947 4.03326 0.240438 
2.97307 3.41617 0.24838 
0.525536 3.36591 0.196832 
0.594421 2.83906 0.247921 
3.69096 2.35923 0.240196 
4.28622 2.22296 0.255032 
4.34376 2.05001 0.245041 
4.30092 1.74257 0.195766 
4.76996 1.75623 0.247395 
3.94831 1.60484 0.247078 
4.81702 1.66961 0.261505 
1.19528 1.23168 0.242695 
1.5648 0.603705 0.247589 
2.27826 5.02463 0.242097 
1.13882 3.92469 0.202741 
1.29207 3.99682 0.247582 
2.11654 3.99276 0.232411 
2.28208 3.96139 0.196546 
1.65153 2.87291 0.246952 
0.586128 0.603593 0.247581 
1.8609 0.019386 0.241352 
0.852684 5.02988 0.264745 
4.33682 4.47972 0.246743 
4.96976 4.47667 0.246862 
4.96927 3.99682 0.247922 
0.144424 3.89177 0.265378 
1.05432 3.92772 0.264688 
3.93736 3.44711 0.265012 
4.93237 3.34144 0.247922 
4.34274 3.3392 0.244504 
1.24178 3.32366 0.241956 
3.12121 3.31838 0.243623 
0.522003 2.86252 0.247265 
3.40311 2.83408 0.247921 
3.9443 2.805 0.202515 
3.86822 2.80609 0.244282 
3.91085 2.37571 0.214611 
4.97488 2.23021 0.242428 
4.97364 0.604755 0.247921 
4.41061 0.520827 0.247414 
5.01131 0.525557 0.239925 
1.29952 0.056095 0.247658 
5.00324 4.53391 0.247651 
2.25795 3.46177 0.234315 
1.64914 3.41647 0.193105 
1.71084 3.34178 0.247827 
1.7105 2.86241 0.246822 
4.45871 0.604113 0.247921 
3.80312 5.05491 0.247651 
3.73968 5.02949 0.2478 
1.39417 3.91283 0.247598 
2.28208 3.96139 0.196546 
2.43182 3.34181 0.247861 
-0.035019 1.08603 0.247841 
4.9769 1.0798 0.242306 
-0.036514 0.602044 0.242702 
5.02048 5.0136 0.247212 
2.93461 3.32662 0.236505 
3.92163 3.91462 -0.196387 
3.87337 3.90396 -0.263911 
3.89153 3.42314 -0.265845 
3.04086 3.50811 -0.264316 
0.967751 4.58289 -0.249152 
2.19663 4.53365 -0.264888 
4.28541 3.99819 -0.238387 
3.43277 4.03634 -0.263782 
3.05138 3.92857 -0.264457 
1.47987 0.564509 -0.260292 
1.36435 0.099033 -0.272461 
3.81023 4.55957 -0.229663 
2.87741 5.02949 -0.247798 
4.56449 4.54969 -0.247462 
3.81023 4.55957 -0.229663 
3.14764 4.54656 -0.240348 
2.26994 4.5476 -0.24792 
2.90303 4.57166 -0.200824 
3.13431 4.48776 -0.271777 
1.65104 4.46935 -0.24792 
0.593643 4.4951 -0.24792 
4.22523 4.46319 -0.240909 
4.28541 3.99819 -0.238387 
2.42949 3.99064 -0.204719 
4.96718 3.89362 -0.264842 
4.24205 3.91583 -0.266383 
4.99676 3.41199 -0.265834 
1.6824 3.44178 -0.22922 
1.72272 3.52552 -0.241664 
1.1461 3.58664 -0.24792 
1.07917 3.4332 -0.202281 
0.013138 3.40522 -0.264552 
0.751068 3.43495 -0.265315 
4.28051 2.86696 -0.247875 
4.27582 3.34937 -0.247882 
4.32838 2.83946 -0.196423 
3.9443 2.805 -0.202515 
0.019592 2.80596 -0.26849 
1.02758 2.77097 -0.245613 
4.93271 2.8625 -0.247272 
5.01086 2.78994 -0.264996 
4.54918 2.78201 -0.266628 
2.26168 2.78425 -0.247314 
0.024498 2.36898 -0.247959 
2.28481 2.321 -0.242622 
2.13788 2.31114 -0.24147 
2.20518 2.78993 -0.247051 
3.39568 2.21319 -0.269657 
3.39833 1.73538 -0.247467 
4.9464 1.68404 -0.21904 
2.48682 1.7804 -0.247921 
3.05726 1.21522 -0.238907 
3.09833 1.66407 -0.247921 
4.9464 1.68404 -0.21904 
5.00841 1.18765 -0.263939 
2.2589 1.67553 -0.196423 
2.09028 1.23146 -0.244663 
3.83184 1.18712 -0.247227 
3.87189 1.66666 -0.243053 
2.26949 1.66459 -0.247387 
2.32635 1.24301 -0.243423 
3.94305 1.1591 -0.196785 
2.49052 1.11058 -0.264759 
3.342 1.08072 -0.265846 
0.583626 1.10686 -0.192936 
1.70294 1.13483 -0.240829 
1.39894 0.596794 -0.236122 
2.49523 0.674229 -0.257244 
0.492981 0.777006 -0.241173 
0.438011 0.543407 -0.190456 
2.40631 0.627387 -0.263523 
1.60412 0.652281 -0.255775 
1.39894 0.596794 -0.236122 
4.06529 0.517279 -0.247921 
4.11941 0.033576 -0.247791 
-0.001884 0.495423 -0.247894 
4.11941 0.033576 -0.247791 
4.15247 0.511754 -0.192848 
0.227425 0.02329 -0.247288 
2.21406 5.01368 -0.264873 
2.87741 5.02949 -0.247798 
2.97142 4.60872 -0.224917 
0.50563 4.47879 -0.247668 
0.568924 4.00712 -0.193648 
0.460701 4.00259 -0.238887 
1.71056 4.47682 -0.247001 
1.71133 3.99686 -0.24792 
2.99808 3.89906 -0.252795 
2.4594 3.92726 -0.240252 
2.42949 3.99064 -0.204719 
2.25795 3.46177 -0.234313 
3.3868 3.31647 -0.247703 
3.3868 3.31647 -0.247703 
3.30159 2.91151 -0.239277 
2.49108 2.84462 -0.233757 
1.14848 2.78939 -0.245277 
1.04982 2.27207 -0.196346 
1.0258 2.29524 -0.229839 
1.3024 2.31461 -0.248047 
4.34476 2.27099 -0.194386 
3.98375 2.39026 -0.245621 
4.86346 2.30891 -0.262421 
2.95712 2.26896 -0.205582 
3.31333 2.23322 -0.247025 
2.49271 2.22442 -0.241016 
1.63889 2.2497 -0.234512 
0.583374 2.10656 -0.24052 
3.34014 1.75005 -0.24564 
2.48682 1.7804 -0.247921 
1.06485 1.66409 -0.250507 
0.021688 1.72516 -0.210767 
2.99064 1.65114 -0.246815 
3.94144 1.68625 -0.193745 
0.99881 1.23202 -0.246372 
0.583626 1.10686 -0.192936 
0.00412 1.1862 -0.249493 
1.18272 1.08628 -0.247368 
2.42238 1.09213 -0.24987 
1.90042 0.520246 -0.19659 
3.10457 0.524283 -0.245014 
1.53355 5.02717 -0.238906 
0.950653 5.05178 -0.264098 
2.43207 4.47682 -0.247001 
2.48611 4.47722 -0.247989 
3.06945 4.47765 -0.245761 
0.009415 3.88552 -0.228881 
0.521667 3.34143 -0.24792 
-0.055176 3.34143 -0.24792 
3.02841 2.77802 -0.225639 
2.94262 2.28761 -0.247314 
5.00825 2.32595 -0.234829 
2.43106 2.23019 -0.246014 
1.71084 2.16491 -0.247921 
-0.051865 2.21074 -0.237728 
0.478111 2.19571 -0.237175 
0.594154 1.73267 -0.241123 
0.524429 1.75614 -0.247921 
0.094345 1.73795 -0.245365 
1.71079 1.7541 -0.247314 
1.70683 1.74203 -0.202312 
1.14491 1.66455 -0.247845 
2.98283 1.18665 -0.24651 
4.29131 1.07897 -0.247921 
3.40125 1.10448 -0.247665 
3.38646 0.626163 -0.247658 
3.31601 0.588356 -0.200203 
1.70294 1.13483 -0.240829 
2.64493 0.627896 -0.251575 
3.97836 0.591656 -0.19669 
1.90042 0.520246 -0.19659 
3.16615 0.541674 -0.245575 
3.15462 0.055239 -0.247738 
1.93628 0.041864 -0.247921 
3.10383 0.041854 -0.247921 
5.01077 0.042231 -0.247921 
0.010666 5.02774 -0.261714 
0.086411 4.54661 -0.264712 
0.004257 4.48109 -0.214076 
0.804184 4.59278 -0.262961 
3.29999 3.99584 -0.248229 
1.69568 3.98279 -0.196776 
-0.00487 4.03877 -0.217664 
2.75947 4.03326 -0.240436 
2.97307 3.41617 -0.248378 
0.525536 3.36591 -0.19683 
0.594421 2.83906 -0.247921 
3.69096 2.35923 -0.240196 
4.28622 2.22296 -0.255032 
4.34376 2.05001 -0.245041 
4.76996 1.75623 -0.247395 
4.30092 1.74257 -0.195766 
4.81702 1.66961 -0.261505 
3.94831 1.60484 -0.247078 
1.19528 1.23168 -0.242695 
1.5648 0.603705 -0.247589 
2.27826 5.02463 -0.242095 
1.13882 3.92469 -0.202739 
1.29207 3.99682 -0.24758 
2.11654 3.99276 -0.232409 
2.28208 3.96139 -0.196544 
1.65153 2.87291 -0.246952 
0.586128 0.603593 -0.247581 
1.8609 0.019386 -0.241352 
0.852684 5.02988 -0.264743 
4.96976 4.47667 -0.24686 
4.33682 4.47972 -0.246741 
4.96927 3.99682 -0.24792 
1.05432 3.92772 -0.264686 
0.144424 3.89177 -0.265376 
3.93736 3.44711 -0.26501 
4.93237 3.34144 -0.24792 
4.34274 3.3392 -0.244502 
1.24178 3.32366 -0.241954 
3.12121 3.31838 -0.243621 
0.522003 2.86252 -0.247265 
3.40311 2.83408 -0.247921 
3.9443 2.805 -0.202515 
3.86822 2.80609 -0.244282 
3.91085 2.37571 -0.214611 
4.97488 2.23021 -0.242428 
4.97364 0.604755 -0.247921 
5.01131 0.525557 -0.239925 
4.41061 0.520827 -0.247414 
1.29952 0.056095 -0.247658 
5.00324 4.53391 -0.247649 
2.25795 3.46177 -0.234313 
1.64914 3.41647 -0.193103 
1.71084 3.34178 -0.247825 
1.7105 2.86241 -0.246822 
4.45871 0.604113 -0.247921 
3.80312 5.05491 -0.247649 
3.73968 5.02949 -0.247798 
1.39417 3.91283 -0.247596 
2.28208 3.96139 -0.196544 
2.43182 3.34181 -0.247859 
-0.035019 1.08603 -0.247841 
4.9769 1.0798 -0.242306 
-0.036514 0.602044 -0.242702 
5.02048 5.0136 -0.24721 
2.93461 3.32662 -0.236503 
3 0 1 2
3 3 4 5
3 3 5 6
3 0 2 7
3 6 5 8
3 9 10 11
3 12 13 14
3 15 14 16
3 590 17 18
3 591 19 20
3 14 13 16
3 21 22 10
3 591 20 592
3 9 11 23
3 18 593 24
3 10 22 11
3 25 26 27
3 27 26 28
3 25 27 29
3 30 31 32
3 33 34 35
3 35 34 36
3 37 33 35
3 38 39 40
3 41 594 595
3 42 43 44
3 596 597 590
3 45 598 17
3 598 46 593
3 47 48 49
3 26 50 28
3 51 52 53
3 31 54 32
3 55 56 57
3 599 600 58
3 59 60 61
3 62 63 64
3 64 65 62
3 60 66 61
3 59 61 67
3 63 62 601
3 68 69 602
3 69 68 70
3 603 604 71
3 605 72 604
3 73 606 607
3 72 608 74
3 75 76 77
3 78 79 80
3 609 610 81
3 82 609 81
3 83 84 85
3 611 43 42
3 86 87 88
3 89 90 91
3 89 91 92
3 87 93 88
3 86 88 94
3 85 84 612
3 90 613 91
3 80 79 95
3 81 610 96
3 97 614 615
3 98 99 100
3 98 100 101
3 102 98 101
3 103 104 105
3 615 616 106
3 107 617 618
3 619 620 618
3 18 24 108
3 621 620 622
3 109 110 111
3 110 112 113
3 114 115 116
3 111 110 113
3 117 118 119
3 120 121 122
3 123 47 124
3 125 123 124
3 126 623 624
3 122 121 127
3 114 625 115
3 119 118 626
3 626 118 128
3 627 628 129
3 629 630 631
3 130 131 132
3 131 133 132
3 134 135 136
3 137 632 138
3 627 139 633
3 136 135 634
3 138 635 636
3 48 140 49
3 133 131 141
3 142 143 144
3 145 146 147
3 148 149 150
3 151 152 153
3 142 144 154
3 145 147 155
3 156 157 158
3 152 159 153
3 637 638 160
3 142 154 639
3 148 150 640
3 161 162 163
3 164 165 166
3 167 168 169
3 170 641 642
3 162 171 163
3 643 644 172
3 645 646 173
3 174 170 642
3 175 176 177
3 178 647 648
3 649 173 179
3 648 168 178
3 176 650 177
3 166 165 180
3 32 54 651
3 652 653 181
3 56 182 57
3 183 184 185
3 654 186 187
3 655 187 188
3 189 190 191
3 191 190 192
3 187 186 656
3 185 184 193
3 188 187 656
3 657 652 194
3 195 658 196
3 197 198 199
3 185 193 659
3 190 198 192
3 660 661 200
3 198 197 192
3 201 202 203
3 204 205 206
3 207 208 209
3 662 210 211
3 202 212 203
3 213 663 214
3 204 206 664
3 665 215 216
3 207 666 667
3 207 667 208
3 211 210 668
3 217 669 594
3 670 606 671
3 72 605 671
3 597 608 45
3 672 673 674
3 675 41 676
3 677 678 679
3 218 680 104
3 105 104 680
3 219 681 127
3 682 683 220
3 683 684 220
3 221 685 635
3 51 134 52
3 628 686 687
3 139 222 633
3 134 223 52
3 224 688 687
3 224 636 688
3 689 690 691
3 689 225 690
3 692 693 694
3 687 226 227
3 687 227 228
3 229 637 230
3 695 696 231
3 695 231 232
3 230 637 160
3 697 698 167
3 233 699 700
3 649 701 167
3 168 167 234
3 702 647 178
3 173 649 645
3 235 700 703
3 704 703 705
3 236 235 706
3 707 660 194
3 708 709 194
3 710 237 711
3 711 238 75
3 239 675 712
3 72 73 713
3 72 713 714
3 46 678 677
3 590 45 17
3 621 715 240
3 18 108 241
3 240 716 717
3 241 682 623
3 681 242 127
3 243 685 221
3 684 632 718
3 632 244 138
3 226 686 633
3 719 137 692
3 690 225 720
3 224 721 722
3 723 724 222
3 245 694 697
3 227 226 725
3 226 724 726
3 727 723 699
3 721 728 729
3 645 698 729
3 728 730 645
3 647 157 169
3 702 157 647
3 167 701 234
3 730 246 235
3 234 701 731
3 235 704 706
3 178 732 733
3 732 734 735
3 736 200 661
3 737 657 194
3 194 247 737
3 196 665 39
3 213 738 663
3 739 599 58
3 740 247 741
3 248 742 743
3 249 214 741
3 250 744 214
3 745 746 747
3 711 75 595
3 748 75 238
3 71 74 596
3 45 714 749
3 41 750 676
3 673 751 251
3 749 752 46
3 677 753 46
3 107 24 753
3 620 621 754
3 243 755 129
3 226 687 686
3 245 756 692
3 692 252 693
3 245 692 694
3 253 156 757
3 758 759 760
3 759 643 760
3 702 761 762
3 761 702 178
3 730 235 763
3 181 731 179
3 254 234 653
3 658 195 704
3 200 736 764
3 200 39 38
3 734 247 740
3 607 765 239
3 239 594 41
3 76 255 674
3 608 72 45
3 766 750 767
3 750 768 676
3 678 769 679
3 716 256 627
3 770 755 221
3 628 243 129
3 244 632 684
3 243 628 687
3 703 704 235
3 771 195 196
3 257 772 40
3 710 669 258
3 258 669 217
3 773 748 238
3 671 606 72
3 746 255 747
3 255 748 747
3 71 774 775
3 77 750 41
3 73 712 678
3 713 73 678
3 259 776 260
3 674 766 767
3 597 45 590
3 46 45 749
3 596 97 776
3 251 777 778
3 766 251 778
3 251 715 777
3 593 46 24
3 590 18 241
3 616 779 241
3 754 621 240
3 261 262 616
3 780 261 781
3 754 782 620
3 783 682 108
3 754 717 784
3 682 220 785
3 220 786 785
3 220 718 787
3 787 786 220
3 786 788 691
3 243 687 685
3 788 786 787
3 222 226 633
3 788 689 691
3 789 225 689
3 253 245 156
3 693 252 698
3 252 722 698
3 245 157 156
3 689 757 759
3 226 233 725
3 224 228 728
3 721 224 728
3 234 178 168
3 178 263 644
3 653 234 181
3 736 236 706
3 652 181 194
3 771 704 195
3 734 254 653
3 194 181 707
3 200 194 660
3 39 771 196
3 764 39 200
3 247 734 737
3 39 264 40
3 200 38 708
3 738 734 740
3 663 738 740
3 790 791 792
3 39 793 264
3 742 265 709
3 247 265 741
3 711 237 238
3 217 594 239
3 75 41 595
3 239 73 607
3 71 259 603
3 794 603 259
3 255 76 75
3 71 72 74
3 255 746 672
3 239 41 675
3 73 239 712
3 259 71 775
3 674 255 672
3 774 71 596
3 45 46 598
3 614 97 590
3 98 102 795
3 251 266 715
3 779 590 241
3 24 46 753
3 766 778 620
3 620 796 618
3 261 616 241
3 754 240 717
3 796 620 782
3 261 241 623
3 783 108 24
3 267 783 24
3 261 623 126
3 261 126 781
3 797 221 798
3 754 784 129
3 243 221 755
3 221 244 798
3 244 684 798
3 786 126 624
3 755 754 129
3 692 718 719
3 244 635 138
3 245 788 756
3 224 138 636
3 252 224 722
3 724 226 222
3 689 759 758
3 246 728 725
3 728 645 729
3 699 726 727
3 246 233 700
3 728 246 730
3 167 645 649
3 173 181 179
3 263 268 644
3 178 254 732
3 732 254 734
3 734 738 735
3 247 194 709
3 799 213 791
3 790 799 791
3 269 708 772
3 216 270 793
3 800 801 604
3 765 217 239
3 748 255 75
3 606 73 72
3 72 71 604
3 77 41 75
3 714 45 72
3 259 775 776
3 673 251 674
3 768 750 769
3 678 768 769
3 752 678 46
3 766 674 251
3 769 750 802
3 596 590 97
3 766 802 750
3 98 795 803
3 619 766 620
3 618 796 107
3 24 107 804
3 107 796 797
3 241 108 682
3 107 797 804
3 261 780 262
3 24 804 267
3 796 770 221
3 797 796 221
3 784 627 129
3 629 126 630
3 126 786 630
3 635 244 221
3 220 684 718
3 137 138 252
3 692 137 252
3 788 245 253
3 224 687 228
3 689 788 253
3 224 252 138
3 757 689 253
3 245 697 157
3 233 226 726
3 723 271 272
3 172 789 643
3 702 158 157
3 643 759 762
3 726 699 233
3 698 645 167
3 697 167 157
3 725 233 246
3 759 702 762
3 169 157 167
3 700 235 246
3 763 235 236
3 763 236 736
3 646 763 736
3 646 736 707
3 731 181 234
3 178 234 254
3 173 646 707
3 263 178 733
3 181 173 707
3 704 705 805
3 733 806 263
3 799 738 213
3 807 665 196
3 194 200 708
3 790 792 273
3 708 269 743
3 247 709 265
3 723 272 699
3 269 772 257
3 274 800 808
3 260 776 97
3 262 780 629
3 275 765 670
3 276 773 238
3 808 794 274
3 256 277 627
3 741 265 249
3 278 629 631
3 801 800 279
3 225 789 172
3 172 644 268
3 273 792 744
3 280 217 765
3 715 266 240
3 281 631 720
3 225 281 720
3 222 271 723
3 746 266 751
3 627 277 139
3 705 282 805
3 283 263 806
3 806 790 273
3 251 751 266
3 270 264 793
3 773 284 745
3 278 631 281
3 699 282 705
3 807 805 285
3 264 257 40
3 286 670 801
3 262 106 616
3 807 285 665
3 264 270 257
3 258 237 710
3 266 746 287
3 615 260 97
3 269 288 743
3 265 742 248
3 215 270 216
3 288 248 743
3 794 259 289
3 276 284 773
3 745 284 746
3 279 800 274
3 258 217 280
3 806 273 290
3 291 273 744
3 250 291 744
3 292 716 240
3 716 277 256
3 699 293 282
3 290 294 806
3 805 295 285
3 296 270 215
3 237 276 238
3 272 293 699
3 294 283 806
3 297 615 106
3 283 268 263
3 214 298 250
3 299 296 215
3 298 214 249
3 297 260 615
3 765 300 280
3 270 301 257
3 302 275 670
3 303 172 268
3 746 284 304
3 303 268 305
3 269 257 301
3 139 271 222
3 306 298 249
3 276 237 258
3 300 765 275
3 307 274 794
3 268 294 305
3 306 248 288
3 274 307 279
3 280 300 258
3 304 287 746
3 308 225 172
3 665 309 215
3 215 309 299
3 286 302 670
3 266 310 240
3 303 308 172
3 265 306 249
3 292 240 310
3 295 805 282
3 298 291 250
3 289 259 260
3 300 276 258
3 311 302 286
3 311 286 801
3 716 292 277
3 312 262 629
3 265 248 306
3 302 300 275
3 311 801 279
3 313 262 312
3 290 273 291
3 307 794 289
3 262 313 106
3 278 312 629
3 281 225 308
3 305 294 290
3 665 285 309
3 288 269 301
3 314 270 296
3 314 301 270
3 276 304 284
3 809 122 127
3 242 809 127
3 315 316 317
3 318 319 320
3 318 321 319
3 315 322 316
3 321 323 319
3 324 325 326
3 327 328 329
3 330 331 328
3 810 332 333
3 811 334 335
3 328 331 329
3 336 326 337
3 811 812 334
3 324 338 325
3 332 339 813
3 326 325 337
3 340 341 342
3 341 343 342
3 340 344 341
3 345 346 347
3 348 349 350
3 349 351 350
3 352 349 348
3 353 354 355
3 356 814 815
3 357 358 359
3 816 810 817
3 360 333 818
3 818 813 361
3 362 363 364
3 342 343 365
3 366 367 368
3 347 346 369
3 370 371 372
3 819 373 820
3 374 375 376
3 377 378 379
3 378 377 380
3 376 375 381
3 374 382 375
3 379 821 377
3 383 822 384
3 384 385 383
3 823 386 824
3 825 824 387
3 388 826 827
3 387 389 828
3 390 391 392
3 393 394 395
3 829 396 830
3 397 396 829
3 398 399 400
3 831 357 359
3 401 402 403
3 404 405 406
3 404 407 405
3 403 402 408
3 401 409 402
3 399 832 400
3 406 405 833
3 394 410 395
3 396 411 830
3 412 834 835
3 413 414 415
3 413 416 414
3 417 416 413
3 418 419 420
3 834 106 836
3 421 837 838
3 839 837 840
3 332 422 339
3 841 842 840
3 423 424 425
3 425 426 427
3 428 429 430
3 424 426 425
3 431 432 433
3 434 435 436
3 437 438 362
3 439 438 437
3 440 843 844
3 435 441 436
3 428 430 845
3 432 846 433
3 846 442 433
3 847 443 848
3 849 850 851
3 444 445 446
3 446 445 447
3 448 449 450
3 451 452 852
3 847 853 139
3 449 854 450
3 452 855 856
3 364 363 453
3 447 454 446
3 455 456 457
3 458 459 460
3 461 462 463
3 464 465 466
3 455 467 456
3 458 468 459
3 469 470 471
3 466 465 472
3 857 473 858
3 455 859 467
3 461 860 462
3 474 475 476
3 477 478 479
3 480 481 482
3 483 861 862
3 476 475 484
3 863 485 864
3 865 486 866
3 487 861 483
3 488 489 490
3 491 867 868
3 869 492 486
3 867 491 482
3 490 489 870
3 478 493 479
3 346 871 369
3 872 494 873
3 372 371 495
3 496 497 498
3 874 499 500
3 875 501 499
3 502 503 504
3 503 505 504
3 499 876 500
3 497 506 498
3 501 876 499
3 877 507 872
3 508 509 878
3 510 511 512
3 497 879 506
3 504 505 512
3 880 513 881
3 512 505 510
3 514 515 516
3 517 518 519
3 520 521 522
3 882 523 524
3 516 515 525
3 526 527 883
3 517 884 518
3 885 528 529
3 520 886 887
3 520 522 886
3 523 888 524
3 530 815 889
3 890 891 827
3 387 891 825
3 817 360 828
3 892 893 894
3 895 896 356
3 897 898 899
3 531 420 900
3 419 900 420
3 532 441 901
3 902 533 903
3 903 533 904
3 534 856 905
3 366 368 448
3 848 906 907
3 139 853 535
3 448 368 536
3 537 906 908
3 537 908 855
3 909 910 911
3 909 911 538
3 912 913 914
3 906 539 540
3 906 541 539
3 542 543 857
3 915 544 916
3 915 545 544
3 543 473 857
3 917 480 918
3 546 919 920
3 869 480 921
3 482 547 480
3 922 491 868
3 486 865 869
3 548 923 919
3 924 925 923
3 549 926 548
3 927 507 880
3 928 507 929
3 930 931 550
3 931 390 551
3 552 932 895
3 387 933 388
3 387 934 933
3 361 897 899
3 810 333 360
3 841 553 935
3 332 554 422
3 553 936 937
3 554 844 902
3 901 441 555
3 556 534 905
3 904 938 852
3 852 452 557
3 540 853 907
3 939 912 451
3 911 940 538
3 537 941 942
3 943 535 944
3 558 917 913
3 539 945 540
3 540 946 944
3 947 920 943
3 942 948 949
3 865 948 918
3 949 865 950
3 868 481 471
3 922 868 471
3 480 547 921
3 950 548 559
3 547 951 921
3 548 926 924
3 491 952 953
3 953 954 955
3 956 881 513
3 957 507 877
3 507 957 560
3 509 355 885
3 526 883 958
3 959 373 819
3 960 961 560
3 561 962 963
3 562 961 527
3 563 527 964
3 965 966 967
3 931 814 390
3 968 551 390
3 386 816 389
3 360 969 934
3 356 896 970
3 894 564 971
3 969 361 972
3 897 361 973
3 421 973 339
3 840 974 841
3 556 443 975
3 540 907 906
3 558 912 976
3 912 914 565
3 558 913 912
3 566 977 469
3 978 979 980
3 980 979 863
3 922 981 982
3 982 491 922
3 950 983 548
3 494 492 951
3 567 873 547
3 878 924 508
3 513 984 956
3 513 353 355
3 955 960 560
3 826 552 985
3 552 356 815
3 392 893 568
3 828 360 387
3 986 987 970
3 970 896 988
3 899 898 989
3 937 847 569
3 990 534 975
3 848 443 556
3 557 904 852
3 556 906 848
3 923 548 924
3 991 509 508
3 570 354 992
3 930 571 889
3 571 530 889
3 993 551 968
3 891 387 827
3 967 966 568
3 568 966 968
3 386 994 995
3 391 356 970
3 388 899 932
3 933 899 388
3 572 260 996
3 893 987 986
3 817 810 360
3 361 969 360
3 816 996 412
3 564 997 998
3 986 997 564
3 564 998 935
3 813 339 361
3 810 554 332
3 836 554 999
3 974 553 841
3 573 836 574
3 1000 1001 573
3 974 840 1002
3 1003 422 902
3 974 1004 936
3 902 1005 533
3 533 1005 1006
3 533 1007 938
3 1007 533 1006
3 1006 910 1008
3 556 905 906
3 1008 1007 1006
3 535 853 540
3 1008 910 909
3 1009 909 538
3 566 469 558
3 914 918 565
3 565 918 941
3 558 469 471
3 909 980 977
3 540 945 546
3 537 949 541
3 942 949 537
3 547 482 491
3 491 864 575
3 873 494 547
3 956 926 549
3 872 507 494
3 991 508 924
3 955 873 567
3 507 927 494
3 513 880 507
3 355 509 991
3 984 513 355
3 560 957 955
3 355 354 576
3 513 928 353
3 958 960 955
3 883 960 958
3 1010 1011 1012
3 355 576 1013
3 963 929 577
3 560 961 577
3 931 551 550
3 530 552 815
3 390 814 356
3 552 826 388
3 386 823 572
3 1014 572 823
3 568 390 392
3 386 389 387
3 568 892 967
3 552 895 356
3 388 932 552
3 572 994 386
3 893 892 568
3 995 816 386
3 360 818 361
3 835 810 412
3 413 1015 417
3 564 935 266
3 999 554 810
3 339 973 361
3 986 840 997
3 840 837 1016
3 573 554 836
3 974 936 553
3 1016 1002 840
3 573 844 554
3 1003 339 422
3 578 339 1003
3 573 440 844
3 573 1001 440
3 1017 1018 534
3 974 443 1004
3 556 975 534
3 534 1018 557
3 557 1018 904
3 1006 843 440
3 975 443 974
3 912 939 938
3 557 452 856
3 558 976 1008
3 537 855 452
3 565 941 537
3 944 535 540
3 909 978 980
3 559 945 949
3 949 948 865
3 920 947 946
3 559 919 546
3 949 950 559
3 480 869 865
3 486 492 494
3 575 864 579
3 491 953 567
3 953 955 567
3 955 954 958
3 560 929 507
3 1019 1012 526
3 1010 1012 1019
3 580 992 928
3 528 1013 581
3 1020 824 1021
3 985 552 530
3 968 390 568
3 827 387 388
3 387 824 386
3 391 390 356
3 934 387 360
3 572 996 994
3 894 893 564
3 988 989 970
3 899 989 988
3 972 361 899
3 986 564 893
3 989 1022 970
3 816 412 810
3 986 970 1022
3 413 1023 1015
3 839 840 986
3 837 421 1016
3 339 1024 421
3 421 1017 1016
3 554 902 422
3 421 1024 1017
3 573 574 1000
3 339 578 1024
3 1016 534 990
3 1017 534 1016
3 1004 443 847
3 849 851 440
3 440 851 1006
3 856 534 557
3 533 938 904
3 451 565 452
3 912 565 451
3 1008 566 558
3 537 541 906
3 909 566 1008
3 537 452 565
3 977 566 909
3 558 471 917
3 546 946 540
3 943 272 271
3 485 863 1009
3 922 471 470
3 863 981 980
3 946 546 920
3 918 480 865
3 917 471 480
3 945 559 546
3 980 981 922
3 481 480 471
3 919 559 548
3 983 549 548
3 983 956 549
3 866 956 983
3 866 927 956
3 951 547 494
3 491 567 547
3 486 927 866
3 575 952 491
3 494 927 486
3 924 1025 925
3 952 575 1026
3 1019 526 958
3 1027 509 885
3 507 928 513
3 1010 582 1011
3 928 962 580
3 560 577 929
3 943 920 272
3 580 570 992
3 583 1028 1020
3 260 412 996
3 574 849 1000
3 584 890 985
3 276 551 993
3 1028 583 1014
3 569 847 277
3 961 562 577
3 278 850 849
3 1021 279 1020
3 538 485 1009
3 485 579 864
3 582 964 1011
3 585 985 530
3 935 553 266
3 281 940 850
3 538 940 281
3 535 943 271
3 967 971 266
3 847 139 277
3 925 1025 282
3 586 1026 575
3 1026 582 1010
3 564 266 971
3 581 1013 576
3 993 965 587
3 278 281 850
3 920 925 282
3 1027 285 1025
3 576 354 570
3 588 1021 890
3 574 836 106
3 1027 885 285
3 576 570 581
3 571 930 550
3 266 287 967
3 834 412 260
3 580 962 288
3 577 561 963
3 529 528 581
3 288 962 561
3 1014 289 572
3 276 993 587
3 965 967 587
3 279 583 1020
3 571 585 530
3 1026 290 582
3 291 964 582
3 563 964 291
3 292 553 937
3 937 569 277
3 920 282 293
3 290 1026 589
3 1025 285 295
3 296 529 581
3 550 551 276
3 272 920 293
3 589 1026 586
3 297 106 834
3 586 575 579
3 527 563 298
3 299 529 296
3 298 562 527
3 297 834 260
3 985 585 300
3 581 570 301
3 302 890 584
3 303 579 485
3 967 304 587
3 303 305 579
3 580 301 570
3 139 535 271
3 306 562 298
3 276 571 550
3 300 584 985
3 307 1014 583
3 579 589 586
3 306 288 561
3 583 279 307
3 585 571 300
3 304 967 287
3 308 485 538
3 885 529 309
3 529 299 309
3 588 890 302
3 266 553 310
3 303 485 308
3 577 562 306
3 292 310 553
3 295 282 1025
3 298 563 291
3 289 260 572
3 300 571 276
3 311 588 302
3 311 1021 588
3 937 277 292
3 312 849 574
3 577 306 561
3 302 584 300
3 311 279 1021
3 313 312 574
3 290 291 582
3 307 289 1014
3 574 106 313
3 278 849 312
3 281 308 538
3 305 290 589
3 885 309 285
3 288 301 580
3 314 296 581
3 314 581 301
3 276 587 304
3 1029 441 435
3 555 441 1029
3 268 283 294
3 579 305 589
