ply
format ascii 1.0
comment INFO-3111 Flatenator generated
comment TextureFile Dungeons_Texture_01.png
element vertex 162
property float x
property float y
property float z
property float nx
property float ny
property float nz
element face 172
property list uchar int vertex_indices
end_header
5 2e-06 5 0 -1 0 
0 2e-06 5 0 -1 0 
5 3e-06 0 0 -1 0 
0 3e-06 0 0 -1 0 
4.75354 2e-06 4.75354 0 -1 0 
0.246464 2e-06 4.75354 -0.243268 -0.937148 0.250149 
0.246464 3e-06 0.246464 -0.125916 -0.970762 -0.204368 
4.75354 3e-06 0.246464 0.220714 -0.917383 -0.3312 
4.29592 2e-06 4.58561 0.231503 -0.964743 -0.12521 
0.351572 -0.149818 4.40474 -0.696684 -0.716076 0.0432041 
0.782236 -0.149817 0.420362 -0.112694 -0.897617 -0.426126 
4.64431 -0.149817 0.631678 0.681862 -0.730177 -0.0436562 
3.95466 2e-06 3.95466 -0.304305 -0.952539 0.00827116 
0.957142 -0.149818 4.04286 0 -1 0 
1.04534 3e-06 1.04534 0.203593 -0.944163 0.259048 
4.04286 -0.149817 0.957143 -0.528992 -0.63969 0.557641 
1.04534 2e-06 3.95466 0.262626 -0.933691 -0.243409 
3.95466 3e-06 1.04534 -0.239568 -0.934321 0.263916 
5 2e-06 3.38152 9.51665e-11 -1 -2.73916e-07 
4.68895 2e-06 3.26427 0.607697 -0.794107 -0.00992006 
4.59175 -0.149818 3.23 0.840917 -0.54075 -0.021157 
4.07084 -0.149818 3.13007 1.79737e-07 -1 -9.3699e-07 
3.76634 2e-06 3.21028 -0.141653 -0.98986 -0.0105189 
1.09372 3e-06 3.01477 -0.115934 -0.993256 0.00152236 
0.389166 -0.149818 3.20799 -0.731682 -0.681097 -0.027365 
0.246464 2e-06 3.29461 -0.529946 -0.847951 -0.0116641 
0 2e-06 3.38152 4.6157e-08 -1 -2.8366e-07 
0 3e-06 1.45282 1.33964e-07 -1 -1.72828e-07 
0.271105 3e-06 1.66296 -0.407222 -0.913297 -0.00763211 
0.373721 -0.149817 1.41894 -0.856262 -0.514656 -0.0440974 
0.824913 -0.149817 1.71101 -0.2627 -0.796297 0.544885 
0.993303 3e-06 1.9047 0.0745704 -0.997206 0.00435083 
3.95466 3e-06 1.89068 0.151699 -0.988253 -0.018549 
4.09609 -0.149817 1.83144 -0.777609 -0.628419 -0.0203563 
4.6031 -0.149817 1.61907 0.757103 -0.65296 0.0209248 
4.75354 3e-06 1.55605 0.407827 -0.913001 0.0103443 
5 3e-06 1.45282 -7.2393e-08 -1 -1.72828e-07 
2.38637 3e-06 0 0 -1 0 
2.39758 3e-06 0.246464 -0.00104685 -0.903992 -0.427549 
2.67351 -0.149817 0.536407 -0.00295943 -0.889548 -0.456833 
2.42856 -0.149817 0.928027 0 -1 0 
2.43389 3e-06 1.04534 0.00192029 -0.995535 -0.0943722 
2.43389 2e-06 3.95466 -0.00646981 -0.991408 0.130648 
2.39414 -0.149818 4.08855 0.00489548 -0.618958 -0.785409 
2.57115 -0.149818 4.54791 0 -1 0 
2.53306 2e-06 4.70738 0.0109606 -0.870369 0.492278 
2.38637 2e-06 5 0 -1 0 
0.286325 -0.061437 4.71367 -0.427799 -0.802109 0.416664 
0.55015 -0.149818 4.64628 -0.0447561 -0.728308 0.683787 
0.957142 -0.149818 3.51906 0.71616 -0.696686 -0.0417476 
0.783583 -0.149818 3.09413 0.424754 -0.904095 -0.0468799 
0.880709 -0.149817 2.45798 0.576372 -0.816625 -0.0303062 
4.34131 -0.149817 0.347741 0.0691157 -0.724642 -0.685651 
4.72428 -0.045095 0.275724 0.421573 -0.806307 -0.414903 
0.872267 -0.149817 1.28579 0.628145 -0.778081 0.00488236 
1.22629 -0.149817 0.954243 0 -1 0 
0.828955 -0.149817 1.02707 0 -1 0 
2.26701 -0.149817 1.97201 0 -1 0 
2.54345 -0.149817 2.86002 -1.48027e-07 -1 -8.36708e-07 
1.17862 -0.149817 2.98311 -3.93762e-08 -1 -4.36613e-07 
1.22975 3e-06 1.93774 -0.00940926 -0.997685 0.0673445 
2.43635 -0.149818 3.86519 -1.57994e-07 -1 -6.78997e-07 
1.26046 -0.149818 3.73794 -5.9362e-09 -1 -1.14588e-06 
2.43635 -0.149817 1.13481 -0.00433422 -0.512764 -0.858518 
1.26046 -0.149817 1.26206 -0.379117 -0.810047 -0.447318 
3.86359 -0.149817 1.92816 0 -1 0 
3.73635 -0.149817 1.26206 0 -1 0 
3.40002 -0.149818 3.33522 -2.90118e-07 -1 -5.27533e-07 
3.58812 -0.149818 3.76403 0 -1 0 
3.7754 -0.149818 4.06538 -0.00627563 -0.630045 -0.776533 
3.96243 -0.149818 4.50325 0.14224 -0.876299 0.46029 
4.26448 2e-06 4.74337 0.0656788 -0.99215 0.106413 
4.73612 2e-06 4.35202 0.142202 -0.98384 0.108803 
4.64422 -0.149818 4.14744 0.650021 -0.728473 0.216334 
4.03088 -0.149818 3.82579 0 -1 0 
4.62323 2e-06 4.33133 -0.0399001 -0.975209 0.217661 
0.404728 -0.149817 0.816865 -0.629103 -0.773138 -0.080538 
3.95972 -0.149818 3.41449 -0.694602 -0.717791 0.0480002 
3.98311 -0.149817 2.58049 -2.04067e-07 -1 -8.33526e-07 
1.17979 -0.149817 2.11689 -0.569635 -0.791244 -0.222369 
1.93083 -0.149817 2.1856 0 -1 0 
1.16424 -0.149817 1.78702 -0.470705 -0.810632 0.3483 
3.66327 -0.149817 2.80627 0.470233 -0.834185 0.288126 
2.84306 -0.149817 2.58736 0 -1 0 
2.20487 3e-06 2.124 0.0349375 -0.998762 -0.0354116 
3.61188 3e-06 3.05961 -0.0677359 -0.995284 0.0694345 
2.59654 3e-06 2.72358 0.138677 -0.977545 -0.158665 
0.81628 -0.149817 2.06804 0.0325253 -0.803047 -0.595027 
0.439495 -0.149817 2.04745 0.0957449 -0.854879 -0.509916 
0.807462 3e-06 1.86537 -0.0241968 -0.989135 -0.145007 
1.69375 -0.149817 0.401391 0.0191569 -0.788582 -0.614631 
3.60848 -0.149817 0.358203 0 -1 0 
1.69375 -0.149817 0.401391 0 -1 0 
4.59175 -0.149818 3.23 -1.2244e-07 -1 -5.00116e-07 
1.22629 -0.149817 0.954243 0.0625288 -0.502395 0.862374 
3.98311 -0.149817 2.58049 -0.65787 -0.751333 -0.052023 
4.64422 -0.149818 4.14744 0 -1 0 
0.404728 -0.149817 0.816865 0 -1 0 
0.782236 -0.149817 0.420362 0 -1 0 
2.42856 -0.149817 0.928027 0.000564584 -0.583494 0.812117 
2.54345 -0.149817 2.86002 0.473569 -0.738892 -0.479344 
3.7754 -0.149818 4.06538 0 -1 0 
2.39414 -0.149818 4.08855 0 -1 0 
2.57115 -0.149818 4.54791 0.0277913 -0.725196 0.687981 
0.389166 -0.149818 3.20799 5.90904e-08 -1 -4.93739e-07 
0.783583 -0.149818 3.09413 -2.36978e-07 -1 -8.20896e-07 
0.957142 -0.149818 3.51906 0 -1 0 
0.81628 -0.149817 2.06804 0.379887 -0.849079 -0.367084 
0.807462 3e-06 1.86537 -0.0122221 -0.998257 0.0577414 
0.957142 -0.149818 4.04286 0.554137 -0.639748 -0.532593 
4.6031 -0.149817 1.61907 -2.42918e-07 -1 -1.5665e-07 
4.04286 -0.149817 0.957143 0 -1 0 
4.64431 -0.149817 0.631678 0 -1 0 
4.34131 -0.149817 0.347741 0 -1 0 
0.828955 -0.149817 1.02707 0.459668 -0.726224 0.51118 
0.55015 -0.149818 4.64628 0 -1 0 
0.351572 -0.149818 4.40474 0 -1 0 
1.17862 -0.149817 2.98311 -0.864913 -0.499813 0.04596 
1.26046 -0.149818 3.73794 -0.453057 -0.777327 0.436466 
2.43635 -0.149818 3.86519 -0.00862707 -0.512802 0.858464 
3.73635 -0.149817 1.26206 0.426583 -0.780175 -0.457553 
3.40002 -0.149818 3.33522 0.305665 -0.927353 -0.215837 
3.58812 -0.149818 3.76403 0.23999 -0.904235 0.353219 
3.96243 -0.149818 4.50325 0.492452 -0.837795 -0.235777 
3.95466 2e-06 3.95466 0.0786256 -0.981654 0.173708 
4.29592 2e-06 4.58561 0.133302 -0.99072 0.0265598 
4.62323 2e-06 4.33133 -0.173117 -0.935741 0.307277 
4.64422 -0.149818 4.14744 -0.326548 -0.729241 0.60131 
4.03088 -0.149818 3.82579 -0.328725 -0.706401 0.626848 
0.373721 -0.149817 1.41894 0 -1 0 
0.872267 -0.149817 1.28579 0 -1 0 
4.07084 -0.149818 3.13007 -0.453149 -0.889492 -0.0588218 
1.93083 -0.149817 2.1856 0.204898 -0.766033 -0.60927 
1.26046 -0.149817 1.26206 0 -1 0 
2.43635 -0.149817 1.13481 0 -1 0 
3.86359 -0.149817 1.92816 0.856502 -0.515778 0.0194181 
2.26701 -0.149817 1.97201 -0.261614 -0.721438 0.641159 
1.22975 3e-06 1.93774 -0.0149471 -0.999855 -0.00815914 
1.16424 -0.149817 1.78702 -0.121766 -0.676968 0.72587 
2.84306 -0.149817 2.58736 -0.312916 -0.833364 0.455618 
1.17979 -0.149817 2.11689 0 -1 0 
1.17979 -0.149817 2.11689 0.0577185 -0.773698 -0.63092 
3.66327 -0.149817 2.80627 0 -1 0 
3.61188 3e-06 3.05961 -0.0686604 -0.967688 0.242623 
3.66327 -0.149817 2.80627 -0.129487 -0.864787 0.485155 
3.40002 -0.149818 3.33522 0.24405 -0.817949 -0.520959 
0.439495 -0.149817 2.04745 3.84704e-07 -1 -4.13453e-07 
0.880709 -0.149817 2.45798 9.8484e-08 -1 -8.22899e-07 
0.439495 -0.149817 2.04745 -0.693583 -0.720075 -0.020849 
0.271105 3e-06 1.66296 -0.140242 -0.956516 0.255751 
0.824913 -0.149817 1.71101 0.271651 -0.861059 0.429863 
3.60848 -0.149817 0.358203 -0.0304595 -0.707434 -0.706123 
2.67351 -0.149817 0.536407 0 -1 0 
4.09609 -0.149817 1.83144 0 -1 0 
3.95972 -0.149818 3.41449 0 -1 0 
4.03088 -0.149818 3.82579 -0.826969 -0.543743 0.143058 
3.96243 -0.149818 4.50325 0 -1 0 
3.7754 -0.149818 4.06538 0.536899 -0.81188 -0.229329 
0.824913 -0.149817 1.71101 0 -1 0 
1.16424 -0.149817 1.78702 0 -1 0 
0.81628 -0.149817 2.06804 0 -1 0 
0.373721 -0.149817 1.41894 -0.270836 -0.866946 0.418393 
3 59 80 58
3 46 5 45
3 37 6 3
3 35 18 19
3 48 47 9
3 6 90 10
3 34 19 20
3 23 50 51
3 92 40 55
3 93 21 78
3 43 16 42
3 94 41 14
3 32 95 22
3 18 72 19
3 19 73 20
3 93 96 74
3 77 12 22
3 58 62 59
3 26 5 1
3 27 6 28
3 28 76 29
3 56 97 98
3 31 54 14
3 33 17 15
3 36 7 2
3 37 7 38
3 52 53 11
3 99 17 41
3 57 66 65
3 86 100 84
3 61 67 68
3 69 42 12
3 101 44 102
3 70 45 103
3 46 71 0
3 25 24 9
3 49 50 23
3 44 13 102
3 5 47 48
3 104 105 106
3 88 89 87
3 31 107 108
3 49 16 109
3 110 111 112
3 111 113 112
3 52 7 53
3 35 34 11
3 114 94 14
3 54 114 14
3 91 113 111
3 115 116 13
3 23 79 117
3 42 118 119
3 23 118 16
3 31 81 60
3 41 64 14
3 41 120 63
3 32 120 17
3 85 22 121
3 42 122 12
3 22 122 121
3 123 124 8
3 125 71 70
3 0 71 4
3 72 0 4
3 75 4 125
3 124 126 8
3 127 124 128
3 73 72 75
3 75 72 4
3 4 71 125
3 76 6 10
3 129 56 130
3 22 131 77
3 22 95 131
3 79 31 60
3 132 84 100
3 31 64 81
3 57 133 134
3 65 83 57
3 32 82 135
3 136 137 138
3 139 84 136
3 82 22 85
3 140 80 59
3 137 132 141
3 142 83 65
3 143 139 144
3 145 86 143
3 51 31 23
3 146 147 104
3 25 148 24
3 26 28 25
3 149 30 89
3 31 108 150
3 90 38 39
3 39 38 151
3 46 1 5
3 37 38 6
3 35 36 18
3 6 38 90
3 34 35 19
3 56 98 55
3 98 92 55
3 92 152 40
3 78 153 110
3 110 93 78
3 43 109 16
3 94 99 41
3 32 33 95
3 18 0 72
3 19 72 73
3 74 154 93
3 154 21 93
3 77 155 12
3 58 61 62
3 26 25 5
3 27 3 6
3 28 6 76
3 31 150 54
3 33 32 17
3 36 35 7
3 37 2 7
3 99 15 17
3 57 134 66
3 61 58 67
3 69 43 42
3 101 156 44
3 70 71 45
3 46 45 71
3 47 5 9
3 5 25 9
3 44 115 13
3 48 103 45
3 45 5 48
3 106 13 104
3 13 116 104
3 88 149 89
3 49 23 16
3 110 153 111
3 52 151 7
3 151 38 7
3 53 7 11
3 7 35 11
3 111 40 152
3 152 91 111
3 23 31 79
3 42 16 118
3 23 117 118
3 41 63 64
3 41 17 120
3 32 135 120
3 42 119 122
3 22 12 122
3 123 157 124
3 127 126 124
3 130 158 129
3 129 97 56
3 31 14 64
3 57 159 133
3 32 22 82
3 136 84 137
3 139 86 84
3 137 84 132
3 143 86 139
3 145 100 86
3 51 107 31
3 160 147 146
3 147 105 104
3 25 28 148
3 26 27 28
3 149 161 30
