ply
format ascii 1.0
comment INFO-3111 Flatenator generated
comment TextureFile Dungeons_Texture_01.png
element vertex 26
property float x
property float y
property float z
property float nx
property float ny
property float nz
property float texture_u
property float texture_v
element face 48
property list uchar int vertex_indices
end_header
-0.302093 -0.065036 -0.201823 -0.408253 -0.408226 -0.816505 0.211923 0.303946 
0 -0.065036 -0.201823 0 -0.8 -0.6 0.211923 0.303946 
0 -0.065036 0.201821 -9.13558e-07 -0.554695 0.832054 0.211923 0.303946 
-0.302093 -0.065036 0.201821 -0.577358 -0.577337 0.577356 0.211923 0.303946 
-0.276397 0.065037 0.10091 -0.717533 0.696504 0.00534328 0.211923 0.303946 
-0.302093 0.032518 0.201821 -0.62536 0.531825 0.57104 0.211923 0.303946 
-0.09558 0.065037 0.201821 0.0191447 0.732913 0.680053 0.211923 0.303946 
0.30209 -0.065036 -0.201823 0.816497 -0.408248 -0.408248 0.211923 0.303946 
0.30209 -0.065036 0.201821 0.408248 -0.816497 0.408248 0.211923 0.303946 
0.226566 0.065037 0.201821 0.0600142 0.721637 0.689665 0.211923 0.303946 
0.30209 0.032518 0.201821 0.66311 0.423435 0.617242 0.211923 0.303946 
0.30209 0.065037 0.10091 0.842057 0.539057 0.0189008 0.211923 0.303946 
0 0.012237 0.20182 0.0198389 0.127992 0.991577 0.211923 0.303946 
-0.302093 0.012496 0.201821 -0.716959 0.109844 0.688407 0.211923 0.303946 
-0.302093 0.032518 -0.201823 -0.637854 0.52638 -0.562198 0.211923 0.303946 
-0.276397 0.065037 -0.100912 -0.422894 0.906175 -0.00268103 0.211923 0.303946 
-0.130935 0.065037 -0.201823 -0.00944109 0.717696 -0.696293 0.211923 0.303946 
0 0.065037 0.17566 0.0220588 0.957606 0.287236 0.211923 0.303946 
0.30209 0.011979 0.201821 0.783955 0.00157033 0.620816 0.211923 0.303946 
0.226566 0.065037 -0.201823 0.0828342 0.595108 -0.799366 0.211923 0.303946 
0.275093 0.065037 0.000861 0.537539 0.842574 -0.0334827 0.211923 0.303946 
0.30209 0.032518 -0.201823 0.72195 0.47665 -0.501591 0.211923 0.303946 
0 0.065037 -0.182547 0.0138852 0.891798 -0.452221 0.211923 0.303946 
0 0.012237 -0.201823 0.0083064 0.0987633 -0.995076 0.211923 0.303946 
-0.302088 0.012496 -0.201823 -0.855071 0.157605 -0.493977 0.211923 0.303946 
0.30209 0.011979 -0.201823 0.594924 0.0935967 -0.798314 0.211923 0.303946 
3 1 3 0
3 4 5 6
3 1 8 2
3 9 10 11
3 3 12 13
3 14 15 16
3 18 10 9
3 19 20 21
3 16 15 17
3 16 23 24
3 3 24 0
3 9 11 20
3 7 18 8
3 19 25 23
3 12 17 6
3 18 2 8
3 23 0 24
3 4 15 24
3 20 11 18
3 25 1 23
3 1 2 3
3 1 7 8
3 3 2 12
3 9 17 12
3 12 18 9
3 15 4 6
3 6 17 15
3 17 22 16
3 24 14 16
3 16 22 23
3 3 13 24
3 19 22 20
3 22 17 20
3 17 9 20
3 7 25 18
3 23 22 19
3 19 21 25
3 5 13 6
3 13 12 6
3 18 12 2
3 23 1 0
3 14 24 15
3 24 13 4
3 13 5 4
3 10 18 11
3 18 25 20
3 25 21 20
3 25 7 1
