ply
format ascii 1.0
comment INFO-3111 Flatenator generated
comment TextureFile Dungeons_Texture_01.png
element vertex 85
property float x
property float y
property float z
property float nx
property float ny
property float nz
property float texture_u
property float texture_v
element face 100
property list uchar int vertex_indices
end_header
0.022007 0.144237 0.262927 0.454329 0.195284 0.869166 0.212431 0.281711 
0.044041 0.107319 0.248455 0.141611 0.190302 0.971459 0.212431 0.281711 
0.350136 0 0.262084 0.873668 -0.223243 0.432281 0.212431 0.305198 
-0.065731 0.049888 0.265444 -0.00301157 -0.0279874 0.999604 0.212431 0.305198 
0.000526 0.061705 0.252734 0.0115983 -0.265864 0.963941 0.212431 0.281711 
-0.350777 0.060612 0.264579 -0.550666 -0.113937 0.826913 0.212431 0.305198 
0.011105 0.00198 0.214616 -0.00580401 -0.908966 0.416831 0.212431 0.281711 
0.054897 0.007024 0.265444 -0.424922 -0.190024 0.885061 0.212431 0.281711 
-0.340717 0.002994 0.25703 -0.683099 -0.210878 0.699218 0.212431 0.305198 
-0.093407 0.001683 0.259207 -0.00854928 -0.127749 0.99177 0.212431 0.305198 
0.350777 0.143908 0.263336 0.320746 0.896795 0.304763 0.212431 0.305198 
0.066154 0.13054 0.230688 0.253239 0.824207 0.50651 0.212431 0.281711 
0.122032 0.126574 0.24692 -0.32099 0.821318 0.471595 0.212431 0.281711 
0.142609 0.143759 0.262913 0.00394937 0.445948 0.89505 0.212431 0.305198 
-0.350651 0.14394 0.263362 -0.728186 0.512514 0.455054 0.212431 0.305198 
-0.350777 0.038612 0.115123 -0.999624 -0.0100633 -0.025519 0.212431 0.305198 
0.05489 0.142984 0.082355 0.103676 0.990648 0.0887062 0.212431 0.281711 
0.142616 0.145538 0.112387 -0.377925 0.92301 0.0722853 0.212431 0.281711 
-0.324905 0.005872 -0.01622 -0.391999 -0.918334 0.0547709 0.212431 0.281711 
-0.306782 0.000451 0.112372 -0.0596713 -0.99818 -0.00873124 0.212431 0.281711 
-0.345261 0.030314 0.049774 -0.999133 0.0360602 -0.0208186 0.212431 0.305198 
0.35043 0.143382 0.008149 0.900703 0.434436 -0.000157063 0.212431 0.305198 
-0.219212 0 -0.033623 -0.00623181 -0.999826 0.0175972 0.212431 0.281711 
0.348202 0.081789 -0.107835 0.999735 0.00801452 -0.0215562 0.212431 0.305198 
0.350719 0.111927 -0.048807 0.430979 0.863203 -0.262942 0.212431 0.281711 
-0.35022 0.143297 -0.098687 -0.894863 0.440071 -0.074546 0.212431 0.305198 
-0.306919 0.145548 -0.132281 -0.0398726 0.998392 -0.0402994 0.212431 0.305198 
-0.350224 5e-06 -0.066361 -0.108518 -0.985489 0.130522 0.212431 0.281711 
0.349529 0.029661 -0.164937 0.997781 0.0308494 -0.0590085 0.212431 0.305198 
-0.350719 0.112177 -0.107829 -0.984004 0.116688 -0.134607 0.212431 0.305198 
0.344204 0.119769 -0.190485 0.678912 0.72184 -0.13426 0.212431 0.281711 
-0.350231 1.1e-05 -0.215015 -0.991666 0.0867288 -0.0952734 0.212431 0.305198 
-0.321594 0.134071 -0.199213 -0.549092 0.779671 -0.301017 0.212431 0.305198 
0.318035 0.145548 0.007995 0.00745189 0.99996 -0.00496953 0.212431 0.305198 
0.219296 0.000568 -0.259845 0.0465207 -0.478694 -0.876749 0.212431 0.305198 
0.305939 0.14437 -0.224471 0.00836431 0.99995 -0.00550236 0.212431 0.305198 
-0.186195 0.143632 -0.223451 -0.116977 0.888687 -0.443341 0.212431 0.305198 
-0.331512 0.064864 -0.250197 -0.948995 0.237778 -0.20705 0.212431 0.305198 
0.32999 0.005282 -0.247299 0.443406 -0.534191 -0.719744 0.212431 0.281711 
0.27412 0.144513 -0.246854 0.0449451 0.830371 -0.555395 0.212431 0.305198 
-0.31776 0.114083 -0.238279 -0.135766 0.601229 -0.787458 0.212431 0.305198 
0.334312 0.060235 -0.260461 0.612058 0.0911252 -0.785546 0.212431 0.305198 
-0.098991 0.144311 -0.246578 -0.0587284 0.973033 -0.223065 0.212431 0.305198 
0.320892 0.106443 -0.257626 0.576473 0.654694 -0.488933 0.212431 0.281711 
0.011036 0.143324 -0.265261 0.0205719 0.778952 -0.626746 0.212431 0.305198 
-0.13139 0.112023 -0.264138 -0.14034 0.58885 -0.795965 0.212431 0.305198 
0.208191 0.112363 -0.265445 0.0474365 0.097989 -0.994056 0.212431 0.305198 
-0.219212 0.081736 -0.265439 -0.143065 0.343494 -0.928194 0.212431 0.305198 
-0.316647 0.039519 -0.261638 -0.163574 0.292697 -0.94211 0.212431 0.305198 
-0.109356 0 -0.265303 0.0210901 -0.680593 -0.732358 0.212431 0.281711 
0.252159 0.03146 -0.258235 0.0455064 -0.0641119 -0.996905 0.212431 0.305198 
-0.283817 0.006158 -0.252285 -0.124337 -0.526857 -0.84081 0.212431 0.281711 
0.022007 0.144237 0.262927 0.00463368 0.896921 0.442166 0.212431 0.305198 
0.142609 0.143759 0.262913 -0.723593 0.649792 0.232771 0.212431 0.281711 
0.054897 0.007024 0.265444 0.0116418 0.0110401 0.999871 0.212431 0.305198 
-0.065731 0.049888 0.265444 0.281699 -0.33412 0.89945 0.212431 0.281711 
-0.093407 0.001683 0.259207 0.147491 -0.924919 0.350387 0.212431 0.281711 
-0.340717 0.002994 0.25703 -0.278591 -0.960344 -0.0112424 0.212431 0.281711 
0.350136 0 0.262084 0.0792613 -0.996673 0.0189903 0.212431 0.281711 
0.142616 0.145538 0.112387 -0.00524515 0.999977 -0.00439548 0.212431 0.305198 
-0.350777 0.038612 0.115123 -0.814987 -0.579254 -0.0161451 0.212431 0.281711 
0.05489 0.142984 0.082355 -0.0042321 0.999975 -0.00562147 0.212431 0.305198 
-0.345261 0.030314 0.049774 -0.532951 -0.833734 0.144398 0.212431 0.281711 
0.318035 0.145548 0.007995 0.481211 0.857316 -0.182882 0.212431 0.281711 
0.35043 0.143382 0.008149 0.0607232 0.873891 -0.482314 0.212431 0.281711 
-0.109356 0 -0.265303 0.00781195 -0.463883 -0.885862 0.212431 0.305198 
0.350719 0.111927 -0.048807 0.99971 -0.0138915 -0.0196713 0.212431 0.305198 
-0.350224 5e-06 -0.066361 -0.999711 0.00390231 0.0237271 0.212431 0.305198 
0.344204 0.119769 -0.190485 0.98473 0.089845 -0.149111 0.212431 0.305198 
-0.350231 1.1e-05 -0.215015 -0.276839 -0.87658 -0.393658 0.212431 0.281711 
0.219296 0.000568 -0.259845 0.178594 -0.916833 -0.3571 0.212431 0.281711 
0.349529 0.029661 -0.164937 0.520352 -0.85391 0.00844981 0.212431 0.281711 
0.305939 0.14437 -0.224471 0.58715 0.732512 -0.344501 0.212431 0.281711 
0.334312 0.060235 -0.260461 0.645436 -0.225549 -0.729754 0.212431 0.281711 
-0.321594 0.134071 -0.199213 -0.914597 0.316487 -0.25169 0.212431 0.281711 
-0.31776 0.114083 -0.238279 -0.651172 0.345555 -0.675697 0.212431 0.281711 
-0.331512 0.064864 -0.250197 -0.704877 0.173821 -0.687703 0.212431 0.281711 
0.27412 0.144513 -0.246854 0.421025 0.685375 -0.594137 0.212431 0.281711 
0.320892 0.106443 -0.257626 0.399461 0.278103 -0.87355 0.212431 0.305198 
-0.098991 0.144311 -0.246578 0.125283 0.118807 -0.984982 0.212431 0.281711 
0.011036 0.143324 -0.265261 -0.164585 0.138537 -0.976585 0.212431 0.281711 
-0.13139 0.112023 -0.264138 0.212073 0.0518616 -0.975877 0.212431 0.281711 
-0.316647 0.039519 -0.261638 -0.354723 -0.17671 -0.918121 0.212431 0.281711 
-0.219212 0.081736 -0.265439 -0.00364563 -0.104422 -0.994526 0.212431 0.281711 
0.252159 0.03146 -0.258235 0.0863232 -0.154509 -0.984213 0.212431 0.281711 
3 11 0 1
3 14 5 3
3 52 14 3
3 12 11 1
3 10 13 2
3 0 4 1
3 53 12 7
3 12 1 7
3 2 13 54
3 0 55 4
3 1 4 7
3 4 55 6
3 5 8 9
3 3 5 9
3 7 4 6
3 22 56 57
3 56 6 55
3 6 58 7
3 6 49 58
3 16 0 11
3 22 6 56
3 12 16 11
3 17 12 53
3 10 59 13
3 5 15 8
3 49 6 22
3 60 18 57
3 18 19 57
3 17 16 12
3 14 15 5
3 57 19 22
3 26 14 52
3 61 26 52
3 33 59 10
3 21 10 2
3 14 20 15
3 60 62 18
3 33 61 59
3 14 25 20
3 18 22 19
3 26 25 14
3 33 26 61
3 21 33 10
3 24 63 64
3 34 2 65
3 66 21 2
3 23 66 2
3 27 22 18
3 25 67 20
3 62 27 18
3 23 2 28
3 30 63 24
3 68 66 23
3 32 25 26
3 25 32 29
3 25 29 67
3 67 29 31
3 27 69 22
3 70 71 58
3 35 39 33
3 68 23 28
3 38 71 70
3 30 72 63
3 36 32 26
3 29 37 31
3 68 28 41
3 29 32 37
3 73 71 38
3 40 32 36
3 42 36 26
3 42 26 33
3 74 75 76
3 69 49 22
3 43 77 72
3 43 72 30
3 78 68 41
3 44 42 33
3 39 44 33
3 49 69 51
3 36 42 45
3 44 39 46
3 40 36 45
3 79 80 49
3 44 46 65
3 39 78 46
3 40 47 48
3 45 47 40
3 79 49 81
3 75 82 76
3 46 78 41
3 81 49 83
3 46 41 50
3 76 82 69
3 82 83 51
3 65 46 34
3 84 73 38
3 82 51 69
3 83 49 51
3 46 50 34
3 84 38 70
