ply
format ascii 1.0
comment INFO-3111 Flatenator generated
comment TextureFile Dungeons_Texture_01.png
element vertex 21
property float x
property float y
property float z
property float nx
property float ny
property float nz
property uchar red
property uchar green
property uchar blue
property uchar alpha
property float texture_u
property float texture_v
element face 38
property list uchar int vertex_indices
end_header
0.307379 -0.10058 0.090789 0.865099 -0.486275 0.123044 120 116 110 255 0.211923 0.303946 
0.307379 -0.05029 0.18158 0.33668 -0.222043 0.915065 120 116 110 255 0.211923 0.303946 
0.153688 -0.10058 0.18158 0.0601806 -0.839989 0.539255 120 116 110 255 0.211923 0.303946 
0.307379 0.10058 -0.090791 0.751081 0.65151 -0.106828 120 116 110 255 0.211923 0.303946 
0.307379 0.05029 -0.181581 0.602331 0.397241 -0.692385 120 116 110 255 0.211923 0.303946 
0.153688 0.10058 -0.181581 0.0612901 0.632755 -0.771923 120 116 110 255 0.211923 0.303946 
-0.307377 0.10058 0.090789 -0.751081 0.65151 0.106827 120 116 110 255 0.211923 0.303946 
-0.307377 0.05029 0.18158 -0.602333 0.397241 0.692383 120 116 110 255 0.211923 0.303946 
-0.153688 0.10058 0.18158 -0.0612911 0.632756 0.771922 120 116 110 255 0.211923 0.303946 
-0.307377 -0.10058 0.18158 -0.485071 -0.485071 0.727607 120 116 110 255 0.211923 0.303946 
0.106535 -0.01797 0.18158 -0.0145844 0.0699742 0.997442 120 116 110 255 0.211923 0.303946 
0.038864 0.10058 0.18158 0.241594 0.730345 0.638928 120 116 110 255 0.211923 0.303946 
-0.307377 -0.10058 -0.090791 -0.865099 -0.486275 -0.123045 120 116 110 255 0.211923 0.303946 
-0.307377 -0.05029 -0.181581 -0.602332 -0.39724 -0.692385 120 116 110 255 0.211923 0.303946 
-0.153688 -0.10058 -0.181581 -0.0531167 -0.741386 -0.668974 120 116 110 255 0.211923 0.303946 
0.307379 -0.10058 -0.181581 0.57735 -0.57735 -0.57735 120 116 110 255 0.211923 0.303946 
0.307379 0.10058 0.18158 0.666667 0.666667 0.333333 120 116 110 255 0.211923 0.303946 
0.094454 0.10058 0.00577 -0.0105147 0.999673 0.0233143 120 116 110 255 0.211923 0.303946 
-0.307377 0.10058 -0.181581 -0.57735 0.57735 -0.57735 120 116 110 255 0.211923 0.303946 
0.150938 0.10058 0.18158 -0.24743 0.56984 0.783621 120 116 110 255 0.211923 0.303946 
0.102421 0.084808 0.152391 -0.0635284 0.780944 0.621362 120 116 110 255 0.211923 0.303946 
3 0 1 2
3 3 4 5
3 6 7 8
3 10 11 8
3 12 13 14
3 3 16 0
3 17 5 18
3 15 14 5
3 2 9 14
3 6 18 12
3 10 2 1
3 17 16 3
3 19 17 20
3 20 10 19
3 20 17 11
3 11 10 20
3 7 9 8
3 9 2 10
3 8 9 10
3 16 1 0
3 0 15 3
3 15 4 3
3 18 6 17
3 6 8 17
3 8 11 17
3 13 18 14
3 18 5 14
3 5 4 15
3 9 12 14
3 14 15 2
3 15 0 2
3 18 13 12
3 12 9 6
3 9 7 6
3 16 19 1
3 19 10 1
3 3 5 17
3 17 19 16
