ply
format ascii 1.0
comment INFO-3111 Flatenator generated
comment TextureFile Dungeons_Texture_01.png
element vertex 54
property float x
property float y
property float z
property float nx
property float ny
property float nz
element face 104
property list uchar int vertex_indices
end_header
0 -0.201822 0 0 -1 0 
0.169054 -0.201822 0.085383 0.435777 -0.89951 0.0313006 
0.161499 -0.201822 0.16221 0.298195 -0.919851 0.25486 
0.081148 -0.201822 0.166552 0.0165196 -0.948686 0.315789 
0.169319 -0.114131 0.201116 0.306186 0.026561 0.951601 
0.163002 0.158822 0.201822 0.321372 0.105918 0.941011 
0 0.163704 0.201822 0.00496027 0.337976 0.941142 
0 0 0.201822 0.0015443 0.000229105 0.999999 
-0.201822 0.162214 0.161912 -0.950573 0.200545 0.237051 
-0.201822 0.159368 -0.11571 -0.960442 0.275718 0.0391155 
-0.201822 0 0 -1 0 0 
-0.201822 0.092739 0.180955 -0.909653 0.0398924 0.413449 
0.201818 0 0 1 0 0 
0.201818 0.180956 0 0.923876 0.382178 0.0198167 
0.201818 0.154493 0.169432 0.9218 0.237198 0.306629 
0.201818 0 0.180955 0.883475 0.012542 0.468311 
0.180956 0.201822 0.180955 0.329551 0.787556 0.520723 
0.180956 0.201822 0 0.434891 0.900249 0.02053 
0 0.201822 0 0 1 0 
-0.058468 0.201822 0.161552 0.0226916 0.928479 0.370692 
0.180956 0.180956 -0.201821 0.24174 0.484399 -0.840785 
0.170975 0.116557 -0.201821 0.39487 -0.0430129 -0.917729 
0 0 -0.201821 0 0 -1 
0.000563 0.166088 -0.201821 0.00888739 0.419026 -0.907931 
-0.180956 -0.201822 0.180955 -0.462405 -0.855232 0.234007 
-0.201822 -0.180956 0.180955 -0.868328 -0.371403 0.328735 
-0.201822 -0.161853 0.094913 -0.948403 -0.314937 -0.0367083 
-0.164732 -0.201822 0.089715 -0.394608 -0.918819 -0.00747072 
0.096874 -0.168759 0.201822 -0.00861924 -0.429342 0.903101 
0.180956 -0.180956 0.201822 0.286546 -0.513962 0.808538 
-0.171751 0.116174 0.201822 -0.383176 0.0174593 0.92351 
-0.180956 0.180956 0.201822 -0.401201 0.429841 0.808873 
0.201818 -0.180956 0.180955 0.803974 -0.413359 0.427505 
0.201818 -0.154328 0.087344 0.935367 -0.353261 -0.0172 
-0.180956 0.201822 0.180955 -0.526995 0.786234 0.322664 
-0.180956 0.201822 -0.080774 -0.524159 0.85162 -0.000891041 
-0.201822 0.180956 -0.180955 -0.883024 0.28765 -0.370845 
-0.180956 0.180956 -0.201821 -0.280859 0.293827 -0.913665 
-0.180956 -0.072939 -0.201821 -0.447657 -0.00452674 -0.894194 
-0.201822 -0.100223 -0.168447 -0.96335 0.0127697 -0.267945 
0.0993 0.201822 -0.156612 -0.0385697 0.939285 -0.340964 
0.180956 0.201822 -0.180955 0.416638 0.859476 -0.296164 
0.201818 0.180956 -0.180955 0.850542 0.249768 -0.46281 
0.201818 0.007032 -0.157717 0.913639 -0.00383342 -0.406509 
0 -0.201822 -0.180955 0.00371154 -0.782557 -0.622568 
-0.028217 -0.163123 -0.201821 0.0171923 -0.287927 -0.957498 
0.159979 -0.156681 -0.201821 0.243272 -0.169306 -0.955068 
0.180956 -0.201822 -0.180955 0.249935 -0.857636 -0.449436 
-0.180956 -0.180956 0.201822 -0.29365 -0.327979 0.897886 
-0.180956 0.201822 -0.180955 -0.353088 0.88531 -0.302582 
-0.180956 -0.201822 -0.180955 -0.236292 -0.877704 -0.416896 
-0.201822 -0.180956 -0.180955 -0.859835 -0.42986 -0.275507 
-0.180956 -0.180956 -0.201821 -0.483325 -0.27715 -0.830413 
0.201818 -0.180956 -0.180955 0.888075 -0.300244 -0.348105 
3 1 3 0
3 5 7 4
3 8 10 11
3 12 14 15
3 16 18 19
3 21 23 20
3 24 26 27
3 28 2 29
3 30 8 11
3 2 33 32
3 15 5 4
3 8 35 9
3 6 16 19
3 14 17 16
3 36 38 39
3 40 20 23
3 42 21 20
3 44 46 47
3 25 24 48
3 2 32 29
3 34 8 31
3 14 16 5
3 37 36 49
3 42 20 41
3 50 51 52
3 53 47 46
3 19 35 34
3 31 19 34
3 6 30 7
3 48 3 28
3 27 3 24
3 50 45 44
3 22 37 23
3 49 23 37
3 17 40 18
3 18 49 35
3 9 49 36
3 9 39 10
3 27 51 50
3 50 0 27
3 47 0 44
3 1 53 33
3 43 13 12
3 13 41 17
3 33 15 32
3 53 12 33
3 43 46 21
3 22 46 45
3 38 45 52
3 39 52 51
3 26 39 51
3 11 26 25
3 48 11 25
3 7 48 28
3 4 28 29
3 32 4 29
3 1 2 3
3 5 6 7
3 8 9 10
3 12 13 14
3 16 17 18
3 21 22 23
3 24 25 26
3 28 3 2
3 30 31 8
3 2 1 33
3 15 14 5
3 8 34 35
3 6 5 16
3 14 13 17
3 36 37 38
3 40 41 20
3 42 43 21
3 44 45 46
3 19 18 35
3 31 6 19
3 6 31 30
3 48 24 3
3 27 0 3
3 50 52 45
3 22 38 37
3 49 40 23
3 17 41 40
3 18 40 49
3 9 35 49
3 9 36 39
3 27 26 51
3 50 44 0
3 47 1 0
3 1 47 53
3 43 42 13
3 13 42 41
3 33 12 15
3 53 43 12
3 43 53 46
3 22 21 46
3 38 22 45
3 39 38 52
3 26 10 39
3 11 10 26
3 48 30 11
3 7 30 48
3 4 7 28
3 32 15 4
