ply
format ascii 1.0
comment INFO-3111 Flatenator generated
comment TextureFile Dungeons_Texture_01.png
element vertex 488
property float x
property float y
property float z
property float nx
property float ny
property float nz
property float texture_u
property float texture_v
element face 700
property list uchar int vertex_indices
end_header
0.773396 0.066728 4.95062 0.012968 0.845837 0.533283 0.201969 0.275528 
0.046078 0.054896 4.95374 -0.305887 0.830921 0.464761 0.201969 0.275528 
0.940121 -1e-06 5 -0.00252357 -0.0734779 0.997294 0.201969 0.275528 
2.40223 0.042911 4.93893 0.273067 0.906166 0.322951 0.201969 0.275528 
1.88659 0.055758 4.92763 -0.00688328 0.792815 0.609423 0.201969 0.275528 
2.57804 -1e-06 5 -0.077125 0.640607 0.763986 0.201969 0.275528 
4.84294 0.035332 4.9606 0.157941 0.854872 0.494215 0.201969 0.275528 
3.26155 0.034046 4.97277 -0.0158405 0.84753 0.530511 0.201969 0.275528 
4.14054 -1e-06 5 0.00227855 0.0314707 0.999502 0.201969 0.275528 
1.3671 -1e-06 5 -0.228831 0.536896 0.812021 0.201969 0.275528 
2.7117 0.082921 4.90835 -0.489873 0.761844 0.423815 0.201969 0.275528 
2.96866 0.016605 4.99581 -0.00024661 0.631758 0.775166 0.201969 0.275528 
5 -1e-06 5 0.47523 0.834393 0.279186 0.201969 0.275528 
4.96092 0.016388 4.85953 0.397534 0.907903 0.132963 0.201969 0.275528 
0 -1e-06 5 -0.889221 -0.0580191 0.453783 0.201969 0.275528 
3.57413 -1e-06 5 0.00489399 0.537618 0.843175 0.201969 0.275528 
1.19065 -1e-06 5 0.176493 0.518502 0.836664 0.201969 0.275528 
2.91007 -1e-06 5 0.000354505 -0.958232 0.285992 0.201969 0.275528 
0.101543 0.098085 4.85238 -0.301954 0.919934 0.250091 0.201969 0.275528 
1.09656 0.082255 4.89889 0.204393 0.952026 0.227749 0.201969 0.275528 
1.25859 0.031594 4.85736 -0.103511 0.960731 0.257453 0.201969 0.275528 
1.33311 0.088932 4.86011 -0.414239 0.836869 0.35785 0.201969 0.275528 
1.46476 -0.003051 3.74991 -0.000655228 -0.999998 0.00179147 0.201969 0.275528 
5 -1e-06 4.55069 0.888737 -0.458416 0.00106156 0.201969 0.275528 
0.755444 0.091975 4.90643 0.0482571 0.875554 0.480703 0.201969 0.275528 
2.06161 0.093393 4.88912 0.027816 0.84255 0.5379 0.201969 0.275528 
4.87374 0.087022 4.81246 0.439573 0.881429 0.172794 0.201969 0.275528 
3.1344 0.086653 4.89104 0.0743777 0.917225 0.391363 0.201969 0.275528 
4.42789 0.083213 4.89686 0.00619517 0.830745 0.556618 0.201969 0.275528 
3.43341 0.078192 4.90502 -0.215185 0.975312 0.0496228 0.201969 0.275528 
0.947697 0.075245 4.88382 0.042593 0.971072 0.234957 0.201969 0.275528 
4.79944 0.096428 4.86619 0.142145 0.959819 0.241956 0.201969 0.275528 
2.5784 0.03366 4.58904 -0.194264 0.980246 0.0371328 0.201969 0.275528 
2.40766 0.095123 4.72343 0.703946 0.702878 0.102092 0.201969 0.275528 
0.277958 0.098252 3.83731 -0.0155297 0.999879 0.000635438 0.201969 0.303188 
0.049732 0.06671 4.77405 -0.6936 0.720207 0.0148219 0.201969 0.275528 
1.35725 0.098372 4.52699 -0.00108549 0.999947 0.0102518 0.201969 0.303188 
3.52025 0.065891 4.7223 -0.0435475 0.998643 0.0285729 0.201969 0.275528 
1.29221 0.038766 4.61409 -0.267345 0.963226 0.0268683 0.201969 0.275528 
2.65031 0.097001 4.63429 -0.00356181 0.999436 0.0334022 0.201969 0.303188 
3.24887 0.097557 4.66172 -0.00164217 0.999867 0.0162497 0.201969 0.303188 
2.66052 0.077273 4.59672 -0.991825 0.10895 0.0664362 0.201969 0.275528 
4.98245 0.024165 4.47257 0.577751 0.816146 0.0104604 0.201969 0.275528 
3.94902 0.098372 4.27282 -0.00861882 0.999777 0.0192601 0.201969 0.303188 
4.88802 0.09509 4.14621 0.341321 0.93956 -0.0269519 0.201969 0.275528 
2.25454 0.098372 4.44923 0.0592177 0.99818 0.0114199 0.201969 0.303188 
1.17913 0.095063 4.24425 0.0117201 0.999669 0.0229021 0.201969 0.303188 
4.90146 0.043355 3.63145 0.49053 0.871251 -0.0173872 0.201969 0.275528 
3.72168 0.086202 4.40758 0.0631084 0.988387 0.138234 0.201969 0.275528 
2.78002 0.098372 3.74798 0.00218251 0.999992 -0.00332117 0.201969 0.303188 
3.69793 0.098372 4.35702 0.0938898 0.977076 0.191066 0.201969 0.275528 
0.067173 0.083668 3.89497 -0.595684 0.772702 -0.219297 0.201969 0.275528 
1.31711 0.089998 4.38034 -0.611325 0.791252 0.0142134 0.201969 0.275528 
2.60011 0.037092 3.92474 -0.302496 0.948967 -0.0892078 0.201969 0.275528 
2.40427 0.081188 4.27261 0.142708 0.989456 0.0247102 0.201969 0.303188 
2.62736 0.092777 4.23445 -0.911243 0.41095 0.0275073 0.201969 0.275528 
1.27719 0.037184 4.33228 -0.201439 0.97862 -0.0415363 0.201969 0.275528 
2.44043 0.043397 4.19729 0.673945 0.73826 0.0277612 0.201969 0.275528 
4.86959 0.079185 3.85938 0.274787 0.96004 -0.0530576 0.201969 0.275528 
0 -1e-06 3.90616 -0.978833 0.188099 -0.0806539 0.201969 0.275528 
1.21768 0.03416 4.06305 0.302983 0.951967 -0.044266 0.201969 0.275528 
4.9795 0.030461 4.00382 0.5753 0.817875 -0.0104869 0.201969 0.275528 
2.42936 0.095191 4.03882 0.0729485 0.996941 0.0280596 0.201969 0.303188 
5 -1e-06 3.65225 0.96512 0.26177 -0.00435389 0.201969 0.275528 
2.67275 0.098223 3.80264 -0.883599 0.00538272 -0.468214 0.201969 0.275528 
1.94837 0.098371 3.64555 0.00213649 0.999998 0.000622049 0.201969 0.303188 
1.37578 0.098372 3.96876 -0.459369 0.887989 -0.0213725 0.201969 0.275528 
4.69356 0.098372 3.85689 0.0576626 0.992812 -0.104874 0.201969 0.275528 
1.16252 0.098247 3.83718 0.537891 0.562595 -0.627821 0.201969 0.275528 
1.2904 0.042837 3.75009 -0.249896 0.968218 -0.0102717 0.201969 0.275528 
1.19449 0.040113 3.82411 0.17769 0.965244 -0.19165 0.201969 0.275528 
2.43322 0.098371 3.56853 0.587321 0.787396 -0.187248 0.201969 0.275528 
0.079433 0.041708 3.80883 -0.221676 0.903045 -0.367925 0.201969 0.275528 
4.14404 0.098372 3.67562 -0.0036829 0.999991 -0.00195737 0.201969 0.303188 
1.55135 0.098372 3.32422 -0.0391047 0.999219 -0.00559284 0.201969 0.303188 
4.5166 0.074023 3.58269 -0.0126977 0.998577 0.0517922 0.201969 0.275528 
4.84723 0.095836 3.54953 0.283095 0.958844 0.0218179 0.201969 0.275528 
1.34989 0.082255 3.38652 -0.572561 0.817563 -0.0613652 0.201969 0.275528 
4.32116 0.072512 3.62447 0.0207509 0.991349 -0.129605 0.201969 0.275528 
0.585571 0.04348 3.72813 0.0700888 0.968748 0.237939 0.201969 0.275528 
0.001152 0.042503 3.35928 -0.77662 0.629579 0.022194 0.201969 0.275528 
0.587162 0.092502 3.69688 0.602606 0.695403 0.391512 0.201969 0.275528 
0.263744 0.090312 3.63971 -0.0932801 0.985452 0.142068 0.201969 0.275528 
0.122669 0.052528 3.71392 -0.208548 0.956927 0.201988 0.201969 0.275528 
1.15277 0.043154 3.70966 0.34394 0.897975 0.274492 0.201969 0.275528 
2.45988 0.042107 3.43593 0.369927 0.926944 -0.0626788 0.201969 0.275528 
0 -1e-06 3.22256 -0.578184 -0.815902 0.00286193 0.201969 0.275528 
3.62931 0.089638 3.62477 0.011018 0.995381 -0.0953651 0.201969 0.275528 
3.13444 0.09774 3.58575 -0.0114781 0.99771 -0.0666605 0.201969 0.275528 
1.16062 0.095014 3.6848 0.678855 0.231207 0.696921 0.201969 0.275528 
0.674473 0.095462 3.65628 -0.271186 0.88937 0.368075 0.201969 0.275528 
1.25856 0.028596 3.49521 -0.270942 0.961936 -0.0356254 0.201969 0.275528 
0.129337 0.094451 3.13707 -0.33281 0.942128 0.0403951 0.201969 0.275528 
2.25533 0.076151 3.50783 -0.0088471 0.949115 -0.314805 0.201969 0.275528 
1.98438 0.078679 3.52151 0.0685986 0.997571 -0.0120706 0.201969 0.275528 
2.63676 0.070189 3.50121 -0.246128 0.969229 -0.00404011 0.201969 0.275528 
0.66621 0.043577 3.33756 -0.270083 0.962249 0.0336343 0.201969 0.275528 
0.889271 0.097696 3.21321 0.0003233 1 0.000408201 0.201969 0.303188 
3.84048 0.084841 3.40072 -0.014151 0.991038 0.132828 0.201969 0.275528 
5 0 2.67569 0.900826 -0.434168 0.00319035 0.201969 0.275528 
2.8129 0.071125 3.43035 -0.0690823 0.996885 0.0380494 0.201969 0.275528 
3.36801 0.077237 3.37844 -0.0200671 0.982296 0.186257 0.201969 0.275528 
4.71103 0.095658 3.45985 0.00360354 0.998362 0.0571032 0.201969 0.275528 
4.98967 0.031068 3.08585 0.62258 0.782518 0.007734 0.201969 0.275528 
2.95715 0.073256 3.36516 -0.00550347 0.998729 0.0500972 0.201969 0.275528 
4.12658 0.098371 3.40484 -0.0298145 0.97945 0.199472 0.201969 0.275528 
2.53697 0.019389 3.37857 -0.229093 0.972387 0.0444918 0.201969 0.275528 
2.27508 0.098372 3.32787 0.0997373 0.96368 0.247735 0.201969 0.275528 
2.44355 0.067597 3.31388 0.345879 0.911438 0.222818 0.201969 0.275528 
0.585323 0.042516 3.20351 0.316816 0.948461 0.00702401 0.201969 0.275528 
4.07608 0.074646 3.04598 -0.00132581 0.999739 -0.0227913 0.201969 0.303188 
3.87802 0.08746 3.13363 0.0791212 0.996646 0.0208931 0.201969 0.303188 
0.000202 0.042517 2.75402 -0.771363 0.635708 -0.0295779 0.201969 0.275528 
0.038898 -0.00305 2.94913 -0.0376742 -0.999278 0.00481819 0.201969 0.275528 
1.45778 0.092738 3.06332 -0.0542042 0.998528 -0.00212421 0.201969 0.303188 
2.67094 0.07657 3.29372 -0.236183 0.956906 0.168961 0.201969 0.275528 
3.40107 0.098372 3.33251 -0.0277293 0.915532 0.401289 0.201969 0.275528 
2.62209 0.095189 3.20541 -0.514405 0.842105 0.162008 0.201969 0.275528 
4.85087 0.08778 3.16978 0.423149 0.906021 -0.00843484 0.201969 0.275528 
0.059872 0.074296 2.64908 -0.51023 0.859659 -0.0255401 0.201969 0.275528 
2.62368 0.094906 2.60923 -0.0020607 0.999991 -0.00356531 0.201969 0.303188 
0.709568 0.09582 3.14777 -0.533712 0.841797 0.0808102 0.201969 0.275528 
2.45593 0.082774 2.99244 0.156387 0.986948 0.0384213 0.201969 0.303188 
3.77293 0.098373 3.04349 0.0270967 0.999571 0.011128 0.201969 0.303188 
1.72617 0.098373 2.82058 -0.0101963 0.999942 -0.00353743 0.201969 0.303188 
4.90153 0.04281 2.6167 0.255178 0.944591 -0.206476 0.201969 0.275528 
1.34231 0.061394 2.98675 -0.337564 0.940811 -0.0304162 0.201969 0.275528 
0 0 2.89054 -0.663977 -0.747748 0.00291954 0.201969 0.275528 
1.348 0.042976 2.57842 -0.108333 0.97993 -0.167337 0.201969 0.275528 
1.23018 0.043044 2.82935 0.43845 0.89692 0.0574125 0.201969 0.275528 
1.23506 0.094916 2.56837 0.657471 0.53011 -0.535458 0.201969 0.275528 
0.498684 0.101636 2.57812 -0.033417 0.999436 0.0032655 0.201969 0.303188 
2.47675 0.086505 2.71949 0.0765527 0.997048 0.0059275 0.201969 0.303188 
2.61777 0.042953 2.59792 -0.26713 0.944743 -0.190004 0.201969 0.275528 
4.82927 0.092417 2.66874 0.257763 0.939148 -0.227067 0.201969 0.275528 
0.241867 0.086651 2.60413 0.00543021 0.999979 -0.00364987 0.201969 0.303188 
4.00603 0.043321 2.59821 0.045583 0.994542 -0.0938492 0.201969 0.275528 
0.100231 0.096727 2.65092 -0.287473 0.937618 -0.19553 0.201969 0.275528 
2.48034 0.042481 2.61713 0.460045 0.836209 -0.298519 0.201969 0.275528 
4.22101 0.042065 2.59919 -0.0571682 0.937705 -0.342697 0.201969 0.275528 
0.018742 -0.002939 2.81241 -0.0662427 -0.997798 0.00345291 0.201969 0.275528 
1.44193 0.071532 2.69154 -0.123335 0.987158 -0.10153 0.201969 0.275528 
2.01938 0.098373 2.79648 0.0119991 0.999911 -0.00577198 0.201969 0.303188 
3.914 0.095096 2.60971 0.220567 0.566726 -0.793834 0.201969 0.275528 
4.39035 0.09521 2.60965 -0.0183067 0.999812 0.00637829 0.201969 0.303188 
0.749332 0.095686 2.53555 -0.00415454 0.999989 -0.0021081 0.201969 0.303188 
0.745525 0.055106 2.53442 -0.296326 0.822367 -0.485699 0.201969 0.275528 
4.99855 0.017159 2.49971 0.765154 0.643845 0.00158579 0.201969 0.275528 
1.28867 0.042517 2.50023 0.14585 0.986288 0.0772195 0.201969 0.275528 
0.038898 -0.00305 2.63663 -0.00363159 -0.999993 1.84721e-06 0.201969 0.275528 
2.00615 0.153292 2.585 -0.825697 0.531854 0.188031 0.201969 0.275528 
2.15469 0.143276 2.74474 0.00566294 0.775636 0.631155 0.201969 0.275528 
2.56718 0.164236 2.69071 0.597385 0.659864 0.455753 0.201969 0.275528 
2.00333 0.077272 2.61147 -0.668059 0.331374 -0.666249 0.201969 0.275528 
0.018745 -0.002941 2.71475 -0.0953739 -0.995442 3.91602e-06 0.201969 0.275528 
1.70522 0.065345 2.60519 0.132834 0.901202 -0.41254 0.201969 0.275528 
0.021965 0.043073 2.59798 -0.406582 0.874579 -0.264203 0.201969 0.275528 
2.57313 0.089655 2.70553 0.502523 -0.778103 0.376864 0.201969 0.275528 
4.10282 0.029362 2.56699 0.0502897 0.997342 0.0527291 0.201969 0.275528 
2.47329 0.087255 2.60438 0.192513 -0.971302 -0.139682 0.201969 0.275528 
0 0 2.57804 -0.826163 -0.563176 -0.0169449 0.201969 0.275528 
1.74048 0.043228 2.59791 0.0914305 0.87852 -0.468873 0.201969 0.275528 
0.55011 0.056011 2.47508 0.0812229 0.977426 0.195041 0.201969 0.275528 
2.37295 0.134665 2.1037 -0.0126132 0.998757 -0.0482231 0.201969 0.303188 
2.47082 0.063038 2.07277 0.942826 -0.33139 0.0354827 0.201969 0.275528 
3.43956 0.043321 2.59821 0.00141779 0.764285 -0.644877 0.201969 0.275528 
0.018742 -0.002939 2.49991 -0.0653942 -0.997859 3.91601e-06 0.201969 0.275528 
5 0 2.246 0.576076 -0.817396 0.000210258 0.201969 0.275528 
1.93851 0.065132 2.15996 -0.92181 -0.0542836 0.383823 0.201969 0.275528 
1.73819 0.042532 2.44026 0.156229 0.968033 0.196223 0.201969 0.275528 
2.45993 0.041648 2.08626 0.203419 0.976096 0.0765365 0.201969 0.275528 
2.79288 0.042516 2.51944 0.0116646 0.999173 -0.0389517 0.201969 0.275528 
1.07389 0.0358 2.52524 0.0131291 0.999819 0.013759 0.201969 0.275528 
3.8105 0.043229 2.39964 -0.286287 0.953022 0.0989361 0.201969 0.275527 
3.53509 0.033916 2.46237 -0.00280361 0.999617 -0.0275431 0.201969 0.275528 
4.56998 0.041697 2.4986 0.000340835 0.984817 0.173594 0.201969 0.275528 
4.92084 0.043216 2.4604 0.385576 0.888253 0.249677 0.201969 0.275528 
0.136112 0.047449 2.48284 -0.256158 0.944405 0.20611 0.201969 0.275528 
3.91635 0.093665 2.42081 -0.165912 0.952983 0.253568 0.201969 0.275528 
0.038898 -0.00305 2.32413 -0.0244937 -0.999697 -0.00225404 0.201969 0.275528 
4.75824 0.09699 2.41585 0.0188484 0.671071 0.741154 0.201969 0.275528 
4.57473 0.095436 2.38812 -0.0378097 0.762786 0.645545 0.201969 0.275527 
0.299484 0.094802 2.48059 -0.065521 0.929115 0.363941 0.201969 0.275528 
0.947475 0.097656 2.45168 0.0233491 0.917116 0.397936 0.201969 0.275528 
2.50171 0.141727 2.25706 0.680901 0.715222 -0.157578 0.201969 0.275528 
0.34174 0.098372 2.29455 -0.0380035 0.994321 0.099408 0.201969 0.275528 
4.8938 0.083013 2.38821 0.520384 0.815144 0.254444 0.201969 0.275528 
1.12685 0.0792 2.44566 0.0297108 0.955939 0.292058 0.201969 0.275528 
1.69655 0.082592 2.40848 0.437133 0.792197 0.425839 0.201969 0.275528 
1.31721 0.094289 2.44933 0.00819481 0.666551 0.745414 0.201969 0.275528 
4.10907 0.0887 2.39539 0.0281853 0.930571 0.365025 0.201969 0.275527 
2.90909 0.024613 2.32557 0.0268102 0.998091 -0.0556326 0.201969 0.275528 
0.018745 -0.002941 2.40225 -0.0934634 -0.995617 -0.0033826 0.201969 0.275527 
1.85026 0.103439 1.61652 -0.985407 0.0717891 0.154333 0.201969 0.275528 
0.131165 0.076081 2.17788 -0.434326 0.899884 0.0396311 0.201969 0.275528 
0.561375 0.098373 2.15595 -0.0118832 0.999912 -0.00582515 0.201969 0.303188 
0.001102 0.042517 1.95303 -0.693221 0.720145 -0.0289153 0.201969 0.275528 
0.038898 -0.00305 2.01163 -0.0320946 -0.999484 -0.00156071 0.201969 0.275528 
0.94508 0.098373 2.23927 -0.000244951 0.999999 0.00112794 0.201969 0.303188 
1.7091 0.082694 2.14206 0.0475938 0.998602 0.0230182 0.201969 0.303188 
0 0 2.26554 -0.516356 -0.856369 -0.00295128 0.201969 0.275528 
1.71296 0.093889 1.88381 0.0641338 0.996963 0.0441749 0.201969 0.303188 
3.41802 0.035413 2.32411 0.0155511 0.999689 -0.0195077 0.201969 0.275528 
1.08422 0.080786 2.29559 0.0743393 0.996529 0.0374757 0.201969 0.275528 
4.91133 0.097981 1.90198 0.779091 0.625871 0.0360835 0.201969 0.275528 
2.18711 0.042517 2.14896 0.140367 0.537302 0.831627 0.201969 0.275528 
1.89411 0.042517 2.18757 -0.0907831 0.974302 0.206142 0.201969 0.275528 
4.30851 0.098373 2.19825 -0.000147702 0.999773 0.0212928 0.201969 0.303188 
3.80812 0.042517 2.09023 -0.179516 0.983732 -0.00669549 0.201969 0.275528 
2.61192 0.017926 2.09113 0.0393942 0.999003 0.0209876 0.201969 0.275528 
2.92972 0.026278 2.03107 -0.0039713 0.998584 0.0530416 0.201969 0.275528 
2.45091 0.130931 2.01687 0.749746 0.642423 -0.158664 0.201969 0.275528 
3.91928 0.095276 1.78597 -0.629383 0.777032 0.00989365 0.201969 0.275528 
3.33873 0.028809 2.1306 0.0123312 0.99959 -0.0258463 0.201969 0.275528 
3.47902 0.031703 1.95115 -0.0437345 0.998968 -0.0122424 0.201969 0.275528 
0.101948 0.055261 1.89904 -0.372228 0.927886 -0.0217818 0.201969 0.275528 
1.64159 0.080079 1.84359 0.171779 0.98457 0.0333801 0.201969 0.275528 
4.69297 0.095105 1.418 0.0204769 0.999703 -0.0132277 0.201969 0.303188 
5 0 1.79678 0.991649 0.128404 0.0120285 0.201969 0.275528 
0.136032 0.082499 1.96639 -0.0297576 0.999414 -0.016921 0.201969 0.303188 
1.37609 0.098373 1.82797 0.0718987 0.99385 0.084219 0.201969 0.275528 
0 0 1.64053 -0.873987 -0.484027 -0.0431891 0.201969 0.275528 
0.553539 0.098373 1.78336 -0.00941297 0.999956 0.00019797 0.201969 0.303188 
3.87035 0.042061 1.36651 -0.159355 0.925932 -0.342426 0.201969 0.275528 
0.027622 0.029677 1.75663 -0.379532 0.924992 -0.0185985 0.201969 0.275528 
4.95978 0.04336 1.79545 0.748066 0.662922 0.0305341 0.201969 0.275528 
3.26163 -0.00305 0.351473 0.000452091 -0.999995 -0.00306866 0.201969 0.275527 
1.71806 0.043276 1.58149 0.685639 0.727914 0.00631625 0.201969 0.275528 
2.4018 0.043184 1.60018 0.869008 0.477025 -0.131428 0.201969 0.275528 
2.71474 0.042376 1.953 -0.0108096 0.994964 0.0996457 0.201969 0.275528 
3.16272 0.032866 1.9335 0.0347908 0.998478 0.0427932 0.201969 0.275528 
3.31924 0.017415 1.82803 0.00340994 0.959179 0.282779 0.201969 0.275528 
2.53993 0.04317 1.77618 -0.0868863 0.988458 0.124104 0.201969 0.275528 
3.74945 0.043008 1.77608 0.180604 0.940898 0.286518 0.201969 0.275528 
3.05429 0.050875 1.77079 0.112329 0.889288 0.443338 0.201969 0.275528 
1.8493 0.04428 1.65458 -0.542963 0.835242 0.0869616 0.201969 0.275528 
0.382912 0.071491 1.68615 -0.0245946 0.99929 0.028553 0.201969 0.275528 
3.57067 0.095084 1.76945 0.176644 0.695014 0.69696 0.201969 0.275528 
3.29476 0.095191 1.76985 -0.0839432 0.74728 0.659187 0.201969 0.275528 
3.016 0.098116 1.74656 0.457967 0.879852 0.126991 0.201969 0.275528 
2.58837 0.098137 1.74669 -0.586337 0.536201 0.607204 0.201969 0.275528 
0.265633 0.098373 1.54852 -0.104742 0.991163 0.0813936 0.201969 0.275528 
1.70734 0.095169 1.61241 0.632108 0.766489 0.113728 0.201969 0.275528 
2.76486 0.074374 1.31429 0.163772 0.97319 -0.16149 0.201969 0.275528 
4.20333 0.095219 1.39408 -0.0018176 0.999994 -0.00284359 0.201969 0.303188 
3.7351 0.075547 1.50195 0.772538 0.633866 0.037407 0.201969 0.275528 
2.31853 0.085396 1.14976 0.633996 0.619496 -0.462897 0.201969 0.275527 
4.93598 0.077781 1.50796 0.0877899 0.995098 -0.0455225 0.201969 0.303188 
0.102871 0.079843 1.15688 -0.459369 0.888194 -0.00957545 0.201969 0.275527 
4.99826 0.017107 1.3873 0.643902 0.74188 -0.187094 0.201969 0.275528 
3.88459 0.09473 1.37612 -0.676018 0.305145 -0.670735 0.201969 0.275528 
1.20282 0.098373 1.14332 -0.0191376 0.999605 0.0205962 0.201969 0.275527 
1.79522 0.084727 1.22927 -0.0129817 0.998741 -0.0484605 0.201969 0.303188 
2.56189 0.092063 1.20761 4.55912e-05 0.999937 -0.0112687 0.201969 0.303188 
2.55898 0.056117 1.15806 -0.385889 0.921653 -0.0405755 0.201969 0.275527 
3.74913 0.043351 1.28741 0.563689 0.825983 0.00288622 0.201969 0.275528 
2.96109 0.098373 1.35597 0.0143111 0.999811 -0.0131456 0.201969 0.303188 
0.04044 0.028949 1.11521 -0.629635 0.776889 -0.00174408 0.201969 0.275527 
2.32417 0.04333 1.13361 0.134292 0.893626 -0.42825 0.201969 0.275527 
5 0 1.17179 0.742701 -0.669623 0 0.201969 0.275527 
4.68723 0.040318 1.40478 0.0253383 0.892079 -0.451167 0.201969 0.275528 
1.69445 0.094939 1.20604 0.641527 0.763674 -0.0724263 0.201969 0.275528 
1.7599 0.04309 1.24842 -0.253644 0.942285 -0.218546 0.201969 0.275528 
4.49319 0.043567 1.32534 -0.16276 0.963324 0.213343 0.201969 0.275528 
4.92137 0.042133 1.2478 0.263925 0.941014 0.211746 0.201969 0.275528 
3.86889 0.043291 1.24792 -0.208191 0.956733 0.203271 0.201969 0.275528 
4.31631 0.042535 1.26872 0.202914 0.877846 0.433834 0.201969 0.275528 
4.30783 0.096489 1.26562 0.880842 0.158463 0.446102 0.201969 0.275528 
3.9721 0.09607 1.26437 -0.224056 0.305043 0.925607 0.201969 0.275528 
4.50169 0.095404 1.29309 -0.512619 0.669738 0.537283 0.201969 0.275528 
3.73576 0.082244 0.646547 0.938009 0.346513 0.00827891 0.201969 0.275527 
4.31628 0.042484 0.781132 0.475286 0.849454 -0.229198 0.201969 0.275527 
1.69798 0.042749 0.917621 0.186021 0.980315 -0.066179 0.201969 0.275527 
2.40226 0.042517 0.93741 -0.0343165 0.999411 -0.000410973 0.201969 0.275527 
1.60835 0.082224 1.02341 0.0270017 0.998702 -0.0431822 0.201969 0.303188 
4.84838 0.094576 1.18202 0.429268 0.875552 0.221669 0.201969 0.275528 
3.74914 0.043328 0.682489 0.297277 0.953057 0.0575258 0.201969 0.275527 
0 0 1.01576 -0.97796 0.208739 0.00478289 0.201969 0.275527 
1.3671 -0.00305 0.234285 -0.000778218 -0.999983 -0.00582607 0.201969 0.275527 
4.30844 0.096607 0.789955 -0.0325747 0.998857 -0.0349657 0.201969 0.303188 
3.93887 0.098372 1.1625 -0.0482847 0.997446 -0.052626 0.201969 0.303188 
0.224541 0.09533 0.907104 -0.0342673 0.998896 -0.0321178 0.201969 0.303188 
2.56182 0.095208 0.927218 -0.824382 0.563272 0.0558531 0.201969 0.275527 
4.43876 0.095773 0.81828 0.00376558 0.999992 -0.000949812 0.201969 0.303188 
0.983212 0.089635 0.912838 -0.0276838 0.99955 -0.0115165 0.201969 0.303188 
3.89119 0.047229 0.79058 -0.164474 0.953315 -0.253257 0.201969 0.275527 
2.54034 0.043464 0.840582 -0.563138 0.826362 -0.00107682 0.201969 0.275527 
4.41504 0.043156 0.820542 -0.388502 0.875271 -0.288038 0.201969 0.275527 
0.029942 0.024627 0.801185 -0.410317 0.911916 -0.00698895 0.201969 0.275527 
2.44115 0.042481 0.742058 0.135869 0.957469 0.254545 0.201969 0.275527 
1.58063 0.0594 0.887318 0.0523544 0.984945 -0.164749 0.201969 0.275527 
5 0 0.800661 0.758561 0.650246 0.0420308 0.201969 0.275527 
0.881214 0.082023 0.903911 -0.0289979 0.999151 -0.0292806 0.201969 0.303188 
4.84876 0.04417 0.747583 0.190385 0.965681 -0.176676 0.201969 0.275527 
1.30839 0.028656 0.828721 -0.00775723 0.990399 -0.13802 0.201969 0.275527 
0.176903 0.043039 0.898713 0.0945379 0.706959 -0.700908 0.201969 0.275527 
3.05618 0.09798 0.418075 0.0044403 0.999969 -0.00650412 0.201969 0.303188 
0.723049 0.043282 0.879471 0.00283576 0.908333 -0.418239 0.201969 0.275527 
4.67133 0.094545 0.790604 0.126791 0.990265 -0.0574302 0.201969 0.303188 
0.125977 0.053989 0.721918 -0.0758435 0.889597 0.450405 0.201969 0.275527 
1.62054 0.037824 0.76152 -0.0801987 0.97378 0.212886 0.201969 0.275527 
0.7626 0.055994 0.734754 0.00782187 0.642528 0.766223 0.201969 0.275527 
4.20044 0.043636 0.700176 -0.00353485 0.949776 0.312909 0.201969 0.275527 
1.31404 0.048142 0.729262 0.0991023 0.881154 0.462327 0.201969 0.275527 
1.20407 0.095238 0.732044 0.146923 0.33923 0.929159 0.201969 0.275527 
0.21246 0.09501 0.731783 -0.131226 0.591975 0.795201 0.201969 0.275527 
2.43518 0.095331 0.732414 0.753654 0.496663 0.430502 0.201969 0.275527 
1.66336 0.095337 0.731876 -0.230359 0.48411 0.84414 0.201969 0.275527 
2.54145 0.042581 0.353104 -0.467434 0.873032 -0.138996 0.201969 0.275527 
4.92244 0.042122 0.682323 0.292426 0.938527 0.18345 0.201969 0.275527 
0.15921 0.098057 0.654434 -0.178552 0.963584 0.199063 0.201969 0.275527 
0.72633 0.098276 0.145766 -0.006588 0.999978 -0.00128944 0.201969 0.303188 
1.49837 0.096038 0.457374 -0.0937414 0.928532 0.359224 0.201969 0.275527 
4.86827 0.097658 0.611946 0.296107 0.901788 0.314801 0.201969 0.275527 
4.36195 0.097916 0.651899 -0.109013 0.962426 0.248703 0.201969 0.275527 
4.1282 0.095065 0.666378 0.0360058 0.830314 0.556131 0.201969 0.275527 
3.86522 0.054224 0.660386 -0.275172 0.922684 0.270064 0.201969 0.275527 
3.86095 0.093607 0.344274 -0.806788 0.590804 -0.00667897 0.201969 0.275527 
4.34792 0.083233 0.531553 -0.00141363 0.994298 0.10663 0.201969 0.275527 
4.95718 0.041284 0.11797 0.578988 0.815287 -0.00891823 0.201969 0.275527 
3.75332 0.039553 0.513084 0.604266 0.796557 -0.0189777 0.201969 0.275527 
0 0 0.390492 -0.999969 -0.00339665 0.00717391 0.201969 0.275527 
0.023823 0.034684 0.097749 -0.545851 0.835923 -0.0572698 0.201969 0.275527 
2.5618 0.095362 0.349912 -0.855638 0.304609 -0.418446 0.201969 0.275527 
3.8447 0.035702 0.346078 -0.57706 0.815826 -0.0378056 0.201969 0.275527 
0.216358 0.086544 0.076406 -0.0944668 0.956136 -0.277272 0.201969 0.275527 
3.73616 0.095029 0.298684 0.823331 0.566168 -0.0397445 0.201969 0.275527 
2.44066 0.0416 0.063217 0.243948 0.916708 -0.316444 0.201969 0.275527 
1.57157 0.096985 0.108808 -0.000571662 0.999991 0.00424322 0.201969 0.303188 
4.32832 0.098373 0.104392 4.27597e-05 0.99997 -0.00777803 0.201969 0.303188 
2.82057 0.087673 0.136631 -0.00338722 0.999712 -0.0237661 0.201969 0.303188 
2.37941 0.097237 0.146466 0.343548 0.877786 -0.333866 0.201969 0.275527 
3.72396 0.084132 0.074491 0.656121 0.722163 -0.219055 0.201969 0.275527 
3.84919 0.043253 0.040136 -0.0531045 0.944531 -0.324101 0.201969 0.275527 
5 0 0 0.834738 0.255432 -0.487819 0.201969 0.275527 
0 0 0 -0.491832 0.388635 -0.779143 0.201969 0.275527 
3.90373 0.074938 0.102994 -0.581942 0.7808 -0.227366 0.201969 0.275527 
3.65893 0.094435 0.110413 -0.0080607 0.999968 0.000151732 0.201969 0.303188 
2.71463 0 0 -0.0299584 0.0353589 -0.998926 0.201969 0.275527 
1.9391 0.098059 0.146084 -0.000924188 0.999985 0.00543454 0.201969 0.303188 
2.54023 0.039819 0.067647 -0.0714053 0.95635 -0.283366 0.201969 0.275527 
4.88473 0.085443 0.11576 0.238158 0.851047 -0.467974 0.201969 0.275527 
0.983593 0.083688 0.089316 -0.0790048 0.845667 -0.527831 0.201969 0.275527 
3.73029 0.042629 0.001273 0.186406 0.85113 -0.490744 0.201969 0.275527 
2.78076 0.066781 0.056851 -0.0463694 0.834238 -0.549451 0.201969 0.275527 
0.956944 0 0 -0.0696975 0.279045 -0.957745 0.201969 0.275527 
1.73819 0 0 0.000638087 0.281068 -0.959688 0.201969 0.275527 
3.00838 0 0 -0.00989633 0.0868919 -0.996169 0.201969 0.275527 
4.1796 0 0 0.0409856 0.205048 -0.977893 0.201969 0.275527 
0.995773 0.039659 0.019355 -0.12758 0.685261 -0.717036 0.201969 0.275527 
0.101543 0.098085 4.85238 -0.0316279 0.999485 -0.00533233 0.201969 0.303188 
0.755444 0.091975 4.90643 0.0348409 0.999104 0.0240194 0.201969 0.303188 
2.06161 0.093393 4.88912 -0.0032042 0.999795 0.0199786 0.201969 0.303188 
1.33311 0.088932 4.86011 -0.0072282 0.999587 0.0278025 0.201969 0.303188 
2.7117 0.082921 4.90835 -0.00665447 0.998583 0.0527944 0.201969 0.303188 
3.1344 0.086653 4.89104 -0.00484478 0.998768 0.0493898 0.201969 0.303188 
2.65031 0.097001 4.63429 -0.987844 -0.111033 0.108797 0.201969 0.275528 
1.35725 0.098372 4.52699 -0.50465 0.862909 0.0267745 0.201969 0.275528 
2.40766 0.095123 4.72343 0.0264042 0.999648 -0.00264572 0.201969 0.303188 
3.24887 0.097557 4.66172 0.100963 0.986186 0.131314 0.201969 0.275528 
3.43341 0.078192 4.90502 -0.00481736 0.999597 0.0279787 0.201969 0.303188 
4.42789 0.083213 4.89686 -0.018166 0.999105 0.0382102 0.201969 0.303188 
4.79944 0.096428 4.86619 -0.0101056 0.999804 0.0170175 0.201969 0.303188 
3.94902 0.098372 4.27282 -0.0789754 0.996681 0.0197695 0.201969 0.275528 
0.947697 0.075245 4.88382 0.0229085 0.998967 0.0392442 0.201969 0.303188 
1.09656 0.082255 4.89889 -0.0483912 0.998738 0.0134363 0.201969 0.303188 
1.17913 0.095063 4.24425 0.571319 0.819872 -0.0374641 0.201969 0.275528 
3.69793 0.098372 4.35702 -0.00209866 0.999983 -0.00544956 0.201969 0.303188 
0.067173 0.083668 3.89497 -0.0723993 0.997298 -0.0124185 0.201969 0.303188 
2.40427 0.081188 4.27261 0.767241 0.639597 0.0475073 0.201969 0.275528 
2.42936 0.095191 4.03882 0.914294 0.39952 0.0667067 0.201969 0.275528 
2.78002 0.098372 3.74798 -0.129561 0.983734 -0.124425 0.201969 0.275528 
1.37578 0.098372 3.96876 -0.0290265 0.999547 -0.00790653 0.201969 0.303188 
1.16252 0.098247 3.83718 6.76676e-06 0.999969 0.00782123 0.201969 0.303188 
0.277958 0.098252 3.83731 -0.0971055 0.698116 -0.709369 0.201969 0.275528 
4.69356 0.098372 3.85689 -0.000658149 0.999998 0.00199513 0.201969 0.303188 
4.14404 0.098372 3.67562 0.0492838 0.949637 -0.309453 0.201969 0.275528 
3.62931 0.089638 3.62477 -0.00374872 0.999926 -0.0115755 0.201969 0.303188 
1.94837 0.098371 3.64555 0.0219005 0.984206 -0.175665 0.201969 0.275528 
1.55135 0.098372 3.32422 0.0514761 0.998586 -0.0133087 0.201969 0.275528 
2.43322 0.098371 3.56853 0.00107542 0.999977 0.00677043 0.201969 0.303188 
0.674473 0.095462 3.65628 0.000608359 0.999986 0.00533699 0.201969 0.303188 
1.16062 0.095014 3.6848 0.0048011 0.999984 0.00292448 0.201969 0.303188 
0.889271 0.097696 3.21321 -0.208917 0.976639 0.0502895 0.201969 0.275528 
1.34989 0.082255 3.38652 -0.0824067 0.996561 -0.00866654 0.201969 0.303188 
3.84048 0.084841 3.40072 0.0344649 0.999399 0.00385156 0.201969 0.303188 
4.12658 0.098371 3.40484 -0.0176663 0.997827 -0.0634816 0.201969 0.303188 
1.45778 0.092738 3.06332 -0.319529 0.944826 -0.0721394 0.201969 0.275528 
3.40107 0.098372 3.33251 -0.00494042 0.998074 0.0618312 0.201969 0.303188 
2.62209 0.095189 3.20541 -0.0217772 0.993848 0.108587 0.201969 0.303188 
2.95715 0.073256 3.36516 -0.0392807 0.97553 0.216328 0.201969 0.303188 
2.27508 0.098372 3.32787 0.0675338 0.997631 0.0130936 0.201969 0.303188 
2.44355 0.067597 3.31388 0.183742 0.981522 0.0534226 0.201969 0.303188 
2.45593 0.082774 2.99244 0.934306 0.351924 0.0567605 0.201969 0.275528 
0.263744 0.090312 3.63971 0.000837046 1 0.000513306 0.201969 0.303188 
0.587162 0.092502 3.69688 -0.00833059 0.999926 0.00882258 0.201969 0.303188 
0.498684 0.101636 2.57812 0.362678 0.85401 -0.373004 0.201969 0.275528 
1.23506 0.094916 2.56837 0.00540237 0.999984 -0.00141406 0.201969 0.303188 
4.71103 0.095658 3.45985 -0.00854687 0.999797 -0.0182673 0.201969 0.303188 
3.87802 0.08746 3.13363 0.0874652 0.994295 -0.0610565 0.201969 0.275528 
4.07608 0.074646 3.04598 -0.0839081 0.991074 -0.103594 0.201969 0.275528 
3.77293 0.098373 3.04349 0.328865 0.942739 0.0556064 0.201969 0.275528 
2.62368 0.094906 2.60923 -0.439417 0.238996 -0.865906 0.201969 0.275528 
3.914 0.095096 2.60971 -0.000144409 0.999971 -0.00760124 0.201969 0.303188 
4.82927 0.092417 2.66874 0.00677821 0.999972 -0.0030836 0.201969 0.303188 
0.709568 0.09582 3.14777 -0.0101198 0.999948 -0.00087614 0.201969 0.303188 
0.100231 0.096727 2.65092 0.0693195 0.997582 -0.00499109 0.201969 0.303188 
2.47675 0.086505 2.71949 0.650479 -0.00258391 0.75952 0.201969 0.275528 
1.72617 0.098373 2.82058 0.0575657 0.986652 -0.15233 0.201969 0.275528 
2.01938 0.098373 2.79648 -0.362968 0.85675 0.36638 0.201969 0.275528 
4.39035 0.09521 2.60965 -0.067357 0.717746 -0.693039 0.201969 0.275528 
0.749332 0.095686 2.53555 -0.654932 0.082362 -0.751186 0.201969 0.275528 
2.00615 0.153292 2.585 -0.0122447 0.998773 -0.0479856 0.201969 0.303188 
2.56718 0.164236 2.69071 -0.0106689 0.998848 -0.0467875 0.201969 0.303188 
0.241867 0.086651 2.60413 -0.127249 0.735992 -0.664923 0.201969 0.275528 
2.37295 0.134665 2.1037 -0.000766495 0.99877 -0.049571 0.201969 0.275528 
0.34174 0.098372 2.29455 -0.0105128 0.999806 -0.0166512 0.201969 0.303188 
0.947475 0.097656 2.45168 5.07545e-05 0.999997 0.00235818 0.201969 0.303188 
1.31721 0.094289 2.44933 0.0475938 0.998602 0.0230182 0.201969 0.303188 
1.69655 0.082592 2.40848 0.0310194 0.999517 0.00184479 0.201969 0.303188 
1.85026 0.103439 1.61652 -0.015374 0.998752 -0.0475205 0.201969 0.303188 
0.94508 0.098373 2.23927 0.109197 0.993775 0.0220653 0.201969 0.275528 
1.71296 0.093889 1.88381 0.226955 0.968485 -0.10261 0.201969 0.275528 
1.7091 0.082694 2.14206 0.901516 0.432636 0.00973151 0.201969 0.275528 
4.57473 0.095436 2.38812 -0.0138055 0.999299 0.034815 0.201969 0.303188 
4.10907 0.0887 2.39539 0.0115715 0.99809 0.06068 0.201969 0.303188 
3.91635 0.093665 2.42081 0.0132378 0.998924 0.044456 0.201969 0.303188 
4.75824 0.09699 2.41585 0.022376 0.999614 0.016483 0.201969 0.303188 
4.91133 0.097981 1.90198 0.0623673 0.998045 -0.00407362 0.201969 0.303188 
4.8938 0.083013 2.38821 0.109462 0.993391 0.0345266 0.201969 0.303188 
0.136032 0.082499 1.96639 -0.320868 0.94277 -0.090713 0.201969 0.275528 
3.91928 0.095276 1.78597 -0.00549081 0.999985 -0.000688084 0.201969 0.303188 
1.37609 0.098373 1.82797 0.00276814 0.999996 -0.000700528 0.201969 0.303188 
0.553539 0.098373 1.78336 -0.126795 0.979269 -0.157973 0.201969 0.275528 
4.93598 0.077781 1.50796 0.593752 0.796686 -0.112917 0.201969 0.275528 
3.88459 0.09473 1.37612 -0.00146613 0.999998 -0.00120813 0.201969 0.303188 
2.31853 0.085396 1.14976 -0.0090358 0.998655 -0.0510627 0.201969 0.303188 
1.20282 0.098373 1.14332 0.000357788 0.999765 -0.0216636 0.201969 0.303188 
1.70734 0.095169 1.61241 0.0200141 0.999692 -0.0146977 0.201969 0.303188 
2.58837 0.098137 1.74669 4.55912e-05 0.999937 -0.0112687 0.201969 0.303188 
3.016 0.098116 1.74656 4.55912e-05 0.999937 -0.0112687 0.201969 0.303188 
2.56189 0.092063 1.20761 -0.248333 0.905128 -0.345069 0.201969 0.275528 
3.57067 0.095084 1.76945 0.0365448 0.999321 -0.00460548 0.201969 0.303188 
3.29476 0.095191 1.76985 0.000398414 0.999973 0.00736673 0.201969 0.303188 
4.69297 0.095105 1.418 0.0696815 0.435085 -0.897689 0.201969 0.275528 
1.79522 0.084727 1.22927 -0.749813 0.313 -0.582934 0.201969 0.275528 
2.96109 0.098373 1.35597 -0.154264 0.981153 0.116363 0.201969 0.275528 
4.20333 0.095219 1.39408 0.051527 0.186034 -0.981191 0.201969 0.275528 
1.60835 0.082224 1.02341 0.0512654 0.982143 -0.181016 0.201969 0.275527 
3.9721 0.09607 1.26437 0.0097407 0.99992 0.0080377 0.201969 0.303188 
0.265633 0.098373 1.54852 -0.0612161 0.998124 -0.000813518 0.201969 0.303188 
2.56182 0.095208 0.927218 0.0068152 0.999926 -0.0101059 0.201969 0.303188 
3.73576 0.082244 0.646547 0.0557892 0.998366 0.012337 0.201969 0.303188 
3.7351 0.075547 1.50195 0.130594 0.991405 0.00786255 0.201969 0.303188 
3.93887 0.098372 1.1625 -0.558667 0.825998 0.0749586 0.201969 0.275527 
0.102871 0.079843 1.15688 -0.120221 0.992743 0.00299211 0.201969 0.303188 
4.30844 0.096607 0.789955 0.68511 0.212749 -0.69668 0.201969 0.275527 
4.84838 0.094576 1.18202 0.0853011 0.995626 -0.0381036 0.201969 0.303188 
4.50169 0.095404 1.29309 0.00252984 0.999997 0.00044184 0.201969 0.303188 
4.30783 0.096489 1.26562 -0.00124893 0.999999 0.000246454 0.201969 0.303188 
0.224541 0.09533 0.907104 0.123553 0.370807 -0.920455 0.201969 0.275527 
4.43876 0.095773 0.81828 -0.725112 0.300132 -0.619784 0.201969 0.275527 
0.983212 0.089635 0.912838 0.0316278 0.711663 -0.701809 0.201969 0.275527 
0.881214 0.082023 0.903911 0.00830753 0.387717 -0.921741 0.201969 0.275527 
3.89119 0.047229 0.79058 -0.116842 0.985803 -0.120582 0.201969 0.303188 
4.67133 0.094545 0.790604 -0.140742 0.130132 -0.981457 0.201969 0.275527 
4.84876 0.04417 0.747583 0.246304 0.962759 -0.111487 0.201969 0.303188 
1.20407 0.095238 0.732044 0.00041168 0.999992 0.00394704 0.201969 0.303188 
0.21246 0.09501 0.731783 -0.010729 0.999935 -0.00383523 0.201969 0.303188 
1.49837 0.096038 0.457374 -8.72246e-05 0.999996 0.00264251 0.201969 0.303188 
1.66336 0.095337 0.731876 6.00292e-06 0.999997 0.00255008 0.201969 0.303188 
2.43518 0.095331 0.732414 -0.000470707 0.999992 0.00403188 0.201969 0.303188 
2.5618 0.095362 0.349912 -0.0028057 0.999833 -0.018052 0.201969 0.303188 
3.73616 0.095029 0.298684 0.000301881 1 0.000605542 0.201969 0.303188 
4.1282 0.095065 0.666378 0.0322874 0.999327 0.0173796 0.201969 0.303188 
4.34792 0.083233 0.531553 0.019979 0.999205 0.0344985 0.201969 0.303188 
4.86827 0.097658 0.611946 -0.00484493 0.999967 0.00656282 0.201969 0.303188 
0.216358 0.086544 0.076406 -0.0212245 0.99969 -0.01304 0.201969 0.303188 
3.86095 0.093607 0.344274 -0.0317399 0.998613 -0.0419993 0.201969 0.303188 
2.37941 0.097237 0.146466 0.00186419 0.999994 0.00307537 0.201969 0.303188 
2.82057 0.087673 0.136631 -0.264972 0.899004 -0.348686 0.201969 0.275527 
3.65893 0.094435 0.110413 -0.0119191 0.911971 -0.410082 0.201969 0.275527 
3.90373 0.074938 0.102994 -0.0546186 0.99474 -0.0866515 0.201969 0.303188 
0.72633 0.098276 0.145766 -0.00216623 0.965755 -0.259446 0.201969 0.275527 
1.57157 0.096985 0.108808 0.0502587 0.696035 -0.716247 0.201969 0.275527 
4.88473 0.085443 0.11576 0.0237119 0.999435 -0.0238173 0.201969 0.303188 
1.9391 0.098059 0.146084 0.0237912 0.752037 -0.658692 0.201969 0.275527 
4.32832 0.098373 0.104392 -0.00936588 0.792415 -0.60991 0.201969 0.275527 
3 0 1 2
3 3 4 5
3 6 7 8
3 4 9 5
3 10 5 11
3 6 12 13
3 1 14 2
3 7 11 15
3 6 8 12
3 0 2 16
3 7 15 8
3 17 15 11
3 18 1 0
3 19 0 16
3 20 19 16
3 4 21 9
3 22 5 9
3 22 17 5
3 17 11 5
3 23 12 8
3 24 18 0
3 25 4 3
3 26 6 13
3 9 20 16
3 11 27 10
3 11 7 27
3 7 28 29
3 7 6 28
3 22 16 2
3 22 9 16
3 17 8 15
3 17 23 8
3 30 0 19
3 31 28 6
3 9 21 20
3 4 25 21
3 32 5 10
3 22 2 14
3 24 0 30
3 33 25 3
3 26 31 6
3 32 3 5
3 34 350 351
3 18 35 1
3 352 36 353
3 29 37 7
3 21 38 20
3 39 354 355
3 39 355 40
3 1 35 14
3 37 27 7
3 356 41 10
3 32 10 41
3 13 42 26
3 357 38 21
3 358 36 352
3 359 27 37
3 38 19 20
3 43 360 361
3 43 361 362
3 363 37 29
3 42 44 26
3 45 36 358
3 42 13 12
3 46 364 365
3 38 366 19
3 44 31 26
3 42 47 44
3 46 351 364
3 42 12 23
3 48 359 37
3 363 48 37
3 49 39 40
3 50 359 48
3 51 35 18
3 52 38 357
3 41 53 32
3 46 34 351
3 358 54 45
3 55 41 356
3 367 49 40
3 38 52 56
3 33 3 57
3 56 366 38
3 44 47 58
3 34 368 350
3 32 57 3
3 35 59 14
3 366 56 60
3 369 33 57
3 61 42 23
3 62 45 54
3 53 57 32
3 370 369 57
3 61 47 42
3 59 22 14
3 17 63 23
3 371 55 356
3 363 50 48
3 55 64 41
3 45 65 36
3 61 23 63
3 52 66 56
3 41 64 53
3 65 372 36
3 60 56 66
3 66 52 357
3 67 31 44
3 68 366 60
3 69 60 66
3 59 35 51
3 64 55 371
3 68 60 70
3 58 67 44
3 373 34 46
3 71 370 57
3 65 45 62
3 371 53 64
3 51 374 72
3 374 68 72
3 68 70 72
3 72 59 51
3 69 70 60
3 375 73 362
3 74 372 65
3 73 43 362
3 58 75 67
3 76 58 47
3 66 77 69
3 47 61 63
3 78 376 67
3 79 72 70
3 72 80 59
3 81 82 83
3 81 83 79
3 72 79 83
3 84 79 70
3 69 84 70
3 85 71 57
3 85 57 53
3 86 22 59
3 87 88 371
3 377 49 367
3 75 78 67
3 84 89 90
3 90 79 84
3 73 377 367
3 73 367 43
3 59 80 86
3 76 75 58
3 91 84 69
3 92 83 82
3 93 94 378
3 78 87 376
3 378 94 379
3 380 65 62
3 95 53 371
3 90 96 79
3 80 72 83
3 97 381 382
3 383 96 90
3 71 93 378
3 78 98 87
3 17 99 63
3 88 100 371
3 100 95 371
3 98 101 87
3 75 98 78
3 76 102 75
3 74 384 372
3 103 47 63
3 85 93 71
3 104 100 88
3 104 88 87
3 101 104 87
3 75 105 98
3 91 69 77
3 106 85 53
3 95 106 53
3 85 94 93
3 105 75 102
3 94 107 379
3 108 94 85
3 81 79 109
3 110 111 385
3 112 80 83
3 113 22 86
3 74 114 384
3 115 95 100
3 101 116 104
3 116 101 98
3 386 110 385
3 115 106 95
3 103 63 99
3 387 91 77
3 108 107 94
3 117 115 100
3 117 100 104
3 118 76 47
3 388 389 390
3 92 119 83
3 83 119 112
3 96 109 79
3 120 389 388
3 106 115 117
3 383 121 96
3 122 391 392
3 385 123 388
3 391 124 74
3 393 108 85
3 103 125 47
3 387 126 91
3 123 120 388
3 118 47 125
3 127 113 86
3 111 123 385
3 118 102 76
3 128 91 126
3 124 114 74
3 91 129 84
3 130 89 84
3 131 394 395
3 132 391 122
3 396 81 109
3 130 84 129
3 133 85 106
3 397 97 382
3 128 129 91
3 398 110 386
3 134 102 118
3 131 135 394
3 136 399 400
3 109 96 121
3 119 92 137
3 393 85 138
3 80 127 86
3 139 136 400
3 133 106 117
3 140 113 127
3 82 137 92
3 141 126 387
3 136 401 399
3 402 133 117
3 132 142 391
3 136 143 401
3 133 138 85
3 403 120 123
3 144 398 404
3 97 145 405
3 144 110 398
3 134 118 125
3 109 121 146
3 135 406 394
3 407 393 138
3 408 141 387
3 142 124 391
3 147 103 99
3 128 148 129
3 140 149 113
3 149 22 113
3 150 409 151
3 407 152 151
3 407 151 409
3 153 408 409
3 128 126 141
3 127 154 140
3 154 149 140
3 408 155 141
3 139 400 410
3 411 146 121
3 112 119 156
3 152 150 151
3 152 407 157
3 147 125 103
3 112 127 80
3 158 136 139
3 409 150 153
3 159 407 138
3 112 160 127
3 160 154 127
3 161 408 153
3 157 407 159
3 130 129 148
3 397 145 97
3 161 155 408
3 396 109 162
3 163 412 413
3 155 128 141
3 119 137 156
3 153 159 138
3 146 162 109
3 159 164 157
3 402 143 165
3 410 134 125
3 410 125 139
3 402 165 133
3 161 128 155
3 138 161 153
3 136 165 143
3 160 166 154
3 166 149 154
3 167 99 17
3 150 168 153
3 137 414 156
3 168 159 153
3 414 396 156
3 169 161 138
3 170 169 138
3 171 133 165
3 130 148 172
3 162 156 396
3 171 138 133
3 174 136 173
3 175 158 139
3 125 175 139
3 176 125 147
3 411 130 146
3 172 146 130
3 176 175 125
3 162 177 156
3 164 152 157
3 172 162 146
3 165 174 171
3 178 136 158
3 166 179 149
3 179 22 149
3 180 181 176
3 182 177 162
3 172 183 162
3 169 148 128
3 169 128 161
3 178 173 136
3 175 176 181
3 184 415 152
3 184 152 164
3 185 182 162
3 183 185 162
3 186 180 176
3 187 183 172
3 188 189 169
3 187 172 148
3 189 187 169
3 148 169 187
3 158 175 190
3 175 181 190
3 174 191 171
3 178 158 190
3 160 192 166
3 192 179 166
3 150 193 168
3 182 194 177
3 195 416 417
3 170 138 171
3 156 196 160
3 179 197 22
3 198 195 417
3 199 418 419
3 160 196 200
3 163 420 412
3 421 183 187
3 199 201 418
3 177 196 156
3 170 171 191
3 200 192 160
3 185 194 182
3 422 187 189
3 191 174 202
3 421 187 203
3 423 188 169
3 186 176 204
3 205 206 169
3 424 207 425
3 205 169 170
3 167 147 99
3 207 426 425
3 208 174 173
3 200 179 192
3 191 209 170
3 210 191 202
3 427 207 424
3 211 184 164
3 178 212 173
3 174 213 202
3 214 213 174
3 428 427 429
3 177 194 215
3 202 213 210
3 208 214 174
3 216 203 187
3 217 207 427
3 205 159 168
3 176 147 218
3 195 219 416
3 220 421 203
3 205 164 159
3 206 205 168
3 210 209 191
3 196 221 200
3 200 197 179
3 218 147 167
3 211 415 184
3 222 195 198
3 216 187 422
3 208 173 212
3 430 194 185
3 194 430 215
3 170 164 205
3 431 426 207
3 217 427 428
3 223 208 212
3 220 203 216
3 224 177 215
3 176 225 204
3 22 226 17
3 422 423 227
3 227 423 169
3 170 228 164
3 229 209 210
3 230 210 213
3 214 231 213
3 225 176 218
3 211 164 228
3 221 197 200
3 432 222 198
3 232 170 209
3 229 232 209
3 230 229 210
3 231 230 213
3 222 219 195
3 224 196 177
3 230 232 229
3 233 214 208
3 227 216 422
3 231 234 230
3 233 231 214
3 433 215 430
3 232 228 170
3 197 226 22
3 234 232 230
3 223 233 208
3 226 167 17
3 226 218 167
3 206 235 169
3 236 215 433
3 237 238 233
3 238 231 233
3 239 240 234
3 235 227 169
3 232 234 240
3 234 231 238
3 236 241 215
3 224 215 241
3 235 206 168
3 242 216 227
3 234 243 239
3 244 431 207
3 217 244 207
3 224 221 196
3 238 243 234
3 245 237 233
3 193 235 168
3 246 415 211
3 242 220 216
3 247 217 428
3 434 204 225
3 241 248 224
3 225 218 249
3 212 250 223
3 251 241 236
3 433 251 236
3 435 431 244
3 436 252 163
3 163 252 420
3 211 228 246
3 437 432 438
3 253 439 440
3 441 254 240
3 232 240 254
3 223 255 233
3 225 249 434
3 243 441 239
3 442 256 443
3 257 224 248
3 232 258 228
3 226 259 218
3 432 437 222
3 249 444 434
3 235 193 445
3 233 255 245
3 444 249 260
3 258 246 228
3 249 218 259
3 197 221 226
3 446 243 238
3 447 444 223
3 260 223 444
3 261 242 227
3 250 447 223
3 262 227 235
3 263 223 260
3 264 263 260
3 264 260 249
3 265 255 223
3 266 265 223
3 445 262 235
3 267 268 266
3 269 263 264
3 265 266 268
3 263 266 223
3 270 245 255
3 267 266 271
3 262 272 227
3 273 258 232
3 224 257 221
3 274 437 438
3 261 448 242
3 446 254 243
3 275 269 264
3 276 255 265
3 257 277 221
3 277 278 221
3 279 280 449
3 278 226 221
3 437 281 450
3 254 441 243
3 282 254 446
3 451 256 442
3 452 442 453
3 268 454 265
3 445 258 262
3 272 261 227
3 445 246 258
3 281 455 450
3 254 273 232
3 272 448 261
3 456 267 271
3 457 283 458
3 459 279 449
3 258 272 262
3 274 284 437
3 285 265 454
3 282 286 254
3 263 269 287
3 288 257 248
3 289 273 254
3 287 266 263
3 272 290 448
3 288 248 460
3 286 289 254
3 291 264 249
3 284 292 437
3 461 287 269
3 273 272 258
3 257 288 277
3 293 275 264
3 290 294 448
3 292 281 437
3 294 462 448
3 460 463 295
3 295 288 460
3 273 289 272
3 296 451 442
3 463 297 295
3 463 462 297
3 276 270 255
3 287 271 266
3 291 249 259
3 294 297 462
3 298 283 457
3 297 299 295
3 279 464 280
3 300 290 272
3 461 465 287
3 465 293 287
3 299 288 295
3 300 294 290
3 285 276 265
3 466 298 457
3 285 456 271
3 301 297 294
3 293 302 287
3 303 301 294
3 300 272 289
3 302 285 271
3 302 271 287
3 291 293 264
3 304 305 301
3 306 307 289
3 305 299 301
3 304 301 303
3 297 301 299
3 294 300 303
3 300 289 307
3 308 289 286
3 302 276 285
3 309 302 293
3 305 310 299
3 309 293 291
3 467 311 468
3 307 312 300
3 309 313 302
3 313 314 302
3 315 316 302
3 288 299 310
3 276 302 316
3 469 470 471
3 315 317 316
3 314 318 302
3 313 309 319
3 276 320 270
3 316 320 276
3 312 304 303
3 312 303 300
3 288 321 277
3 288 310 322
3 308 286 282
3 323 308 282
3 318 315 302
3 296 442 452
3 319 309 291
3 226 291 259
3 324 320 316
3 322 321 288
3 305 325 310
3 326 270 320
3 317 324 316
3 289 327 306
3 308 327 289
3 313 318 314
3 321 278 277
3 471 328 469
3 296 472 451
3 328 467 469
3 473 296 452
3 329 474 475
3 476 329 475
3 296 330 472
3 331 306 327
3 311 477 468
3 473 330 296
3 332 326 320
3 333 320 324
3 334 291 226
3 335 278 321
3 329 478 474
3 317 336 324
3 333 324 336
3 337 330 473
3 278 338 226
3 328 311 467
3 339 328 471
3 339 471 479
3 480 308 323
3 332 481 326
3 340 327 308
3 321 322 335
3 325 322 310
3 329 482 478
3 341 313 319
3 342 483 484
3 320 343 332
3 485 329 476
3 333 343 320
3 342 325 483
3 480 340 308
3 334 319 291
3 327 486 331
3 487 333 336
3 344 340 480
3 333 487 341
3 345 346 278
3 346 338 278
3 347 348 226
3 480 481 344
3 484 486 345
3 345 486 346
3 335 322 325
3 335 325 342
3 345 335 342
3 349 345 342
3 349 342 484
3 345 349 484
3 327 346 486
3 347 344 481
3 343 347 481
3 343 481 332
3 341 319 334
3 338 347 226
3 348 334 226
3 335 345 278
3 341 348 333
3 343 333 348
3 341 334 348
3 344 347 338
3 340 344 338
3 327 338 346
3 327 340 338
3 343 348 347
3 112 156 160
3 174 165 136
