ply
format ascii 1.0
comment VCGLIB generated
comment TextureFile Dungeons_Texture_01.png
element vertex 20
property float x
property float y
property float z
property float nx
property float ny
property float nz
property uchar red
property uchar green
property uchar blue
property uchar alpha
property float texture_u
property float texture_v
element face 18
property list uchar int vertex_indices
end_header
2.499998 5 1e-06 -1.156969e-07 -1.97255e-07 1 97 95 95 255 0.200435 0.280655
0 5 1e-06 0 0 1 97 95 95 255 0.200435 0.280655
-4e-06 2.5 0 6.9771e-08 -3.186585e-08 1 97 95 95 255 0.200435 0.280656
0 5 1e-06 2.064362e-07 -4.694285e-07 1 97 95 95 255 0.200435 0.280655
2.067093 4.818458 1e-06 0.2468887 -0.05066158 0.9677187 97 95 95 255 0.200435 0.280655
0.211313 4.818458 1e-06 0 0 0 120 120 119 255 0.199284 0.302726
0.211313 4.818458 1e-06 0 0 0 120 120 119 255 0.199284 0.302726
0.21131 2.962676 0 -0.06343854 -0.1145607 0.9913886 97 95 95 255 0.200435 0.280656
1.839921 4.750314 0.160411 0 0 1 120 120 119 255 0.199284 0.302726
0.289167 4.750314 0.160411 0 0 0 120 120 119 255 0.199284 0.302726
0.289167 4.750314 0.160411 0 0 1 120 120 119 255 0.199284 0.302726
0.289165 3.199559 0.160411 0 0 1 120 120 119 255 0.199284 0.302726
0 5 1e-06 0 0 0 120 120 119 255 0.199284 0.302726
0.211313 4.818458 1e-06 -0.69272 7.070424e-07 0.7212067 97 95 95 255 0.200435 0.280655
0.211313 4.818458 1e-06 0 0.7184893 0.695538 97 95 95 255 0.200435 0.280655
1.839921 4.750314 0.160411 0.2983592 0.6501867 0.6987411 97 95 95 255 0.200435 0.280655
0.289165 3.199559 0.160411 -0.2654032 -0.4792765 0.8365735 97 95 95 255 0.200435 0.280656
0.289167 4.750314 0.160411 -0.899639 1.15865e-06 0.4366347 97 95 95 255 0.200435 0.280655
0 5 1e-06 0 0 0 120 120 119 255 0.199284 0.302726
0.289167 4.750314 0.160411 0 0.9203938 0.3909929 97 95 95 255 0.200435 0.280655
3 8 10 11 
3 1 4 0 
3 12 6 5 
3 3 7 13 
3 0 7 2 
3 14 15 4 
3 5 10 9 
3 13 16 17 
3 4 16 7 
3 8 9 10 
3 1 14 4 
3 12 18 6 
3 3 2 7 
3 0 4 7 
3 14 19 15 
3 5 6 10 
3 13 7 16 
3 4 15 16 
