ply
format ascii 1.0
comment VCGLIB generated
comment TextureFile Dungeons_Texture_01.png
element vertex 162
property float x
property float y
property float z
property float nx
property float ny
property float nz
property uchar red
property uchar green
property uchar blue
property uchar alpha
property float texture_u
property float texture_v
element face 172
property list uchar int vertex_indices
end_header
5 2e-06 5 0 -1 0 97 95 95 255 0.199329 0.278745
0 2e-06 5 0 -1 0 97 95 95 255 0.199329 0.278745
5 3e-06 0 0 -1 0 97 95 95 255 0.199329 0.278745
0 3e-06 0 0 -1 0 97 95 95 255 0.199329 0.278745
4.753536 2e-06 4.753536 0 -1 0 97 95 95 255 0.199329 0.278745
0.246464 2e-06 4.753536 -0.2432676 -0.937148 0.2501492 97 95 95 255 0.199329 0.278745
0.246464 3e-06 0.246464 -0.1259156 -0.9707621 -0.2043678 97 95 95 255 0.199329 0.278745
4.753536 3e-06 0.246464 0.2207138 -0.9173833 -0.3311999 97 95 95 255 0.199329 0.278745
4.295916 2e-06 4.585614 0.2315029 -0.964743 -0.12521 97 95 95 255 0.199511 0.27862
0.351572 -0.149818 4.404738 -0.6966837 -0.7160763 0.0432041 97 95 95 255 0.199329 0.278745
0.782236 -0.149817 0.420362 -0.1126944 -0.8976171 -0.4261262 97 95 95 255 0.199329 0.278745
4.644312 -0.149817 0.631678 0.6818616 -0.7301774 -0.04365624 97 95 95 255 0.199329 0.278745
3.95466 2e-06 3.95466 -0.3043047 -0.9525389 0.008271161 97 95 95 255 0.199329 0.278745
0.957142 -0.149818 4.042857 0 -1 0 120 120 119 255 0.200754 0.303684
1.04534 3e-06 1.04534 0.2035928 -0.9441632 0.2590481 97 95 95 255 0.199329 0.278745
4.042858 -0.149817 0.957143 -0.5289924 -0.6396902 0.5576409 97 95 95 255 0.199329 0.278745
1.04534 2e-06 3.95466 0.2626263 -0.9336913 -0.2434092 97 95 95 255 0.199329 0.278745
3.95466 3e-06 1.04534 -0.2395683 -0.934321 0.2639155 97 95 95 255 0.199329 0.278745
5 2e-06 3.381516 9.516654e-11 -1 -2.739162e-07 97 95 95 255 0.199329 0.278745
4.688955 2e-06 3.264272 0.6076968 -0.7941073 -0.009920062 97 95 95 255 0.199329 0.278745
4.591751 -0.149818 3.229997 0.8409173 -0.5407499 -0.02115697 97 95 95 255 0.199329 0.278745
4.070835 -0.149818 3.130073 1.797365e-07 -1 -9.369897e-07 120 120 119 255 0.200754 0.303684
3.76634 2e-06 3.21028 -0.1416526 -0.9898605 -0.01051889 97 95 95 255 0.199329 0.278745
1.093721 3e-06 3.014772 -0.1159345 -0.9932557 0.001522355 97 95 95 255 0.199329 0.278745
0.389166 -0.149818 3.207986 -0.7316816 -0.6810971 -0.02736501 97 95 95 255 0.199329 0.278745
0.246464 2e-06 3.29461 -0.5299463 -0.8479511 -0.01166408 97 95 95 255 0.199329 0.278745
0 2e-06 3.381516 4.615699e-08 -1 -2.836603e-07 97 95 95 255 0.199329 0.278745
0 3e-06 1.452817 1.339639e-07 -1 -1.728281e-07 97 95 95 255 0.199329 0.278745
0.271105 3e-06 1.662958 -0.407222 -0.9132974 -0.007632105 97 95 95 255 0.199328 0.278745
0.373721 -0.149817 1.418944 -0.8562619 -0.5146562 -0.04409738 97 95 95 255 0.199329 0.278745
0.824913 -0.149817 1.711012 -0.2626996 -0.7962974 0.5448849 97 95 95 255 0.199511 0.281668
0.993303 3e-06 1.904703 0.07457042 -0.9972063 0.004350827 97 95 95 255 0.199329 0.278745
3.95466 3e-06 1.890683 0.1516988 -0.9882528 -0.01854895 97 95 95 255 0.199329 0.278745
4.09609 -0.149817 1.831442 -0.7776086 -0.628419 -0.02035634 97 95 95 255 0.199329 0.278745
4.6031 -0.149817 1.619069 0.7571031 -0.6529602 0.02092477 97 95 95 255 0.199329 0.278745
4.753536 3e-06 1.556054 0.4078265 -0.9130009 0.01034432 97 95 95 255 0.199329 0.278745
5 3e-06 1.452817 -7.239303e-08 -1 -1.728281e-07 97 95 95 255 0.199329 0.278745
2.386375 3e-06 0 0 -1 0 97 95 95 255 0.199329 0.278745
2.397577 3e-06 0.246464 -0.001046847 -0.9039915 -0.4275491 97 95 95 255 0.199329 0.278745
2.673512 -0.149817 0.536407 -0.002959428 -0.8895478 -0.4568327 97 95 95 255 0.199329 0.278745
2.428555 -0.149817 0.928027 0 -1 0 120 120 119 255 0.200754 0.303684
2.433886 3e-06 1.04534 0.00192029 -0.9955351 -0.09437221 97 95 95 255 0.199329 0.278745
2.433886 2e-06 3.95466 -0.006469808 -0.9914078 0.1306476 97 95 95 255 0.199329 0.278745
2.394144 -0.149818 4.088553 0.004895484 -0.6189575 -0.7854093 97 95 95 255 0.199329 0.278745
2.571154 -0.149818 4.547915 0 -1 0 120 120 119 255 0.200754 0.303684
2.533064 2e-06 4.707378 0.01096055 -0.8703694 0.4922775 97 95 95 255 0.199329 0.278745
2.386375 2e-06 5 0 -1 0 97 95 95 255 0.199329 0.278745
0.286325 -0.061437 4.713674 -0.4277993 -0.8021092 0.4166637 97 95 95 255 0.199329 0.278745
0.55015 -0.149818 4.64628 -0.0447561 -0.7283077 0.6837871 97 95 95 255 0.199329 0.278745
0.957142 -0.149818 3.519064 0.7161605 -0.6966859 -0.04174765 97 95 95 255 0.199329 0.278745
0.783583 -0.149818 3.094125 0.4247536 -0.9040945 -0.0468799 97 95 95 255 0.199329 0.278745
0.880709 -0.149817 2.457984 0.576372 -0.8166254 -0.03030618 97 95 95 255 0.199329 0.278745
4.341312 -0.149817 0.347741 0.06911571 -0.724642 -0.6856509 97 95 95 255 0.199329 0.278745
4.724276 -0.045095 0.275724 0.4215733 -0.8063071 -0.4149035 97 95 95 255 0.199329 0.278745
0.872267 -0.149817 1.285787 0.6281445 -0.7780814 0.004882356 97 95 95 255 0.199329 0.278745
1.226295 -0.149817 0.954243 0 -1 0 120 120 119 255 0.200754 0.303684
0.828955 -0.149817 1.027073 0 -1 0 120 120 119 255 0.200754 0.303684
2.26701 -0.149817 1.972014 0 -1 0 106 103 98 255 0.224414 0.294
2.543446 -0.149817 2.860023 -1.480274e-07 -1 -8.367076e-07 106 103 98 255 0.224414 0.294
1.178616 -0.149817 2.983111 -3.937618e-08 -1 -4.366132e-07 106 103 98 255 0.224414 0.294
1.22975 3e-06 1.937739 -0.009409256 -0.9976854 0.06734453 97 95 95 255 0.199329 0.278745
2.436352 -0.149818 3.86519 -1.579936e-07 -1 -6.78997e-07 106 103 98 255 0.224414 0.294
1.260456 -0.149818 3.737944 -5.936204e-09 -1 -1.145882e-06 106 103 98 255 0.224414 0.294
2.436352 -0.149817 1.13481 -0.004334222 -0.5127644 -0.8585185 97 95 95 255 0.199329 0.278745
1.260456 -0.149817 1.262056 -0.3791175 -0.8100471 -0.4473181 97 95 95 255 0.199329 0.278745
3.86359 -0.149817 1.928159 0 -1 0 106 103 98 255 0.224414 0.294
3.736345 -0.149817 1.262056 0 -1 0 106 103 98 255 0.224414 0.294
3.400023 -0.149818 3.335216 -2.901185e-07 -1 -5.275331e-07 106 103 98 255 0.224414 0.294
3.588123 -0.149818 3.764028 0 -1 0 106 103 98 255 0.224414 0.294
3.775398 -0.149818 4.065376 -0.006275629 -0.6300452 -0.7765331 97 95 95 255 0.199329 0.278745
3.962429 -0.149818 4.503248 0.1422401 -0.8762994 0.4602903 97 95 95 255 0.199329 0.278745
4.264484 2e-06 4.74337 0.06567884 -0.9921505 0.1064126 97 95 95 255 0.199329 0.278745
4.736124 2e-06 4.352023 0.1422024 -0.9838397 0.1088028 97 95 95 255 0.199329 0.278745
4.644215 -0.149818 4.147435 0.6500208 -0.7284728 0.2163341 97 95 95 255 0.199329 0.278745
4.030876 -0.149818 3.825795 0 -1 0 120 120 119 255 0.200754 0.303684
4.623234 2e-06 4.331329 -0.03990008 -0.9752086 0.2176608 97 95 95 255 0.199329 0.278745
0.404728 -0.149817 0.816865 -0.6291034 -0.7731382 -0.08053796 97 95 95 255 0.199329 0.278745
3.959724 -0.149818 3.414488 -0.6946018 -0.7177914 0.04800018 97 95 95 255 0.199329 0.278745
3.983114 -0.149817 2.580488 -2.040668e-07 -1 -8.33526e-07 120 120 119 255 0.200754 0.303684
1.179789 -0.149817 2.116893 -0.5696351 -0.7912444 -0.2223693 97 95 95 255 0.199329 0.278745
1.930834 -0.149817 2.185601 0 -1 0 106 103 98 255 0.224414 0.294
1.16424 -0.149817 1.787023 -0.4707047 -0.8106319 0.3483003 97 95 95 255 0.199329 0.278745
3.663267 -0.149817 2.806274 0.470233 -0.8341849 0.2881258 97 95 95 255 0.199329 0.278745
2.843061 -0.149817 2.587362 0 -1 0 106 103 98 255 0.224414 0.294
2.20487 3e-06 2.123998 0.03493755 -0.998762 -0.03541161 97 95 95 255 0.200121 0.280448
3.611879 3e-06 3.059612 -0.0677359 -0.9952843 0.06943453 97 95 95 255 0.199329 0.278745
2.596539 3e-06 2.723581 0.138677 -0.9775448 -0.1586654 97 95 95 255 0.200121 0.280448
0.81628 -0.149817 2.068045 0.0325253 -0.8030475 -0.5950268 97 95 95 255 0.199511 0.281668
0.439495 -0.149817 2.047449 0.09574486 -0.8548794 -0.5099159 97 95 95 255 0.199511 0.281668
0.807462 3e-06 1.865366 -0.02419678 -0.9891347 -0.1450072 97 95 95 255 0.199511 0.281668
1.693746 -0.149817 0.401391 0.01915691 -0.788582 -0.6146313 97 95 95 255 0.199329 0.278745
3.608485 -0.149817 0.358203 0 -1 0 120 120 119 255 0.200754 0.303684
1.693746 -0.149817 0.401391 0 -1 0 120 120 119 255 0.200754 0.303684
4.591751 -0.149818 3.229997 -1.224401e-07 -1 -5.001156e-07 120 120 119 255 0.200754 0.303684
1.226295 -0.149817 0.954243 0.06252884 -0.502395 0.8623742 97 95 95 255 0.199329 0.278745
3.983114 -0.149817 2.580488 -0.6578695 -0.7513332 -0.05202304 97 95 95 255 0.199329 0.278745
4.644215 -0.149818 4.147435 0 -1 0 120 120 119 255 0.200754 0.303684
0.404728 -0.149817 0.816865 0 -1 0 120 120 119 255 0.200754 0.303684
0.782236 -0.149817 0.420362 0 -1 0 120 120 119 255 0.200754 0.303684
2.428555 -0.149817 0.928027 0.0005645839 -0.5834941 0.8121172 97 95 95 255 0.199329 0.278745
2.543446 -0.149817 2.860023 0.4735689 -0.7388924 -0.4793437 97 95 95 255 0.200121 0.280448
3.775398 -0.149818 4.065376 0 -1 0 120 120 119 255 0.200754 0.303684
2.394144 -0.149818 4.088553 0 -1 0 120 120 119 255 0.200754 0.303684
2.571154 -0.149818 4.547915 0.02779133 -0.7251962 0.6879811 97 95 95 255 0.199329 0.278745
0.389166 -0.149818 3.207986 5.90904e-08 -1 -4.937394e-07 120 120 119 255 0.200754 0.303684
0.783583 -0.149818 3.094125 -2.369779e-07 -1 -8.208959e-07 120 120 119 255 0.200754 0.303684
0.957142 -0.149818 3.519064 0 -1 0 120 120 119 255 0.200754 0.303684
0.81628 -0.149817 2.068045 0.3798871 -0.8490788 -0.3670843 97 95 95 255 0.199329 0.278745
0.807462 3e-06 1.865366 -0.01222214 -0.9982568 0.05774137 97 95 95 255 0.199329 0.278745
0.957142 -0.149818 4.042857 0.5541366 -0.6397475 -0.5325934 97 95 95 255 0.199329 0.278745
4.6031 -0.149817 1.619069 -2.429183e-07 -1 -1.566496e-07 120 120 119 255 0.200754 0.303684
4.042858 -0.149817 0.957143 0 -1 0 120 120 119 255 0.200754 0.303684
4.644312 -0.149817 0.631678 0 -1 0 120 120 119 255 0.200754 0.303684
4.341312 -0.149817 0.347741 0 -1 0 120 120 119 255 0.200754 0.303684
0.828955 -0.149817 1.027073 0.4596677 -0.7262237 0.5111799 97 95 95 255 0.199329 0.278745
0.55015 -0.149818 4.64628 0 -1 0 120 120 119 255 0.200754 0.303684
0.351572 -0.149818 4.404738 0 -1 0 120 120 119 255 0.200754 0.303684
1.178616 -0.149817 2.983111 -0.8649132 -0.4998129 0.04595998 97 95 95 255 0.199329 0.278745
1.260456 -0.149818 3.737944 -0.4530568 -0.7773269 0.4364658 97 95 95 255 0.199329 0.278745
2.436352 -0.149818 3.86519 -0.008627071 -0.5128018 0.8584638 97 95 95 255 0.199329 0.278745
3.736345 -0.149817 1.262056 0.4265828 -0.7801749 -0.4575526 97 95 95 255 0.199329 0.278745
3.400023 -0.149818 3.335216 0.3056648 -0.927353 -0.2158366 97 95 95 255 0.199329 0.278745
3.588123 -0.149818 3.764028 0.2399899 -0.9042351 0.3532192 97 95 95 255 0.199329 0.278745
3.962429 -0.149818 4.503248 0.4924521 -0.8377949 -0.2357767 97 95 95 255 0.199511 0.27862
3.95466 2e-06 3.95466 0.07862562 -0.9816535 0.173708 97 95 95 255 0.199511 0.27862
4.295916 2e-06 4.585614 0.133302 -0.9907196 0.02655983 97 95 95 255 0.199329 0.278745
4.623234 2e-06 4.331329 -0.1731173 -0.9357411 0.307277 97 95 95 255 0.199511 0.27862
4.644215 -0.149818 4.147435 -0.3265476 -0.7292413 0.6013101 97 95 95 255 0.199511 0.27862
4.030876 -0.149818 3.825795 -0.3287246 -0.7064005 0.626848 97 95 95 255 0.199511 0.27862
0.373721 -0.149817 1.418944 0 -1 0 120 120 119 255 0.200754 0.303684
0.872267 -0.149817 1.285787 0 -1 0 120 120 119 255 0.200754 0.303684
4.070835 -0.149818 3.130073 -0.4531489 -0.889492 -0.05882184 97 95 95 255 0.199329 0.278745
1.930834 -0.149817 2.185601 0.2048976 -0.766033 -0.6092704 97 95 95 255 0.200121 0.280448
1.260456 -0.149817 1.262056 0 -1 0 106 103 98 255 0.224414 0.294
2.436352 -0.149817 1.13481 0 -1 0 106 103 98 255 0.224414 0.294
3.86359 -0.149817 1.928159 0.8565021 -0.5157781 0.01941806 97 95 95 255 0.199329 0.278745
2.26701 -0.149817 1.972014 -0.2616144 -0.7214379 0.6411594 97 95 95 255 0.200121 0.280448
1.22975 3e-06 1.937739 -0.01494713 -0.999855 -0.008159142 97 95 95 255 0.200121 0.280448
1.16424 -0.149817 1.787023 -0.1217656 -0.6769683 0.72587 97 95 95 255 0.200121 0.280448
2.843061 -0.149817 2.587362 -0.3129161 -0.833364 0.4556183 97 95 95 255 0.200121 0.280448
1.179789 -0.149817 2.116893 0 -1 0 106 103 98 255 0.224414 0.294
1.179789 -0.149817 2.116893 0.05771848 -0.7736983 -0.6309196 97 95 95 255 0.200121 0.280448
3.663267 -0.149817 2.806274 0 -1 0 106 103 98 255 0.224414 0.294
3.611879 3e-06 3.059612 -0.06866043 -0.9676878 0.2426234 97 95 95 255 0.200121 0.280448
3.663267 -0.149817 2.806274 -0.1294874 -0.8647873 0.4851555 97 95 95 255 0.200121 0.280448
3.400023 -0.149818 3.335216 0.2440504 -0.8179495 -0.5209587 97 95 95 255 0.200121 0.280448
0.439495 -0.149817 2.047449 3.847039e-07 -1 -4.134527e-07 120 120 119 255 0.200754 0.303684
0.880709 -0.149817 2.457984 9.848401e-08 -1 -8.22899e-07 120 120 119 255 0.200754 0.303684
0.439495 -0.149817 2.047449 -0.6935828 -0.7200751 -0.020849 97 95 95 255 0.199329 0.278745
0.271105 3e-06 1.662958 -0.1402415 -0.9565164 0.2557514 97 95 95 255 0.199511 0.281668
0.824913 -0.149817 1.711012 0.2716513 -0.8610595 0.4298629 97 95 95 255 0.199329 0.278745
3.608485 -0.149817 0.358203 -0.03045953 -0.7074337 -0.7061231 97 95 95 255 0.199329 0.278745
2.673512 -0.149817 0.536407 0 -1 0 120 120 119 255 0.200754 0.303684
4.09609 -0.149817 1.831442 0 -1 0 120 120 119 255 0.200754 0.303684
3.959724 -0.149818 3.414488 0 -1 0 120 120 119 255 0.200754 0.303684
4.030876 -0.149818 3.825795 -0.8269691 -0.5437432 0.1430579 97 95 95 255 0.199329 0.278745
3.962429 -0.149818 4.503248 0 -1 0 120 120 119 255 0.200754 0.303684
3.775398 -0.149818 4.065376 0.5368986 -0.8118795 -0.2293286 97 95 95 255 0.199511 0.27862
0.824913 -0.149817 1.711012 0 -1 0 120 120 119 255 0.200754 0.303684
1.16424 -0.149817 1.787023 0 -1 0 106 103 98 255 0.224414 0.294
0.81628 -0.149817 2.068045 0 -1 0 120 120 119 255 0.200754 0.303684
0.373721 -0.149817 1.418944 -0.2708362 -0.866946 0.4183928 97 95 95 255 0.199511 0.281668
3 59 80 58 
3 46 5 45 
3 37 6 3 
3 35 18 19 
3 48 47 9 
3 6 90 10 
3 34 19 20 
3 23 50 51 
3 92 40 55 
3 93 21 78 
3 43 16 42 
3 94 41 14 
3 32 95 22 
3 18 72 19 
3 19 73 20 
3 93 96 74 
3 77 12 22 
3 58 62 59 
3 26 5 1 
3 27 6 28 
3 28 76 29 
3 56 97 98 
3 31 54 14 
3 33 17 15 
3 36 7 2 
3 37 7 38 
3 52 53 11 
3 99 17 41 
3 57 66 65 
3 86 100 84 
3 61 67 68 
3 69 42 12 
3 101 44 102 
3 70 45 103 
3 46 71 0 
3 25 24 9 
3 49 50 23 
3 44 13 102 
3 5 47 48 
3 104 105 106 
3 88 89 87 
3 31 107 108 
3 49 16 109 
3 110 111 112 
3 111 113 112 
3 52 7 53 
3 35 34 11 
3 114 94 14 
3 54 114 14 
3 91 113 111 
3 115 116 13 
3 23 79 117 
3 42 118 119 
3 23 118 16 
3 31 81 60 
3 41 64 14 
3 41 120 63 
3 32 120 17 
3 85 22 121 
3 42 122 12 
3 22 122 121 
3 123 124 8 
3 125 71 70 
3 0 71 4 
3 72 0 4 
3 75 4 125 
3 124 126 8 
3 127 124 128 
3 73 72 75 
3 75 72 4 
3 4 71 125 
3 76 6 10 
3 129 56 130 
3 22 131 77 
3 22 95 131 
3 79 31 60 
3 132 84 100 
3 31 64 81 
3 57 133 134 
3 65 83 57 
3 32 82 135 
3 136 137 138 
3 139 84 136 
3 82 22 85 
3 140 80 59 
3 137 132 141 
3 142 83 65 
3 143 139 144 
3 145 86 143 
3 51 31 23 
3 146 147 104 
3 25 148 24 
3 26 28 25 
3 149 30 89 
3 31 108 150 
3 90 38 39 
3 39 38 151 
3 46 1 5 
3 37 38 6 
3 35 36 18 
3 6 38 90 
3 34 35 19 
3 56 98 55 
3 98 92 55 
3 92 152 40 
3 78 153 110 
3 110 93 78 
3 43 109 16 
3 94 99 41 
3 32 33 95 
3 18 0 72 
3 19 72 73 
3 74 154 93 
3 154 21 93 
3 77 155 12 
3 58 61 62 
3 26 25 5 
3 27 3 6 
3 28 6 76 
3 31 150 54 
3 33 32 17 
3 36 35 7 
3 37 2 7 
3 99 15 17 
3 57 134 66 
3 61 58 67 
3 69 43 42 
3 101 156 44 
3 70 71 45 
3 46 45 71 
3 47 5 9 
3 5 25 9 
3 44 115 13 
3 48 103 45 
3 45 5 48 
3 106 13 104 
3 13 116 104 
3 88 149 89 
3 49 23 16 
3 110 153 111 
3 52 151 7 
3 151 38 7 
3 53 7 11 
3 7 35 11 
3 111 40 152 
3 152 91 111 
3 23 31 79 
3 42 16 118 
3 23 117 118 
3 41 63 64 
3 41 17 120 
3 32 135 120 
3 42 119 122 
3 22 12 122 
3 123 157 124 
3 127 126 124 
3 130 158 129 
3 129 97 56 
3 31 14 64 
3 57 159 133 
3 32 22 82 
3 136 84 137 
3 139 86 84 
3 137 84 132 
3 143 86 139 
3 145 100 86 
3 51 107 31 
3 160 147 146 
3 147 105 104 
3 25 28 148 
3 26 27 28 
3 149 161 30 
