ply
format ascii 1.0
comment INFO-3111 Flatenator generated
comment TextureFile Dungeons_Texture_01.png
element vertex 487
property float x
property float y
property float z
element face 682
property list uchar int vertex_indices
end_header
0.272209 0.042664 4.99801 
0.25408 0.038164 4.94889 
0 -1e-06 5 
1.92238 0.054309 4.90176 
1.34653 0.028854 4.98241 
1.8933 -1e-06 5 
3.04563 0.042654 4.99813 
2.55814 0.022379 4.99292 
2.86987 -1e-06 5 
3.53393 -1e-06 5 
4.13934 0.042644 4.99812 
3.80737 -1e-06 5 
4.47143 -1e-06 5 
4.64722 0.042649 4.99814 
0.76049 -1e-06 5 
4.78393 -1e-06 5 
2.30339 -1e-06 5 
0.825569 0.054454 4.88267 
2.30188 0.051254 4.8433 
2.54382 0.053349 4.90985 
4.42606 0.054149 4.92527 
0 -1e-06 4.53012 
0.85815 -0.000761 4.17856 
2.61228 0.087089 4.85299 
3.14138 0.079304 4.89853 
3.5442 0.054149 4.92527 
3.8226 0.080444 4.89934 
4.07283 0.080084 4.91542 
1.43921 0.071834 4.85889 
4.69536 0.079769 4.8973 
5 -1e-06 5 
4.89827 0.042289 4.89749 
5 -1e-06 4.54967 
1.78444 0.088484 4.88427 
2.0771 0.084434 4.78665 
2.42066 0.044689 4.82307 
2.80022 0.100449 4.7779 
4.36441 0.098914 4.83015 
4.79243 0.093544 4.79592 
1.23322 0.055284 4.8591 
1.01776 0.083549 4.86951 
4.58862 -0.00076 2.83091 
0.273369 0.089209 4.82247 
0.18722 0.090309 4.77278 
3.56393 0.100499 4.63331 
4.16985 0.084024 4.72262 
1.26311 0.100654 4.65771 
0.02363 0.034654 4.6284 
0.965219 0.078324 4.73908 
2.09701 0.088439 4.58251 
4.88027 0.060714 4.52491 
0.863209 0.100654 4.65163 
2.34053 0.042579 4.64652 
0.20089 0.100599 4.49678 
0.8806 0.069594 4.40428 
2.15301 0.100654 4.26349 
2.3225 0.059629 4.5327 
2.6449 0.100654 3.13257 
2.53687 0.098214 4.30791 
5 -1e-06 4.39341 
3.98667 0.100654 4.46072 
2.53205 0.054164 4.12854 
3.73947 0.100654 4.28982 
4.758 0.099854 4.52496 
4.46459 0.100654 4.38024 
1.01964 0.100654 4.42197 
0.970259 0.099764 4.01155 
0.61742 0.078289 4.30934 
4.77895 0.078699 4.29622 
2.39381 0.027589 4.33489 
0.07859 0.044969 4.33521 
3.93112 0.099232 4.34615 
0 -1e-06 4.25669 
0.44799 -0.000761 4.19809 
0.752489 0.077179 4.24213 
2.3417 0.044269 4.25575 
3.98763 0.076069 4.16543 
0.708549 0.098069 4.07688 
0.00839 0.039239 3.92503 
4.4233 0.068039 4.15403 
2.29137 0.087189 4.18958 
0.359579 0.100654 4.10776 
4.80439 0.065164 4.16589 
3.89478 0.100634 4.163 
2.32935 0.054494 4.01792 
4.60076 0.051609 4.06321 
0.66283 -0.000761 4.15903 
0.113499 0.073109 3.83625 
2.32936 0.099939 3.71399 
4.26196 0.066084 4.01809 
4.98137 0.030379 4.00185 
0.643299 -0.000761 4.1395 
0.66283 -0.000761 4.1395 
0.584709 -0.000761 3.98325 
0.44799 -0.000761 3.10434 
0.20846 0.097054 3.90882 
1.80972 0.098984 3.31402 
0.06163 0.043154 3.65154 
0 -1e-06 3.82702 
5 -1e-06 3.80747 
4.1321 0.094159 3.97381 
2.53551 0.100029 3.48037 
4.20426 0.082854 3.85227 
0.41234 0.081319 3.84062 
0.97102 0.099734 3.81559 
3.8764 0.100634 3.67475 
4.52105 0.079024 3.90962 
4.85085 0.072744 3.85511 
4.97735 0.032574 3.61215 
2.3723 0.036159 3.65119 
4.73872 0.091009 3.83729 
1.59039 0.100654 3.50576 
4.29728 0.085224 3.78077 
4.79524 0.100514 3.63887 
0.302879 0.100654 3.60861 
4.11539 0.100654 3.56653 
4.51936 0.086844 3.45807 
4.87023 0.085764 3.4405 
2.32272 0.080964 3.62617 
0.01038 0.020184 3.49443 
5 -1e-06 3.45591 
4.29908 0.099809 3.60267 
0.078659 0.045239 3.41586 
2.33082 0.099944 3.42956 
2.3422 0.045119 3.31752 
4.92041 0.044799 3.39769 
3.67405 0.099455 2.60899 
2.54092 0.069939 3.42183 
0.206749 0.099979 3.49914 
1.67082 0.100654 3.18637 
4.8237 0.091864 3.34992 
0 -1e-06 3.29966 
5 0 2.40122 
1.82794 0.100654 3.11811 
4.62976 0.100654 3.15066 
-0.00123 0.015645 3.02622 
2.45373 0.035304 3.26056 
2.34228 0.044775 2.61617 
4.99791 0.042665 2.61606 
0.14419 0.076914 3.17825 
1.72195 0.087224 3.16873 
3.85802 0.099855 2.60916 
2.56953 0.07542 3.04085 
2.33477 0.099945 2.62914 
0.11482 0.056925 2.70129 
0.13666 0.08291 2.9995 
0 0 2.71372 
0.262859 0.098675 2.59388 
3.49487 -0.00076 1.3856 
1.49779 0.09462 2.65323 
1.34285 0.099945 2.61189 
4.87101 0.08583 2.89777 
1.59339 0.0712 2.67675 
2.4962 0.028525 2.86891 
2.71849 0.100515 2.86138 
2.5819 0.07822 2.74153 
0.003269 0.032655 2.81159 
1.65264 0.100065 2.62112 
4.88552 0.04821 2.60559 
2.54481 0.05441 2.65369 
3.34337 0.09986 2.60917 
4.74013 0.099105 2.61015 
2.82692 0.09995 2.60917 
0 0 1.425 
2.82683 0.064465 2.60856 
2.53898 0.04535 2.43847 
0.14303 0.03958 2.584 
2.70053 0.04051 2.59699 
3.81544 0.03764 2.60139 
1.64142 0.044825 2.61606 
1.40588 0.04524 2.59721 
2.96848 0.04516 2.59694 
4.92075 0.04316 2.53684 
2.38138 0.04502 2.45835 
2.74153 0.05217 2.48636 
3.84343 0.034655 2.49824 
0.898239 0.045395 2.45847 
0.061739 0.04287 2.41806 
1.46526 0.045305 2.47673 
4.73246 0.100235 2.50314 
3.91758 0.10044 2.50336 
4.59544 0.054135 2.50653 
3.73102 0.03555 2.49355 
0.00102 0.034385 2.10825 
4.92426 0.09003 2.20087 
3.60146 0.098075 2.47766 
2.81797 0.10023 2.48017 
3.8578 0.099795 2.40921 
2.55884 0.093755 2.4436 
3.72445 0.09054 2.29097 
1.31726 0.099915 2.44343 
1.38596 0.06479 2.43504 
2.37108 0.099905 2.46066 
1.76423 0.099875 2.4504 
0.22677 0.09964 2.42521 
4.94001 0.04504 2.05001 
1.77442 0.05997 2.27022 
1.69241 0.10046 0.967449 
1.56845 0.100655 2.17663 
2.55884 0.09375 1.82236 
3.34561 0.100655 2.3494 
3.85401 0.054235 1.87926 
4.9979 0.04267 1.63951 
0.084789 0.06411 2.27544 
1.97956 0.100655 2.21331 
1.66879 0.07582 2.17405 
3.74824 0.045195 1.4055 
2.37274 0.10022 2.01909 
2.5582 0.05203 1.80293 
2.66746 0.0983 1.65342 
3.73419 0.09913 1.3518 
2.37269 0.049475 1.8667 
0.11763 0.07931 1.82966 
1.80081 0.09809 2.01919 
2.26264 0.08389 1.92067 
2.17416 0.07827 1.84163 
4.91724 0.08922 1.76499 
4.83157 0.10015 1.85975 
4.57963 0.100655 1.85975 
5 0 0.95591 
4.34396 0.100655 1.68919 
2.19599 0.10046 1.60739 
0.015579 0.036815 1.63096 
4.09145 0.100655 1.42449 
2.42013 0.03122 1.69825 
0.19117 0.095715 1.47135 
4.94002 0.04503 1.11315 
4.36712 0.067765 1.46431 
4.48203 0.100655 1.51862 
3.8577 0.099875 1.19644 
4.91838 0.09157 1.4429 
2.53899 0.045355 1.52438 
2.38112 0.04474 1.48558 
2.66437 0.100655 1.3518 
0.04211 0.036705 1.28831 
0.569609 0.100655 1.27872 
2.56297 0.099295 1.37079 
2.37456 0.09972 1.3151 
4.32718 0.085535 1.23426 
0.115629 0.058415 1.3407 
2.53897 0.045355 1.09432 
4.01145 0.09925 1.15944 
3.01443 0.100655 1.06946 
4.06572 0.077075 1.18695 
0.35565 0.089985 1.20048 
2.37623 0.10013 0.88727 
3.32708 0.100655 1.1071 
4.13201 0.050195 1.01814 
0 0 1.05356 
4.90998 0.08649 1.15855 
3.69703 0.08231 1.1442 
4.85182 0.10051 1.04484 
0.14538 0.09685 1.14332 
0.8727 0.100595 1.00371 
2.58345 0.077085 1.09097 
0.090981 0.04688 0.84297 
3.79754 0.04038 1.1204 
4.20527 0.100655 0.79855 
0.01997 0.035535 0.937029 
1.17911 0.098415 0.911589 
4.94002 0.045025 0.89905 
0.229269 0.097765 0.852499 
2.56006 0.092965 0.824759 
4.02209 0.040795 0.99692 
3.74822 0.04495 1.0555 
3.64951 0.066935 0.857929 
2.38243 0.0448 0.87883 
0.588659 0.096475 0.950129 
0.481989 0.10042 0.86977 
0.69665 0.072445 0.89435 
1.93033 0.09992 0.87714 
4.93085 0.099955 0.969028 
3.82004 0.01355 0.797089 
3.36753 0.10062 0.73065 
2.53897 0.04535 0.722599 
1.43048 0.091105 0.882769 
0.819 0.0453 0.839699 
2.56236 0.10002 0.335379 
1.91033 0.07439 0.876579 
3.75523 0.02473 0.71628 
2.43994 0.044775 0.74095 
1.35669 0.05425 0.865759 
0.05224 0.036135 0.734329 
3.63246 0.08761 0.74679 
4.07178 0.100655 0.703089 
0.6441 0.03846 0.751598 
0.357359 0.053445 0.77858 
1.01496 0.045085 0.740799 
4.93103 0.09984 0.174009 
4.9979 0.04267 0.54575 
0.190189 0.099645 0.691 
0.116159 0.086835 0.718439 
0.558319 0.06027 0.789549 
1.27632 0.067575 0.770908 
0.83604 0.100015 0.730299 
1.49692 0.10004 0.73024 
2.43353 0.10064 0.712978 
0.016769 0.027815 0.467419 
3.72097 0.1006 0.580069 
3.99353 0.1005 0.51412 
3.85646 0.06422 0.514359 
0.191479 0.09961 0.301939 
0.23315 0 0 
3.73796 0.05275 0.50276 
0 0 0.48716 
4.94067 0.0448 0.077589 
2.43334 0.100655 0.322289 
2.55983 0.059475 0.316719 
-0.00123 0.015645 0.213718 
0.412779 0.092525 0.052938 
3.84808 0.044995 0.058409 
1.29471 0.10017 0.26228 
3.73465 0.09993 0.203619 
3.74831 0.0451 0.078829 
0 0 0 
2.43208 0.053655 0.045879 
2.78228 0.08297 0.099339 
0.093569 0.068375 0.147289 
5 0 0 
1.11205 0 0 
2.53905 0.044295 0.060669 
2.0488 0.079545 0.05316 
1.33154 0.096495 0.165609 
2.41637 0.07887 0.05938 
3.9354 0.100655 0.19211 
1.25762 0.07779 0.091228 
3.94099 0.0647 0.07832 
1.55322 0.069965 0.065979 
3.21867 0.060765 0.0774 
3.42462 0.08192 0.091099 
3.71845 0.078375 0.096689 
0.68845 0.092695 0.05311 
4.99828 0.04268 -0.000631 
3.8269 0.04267 -0.00025 
2.7331 0.04266 -0.00037 
2.98706 0.03534 -0.001122 
4.49097 0.04266 -0.000231 
2.32299 0 0 
3.70971 0 0 
4.15893 0 0 
0.724751 0.05425 0.04678 
1.46314 0.041405 0.000799 
1.85391 0.04252 -0.001122 
1.92238 0.054309 4.90176 
2.0771 0.084434 4.78665 
1.78444 0.088484 4.88427 
3.80737 -1e-06 5 
4.58862 -0.00076 2.83091 
4.47143 -1e-06 5 
3.8226 0.080444 4.89934 
3.14138 0.079304 4.89853 
1.43921 0.071834 4.85889 
1.26311 0.100654 4.65771 
2.80022 0.100449 4.7779 
0.273369 0.089209 4.82247 
1.01776 0.083549 4.86951 
0.18722 0.090309 4.77278 
0.20089 0.100599 4.49678 
2.80022 0.100449 4.7779 
3.56393 0.100499 4.63331 
4.16985 0.084024 4.72262 
0.863209 0.100654 4.65163 
2.3225 0.059629 4.5327 
4.36441 0.098914 4.83015 
4.79243 0.093544 4.79592 
4.46459 0.100654 4.38024 
1.26311 0.100654 4.65771 
2.15301 0.100654 4.26349 
1.01964 0.100654 4.42197 
3.98667 0.100654 4.46072 
2.15301 0.100654 4.26349 
3.73947 0.100654 4.28982 
3.98667 0.100654 4.46072 
2.53687 0.098214 4.30791 
0.708549 0.098069 4.07688 
0.20089 0.100599 4.49678 
0.863209 0.100654 4.65163 
0.359579 0.100654 4.10776 
3.89478 0.100634 4.163 
2.32936 0.099939 3.71399 
0.20846 0.097054 3.90882 
4.1321 0.094159 3.97381 
3.89478 0.100634 4.163 
3.8764 0.100634 3.67475 
0.97102 0.099734 3.81559 
4.52105 0.079024 3.90962 
4.79524 0.100514 3.63887 
4.11539 0.100654 3.56653 
4.29728 0.085224 3.78077 
1.80972 0.098984 3.31402 
2.53551 0.100029 3.48037 
4.8237 0.091864 3.34992 
0.302879 0.100654 3.60861 
2.33082 0.099944 3.42956 
2.6449 0.100654 3.13257 
4.11539 0.100654 3.56653 
1.82794 0.100654 3.11811 
4.62976 0.100654 3.15066 
1.59039 0.100654 3.50576 
1.67082 0.100654 3.18637 
4.87101 0.08583 2.89777 
2.33477 0.099945 2.62914 
0.262859 0.098675 2.59388 
1.34285 0.099945 2.61189 
2.71849 0.100515 2.86138 
4.74013 0.099105 2.61015 
4.74013 0.099105 2.61015 
1.65264 0.100065 2.62112 
2.82692 0.09995 2.60917 
3.85802 0.099855 2.60916 
3.67405 0.099455 2.60899 
3.34337 0.09986 2.60917 
3.91758 0.10044 2.50336 
4.73246 0.100235 2.50314 
3.8578 0.099795 2.40921 
0.22677 0.09964 2.42521 
1.31726 0.099915 2.44343 
2.81797 0.10023 2.48017 
3.60146 0.098075 2.47766 
3.34561 0.100655 2.3494 
3.60146 0.098075 2.47766 
3.72445 0.09054 2.29097 
2.37108 0.099905 2.46066 
1.76423 0.099875 2.4504 
1.97956 0.100655 2.21331 
1.56845 0.100655 2.17663 
2.37274 0.10022 2.01909 
2.66746 0.0983 1.65342 
1.80081 0.09809 2.01919 
3.73419 0.09913 1.3518 
4.83157 0.10015 1.85975 
2.19599 0.10046 1.60739 
4.34396 0.100655 1.68919 
4.57963 0.100655 1.85975 
4.48203 0.100655 1.51862 
2.66437 0.100655 1.3518 
3.8577 0.099875 1.19644 
0.19117 0.095715 1.47135 
4.09145 0.100655 1.42449 
2.37456 0.09972 1.3151 
4.01145 0.09925 1.15944 
0.569609 0.100655 1.27872 
3.73419 0.09913 1.3518 
3.69703 0.08231 1.1442 
3.32708 0.100655 1.1071 
3.73419 0.09913 1.3518 
4.85182 0.10051 1.04484 
4.32718 0.085535 1.23426 
4.48203 0.100655 1.51862 
4.85182 0.10051 1.04484 
3.01443 0.100655 1.06946 
2.56006 0.092965 0.824759 
2.66437 0.100655 1.3518 
4.20527 0.100655 0.79855 
2.37623 0.10013 0.88727 
0.8727 0.100595 1.00371 
3.64951 0.066935 0.857929 
3.36753 0.10062 0.73065 
3.32708 0.100655 1.1071 
1.17911 0.098415 0.911589 
1.69241 0.10046 0.967449 
1.93033 0.09992 0.87714 
4.93085 0.099955 0.969028 
2.56236 0.10002 0.335379 
2.56236 0.10002 0.335379 
1.49692 0.10004 0.73024 
0.83604 0.100015 0.730299 
0.190189 0.099645 0.691 
4.20527 0.100655 0.79855 
3.99353 0.1005 0.51412 
4.07178 0.100655 0.703089 
4.93103 0.09984 0.174009 
0.191479 0.09961 0.301939 
0.191479 0.09961 0.301939 
1.49692 0.10004 0.73024 
2.43353 0.10064 0.712978 
3.72097 0.1006 0.580069 
2.43334 0.100655 0.322289 
3.73465 0.09993 0.203619 
1.29471 0.10017 0.26228 
3.73465 0.09993 0.203619 
2.78228 0.08297 0.099339 
1.29471 0.10017 0.26228 
2.41637 0.07887 0.05938 
2.43334 0.100655 0.322289 
3.9354 0.100655 0.19211 
0.412779 0.092525 0.052938 
3 0 1 2
3 3 4 5
3 6 7 8
3 9 6 8
3 10 6 9
3 10 11 12
3 13 10 12
3 0 2 14
3 4 14 5
3 15 13 12
3 8 7 16
3 10 9 11
3 17 0 14
3 4 17 14
3 7 18 16
3 19 7 6
3 20 10 13
3 21 14 2
3 22 8 16
3 23 19 24
3 24 19 25
3 26 24 25
3 27 26 25
3 27 25 20
3 3 28 4
3 19 6 25
3 6 10 25
3 10 20 25
3 13 29 20
3 13 15 29
3 15 30 29
3 30 31 29
3 22 16 5
3 15 32 30
3 33 343 34
3 17 1 0
3 16 3 5
3 16 18 344
3 35 18 7
3 35 7 19
3 36 23 24
3 37 20 29
3 38 29 31
3 39 40 17
3 3 345 28
3 17 4 39
3 4 28 39
3 14 21 5
3 8 41 9
3 9 41 11
3 346 347 348
3 40 42 17
3 43 2 42
3 2 1 42
3 1 17 42
3 21 22 5
3 41 15 12
3 38 37 29
3 349 44 350
3 45 26 27
3 32 31 30
3 33 46 351
3 2 47 21
3 39 48 40
3 34 49 33
3 45 27 20
3 352 39 28
3 350 44 353
3 38 31 50
3 47 2 43
3 51 354 355
3 37 45 20
3 35 52 18
3 354 53 356
3 357 47 43
3 51 53 354
3 352 54 39
3 55 46 33
3 56 344 18
3 57 358 359
3 360 44 349
3 32 50 31
3 48 361 40
3 54 48 39
3 362 49 34
3 36 58 23
3 23 58 19
3 15 59 32
3 55 33 49
3 60 360 363
3 58 61 19
3 60 44 360
3 52 56 18
3 364 60 363
3 52 35 19
3 22 41 8
3 41 59 15
3 62 57 359
3 50 63 38
3 64 60 364
3 63 365 38
3 65 54 352
3 55 49 362
3 66 366 367
3 67 361 48
3 54 67 48
3 366 66 368
3 369 62 359
3 68 63 50
3 52 69 56
3 69 52 19
3 59 50 32
3 357 70 47
3 68 365 63
3 69 19 61
3 70 21 47
3 370 56 69
3 371 372 71
3 72 73 21
3 74 54 65
3 75 370 69
3 57 373 358
3 76 372 365
3 59 68 50
3 74 67 54
3 65 77 74
3 78 21 70
3 76 71 372
3 68 79 365
3 66 374 368
3 21 78 72
3 75 80 370
3 79 76 365
3 81 375 376
3 67 377 361
3 59 82 68
3 76 371 71
3 76 83 371
3 84 80 75
3 57 62 378
3 85 79 68
3 82 85 68
3 73 86 21
3 86 22 21
3 357 87 70
3 80 88 370
3 89 76 79
3 90 82 59
3 73 91 86
3 91 92 86
3 92 22 86
3 93 94 22
3 74 377 67
3 93 91 73
3 93 92 91
3 93 22 92
3 95 87 357
3 379 96 367
3 70 97 78
3 78 98 72
3 85 89 79
3 97 70 87
3 98 94 72
3 72 94 73
3 41 99 59
3 380 375 81
3 100 76 89
3 69 84 75
3 90 59 99
3 101 373 57
3 102 89 85
3 103 377 74
3 66 104 374
3 100 83 76
3 88 80 84
3 77 103 74
3 94 93 73
3 381 105 382
3 102 100 89
3 82 106 85
3 107 82 90
3 106 102 85
3 103 97 377
3 107 90 108
3 109 84 69
3 109 69 61
3 377 97 95
3 110 106 82
3 111 66 367
3 107 110 82
3 383 57 378
3 112 102 106
3 110 113 106
3 384 114 103
3 384 103 77
3 96 111 367
3 99 108 90
3 97 87 95
3 111 104 66
3 78 97 98
3 114 97 103
3 112 115 102
3 116 385 386
3 113 110 107
3 115 100 102
3 108 117 107
3 387 105 381
3 116 388 385
3 88 84 118
3 97 119 98
3 120 99 41
3 108 99 120
3 118 389 88
3 121 387 388
3 117 113 107
3 122 97 114
3 123 118 124
3 124 118 84
3 116 121 388
3 125 117 108
3 125 108 120
3 126 57 383
3 119 97 122
3 61 390 127
3 109 124 84
3 128 122 114
3 58 390 61
3 109 61 127
3 116 387 121
3 129 104 111
3 130 116 386
3 117 391 113
3 119 131 98
3 41 132 120
3 129 392 104
3 393 133 96
3 123 389 118
3 134 387 116
3 122 135 119
3 119 135 131
3 390 394 127
3 395 126 383
3 136 124 109
3 134 116 130
3 123 124 137
3 131 94 98
3 138 125 120
3 139 122 128
3 396 140 389
3 141 126 395
3 397 141 395
3 127 136 109
3 140 398 389
3 142 127 394
3 143 123 137
3 136 127 142
3 140 399 398
3 139 144 122
3 114 145 128
3 145 139 128
3 138 120 132
3 131 146 94
3 147 145 114
3 94 148 22
3 149 150 399
3 151 134 130
3 400 391 117
3 139 145 144
3 144 135 122
3 396 152 140
3 153 124 136
3 153 136 142
3 131 135 146
3 152 399 140
3 401 133 393
3 153 137 124
3 154 142 394
3 155 153 142
3 125 400 117
3 152 149 399
3 154 155 142
3 144 156 135
3 129 402 392
3 157 152 396
3 156 146 135
3 125 158 400
3 403 402 129
3 155 159 153
3 147 144 145
3 160 404 57
3 151 161 134
3 153 159 137
3 162 404 160
3 163 94 146
3 405 141 397
3 154 164 155
3 158 406 400
3 138 158 125
3 401 407 133
3 164 159 155
3 408 164 154
3 126 160 57
3 159 165 137
3 166 144 147
3 167 159 164
3 409 168 410
3 157 143 169
3 152 157 169
3 143 137 169
3 166 156 144
3 150 149 170
3 149 152 170
3 408 411 164
3 406 158 409
3 147 150 166
3 411 410 168
3 411 168 171
3 150 170 166
3 411 171 164
3 168 409 158
3 169 170 152
3 171 167 164
3 172 158 138
3 173 169 137
3 168 174 171
3 158 175 168
3 176 177 166
3 165 159 167
3 169 178 170
3 173 178 169
3 179 180 181
3 179 181 172
3 174 167 171
3 175 182 168
3 175 181 180
3 175 158 181
3 158 172 181
3 156 183 146
3 146 183 163
3 148 41 22
3 184 179 172
3 185 186 174
3 186 167 174
3 182 185 174
3 176 166 170
3 165 173 137
3 174 168 182
3 187 412 413
3 177 156 166
3 178 176 170
3 188 165 167
3 186 188 167
3 189 185 182
3 190 176 191
3 173 192 193
3 193 178 173
3 178 191 176
3 180 414 175
3 190 194 177
3 176 190 177
3 177 183 156
3 138 195 172
3 196 178 193
3 197 415 416
3 198 191 178
3 186 199 188
3 200 417 418
3 175 201 182
3 198 190 191
3 202 138 132
3 419 420 421
3 194 203 177
3 196 198 178
3 422 204 423
3 424 196 193
3 425 197 416
3 205 198 196
3 184 172 195
3 182 206 189
3 207 204 422
3 199 208 188
3 188 208 165
3 201 206 182
3 183 177 203
3 200 209 417
3 210 189 206
3 211 173 165
3 202 195 138
3 212 203 194
3 213 198 205
3 426 214 424
3 427 199 186
3 428 197 425
3 424 215 196
3 429 419 421
3 216 184 195
3 192 173 426
3 217 179 184
3 196 213 205
3 215 213 196
3 214 215 424
3 430 218 413
3 219 202 132
3 216 217 184
3 173 211 426
3 163 148 94
3 187 413 218
3 208 211 165
3 211 214 426
3 218 220 187
3 221 213 215
3 183 222 163
3 41 219 132
3 431 197 428
3 211 215 214
3 223 187 220
3 175 414 201
3 183 203 222
3 208 224 211
3 225 212 194
3 199 427 208
3 212 222 203
3 202 226 195
3 224 215 211
3 227 432 433
3 228 227 433
3 430 434 218
3 229 201 414
3 230 217 216
3 231 224 208
3 232 215 224
3 232 221 215
3 226 216 195
3 225 222 212
3 233 209 200
3 435 231 427
3 223 436 187
3 427 231 208
3 231 232 224
3 206 201 229
3 222 234 163
3 235 437 415
3 227 438 432
3 197 235 415
3 236 231 435
3 237 197 431
3 232 439 221
3 228 238 227
3 222 225 239
3 234 222 239
3 226 202 219
3 240 232 231
3 223 241 436
3 148 219 41
3 200 242 233
3 243 440 438
3 441 244 225
3 237 245 197
3 246 242 200
3 227 243 438
3 238 247 227
3 244 239 225
3 234 248 163
3 246 200 442
3 249 217 230
3 250 210 206
3 230 216 226
3 443 444 445
3 251 217 249
3 236 240 231
3 248 148 163
3 244 252 239
3 446 434 430
3 435 240 236
3 253 235 197
3 254 240 435
3 447 448 449
3 252 255 239
3 256 206 229
3 247 243 227
3 257 447 449
3 440 256 229
3 239 258 234
3 259 253 197
3 249 230 260
3 260 230 226
3 244 261 252
3 435 262 254
3 247 263 243
3 264 250 206
3 450 451 452
3 258 239 255
3 234 258 248
3 243 256 440
3 256 264 206
3 265 444 443
3 240 266 232
3 267 268 244
3 453 247 238
3 269 244 441
3 454 439 232
3 270 197 245
3 243 263 256
3 271 251 249
3 256 272 264
3 455 269 441
3 273 242 246
3 264 456 250
3 252 261 255
3 274 266 240
3 260 226 219
3 268 261 244
3 269 267 244
3 456 457 458
3 275 459 460
3 262 274 254
3 240 254 274
3 272 256 263
3 276 455 459
3 277 451 450
3 454 232 266
3 461 278 460
3 272 456 264
3 271 249 260
3 269 268 267
3 276 269 455
3 278 275 460
3 279 456 272
3 461 454 278
3 454 266 278
3 266 280 278
3 272 263 247
3 459 275 281
3 275 278 281
3 459 281 276
3 282 258 255
3 280 281 278
3 283 456 279
3 284 272 247
3 453 284 247
3 255 261 268
3 268 269 276
3 255 268 276
3 285 255 276
3 286 282 255
3 274 280 266
3 258 282 248
3 281 287 276
3 283 457 456
3 462 288 446
3 285 286 255
3 287 285 276
3 280 287 281
3 289 260 219
3 290 291 286
3 292 286 285
3 293 294 287
3 293 287 295
3 295 287 280
3 296 295 280
3 294 292 285
3 286 291 282
3 294 285 287
3 295 294 293
3 291 297 282
3 294 286 292
3 273 463 242
3 298 457 283
3 298 283 279
3 299 272 284
3 262 464 274
3 300 279 272
3 294 290 286
3 465 301 466
3 282 297 248
3 301 467 466
3 302 148 248
3 290 297 291
3 468 469 470
3 298 279 303
3 248 297 304
3 305 271 260
3 299 300 272
3 300 303 279
3 288 468 446
3 304 302 248
3 288 469 468
3 296 280 306
3 471 271 305
3 464 307 274
3 289 305 260
3 297 308 304
3 472 297 290
3 309 473 474
3 310 303 300
3 475 311 465
3 312 273 476
3 303 310 313
3 304 314 302
3 477 311 475
3 315 280 274
3 306 280 315
3 316 307 464
3 478 298 303
3 472 317 297
3 318 289 219
3 302 319 148
3 479 309 474
3 273 312 463
3 478 303 313
3 480 481 277
3 299 310 300
3 320 315 274
3 320 274 307
3 321 322 482
3 321 482 323
3 483 479 484
3 315 323 306
3 324 310 299
3 322 325 482
3 288 485 469
3 308 314 304
3 317 308 297
3 326 324 471
3 148 318 219
3 486 317 472
3 321 327 322
3 316 320 307
3 328 316 478
3 328 478 329
3 330 329 478
3 325 331 482
3 326 310 324
3 330 478 313
3 317 314 308
3 332 289 318
3 331 486 482
3 471 305 326
3 333 313 310
3 332 305 289
3 327 325 322
3 328 320 316
3 329 330 328
3 330 313 328
3 320 334 315
3 335 320 328
3 313 335 328
3 336 310 326
3 337 338 148
3 338 339 148
3 331 340 486
3 331 325 340
3 321 323 315
3 317 486 302
3 486 340 302
3 314 317 302
3 341 340 325
3 341 325 327
3 342 341 327
3 342 327 321
3 342 321 315
3 333 335 313
3 336 333 310
3 319 337 148
3 339 318 148
3 334 342 315
3 334 320 335
3 336 326 305
3 332 336 305
3 302 340 319
3 334 335 337
3 335 333 338
3 341 342 319
3 333 336 339
3 332 339 336
3 340 341 319
3 337 335 338
3 333 339 338
3 332 318 339
3 342 337 319
3 337 342 334
3 16 344 3
