ply
format ascii 1.0
comment INFO-3111 Flatenator generated
comment TextureFile Dungeons_Texture_01.png
element vertex 136
property float x
property float y
property float z
element face 164
property list uchar int vertex_indices
end_header
1.54387 1.50432 0.150511 
3.47546 1.45068 0.150511 
3.60851 2.50043 0.128465 
1.44981 2.39832 0.128465 
3.55919 4.87153 2.55447 
3.55446 4.84948 3.65317 
1.43944 4.84948 3.69227 
1.41221 4.87153 2.55447 
1.40742 4.25731 1.97463 
3.53454 4.25012 1.96744 
0 0 -4e-06 
5 0 -4e-06 
4.8173 0.132463 -4e-06 
0.213177 0.161494 -4e-06 
5 2.5 -4e-06 
4.78682 2.5 -4e-06 
0 2.5 -4e-06 
0.138424 2.5 -4e-06 
5 5 2.5 
5 5 5 
4.78682 5 4.7964 
4.78682 5 2.5 
0 5 5 
0.277094 5 4.7561 
0 5 2.5 
0.213179 5 2.5 
0 4.37034 1.87034 
0.248787 4.36988 1.86988 
5 3.57636 1.07636 
4.78682 3.56515 1.06515 
4.66181 0.268682 0.149815 
0.528934 0.232517 0.149815 
0.234333 0.180809 0.040741 
4.76086 2.48233 0.042664 
4.70903 2.15502 0.130768 
0.290966 0.444191 0.147717 
0.290966 2.40821 0.127876 
4.74645 4.92224 4.74811 
4.49234 4.85018 4.70335 
4.70903 4.85275 4.45178 
4.78682 4.359 1.859 
4.70903 4.87212 2.55297 
4.70903 4.28887 1.96972 
4.57086 3.5113 1.19214 
4.70903 2.74007 0.420914 
2.08113 0.931736 0.149815 
4.59582 2.52566 0.127876 
3.93777 2.44703 0.127876 
3.93777 1.0768 0.149815 
1.15012 1.1063 0.149815 
1.06223 2.44703 0.127876 
0.407021 4.87212 2.55297 
0.290966 4.87031 2.73077 
0.251785 4.93653 2.52629 
0.290966 4.71378 2.39462 
3.93777 3.48295 1.1638 
1.26766 1.2312 -0.016209 
2.26411 1.12354 0.060394 
3.8476 1.16358 -0.016209 
3.8476 2.50461 -0.01384 
1.22331 2.50461 -0.01384 
3.93777 4.87212 2.55297 
3.93777 4.85018 3.94974 
3.8476 5.0162 3.87503 
3.78763 5.01383 2.49537 
1.21761 4.85018 3.98651 
1.12844 4.9721 3.89488 
1.1524 5.0162 3.87503 
1.06223 4.85247 3.5661 
1.06223 4.87212 2.55297 
1.1776 5.01383 2.49537 
1.06223 4.29806 1.97891 
1.17177 4.3752 1.85674 
3.82307 3.53079 1.01234 
0.354881 4.85018 4.61943 
0.434805 4.29934 1.98019 
0.895172 4.85018 4.01919 
1.69229 1.0768 0.149815 
2.85667 1.0768 0.149815 
1.48216 3.25322 0.970544 
3.58834 3.41291 1.13023 
0 3.31352 0.813523 
0.163006 3.32209 0.822091 
5 4.35849 1.85849 
3.86619 4.29015 1.971 
1.13498 3.3074 0.988244 
1.26263 3.37111 0.852655 
3.75766 4.36801 1.84955 
0.290966 3.27905 0.959897 
0.528934 0.232517 0.149815 
4.66181 0.268682 0.149815 
4.70903 2.15502 0.130768 
3.93777 2.44703 0.127876 
3.93777 1.0768 0.149815 
1.06223 2.44703 0.127876 
0.290966 4.71378 2.39462 
1.06223 4.87212 2.55297 
1.06223 4.85247 3.5661 
0.290966 4.87031 2.73077 
0.895172 4.85018 4.01919 
0.354881 4.85018 4.61943 
1.21761 4.85018 3.98651 
3.93777 4.87212 2.55297 
4.70903 2.74007 0.420914 
2.08113 0.931736 0.149815 
1.15012 1.1063 0.149815 
2.85667 1.0768 0.149815 
1.69229 1.0768 0.149815 
4.70903 4.85275 4.45178 
4.49234 4.85018 4.70335 
4.70903 4.28887 1.96972 
0.434805 4.29934 1.98019 
1.13498 3.3074 0.988244 
4.57086 3.5113 1.19214 
3.93777 3.48295 1.1638 
0.290966 2.40821 0.127876 
0.290966 3.27905 0.959897 
3.47546 1.45068 0.150511 
1.54387 1.50432 0.150511 
1.44981 2.39832 0.128465 
3.55919 4.87153 2.55447 
1.43944 4.84948 3.69227 
1.41221 4.87153 2.55447 
3.53454 4.25012 1.96744 
1.40742 4.25731 1.97463 
3.58834 3.41291 1.13023 
1.48216 3.25322 0.970544 
3.60851 2.50043 0.128465 
3.55446 4.84948 3.65317 
4.70903 4.87212 2.55297 
4.59582 2.52566 0.127876 
0.290966 0.444191 0.147717 
3.93777 4.85018 3.94974 
1.06223 4.29806 1.97891 
0.407021 4.87212 2.55297 
3.86619 4.29015 1.971 
3 1 3 0
3 4 6 7
3 7 9 4
3 10 12 13
3 14 12 11
3 16 13 17
3 18 20 21
3 19 23 20
3 24 23 22
3 26 25 24
3 14 29 15
3 12 30 31
3 15 33 34
3 13 32 35
3 37 38 39
3 42 43 40
3 45 89 90
3 91 47 48
3 36 49 50
3 51 52 53
3 53 54 51
3 44 55 47
3 56 57 58
3 92 58 93
3 94 56 60
3 61 63 64
3 65 67 63
3 68 70 67
3 69 72 70
3 92 73 59
3 25 53 52
3 27 75 54
3 95 71 96
3 97 76 98
3 99 68 66
3 65 99 66
3 23 74 38
3 100 76 101
3 41 62 102
3 20 37 39
3 33 103 46
3 34 33 46
3 32 31 35
3 77 104 57
3 77 56 105
3 58 78 93
3 90 106 45
3 89 107 49
3 108 109 62
3 57 104 78
3 8 80 9
3 26 82 27
3 40 18 21
3 110 102 84
3 72 85 86
3 87 61 64
3 27 88 75
3 111 112 71
3 28 40 29
3 113 84 55
3 114 87 73
3 79 2 80
3 81 17 82
3 86 94 60
3 82 115 88
3 116 50 112
3 56 117 118
3 59 117 58
3 60 118 119
3 64 5 120
3 63 121 5
3 70 121 67
3 72 122 70
3 87 120 123
3 86 124 72
3 87 125 73
3 86 119 126
3 73 127 59
3 1 2 3
3 4 128 6
3 7 8 9
3 10 11 12
3 14 15 12
3 16 10 13
3 18 19 20
3 19 22 23
3 24 25 23
3 26 27 25
3 14 28 29
3 32 13 31
3 13 12 31
3 30 12 34
3 12 15 34
3 115 17 35
3 17 13 35
3 33 15 103
3 15 29 103
3 40 21 129
3 29 40 43
3 43 103 29
3 40 129 42
3 48 90 91
3 91 130 47
3 36 131 49
3 47 130 44
3 44 113 55
3 92 59 58
3 94 105 56
3 61 132 63
3 63 132 65
3 65 66 67
3 67 66 68
3 68 69 70
3 69 133 72
3 92 114 73
3 74 23 52
3 23 25 52
3 53 25 54
3 25 27 54
3 96 134 95
3 95 111 71
3 76 100 98
3 98 134 96
3 96 97 98
3 37 20 38
3 20 23 38
3 101 62 109
3 109 100 101
3 41 108 62
3 129 21 39
3 21 20 39
3 77 57 56
3 58 57 78
3 90 48 106
3 49 131 89
3 89 45 107
3 8 79 80
3 26 81 82
3 40 83 18
3 110 41 102
3 72 133 85
3 87 135 61
3 27 82 88
3 111 116 112
3 28 83 40
3 113 110 84
3 114 135 87
3 79 3 2
3 81 16 17
3 86 85 94
3 82 17 115
3 116 36 50
3 56 58 117
3 59 127 117
3 60 56 118
3 64 63 5
3 63 67 121
3 70 122 121
3 72 124 122
3 87 64 120
3 86 126 124
3 87 123 125
3 86 60 119
3 73 125 127
