ply
format ascii 1.0
comment INFO-3111 Flatenator generated
comment TextureFile Dungeons_Texture_01.png
element vertex 321
property float x
property float y
property float z
element face 400
property list uchar int vertex_indices
end_header
0.41053 5.02597 0.416276 
-0.414886 5.02597 0.416463 
0.413548 4.71112 0.416486 
-0.025936 4.57753 0.416448 
-0.414906 4.77063 0.415917 
-0.414913 4.57754 0.308522 
-0.228867 4.5811 0.41446 
0.333225 4.57758 0.416383 
0.410568 4.57771 0.339391 
0.328091 4.50721 0.408196 
-0.12833 4.51203 0.400388 
-0.043068 4.06988 0.416513 
-0.12833 4.19441 0.416268 
0.41301 4.51117 0.318677 
0.414932 4.0701 0.4162 
-0.12801 4.07043 0.365518 
0.010593 3.99792 0.403375 
-0.414886 4.00826 0.416463 
0.286404 3.93022 0.416524 
0.413269 3.9945 0.416524 
-0.103737 3.56048 0.415734 
0.410522 3.55982 0.416272 
-0.414944 3.75292 0.41652 
-0.245987 3.56634 0.405057 
0.326656 3.23341 0.411431 
0.414932 3.49345 0.416257 
-0.12833 3.49345 0.416257 
0.382877 3.07994 0.388761 
0.251522 3.0523 0.416524 
-0.12833 3.05239 0.416203 
0.289162 2.99007 0.416439 
-0.414886 2.99007 0.416462 
-0.025944 2.6537 0.41634 
-0.362854 2.69543 0.41143 
0.407608 2.97333 0.413239 
-0.414883 2.54163 0.416451 
-0.125778 2.54163 0.416447 
0.410522 2.54163 0.416267 
-0.058487 2.52475 0.340733 
-0.043434 2.48923 0.345943 
-0.12833 2.47526 0.416256 
0.414932 2.47527 0.416256 
-0.12833 2.15851 0.416267 
-0.026253 2.03376 0.399899 
0.414932 2.03421 0.416199 
-0.123161 2.03778 0.345474 
-0.414944 1.9711 0.416512 
-0.414944 1.52636 0.416512 
-0.04847 1.97279 0.416523 
0.411247 1.97249 0.416523 
-0.025936 1.63841 0.416523 
0.413609 1.77851 0.416523 
0.028927 1.53075 0.399788 
0.34481 1.47678 0.341293 
0.414932 1.41646 0.416359 
-0.12833 1.45983 0.416256 
0.414932 1.01878 0.416199 
-0.12833 1.01878 0.416203 
0.108719 1.026 0.371456 
-0.285275 0.955901 0.416523 
-0.414833 0.780968 0.41634 
0.411201 0.955121 0.416386 
-0.414944 0.508174 0.416512 
-0.003887 0.508021 0.416191 
0.41066 0.508018 0.416451 
0.414932 0.441647 0.416256 
0.175819 0.4431 0.415958 
0.414917 0.1398 0.416271 
-0.042938 0.44257 0.416229 
-0.12833 0.441646 0.416256 
-0.12833 0.000591 0.416203 
0.311745 0.001191 0.4156 
0.342537 4.53471 0.336831 
0.345943 3.51236 0.342496 
-0.048885 2.99053 0.364025 
-0.063248 1.52452 0.363083 
0.34742 1.0164 0.363811 
-0.103867 0.508018 0.364494 
0.414856 0 0.246922 
0.353855 3.03015 0.347116 
0.34758 2.03276 0.364197 
-0.087482 1.46674 0.345936 
0.407646 1.46626 0.339176 
-0.059608 0.995345 0.342857 
-0.414913 0.954732 0.23827 
-0.05965 0.489694 0.34164 
0.347504 0.44907 0.363991 
-0.063351 4.01019 0.363244 
0.345943 4.0577 0.342603 
0.410732 4.00826 -0.181167 
-0.412804 3.56178 0.32377 
-0.043575 3.0294 0.346829 
0.344826 2.52463 0.340702 
-0.054173 2.00749 0.337677 
-0.414944 1.97248 -0.412796 
0.348705 1.97594 0.363243 
0.34893 0.957077 0.363529 
-0.059093 4.52257 0.34224 
-0.043533 3.51373 0.34657 
0.414932 2.47526 -0.126484 
0.364677 1.52427 0.324028 
0.406162 1.52917 0.306374 
0.412788 4.57753 -0.156638 
0.414932 4.51116 -0.126483 
-0.059299 4.05768 -0.0535 
0.414932 3.05176 0.246979 
-0.059265 3.02957 0.144104 
-0.057934 2.48628 -0.052216 
-0.059498 0.465767 -0.053707 
0.414932 3.49344 -0.126483 
0.414932 2.0344 -0.031189 
0.34576 4.52258 -0.053283 
-0.414692 3.55982 -0.412082 
-0.080059 3.55753 0.08254 
0.39994 2.5513 0.026524 
0.412788 3.55982 -0.156634 
0.348732 2.54101 -0.072964 
0.348579 1.97624 -0.072689 
0.348354 4.57518 -0.072284 
0.414932 4.8512 0.079251 
-0.05909 4.52259 -0.053267 
0.344685 4.0134 -0.071052 
0.342724 4.05832 -0.052401 
-0.060966 3.5004 -0.074553 
0.345722 3.53634 -0.052821 
0.330215 3.02945 -0.057095 
0.34597 2.02106 -0.053467 
-0.082382 1.5262 -0.090912 
0.414932 1.01878 -0.126427 
-0.063648 0.957101 -0.072933 
0.363842 0.508018 -0.051498 
-0.12833 4.51116 -0.126475 
0.4133 4.07139 0.009336 
-0.082382 4.00826 -0.090911 
-0.12833 2.03421 -0.126419 
-0.059601 0.995336 -0.05373 
0.411263 0.954778 -0.259201 
0.412067 0.508018 -0.312386 
0.400124 5.0166 0.160089 
-0.082386 4.57753 -0.090911 
0.344616 2.48627 -0.052235 
-0.059315 2.02104 -0.053474 
-0.078262 1.97464 -0.051373 
-0.063595 0.506905 -0.072842 
-0.08017 2.99165 0.125904 
-0.082375 2.54163 -0.090908 
0.380898 4.97011 0.051198 
-0.12833 3.49345 -0.126475 
-0.12833 3.05239 -0.126419 
0.348701 2.99107 -0.072868 
-0.12833 2.47526 -0.126484 
-0.12833 1.45983 -0.126476 
0.414303 1.45955 0.009247 
-0.414875 0.508018 -0.412224 
0.414932 0.441645 -0.126484 
0.310539 5.0219 -0.075602 
0.414932 3.05239 -0.126427 
0.348759 0.957219 -0.07296 
0.34758 3.50039 -0.07455 
-0.059132 3.00738 -0.052715 
-0.060978 1.46663 -0.074657 
0.372162 1.46377 -0.10643 
-0.12833 1.01878 -0.126419 
-0.12833 0.441647 -0.126476 
-0.059349 3.53638 -0.05276 
-0.082378 2.99007 -0.090908 
0.41077 2.99007 -0.259197 
0.414932 2.7938 -0.02718 
0.414932 0.000593 -0.126427 
-0.4147 4.00826 -0.412082 
-0.208004 0.956463 -0.414753 
0.376099 2.55199 -0.076576 
0.414299 1.97464 -0.415867 
0.3302 0.992938 -0.05714 
0.412697 4.98951 -0.091517 
0.348473 1.52446 -0.072445 
-0.12833 4.0701 -0.126418 
-0.05957 3.03152 -0.053703 
-0.414944 4.89232 -0.415175 
0.173607 3.00884 -0.056915 
0.412926 2.15851 -0.12542 
-0.12833 0.000591 -0.126419 
0.32935 4.07037 -0.12638 
0.348251 2.03415 -0.12674 
-0.403172 1.5262 -0.412113 
0.413193 1.5262 -0.414753 
0.414932 0.837922 -0.416512 
0.413055 2.54163 -0.414619 
-0.4147 2.99007 -0.412083 
0.414932 4.59109 -0.416491 
0.414677 2.57605 -0.287498 
0.413059 5.02597 -0.414622 
0.413059 4.00826 -0.414622 
0.129227 0.942248 -0.416519 
-0.414944 0.941069 -0.414955 
0.399799 0.936353 -0.394314 
0.350071 3.55982 -0.41159 
0.15604 0.508018 -0.414433 
0.311195 2.97589 -0.416519 
-0.402885 5.01179 -0.416518 
-0.402885 4.59172 -0.416518 
-0.402885 2.55583 -0.416519 
-0.12833 4.19441 0.416268 
-0.043068 4.06988 0.416513 
0.286404 3.93022 0.416524 
0.413269 3.9945 0.416524 
-0.414886 4.00826 0.416463 
-0.12833 2.47526 0.416256 
0.414932 2.47527 0.416256 
-0.026253 2.03376 0.399899 
-0.12833 2.15851 0.416267 
-0.025936 1.63841 0.416523 
-0.414944 1.52636 0.416512 
0.028927 1.53075 0.399788 
0.414932 1.01878 0.416199 
-0.12833 1.01878 0.416203 
0.414917 0.1398 0.416271 
-0.12833 0.000591 0.416203 
-0.12833 4.51203 0.400388 
0.328091 4.50721 0.408196 
0.41301 4.51117 0.318677 
-0.12833 3.49345 0.416257 
0.414932 3.49345 0.416257 
-0.414886 2.99007 0.416462 
0.289162 2.99007 0.416439 
0.34481 1.47678 0.341293 
-0.12833 1.45983 0.416256 
0.414932 1.41646 0.416359 
-0.003887 0.508021 0.416191 
-0.414944 0.508174 0.416512 
0.251522 3.0523 0.416524 
0.382877 3.07994 0.388761 
0.414932 2.03421 0.416199 
-0.285275 0.955901 0.416523 
0.411201 0.955121 0.416386 
-0.285275 0.955901 0.416523 
-0.414833 0.780968 0.41634 
0.41066 0.508018 0.416451 
0.175819 0.4431 0.415958 
0.414932 0.441647 0.416256 
0.410568 4.57771 0.339391 
0.333225 4.57758 0.416383 
-0.025936 4.57753 0.416448 
0.414932 4.0701 0.4162 
-0.12833 3.05239 0.416203 
0.407608 2.97333 0.413239 
-0.058487 2.52475 0.340733 
0.410522 2.54163 0.416267 
-0.414944 1.9711 0.416512 
-0.04847 1.97279 0.416523 
0.411247 1.97249 0.416523 
-0.412804 3.56178 0.32377 
-0.103737 3.56048 0.415734 
-0.245987 3.56634 0.405057 
0.410522 3.55982 0.416272 
-0.042938 0.44257 0.416229 
0.414932 3.05176 0.246979 
-0.12833 0.441646 0.416256 
0.414932 3.49344 -0.126483 
-0.414944 1.97248 -0.412796 
0.414856 0 0.246922 
0.410732 4.00826 -0.181167 
0.39994 2.5513 0.026524 
-0.414913 4.57754 0.308522 
-0.228867 4.5811 0.41446 
0.412788 4.57753 -0.156638 
0.412788 3.55982 -0.156634 
0.414932 1.01878 -0.126427 
0.414932 4.51116 -0.126483 
-0.414692 3.55982 -0.412082 
0.411263 0.954778 -0.259201 
-0.414883 2.54163 0.416451 
-0.125778 2.54163 0.416447 
0.414932 2.47526 -0.126484 
0.414932 2.0344 -0.031189 
0.407646 1.46626 0.339176 
-0.414913 0.954732 0.23827 
0.412067 0.508018 -0.312386 
-0.12801 4.07043 0.365518 
-0.12833 3.49345 -0.126475 
-0.12833 1.45983 -0.126476 
-0.414913 0.954732 0.23827 
0.414932 0.441645 -0.126484 
0.4133 4.07139 0.009336 
0.414303 1.45955 0.009247 
-0.12833 3.05239 -0.126419 
0.364677 1.52427 0.324028 
-0.12833 1.01878 -0.126419 
-0.12833 0.441647 -0.126476 
0.41077 2.99007 -0.259197 
0.406162 1.52917 0.306374 
-0.12833 4.51116 -0.126475 
-0.12833 4.0701 -0.126418 
0.376099 2.55199 -0.076576 
-0.12833 2.47526 -0.126484 
0.414932 0.000593 -0.126427 
0.414932 3.05239 -0.126427 
-0.12833 2.03421 -0.126419 
0.32935 4.07037 -0.12638 
0.414299 1.97464 -0.415867 
0.372162 1.46377 -0.10643 
-0.4147 4.00826 -0.412082 
0.412926 2.15851 -0.12542 
-0.12833 0.000591 -0.126419 
0.348251 2.03415 -0.12674 
0.413193 1.5262 -0.414753 
-0.414875 0.508018 -0.412224 
0.413059 4.00826 -0.414622 
0.414677 2.57605 -0.287498 
0.413055 2.54163 -0.414619 
0.414932 0.837922 -0.416512 
-0.414944 0.941069 -0.414955 
-0.402885 4.59172 -0.416518 
0.414932 4.59109 -0.416491 
0.350071 3.55982 -0.41159 
-0.4147 2.99007 -0.412083 
0.311195 2.97589 -0.416519 
-0.402885 2.55583 -0.416519 
-0.403172 1.5262 -0.412113 
-0.208004 0.956463 -0.414753 
0.15604 0.508018 -0.414433 
3 0 1 2
3 1 3 2
3 1 4 3
3 4 5 6
3 4 6 3
3 2 3 7
3 2 7 8
3 9 10 11
3 11 10 12
3 13 9 14
3 9 11 14
3 202 15 203
3 16 17 18
3 19 16 18
3 204 20 21
3 205 204 21
3 204 206 22
3 204 22 20
3 20 22 23
3 24 25 26
3 25 24 27
3 24 26 28
3 24 28 27
3 26 29 28
3 30 31 32
3 31 33 32
3 34 30 32
3 33 35 36
3 37 34 32
3 32 33 36
3 32 36 38
3 32 38 37
3 39 40 41
3 207 42 208
3 208 42 43
3 208 43 44
3 209 210 45
3 46 47 48
3 48 51 49
3 50 48 47
3 51 50 52
3 211 212 213
3 53 51 52
3 54 55 56
3 55 57 56
3 214 215 58
3 59 60 61
3 60 62 61
3 61 63 64
3 63 61 62
3 65 66 67
3 68 69 70
3 66 68 70
3 67 66 70
3 216 217 71
3 1 5 4
3 72 218 219
3 220 72 219
3 73 221 222
3 74 223 224
3 75 213 212
3 225 226 227
3 76 214 58
3 77 228 229
3 217 78 71
3 230 79 231
3 209 80 232
3 225 81 226
3 82 225 227
3 83 233 234
3 235 84 236
3 85 237 228
3 86 238 239
3 240 241 242
3 15 243 203
3 87 17 16
3 88 87 16
3 88 16 19
3 89 88 19
3 90 23 22
3 91 230 244
3 91 79 230
3 79 224 245
3 246 92 247
3 45 93 209
3 93 80 209
3 94 248 249
3 95 249 250
3 96 83 234
3 77 85 228
3 242 97 72
3 240 242 72
3 218 72 97
3 243 15 88
3 15 87 88
3 251 252 253
3 254 252 73
3 73 252 98
3 221 73 98
3 74 224 91
3 224 79 91
3 33 31 35
3 92 246 39
3 92 39 41
3 208 44 99
3 249 95 93
3 95 80 93
3 213 75 225
3 100 51 53
3 100 101 51
3 225 75 81
3 58 215 83
3 76 58 83
3 76 83 96
3 237 85 86
3 255 238 85
3 238 86 85
3 216 71 78
3 102 2 8
3 103 13 14
3 15 104 87
3 25 27 105
3 79 256 231
3 91 106 74
3 246 107 39
3 40 39 107
3 108 257 255
3 108 255 85
3 109 73 222
3 258 25 105
3 80 110 232
3 46 259 47
3 65 67 260
3 220 111 72
3 22 112 90
3 251 113 252
3 92 114 247
3 206 112 22
3 261 205 115
3 115 205 21
3 34 37 262
3 116 92 41
3 117 95 250
3 0 2 102
3 263 242 264
3 72 118 240
3 0 102 119
3 72 111 118
3 118 265 240
3 218 97 120
3 121 122 88
3 89 121 88
3 113 123 252
3 254 73 124
3 124 266 254
3 252 123 98
3 79 125 256
3 126 80 95
3 117 126 95
3 212 127 75
3 127 81 75
3 128 54 56
3 76 267 214
3 83 129 233
3 237 86 130
3 220 268 111
3 10 131 12
3 122 132 88
3 132 243 88
3 133 17 87
3 133 87 104
3 269 113 251
3 45 134 93
3 215 135 83
3 136 96 234
3 270 61 137
3 138 0 119
3 139 242 263
3 242 139 97
3 271 246 272
3 116 41 140
3 273 140 41
3 99 44 274
3 134 141 93
3 142 249 93
3 77 143 85
3 144 223 74
3 271 145 246
3 116 114 92
3 142 94 249
3 275 54 128
3 129 276 233
3 229 143 77
3 138 1 0
3 139 120 97
3 210 134 45
3 61 64 137
3 277 237 130
3 138 119 146
3 12 131 278
3 98 147 221
3 26 279 148
3 245 149 79
3 207 150 42
3 81 151 226
3 152 275 128
3 55 280 57
3 60 281 153
3 60 153 62
3 154 86 239
3 282 65 260
3 155 1 138
3 103 14 283
3 26 148 29
3 244 106 91
3 125 156 256
3 125 79 149
3 284 225 82
3 136 157 96
3 124 73 158
3 109 158 73
3 285 106 244
3 106 159 74
3 144 74 159
3 141 142 93
3 127 160 81
3 286 225 161
3 284 161 225
3 280 162 57
3 287 135 215
3 135 129 83
3 163 257 108
3 69 288 70
3 269 164 113
3 113 164 123
3 165 223 144
3 166 34 167
3 262 167 34
3 246 145 107
3 85 143 108
3 217 168 78
3 146 155 138
3 206 169 112
3 165 144 159
3 289 149 245
3 170 276 129
3 123 147 98
3 116 171 114
3 172 51 101
3 157 173 96
3 174 146 119
3 175 290 286
3 120 291 218
3 131 176 278
3 292 104 15
3 106 177 159
3 126 110 80
3 49 51 172
3 76 173 267
3 1 178 5
3 174 119 102
3 106 285 177
3 167 262 293
3 107 294 40
3 175 286 161
3 160 151 81
3 96 173 76
3 130 86 154
3 295 282 260
3 139 118 120
3 118 111 120
3 104 122 121
3 133 104 121
3 124 158 164
3 158 123 164
3 258 105 296
3 177 156 125
3 177 179 159
3 177 125 179
3 125 149 179
3 165 159 179
3 165 179 149
3 145 116 107
3 116 140 107
3 273 107 140
3 99 274 180
3 297 42 150
3 141 126 142
3 126 117 142
3 127 175 160
3 160 175 161
3 287 267 135
3 267 173 135
3 135 173 129
3 157 129 173
3 143 130 108
3 130 154 108
3 288 181 70
3 174 155 146
3 103 283 182
3 298 132 122
3 109 123 158
3 141 183 126
3 183 110 126
3 250 299 117
3 128 300 152
3 265 118 139
3 292 122 104
3 292 298 122
3 301 133 121
3 89 301 121
3 269 266 164
3 266 124 164
3 109 147 123
3 273 294 107
3 302 110 183
3 299 142 117
3 185 127 184
3 185 290 175
3 151 160 161
3 170 129 157
3 136 170 157
3 186 270 137
3 143 277 130
3 303 168 217
3 268 291 120
3 268 120 111
3 285 156 177
3 187 166 167
3 31 188 35
3 134 183 141
3 154 163 108
3 174 102 189
3 131 103 182
3 131 182 176
3 279 258 148
3 148 258 296
3 289 165 149
3 190 167 293
3 297 150 99
3 99 180 304
3 99 304 297
3 172 101 305
3 212 184 127
3 280 300 128
3 280 128 162
3 306 143 229
3 282 295 288
3 288 295 181
3 187 167 190
3 191 1 155
3 192 261 115
3 174 191 155
3 191 174 189
3 307 301 89
3 308 171 116
3 309 308 116
3 136 193 170
3 281 194 153
3 195 136 310
3 192 115 196
3 143 197 277
3 198 165 289
3 299 94 142
3 170 311 276
3 195 193 136
3 191 199 1
3 1 199 178
3 5 178 200
3 312 139 263
3 312 265 139
3 312 313 265
3 301 17 133
3 269 314 266
3 315 223 165
3 198 315 165
3 316 166 187
3 188 201 35
3 317 145 271
3 317 116 145
3 317 309 116
3 47 259 318
3 197 143 306
3 199 191 178
3 191 189 178
3 178 189 200
3 169 192 112
3 192 196 112
3 188 316 187
3 188 187 201
3 259 172 318
3 172 305 318
3 319 153 194
3 193 195 310
3 153 319 320
3 193 310 170
3 319 186 320
3 186 137 320
3 48 50 51
3 185 175 127
