ply
format ascii 1.0
comment VCGLIB generated
comment TextureFile Dungeons_Texture_01.png
element vertex 316
property float x
property float y
property float z
property float nx
property float ny
property float nz
property uchar red
property uchar green
property uchar blue
property uchar alpha
property float texture_u
property float texture_v
element face 290
property list uchar int vertex_indices
end_header
4.945864 -0.00158 4.945875 0.8038344 -0.5948532 0 95 84 71 255 0.037179 0.278335
0.054136 -0.00158 4.945875 -0.7640483 -0.6451453 -0.004225898 95 84 71 255 0.037179 0.278335
4.945864 -0.001579 0.054146 0.8038344 -0.5948532 0 95 84 71 255 0.037179 0.278335
0.054136 -0.001579 0.054146 -0.8038164 -0.5948775 0 95 84 71 255 0.037179 0.278335
2.626345 -0.00158 4.945875 1.678339e-05 -1 -8.180336e-08 95 84 71 255 0.037179 0.278335
2.626345 -0.001579 0.054146 0.4106242 -0.9115974 -0.01943956 95 84 71 255 0.037179 0.278335
1.440034 -0.00158 4.945875 -0.4106733 -0.9117504 0.0076612 95 84 71 255 0.037179 0.278335
1.440034 -0.001579 0.054146 0.1085881 -0.9940249 0.01110203 95 84 71 255 0.037179 0.278335
3.949186 -0.00158 4.945875 -0.18661 -0.9824179 -0.005640134 95 84 71 255 0.037179 0.278335
3.949186 -0.001579 0.054146 -0.38658 -0.9222556 -0.0007578789 95 84 71 255 0.037179 0.278335
0.570216 -0.00158 4.945875 0.3577349 -0.9338077 -0.005379873 95 84 71 255 0.037179 0.278335
0.570216 -0.001579 0.054146 0.4106784 -0.9117202 -0.01046557 95 84 71 255 0.037179 0.278335
1.888534 -0.00158 4.945875 -0.00680609 -0.9998543 -0.01565959 95 84 71 255 0.037179 0.278335
1.888534 -0.001579 0.054146 0.1690094 -0.9856079 0.003596735 95 84 71 255 0.037179 0.278335
3.111466 -0.00158 4.945875 -0.07651458 -0.9968719 -0.01979555 95 84 71 255 0.037179 0.278335
3.111466 -0.001579 0.054146 0.2378683 -0.9712504 0.009564376 95 84 71 255 0.037179 0.278335
4.334398 -0.00158 4.945875 0.5016554 -0.8643397 0.0354804 95 84 71 255 0.037179 0.278335
4.334398 -0.001579 0.054146 0.3866288 -0.9222346 -0.001232219 95 84 71 255 0.037179 0.278335
0.509129 -0.084128 4.945875 0.8037877 -0.5948174 -0.01084518 123 106 90 255 0.037179 0.278335
0.509129 -0.084127 0.054146 0 -1 0 123 106 90 255 0.036449 0.299488
0.115227 -0.084128 4.945875 0.005348703 -0.9998544 -0.01620343 123 106 90 255 0.036449 0.299488
0.115227 -0.084127 0.054146 0 -1 0 95 84 71 255 0.036449 0.299488
1.827447 -0.084128 4.945875 0.8022448 -0.5936746 -0.06287976 123 106 90 255 0.037179 0.278335
1.827447 -0.084127 0.054146 0 -0.9986867 0.05123365 95 84 71 255 0.036449 0.299488
1.501125 -0.084128 4.945875 -0.8037263 -0.5948103 0.01499369 123 106 90 255 0.037179 0.278335
1.501125 -0.084127 0.054146 0.02531976 -0.9987655 0.04273596 123 106 90 255 0.036449 0.299488
3.050379 -0.084128 4.945875 0.8662246 -0.4975722 -0.04557284 123 106 90 255 0.037179 0.278335
3.050379 -0.084127 0.054146 0.8036711 -0.59473 0.02022489 123 106 90 255 0.037179 0.278335
2.687436 -0.084128 4.945875 0.01105843 -0.9992535 0.03701518 95 84 71 255 0.038169 0.303526
2.687436 -0.084127 0.054146 0.005131262 -0.999454 0.03264027 95 84 71 255 0.038169 0.303526
4.273311 -0.084128 4.945875 0.8023778 -0.5937706 0.06021922 123 106 90 255 0.037179 0.278335
4.273311 -0.084127 0.054146 0 -0.9999717 0.007518009 95 84 71 255 0.038169 0.303526
4.010277 -0.084128 4.945875 0.007349352 -0.9987372 0.04969862 123 106 90 255 0.038169 0.303526
4.010277 -0.084127 0.054146 0.003161966 -0.9999717 0.006825713 123 106 90 255 0.038169 0.303526
4.884777 -0.084128 4.945875 0.8038344 -0.5948532 0 95 84 71 255 0.037179 0.278335
4.395489 -0.084128 4.945875 -0.8033888 -0.5945582 -0.03266563 95 84 71 255 0.037179 0.278335
4.395489 -0.084127 0.054146 -0.823335 -0.5675365 0.004664987 95 84 71 255 0.037179 0.278335
4.884777 -0.084127 0.054146 0.003627207 -0.9999546 -0.008814847 95 84 71 255 0.038169 0.277155
2.565258 -0.084128 4.945875 0.8038383 -0.5948352 -0.003909012 95 84 71 255 0.037179 0.278335
2.565258 -0.084127 0.054146 0.8032541 -0.5944214 -0.03802725 95 84 71 255 0.037179 0.278335
1.949625 -0.084128 4.945875 -0.8036489 -0.5947542 0.02039267 123 106 90 255 0.037179 0.278335
1.949625 -0.084127 0.054146 -0.8030373 -0.5942963 0.04408 95 84 71 255 0.037179 0.278335
1.378947 -0.084128 4.945875 0.8037447 -0.5947856 -0.01499167 95 84 71 255 0.037179 0.278335
1.378947 -0.084127 0.054146 0.8037636 -0.5947996 -0.01332577 95 84 71 255 0.037179 0.278335
0.631307 -0.084128 4.945875 -0.7065952 -0.7074664 -0.01465368 95 84 71 255 0.037179 0.278335
0.631307 -0.084127 0.054146 -0.8403261 -0.5417794 0.01808797 95 84 71 255 0.037179 0.278335
3.888099 -0.084128 4.945875 0.8038313 -0.594851 0.002756365 95 84 71 255 0.037179 0.278335
3.888099 -0.084127 0.054146 0.8038323 -0.5948318 0.005370444 95 84 71 255 0.037179 0.278335
3.172557 -0.084128 4.945875 -0.803745 -0.5948264 -0.01325654 123 106 90 255 0.037179 0.278335
3.172557 -0.084127 0.054146 -0.8038155 -0.5948787 0 123 106 90 255 0.037179 0.278335
4.945864 -0.00158 3.609092 0.8038344 -0.5948532 -1.080369e-07 95 84 71 255 0.037179 0.278335
4.884777 -0.084128 3.609092 0.8169517 -0.5767049 0.001252635 95 84 71 255 0.037179 0.278335
4.448219 -0.084128 3.649009 -0.001195866 -0.9999944 0.003128514 95 84 71 255 0.038169 0.277155
4.387129 -0.00158 3.649009 -0.1700047 -0.985395 -0.009760614 95 84 71 255 0.037179 0.278335
4.326046 -0.144392 3.649009 0.8860212 -0.4630558 0.02336242 123 106 90 255 0.037179 0.278335
4.122527 -0.144392 3.718218 0.0005771426 -0.9998488 0.01737754 123 106 90 255 0.038169 0.303526
3.993352 -0.00158 3.738132 -0.5203665 -0.8539397 0.002404763 95 84 71 255 0.037179 0.278335
3.932265 -0.030042 3.738132 0.6325833 -0.7744922 0.0005126889 95 84 71 255 0.037179 0.278335
3.16045 -0.036794 3.556036 -0.522931 -0.852375 0.0003481179 95 84 71 255 0.037179 0.278335
3.018209 -0.012837 3.556036 0.5712049 -0.8207675 -0.008117169 95 84 71 255 0.037179 0.278335
2.966795 -0.13252 3.556036 0.9187516 -0.3946818 -0.01103414 123 106 90 255 0.037179 0.278335
2.708975 -0.143778 3.41469 0.02017829 -0.9992418 -0.03329654 95 84 71 255 0.038169 0.303526
2.618897 -0.00158 3.41469 0.1756311 -0.9843734 0.01276012 95 84 71 255 0.037179 0.278335
2.557814 -0.084128 3.41469 0.8036407 -0.5946704 0.02299272 95 84 71 255 0.037179 0.278335
1.915704 -0.084128 3.609092 -0.7464708 -0.6653939 -0.005686592 123 106 90 255 0.037179 0.278335
1.827417 -0.00158 3.609092 0.2039116 -0.9789533 -0.008402537 95 84 71 255 0.037179 0.278335
1.698731 -0.084128 3.650537 0.5356389 -0.8442471 -0.01837708 123 106 90 255 0.037179 0.278335
1.476187 -0.084128 3.609092 -0.7202984 -0.693459 -0.01687706 123 106 90 255 0.037179 0.278335
1.4151 -0.00158 3.609092 0.3603794 -0.9328058 -0.0001882495 95 84 71 255 0.037179 0.278335
1.354013 -0.084128 3.609092 0.8038279 -0.5948471 0.004204979 95 84 71 255 0.037179 0.278335
0.68206 -0.084128 3.906319 -0.7011735 -0.7128736 -0.01292669 95 84 71 255 0.037179 0.278335
0.570216 -0.00158 3.906319 0.06074087 -0.9981533 0.000801415 95 84 71 255 0.037179 0.278335
0.509129 -0.065174 3.906319 0.7500921 -0.6613123 0.005273615 123 106 90 255 0.037179 0.278335
0.115227 -0.065174 3.609092 -0.001019023 -0.9999974 0.002037442 95 84 71 255 0.036449 0.299488
0.054136 -0.00158 3.609092 -0.7211564 -0.6927723 -1.877345e-07 95 84 71 255 0.037179 0.278335
4.945864 -0.001579 1.773738 0.8233613 -0.5675176 -6.341305e-05 95 84 71 255 0.037179 0.278335
4.884777 -0.096906 1.773738 0.0008236729 -0.9999983 0.001694373 95 84 71 255 0.038169 0.277155
4.406778 -0.096906 1.307102 0.0006114764 -0.9999917 -0.004026009 95 84 71 255 0.038169 0.277155
4.345687 -0.001579 1.307102 -0.3067559 -0.9517875 0.001199858 95 84 71 255 0.037179 0.278335
4.284605 -0.074707 1.307102 -0.01084547 -0.9998203 -0.0155485 123 106 90 255 0.038169 0.303526
3.999943 -0.074707 1.600608 -0.7798641 -0.6259429 -0.002737961 123 106 90 255 0.037179 0.278335
3.938852 -0.001579 1.600608 0.08855942 -0.9960676 0.002548748 95 84 71 255 0.037179 0.278335
3.877769 -0.084127 1.600608 0.8038533 -0.5948277 -3.697428e-05 95 84 71 255 0.037179 0.278335
3.172557 -0.084127 1.773738 -0.8038048 -0.5948707 0.005168819 123 106 90 255 0.037179 0.278335
3.111466 -0.001579 1.773738 -0.1741465 -0.9847198 9.321278e-05 95 84 71 255 0.037179 0.278335
2.978659 -0.025649 1.795063 0.009337191 -0.9991102 -0.04113035 123 106 90 255 0.038169 0.303526
2.774505 -0.025649 1.893336 -0.003585098 -0.9999851 -0.004117651 123 106 90 255 0.038169 0.303526
2.713415 -0.001579 1.893336 -0.1819016 -0.9832637 -0.01021129 95 84 71 255 0.037179 0.278335
2.652328 -0.084127 1.893336 0.8038258 -0.5948352 0.005930761 95 84 71 255 0.037179 0.278335
2.018317 -0.084127 1.305567 -0.8038142 -0.5948661 0.004151018 123 106 90 255 0.037179 0.278335
1.957227 -0.001579 1.305567 -0.3252882 -0.9456006 0.005207815 95 84 71 255 0.037179 0.278335
1.89614 -0.023775 1.230575 0.003502104 -0.9999937 0.0005467834 123 106 90 255 0.036449 0.299488
1.579771 -0.023775 1.698745 -0.5268487 -0.8499164 0.008522679 123 106 90 255 0.037179 0.278335
1.518681 -0.001579 1.773738 -0.06050222 -0.9979966 -0.01850353 95 84 71 255 0.037179 0.278335
1.387382 -0.111254 1.773738 0.7276022 -0.6859861 0.004262293 95 84 71 255 0.037179 0.278335
0.68197 -0.111254 2.042248 -0.8735611 -0.4865817 0.01137215 95 84 71 255 0.037179 0.278335
0.62088 -0.001579 2.042248 -0.3962388 -0.9181182 0.007332771 95 84 71 255 0.037179 0.278335
0.559793 -0.084127 2.042248 0.7843797 -0.6202783 0.001882528 123 106 90 255 0.037179 0.278335
0.115227 -0.084127 1.773738 -0.002078914 -0.9999919 0.003442012 123 106 90 255 0.036449 0.299488
0.054136 -0.001579 1.773738 -0.7843584 -0.620306 0.00153802 95 84 71 255 0.037179 0.278335
1.75229 -0.084128 3.986992 0.6708402 -0.7392194 -0.05939844 123 106 90 255 0.037179 0.278335
1.766935 -0.069916 3.092538 0.5033388 -0.8636652 0.02706323 95 84 71 255 0.037179 0.278335
3.050379 -0.037144 1.435721 0.009095025 -0.9993957 0.033548 95 84 71 255 0.038169 0.303526
3.033674 -0.047011 2.130019 0.6076614 -0.7940323 -0.016131 123 106 90 255 0.037179 0.278335
4.043675 -0.1297 4.032539 -0.8236783 -0.5634932 -0.06347834 95 84 71 255 0.037179 0.278335
4.046859 -0.134698 3.440815 -0.02524258 -0.9992036 -0.03090601 95 84 71 255 0.038169 0.303526
5 -0.192679 5 0.7071068 -3.674835e-05 0.7071068 72 64 55 255 0.037908 0.253536
0 -0.192679 5 0 -1 0 72 64 55 255 0.037908 0.279064
5 -0.192678 1e-05 0 -1 0 95 84 71 255 0.037908 0.279064
0 -0.192678 1e-05 -0.7071068 0 -0.7071068 72 64 55 255 0.037908 0.253536
4.71463 -0.192679 4.713818 0 -1 0 95 84 71 255 0.037908 0.279064
0.278095 -0.192679 4.729713 0 -1 0 95 84 71 255 0.037908 0.279064
0.287106 -0.192678 0.305597 0 -1 0 95 84 71 255 0.037908 0.279064
4.722679 -0.192678 0.286518 -0.6650988 -0.3022062 0.6828725 72 64 55 255 0.037908 0.253536
4.671432 1e-06 4.67062 -0.6679879 -0.2912324 -0.6848181 72 64 55 255 0.037908 0.253536
0.321297 1e-06 4.686515 0.6567736 -0.2952425 -0.6938878 72 64 55 255 0.037908 0.253536
0.330303 2e-06 0.348795 0.6544886 -0.2913055 0.6977004 72 64 55 255 0.037908 0.253536
4.679482 2e-06 0.329716 -0.6667082 -0.2941137 0.6848339 72 64 55 255 0.037908 0.253536
5 1e-06 5.00001 0.7071068 -3.674835e-05 0.7071068 72 64 55 255 0.037908 0.253536
0 1e-06 5.00001 -0.7071068 -3.674835e-05 0.7071068 72 64 55 255 0.037908 0.253536
5 2e-06 1e-05 0.7071068 0 -0.7071068 72 64 55 255 0.037908 0.253536
0 2e-06 1e-05 -0.7071068 0 -0.7071068 72 64 55 255 0.037908 0.253536
0.253983 1e-06 4.241727 0.9736018 -0.2230067 -0.04865913 72 64 55 255 0.037908 0.253536
0.210785 -0.192679 4.260455 -4.6279e-09 -1 -1.863922e-07 95 84 71 255 0.037908 0.279064
0 -0.192679 4.360083 -4.29149e-08 -1 -9.079596e-08 72 64 55 255 0.037908 0.279064
0 1e-06 4.351841 -1 0 0 72 64 55 255 0.037908 0.253536
0 2e-06 0.701787 -1 0 0 72 64 55 255 0.037908 0.253536
0 -0.192678 0.694803 -3.470925e-09 -1 -1.397941e-07 95 84 71 255 0.037908 0.279064
0.210785 -0.192678 0.779224 5.74305e-08 -1 -1.433943e-07 72 64 55 255 0.037908 0.279064
0.253983 2e-06 0.795094 0.9709962 -0.2244739 0.08232842 72 64 55 255 0.037908 0.253536
4.746017 2e-06 0.761985 -0.9716656 -0.2243931 0.07425398 72 64 55 255 0.037908 0.253536
4.789219 -0.192678 0.74504 -6.140755e-08 -1 -1.435939e-07 95 84 71 255 0.037908 0.279064
5 -0.192678 0.6549 3.735927e-09 -1 -1.397439e-07 72 64 55 255 0.037908 0.279064
5 2e-06 0.662357 1 0 0 72 64 55 255 0.037908 0.253536
5 1e-06 4.319433 1 0 0 72 64 55 255 0.037908 0.253536
5 -0.192679 4.328271 1 0 0 95 84 71 255 0.037908 0.253536
4.789219 -0.192679 4.221434 4.981236e-09 -1 -1.863252e-07 72 64 55 255 0.037908 0.279064
4.746017 1e-06 4.20135 -0.9733528 -0.2235611 -0.05103789 72 64 55 255 0.037908 0.253536
4.154053 2e-06 1e-05 0 0 -1 72 64 55 255 0.037908 0.253536
4.160065 -0.192678 1e-05 0 0 -1 95 84 71 255 0.037908 0.253536
4.119995 -0.192678 0.10774 0 -1 0 95 84 71 255 0.037908 0.279064
4.073753 2e-06 0.253997 -0.06730524 -0.4269834 0.9017512 72 64 55 255 0.037908 0.253536
1.241737 2e-06 0.253997 0.03363889 -0.221057 0.9746806 72 64 55 255 0.037908 0.253536
1.2272 -0.192678 0.210799 0.06615415 -0.2276329 0.9714972 95 84 71 255 0.037908 0.253536
1.14986 -0.192678 1e-05 0 -1 0 72 64 55 255 0.037908 0.279064
1.156258 2e-06 1e-05 0 0 -1 72 64 55 255 0.037908 0.253536
0.954239 1e-06 4.746024 0.0591985 -0.3879343 -0.919784 72 64 55 255 0.037908 0.253536
0.896095 -0.192679 4.866198 0 -1 0 95 84 71 255 0.037908 0.279064
0.822163 -0.192679 5 0 -5.197e-05 1 72 64 55 255 0.037908 0.253536
0.83136 1e-06 5.00001 0 -5.197e-05 1 72 64 55 255 0.037908 0.253536
4.110241 1e-06 4.746024 -0.04333589 -0.221162 -0.9742737 72 64 55 255 0.037908 0.253536
4.122406 -0.192679 4.789222 -0.08424663 -0.2293099 -0.9697008 95 84 71 255 0.037908 0.253536
4.187115 -0.192679 5 0 -1 0 72 64 55 255 0.037908 0.279064
4.181763 1e-06 5.00001 0 -5.197e-05 1 72 64 55 255 0.037908 0.253536
0.63496 -0.192679 4.762123 0.1648669 -0.3535928 -0.9207557 72 64 55 255 0.037908 0.253536
1.294025 -0.192679 4.789222 -0.05605696 -0.3115214 -0.9485842 95 84 71 255 0.037908 0.253536
4.426613 -0.192678 0.251229 -0.1950009 -0.3761652 0.9058005 72 64 55 255 0.037908 0.253536
3.696495 -0.192678 0.210799 0 -1 0 72 64 55 255 0.037908 0.279064
2.269263 -0.001579 0.054146 0.4801523 -0.8768461 -0.02438902 95 84 71 255 0.038227 0.278965
2.348063 -0.001579 1.628849 0.00904877 -0.999621 0.02600228 95 84 71 255 0.038227 0.278965
2.252942 -0.00158 3.502168 -0.4855767 -0.8741355 -0.01012366 95 84 71 255 0.038227 0.278965
2.269263 -0.00158 4.945875 0.4931717 -0.8699226 -0.00405033 95 84 71 255 0.038227 0.278965
2.218423 -0.084128 4.945875 0.8514474 -0.5243943 -0.006928658 123 106 90 255 0.038227 0.278965
2.206839 -0.084128 3.522367 0.8581961 -0.5130621 0.01633304 123 106 90 255 0.038227 0.278965
2.295314 -0.084127 1.567777 0.8460927 -0.5327901 -0.016186 123 106 90 255 0.038227 0.278965
2.218423 -0.084127 0.054146 0.8506724 -0.5239171 -0.04321345 123 106 90 255 0.038227 0.278965
2.320141 -0.084127 0.054146 -0.8530751 -0.5200636 0.04238876 95 84 71 255 0.038227 0.278965
2.400852 -0.084127 1.689968 -0.8546971 -0.518863 -0.01655987 95 84 71 255 0.038227 0.278965
2.299081 -0.084128 3.481954 -0.8746876 -0.4843286 -0.01864308 95 84 71 255 0.038227 0.278965
2.320141 -0.084128 4.945875 -0.8615613 -0.5075325 0.01108276 95 84 71 255 0.038227 0.278965
0.995363 -0.001579 0.054146 -0.397545 -0.9175342 -0.009433217 95 84 71 255 0.038227 0.278965
0.983068 -0.001579 1.920446 0.07465308 -0.9971775 0.007998202 95 84 71 255 0.038227 0.278965
1.02798 -0.00158 3.616725 0.1182049 -0.9929438 -0.009497735 95 84 71 255 0.038227 0.278965
0.995363 -0.00158 4.945875 0.5302247 -0.8477083 0.0158877 95 84 71 255 0.038227 0.278965
0.946435 -0.084128 4.945875 0.8599384 -0.5097045 0.02659374 95 84 71 255 0.038227 0.278965
0.98662 -0.084128 3.646447 0.8834256 -0.4684609 0.01018298 95 84 71 255 0.038227 0.278965
0.938362 -0.111254 1.947297 0.9143069 -0.4047561 -0.01467806 95 84 71 255 0.038227 0.278965
0.946435 -0.084127 0.054146 0.8955078 -0.4450409 0.002106888 95 84 71 255 0.038227 0.278965
1.069331 -0.084127 0.054146 -0.7446366 -0.6672399 -0.01753254 95 84 71 255 0.038227 0.278965
1.050652 -0.111254 1.879854 -0.8173164 -0.5761865 0.001778437 95 84 71 255 0.038227 0.278965
1.090506 -0.084128 3.571792 -0.8135219 -0.5814028 0.01237467 95 84 71 255 0.038227 0.278965
1.069331 -0.084128 4.945875 -0.7732101 -0.6339649 -0.01531765 95 84 71 255 0.038227 0.278965
3.536661 -0.001579 0.054146 -0.5327554 -0.8462669 -0.002031218 95 84 71 255 0.038227 0.278965
3.531433 -0.001579 1.686119 0.4218892 -0.9066424 0.003030054 95 84 71 255 0.038227 0.278965
3.553033 -0.00158 3.648192 0.01218881 -0.9999226 0.002478522 95 84 71 255 0.038227 0.278965
3.536661 -0.00158 4.945875 -0.2839643 -0.9587059 -0.01572578 95 84 71 255 0.038227 0.278965
3.493534 -0.084128 4.945875 0.7478098 -0.6638656 -0.007942479 123 106 90 255 0.038227 0.278965
3.504946 -0.033972 3.632142 0.6910025 -0.7227876 -0.009670012 123 106 90 255 0.038227 0.278965
3.489217 -0.084127 1.701379 0.001974408 -0.9999607 0.00864046 123 106 90 255 0.036449 0.299488
3.493534 -0.084127 0.054146 0.8884206 -0.4590231 0.00258654 95 84 71 255 0.038227 0.278965
3.580888 -0.084127 0.054146 -0.8814529 -0.4722601 -0.003360372 95 84 71 255 0.038227 0.278965
3.574726 -0.084127 1.67047 -0.8183269 -0.5746922 0.008375326 95 84 71 255 0.038227 0.278965
3.602346 -0.032767 3.664652 -0.6713052 -0.741171 -0.003865886 95 84 71 255 0.038227 0.278965
3.580888 -0.084128 4.945875 -0.8809579 -0.4719949 -0.03367535 95 84 71 255 0.038227 0.278965
0.509129 -0.084127 0.054146 0.8036664 -0.5947277 -0.02048032 123 106 90 255 0.037179 0.278335
0.115227 -0.084127 0.054146 -0.8038164 -0.5948775 0 95 84 71 255 0.037179 0.278335
0.115227 -0.084127 1.773738 -0.8038126 -0.5948747 0.003071493 123 106 90 255 0.037179 0.278335
1.89614 -0.023775 1.230575 0.5215456 -0.8531328 -0.01244093 123 106 90 255 0.037179 0.278335
1.827447 -0.084127 0.054146 0.8037271 -0.5947715 -0.0164181 95 84 71 255 0.037179 0.278335
1.501125 -0.084127 0.054146 -0.8023607 -0.5937997 0.06016026 123 106 90 255 0.037179 0.278335
3.050379 -0.037144 1.435721 0.522521 -0.8520564 0.03117057 95 84 71 255 0.037179 0.278335
2.687436 -0.084127 0.054146 -0.6082165 -0.7925417 0.04416263 95 84 71 255 0.037179 0.278335
2.774505 -0.025649 1.893336 -0.3665038 -0.9301918 -0.02045036 123 106 90 255 0.037179 0.278335
4.284605 -0.074707 1.307102 0.8203987 -0.5716463 -0.0129008 123 106 90 255 0.037179 0.278335
4.273311 -0.084127 0.054146 0.8038335 -0.5948479 -0.002773393 95 84 71 255 0.037179 0.278335
4.010277 -0.084127 0.054146 -0.8038164 -0.5948747 -0.001747693 123 106 90 255 0.037179 0.278335
4.406778 -0.096906 1.307102 -0.8295983 -0.5582426 0.01148819 95 84 71 255 0.037179 0.278335
4.884777 -0.084127 0.054146 0.8233596 -0.5675164 -0.002005897 95 84 71 255 0.037179 0.278335
4.884777 -0.084128 4.945875 0 -1 0 95 84 71 255 0.038169 0.277155
4.884777 -0.084128 3.609092 0.0003182883 -0.9999939 0.003481008 95 84 71 255 0.038169 0.277155
4.273311 -0.084128 4.945875 0.008002315 -0.998813 0.0480475 123 106 90 255 0.038169 0.303526
4.010277 -0.084128 4.945875 -0.8038177 -0.5948756 0.0002886708 123 106 90 255 0.037179 0.278335
2.966795 -0.13252 3.556036 0.02013425 -0.9997293 -0.01165893 123 106 90 255 0.038169 0.303526
2.687436 -0.084128 4.945875 -0.8248149 -0.5653661 0.006440937 95 84 71 255 0.037179 0.278335
0.509129 -0.065174 3.906319 0.001060071 -0.9999714 -0.007482091 123 106 90 255 0.036449 0.299488
0.115227 -0.065174 3.609092 -0.7640551 -0.6451507 -0.000574131 95 84 71 255 0.037179 0.278335
0.115227 -0.084128 4.945875 -0.8037878 -0.5948563 -0.008434358 123 106 90 255 0.037179 0.278335
4.884777 -0.096906 1.773738 0.8419591 -0.5395415 -0.000126593 95 84 71 255 0.037179 0.278335
4.448219 -0.084128 3.649009 -0.8037979 -0.594854 -0.007601537 95 84 71 255 0.037179 0.278335
4.046859 -0.134698 3.440815 -0.8085169 -0.5848061 0.06559099 95 84 71 255 0.037179 0.278335
2.708975 -0.143778 3.41469 -0.7162709 -0.6963215 -0.04574235 95 84 71 255 0.037179 0.278335
0.559793 -0.084127 2.042248 -0.004584742 -0.9999666 0.006762879 123 106 90 255 0.036449 0.299488
1.698731 -0.084128 3.650537 0.003521074 -0.9999469 -0.009686056 123 106 90 255 0.036449 0.299488
1.827447 -0.084128 4.945875 0 -1 0 123 106 90 255 0.036449 0.299488
1.501125 -0.084128 4.945875 0 -1 0 123 106 90 255 0.036449 0.299488
1.476187 -0.084128 3.609092 -0.01539352 -0.999689 -0.0196226 123 106 90 255 0.036449 0.299488
2.978659 -0.025649 1.795063 0.1767224 -0.9842067 -0.01031094 123 106 90 255 0.037179 0.278335
4.122527 -0.144392 3.718218 -0.7410264 -0.6714246 0.008298581 123 106 90 255 0.037179 0.278335
0.210785 -0.192678 0.779224 0.9700245 -0.2295286 0.07980678 72 64 55 255 0.037908 0.253536
3.696495 -0.192678 0.210799 0.0665437 -0.3405549 0.9378669 72 64 55 255 0.037908 0.253536
4.789219 -0.192678 0.74504 -0.970817 -0.2287539 0.07201459 95 84 71 255 0.037908 0.253536
0 -0.192679 5 -0.7071068 -3.674835e-05 0.7071068 72 64 55 255 0.037908 0.253536
5 -0.192678 0.6549 1 0 0 72 64 55 255 0.037908 0.253536
0 -0.192678 0.694803 -1 0 0 95 84 71 255 0.037908 0.253536
0.210785 -0.192679 4.260455 0.968081 -0.2320842 -0.09463715 95 84 71 255 0.037908 0.253536
0.278095 -0.192679 4.729713 0.6556878 -0.3021462 -0.6919402 95 84 71 255 0.037908 0.253536
0 -0.192679 4.360083 -1 0 0 72 64 55 255 0.037908 0.253536
4.722679 -0.192678 0.286518 0 -1 0 72 64 55 255 0.037908 0.279064
5 -0.192679 4.328271 4.59196e-08 -1 -9.059597e-08 95 84 71 255 0.037908 0.279064
4.789219 -0.192679 4.221434 -0.9673499 -0.2330818 -0.0995336 72 64 55 255 0.037908 0.253536
5 -0.192678 1e-05 0.7071068 0 -0.7071068 95 84 71 255 0.037908 0.253536
0.287106 -0.192678 0.305597 0.6530778 -0.3021005 0.694424 95 84 71 255 0.037908 0.253536
0 -0.192678 1e-05 0 -1 0 72 64 55 255 0.037908 0.279064
1.14986 -0.192678 1e-05 0 0 -1 72 64 55 255 0.037908 0.253536
1.294025 -0.192679 4.789222 0 -1 0 95 84 71 255 0.037908 0.279064
4.187115 -0.192679 5 0 -5.197e-05 1 72 64 55 255 0.037908 0.253536
4.71463 -0.192679 4.713818 -0.6657307 -0.3022129 -0.6822537 95 84 71 255 0.037908 0.253536
5 -0.192679 5 0 -1 0 72 64 55 255 0.037908 0.279064
0.896095 -0.192679 4.866198 0.07140703 -0.5432775 -0.836511 95 84 71 255 0.037908 0.253536
4.119995 -0.192678 0.10774 -0.07126991 -0.6138701 0.7861833 95 84 71 255 0.037908 0.253536
1.915704 -0.084128 3.609092 5.985993e-08 -1 -2.33411e-07 123 106 90 255 0.036449 0.299488
2.218423 -0.084128 4.945875 0 -1 0 123 106 90 255 0.036449 0.299488
1.949625 -0.084128 4.945875 0 -1 0 123 106 90 255 0.036449 0.299488
2.295314 -0.084127 1.567777 7.981324e-08 -1 -3.112147e-07 123 106 90 255 0.036449 0.299488
2.018317 -0.084127 1.305567 1.312251e-07 -1 -1.386255e-07 123 106 90 255 0.036449 0.299488
2.218423 -0.084127 0.054146 0 -1 0 123 106 90 255 0.036449 0.299488
1.949625 -0.084127 0.054146 0 -1 0 95 84 71 255 0.036449 0.299488
2.565258 -0.084127 0.054146 0 -1 0 95 84 71 255 0.036449 0.27713
2.400852 -0.084127 1.689968 1.435898e-07 -1 -1.775568e-07 95 84 71 255 0.036449 0.27713
2.320141 -0.084127 0.054146 0 -1 0 95 84 71 255 0.036449 0.27713
2.299081 -0.084128 3.481954 6.434045e-08 -1 -2.999216e-07 95 84 71 255 0.036449 0.27713
2.652328 -0.084127 1.893336 8.578727e-08 -1 -3.998954e-07 95 84 71 255 0.036449 0.27713
2.557814 -0.084128 3.41469 -8.670376e-08 -1 -3.33508e-07 95 84 71 255 0.036449 0.27713
2.565258 -0.084128 4.945875 0 -1 0 95 84 71 255 0.036449 0.27713
2.320141 -0.084128 4.945875 0 -1 0 95 84 71 255 0.036449 0.27713
0.68206 -0.084128 3.906319 0.004138174 -0.9999797 0.004849784 95 84 71 255 0.038169 0.281168
0.946435 -0.084128 4.945875 0 -1 0 95 84 71 255 0.038169 0.281168
0.631307 -0.084128 4.945875 0 -1 0 95 84 71 255 0.038169 0.281168
0.68197 -0.111254 2.042248 0.004420022 -0.9999745 0.00561036 95 84 71 255 0.038169 0.281168
0.98662 -0.084128 3.646447 0.006088186 -0.9999303 0.01011533 95 84 71 255 0.038169 0.281168
0.938362 -0.111254 1.947297 0.0002815276 -0.9999919 -0.00401617 95 84 71 255 0.038169 0.281168
0.631307 -0.084127 0.054146 -0.00250268 -0.9999 -0.01392167 95 84 71 255 0.038169 0.281168
0.946435 -0.084127 0.054146 0 -0.9998974 -0.01432755 95 84 71 255 0.038169 0.281168
1.387382 -0.111254 1.773738 -4.361237e-06 -0.9999861 -0.005272174 95 84 71 255 0.038169 0.281168
1.069331 -0.084127 0.054146 -0.002348497 -0.9998796 -0.01533898 95 84 71 255 0.038169 0.281168
1.378947 -0.084127 0.054146 0 -0.9998756 -0.01577329 95 84 71 255 0.038169 0.281168
1.050652 -0.111254 1.879854 -0.0007633576 -0.9999855 0.005348093 95 84 71 255 0.038169 0.281168
1.354013 -0.084128 3.609092 0.0006018102 -0.9999699 0.00773703 95 84 71 255 0.038169 0.281168
1.090506 -0.084128 3.571792 -0.001138406 -0.999967 0.008042274 95 84 71 255 0.038169 0.281168
1.069331 -0.084128 4.945875 0 -1 0 95 84 71 255 0.038169 0.281168
1.378947 -0.084128 4.945875 0 -1 0 95 84 71 255 0.038169 0.281168
3.504946 -0.033972 3.632142 0.005997494 -0.9999697 -0.004961918 123 106 90 255 0.036449 0.299488
3.172557 -0.084128 4.945875 0.007867634 -0.999315 -0.03616148 123 106 90 255 0.036449 0.299488
3.16045 -0.036794 3.556036 0.009031909 -0.999952 -0.003805107 95 84 71 255 0.036449 0.299488
3.172557 -0.084127 1.773738 0.002747915 -0.9998432 0.01749571 123 106 90 255 0.036449 0.299488
3.172557 -0.084127 0.054146 0 -1 0 123 106 90 255 0.036449 0.299488
3.493534 -0.084127 0.054146 0 -1 0 95 84 71 255 0.036449 0.299488
3.877769 -0.084127 1.600608 0.002138869 -0.9999168 0.01272389 95 84 71 255 0.036449 0.27713
3.580888 -0.084127 0.054146 0 -1 0 95 84 71 255 0.036449 0.27713
3.888099 -0.084127 0.054146 0 -1 0 95 84 71 255 0.036449 0.27713
3.602346 -0.032767 3.664652 0.008558463 -0.9999565 0.003711128 95 84 71 255 0.036449 0.27713
3.932265 -0.030042 3.738132 0.006585639 -0.9997829 -0.0197686 95 84 71 255 0.036449 0.27713
3.580888 -0.084128 4.945875 0.008554341 -0.9990703 -0.04225229 95 84 71 255 0.036449 0.27713
3.888099 -0.084128 4.945875 0 -0.9989988 -0.04473786 95 84 71 255 0.036449 0.27713
4.395489 -0.084127 0.054146 0 -0.999948 -0.01019855 95 84 71 255 0.038169 0.277155
3.489217 -0.084127 1.701379 0.8905787 -0.4548162 0.003444225 123 106 90 255 0.038227 0.278965
1.579771 -0.023775 1.698745 -5.679408e-05 -1 -3.837342e-05 123 106 90 255 0.036449 0.299488
3.050379 -0.084127 0.054146 0 -0.9994223 0.03398719 123 106 90 255 0.038169 0.303526
3.999943 -0.074707 1.600608 -0.01320193 -0.9998309 -0.01280413 123 106 90 255 0.038169 0.303526
4.395489 -0.084128 4.945875 0 -1 0 95 84 71 255 0.038169 0.277155
4.043675 -0.1297 4.032539 0.0146983 -0.9986227 0.05036495 95 84 71 255 0.038169 0.303526
4.326046 -0.144392 3.649009 0.002977819 -0.9999573 0.008756685 123 106 90 255 0.038169 0.303526
3.050379 -0.084128 4.945875 0 -0.9993944 0.03479734 123 106 90 255 0.038169 0.303526
0.509129 -0.084128 4.945875 0 -0.9998339 -0.01822975 123 106 90 255 0.036449 0.299488
3.033674 -0.047011 2.130019 -0.01801786 -0.9979941 -0.06068827 123 106 90 255 0.038169 0.303526
1.75229 -0.084128 3.986992 0 -1 0 123 106 90 255 0.036449 0.299488
1.766935 -0.069916 3.092538 0.01303029 -0.9996302 -0.02386747 95 84 71 255 0.036449 0.299488
0.63496 -0.192679 4.762123 0 -1 0 72 64 55 255 0.037908 0.279064
0.822163 -0.192679 5 0 -1 0 72 64 55 255 0.037908 0.279064
1.2272 -0.192678 0.210799 0 -1 0 95 84 71 255 0.037908 0.279064
4.160065 -0.192678 1e-05 0 -1 0 95 84 71 255 0.037908 0.279064
4.426613 -0.192678 0.251229 0 -1 0 72 64 55 255 0.037908 0.279064
4.122406 -0.192679 4.789222 0 -1 0 95 84 71 255 0.037908 0.279064
2.206839 -0.084128 3.522367 -7.711787e-08 -1 -2.588839e-07 123 106 90 255 0.036449 0.299488
3.493534 -0.084128 4.945875 0 -0.999272 -0.03815044 123 106 90 255 0.036449 0.299488
3.574726 -0.084127 1.67047 0.002958479 -0.9999133 0.01283313 95 84 71 255 0.036449 0.27713
3 77 37 76 
3 158 164 165 
3 171 177 170 
3 183 189 182 
3 19 98 21 
3 91 25 23 
3 102 86 29 
3 79 33 31 
3 11 97 194 
3 99 195 196 
3 13 197 198 
3 92 7 199 
3 15 200 27 
3 87 201 202 
3 17 203 204 
3 80 9 205 
3 78 36 206 
3 75 207 2 
3 5 88 39 
3 90 41 89 
3 7 94 43 
3 96 45 95 
3 81 47 9 
3 84 49 83 
3 50 34 51 
3 208 52 209 
3 53 35 16 
3 54 16 30 
3 55 210 32 
3 8 104 211 
3 57 8 46 
3 186 184 185 
3 14 58 48 
3 59 26 60 
3 212 28 61 
3 62 213 4 
3 62 38 63 
3 163 161 162 
3 12 64 40 
3 66 65 100 
3 6 67 24 
3 68 42 69 
3 175 173 174 
3 71 44 10 
3 72 10 18 
3 214 20 73 
3 1 215 216 
3 75 51 217 
3 52 76 209 
3 53 206 218 
3 203 53 54 
3 79 55 105 
3 219 81 80 
3 81 57 82 
3 187 183 184 
3 58 84 83 
3 103 59 60 
3 85 212 61 
3 220 87 202 
3 88 62 63 
3 163 159 160 
3 64 90 89 
3 101 65 66 
3 67 93 92 
3 94 68 69 
3 176 172 175 
3 70 96 95 
3 97 71 72 
3 221 73 98 
3 215 99 196 
3 100 12 22 
3 222 223 224 
3 91 222 225 
3 90 101 197 
3 200 84 226 
3 226 84 103 
3 227 56 219 
3 104 56 227 
3 147 107 111 
3 123 127 128 
3 144 140 157 
3 132 136 131 
3 154 115 146 
3 122 228 129 
3 142 229 141 
3 230 137 130 
3 148 119 231 
3 134 232 133 
3 233 125 126 
3 139 145 138 
3 234 115 235 
3 124 111 107 
3 236 119 125 
3 233 121 109 
3 127 112 128 
3 228 116 129 
3 230 117 113 
3 132 237 108 
3 232 120 133 
3 135 118 106 
3 238 110 136 
3 239 114 137 
3 139 120 240 
3 140 108 237 
3 156 117 141 
3 143 116 241 
3 144 112 242 
3 243 121 145 
3 150 155 146 
3 152 147 244 
3 149 245 153 
3 151 114 246 
3 152 110 247 
3 245 118 153 
3 146 155 248 
3 146 248 154 
3 141 229 249 
3 141 249 156 
3 166 159 158 
3 160 167 168 
3 160 169 161 
3 250 251 252 
3 253 250 254 
3 255 254 256 
3 257 258 259 
3 260 261 262 
3 260 263 264 
3 179 170 178 
3 171 180 172 
3 172 181 173 
3 265 266 267 
3 268 269 265 
3 270 271 272 
3 273 274 275 
3 276 277 278 
3 279 277 280 
3 191 182 190 
3 184 191 192 
3 185 192 193 
3 281 282 283 
3 284 281 283 
3 188 285 286 
3 287 288 289 
3 290 287 291 
3 292 291 293 
3 77 294 37 
3 158 159 164 
3 171 176 177 
3 183 295 189 
3 19 221 98 
3 91 296 25 
3 29 297 102 
3 102 85 86 
3 79 298 33 
3 11 96 97 
3 99 3 195 
3 13 90 197 
3 92 93 7 
3 15 84 200 
3 87 5 201 
3 17 78 203 
3 80 81 9 
3 78 17 36 
3 75 217 207 
3 5 87 88 
3 90 13 41 
3 7 93 94 
3 96 11 45 
3 81 82 47 
3 84 15 49 
3 50 0 34 
3 208 299 52 
3 53 218 35 
3 54 53 16 
3 32 300 55 
3 55 301 210 
3 8 56 104 
3 57 56 8 
3 186 187 184 
3 14 59 58 
3 59 14 26 
3 212 302 28 
3 62 220 213 
3 62 4 38 
3 163 160 161 
3 12 65 64 
3 6 68 67 
3 68 6 42 
3 175 172 173 
3 71 70 44 
3 72 71 10 
3 214 303 20 
3 1 74 215 
3 75 50 51 
3 52 77 76 
3 53 78 206 
3 203 78 53 
3 105 298 79 
3 79 301 55 
3 219 56 81 
3 81 56 57 
3 187 295 183 
3 58 59 84 
3 103 84 59 
3 61 86 85 
3 85 304 212 
3 220 62 87 
3 88 87 62 
3 163 164 159 
3 64 65 90 
3 67 68 93 
3 94 93 68 
3 176 171 172 
3 70 71 96 
3 97 96 71 
3 221 214 73 
3 215 74 99 
3 100 65 12 
3 224 225 222 
3 222 305 223 
3 225 296 91 
3 91 306 222 
3 90 65 101 
3 111 307 147 
3 147 308 107 
3 123 124 127 
3 157 309 144 
3 144 310 140 
3 132 238 136 
3 154 235 115 
3 122 234 228 
3 142 143 229 
3 230 239 137 
3 148 149 119 
3 134 135 232 
3 233 236 125 
3 139 243 145 
3 234 122 115 
3 124 123 111 
3 236 231 119 
3 233 126 121 
3 127 242 112 
3 228 241 116 
3 230 130 117 
3 132 131 237 
3 232 240 120 
3 135 134 118 
3 238 247 110 
3 239 246 114 
3 139 138 120 
3 237 311 140 
3 140 310 108 
3 156 113 117 
3 143 142 116 
3 144 309 112 
3 243 109 121 
3 150 151 155 
3 244 312 152 
3 152 308 147 
3 149 148 245 
3 151 150 114 
3 152 312 110 
3 245 106 118 
3 166 167 159 
3 160 159 167 
3 160 168 169 
3 250 313 251 
3 253 313 250 
3 255 253 254 
3 257 261 258 
3 260 258 261 
3 260 262 263 
3 179 171 170 
3 171 179 180 
3 172 180 181 
3 265 269 266 
3 268 270 269 
3 270 268 271 
3 273 276 274 
3 276 273 277 
3 279 278 277 
3 191 183 182 
3 184 183 191 
3 185 184 192 
3 281 314 282 
3 284 188 281 
3 188 284 285 
3 287 315 288 
3 290 315 287 
3 292 290 291 
