ply
format ascii 1.0
comment INFO-3111 Flatenator generated
comment TextureFile Dungeons_Texture_01.png
element vertex 36
property float x
property float y
property float z
property float nx
property float ny
property float nz
element face 36
property list uchar int vertex_indices
end_header
0.14946 -1.98148 5.41402 0 0 1 
0.121708 -1.62139 0.414017 0.69712 0.716889 0.00968525 
0.139294 -1.6214 5.41402 0.949429 0.313846 -0.00927197 
-0.14946 -1.6214 5.41402 -0.317693 0.948184 -0.00423406 
-0.141911 -1.95692 0.414017 -0.73517 -0.677864 0.00495985 
-0.11552 -1.62139 1.7275 -0.599965 0.800023 0.00207003 
0.113354 -1.62139 1.7275 0.837461 0.546044 0.0222358 
0.113354 -1.98148 1.7275 0.899068 -0.437793 0.00369126 
0.124172 -1.98148 3.67889 0.516222 -0.856441 -0.00486681 
-0.126335 -1.6214 3.67889 -0.834054 0.551624 -0.00802432 
-0.126335 -1.98148 3.67889 -0.902363 -0.430952 -0.00476048 
0.141514 -1.98148 0.414017 0.425181 -0.9051 0.00385557 
-0.143677 -1.62139 0.414017 -0.89517 0.44533 0.0187544 
-0.126335 -1.98148 2.21534 -0.891946 -0.434695 -0.12439 
-0.0583 -1.98148 1.7275 -0.898283 -0.437784 -0.0378523 
-0.11552 -1.86407 1.7275 -0.898283 -0.437784 -0.0378523 
0.129951 -1.6214 3.98957 0.739295 0.65341 -0.162782 
-0.143677 -1.98148 5.41402 -0.704203 -0.709951 -0.00821167 
0.124172 -1.71391 3.59197 0.793895 0.603924 -0.0707647 
0.061543 -1.6214 3.67889 0.793895 0.603924 -0.0707647 
0.113354 -1.62139 1.7275 0.7071 0.707113 0.00019765 
-0.0583 -1.98148 1.7275 -0.0215982 -0.999761 -0.00328589 
-0.11552 -1.86407 1.7275 -0.999725 0.0216353 0.00909563 
-0.126335 -1.98148 2.21534 -0.462627 -0.886553 -8.73203e-07 
0.124172 -1.71391 3.59197 0.999932 -0.0096783 -0.00651698 
0.061543 -1.6214 3.67889 0 1 5.1926e-07 
-0.141911 -1.95692 0.414017 -0.897849 -0.437572 0.0489713 
0.129951 -1.6214 3.98957 0.453195 0.891407 -0.00297252 
0.139294 -1.6214 5.41402 0 0 1 
-0.143677 -1.98148 5.41402 0 0 1 
0.121708 -1.62139 0.414017 0 0 -1 
-0.141911 -1.95692 0.414017 0 0 -1 
-0.143677 -1.62139 0.414017 0 0 -1 
0.14946 -1.98148 5.41402 0.716938 -0.697059 -0.0104487 
-0.14946 -1.6214 5.41402 0 0 1 
0.141514 -1.98148 0.414017 0 0 -1 
3 18 6 19
3 14 13 15
3 1 7 11
3 1 5 20
3 17 9 10
3 8 17 10
3 11 21 4
3 12 22 5
3 10 5 22
3 8 23 21
3 2 8 24
3 9 3 25
3 5 25 20
3 24 7 20
3 18 19 16
3 14 15 26
3 27 3 2
3 28 29 0
3 30 31 32
3 1 20 7
3 1 12 5
3 17 3 9
3 8 33 17
3 11 7 21
3 12 4 22
3 22 23 10
3 10 9 5
3 21 7 8
3 8 10 23
3 24 27 2
3 2 33 8
3 5 9 25
3 24 8 7
3 27 25 3
3 28 34 29
3 30 35 31
