ply
format ascii 1.0
comment VCGLIB generated
comment TextureFile Dungeons_Texture_01.png
element vertex 17
property float x
property float y
property float z
property float nx
property float ny
property float nz
property uchar red
property uchar green
property uchar blue
property uchar alpha
property float texture_u
property float texture_v
element face 30
property list uchar int vertex_indices
end_header
0.190247 0.071895 0.194796 0.5697704 0.5336782 0.6249394 120 116 110 255 0.211594 0.300503
0.04837 0.031008 0.263643 -0.3480219 0.04261888 0.9365172 120 116 110 255 0.211594 0.300503
0.157318 -0.074556 0.225813 0.4779097 -0.269453 0.8360607 120 116 110 255 0.211594 0.300503
0.011978 0.13475 0.17588 -0.05557971 0.8743618 0.4820813 120 116 110 255 0.211594 0.300503
0.058273 -0.161528 0.168247 -0.4446506 -0.6611437 0.604297 120 116 110 255 0.211594 0.300503
-0.102295 0.010134 0.076712 -0.8778672 -0.4643284 0.1172538 120 116 110 255 0.211594 0.300503
-0.090057 0.086354 0.109045 -0.8292741 0.4903188 0.2681269 120 116 110 255 0.211594 0.300503
0.256729 -0.018902 0.131233 0.9874644 0.0395813 0.1527985 120 116 110 255 0.211594 0.300503
0.18396 0.106017 0.038086 0.7053144 0.7024276 -0.09553576 120 116 110 255 0.211594 0.300503
0.161301 -0.172283 0.184832 0.3182363 -0.8576366 0.4039618 120 116 110 255 0.211594 0.300503
0.214066 -0.133693 0.069277 0.8131499 -0.5769177 -0.07715792 120 116 110 255 0.211594 0.300503
0.034973 -0.169065 -0.028126 -0.134159 -0.8982809 -0.4184409 120 116 110 255 0.211594 0.300503
0.059036 0.182653 -0.00825 -0.1397281 0.9550129 -0.2615844 120 116 110 255 0.211594 0.300503
0.186783 -0.011444 -0.068632 0.7512057 -0.1197461 -0.6491156 120 116 110 255 0.211594 0.300503
-0.070145 0.048511 -0.116557 -0.8417628 0.3058722 -0.4448342 120 116 110 255 0.211594 0.300503
0.019592 0.04115 -0.170746 -0.2119137 -0.1037851 -0.9717619 120 116 110 255 0.211594 0.300503
0.090256 0.096296 -0.132767 0.4784037 0.5569994 -0.6788825 120 116 110 255 0.211594 0.300503
3 0 1 2 
3 1 0 3 
3 2 1 4 
3 1 5 4 
3 6 1 3 
3 1 6 5 
3 7 0 2 
3 0 8 3 
3 8 0 7 
3 9 2 4 
3 7 2 10 
3 11 9 4 
3 3 8 12 
3 2 9 10 
3 7 10 13 
3 14 5 6 
3 4 5 11 
3 8 7 13 
3 12 6 3 
3 11 10 9 
3 12 14 6 
3 12 15 14 
3 13 10 11 
3 5 14 15 
3 13 16 8 
3 16 12 8 
3 16 15 12 
3 5 15 11 
3 13 11 15 
3 13 15 16 
