ply
format ascii 1.0
comment VCGLIB generated
comment TextureFile Dungeons_Texture_01.png
element vertex 327
property float x
property float y
property float z
property float nx
property float ny
property float nz
property uchar red
property uchar green
property uchar blue
property uchar alpha
property float texture_u
property float texture_v
element face 498
property list uchar int vertex_indices
end_header
1.092381 0.042619 4.997849 -0.009415374 0.7351888 0.6777971 97 95 95 255 0.20003 0.278154
0.00415 0.030964 4.996048 -0.2029654 0.8677044 0.4537556 97 95 95 255 0.20003 0.278154
0.42832 -1e-06 5 -0.0005492994 -0.7807666 0.6248226 97 95 95 255 0.20003 0.278154
0 -1e-06 4.999998 -0.8447939 -0.3190412 0.4295766 97 95 95 255 0.20003 0.278154
2.08848 0.042619 4.997837 -0.0001807698 0.7192989 0.6947008 97 95 95 255 0.20003 0.278154
1.36582 -1e-06 5 3.395102e-06 -0.5250517 0.8510704 97 95 95 255 0.20003 0.278154
3.475199 0.041084 4.997238 0.0002699413 0.8038915 0.594776 97 95 95 255 0.20003 0.278154
2.440039 0.042619 4.997837 0.0005776842 0.83388 0.5519455 97 95 95 255 0.20003 0.278154
2.537699 -1e-06 5 0.0001346193 -0.5712132 0.8208017 97 95 95 255 0.20003 0.278154
4.17832 -1e-06 5 -3.201042e-06 -0.6830752 0.7303481 97 95 95 255 0.20003 0.278154
4.74473 0.042004 4.997196 -0.001440793 0.7203476 0.6936117 97 95 95 255 0.20003 0.278154
5 -1e-06 4.999998 0.416622 -0.35663 0.8362064 97 95 95 255 0.20003 0.278154
4.99826 0.042544 4.998249 0.646209 0.6891002 0.3279557 97 95 95 255 0.20003 0.278154
0.58469 0.029484 4.894016 0.0002532002 0.9942605 0.1069861 97 95 95 255 0.20003 0.278154
2.61689 0.045444 4.842049 0.0003261436 0.9395206 0.3424924 97 95 95 255 0.20003 0.278154
4.76355 0.045059 4.823677 0.1611804 0.9227723 0.3500174 97 95 95 255 0.20003 0.278154
1.111219 0.044519 4.841908 -0.01671305 0.8670418 0.4979551 97 95 95 255 0.20003 0.278154
3.90513 0.045444 4.842049 0.002394009 0.7845272 0.6200897 97 95 95 255 0.20003 0.278154
-0.00058 0.042619 4.686127 -0.8211892 0.5704435 0.01557063 97 95 95 255 0.20003 0.278154
5 -1e-06 3.397068 0.649088 -0.7607074 0.003032278 97 95 95 255 0.20003 0.278154
2.26442 0.045444 4.842049 0.007842564 0.9018013 0.4320796 97 95 95 255 0.20003 0.278154
5 -1e-06 4.158787 0.9335278 -0.358494 -0.002822106 97 95 95 255 0.20003 0.278154
0.466919 0.045024 4.841908 0.006629665 0.8857542 0.4641075 97 95 95 255 0.20003 0.278154
0 -0 1.678318 -0.3149382 -0.9491122 -2.55969e-07 97 95 95 255 0.20003 0.278154
0.175249 0.044329 4.842476 -0.2130952 0.9488906 0.2328028 97 95 95 255 0.20003 0.278154
3.45628 0.045439 4.842056 -0.0008769482 0.8522903 0.5230685 97 95 95 255 0.20003 0.278154
0.32716 0.098894 4.786636 -0.03863066 0.8823701 0.4689679 97 95 95 255 0.20003 0.278154
0.183029 0.081779 4.786716 -0.7036175 0.6808436 0.2034074 97 95 95 255 0.20003 0.278154
0.80308 0.078949 4.806599 0.01526494 0.8270577 0.5619099 97 95 95 255 0.20003 0.278154
0.981649 0.099769 4.767376 -0.06388357 0.7453635 0.6635903 97 95 95 255 0.20003 0.278154
1.31959 0.098269 4.745998 -0.004159329 0.9993549 0.03567312 97 95 95 255 0.20003 0.278154
1.21364 0.095219 4.819088 -0.05307832 0.7639722 0.6430623 97 95 95 255 0.20003 0.278154
1.89101 0.098534 4.805199 0.02244491 0.7713135 0.6360595 97 95 95 255 0.20003 0.278154
2.711689 0.082624 4.809597 -0.003774686 0.7462388 0.6656677 97 95 95 255 0.20003 0.278154
2.139629 0.091044 4.784569 0.02616357 0.8100288 0.5858061 97 95 95 255 0.20003 0.278154
4.33518 0.092434 4.815689 0.01519766 0.3088595 0.9509863 97 95 95 255 0.20003 0.278154
3.87183 0.094944 4.823818 -0.01433724 0.6062778 0.7951238 97 95 95 255 0.20003 0.278154
4.73279 0.089529 4.813538 0.8255787 0.349378 0.4431195 97 95 95 255 0.20003 0.278154
3.336279 0.079104 4.815468 -0.01260928 0.7449685 0.6669806 97 95 95 255 0.20003 0.278154
3.39036 0.100784 4.747929 -0.01514436 0.9555035 0.2945908 97 95 95 255 0.20003 0.278154
0.57103 0.100744 4.747879 0.03064143 0.9705037 0.2391309 97 95 95 255 0.20003 0.278154
0 -1e-06 4.217377 -0.8912207 -0.4535699 0.0001672078 97 95 95 255 0.20003 0.278154
0.17915 0.099864 4.510887 -0.9327235 0.3592651 -0.03091374 97 95 95 255 0.20003 0.278154
1.10577 0.101034 4.650429 -0.001891806 0.9999163 0.01280014 120 120 119 255 0.20003 0.302006
2.016319 0.101034 4.649956 0.001095928 0.9996532 0.02631333 120 120 119 255 0.20003 0.302006
4.477551 0.100834 3.691589 0.02777019 0.9996102 0.002873915 120 120 119 255 0.20003 0.302006
4.54928 0.101034 4.163307 0.02623467 0.9996523 -0.00266894 120 120 119 255 0.20003 0.302006
0.83835 0.097314 4.574547 -0.05211945 0.997788 0.04126492 120 120 119 255 0.20003 0.302006
0.176939 0.053894 4.610268 -0.8015316 0.5975824 -0.02103445 97 95 95 255 0.20003 0.278154
4.99785 0.042619 4.354099 0.4594441 0.888189 -0.00561695 97 95 95 255 0.20003 0.278154
4.746399 0.053949 4.187866 0.8052897 0.5928395 0.007049488 97 95 95 255 0.20003 0.278154
0.411589 0.084914 4.412029 0.02090417 0.9986858 -0.04679556 120 120 119 255 0.20003 0.302006
0.208719 0.085929 4.356476 0.03276209 0.9964442 -0.07762437 120 120 119 255 0.20003 0.302006
4.74469 0.099874 4.300697 -0.0278417 0.9996039 -0.004096847 120 120 119 255 0.20003 0.302006
-0.000221 0.042639 4.197849 -0.3956362 0.9184073 -2.399098e-05 97 95 95 255 0.20003 0.278154
0.82053 0.101034 3.814888 -0.007761993 0.9997708 -0.01995447 120 120 119 255 0.20003 0.302006
0.2183 0.074519 4.240246 -0.0291864 0.9995665 -0.003866962 120 120 119 255 0.20003 0.302006
0.21464 0.100264 4.045387 -0.07684438 0.9962283 -0.04030072 120 120 119 255 0.20003 0.302006
1.855299 0.099169 4.025028 -0.00654628 0.9999588 -0.006297363 120 120 119 255 0.20003 0.302006
0.15621 0.045699 4.256927 -0.4338083 0.899968 -0.0432211 97 95 95 255 0.20003 0.278154
0.410179 0.101034 3.946518 -0.04449942 0.9970092 -0.06318621 120 120 119 255 0.20003 0.302006
4.74474 0.099964 3.773918 0.9678212 0.2514189 -0.0105227 97 95 95 255 0.20003 0.278154
0.081619 0.038859 3.922928 -0.0354328 0.9993714 0.001105799 97 95 95 255 0.20003 0.278154
-0.000511 0.042589 4.002529 -0.700285 0.7138464 0.004932872 97 95 95 255 0.20003 0.278154
4.76335 0.045569 3.652859 0.5474387 0.8368052 -0.00824515 97 95 95 255 0.20003 0.278154
4.60088 0.084934 3.712696 0.03225766 0.9994204 -0.01087861 120 120 119 255 0.20003 0.302006
0.232609 0.083909 3.989456 -0.8061486 0.5891896 -0.05459036 97 95 95 255 0.20003 0.278154
0.1779 0.052134 3.909889 -0.5311372 0.8465731 0.03474635 97 95 95 255 0.20003 0.278154
0 -1e-06 3.084568 -0.8897464 -0.4564552 1.175562e-05 97 95 95 255 0.20003 0.278154
0.355539 0.101034 3.732529 0.002987714 0.999835 0.01791853 120 120 119 255 0.20003 0.302006
4.9902 0.032734 3.592316 0.6437764 0.7652135 0.0005816899 97 95 95 255 0.20003 0.278154
0.213869 0.101034 3.829849 -0.7239928 0.6836057 0.09229167 97 95 95 255 0.20003 0.278154
0.156219 0.045704 3.320389 -0.3637091 0.9313217 -0.01885605 97 95 95 255 0.20003 0.278154
0.80286 0.092019 3.691887 -0.005503466 0.9999397 -0.009505901 120 120 119 255 0.20003 0.302006
4.74151 0.080704 3.577469 0.03732925 0.999171 -0.016244 120 120 119 255 0.20003 0.302006
0.64212 0.101034 3.578396 0.01516877 0.9996563 0.02138625 120 120 119 255 0.20003 0.302006
1.034519 0.095849 3.480938 -0.003891748 0.99999 0.002216883 120 120 119 255 0.20003 0.302006
0.19548 0.100994 3.302097 0.02623549 0.9996073 -0.00984874 120 120 119 255 0.20003 0.302006
1.30196 0.092914 3.517467 0.009668178 0.999922 0.007904269 120 120 119 255 0.20003 0.302006
0.32744 0.10093 2.659996 -0.03199268 0.9993458 -0.01686504 120 120 119 255 0.20003 0.302006
4.531429 0.101034 3.496647 0.0501199 0.9984803 0.02291754 120 120 119 255 0.20003 0.302006
1.65922 0.091154 3.363487 0.003233372 0.9999578 0.008600678 120 120 119 255 0.20003 0.302006
4.191969 0.095419 3.323307 -0.01401658 0.9997786 0.01569772 120 120 119 255 0.20003 0.302006
0.220919 0.095129 3.071659 -0.02459461 0.999665 -0.00805888 120 120 119 255 0.20003 0.302006
1.92688 0.095539 3.343998 -0.0181834 0.999763 -0.01197781 120 120 119 255 0.20003 0.302006
2.24785 0.098574 3.107227 -0.01500323 0.9994708 -0.02886157 120 120 119 255 0.20003 0.302006
1.837 0.091354 3.245819 0.003054919 0.9998956 0.01412373 120 120 119 255 0.20003 0.302006
4.74225 0.079989 3.148098 0.1497074 0.9885936 0.01644403 120 120 119 255 0.20003 0.302006
1.515829 0.101034 3.223286 0.007622845 0.9998958 0.01226203 120 120 119 255 0.20003 0.302006
4.03787 0.101034 3.128979 -0.02635334 0.9991454 0.0318411 120 120 119 255 0.20003 0.302006
4.67164 0.098685 2.912827 0.1037165 0.9945306 0.01232474 120 120 119 255 0.20003 0.302006
4.763199 0.04465 2.344429 0.5455161 0.8381004 -0.0001546419 97 95 95 255 0.20003 0.278154
4.997419 0.03988 2.967499 0.7351586 0.6778872 0.003272762 97 95 95 255 0.20003 0.278154
5 -0 2.303318 0.8795434 -0.4758188 0.0001392134 97 95 95 255 0.20003 0.278154
3.692959 0.096315 2.973808 -0.025242 0.9992222 0.03029609 120 120 119 255 0.20003 0.302006
4.56712 0.101035 1.821007 0.01666825 0.9998567 -0.002988507 120 120 119 255 0.20003 0.302006
4.88133 0.041275 2.693939 0.0142638 0.9998815 0.005794691 97 95 95 255 0.20003 0.278154
3.051149 0.101035 2.739128 -0.01840973 0.9949117 -0.09905465 120 120 119 255 0.20003 0.302006
3.58548 0.101034 3.050766 0.02232574 0.9989375 -0.04031749 120 120 119 255 0.20003 0.302006
2.23007 0.097675 2.933048 0.004390734 0.999945 0.00952421 120 120 119 255 0.20003 0.302006
0.149399 0.03274 2.947147 -0.3846031 0.9230246 0.01030049 97 95 95 255 0.20003 0.278154
2.01639 0.101035 2.878597 0.01223137 0.9997336 0.01957613 120 120 119 255 0.20003 0.302006
-0.00057 0.04262 2.908779 -0.437223 0.8993465 -0.003456729 97 95 95 255 0.20003 0.278154
0.22072 0.09296 2.696808 -0.5540711 0.831402 0.04214342 97 95 95 255 0.20003 0.278154
2.65769 0.09002 2.855339 -0.01698231 0.9982697 -0.05629679 120 120 119 255 0.20003 0.302006
4.741289 0.09456 2.369507 0.9157781 0.401684 0.0006534255 97 95 95 255 0.20003 0.278154
2.67593 0.096695 2.695019 0.02171199 0.9990982 0.03648651 120 120 119 255 0.20003 0.302006
3.10375 0.08421 2.639519 -0.03229998 0.999474 0.002921698 120 120 119 255 0.20003 0.302006
2.140539 0.101035 2.676567 0.003008333 0.9999921 0.002615273 120 120 119 255 0.20003 0.302006
0.50057 0.097045 2.444199 -0.02364686 0.9995828 -0.016591 120 120 119 255 0.20003 0.302006
3.19363 0.100425 2.619698 -0.07084758 0.9961362 0.05189793 120 120 119 255 0.20003 0.302006
0.05724 0.04518 2.615818 -0.02162451 0.9997423 0.006915905 97 95 95 255 0.20003 0.278154
-0.00057 0.04262 2.127529 -0.6170997 0.7868848 -0.0005694357 97 95 95 255 0.20003 0.278154
0.19146 0.089865 2.579609 -0.7526313 0.6582823 0.01451345 97 95 95 255 0.20003 0.278154
0.17705 0.05374 2.327068 -0.5576493 0.8300764 -0.0006445325 97 95 95 255 0.20003 0.278154
3.086319 0.10092 2.189636 0.04070131 0.9991434 0.007477495 120 120 119 255 0.20003 0.302006
3.103849 0.094155 2.521858 -0.02015245 0.999063 0.03830086 120 120 119 255 0.20003 0.302006
3.175049 0.09451 2.250896 0.01249933 0.9999115 -0.004546183 120 120 119 255 0.20003 0.302006
0.28516 0.100565 2.251587 -0.02859325 0.99957 0.006506776 120 120 119 255 0.20003 0.302006
0.874029 0.098625 1.916927 -0.0002876049 0.9999963 0.002714477 120 120 119 255 0.20003 0.302006
4.979799 0.045085 2.225189 0.4298559 0.9028922 0.003101893 97 95 95 255 0.20003 0.278154
0.20882 0.09362 2.035667 -0.09239745 0.9957117 -0.004568561 120 120 119 255 0.20003 0.302006
0.15621 0.045705 2.012188 -0.4234611 0.905906 0.003886194 97 95 95 255 0.20003 0.278154
4.997839 0.04262 1.463478 0.4827834 0.8756691 -0.01112972 97 95 95 255 0.20003 0.278154
3.194349 0.092125 1.937138 0.02804199 0.9995962 0.004595843 120 120 119 255 0.20003 0.302006
5 -0 1.600189 0.8511131 -0.5249824 0 97 95 95 255 0.20003 0.278154
4.74151 0.088665 1.936447 0.9038191 0.4276911 -0.01383286 97 95 95 255 0.20003 0.278154
3.157669 0.096855 1.661217 0.02399155 0.9997017 0.004583973 120 120 119 255 0.20003 0.302006
1.48065 0.10093 1.451008 0.003611412 0.9974948 -0.07064792 120 120 119 255 0.20003 0.302006
3.58539 0.0999 1.272049 -0.001901561 0.9999707 0.007422301 120 120 119 255 0.20003 0.302006
1.05246 0.09989 1.272018 -0.0004322059 0.9999995 0.000952372 120 120 119 255 0.20003 0.302006
4.746029 0.0518 1.271225 0.3351983 0.8683276 -0.3655809 97 95 95 255 0.20003 0.278154
1.230869 0.101035 1.353058 0.01602064 0.9988304 -0.04562004 120 120 119 255 0.20003 0.302006
4.17832 0 0 0.002023752 -0.7746843 -0.6323449 97 95 95 255 0.20003 0.278154
0.35454 0.099865 1.271866 -0.05884381 0.998249 -0.006029423 120 120 119 255 0.20003 0.302006
3.051119 0.099885 1.272079 0.00227506 0.9999853 0.004925143 120 120 119 255 0.20003 0.302006
4.56712 0.099815 1.271538 0.05430998 0.9985168 -0.003827081 120 120 119 255 0.20003 0.302006
3.300959 0.097095 1.486607 0.00512217 0.9999244 0.01118682 120 120 119 255 0.20003 0.302006
0.155849 0.04556 1.268555 -0.1687776 0.9587867 -0.2285657 97 95 95 255 0.20003 0.278154
0.1805 0.08259 1.328209 -0.1024235 0.9946755 -0.01140795 120 120 119 255 0.20003 0.302006
2.248249 0.09508 1.28524 -0.005476395 0.9999728 -0.004937072 120 120 119 255 0.20003 0.302006
1.837509 0.09258 1.304817 -0.008356414 0.9984525 -0.05497897 120 120 119 255 0.20003 0.302006
4.72555 0.08557 1.293236 0.09050609 0.9958711 -0.007037622 120 120 119 255 0.20003 0.302006
4.997839 0.04262 0.682228 0.5455973 0.8378903 -0.01623675 97 95 95 255 0.20003 0.278154
1.65925 0.080405 1.27607 -0.02611537 0.9894146 -0.1427474 120 120 119 255 0.20003 0.302006
4.78334 0.043215 1.22934 0.02890534 0.9971068 -0.0703032 97 95 95 255 0.20003 0.278154
2.016489 0.073845 1.270699 0.003197599 0.6720417 -0.7405064 97 95 95 255 0.20003 0.278154
1.44515 0.078795 1.281017 0.0225329 0.9907635 -0.1337157 120 120 119 255 0.20003 0.302006
1.284781 0.053845 1.269569 0.03436566 0.8276442 -0.5602002 97 95 95 255 0.20003 0.278154
5 0 0 0.8201931 -0.03038497 -0.5712793 97 95 95 255 0.20003 0.278154
2.443579 0.053875 1.269485 -0.000265478 0.692167 -0.7217373 97 95 95 255 0.20003 0.278154
3.280199 0.045675 1.249828 0.008123847 0.8931713 -0.4496434 97 95 95 255 0.20003 0.278154
3.90675 0.05388 1.269497 0.00205454 0.7810425 -0.6244745 97 95 95 255 0.20003 0.278154
0.41003 0.05388 1.269497 -0.01531935 0.8746492 -0.4845144 97 95 95 255 0.20003 0.278154
1.36581 0.034515 1.211166 0.04887431 0.9727523 -0.2266367 97 95 95 255 0.20003 0.278154
1.93158 0.045675 1.249828 -0.000108805 0.9522686 -0.3052616 97 95 95 255 0.20003 0.278154
3.455669 0.04143 1.214558 -0.003003219 0.9982718 -0.05868926 97 95 95 255 0.20003 0.278154
4.29538 0.04518 1.229065 0.002289938 0.9979264 -0.06432565 97 95 95 255 0.20003 0.278154
-0.00057 0.04262 0.877537 -0.6159382 0.7877943 0.0005610791 97 95 95 255 0.20003 0.278154
1.326759 0.04518 1.150978 0.0397617 0.9989651 0.02208535 97 95 95 255 0.20003 0.278154
3.51437 0.040135 1.060207 0.005941131 0.9977447 0.06685951 97 95 95 255 0.20003 0.278154
4.82262 0.045315 1.013237 0.1362488 0.9249423 0.3548492 97 95 95 255 0.20003 0.278154
0.506449 0.03876 1.085438 -0.01705279 0.9986711 0.04863526 97 95 95 255 0.20003 0.278154
1.77598 0.042675 1.110565 0.00120628 0.9999728 0.007280079 97 95 95 255 0.20003 0.278154
2.537729 0.045595 1.032745 -0.3586482 0.9264107 0.1146067 97 95 95 255 0.20003 0.278154
0.11574 0.04518 1.013176 -0.2059146 0.8657217 0.4562073 97 95 95 255 0.20003 0.278154
0.89603 0.04513 1.032188 -0.1874774 0.9728028 0.1360402 97 95 95 255 0.20003 0.278154
1.46357 0.045585 1.032265 0.01717959 0.9415768 0.3363597 97 95 95 255 0.20003 0.278154
0.778379 0.0456 1.032757 0.3260511 0.9343862 0.1435731 97 95 95 255 0.20003 0.278154
4.020479 0.04536 1.032349 0.3135635 0.9278802 0.2017829 97 95 95 255 0.20003 0.278154
0.349039 0.053865 1.011505 0.001014563 0.641787 0.7668824 97 95 95 255 0.20003 0.278154
2.36162 0.044815 1.031208 0.410632 0.9015938 0.1360514 97 95 95 255 0.20003 0.278154
1.7761 0.045305 1.03067 -0.03608575 0.7218106 0.6911492 97 95 95 255 0.20003 0.278154
4.13965 0.04513 1.031799 -0.3176596 0.9303934 0.1829223 97 95 95 255 0.20003 0.278154
3.117239 0.05398 1.011868 0.00972153 0.7834877 0.6213312 97 95 95 255 0.20003 0.278154
3.50935 0.05387 1.011688 -0.005331373 0.7742479 0.63286 97 95 95 255 0.20003 0.278154
4.093349 0.03884 0.916637 -0.008124172 0.9999273 -0.008907853 97 95 95 255 0.20003 0.278154
2.110889 0.099915 1.010429 0.06303147 0.7175728 0.6936256 97 95 95 255 0.20003 0.278154
1.719229 0.09754 1.002777 -0.1309333 0.6619372 0.738035 97 95 95 255 0.20003 0.278154
2.345749 0.08328 0.97657 0.2984438 0.6973131 0.6516792 97 95 95 255 0.20003 0.278154
4.68524 0.096095 0.994675 -0.02053882 0.2937634 0.9556575 97 95 95 255 0.20003 0.278154
4.347349 0.100945 0.963177 -0.04362388 0.6142297 0.7879206 97 95 95 255 0.20003 0.278154
0.33086 0.10014 1.010376 0.01763147 0.03968207 0.9990568 97 95 95 255 0.20003 0.278154
0.13059 0.100205 1.010437 -0.8619618 0.242512 0.4452076 97 95 95 255 0.20003 0.278154
0.75651 0.092405 0.990917 0.4037264 0.4954668 0.7691019 97 95 95 255 0.20003 0.278154
1.555729 0.083365 0.953758 -0.08363605 0.7179998 0.6910002 97 95 95 255 0.20003 0.278154
3.391369 0.08634 0.979126 0.006702918 0.8805625 0.4738826 97 95 95 255 0.20003 0.278154
3.090759 0.09112 0.996605 0.03356388 0.6633284 0.7475754 97 95 95 255 0.20003 0.278154
4.15901 0.09269 0.959106 -0.5618707 0.752812 0.3428929 97 95 95 255 0.20003 0.278154
4.80407 0.10035 0.985737 0.8774801 0.2919891 0.3804878 97 95 95 255 0.20003 0.278154
1.027529 0.091145 0.990479 -0.028039 0.8633121 0.5038909 97 95 95 255 0.20003 0.278154
0.957319 0.097975 0.95755 -0.2649004 0.9265845 0.2669627 97 95 95 255 0.20003 0.278154
1.34865 0.09895 0.954647 0.03530089 0.9093619 0.4145055 97 95 95 255 0.20003 0.278154
2.55278 0.09096 0.999496 -0.3605298 0.5519783 0.7518898 97 95 95 255 0.20003 0.278154
3.7836 0.09353 0.995186 0.01065962 0.7981903 0.6023111 97 95 95 255 0.20003 0.278154
3.48307 0.10102 0.884197 0.001217097 0.9880742 0.1539734 97 95 95 255 0.20003 0.278154
4.014809 0.100395 0.886417 0.7203904 0.6577323 0.2200588 97 95 95 255 0.20003 0.278154
2.36322 0.10019 0.88826 0.5599693 0.8158674 0.1442038 97 95 95 255 0.20003 0.278154
1.52199 0.09748 0.725338 -0.005329933 0.9997957 0.01949881 120 120 119 255 0.20003 0.302006
2.539351 0.09994 0.866119 0.002091026 0.9997257 0.02332869 120 120 119 255 0.20003 0.302006
0 0 0 -0.8082723 -0.4284351 -0.403905 97 95 95 255 0.20003 0.278154
4.140339 0.09959 0.486748 -0.01858525 0.9998206 0.003674743 120 120 119 255 0.20003 0.302006
4.014809 0.100265 0.489929 0.9999479 0.009347061 -0.004107194 97 95 95 255 0.20003 0.278154
4.80098 0.054365 0.260197 0.504583 0.69817 -0.5078923 97 95 95 255 0.20003 0.278154
4.01149 0.049145 0.2593 0.3262845 0.8646985 -0.3818836 97 95 95 255 0.20003 0.278154
4.80582 0.100185 0.250786 0.6959344 -0.2142831 -0.685389 97 95 95 255 0.20003 0.278154
1.71821 0.099805 0.253857 -0.002074212 0.9999938 0.002843863 120 120 119 255 0.20003 0.302006
0.88821 0.100445 0.274307 0.001615993 0.9999894 0.004303004 120 120 119 255 0.20003 0.302006
4.389269 0.101035 0.486755 -0.007201885 0.9998407 -0.01633437 120 120 119 255 0.20003 0.302006
0.129099 0.100155 0.250839 -0.001091623 0.9999993 0.0003097313 120 120 119 255 0.20003 0.302006
4.137949 0.04575 0.41523 -0.7064904 0.7077225 -0.0003454641 97 95 95 255 0.20003 0.278154
0.76376 0.096235 0.259499 0.01500278 0.9998815 0.003449521 120 120 119 255 0.20003 0.302006
0.36972 0.10071 0.321449 0.00454061 0.9999891 0.001083484 120 120 119 255 0.20003 0.302006
0.11582 0.04518 0.252319 -0.4257284 0.7971987 -0.4280533 97 95 95 255 0.20003 0.278154
0.772299 0.05046 0.250317 0.1844876 0.9233238 -0.336805 97 95 95 255 0.20003 0.278154
2.380569 0.04558 0.292236 0.2702184 0.9276153 -0.2578989 97 95 95 255 0.20003 0.278154
1.579679 0.09988 0.254967 0.0007729908 0.9999862 0.005197097 120 120 119 255 0.20003 0.302006
0.87731 0.04234 0.233788 -0.1410448 0.9727688 -0.1839216 97 95 95 255 0.20003 0.278154
2.51926 0.045745 0.292217 -0.4128593 0.8271668 -0.3812379 97 95 95 255 0.20003 0.278154
-0.00099 0.042545 -0.000992 -0.2248395 0.8622944 -0.4537573 97 95 95 255 0.20003 0.278154
4.840469 0.038905 0.177227 0.02571695 0.9991719 -0.03153295 97 95 95 255 0.20003 0.278154
4.979799 0.045085 0.291595 0.5492436 0.8356179 0.008619262 97 95 95 255 0.20003 0.278154
2.539499 0.10012 0.252838 -0.7549347 -0.1482863 -0.6388152 97 95 95 255 0.20003 0.278154
2.36293 0.10028 0.252567 -0.0007364764 0.9999998 0.0001419184 120 120 119 255 0.20003 0.302006
4.140379 0.09842 0.252338 0.01249939 0.9996236 -0.02442222 120 120 119 255 0.20003 0.302006
3.11581 0.08802 0.258186 -0.005510321 0.9998946 0.01343516 120 120 119 255 0.20003 0.302006
4.014669 0.100195 0.252945 0.7024966 -0.130832 -0.699558 97 95 95 255 0.20003 0.278154
4.139589 0.043755 0.233818 -0.1525927 0.9099227 -0.3856891 97 95 95 255 0.20003 0.278154
3.50808 0.10038 0.253418 -0.01513864 0.9993433 0.03292077 120 120 119 255 0.20003 0.302006
4.535151 0.08633 0.254257 -0.01067027 0.997505 -0.06978518 120 120 119 255 0.20003 0.302006
0.48938 0.09019 0.260818 0.005199347 0.583194 -0.8123163 97 95 95 255 0.20003 0.278154
1.52198 0.058075 0.25605 -0.01247607 0.5874096 -0.8091937 97 95 95 255 0.20003 0.278154
2.02986 0.045575 0.233696 0.02328004 0.5782216 -0.8155476 97 95 95 255 0.20003 0.278154
2.610519 0.062515 0.263405 -0.1180269 0.336733 -0.9341738 97 95 95 255 0.20003 0.278154
3.103359 0.053345 0.249146 -2.038278e-05 0.7438424 -0.6683552 97 95 95 255 0.20003 0.278154
2.57868 0.032915 0.203487 -0.03251744 0.986274 -0.1618832 97 95 95 255 0.20003 0.278154
1.97164 0.03434 0.187748 0.005856819 0.9957411 -0.09200837 97 95 95 255 0.20003 0.278154
3.43606 0.03593 0.195408 0.01008542 0.9933291 -0.1148722 97 95 95 255 0.20003 0.278154
3.33847 0.03626 0.140549 0.004195297 0.9999515 -0.008911504 97 95 95 255 0.20003 0.278154
3.96279 0.03625 0.163857 -0.005287012 0.9984149 -0.05603407 97 95 95 255 0.20003 0.278154
4.998369 0.042595 -0.001102 0.2805497 0.9057024 -0.3177972 97 95 95 255 0.20003 0.278154
0.799419 0.04517 0.135345 0.01538561 0.9997444 -0.0165662 97 95 95 255 0.20003 0.278154
1.600199 0.04518 0.135345 0.004359055 0.9988009 0.04876367 97 95 95 255 0.20003 0.278154
2.440029 0.044545 0.076668 0.003354285 0.9988127 0.04859917 97 95 95 255 0.20003 0.278154
4.74473 0.04484 0.057716 -0.008866761 0.9986674 -0.05084198 97 95 95 255 0.20003 0.278154
1.580669 0.04262 -0.000572 -6.836091e-05 0.7887636 -0.6146966 97 95 95 255 0.20003 0.278154
2.908789 0.04262 -0.000572 0.002157447 0.8350211 -0.5502136 97 95 95 255 0.20003 0.278154
3.49473 0.04262 -0.000572 0.00353371 0.7332694 -0.6799291 97 95 95 255 0.20003 0.278154
4.608009 0.03452 0.008938 -0.01319955 0.7211549 -0.6926481 97 95 95 255 0.20003 0.278154
0.74082 0 0 7.326001e-05 -0.5652707 -0.8249056 97 95 95 255 0.20003 0.278154
2.537699 0 0 0 -0.4567711 -0.8895842 97 95 95 255 0.20003 0.278154
1.31959 0.098269 4.745998 0.003658202 0.9999257 0.0116261 120 120 119 255 0.20003 0.302006
1.21364 0.095219 4.819088 0.005218357 0.999502 0.03112311 120 120 119 255 0.20003 0.302006
2.139629 0.091044 4.784569 0.02280086 0.9983234 0.05320216 120 120 119 255 0.20003 0.302006
1.89101 0.098534 4.805199 0.004147246 0.9999162 0.01226352 120 120 119 255 0.20003 0.302006
3.39036 0.100784 4.747929 -0.0003040285 0.9982899 0.05845618 120 120 119 255 0.20003 0.302006
2.711689 0.082624 4.809597 0.0002109719 0.9935203 0.1136552 120 120 119 255 0.20003 0.302006
3.87183 0.094944 4.823818 0.007994606 0.9999232 0.009478687 120 120 119 255 0.20003 0.302006
4.33518 0.092434 4.815689 -0.00512448 0.9999443 0.009222937 120 120 119 255 0.20003 0.302006
4.73279 0.089529 4.813538 -0.0003613021 0.9998417 0.01779288 120 120 119 255 0.20003 0.302006
0.57103 0.100744 4.747879 0.04498173 0.9972717 -0.05853161 120 120 119 255 0.20003 0.302006
0.17915 0.099864 4.510887 0.02013683 0.9991121 -0.03700736 120 120 119 255 0.20003 0.302006
0.32716 0.098894 4.786636 -0.006474363 0.9999546 0.006992689 120 120 119 255 0.20003 0.302006
0.981649 0.099769 4.767376 -0.03373411 0.999022 0.02858583 120 120 119 255 0.20003 0.302006
0.80308 0.078949 4.806599 -0.01304093 0.9998626 0.01024113 120 120 119 255 0.20003 0.302006
0.208719 0.085929 4.356476 -0.822294 0.5591692 -0.1056522 97 95 95 255 0.20003 0.278154
4.74469 0.099874 4.300697 0.9998934 0.009046718 0.01146259 97 95 95 255 0.20003 0.278154
0.2183 0.074519 4.240246 -0.4205643 0.9072604 0.002063027 97 95 95 255 0.20003 0.278154
0.21464 0.100264 4.045387 -0.8456932 0.5245399 -0.09829023 97 95 95 255 0.20003 0.278154
4.74474 0.099964 3.773918 -0.08349264 0.9953437 -0.04816539 120 120 119 255 0.20003 0.302006
0.232609 0.083909 3.989456 -0.0652426 0.9954293 -0.0697421 120 120 119 255 0.20003 0.302006
0.213869 0.101034 3.829849 0.03389324 0.9982069 0.04933878 120 120 119 255 0.20003 0.302006
4.74151 0.080704 3.577469 0.8752042 0.4829144 -0.02848315 97 95 95 255 0.20003 0.278154
0.19548 0.100994 3.302097 -0.8092582 0.5871696 -0.01825195 97 95 95 255 0.20003 0.278154
4.74225 0.079989 3.148098 0.8756222 0.4829919 0.002158304 97 95 95 255 0.20003 0.278154
0.220919 0.095129 3.071659 -0.7143865 0.6985008 -0.04181561 97 95 95 255 0.20003 0.278154
0.22072 0.09296 2.696808 -0.07287925 0.9963851 -0.04365058 120 120 119 255 0.20003 0.302006
4.741289 0.09456 2.369507 0.1076797 0.9941853 0.0008525997 120 120 119 255 0.20003 0.302006
0.19146 0.089865 2.579609 -0.04750859 0.9988587 0.004928575 120 120 119 255 0.20003 0.302006
0.20882 0.09362 2.035667 -0.7458813 0.6660515 0.00604996 97 95 95 255 0.20003 0.278154
4.74151 0.088665 1.936447 0.08079497 0.9967018 -0.007593445 120 120 119 255 0.20003 0.302006
0.1805 0.08259 1.328209 -0.6204914 0.7692609 -0.1524079 97 95 95 255 0.20003 0.278154
4.72555 0.08557 1.293236 0.5873715 0.6607758 -0.4673007 97 95 95 255 0.20003 0.278154
1.837509 0.09258 1.304817 -0.01213317 0.8482558 -0.5294478 97 95 95 255 0.20003 0.278154
2.248249 0.09508 1.28524 -0.01172577 0.5189437 -0.854728 97 95 95 255 0.20003 0.278154
1.44515 0.078795 1.281017 -0.05946226 0.7060032 -0.7057079 97 95 95 255 0.20003 0.278154
1.230869 0.101035 1.353058 0.04143939 0.8810387 -0.4712257 97 95 95 255 0.20003 0.278154
1.05246 0.09989 1.272018 0.1027326 0.561991 -0.8207389 97 95 95 255 0.20003 0.278154
0.35454 0.099865 1.271866 -0.06319165 0.2853609 -0.9563347 97 95 95 255 0.20003 0.278154
3.051119 0.099885 1.272079 -0.01227686 0.3243743 -0.9458492 97 95 95 255 0.20003 0.278154
3.58539 0.0999 1.272049 0.008972846 0.2272627 -0.9737923 97 95 95 255 0.20003 0.278154
4.56712 0.099815 1.271538 0.05685825 0.2346716 -0.9704104 97 95 95 255 0.20003 0.278154
1.65925 0.080405 1.27607 -0.008767114 0.7624831 -0.6469488 97 95 95 255 0.20003 0.278154
4.014809 0.100395 0.886417 0.00103991 0.9994776 0.03230307 120 120 119 255 0.20003 0.302006
3.48307 0.10102 0.884197 -0.0004120293 0.9993885 0.03496561 120 120 119 255 0.20003 0.302006
3.7836 0.09353 0.995186 0.0009019571 0.9978914 0.06489962 120 120 119 255 0.20003 0.302006
1.34865 0.09895 0.954647 0.03635094 0.9991169 0.02107361 120 120 119 255 0.20003 0.302006
0.957319 0.097975 0.95755 -0.0001421954 0.999997 -0.002477451 120 120 119 255 0.20003 0.302006
1.555729 0.083365 0.953758 -0.01704488 0.9977931 0.06417532 120 120 119 255 0.20003 0.302006
2.55278 0.09096 0.999496 6.423157e-05 0.9977416 0.06716944 120 120 119 255 0.20003 0.302006
3.090759 0.09112 0.996605 -0.001290841 0.9973407 0.07286862 120 120 119 255 0.20003 0.302006
4.347349 0.100945 0.963177 -0.01191106 0.9999121 0.005819863 120 120 119 255 0.20003 0.302006
4.15901 0.09269 0.959106 -0.04413505 0.998892 0.01633593 120 120 119 255 0.20003 0.302006
2.539351 0.09994 0.866119 -0.9750985 0.213465 0.06012979 97 95 95 255 0.20003 0.278154
1.719229 0.09754 1.002777 -0.03915693 0.9988447 0.0278565 120 120 119 255 0.20003 0.302006
4.014809 0.100265 0.489929 -0.007412335 0.9999467 0.007198559 120 120 119 255 0.20003 0.302006
4.140339 0.09959 0.486748 -0.9843907 0.175353 0.01504911 97 95 95 255 0.20003 0.278154
2.36322 0.10019 0.88826 -0.002156371 0.9999964 0.001585556 120 120 119 255 0.20003 0.302006
4.68524 0.096095 0.994675 -0.009679502 0.9998351 0.01536469 120 120 119 255 0.20003 0.302006
4.80407 0.10035 0.985737 -0.01583106 0.9997691 0.01453276 120 120 119 255 0.20003 0.302006
0.33086 0.10014 1.010376 0.006955783 0.9999741 0.001879684 120 120 119 255 0.20003 0.302006
0.13059 0.100205 1.010437 0.000324536 1 -6.645262e-05 120 120 119 255 0.20003 0.302006
0.88821 0.100445 0.274307 -0.5683767 0.5472906 -0.614346 97 95 95 255 0.20003 0.278154
0.75651 0.092405 0.990917 0.01841654 0.9998158 0.005417988 120 120 119 255 0.20003 0.302006
4.80582 0.100185 0.250786 -0.02513458 0.9985327 -0.04796642 120 120 119 255 0.20003 0.302006
0.76376 0.096235 0.259499 0.6533271 0.6302267 -0.4194973 97 95 95 255 0.20003 0.278154
0.129099 0.100155 0.250839 -0.4893273 0.6391218 -0.5933652 97 95 95 255 0.20003 0.278154
2.36293 0.10028 0.252567 0.7669019 0.02889599 -0.6411135 97 95 95 255 0.20003 0.278154
2.539499 0.10012 0.252838 0.02098822 0.9997797 0.0002985033 120 120 119 255 0.20003 0.302006
4.014669 0.100195 0.252945 0.0003649222 0.9999999 -0.0002955869 120 120 119 255 0.20003 0.302006
4.140379 0.09842 0.252338 -0.8874562 0.1713321 -0.4278632 97 95 95 255 0.20003 0.278154
0.36972 0.10071 0.321449 0.004021726 0.9865778 -0.1632425 97 95 95 255 0.20003 0.278154
1.579679 0.09988 0.254967 -0.02642593 0.1201217 -0.9924074 97 95 95 255 0.20003 0.278154
3.11581 0.08802 0.258186 -0.01362122 0.08748289 -0.9960729 97 95 95 255 0.20003 0.278154
3.50808 0.10038 0.253418 -0.003279837 0.04399324 -0.9990265 97 95 95 255 0.20003 0.278154
4.535151 0.08633 0.254257 0.01694709 0.08442117 -0.996286 97 95 95 255 0.20003 0.278154
1.71821 0.099805 0.253857 -0.004790645 0.3241583 -0.9459907 97 95 95 255 0.20003 0.278154
3 0 1 2 
3 1 3 2 
3 4 0 5 
3 6 7 8 
3 4 5 8 
3 7 4 8 
3 6 8 9 
3 6 9 10 
3 10 11 12 
3 5 0 2 
3 11 10 9 
3 13 1 0 
3 6 14 7 
3 12 15 10 
3 16 13 0 
3 17 6 10 
3 1 18 3 
3 8 19 9 
3 7 20 4 
3 9 21 11 
3 22 1 13 
3 14 20 7 
3 15 17 10 
3 5 23 8 
3 22 24 1 
3 16 22 13 
3 16 0 4 
3 20 16 4 
3 17 25 6 
3 12 11 21 
3 25 14 6 
3 23 5 2 
3 26 27 24 
3 28 26 22 
3 29 28 16 
3 30 31 32 
3 33 34 20 
3 33 20 14 
3 31 29 16 
3 32 16 20 
3 34 32 20 
3 35 36 17 
3 35 15 37 
3 26 24 22 
3 32 31 16 
3 38 33 25 
3 36 38 17 
3 35 17 15 
3 18 1 24 
3 22 16 28 
3 25 33 14 
3 25 17 38 
3 38 39 33 
3 36 39 38 
3 40 26 28 
3 18 41 3 
3 26 42 27 
3 251 43 252 
3 253 44 254 
3 255 44 256 
3 45 257 258 
3 46 258 259 
3 41 2 3 
3 23 19 8 
3 260 261 262 
3 43 263 252 
3 44 253 256 
3 263 47 264 
3 46 45 258 
3 42 48 27 
3 27 48 24 
3 12 49 15 
3 45 44 255 
3 45 255 257 
3 37 15 50 
3 51 260 264 
3 47 51 264 
3 43 47 263 
3 52 261 260 
3 51 52 260 
3 53 46 259 
3 54 18 24 
3 18 54 41 
3 55 43 251 
3 50 15 49 
3 51 56 52 
3 254 55 251 
3 49 12 21 
3 43 57 47 
3 48 54 24 
3 58 55 254 
3 265 48 42 
3 47 56 51 
3 266 37 50 
3 48 265 59 
3 59 54 48 
3 57 56 47 
3 44 58 254 
3 265 267 59 
3 19 21 9 
3 60 57 43 
3 61 266 50 
3 62 54 59 
3 267 268 59 
3 62 63 54 
3 49 64 50 
3 65 45 46 
3 54 63 41 
3 53 65 46 
3 268 66 59 
3 66 67 59 
3 63 68 41 
3 53 269 65 
3 67 62 59 
3 60 270 57 
3 60 69 270 
3 55 60 43 
3 70 49 21 
3 66 71 67 
3 69 271 270 
3 72 62 67 
3 73 60 55 
3 61 50 64 
3 70 64 49 
3 68 2 41 
3 73 69 60 
3 74 65 269 
3 70 21 19 
3 75 69 73 
3 64 272 61 
3 76 73 55 
3 69 77 271 
3 58 78 55 
3 71 273 67 
3 79 69 75 
3 78 76 55 
3 80 45 65 
3 74 80 65 
3 76 75 73 
3 81 78 58 
3 80 82 45 
3 69 83 77 
3 84 81 58 
3 273 72 67 
3 76 79 75 
3 85 58 44 
3 82 44 45 
3 86 81 84 
3 87 80 74 
3 274 272 64 
3 72 63 62 
3 88 76 78 
3 81 88 78 
3 79 83 69 
3 89 82 80 
3 88 79 76 
3 85 84 58 
3 90 80 87 
3 274 64 91 
3 88 81 86 
3 92 19 93 
3 89 94 82 
3 95 89 80 
3 90 95 80 
3 96 64 70 
3 97 44 98 
3 82 98 44 
3 97 85 44 
3 94 98 82 
3 273 275 72 
3 70 19 92 
3 99 86 84 
3 85 99 84 
3 275 100 72 
3 86 101 88 
3 72 102 63 
3 92 96 70 
3 99 101 86 
3 103 100 275 
3 95 94 89 
3 79 276 83 
3 100 102 72 
3 63 102 68 
3 96 91 64 
3 104 85 97 
3 104 99 85 
3 105 274 91 
3 106 99 104 
3 94 107 98 
3 108 101 99 
3 277 90 87 
3 88 109 79 
3 106 108 99 
3 107 97 98 
3 110 94 95 
3 111 112 102 
3 102 112 68 
3 107 104 97 
3 100 111 102 
3 68 23 2 
3 93 19 23 
3 101 108 88 
3 106 104 107 
3 103 113 100 
3 110 107 94 
3 113 114 100 
3 114 111 100 
3 79 109 276 
3 109 278 276 
3 115 108 106 
3 116 106 107 
3 110 116 107 
3 117 116 110 
3 116 115 106 
3 118 278 109 
3 119 118 109 
3 95 117 110 
3 277 95 90 
3 120 96 92 
3 117 115 116 
3 120 92 93 
3 118 121 278 
3 112 23 68 
3 114 122 111 
3 96 120 91 
3 123 120 93 
3 124 115 117 
3 113 279 114 
3 122 112 111 
3 114 279 122 
3 88 119 109 
3 123 93 125 
3 95 124 117 
3 126 105 91 
3 280 95 277 
3 124 127 115 
3 123 91 120 
3 88 128 119 
3 129 124 95 
3 130 118 119 
3 131 91 123 
3 127 108 115 
3 132 130 119 
3 133 93 23 
3 134 121 118 
3 132 119 128 
3 127 135 108 
3 280 136 95 
3 130 134 118 
3 137 127 124 
3 126 91 131 
3 138 112 122 
3 134 139 121 
3 88 108 140 
3 129 137 124 
3 141 128 88 
3 279 281 122 
3 133 125 93 
3 135 127 137 
3 142 136 280 
3 140 141 88 
3 135 140 108 
3 282 126 131 
3 122 281 138 
3 123 125 143 
3 144 128 141 
3 123 145 131 
3 146 283 284 
3 147 132 128 
3 144 147 128 
3 136 129 95 
3 285 148 286 
3 129 135 137 
3 133 149 125 
3 148 287 286 
3 143 125 149 
3 281 288 138 
3 288 287 148 
3 284 289 150 
3 289 290 151 
3 291 152 290 
3 291 131 152 
3 291 282 131 
3 150 289 151 
3 290 152 151 
3 285 292 148 
3 283 146 292 
3 288 153 138 
3 288 148 153 
3 146 284 150 
3 154 148 292 
3 155 154 292 
3 155 292 146 
3 155 146 150 
3 156 151 152 
3 157 152 131 
3 145 157 131 
3 158 112 138 
3 159 148 154 
3 159 154 155 
3 160 156 152 
3 157 160 152 
3 112 158 23 
3 161 157 145 
3 153 162 138 
3 123 161 145 
3 163 159 155 
3 164 155 150 
3 164 150 151 
3 165 158 138 
3 162 165 138 
3 166 153 148 
3 159 166 148 
3 167 159 163 
3 153 168 162 
3 169 160 157 
3 170 165 162 
3 167 166 159 
3 171 172 163 
3 171 163 155 
3 160 151 156 
3 173 169 157 
3 173 157 161 
3 166 168 153 
3 172 167 163 
3 174 164 151 
3 169 175 160 
3 176 169 173 
3 143 161 123 
3 168 170 162 
3 164 171 155 
3 174 151 160 
3 177 178 172 
3 177 172 179 
3 180 181 161 
3 182 183 165 
3 184 182 170 
3 184 170 168 
3 178 185 172 
3 186 187 174 
3 181 188 173 
3 189 180 161 
3 170 182 165 
3 190 191 166 
3 185 192 167 
3 172 185 167 
3 179 172 171 
3 187 193 174 
3 194 186 174 
3 169 194 175 
3 193 164 174 
3 181 173 161 
3 190 166 167 
3 192 190 167 
3 194 174 175 
3 160 175 174 
3 192 191 190 
3 195 187 186 
3 195 186 194 
3 196 194 169 
3 197 177 179 
3 293 294 295 
3 197 179 171 
3 296 198 297 
3 198 296 298 
3 178 177 197 
3 199 299 300 
3 294 199 300 
3 158 200 23 
3 301 201 302 
3 202 196 169 
3 193 303 164 
3 203 189 161 
3 304 198 298 
3 305 199 294 
3 202 169 204 
3 305 294 293 
3 188 306 173 
3 205 189 203 
3 304 307 206 
3 207 297 198 
3 208 308 309 
3 310 209 311 
3 208 301 308 
3 191 312 166 
3 306 210 173 
3 211 310 313 
3 314 208 309 
3 211 212 310 
3 213 158 165 
3 176 204 169 
3 210 176 173 
3 143 203 161 
3 214 168 166 
3 315 184 168 
3 212 209 310 
3 316 213 183 
3 164 215 171 
3 210 204 176 
3 198 216 207 
3 312 217 166 
3 218 215 164 
3 183 213 165 
3 219 200 158 
3 208 201 301 
3 143 220 203 
3 221 143 149 
3 303 222 164 
3 213 219 158 
3 223 206 307 
3 208 224 201 
3 305 225 199 
3 206 198 304 
3 226 202 204 
3 315 168 214 
3 197 171 317 
3 164 222 218 
3 217 214 166 
3 318 199 225 
3 227 204 210 
3 206 216 198 
3 319 228 305 
3 229 208 314 
3 306 320 210 
3 227 210 320 
3 228 225 305 
3 229 224 208 
3 215 317 171 
3 221 220 143 
3 230 316 321 
3 230 321 315 
3 312 231 217 
3 312 322 231 
3 317 215 232 
3 218 222 233 
3 323 324 234 
3 324 226 204 
3 205 203 325 
3 322 326 232 
3 326 317 232 
3 222 323 233 
3 316 230 213 
3 315 214 230 
3 322 232 231 
3 323 234 233 
3 233 235 218 
3 234 324 204 
3 320 325 227 
3 214 213 230 
3 236 231 232 
3 235 215 218 
3 235 233 234 
3 237 234 204 
3 203 227 325 
3 235 232 215 
3 238 234 237 
3 239 237 204 
3 227 239 204 
3 220 227 203 
3 240 220 221 
3 240 221 149 
3 241 214 217 
3 236 217 231 
3 235 236 232 
3 238 235 234 
3 242 217 236 
3 243 236 235 
3 239 238 237 
3 220 244 227 
3 244 220 240 
3 242 241 217 
3 243 235 238 
3 244 239 227 
3 243 242 236 
3 219 213 214 
3 219 214 241 
3 245 242 243 
3 246 243 238 
3 219 241 245 
3 239 247 238 
3 244 248 239 
3 246 245 243 
3 247 246 238 
3 249 23 200 
3 249 250 23 
3 250 133 23 
3 245 241 242 
3 248 247 239 
3 240 248 244 
3 219 245 249 
3 246 247 250 
3 247 248 133 
3 133 250 247 
3 219 249 200 
3 249 245 250 
3 245 246 250 
3 133 248 149 
3 248 240 149 
