ply
format ascii 1.0
comment INFO-3111 Flatenator generated
comment TextureFile Dungeons_Texture_01.png
element vertex 22
property float x
property float y
property float z
property float nx
property float ny
property float nz
element face 25
property list uchar int vertex_indices
end_header
0 2.5 1e-06 -0.57735 -0.577351 0.57735 
-2.5 5 0 -0.577351 -0.577351 0.577349 
-4e-06 5 2.5 -0.577349 -0.57735 0.577352 
-0.180334 4.81967 2.13934 -0.332524 -0.332525 0.882528 
-2.13934 4.81967 0.180332 -0.751464 -0.46653 0.466531 
-0.36895 4.63105 2.10876 -0.08053 -0.0805322 0.993494 
-0.180332 3.13093 0.450602 0.0173295 -0.864998 0.501477 
-2.10876 4.63105 0.368949 -0.993493 -0.0805326 0.0805305 
-0.559784 3.08208 0.368951 -0.146319 -0.979747 -0.136697 
-0.36895 3.13755 0.615253 0.324331 -0.854452 0.40586 
-0.419592 3.09992 0.180334 -0.575923 -0.804424 0.145655 
-0.36895 4.2487 1.72641 0.402461 -0.707133 0.581368 
-0.36895 3.62462 1.10233 0.320606 -0.613754 0.721469 
-0.180332 4.12174 1.44141 -0.107238 -0.70806 0.697962 
-0.519258 3.98399 1.3114 0.0288266 -0.722713 0.690547 
-0.36895 4.2487 1.72641 -0.57735 -0.577349 0.577351 
-0.36895 4.63105 2.10876 -0.57735 -0.577351 0.57735 
-2.10876 4.63105 0.368949 -0.577351 -0.57735 0.57735 
-0.559784 3.08208 0.368951 -0.57735 -0.577352 0.577349 
-0.519258 3.98399 1.3114 -0.577351 -0.57735 0.57735 
-0.36895 3.13755 0.615253 -0.577348 -0.577353 0.577349 
-0.36895 3.62462 1.10233 -0.577349 -0.577352 0.577349 
3 11 14 13
3 2 3 13
3 2 4 3
3 10 0 6
3 3 7 5
3 8 6 9
3 10 7 4
3 1 10 4
3 6 12 9
3 11 3 5
3 15 16 17
3 13 14 12
3 6 0 13
3 0 2 13
3 2 1 4
3 3 4 7
3 8 10 6
3 10 8 7
3 1 0 10
3 6 13 12
3 11 13 3
3 17 18 19
3 18 20 21
3 19 18 21
3 19 15 17
