ply
format ascii 1.0
comment INFO-3111 Flatenator generated
comment TextureFile Dungeons_Texture_01.png
element vertex 26
property float x
property float y
property float z
element face 48
property list uchar int vertex_indices
end_header
-0.302093 -0.065036 -0.201823 
0 -0.065036 -0.201823 
0 -0.065036 0.201821 
-0.302093 -0.065036 0.201821 
-0.276397 0.065037 0.10091 
-0.302093 0.032518 0.201821 
-0.09558 0.065037 0.201821 
0.30209 -0.065036 -0.201823 
0.30209 -0.065036 0.201821 
0.226566 0.065037 0.201821 
0.30209 0.032518 0.201821 
0.30209 0.065037 0.10091 
0 0.012237 0.20182 
-0.302093 0.012496 0.201821 
-0.302093 0.032518 -0.201823 
-0.276397 0.065037 -0.100912 
-0.130935 0.065037 -0.201823 
0 0.065037 0.17566 
0.30209 0.011979 0.201821 
0.226566 0.065037 -0.201823 
0.275093 0.065037 0.000861 
0.30209 0.032518 -0.201823 
0 0.065037 -0.182547 
0 0.012237 -0.201823 
-0.302088 0.012496 -0.201823 
0.30209 0.011979 -0.201823 
3 1 3 0
3 4 5 6
3 1 8 2
3 9 10 11
3 3 12 13
3 14 15 16
3 18 10 9
3 19 20 21
3 16 15 17
3 16 23 24
3 3 24 0
3 9 11 20
3 7 18 8
3 19 25 23
3 12 17 6
3 18 2 8
3 23 0 24
3 4 15 24
3 20 11 18
3 25 1 23
3 1 2 3
3 1 7 8
3 3 2 12
3 9 17 12
3 12 18 9
3 15 4 6
3 6 17 15
3 17 22 16
3 24 14 16
3 16 22 23
3 3 13 24
3 19 22 20
3 22 17 20
3 17 9 20
3 7 25 18
3 23 22 19
3 19 21 25
3 5 13 6
3 13 12 6
3 18 12 2
3 23 1 0
3 14 24 15
3 24 13 4
3 13 5 4
3 10 18 11
3 18 25 20
3 25 21 20
3 25 7 1
