ply
format ascii 1.0
comment INFO-3111 Flatenator generated
comment TextureFile Dungeons_Texture_01.png
element vertex 186
property float x
property float y
property float z
property float nx
property float ny
property float nz
property float texture_u
property float texture_v
element face 214
property list uchar int vertex_indices
end_header
1.54387 1.50432 0.150511 -0.197678 -0.200578 0.959527 0.223676 0.294369 
3.25567 1.45068 0.150511 0.124149 -0.169917 0.977607 0.200041 0.278032 
2.71038 2.37317 0.128465 0.177407 -0.225252 0.958013 0.223676 0.294369 
1.44981 2.44549 0.128465 -0.338946 -0.367298 0.866145 0.223676 0.294369 
3.55919 4.87153 2.55447 0.323731 -0.876992 0.355082 0.223676 0.294369 
3.55446 4.84948 3.65317 0.198 -0.951332 0.236141 0.200041 0.278032 
1.43944 4.84948 3.69227 -0.18749 -0.938233 0.290802 0.223676 0.294369 
1.42361 4.8623 3.03076 -0.329001 -0.916964 -0.225691 0.223676 0.294369 
2.11517 4.87153 2.55447 -0.160592 -0.942251 0.293892 0.223676 0.294369 
2.28652 4.25434 1.97166 -0.300776 -0.702114 0.645422 0.223676 0.294369 
3.53454 4.25012 1.96744 0.307792 -0.661351 0.684017 0.223676 0.294369 
0 0 -4e-06 0 0 1 0.200041 0.278032 
5 0 -4e-06 0 0 1 0.200041 0.278032 
4.8173 0.132463 -4e-06 0.109987 -0.108124 0.988034 0.200041 0.278032 
0.213177 0.161493 -4e-06 -0.110223 -0.115574 0.987164 0.200041 0.278032 
5 2.5 -4e-06 -1.7794e-07 -0.382684 0.923879 0.200041 0.278032 
4.78682 2.5 -4e-06 0.458568 -0.338651 0.821603 0.200041 0.278032 
4.8102 0.684173 -4e-06 0.0786221 -0.110887 0.990718 0.200041 0.278032 
0 2.5 -4e-06 0 -0.382685 0.923879 0.200041 0.278032 
0.138424 2.5 -4e-06 -0.224793 -0.386762 0.894362 0.200041 0.278032 
5 5 2.5 5.46527e-07 -0.923879 0.382684 0.200041 0.278032 
5 5 5 1.87494e-07 -1 -1.96316e-07 0.200041 0.278032 
4.78682 5 4.7964 0.157757 -0.973799 0.163793 0.200041 0.278032 
4.78682 5 2.5 0.458444 -0.82146 0.339164 0.200041 0.278032 
0 5 5 -1.81486e-07 -1 -2.06189e-07 0.200041 0.278032 
0.277094 5 4.7561 -0.134073 -0.97929 0.151708 0.200041 0.278032 
0 5 2.5 -1.41375e-08 -0.923879 0.382684 0.200041 0.278032 
0.213179 5 2.5 -0.456257 -0.822527 0.339528 0.200041 0.278032 
0 4.37034 1.87034 2.26541e-06 -0.707107 0.707107 0.200041 0.278032 
0.248787 4.36988 1.86988 -0.323231 -0.678877 0.659278 0.200041 0.278032 
5 3.57636 1.07636 -3.11602e-06 -0.707108 0.707106 0.200041 0.278032 
4.78682 3.56515 1.06515 0.277719 -0.666454 0.691889 0.200041 0.278032 
4.66181 0.268682 0.149815 0.315664 -0.199304 0.927704 0.200041 0.278032 
0.670776 0.406365 0.149815 -0.0300844 -0.262982 0.964332 0.200041 0.278032 
0.234333 0.180809 0.040741 -0.461795 -0.546461 0.69866 0.200041 0.278032 
4.6823 0.966762 0.14155 0.253239 -0.193066 0.947943 0.200729 0.279229 
4.76086 2.48233 0.042664 0.772257 -0.235053 0.590228 0.200041 0.278032 
4.70903 2.15502 0.130768 0.485252 0.0297506 0.873868 0.200041 0.278032 
0.432808 0.618039 0.147717 -0.24146 -0.0512938 0.969054 0.200041 0.278032 
0.290966 1.65566 0.135716 -0.4031 0.00214069 0.915153 0.200041 0.278032 
4.74645 4.92224 4.74811 0.500454 -0.731546 0.463019 0.200041 0.278032 
4.49234 4.85018 4.70335 0.0437295 -0.874739 0.482617 0.200041 0.278032 
4.70903 4.85275 4.45178 0.51477 -0.85688 0.0277213 0.200041 0.278032 
4.70903 4.28887 1.96972 0.500076 -0.631866 0.592173 0.200041 0.278032 
4.78682 4.359 1.859 0.469797 -0.644801 0.602928 0.200041 0.278032 
4.70903 4.87212 2.55297 0.569175 -0.761771 0.309425 0.200041 0.278032 
2.08113 0.931736 0.149815 0.0276673 0.156742 0.987252 0.197903 0.304397 
3.93777 1.48661 0.146513 -0.486886 -0.0940728 0.868385 0.200041 0.278032 
4.59582 2.44703 0.127876 0.196906 -0.347739 0.916682 0.197903 0.304397 
3.93777 2.50448 0.127876 -0.519817 -0.375774 0.767192 0.197903 0.304397 
0.527795 2.36211 0.127876 -0.13284 -0.28945 0.94793 0.197903 0.304397 
1.15012 1.1063 0.149815 0.14165 0.156727 0.977431 0.197903 0.304397 
1.06223 2.44703 0.127876 0.411821 -0.347658 0.842341 0.197903 0.304397 
0.407021 4.87212 2.55297 -0.146638 -0.918022 0.368419 0.200041 0.278032 
0.290966 4.87031 2.73077 -0.509238 -0.860116 -0.0296141 0.200041 0.278032 
0.251785 4.93653 2.52629 -0.762161 -0.601137 0.240303 0.200041 0.278032 
0.290966 4.71378 2.39462 -0.51748 -0.606846 0.603285 0.200041 0.278032 
4.70903 2.74007 0.420914 0.475206 -0.629972 0.614259 0.197903 0.304397 
4.57086 3.5113 1.19214 0.256534 -0.675425 0.691369 0.197903 0.304397 
3.93777 3.48295 1.1638 -0.419105 -0.65686 0.626806 0.197903 0.304397 
1.26766 1.2312 -0.016209 0.279826 0.280621 0.918123 0.200041 0.278032 
2.26411 1.12354 0.060394 -0.00743074 0.600307 0.799735 0.200041 0.278032 
3.8476 1.16358 -0.016209 0.00753311 0.318115 0.948022 0.200041 0.278032 
3.8476 2.50461 -0.01384 -0.179058 -0.352715 0.918439 0.200041 0.278032 
1.22331 2.50461 -0.01384 0.0835602 -0.384161 0.919477 0.200041 0.278032 
3.93777 4.87212 2.55297 -0.429608 -0.827885 0.360614 0.200041 0.278032 
3.93777 4.85018 3.94974 -0.174231 -0.968557 -0.177598 0.197903 0.304397 
3.8476 5.0162 3.87503 -0.328988 -0.866649 -0.375082 0.200041 0.278032 
3.78763 5.01383 2.49537 -0.0867737 -0.918789 0.385093 0.200041 0.278032 
1.21761 4.85018 3.98651 -0.00773262 -0.883299 -0.468746 0.200041 0.278032 
1.12844 4.9721 3.89488 0.470787 -0.744653 -0.47313 0.200041 0.278032 
1.1524 5.0162 3.87503 0.340578 -0.885751 -0.31536 0.200041 0.278032 
1.06223 4.85247 3.5661 0.491034 -0.870851 0.0224748 0.200041 0.278032 
1.16675 5.01485 3.08963 0.255127 -0.965562 -0.0509886 0.200041 0.278032 
1.06223 4.87212 2.55297 0.502439 -0.799227 0.329835 0.200041 0.278032 
1.06223 4.29806 1.97891 0.434976 -0.629653 0.643687 0.197903 0.304397 
1.17177 4.3752 1.85674 0.164947 -0.689293 0.705456 0.200041 0.278032 
1.1776 5.01383 2.49537 0.143967 -0.913876 0.37961 0.200041 0.278032 
3.82307 3.53079 1.01234 -0.138806 -0.706955 0.693504 0.200041 0.278032 
0.354881 4.85018 4.61943 -0.424152 -0.850522 0.310979 0.200041 0.278032 
0.434805 4.29934 1.98019 -0.264258 -0.696218 0.667419 0.200041 0.278032 
0.895172 4.85018 4.01919 0.0580991 -0.997069 -0.0497735 0.197903 0.304397 
1.69229 1.0768 0.149815 0.0286953 0.428472 0.903099 0.200041 0.278032 
2.85667 1.0768 0.149815 -0.00516856 0.518026 0.85535 0.200041 0.278032 
3.80159 1.0768 0.149815 0.142245 0.529232 0.836468 0.200041 0.278032 
2.67751 3.34385 1.06117 -0.189834 -0.758447 0.623475 0.223676 0.294369 
3.58834 3.41291 1.13023 0.307377 -0.671031 0.674713 0.223676 0.294369 
0 3.31352 0.813523 4.2988e-06 -0.707108 0.707106 0.200041 0.278032 
0.163006 3.32209 0.822091 -0.379196 -0.647705 0.660824 0.200041 0.278032 
5 4.35849 1.85849 6.64686e-06 -0.707107 0.707107 0.200041 0.278032 
3.86619 4.29015 1.971 -0.459375 -0.621243 0.634848 0.197903 0.304397 
1.13498 3.3074 0.988244 0.419718 -0.638144 0.645452 0.200041 0.278032 
1.26263 3.37111 0.852655 0.0719864 -0.714739 0.695677 0.200041 0.278032 
3.75766 4.36801 1.84955 -0.113902 -0.694891 0.710037 0.200041 0.278032 
0.290966 3.27905 0.959897 -0.392822 -0.639733 0.66063 0.200041 0.278032 
3.60851 2.44549 0.128465 0.161288 -0.471074 0.867223 0.223676 0.294369 
0.290966 2.87381 0.554655 -0.368476 -0.650079 0.664548 0.200041 0.278032 
1.40742 4.25731 1.97463 -0.308259 -0.669305 0.676023 0.200041 0.278032 
1.41221 4.87153 2.55447 -0.0935729 -0.819514 0.565368 0.200041 0.278032 
1.48216 3.25322 0.970544 -0.310723 -0.681848 0.66222 0.200041 0.278032 
1.41845 5.01233 2.81501 0.0092991 -0.999518 -0.0296128 0.200041 0.278032 
1.74707 5.01738 2.55447 -0.0764279 -0.971561 0.224118 0.199511 0.279839 
1.81614 4.25593 1.97325 0.318002 -0.628895 0.709483 0.223676 0.294369 
3.15606 2.44549 -0.02235 0.0316404 -0.34797 0.936971 0.199511 0.279839 
3.53438 1.89121 -0.010067 -0.0640391 -0.0158283 0.997822 0.199511 0.279839 
2.23444 3.46818 0.946737 0.0639386 -0.690973 0.720047 0.199511 0.279839 
2.04467 4.41308 1.89163 -0.0246236 -0.712791 0.700944 0.199511 0.279839 
2.04318 3.36956 0.975298 0.330784 -0.585316 0.740262 0.199511 0.279839 
1.85438 3.62774 1.34506 0.239795 -0.672666 0.700014 0.199511 0.279839 
1.75802 3.27414 0.991459 0.0880327 -0.692716 0.715817 0.199511 0.279839 
2.11733 3.04034 0.747706 0.167455 -0.600745 0.781706 0.199511 0.279839 
4.02151 1.09188 -0.015275 0.0907487 0.0766097 0.992923 0.200041 0.278032 
4.67034 0.609404 -0.017143 0.114308 0.0442628 0.992459 0.200041 0.278032 
4.81508 0.304413 -4e-06 0.309002 0.0836405 0.947377 0.200041 0.278032 
0.670776 0.406365 0.149815 -0.0300844 -0.262982 0.964332 0.197903 0.304397 
4.66181 0.268682 0.149815 0.315664 -0.199304 0.927704 0.197903 0.304397 
4.70903 2.15502 0.130768 0.485252 0.0297506 0.873868 0.197903 0.304397 
0.290966 1.65566 0.135716 -0.4031 0.00214069 0.915153 0.197903 0.304397 
1.06223 2.44703 0.127876 0.411821 -0.347658 0.842341 0.200041 0.278032 
3.93777 2.50448 0.127876 -0.519817 -0.375774 0.767192 0.200041 0.278032 
0.290966 4.71378 2.39462 -0.51748 -0.606846 0.603285 0.197903 0.304397 
1.06223 4.87212 2.55297 0.502439 -0.799227 0.329835 0.197903 0.304397 
1.06223 4.85247 3.5661 0.491034 -0.870851 0.0224748 0.197903 0.304397 
0.290966 4.87031 2.73077 -0.509238 -0.860116 -0.0296141 0.197903 0.304397 
0.895172 4.85018 4.01919 0.0580991 -0.997069 -0.0497735 0.200041 0.278032 
0.354881 4.85018 4.61943 -0.424152 -0.850522 0.310979 0.197903 0.304397 
1.21761 4.85018 3.98651 -0.00773262 -0.883299 -0.468746 0.197903 0.304397 
4.70903 4.87212 2.55297 0.569175 -0.761771 0.309425 0.197903 0.304397 
3.93777 4.87212 2.55297 -0.429608 -0.827885 0.360614 0.197903 0.304397 
4.70903 2.74007 0.420914 0.475206 -0.629972 0.614259 0.200041 0.278032 
4.59582 2.44703 0.127876 0.196906 -0.347739 0.916682 0.200041 0.278032 
2.08113 0.931736 0.149815 0.0276673 0.156742 0.987252 0.200041 0.278032 
1.15012 1.1063 0.149815 0.14165 0.156727 0.977431 0.200041 0.278032 
2.85667 1.0768 0.149815 -0.00516856 0.518026 0.85535 0.197903 0.304397 
1.69229 1.0768 0.149815 0.0286953 0.428472 0.903099 0.197903 0.304397 
4.70903 4.85275 4.45178 0.51477 -0.85688 0.0277213 0.197903 0.304397 
4.49234 4.85018 4.70335 0.0437295 -0.874739 0.482617 0.197903 0.304397 
4.70903 4.28887 1.96972 0.500076 -0.631866 0.592173 0.197903 0.304397 
0.434805 4.29934 1.98019 -0.264258 -0.696218 0.667419 0.197903 0.304397 
1.13498 3.3074 0.988244 0.419718 -0.638144 0.645452 0.197903 0.304397 
3.93777 3.48295 1.1638 -0.419105 -0.65686 0.626806 0.200041 0.278032 
0.290966 2.87381 0.554655 -0.368476 -0.650079 0.664548 0.197903 0.304397 
1.54387 1.50432 0.150511 -0.197678 -0.200578 0.959527 0.200041 0.278032 
3.60851 2.44549 0.128465 0.161288 -0.471074 0.867223 0.200041 0.278032 
1.44981 2.44549 0.128465 -0.338946 -0.367298 0.866145 0.200041 0.278032 
3.55919 4.87153 2.55447 0.323731 -0.876992 0.355082 0.200041 0.278032 
1.43944 4.84948 3.69227 -0.18749 -0.938233 0.290802 0.200041 0.278032 
1.42361 4.8623 3.03076 -0.329001 -0.916964 -0.225691 0.200041 0.278032 
3.53454 4.25012 1.96744 0.307792 -0.661351 0.684017 0.200041 0.278032 
3.58834 3.41291 1.13023 0.307377 -0.671031 0.674713 0.200041 0.278032 
1.42361 4.8623 3.03076 -0.329001 -0.916964 -0.225691 0.199511 0.279839 
2.11517 4.87153 2.55447 -0.160592 -0.942251 0.293892 0.199511 0.279839 
1.41221 4.87153 2.55447 -0.0935729 -0.819514 0.565368 0.223676 0.294369 
1.40742 4.25731 1.97463 -0.308259 -0.669305 0.676023 0.223676 0.294369 
3.60851 2.44549 0.128465 0.161288 -0.471074 0.867223 0.199511 0.279839 
2.67751 3.34385 1.06117 -0.189834 -0.758447 0.623475 0.199511 0.279839 
2.28652 4.25434 1.97166 -0.300776 -0.702114 0.645422 0.199511 0.279839 
1.41845 5.01233 2.81501 0.0092991 -0.999518 -0.0296128 0.199511 0.279839 
1.41221 4.87153 2.55447 -0.0935729 -0.819514 0.565368 0.199511 0.279839 
1.81614 4.25593 1.97325 0.318002 -0.628895 0.709483 0.199511 0.279839 
2.71038 2.37317 0.128465 0.177407 -0.225252 0.958013 0.199511 0.279839 
3.53438 1.89121 -0.010067 -0.0640391 -0.0158283 0.997822 0.200041 0.278032 
1.85438 3.62774 1.34506 0.239795 -0.672666 0.700014 0.223676 0.294369 
1.48216 3.25322 0.970544 -0.310723 -0.681848 0.66222 0.223676 0.294369 
2.11733 3.04034 0.747706 0.167455 -0.600745 0.781706 0.223676 0.294369 
4.02151 1.09188 -0.015275 0.0907487 0.0766097 0.992923 0.200729 0.279229 
3.93777 1.48661 0.146513 -0.486886 -0.0940728 0.868385 0.200729 0.279229 
4.6823 0.966762 0.14155 0.253239 -0.193066 0.947943 0.200041 0.278032 
4.66181 0.268682 0.149815 0.315664 -0.199304 0.927704 0.200729 0.279229 
3.80159 1.0768 0.149815 0.142245 0.529232 0.836468 0.200729 0.279229 
0.527795 2.36211 0.127876 -0.13284 -0.28945 0.94793 0.200041 0.278032 
4.57086 3.5113 1.19214 0.256534 -0.675425 0.691369 0.200041 0.278032 
3.25567 1.45068 0.150511 0.124149 -0.169917 0.977607 0.223676 0.294369 
3.55446 4.84948 3.65317 0.198 -0.951332 0.236141 0.223676 0.294369 
3.93777 1.48661 0.146513 -0.486886 -0.0940728 0.868385 0.197903 0.304397 
4.6823 0.966762 0.14155 0.253239 -0.193066 0.947943 0.197903 0.304397 
0.432808 0.618039 0.147717 -0.24146 -0.0512938 0.969054 0.197903 0.304397 
3.93777 4.85018 3.94974 -0.174231 -0.968557 -0.177598 0.200041 0.278032 
1.06223 4.29806 1.97891 0.434976 -0.629653 0.643687 0.200041 0.278032 
0.407021 4.87212 2.55297 -0.146638 -0.918022 0.368419 0.197903 0.304397 
3.80159 1.0768 0.149815 0.142245 0.529232 0.836468 0.197903 0.304397 
3.86619 4.29015 1.971 -0.459375 -0.621243 0.634848 0.200041 0.278032 
0.290966 3.27905 0.959897 -0.392822 -0.639733 0.66063 0.197903 0.304397 
3.25567 1.45068 0.150511 0.124149 -0.169917 0.977607 0.199511 0.279839 
1.75802 3.27414 0.991459 0.0880327 -0.692716 0.715817 0.223676 0.294369 
4.67034 0.609404 -0.017143 0.114308 0.0442628 0.992459 0.200729 0.279229 
3 0 2 3
3 6 7 8
3 4 9 10
3 11 13 14
3 15 17 12
3 18 14 19
3 20 22 23
3 21 25 22
3 26 25 24
3 28 27 26
3 15 31 16
3 13 32 33
3 16 36 37
3 14 38 39
3 40 41 42
3 44 45 43
3 46 114 115
3 49 116 48
3 117 51 52
3 53 54 55
3 55 56 53
3 57 59 49
3 60 61 62
3 47 63 62
3 118 60 64
3 65 67 68
3 69 71 67
3 72 71 70
3 74 76 77
3 119 78 63
3 27 55 54
3 29 80 56
3 120 75 121
3 122 81 123
3 124 72 70
3 69 124 70
3 25 79 41
3 125 81 126
3 127 66 128
3 22 40 42
3 36 129 130
3 37 36 130
3 34 33 38
3 82 131 61
3 82 60 132
3 62 83 84
3 115 133 46
3 114 134 51
3 135 136 66
3 61 131 83
3 10 85 86
3 28 88 29
3 44 20 23
3 137 128 90
3 76 91 92
3 93 65 68
3 29 94 80
3 138 139 75
3 30 44 31
3 58 90 59
3 140 93 78
3 86 85 95
3 87 19 88
3 92 118 64
3 88 96 94
3 141 50 52
3 60 1 142
3 62 63 143
3 64 142 144
3 68 5 145
3 67 146 5
3 71 147 146
3 76 98 77
3 93 145 148
3 92 97 76
3 93 149 78
3 92 144 99
3 78 143 63
3 73 147 71
3 150 101 151
3 102 152 153
3 103 104 154
3 155 103 154
3 156 105 155
3 151 106 156
3 73 74 77
3 98 73 77
3 100 73 98
3 101 157 158
3 101 159 106
3 107 108 109
3 110 107 109
3 160 104 103
3 62 161 1
3 62 143 161
3 162 153 163
3 164 163 3
3 105 107 110
3 106 159 108
3 62 111 47
3 165 35 166
3 112 17 167
3 12 17 113
3 84 111 62
3 168 165 169
3 113 32 13
3 12 113 13
3 19 39 170
3 96 19 170
3 31 171 129
3 171 44 43
3 0 172 2
3 8 4 173
3 173 6 8
3 4 8 9
3 11 12 13
3 15 16 17
3 18 11 14
3 20 21 22
3 21 24 25
3 26 27 25
3 28 29 27
3 15 30 31
3 34 14 33
3 14 13 33
3 37 167 17
3 17 16 37
3 39 19 14
3 14 34 38
3 44 23 45
3 49 174 116
3 174 175 116
3 52 50 117
3 117 176 51
3 49 48 57
3 57 58 59
3 47 119 63
3 118 132 60
3 65 177 67
3 67 177 69
3 69 70 71
3 72 73 71
3 74 178 76
3 119 140 78
3 79 25 54
3 25 27 54
3 55 27 56
3 27 29 56
3 121 179 120
3 120 138 75
3 81 125 123
3 123 179 121
3 121 122 123
3 40 22 41
3 22 25 41
3 126 66 136
3 136 125 126
3 127 135 66
3 45 23 42
3 23 22 42
3 82 61 60
3 62 61 83
3 115 180 133
3 51 176 114
3 114 46 134
3 10 9 85
3 28 87 88
3 44 89 20
3 137 127 128
3 76 178 91
3 93 181 65
3 29 88 94
3 138 182 139
3 30 89 44
3 58 137 90
3 140 181 93
3 87 18 19
3 92 91 118
3 88 19 96
3 52 139 141
3 139 182 141
3 60 62 1
3 64 60 142
3 68 67 5
3 67 71 146
3 76 97 98
3 93 68 145
3 92 99 97
3 93 148 149
3 92 64 144
3 78 149 143
3 73 100 147
3 150 157 101
3 155 105 103
3 156 106 105
3 151 101 106
3 73 72 74
3 101 158 159
3 160 183 104
3 163 184 162
3 162 102 153
3 3 2 164
3 164 184 163
3 160 103 110
3 103 105 110
3 107 105 108
3 105 106 108
3 165 185 35
3 112 113 17
3 168 185 165
3 113 112 32
3 36 16 129
3 16 31 129
3 171 31 44
