ply
format ascii 1.0
comment INFO-3111 Flatenator generated
comment TextureFile Dungeons_Texture_01.png
element vertex 566
property float x
property float y
property float z
element face 663
property list uchar int vertex_indices
end_header
2.18951 -0.004399 0.242157 
1.16977 0.584586 0.243515 
1.12275 0.054867 0.222272 
1.91237 5.03047 0.215613 
1.15309 5.0493 0.251362 
1.88397 4.52671 0.25236 
1.13577 4.56818 0.251542 
1.06499 5.0258 0.252208 
0.006996 5.02606 0.252446 
1.06426 4.54051 0.251994 
0.286507 4.55676 0.254274 
1.05555 3.92026 0.252052 
-0.001846 3.88098 0.251694 
0.014633 3.39718 0.252651 
5.00475 3.88609 0.252308 
3.89674 3.89871 0.25138 
4.39654 3.42053 0.252077 
1.07069 3.43523 0.253426 
3.05368 3.92243 0.251901 
3.03497 3.43713 0.253486 
3.88692 3.4164 0.251442 
3.93133 3.4383 0.252453 
4.98988 3.40082 0.25195 
5.0047 2.7686 0.252744 
3.94967 2.77801 0.250813 
4.39179 2.29514 0.25263 
3.94564 2.29438 0.252361 
4.88379 2.27863 0.222566 
4.34089 2.23356 0.242803 
3.3917 2.19817 0.25615 
3.39757 1.71701 0.2424 
4.17449 1.6479 0.252278 
3.69083 1.64663 0.243591 
4.17481 1.16751 0.252661 
3.79383 1.16149 0.243103 
2.35278 1.02225 0.244156 
1.64565 0.585656 0.242622 
2.40375 0.607035 0.251152 
3.33774 1.0589 0.253396 
2.48811 1.09052 0.252423 
2.47124 0.60551 0.253485 
3.3199 0.57478 0.252343 
1.4335 0.528104 0.249043 
4.17254 5.02619 0.243111 
3.29744 5.02661 0.24306 
3.29829 4.54078 0.242746 
5.01218 5.007 0.243656 
4.23701 5.04865 0.243621 
4.22066 4.56781 0.24289 
1.95826 5.02602 0.243077 
1.95917 4.54076 0.242692 
3.24203 5.02578 0.243057 
4.994 4.5268 0.242668 
3.24115 4.54075 0.242692 
4.17176 4.54077 0.242726 
0.841095 4.47584 0.216907 
1.95687 4.51799 0.215028 
0.80098 4.45789 0.244213 
-0.009666 4.47382 0.242757 
-0.01033 3.9899 0.243554 
0.734283 3.99813 0.243198 
1.79374 4.4738 0.222598 
1.49337 4.47313 0.242779 
1.77497 4.07029 0.243327 
2.46441 4.51914 0.215741 
1.88184 4.47382 0.242768 
2.4292 3.9897 0.243382 
2.48512 4.47383 0.243429 
2.48419 3.98926 0.244295 
3.33541 3.99061 0.243877 
3.33508 4.47385 0.243378 
4.92388 4.47382 0.242779 
4.33315 4.47363 0.243169 
4.33305 3.98996 0.244231 
4.92466 3.98954 0.243507 
1.88102 3.98953 0.243489 
0.884308 4.00738 0.243563 
4.27483 3.98637 0.23807 
4.25597 4.47185 0.240911 
4.0138 3.99697 0.244591 
3.48076 4.43298 0.245656 
3.40507 3.98661 0.243425 
1.60857 3.9856 0.243053 
1.77688 3.96893 0.223137 
0.559433 3.92406 0.214396 
3.39555 3.9523 0.217088 
1.1264 3.91372 0.216738 
3.89989 3.78373 0.229235 
2.89658 3.88656 0.246851 
2.46557 3.89864 0.243002 
2.93648 3.43501 0.244157 
1.14967 3.90573 0.242937 
1.1497 3.41994 0.242919 
1.97755 3.90567 0.242937 
3.03551 3.39673 0.216878 
1.97758 3.41991 0.242948 
0.005188 3.37712 0.21494 
0.520149 3.33208 0.243269 
-0.053085 3.33224 0.242913 
0.519897 2.84861 0.244107 
1.63764 3.3418 0.243144 
0.597252 2.8276 0.243698 
2.42797 3.33227 0.243093 
1.71023 3.33227 0.243089 
2.42872 2.84774 0.2438 
4.92419 3.33224 0.242906 
4.33301 3.33208 0.243278 
4.40976 2.87026 0.24423 
-0.053832 2.84802 0.243501 
4.27062 3.3367 0.243233 
3.38371 3.30667 0.241641 
3.89658 2.84552 0.243406 
1.56501 2.84314 0.222929 
1.70945 2.8477 0.243824 
4.32233 2.8149 0.216924 
4.92469 2.84798 0.243506 
3.40059 2.8126 0.235655 
0.027428 2.78973 0.253933 
0.006154 2.81224 0.22266 
0.007507 2.31793 0.249589 
1.13101 2.7877 0.222893 
1.05991 2.27619 0.236143 
1.14409 2.77767 0.241455 
1.14186 2.2951 0.242983 
1.86938 2.77765 0.241484 
2.20162 2.77814 0.240834 
1.92949 2.77813 0.240841 
1.92742 2.29403 0.242825 
2.97775 2.74753 0.243922 
2.26051 2.78761 0.243764 
2.95412 2.26769 0.242934 
2.22417 2.29106 0.222695 
1.86998 2.29595 0.242333 
5.02753 2.26213 0.195854 
3.9548 2.2774 0.222708 
3.33507 1.73205 0.242767 
3.3354 2.21597 0.243268 
3.00335 2.17347 0.243272 
2.87905 1.73204 0.242767 
0.512436 2.23341 0.222521 
-0.070801 2.19613 0.243016 
-0.049347 1.71085 0.242749 
4.96137 1.72985 0.243506 
4.97544 2.21374 0.242917 
4.28257 1.72613 0.236484 
2.79253 2.21572 0.243372 
1.71214 2.21588 0.243493 
1.71263 1.73204 0.24276 
2.79174 1.73202 0.242716 
3.61694 1.6484 0.243522 
2.53721 1.64836 0.243506 
2.53749 1.16482 0.242872 
1.7498 1.15675 0.216831 
1.73132 1.64923 0.243515 
1.12102 1.16484 0.242934 
0.007439 1.64859 0.24508 
0.007957 1.16478 0.244323 
1.06485 1.6486 0.244573 
1.12043 1.64924 0.243506 
2.44016 1.64922 0.243515 
1.82455 1.64917 0.243506 
2.43957 1.16484 0.242925 
1.06453 1.16463 0.243998 
1.82509 1.16484 0.242925 
3.6166 1.16481 0.242865 
4.27228 1.63945 0.242952 
4.96064 1.13595 0.243497 
4.97449 1.61966 0.24307 
4.25839 1.15651 0.243544 
0.832497 1.05863 0.241948 
0.482353 1.0788 0.216664 
0.510666 0.583293 0.244219 
0.414055 0.586 0.242847 
-0.034477 1.06018 0.242867 
4.96879 1.05949 0.242504 
4.12882 1.07135 0.221611 
4.17319 0.586676 0.242495 
1.70247 1.11385 0.241286 
4.12499 1.05736 0.243203 
3.39528 1.07919 0.243533 
1.63482 1.06028 0.243344 
0.921204 1.05931 0.2424 
-0.033646 0.578082 0.237804 
0.844337 0.519035 0.21671 
0.921204 0.586848 0.242406 
3.38141 0.606076 0.242529 
4.96879 0.586686 0.242506 
0.659721 0.487204 0.24425 
-0.002335 0.477732 0.237107 
0.013885 -0.012468 0.237328 
1.05646 0.510492 0.242466 
1.07175 0.038732 0.243691 
2.98695 0.500908 0.242705 
2.26775 0.501352 0.242929 
2.26729 0.01698 0.243528 
3.12587 0.508856 0.242257 
3.8849 0.00777 0.242622 
3.89736 0.491102 0.242745 
4.54138 0.501393 0.242767 
3.9765 0.486053 0.244145 
5.00455 0.017848 0.243511 
5.00428 0.501383 0.242872 
2.22429 0.477974 0.235404 
2.98691 0.018474 0.243047 
3.94876 0.017515 0.243564 
2.94816 5.0683 0.150344 
5.06759 5.08614 0.15151 
1.12617 4.98791 0.216815 
4.21297 4.99972 0.214289 
4.19077 4.53289 0.216665 
4.32413 4.49519 0.216665 
1.08814 4.51382 0.216662 
4.93355 4.49499 0.209301 
3.98959 4.49483 0.216653 
4.30476 3.97558 0.216778 
1.86457 3.99206 0.216838 
3.9337 3.94846 0.215549 
1.4374 3.97643 0.216785 
2.73341 3.97766 0.219791 
2.91457 3.92909 0.22268 
4.88155 3.90386 0.222086 
2.05032 3.88437 0.235227 
2.05374 3.39481 0.216809 
3.33544 3.35255 0.21607 
3.92624 3.42078 0.22283 
1.12647 3.41393 0.21664 
3.88822 3.3765 0.216854 
4.91269 3.39141 0.22253 
1.71212 3.35549 0.216607 
4.30264 3.33757 0.216938 
3.32576 3.33664 0.243162 
2.44996 3.31715 0.216785 
2.55288 2.85721 0.236036 
3.33573 2.85206 0.241489 
2.26944 2.83591 0.222248 
2.43127 2.83613 0.221722 
3.9057 2.81473 0.216534 
0.57859 2.81385 0.21751 
3.02406 2.7635 0.23403 
3.89275 2.32122 0.248874 
1.90195 2.78399 0.216739 
1.87706 2.22903 0.220335 
3.88806 2.30374 0.221871 
3.01912 2.27561 0.216831 
0.596336 2.28257 0.222584 
1.22543 2.19847 0.240908 
1.41774 1.75079 0.240752 
1.63619 2.22944 0.236898 
2.85547 1.66322 0.222775 
0.596489 1.71168 0.237201 
3.35812 2.23545 0.216679 
3.3403 1.72656 0.222804 
0.580238 2.1968 0.237902 
1.71205 1.71546 0.216664 
0.538574 1.71649 0.216721 
2.45132 1.71645 0.216737 
3.16052 1.66331 0.222749 
3.64108 1.66698 0.216942 
4.87099 1.64054 0.216664 
1.12552 1.71708 0.215045 
4.19126 1.66832 0.216664 
1.06913 1.15565 0.221871 
3.36116 1.07884 0.217198 
0.917938 1.09795 0.216913 
3.6647 1.092 0.216757 
3.29884 0.520096 0.221542 
1.65494 1.09821 0.216895 
2.40988 0.587282 0.222508 
1.70149 0.613155 0.222615 
3.94501 0.520651 0.216664 
0.310684 0.499222 0.216721 
2.24283 0.501777 0.216646 
4.9831 0.544007 0.194132 
3.91009 0.058021 0.214962 
1.06926 5.09586 0.151398 
1.91509 5.09393 0.152128 
4.21258 5.10141 0.151398 
3.28501 5.04939 0.192797 
0.879974 3.97471 0.216914 
2.42887 3.97741 0.220405 
3.04073 3.93142 0.222111 
0.026198 3.9021 0.213496 
1.99639 3.91346 0.216665 
0.824875 3.33021 0.21656 
3.38637 2.93435 0.223359 
4.94959 2.80212 0.200697 
3.38502 2.80807 0.21643 
2.98215 2.76374 0.221871 
2.84846 2.23779 0.216977 
4.99431 2.23343 0.201466 
5.00562 1.65661 0.150354 
4.96734 1.11488 0.20039 
2.4691 1.09948 0.216664 
-0.123055 0.486813 0.050474 
0.482475 0.567862 0.216664 
1.06758 0.542121 0.217209 
3.02766 -0.046414 0.150784 
3.90969 -0.051387 0.164026 
3.26341 4.53283 0.216618 
3.66307 4.51987 0.214881 
3.37834 4.47544 0.216874 
-0.101278 4.57291 0.055816 
-0.051552 3.94167 0.15712 
1.713 2.25727 0.216842 
3.72385 2.2323 0.21519 
0.046351 1.13768 0.215044 
3.03678 0.542353 0.217213 
2.04133 0.498656 0.216534 
-0.140526 1.64471 0.050474 
-0.002574 1.66729 0.207673 
-0.125307 1.06858 0.055691 
-0.026034 5.08198 0.150781 
1.07138 -0.04575 0.151064 
-0.16508 2.22892 0.050474 
1.08535 -0.009978 0.151936 
-0.146025 3.39766 0.050475 
5.09595 0.486762 0.05084 
2.19088 -0.092338 0.136154 
-0.035566 -0.087497 0.150906 
1.09834 5.16139 0.044261 
-0.106785 2.28874 0.05657 
5.00646 3.38018 0.043909 
5.06031 -0.062701 0.151816 
2.24917 -0.09683 0.051172 
1.0941 5.11593 0.043256 
5.09508 2.8275 0.04426 
5.06178 2.23015 0.063132 
5.04846 1.79142 0.050593 
5.05345 0.576073 0.050474 
-0.071727 -0.125261 0.050867 
5.09595 -0.098481 0.055673 
0.56856 5.1189 0.043453 
1.92968 5.14093 0.063263 
3.7696 5.13903 0.051001 
5.0833 4.54092 0.050475 
-0.099489 3.98294 0.04968 
5.06676 4.49143 0.049824 
5.0974 3.96409 0.041439 
5.06281 3.05531 0.011955 
-0.054742 1.0405 0.041147 
2.17349 -0.047549 0.026044 
3.03534 -0.083394 0.051362 
1.05026 -0.083767 0.050785 
3.86991 -0.104525 0.050989 
-0.086404 2.79849 0.06217 
2.17313 -0.137867 0.033809 
-0.077163 3.42808 0.050449 
5.10431 5.12171 0.050475 
4.29304 5.16452 0.050834 
1.33412 -0.076789 0.047655 
1.52865 5.1452 0.044261 
-0.057653 5.1105 0.012984 
3.89674 3.89871 0.25138 
1.06426 4.54051 0.251994 
0.286507 4.55676 0.254274 
1.13577 4.56818 0.251542 
1.88397 4.52671 0.25236 
1.49337 4.47313 0.242779 
0.841095 4.47584 0.216907 
1.77497 4.07029 0.243327 
1.60857 3.9856 0.243053 
-0.001846 3.88098 0.251694 
1.05555 3.92026 0.252052 
3.89674 3.89871 0.25138 
3.05368 3.92243 0.251901 
1.07069 3.43523 0.253426 
3.88692 3.4164 0.251442 
3.03497 3.43713 0.253486 
0.014633 3.39718 0.252651 
0.520149 3.33208 0.243269 
4.32233 2.8149 0.216924 
3.94967 2.77801 0.250813 
5.0047 2.7686 0.252744 
0.027428 2.78973 0.253933 
2.22417 2.29106 0.222695 
0.007507 2.31793 0.249589 
4.39179 2.29514 0.25263 
3.94564 2.29438 0.252361 
1.95826 5.02602 0.243077 
3.24203 5.02578 0.243057 
4.23701 5.04865 0.243621 
5.01218 5.007 0.243656 
1.15309 5.0493 0.251362 
4.22066 4.56781 0.24289 
4.17254 5.02619 0.243111 
4.17176 4.54077 0.242726 
4.994 4.5268 0.242668 
4.33315 4.47363 0.243169 
4.92388 4.47382 0.242779 
3.48076 4.43298 0.245656 
3.40507 3.98661 0.243425 
4.27483 3.98637 0.23807 
4.25597 4.47185 0.240911 
2.48419 3.98926 0.244295 
2.48512 4.47383 0.243429 
2.46441 4.51914 0.215741 
1.88184 4.47382 0.242768 
1.88102 3.98953 0.243489 
4.0138 3.99697 0.244591 
0.734283 3.99813 0.243198 
-0.01033 3.9899 0.243554 
0.884308 4.00738 0.243563 
3.33541 3.99061 0.243877 
4.92466 3.98954 0.243507 
4.33305 3.98996 0.244231 
1.14967 3.90573 0.242937 
1.97755 3.90567 0.242937 
2.46557 3.89864 0.243002 
2.89658 3.88656 0.246851 
5.00475 3.88609 0.252308 
3.93133 3.4383 0.252453 
2.93648 3.43501 0.244157 
4.39654 3.42053 0.252077 
4.98988 3.40082 0.25195 
-0.053085 3.33224 0.242913 
0.520149 3.33208 0.243269 
1.71023 3.33227 0.243089 
2.42797 3.33227 0.243093 
4.92419 3.33224 0.242906 
4.33301 3.33208 0.243278 
1.63764 3.3418 0.243144 
1.56501 2.84314 0.222929 
4.40976 2.87026 0.24423 
2.42872 2.84774 0.2438 
1.70945 2.8477 0.243824 
3.89658 2.84552 0.243406 
0.597252 2.8276 0.243698 
1.92949 2.77813 0.240841 
1.92742 2.29403 0.242825 
1.86938 2.77765 0.241484 
1.86998 2.29595 0.242333 
3.89275 2.32122 0.248874 
1.05991 2.27619 0.236143 
2.22417 2.29106 0.222695 
1.71214 2.21588 0.243493 
2.79253 2.21572 0.243372 
3.3917 2.19817 0.25615 
4.34089 2.23356 0.242803 
2.79174 1.73202 0.242716 
3.39757 1.71701 0.2424 
1.71205 1.71546 0.216664 
1.71263 1.73204 0.24276 
2.53721 1.64836 0.243506 
3.61694 1.6484 0.243522 
3.69083 1.64663 0.243591 
4.17449 1.6479 0.252278 
4.27228 1.63945 0.242952 
4.97449 1.61966 0.24307 
1.12043 1.64924 0.243506 
1.12102 1.16484 0.242934 
4.17481 1.16751 0.252661 
1.06485 1.6486 0.244573 
1.06453 1.16463 0.243998 
2.48811 1.09052 0.252423 
3.33774 1.0589 0.253396 
0.921204 1.05931 0.2424 
1.63482 1.06028 0.243344 
4.12882 1.07135 0.221611 
4.12499 1.05736 0.243203 
0.921204 0.586848 0.242406 
4.17319 0.586676 0.242495 
1.70247 1.11385 0.241286 
1.64565 0.585656 0.242622 
3.3199 0.57478 0.252343 
2.35278 1.02225 0.244156 
2.40375 0.607035 0.251152 
3.38141 0.606076 0.242529 
1.4335 0.528104 0.249043 
1.16977 0.584586 0.243515 
0.844337 0.519035 0.21671 
0.659721 0.487204 0.24425 
1.05646 0.510492 0.242466 
2.98695 0.500908 0.242705 
2.26775 0.501352 0.242929 
4.54138 0.501393 0.242767 
3.9765 0.486053 0.244145 
5.00428 0.501383 0.242872 
-0.002335 0.477732 0.237107 
3.89736 0.491102 0.242745 
3.8849 0.00777 0.242622 
3.94876 0.017515 0.243564 
0.006996 5.02606 0.252446 
1.06499 5.0258 0.252208 
3.29744 5.02661 0.24306 
1.95917 4.54076 0.242692 
0.80098 4.45789 0.244213 
2.05032 3.88437 0.235227 
2.05374 3.39481 0.216809 
1.97758 3.41991 0.242948 
1.1497 3.41994 0.242919 
3.32576 3.33664 0.243162 
3.33573 2.85206 0.241489 
3.40059 2.8126 0.235655 
3.38371 3.30667 0.241641 
4.92469 2.84798 0.243506 
1.13101 2.7877 0.222893 
2.20162 2.77814 0.240834 
3.02406 2.7635 0.23403 
2.97775 2.74753 0.243922 
2.26051 2.78761 0.243764 
1.14409 2.77767 0.241455 
1.14186 2.2951 0.242983 
3.01912 2.27561 0.216831 
2.95412 2.26769 0.242934 
3.00335 2.17347 0.243272 
2.87905 1.73204 0.242767 
4.97544 2.21374 0.242917 
4.96137 1.72985 0.243506 
3.3354 2.21597 0.243268 
3.33507 1.73205 0.242767 
1.41774 1.75079 0.240752 
0.596489 1.71168 0.237201 
3.6166 1.16481 0.242865 
2.53749 1.16482 0.242872 
4.96064 1.13595 0.243497 
1.7498 1.15675 0.216831 
2.43957 1.16484 0.242925 
1.82509 1.16484 0.242925 
4.25839 1.15651 0.243544 
3.39528 1.07919 0.243533 
4.96879 1.05949 0.242504 
4.96879 0.586686 0.242506 
-0.034477 1.06018 0.242867 
-0.033646 0.578082 0.237804 
2.47124 0.60551 0.253485 
0.414055 0.586 0.242847 
3.12587 0.508856 0.242257 
1.12275 0.054867 0.222272 
2.22429 0.477974 0.235404 
2.18951 -0.004399 0.242157 
2.26729 0.01698 0.243528 
2.98691 0.018474 0.243047 
5.00455 0.017848 0.243511 
3.29829 4.54078 0.242746 
1.91237 5.03047 0.215613 
3.24115 4.54075 0.242692 
-0.009666 4.47382 0.242757 
3.33508 4.47385 0.243378 
3.98959 4.49483 0.216653 
2.4292 3.9897 0.243382 
2.44996 3.31715 0.216785 
4.27062 3.3367 0.243233 
0.519897 2.84861 0.244107 
-0.053832 2.84802 0.243501 
2.55288 2.85721 0.236036 
4.88379 2.27863 0.222566 
1.22543 2.19847 0.240908 
1.63619 2.22944 0.236898 
4.28257 1.72613 0.236484 
0.007439 1.64859 0.24508 
1.73132 1.64923 0.243515 
2.44016 1.64922 0.243515 
1.82455 1.64917 0.243506 
0.007957 1.16478 0.244323 
3.79383 1.16149 0.243103 
0.482353 1.0788 0.216664 
0.510666 0.583293 0.244219 
1.07175 0.038732 0.243691 
0.512436 2.23341 0.222521 
-0.070801 2.19613 0.243016 
0.580238 2.1968 0.237902 
0.538574 1.71649 0.216721 
-0.049347 1.71085 0.242749 
0.832497 1.05863 0.241948 
0.013885 -0.012468 0.237328 
5.02753 2.26213 0.195854 
3 0 1 2
3 3 4 5
3 4 6 5
3 7 8 9
3 9 8 10
3 11 12 13
3 14 15 16
3 11 13 17
3 352 18 19
3 20 352 19
3 15 21 16
3 14 16 22
3 23 24 25
3 24 26 25
3 23 25 27
3 28 29 30
3 31 32 33
3 32 34 33
3 35 36 37
3 38 39 40
3 38 40 41
3 42 1 0
3 43 44 45
3 46 47 48
3 49 50 51
3 46 48 52
3 51 50 53
3 43 45 54
3 55 353 354
3 355 56 356
3 57 58 59
3 57 59 60
3 61 62 63
3 64 65 66
3 67 68 69
3 70 67 69
3 71 72 73
3 71 73 74
3 65 75 66
3 357 358 76
3 77 78 79
3 80 81 79
3 359 357 82
3 82 357 76
3 83 63 360
3 84 361 362
3 363 85 364
3 86 362 365
3 87 363 366
3 88 89 90
3 91 92 93
3 364 94 367
3 93 92 95
3 361 96 368
3 97 98 99
3 100 369 101
3 102 103 104
3 105 106 107
3 98 108 99
3 109 110 111
3 100 101 112
3 103 113 104
3 109 111 114
3 105 107 115
3 111 110 116
3 370 371 372
3 117 118 119
3 120 101 121
3 122 123 124
3 125 126 127
3 101 373 121
3 128 129 130
3 131 125 127
3 130 129 374
3 132 124 123
3 373 375 121
3 133 23 27
3 376 377 134
3 135 136 137
3 137 138 135
3 139 140 141
3 142 143 28
3 142 28 144
3 145 146 147
3 148 145 147
3 149 150 151
3 152 153 154
3 155 156 157
3 154 153 158
3 159 160 161
3 157 156 162
3 160 163 161
3 149 151 164
3 165 166 167
3 166 165 168
3 169 170 171
3 172 170 173
3 174 175 176
3 177 36 35
3 176 178 179
3 36 180 181
3 172 173 182
3 169 171 183
3 181 184 1
3 181 1 36
3 179 185 176
3 174 176 186
3 187 188 189
3 190 187 191
3 192 193 194
3 195 196 197
3 198 199 200
3 201 198 200
3 0 202 42
3 192 194 203
3 199 204 200
3 187 189 191
3 196 195 203
3 205 378 379
3 206 380 381
3 382 207 355
3 383 380 208
3 209 384 385
3 210 386 383
3 211 55 62
3 210 387 388
3 212 210 388
3 213 80 79
3 78 213 79
3 389 85 390
3 391 214 392
3 393 394 395
3 396 215 397
3 398 390 216
3 84 399 400
3 217 360 401
3 393 218 402
3 390 85 216
3 214 403 404
3 83 405 406
3 219 407 408
3 220 214 409
3 363 87 410
3 408 411 219
3 89 221 90
3 90 221 222
3 367 94 223
3 412 410 224
3 365 96 225
3 366 367 226
3 227 413 412
3 96 414 415
3 228 416 417
3 418 229 419
3 228 420 421
3 230 231 232
3 419 370 422
3 233 230 232
3 234 423 424
3 234 235 423
3 236 370 425
3 426 237 117
3 116 238 239
3 111 116 239
3 427 240 428
3 241 429 430
3 242 425 431
3 239 238 243
3 244 432 119
3 433 434 435
3 134 436 437
3 245 246 247
3 435 438 248
3 245 249 246
3 436 250 251
3 245 252 249
3 253 247 246
3 254 139 141
3 28 30 144
3 439 436 251
3 440 255 441
3 256 442 443
3 444 445 257
3 258 446 447
3 448 259 449
3 260 445 450
3 261 451 452
3 262 453 454
3 455 456 263
3 457 264 458
3 262 454 265
3 455 263 459
3 457 458 460
3 461 266 462
3 454 463 265
3 464 465 267
3 465 462 268
3 466 269 460
3 467 462 468
3 469 470 471
3 472 271 473
3 474 269 475
3 476 272 474
3 270 477 470
3 273 478 479
3 475 269 480
3 481 482 274
3 205 275 378
3 276 277 483
3 276 483 384
3 206 381 386
3 378 56 484
3 55 485 399
3 401 55 278
3 212 388 403
3 217 401 278
3 360 217 83
3 215 279 397
3 279 218 393
3 280 402 218
3 398 214 391
3 85 280 364
3 363 216 85
3 363 409 214
3 84 281 361
3 486 407 282
3 364 280 94
3 410 87 224
3 487 406 488
3 219 411 94
3 87 366 226
3 228 488 489
3 224 227 412
3 283 415 420
3 415 237 426
3 419 229 370
3 490 491 284
3 284 492 493
3 418 494 285
3 495 421 426
3 370 285 494
3 237 118 117
3 496 240 427
3 492 286 497
3 370 236 371
3 285 370 372
3 498 287 499
3 500 495 501
3 499 234 433
3 377 371 134
3 502 498 503
3 433 288 503
3 288 502 503
3 241 434 433
3 504 248 505
3 289 506 507
3 251 508 509
3 289 507 290
3 510 511 259
3 260 257 445
3 442 248 255
3 442 256 248
3 443 257 256
3 257 443 512
3 255 513 442
3 447 514 291
3 515 516 517
3 457 291 518
3 292 515 461
3 292 461 464
3 264 519 458
3 272 520 521
3 522 293 523
3 292 524 453
3 523 294 525
3 478 265 526
3 468 295 527
3 271 528 529
3 530 296 531
3 532 480 297
3 483 277 533
3 534 356 56
3 383 208 209
3 8 58 10
3 379 535 298
3 209 210 383
3 353 55 211
3 484 395 535
3 395 298 535
3 298 299 533
3 299 385 533
3 299 209 385
3 212 386 210
3 55 536 485
3 298 395 394
3 298 394 537
3 300 298 537
3 538 300 389
3 392 210 538
3 396 56 215
3 300 537 402
3 389 300 85
3 392 214 210
3 387 210 214
3 61 63 83
3 55 399 278
3 404 387 214
3 301 302 400
3 395 539 279
3 393 395 279
3 399 84 278
3 539 397 279
3 84 362 86
3 214 216 363
3 282 83 406
3 219 282 407
3 282 406 487
3 361 302 96
3 405 86 225
3 405 225 489
3 86 365 225
3 225 228 489
3 228 487 488
3 367 223 226
3 487 94 411
3 228 283 420
3 540 228 417
3 229 226 541
3 540 417 235
3 226 493 541
3 284 223 490
3 229 541 370
3 416 228 424
3 235 417 423
3 542 543 118
3 424 421 234
3 544 284 491
3 492 284 286
3 494 422 370
3 237 542 118
3 240 500 429
3 235 234 499
3 499 544 235
3 499 287 544
3 286 287 497
3 425 242 236
3 287 498 502
3 240 429 241
3 287 502 497
3 502 242 431
3 289 376 134
3 289 545 376
3 303 546 547
3 434 241 303
3 433 435 288
3 288 435 248
3 504 288 248
3 504 502 288
3 504 508 502
3 508 250 502
3 304 250 436
3 437 506 289
3 250 508 251
3 547 440 303
3 434 303 440
3 434 440 441
3 259 440 510
3 438 441 255
3 255 248 438
3 251 505 248
3 548 439 260
3 259 549 451
3 448 550 259
3 551 255 552
3 255 551 292
3 259 451 261
3 446 260 518
3 292 551 516
3 449 259 261
3 552 515 517
3 260 450 457
3 305 263 553
3 263 452 553
3 261 452 263
3 261 515 449
3 515 292 516
3 457 450 554
3 291 514 518
3 262 292 453
3 305 522 555
3 266 263 456
3 519 264 262
3 291 457 520
3 292 464 267
3 266 456 462
3 519 262 466
3 555 525 294
3 465 268 267
3 268 462 467
3 306 524 267
3 306 463 524
3 294 469 556
3 459 295 468
3 265 463 306
3 467 528 307
3 265 306 526
3 471 295 469
3 271 307 528
3 273 269 478
3 295 471 557
3 473 271 530
3 526 306 531
3 295 557 527
3 273 479 297
3 296 297 479
3 380 276 208
3 378 534 56
3 384 209 208
3 379 298 277
3 482 353 207
3 353 211 207
3 355 207 211
3 533 277 298
3 355 211 62
3 56 355 62
3 484 56 395
3 299 538 209
3 354 536 55
3 395 56 396
3 299 298 300
3 538 210 209
3 62 61 56
3 300 538 299
3 56 61 215
3 300 402 85
3 215 61 83
3 84 400 281
3 217 278 86
3 279 219 218
3 280 218 219
3 402 280 85
3 214 398 216
3 84 86 278
3 217 86 83
3 215 83 282
3 279 215 282
3 280 219 94
3 403 214 220
3 405 83 86
3 282 219 279
3 486 282 487
3 87 226 224
3 228 225 283
3 94 487 540
3 224 226 229
3 227 224 229
3 225 96 283
3 487 228 540
3 94 540 490
3 94 490 223
3 96 415 283
3 229 418 227
3 493 226 223
3 284 493 223
3 415 542 237
3 424 228 421
3 544 540 235
3 284 544 286
3 500 421 495
3 500 240 421
3 240 234 421
3 240 496 234
3 544 287 286
3 371 236 242
3 134 371 242
3 234 496 433
3 428 240 241
3 432 501 495
3 134 242 304
3 244 119 558
3 432 244 546
3 430 501 546
3 430 546 303
3 241 430 303
3 428 241 433
3 289 134 437
3 119 559 558
3 546 501 432
3 250 242 502
3 304 242 250
3 560 546 244
3 304 436 134
3 560 244 558
3 560 558 561
3 511 560 561
3 562 559 308
3 548 258 507
3 561 562 309
3 511 561 259
3 439 251 257
3 309 549 561
3 549 259 561
3 259 550 440
3 552 440 550
3 552 255 440
3 256 251 248
3 256 257 251
3 257 260 439
3 258 548 260
3 446 258 260
3 552 550 515
3 255 292 513
3 554 444 257
3 554 257 512
3 518 260 457
3 292 262 513
3 263 305 555
3 515 261 266
3 513 262 512
3 554 512 264
3 457 554 264
3 263 555 563
3 266 261 263
3 461 515 266
3 262 264 512
3 305 310 522
3 469 459 563
3 263 563 459
3 265 466 262
3 556 555 294
3 523 477 270
3 294 523 270
3 469 294 270
3 459 469 295
3 268 467 307
3 306 267 271
3 269 466 265
3 521 460 269
3 521 269 272
3 268 307 267
3 267 307 271
3 472 306 271
3 478 269 265
3 474 272 269
3 477 293 564
3 472 531 306
3 480 269 273
3 530 271 529
3 296 479 531
3 311 481 274
3 378 275 534
3 220 212 403
3 227 418 285
3 527 557 312
3 208 276 384
3 311 301 481
3 400 302 281
3 289 565 545
3 119 313 559
3 527 312 314
3 527 314 529
3 206 276 380
3 302 361 281
3 315 414 96
3 414 315 543
3 290 258 447
3 310 293 522
3 316 272 476
3 314 317 529
3 275 382 534
3 277 205 379
3 308 309 562
3 507 258 290
3 476 532 316
3 318 312 557
3 275 319 382
3 481 301 536
3 536 301 400
3 119 118 320
3 310 305 553
3 318 557 564
3 382 319 207
3 549 309 553
3 447 291 290
3 291 520 272
3 523 293 477
3 297 480 273
3 321 413 227
3 313 308 559
3 564 293 318
3 316 532 322
3 296 530 323
3 319 324 207
3 207 324 482
3 276 205 277
3 274 482 324
3 321 227 285
3 297 322 532
3 372 325 285
3 326 289 327
3 327 289 290
3 291 328 290
3 316 328 272
3 318 293 329
3 330 316 322
3 331 311 274
3 205 332 275
3 333 205 276
3 212 334 386
3 301 335 302
3 336 212 220
3 409 337 220
3 321 285 338
3 325 372 565
3 309 339 553
3 529 340 530
3 530 340 323
3 323 341 296
3 341 297 296
3 386 334 206
3 320 313 119
3 312 342 314
3 329 312 318
3 343 322 297
3 337 409 413
3 344 320 118
3 328 291 272
3 529 317 340
3 543 344 118
3 327 290 328
3 310 553 339
3 317 345 340
3 346 315 96
3 289 326 565
3 347 206 334
3 314 345 317
3 336 220 337
3 329 342 312
3 309 308 339
3 341 343 297
3 302 346 96
3 276 206 347
3 325 338 285
3 343 330 322
3 347 348 276
3 333 332 205
3 348 333 276
3 336 334 212
3 337 413 321
3 543 315 344
3 342 349 314
3 345 314 349
3 350 319 275
3 331 351 311
3 324 331 274
3 332 350 275
3 311 351 301
3 302 335 346
3 325 565 326
3 365 368 96
3 469 270 470
3 292 267 524
3 251 509 505
