ply
format ascii 1.0
comment INFO-3111 Flatenator generated
comment TextureFile Dungeons_Texture_01.png
element vertex 8
property float x
property float y
property float z
property float nx
property float ny
property float nz
element face 12
property list uchar int vertex_indices
end_header
-0.307377 -0.10058 0.181581 -0.57735 -0.57735 0.57735 
0.307379 -0.10058 0.181581 0.57735 -0.57735 0.57735 
0.307379 0.10058 0.181581 0.57735 0.57735 0.57735 
-0.307377 0.10058 0.181581 -0.57735 0.57735 0.57735 
0.307379 0.10058 -0.18158 0.57735 0.57735 -0.57735 
-0.307377 0.10058 -0.18158 -0.57735 0.57735 -0.57735 
0.307379 -0.10058 -0.18158 0.57735 -0.57735 -0.57735 
-0.307377 -0.10058 -0.18158 -0.57735 -0.57735 -0.57735 
3 1 3 0
3 2 5 3
3 4 7 5
3 6 0 7
3 6 2 1
3 0 5 7
3 1 2 3
3 2 4 5
3 4 6 7
3 6 1 0
3 6 4 2
3 0 3 5
