ply
format ascii 1.0
comment VCGLIB generated
comment TextureFile Dungeons_Texture_01.png
element vertex 399
property float x
property float y
property float z
property float nx
property float ny
property float nz
property uchar red
property uchar green
property uchar blue
property uchar alpha
property float texture_u
property float texture_v
element face 502
property list uchar int vertex_indices
end_header
-0.408283 3.002176 0.315957 -0.3482339 -0.6631401 -0.6625544 120 120 119 255 0.199979 0.305511
0.366908 2.933077 0.314931 0.2234933 -0.4030018 -0.887491 106 103 98 255 0.222329 0.29495
0.410591 2.982527 0.275034 -0.05317508 -0.9021317 -0.4281715 106 103 98 255 0.222329 0.29495
0.644148 2.890513 0.316398 -0.2325807 -0.6344465 -0.7371457 106 103 98 255 0.222329 0.29495
0.218896 3.005173 0.31758 -0.3022776 -0.6726989 -0.6753551 120 120 119 255 0.199979 0.305511
1.092189 2.744178 0.316427 -0.3311531 -0.5619293 -0.758006 106 103 98 255 0.222329 0.29495
0.182338 2.694067 0.317347 -0.09882919 0.7151643 -0.6919342 120 120 119 255 0.199979 0.305511
-0.208552 2.696209 0.308103 0.1028034 0.7195238 -0.6868165 97 95 95 255 0.198679 0.279508
-0.901544 2.557147 0.314762 0.07380723 0.6155779 -0.7846122 97 95 95 255 0.198679 0.279508
-0.513081 2.683879 0.316957 -0.383272 0.6117501 -0.6920003 120 120 119 255 0.199979 0.305511
0.823723 2.567815 0.315147 -0.04697629 0.4986938 -0.8655043 106 103 98 255 0.222329 0.29495
-0.91327 2.529746 0.248525 -0.2743327 0.9167922 -0.2902307 120 120 119 255 0.199979 0.305511
-1.003778 2.49025 0.315626 -0.5580258 0.3034202 -0.7723622 120 120 119 255 0.199979 0.305511
1.52203 2.333169 0.317059 -0.6467099 -0.3564396 -0.6743273 120 120 119 255 0.199979 0.305511
1.234425 2.169728 0.316152 0.3340522 0.6846399 -0.6478252 120 120 119 255 0.199979 0.305511
-1.17406 2.344417 0.293401 -0.4734733 0.5937417 -0.6506104 120 120 119 255 0.199979 0.305511
-1.343186 2.302974 0.317029 -0.04534212 0.0158172 -0.9988463 120 120 119 255 0.199979 0.305511
1.466697 2.204809 0.315779 -0.09281591 0.1588006 -0.9829382 120 120 119 255 0.199979 0.305511
-1.572492 2.149801 0.316864 0.5731252 -0.4271564 -0.6993319 120 120 119 255 0.199979 0.305511
1.519779 2.160602 0.309587 -0.2354924 -0.2891102 -0.9278786 97 95 95 255 0.198679 0.279508
1.265597 2.108256 0.316762 0.6818881 -0.3126181 -0.6612856 97 95 95 255 0.198679 0.279508
1.613252 2.164162 0.248271 -0.8474774 -0.4457578 -0.2882394 97 95 95 255 0.198679 0.279508
1.572248 2.099952 0.31641 -0.4754397 -0.1568723 -0.865649 97 95 95 255 0.198679 0.279508
-1.346989 2.111241 0.315079 -0.6019651 0.009209222 -0.7984692 120 120 119 255 0.199979 0.305511
1.622139 1.982623 0.235463 -0.9938532 -0.04347125 -0.1018139 120 120 119 255 0.199979 0.305511
1.615191 1.845814 0.31602 -0.6847323 0.002058507 -0.7287918 120 120 119 255 0.199979 0.305511
-1.380309 1.876305 0.315266 -0.4611801 0.06333847 -0.885043 120 120 119 255 0.199979 0.305511
1.414613 1.71979 0.316347 0.166888 0.2201313 -0.9610882 120 120 119 255 0.199979 0.305511
-1.390629 1.654019 0.312447 -0.4261759 0.4814827 -0.7658646 120 120 119 255 0.199979 0.305511
1.613385 1.672196 0.305594 -0.671593 0.316704 -0.669822 120 120 119 255 0.199979 0.305511
-1.351641 1.582535 0.314088 -0.6131085 -0.4522412 -0.6477469 106 103 98 255 0.222329 0.294949
-1.642647 1.059219 0.315698 0.6203504 -0.4437644 -0.6467137 120 120 119 255 0.199979 0.305511
1.339914 1.080791 0.271344 0.7354789 0.233769 -0.6359426 106 103 98 255 0.222329 0.294949
1.623846 1.059313 0.315753 -0.5929216 -0.452009 -0.6664321 106 103 98 255 0.222329 0.294949
1.625474 0.594492 0.315753 -0.6515511 0.3247297 -0.6855887 106 103 98 255 0.222329 0.294949
-1.326118 0.563133 0.234937 -0.933547 0.1987638 -0.2983001 120 120 119 255 0.199979 0.305511
-1.349395 1.051341 0.316292 -0.6330027 -0.3267772 -0.7018008 120 120 119 255 0.199979 0.305511
-1.401314 0.565173 0.314096 -0.2735934 0.364834 -0.8899679 120 120 119 255 0.199979 0.305511
1.595021 0.526024 0.25708 -0.787685 0.163188 -0.5940725 97 95 95 255 0.198679 0.279508
-1.322126 0.484756 0.313092 -0.6184429 -0.4485018 -0.6452709 106 103 98 255 0.222329 0.294949
1.383844 0.485634 0.314944 -0.02314181 -0.4706262 -0.8820292 97 95 95 255 0.198679 0.279508
1.625863 0.381145 0.305793 -0.7414209 -0.1974495 -0.6413337 97 95 95 255 0.198679 0.279508
-1.642597 0.486459 0.314986 0.6140485 -0.384244 -0.6894208 106 103 98 255 0.222329 0.294949
1.625528 0.318968 0.315571 -0.6883649 -0.03331987 -0.724599 120 120 119 255 0.199979 0.305511
1.625507 0.281558 0.315541 -0.6936304 6.282084e-05 -0.7203311 120 120 119 255 0.199979 0.305511
-1.321193 0.105775 0.315423 -0.6787652 0.2147014 -0.7022686 106 103 98 255 0.222329 0.29495
1.625541 0.160124 0.315461 -0.6953624 0.0004917458 -0.7186591 120 120 119 255 0.199979 0.305511
1.625389 0.001656 0.315351 -0.5761325 0.578188 -0.5777283 120 120 119 255 0.199979 0.305511
-0.299403 3.009772 0.317063 0.2914071 -0.6819002 -0.6708905 120 120 119 255 0.199979 0.305511
-0.604268 2.920557 0.317682 0.2688963 -0.6626806 -0.698963 120 120 119 255 0.199979 0.305511
-0.341052 2.769644 0.315584 0.2846939 0.3247051 -0.9019513 97 95 95 255 0.198679 0.279508
0.347622 2.690525 0.315944 0.3283534 0.6508033 -0.6845723 106 103 98 255 0.222329 0.29495
1.172718 2.703686 0.31694 -0.3746864 -0.6319989 -0.6783712 120 120 119 255 0.199979 0.305511
1.579202 2.18961 0.257481 -0.7543745 -0.4116284 -0.5113524 97 95 95 255 0.198679 0.279508
-1.346971 1.734307 0.236451 -0.9637365 0.08837432 -0.2517975 120 120 119 255 0.199979 0.305511
1.624083 1.60323 0.316559 -0.6015404 -0.4499448 -0.6600749 106 103 98 255 0.222329 0.294949
-1.349357 1.131472 0.316347 -0.6301651 0.4069927 -0.661248 106 103 98 255 0.222329 0.294949
1.29717 0.587428 0.315088 0.6509048 0.3329558 -0.6822488 106 103 98 255 0.222329 0.294949
-1.588563 0.782907 0.31338 -0.01608618 0.2832034 -0.9589249 120 120 119 255 0.199979 0.305511
-1.352333 0.515642 0.253404 -0.782387 -0.3878326 -0.4872953 97 95 95 255 0.198679 0.279508
1.625863 0.289946 0.305759 -0.9998402 0.0001863209 -0.01787649 120 120 119 255 0.199979 0.305511
1.625863 0.197458 0.305713 -0.9998561 -0.00011215 -0.01696542 120 120 119 255 0.199979 0.305511
1.625863 0.075888 0.305628 -0.9998084 0.002253073 -0.01944708 120 120 119 255 0.199979 0.305511
-1.00395 2.587487 0.264273 -0.0309399 0.06810685 -0.9971982 97 95 95 255 0.198679 0.279508
-1.215877 2.296412 0.258068 -0.7440775 0.6563658 -0.1246301 120 120 119 255 0.199979 0.305511
-1.323903 2.171113 0.316512 -0.4723391 0.3976248 -0.7866322 120 120 119 255 0.199979 0.305511
-1.285024 2.14905 -0.312941 -0.6921749 -0.3890789 0.6078747 120 120 119 255 0.199979 0.305511
-1.370014 1.616355 0.234842 -0.916912 -0.1910536 -0.3503869 97 95 95 255 0.198679 0.279508
1.602251 1.081621 0.271885 -0.8358562 -0.2554633 -0.4858836 97 95 95 255 0.198679 0.279508
-0.43602 2.717406 0.256286 -0.3022143 0.7900386 -0.5333906 97 95 95 255 0.198679 0.279508
0.60795 2.608264 0.283195 0.2435385 0.6902205 -0.6813844 106 103 98 255 0.222329 0.29495
0.995705 2.633872 0.262561 0.02101056 0.09006242 -0.9957145 97 95 95 255 0.198679 0.279508
-1.484118 2.181849 0.263491 0.09513611 0.08110782 -0.9921545 97 95 95 255 0.198679 0.279508
1.332607 1.734577 0.27906 0.753463 0.206912 -0.6240841 120 120 119 255 0.199979 0.305511
1.601874 1.628457 0.273315 -0.7416289 -0.3995569 -0.538833 97 95 95 255 0.198679 0.279508
1.624321 1.603435 -0.315946 -0.6130958 -0.4351713 0.6593479 106 103 98 255 0.222329 0.294949
-1.368968 1.102497 0.271864 -0.832443 0.2207296 -0.5082491 97 95 95 255 0.198679 0.279508
1.625431 1.126449 0.316376 -0.6448227 0.3494321 -0.6797801 106 103 98 255 0.222329 0.294949
-1.579226 0.560989 0.303691 0.3971238 0.5777848 -0.713062 120 120 119 255 0.199979 0.305511
-0.3773 2.97147 0.259479 -0.2851425 -0.719674 -0.6330586 97 95 95 255 0.198679 0.279508
0.296259 2.870761 0.293949 -0.04341545 -0.1769784 -0.9832568 97 95 95 255 0.198679 0.279508
-1.350565 0.008567 0.26315 -0.5297432 0.7561988 -0.3841037 106 103 98 255 0.222329 0.29495
0.291518 2.966611 0.235751 -0.2468144 -0.9018173 -0.3546945 97 95 95 255 0.198679 0.279508
0.697664 2.560692 0.275161 0.3511285 0.8651012 -0.3582021 106 103 98 255 0.222329 0.29495
-1.350048 1.124095 -0.187443 -0.8634163 0.4958536 0.09295972 97 95 95 255 0.198679 0.279508
-1.552081 2.230068 0.316054 0.7432115 0.1214461 -0.6579419 120 120 119 255 0.199979 0.305511
1.599054 2.224935 0.023054 -0.9826677 0.0253849 0.1836294 97 95 95 255 0.198679 0.279508
1.625523 0.487235 -0.316234 -0.6382812 -0.3583081 0.6813314 97 95 95 255 0.198679 0.279508
-1.321503 0.486288 -0.174478 -0.9522448 -0.2970816 0.07051551 97 95 95 255 0.198679 0.279508
-1.170804 2.701418 0.316533 0.2427276 -0.7494633 -0.6159449 120 120 119 255 0.199979 0.305511
-1.301867 0.138344 -0.003742 -0.9987713 0.04928187 -0.005219669 106 103 98 255 0.222329 0.29495
0.298089 2.716893 0.303225 0.1307273 0.6639669 -0.7362461 97 95 95 255 0.198679 0.279508
-0.947607 2.521191 -0.048488 -0.6954168 0.716814 -0.05072653 97 95 95 255 0.198679 0.279508
-1.636582 0.6603 0.270331 0.8044375 0.05639448 -0.5913544 120 120 119 255 0.199979 0.305511
-1.059825 2.744663 0.135471 0.5571465 -0.8271443 0.07362184 97 95 95 255 0.198679 0.279508
-1.33928 2.14522 0.093213 -0.9939974 0.07080805 -0.08339995 97 95 95 255 0.198679 0.279508
-1.640896 1.674313 0.315567 0.6648481 0.3489724 -0.6604507 120 120 119 255 0.199979 0.305511
-1.621981 1.644955 0.274879 0.7744508 0.2820181 -0.5662965 97 95 95 255 0.198679 0.279508
1.352709 1.636327 0.268022 0.7088133 -0.1438162 -0.6905799 97 95 95 255 0.198679 0.279508
-1.348908 1.647859 0.163772 -0.9527227 0.3007346 -0.04333696 97 95 95 255 0.198679 0.279508
1.320557 1.131272 0.306624 0.6750411 0.2938522 -0.6767351 106 103 98 255 0.222329 0.294949
0.95541 2.426048 0.317084 0.5621548 0.4184123 -0.7133815 120 120 119 255 0.199979 0.305511
1.318692 1.564731 0.316533 0.6667711 -0.2833872 -0.6892807 106 103 98 255 0.222329 0.294949
1.60919 1.700347 0.137541 -0.9983864 0.05191103 0.02301938 97 95 95 255 0.198679 0.279508
-1.347691 1.572731 -0.315412 -0.6585783 -0.297597 0.6911662 97 95 95 255 0.198679 0.279508
1.600572 1.084385 0.119812 -0.9910619 -0.1308532 0.02595897 97 95 95 255 0.198679 0.279508
1.095382 2.715428 0.068406 -0.506834 -0.8612796 0.03628767 97 95 95 255 0.198679 0.279508
-1.039279 2.38045 -0.147842 -0.6896877 0.7231377 -0.0374542 120 120 119 255 0.199979 0.305511
0.334264 2.724509 0.035 0.09493664 0.9945536 0.04301371 97 95 95 255 0.198679 0.279508
1.147694 2.707247 -0.314622 -0.262205 -0.6721385 0.6924438 120 120 119 255 0.199979 0.305511
-1.332933 0.697093 -0.316084 -0.689894 0.03334304 0.7231421 97 95 95 255 0.198679 0.279508
-0.972385 2.784734 0.310494 0.3483755 -0.6305594 -0.6935628 120 120 119 255 0.199979 0.305511
-1.401747 2.464683 0.317216 0.5806674 -0.4895379 -0.6505214 120 120 119 255 0.199979 0.305511
0.784604 2.538161 0.149093 0.2435834 0.9696882 0.01928351 106 103 98 255 0.222329 0.29495
-1.115484 2.708974 0.271327 0.1097878 -0.8534141 -0.50954 97 95 95 255 0.198679 0.279508
1.59163 1.659579 -0.033976 -0.9920602 -0.1257576 0.00128565 97 95 95 255 0.198679 0.279508
1.041247 2.747612 -0.313655 -0.5747066 -0.360402 0.7347263 97 95 95 255 0.198679 0.279508
-1.620528 1.081619 0.271893 0.8202658 -0.2532567 -0.5128597 97 95 95 255 0.198679 0.279508
1.288397 2.147821 0.262198 0.8151786 0.2775861 -0.5083598 97 95 95 255 0.198679 0.279508
-1.643575 1.052411 0.051529 0.9885865 -0.1482073 -0.02704483 97 95 95 255 0.198679 0.279508
-1.642385 0.565303 0.193091 0.9802427 0.05344743 -0.1904408 97 95 95 255 0.198679 0.279508
1.291347 0.000938 0.315351 0.562266 0.5823891 -0.5870944 120 120 119 255 0.199979 0.305511
-1.319833 0.003371 0.06737 -0.695708 0.7146828 -0.07224309 106 103 98 255 0.222329 0.29495
-0.881421 2.575511 -0.267861 -0.8914811 0.4077571 0.1974731 97 95 95 255 0.198679 0.279508
1.318569 1.651948 0.163274 0.8432378 0.5310011 -0.08359466 120 120 119 255 0.199979 0.305511
0.853558 2.528044 0.260914 0.2818178 0.8015751 -0.5273104 120 120 119 255 0.199979 0.305511
-1.641974 1.589504 0.316499 0.6300318 -0.3330614 -0.7015199 106 103 98 255 0.222329 0.294949
1.623383 1.79852 -0.187685 -0.9962258 -0.04348551 -0.07512137 120 120 119 255 0.199979 0.305511
1.319536 1.343566 0.14811 0.9996474 -0.006574605 0.02572897 106 103 98 255 0.222329 0.294949
1.324783 0.528846 0.249583 0.8606252 -0.1530755 -0.4856874 97 95 95 255 0.198679 0.279508
1.292475 0.486112 0.314927 0.6186845 -0.4253715 -0.6605215 120 120 119 255 0.199979 0.305511
1.272787 0.138576 -0.004026 0.9993805 0.03519402 0.0001767885 120 120 119 255 0.199979 0.305511
0.702278 2.86925 -0.313687 -0.2308956 -0.6591791 0.7156607 106 103 98 255 0.222329 0.29495
-1.548746 2.20236 0.262071 0.9030977 0.09089097 -0.4197062 97 95 95 255 0.198679 0.279508
1.319158 1.591287 0.078362 0.9420688 -0.3346881 0.02214029 106 103 98 255 0.222329 0.294949
1.589452 1.088903 -0.252709 -0.7956067 -0.2865582 0.5337549 106 103 98 255 0.222329 0.294949
1.320705 1.052311 0.177752 0.9744731 -0.2127849 -0.07158743 106 103 98 255 0.222329 0.294949
1.623028 1.045782 -0.312784 -0.6360801 -0.407705 0.6551173 97 95 95 255 0.198679 0.279508
-1.347056 1.655556 -0.315611 -0.5955977 0.4432685 0.6699078 120 120 119 255 0.199979 0.305511
-1.64313 0.001658 0.315351 0.5611472 0.5856526 -0.5849145 106 103 98 255 0.222329 0.29495
-1.6411 1.669597 -0.00202 0.953536 0.3012774 0.001025055 97 95 95 255 0.198679 0.279508
-1.325737 0.563585 -0.231443 -0.9382651 0.2878729 0.1918013 97 95 95 255 0.198679 0.279508
1.622875 1.668424 -0.313037 -0.662773 0.3708186 0.6505579 120 120 119 255 0.199979 0.305511
-1.105314 2.706169 0.121391 0.550579 -0.8308274 0.0811711 97 95 95 255 0.198679 0.279508
-1.643198 1.126383 0.316376 0.6386238 0.3568493 -0.6817757 106 103 98 255 0.222329 0.294949
1.296238 0.594294 -0.049332 0.9798248 0.1991411 0.01691737 97 95 95 255 0.198679 0.279508
0.397002 3.008068 -0.188634 0.01988102 -0.9900247 0.1394843 97 95 95 255 0.198679 0.279508
-0.319798 2.69455 0.178375 0.1319756 0.9855299 -0.1063638 97 95 95 255 0.198679 0.279508
1.506412 2.199521 -0.258744 -0.8088629 -0.1962262 0.5542889 97 95 95 255 0.198679 0.279508
-1.329399 0 -0.31769 -0.5457692 0.5908691 0.5941463 106 103 98 255 0.222329 0.29495
0.258417 3.011593 -0.313706 -0.2874047 -0.6846827 0.6697821 120 120 119 255 0.199979 0.305511
1.263688 2.111203 -0.076465 0.9762993 0.1946643 -0.09458024 97 95 95 255 0.198679 0.279508
-1.591571 2.21381 -0.04948 0.975457 0.2196864 -0.0148816 97 95 95 255 0.198679 0.279508
1.319853 1.253032 -0.060328 0.9990579 -0.04262114 -0.008175104 106 103 98 255 0.222329 0.294949
0.383527 2.73235 -0.255025 0.3561549 0.7664796 0.5344742 97 95 95 255 0.198679 0.279508
1.246493 2.182963 0.079193 0.7534456 0.6568969 -0.02839161 120 120 119 255 0.199979 0.305511
1.07943 2.720148 -0.269238 -0.2815625 -0.7997779 0.5301679 97 95 95 255 0.198679 0.279508
-1.26474 2.210225 -0.313922 -0.3013733 0.6658835 0.6824758 97 95 95 255 0.198679 0.279508
-1.612776 1.642071 -0.263177 0.855917 -0.06389642 0.5131505 97 95 95 255 0.198679 0.279508
1.338315 1.37475 -0.038058 0.999038 -0.04377666 -0.002572234 106 103 98 255 0.222329 0.294949
-1.391168 1.102347 -0.261516 -0.6606078 -0.2285081 0.7151093 97 95 95 255 0.198679 0.279508
-1.643605 0.001321 0.05396 0.7066976 0.7073638 0.01466141 106 103 98 255 0.222329 0.29495
0.411218 2.989923 -0.223462 -0.1389173 -0.8287174 0.5421526 97 95 95 255 0.198679 0.279508
1.566056 2.127082 -0.271817 -0.8191516 -0.3920895 0.4186366 120 120 119 255 0.199979 0.305511
1.625109 1.208327 -0.314812 -0.6860489 0.2292755 0.6904851 106 103 98 255 0.222329 0.294949
-1.357982 0.481724 -0.288967 -0.5536497 -0.4438902 0.7045805 97 95 95 255 0.198679 0.279508
1.625863 0.00146 -0.143863 -0.7051689 0.7057627 0.06808677 120 120 119 255 0.199979 0.305511
-0.311911 2.966911 -0.255394 -0.008974409 -0.8043733 0.5940565 97 95 95 255 0.198679 0.279508
0.338923 2.973381 -0.254624 -0.2719355 -0.7511094 0.6015694 97 95 95 255 0.198679 0.279508
-0.968276 2.770712 -0.245489 0.4482779 -0.8086598 0.3809415 120 120 119 255 0.198679 0.302911
0.915889 2.586465 -0.255847 -0.2246357 0.02465046 0.974131 97 95 95 255 0.198679 0.279508
1.490935 2.227391 -0.31378 -0.6241197 0.1400112 0.7686816 97 95 95 255 0.198679 0.279508
-1.349331 1.051728 -0.315997 -0.6285852 -0.3993253 0.6673979 97 95 95 255 0.198679 0.279508
-0.307309 2.714593 -0.245152 -0.09032161 0.8838351 0.4589962 97 95 95 255 0.198679 0.279508
-0.902757 2.635795 -0.271298 -0.1841057 -0.2413948 0.9528031 97 95 95 255 0.198679 0.279508
1.349655 2.477659 -0.286073 -0.5709689 -0.4398849 0.6931781 120 120 119 255 0.199979 0.305511
-1.555544 2.205705 -0.258977 0.9360458 -0.06088881 0.34657 97 95 95 255 0.198679 0.279508
-1.325435 2.18587 -0.258119 -0.7073857 0.2696477 0.6533725 97 95 95 255 0.198679 0.279508
1.232186 2.147618 -0.266782 0.853601 0.3184409 0.412263 97 95 95 255 0.198679 0.279508
-1.365582 1.626182 -0.271942 -0.8390482 0.2132284 0.5005316 97 95 95 255 0.198679 0.279508
-1.348832 1.267389 -0.315558 -0.695772 0.1135946 0.7092233 97 95 95 255 0.198679 0.279508
1.599281 0.543384 -0.259102 -0.8403975 0.05922772 0.5387246 97 95 95 255 0.198679 0.279508
-1.348814 0.531064 -0.245504 -0.8061216 0.1360011 0.5759094 97 95 95 255 0.198679 0.279508
1.625821 0.10654 -0.27355 -0.9099427 0.1266762 0.3949145 120 120 119 255 0.199979 0.305511
-1.59428 0.014408 -0.231276 0.5194493 0.8076317 0.2791118 106 103 98 255 0.222329 0.29495
-0.701586 2.847725 -0.282038 0.3811152 -0.9104648 0.1606397 120 120 119 255 0.198679 0.302911
-1.019547 2.736741 -0.300701 0.08424439 -0.752448 0.6532418 120 120 119 255 0.199979 0.305511
-1.55894 2.172693 -0.314539 0.5354435 -0.4798652 0.6950033 97 95 95 255 0.198679 0.279508
1.49244 2.158695 -0.30982 -0.1792454 -0.4830675 0.8570397 97 95 95 255 0.198679 0.279508
1.351866 1.617007 -0.262149 0.8652421 0.1363625 0.4824536 97 95 95 255 0.198679 0.279508
1.602311 1.629669 -0.271266 -0.8309471 -0.2564447 0.4937236 97 95 95 255 0.198679 0.279508
-1.62018 1.082895 -0.269846 0.7898508 -0.1039403 0.6044271 97 95 95 255 0.198679 0.279508
1.340257 1.081885 -0.269594 0.8209362 -0.100079 0.5621815 97 95 95 255 0.198679 0.279508
-1.643457 1.053114 -0.315024 0.6308362 -0.4110557 0.6580873 97 95 95 255 0.198679 0.279508
-1.321028 0.327646 -0.314139 -0.6995673 -0.06647698 0.7114679 106 103 98 255 0.222329 0.294949
1.588677 0.021203 -0.280402 -0.4896096 0.7123427 0.5028422 120 120 119 255 0.199979 0.305511
-0.863438 2.547502 -0.313744 -0.8288722 0.1243141 0.545451 97 95 95 255 0.198679 0.279508
-1.642019 1.587463 -0.314624 0.6445862 -0.3512882 0.6790474 97 95 95 255 0.198679 0.279508
1.319849 1.043475 -0.316501 0.6222946 -0.3897803 0.6788378 106 103 98 255 0.222329 0.294949
1.6256 0.594867 -0.315554 -0.6374413 0.3600121 0.6812194 97 95 95 255 0.198679 0.279508
-1.613013 0.529023 -0.260225 0.797608 0.0009002892 0.6031755 97 95 95 255 0.198679 0.279508
-1.64283 0.487844 -0.315315 0.6247594 -0.4127157 0.6628284 97 95 95 255 0.198679 0.279508
-0.254971 3.00662 -0.314526 0.3758071 -0.630994 0.6786867 120 120 119 255 0.199979 0.305511
-0.35553 2.998966 -0.313412 -0.2755703 -0.7068504 0.651478 120 120 119 255 0.199979 0.305511
-0.222915 2.701754 -0.312096 0.2603789 0.6537941 0.7104619 97 95 95 255 0.198679 0.279508
-0.8323 2.778624 -0.313944 0.2904485 -0.4162141 0.8616295 120 120 119 255 0.199979 0.305511
0.420022 2.891463 -0.307934 0.2247375 -0.2749169 0.9348336 97 95 95 255 0.198679 0.279508
0.305058 2.760446 -0.31399 -0.3295458 0.2962285 0.8964643 97 95 95 255 0.198679 0.279508
0.442993 2.696805 -0.315702 0.4369203 0.5417988 0.7180215 106 103 98 255 0.222329 0.29495
-0.991147 2.743396 -0.257848 0.2098325 -0.8465509 0.4892054 97 95 95 255 0.198679 0.279508
0.061734 2.699285 -0.315262 -0.0378699 0.7092757 0.7039133 120 120 119 255 0.199979 0.305511
-0.77502 2.575944 -0.313342 -0.01308572 0.7132941 0.7007426 97 95 95 255 0.198679 0.279508
-0.367007 2.689277 -0.314897 -0.4362485 0.5968145 0.6734239 97 95 95 255 0.198679 0.279508
-1.383804 2.412544 -0.293816 0.5671213 -0.631469 0.5287916 120 120 119 255 0.199979 0.305511
1.008609 2.588529 -0.315611 0.2169737 -0.2803628 0.9350504 97 95 95 255 0.198679 0.279508
0.900007 2.50124 -0.311913 0.4839611 0.360669 0.7973077 120 120 119 255 0.199979 0.305511
-1.342633 2.386605 -0.315582 0.120578 -0.1574018 0.9801458 120 120 119 255 0.199979 0.305511
0.975276 2.434672 -0.314626 0.4402578 0.5273777 0.7266677 120 120 119 255 0.199979 0.305511
0.830979 2.537803 -0.313465 0.1422282 0.6445217 0.751241 97 95 95 255 0.198679 0.279508
1.216697 2.43399 -0.285839 -0.06789795 -0.01014693 0.9976407 120 120 119 255 0.199979 0.305511
1.167411 2.295099 -0.303615 0.2040052 0.2078712 0.956646 120 120 119 255 0.199979 0.305511
1.137461 2.288939 -0.252528 0.7618798 0.622547 0.1788136 120 120 119 255 0.199979 0.305511
-1.503405 2.297163 -0.315635 0.5277718 -0.4648423 0.7108998 97 95 95 255 0.198679 0.279508
-1.543637 2.235223 -0.313689 0.6640288 0.180885 0.7254974 97 95 95 255 0.198679 0.279508
1.192471 2.164432 -0.300356 0.5148499 0.6009469 0.6113856 97 95 95 255 0.198679 0.279508
1.206977 2.116314 -0.313096 0.7669939 -0.2961042 0.5692475 97 95 95 255 0.198679 0.279508
-1.640939 1.800304 -0.31438 0.741237 -0.02625232 0.6707298 120 120 119 255 0.199979 0.305511
-1.610259 1.696649 -0.314819 0.5223352 0.274176 0.8074611 97 95 95 255 0.198679 0.279508
1.6231 1.885866 -0.314406 -0.749894 -0.1201109 0.6505631 120 120 119 255 0.199979 0.305511
-1.557245 1.660308 -0.313291 0.1211889 0.563482 0.8171911 97 95 95 255 0.198679 0.279508
1.317874 1.665711 -0.314423 0.6066744 0.4222366 0.6735447 120 120 119 255 0.199979 0.305511
1.372222 1.596218 -0.309055 0.3135902 -0.5383438 0.7822066 120 120 119 255 0.199979 0.305511
1.318977 1.489198 -0.314986 0.7233295 -0.09996817 0.6832283 120 120 119 255 0.199979 0.305511
1.320515 1.131649 -0.301409 0.702042 0.2603099 0.6628544 97 95 95 255 0.198679 0.279508
1.582646 1.207843 -0.316633 -0.05065537 0.2071817 0.9769902 106 103 98 255 0.222329 0.294949
-1.643381 1.126634 -0.315986 0.6126903 0.3631931 0.7019269 106 103 98 255 0.222329 0.294949
1.415825 1.12426 -0.314107 0.0193962 0.3404075 0.940078 97 95 95 255 0.198679 0.279508
1.303672 0.706015 -0.31612 0.7101549 0.06908154 0.7006482 106 103 98 255 0.222329 0.294949
1.348903 0.646855 -0.315944 0.2125 0.2785278 0.9366248 97 95 95 255 0.198679 0.279508
1.329881 0.530883 -0.246682 0.7749583 -0.3609484 0.5188025 97 95 95 255 0.198679 0.279508
-1.641905 0.565444 -0.301564 0.6433165 0.4058912 0.6491504 97 95 95 255 0.198679 0.279508
-1.370048 0.585358 -0.309631 -0.3403437 0.4049302 0.8486446 97 95 95 255 0.198679 0.279508
1.292274 0.486647 -0.314664 0.6216049 -0.4300468 0.6547268 120 120 119 255 0.199979 0.305511
-1.433326 0.472515 -0.315544 -0.1048423 -0.4601318 0.8816388 97 95 95 255 0.198679 0.279508
-1.643597 0.206256 -0.315633 0.6478103 0.2065861 0.7332557 106 103 98 255 0.222329 0.29495
-1.553355 0.228717 -0.317281 0.04807325 0.06304228 0.9968524 106 103 98 255 0.222329 0.29495
1.291131 0.001853 -0.31665 0.5499708 0.5859822 0.5951109 120 120 119 255 0.199979 0.305511
-1.624837 0.056335 -0.242749 0.8306356 0.3816047 0.4054903 106 103 98 255 0.222329 0.29495
1.572617 0.061806 -0.317103 -0.3382412 0.3101489 0.8884822 120 120 119 255 0.199979 0.305511
-1.492319 0.000754 -0.317686 0.1462537 0.6999665 0.6990399 106 103 98 255 0.222329 0.29495
-1.565125 0.06377 -0.312115 0.5014394 0.2280571 0.8345948 106 103 98 255 0.222329 0.29495
1.42715 0.000631 -0.273135 -0.08358958 0.9532095 0.2905247 120 120 119 255 0.199979 0.305511
-1.640939 1.69846 -0.201368 0.9852232 0.1631102 0.0522516 120 120 119 255 0.199979 0.305511
-0.299403 3.009772 0.317063 0.2914071 -0.6819002 -0.6708905 97 95 95 255 0.198679 0.279508
-0.208552 2.696209 0.308103 0.1028034 0.7195238 -0.6868165 120 120 119 255 0.199979 0.305511
-0.972385 2.784734 0.310494 0.3483755 -0.6305594 -0.6935628 97 95 95 255 0.198679 0.279508
-0.901544 2.557147 0.314762 0.07380723 0.6155779 -0.7846122 120 120 119 255 0.199979 0.305511
1.52203 2.333169 0.317059 -0.6467099 -0.3564396 -0.6743273 97 95 95 255 0.198679 0.279508
1.466697 2.204809 0.315779 -0.09281591 0.1588006 -0.9829382 97 95 95 255 0.198679 0.279508
1.613252 2.164162 0.248271 -0.8474774 -0.4457578 -0.2882394 120 120 119 255 0.199979 0.305511
1.572248 2.099952 0.31641 -0.4754397 -0.1568723 -0.865649 120 120 119 255 0.199979 0.305511
1.265597 2.108256 0.316762 0.6818881 -0.3126181 -0.6612856 120 120 119 255 0.199979 0.305511
1.414613 1.71979 0.316347 0.166888 0.2201313 -0.9610882 97 95 95 255 0.198679 0.279508
1.332607 1.734577 0.27906 0.753463 0.206912 -0.6240841 97 95 95 255 0.198679 0.279508
1.613385 1.672196 0.305594 -0.671593 0.316704 -0.669822 97 95 95 255 0.198679 0.279508
1.383844 0.485634 0.314944 -0.02314181 -0.4706262 -0.8820292 120 120 119 255 0.199979 0.305511
1.625863 0.381145 0.305793 -0.7414209 -0.1974495 -0.6413337 120 120 119 255 0.199979 0.305511
0.366908 2.933077 0.314931 0.2234933 -0.4030018 -0.887491 97 95 95 255 0.198679 0.279508
0.410591 2.982527 0.275034 -0.05317508 -0.9021317 -0.4281715 97 95 95 255 0.198679 0.279508
-1.390629 1.654019 0.312447 -0.4261759 0.4814827 -0.7658646 97 95 95 255 0.198679 0.279508
-1.640896 1.674313 0.315567 0.6648481 0.3489724 -0.6604507 97 95 95 255 0.198679 0.279508
-1.351641 1.582535 0.314088 -0.6131085 -0.4522412 -0.6477469 97 95 95 255 0.198679 0.279508
-1.641974 1.589504 0.316499 0.6300318 -0.3330614 -0.7015199 97 95 95 255 0.198679 0.279508
1.318692 1.564731 0.316533 0.6667711 -0.2833872 -0.6892807 97 95 95 255 0.198679 0.279508
1.624083 1.60323 0.316559 -0.6015404 -0.4499448 -0.6600749 97 95 95 255 0.198679 0.279508
-1.643198 1.126383 0.316376 0.6386238 0.3568493 -0.6817757 97 95 95 255 0.198679 0.279508
-1.349357 1.131472 0.316347 -0.6301651 0.4069927 -0.661248 97 95 95 255 0.198679 0.279508
-1.642647 1.059219 0.315698 0.6203504 -0.4437644 -0.6467137 97 95 95 255 0.198679 0.279508
-1.349395 1.051341 0.316292 -0.6330027 -0.3267772 -0.7018008 97 95 95 255 0.198679 0.279508
1.292475 0.486112 0.314927 0.6186845 -0.4253715 -0.6605215 97 95 95 255 0.198679 0.279508
0.347622 2.690525 0.315944 0.3283534 0.6508033 -0.6845723 97 95 95 255 0.198679 0.279508
1.092189 2.744178 0.316427 -0.3311531 -0.5619293 -0.758006 97 95 95 255 0.198679 0.279508
0.823723 2.567815 0.315147 -0.04697629 0.4986938 -0.8655043 97 95 95 255 0.198679 0.279508
0.853558 2.528044 0.260914 0.2818178 0.8015751 -0.5273104 106 103 98 255 0.222329 0.29495
-1.552081 2.230068 0.316054 0.7432115 0.1214461 -0.6579419 97 95 95 255 0.198679 0.279508
-1.323903 2.171113 0.316512 -0.4723391 0.3976248 -0.7866322 97 95 95 255 0.198679 0.279508
-1.572492 2.149801 0.316864 0.5731252 -0.4271564 -0.6993319 97 95 95 255 0.198679 0.279508
-1.346989 2.111241 0.315079 -0.6019651 0.009209222 -0.7984692 97 95 95 255 0.198679 0.279508
1.234425 2.169728 0.316152 0.3340522 0.6846399 -0.6478252 97 95 95 255 0.198679 0.279508
1.623846 1.059313 0.315753 -0.5929216 -0.452009 -0.6664321 97 95 95 255 0.198679 0.279508
1.339914 1.080791 0.271344 0.7354789 0.233769 -0.6359426 97 95 95 255 0.198679 0.279508
-1.401314 0.565173 0.314096 -0.2735934 0.364834 -0.8899679 97 95 95 255 0.198679 0.279508
-1.326118 0.563133 0.234937 -0.933547 0.1987638 -0.2983001 97 95 95 255 0.198679 0.279508
-0.408283 3.002176 0.315957 -0.3482339 -0.6631401 -0.6625544 97 95 95 255 0.198679 0.279508
-0.513081 2.683879 0.316957 -0.383272 0.6117501 -0.6920003 97 95 95 255 0.198679 0.279508
0.218896 3.005173 0.31758 -0.3022776 -0.6726989 -0.6753551 97 95 95 255 0.198679 0.279508
0.182338 2.694067 0.317347 -0.09882919 0.7151643 -0.6919342 97 95 95 255 0.198679 0.279508
-1.170804 2.701418 0.316533 0.2427276 -0.7494633 -0.6159449 97 95 95 255 0.198679 0.279508
1.172718 2.703686 0.31694 -0.3746864 -0.6319989 -0.6783712 97 95 95 255 0.198679 0.279508
-1.003778 2.49025 0.315626 -0.5580258 0.3034202 -0.7723622 97 95 95 255 0.198679 0.279508
0.853558 2.528044 0.260914 0.2818178 0.8015751 -0.5273104 97 95 95 255 0.198679 0.279508
-0.91327 2.529746 0.248525 -0.2743327 0.9167922 -0.2902307 97 95 95 255 0.198679 0.279508
1.318569 1.651948 0.163274 0.8432378 0.5310011 -0.08359466 97 95 95 255 0.198679 0.279508
1.320557 1.131272 0.306624 0.6750411 0.2938522 -0.6767351 97 95 95 255 0.198679 0.279508
1.625431 1.126449 0.316376 -0.6448227 0.3494321 -0.6797801 97 95 95 255 0.198679 0.279508
-1.636582 0.6603 0.270331 0.8044375 0.05639448 -0.5913544 97 95 95 255 0.198679 0.279508
-1.579226 0.560989 0.303691 0.3971238 0.5777848 -0.713062 97 95 95 255 0.198679 0.279508
1.625474 0.594492 0.315753 -0.6515511 0.3247297 -0.6855887 97 95 95 255 0.198679 0.279508
1.29717 0.587428 0.315088 0.6509048 0.3329558 -0.6822488 97 95 95 255 0.198679 0.279508
-1.642597 0.486459 0.314986 0.6140485 -0.384244 -0.6894208 97 95 95 255 0.198679 0.279508
-1.322126 0.484756 0.313092 -0.6184429 -0.4485018 -0.6452709 97 95 95 255 0.198679 0.279508
-1.346971 1.734307 0.236451 -0.9637365 0.08837432 -0.2517975 97 95 95 255 0.198679 0.279508
-1.380309 1.876305 0.315266 -0.4611801 0.06333847 -0.885043 97 95 95 255 0.198679 0.279508
-0.319798 2.69455 0.178375 0.1319756 0.9855299 -0.1063638 120 120 119 255 0.199979 0.305511
-0.43602 2.717406 0.256286 -0.3022143 0.7900386 -0.5333906 120 120 119 255 0.199979 0.305511
1.625523 0.487235 -0.316234 -0.6382812 -0.3583081 0.6813314 120 120 119 255 0.199979 0.305511
-1.105314 2.706169 0.121391 0.550579 -0.8308274 0.0811711 120 120 119 255 0.199979 0.305511
-1.643575 1.052411 0.051529 0.9885865 -0.1482073 -0.02704483 120 120 119 255 0.199979 0.305511
-1.321503 0.486288 -0.174478 -0.9522448 -0.2970816 0.07051551 106 103 98 255 0.222329 0.294949
-1.6411 1.669597 -0.00202 0.953536 0.3012774 0.001025055 120 120 119 255 0.199979 0.305511
1.319158 1.591287 0.078362 0.9420688 -0.3346881 0.02214029 97 95 95 255 0.198679 0.279508
1.246493 2.182963 0.079193 0.7534456 0.6568969 -0.02839161 97 95 95 255 0.198679 0.279508
-1.347691 1.572731 -0.315412 -0.6585783 -0.297597 0.6911662 106 103 98 255 0.222329 0.294949
-1.349331 1.051728 -0.315997 -0.6285852 -0.3993253 0.6673979 120 120 119 255 0.199979 0.305511
-1.642385 0.565303 0.193091 0.9802427 0.05344743 -0.1904408 120 120 119 255 0.199979 0.305511
-0.972385 2.784734 0.310494 0.3483755 -0.6305594 -0.6935628 120 120 119 255 0.198679 0.302911
-0.604268 2.920557 0.317682 0.2688963 -0.6626806 -0.698963 120 120 119 255 0.198679 0.302911
-1.059825 2.744663 0.135471 0.5571465 -0.8271443 0.07362184 120 120 119 255 0.198679 0.302911
-0.947607 2.521191 -0.048488 -0.6954168 0.716814 -0.05072653 120 120 119 255 0.199979 0.305511
-1.350048 1.124095 -0.187443 -0.8634163 0.4958536 0.09295972 106 103 98 255 0.222329 0.294949
-1.285024 2.14905 -0.312941 -0.6921749 -0.3890789 0.6078747 97 95 95 255 0.198679 0.279508
-1.643381 1.126634 -0.315986 0.6126903 0.3631931 0.7019269 97 95 95 255 0.198679 0.279508
1.147694 2.707247 -0.314622 -0.262205 -0.6721385 0.6924438 97 95 95 255 0.198679 0.279508
1.60919 1.700347 0.137541 -0.9983864 0.05191103 0.02301938 120 120 119 255 0.199979 0.305511
1.296238 0.594294 -0.049332 0.9798248 0.1991411 0.01691737 106 103 98 255 0.222329 0.294949
-1.64283 0.487844 -0.315315 0.6247594 -0.4127157 0.6628284 106 103 98 255 0.222329 0.294949
-1.55894 2.172693 -0.314539 0.5354435 -0.4798652 0.6950033 120 120 119 255 0.199979 0.305511
1.263688 2.111203 -0.076465 0.9762993 0.1946643 -0.09458024 120 120 119 255 0.199979 0.305511
-0.77502 2.575944 -0.313342 -0.01308572 0.7132941 0.7007426 120 120 119 255 0.199979 0.305511
0.784604 2.538161 0.149093 0.2435834 0.9696882 0.01928351 97 95 95 255 0.198679 0.279508
1.59163 1.659579 -0.033976 -0.9920602 -0.1257576 0.00128565 120 120 119 255 0.199979 0.305511
1.317874 1.665711 -0.314423 0.6066744 0.4222366 0.6735447 97 95 95 255 0.198679 0.279508
1.623028 1.045782 -0.312784 -0.6360801 -0.407705 0.6551173 106 103 98 255 0.222329 0.294949
1.041247 2.747612 -0.313655 -0.5747066 -0.360402 0.7347263 106 103 98 255 0.222329 0.29495
1.589452 1.088903 -0.252709 -0.7956067 -0.2865582 0.5337549 97 95 95 255 0.198679 0.279508
1.320705 1.052311 0.177752 0.9744731 -0.2127849 -0.07158743 97 95 95 255 0.198679 0.279508
1.292274 0.486647 -0.314664 0.6216049 -0.4300468 0.6547268 97 95 95 255 0.198679 0.279508
0.397002 3.008068 -0.188634 0.01988102 -0.9900247 0.1394843 106 103 98 255 0.222329 0.29495
-1.503405 2.297163 -0.315635 0.5277718 -0.4648423 0.7108998 120 120 119 255 0.199979 0.305511
-0.254971 3.00662 -0.314526 0.3758071 -0.630994 0.6786867 97 95 95 255 0.198679 0.279508
-1.643457 1.053114 -0.315024 0.6308362 -0.4110557 0.6580873 120 120 119 255 0.199979 0.305511
1.624321 1.603435 -0.315946 -0.6130958 -0.4351713 0.6593479 97 95 95 255 0.198679 0.279508
1.320515 1.131649 -0.301409 0.702042 0.2603099 0.6628544 106 103 98 255 0.222329 0.294949
0.900007 2.50124 -0.311913 0.4839611 0.360669 0.7973077 97 95 95 255 0.198679 0.279508
-0.968276 2.770712 -0.245489 0.4482779 -0.8086598 0.3809415 97 95 95 255 0.198679 0.279508
-1.26474 2.210225 -0.313922 -0.3013733 0.6658835 0.6824758 120 120 119 255 0.199979 0.305511
-1.332933 0.697093 -0.316084 -0.689894 0.03334304 0.7231421 120 120 119 255 0.199979 0.305511
0.442993 2.696805 -0.315702 0.4369203 0.5417988 0.7180215 97 95 95 255 0.198679 0.279508
-1.019547 2.736741 -0.300701 0.08424439 -0.752448 0.6532418 97 95 95 255 0.198679 0.279508
1.566056 2.127082 -0.271817 -0.8191516 -0.3920895 0.4186366 97 95 95 255 0.198679 0.279508
0.258417 3.011593 -0.313706 -0.2874047 -0.6846827 0.6697821 97 95 95 255 0.198679 0.279508
0.383527 2.73235 -0.255025 0.3561549 0.7664796 0.5344742 120 120 119 255 0.199979 0.305511
1.206977 2.116314 -0.313096 0.7669939 -0.2961042 0.5692475 120 120 119 255 0.199979 0.305511
-0.367007 2.689277 -0.314897 -0.4362485 0.5968145 0.6734239 120 120 119 255 0.199979 0.305511
-1.347056 1.655556 -0.315611 -0.5955977 0.4432685 0.6699078 97 95 95 255 0.198679 0.279508
1.622875 1.668424 -0.313037 -0.662773 0.3708186 0.6505579 97 95 95 255 0.198679 0.279508
1.351866 1.617007 -0.262149 0.8652421 0.1363625 0.4824536 120 120 119 255 0.199979 0.305511
1.319158 1.591287 0.078362 0.9420688 -0.3346881 0.02214029 120 120 119 255 0.199979 0.305511
1.318977 1.489198 -0.314986 0.7233295 -0.09996817 0.6832283 106 103 98 255 0.222329 0.294949
0.830979 2.537803 -0.313465 0.1422282 0.6445217 0.751241 106 103 98 255 0.222329 0.29495
1.192471 2.164432 -0.300356 0.5148499 0.6009469 0.6113856 120 120 119 255 0.199979 0.305511
-1.640939 1.800304 -0.31438 0.741237 -0.02625232 0.6707298 97 95 95 255 0.198679 0.279508
-0.701586 2.847725 -0.282038 0.3811152 -0.9104648 0.1606397 120 120 119 255 0.199979 0.305511
1.329881 0.530883 -0.246682 0.7749583 -0.3609484 0.5188025 106 103 98 255 0.222329 0.294949
-0.35553 2.998966 -0.313412 -0.2755703 -0.7068504 0.651478 97 95 95 255 0.198679 0.279508
-0.222915 2.701754 -0.312096 0.2603789 0.6537941 0.7104619 120 120 119 255 0.199979 0.305511
1.490935 2.227391 -0.31378 -0.6241197 0.1400112 0.7686816 120 120 119 255 0.199979 0.305511
-0.863438 2.547502 -0.313744 -0.8288722 0.1243141 0.545451 120 120 119 255 0.199979 0.305511
1.319849 1.043475 -0.316501 0.6222946 -0.3897803 0.6788378 97 95 95 255 0.198679 0.279508
-0.701586 2.847725 -0.282038 0.3811152 -0.9104648 0.1606397 97 95 95 255 0.198679 0.279508
1.372222 1.596218 -0.309055 0.3135902 -0.5383438 0.7822066 97 95 95 255 0.198679 0.279508
-1.641905 0.565444 -0.301564 0.6433165 0.4058912 0.6491504 120 120 119 255 0.199979 0.305511
0.411218 2.989923 -0.223462 -0.1389173 -0.8287174 0.5421526 106 103 98 255 0.222329 0.29495
1.49244 2.158695 -0.30982 -0.1792454 -0.4830675 0.8570397 120 120 119 255 0.199979 0.305511
-1.642019 1.587463 -0.314624 0.6445862 -0.3512882 0.6790474 106 103 98 255 0.222329 0.294949
1.6256 0.594867 -0.315554 -0.6374413 0.3600121 0.6812194 106 103 98 255 0.222329 0.294949
-1.321028 0.327646 -0.314139 -0.6995673 -0.06647698 0.7114679 97 95 95 255 0.198679 0.279508
0.305058 2.760446 -0.31399 -0.3295458 0.2962285 0.8964643 120 120 119 255 0.199979 0.305511
-1.348832 1.267389 -0.315558 -0.695772 0.1135946 0.7092233 106 103 98 255 0.222329 0.294949
0.420022 2.891463 -0.307934 0.2247375 -0.2749169 0.9348336 106 103 98 255 0.222329 0.29495
-0.8323 2.778624 -0.313944 0.2904485 -0.4162141 0.8616295 97 95 95 255 0.198679 0.279508
1.008609 2.588529 -0.315611 0.2169737 -0.2803628 0.9350504 120 120 119 255 0.199979 0.305511
-1.543637 2.235223 -0.313689 0.6640288 0.180885 0.7254974 120 120 119 255 0.199979 0.305511
1.624321 1.603435 -0.315946 -0.6130958 -0.4351713 0.6593479 120 120 119 255 0.199979 0.305511
1.415825 1.12426 -0.314107 0.0193962 0.3404075 0.940078 106 103 98 255 0.222329 0.294949
-1.370048 0.585358 -0.309631 -0.3403437 0.4049302 0.8486446 120 120 119 255 0.199979 0.305511
1.348903 0.646855 -0.315944 0.2125 0.2785278 0.9366248 106 103 98 255 0.222329 0.294949
-1.433326 0.472515 -0.315544 -0.1048423 -0.4601318 0.8816388 106 103 98 255 0.222329 0.294949
-1.612776 1.642071 -0.263177 0.855917 -0.06389642 0.5131505 120 120 119 255 0.199979 0.305511
3 2 1 3 
3 0 49 9 
3 48 6 4 
3 49 111 9 
3 7 253 50 
3 3 1 51 
3 48 254 6 
3 255 114 8 
3 3 51 70 
3 111 256 9 
3 3 70 10 
3 5 3 10 
3 9 256 11 
3 10 70 83 
3 89 112 12 
3 12 112 16 
3 52 125 101 
3 16 112 85 
3 52 101 14 
3 52 14 17 
3 52 17 13 
3 12 16 15 
3 15 16 65 
3 15 65 64 
3 53 257 258 
3 16 85 65 
3 21 53 19 
3 19 22 21 
3 19 20 22 
3 23 18 26 
3 259 260 24 
3 260 261 27 
3 24 260 25 
3 25 260 27 
3 26 18 28 
3 27 261 73 
3 18 96 28 
3 25 27 29 
3 262 263 98 
3 264 262 98 
3 55 102 77 
3 30 126 56 
3 77 102 100 
3 126 144 56 
3 33 32 57 
3 36 31 58 
3 33 57 34 
3 36 58 93 
3 36 93 78 
3 36 37 35 
3 36 78 37 
3 38 40 41 
3 265 130 44 
3 265 44 43 
3 266 265 43 
3 39 42 45 
3 44 130 121 
3 42 139 45 
3 44 121 46 
3 81 45 139 
3 46 121 47 
3 267 268 82 
3 253 79 69 
3 69 50 253 
3 8 114 63 
3 54 23 26 
3 269 270 67 
3 271 67 272 
3 273 274 74 
3 275 76 276 
3 117 277 278 
3 279 40 129 
3 266 43 60 
3 60 43 44 
3 60 44 61 
3 61 44 46 
3 61 46 62 
3 62 46 47 
3 280 267 91 
3 71 281 282 
3 109 52 13 
3 10 83 283 
3 101 155 14 
3 284 133 72 
3 284 72 285 
3 286 287 72 
3 288 118 258 
3 20 19 118 
3 261 124 73 
3 270 97 67 
3 264 98 74 
3 75 55 77 
3 289 68 290 
3 32 136 57 
3 291 59 292 
3 40 38 129 
3 39 45 90 
3 183 266 60 
3 121 130 131 
3 183 60 61 
3 183 61 62 
3 183 62 47 
3 121 166 47 
3 293 294 79 
3 91 267 80 
3 295 296 91 
3 143 297 114 
3 297 63 114 
3 298 281 71 
3 50 147 7 
3 297 299 63 
3 282 300 71 
3 298 71 300 
3 8 63 301 
3 15 64 12 
3 286 72 133 
3 53 258 19 
3 285 72 287 
3 263 302 98 
3 272 67 97 
3 273 74 98 
3 75 77 164 
3 76 84 276 
3 275 117 76 
3 303 290 304 
3 76 117 278 
3 304 290 68 
3 119 277 117 
3 305 120 306 
3 307 308 129 
3 291 306 59 
3 120 309 310 
3 59 120 310 
3 267 82 80 
3 295 80 82 
3 79 294 69 
3 295 91 80 
3 63 299 301 
3 258 118 19 
3 24 25 29 
3 311 312 269 
3 311 269 67 
3 306 120 59 
3 307 129 38 
3 53 86 257 
3 130 242 131 
3 139 122 81 
3 253 167 79 
3 70 113 83 
3 102 128 100 
3 58 31 93 
3 310 88 59 
3 38 41 87 
3 90 45 81 
3 313 6 254 
3 9 11 314 
3 151 20 118 
3 270 140 97 
3 74 274 115 
3 172 76 278 
3 120 200 309 
3 315 266 183 
3 89 316 112 
3 50 69 147 
3 299 92 301 
3 74 115 264 
3 272 97 158 
3 31 317 93 
3 161 122 139 
3 94 114 255 
3 113 283 83 
3 284 152 133 
3 53 148 86 
3 21 148 53 
3 95 285 287 
3 67 99 311 
3 39 90 318 
3 70 51 113 
3 163 24 29 
3 18 319 96 
3 136 198 57 
3 213 85 112 
3 115 103 264 
3 271 104 67 
3 102 134 128 
3 100 128 153 
3 183 47 166 
3 273 98 320 
3 289 105 68 
3 59 182 292 
3 296 108 91 
3 91 108 280 
3 92 123 301 
3 288 321 118 
3 322 30 56 
3 68 105 304 
3 122 90 81 
3 298 106 281 
3 123 211 301 
3 66 23 54 
3 302 189 98 
3 323 36 35 
3 167 293 79 
3 222 152 284 
3 93 317 324 
3 146 82 268 
3 209 143 114 
3 320 98 189 
3 126 235 144 
3 185 325 326 
3 325 185 327 
3 12 107 328 
3 107 12 64 
3 187 286 133 
3 261 230 124 
3 163 259 24 
3 322 56 329 
3 308 145 129 
3 94 209 114 
3 88 182 59 
3 95 287 330 
3 97 140 158 
3 164 77 135 
3 275 331 117 
3 117 331 119 
3 289 137 105 
3 201 309 200 
3 4 150 48 
3 298 332 106 
3 316 186 112 
3 215 101 125 
3 321 178 118 
3 118 178 151 
3 163 29 333 
3 331 191 119 
3 193 119 191 
3 57 198 334 
3 42 335 139 
3 95 157 285 
3 336 226 18 
3 261 337 230 
3 159 153 128 
3 13 175 109 
3 208 113 51 
3 197 272 158 
3 116 281 106 
3 108 154 280 
3 338 314 11 
3 339 218 300 
3 64 65 107 
3 176 187 133 
3 127 333 340 
3 302 341 189 
3 134 159 128 
3 33 34 342 
3 343 132 5 
3 296 154 108 
3 313 210 6 
3 215 217 101 
3 163 333 127 
3 303 233 290 
3 105 344 304 
3 290 233 345 
3 239 279 129 
3 346 279 239 
3 150 202 48 
3 347 2 3 
3 5 132 3 
3 185 169 327 
3 173 147 69 
3 348 85 213 
3 66 54 138 
3 233 192 345 
3 172 160 76 
3 307 181 199 
3 145 239 129 
3 167 253 349 
3 152 176 133 
3 317 350 324 
3 38 181 307 
3 69 212 173 
3 139 244 161 
3 161 249 122 
3 121 251 166 
3 226 252 18 
3 115 274 351 
3 153 352 100 
3 198 237 334 
3 168 295 82 
3 18 252 319 
3 49 0 203 
3 218 353 300 
3 95 177 157 
3 177 95 330 
3 67 179 99 
3 141 110 292 
3 94 354 209 
3 107 65 355 
3 148 171 86 
3 323 35 356 
3 139 335 244 
3 347 3 132 
3 154 357 280 
3 86 171 257 
3 104 179 67 
3 344 105 137 
3 358 143 209 
3 223 176 152 
3 148 21 359 
3 292 182 141 
3 332 156 106 
3 244 247 161 
3 168 360 295 
3 210 361 6 
3 321 224 178 
3 225 151 178 
3 362 230 337 
3 127 340 142 
3 87 181 38 
3 116 106 156 
3 338 363 314 
3 217 221 101 
3 223 152 222 
3 101 221 155 
3 364 311 99 
3 115 190 365 
3 115 351 190 
3 366 232 367 
3 368 159 134 
3 159 368 153 
3 153 368 352 
3 164 135 234 
3 76 160 84 
3 161 184 249 
3 149 122 249 
3 168 82 146 
3 113 208 369 
3 370 155 221 
3 228 163 127 
3 131 242 246 
3 371 227 158 
3 122 149 90 
3 162 168 146 
3 372 49 203 
3 213 112 186 
3 92 196 123 
3 221 220 370 
3 366 231 232 
3 318 90 194 
3 247 184 161 
3 334 237 373 
3 120 240 200 
3 88 165 182 
3 131 246 121 
3 251 195 166 
3 167 374 293 
3 168 162 206 
3 357 154 168 
3 173 204 147 
3 313 375 210 
3 13 376 175 
3 355 377 107 
3 99 179 364 
3 180 84 160 
3 345 192 378 
3 199 181 239 
3 165 200 182 
3 183 166 195 
3 212 374 167 
3 167 349 173 
3 357 168 206 
3 209 354 379 
3 212 167 173 
3 170 116 156 
3 170 156 332 
3 358 209 174 
3 174 211 123 
3 218 170 353 
3 188 178 148 
3 359 188 148 
3 176 223 177 
3 380 189 190 
3 191 331 160 
3 236 344 192 
3 350 381 324 
3 239 238 199 
3 87 239 181 
3 132 382 347 
3 332 214 170 
3 218 116 170 
3 174 196 358 
3 123 196 174 
3 107 377 328 
3 171 148 178 
3 177 330 176 
3 383 163 228 
3 341 365 190 
3 341 190 189 
3 179 104 158 
3 126 384 235 
3 233 236 192 
3 172 193 191 
3 172 191 160 
3 385 342 34 
3 165 88 386 
3 194 90 149 
3 207 360 168 
3 205 372 203 
3 173 349 204 
3 207 168 154 
3 210 387 361 
3 214 353 170 
3 224 171 178 
3 223 157 177 
3 176 330 187 
3 188 225 178 
3 228 127 142 
3 227 229 158 
3 229 179 158 
3 179 229 364 
3 104 197 158 
3 351 380 190 
3 388 322 329 
3 137 192 344 
3 240 241 200 
3 241 182 200 
3 241 141 182 
3 243 201 200 
3 346 239 87 
3 246 251 121 
3 202 150 387 
3 382 132 389 
3 205 203 363 
3 132 208 389 
3 209 379 390 
3 208 132 343 
3 205 363 338 
3 202 210 375 
3 202 387 210 
3 209 390 174 
3 390 211 174 
3 208 343 369 
3 213 186 216 
3 216 186 377 
3 391 109 219 
3 215 391 217 
3 109 175 219 
3 217 391 220 
3 175 376 219 
3 217 220 221 
3 391 219 220 
3 377 355 216 
3 220 219 370 
3 213 216 348 
3 216 392 348 
3 219 376 370 
3 216 355 392 
3 336 66 226 
3 362 383 228 
3 226 66 138 
3 362 228 230 
3 371 364 227 
3 227 364 229 
3 228 142 230 
3 231 393 232 
3 384 322 235 
3 368 75 234 
3 368 234 352 
3 234 75 164 
3 322 388 235 
3 352 234 394 
3 331 180 160 
3 394 234 135 
3 192 137 378 
3 342 385 198 
3 237 198 385 
3 350 323 356 
3 356 395 350 
3 237 385 396 
3 237 396 373 
3 350 395 381 
3 110 141 241 
3 200 165 243 
3 165 386 243 
3 335 397 245 
3 242 315 246 
3 335 245 244 
3 397 194 245 
3 315 248 246 
3 244 245 247 
3 247 245 250 
3 248 315 183 
3 245 194 249 
3 245 249 250 
3 194 149 249 
3 183 195 248 
3 246 248 251 
3 250 249 184 
3 250 184 247 
3 251 248 195 
3 226 398 252 
3 319 252 398 
