ply
format ascii 1.0
comment INFO-3111 Flatenator generated
comment TextureFile Dungeons_Texture_01.png
element vertex 798
property float x
property float y
property float z
element face 934
property list uchar int vertex_indices
end_header
5.78483 0.044249 4.91965 
5.81171 -0.154003 4.48856 
6.13707 -0.215102 4.38559 
6.23167 -0.0448 4.25378 
6.0598 -0.072739 3.13166 
5.30022 -0.179701 2.77659 
5.16515 0.015235 2.907 
5.81715 -0.034167 4.86555 
6.10464 -0.165329 4.72603 
6.00951 -0.228314 3.76675 
5.70139 -0.223823 3.30655 
5.66096 -0.248354 2.53155 
6.14008 -0.261234 3.08012 
6.42039 -0.249367 3.95219 
5.93049 -0.283161 2.05643 
6.60886 -0.373621 2.4834 
5.49001 -0.252548 2.08639 
5.0408 -0.220052 2.15292 
7.70196 -0.158327 4.67089 
7.86874 -0.16643 3.9189 
7.84241 -0.339835 4.09302 
7.49537 -0.410287 3.13245 
7.83777 -0.349172 3.81893 
7.53685 -0.238127 2.9521 
6.92905 -0.218929 2.33817 
7.69592 -0.345943 4.47964 
4.7607 -0.03474 1.73293 
5.44235 -0.076632 1.84271 
5.67104 -0.091912 1.84436 
5.95786 -0.111802 1.82637 
7.41096 -0.088557 4.92194 
5.5755 0.033782 5.07324 
4.89575 0.039016 3.06912 
4.64842 -0.059022 1.89227 
6.2365 0.356813 3.14922 
6.70529 0.244425 2.55251 
7.59179 0.207759 3.20156 
7.79839 0.45972 4.74 
7.50739 0.529489 4.99104 
5.67193 0.651829 5.14234 
5.88126 0.662296 4.98877 
6.20108 0.452718 4.79513 
5.91357 0.58388 4.93466 
5.95153 0.462816 4.75313 
6.15623 0.545308 3.20077 
5.79782 0.394224 3.37566 
5.75738 0.369693 2.60066 
7.96517 0.451617 3.98801 
7.93883 0.278213 4.16213 
6.23349 0.402945 4.4547 
6.32809 0.573247 4.3229 
7.9342 0.268875 3.88804 
6.51683 0.368679 4.02131 
4.99218 0.657062 3.13824 
5.26158 0.633282 2.9761 
7.63327 0.379919 3.02121 
7.02547 0.399117 2.40729 
5.39665 0.438346 2.8457 
6.10593 0.389732 3.83587 
7.79234 0.272104 4.54875 
5.58644 0.365499 2.15549 
5.13722 0.397995 2.22202 
4.85712 0.583307 1.80203 
5.53878 0.541414 1.91182 
5.76747 0.526134 1.91348 
6.02692 0.334886 2.12553 
6.05428 0.506245 1.89548 
4.74484 0.559024 1.96139 
7.27437 0.545192 4.90968 
7.22912 0.527495 5.07767 
7.1327 -0.090552 5.00856 
7.17795 -0.072856 4.84056 
5.52074 0.645416 3.81788 
5.43356 0.647112 3.905 
5.33714 0.029066 3.83589 
5.42432 0.027369 3.74877 
5.27583 0.419551 2.55521 
5.0732 0.610005 2.42926 
4.81271 0.561228 2.20953 
4.71629 -0.056819 2.14041 
4.97678 -0.008042 2.36015 
5.1794 -0.198496 2.4861 
10 0 5 
10 3e-06 0 
5 1e-06 0 
9.75354 2e-06 4.75354 
5.24646 3e-06 0.246468 
9.75354 3e-06 0.246468 
9.29591 2e-06 4.58562 
5.78223 -0.149817 0.420364 
9.64431 -0.149817 0.631676 
8.95466 2e-06 3.95466 
6.04534 3e-06 1.04534 
9.04286 -0.149817 0.957146 
8.95466 3e-06 1.04534 
10 2e-06 3.38152 
9.68896 2e-06 3.26428 
9.59175 -0.149818 3.23 
9.07083 -0.149818 3.13007 
8.76634 2e-06 3.21028 
5.00724 1e-06 1.16229 
5.2711 3e-06 1.66296 
5.37372 -0.149817 1.41894 
5.82491 -0.149817 1.453 
5.9933 3e-06 1.64669 
8.95466 3e-06 1.89069 
9.09609 -0.149817 1.83144 
9.6031 -0.149817 1.61907 
9.75354 3e-06 1.55605 
10 3e-06 1.45282 
7.38637 3e-06 0 
7.39757 3e-06 0.246468 
7.67351 -0.149817 0.536407 
7.42856 -0.149817 0.928024 
7.43388 3e-06 1.04534 
7.80939 2e-06 3.95466 
8.20387 -0.149818 4.08855 
7.90701 -0.149818 4.54791 
7.86893 2e-06 4.70738 
8.3029 0 5 
9.34131 -0.149817 0.34774 
9.72427 -0.045095 0.275726 
5.87227 -0.149817 1.28579 
6.22629 -0.149817 0.954247 
5.82896 -0.149817 1.02707 
7.26701 -0.149817 1.97202 
7.76568 -0.149817 2.86002 
6.22975 3e-06 1.67973 
7.81186 -0.149818 3.86519 
7.43636 -0.149817 1.13481 
6.26045 -0.149817 1.26205 
8.86359 -0.149817 1.92816 
8.73634 -0.149817 1.26205 
8.40002 -0.149818 3.33521 
8.58812 -0.149818 3.76403 
8.7754 -0.149818 4.06538 
8.96243 -0.149818 4.50325 
9.26448 2e-06 4.74337 
9.73612 2e-06 4.35202 
9.64421 -0.149818 4.14744 
9.03088 -0.149818 3.8258 
9.62323 2e-06 4.33133 
5.40472 -0.149817 0.816864 
8.95972 -0.149818 3.41449 
8.98312 -0.149817 2.58049 
6.16424 -0.149817 1.52901 
8.66327 -0.149817 2.80627 
7.84306 -0.149817 2.58736 
7.20487 3e-06 2.124 
8.61188 3e-06 3.05962 
7.81878 3e-06 2.72358 
5.80747 3e-06 1.60735 
6.69375 -0.149817 0.40139 
8.60848 -0.149817 0.3582 
5 1e-06 10 
0 1e-06 10 
0 0 5 
4.75354 4e-06 9.75354 
0.24646 1e-06 9.75354 
0.24646 2e-06 5.24647 
4.55448 -0.149815 9.24406 
0.35157 -0.149819 9.40474 
0.343666 -0.149818 5.34367 
4.47234 -0.149815 5.97156 
4.04286 -0.149815 9.04285 
0.957138 -0.149818 9.04285 
1.02135 -0.030689 6.02135 
4.04286 -0.149815 5.95715 
3.95467 5e-06 8.95466 
1.04534 2e-06 8.95466 
1.04534 2e-06 6.04534 
3.95467 5e-06 6.04534 
5 2e-06 8.38152 
4.68896 5e-06 8.26427 
4.59175 -0.149815 8.23 
3.90502 -0.149815 8.09827 
3.81683 5e-06 8.06717 
1.09372 2e-06 8.01477 
1.04852 -0.040321 8.02445 
0.389168 -0.149818 8.20798 
0.24646 2e-06 8.29461 
0 2e-06 8.38152 
0 2e-06 6.45282 
0.24646 2e-06 6.55605 
0.343666 -0.149818 6.78918 
0.814377 -0.149818 6.9494 
0.993301 2e-06 6.9047 
3.95467 5e-06 6.89069 
4.09609 -0.149815 6.83144 
4.6031 -0.149815 6.61907 
4.75354 5e-06 6.55605 
5 2e-06 7.06187 
2.38637 0 5 
2.88252 2e-06 5.24647 
2.91883 2e-06 6.04534 
2.43389 2e-06 8.95466 
2.39415 -0.149818 9.08855 
2.57116 -0.149819 9.54791 
2.53307 1e-06 9.70738 
2.38637 1e-06 10 
0.286324 -0.061438 9.71368 
0.550148 -0.149819 9.64628 
0.957138 -0.149818 8.51907 
0.783585 -0.149818 8.09412 
0.880707 -0.149818 7.45798 
3.30504 -0.149815 5.57999 
0.927444 -0.149818 6.16353 
1.1037 -0.149818 5.95425 
0.836327 -0.149818 5.83633 
2.57706 -0.149818 6.92816 
2.43636 -0.149818 7.98138 
1.17862 -0.149818 7.98311 
1.32677 -0.149818 6.93896 
2.43636 -0.149818 8.82088 
1.26045 -0.149818 8.73795 
2.86507 -0.149818 6.13481 
1.26045 -0.149818 6.26205 
3.86359 -0.149815 6.92816 
3.73634 -0.149815 6.26205 
3.73424 -0.149815 8.03228 
3.73634 -0.149815 8.73795 
2.64764 2e-06 8.77646 
3.71012 5e-06 8.14171 
3.15831 -0.149816 8.79232 
3.73505 -0.149815 8.30347 
1.13332 -0.149818 7.48233 
2.74302 -0.149818 5.89418 
2.72155 -0.149818 5.40759 
3.02318 -0.149818 5.50452 
3.04371 -0.149818 5.89899 
0.852898 -0.149818 6.55116 
0.343666 -0.149818 6.33767 
4.2522 -0.149816 9.53421 
10 -2e-06 10 
9.75354 -2e-06 9.75354 
5.24646 -2e-06 9.75354 
9.75354 -1e-06 5.24647 
9.65633 -0.149821 9.65633 
5.35157 -0.149821 9.40474 
9.64431 -0.14982 5.63168 
9.04286 -0.14982 9.04285 
5.95715 -0.14982 9.04285 
6.50648 -0.030692 6.33748 
9.04286 -0.14982 5.95715 
8.95466 -1e-06 8.95466 
6.04534 -1e-06 8.95466 
6.53048 -1e-06 6.36147 
8.95466 -1e-06 6.04534 
10 -1e-06 8.38152 
9.68896 -1e-06 8.26427 
9.59175 -0.14982 8.23 
8.90502 -0.14982 8.09827 
8.81683 -1e-06 8.06717 
6.09372 -1e-06 8.01477 
6.04852 -0.040324 8.02445 
5.38917 -0.14982 8.20798 
5.24646 -1e-06 8.29461 
5.24646 -1e-06 6.7305 
5.34367 -0.14982 6.77122 
5.81438 -0.14982 6.9494 
5.9933 -1e-06 6.9047 
8.95466 -1e-06 6.89069 
9.09609 -0.14982 6.83144 
9.6031 -0.14982 6.61907 
9.75354 -1e-06 6.55605 
10 -1e-06 6.45282 
7.73344 -1e-06 5.24647 
7.73918 -0.14982 5.37279 
7.42855 -0.14982 5.92802 
7.43388 -1e-06 6.04534 
7.43388 -1e-06 8.95466 
7.39414 -0.14982 9.08855 
7.57115 -0.149821 9.54791 
7.53307 -2e-06 9.70738 
7.38637 -2e-06 10 
5.28632 -0.06144 9.71368 
5.55015 -0.149821 9.64628 
5.95715 -0.14982 8.51907 
5.78359 -0.14982 8.09412 
5.88071 -0.14982 7.45798 
9.34131 -0.14982 5.34774 
9.72427 -0.045099 5.27573 
6.17164 -0.14982 6.60066 
6.58884 -0.14982 6.27038 
7.43636 -0.14982 6.92816 
7.43636 -0.14982 7.98138 
6.17861 -0.14982 7.98311 
6.08437 -0.14982 6.94132 
7.43636 -0.14982 8.86519 
6.26045 -0.14982 8.73795 
7.43636 -0.14982 6.13481 
6.74559 -0.011919 6.57819 
8.86359 -0.14982 6.92816 
8.73634 -0.14982 6.26205 
8.73423 -0.14982 8.03228 
8.73634 -0.14982 8.73795 
0 0 0 
0.24646 -1e-06 4.75354 
0.24646 0 0.246468 
4.75354 0 0.246468 
0.35157 -0.14982 4.40474 
0.343666 -0.149819 0.343674 
4.64431 -0.149819 0.631676 
0.957146 -0.14982 4.04285 
1.02135 -0.030691 1.02135 
4.04286 -0.149819 0.957146 
1.04534 -1e-06 3.95466 
1.04534 0 1.04534 
3.95466 0 1.04534 
1.09372 0 3.01477 
1.04852 -0.040323 3.02445 
0.389168 -0.14982 3.20798 
0.24646 -1e-06 3.29461 
0 -1e-06 3.38152 
0 0 1.45282 
0.24646 0 1.55605 
0.343666 -0.149819 1.59677 
0.814377 -0.149819 1.9494 
0.993301 0 1.9047 
3.96305 0 2.00159 
4.21 -0.149819 2.29066 
4.6031 -0.149819 1.88306 
4.75354 0 1.82004 
2.38637 0 0 
2.39757 0 0.246468 
2.40332 -0.149819 0.372787 
2.42855 -0.149819 0.928024 
2.43388 0 1.04534 
2.43388 -1e-06 3.95466 
2.39414 -0.14982 4.08855 
2.57115 -0.14982 4.54791 
2.53307 -1e-06 4.70738 
0.286324 -0.061439 4.71368 
0.550148 -0.14982 4.64628 
0.957146 -0.14982 3.51907 
0.783585 -0.14982 3.09412 
0.880707 -0.149819 2.45798 
4.34131 -0.149819 0.34774 
4.72427 -0.045098 0.275726 
0.927444 -0.149819 1.16353 
1.1037 -0.149819 0.954247 
0.836327 -0.149819 0.836327 
2.43636 -0.149819 1.92816 
2.43636 0.112996 2.98138 
1.17861 -0.149819 2.98311 
1.08437 -0.149819 1.94132 
2.43636 -0.14982 3.86519 
1.26045 -0.14982 3.73795 
2.43636 -0.149819 1.13481 
1.26045 -0.149819 1.26205 
3.97749 -0.149819 2.38738 
3.73634 -0.149819 1.26205 
3.73423 0.112996 3.03228 
3.38964 -0.14982 3.47446 
3.41675 -1e-06 3.95466 
3.42999 -0.14982 4.05122 
3.39532 -0.14982 4.60916 
3.40655 -1e-06 4.73289 
3.51475 0 5 
3.5881 3e-06 5.25533 
4.75354 5e-06 6.11988 
5 2e-06 6.92262 
5.24646 -1e-06 6.61023 
5.34367 -0.14982 6.64092 
7.44424 0.092375 4.5998 
7.29388 0.092734 5.15642 
7.80109 0.092015 3.96683 
7.46144 0.092376 2.83424 
4.90032 0.092915 1.66183 
7.11029 0.093454 2.19199 
5.96133 0.093454 1.64754 
4.9875 0.09259 5.8588 
3.96314 0.09259 4.94565 
7.32541 0.091296 5.8504 
5.96836 0.091867 5.96422 
3.87943 0.092016 2.40033 
3.77251 0.091297 3.06551 
3.77326 0.092015 3.91406 
5.5211 0.092446 3.98639 
3.81164 -0.149819 2.82707 
2.42235 -0.149819 2.81099 
1.5576 -0.149819 1.93671 
3.65816 -0.14982 3.20609 
2.54946 -0.14982 3.12141 
2.11181 -0.149819 2.87517 
1.35244 -0.149819 1.9387 
1.44099 0.112996 1.93784 
3.1966 -0.149819 2.92873 
3.22567 0.112996 2.76697 
3.20539 -0.149819 2.57713 
2.08177 -0.149819 2.28128 
2.02507 0.112996 2.33012 
1.93576 -0.149819 2.38908 
7.36925 3e-06 2.28454 
7.48534 -0.149817 2.20523 
8.29465 -0.149817 2.08443 
7.28429 3e-06 2.20155 
7.38598 0.002692 2.0991 
8.01288 0.002692 2.04237 
7.43551 -0.098343 1.10407 
7.48804 -0.149817 1.13987 
8.018 -0.149817 1.87775 
6.64726 -1e-06 6.3206 
6.89793 -0.14982 6.4804 
7.30168 -0.14982 6.92947 
7.43636 -0.14982 7.19753 
8.76733 -0.14982 7.74974 
7.43636 -0.14982 7.54869 
6.97124 -0.14982 6.93269 
6.61949 -0.14982 6.64744 
6.41611 -1e-06 6.47713 
7.11665 -0.011919 6.93127 
7.43636 -0.011919 7.35956 
8.20967 -0.14982 7.22575 
8.20487 -0.011919 7.31547 
8.19917 -0.14982 7.42168 
5.51007 -0.119144 5.60794 
5.63115 -0.259573 5.66378 
6.10887 -0.202561 5.96088 
7.31613 0.071604 4.82806 
7.41235 0.072533 5.06127 
7.46379 -0.076603 5.16122 
7.64317 -0.10209 5.69157 
7.0051 -0.194418 5.92139 
6.24866 -0.076705 6.07145 
6.14112 -0.216323 6.20663 
5.46208 -0.1134 6.35947 
5.5629 -0.255281 6.3502 
5.22665 -0.13309 6.23944 
5.22627 -0.13281 5.41504 
7.29975 0.348961 4.86717 
5.21958 0.143309 5.45447 
7.3942 0.348584 5.10062 
5.50452 0.131786 5.65223 
7.45673 0.207633 5.1991 
5.62601 -0.011079 5.70855 
6.99804 0.089817 5.95925 
7.6361 0.182146 5.72943 
6.10335 0.058631 6.00319 
6.23748 0.189917 6.11266 
6.13838 0.060377 6.24599 
5.22032 0.134807 6.28046 
5.45612 0.146429 6.40204 
5.55642 0.016201 6.39053 
6.56972 -0.186863 5.90962 
6.70267 -0.13791 5.43841 
6.61034 -0.000203 5.36254 
6.83115 0.061442 5.11554 
6.81877 0.341755 5.15411 
6.45504 0.275402 5.28394 
6.54636 0.137551 5.3595 
6.56352 0.083537 5.95016 
6.13062 -0.207637 6.12374 
5.72942 -0.268421 5.959 
5.61643 -0.131704 5.95132 
5.39473 -0.154508 5.81624 
5.38899 0.100544 5.85975 
5.61137 0.114386 5.99656 
5.72418 -0.017909 6.00338 
6.12063 0.058411 6.16508 
6.01947 0.242987 5.37715 
6.02436 -0.035528 5.33892 
4.99934 0.283205 5.97075 
3.33199 0.411235 5.89266 
5.09725 0.042192 5.16548 
3.80595 0.094202 4.9415 
4.90308 -0.043486 4.80751 
4.25691 0.507597 6.51652 
4.23127 0.223704 6.59838 
3.30636 0.127342 5.97452 
3.78032 -0.189692 5.02335 
4.87745 -0.327379 4.88937 
4.97371 -0.000688 6.0526 
5.07163 -0.241701 5.24733 
4.59936 -0.245098 3.77664 
3.00198 0.764361 3.31424 
4.96608 -0.258261 2.8643 
3.78407 0.532838 2.31649 
4.89763 -0.120839 2.40572 
3.69243 0.171337 4.24423 
3.61917 -0.045597 3.8581 
2.83424 0.470008 3.25107 
3.61634 0.238485 2.25332 
4.5787 -0.378974 2.36879 
4.175 -0.423723 3.54214 
4.63537 -0.492738 2.74843 
7.59179 0.207759 3.20156 
7.93883 0.278213 4.16213 
6.23349 0.402945 4.4547 
6.20108 0.452718 4.79513 
7.79234 0.272104 4.54875 
5.39665 0.438346 2.8457 
5.95153 0.462816 4.75313 
5.79782 0.394224 3.37566 
6.10593 0.389732 3.83587 
5.53878 0.541414 1.91182 
5.58644 0.365499 2.15549 
6.2365 0.356813 3.14922 
7.9342 0.268875 3.88804 
6.51683 0.368679 4.02131 
6.70529 0.244425 2.55251 
6.02692 0.334886 2.12553 
6.02692 0.334886 2.12553 
6.05428 0.506245 1.89548 
5.75738 0.369693 2.60066 
5.13722 0.397995 2.22202 
5.58644 0.365499 2.15549 
5.27583 0.419551 2.55521 
7.49537 -0.410287 3.13245 
7.84241 -0.339835 4.09302 
6.13707 -0.215102 4.38559 
6.10464 -0.165329 4.72603 
7.69592 -0.345943 4.47964 
5.30022 -0.179701 2.77659 
5.70139 -0.223823 3.30655 
5.81171 -0.154003 4.48856 
6.00951 -0.228314 3.76675 
5.49001 -0.252548 2.08639 
5.44235 -0.076632 1.84271 
6.14008 -0.261234 3.08012 
6.42039 -0.249367 3.95219 
7.83777 -0.349172 3.81893 
6.60886 -0.373621 2.4834 
5.93049 -0.283161 2.05643 
5.95786 -0.111802 1.82637 
5.93049 -0.283161 2.05643 
5.66096 -0.248354 2.53155 
5.0408 -0.220052 2.15292 
5.49001 -0.252548 2.08639 
5.1794 -0.198496 2.4861 
4.7607 -0.03474 1.73293 
4.85712 0.583307 1.80203 
5.13722 0.397995 2.22202 
5.0408 -0.220052 2.15292 
6.69375 -0.149817 0.40139 
5.78223 -0.149817 0.420364 
9.6031 -0.149817 1.61907 
9.59175 -0.149818 3.23 
6.22629 -0.149817 0.954247 
7.42856 -0.149817 0.928024 
9.09609 -0.149817 1.83144 
8.98312 -0.149817 2.58049 
9.64421 -0.149818 4.14744 
8.95972 -0.149818 3.41449 
9.03088 -0.149818 3.8258 
5.40472 -0.149817 0.816864 
8.7754 -0.149818 4.06538 
8.20387 -0.149818 4.08855 
8.96243 -0.149818 4.50325 
7.90701 -0.149818 4.54791 
9.64431 -0.149817 0.631676 
9.04286 -0.149817 0.957146 
9.34131 -0.149817 0.34774 
5.82896 -0.149817 1.02707 
8.60848 -0.149817 0.3582 
8.73634 -0.149817 1.26205 
8.86359 -0.149817 1.92816 
8.40002 -0.149818 3.33521 
8.58812 -0.149818 3.76403 
7.81186 -0.149818 3.86519 
8.96243 -0.149818 4.50325 
8.95466 2e-06 3.95466 
8.7754 -0.149818 4.06538 
9.29591 2e-06 4.58562 
9.62323 2e-06 4.33133 
9.03088 -0.149818 3.8258 
9.64421 -0.149818 4.14744 
5.37372 -0.149817 1.41894 
5.87227 -0.149817 1.28579 
5.82491 -0.149817 1.453 
9.07083 -0.149818 3.13007 
7.43636 -0.149817 1.13481 
6.26045 -0.149817 1.26205 
6.16424 -0.149817 1.52901 
6.22975 3e-06 1.67973 
7.26701 -0.149817 1.97202 
6.16424 -0.149817 1.52901 
7.84306 -0.149817 2.58736 
7.48534 -0.149817 2.20523 
8.66327 -0.149817 2.80627 
8.61188 3e-06 3.05962 
8.66327 -0.149817 2.80627 
7.76568 -0.149817 2.86002 
8.40002 -0.149818 3.33521 
5.2711 3e-06 1.66296 
5.37372 -0.149817 1.41894 
5.82491 -0.149817 1.453 
5.80747 3e-06 1.60735 
7.67351 -0.149817 0.536407 
2.88252 2e-06 5.24647 
4.6031 -0.149815 6.61907 
4.59175 -0.149815 8.23 
4.09609 -0.149815 6.83144 
3.90502 -0.149815 8.09827 
0.343666 -0.149818 5.34367 
0.343666 -0.149818 6.33767 
0.852898 -0.149818 6.55116 
0.927444 -0.149818 6.16353 
4.04286 -0.149815 9.04285 
2.39415 -0.149818 9.08855 
4.2522 -0.149816 9.53421 
0.957138 -0.149818 9.04285 
0.550148 -0.149819 9.64628 
2.57116 -0.149819 9.54791 
0.35157 -0.149819 9.40474 
0.389168 -0.149818 8.20798 
0.957138 -0.149818 8.51907 
0.783585 -0.149818 8.09412 
0.343666 -0.149818 6.78918 
0.880707 -0.149818 7.45798 
0.814377 -0.149818 6.9494 
4.04286 -0.149815 5.95715 
4.47234 -0.149815 5.97156 
0.836327 -0.149818 5.83633 
1.26045 -0.149818 8.73795 
2.43636 -0.149818 8.82088 
1.17862 -0.149818 7.98311 
2.91883 2e-06 6.04534 
2.86507 -0.149818 6.13481 
3.73634 -0.149815 6.26205 
3.86359 -0.149815 6.92816 
3.73424 -0.149815 8.03228 
3.15831 -0.149816 8.79232 
3.73634 -0.149815 8.73795 
3.73505 -0.149815 8.30347 
3.71012 5e-06 8.14171 
2.64764 2e-06 8.77646 
3.73424 -0.149815 8.03228 
2.43636 -0.149818 8.82088 
3.73505 -0.149815 8.30347 
3.15831 -0.149816 8.79232 
1.26045 -0.149818 6.26205 
1.32677 -0.149818 6.93896 
1.13332 -0.149818 7.48233 
2.74302 -0.149818 5.89418 
2.72155 -0.149818 5.40759 
1.1037 -0.149818 5.95425 
2.74302 -0.149818 5.89418 
2.72155 -0.149818 5.40759 
3.02318 -0.149818 5.50452 
3.04371 -0.149818 5.89899 
3.04371 -0.149818 5.89899 
0.814377 -0.149818 6.9494 
0.343666 -0.149818 6.78918 
0.993301 2e-06 6.9047 
0.24646 2e-06 6.55605 
0.852898 -0.149818 6.55116 
0.343666 -0.149818 6.33767 
4.55448 -0.149815 9.24406 
9.6031 -0.14982 6.61907 
9.59175 -0.14982 8.23 
9.09609 -0.14982 6.83144 
8.90502 -0.14982 8.09827 
9.65633 -0.149821 9.65633 
9.04286 -0.14982 9.04285 
5.34367 -0.14982 6.77122 
5.34367 -0.14982 6.64092 
6.17164 -0.14982 6.60066 
7.39414 -0.14982 9.08855 
7.57115 -0.149821 9.54791 
5.95715 -0.14982 9.04285 
5.55015 -0.149821 9.64628 
5.35157 -0.149821 9.40474 
5.38917 -0.14982 8.20798 
5.95715 -0.14982 8.51907 
5.78359 -0.14982 8.09412 
5.88071 -0.14982 7.45798 
5.81438 -0.14982 6.9494 
9.64431 -0.14982 5.63168 
9.04286 -0.14982 5.95715 
9.34131 -0.14982 5.34774 
7.42855 -0.14982 5.92802 
7.73918 -0.14982 5.37279 
6.17861 -0.14982 7.98311 
6.26045 -0.14982 8.73795 
7.43636 -0.14982 8.86519 
6.61949 -0.14982 6.64744 
6.74559 -0.011919 6.57819 
8.73634 -0.14982 6.26205 
7.43636 -0.14982 6.13481 
8.86359 -0.14982 6.92816 
8.73423 -0.14982 8.03228 
8.73634 -0.14982 8.73795 
0.343666 -0.149819 0.343674 
2.40332 -0.149819 0.372787 
2.42855 -0.149819 0.928024 
1.1037 -0.149819 0.954247 
0.343666 -0.149819 1.59677 
0.814377 -0.149819 1.9494 
0.927444 -0.149819 1.16353 
3.42999 -0.14982 4.05122 
2.39414 -0.14982 4.08855 
3.39532 -0.14982 4.60916 
2.57115 -0.14982 4.54791 
0.957146 -0.14982 4.04285 
0.550148 -0.14982 4.64628 
0.35157 -0.14982 4.40474 
0.389168 -0.14982 3.20798 
0.957146 -0.14982 3.51907 
0.783585 -0.14982 3.09412 
0.880707 -0.149819 2.45798 
4.64431 -0.149819 0.631676 
4.04286 -0.149819 0.957146 
4.21 -0.149819 2.29066 
4.34131 -0.149819 0.34774 
4.6031 -0.149819 1.88306 
0.836327 -0.149819 0.836327 
1.26045 -0.149819 1.26205 
2.43636 -0.149819 1.13481 
3.73634 -0.149819 1.26205 
3.97749 -0.149819 2.38738 
3.02318 -0.149818 5.50452 
3.30504 -0.149815 5.57999 
8.3029 0 5 
7.86893 2e-06 4.70738 
7.80939 2e-06 3.95466 
8.20387 -0.149818 4.08855 
7.76568 -0.149817 2.86002 
7.81186 -0.149818 3.86519 
5.00724 1e-06 1.16229 
5.2711 3e-06 1.66296 
7.81878 3e-06 2.72358 
7.36925 3e-06 2.28454 
7.90701 -0.149818 4.54791 
5.80747 3e-06 1.60735 
5.9933 3e-06 1.64669 
6.22975 3e-06 1.67973 
7.20487 3e-06 2.124 
3.30504 -0.149815 5.57999 
4.47234 -0.149815 5.97156 
7.73344 -1e-06 5.24647 
7.73918 -0.14982 5.37279 
7.42855 -0.14982 5.92802 
6.58884 -0.14982 6.27038 
6.50648 -0.030692 6.33748 
6.17164 -0.14982 6.60066 
4.75354 0 1.82004 
4.6031 -0.149819 1.88306 
4.21 -0.149819 2.29066 
3.96305 0 2.00159 
3.81164 -0.149819 2.82707 
3.97749 -0.149819 2.38738 
3.65816 -0.14982 3.20609 
3.38964 -0.14982 3.47446 
3.41675 -1e-06 3.95466 
3.42999 -0.14982 4.05122 
3.39532 -0.14982 4.60916 
3.40655 -1e-06 4.73289 
3.51475 0 5 
3.5881 3e-06 5.25533 
4.75354 5e-06 6.11988 
5 2e-06 6.92262 
5.24646 -1e-06 6.61023 
5.34367 -0.14982 6.64092 
2.43636 -0.14982 3.86519 
3.38964 -0.14982 3.47446 
1.17861 -0.149819 2.98311 
1.26045 -0.14982 3.73795 
1.08437 -0.149819 1.94132 
3.73423 0.112996 3.03228 
7.28429 3e-06 2.20155 
7.38598 0.002692 2.0991 
7.48804 -0.149817 1.13987 
6.89793 -0.14982 6.4804 
6.08437 -0.14982 6.94132 
8.76733 -0.14982 7.74974 
7.45673 0.207633 5.1991 
6.99804 0.089817 5.95925 
6.12063 0.058411 6.16508 
6.10335 0.058631 6.00319 
5.72418 -0.017909 6.00338 
5.62601 -0.011079 5.70855 
6.56352 0.083537 5.95016 
6.54636 0.137551 5.3595 
7.46379 -0.076603 5.16122 
7.0051 -0.194418 5.92139 
6.13062 -0.207637 6.12374 
5.72942 -0.268421 5.959 
6.10887 -0.202561 5.96088 
5.63115 -0.259573 5.66378 
6.70267 -0.13791 5.43841 
6.56972 -0.186863 5.90962 
6.13838 0.060377 6.24599 
5.55642 0.016201 6.39053 
6.14112 -0.216323 6.20663 
5.5629 -0.255281 6.3502 
4.23127 0.223704 6.59838 
3.30636 0.127342 5.97452 
3.78032 -0.189692 5.02335 
4.87745 -0.327379 4.88937 
4.97371 -0.000688 6.0526 
5.07163 -0.241701 5.24733 
3.61917 -0.045597 3.8581 
2.83424 0.470008 3.25107 
3.61634 0.238485 2.25332 
4.5787 -0.378974 2.36879 
4.175 -0.423723 3.54214 
4.63537 -0.492738 2.74843 
3 34 36 35
3 37 68 38
3 38 68 69
3 41 43 42
3 44 46 45
3 47 50 48
3 48 50 49
3 34 52 36
3 36 52 51
3 39 40 73
3 73 40 72
3 55 56 486
3 40 42 72
3 42 43 72
3 43 57 72
3 57 54 72
3 58 44 45
3 487 488 59
3 59 488 489
3 40 68 42
3 42 68 41
3 490 41 37
3 41 68 37
3 491 492 493
3 493 492 494
3 488 494 492
3 60 63 61
3 61 63 62
3 64 495 496
3 49 50 58
3 58 50 44
3 489 488 492
3 497 65 44
3 44 65 64
3 498 499 47
3 47 499 50
3 50 499 44
3 44 499 497
3 65 66 64
3 500 486 56
3 501 34 35
3 502 500 503
3 503 500 56
3 44 64 46
3 46 64 496
3 493 504 491
3 505 76 506
3 506 76 504
3 504 76 491
3 57 507 54
3 54 507 77
3 54 77 53
3 53 77 78
3 12 15 21
3 18 30 71
3 71 30 70
3 8 7 1
3 4 10 11
3 19 20 3
3 3 20 2
3 22 13 21
3 21 13 12
3 31 74 0
3 0 74 75
3 23 508 24
3 0 75 7
3 7 75 1
3 1 75 5
3 75 6 5
3 9 10 4
3 509 25 510
3 510 25 511
3 0 7 71
3 7 8 71
3 512 18 8
3 18 71 8
3 513 514 515
3 514 516 515
3 510 515 516
3 16 17 27
3 27 17 26
3 28 517 518
3 2 9 3
3 3 9 4
3 511 515 510
3 28 14 4
3 4 14 519
3 3 520 19
3 19 520 521
3 3 4 520
3 520 4 519
3 14 28 29
3 522 24 508
3 523 15 12
3 24 522 524
3 524 522 525
3 4 11 28
3 28 11 517
3 514 513 526
3 527 528 81
3 528 526 81
3 526 513 81
3 5 6 529
3 529 6 80
3 6 32 80
3 80 32 79
3 18 37 30
3 30 37 38
3 38 69 30
3 30 69 70
3 47 48 19
3 19 48 20
3 21 36 22
3 22 36 51
3 39 73 31
3 31 73 74
3 55 486 23
3 23 486 508
3 24 56 23
3 23 56 55
3 509 487 25
3 25 487 59
3 512 490 18
3 18 490 37
3 26 62 27
3 27 62 63
3 518 495 28
3 28 495 64
3 521 498 19
3 19 498 47
3 28 64 29
3 29 64 66
3 524 503 24
3 24 503 56
3 53 78 32
3 32 78 79
3 33 67 530
3 530 67 531
3 68 40 69
3 69 40 39
3 69 39 70
3 70 39 31
3 71 70 0
3 0 70 31
3 73 72 53
3 53 72 54
3 73 53 74
3 74 53 32
3 74 32 75
3 75 32 6
3 507 532 77
3 77 532 531
3 77 531 78
3 78 531 67
3 78 67 79
3 79 67 33
3 80 79 530
3 530 79 33
3 529 80 533
3 533 80 530
3 84 110 86
3 86 110 111
3 108 109 96
3 96 109 95
3 111 152 86
3 86 152 89
3 108 96 107
3 107 96 97
3 112 113 534
3 113 123 534
3 534 123 535
3 535 123 124
3 536 537 106
3 106 537 144
3 537 98 144
3 92 538 114
3 114 538 539
3 540 541 105
3 105 541 99
3 96 95 138
3 138 95 82
3 97 96 139
3 139 96 138
3 542 140 537
3 140 143 537
3 143 98 537
3 99 543 91
3 91 543 544
3 101 100 86
3 86 100 84
3 102 101 142
3 142 101 86
3 124 545 535
3 103 122 104
3 104 122 92
3 93 540 94
3 94 540 105
3 83 109 87
3 87 109 108
3 111 110 87
3 87 110 83
3 120 121 90
3 114 539 94
3 94 539 93
3 131 395 132
3 134 128 133
3 133 128 126
3 135 116 91
3 91 116 115
3 546 136 547
3 547 136 117
3 137 118 548
3 548 118 549
3 82 119 137
3 137 119 118
3 550 536 551
3 551 536 106
3 551 552 550
3 111 87 153
3 87 121 153
3 153 121 120
3 87 108 121
3 121 108 90
3 108 107 90
3 553 538 92
3 122 553 92
3 113 112 551
3 112 554 551
3 554 552 551
3 104 145 127
3 92 114 130
3 114 399 130
3 399 129 130
3 399 400 129
3 94 105 555
3 555 105 556
3 149 99 557
3 91 115 558
3 558 115 559
3 91 558 99
3 99 558 557
3 88 560 561
3 561 560 562
3 563 137 548
3 82 137 85
3 138 82 85
3 141 85 563
3 561 564 88
3 565 566 561
3 561 566 564
3 139 138 141
3 141 138 85
3 85 137 563
3 142 86 89
3 545 124 567
3 124 568 567
3 569 567 568
3 99 570 543
3 99 541 570
3 92 130 104
3 104 130 145
3 571 125 572
3 572 125 573
3 131 147 395
3 395 147 394
3 99 146 105
3 105 146 556
3 148 574 575
3 575 574 576
3 150 393 577
3 577 393 578
3 146 99 149
3 579 147 131
3 580 150 581
3 581 150 577
3 582 150 583
3 583 150 580
3 584 585 151
3 151 585 586
3 104 587 103
3 152 111 588
3 588 111 153
3 198 199 158
3 158 199 155
3 180 181 183
3 183 181 182
3 156 192 159
3 159 192 193
3 190 191 173
3 173 191 172
3 201 200 161
3 179 180 184
3 184 180 183
3 190 173 189
3 189 173 174
3 178 203 204
3 227 589 226
3 226 589 194
3 590 591 188
3 188 591 175
3 195 196 169
3 169 196 165
3 592 593 187
3 187 593 176
3 173 172 157
3 157 172 154
3 174 173 160
3 160 173 157
3 176 593 168
3 168 593 164
3 213 214 210
3 210 214 211
3 155 181 158
3 158 181 180
3 183 182 159
3 159 182 156
3 183 159 231
3 231 159 162
3 594 208 595
3 208 206 595
3 230 595 206
3 186 596 170
3 170 596 166
3 596 597 166
3 167 592 171
3 171 592 187
3 360 361 190
3 190 361 191
3 209 215 217
3 217 215 218
3 210 209 219
3 219 209 217
3 220 223 224
3 164 196 168
3 168 196 195
3 232 197 598
3 598 197 599
3 157 600 160
3 154 199 157
3 157 199 198
3 158 180 200
3 200 180 161
3 180 179 161
3 202 203 178
3 599 197 601
3 601 197 602
3 158 200 198
3 200 201 198
3 603 198 201
3 604 605 601
3 601 605 606
3 605 607 606
3 608 185 605
3 185 609 605
3 609 607 605
3 186 177 610
3 610 177 204
3 177 178 204
3 165 202 169
3 177 169 178
3 202 178 169
3 163 590 611
3 611 590 188
3 611 205 163
3 612 360 189
3 189 360 190
3 613 207 166
3 597 613 166
3 589 228 194
3 194 228 229
3 602 604 601
3 225 186 212
3 169 614 195
3 195 614 615
3 169 177 614
3 614 177 616
3 186 216 212
3 170 617 216
3 216 617 618
3 171 619 617
3 617 619 618
3 171 187 619
3 619 187 620
3 187 176 620
3 620 176 621
3 195 622 168
3 168 622 623
3 168 623 176
3 176 623 624
3 221 195 615
3 219 213 210
3 176 222 621
3 625 626 627
3 627 626 628
3 622 195 221
3 629 630 625
3 625 630 626
3 176 624 222
3 215 209 631
3 631 209 632
3 209 210 632
3 632 210 633
3 210 211 633
3 186 225 177
3 177 225 616
3 186 170 216
3 617 170 634
3 170 166 634
3 166 207 634
3 594 635 208
3 208 635 636
3 635 637 636
3 193 638 159
3 159 638 162
3 639 205 640
3 640 205 611
3 617 641 171
3 171 641 167
3 642 643 644
3 644 643 645
3 644 645 646
3 646 645 647
3 175 591 598
3 598 591 648
3 598 648 232
3 157 198 600
3 600 198 603
3 411 412 408
3 408 412 407
3 273 274 235
3 235 274 154
3 172 191 256
3 256 191 257
3 264 265 249
3 249 265 248
3 276 275 238
3 256 257 255
3 255 257 258
3 264 249 263
3 263 249 250
3 254 278 279
3 649 650 262
3 262 650 251
3 270 271 245
3 245 271 241
3 402 283 269
3 269 283 268
3 651 652 261
3 261 652 252
3 249 248 234
3 234 248 233
3 250 249 237
3 237 249 234
3 251 650 240
3 240 650 653
3 252 652 244
3 244 652 654
3 288 289 285
3 285 289 286
3 154 172 235
3 235 172 256
3 191 361 257
3 257 361 362
3 258 257 363
3 363 257 362
3 655 656 259
3 259 656 282
3 657 242 410
3 410 242 246
3 411 408 291
3 291 408 409
3 243 651 247
3 247 651 261
3 82 265 236
3 236 265 264
3 266 119 236
3 236 119 82
3 280 281 239
3 269 268 247
3 247 268 243
3 292 284 293
3 293 284 290
3 414 415 412
3 412 415 407
3 288 285 295
3 295 285 294
3 654 271 244
3 244 271 270
3 653 272 240
3 240 272 658
3 234 273 237
3 237 273 659
3 233 274 234
3 234 274 273
3 235 256 275
3 275 256 238
3 256 255 238
3 277 278 254
3 658 272 660
3 660 272 661
3 235 275 273
3 275 276 273
3 659 273 276
3 662 663 660
3 660 663 664
3 663 665 664
3 655 259 663
3 259 666 663
3 666 665 663
3 260 253 667
3 667 253 279
3 253 254 279
3 241 277 245
3 253 245 254
3 277 254 245
3 668 649 669
3 669 649 262
3 669 670 668
3 236 281 266
3 281 280 266
3 267 266 280
3 236 264 281
3 281 264 239
3 264 263 239
3 671 672 669
3 669 672 670
3 661 662 660
3 260 287 253
3 253 287 673
3 245 674 270
3 270 674 675
3 245 253 674
3 674 253 673
3 410 246 676
3 676 246 677
3 246 402 677
3 677 402 403
3 247 678 269
3 269 678 679
3 247 261 678
3 678 261 680
3 261 252 680
3 680 252 406
3 252 681 406
3 244 270 682
3 682 270 675
3 244 682 252
3 252 682 681
3 342 390 381
3 331 192 297
3 297 192 156
3 312 313 315
3 315 313 314
3 296 323 298
3 298 323 324
3 333 332 300
3 312 315 311
3 311 315 316
3 298 324 301
3 301 324 325
3 310 335 336
3 683 684 341
3 341 684 340
3 684 326 340
3 328 329 306
3 306 329 303
3 327 307 685
3 307 304 685
3 304 686 685
3 343 383 384
3 156 313 297
3 297 313 312
3 315 314 298
3 298 314 296
3 316 315 301
3 301 315 298
3 683 341 687
3 341 339 687
3 317 687 339
3 688 689 318
3 304 307 689
3 318 689 307
3 342 381 348
3 348 381 349
3 320 319 305
3 305 319 308
3 84 100 299
3 299 100 322
3 324 323 299
3 299 323 84
3 337 338 302
3 327 685 308
3 308 685 305
3 350 342 351
3 351 342 348
3 379 389 350
3 350 389 342
3 382 387 352
3 352 387 388
3 354 355 328
3 328 355 329
3 356 330 690
3 690 330 691
3 692 357 693
3 693 357 331
3 357 358 331
3 331 358 192
3 297 312 332
3 332 312 300
3 312 311 300
3 334 335 310
3 691 330 694
3 694 330 695
3 297 332 331
3 332 333 331
3 693 331 333
3 696 697 694
3 694 697 698
3 697 699 698
3 687 317 697
3 317 700 697
3 700 699 697
3 318 309 688
3 688 309 336
3 309 310 336
3 303 334 306
3 309 306 310
3 334 310 306
3 701 321 702
3 702 321 703
3 702 704 701
3 299 338 324
3 338 337 324
3 325 324 337
3 299 322 338
3 338 322 302
3 322 705 302
3 706 686 304
3 689 706 304
3 326 684 702
3 702 684 704
3 695 696 694
3 318 345 309
3 309 345 344
3 306 347 328
3 328 347 346
3 306 309 347
3 347 309 344
3 307 707 318
3 318 707 345
3 307 327 707
3 707 327 708
3 308 709 327
3 327 709 708
3 308 319 709
3 709 319 710
3 353 354 346
3 346 354 328
3 711 193 712
3 712 193 359
3 192 358 193
3 193 358 359
3 713 365 714
3 714 365 364
3 715 716 366
3 717 718 367
3 367 718 366
3 719 720 368
3 721 717 367
3 369 722 367
3 367 722 721
3 716 723 366
3 366 723 364
3 723 714 364
3 724 370 720
3 720 370 368
3 724 725 370
3 718 715 366
3 725 726 370
3 727 369 726
3 726 369 370
3 728 372 729
3 729 372 371
3 713 730 365
3 730 731 365
3 732 373 731
3 731 373 365
3 732 733 373
3 373 733 374
3 733 734 374
3 734 735 374
3 736 719 368
3 737 736 368
3 738 737 375
3 375 737 368
3 739 738 375
3 376 740 375
3 375 740 741
3 742 376 743
3 743 376 377
3 741 739 375
3 744 743 377
3 745 744 377
3 745 377 746
3 746 377 372
3 747 746 372
3 748 747 372
3 728 749 372
3 749 748 372
3 750 729 371
3 751 750 371
3 752 751 371
3 753 752 371
3 735 753 374
3 374 753 371
3 364 365 378
3 367 366 378
3 369 367 378
3 366 364 378
3 368 370 378
3 370 369 378
3 371 372 378
3 365 373 378
3 373 374 378
3 375 368 378
3 376 375 378
3 377 376 378
3 372 377 378
3 374 371 378
3 352 388 379
3 379 388 389
3 390 391 381
3 381 391 386
3 349 381 386
3 754 387 755
3 755 387 382
3 756 384 757
3 754 757 383
3 384 383 757
3 385 392 758
3 758 392 756
3 349 385 758
3 391 392 386
3 386 392 385
3 349 386 385
3 376 742 759
3 759 740 376
3 387 754 383
3 388 387 343
3 343 387 383
3 389 388 380
3 380 388 343
3 342 389 380
3 342 380 390
3 390 380 391
3 391 380 343
3 392 391 384
3 384 391 343
3 756 392 384
3 369 396 722
3 578 393 397
3 397 393 760
3 395 394 398
3 398 394 761
3 132 395 398
3 727 396 369
3 760 148 397
3 397 148 575
3 398 761 125
3 401 398 125
3 571 762 125
3 762 401 125
3 94 555 114
3 114 555 399
3 555 400 399
3 132 401 762
3 132 398 401
3 402 269 403
3 403 269 679
3 290 284 763
3 763 284 404
3 284 405 404
3 292 413 284
3 284 413 405
3 294 285 415
3 415 285 407
3 764 408 286
3 408 407 286
3 407 285 286
3 409 408 764
3 260 410 287
3 287 410 676
3 667 657 260
3 260 657 410
3 283 402 242
3 242 402 246
3 404 411 763
3 763 411 291
3 404 405 411
3 411 405 412
3 413 414 405
3 405 414 412
3 765 413 292
3 765 414 413
3 765 415 414
3 294 415 765
3 449 432 448
3 448 432 430
3 449 450 432
3 432 450 434
3 436 437 766
3 438 439 451
3 451 439 767
3 440 439 459
3 459 439 438
3 457 433 456
3 456 433 431
3 458 435 457
3 457 435 433
3 768 769 770
3 770 769 771
3 772 436 773
3 773 436 766
3 419 420 447
3 447 420 446
3 446 420 445
3 445 420 421
3 423 774 422
3 418 444 424
3 424 444 775
3 425 452 424
3 424 452 418
3 454 455 416
3 416 455 429
3 453 454 417
3 417 454 416
3 776 777 778
3 778 777 779
3 774 423 780
3 780 423 781
3 448 430 447
3 447 430 419
3 419 430 420
3 420 430 432
3 432 434 420
3 420 434 421
3 774 766 422
3 422 766 437
3 437 436 422
3 422 436 423
3 775 767 424
3 424 767 439
3 439 440 424
3 424 440 425
3 442 441 426
3 426 441 428
3 456 431 455
3 455 431 429
3 427 443 426
3 426 443 442
3 782 783 784
3 784 783 785
3 779 780 778
3 778 780 781
3 416 446 417
3 417 446 445
3 447 446 461
3 446 416 461
3 429 461 416
3 429 431 461
3 461 431 460
3 448 460 449
3 449 460 433
3 431 433 460
3 433 435 449
3 449 435 450
3 771 769 773
3 773 769 772
3 785 777 784
3 784 777 776
3 426 454 427
3 427 454 453
3 426 428 454
3 454 428 455
3 441 456 428
3 428 456 455
3 442 457 441
3 441 457 456
3 458 457 443
3 443 457 442
3 768 770 782
3 782 770 783
3 461 460 447
3 447 460 448
3 469 470 468
3 468 470 471
3 468 471 472
3 472 471 473
3 466 465 467
3 467 465 463
3 464 466 462
3 462 466 467
3 467 463 786
3 786 463 787
3 463 465 787
3 787 465 788
3 465 466 788
3 788 466 789
3 462 467 790
3 790 467 786
3 466 464 789
3 789 464 791
3 464 462 791
3 791 462 790
3 481 482 480
3 480 482 483
3 480 483 484
3 484 483 485
3 478 477 479
3 479 477 475
3 476 478 474
3 474 478 479
3 479 475 792
3 792 475 793
3 475 477 793
3 793 477 794
3 478 795 477
3 477 795 794
3 479 792 474
3 474 792 796
3 476 797 478
3 478 797 795
3 474 796 476
3 476 796 797
