ply
format ascii 1.0
comment INFO-3111 Flatenator generated
comment TextureFile Dungeons_Texture_01.png
element vertex 591
property float x
property float y
property float z
element face 700
property list uchar int vertex_indices
end_header
1.01802 5.01706 0.253215 
-0.009872 5.01492 0.251448 
0.066452 4.53496 0.253198 
1.52477 5.01435 0.238136 
1.11675 5.0389 0.252838 
1.13398 4.57115 0.244116 
2.21055 5.0009 0.253293 
0.969149 4.58101 0.252175 
2.19299 4.52203 0.253299 
1.04184 3.91757 0.253182 
0.124916 3.88172 0.253584 
0.736244 3.426 0.253549 
3.93132 3.9045 0.213319 
3.94717 3.43814 0.25337 
4.25421 3.90571 0.254174 
5.02885 3.88355 0.253274 
5.01475 3.40309 0.253851 
3.88267 3.89387 0.25273 
3.90099 3.41422 0.253859 
3.05434 3.91842 0.253049 
3.04374 3.49898 0.252965 
-0.011139 3.87548 0.232283 
-0.007385 3.39634 0.253103 
1.06689 3.42425 0.216758 
3.03569 3.42446 0.2173 
5.02896 2.78256 0.253363 
4.56371 2.77465 0.254315 
4.88042 2.30271 0.251859 
3.99391 2.38386 0.242053 
5.02633 2.3197 0.235753 
4.964 1.67935 0.226538 
4.83363 1.66495 0.251324 
5.0265 1.18416 0.252745 
3.34721 1.0775 0.074556 
2.48914 1.10728 0.073922 
2.64475 0.625774 0.066226 
2.49389 0.671994 0.069534 
3.32101 0.58633 0.036241 
1.37567 0.562541 0.250615 
1.29411 0.594747 0.236509 
1.25925 0.098197 0.257719 
1.68823 4.47436 0.213448 
4.2979 3.98787 0.237832 
3.41079 4.47625 0.257322 
3.43868 4.02593 0.252656 
3.34912 3.97236 0.213642 
3.05434 3.91842 0.06674 
3.05127 3.9438 0.026964 
3.04374 3.49898 0.066656 
-0.000885 2.79854 0.255401 
0.004066 2.36262 0.243419 
1.01489 2.76363 0.24205 
3.95417 2.79759 0.216894 
3.87749 2.79868 0.241271 
3.69886 2.35289 0.238886 
3.92046 2.36933 0.223953 
3.95821 1.60035 0.242904 
2.40428 0.625265 0.252501 
2.42048 1.08888 0.244534 
1.67838 0.650099 0.24798 
1.88347 0.018743 0.239563 
5.03867 5.00081 0.242984 
4.07752 5.04202 0.243239 
4.57915 4.53803 0.24313 
3.42423 4.5349 0.238977 
4.0136 5.01667 0.243326 
2.88535 5.01667 0.243326 
2.98008 4.59691 0.229971 
4.00231 4.54789 0.23274 
5.02129 4.52228 0.243239 
2.27524 5.01182 0.239997 
2.91116 4.55995 0.215909 
2.26686 4.53594 0.243397 
4.26783 4.53716 0.213059 
3.38781 4.49722 0.213492 
2.47154 4.48775 0.213326 
4.23727 4.45174 0.239305 
1.05185 4.49722 0.212677 
0.577606 4.48357 0.243397 
1.64317 4.45788 0.243397 
0.488914 4.4673 0.243251 
-0.016335 4.4696 0.223643 
0.443642 3.99227 0.238125 
1.28143 3.98651 0.2432 
1.68816 3.97251 0.213545 
4.95023 4.46518 0.242779 
4.34972 4.46823 0.242709 
4.94974 3.98651 0.243397 
2.43024 4.46533 0.242861 
1.70315 4.46533 0.242861 
2.11227 3.98245 0.234343 
3.34543 4.46617 0.242138 
2.4847 4.46574 0.243436 
2.76018 4.02286 0.239027 
3.30487 3.98552 0.243577 
1.70393 3.98654 0.243397 
2.42764 3.98034 0.218182 
-0.025597 4.0284 0.22574 
0.552704 3.99678 0.211721 
4.91713 3.90264 0.217182 
1.38432 3.90272 0.056899 
1.127 3.91455 0.030716 
1.13434 3.57733 0.057089 
1.67477 3.43282 0.046172 
1.71541 3.51636 0.053435 
3.00063 3.88899 0.059934 
2.45778 3.91711 0.052613 
2.97543 3.40727 0.057356 
5.03345 3.36051 0.025291 
2.25478 3.45276 0.049147 
1.06689 3.42425 0.030449 
3.20645 3.3673 0.208745 
1.64126 3.40757 0.211401 
1.23074 3.31499 0.239915 
1.64367 2.86533 0.242829 
0.508972 3.35713 0.213577 
0.578392 2.83156 0.243396 
4.35568 3.33048 0.241402 
4.9502 2.85494 0.243016 
4.94987 3.33272 0.243397 
4.28824 3.34063 0.243373 
3.39235 3.30781 0.24327 
4.29297 2.8594 0.243368 
1.70344 3.33306 0.057033 
1.7031 2.85485 0.056444 
2.42999 3.33309 0.057051 
-0.076233 3.33271 0.243397 
0.505417 2.85496 0.243014 
0.505081 3.33271 0.243397 
4.34121 2.83196 0.213337 
2.48972 2.83711 0.048821 
3.40878 2.82659 0.243396 
0.557198 2.82074 0.213239 
2.2016 2.78255 0.056578 
1.13673 2.78201 0.055545 
2.13378 2.30492 0.05332 
1.29184 2.30839 0.057161 
3.03119 2.77067 0.044083 
2.25854 2.77688 0.056734 
2.94474 2.28146 0.056734 
2.28185 2.31476 0.053995 
2.22161 2.30658 0.026462 
-0.057358 2.30027 0.038248 
1.01311 2.28907 0.232842 
1.03731 2.26595 0.026985 
4.99271 2.22419 0.24019 
4.35771 2.26487 0.212148 
4.35671 2.04443 0.241715 
0.461182 2.18977 0.237124 
-0.072891 2.20476 0.237447 
0.074455 1.73313 0.241904 
2.42923 2.22417 0.242282 
1.70344 2.15905 0.243396 
1.70338 1.74924 0.243042 
3.31831 2.2272 0.242873 
2.49136 2.21841 0.239365 
3.34534 1.7452 0.242066 
4.78621 1.75136 0.243088 
0.507858 1.75127 0.243396 
3.40129 2.20721 0.256082 
3.41003 1.67799 0.21301 
3.40398 1.73056 0.243132 
2.48541 1.77547 0.243396 
3.95128 1.68156 0.211775 
1.05245 1.65945 0.244907 
0.000526 1.72014 0.221744 
0.985909 1.22843 0.242491 
2.25574 1.67086 0.213337 
1.13313 1.65991 0.243352 
2.08581 1.22787 0.241493 
3.01208 1.72737 0.209226 
3.06027 1.21167 0.238135 
3.10165 1.65943 0.243396 
3.8812 1.66201 0.240554 
-0.016472 1.18272 0.244313 
5.0522 1.70718 0.140936 
2.23253 1.24437 0.214155 
3.84084 1.18364 0.242991 
2.99313 1.64653 0.242749 
2.26641 1.65995 0.243083 
2.98526 1.18317 0.242573 
3.95291 1.15569 0.213549 
2.32371 1.23939 0.240771 
1.18389 1.22809 0.240344 
2.48376 1.13488 0.032988 
1.69548 1.13148 0.239257 
0.567513 1.10357 0.211303 
-0.055916 1.0828 0.243348 
0.476166 0.774521 0.239457 
0.570038 0.60153 0.243199 
1.17124 1.08304 0.243073 
1.63875 0.601642 0.243202 
4.99474 1.07658 0.240118 
4.30385 1.07575 0.243396 
4.99146 0.602689 0.243396 
4.3526 0.602049 0.243396 
-0.057419 0.599984 0.240349 
2.46189 0.578832 0.031975 
0.535469 0.716159 0.20568 
0.420776 0.54149 0.209855 
3.91835 0.589622 0.213494 
3.40691 1.1012 0.243247 
3.39201 0.624045 0.243242 
1.64014 0.576412 0.213337 
2.99333 0.522412 0.062396 
1.9233 0.518385 0.034134 
2.99258 0.041157 0.064093 
4.00595 0.515426 0.064093 
3.05539 0.539761 0.062723 
3.04377 0.054509 0.063985 
4.30414 0.518965 0.243099 
5.02887 0.041533 0.243396 
5.02942 0.523683 0.238729 
-0.022522 0.493623 0.24338 
1.19393 0.055363 0.243242 
1.95943 0.041167 0.064093 
4.0938 0.509914 0.031949 
4.0605 0.032899 0.064018 
-0.011795 -1.9e-05 0.20718 
0.208557 0.022638 0.243025 
4.0938 0.509914 0.211252 
4.0605 0.032899 0.24332 
2.21889 5.00048 0.212661 
2.42764 3.98034 0.031874 
2.2791 3.95116 0.0271 
3.30649 2.90384 0.05204 
3.39235 3.30781 0.056962 
3.40254 2.81325 0.030612 
1.71696 2.79339 0.029319 
3.03119 2.77067 0.230391 
1.03731 2.26595 0.213294 
0.024094 2.23558 0.211952 
2.95935 2.26285 0.218683 
1.63631 2.25094 0.027914 
5.00933 2.25163 0.175845 
0.519066 2.2871 0.210262 
0.567261 2.10084 0.239075 
1.63094 2.24363 0.23557 
4.29872 2.21696 0.247547 
4.31354 1.73774 0.212955 
0.578125 1.72786 0.239429 
1.6994 1.7372 0.216776 
0.603249 1.67787 0.212909 
3.0414 1.15308 0.211236 
1.13581 1.17854 0.217087 
1.28244 1.11772 0.208862 
2.46189 0.578832 0.211278 
1.09169 5.08631 0.127364 
1.1012 4.98628 0.217348 
2.1949 4.49732 0.213274 
-0.016548 3.37814 0.19811 
3.9315 3.42511 0.213338 
3.12471 3.30971 0.054577 
1.07538 2.79003 0.025672 
2.25536 2.83161 0.027284 
2.95935 2.26285 0.032374 
1.63631 2.25094 0.214222 
3.39045 2.24901 0.210282 
1.13541 1.67727 0.212738 
3.32101 0.58633 0.215544 
2.98918 0.591737 0.034134 
3.91835 0.589622 0.034191 
1.9233 0.518385 0.213436 
3.00615 -0.002114 0.032654 
4.10262 -0.002114 0.136218 
0.206985 3.91108 0.211744 
3.05127 3.9438 0.213274 
3.03569 3.42446 0.030992 
1.07538 2.79003 0.21198 
2.47126 2.21844 0.213544 
3.89099 2.23629 0.21661 
2.48376 1.13488 0.212291 
3.36423 1.09775 0.034035 
3.0414 1.15308 0.031934 
0.570015 4.50819 0.21352 
1.127 3.91455 0.217025 
-0.09819 2.8095 0.136179 
1.71696 2.79339 0.215627 
1.88615 -0.032805 0.127529 
2.22963 5.04274 0.145585 
4.95647 4.48732 0.194538 
4.96426 3.94061 0.031906 
4.30513 3.34684 0.21278 
4.95837 3.36116 0.176581 
3.20645 3.3673 0.022436 
3.40254 2.81325 0.216922 
4.91708 1.16927 0.216863 
1.2445 0.078112 0.21658 
2.9985 0.077492 0.03793 
-0.05397 3.94327 0.032657 
1.64126 3.40757 0.025092 
2.93667 3.31793 0.050425 
5.01515 1.14027 0.077238 
3.36423 1.09775 0.213337 
1.88838 0.067638 0.212098 
1.21486 0.013567 0.140562 
2.2791 3.95116 0.213409 
1.68816 3.97251 0.027236 
1.64367 2.86533 0.05652 
2.47126 2.21844 0.027235 
-0.117249 2.24689 0.032649 
-0.09304 1.68233 0.032557 
5.05014 0.564158 0.136195 
1.88838 0.067638 0.032795 
5.06024 5.044 0.136216 
2.89924 5.05768 0.140971 
1.09201 5.08627 0.025291 
-0.096878 2.81022 0.031933 
5.0484 2.82313 0.02529 
4.05782 5.03281 0.032418 
2.24033 5.00455 0.130827 
5.05014 2.25861 0.028044 
-0.010147 1.12124 0.028311 
4.96588 1.13992 0.0952 
-0.035927 5.05879 0.141457 
-0.007523 0.553927 0.032944 
2.92494 5.05827 0.136196 
-0.05397 4.50801 0.032772 
1.87643 0.030174 0.011594 
4.96629 4.48385 0.032031 
5.04942 0.563629 0.032318 
5.04854 -0.002114 0.032782 
-0.095009 3.37595 0.032461 
-0.019211 1.71658 0.03152 
5.0084 1.12376 0.077454 
-0.077354 1.12403 0.032543 
0.701057 -0.001636 0.03287 
5.05028 3.92631 0.028096 
4.10301 -0.002114 0.032782 
-0.023865 -0.028229 0.032794 
2.25296 5.05827 0.032401 
1.87229 -0.041775 0.014347 
2.89693 5.02973 0.01039 
5.05989 1.70485 0.024448 
-0.034164 5.05755 0.025291 
5.06104 1.14027 0.025029 
5.06021 5.0435 0.032791 
5.00158 1.71502 0.032531 
-0.028702 0.063011 0.03259 
0.017387 3.47228 0.008686 
4.66853 -0.001901 0.032963 
3.86613 5.02983 0.010418 
4.95056 2.83068 0.028489 
4.95227 3.32325 0.010347 
-0.010315 2.87814 0.010338 
1.21463 0.030072 0.03287 
4.9522 5.02958 0.010696 
0.002716 2.20672 0.008685 
4.94258 2.63501 0.008685 
4.95211 0.960641 0.010479 
4.36545 0.048407 0.028245 
4.47095 0.04079 0.031787 
4.28008 0.04079 0.03181 
4.55695 0.048397 0.028139 
4.16167 0.064577 0.008685 
4.95225 0.045611 0.0104 
4.53285 5.02989 0.010319 
-0.010239 0.736346 0.01033 
4.19486 0.046079 0.010322 
4.9521 4.11479 0.01048 
0.002708 3.2193 0.008686 
-0.010315 3.11177 0.010339 
0.003082 1.38871 0.008685 
0.002716 2.98563 0.008685 
3.00615 -0.002114 0.237177 
4.14479 -0.002114 0.18547 
1.83355 -0.002114 0.182999 
3.93132 3.9045 0.213319 
3.88267 3.89387 0.25273 
3.90099 3.41422 0.253859 
3.04374 3.49898 0.252965 
2.19299 4.52203 0.253299 
1.13398 4.57115 0.244116 
4.2979 3.98787 0.237832 
3.43868 4.02593 0.252656 
3.05434 3.91842 0.253049 
1.37567 0.562541 0.250615 
1.25925 0.098197 0.257719 
4.00231 4.54789 0.23274 
2.88535 5.01667 0.243326 
4.57915 4.53803 0.24313 
4.00231 4.54789 0.23274 
3.42423 4.5349 0.238977 
2.91116 4.55995 0.215909 
2.26686 4.53594 0.243397 
3.41079 4.47625 0.257322 
1.64317 4.45788 0.243397 
0.577606 4.48357 0.243397 
4.23727 4.45174 0.239305 
4.2979 3.98787 0.237832 
4.25421 3.90571 0.254174 
5.02885 3.88355 0.253274 
1.38432 3.90272 0.056899 
1.67477 3.43282 0.046172 
5.01475 3.40309 0.253851 
1.71541 3.51636 0.053435 
1.67477 3.43282 0.046172 
1.13434 3.57733 0.057089 
-0.007385 3.39634 0.253103 
1.06689 3.42425 0.216758 
0.736244 3.426 0.253549 
4.28824 3.34063 0.243373 
4.29297 2.8594 0.243368 
4.34121 2.83196 0.213337 
-0.000885 2.79854 0.255401 
1.01489 2.76363 0.24205 
4.9502 2.85494 0.243016 
4.56371 2.77465 0.254315 
5.02896 2.78256 0.253363 
2.25854 2.77688 0.056734 
0.004066 2.36262 0.243419 
2.28185 2.31476 0.053995 
2.2016 2.78255 0.056578 
2.13378 2.30492 0.05332 
3.40129 2.20721 0.256082 
3.40398 1.73056 0.243132 
4.964 1.67935 0.226538 
3.10165 1.65943 0.243396 
3.06027 1.21167 0.238135 
4.964 1.67935 0.226538 
5.0265 1.18416 0.252745 
2.25574 1.67086 0.213337 
2.08581 1.22787 0.241493 
3.8812 1.66201 0.240554 
3.84084 1.18364 0.242991 
2.26641 1.65995 0.243083 
2.32371 1.23939 0.240771 
3.95291 1.15569 0.213549 
2.48914 1.10728 0.073922 
3.34721 1.0775 0.074556 
0.567513 1.10357 0.211303 
1.69548 1.13148 0.239257 
1.29411 0.594747 0.236509 
2.49389 0.671994 0.069534 
0.476166 0.774521 0.239457 
0.420776 0.54149 0.209855 
4.30385 1.07575 0.243396 
4.3526 0.602049 0.243396 
2.40428 0.625265 0.252501 
1.67838 0.650099 0.24798 
1.29411 0.594747 0.236509 
4.00595 0.515426 0.064093 
4.0605 0.032899 0.064018 
-0.022522 0.493623 0.24338 
0.208557 0.022638 0.243025 
2.21055 5.0009 0.253293 
2.88535 5.01667 0.243326 
2.98008 4.59691 0.229971 
0.488914 4.4673 0.243251 
0.443642 3.99227 0.238125 
0.552704 3.99678 0.211721 
1.70315 4.46533 0.242861 
1.70393 3.98654 0.243397 
3.00063 3.88899 0.059934 
2.45778 3.91711 0.052613 
2.25478 3.45276 0.049147 
3.39235 3.30781 0.056962 
3.30649 2.90384 0.05204 
2.48972 2.83711 0.048821 
1.13673 2.78201 0.055545 
1.01311 2.28907 0.232842 
1.29184 2.30839 0.057161 
1.03731 2.26595 0.026985 
4.35771 2.26487 0.212148 
4.88042 2.30271 0.251859 
3.99391 2.38386 0.242053 
2.95935 2.26285 0.218683 
2.49136 2.21841 0.239365 
3.31831 2.2272 0.242873 
1.63094 2.24363 0.23557 
0.567261 2.10084 0.239075 
3.34534 1.7452 0.242066 
2.48541 1.77547 0.243396 
0.000526 1.72014 0.221744 
1.05245 1.65945 0.244907 
2.99313 1.64653 0.242749 
3.95128 1.68156 0.211775 
0.985909 1.22843 0.242491 
0.567513 1.10357 0.211303 
-0.016472 1.18272 0.244313 
1.17124 1.08304 0.243073 
2.42048 1.08888 0.244534 
1.9233 0.518385 0.034134 
2.99333 0.522412 0.062396 
1.52477 5.01435 0.238136 
1.11675 5.0389 0.252838 
2.43024 4.46533 0.242861 
2.4847 4.46574 0.243436 
3.34543 4.46617 0.242138 
-0.011139 3.87548 0.232283 
-0.076233 3.33271 0.243397 
0.505081 3.33271 0.243397 
3.39235 3.30781 0.24327 
3.03119 2.77067 0.044083 
2.94474 2.28146 0.056734 
5.02633 2.3197 0.235753 
1.70344 2.15905 0.243396 
2.42923 2.22417 0.242282 
-0.072891 2.20476 0.237447 
0.461182 2.18977 0.237124 
0.578125 1.72786 0.239429 
0.507858 1.75127 0.243396 
0.074455 1.73313 0.241904 
1.6994 1.7372 0.216776 
1.70338 1.74924 0.243042 
1.13313 1.65991 0.243352 
2.98526 1.18317 0.242573 
3.40691 1.1012 0.243247 
4.30385 1.07575 0.243396 
3.39201 0.624045 0.243242 
1.69548 1.13148 0.239257 
2.64475 0.625774 0.066226 
3.05539 0.539761 0.062723 
3.04377 0.054509 0.063985 
2.99258 0.041157 0.064093 
1.95943 0.041167 0.064093 
5.02887 0.041533 0.243396 
4.0605 0.032899 0.24332 
-0.009872 5.01492 0.251448 
-0.016335 4.4696 0.223643 
0.066452 4.53496 0.253198 
0.969149 4.58101 0.252175 
3.30487 3.98552 0.243577 
1.68816 3.97251 0.213545 
-0.025597 4.0284 0.22574 
2.76018 4.02286 0.239027 
2.97543 3.40727 0.057356 
0.508972 3.35713 0.213577 
0.578392 2.83156 0.243396 
3.69886 2.35289 0.238886 
4.29872 2.21696 0.247547 
4.35671 2.04443 0.241715 
4.31354 1.73774 0.212955 
4.78621 1.75136 0.243088 
3.95821 1.60035 0.242904 
4.83363 1.66495 0.251324 
1.18389 1.22809 0.240344 
1.63875 0.601642 0.243202 
3.32101 0.58633 0.036241 
2.27524 5.01182 0.239997 
1.28143 3.98651 0.2432 
2.11227 3.98245 0.234343 
2.2791 3.95116 0.0271 
1.64367 2.86533 0.242829 
0.570038 0.60153 0.243199 
1.88347 0.018743 0.239563 
1.01802 5.01706 0.253215 
4.34972 4.46823 0.242709 
4.95023 4.46518 0.242779 
2.42764 3.98034 0.218182 
4.94974 3.98651 0.243397 
0.124916 3.88172 0.253584 
1.04184 3.91757 0.253182 
3.94717 3.43814 0.25337 
4.94987 3.33272 0.243397 
4.35568 3.33048 0.241402 
1.23074 3.31499 0.239915 
3.12471 3.30971 0.054577 
0.505417 2.85496 0.243014 
3.40878 2.82659 0.243396 
3.95417 2.79759 0.216894 
3.03119 2.77067 0.230391 
3.87749 2.79868 0.241271 
3.92046 2.36933 0.223953 
4.99271 2.22419 0.24019 
1.9233 0.518385 0.213436 
4.99146 0.602689 0.243396 
4.30414 0.518965 0.243099 
5.02942 0.523683 0.238729 
1.19393 0.055363 0.243242 
5.02129 4.52228 0.243239 
1.71541 3.51636 0.053435 
1.64126 3.40757 0.211401 
1.70344 3.33306 0.057033 
1.7031 2.85485 0.056444 
3.91835 0.589622 0.213494 
4.3526 0.602049 0.243396 
4.0938 0.509914 0.211252 
4.07752 5.04202 0.243239 
4.0136 5.01667 0.243326 
1.38432 3.90272 0.056899 
1.127 3.91455 0.030716 
2.42999 3.33309 0.057051 
-0.055916 1.0828 0.243348 
4.99474 1.07658 0.240118 
-0.057419 0.599984 0.240349 
5.03867 5.00081 0.242984 
2.93667 3.31793 0.050425 
4.10301 -0.002114 0.032782 
3.00615 -0.002114 0.032654 
1.87643 0.030174 0.011594 
3 0 1 2
3 3 4 5
3 3 5 6
3 0 2 7
3 6 5 8
3 9 10 11
3 12 13 14
3 15 14 16
3 367 17 18
3 368 19 20
3 14 13 16
3 21 22 10
3 368 20 369
3 9 11 23
3 18 370 24
3 10 22 11
3 25 26 27
3 27 26 28
3 25 27 29
3 30 31 32
3 33 34 35
3 35 34 36
3 37 33 35
3 38 39 40
3 41 371 372
3 42 43 44
3 373 374 367
3 45 375 17
3 46 47 48
3 49 50 51
3 26 52 28
3 53 54 55
3 31 56 32
3 57 58 59
3 376 377 60
3 61 62 63
3 64 65 66
3 66 67 64
3 62 68 63
3 61 63 69
3 65 64 378
3 70 71 379
3 71 70 72
3 380 381 73
3 382 74 381
3 75 383 384
3 74 385 76
3 77 78 79
3 80 81 82
3 386 387 83
3 84 386 83
3 85 86 87
3 388 43 42
3 88 89 90
3 91 92 93
3 91 93 94
3 89 95 90
3 88 90 96
3 87 86 389
3 92 96 93
3 82 81 97
3 83 387 98
3 99 390 391
3 100 101 102
3 100 102 103
3 104 392 393
3 105 106 107
3 391 394 108
3 109 395 396
3 397 110 396
3 18 24 111
3 398 399 400
3 112 113 114
3 113 115 116
3 117 118 119
3 114 113 116
3 120 121 122
3 123 124 125
3 126 49 127
3 128 126 127
3 129 401 402
3 125 124 130
3 117 403 118
3 122 121 52
3 52 121 131
3 404 405 132
3 406 407 408
3 133 134 135
3 134 136 135
3 137 138 139
3 140 409 141
3 404 142 410
3 139 138 411
3 141 412 413
3 50 143 51
3 136 134 144
3 145 146 147
3 148 149 150
3 151 152 153
3 154 155 156
3 145 147 157
3 148 150 158
3 159 160 161
3 155 162 156
3 414 415 163
3 145 157 416
3 151 153 162
3 164 165 166
3 167 168 169
3 170 171 172
3 173 417 418
3 165 174 166
3 419 420 175
3 421 422 176
3 177 173 418
3 178 179 180
3 181 423 424
3 425 176 182
3 424 171 181
3 179 426 180
3 169 168 183
3 32 56 427
3 428 429 184
3 58 185 59
3 186 187 188
3 430 189 190
3 431 190 191
3 192 193 194
3 194 193 195
3 190 189 432
3 188 187 196
3 191 190 432
3 433 428 197
3 198 434 199
3 200 201 202
3 188 196 435
3 436 201 437
3 438 439 203
3 201 200 437
3 204 205 206
3 207 208 209
3 210 211 212
3 440 213 214
3 205 215 206
3 216 441 217
3 207 209 442
3 443 218 219
3 210 220 221
3 210 221 211
3 214 213 444
3 222 445 371
3 446 383 447
3 74 382 447
3 374 385 45
3 448 449 450
3 451 41 452
3 453 223 454
3 224 455 106
3 107 106 455
3 225 226 130
3 456 457 227
3 457 458 227
3 228 459 412
3 53 229 54
3 405 460 230
3 142 231 410
3 229 232 54
3 233 461 462
3 233 413 461
3 463 464 465
3 463 234 464
3 466 467 468
3 230 235 236
3 230 236 237
3 238 414 239
3 469 470 240
3 469 240 241
3 239 414 163
3 471 472 170
3 242 473 474
3 425 475 170
3 171 170 243
3 476 423 181
3 176 425 421
3 244 474 477
3 478 477 479
3 245 244 480
3 481 438 246
3 482 483 197
3 484 247 485
3 485 248 77
3 249 451 486
3 74 75 487
3 74 487 488
3 47 223 453
3 367 45 17
3 398 489 250
3 18 111 251
3 250 490 491
3 251 492 401
3 226 252 130
3 253 459 228
3 458 409 493
3 409 254 141
3 235 460 410
3 494 140 255
3 464 234 495
3 256 496 497
3 498 499 231
3 257 468 471
3 236 235 500
3 235 499 501
3 502 498 473
3 496 503 504
3 421 472 504
3 503 505 421
3 423 160 172
3 476 160 423
3 170 475 243
3 505 258 244
3 243 475 506
3 244 478 480
3 181 507 508
3 507 259 509
3 510 203 439
3 511 433 197
3 197 260 511
3 199 443 39
3 216 261 441
3 262 376 60
3 512 260 513
3 263 514 515
3 263 217 513
3 264 516 517
3 518 519 520
3 485 77 372
3 521 77 248
3 73 76 373
3 45 488 522
3 41 523 452
3 449 524 265
3 522 525 266
3 453 526 47
3 109 267 526
3 399 398 527
3 268 528 132
3 235 230 460
3 257 529 466
3 466 269 467
3 257 466 468
3 270 159 530
3 531 532 533
3 532 419 533
3 476 534 535
3 534 476 181
3 505 244 536
3 271 506 182
3 272 273 429
3 434 198 478
3 203 510 537
3 203 39 38
3 538 260 512
3 384 539 249
3 249 371 41
3 78 274 450
3 385 74 45
3 275 523 540
3 523 541 452
3 223 542 454
3 490 276 404
3 543 528 277
3 405 268 132
3 254 409 458
3 268 405 230
3 477 478 244
3 544 198 199
3 278 545 40
3 484 445 279
3 279 445 222
3 546 521 248
3 447 383 74
3 519 274 520
3 274 521 520
3 73 547 548
3 79 523 41
3 75 486 549
3 487 75 549
3 280 550 281
3 450 275 540
3 374 45 367
3 266 45 522
3 373 99 550
3 265 551 552
3 275 265 552
3 265 489 551
3 48 47 267
3 367 18 251
3 394 553 251
3 527 398 250
3 282 283 394
3 554 282 555
3 527 556 399
3 557 456 284
3 527 491 558
3 492 285 559
3 285 560 559
3 285 561 562
3 562 560 285
3 560 563 465
3 253 462 459
3 563 560 562
3 231 235 410
3 563 463 465
3 564 234 463
3 270 257 159
3 467 269 472
3 269 497 472
3 257 160 159
3 463 530 532
3 235 242 500
3 256 237 503
3 496 256 503
3 243 181 171
3 181 286 420
3 429 273 184
3 510 245 480
3 428 184 197
3 544 478 198
3 538 272 429
3 246 271 481
3 203 246 438
3 39 544 199
3 537 39 203
3 260 538 511
3 39 287 40
3 203 38 565
3 261 538 512
3 441 261 512
3 566 567 568
3 39 569 287
3 514 288 483
3 260 288 513
3 485 247 248
3 222 371 249
3 77 41 372
3 249 75 384
3 73 280 380
3 570 380 280
3 274 78 77
3 73 74 76
3 274 519 448
3 249 41 451
3 75 249 486
3 280 73 548
3 450 274 448
3 547 73 373
3 45 266 375
3 390 99 367
3 100 571 455
3 265 289 489
3 553 367 251
3 267 47 526
3 275 552 399
3 110 290 396
3 282 394 251
3 527 250 491
3 572 399 556
3 282 251 401
3 557 284 267
3 291 557 267
3 282 401 129
3 282 129 555
3 573 228 574
3 527 558 132
3 268 277 528
3 228 254 574
3 254 458 574
3 560 129 402
3 528 527 132
3 255 493 494
3 254 412 141
3 257 563 529
3 233 141 413
3 269 256 497
3 499 235 231
3 463 532 531
3 258 503 500
3 503 421 504
3 473 501 502
3 258 242 474
3 503 258 505
3 170 421 425
3 176 271 182
3 286 292 420
3 181 293 507
3 507 293 259
3 259 575 509
3 260 197 483
3 576 577 567
3 566 576 567
3 294 565 545
3 219 295 569
3 578 579 381
3 539 222 249
3 521 274 77
3 383 75 74
3 74 73 381
3 79 41 77
3 488 45 74
3 280 548 550
3 449 265 450
3 541 523 296
3 549 541 296
3 525 549 266
3 275 450 265
3 542 297 580
3 373 367 99
3 581 580 297
3 100 455 224
3 397 581 110
3 396 290 109
3 267 109 582
3 109 290 573
3 251 111 492
3 109 573 582
3 282 554 283
3 267 582 291
3 290 298 228
3 573 290 228
3 558 404 132
3 406 129 407
3 129 560 407
3 412 254 228
3 227 458 493
3 140 141 299
3 255 140 299
3 563 257 270
3 256 230 237
3 463 563 270
3 233 299 141
3 530 463 270
3 257 471 160
3 242 235 501
3 498 300 301
3 175 564 419
3 476 161 160
3 419 532 535
3 501 473 242
3 472 421 170
3 471 170 160
3 500 242 258
3 532 476 535
3 172 160 170
3 474 244 258
3 536 244 245
3 536 245 510
3 422 536 510
3 422 510 481
3 506 271 243
3 181 243 293
3 176 422 481
3 286 181 508
3 271 176 481
3 478 479 583
3 508 584 286
3 576 575 577
3 585 443 199
3 246 203 565
3 566 568 302
3 482 303 515
3 260 483 288
3 498 301 473
3 294 545 278
3 304 578 586
3 281 550 99
3 283 554 406
3 305 539 446
3 306 546 248
3 586 570 304
3 276 307 404
3 513 288 263
3 308 406 408
3 579 578 309
3 234 564 175
3 175 420 292
3 302 568 516
3 310 222 539
3 489 289 250
3 311 408 495
3 234 311 495
3 231 300 498
3 519 289 524
3 404 307 142
3 479 312 583
3 313 286 584
3 584 566 302
3 265 524 289
3 295 287 569
3 546 314 518
3 308 408 311
3 473 312 479
3 585 583 315
3 287 278 40
3 316 446 579
3 283 108 394
3 585 315 443
3 287 295 278
3 279 247 484
3 289 519 317
3 391 281 99
3 303 318 515
3 288 514 263
3 218 295 219
3 318 263 515
3 570 280 319
3 306 314 546
3 518 314 519
3 309 578 304
3 279 222 310
3 584 302 320
3 321 302 516
3 264 321 516
3 322 490 250
3 490 307 276
3 473 323 312
3 320 324 584
3 583 325 315
3 326 295 218
3 247 306 248
3 301 323 473
3 324 313 584
3 327 391 108
3 313 292 286
3 517 328 264
3 329 326 218
3 328 217 263
3 327 281 391
3 539 330 310
3 295 331 278
3 332 305 446
3 333 175 292
3 519 314 334
3 333 292 335
3 294 278 331
3 142 300 231
3 306 247 279
3 330 539 305
3 336 304 570
3 292 324 335
3 304 336 309
3 310 330 279
3 334 317 519
3 337 234 175
3 443 338 218
3 218 338 329
3 316 332 446
3 289 339 250
3 333 337 175
3 322 250 339
3 325 583 312
3 340 321 264
3 319 280 281
3 340 264 328
3 330 306 279
3 341 332 316
3 341 316 579
3 490 322 307
3 342 283 406
3 332 330 305
3 341 579 309
3 343 283 342
3 142 307 344
3 320 302 321
3 336 570 319
3 283 343 108
3 308 342 406
3 311 234 337
3 335 324 320
3 443 315 338
3 318 294 331
3 345 295 326
3 345 331 295
3 306 334 314
3 346 336 319
3 289 317 339
3 307 322 344
3 344 347 142
3 348 311 337
3 300 142 323
3 300 323 301
3 335 320 349
3 325 312 315
3 349 320 321
3 350 351 352
3 350 353 351
3 328 263 354
3 326 329 338
3 352 340 328
3 352 351 340
3 351 353 340
3 353 321 340
3 353 355 321
3 336 356 309
3 336 346 356
3 142 347 323
3 312 357 315
3 315 357 338
3 355 349 321
3 358 352 328
3 358 350 352
3 358 353 350
3 346 319 359
3 281 327 343
3 343 327 108
3 339 360 322
3 322 360 361
3 342 308 348
3 348 308 311
3 337 333 335
3 335 349 337
3 358 355 353
3 359 319 281
3 359 281 343
3 322 361 344
3 343 342 348
3 358 328 354
3 356 341 309
3 323 362 312
3 361 360 363
3 361 363 344
3 323 347 362
3 587 125 130
3 252 587 130
3 266 46 375
3 370 46 48
3 285 456 227
3 230 233 462
3 266 223 47
3 268 228 277
3 296 223 549
3 24 48 267
3 111 456 492
3 268 462 253
3 572 110 399
3 111 267 284
3 466 493 255
3 296 297 542
3 523 581 297
3 399 581 275
3 572 298 290
3 277 298 543
3 285 493 561
3 269 255 299
3 269 233 256
3 577 217 517
3 246 482 197
3 577 261 216
3 243 272 293
3 243 184 273
3 246 184 271
3 293 538 259
3 575 538 261
3 294 482 565
3 294 318 303
3 328 517 217
3 364 588 589
3 590 364 589
3 292 313 324
3 266 47 46
3 370 375 46
3 285 492 456
3 230 256 233
3 266 549 223
3 268 253 228
3 296 542 223
3 24 370 48
3 111 284 456
3 268 230 462
3 572 290 110
3 111 24 267
3 466 561 493
3 296 523 297
3 523 275 581
3 399 110 581
3 572 543 298
3 277 228 298
3 285 227 493
3 269 466 255
3 269 299 233
3 577 216 217
3 246 565 482
3 577 575 261
3 243 273 272
3 243 271 184
3 246 197 184
3 293 272 538
3 575 259 538
3 294 303 482
3 364 365 588
3 590 366 364
