ply
format ascii 1.0
comment INFO-3111 Flatenator generated
comment TextureFile Dungeons_Texture_01.png
element vertex 98
property float x
property float y
property float z
property float nx
property float ny
property float nz
property uchar red
property uchar green
property uchar blue
property uchar alpha
property float texture_u
property float texture_v
element face 100
property list uchar int vertex_indices
end_header
0.071259 0.438458 0.128567 0.660321 0.367004 0.655198 97 92 89 255 0.211594 0.280109 
0.040997 0.435621 0.142195 0.5008 0.166024 0.849491 97 92 89 255 0.211594 0.280109 
0.074478 0.399978 0.129423 0.553985 0.27696 0.785107 97 92 89 255 0.211594 0.280109 
-0.12138 0.435451 0.141905 -0.681755 0.471334 0.559512 120 116 110 255 0.211594 0.299863 
-0.119801 0.356805 0.141638 -0.420121 -0.060345 0.905459 120 116 110 255 0.211594 0.299863 
0.069717 0.364278 0.145819 -0.0794616 -0.0967779 0.992129 120 116 110 255 0.211594 0.299863 
-0.091553 0.439836 0.011826 -0.0196644 0.999798 -0.00418289 120 116 110 255 0.211594 0.299863 
0.126511 0.364296 0.118755 0.70448 0.305586 0.640567 97 92 89 255 0.211594 0.280109 
0.111439 0.323025 0.149992 0.696328 0.253826 0.671342 97 92 89 255 0.211594 0.280109 
-0.090942 0.235067 0.127161 -0.00450887 -0.200095 0.979766 120 116 110 255 0.211594 0.299863 
0.12294 0.226376 0.126482 -0.121446 -0.231117 0.965316 120 116 110 255 0.211594 0.299863 
-0.126404 0.25007 0.098917 -0.996963 0.000354285 0.0778768 120 116 110 255 0.211594 0.299863 
0.120277 0.413276 0.075876 0.635516 0.621038 0.458728 97 92 89 255 0.211594 0.280109 
0.126602 0.217558 0.109428 0.97254 -0.0396495 0.229334 97 92 89 255 0.211594 0.280109 
-0.124039 0.417284 0.034401 -0.716762 0.679915 -0.154812 97 92 89 255 0.211594 0.280109 
-0.126587 0.384698 -0.007559 -0.999813 0.0193391 -0.000716125 120 116 110 255 0.211594 0.299863 
-0.126587 0.194783 0.04664 -0.771944 -0.0838306 0.630139 97 92 89 255 0.211594 0.280109 
-0.090912 0.144343 0.103302 -0.689071 0.0485723 0.723064 97 92 89 255 0.211594 0.280109 
0.123585 0.102817 0.090153 0.449773 -0.246544 0.858441 120 116 110 255 0.211594 0.299863 
0.088619 0.435775 0.069723 0.536887 0.815032 0.217886 97 92 89 255 0.211594 0.280109 
-0.121857 0.135132 0.084213 -0.613072 0.0340919 0.789291 97 92 89 255 0.211594 0.280109 
-0.111313 0.040629 0.073446 -0.647053 -0.103403 0.7554 97 92 89 255 0.211594 0.280109 
0.12352 0.439878 0.000809 0.540637 0.840837 0.0265628 120 116 110 255 0.211594 0.299863 
-0.126598 0.039912 0.057482 -0.718398 -0.0773592 0.691317 97 92 89 255 0.211594 0.280109 
-0.006756 0.0275 0.06975 0.00266424 -0.300457 0.953792 120 116 110 255 0.211594 0.299863 
0.124901 0 0.059563 0.530609 -0.67736 0.509545 120 116 110 255 0.211594 0.299863 
-0.124783 0 0.059563 -0.29602 -0.78422 0.545318 120 116 110 255 0.211594 0.299863 
-0.006935 0 0.059574 0.161745 -0.802876 0.573784 97 92 89 255 0.211594 0.280109 
0.049809 0.007751 0.054424 0.00855195 -0.868843 0.495013 97 92 89 255 0.211594 0.280109 
0.015877 0.002028 0.013748 0.0111051 -0.991422 0.130226 97 92 89 255 0.211594 0.280109 
0.124413 0 -0.175972 0.705104 -0.709095 0.00354263 120 116 110 255 0.211594 0.299863 
-0.090481 0.435525 -0.047089 -0.730757 0.682431 0.0167627 97 92 89 255 0.211594 0.280109 
-0.126495 0.006461 -0.038052 -0.997655 0.0642572 -0.0235751 120 116 110 255 0.211594 0.299863 
0.119415 0.422083 -0.159247 0.99844 0.0539862 -0.0142633 120 116 110 255 0.211594 0.299863 
-0.016415 0 -0.091396 0.00680778 -0.999977 0.000822362 120 116 110 255 0.211594 0.299863 
-0.101147 0.001784 -0.1104 -0.0204237 -0.999788 -0.00279322 120 116 110 255 0.211594 0.299863 
-0.123512 0.439894 -0.105736 -0.585828 0.714144 0.38315 97 92 89 255 0.211594 0.280109 
0.107986 0.432611 -0.160177 0.518517 0.767424 -0.377094 97 92 89 255 0.211594 0.280109 
0.126472 0.3568 -0.175658 0.999467 0.0324915 -0.00303796 120 116 110 255 0.211594 0.299863 
0.028282 0.439432 -0.188033 0.00660555 0.921899 -0.387374 120 116 110 255 0.211594 0.299863 
-0.116219 0.020529 -0.163109 -0.997925 0.0399828 -0.0504665 120 116 110 255 0.211594 0.299863 
-0.126534 0.136863 -0.177733 -0.999436 -0.0238067 -0.0236772 120 116 110 255 0.211594 0.299863 
0.123489 0.103099 -0.186997 0.710837 0.000899565 -0.703356 120 116 110 255 0.211594 0.299863 
0.111862 0 -0.187501 0.00696685 -0.707153 -0.707026 120 116 110 255 0.211594 0.299863 
-0.121029 0.055722 -0.186706 -0.814129 -0.227859 -0.534111 97 92 89 255 0.211594 0.280109 
-0.047852 0 -0.187518 -0.0357423 -0.542409 -0.839354 120 116 110 255 0.211594 0.299863 
-0.123444 0.439438 -0.18798 -0.806492 0.422709 -0.413386 120 116 110 255 0.211594 0.299863 
-0.123234 0.274384 -0.187209 -0.545364 0.00105724 -0.838199 120 116 110 255 0.211594 0.299863 
0.090527 0.424626 -0.186451 0.503513 0.481503 -0.717377 97 92 89 255 0.211594 0.280109 
-0.111729 0.206202 -0.188033 0.00111728 -0.00381083 -0.999992 120 116 110 255 0.211594 0.299863 
0.059372 0.185583 -0.188033 -0.0110803 0.00744716 -0.999911 120 116 110 255 0.211594 0.299863 
-0.006268 0.103099 -0.185899 -0.0241396 0.0101035 -0.999658 120 116 110 255 0.211594 0.299863 
0.040997 0.435621 0.142195 -0.0020371 0.651293 0.758824 120 116 110 255 0.211594 0.299863 
0.071259 0.438458 0.128567 0.00638773 0.997822 0.0656517 120 116 110 255 0.211594 0.299863 
0.069717 0.364278 0.145819 0.459854 0.361436 0.811109 97 92 89 255 0.211594 0.280109 
0.12294 0.226376 0.126482 0.953637 -0.0262041 0.299815 97 92 89 255 0.211594 0.280109 
0.111439 0.323025 0.149992 -0.347632 -0.26047 0.900726 120 116 110 255 0.211594 0.299863 
-0.090942 0.235067 0.127161 -0.754387 -0.300202 0.583763 97 92 89 255 0.211594 0.280109 
-0.119801 0.356805 0.141638 -0.665041 -0.241684 0.706618 97 92 89 255 0.211594 0.280109 
-0.126404 0.25007 0.098917 -0.66916 -0.384324 0.636019 97 92 89 255 0.211594 0.280109 
-0.12138 0.435451 0.141905 -0.619504 0.776394 -0.115879 97 92 89 255 0.211594 0.280109 
-0.091553 0.439836 0.011826 -0.610426 0.786645 -0.092575 97 92 89 255 0.211594 0.280109 
0.123585 0.102817 0.090153 0.96801 -0.0661133 0.242045 97 92 89 255 0.211594 0.280109 
-0.124039 0.417284 0.034401 -0.998142 0.0591232 0.0146969 120 116 110 255 0.211594 0.299863 
-0.090912 0.144343 0.103302 0.00522806 -0.267537 0.963534 120 116 110 255 0.211594 0.299863 
0.088619 0.435775 0.069723 0.018451 0.999749 0.0127054 120 116 110 255 0.211594 0.299863 
0.120277 0.413276 0.075876 0.965079 0.230993 0.123551 120 116 110 255 0.211594 0.299863 
0.126511 0.364296 0.118755 0.99606 0.0854009 0.0238822 120 116 110 255 0.211594 0.299863 
-0.126587 0.194783 0.04664 -0.998846 0.00359343 0.047892 120 116 110 255 0.211594 0.299863 
-0.111313 0.040629 0.073446 -0.00381061 -0.298982 0.954251 120 116 110 255 0.211594 0.299863 
-0.006756 0.0275 0.06975 0.00455467 -0.604904 0.796286 97 92 89 255 0.211594 0.280109 
0.124901 0 0.059563 -0.121474 -0.901627 0.415105 97 92 89 255 0.211594 0.280109 
0.12352 0.439878 0.000809 0.61008 0.785106 0.106824 97 92 89 255 0.211594 0.280109 
-0.124783 0 0.059563 -0.682329 -0.605237 0.410019 97 92 89 255 0.211594 0.280109 
-0.006935 0 0.059574 0.0311449 -0.928662 0.369618 120 116 110 255 0.211594 0.299863 
0.126602 0.217558 0.109428 0.999967 -0.00799914 -0.00135965 120 116 110 255 0.211594 0.299863 
-0.126598 0.039912 0.057482 -0.99993 0.00746634 0.00920428 120 116 110 255 0.211594 0.299863 
-0.121857 0.135132 0.084213 -0.990053 0.00989546 0.140346 120 116 110 255 0.211594 0.299863 
-0.126587 0.384698 -0.007559 -0.789795 0.610117 0.0630931 97 92 89 255 0.211594 0.280109 
0.015877 0.002028 0.013748 0.0233072 -0.999721 0.00379607 120 116 110 255 0.211594 0.299863 
-0.126495 0.006461 -0.038052 -0.443785 -0.890769 -0.097901 97 92 89 255 0.211594 0.280109 
-0.101147 0.001784 -0.1104 -0.414277 -0.899313 -0.14004 97 92 89 255 0.211594 0.280109 
0.119415 0.422083 -0.159247 0.683859 0.550209 -0.479173 97 92 89 255 0.211594 0.280109 
-0.090481 0.435525 -0.047089 -0.0441921 0.998977 -0.00954556 120 116 110 255 0.211594 0.299863 
-0.116219 0.020529 -0.163109 -0.670646 -0.683048 -0.289274 97 92 89 255 0.211594 0.280109 
-0.123512 0.439894 -0.105736 -0.425662 0.904625 0.0215944 120 116 110 255 0.211594 0.299863 
0.107986 0.432611 -0.160177 0.104163 0.993045 -0.0548776 120 116 110 255 0.211594 0.299863 
-0.126534 0.136863 -0.177733 -0.794723 -0.0370311 -0.605842 97 92 89 255 0.211594 0.280109 
-0.047852 0 -0.187518 -0.407747 -0.764795 -0.49883 97 92 89 255 0.211594 0.280109 
0.028282 0.439432 -0.188033 0.220525 0.882774 -0.414824 97 92 89 255 0.211594 0.280109 
0.123489 0.103099 -0.186997 0.52366 -0.0177691 -0.851742 97 92 89 255 0.211594 0.280109 
0.124413 0 -0.175972 0.674707 -0.0724994 -0.734517 97 92 89 255 0.211594 0.280109 
0.111862 0 -0.187501 0.674707 -0.0724994 -0.734517 97 92 89 255 0.211594 0.280109 
0.090527 0.424626 -0.186451 0.00934212 -0.000380059 -0.999956 120 116 110 255 0.211594 0.299863 
0.126472 0.3568 -0.175658 0.527623 0.146468 -0.836756 97 92 89 255 0.211594 0.280109 
-0.123234 0.274384 -0.187209 -0.386835 -0.0541491 -0.920558 97 92 89 255 0.211594 0.280109 
-0.111729 0.206202 -0.188033 -0.540555 -0.00954723 -0.841254 97 92 89 255 0.211594 0.280109 
-0.121029 0.055722 -0.186706 0.00580535 0.00297099 -0.999979 120 116 110 255 0.211594 0.299863 
3 0 1 2
3 3 4 5
3 52 3 5
3 53 3 52
3 1 54 2
3 6 3 53
3 2 54 7
3 7 54 8
3 5 4 9
3 5 9 10
3 7 8 55
3 56 5 10
3 3 11 4
3 57 58 59
3 12 0 2
3 12 2 7
3 13 7 55
3 60 61 14
3 3 15 11
3 57 16 17
3 10 9 18
3 59 16 57
3 13 55 62
3 12 19 0
3 63 15 3
3 17 20 21
3 9 64 18
3 65 6 53
3 22 66 67
3 11 15 68
3 20 23 21
3 18 64 24
3 18 24 25
3 69 26 24
3 64 69 24
3 70 27 28
3 71 70 28
3 19 12 72
3 21 23 73
3 24 26 74
3 28 27 29
3 17 16 20
3 75 18 30
3 30 18 25
3 29 71 28
3 68 76 77
3 14 31 78
3 15 76 68
3 61 31 14
3 76 32 26
3 22 6 65
3 33 22 67
3 26 34 74
3 35 34 26
3 34 79 74
3 80 81 73
3 79 30 25
3 31 36 78
3 37 72 82
3 33 67 38
3 38 67 75
3 22 39 6
3 6 39 83
3 76 40 32
3 80 84 81
3 39 85 83
3 86 39 22
3 41 40 76
3 34 30 79
3 75 30 42
3 43 30 34
3 87 44 84
3 35 45 34
3 85 46 15
3 84 88 81
3 42 38 75
3 15 41 76
3 46 85 39
3 48 89 37
3 15 46 47
3 82 48 37
3 90 91 92
3 45 43 34
3 93 47 39
3 48 82 94
3 46 39 47
3 47 93 49
3 48 94 90
3 95 96 87
3 49 93 50
3 49 50 51
3 93 42 50
3 87 96 44
3 51 50 45
3 49 51 97
3 45 50 43
3 50 42 43
3 97 51 45
3 44 88 84
3 15 47 41
