ply
format ascii 1.0
comment INFO-3111 Flatenator generated
comment TextureFile Dungeons_Texture_01.png
element vertex 162
property float x
property float y
property float z
element face 172
property list uchar int vertex_indices
end_header
5 2e-06 5 
0 2e-06 5 
5 3e-06 0 
0 3e-06 0 
4.75354 2e-06 4.75354 
0.246464 2e-06 4.75354 
0.246464 3e-06 0.246464 
4.75354 3e-06 0.246464 
4.29592 2e-06 4.58561 
0.351572 -0.149818 4.40474 
0.782236 -0.149817 0.420362 
4.64431 -0.149817 0.631678 
3.95466 2e-06 3.95466 
0.957142 -0.149818 4.04286 
1.04534 3e-06 1.04534 
4.04286 -0.149817 0.957143 
1.04534 2e-06 3.95466 
3.95466 3e-06 1.04534 
5 2e-06 3.38152 
4.68895 2e-06 3.26427 
4.59175 -0.149818 3.23 
4.07084 -0.149818 3.13007 
3.76634 2e-06 3.21028 
1.09372 3e-06 3.01477 
0.389166 -0.149818 3.20799 
0.246464 2e-06 3.29461 
0 2e-06 3.38152 
0 3e-06 1.45282 
0.271105 3e-06 1.66296 
0.373721 -0.149817 1.41894 
0.824913 -0.149817 1.71101 
0.993303 3e-06 1.9047 
3.95466 3e-06 1.89068 
4.09609 -0.149817 1.83144 
4.6031 -0.149817 1.61907 
4.75354 3e-06 1.55605 
5 3e-06 1.45282 
2.38637 3e-06 0 
2.39758 3e-06 0.246464 
2.67351 -0.149817 0.536407 
2.42856 -0.149817 0.928027 
2.43389 3e-06 1.04534 
2.43389 2e-06 3.95466 
2.39414 -0.149818 4.08855 
2.57115 -0.149818 4.54791 
2.53306 2e-06 4.70738 
2.38637 2e-06 5 
0.286325 -0.061437 4.71367 
0.55015 -0.149818 4.64628 
0.957142 -0.149818 3.51906 
0.783583 -0.149818 3.09413 
0.880709 -0.149817 2.45798 
4.34131 -0.149817 0.347741 
4.72428 -0.045095 0.275724 
0.872267 -0.149817 1.28579 
1.22629 -0.149817 0.954243 
0.828955 -0.149817 1.02707 
2.26701 -0.149817 1.97201 
2.54345 -0.149817 2.86002 
1.17862 -0.149817 2.98311 
1.22975 3e-06 1.93774 
2.43635 -0.149818 3.86519 
1.26046 -0.149818 3.73794 
2.43635 -0.149817 1.13481 
1.26046 -0.149817 1.26206 
3.86359 -0.149817 1.92816 
3.73635 -0.149817 1.26206 
3.40002 -0.149818 3.33522 
3.58812 -0.149818 3.76403 
3.7754 -0.149818 4.06538 
3.96243 -0.149818 4.50325 
4.26448 2e-06 4.74337 
4.73612 2e-06 4.35202 
4.64422 -0.149818 4.14744 
4.03088 -0.149818 3.82579 
4.62323 2e-06 4.33133 
0.404728 -0.149817 0.816865 
3.95972 -0.149818 3.41449 
3.98311 -0.149817 2.58049 
1.17979 -0.149817 2.11689 
1.93083 -0.149817 2.1856 
1.16424 -0.149817 1.78702 
3.66327 -0.149817 2.80627 
2.84306 -0.149817 2.58736 
2.20487 3e-06 2.124 
3.61188 3e-06 3.05961 
2.59654 3e-06 2.72358 
0.81628 -0.149817 2.06804 
0.439495 -0.149817 2.04745 
0.807462 3e-06 1.86537 
1.69375 -0.149817 0.401391 
3.60848 -0.149817 0.358203 
1.69375 -0.149817 0.401391 
4.59175 -0.149818 3.23 
1.22629 -0.149817 0.954243 
3.98311 -0.149817 2.58049 
4.64422 -0.149818 4.14744 
0.404728 -0.149817 0.816865 
0.782236 -0.149817 0.420362 
2.42856 -0.149817 0.928027 
2.54345 -0.149817 2.86002 
3.7754 -0.149818 4.06538 
2.39414 -0.149818 4.08855 
2.57115 -0.149818 4.54791 
0.389166 -0.149818 3.20799 
0.783583 -0.149818 3.09413 
0.957142 -0.149818 3.51906 
0.81628 -0.149817 2.06804 
0.807462 3e-06 1.86537 
0.957142 -0.149818 4.04286 
4.6031 -0.149817 1.61907 
4.04286 -0.149817 0.957143 
4.64431 -0.149817 0.631678 
4.34131 -0.149817 0.347741 
0.828955 -0.149817 1.02707 
0.55015 -0.149818 4.64628 
0.351572 -0.149818 4.40474 
1.17862 -0.149817 2.98311 
1.26046 -0.149818 3.73794 
2.43635 -0.149818 3.86519 
3.73635 -0.149817 1.26206 
3.40002 -0.149818 3.33522 
3.58812 -0.149818 3.76403 
3.96243 -0.149818 4.50325 
3.95466 2e-06 3.95466 
4.29592 2e-06 4.58561 
4.62323 2e-06 4.33133 
4.64422 -0.149818 4.14744 
4.03088 -0.149818 3.82579 
0.373721 -0.149817 1.41894 
0.872267 -0.149817 1.28579 
4.07084 -0.149818 3.13007 
1.93083 -0.149817 2.1856 
1.26046 -0.149817 1.26206 
2.43635 -0.149817 1.13481 
3.86359 -0.149817 1.92816 
2.26701 -0.149817 1.97201 
1.22975 3e-06 1.93774 
1.16424 -0.149817 1.78702 
2.84306 -0.149817 2.58736 
1.17979 -0.149817 2.11689 
1.17979 -0.149817 2.11689 
3.66327 -0.149817 2.80627 
3.61188 3e-06 3.05961 
3.66327 -0.149817 2.80627 
3.40002 -0.149818 3.33522 
0.439495 -0.149817 2.04745 
0.880709 -0.149817 2.45798 
0.439495 -0.149817 2.04745 
0.271105 3e-06 1.66296 
0.824913 -0.149817 1.71101 
3.60848 -0.149817 0.358203 
2.67351 -0.149817 0.536407 
4.09609 -0.149817 1.83144 
3.95972 -0.149818 3.41449 
4.03088 -0.149818 3.82579 
3.96243 -0.149818 4.50325 
3.7754 -0.149818 4.06538 
0.824913 -0.149817 1.71101 
1.16424 -0.149817 1.78702 
0.81628 -0.149817 2.06804 
0.373721 -0.149817 1.41894 
3 59 80 58
3 46 5 45
3 37 6 3
3 35 18 19
3 48 47 9
3 6 90 10
3 34 19 20
3 23 50 51
3 92 40 55
3 93 21 78
3 43 16 42
3 94 41 14
3 32 95 22
3 18 72 19
3 19 73 20
3 93 96 74
3 77 12 22
3 58 62 59
3 26 5 1
3 27 6 28
3 28 76 29
3 56 97 98
3 31 54 14
3 33 17 15
3 36 7 2
3 37 7 38
3 52 53 11
3 99 17 41
3 57 66 65
3 86 100 84
3 61 67 68
3 69 42 12
3 101 44 102
3 70 45 103
3 46 71 0
3 25 24 9
3 49 50 23
3 44 13 102
3 5 47 48
3 104 105 106
3 88 89 87
3 31 107 108
3 49 16 109
3 110 111 112
3 111 113 112
3 52 7 53
3 35 34 11
3 114 94 14
3 54 114 14
3 91 113 111
3 115 116 13
3 23 79 117
3 42 118 119
3 23 118 16
3 31 81 60
3 41 64 14
3 41 120 63
3 32 120 17
3 85 22 121
3 42 122 12
3 22 122 121
3 123 124 8
3 125 71 70
3 0 71 4
3 72 0 4
3 75 4 125
3 124 126 8
3 127 124 128
3 73 72 75
3 75 72 4
3 4 71 125
3 76 6 10
3 129 56 130
3 22 131 77
3 22 95 131
3 79 31 60
3 132 84 100
3 31 64 81
3 57 133 134
3 65 83 57
3 32 82 135
3 136 137 138
3 139 84 136
3 82 22 85
3 140 80 59
3 137 132 141
3 142 83 65
3 143 139 144
3 145 86 143
3 51 31 23
3 146 147 104
3 25 148 24
3 26 28 25
3 149 30 89
3 31 108 150
3 90 38 39
3 39 38 151
3 46 1 5
3 37 38 6
3 35 36 18
3 6 38 90
3 34 35 19
3 56 98 55
3 98 92 55
3 92 152 40
3 78 153 110
3 110 93 78
3 43 109 16
3 94 99 41
3 32 33 95
3 18 0 72
3 19 72 73
3 74 154 93
3 154 21 93
3 77 155 12
3 58 61 62
3 26 25 5
3 27 3 6
3 28 6 76
3 31 150 54
3 33 32 17
3 36 35 7
3 37 2 7
3 99 15 17
3 57 134 66
3 61 58 67
3 69 43 42
3 101 156 44
3 70 71 45
3 46 45 71
3 47 5 9
3 5 25 9
3 44 115 13
3 48 103 45
3 45 5 48
3 106 13 104
3 13 116 104
3 88 149 89
3 49 23 16
3 110 153 111
3 52 151 7
3 151 38 7
3 53 7 11
3 7 35 11
3 111 40 152
3 152 91 111
3 23 31 79
3 42 16 118
3 23 117 118
3 41 63 64
3 41 17 120
3 32 135 120
3 42 119 122
3 22 12 122
3 123 157 124
3 127 126 124
3 130 158 129
3 129 97 56
3 31 14 64
3 57 159 133
3 32 22 82
3 136 84 137
3 139 86 84
3 137 84 132
3 143 86 139
3 145 100 86
3 51 107 31
3 160 147 146
3 147 105 104
3 25 28 148
3 26 27 28
3 149 161 30
