ply
format ascii 1.0
comment INFO-3111 Flatenator generated
comment TextureFile Dungeons_Texture_01.png
element vertex 583
property float x
property float y
property float z
element face 690
property list uchar int vertex_indices
end_header
5.02831 5.06472 0.295053 
3.96743 5.06476 0.295098 
5.02758 4.53976 0.294141 
4.0393 4.92387 0.296006 
4.04592 4.52685 0.241567 
4.01994 4.45008 0.301202 
4.02165 3.97439 0.281053 
4.63834 4.4554 0.287244 
4.37761 3.87623 0.286752 
4.46042 3.42098 0.289079 
5.02273 3.90662 0.292604 
5.02531 3.42301 0.293321 
5.02773 2.78374 0.294235 
4.66465 2.79413 0.242691 
4.52669 2.76389 0.271584 
3.96803 2.78374 0.29425 
3.98367 2.31313 0.297874 
5.02773 2.30007 0.294235 
4.94682 1.67773 0.244362 
4.42868 1.66217 0.287674 
5.02589 1.18582 0.294098 
4.07925 1.5098 0.283005 
1.09394 5.04419 0.276143 
0.035645 5.08195 0.299855 
0.663904 4.54006 0.277139 
0.019159 4.56051 0.289437 
0.319729 4.65557 0.28618 
0.268166 4.46389 0.247254 
0.52582 4.479 0.246064 
4.70125 4.52677 0.241235 
1.07594 4.47527 0.275521 
0.59749 4.44679 0.27559 
0.6092 3.97361 0.274201 
-0.052389 4.44655 0.276353 
-0.034067 3.96355 0.279 
4.99101 4.46032 0.281098 
4.98503 3.98064 0.279763 
4.64287 3.97399 0.246278 
1.08542 3.99771 0.27559 
4.98674 3.92785 0.209436 
3.96304 3.89801 0.279717 
1.08187 3.89698 0.279862 
0.011112 3.9386 0.198663 
0.021372 3.42063 0.28074 
3.96616 3.41755 0.279405 
1.08168 3.42062 0.280694 
4.94959 3.41079 0.24521 
0.996576 3.33246 0.244966 
0.381378 3.31582 0.277925 
1.03473 2.83971 0.278969 
4.30799 3.31377 0.281068 
4.35572 2.8397 0.278954 
3.98917 2.8615 0.279724 
4.35163 2.83235 0.246056 
0.297913 3.3165 0.278161 
0.034578 2.79335 0.299332 
0.375923 2.83106 0.245728 
-0.008873 3.31875 0.281171 
0.766514 2.79059 0.245216 
4.99142 2.8397 0.278954 
0.646362 2.77331 0.286804 
1.07764 2.29038 0.2659 
1.09305 2.76452 0.277714 
3.98741 2.2811 0.216972 
0.019064 2.32062 0.289429 
4.35798 2.25225 0.245758 
4.98533 1.74906 0.279659 
4.99626 2.22367 0.278656 
0.597479 2.20733 0.275589 
1.08317 1.75568 0.275589 
4.35008 1.75959 0.276192 
0.52124 2.23045 0.279839 
-0.054331 2.20643 0.27877 
-0.035437 1.72845 0.280052 
0.541622 1.75027 0.279152 
4.0208 2.21119 0.300652 
4.06473 1.67129 0.245941 
0.981615 1.67333 0.244179 
0.021439 1.66436 0.280701 
1.05874 1.48266 0.228264 
0.95108 1.18523 0.281563 
3.96355 1.66097 0.278381 
1.08461 1.16911 0.232651 
3.95982 1.28614 0.186432 
3.966 1.17784 0.279419 
0.020729 1.18543 0.280098 
3.9894 0.625488 0.280693 
4.35267 1.10738 0.239365 
1.03562 1.08245 0.278755 
0.545591 1.08986 0.239372 
0.602797 0.602253 0.279335 
4.35483 0.604532 0.278084 
4.99141 1.083 0.27895 
4.99232 0.604539 0.278091 
-0.019745 1.08217 0.276237 
0.519075 0.604721 0.277946 
-0.018932 0.596956 0.267548 
1.07335 0.528915 0.277977 
4.34813 0.521625 0.278717 
3.96793 0.521797 0.278854 
5.02788 0.065312 0.279922 
4.93545 0.542926 0.235664 
0.013042 0.488386 0.277756 
0.029734 0.013414 0.278702 
1.086 0.05178 0.276894 
3.96822 0.03637 0.267456 
5.00773 4.49288 0.185456 
3.98561 3.99039 0.091786 
0.302061 3.33206 0.245919 
1.04316 2.81665 0.210175 
0.004248 1.14385 0.138275 
0.097961 1.1693 0.233437 
1.05697 1.08848 0.102253 
1.08028 0.604445 0.091972 
0.113764 0.589697 0.246422 
0.506138 0.542344 0.2397 
5.0411 0.530696 0.173416 
1.1084 0.011244 0.113556 
4.04526 3.91162 0.245545 
3.95604 3.77818 0.053918 
0.000534 3.39496 0.123513 
1.05613 3.32838 0.102479 
1.0595 2.83113 0.090958 
5.00478 3.35908 0.137811 
3.96588 2.85232 0.101891 
0.545532 2.2368 0.239532 
0.12009 2.22373 0.244186 
1.14156 1.74863 0.085915 
0.013975 1.6861 0.219364 
3.96298 3.33207 0.090318 
5.04472 2.82277 0.135284 
3.94424 1.72702 0.053242 
3.96179 1.10326 0.042503 
5.01645 3.95462 -0.0402 
3.91753 0.607881 0.089508 
5.04689 0.000284 0.125893 
1.14269 3.91491 0.04522 
5.06654 1.7025 -0.016237 
1.10036 1.09327 0.053467 
0.012051 -0.028952 0.113571 
3.94524 0.086861 0.101364 
5.07545 3.94224 -0.061902 
5.01692 2.87043 -0.040907 
-0.030249 2.29026 -0.048498 
0.002205 1.67002 0.103081 
-0.094694 4.49854 -0.04058 
3.94667 4.49663 0.100495 
0.074499 4.52128 0.127603 
-0.124369 2.81792 -0.232168 
1.10424 5.09338 0.138116 
3.98533 2.23168 0.10276 
-0.039177 0.558667 0.068176 
1.08268 2.29084 0.053886 
1.17157 5.08216 0.1083 
1.49114 4.67868 0.106843 
1.93629 5.04142 0.1083 
3.91959 5.06175 0.091172 
1.91925 4.5235 0.1083 
1.08703 4.53467 0.054299 
5.07216 4.51759 -0.051179 
-0.0072 3.92056 -0.051276 
3.06101 3.93447 0.05335 
3.90613 3.41507 0.10811 
3.81349 3.89778 0.1083 
3.05719 3.43929 0.1083 
1.10216 1.68903 0.052658 
3.35843 1.07019 0.107269 
2.44336 1.11207 0.054573 
3.21609 0.766688 0.107159 
2.48351 0.610234 0.053394 
3.03718 0.590769 0.053703 
5.11877 0.507015 -0.229794 
1.45263 0.087776 0.106724 
1.18293 0.60395 0.090126 
1.14079 0.082396 0.052643 
5.0865 5.12048 -0.063243 
3.41497 4.49552 0.058343 
3.42105 4.45307 0.112275 
3.41446 3.99736 0.111543 
1.16228 3.42261 0.088975 
2.42315 0.624576 0.09996 
2.43819 1.10512 0.090775 
1.70333 0.649817 0.099602 
1.71998 1.12892 0.086559 
1.94651 0.519906 0.086746 
1.78079 0.286894 0.085541 
1.76191 0.036861 0.053925 
0.687519 5.10355 -0.051558 
3.21955 5.06012 0.089921 
3.62006 4.71742 0.09147 
3.21955 4.53929 0.089913 
1.93484 5.12008 -0.062427 
1.99374 5.06346 0.088628 
3.1695 4.52192 0.05082 
3.71785 4.52289 0.056642 
1.99373 4.53596 0.088601 
1.11785 4.4774 0.089936 
2.50461 4.46951 0.090127 
2.50217 3.99278 0.089646 
3.35623 3.994 0.089795 
1.72862 4.46942 0.089318 
1.72683 3.99291 0.088677 
3.40139 3.97842 0.05314 
2.44652 4.46993 0.087388 
2.45533 3.97557 0.053468 
2.2175 3.90668 0.085565 
1.20447 3.90616 0.087533 
3.01274 3.87642 0.095864 
2.29695 3.93048 0.084535 
2.9907 3.41189 0.087831 
2.53976 3.43434 0.087052 
2.21789 3.42221 0.087487 
2.23016 3.39759 0.045198 
3.95696 3.41659 0.052476 
3.34741 3.33475 0.088655 
3.41829 2.82943 0.089668 
2.45554 3.33561 0.053971 
1.7281 3.333 0.09073 
2.44779 2.85173 0.088539 
1.6551 3.34746 0.089315 
1.72799 2.85394 0.090813 
1.92611 2.79357 0.046162 
2.27954 2.80641 0.061089 
1.67093 2.87122 0.088394 
2.99867 2.75511 0.089119 
2.2796 2.79368 0.090668 
2.97432 2.27724 0.089821 
2.21792 2.78393 0.08757 
1.77396 2.78304 0.088371 
1.16225 2.78354 0.08918 
1.16225 2.30027 0.08918 
3.89441 2.33279 0.098495 
2.21683 2.29982 0.087337 
3.06484 2.29322 0.085197 
1.67353 2.24614 0.045303 
3.34355 2.21211 0.091423 
2.44629 2.22843 0.087204 
2.95798 2.04766 0.06958 
2.50459 1.7473 0.090355 
3.4119 2.20969 0.110916 
3.41403 1.73162 0.08934 
1.674 1.74781 0.054451 
1.72902 2.22794 0.089043 
2.457 1.71091 0.045448 
3.35611 1.74778 0.089973 
1.72857 1.74731 0.09034 
2.22906 1.67191 0.052979 
1.16112 1.18576 0.088348 
3.03809 1.6913 0.045219 
3.06074 1.18591 0.088219 
3.91479 1.66389 0.089104 
2.22004 1.18431 0.090111 
2.30698 1.66398 0.089813 
3.00706 1.18527 0.088898 
5.07772 1.13152 -0.050966 
5.07613 1.08642 -0.231878 
1.66011 1.08297 0.089371 
3.36244 1.09205 0.053574 
3.40417 0.626879 0.090546 
3.36022 0.580342 0.044998 
3.46696 0.525618 0.089661 
3.00518 0.521767 0.089283 
2.28846 0.5223 0.08728 
2.28611 0.041772 0.089287 
3.06329 0.386255 0.090073 
2.20989 0.015229 0.078209 
3.00705 0.042867 0.088928 
2.99566 3.39786 0.054109 
1.73881 3.39782 0.045548 
3.35925 2.85816 0.086853 
1.69377 2.84058 0.045307 
-0.03793 2.79776 -0.228947 
3.37825 2.24676 0.045013 
3.04294 -0.002484 -0.075775 
1.94068 4.50892 0.04522 
2.45535 4.47633 0.053823 
3.92659 3.91145 0.053514 
5.07753 3.38512 -0.051845 
3.38012 1.72997 0.045601 
1.71734 1.15143 0.045296 
2.21114 -0.05773 -0.085653 
3.96274 0.001407 -0.028755 
3.20321 5.10517 -0.077224 
1.9883 3.93348 0.045495 
2.28059 3.93468 0.045198 
3.38409 2.81236 0.046516 
2.97929 2.24463 0.041176 
3.05747 1.17089 0.053612 
-0.150511 2.23862 -0.23118 
3.96323 5.13265 -0.052895 
2.27103 -0.019806 -0.242678 
-0.05652 -0.101143 -0.230005 
-0.010954 5.1193 -0.037333 
1.00145 -0.062004 -0.229204 
-0.12454 3.39999 -0.232011 
4.98601 4.47439 -0.051005 
4.97731 3.34233 -0.051312 
5.11877 -0.068807 -0.231157 
-0.064508 5.17625 -0.241099 
1.11544 5.19867 -0.242228 
5.01686 3.97496 -0.254439 
5.12607 5.15555 -0.232089 
-0.067564 4.58588 -0.229644 
5.10177 3.38371 -0.240975 
5.08406 2.2245 -0.231688 
5.07468 1.68478 -0.230757 
4.57065 -0.068981 -0.230938 
5.10498 4.53351 -0.23091 
5.01675 2.83607 -0.254456 
5.11969 3.96599 -0.240972 
-0.036442 2.25731 -0.242912 
3.51572 5.17609 -0.230678 
-0.066469 1.62677 -0.256557 
-0.076149 0.473944 -0.231447 
1.94412 5.16113 -0.230632 
-0.041437 1.07641 -0.292564 
2.90282 -0.069045 -0.230946 
3.93066 5.14568 -0.292567 
-0.023796 5.12752 -0.297641 
-0.041441 3.6791 -0.29256 
5.01826 3.31867 -0.292575 
5.00027 5.12745 -0.297484 
-0.041502 2.55784 -0.292542 
5.01481 2.19842 -0.242466 
5.01411 0.899559 -0.242622 
-0.041759 -0.024817 -0.291948 
5.01863 -0.024864 -0.291981 
2.07338 -0.024199 -0.292686 
3.57564 -0.024556 -0.292583 
2.48623 5.14568 -0.292582 
5.0002 4.05994 -0.297751 
-0.041548 2.89821 -0.292528 
5.0002 1.25614 -0.297752 
2.0139 5.10679 -0.297946 
5.0002 2.2575 -0.297752 
-0.002659 2.458 -0.297947 
-0.041574 3.15871 -0.29252 
0.768253 4.44047 -0.297946 
4.10975 3.51922 -0.297946 
0.55076 4.26022 -0.297946 
0.668383 4.22017 -0.297946 
0.689476 4.20014 -0.297946 
0.668177 4.20014 -0.297946 
0.728699 4.0199 -0.297946 
-0.002581 2.77821 -0.297947 
-0.023735 2.6981 -0.297657 
-0.023653 2.5579 -0.297657 
4.52669 2.76389 0.271584 
5.02773 2.78374 0.294235 
0.319729 4.65557 0.28618 
0.019159 4.56051 0.289437 
0.663904 4.54006 0.277139 
4.04592 4.52685 0.241567 
5.02758 4.53976 0.294141 
0.268166 4.46389 0.247254 
0.52582 4.479 0.246064 
4.70125 4.52677 0.241235 
4.37761 3.87623 0.286752 
5.02273 3.90662 0.292604 
5.02531 3.42301 0.293321 
4.46042 3.42098 0.289079 
4.94959 3.41079 0.24521 
4.35572 2.8397 0.278954 
4.99142 2.8397 0.278954 
3.96803 2.78374 0.29425 
3.98367 2.31313 0.297874 
0.034578 2.79335 0.299332 
1.05874 1.48266 0.228264 
0.95108 1.18523 0.281563 
4.07925 1.5098 0.283005 
3.966 1.17784 0.279419 
3.966 1.17784 0.279419 
0.545591 1.08986 0.239372 
4.01994 4.45008 0.301202 
4.02165 3.97439 0.281053 
1.08187 3.89698 0.279862 
0.6092 3.97361 0.274201 
0.011112 3.9386 0.198663 
3.96616 3.41755 0.279405 
0.297913 3.3165 0.278161 
-0.008873 3.31875 0.281171 
0.034578 2.79335 0.299332 
0.646362 2.77331 0.286804 
0.375923 2.83106 0.245728 
1.09305 2.76452 0.277714 
0.021439 1.66436 0.280701 
0.020729 1.18543 0.280098 
1.03562 1.08245 0.278755 
1.07335 0.528915 0.277977 
0.519075 0.604721 0.277946 
-0.018932 0.596956 0.267548 
4.93545 0.542926 0.235664 
5.02788 0.065312 0.279922 
1.086 0.05178 0.276894 
0.029734 0.013414 0.278702 
-0.034067 3.96355 0.279 
3.96304 3.89801 0.279717 
0.021372 3.42063 0.28074 
0.996576 3.33246 0.244966 
1.08168 3.42062 0.280694 
1.03473 2.83971 0.278969 
3.98917 2.8615 0.279724 
4.35163 2.83235 0.246056 
0.766514 2.79059 0.245216 
4.35798 2.25225 0.245758 
0.597479 2.20733 0.275589 
1.07764 2.29038 0.2659 
-0.054331 2.20643 0.27877 
0.52124 2.23045 0.279839 
1.08317 1.75568 0.275589 
0.981615 1.67333 0.244179 
4.35267 1.10738 0.239365 
5.02589 1.18582 0.294098 
4.63834 4.4554 0.287244 
4.98503 3.98064 0.279763 
4.64287 3.97399 0.246278 
0.381378 3.31582 0.277925 
4.30799 3.31377 0.281068 
0.019064 2.32062 0.289429 
5.02773 2.30007 0.294235 
4.99626 2.22367 0.278656 
0.541622 1.75027 0.279152 
4.0208 2.21119 0.300652 
4.06473 1.67129 0.245941 
-0.035437 1.72845 0.280052 
3.96355 1.66097 0.278381 
4.42868 1.66217 0.287674 
4.94682 1.67773 0.244362 
3.9894 0.625488 0.280693 
0.545591 1.08986 0.239372 
0.013042 0.488386 0.277756 
0.59749 4.44679 0.27559 
1.07594 4.47527 0.275521 
4.99101 4.46032 0.281098 
1.08542 3.99771 0.27559 
4.98533 1.74906 0.279659 
4.35008 1.75959 0.276192 
4.99141 1.083 0.27895 
-0.019745 1.08217 0.276237 
0.602797 0.602253 0.279335 
4.35483 0.604532 0.278084 
4.34813 0.521625 0.278717 
4.99232 0.604539 0.278091 
5.02831 5.06472 0.295053 
3.96793 0.521797 0.278854 
3.96822 0.03637 0.267456 
0.035645 5.08195 0.299855 
4.0393 4.92387 0.296006 
1.09394 5.04419 0.276143 
3.96743 5.06476 0.295098 
-0.052389 4.44655 0.276353 
3.21609 0.766688 0.107159 
2.48351 0.610234 0.053394 
1.08703 4.53467 0.054299 
3.94667 4.49663 0.100495 
3.42105 4.45307 0.112275 
3.98561 3.99039 0.091786 
3.81349 3.89778 0.1083 
3.90613 3.41507 0.10811 
3.91959 5.06175 0.091172 
1.93629 5.04142 0.1083 
1.91925 4.5235 0.1083 
3.62006 4.71742 0.09147 
3.21955 4.53929 0.089913 
3.41497 4.49552 0.058343 
1.11785 4.4774 0.089936 
3.41446 3.99736 0.111543 
1.14269 3.91491 0.04522 
1.16228 3.42261 0.088975 
3.05719 3.43929 0.1083 
3.96298 3.33207 0.090318 
1.05613 3.32838 0.102479 
1.0595 2.83113 0.090958 
2.44779 2.85173 0.088539 
1.92611 2.79357 0.046162 
3.96588 2.85232 0.101891 
1.77396 2.78304 0.088371 
3.96588 2.85232 0.101891 
3.41829 2.82943 0.089668 
2.21792 2.78393 0.08757 
3.89441 2.33279 0.098495 
1.08268 2.29084 0.053886 
1.14156 1.74863 0.085915 
3.98533 2.23168 0.10276 
2.44629 2.22843 0.087204 
3.94424 1.72702 0.053242 
1.10216 1.68903 0.052658 
1.10036 1.09327 0.053467 
1.18293 0.60395 0.090126 
3.96179 1.10326 0.042503 
3.91753 0.607881 0.089508 
1.18293 0.60395 0.090126 
2.42315 0.624576 0.09996 
1.70333 0.649817 0.099602 
3.94524 0.086861 0.101364 
3.36022 0.580342 0.044998 
3.46696 0.525618 0.089661 
3.06329 0.386255 0.090073 
1.72862 4.46942 0.089318 
1.20447 3.90616 0.087533 
2.2175 3.90668 0.085565 
2.21789 3.42221 0.087487 
2.23016 3.39759 0.045198 
2.9907 3.41189 0.087831 
3.01274 3.87642 0.095864 
2.53976 3.43434 0.087052 
3.34741 3.33475 0.088655 
1.16225 2.78354 0.08918 
2.21683 2.29982 0.087337 
1.16225 2.30027 0.08918 
2.2796 2.79368 0.090668 
1.67353 2.24614 0.045303 
1.72902 2.22794 0.089043 
2.44629 2.22843 0.087204 
3.34355 2.21211 0.091423 
3.35611 1.74778 0.089973 
2.22906 1.67191 0.052979 
2.457 1.71091 0.045448 
1.72857 1.74731 0.09034 
3.36244 1.09205 0.053574 
2.44336 1.11207 0.054573 
3.35843 1.07019 0.107269 
2.43819 1.10512 0.090775 
3.40417 0.626879 0.090546 
1.94651 0.519906 0.086746 
3.00705 0.042867 0.088928 
1.14079 0.082396 0.052643 
1.76191 0.036861 0.053925 
1.45263 0.087776 0.106724 
2.28611 0.041772 0.089287 
3.21955 5.06012 0.089921 
1.99374 5.06346 0.088628 
1.49114 4.67868 0.106843 
3.1695 4.52192 0.05082 
2.50461 4.46951 0.090127 
2.44652 4.46993 0.087388 
2.45533 3.97557 0.053468 
3.06101 3.93447 0.05335 
1.72799 2.85394 0.090813 
1.7281 3.333 0.09073 
1.6551 3.34746 0.089315 
1.67093 2.87122 0.088394 
3.4119 2.20969 0.110916 
3.41403 1.73162 0.08934 
1.674 1.74781 0.054451 
3.03809 1.6913 0.045219 
2.30698 1.66398 0.089813 
3.91479 1.66389 0.089104 
2.22004 1.18431 0.090111 
1.16112 1.18576 0.088348 
3.00706 1.18527 0.088898 
1.71998 1.12892 0.086559 
1.66011 1.08297 0.089371 
2.28846 0.5223 0.08728 
3.00518 0.521767 0.089283 
1.17157 5.08216 0.1083 
1.99373 4.53596 0.088601 
2.50217 3.99278 0.089646 
3.35623 3.994 0.089795 
2.29695 3.93048 0.084535 
3.01274 3.87642 0.095864 
2.99566 3.39786 0.054109 
2.45554 3.33561 0.053971 
3.34741 3.33475 0.088655 
3.35925 2.85816 0.086853 
2.99867 2.75511 0.089119 
3.41829 2.82943 0.089668 
2.97432 2.27724 0.089821 
3.06484 2.29322 0.085197 
2.50459 1.7473 0.090355 
3.06074 1.18591 0.088219 
1.72683 3.99291 0.088677 
2.20989 0.015229 0.078209 
-0.076149 0.473944 -0.231447 
-0.041437 1.07641 -0.292564 
-0.041759 -0.024817 -0.291948 
-0.002659 2.458 -0.297947 
4.10975 3.51922 -0.297946 
5.0002 1.25614 -0.297752 
3.81349 3.89778 0.1083 
3.95604 3.77818 0.053918 
3.92659 3.91145 0.053514 
4.04526 3.91162 0.245545 
3 0 1 2
3 1 3 2
3 2 3 4
3 5 6 7
3 8 9 10
3 11 10 9
3 12 13 14
3 347 15 16
3 348 347 16
3 348 16 17
3 18 19 20
3 20 19 21
3 22 23 24
3 23 25 26
3 23 26 24
3 349 350 27
3 351 349 28
3 352 29 353
3 30 31 32
3 33 34 354
3 355 354 34
3 355 34 32
3 35 356 36
3 36 356 37
3 30 32 38
3 39 357 358
3 8 40 9
3 41 42 43
3 40 44 9
3 45 41 43
3 46 359 360
3 47 48 49
3 50 51 361
3 50 52 53
3 52 50 44
3 54 55 56
3 54 57 55
3 49 48 58
3 51 59 361
3 362 13 363
3 58 48 56
3 60 61 62
3 364 63 365
3 60 366 64
3 60 64 61
3 65 66 67
3 61 68 69
3 66 65 70
3 71 72 73
3 71 73 74
3 65 75 70
3 69 68 74
3 70 75 76
3 77 78 79
3 79 78 80
3 19 81 21
3 367 368 82
3 369 83 84
3 80 78 85
3 21 370 20
3 371 86 87
3 88 89 90
3 91 87 86
3 87 91 92
3 93 92 91
3 372 94 95
3 94 96 95
3 88 90 97
3 98 99 100
3 101 98 100
3 97 102 103
3 104 97 103
3 100 99 105
3 22 24 30
3 28 349 27
3 29 106 353
3 373 107 374
3 7 6 37
3 375 376 377
3 378 46 360
3 379 108 380
3 381 382 383
3 109 382 384
3 385 110 386
3 368 386 111
3 112 387 388
3 112 388 113
3 389 390 114
3 389 114 115
3 116 391 392
3 393 394 117
3 395 377 376
3 396 357 118
3 119 378 396
3 377 120 397
3 398 399 397
3 121 400 122
3 122 400 109
3 123 46 363
3 401 124 402
3 383 382 403
3 402 364 14
3 63 404 365
3 125 405 406
3 126 407 408
3 127 406 409
3 410 128 385
3 127 410 367
3 84 411 412
3 352 373 413
3 414 415 39
3 39 118 357
3 398 108 416
3 416 108 383
3 108 379 383
3 401 378 129
3 362 417 402
3 403 109 400
3 13 130 363
3 402 14 13
3 130 13 12
3 403 382 109
3 125 406 418
3 404 419 365
3 404 420 419
3 125 126 408
3 125 408 421
3 422 131 423
3 409 421 410
3 410 127 409
3 424 128 421
3 423 131 425
3 423 425 426
3 423 426 427
3 385 128 110
3 111 82 368
3 428 84 132
3 115 429 389
3 115 430 388
3 351 28 431
3 351 431 432
3 352 413 29
3 106 29 433
3 29 413 415
3 28 376 431
3 106 433 133
3 434 376 375
3 415 374 118
3 39 415 118
3 397 108 398
3 46 378 417
3 362 402 13
3 125 418 126
3 422 404 63
3 405 125 421
3 435 436 427
3 410 421 128
3 436 423 427
3 82 111 387
3 412 411 437
3 387 111 429
3 111 438 429
3 439 429 115
3 440 428 441
3 442 440 391
3 114 430 115
3 439 115 388
3 441 391 440
3 121 398 400
3 123 363 130
3 428 134 441
3 116 392 135
3 443 353 106
3 432 434 136
3 401 129 124
3 364 402 124
3 137 435 427
3 127 367 138
3 425 83 369
3 138 367 82
3 84 83 132
3 430 139 394
3 444 140 445
3 373 352 107
3 433 414 39
3 375 136 434
3 358 141 39
3 121 399 398
3 123 130 142
3 384 122 109
3 418 143 126
3 137 427 412
3 128 144 110
3 425 131 83
3 110 111 386
3 391 116 442
3 441 134 444
3 350 446 145
3 447 146 352
3 350 147 27
3 107 118 374
3 358 359 141
3 380 148 381
3 418 381 143
3 143 407 126
3 82 387 112
3 442 116 437
3 149 446 448
3 39 133 433
3 123 359 46
3 63 150 422
3 114 151 430
3 397 120 108
3 419 130 12
3 406 152 384
3 424 144 128
3 447 449 146
3 145 147 350
3 147 450 27
3 133 39 141
3 120 380 108
3 422 150 131
3 83 131 132
3 111 110 438
3 428 132 134
3 151 114 390
3 388 393 117
3 394 139 117
3 147 145 450
3 352 146 107
3 396 118 119
3 124 63 364
3 139 430 151
3 149 448 432
3 450 145 395
3 136 375 399
3 407 144 424
3 438 110 390
3 134 140 444
3 445 135 392
3 153 154 155
3 449 156 146
3 155 154 157
3 153 158 154
3 159 106 133
3 395 160 377
3 161 162 163
3 162 161 164
3 152 406 127
3 165 127 138
3 138 82 112
3 166 167 168
3 168 167 169
3 451 452 170
3 113 388 117
3 171 116 135
3 172 173 174
3 175 449 443
3 149 432 453
3 176 177 146
3 454 455 178
3 454 178 456
3 457 458 119
3 399 121 179
3 110 151 390
3 180 181 182
3 181 183 182
3 173 172 184
3 184 172 185
3 185 172 186
3 149 187 446
3 459 188 189
3 189 188 190
3 460 461 191
3 459 189 454
3 188 192 193
3 462 176 194
3 193 192 195
3 146 462 194
3 462 463 176
3 453 432 196
3 197 198 199
3 432 136 196
3 464 197 199
3 200 465 201
3 466 176 202
3 203 200 201
3 203 201 204
3 465 467 201
3 205 206 468
3 207 208 209
3 208 210 209
3 205 468 211
3 208 212 210
3 469 213 458
3 470 214 215
3 216 217 218
3 471 472 219
3 217 220 221
3 217 221 218
3 473 474 222
3 219 472 223
3 470 215 475
3 122 384 152
3 224 225 226
3 227 474 228
3 476 229 230
3 231 477 478
3 479 476 232
3 478 233 231
3 476 230 232
3 225 232 226
3 63 480 150
3 234 481 482
3 235 236 237
3 236 238 237
3 483 239 240
3 241 234 482
3 484 242 243
3 235 237 244
3 242 245 243
3 483 240 485
3 237 238 244
3 246 486 247
3 248 249 250
3 246 247 251
3 252 251 253
3 248 252 253
3 254 137 412
3 255 437 116
3 256 487 488
3 489 257 490
3 112 113 138
3 491 138 113
3 257 258 490
3 256 488 182
3 259 166 168
3 452 492 493
3 490 260 494
3 261 262 263
3 495 170 264
3 495 264 496
3 260 497 494
3 265 184 185
3 497 266 494
3 261 263 266
3 185 186 265
3 196 498 453
3 499 136 179
3 500 501 502
3 503 267 504
3 119 213 378
3 119 458 213
3 268 501 179
3 268 502 501
3 267 503 505
3 506 216 218
3 506 218 269
3 228 270 507
3 148 271 381
3 478 224 233
3 227 508 222
3 507 152 509
3 510 222 508
3 511 508 509
3 511 512 513
3 514 515 272
3 516 517 518
3 250 249 489
3 519 520 521
3 520 522 492
3 495 451 170
3 495 134 523
3 524 493 491
3 134 495 496
3 262 184 265
3 264 170 525
3 526 527 528
3 525 529 273
3 530 191 531
3 191 461 274
3 453 498 532
3 498 461 532
3 533 275 534
3 177 176 466
3 275 535 536
3 276 118 107
3 276 537 457
3 179 136 399
3 141 359 277
3 538 539 268
3 268 540 541
3 268 270 538
3 122 270 541
3 270 474 538
3 510 473 222
3 63 124 480
3 542 272 278
3 542 278 543
3 544 165 516
3 545 517 546
3 278 545 547
3 548 546 516
3 549 279 548
3 548 520 550
3 548 551 522
3 520 548 522
3 551 279 493
3 519 495 523
3 279 552 493
3 520 492 452
3 170 553 554
3 113 117 526
3 526 280 527
3 273 140 525
3 140 281 445
3 191 555 460
3 282 530 156
3 555 149 453
3 463 530 533
3 533 556 275
3 463 533 176
3 498 274 461
3 194 176 146
3 443 106 159
3 274 498 535
3 275 274 535
3 176 533 534
3 534 275 536
3 534 536 557
3 176 558 202
3 536 537 557
3 537 558 557
3 537 202 558
3 202 107 466
3 283 136 499
3 283 499 500
3 559 536 284
3 536 559 504
3 504 537 536
3 161 560 561
3 284 500 502
3 469 537 267
3 559 284 502
3 267 505 502
3 267 213 469
3 213 129 378
3 539 562 268
3 267 562 563
3 563 564 285
3 268 541 270
3 285 565 566
3 473 510 565
3 286 565 567
3 272 480 568
3 272 150 480
3 152 511 509
3 286 567 508
3 286 513 514
3 272 286 514
3 150 272 542
3 512 511 518
3 513 517 569
3 272 515 278
3 569 278 515
3 278 131 543
3 516 546 517
3 131 278 547
3 545 287 570
3 545 550 287
3 520 287 550
3 548 279 551
3 255 254 437
3 254 412 437
3 279 138 552
3 495 519 521
3 170 554 525
3 191 274 531
3 274 556 531
3 556 274 275
3 536 571 283
3 202 537 276
3 107 202 276
3 395 145 160
3 571 136 283
3 536 283 284
3 500 284 283
3 268 179 540
3 502 562 267
3 213 267 563
3 268 562 502
3 129 213 563
3 121 540 179
3 566 563 285
3 122 507 270
3 564 473 565
3 285 564 565
3 122 152 507
3 228 474 270
3 474 227 222
3 568 565 286
3 508 511 513
3 143 288 407
3 508 513 286
3 568 286 272
3 518 511 544
3 544 127 165
3 516 518 544
3 569 517 545
3 278 569 545
3 132 131 547
3 165 138 549
3 570 287 519
3 570 519 132
3 287 520 519
3 549 138 279
3 452 493 553
3 452 553 170
3 493 524 553
3 526 491 113
3 572 529 553
3 289 156 449
3 572 290 529
3 273 281 140
3 281 135 445
3 377 160 120
3 123 277 359
3 407 288 144
3 151 291 139
3 187 292 446
3 289 449 175
3 282 191 530
3 175 443 159
3 446 292 145
3 381 271 143
3 291 117 139
3 117 293 526
3 380 294 148
3 277 123 142
3 290 273 529
3 289 282 156
3 295 159 133
3 296 277 142
3 293 280 526
3 297 135 281
3 280 572 527
3 298 292 187
3 299 187 149
3 300 295 133
3 120 294 380
3 255 137 254
3 297 171 135
3 299 555 191
3 175 301 289
3 292 298 302
3 292 302 145
3 303 141 277
3 296 303 277
3 304 420 435
3 145 302 160
3 141 300 133
3 304 130 419
3 305 137 255
3 306 297 281
3 306 281 273
3 307 159 295
3 296 142 308
3 130 308 142
3 137 305 435
3 309 300 141
3 175 159 307
3 271 310 143
3 289 311 282
3 149 555 299
3 160 294 120
3 144 312 110
3 301 175 307
3 151 313 291
3 310 288 143
3 304 435 305
3 288 312 144
3 282 314 191
3 420 304 419
3 315 313 110
3 110 313 151
3 290 316 273
3 293 117 291
3 314 299 191
3 301 317 289
3 318 298 187
3 311 314 282
3 317 311 289
3 160 302 319
3 141 303 309
3 320 303 296
3 320 296 308
3 171 255 116
3 306 273 316
3 299 318 187
3 307 295 300
3 160 319 294
3 321 301 307
3 148 294 271
3 271 322 310
3 308 130 304
3 323 304 305
3 288 310 312
3 110 312 315
3 324 255 171
3 573 574 325
3 291 313 575
3 324 171 297
3 326 324 297
3 290 327 316
3 327 328 316
3 328 306 316
3 297 306 326
3 575 293 291
3 293 327 280
3 280 290 572
3 329 314 311
3 317 329 311
3 330 307 300
3 300 309 303
3 300 303 320
3 294 331 271
3 323 308 304
3 332 323 305
3 332 305 255
3 324 332 255
3 328 326 306
3 327 290 280
3 299 333 318
3 299 314 333
3 298 318 302
3 330 321 307
3 334 308 323
3 310 322 335
3 575 327 293
3 319 336 294
3 294 336 331
3 271 331 322
3 334 320 308
3 334 323 332
3 321 317 301
3 302 318 319
3 330 300 320
3 310 335 312
3 332 324 326
3 314 329 333
3 318 333 337
3 333 329 337
3 338 317 321
3 329 317 338
3 329 338 337
3 318 337 339
3 321 330 338
3 339 337 340
3 337 341 340
3 339 340 342
3 340 341 342
3 339 342 343
3 342 341 343
3 341 337 343
3 318 339 319
3 330 320 338
3 337 338 343
3 319 339 343
3 319 343 336
3 336 343 344
3 336 344 331
3 343 338 335
3 331 344 345
3 331 345 322
3 343 335 344
3 320 334 338
3 345 344 346
3 344 335 346
3 576 577 578
3 322 345 346
3 338 334 332
3 346 335 322
3 335 332 312
3 312 332 315
3 574 578 325
3 332 326 328
3 332 328 327
3 332 327 575
3 579 580 581
3 582 581 580
