ply
format ascii 1.0
comment VCGLIB generated
comment TextureFile Dungeons_Texture_01.png
element vertex 231
property float x
property float y
property float z
property float nx
property float ny
property float nz
property uchar red
property uchar green
property uchar blue
property uchar alpha
property float texture_u
property float texture_v
element face 208
property list uchar int vertex_indices
end_header
2.64138 -0.16552 0.417651 0.15582 -0.01057695 0.9877289 95 84 71 255 0.037179 0.278335
1.416627 -0.16552 0.417651 0.1919651 0.0004792602 0.9814017 95 84 71 255 0.037179 0.278335
3.951163 -0.16552 0.417651 -0.3684049 0.001233535 0.9296646 95 84 71 255 0.037179 0.278335
0.595888 -0.16552 0.417651 0.3923947 0.01925107 0.9195954 95 84 71 255 0.037179 0.278335
1.852875 -0.16552 0.417651 0.1491337 -0.01632755 0.9886823 95 84 71 255 0.037179 0.278335
3.114616 -0.16552 0.417651 0.183687 -0.02856676 0.9825696 95 84 71 255 0.037179 0.278335
4.343847 -0.16552 0.417651 0.3684469 0.001806801 0.9296471 95 84 71 255 0.037179 0.278335
0.534486 -0.16552 0.496251 0 0 1 123 106 90 255 0.036449 0.299488
0.163732 -0.16552 0.496251 0 0 1 123 106 90 255 0.036449 0.299488
1.791474 -0.16552 0.496251 0 -0.07253539 0.9973659 95 84 71 255 0.036449 0.276557
1.478032 -0.16552 0.496251 0.01497869 -0.06622946 0.997692 95 84 71 255 0.036449 0.276557
3.053214 -0.16552 0.496251 0 -0.07002436 0.9975453 123 106 90 255 0.036449 0.299488
2.702785 -0.16552 0.496251 0.01366966 -0.0628692 0.9979281 123 106 90 255 0.036449 0.299488
4.282446 -0.16552 0.496251 0 -0.01102553 0.9999393 95 84 71 255 0.036449 0.276557
4.012568 -0.16552 0.496251 0.001531596 -0.01049612 0.9999437 95 84 71 255 0.036449 0.276557
4.405252 -0.16552 0.496251 -0.8086013 -0.007087015 0.5883144 95 84 71 255 0.037179 0.278335
4.836272 -0.16552 0.496251 0.002160438 0.01384013 0.9999019 123 106 90 255 0.036449 0.299488
2.579978 -0.16552 0.496251 0 0 1 95 84 71 255 0.036449 0.276557
1.914281 -0.16552 0.496251 -0.7878706 -0.01982255 0.6155217 95 84 71 255 0.037179 0.278335
1.355226 -0.16552 0.496251 0 0.02700766 0.9996352 123 106 90 255 0.036449 0.299488
0.657293 -0.16552 0.496251 -0.8263369 -0.03422237 0.5621353 95 84 71 255 0.037179 0.278335
3.889761 -0.16552 0.496251 0.7880222 -0.009061193 0.6155803 95 84 71 255 0.037179 0.278335
3.176021 -0.16552 0.496251 -0.7880295 0 0.6156375 95 84 71 255 0.037179 0.278335
4.836272 -1.837257 0.496251 0 -0.0169971 0.9998556 123 106 90 255 0.036449 0.299488
4.458255 -1.837257 0.496251 -0.002446871 -0.01570507 0.9998737 123 106 90 255 0.036449 0.299488
4.39685 -1.837257 0.417651 0.01939423 0.01118127 0.9997494 95 84 71 255 0.037179 0.278335
4.335452 -1.837257 0.553632 -0.01167001 0.08097805 0.9966475 95 84 71 255 0.036449 0.276557
4.097277 -1.837257 0.553632 -0.799851 -0.04731079 0.5983312 95 84 71 255 0.037179 0.278335
3.995556 -1.837257 0.417651 -0.4659738 -0.0292656 0.8843144 95 84 71 255 0.037179 0.278335
3.934155 -1.837257 0.444752 0.6143006 0.02251977 0.7887506 95 84 71 255 0.037179 0.278335
3.163852 -1.837257 0.451181 -0.5080841 0.005397328 0.8612906 95 84 71 255 0.037179 0.278335
3.020878 -1.837257 0.42837 0.4765405 -0.003347185 0.8791462 95 84 71 255 0.037179 0.278335
2.9692 -1.837257 0.542328 0.03997066 0.193425 0.9803005 123 106 90 255 0.036449 0.299488
2.706311 -1.837257 0.553047 0.06191867 0.1777512 0.9821256 123 106 90 255 0.036449 0.299488
2.615769 -1.837257 0.417651 0.1447865 0.01268695 0.9893816 95 84 71 255 0.037179 0.278335
2.554372 -1.837257 0.496251 0.7873745 -0.04200806 0.6150421 95 84 71 255 0.037179 0.278335
1.970704 -1.837257 0.496251 -0.6627838 -0.02776125 0.748296 95 84 71 255 0.037179 0.278335
1.881963 -1.837257 0.417651 -0.3836299 -0.0126707 0.9234 95 84 71 255 0.037179 0.278335
1.757025 -1.837257 0.496251 -0.01677504 0.0723383 0.9972391 95 84 71 255 0.036449 0.276557
1.452966 -1.837257 0.496251 -0.5935714 0.09738124 0.7988679 95 84 71 255 0.037179 0.278335
1.391565 -1.837257 0.417651 0.4331078 -0.05344552 0.8997562 95 84 71 255 0.037179 0.278335
1.330163 -1.837257 0.496251 0.001704195 -0.03705584 0.9993117 123 106 90 255 0.036449 0.299488
0.708307 -1.837257 0.496251 -0.7343488 0.01291248 0.6786495 95 84 71 255 0.037179 0.278335
0.595888 -1.837257 0.417651 0.3920649 -0.04017548 0.9190599 95 84 71 255 0.037179 0.278335
0.534486 -1.837257 0.478204 0.7001108 -0.07647584 0.709927 95 84 71 255 0.037179 0.278335
0.163732 -1.837257 0.478204 -0.002450702 -0.02683628 0.9996369 123 106 90 255 0.036449 0.299488
4.836272 -1.12153 0.508418 -0.000190972 -0.006228699 0.9999806 123 106 90 255 0.036449 0.299488
4.4166 -0.979036 0.508418 -0.0001909718 0.004422846 0.9999902 123 106 90 255 0.036449 0.299488
4.355195 -0.979036 0.417651 -0.2950332 -0.00234056 0.9554842 95 84 71 255 0.037179 0.278335
4.293797 -0.979036 0.487281 -0.006764412 0.01833085 0.9998091 95 84 71 255 0.036449 0.276557
4.002181 -1.068662 0.487281 -0.7725045 -0.02230221 0.6346176 95 84 71 255 0.037179 0.278335
3.940776 -1.068662 0.417651 0.2967303 -0.004488973 0.9549508 95 84 71 255 0.037179 0.278335
3.879378 -1.068662 0.496251 0.788061 0.002928234 0.6155903 95 84 71 255 0.037179 0.278335
3.176021 -1.12153 0.496251 -0.7879662 -0.01268135 0.615588 95 84 71 255 0.037179 0.278335
3.114616 -1.12153 0.417651 -0.1992654 -0.003319157 0.9799399 95 84 71 255 0.037179 0.278335
2.962894 -1.128043 0.44057 -0.001877802 0.01561103 0.9998764 123 106 90 255 0.036449 0.299488
2.713416 -1.158052 0.44057 0.02697085 0.03451013 0.9990404 123 106 90 255 0.036449 0.299488
2.652011 -1.158052 0.417651 0.2716046 -0.005785727 0.9623916 95 84 71 255 0.037179 0.278335
2.590609 -1.158052 0.496251 0.7879405 -0.01679029 0.6155224 95 84 71 255 0.037179 0.278335
1.934737 -0.978566 0.496251 -0.7490181 -0.01857117 0.6622892 95 84 71 255 0.037179 0.278335
1.873331 -0.978566 0.417651 -0.2465242 0.001320048 0.9691358 95 84 71 255 0.037179 0.278335
1.81193 -0.955667 0.438786 -0.00119995 -0.02183499 0.9997609 95 84 71 255 0.036449 0.276557
1.526008 -1.09863 0.438786 -0.5073571 0.004638805 0.8617234 95 84 71 255 0.037179 0.278335
1.464603 -1.12153 0.417651 0.06424239 0.03602662 0.9972838 95 84 71 255 0.037179 0.278335
1.399472 -1.12153 0.52208 0.8192221 -0.02227229 0.5730438 95 84 71 255 0.037179 0.278335
0.708217 -1.203525 0.52208 -0.861746 -0.0252208 0.5067128 95 84 71 255 0.037179 0.278335
0.646812 -1.203525 0.417651 -0.379705 -0.01701635 0.9249511 95 84 71 255 0.037179 0.278335
0.585411 -1.203525 0.496251 -0.001633931 -0.01789227 0.9998386 123 106 90 255 0.036449 0.299488
0.163732 -1.12153 0.496251 -0.001633914 -0.008402809 0.9999634 123 106 90 255 0.036449 0.299488
3.03762 -0.802815 0.451515 0.01050076 -0.05344696 0.9985155 123 106 90 255 0.036449 0.299488
3.003577 -1.431725 0.46091 0.5596457 0.01508615 0.8285947 95 84 71 255 0.037179 0.278335
5 -0 0.6067 0.7071068 0.7071068 0 72 64 55 255 0.037908 0.253536
0 -0 0.6067 0 0 1 95 84 71 255 0.037908 0.279064
5 -2.002781 0.6067 0 0 1 95 84 71 255 0.037908 0.279064
0 -2.002781 0.6067 -0.7071068 -0.7071068 0 72 64 55 255 0.037908 0.253536
4.71463 -0.286192 0.6067 0 0 1 95 84 71 255 0.037908 0.279064
0.278095 -0.270296 0.6067 0 0 1 95 84 71 255 0.037908 0.279064
0.287106 -1.697195 0.6067 0 0 1 95 84 71 255 0.037908 0.279064
4.722679 -1.716274 0.6067 -0.6650985 0.6828749 0.3022017 72 64 55 255 0.037908 0.253536
4.671432 -0.32939 0.414019 -0.6679881 -0.684819 0.2912299 72 64 55 255 0.037908 0.253536
0.321297 -0.313496 0.414019 0.6567735 -0.6938863 0.2952462 72 64 55 255 0.037908 0.253536
0.330303 -1.653996 0.414019 0.6544887 0.6977007 0.2913044 72 64 55 255 0.037908 0.253536
4.679482 -1.673077 0.414019 -0.6667082 0.6848361 0.2941083 72 64 55 255 0.037908 0.253536
5 0 0 0.7071068 0.7071068 0 72 64 55 255 0.037908 0.253536
0 0 0 -0.7071068 0.7071068 0 72 64 55 255 0.037908 0.253536
5 -2.002781 -0 0.7071068 -0.7071068 0 72 64 55 255 0.037908 0.253536
0 -2.002781 -0 -0.7071068 -0.7071068 0 72 64 55 255 0.037908 0.253536
0.253983 -0.758284 0.414019 0.9736019 -0.04865909 0.2230058 72 64 55 255 0.037908 0.253536
0.210785 -0.739555 0.6067 0 0 1 95 84 71 255 0.037908 0.279064
0 -0.639927 0.6067 0 0 1 95 84 71 255 0.037908 0.279064
0 -0.648169 -0 -1 0 0 72 64 55 255 0.037908 0.253536
0 -1.301004 -0 -1 0 0 72 64 55 255 0.037908 0.253536
0 -1.307987 0.6067 0 0 1 95 84 71 255 0.037908 0.279064
0.210785 -1.223568 0.6067 0 0 1 95 84 71 255 0.037908 0.279064
0.253983 -1.207697 0.414019 0.9709963 0.08232848 0.2244732 72 64 55 255 0.037908 0.253536
4.746017 -1.240807 0.414019 -0.971666 0.07425388 0.2243915 72 64 55 255 0.037908 0.253536
4.789219 -1.257751 0.6067 0 0 1 95 84 71 255 0.037908 0.279064
5 -1.347891 0.6067 0 0 1 95 84 71 255 0.037908 0.279064
5 -1.340435 -0 1 0 0 72 64 55 255 0.037908 0.253536
5 -0.680576 -0 1 0 0 72 64 55 255 0.037908 0.253536
5 -0.67174 0.6067 1 0 0 72 64 55 255 0.037908 0.253536
4.789219 -0.778576 0.6067 0 0 1 95 84 71 255 0.037908 0.279064
4.746017 -0.79866 0.414019 -0.973353 -0.05103784 0.22356 72 64 55 255 0.037908 0.253536
4.154053 -2.002781 -0 0 -1 0 72 64 55 255 0.037908 0.253536
4.160065 -2.002781 0.6067 0 0 1 95 84 71 255 0.037908 0.279064
4.119995 -1.83215 0.6067 0 0 1 95 84 71 255 0.037908 0.279064
4.073753 -1.748795 0.414019 -0.06641154 0.9451553 0.3197984 72 64 55 255 0.037908 0.253536
1.241737 -1.748795 0.414019 0.03363931 0.974682 0.2210507 72 64 55 255 0.037908 0.253536
1.2272 -1.791992 0.6067 0.06615417 0.971498 0.2276299 72 64 55 255 0.037908 0.253536
1.14986 -2.002781 0.6067 0 0 1 95 84 71 255 0.037908 0.279064
1.156258 -2.002781 -0 0 -1 0 72 64 55 255 0.037908 0.253536
0.954239 -0.253986 0.414019 0.05919779 -0.9197844 0.3879334 72 64 55 255 0.037908 0.253536
0.896095 -0.133812 0.6067 0 0 1 95 84 71 255 0.037908 0.279064
0.822163 -0 0.6067 0 0 1 95 84 71 255 0.037908 0.279064
0.83136 0 0 0 1 0 72 64 55 255 0.037908 0.253536
4.110241 -0.253986 0.414019 -0.04333583 -0.9742747 0.2211579 72 64 55 255 0.037908 0.253536
4.122406 -0.210789 0.6067 -0.08424623 -0.9697016 0.2293065 72 64 55 255 0.037908 0.253536
4.187115 -0 0.6067 0 1 0 72 64 55 255 0.037908 0.253536
4.181763 0 0 0 1 0 72 64 55 255 0.037908 0.253536
0.63496 -0.237886 0.6067 0.1648663 -0.9207545 0.3535962 72 64 55 255 0.037908 0.253536
1.294025 -0.210789 0.6067 -0.05605754 -0.9485853 0.311518 72 64 55 255 0.037908 0.253536
4.426613 -1.751562 0.6067 0 0 1 95 84 71 255 0.037908 0.279064
3.696495 -1.791992 0.6067 0 0 1 95 84 71 255 0.037908 0.279064
0.993783 -1.837257 0.42894 0.3246143 -0.04192277 0.944917 95 84 71 255 0.036449 0.276557
1.010427 -1.162724 0.454769 -0.06009156 0.00721303 0.9981669 95 84 71 255 0.036449 0.276557
0.980623 -0.16552 0.42894 -0.3891527 0.01397744 0.9210672 95 84 71 255 0.036449 0.276557
2.182256 -1.837259 0.42894 -0.2762231 0.02111515 0.9608616 95 84 71 255 0.036449 0.276557
2.249352 -1.075274 0.42894 0.08358628 -0.02599785 0.9961614 95 84 71 255 0.036449 0.276557
2.211779 -0.165518 0.42894 0.4444452 0.0230093 0.8955106 95 84 71 255 0.036449 0.276557
3.523175 -1.837257 0.380533 0.01524995 -0.06452933 0.9977993 95 84 71 255 0.036449 0.276557
3.500596 -1.094089 0.42894 0.1771311 -0.04105623 0.9833305 95 84 71 255 0.036449 0.276557
3.505987 -0.165518 0.42894 -0.3644473 0.002614351 0.9312204 95 84 71 255 0.036449 0.276557
0.910019 -0.165521 0.496251 0.5025382 0.03866575 0.86369 95 84 71 255 0.036449 0.276557
0.945916 -1.174495 0.52208 0.3985634 -0.005228795 0.9171259 95 84 71 255 0.036449 0.276557
0.934099 -1.837259 0.496251 0.2718072 -0.04295775 0.9613925 95 84 71 255 0.036449 0.276557
1.043349 -1.837257 0.496251 -0.7939757 -0.001364493 0.6079479 95 84 71 255 0.036449 0.276557
1.064 -1.152948 0.52208 -0.7729619 -0.002943909 0.6344456 95 84 71 255 0.036449 0.276557
1.039256 -0.16552 0.496251 -0.001221595 0.02654769 0.9996468 123 106 90 255 0.036449 0.299488
2.157411 -0.165518 0.496251 0 0 1 123 106 90 255 0.036449 0.299488
2.204933 -1.044706 0.496251 0.8131905 -0.001312324 0.5819961 95 84 71 255 0.036449 0.276557
2.12644 -1.837259 0.496251 0.7919704 -0.07421403 0.6060323 95 84 71 255 0.036449 0.276557
2.257665 -1.837259 0.496251 -0.2354152 0.01826001 0.9717233 95 84 71 255 0.036449 0.276557
2.31467 -1.102326 0.496251 -0.3764375 0.01645383 0.9262959 95 84 71 255 0.036449 0.276557
2.285905 -0.165518 0.496251 -0.4972399 -0.01780768 0.8674303 95 84 71 255 0.036449 0.276557
3.450302 -0.165518 0.496251 0.7739129 -0.003988248 0.6332796 95 84 71 255 0.036449 0.276557
3.44609 -1.100075 0.496251 0.7776902 -0.0141384 0.6284888 95 84 71 255 0.036449 0.276557
3.461091 -1.837259 0.448572 0.7586081 -0.02312485 0.6511368 95 84 71 255 0.036449 0.276557
3.587466 -1.837257 0.44709 -0.4018816 -0.0744219 0.9126624 95 84 71 255 0.036449 0.276557
3.557035 -1.087891 0.496251 -0.5015827 -0.02825666 0.8646482 95 84 71 255 0.036449 0.276557
3.563645 -0.165518 0.496251 -0.2754433 0.001973884 0.9613153 95 84 71 255 0.036449 0.276557
0.585411 -1.203525 0.496251 0.7677121 -0.01564965 0.6406038 95 84 71 255 0.037179 0.278335
1.81193 -0.955667 0.438786 0.5028797 0.008327002 0.8643163 95 84 71 255 0.037179 0.278335
3.03762 -0.802815 0.451515 0.4698775 -0.04571104 0.8815473 95 84 71 255 0.037179 0.278335
2.713416 -1.158052 0.44057 -0.6053014 0.01889277 0.7957722 95 84 71 255 0.037179 0.278335
4.293797 -0.979036 0.487281 0.8054878 0.03197459 0.5917492 95 84 71 255 0.037179 0.278335
4.4166 -0.979036 0.508418 -0.8149153 -0.03010998 0.5787975 95 84 71 255 0.037179 0.278335
4.458255 -1.837257 0.496251 -0.7871639 -0.04692402 0.6149563 95 84 71 255 0.037179 0.278335
4.002181 -1.068662 0.487281 -0.006765073 0.05070942 0.9986905 95 84 71 255 0.036449 0.276557
3.003577 -1.431725 0.46091 0.03871237 0.1406917 0.9892963 123 106 90 255 0.036449 0.299488
2.706311 -1.837257 0.553047 -0.8270744 0.1002428 0.5530816 95 84 71 255 0.037179 0.278335
1.526008 -1.09863 0.438786 -0.001199907 0.02831427 0.9995984 95 84 71 255 0.036449 0.276557
1.757025 -1.837257 0.496251 0.4381483 0.02290875 0.8986108 95 84 71 255 0.037179 0.278335
2.962894 -1.128043 0.44057 0.1489928 0.008724033 0.9887998 95 84 71 255 0.037179 0.278335
0.210785 -1.223568 0.6067 0.9700247 0.07980682 0.2295278 72 64 55 255 0.037908 0.253536
3.696495 -1.791992 0.6067 0.02925177 0.9616103 0.2728554 72 64 55 255 0.037908 0.253536
4.789219 -1.257751 0.6067 -0.9708173 0.07201449 0.2287524 72 64 55 255 0.037908 0.253536
0.822163 -0 0.6067 0 1 0 72 64 55 255 0.037908 0.253536
0 -0 0.6067 -0.7071068 0.7071068 0 72 64 55 255 0.037908 0.253536
5 -1.347891 0.6067 1 0 0 72 64 55 255 0.037908 0.253536
0 -1.307987 0.6067 -1 0 0 72 64 55 255 0.037908 0.253536
4.160065 -2.002781 0.6067 0 -1 0 72 64 55 255 0.037908 0.253536
0.210785 -0.739555 0.6067 0.9680811 -0.09463702 0.2320836 72 64 55 255 0.037908 0.253536
0.278095 -0.270296 0.6067 0.6556873 -0.6919386 0.3021508 72 64 55 255 0.037908 0.253536
0 -0.639927 0.6067 -1 0 0 72 64 55 255 0.037908 0.253536
4.722679 -1.716274 0.6067 0 0 1 95 84 71 255 0.037908 0.279064
5 -0.67174 0.6067 0 0 1 95 84 71 255 0.037908 0.279064
4.789219 -0.778576 0.6067 -0.9673503 -0.0995336 0.2330806 72 64 55 255 0.037908 0.253536
5 -2.002781 0.6067 0.7071068 -0.7071068 0 72 64 55 255 0.037908 0.253536
4.426613 -1.751562 0.6067 -0.1558961 0.9395398 0.3048957 72 64 55 255 0.037908 0.253536
0.287106 -1.697195 0.6067 0.6530772 0.6944237 0.3021025 72 64 55 255 0.037908 0.253536
0 -2.002781 0.6067 0 0 1 95 84 71 255 0.037908 0.279064
1.14986 -2.002781 0.6067 0 -1 0 72 64 55 255 0.037908 0.253536
1.294025 -0.210789 0.6067 0 0 1 95 84 71 255 0.037908 0.279064
4.71463 -0.286192 0.6067 -0.6657307 -0.6822546 0.302211 72 64 55 255 0.037908 0.253536
4.187115 -0 0.6067 0 0 1 95 84 71 255 0.037908 0.279064
5 -0 0.6067 0 0 1 95 84 71 255 0.037908 0.279064
0.896095 -0.133812 0.6067 0.07140519 -0.8365126 0.5432753 72 64 55 255 0.037908 0.253536
4.119995 -1.83215 0.6067 -0.07186153 0.9090262 0.4104965 72 64 55 255 0.037908 0.253536
0.657293 -0.16552 0.496251 -0.001509918 0.02515921 0.9996823 95 84 71 255 0.036449 0.276557
0.708217 -1.203525 0.52208 0.0005822582 -0.01834936 0.9998315 95 84 71 255 0.036449 0.276557
1.064 -1.152948 0.52208 0.0003218758 -0.01601511 0.9998717 123 106 90 255 0.036449 0.299488
1.399472 -1.12153 0.52208 0.0003218749 0.005569662 0.9999845 123 106 90 255 0.036449 0.299488
1.934737 -0.978566 0.496251 0 0 1 123 106 90 255 0.036449 0.299488
2.204933 -1.044706 0.496251 0 0 1 123 106 90 255 0.036449 0.299488
1.970704 -1.837257 0.496251 0 0 1 123 106 90 255 0.036449 0.299488
2.590609 -1.158052 0.496251 0 0 1 95 84 71 255 0.036449 0.276557
3.44609 -1.100075 0.496251 0.001707167 -0.02148923 0.9997677 123 106 90 255 0.036449 0.299488
3.176021 -0.16552 0.496251 0 0 1 123 106 90 255 0.036449 0.299488
3.176021 -1.12153 0.496251 0.004628229 -0.04249618 0.999086 123 106 90 255 0.036449 0.299488
3.461091 -1.837259 0.448572 0.006939175 -0.06371517 0.997944 123 106 90 255 0.036449 0.299488
3.879378 -1.068662 0.496251 0.002657557 -0.03293799 0.9994539 95 84 71 255 0.036449 0.276557
3.889761 -0.16552 0.496251 0 0 1 95 84 71 255 0.036449 0.276557
4.405252 -0.16552 0.496251 0 0.01495444 0.9998882 123 106 90 255 0.036449 0.299488
2.157411 -0.165518 0.496251 0.7772462 0.04201167 0.6277925 95 84 71 255 0.036449 0.276557
0.534486 -0.16552 0.496251 0.7874566 0.038633 0.6151582 95 84 71 255 0.037179 0.278335
1.791474 -0.16552 0.496251 0.7878159 -0.02436265 0.6154287 95 84 71 255 0.037179 0.278335
1.478032 -0.16552 0.496251 -0.7856181 -0.07819019 0.6137512 95 84 71 255 0.037179 0.278335
3.053214 -0.16552 0.496251 0.7865113 -0.06237528 0.614418 95 84 71 255 0.037179 0.278335
2.702785 -0.16552 0.496251 -0.7873039 -0.04293817 0.6150681 95 84 71 255 0.037179 0.278335
4.282446 -0.16552 0.496251 0.7880434 0.004207901 0.6156053 95 84 71 255 0.037179 0.278335
4.012568 -0.16552 0.496251 -0.7880273 0.002948561 0.6156333 95 84 71 255 0.037179 0.278335
2.579978 -0.16552 0.496251 0.7880166 0.008440504 0.6155962 95 84 71 255 0.037179 0.278335
1.355226 -0.16552 0.496251 0.7869409 0.05303001 0.6147453 95 84 71 255 0.037179 0.278335
4.335452 -1.837257 0.553632 0.9087784 0.07583255 0.4103308 95 84 71 255 0.037179 0.278335
4.097277 -1.837257 0.553632 0 0.08600782 0.9962945 95 84 71 255 0.036449 0.276557
2.9692 -1.837257 0.542328 0.9107153 0.005714713 0.4129952 95 84 71 255 0.037179 0.278335
1.330163 -1.837257 0.496251 0.7842478 -0.09805357 0.6126508 95 84 71 255 0.037179 0.278335
0.534486 -1.837257 0.478204 0 -0.02846576 0.9995948 123 106 90 255 0.036449 0.299488
1.452966 -1.837257 0.496251 0 0.07756535 0.9969873 95 84 71 255 0.036449 0.276557
0.63496 -0.237886 0.6067 0 0 1 95 84 71 255 0.037908 0.279064
1.2272 -1.791992 0.6067 0 0 1 95 84 71 255 0.037908 0.279064
4.122406 -0.210789 0.6067 0 0 1 95 84 71 255 0.037908 0.279064
1.039256 -0.16552 0.496251 -0.7540401 -0.001714376 0.6568261 95 84 71 255 0.036449 0.276557
0.708307 -1.837257 0.496251 -3.771842e-07 -0.04072319 0.9991705 95 84 71 255 0.036449 0.276557
1.043349 -1.837257 0.496251 0 -0.03771781 0.9992884 123 106 90 255 0.036449 0.299488
1.914281 -0.16552 0.496251 0 0 1 123 106 90 255 0.036449 0.299488
2.12644 -1.837259 0.496251 0 0 1 123 106 90 255 0.036449 0.299488
2.554372 -1.837257 0.496251 0 0 1 95 84 71 255 0.036449 0.276557
3.450302 -0.165518 0.496251 0 0 1 123 106 90 255 0.036449 0.299488
3.163852 -1.837257 0.451181 0.008759204 -0.06299238 0.9979756 123 106 90 255 0.036449 0.299488
3.934155 -1.837257 0.444752 0.006728749 -0.06637522 0.9977721 95 84 71 255 0.036449 0.276557
3 16 47 46 
3 128 139 127 
3 124 132 133 
3 130 144 145 
3 7 68 67 
3 10 61 9 
3 56 55 69 
3 14 49 13 
3 3 150 66 
3 4 151 60 
3 62 1 63 
3 5 152 54 
3 153 0 57 
3 6 154 48 
3 50 2 51 
3 15 48 155 
3 0 58 57 
3 18 60 59 
3 1 64 63 
3 20 66 65 
3 21 51 2 
3 22 54 53 
3 46 24 23 
3 155 25 156 
3 154 25 48 
3 157 26 49 
3 50 28 27 
3 29 51 52 
3 146 130 145 
3 30 54 31 
3 70 31 54 
3 33 32 158 
3 153 34 159 
3 58 34 57 
3 140 127 139 
3 59 37 36 
3 39 63 40 
3 64 40 63 
3 133 123 124 
3 42 66 43 
3 150 43 66 
3 45 67 68 
3 160 38 61 
3 161 60 151 
3 152 162 54 
3 162 70 54 
3 113 72 76 
3 88 92 93 
3 104 105 122 
3 97 101 96 
3 119 80 111 
3 87 163 94 
3 107 164 106 
3 165 102 95 
3 166 84 167 
3 99 168 98 
3 169 90 91 
3 170 110 103 
3 171 80 172 
3 89 76 72 
3 173 84 90 
3 169 86 74 
3 92 77 93 
3 163 81 94 
3 165 82 78 
3 97 174 73 
3 168 85 98 
3 100 83 71 
3 175 75 101 
3 176 79 102 
3 170 85 177 
3 104 73 121 
3 178 82 106 
3 108 81 179 
3 109 77 180 
3 181 86 110 
3 115 120 111 
3 113 112 182 
3 114 117 118 
3 116 79 183 
3 184 75 185 
3 117 83 118 
3 111 120 186 
3 111 186 119 
3 106 164 187 
3 106 187 178 
3 124 135 136 
3 136 125 124 
3 126 142 127 
3 143 127 142 
3 130 147 148 
3 148 131 130 
3 133 188 189 
3 189 134 133 
3 190 41 191 
3 137 191 19 
3 138 192 193 
3 194 193 192 
3 141 195 142 
3 17 142 195 
3 196 197 198 
3 198 199 196 
3 147 200 148 
3 149 200 201 
3 16 202 47 
3 128 203 139 
3 124 125 132 
3 130 131 144 
3 7 8 68 
3 10 160 61 
3 69 11 12 
3 12 56 69 
3 14 157 49 
3 3 204 150 
3 4 205 151 
3 62 206 1 
3 5 207 152 
3 153 208 0 
3 6 209 154 
3 50 210 2 
3 15 6 48 
3 0 211 58 
3 18 4 60 
3 1 212 64 
3 20 3 66 
3 21 52 51 
3 22 5 54 
3 46 47 24 
3 155 48 25 
3 154 213 25 
3 157 214 26 
3 50 51 28 
3 29 28 51 
3 146 129 130 
3 30 53 54 
3 70 215 31 
3 55 56 158 
3 56 33 158 
3 153 57 34 
3 58 35 34 
3 140 126 127 
3 59 60 37 
3 39 62 63 
3 64 216 40 
3 133 134 123 
3 42 65 66 
3 150 44 43 
3 45 217 67 
3 160 218 38 
3 161 37 60 
3 76 219 113 
3 219 112 113 
3 88 89 92 
3 122 220 109 
3 109 104 122 
3 97 175 101 
3 119 172 80 
3 87 171 163 
3 107 108 164 
3 165 176 102 
3 166 114 84 
3 99 100 168 
3 169 173 90 
3 170 181 110 
3 171 87 80 
3 89 88 76 
3 173 167 84 
3 169 91 86 
3 92 180 77 
3 163 179 81 
3 165 95 82 
3 97 96 174 
3 168 177 85 
3 100 99 83 
3 175 185 75 
3 176 183 79 
3 170 103 85 
3 174 121 73 
3 121 105 104 
3 178 78 82 
3 108 107 81 
3 109 220 77 
3 181 74 86 
3 115 116 120 
3 182 221 184 
3 184 113 182 
3 114 166 117 
3 116 115 79 
3 184 221 75 
3 117 71 83 
3 124 123 135 
3 136 222 125 
3 126 141 142 
3 143 128 127 
3 130 129 147 
3 148 149 131 
3 133 132 188 
3 189 223 134 
3 190 224 41 
3 137 190 191 
3 138 225 192 
3 194 226 193 
3 141 227 195 
3 17 143 142 
3 196 228 197 
3 198 229 199 
3 147 230 200 
3 149 148 200 
