ply
format ascii 1.0
comment VCGLIB generated
comment TextureFile Dungeons_Texture_01.png
element vertex 12
property float x
property float y
property float z
property float nx
property float ny
property float nz
property uchar red
property uchar green
property uchar blue
property uchar alpha
property float texture_u
property float texture_v
element face 20
property list uchar int vertex_indices
end_header
0.341003 0.06539 -0.100911 0.7328935 0.6767436 -0.06989489 120 116 110 255 0.211923 0.303946
0.341003 0.032695 -0.201822 0.5923005 0.469974 -0.6544499 120 116 110 255 0.211923 0.303946
0.170502 0.06539 -0.201822 0.03490468 0.7655169 -0.6424683 120 116 110 255 0.211923 0.303946
-0.341004 -0.06539 -0.201822 -0.6666667 -0.3333333 -0.6666667 120 116 110 255 0.211923 0.303946
0.341003 -0.06539 -0.201822 0.5773503 -0.5773503 -0.5773503 120 116 110 255 0.211923 0.303946
0.341003 -0.06539 0.201822 0.6666667 -0.3333333 0.6666667 120 116 110 255 0.211923 0.303946
-0.341004 -0.06539 0.201822 -0.5773503 -0.5773503 0.5773503 120 116 110 255 0.211923 0.303946
-0.341004 0.06539 0.100911 -0.7191871 0.6910701 0.072056 120 116 110 255 0.211923 0.303946
-0.341004 0.032695 0.201822 -0.5518213 0.4898861 0.6749111 120 116 110 255 0.211923 0.303946
0.108496 0.06539 0.201822 -0.01339968 0.7665635 0.6420288 120 116 110 255 0.211923 0.303946
0.341003 0.06539 0.201822 0.5773503 0.5773503 0.5773503 120 116 110 255 0.211923 0.303946
-0.341004 0.06539 -0.201822 -0.5773503 0.5773503 -0.5773503 120 116 110 255 0.211923 0.303946
3 0 1 2 
3 4 6 3 
3 7 8 9 
3 4 1 0 
3 2 4 3 
3 5 10 9 
3 0 2 9 
3 6 8 7 
3 4 5 6 
3 10 5 0 
3 5 4 0 
3 3 11 2 
3 2 1 4 
3 8 6 9 
3 6 5 9 
3 11 7 2 
3 7 9 2 
3 9 10 0 
3 11 3 7 
3 3 6 7 
