ply
format ascii 1.0
comment INFO-3111 Flatenator generated
comment TextureFile Dungeons_Texture_01.png
element vertex 532
property float x
property float y
property float z
element face 606
property list uchar int vertex_indices
end_header
1.05076 4.95816 0.264545 
-0.009872 4.95605 0.261519 
0.066452 4.48172 0.264518 
1.52477 4.95548 0.238711 
1.14948 4.97975 0.263904 
1.16671 4.51749 0.248958 
2.21055 4.94219 0.264682 
1.00188 4.52723 0.262767 
2.19299 4.46895 0.264693 
1.04184 3.87158 0.264491 
0.124916 3.83615 0.265178 
0.73624 3.38579 0.265117 
3.93132 3.85867 0.196193 
3.94717 3.39777 0.264815 
4.25421 3.85986 0.266192 
5.02884 3.83797 0.264648 
5.01475 3.36314 0.265636 
3.88268 3.84816 0.263717 
3.90098 3.37414 0.265651 
3.05434 3.87242 0.264262 
3.05069 3.45791 0.264121 
-0.011139 3.82999 0.228686 
-0.007389 3.35647 0.264358 
1.06688 3.38406 0.202083 
3.05209 3.38426 0.203013 
5.02896 2.83796 0.264803 
4.59074 2.83014 0.266432 
4.88396 2.27567 0.262224 
4.32593 2.35587 0.245424 
5.02633 2.29247 0.234632 
4.96691 1.65964 0.218843 
4.85164 1.64541 0.261309 
5.02773 1.17026 0.263742 
1.68822 4.42183 0.196414 
4.29791 3.94106 0.238193 
3.41079 4.4237 0.271583 
3.43868 3.97867 0.263587 
3.34912 3.92573 0.196746 
3.05126 3.8975 0.196116 
-0.000889 2.76569 0.268293 
0.004063 2.33489 0.247766 
0.788282 2.82595 0.245417 
4.14548 2.85281 0.202318 
3.65453 2.54573 0.244081 
3.97019 2.33632 0.24 
4.28728 2.34152 0.214415 
4.31592 1.58156 0.246881 
0.934934 0.500231 0.248011 
0.833917 0.097044 0.272264 
0.959058 0.018523 0.241159 
5.03866 4.94211 0.247016 
3.97113 4.98283 0.247455 
4.57914 4.48475 0.247268 
3.42423 4.48167 0.240153 
3.90721 4.95778 0.247603 
2.9925 4.95778 0.247603 
3.08724 4.54295 0.224723 
3.89592 4.4945 0.229468 
5.02128 4.4692 0.247455 
2.27524 4.95298 0.2419 
3.01831 4.50642 0.200629 
2.26687 4.48269 0.247726 
4.26783 4.4839 0.195746 
3.38781 4.44442 0.19649 
2.47155 4.43507 0.196204 
4.23727 4.39948 0.240714 
1.08459 4.44442 0.195094 
0.577604 4.43093 0.247726 
1.64317 4.40555 0.247726 
0.488911 4.41486 0.247474 
-0.016338 4.41713 0.213882 
0.443636 3.9454 0.238692 
1.28143 3.93971 0.247386 
1.68816 3.92587 0.196582 
4.95023 4.41277 0.246665 
4.34971 4.41578 0.246547 
4.94974 3.93971 0.247726 
2.43024 4.41292 0.246806 
1.70315 4.41292 0.246806 
2.11228 3.9357 0.232211 
3.34543 4.41374 0.24557 
2.4847 4.41332 0.24779 
2.76017 3.97563 0.240241 
3.30487 3.93874 0.248035 
1.70393 3.93974 0.247726 
2.42764 3.93361 0.204524 
-0.025597 3.98111 0.217475 
0.5527 3.94986 0.193454 
4.91713 3.85683 0.202811 
1.38431 3.85691 0.247401 
1.127 3.8686 0.20254 
1.13434 3.53533 0.247726 
1.67477 3.39252 0.229022 
1.71541 3.47508 0.241466 
3.00062 3.84333 0.252601 
2.45777 3.87113 0.240058 
2.98724 3.36727 0.248183 
5.03344 3.32106 -0.125958 
2.2551 3.41223 0.234119 
3.22031 3.32777 0.188357 
1.641 3.36756 0.192908 
1.20451 3.27607 0.241759 
1.48115 2.9212 0.246752 
0.508972 3.31772 0.196635 
0.530406 2.89309 0.247725 
4.35568 3.29139 0.244308 
4.95021 2.9095 0.247076 
4.94987 3.2936 0.247726 
4.28824 3.30142 0.247684 
3.41006 3.26898 0.247508 
4.35716 2.9139 0.247675 
1.70046 3.29393 0.24763 
1.5377 2.91085 0.246626 
2.44381 3.29396 0.247664 
-0.076229 3.29359 0.247726 
0.484211 2.91621 0.247072 
0.505081 3.29359 0.247726 
4.40703 2.88678 0.196226 
2.51725 2.97289 0.233561 
3.5826 2.88292 0.247725 
0.511346 2.88239 0.196054 
-0.057362 2.27327 -0.103758 
0.741332 2.2622 0.229643 
1.11699 2.2587 0.24785 
1.25926 2.46339 0.227607 
0.764141 2.23935 0.19615 
4.99271 2.19808 0.242231 
4.52667 2.23829 0.194189 
4.51696 2.02043 0.244844 
0.404211 2.16407 0.236979 
-0.073093 2.17888 0.237532 
0.061087 1.71278 0.245169 
4.80766 1.7308 0.247198 
0.40977 1.73071 0.247725 
3.99703 2.11726 0.194521 
4.01027 1.71025 0.247271 
4.30215 1.66182 0.193548 
0.777497 1.63997 0.250315 
-0.006289 1.69995 0.21063 
0.730366 1.21401 0.246172 
0.959065 1.65125 0.196226 
0.837702 1.64042 0.247652 
0.957479 1.21356 0.243483 
4.25999 1.6425 0.242857 
4.01028 1.63995 0.247725 
4.01093 1.19745 0.23871 
-0.02441 1.16884 0.249296 
5.0522 1.68713 0.072176 
4.23383 1.16974 0.24703 
4.30757 1.14212 0.196589 
0.460789 1.09062 0.192739 
-0.059361 1.07009 0.247644 
0.40064 0.765429 0.240976 
0.469533 0.594469 0.247385 
0.95831 0.928294 0.247171 
4.99516 1.06394 0.242109 
4.49153 1.06312 0.247725 
4.99243 0.595614 0.247725 
4.52158 0.594981 0.247725 
-0.057423 0.592941 0.242506 
0.443127 0.707752 0.183107 
0.36955 0.535133 0.190256 
4.01367 1.08827 0.247469 
4.01146 0.541833 0.229868 
4.51351 0.512873 0.247217 
5.02887 0.041045 0.247725 
5.02984 0.517536 0.239729 
-0.023882 0.487828 0.247698 
0.802626 0.054713 0.247461 
4.29115 0.503928 0.192652 
4.27553 0.032513 0.247595 
4.01909 0.053869 0.247541 
-0.017307 -1.9e-05 0.185675 
0.176117 0.022372 0.247091 
2.21888 4.94178 0.195064 
2.27909 3.90478 0.196345 
3.42858 2.95926 0.23908 
3.59952 2.86974 0.202364 
1.50608 2.85011 0.200148 
1.59051 2.71533 0.234629 
2.5079 2.92681 0.246986 
0.023266 2.20933 0.19385 
1.09113 2.20193 0.197741 
5.00933 2.2252 0.13199 
0.437546 2.26025 0.190958 
0.474539 2.07618 0.24032 
1.09113 2.1947 0.234316 
4.48495 2.19093 0.254839 
4.49825 1.71733 0.19557 
0.462424 1.70758 0.240931 
0.959001 1.7168 0.202116 
0.476933 1.65817 0.19549 
0.84038 1.16471 0.20265 
0.956925 1.1046 0.188559 
1.12442 5.0266 0.048926 
1.13393 4.92775 0.203097 
2.1949 4.44452 0.196116 
-0.016548 3.33848 0.170135 
3.9315 3.3849 0.196227 
3.15253 3.27086 0.243426 
0.824956 2.85204 0.193899 
3.32105 2.78174 0.242619 
4.01018 1.65829 0.195665 
0.840076 1.65758 0.1952 
4.01937 0.013157 0.064039 
4.322 -0.002089 0.064096 
0.206989 3.86517 0.193496 
4.26599 2.21004 0.201834 
0.570013 4.45527 0.196536 
-0.098188 2.77652 0.064028 
0.959058 -0.03242 0.049208 
2.22963 4.98354 0.080142 
4.95648 4.43464 0.164012 
4.96427 3.89435 -0.114625 
4.30513 3.30755 0.19527 
4.95837 3.3217 0.13325 
4.00143 2.21349 0.190992 
4.01121 1.13954 0.192625 
4.91953 1.15554 0.202265 
0.835098 0.077195 0.20178 
-0.053967 3.89698 -0.113339 
2.96979 3.27899 0.236308 
5.01515 1.12689 -0.036959 
4.0143 1.08487 0.196226 
0.794877 0.013408 0.071539 
-0.117252 2.22051 -0.113352 
-0.09304 1.66258 -0.113508 
5.05014 0.557535 0.064054 
5.06025 4.98479 0.06409 
3.00639 4.99831 0.072238 
1.12474 5.02656 -0.125958 
-0.096888 2.77723 -0.11458 
5.0484 2.87806 -0.125959 
3.95142 4.97373 -0.113751 
2.24033 4.9458 0.054858 
5.05014 2.2321 -0.121241 
-0.010147 1.10807 -0.120783 
4.96587 1.12654 -0.006182 
-0.035927 4.9994 0.07307 
-0.007526 0.547425 -0.112848 
3.0321 4.99889 0.064055 
-0.053967 4.45509 -0.113141 
4.96629 4.43122 -0.114411 
5.04942 0.557012 -0.11392 
5.04854 -0.002089 -0.113123 
-0.095009 3.33632 -0.113675 
-0.019215 1.69643 -0.115286 
5.0084 1.11057 -0.036585 
-0.077362 1.11084 -0.113535 
0.539002 -0.001617 -0.112974 
5.05028 3.88022 -0.121152 
4.3017 -0.002089 -0.113123 
-0.028887 -0.027898 -0.113104 
2.25295 4.99889 -0.113778 
0.959056 -0.041284 -0.144709 
3.00409 4.97068 -0.15149 
5.05988 1.68483 -0.127401 
-0.034172 4.99818 -0.125958 
5.06104 1.12689 -0.126406 
4.01967 -0.002089 -0.113348 
5.06021 4.98429 -0.11311 
5.00158 1.69488 -0.113558 
-0.032681 0.062271 -0.113455 
0.017387 3.43151 -0.154408 
4.72273 -0.001878 -0.112814 
3.75974 4.97078 -0.151441 
4.95056 2.88551 -0.120481 
4.95226 3.28424 -0.151563 
-0.010315 2.84435 -0.151579 
0.796537 0.029719 -0.112974 
4.95221 4.97054 -0.150964 
0.002714 2.18081 -0.154409 
4.94258 2.60408 -0.154409 
4.95252 0.949364 -0.151335 
4.02436 0.097774 -0.154409 
4.5327 0.044366 -0.12464 
4.95606 0.045075 -0.151472 
4.53285 4.97084 -0.151612 
-0.010244 0.727701 -0.151594 
0.521732 4.96191 -0.154302 
4.9521 4.06648 -0.151334 
0.002705 3.18151 -0.154408 
-0.010315 3.07524 -0.151578 
0.003078 1.37241 -0.154409 
2.49009 2.91523 -0.157228 
3.90551 4.48066 -0.154408 
1.22245 2.53515 -0.154409 
1.60618 2.76883 -0.15553 
4.41027 4.65388 -0.154408 
4.59345 4.64341 -0.154408 
4.51649 4.59609 -0.154408 
4.50652 4.58618 -0.154408 
4.51642 4.58566 -0.154408 
4.48662 4.53842 -0.154408 
3.29674 3.12328 -0.150903 
0.002714 2.95058 -0.154409 
3.96859 2.31426 -0.154409 
3.30601 2.78082 -0.155961 
0.484926 2.22769 -0.154383 
0.683751 1.67274 -0.151392 
0.946517 1.8693 -0.152617 
0.950244 1.03411 -0.153852 
4.01788 1.09763 -0.154409 
0.959031 0.324556 -0.154409 
4.02585 1.67932 -0.154409 
3.93132 3.85867 0.196193 
3.88268 3.84816 0.263717 
3.90098 3.37414 0.265651 
3.05069 3.45791 0.264121 
2.19299 4.46895 0.264693 
1.16671 4.51749 0.248958 
4.29791 3.94106 0.238193 
3.43868 3.97867 0.263587 
3.05434 3.87242 0.264262 
3.89592 4.4945 0.229468 
2.9925 4.95778 0.247603 
4.57914 4.48475 0.247268 
3.89592 4.4945 0.229468 
3.42423 4.48167 0.240153 
3.01831 4.50642 0.200629 
2.26687 4.48269 0.247726 
3.41079 4.4237 0.271583 
1.64317 4.40555 0.247726 
0.577604 4.43093 0.247726 
4.23727 4.39948 0.240714 
4.29791 3.94106 0.238193 
2.42764 3.93361 0.204524 
4.25421 3.85986 0.266192 
5.02884 3.83797 0.264648 
1.38431 3.85691 0.247401 
1.67477 3.39252 0.229022 
5.01475 3.36314 0.265636 
1.71541 3.47508 0.241466 
1.67477 3.39252 0.229022 
1.13434 3.53533 0.247726 
1.06688 3.38406 0.202083 
-0.007389 3.35647 0.264358 
0.73624 3.38579 0.265117 
4.28824 3.30142 0.247684 
4.35716 2.9139 0.247675 
4.40703 2.88678 0.196226 
-0.000889 2.76569 0.268293 
0.788282 2.82595 0.245417 
4.95021 2.9095 0.247076 
4.59074 2.83014 0.266432 
5.02896 2.83796 0.264803 
0.004063 2.33489 0.247766 
4.96691 1.65964 0.218843 
4.96691 1.65964 0.218843 
5.02773 1.17026 0.263742 
4.25999 1.6425 0.242857 
4.23383 1.16974 0.24703 
4.01093 1.19745 0.23871 
4.30757 1.14212 0.196589 
0.460789 1.09062 0.192739 
0.934934 0.500231 0.248011 
0.40064 0.765429 0.240976 
0.36955 0.535133 0.190256 
4.01146 0.541833 0.229868 
4.27553 0.032513 0.247595 
-0.023882 0.487828 0.247698 
4.29115 0.503928 0.192652 
0.176117 0.022372 0.247091 
2.21055 4.94219 0.264682 
2.9925 4.95778 0.247603 
3.08724 4.54295 0.224723 
0.488911 4.41486 0.247474 
0.443636 3.9454 0.238692 
0.5527 3.94986 0.193454 
1.70315 4.41292 0.246806 
1.70393 3.93974 0.247726 
3.00062 3.84333 0.252601 
2.42764 3.93361 0.204524 
2.45777 3.87113 0.240058 
2.2551 3.41223 0.234119 
3.41006 3.26898 0.247508 
3.42858 2.95926 0.23908 
2.51725 2.97289 0.233561 
0.741332 2.2622 0.229643 
0.764141 2.23935 0.19615 
1.11699 2.2587 0.24785 
4.52667 2.23829 0.194189 
4.88396 2.27567 0.262224 
4.32593 2.35587 0.245424 
1.09113 2.1947 0.234316 
0.474539 2.07618 0.24032 
-0.006289 1.69995 0.21063 
0.777497 1.63997 0.250315 
4.30215 1.66182 0.193548 
0.730366 1.21401 0.246172 
0.460789 1.09062 0.192739 
-0.02441 1.16884 0.249296 
0.95831 0.928294 0.247171 
1.52477 4.95548 0.238711 
1.14948 4.97975 0.263904 
2.43024 4.41292 0.246806 
2.4847 4.41332 0.24779 
3.34543 4.41374 0.24557 
-0.011139 3.82999 0.228686 
-0.076229 3.29359 0.247726 
0.505081 3.29359 0.247726 
1.25926 2.46339 0.227607 
5.02633 2.29247 0.234632 
-0.073093 2.17888 0.237532 
0.404211 2.16407 0.236979 
0.462424 1.70758 0.240931 
0.40977 1.73071 0.247725 
0.061087 1.71278 0.245169 
0.959001 1.7168 0.202116 
0.837702 1.64042 0.247652 
0.959065 1.65125 0.196226 
4.01028 1.63995 0.247725 
4.01367 1.08827 0.247469 
4.49153 1.06312 0.247725 
0.934934 0.500231 0.248011 
4.01909 0.053869 0.247541 
5.02887 0.041045 0.247725 
-0.009872 4.95605 0.261519 
-0.016338 4.41713 0.213882 
0.066452 4.48172 0.264518 
1.00188 4.52723 0.262767 
3.30487 3.93874 0.248035 
1.68816 3.92587 0.196582 
-0.025597 3.98111 0.217475 
2.76017 3.97563 0.240241 
2.98724 3.36727 0.248183 
0.508972 3.31772 0.196635 
0.530406 2.89309 0.247725 
3.99703 2.11726 0.194521 
4.48495 2.19093 0.254839 
4.51696 2.02043 0.244844 
4.49825 1.71733 0.19557 
4.80766 1.7308 0.247198 
4.31592 1.58156 0.246881 
4.85164 1.64541 0.261309 
0.957479 1.21356 0.243483 
2.27524 4.95298 0.2419 
1.127 3.8686 0.20254 
1.28143 3.93971 0.247386 
2.11228 3.9357 0.232211 
2.27909 3.90478 0.196345 
1.48115 2.9212 0.246752 
0.469533 0.594469 0.247385 
0.959058 0.018523 0.241159 
0.833917 0.097044 0.272264 
1.05076 4.95816 0.264545 
4.34971 4.41578 0.246547 
4.95023 4.41277 0.246665 
4.94974 3.93971 0.247726 
0.124916 3.83615 0.265178 
1.04184 3.87158 0.264491 
3.94717 3.39777 0.264815 
4.94987 3.2936 0.247726 
4.35568 3.29139 0.244308 
1.20451 3.27607 0.241759 
3.15253 3.27086 0.243426 
0.484211 2.91621 0.247072 
3.5826 2.88292 0.247725 
4.14548 2.85281 0.202318 
3.65453 2.54573 0.244081 
4.28728 2.34152 0.214415 
4.99271 2.19808 0.242231 
4.99243 0.595614 0.247725 
4.51351 0.512873 0.247217 
5.02984 0.517536 0.239729 
0.802626 0.054713 0.247461 
5.02128 4.4692 0.247455 
1.71541 3.47508 0.241466 
1.641 3.36756 0.192908 
1.70046 3.29393 0.24763 
1.5377 2.91085 0.246626 
3.97019 2.33632 0.24 
4.52158 0.594981 0.247725 
3.97113 4.98283 0.247455 
3.90721 4.95778 0.247603 
1.38431 3.85691 0.247401 
2.44381 3.29396 0.247664 
4.01027 1.71025 0.247271 
-0.059361 1.07009 0.247644 
4.99516 1.06394 0.242109 
-0.057423 0.592941 0.242506 
5.03866 4.94211 0.247016 
-0.032681 0.062271 -0.113455 
-0.010244 0.727701 -0.151594 
0.539002 -0.001617 -0.112974 
2.96979 3.27899 0.236308 
0.959058 -0.03242 0.049208 
0.959056 -0.041284 -0.144709 
0.959031 0.324556 -0.154409 
0.959058 0.018523 0.241159 
0.934934 0.500231 0.248011 
0.950244 1.03411 -0.153852 
0.95831 0.928294 0.247171 
0.956925 1.1046 0.188559 
0.957479 1.21356 0.243483 
0.959065 1.65125 0.196226 
0.946517 1.8693 -0.152617 
0.959001 1.7168 0.202116 
1.09113 2.20193 0.197741 
1.09113 2.1947 0.234316 
4.01018 1.65829 0.195665 
4.01027 1.71025 0.247271 
3.99703 2.11726 0.194521 
4.01093 1.19745 0.23871 
4.01028 1.63995 0.247725 
4.01121 1.13954 0.192625 
4.02585 1.67932 -0.154409 
4.01788 1.09763 -0.154409 
3.96859 2.31426 -0.154409 
4.01367 1.08827 0.247469 
4.0143 1.08487 0.196226 
4.01146 0.541833 0.229868 
4.01937 0.013157 0.064039 
4.01909 0.053869 0.247541 
4.02436 0.097774 -0.154409 
4.01967 -0.002089 -0.113348 
3.30601 2.78082 -0.155961 
2.5079 2.92681 0.246986 
2.49009 2.91523 -0.157228 
1.60618 2.76883 -0.15553 
1.11699 2.2587 0.24785 
1.09113 2.20193 0.197741 
1.22245 2.53515 -0.154409 
1.25926 2.46339 0.227607 
3.99703 2.11726 0.194521 
4.00143 2.21349 0.190992 
3.97019 2.33632 0.24 
3.96859 2.31426 -0.154409 
3.65453 2.54573 0.244081 
1.59051 2.71533 0.234629 
1.22245 2.53515 -0.154409 
3.32105 2.78174 0.242619 
3 0 1 2
3 3 4 5
3 3 5 6
3 0 2 7
3 6 5 8
3 9 10 11
3 12 13 14
3 15 14 16
3 305 17 18
3 306 19 20
3 14 13 16
3 21 22 10
3 306 20 307
3 9 11 23
3 18 308 24
3 10 22 11
3 25 26 27
3 27 26 28
3 25 27 29
3 30 31 32
3 33 309 310
3 34 35 36
3 311 312 305
3 37 313 17
3 313 38 308
3 39 40 41
3 26 42 28
3 43 44 45
3 31 46 32
3 47 48 49
3 50 51 52
3 53 54 55
3 55 56 53
3 51 57 52
3 50 52 58
3 54 53 314
3 59 60 315
3 60 59 61
3 316 317 62
3 318 63 317
3 64 319 320
3 63 321 65
3 66 67 68
3 69 70 71
3 322 323 72
3 73 322 72
3 74 75 76
3 324 35 34
3 77 78 79
3 80 81 82
3 80 82 83
3 78 84 79
3 77 79 85
3 76 75 325
3 81 326 82
3 71 70 86
3 72 323 87
3 88 327 328
3 89 90 91
3 89 91 92
3 93 329 330
3 94 95 96
3 328 331 97
3 98 332 333
3 334 335 333
3 18 24 99
3 336 335 337
3 100 101 102
3 101 103 104
3 105 106 107
3 102 101 104
3 108 109 110
3 111 112 113
3 114 39 115
3 116 114 115
3 117 338 339
3 113 112 118
3 105 340 106
3 110 109 42
3 42 109 119
3 341 342 120
3 343 344 345
3 341 121 346
3 40 122 41
3 123 124 125
3 126 127 128
3 129 130 131
3 126 128 132
3 129 131 133
3 134 135 136
3 126 132 347
3 137 138 139
3 140 141 142
3 143 144 145
3 138 146 139
3 348 349 147
3 148 143 145
3 149 350 351
3 351 352 149
3 32 46 353
3 150 151 152
3 354 153 154
3 155 156 157
3 157 156 158
3 154 153 355
3 152 151 159
3 160 356 161
3 152 159 357
3 156 162 158
3 162 163 158
3 164 165 166
3 47 167 168
3 169 358 170
3 163 171 359
3 360 172 173
3 164 361 359
3 164 359 165
3 168 167 362
3 174 363 309
3 364 319 365
3 63 318 365
3 312 321 37
3 366 367 368
3 369 33 370
3 371 372 373
3 175 374 95
3 96 95 374
3 176 109 118
3 375 376 177
3 376 377 177
3 178 179 180
3 342 378 379
3 121 181 346
3 182 380 379
3 381 382 383
3 381 183 382
3 379 184 185
3 379 185 186
3 187 134 188
3 384 385 189
3 384 189 190
3 188 134 136
3 191 386 387
3 388 350 149
3 192 387 389
3 390 389 391
3 193 192 392
3 393 194 394
3 394 195 66
3 196 369 395
3 63 64 396
3 63 396 397
3 38 372 371
3 305 37 17
3 336 398 197
3 18 99 198
3 197 399 400
3 198 375 338
3 109 199 118
3 200 401 178
3 377 180 201
3 184 378 346
3 382 183 402
3 403 404 181
3 185 184 405
3 184 404 406
3 407 403 386
3 408 409 410
3 350 202 411
3 388 202 350
3 409 203 192
3 192 390 392
3 149 412 413
3 161 360 414
3 204 170 415
3 205 416 170
3 417 418 419
3 394 66 310
3 420 66 195
3 62 65 311
3 37 397 421
3 33 422 370
3 367 423 206
3 421 424 38
3 371 425 38
3 98 24 425
3 335 336 426
3 200 427 120
3 184 379 378
3 207 428 429
3 430 431 432
3 431 348 432
3 388 433 434
3 433 388 149
3 409 192 435
3 356 160 390
3 320 436 196
3 196 309 33
3 67 208 368
3 321 63 37
3 437 422 438
3 422 439 370
3 372 440 373
3 399 209 341
3 441 427 178
3 342 200 120
3 200 342 379
3 389 390 192
3 442 160 161
3 210 443 444
3 393 363 211
3 211 363 174
3 445 420 195
3 365 319 63
3 418 208 419
3 208 420 419
3 62 446 447
3 68 422 33
3 64 395 372
3 396 64 372
3 212 448 213
3 368 437 438
3 312 37 305
3 38 37 421
3 311 88 448
3 206 449 450
3 437 206 450
3 206 398 449
3 308 38 24
3 305 18 198
3 331 451 198
3 426 336 197
3 214 215 331
3 452 214 453
3 426 454 335
3 455 375 99
3 426 400 456
3 375 177 457
3 177 458 457
3 459 458 177
3 458 460 383
3 200 379 401
3 460 458 459
3 181 184 346
3 460 381 383
3 461 183 381
3 207 216 428
3 381 429 431
3 184 191 405
3 217 149 352
3 149 218 349
3 442 390 160
3 414 442 161
3 414 219 444
3 462 463 464
3 414 465 219
3 394 194 195
3 174 309 196
3 66 33 310
3 196 64 320
3 62 212 316
3 466 316 212
3 208 67 66
3 62 63 65
3 208 418 366
3 196 33 369
3 64 196 395
3 212 62 447
3 368 208 366
3 446 62 311
3 37 38 313
3 327 88 305
3 89 467 374
3 206 220 398
3 451 305 198
3 24 38 425
3 437 450 335
3 335 468 333
3 214 331 198
3 426 197 400
3 468 335 454
3 214 198 338
3 455 99 24
3 221 455 24
3 214 338 117
3 214 117 453
3 469 178 470
3 426 456 120
3 200 178 427
3 178 377 470
3 458 117 339
3 427 426 120
3 216 460 471
3 404 184 181
3 381 431 430
3 203 408 405
3 386 406 407
3 203 191 387
3 408 203 409
3 218 222 349
3 149 223 412
3 472 169 463
3 462 472 463
3 173 224 465
3 473 474 317
3 436 174 196
3 420 208 66
3 319 64 63
3 63 62 317
3 68 33 66
3 397 37 63
3 212 447 448
3 367 206 368
3 439 422 440
3 372 439 440
3 424 372 38
3 437 368 206
3 440 422 475
3 311 305 88
3 437 475 422
3 89 374 175
3 334 437 335
3 333 468 98
3 24 98 476
3 98 468 469
3 198 99 375
3 98 469 476
3 214 452 215
3 24 476 221
3 468 441 178
3 469 468 178
3 456 341 120
3 343 117 344
3 117 458 344
3 180 377 178
3 177 377 201
3 460 216 207
3 182 379 186
3 381 460 207
3 429 381 207
3 191 184 406
3 403 225 226
3 147 461 348
3 388 477 202
3 348 431 434
3 406 386 191
3 405 191 203
3 431 388 434
3 387 192 203
3 435 192 193
3 149 217 223
3 218 149 413
3 390 391 478
3 413 479 218
3 472 358 169
3 480 360 161
3 462 464 227
3 403 226 386
3 228 473 481
3 213 448 88
3 215 452 343
3 229 436 364
3 230 445 195
3 481 466 228
3 209 231 341
3 232 343 345
3 474 473 233
3 183 461 147
3 147 349 222
3 227 464 416
3 234 174 436
3 398 220 197
3 235 345 402
3 183 235 402
3 181 225 403
3 418 220 423
3 341 231 121
3 391 236 478
3 237 218 479
3 479 462 227
3 206 423 220
3 224 219 465
3 445 238 417
3 232 345 235
3 386 236 391
3 480 478 239
3 219 210 444
3 240 364 474
3 215 97 331
3 480 239 360
3 219 224 210
3 211 194 393
3 220 418 241
3 328 213 88
3 172 224 173
3 466 212 242
3 230 238 445
3 417 238 418
3 233 473 228
3 211 174 234
3 479 227 243
3 244 227 416
3 205 244 416
3 245 399 197
3 399 231 209
3 386 246 236
3 243 247 479
3 478 248 239
3 249 224 172
3 194 230 195
3 226 246 386
3 247 237 479
3 250 328 97
3 237 222 218
3 170 251 205
3 252 249 172
3 251 170 204
3 250 213 328
3 436 253 234
3 224 254 210
3 255 229 364
3 256 147 222
3 418 238 257
3 256 222 258
3 121 225 181
3 259 251 204
3 230 194 211
3 253 436 229
3 260 228 466
3 222 247 258
3 228 260 233
3 234 253 211
3 257 241 418
3 261 183 147
3 360 262 172
3 172 262 252
3 240 255 364
3 220 263 197
3 256 261 147
3 245 197 263
3 248 478 236
3 264 244 205
3 242 212 213
3 264 205 251
3 253 230 211
3 265 255 240
3 265 240 474
3 399 245 231
3 266 215 343
3 255 253 229
3 265 474 233
3 267 215 266
3 121 231 268
3 243 227 244
3 260 466 242
3 215 267 97
3 232 266 343
3 235 183 261
3 258 247 243
3 360 239 262
3 269 224 249
3 269 254 224
3 230 257 238
3 270 260 242
3 220 241 263
3 231 245 268
3 268 271 121
3 272 235 261
3 225 121 246
3 225 246 226
3 258 243 273
3 248 236 239
3 273 243 244
3 251 259 274
3 249 252 262
3 275 264 251
3 275 244 264
3 275 276 244
3 260 277 233
3 260 270 277
3 121 271 246
3 236 278 239
3 239 278 262
3 276 273 244
3 279 257 230
3 270 242 280
3 213 250 267
3 267 250 97
3 263 281 245
3 245 281 282
3 266 232 272
3 272 232 235
3 261 256 258
3 258 273 261
3 280 242 213
3 280 213 267
3 245 282 268
3 267 266 272
3 275 251 274
3 277 265 233
3 246 283 236
3 230 284 279
3 230 253 284
3 255 265 285
3 279 286 263
3 279 284 287
3 253 255 284
3 265 288 285
3 265 277 288
3 277 289 288
3 277 280 289
3 277 270 280
3 257 279 241
3 255 285 284
3 241 279 263
3 288 289 290
3 288 290 291
3 290 292 291
3 290 289 292
3 291 292 293
3 292 289 293
3 289 280 293
3 291 293 288
3 293 285 288
3 284 285 294
3 280 267 293
3 281 263 286
3 285 293 294
3 282 281 295
3 294 293 296
3 282 295 268
3 286 295 281
3 284 294 297
3 293 267 296
3 268 295 298
3 268 298 271
3 296 267 272
3 295 286 298
3 298 286 299
3 299 286 300
3 296 272 261
3 296 261 273
3 271 298 283
3 246 271 283
3 299 300 278
3 300 301 278
3 298 299 278
3 274 302 273
3 283 298 236
3 236 298 278
3 274 273 275
3 275 273 276
3 278 269 249
3 482 483 484
3 278 303 269
3 303 254 269
3 485 113 118
3 199 485 118
3 278 301 303
3 273 302 304
3 486 487 488
3 489 486 490
3 490 486 488
3 490 491 492
3 493 492 491
3 494 493 491
3 495 491 496
3 497 495 496
3 498 499 497
3 496 498 497
3 500 501 502
3 500 503 504
3 505 506 507
3 508 500 502
3 509 510 511
3 510 505 507
3 511 510 507
3 512 513 511
3 514 515 512
3 514 511 507
3 516 517 518
3 517 519 518
3 520 521 522
3 523 520 522
3 524 525 526
3 524 526 527
3 527 526 528
3 178 401 179
3 529 522 519
3 279 287 286
3 297 294 296
3 528 516 527
3 177 201 459
3 506 500 508
3 273 304 296
3 222 237 247
3 490 488 491
3 495 494 491
3 496 530 498
3 500 505 503
3 505 500 506
3 514 512 511
3 516 531 517
3 517 529 519
3 529 523 522
3 528 531 516
