ply
format ascii 1.0
comment VCGLIB generated
comment TextureFile Dungeons_Texture_01.png
element vertex 158
property float x
property float y
property float z
property float nx
property float ny
property float nz
property uchar red
property uchar green
property uchar blue
property uchar alpha
property float texture_u
property float texture_v
element face 266
property list uchar int vertex_indices
end_header
-1.436143 21.20588 30.18256 -0.9318914 0 0.3627376 60 45 35 255 0.024737 0.229499
0 20.00249 30.18256 0 -0.6083407 0.7936761 60 45 35 255 0.024687 0.229531
1.436143 21.20588 30.18256 0.9318914 0 0.3627376 60 45 35 255 0.024604 0.229032
0 22.40928 30.18256 0 0.6083404 0.7936763 60 45 35 255 0.024649 0.228973
1.436143 21.20589 25.95331 0.7890769 0 -0.6142944 60 45 35 255 0.025426 0.228905
0 22.40928 25.95331 0 0.8375514 -0.5463586 60 45 35 255 0.025514 0.22884
0 20.00249 25.95331 0 -0.8375511 -0.5463591 60 45 35 255 0.025511 0.229396
-1.436143 21.20589 25.95331 -0.7890769 0 -0.6142944 60 45 35 255 0.025604 0.229357
-1.436143 9.174532 24.48249 -0.9318914 -0.1773964 0.3163999 60 45 35 255 0.024737 0.229499
0 8.124866 23.89397 0 -0.9187756 0.3947805 60 45 35 255 0.024687 0.229531
1.436143 9.174532 24.48249 0.9318914 -0.1773964 0.3163999 60 45 35 255 0.024604 0.229032
0 10.2242 25.071 0 0.1424821 0.9897974 60 45 35 255 0.024649 0.228973
1.436143 10.14801 22.74622 1 0 -2.320104e-08 60 45 35 255 0.025426 0.228905
0 11.19767 23.33474 0 0.8722563 0.489049 60 45 35 255 0.025514 0.22884
-1.436143 10.14801 22.74622 -1 0 -2.320104e-08 60 45 35 255 0.025604 0.229357
0 9.09834 22.15771 0 -0.8722561 -0.4890495 60 45 35 255 0.025511 0.229396
-2.237672 6.47855 22.7316 -0.6415851 -0.7635035 0.07369581 42 44 47 255 0.080747 0.277391
2.237672 6.47855 22.7316 0.641585 -0.6158734 0.4572402 42 44 47 255 0.080623 0.277368
2.237672 12.95199 26.33674 0.7096086 -0.2347708 0.664333 42 44 47 255 0.080508 0.277098
-2.237672 12.95199 26.33674 -0.7096086 -0.2900149 0.6421425 42 44 47 255 0.080633 0.277113
-2.237672 13.41838 24.96527 -0.7096928 0.2328681 -0.6649125 42 44 47 255 0.080659 0.27709
2.237672 13.41838 24.96527 0.7096928 0.2890839 -0.6424692 42 44 47 255 0.080533 0.277075
2.237672 6.944942 21.36014 0.4350883 -0.6121508 -0.66028 42 44 47 255 0.080646 0.277344
-2.237672 6.944942 21.36014 -0.4350883 0.01146158 -0.9003149 42 44 47 255 0.080771 0.277367
2.237672 19.32948 28.00446 0.5577736 -0.06369515 0.8275455 42 44 47 255 0.08045 0.276805
-2.237672 19.32948 28.00446 -0.5577737 -0.1376827 0.8184938 42 44 47 255 0.080577 0.276812
2.237672 19.54922 26.54092 0.8022757 0.09677197 -0.5890576 42 44 47 255 0.080479 0.276795
-2.237672 19.54922 26.54092 -0.8022757 0.04377076 -0.5953468 42 44 47 255 0.080607 0.276801
2.237672 26.31926 27.91847 0.760129 0.2482181 0.6004929 42 44 47 255 0.080451 0.276469
-2.237672 26.31926 27.91847 -0.6322045 0.2094775 0.7459468 42 44 47 255 0.08058 0.276465
2.237672 26.36582 26.43633 0.5347971 0.4068554 -0.7405813 42 44 47 255 0.080481 0.27647
-2.237672 26.36582 26.43633 -0.641873 0.4929405 -0.5873745 42 44 47 255 0.08061 0.276466
0 27.84991 27.91847 0 0.9483775 0.3171437 42 44 47 255 0.080514 0.276391
0 27.89646 26.43633 0 0.8670641 -0.4981966 42 44 47 255 0.080545 0.276393
-22.36894 6.722301 2e-06 -0.4678472 -0.5982817 -0.6505213 42 44 47 255 0.079964 0.274658
-18.09686 6.722299 13.14813 -0.6227225 -0.6833235 0.3811637 42 44 47 255 0.079889 0.274762
-21.27789 13.48248 15.45929 -0.6308199 0.5247064 0.57162 42 44 47 255 0.079956 0.274698
-26.30091 13.48248 4e-06 -0.9638219 0.01847566 -0.2659061 42 44 47 255 0.08004 0.274579
-6.912382 6.722298 21.27413 -0.2421607 -0.7524977 0.6124585 42 44 47 255 0.079658 0.274834
-8.127429 13.48248 25.01365 -0.1743543 0.5247065 0.8332369 42 44 47 255 0.079681 0.274781
6.912384 6.722298 21.27413 0.1921045 -0.7252822 0.6611063 42 44 47 255 0.079368 0.274834
8.127431 13.48248 25.01365 0.3487087 0.5247065 0.7765857 42 44 47 255 0.079329 0.274781
18.09685 6.722299 13.14813 0.5440045 -0.7252822 0.42193 42 44 47 255 0.07916 0.274761
21.27789 13.48248 15.45929 0.7385769 0.5247065 0.4233053 42 44 47 255 0.079082 0.274697
22.36894 6.722301 0 0.5832794 -0.5067665 -0.6348015 42 44 47 255 0.079119 0.274657
26.30091 13.48248 2e-06 0.4433825 0.8076609 -0.3887106 42 44 47 255 0.07904 0.274578
-18.58792 13.48248 13.50492 0.3080614 0.9094906 -0.2791508 42 44 47 255 0.0799 0.274682
-22.97593 13.48248 3e-06 0.3399602 0.7480883 -0.5699044 42 44 47 255 0.079977 0.274579
-7.099956 13.48248 21.85142 0.1014792 0.9445412 -0.3123205 42 44 47 255 0.079661 0.274752
7.099956 13.48248 21.85142 -0.08514606 0.9094906 -0.4069116 42 44 47 255 0.079359 0.274752
18.58792 13.48248 13.50492 -0.3080613 0.9094906 -0.2791507 42 44 47 255 0.079144 0.274681
22.97593 13.48248 2e-06 -0.403724 0.6155916 -0.6767968 42 44 47 255 0.079103 0.274578
-13.72814 6.407483 9.974073 0.4841649 0.8262679 -0.287864 42 44 47 255 0.079786 0.274733
-16.96891 6.407484 2e-06 0.2464617 0.4239738 -0.8714946 42 44 47 255 0.079844 0.27466
-5.243683 6.407481 16.13839 0.1852438 0.8004038 -0.5701215 42 44 47 255 0.079622 0.274782
5.243681 6.407481 16.13839 -0.2224953 0.8262681 -0.5174717 42 44 47 255 0.079421 0.274782
13.72813 6.407483 9.974073 -0.4841649 0.826268 -0.2878641 42 44 47 255 0.079274 0.274733
16.96891 6.407484 1e-06 -0.2464618 0.4239738 -0.8714946 42 44 47 255 0.079239 0.274659
0 3.039017 -2e-06 -2.276942e-08 0.7241567 -0.6896355 42 44 47 255 0.079542 0.2747
11.47303 2.439523 8.335645 0.2646235 -0.9365799 0.2297662 42 44 47 255 0.079308 0.274773
14.18145 2.439525 -2e-06 0.2742878 -0.6911722 -0.6686159 42 44 47 255 0.079276 0.274707
4.382307 2.439523 13.48735 0.07903162 -0.93658 0.3414265 42 44 47 255 0.079437 0.274817
-4.382307 2.439523 13.48735 -0.09878558 -0.9475265 0.3040312 42 44 47 255 0.079613 0.274817
-11.47303 2.439523 8.335645 -0.2984144 -0.9294848 0.2168107 42 44 47 255 0.079757 0.274773
-14.18145 2.439525 -1e-06 -0.1837005 -0.544489 -0.8184046 42 44 47 255 0.079809 0.274707
0 0 -2e-06 -5.039182e-09 -0.9605765 -0.2780157 42 44 47 255 0.079543 0.274735
28.26153 21.20589 10.69278 0.3403906 -1.83074e-07 0.9402841 60 45 35 255 0.024737 0.229499
28.70532 20.0025 9.326926 0.5470072 -0.7383106 0.3945639 60 45 35 255 0.024687 0.229531
29.14911 21.20589 7.961073 0.6329543 1.081042e-07 -0.7741892 60 45 35 255 0.024604 0.229032
28.70532 22.40928 9.326927 0.5470071 0.7383105 0.3945641 60 45 35 255 0.024649 0.228973
25.12686 21.20589 6.654163 -0.3403908 2.196889e-07 -0.9402841 60 45 35 255 0.025426 0.228905
24.68307 22.40928 8.020018 -0.547007 0.7383106 -0.3945641 60 45 35 255 0.025514 0.22884
24.68307 20.0025 8.020017 -0.547007 -0.7383105 -0.3945644 60 45 35 255 0.025511 0.229396
24.23927 21.20589 9.385871 -0.6329542 -1.081043e-07 0.7741892 60 45 35 255 0.025604 0.229357
22.84044 9.174534 8.931359 0.01294427 -0.1773966 0.9840543 60 45 35 255 0.024737 0.229499
22.72451 8.124869 7.383644 0.3754587 -0.9187754 0.1219936 60 45 35 255 0.024687 0.229531
23.72802 9.174535 6.199652 0.4641147 -0.5028375 -0.7292132 60 45 35 255 0.024604 0.229032
23.84394 10.2242 7.747367 0.9398379 0.3299474 0.08854099 60 45 35 255 0.024649 0.228973
22.07673 10.14801 5.663117 0.4590523 0.3224133 -0.827841 60 45 35 255 0.025426 0.228905
22.19266 11.19767 7.210833 0.3648376 0.8401014 0.4014016 60 45 35 255 0.025514 0.22884
21.18915 10.14801 8.394824 -0.3090171 4.640208e-08 0.9510565 60 45 35 255 0.025604 0.229357
21.07323 9.098343 6.847108 -0.4651136 -0.8722562 -0.1511247 60 45 35 255 0.025511 0.229396
20.92756 6.478552 9.152604 -0.03701739 -0.5683984 0.8219204 42 44 47 255 0.080747 0.277391
22.31051 6.478553 4.896299 0.4549114 -0.7820793 -0.4259197 42 44 47 255 0.080623 0.277368
25.7392 12.95199 6.010349 0.8510993 -0.2347707 -0.469588 42 44 47 255 0.080508 0.277098
24.35625 12.95199 10.26665 0.3914325 -0.2900151 0.8733109 42 44 47 255 0.080633 0.277113
23.0519 13.41838 9.842847 -0.8516766 0.232868 0.4694886 42 44 47 255 0.080659 0.27709
24.43486 13.41838 5.586543 -0.3917177 0.2890839 -0.8734917 42 44 47 255 0.080533 0.277075
21.00618 6.944944 4.472494 -0.5095244 -0.2831677 -0.8125275 42 44 47 255 0.080646 0.277344
19.62322 6.944943 8.728799 -0.9391863 -0.334636 0.077123 42 44 47 255 0.080771 0.277367
27.3253 19.32948 6.525705 0.9594041 -0.06369495 -0.2747486 42 44 47 255 0.08045 0.276805
25.94234 19.32948 10.78201 0.6060721 -0.1376826 0.7834029 42 44 47 255 0.080577 0.276812
25.93339 19.54922 6.073444 -0.3123105 0.09677203 -0.9450383 42 44 47 255 0.080479 0.276795
24.55043 19.54922 10.32975 -0.8141254 0.04377056 0.5790372 42 44 47 255 0.080607 0.276801
27.24352 26.31926 6.499132 0.8059953 0.2482182 -0.5373632 42 44 47 255 0.080451 0.276469
25.86056 26.31926 10.75544 0.5140759 0.2094773 0.8317724 42 44 47 255 0.08058 0.276465
25.83392 26.36582 6.041127 -0.5390732 0.4068557 -0.7374745 42 44 47 255 0.080481 0.27647
24.45096 26.36582 10.29743 -0.7569756 0.4929408 0.4289491 42 44 47 255 0.08061 0.276466
26.55204 27.84991 8.627286 0.3016217 0.9483775 0.09800292 42 44 47 255 0.080514 0.276391
25.14244 27.89647 8.16928 -0.4738129 0.8670643 -0.1539512 42 44 47 255 0.080545 0.276393
-31.11684 23.69347 7e-06 -0.8714723 0.45816 -0.1750015 42 44 47 255 0.08004 0.274579
-25.17405 23.69347 18.29002 -0.4319769 0.8125101 0.3914377 42 44 47 255 0.079956 0.274698
-23.74297 23.69347 17.25028 0.7118043 0.5717541 -0.4079607 42 44 47 255 0.0799 0.274682
-29.34792 23.69347 6e-06 0.2972617 0.6251203 -0.7217063 42 44 47 255 0.079977 0.274579
-9.61563 23.69347 29.59387 -0.1680342 0.5717535 0.8030333 42 44 47 255 0.079681 0.274781
-9.069008 23.69347 27.91154 0.2387907 0.8125107 -0.5317944 42 44 47 255 0.079661 0.274752
9.615633 23.69347 29.59387 0.2387909 0.81251 0.5317956 42 44 47 255 0.079329 0.274781
9.069008 23.69347 27.91154 -0.1680342 0.5717541 -0.8030329 42 44 47 255 0.079359 0.274752
25.17405 23.69347 18.29002 0.5997395 0.7226068 0.3437326 42 44 47 255 0.079082 0.274697
23.74297 23.69347 17.25028 -0.5122383 0.7226074 -0.4641665 42 44 47 255 0.079144 0.274681
31.11684 23.69347 5e-06 0.6162239 0.6479362 -0.4477128 42 44 47 255 0.07904 0.274578
29.34792 23.69347 5e-06 -0.4999999 0.5257314 -0.6881909 42 44 47 255 0.079103 0.274578
-31.11684 18.63607 6e-06 -0.4357365 -0.4581598 -0.7747408 42 44 47 255 0.08004 0.274579
-25.17405 18.63606 18.29002 -0.5997391 -0.7226073 0.3437321 42 44 47 255 0.079956 0.274698
-23.74297 18.63606 17.25028 0.5122388 -0.7226066 -0.4641671 42 44 47 255 0.0799 0.274682
-29.34792 18.63607 5e-06 0.5945246 -0.6251199 -0.5057328 42 44 47 255 0.079977 0.274579
-9.61563 18.63606 29.59387 -0.2387906 -0.8125108 0.5317944 42 44 47 255 0.079681 0.274781
-9.069008 18.63606 27.91154 0.1680343 -0.5717535 -0.8030333 42 44 47 255 0.079661 0.274752
9.615633 18.63606 29.59387 0.141579 -0.7226074 0.6766047 42 44 47 255 0.079329 0.274781
9.069008 18.63606 27.91154 -0.2831585 -0.7226066 -0.6306037 42 44 47 255 0.079359 0.274752
25.17405 18.63606 18.29002 0.5122383 -0.7226073 0.4641666 42 44 47 255 0.079082 0.274697
23.74297 18.63606 17.25028 -0.5997396 -0.7226066 -0.3437327 42 44 47 255 0.079144 0.274681
31.11684 18.63607 4e-06 0.7444761 -0.3913941 -0.5408937 42 44 47 255 0.07904 0.274578
29.34792 18.63607 4e-06 -0.3696939 -0.7774373 -0.5088396 42 44 47 255 0.079103 0.274578
-29.14911 21.20589 7.961073 -0.8280669 3.66148e-08 -0.5606294 60 45 35 255 0.024737 0.229499
-28.70532 20.0025 9.326926 -0.5196181 -0.8375512 0.1688341 60 45 35 255 0.024687 0.229531
-28.26153 21.20589 10.69278 -0.3403906 -2.196888e-07 0.9402841 60 45 35 255 0.024604 0.229032
-28.70532 22.40928 9.326927 -0.5196182 0.8375512 0.1688343 60 45 35 255 0.024649 0.228973
-24.23927 21.20589 9.385871 0.6329541 -1.081042e-07 0.7741894 60 45 35 255 0.025426 0.228905
-24.68306 22.40928 8.020018 0.7548308 0.6083406 -0.2452594 60 45 35 255 0.025514 0.22884
-24.68306 20.0025 8.020017 0.7548308 -0.6083405 -0.2452596 60 45 35 255 0.025511 0.229396
-25.12686 21.20589 6.654163 0.05701362 1.729668e-07 -0.9983734 60 45 35 255 0.025604 0.229357
-23.72802 9.174535 6.199652 -0.4641149 -0.5028375 -0.7292132 60 45 35 255 0.024737 0.229499
-22.72451 8.124869 7.383644 -0.125592 -0.9580446 0.2576376 60 45 35 255 0.024687 0.229531
-22.84044 9.174534 8.931359 -0.2565651 0.07797909 0.9633762 60 45 35 255 0.024604 0.229032
-23.84394 10.2242 7.747367 -0.9398379 0.3299474 0.08854099 60 45 35 255 0.024649 0.228973
-21.18915 10.14801 8.394824 0.4590524 -0.3224135 0.8278409 60 45 35 255 0.025426 0.228905
-22.19266 11.19767 7.210833 -0.3648375 0.8401014 0.4014017 60 45 35 255 0.025514 0.22884
-22.07673 10.14801 5.663117 -0.4590524 0.3224133 -0.8278409 60 45 35 255 0.025604 0.229357
-21.07323 9.098343 6.847107 0.3648371 -0.8401016 -0.4014015 60 45 35 255 0.025511 0.229396
-22.31051 6.478553 4.896299 -0.4549114 -0.7820793 -0.4259198 42 44 47 255 0.080747 0.277391
-20.92756 6.478552 9.152604 0.03701737 -0.5683983 0.8219204 42 44 47 255 0.080623 0.277368
-24.35625 12.95199 10.26665 -0.5176238 -0.2973278 0.8022854 42 44 47 255 0.080508 0.277098
-25.7392 12.95199 6.010349 -0.7445768 -0.2056136 -0.6350815 42 44 47 255 0.080633 0.277113
-24.43486 13.41838 5.586543 0.3917177 0.2890839 -0.8734917 42 44 47 255 0.080659 0.27709
-23.0519 13.41838 9.842847 0.8516766 0.232868 0.4694886 42 44 47 255 0.080533 0.277075
-19.62322 6.944943 8.728799 0.9391863 -0.334636 0.07712299 42 44 47 255 0.080646 0.277344
-21.00618 6.944944 4.472494 0.5095244 -0.2831677 -0.8125275 42 44 47 255 0.080771 0.277367
-25.94234 19.32948 10.78201 -0.4450172 -0.08548006 0.8914331 42 44 47 255 0.08045 0.276805
-27.3253 19.32948 6.525705 -0.9820188 -0.108418 -0.1545465 42 44 47 255 0.080577 0.276812
-24.55043 19.54922 10.32975 0.8141253 0.04377056 0.5790372 42 44 47 255 0.080479 0.276795
-25.93339 19.54922 6.073444 0.3123105 0.09677202 -0.9450383 42 44 47 255 0.080607 0.276801
-25.86056 26.31926 10.75544 -0.5140759 0.2094773 0.8317724 42 44 47 255 0.080451 0.276469
-27.24352 26.31926 6.499132 -0.8059953 0.2482182 -0.5373632 42 44 47 255 0.08058 0.276465
-24.45096 26.36582 10.29743 0.7569757 0.4929408 0.4289491 42 44 47 255 0.080481 0.27647
-25.83392 26.36582 6.041127 0.5390732 0.4068557 -0.7374744 42 44 47 255 0.08061 0.276466
-26.55204 27.84991 8.627286 -0.3016217 0.9483774 0.09800293 42 44 47 255 0.080514 0.276391
-25.14244 27.89647 8.16928 0.4738128 0.8670643 -0.1539512 42 44 47 255 0.080545 0.276393
3 1 3 0 
3 2 5 3 
3 5 6 7 
3 6 0 7 
3 6 2 1 
3 0 5 7 
3 9 11 8 
3 10 13 11 
3 15 8 14 
3 15 10 9 
3 8 13 14 
3 17 19 16 
3 21 23 20 
3 22 16 23 
3 17 21 18 
3 16 20 23 
3 18 25 19 
3 18 26 24 
3 20 26 21 
3 19 27 20 
3 24 29 25 
3 26 28 24 
3 27 30 26 
3 27 29 31 
3 29 28 32 
3 30 32 28 
3 30 31 33 
3 31 32 33 
3 35 37 34 
3 38 36 35 
3 40 39 38 
3 42 41 40 
3 44 43 42 
3 36 47 37 
3 39 46 36 
3 41 48 39 
3 43 49 41 
3 45 50 43 
3 47 52 53 
3 46 54 52 
3 49 54 48 
3 50 55 49 
3 51 56 50 
3 53 52 58 
3 52 54 58 
3 54 55 58 
3 55 56 58 
3 56 57 58 
3 42 60 44 
3 40 59 42 
3 38 61 40 
3 38 63 62 
3 34 63 35 
3 60 59 65 
3 59 61 65 
3 61 62 65 
3 62 63 65 
3 63 64 65 
3 64 58 65 
3 58 60 65 
3 44 51 45 
3 60 57 44 
3 34 47 53 
3 53 64 34 
3 67 69 66 
3 68 71 69 
3 71 72 73 
3 73 67 66 
3 72 68 67 
3 73 69 71 
3 75 77 74 
3 77 78 79 
3 81 74 80 
3 81 76 75 
3 74 79 80 
3 83 85 82 
3 87 89 86 
3 89 83 82 
3 83 87 84 
3 82 86 89 
3 84 91 85 
3 84 92 90 
3 86 92 87 
3 85 93 86 
3 90 95 91 
3 92 94 90 
3 93 96 92 
3 93 95 97 
3 95 94 98 
3 96 98 94 
3 96 97 99 
3 97 98 99 
3 101 103 100 
3 101 105 102 
3 106 105 104 
3 106 109 107 
3 108 111 109 
3 113 100 112 
3 115 102 114 
3 116 101 113 
3 114 105 117 
3 118 104 116 
3 117 107 119 
3 120 106 118 
3 119 109 121 
3 122 108 120 
3 121 111 123 
3 120 123 122 
3 118 121 120 
3 116 119 118 
3 116 114 117 
3 113 115 114 
3 103 112 100 
3 122 111 110 
3 125 127 124 
3 127 128 129 
3 129 130 131 
3 131 125 124 
3 125 128 126 
3 131 127 129 
3 133 135 132 
3 134 137 135 
3 139 132 138 
3 133 136 134 
3 138 135 137 
3 140 142 143 
3 144 146 147 
3 146 140 147 
3 141 145 142 
3 140 144 147 
3 142 149 143 
3 142 150 148 
3 145 151 150 
3 143 151 144 
3 149 152 153 
3 150 152 148 
3 150 155 154 
3 151 153 155 
3 153 152 156 
3 154 156 152 
3 154 155 157 
3 155 156 157 
3 1 2 3 
3 2 4 5 
3 5 4 6 
3 6 1 0 
3 6 4 2 
3 0 3 5 
3 9 10 11 
3 10 12 13 
3 15 9 8 
3 15 12 10 
3 8 11 13 
3 17 18 19 
3 21 22 23 
3 22 17 16 
3 17 22 21 
3 16 19 20 
3 18 24 25 
3 18 21 26 
3 20 27 26 
3 19 25 27 
3 24 28 29 
3 26 30 28 
3 27 31 30 
3 27 25 29 
3 30 33 32 
3 31 29 32 
3 35 36 37 
3 38 39 36 
3 40 41 39 
3 42 43 41 
3 44 45 43 
3 36 46 47 
3 39 48 46 
3 41 49 48 
3 43 50 49 
3 45 51 50 
3 47 46 52 
3 46 48 54 
3 49 55 54 
3 50 56 55 
3 51 57 56 
3 42 59 60 
3 40 61 59 
3 38 62 61 
3 38 35 63 
3 34 64 63 
3 64 53 58 
3 58 57 60 
3 44 57 51 
3 34 37 47 
3 67 68 69 
3 68 70 71 
3 71 70 72 
3 73 72 67 
3 72 70 68 
3 73 66 69 
3 75 76 77 
3 77 76 78 
3 81 75 74 
3 81 78 76 
3 74 77 79 
3 83 84 85 
3 87 88 89 
3 89 88 83 
3 83 88 87 
3 82 85 86 
3 84 90 91 
3 84 87 92 
3 86 93 92 
3 85 91 93 
3 90 94 95 
3 92 96 94 
3 93 97 96 
3 93 91 95 
3 96 99 98 
3 97 95 98 
3 101 102 103 
3 101 104 105 
3 106 107 105 
3 106 108 109 
3 108 110 111 
3 113 101 100 
3 115 103 102 
3 116 104 101 
3 114 102 105 
3 118 106 104 
3 117 105 107 
3 120 108 106 
3 119 107 109 
3 122 110 108 
3 121 109 111 
3 120 121 123 
3 118 119 121 
3 116 117 119 
3 116 113 114 
3 113 112 115 
3 103 115 112 
3 122 123 111 
3 125 126 127 
3 127 126 128 
3 129 128 130 
3 131 130 125 
3 125 130 128 
3 131 124 127 
3 133 134 135 
3 134 136 137 
3 139 133 132 
3 133 139 136 
3 138 132 135 
3 140 141 142 
3 144 145 146 
3 146 141 140 
3 141 146 145 
3 140 143 144 
3 142 148 149 
3 142 145 150 
3 145 144 151 
3 143 149 151 
3 149 148 152 
3 150 154 152 
3 150 151 155 
3 151 149 153 
3 154 157 156 
3 155 153 156 
