ply
format ascii 1.0
comment INFO-3111 Flatenator generated
comment TextureFile Dungeons_Texture_01.png
element vertex 136
property float x
property float y
property float z
element face 248
property list uchar int vertex_indices
end_header
-1.91186 7.7864 31.5741 
1.91186 7.7864 31.5741 
1.91186 24.843 41.4217 
-1.91186 24.843 41.4217 
-1.91186 40.1192 53.8299 
1.91186 40.1192 53.8299 
1.91186 41.2958 52.3623 
-1.91186 41.2958 52.3623 
-1.91186 25.7808 39.7973 
1.91186 25.7808 39.7973 
1.91186 8.72424 29.9497 
-1.91186 8.72424 29.9497 
-9.14228 40.8788 40.0193 
-9.42249 43.4434 41.5 
-4.71125 39.3634 48.5668 
-4.57114 36.9201 46.876 
-4.57114 44.8376 33.1626 
-4.71125 47.5235 34.4331 
4.57114 44.8376 33.1626 
4.71125 47.5235 34.4331 
9.14228 40.8788 40.0193 
9.42249 43.4434 41.5 
4.57114 36.9201 46.876 
4.71124 39.3634 48.5668 
-11.0561 40.8788 40.0193 
-5.52806 36.0914 48.3114 
-5.69749 38.5093 50.0462 
-11.395 43.4434 41.5 
-5.52805 45.6663 31.7272 
-5.69748 48.3776 32.9537 
5.52805 45.6663 31.7272 
5.69749 48.3776 32.9537 
11.0561 40.8788 40.0193 
11.395 43.4434 41.5 
5.52805 36.0914 48.3114 
5.69748 38.5093 50.0462 
-9.23244 13.3586 21.9228 
-9.23244 11.4467 25.2343 
-9.23244 28.5033 35.0819 
-9.23244 30.4152 31.7705 
-12.3402 47.2452 41.4873 
-12.3402 45.3334 44.7988 
-10.4809 45.5803 44.9413 
-10.4809 47.4922 41.6299 
-7.35675 30.4152 31.7705 
-7.35675 28.5033 35.0819 
-7.35675 11.4467 25.2343 
-7.35675 13.3586 21.9228 
1.91186 17.0188 15.583 
-1.91186 17.0188 15.583 
-1.91186 34.0755 25.4307 
1.91186 34.0755 25.4307 
1.91186 52.4594 32.4561 
-1.91186 52.4594 32.4561 
-1.91186 51.7767 34.2089 
1.91186 51.7767 34.2089 
1.91186 33.1376 27.055 
-1.91186 33.1376 27.055 
-1.91186 16.081 17.2074 
1.91186 16.081 17.2074 
-3.192 1.47826 21.9813 
3.192 1.47826 21.9813 
6.38401 1.47826 16.4526 
-6.38401 1.47826 16.4526 
-6.38401 -1.35787 16.4526 
-3.192 -1.35788 21.9813 
-2.92001 -1.35787 10.9239 
-2.92001 1.47826 10.9239 
2.92002 -1.35787 -2.88034 
-2.92001 -1.35787 -2.88034 
-2.92001 1.47826 -2.88034 
2.92002 1.47826 -2.88034 
6.38401 -1.35787 16.4526 
2.92002 -1.35787 10.9239 
2.92002 1.47826 10.9239 
3.192 -1.35788 21.9813 
9.23244 11.4467 25.2343 
9.23244 13.3586 21.9228 
9.23244 30.4152 31.7705 
9.23244 28.5033 35.0819 
12.3402 45.3334 44.7988 
12.3402 47.2452 41.4873 
10.4809 47.4922 41.6299 
10.4809 45.5803 44.9413 
7.35675 28.5033 35.0819 
7.35675 30.4152 31.7705 
7.35675 13.3586 21.9228 
7.35675 11.4467 25.2343 
-6.64733 26.493 31.7137 
-6.64733 29.0576 33.1943 
-3.32367 26.1792 38.1798 
-3.32367 23.6147 36.6992 
-3.32367 29.3714 26.7282 
-3.32367 31.936 28.2088 
3.32367 29.3714 26.7282 
3.32367 31.936 28.2088 
6.64733 26.493 31.7137 
6.64733 29.0576 33.1943 
3.32366 23.6147 36.6992 
3.32366 26.1792 38.1798 
-8.49485 26.493 31.7137 
-4.24743 22.8147 38.0848 
-4.24743 25.3792 39.5654 
-8.49485 29.0576 33.1943 
-4.24743 30.1714 25.3425 
-4.24743 32.736 26.8232 
4.24743 30.1714 25.3425 
4.24743 32.736 26.8232 
8.49485 26.493 31.7137 
8.49485 29.0576 33.1943 
4.24743 22.8147 38.0848 
4.24743 25.3792 39.5654 
-1.70414 -25.9878 4.82208 
1.70414 -25.9878 4.82208 
1.70414 12.1796 26.8581 
-1.70414 12.1796 26.8581 
3.40828 -24.512 2.26587 
3.40828 13.6554 24.3019 
1.70414 -23.0362 -0.290341 
1.70414 15.1313 21.7457 
-1.70414 -23.0362 -0.290341 
-1.70414 15.1313 21.7457 
-3.40828 -24.512 2.26587 
-3.40828 13.6554 24.3019 
-4.24743 13.2454 32.56 
4.24743 13.2454 32.56 
8.49485 16.9237 26.1888 
-8.49485 16.9237 26.1888 
-8.49485 13.6554 24.3019 
-4.24743 9.97708 30.673 
-4.24743 17.3338 17.9307 
-4.24743 20.6021 19.8177 
4.24743 17.3338 17.9307 
4.24743 20.6021 19.8177 
8.49485 13.6554 24.3019 
4.24743 9.97708 30.673 
3 1 3 0
3 5 7 4
3 9 11 8
3 10 0 11
3 10 2 1
3 0 8 11
3 2 4 3
3 2 6 5
3 8 6 9
3 3 7 8
3 12 14 15
3 16 13 12
3 19 16 18
3 21 18 20
3 22 21 20
3 14 22 15
3 25 27 24
3 24 29 28
3 28 31 30
3 30 33 32
3 32 35 34
3 34 26 25
3 12 25 24
3 26 13 27
3 28 12 24
3 13 29 27
3 30 16 28
3 17 31 29
3 20 30 32
3 31 21 33
3 34 20 32
3 21 35 33
3 25 22 34
3 23 26 35
3 37 39 36
3 40 42 43
3 44 46 47
3 46 36 47
3 46 38 37
3 36 44 47
3 39 41 40
3 38 42 41
3 44 42 45
3 39 43 44
3 49 51 48
3 53 55 52
3 57 59 56
3 58 48 59
3 49 57 50
3 48 56 59
3 50 52 51
3 50 54 53
3 56 54 57
3 51 55 56
3 61 63 60
3 65 63 64
3 64 67 66
3 69 71 68
3 73 62 72
3 72 61 75
3 75 60 65
3 75 64 72
3 73 64 66
3 63 74 67
3 66 68 73
3 67 69 66
3 74 70 67
3 73 71 74
3 77 79 76
3 81 83 80
3 85 87 84
3 86 76 87
3 86 78 77
3 76 84 87
3 78 80 79
3 78 82 81
3 84 82 85
3 79 83 84
3 89 91 88
3 92 89 88
3 95 92 94
3 96 95 94
3 98 97 96
3 90 98 91
3 101 103 100
3 100 105 104
3 104 107 106
3 108 107 109
3 108 111 110
3 110 102 101
3 100 91 101
3 90 103 102
3 104 88 100
3 89 105 103
3 106 92 104
3 93 107 105
3 96 106 108
3 107 97 109
3 110 96 108
3 97 111 109
3 91 110 101
3 99 102 111
3 113 115 112
3 116 114 113
3 118 117 116
3 120 119 118
3 122 121 120
3 112 123 122
3 118 116 113
3 125 127 124
3 128 124 127
3 130 127 131
3 130 133 132
3 132 126 134
3 134 125 135
3 135 124 129
3 123 129 128
3 123 130 121
3 119 130 132
3 117 132 134
3 117 135 114
3 115 135 129
3 127 133 131
3 1 2 3
3 5 6 7
3 9 10 11
3 10 1 0
3 10 9 2
3 0 3 8
3 2 5 4
3 2 9 6
3 8 7 6
3 3 4 7
3 12 13 14
3 16 17 13
3 19 17 16
3 21 19 18
3 22 23 21
3 14 23 22
3 25 26 27
3 24 27 29
3 28 29 31
3 30 31 33
3 32 33 35
3 34 35 26
3 12 15 25
3 26 14 13
3 28 16 12
3 13 17 29
3 30 18 16
3 17 19 31
3 20 18 30
3 31 19 21
3 34 22 20
3 21 23 35
3 25 15 22
3 23 14 26
3 37 38 39
3 40 41 42
3 44 45 46
3 46 37 36
3 46 45 38
3 36 39 44
3 39 38 41
3 38 45 42
3 44 43 42
3 39 40 43
3 49 50 51
3 53 54 55
3 57 58 59
3 58 49 48
3 49 58 57
3 48 51 56
3 50 53 52
3 50 57 54
3 56 55 54
3 51 52 55
3 61 62 63
3 65 60 63
3 64 63 67
3 69 70 71
3 73 74 62
3 72 62 61
3 75 61 60
3 75 65 64
3 73 72 64
3 63 62 74
3 66 69 68
3 67 70 69
3 74 71 70
3 73 68 71
3 77 78 79
3 81 82 83
3 85 86 87
3 86 77 76
3 86 85 78
3 76 79 84
3 78 81 80
3 78 85 82
3 84 83 82
3 79 80 83
3 89 90 91
3 92 93 89
3 95 93 92
3 96 97 95
3 98 99 97
3 90 99 98
3 101 102 103
3 100 103 105
3 104 105 107
3 108 106 107
3 108 109 111
3 110 111 102
3 100 88 91
3 90 89 103
3 104 92 88
3 89 93 105
3 106 94 92
3 93 95 107
3 96 94 106
3 107 95 97
3 110 98 96
3 97 99 111
3 91 98 110
3 99 90 102
3 113 114 115
3 116 117 114
3 118 119 117
3 120 121 119
3 122 123 121
3 112 115 123
3 113 112 118
3 112 122 118
3 122 120 118
3 125 126 127
3 128 129 124
3 130 128 127
3 130 131 133
3 132 133 126
3 134 126 125
3 135 125 124
3 123 115 129
3 123 128 130
3 119 121 130
3 117 119 132
3 117 134 135
3 115 114 135
3 127 126 133
