ply
format ascii 1.0
comment VCGLIB generated
comment TextureFile Dungeons_Texture_01.png
element vertex 103
property float x
property float y
property float z
property float nx
property float ny
property float nz
property uchar red
property uchar green
property uchar blue
property uchar alpha
property float texture_u
property float texture_v
element face 184
property list uchar int vertex_indices
end_header
31.06818 -1e-06 4.044122 0.4082482 -0.4082486 0.8164965 42 44 47 255 0.080404 0.280996
31.06818 1e-06 -4.044116 0.5773503 -0.5773503 -0.5773503 42 44 47 255 0.08033 0.281045
31.06818 4.6222 -4.044116 0.7311645 0.4557571 -0.5076258 42 44 47 255 0.080331 0.280968
31.06818 4.6222 4.044123 0.8140463 0.5074198 0.2825844 42 44 47 255 0.080405 0.28092
22.98002 8.589264 -4.044116 0.3912447 0.3902563 -0.8334433 42 44 47 255 0.080208 0.28087
22.98001 8.589262 4.044124 0.5072273 0.2192998 0.8334435 42 44 47 255 0.080284 0.280826
18.65552 1e-06 -4.044117 -0.4082484 -0.4082482 -0.8164966 42 44 47 255 0.080143 0.280995
18.65552 -1e-06 4.044122 -0.5773503 -0.5773504 0.5773502 42 44 47 255 0.08022 0.280949
21.62427 26.06642 4.044127 0.7061298 0.002317895 0.7080787 42 44 47 255 0.080266 0.280531
21.62428 26.06642 -4.044113 0.8939296 0.002934542 -0.4481979 42 44 47 255 0.080188 0.280568
22.98002 45.16927 -4.044111 0.6682252 -0.2150657 -0.7121952 42 44 47 255 0.08021 0.28023
22.98001 45.16927 4.044129 0.6893165 -0.132742 0.7121954 42 44 47 255 0.08029 0.280201
18.65552 26.06642 -4.044112 -0.6000002 1.218419e-07 -0.7999999 42 44 47 255 0.080142 0.280558
18.65552 47.50775 -4.044109 -0.7071069 1.404621e-07 -0.7071066 42 44 47 255 0.080142 0.280177
18.65552 26.06642 4.044127 -0.6 -1.33774e-07 0.8 42 44 47 255 0.080222 0.280522
18.65552 47.50775 4.04413 -0.4472135 -1.712078e-07 0.8944273 42 44 47 255 0.080223 0.28015
27.15334 54.2506 -4.044109 0.6425099 -0.2952646 -0.7071067 42 44 47 255 0.080278 0.280069
27.15333 54.2506 4.044131 0.8127175 -0.3734835 0.447214 42 44 47 255 0.080358 0.280045
-12.03178 5e-06 -28.92789 0.5029827 -0.4082483 -0.7618017 42 44 47 255 0.080404 0.280996
-19.0364 4e-06 -24.88378 -0.788675 -0.5773505 -0.211325 42 44 47 255 0.08033 0.281045
-19.0364 4.622204 -24.88378 -0.6483945 0.6445379 -0.405161 42 44 47 255 0.080331 0.280968
-12.03178 4.622205 -28.9279 -0.1271223 0.3222689 -0.9380739 42 44 47 255 0.080405 0.28092
-14.99232 8.589266 -17.87922 -0.9753969 0.2193 -0.02255023 42 44 47 255 0.080208 0.28087
-7.987695 8.589267 -21.92334 0.5261608 0.3902561 -0.7555495 42 44 47 255 0.080284 0.280826
-12.83007 2e-06 -14.1341 -0.2440167 -0.3333335 0.9106836 42 44 47 255 0.080143 0.280995
-5.82545 3e-06 -18.17822 0.744017 -0.6666666 -0.0446584 42 44 47 255 0.08022 0.280949
-7.309825 26.06642 -20.74923 0.065649 0.02330569 -0.9975706 42 44 47 255 0.080266 0.280531
-14.31444 26.06642 -16.70511 -0.8968135 -0.01784851 -0.4420488 42 44 47 255 0.080188 0.280568
-14.99232 45.16927 -17.87922 -0.9508917 -0.2150658 -0.2226024 42 44 47 255 0.08021 0.28023
-7.987695 45.16927 -21.92333 0.272121 -0.1327418 -0.9530634 42 44 47 255 0.08029 0.280201
-12.83007 26.06642 -14.1341 -0.3928201 -1.540332e-07 0.9196154 42 44 47 255 0.080142 0.280558
-12.83007 47.50776 -14.13409 -0.5509896 -1.978259e-07 0.8345121 42 44 47 255 0.080142 0.280177
-5.82545 26.06642 -18.17822 0.9928204 -5.795322e-09 0.1196151 42 44 47 255 0.080222 0.280522
-5.82545 47.50776 -18.17821 0.9659259 -8.406945e-08 0.258819 42 44 47 255 0.080223 0.28015
-17.07898 54.2506 -21.49341 -0.9336273 -0.2952647 -0.2028765 42 44 47 255 0.080278 0.280069
-10.07435 54.2506 -25.53753 -0.01906011 -0.3734833 -0.9274411 42 44 47 255 0.080358 0.280045
-19.0364 -4e-06 24.88377 -0.9112309 -0.4082483 -0.05469501 42 44 47 255 0.080404 0.280996
-12.03179 -5e-06 28.92789 0.2113248 -0.5773505 0.788675 42 44 47 255 0.08033 0.281045
-12.03178 4.622195 28.92789 0.07403471 0.4557569 0.8870201 42 44 47 255 0.080331 0.280968
-19.0364 4.622196 24.88378 -0.6517483 0.5074198 0.5636927 42 44 47 255 0.080405 0.28092
-7.987701 8.589259 21.92334 0.382554 0.3681304 0.847427 42 44 47 255 0.080208 0.28087
-14.99232 8.58926 17.87922 -0.9591686 0.2236174 -0.1731787 42 44 47 255 0.080284 0.280826
-5.825453 -3e-06 18.17822 0.911231 -0.4082483 0.05469473 42 44 47 255 0.080143 0.280995
-12.83007 -2e-06 14.1341 -0.2113248 -0.5773501 -0.7886752 42 44 47 255 0.08022 0.280949
-14.31445 26.06642 16.70511 -0.8967461 0.02330544 0.4419314 42 44 47 255 0.080266 0.280531
-7.309829 26.06642 20.74924 0.06558124 -0.01784879 0.9976876 42 44 47 255 0.080188 0.280568
-7.987701 45.16926 21.92335 0.2826666 -0.215066 0.9347974 42 44 47 255 0.08021 0.28023
-14.99232 45.16926 17.87922 -0.9614376 -0.132742 0.2408678 42 44 47 255 0.08029 0.280201
-5.825455 26.06642 18.17822 0.9928203 1.36989e-08 -0.1196156 42 44 47 255 0.080142 0.280558
-5.825453 47.50775 18.17822 0.9659258 -6.971817e-09 -0.2588191 42 44 47 255 0.080142 0.280177
-12.83007 26.06642 14.1341 -0.3928203 1.417324e-07 -0.9196153 42 44 47 255 0.080222 0.280522
-12.83007 47.50775 14.1341 -0.5509898 1.521803e-07 -0.834512 42 44 47 255 0.080223 0.28015
-10.07436 54.2506 25.53755 0.2911174 -0.2952651 0.9099831 42 44 47 255 0.080278 0.280069
-17.07898 54.2506 21.49342 -0.7936575 -0.3734837 0.4802269 42 44 47 255 0.080358 0.280045
14.28626 4e-06 -24.74451 0.4742889 0.3165452 -0.821492 42 44 47 255 0.080414 0.280687
-14.28625 4e-06 -24.74452 -0.2960465 -0.4266061 -0.8546132 42 44 47 255 0.080877 0.280693
-9.999997 7.468991 -17.32051 -0.225474 0.9388167 -0.2603549 42 44 47 255 0.08081 0.280623
10 7.468991 -17.32051 0.2270708 0.8909296 -0.3932978 42 44 47 255 0.080475 0.280618
-28.57251 0 -3e-06 -0.8442125 0.5107927 -0.1624689 42 44 47 255 0.081136 0.280859
-20 7.468988 -1e-06 -0.3382111 0.9388167 0.06508888 42 44 47 255 0.080988 0.280736
-14.28626 -4e-06 24.74452 -0.5920934 -0.4266063 0.6836904 42 44 47 255 0.080893 0.281045
-10 7.468985 17.32051 -0.1127371 0.9388165 0.325444 42 44 47 255 0.080813 0.280856
14.28625 -4e-06 24.74452 0.4017815 0.5952197 0.695906 42 44 47 255 0.080351 0.281036
9.999999 7.468985 17.32051 0.1341724 0.9633229 0.2323936 42 44 47 255 0.080439 0.280851
28.57251 -0 1e-06 0.8881401 -0.4266062 -0.1709225 42 44 47 255 0.080136 0.280844
20 7.468988 2e-06 0.2880799 0.9560001 0.0554412 42 44 47 255 0.080282 0.280726
8.154931 7.46899 -14.12475 -0.3406704 0.8539332 0.3933724 42 44 47 255 0.080503 0.280638
-8.154926 7.46899 -14.12475 0.3546669 0.7048723 0.6143016 42 44 47 255 0.080779 0.280642
-7.981143 4.638666 -13.82375 0.3551659 0.7038667 0.6151658 42 44 47 255 0.080776 0.280644
7.981148 4.638666 -13.82375 -0.2845477 0.5917159 0.7542579 42 44 47 255 0.080506 0.28064
-16.30986 7.468988 -1e-06 0.6101957 0.7834992 -0.117432 42 44 47 255 0.080923 0.280735
-15.96229 4.638664 -1e-06 0.7954804 0.5917158 0.1307038 42 44 47 255 0.080917 0.280735
-8.15493 7.468986 14.12475 0.2033986 0.7834992 -0.587161 42 44 47 255 0.080779 0.280832
-7.981147 4.638661 13.82375 0.5109329 0.5917159 -0.6235543 42 44 47 255 0.080775 0.28083
8.154928 7.468986 14.12475 -0.2363121 0.8812641 -0.4093046 42 44 47 255 0.080477 0.280828
7.981145 4.638661 13.82375 -0.4275611 0.5184263 -0.7405577 42 44 47 255 0.080481 0.280825
16.30986 7.468988 2e-06 -0.7369011 0.6609576 -0.1418167 42 44 47 255 0.080347 0.280727
15.96229 4.638664 2e-06 -0.7954804 0.5917158 0.1307036 42 44 47 255 0.080353 0.280727
1e-06 0.985783 0 -1.284386e-08 1 1.926579e-07 42 44 47 255 0.080634 0.280836
15.15177 54.97673 26.24364 0.2187098 0.8992577 0.3788163 42 44 47 255 0.080414 0.280687
-15.15176 54.97673 26.24364 -0.2907453 0.4593759 0.8393099 42 44 47 255 0.080877 0.280693
-10.23579 45.16926 17.72892 -0.1585931 -0.9770468 -0.1422246 42 44 47 255 0.08081 0.280623
10.2358 45.16927 17.72892 -0.02514899 -0.9894118 0.1429399 42 44 47 255 0.080475 0.280618
-30.30353 54.97674 1.5e-05 -0.8722363 0.4593759 0.167862 42 44 47 255 0.081136 0.280859
-20.47159 45.16927 9e-06 0.2002826 -0.9759174 -0.08644135 42 44 47 255 0.080988 0.280736
-15.15177 54.97674 -26.24362 -0.5814909 0.4593759 -0.6714478 42 44 47 255 0.080893 0.281045
-10.23579 45.16927 -17.7289 0.0149524 -0.9989561 0.04316353 42 44 47 255 0.080813 0.280856
15.15176 54.97674 -26.24362 0.2907454 0.4593759 -0.8393098 42 44 47 255 0.080351 0.281036
10.23579 45.16927 -17.72891 0.1880331 -0.9781637 -0.08853959 42 44 47 255 0.080439 0.280851
30.30353 54.97674 3e-06 0.9728456 -0.2314551 -2.341181e-07 42 44 47 255 0.080136 0.280844
20.47159 45.16927 5e-06 -0.258673 -0.9572824 0.1292234 42 44 47 255 0.080282 0.280726
13.27115 54.97673 22.98631 -0.1772399 0.9350638 -0.3069881 42 44 47 255 0.080414 0.280687
9.289455 47.50775 16.08981 -0.4133586 0.2068423 -0.8867643 42 44 47 255 0.080475 0.280618
-9.289449 47.50775 16.08981 0.6527607 0.07598885 -0.7537435 42 44 47 255 0.08081 0.280623
-13.27114 54.97673 22.98631 0.1178858 0.9328955 -0.3403071 42 44 47 255 0.080877 0.280693
-18.5789 47.50775 1e-05 0.9970021 0.0773745 -1.104213e-08 42 44 47 255 0.080988 0.280736
-26.54229 54.97674 1.2e-05 0.4069031 0.9134714 8.041619e-08 42 44 47 255 0.081136 0.280859
-9.289453 47.50776 -16.08979 0.652761 0.07598828 0.7537432 42 44 47 255 0.080813 0.280856
-13.27115 54.97674 -22.98629 0.1178858 0.9328955 0.3403071 42 44 47 255 0.080893 0.281045
9.289451 47.50776 -16.0898 -0.4310225 -0.05469638 0.9006819 42 44 47 255 0.080439 0.280851
13.27114 54.97674 -22.98629 -0.2357717 0.9328955 0.2722458 42 44 47 255 0.080351 0.281036
18.5789 47.50775 7e-06 -0.9969482 0.07737017 -0.01039476 42 44 47 255 0.080282 0.280726
26.54229 54.97674 8e-06 -0.3010518 0.9518461 -0.05793728 42 44 47 255 0.080136 0.280844
3 1 3 0 
3 3 4 5 
3 1 4 2 
3 7 1 0 
3 5 0 3 
3 9 11 8 
3 12 10 9 
3 14 13 12 
3 14 11 15 
3 5 9 8 
3 4 12 9 
3 7 12 6 
3 5 14 7 
3 10 17 11 
3 10 13 16 
3 15 11 17 
3 19 21 18 
3 20 23 21 
3 19 22 20 
3 25 19 18 
3 23 18 21 
3 27 29 26 
3 30 28 27 
3 30 33 31 
3 32 29 33 
3 22 26 23 
3 22 30 27 
3 24 32 30 
3 23 32 25 
3 28 35 29 
3 28 31 34 
3 33 29 35 
3 37 39 36 
3 39 40 41 
3 37 40 38 
3 43 37 36 
3 41 36 39 
3 45 47 44 
3 48 46 45 
3 50 49 48 
3 50 47 51 
3 40 44 41 
3 40 48 45 
3 43 48 42 
3 41 50 43 
3 46 53 47 
3 46 49 52 
3 51 47 53 
3 55 57 54 
3 58 56 55 
3 60 59 58 
3 62 61 60 
3 62 65 63 
3 64 57 65 
3 64 60 55 
3 67 69 66 
3 67 71 68 
3 70 73 71 
3 72 75 73 
3 76 75 74 
3 66 77 76 
3 69 68 78 
3 68 71 78 
3 71 73 78 
3 73 75 78 
3 75 77 78 
3 77 69 78 
3 56 66 57 
3 59 67 56 
3 61 70 59 
3 63 72 61 
3 65 74 63 
3 65 66 76 
3 80 82 79 
3 83 81 80 
3 85 84 83 
3 87 86 85 
3 89 88 87 
3 89 82 90 
3 92 94 91 
3 93 96 94 
3 96 97 98 
3 98 99 100 
3 100 101 102 
3 102 92 91 
3 94 79 91 
3 92 81 93 
3 96 80 94 
3 93 84 95 
3 98 83 96 
3 97 84 86 
3 100 85 98 
3 99 86 88 
3 102 87 100 
3 99 90 101 
3 102 79 89 
3 101 82 92 
3 1 2 3 
3 3 2 4 
3 1 6 4 
3 7 6 1 
3 5 7 0 
3 9 10 11 
3 12 13 10 
3 14 15 13 
3 14 8 11 
3 5 4 9 
3 4 6 12 
3 7 14 12 
3 5 8 14 
3 10 16 17 
3 19 20 21 
3 20 22 23 
3 19 24 22 
3 25 24 19 
3 23 25 18 
3 27 28 29 
3 30 31 28 
3 30 32 33 
3 32 26 29 
3 22 27 26 
3 22 24 30 
3 24 25 32 
3 23 26 32 
3 28 34 35 
3 37 38 39 
3 39 38 40 
3 37 42 40 
3 43 42 37 
3 41 43 36 
3 45 46 47 
3 48 49 46 
3 50 51 49 
3 50 44 47 
3 40 45 44 
3 40 42 48 
3 43 50 48 
3 41 44 50 
3 46 52 53 
3 55 56 57 
3 58 59 56 
3 60 61 59 
3 62 63 61 
3 62 64 65 
3 64 54 57 
3 55 54 64 
3 64 62 60 
3 60 58 55 
3 67 68 69 
3 67 70 71 
3 70 72 73 
3 72 74 75 
3 76 77 75 
3 66 69 77 
3 56 67 66 
3 59 70 67 
3 61 72 70 
3 63 74 72 
3 65 76 74 
3 65 57 66 
3 80 81 82 
3 83 84 81 
3 85 86 84 
3 87 88 86 
3 89 90 88 
3 89 79 82 
3 92 93 94 
3 93 95 96 
3 96 95 97 
3 98 97 99 
3 100 99 101 
3 102 101 92 
3 94 80 79 
3 92 82 81 
3 96 83 80 
3 93 81 84 
3 98 85 83 
3 97 95 84 
3 100 87 85 
3 99 97 86 
3 102 89 87 
3 99 88 90 
3 102 91 79 
3 101 90 82 
