ply
format ascii 1.0
comment INFO-3111 Flatenator generated
comment TextureFile Dungeons_Texture_01.png
element vertex 136
property float x
property float y
property float z
property float nx
property float ny
property float nz
element face 248
property list uchar int vertex_indices
end_header
-1.91186 7.7864 31.5741 -0.666667 -0.744017 -0.0446587 
1.91186 7.7864 31.5741 0.408248 -0.761802 0.502982 
1.91186 24.843 41.4217 0.800804 -0.352546 0.484174 
-1.91186 24.843 41.4217 -0.708095 -0.384845 0.592028 
-1.91186 40.1192 53.8299 -0.40912 -0.196683 0.891032 
1.91186 40.1192 53.8299 0.40912 0.38046 0.82938 
1.91186 41.2958 52.3623 0.665937 0.678898 -0.309234 
-1.91186 41.2958 52.3623 -0.665937 0.729129 0.157797 
-1.91186 25.7808 39.7973 -0.708077 0.415101 -0.571243 
1.91186 25.7808 39.7973 0.555754 0.452761 -0.69724 
1.91186 8.72424 29.9497 0.666667 -0.410683 -0.622009 
-1.91186 8.72424 29.9497 -0.408248 0.0546951 -0.911231 
-9.14228 40.8788 40.0193 0.564339 -0.654424 -0.503241 
-9.42249 43.4434 41.5 0.518154 0.685789 0.511087 
-4.71125 39.3634 48.5668 0.414634 0.843063 -0.342525 
-4.57114 36.9201 46.876 0.342435 -0.334486 -0.877985 
-4.57114 44.8376 33.1626 0.395341 -0.87258 0.286897 
-4.71125 47.5235 34.4331 0.239512 0.552775 0.798169 
4.57114 44.8376 33.1626 -0.544987 -0.794472 0.26796 
4.71125 47.5235 34.4331 -0.249233 0.201672 0.947212 
9.14228 40.8788 40.0193 -0.410319 -0.789765 -0.455971 
9.42249 43.4434 41.5 -0.623722 0.676925 0.390823 
4.57114 36.9201 46.876 -0.395341 -0.18783 -0.899125 
4.71124 39.3634 48.5668 -0.239512 0.967622 0.0796338 
-11.0561 40.8788 40.0193 -0.740114 -0.497955 -0.451964 
-5.52806 36.0914 48.3114 -0.342089 -0.935886 -0.0842154 
-5.69749 38.5093 50.0462 -0.189636 0.432164 0.881631 
-11.395 43.4434 41.5 -0.824365 0.391249 0.40908 
-5.52805 45.6663 31.7272 -0.204298 -0.381757 -0.901401 
-5.69748 48.3776 32.9537 -0.456685 0.884165 -0.0984408 
5.52805 45.6663 31.7272 0.342089 -0.540876 -0.768393 
5.69749 48.3776 32.9537 0.189636 0.979596 -0.0665501 
11.0561 40.8788 40.0193 0.740114 -0.64039 -0.205259 
11.395 43.4434 41.5 0.824365 0.549898 0.134292 
5.52805 36.0914 48.3114 0.204298 -0.971515 0.12009 
5.69748 38.5093 50.0462 0.456686 0.356829 0.81493 
-9.23244 13.3586 21.9228 -0.333333 -0.244017 -0.910684 
-9.23244 11.4467 25.2343 -0.816497 -0.557678 0.149429 
-9.23244 28.5033 35.0819 -0.444687 -0.478093 0.757417 
-9.23244 30.4152 31.7705 -0.796582 0.245793 -0.552307 
-12.3402 47.2452 41.4873 -0.528034 0.849037 0.017781 
-12.3402 45.3334 44.7988 -0.869997 0.0337563 0.4919 
-10.4809 45.5803 44.9413 0.481918 0.28332 0.829147 
-10.4809 47.4922 41.6299 0.341047 0.812371 -0.473011 
-7.35675 30.4152 31.7705 0.796644 0.354907 -0.489284 
-7.35675 28.5033 35.0819 0.703836 -0.306113 0.641022 
-7.35675 11.4467 25.2343 0.57735 -0.788675 0.211325 
-7.35675 13.3586 21.9228 0.57735 -0.211325 -0.788675 
1.91186 17.0188 15.583 0.666667 -0.410684 -0.622008 
-1.91186 17.0188 15.583 -0.666667 0.0446582 -0.744017 
-1.91186 34.0755 25.4307 -0.708095 0.28653 -0.64537 
1.91186 34.0755 25.4307 0.708094 0.320289 -0.629299 
1.91186 52.4594 32.4561 0.40912 0.673315 -0.615848 
-1.91186 52.4594 32.4561 -0.40912 0.908494 -0.0852021 
-1.91186 51.7767 34.2089 -0.665937 0.0716443 0.74256 
1.91186 51.7767 34.2089 0.665937 0.50122 0.552546 
1.91186 33.1376 27.055 0.708077 -0.28716 0.64511 
-1.91186 33.1376 27.055 -0.708077 -0.320599 0.629161 
-1.91186 16.081 17.2074 -0.408248 -0.911231 -0.0546947 
1.91186 16.081 17.2074 0.408248 -0.761802 0.502983 
-3.192 1.47826 21.9813 -0.306186 0.353553 0.883883 
3.192 1.47826 21.9813 0.522233 0.603023 0.603023 
6.38401 1.47826 16.4526 0.776597 0.606517 -0.170395 
-6.38401 1.47826 16.4526 -0.539338 0.836358 0.0980755 
-6.38401 -1.35787 16.4526 -0.535446 -0.836358 -0.117484 
-3.192 -1.35788 21.9813 -0.612373 -0.353553 0.707107 
-2.92001 -1.35787 10.9239 -0.518501 -0.841992 -0.149016 
-2.92001 1.47826 10.9239 -0.852616 0.46152 -0.24504 
2.92002 -1.35787 -2.88034 0.408248 -0.816497 -0.408248 
-2.92001 -1.35787 -2.88034 -0.666667 -0.333333 -0.666667 
-2.92001 1.47826 -2.88034 -0.408248 0.816497 -0.408248 
2.92002 1.47826 -2.88034 0.666667 0.333333 -0.666667 
6.38401 -1.35787 16.4526 0.782243 -0.606517 0.142246 
2.92002 -1.35787 10.9239 0.757694 -0.615208 -0.217759 
2.92002 1.47826 10.9239 0.416281 0.90133 -0.119638 
3.192 -1.35788 21.9813 0.261117 -0.603023 0.753778 
9.23244 11.4467 25.2343 0.333333 -0.910684 0.244017 
9.23244 13.3586 21.9228 0.816497 -0.149429 -0.557677 
9.23244 30.4152 31.7705 0.59558 0.345646 -0.72513 
9.23244 28.5033 35.0819 0.705133 -0.386325 0.594592 
12.3402 45.3334 44.7988 0.869997 0.0337563 0.4919 
12.3402 47.2452 41.4873 0.528035 0.849037 0.017781 
10.4809 47.4922 41.6299 -0.607254 0.70824 -0.360055 
10.4809 45.5803 44.9413 -0.227909 0.282206 0.931889 
7.35675 28.5033 35.0819 -0.702261 -0.290068 0.650146 
7.35675 30.4152 31.7705 -0.830208 0.315534 -0.459556 
7.35675 13.3586 21.9228 -0.333333 -0.244017 -0.910684 
7.35675 11.4467 25.2343 -0.816497 -0.557678 0.149429 
-6.64733 26.493 31.7137 0.5 -0.75 -0.433013 
-6.64733 29.0576 33.1943 0.755929 0.566947 0.327327 
-3.32367 26.1792 38.1798 0.216507 0.962019 -0.166265 
-3.32367 23.6147 36.6992 0.361158 -0.513801 -0.778186 
-3.32367 29.3714 26.7282 0.377964 -0.894274 0.23962 
-3.32367 31.936 28.2088 0.25 0.533494 0.808013 
3.32367 29.3714 26.7282 -0.327327 -0.938127 0.113026 
3.32367 31.936 28.2088 -0.433013 0.0580126 0.899519 
6.64733 26.493 31.7137 -0.541736 -0.774444 -0.32674 
6.64733 29.0576 33.1943 -0.541736 0.774444 0.326739 
3.32366 23.6147 36.6992 -0.433013 -0.0580119 -0.899519 
3.32366 26.1792 38.1798 -0.25 0.966506 0.058013 
-8.49485 26.493 31.7137 -0.649519 -0.587019 -0.483253 
-4.24743 22.8147 38.0848 -0.522233 -0.823744 0.220722 
-4.24743 25.3792 39.5654 -0.216506 0.337019 0.916266 
-8.49485 29.0576 33.1943 -0.649519 0.587019 0.483253 
-4.24743 30.1714 25.3425 -0.216506 -0.337019 -0.916266 
-4.24743 32.736 26.8232 -0.433013 0.899519 -0.0580127 
4.24743 30.1714 25.3425 0.19868 -0.622657 -0.756852 
4.24743 32.736 26.8232 0.327327 0.938127 -0.113026 
8.49485 26.493 31.7137 0.866025 -0.433013 -0.25 
8.49485 29.0576 33.1943 0.654654 0.654653 0.377964 
4.24743 22.8147 38.0848 0.180579 -0.982958 0.0344182 
4.24743 25.3792 39.5654 0.433013 0.399519 0.808013 
-1.70414 -25.9878 4.82208 -0.522233 -0.823744 0.220721 
1.70414 -25.9878 4.82208 0.261116 -0.899122 0.35128 
1.70414 12.1796 26.8581 0.522233 -0.823744 0.220722 
-1.70414 12.1796 26.8581 -0.216506 -0.962019 0.166266 
3.40828 -24.512 2.26587 0.918559 -0.394575 -0.0236837 
3.40828 13.6554 24.3019 0.541736 -0.670187 -0.507318 
1.70414 -23.0362 -0.290341 0.361158 -0.513801 -0.778187 
1.70414 15.1313 21.7457 0.216506 -0.337019 -0.916266 
-1.70414 -23.0362 -0.290341 -0.306186 0.135756 -0.942242 
-1.70414 15.1313 21.7457 -0.522233 -0.220721 -0.823744 
-3.40828 -24.512 2.26587 -0.78335 -0.446855 -0.43207 
-3.40828 13.6554 24.3019 -0.541736 -0.774444 -0.32674 
-4.24743 13.2454 32.56 -0.480384 -0.175833 0.859252 
4.24743 13.2454 32.56 0.522233 0.220721 0.823744 
8.49485 16.9237 26.1888 0.78335 0.597611 0.170953 
-8.49485 16.9237 26.1888 -0.541736 0.774444 0.326739 
-8.49485 13.6554 24.3019 -0.78335 -0.597611 -0.170953 
-4.24743 9.97708 30.673 -0.25 -0.966506 -0.0580127 
-4.24743 17.3338 17.9307 -0.327327 -0.37118 -0.868955 
-4.24743 20.6021 19.8177 -0.433012 0.808013 -0.399519 
4.24743 17.3338 17.9307 0.433013 -0.399519 -0.808013 
4.24743 20.6021 19.8177 0.261117 0.899122 -0.35128 
8.49485 13.6554 24.3019 0.783349 -0.597611 -0.170953 
4.24743 9.97708 30.673 0.180579 -0.982958 0.0344182 
3 1 3 0
3 5 7 4
3 9 11 8
3 10 0 11
3 10 2 1
3 0 8 11
3 2 4 3
3 2 6 5
3 8 6 9
3 3 7 8
3 12 14 15
3 16 13 12
3 19 16 18
3 21 18 20
3 22 21 20
3 14 22 15
3 25 27 24
3 24 29 28
3 28 31 30
3 30 33 32
3 32 35 34
3 34 26 25
3 12 25 24
3 26 13 27
3 28 12 24
3 13 29 27
3 30 16 28
3 17 31 29
3 20 30 32
3 31 21 33
3 34 20 32
3 21 35 33
3 25 22 34
3 23 26 35
3 37 39 36
3 40 42 43
3 44 46 47
3 46 36 47
3 46 38 37
3 36 44 47
3 39 41 40
3 38 42 41
3 44 42 45
3 39 43 44
3 49 51 48
3 53 55 52
3 57 59 56
3 58 48 59
3 49 57 50
3 48 56 59
3 50 52 51
3 50 54 53
3 56 54 57
3 51 55 56
3 61 63 60
3 65 63 64
3 64 67 66
3 69 71 68
3 73 62 72
3 72 61 75
3 75 60 65
3 75 64 72
3 73 64 66
3 63 74 67
3 66 68 73
3 67 69 66
3 74 70 67
3 73 71 74
3 77 79 76
3 81 83 80
3 85 87 84
3 86 76 87
3 86 78 77
3 76 84 87
3 78 80 79
3 78 82 81
3 84 82 85
3 79 83 84
3 89 91 88
3 92 89 88
3 95 92 94
3 96 95 94
3 98 97 96
3 90 98 91
3 101 103 100
3 100 105 104
3 104 107 106
3 108 107 109
3 108 111 110
3 110 102 101
3 100 91 101
3 90 103 102
3 104 88 100
3 89 105 103
3 106 92 104
3 93 107 105
3 96 106 108
3 107 97 109
3 110 96 108
3 97 111 109
3 91 110 101
3 99 102 111
3 113 115 112
3 116 114 113
3 118 117 116
3 120 119 118
3 122 121 120
3 112 123 122
3 118 116 113
3 125 127 124
3 128 124 127
3 130 127 131
3 130 133 132
3 132 126 134
3 134 125 135
3 135 124 129
3 123 129 128
3 123 130 121
3 119 130 132
3 117 132 134
3 117 135 114
3 115 135 129
3 127 133 131
3 1 2 3
3 5 6 7
3 9 10 11
3 10 1 0
3 10 9 2
3 0 3 8
3 2 5 4
3 2 9 6
3 8 7 6
3 3 4 7
3 12 13 14
3 16 17 13
3 19 17 16
3 21 19 18
3 22 23 21
3 14 23 22
3 25 26 27
3 24 27 29
3 28 29 31
3 30 31 33
3 32 33 35
3 34 35 26
3 12 15 25
3 26 14 13
3 28 16 12
3 13 17 29
3 30 18 16
3 17 19 31
3 20 18 30
3 31 19 21
3 34 22 20
3 21 23 35
3 25 15 22
3 23 14 26
3 37 38 39
3 40 41 42
3 44 45 46
3 46 37 36
3 46 45 38
3 36 39 44
3 39 38 41
3 38 45 42
3 44 43 42
3 39 40 43
3 49 50 51
3 53 54 55
3 57 58 59
3 58 49 48
3 49 58 57
3 48 51 56
3 50 53 52
3 50 57 54
3 56 55 54
3 51 52 55
3 61 62 63
3 65 60 63
3 64 63 67
3 69 70 71
3 73 74 62
3 72 62 61
3 75 61 60
3 75 65 64
3 73 72 64
3 63 62 74
3 66 69 68
3 67 70 69
3 74 71 70
3 73 68 71
3 77 78 79
3 81 82 83
3 85 86 87
3 86 77 76
3 86 85 78
3 76 79 84
3 78 81 80
3 78 85 82
3 84 83 82
3 79 80 83
3 89 90 91
3 92 93 89
3 95 93 92
3 96 97 95
3 98 99 97
3 90 99 98
3 101 102 103
3 100 103 105
3 104 105 107
3 108 106 107
3 108 109 111
3 110 111 102
3 100 88 91
3 90 89 103
3 104 92 88
3 89 93 105
3 106 94 92
3 93 95 107
3 96 94 106
3 107 95 97
3 110 98 96
3 97 99 111
3 91 98 110
3 99 90 102
3 113 114 115
3 116 117 114
3 118 119 117
3 120 121 119
3 122 123 121
3 112 115 123
3 113 112 118
3 112 122 118
3 122 120 118
3 125 126 127
3 128 129 124
3 130 128 127
3 130 131 133
3 132 133 126
3 134 126 125
3 135 125 124
3 123 115 129
3 123 128 130
3 119 121 130
3 117 119 132
3 117 134 135
3 115 114 135
3 127 126 133
