ply
format ascii 1.0
comment INFO-3111 Flatenator generated
comment TextureFile Dungeons_Texture_01.png
element vertex 573
property float x
property float y
property float z
property float nx
property float ny
property float nz
element face 790
property list uchar int vertex_indices
end_header
1e-06 -24.4941 -2.18517 9.26839e-08 -0.92617 -0.377107 
-1.89243 -24.4941 -1.09262 -0.349069 -0.886999 -0.302298 
-3.34252 -22.7435 -1.92964 -0.787823 -0.384089 -0.481467 
1e-06 -22.7435 -3.85965 0.0851464 -0.434497 -0.89664 
-1.89243 -24.4941 1.09273 -0.43789 -0.862747 0.252826 
-3.34252 -22.7435 1.93 -0.877819 -0.306414 0.368165 
0 -24.4941 2.18522 0 -0.926166 0.377116 
0 -22.7435 3.85964 -0.0851318 -0.434495 0.896642 
1.89243 -24.4941 1.09273 0.43789 -0.862747 0.252826 
3.34252 -22.7435 1.93 0.757729 -0.306414 0.576157 
1.89243 -24.4941 -1.09262 0.349069 -0.886999 -0.302298 
3.34252 -22.7435 -1.92964 0.874704 -0.378267 -0.302997 
0 -24.4941 -4e-06 0 -1 0 
-2.41566 -16.2832 -1.39459 -0.744209 0.472664 -0.471955 
-2.41566 -18.4599 -1.39459 -0.625004 -0.749998 -0.216503 
-2.41566 -18.4599 1.3947 -0.603034 -0.60302 0.522223 
-2.41566 -16.2832 1.3947 -0.856453 0.37775 0.351843 
1e-06 -16.2832 -2.78935 1.54748e-07 0.610761 -0.791815 
1e-06 -18.4599 -2.78935 1.35172e-07 -0.755934 -0.654648 
2.41566 -16.2832 -1.39459 0.821465 0.316648 -0.474266 
2.41566 -18.4599 -1.39459 0.566953 -0.755926 -0.327321 
2.41566 -16.2832 1.3947 0.744209 0.472664 0.471955 
2.41566 -18.4599 1.3947 0.625004 -0.749998 0.216503 
0 -16.2832 2.78947 -0.0871225 0.532871 0.8417 
0 -18.4599 2.78947 0.104262 -0.834061 0.54173 
-3.34252 -20.2104 -1.92964 -0.874704 0.378267 -0.302997 
-3.34252 -20.2104 1.93 -0.757729 0.306413 0.576157 
-1.89243 -18.4599 1.09273 -0.761087 -0.477125 0.439431 
-1.89243 -18.4599 -1.09262 -0.66706 -0.470443 -0.577681 
1e-06 -20.2104 -3.85965 -0.0851461 0.434497 -0.89664 
1e-06 -18.4599 -2.18517 2.15999e-07 -0.477107 -0.878845 
3.34252 -20.2104 -1.92964 0.787823 0.384089 -0.481467 
1.89243 -18.4599 -1.09262 0.528173 -0.715413 -0.457403 
3.34252 -20.2104 1.93 0.877819 0.306413 0.368165 
1.89243 -18.4599 1.09273 0.854042 -0.165721 0.493101 
0 -20.2104 3.85964 0.0851318 0.434494 0.896642 
0 -18.4599 2.18522 0 -0.477107 0.878845 
1.83147 -14.7692 1.05759 0.754339 0.0642783 0.65333 
1.89243 -15.8421 1.09273 0.942953 0.0642754 0.326662 
1.89243 -15.8421 -1.09262 0.754356 0.0642968 -0.653309 
1.83147 -14.7692 -1.05741 0.942954 0.0642941 -0.326655 
0 -14.7692 2.11482 0 0.0654731 0.997854 
0 -15.8421 2.18522 0 0.0654419 0.997856 
-1.83147 -14.7692 1.05759 -0.75434 0.0642783 0.65333 
-1.89243 -15.8421 1.09273 -0.942953 0.0642754 0.326662 
-1.83147 -14.7692 -1.05741 -0.942954 0.0642941 -0.326655 
-1.89243 -15.8421 -1.09262 -0.754356 0.0642968 -0.65331 
1e-06 -14.7692 -2.11476 2.32159e-07 0.0654725 -0.997854 
1e-06 -15.8421 -2.18517 2.40758e-07 0.0654751 -0.997854 
2.25408 13.3679 1.30139 0.755946 0 0.654634 
2.25408 11.5567 1.30139 0.875677 -0.375727 0.303347 
2.25408 11.5567 -1.30126 0.758383 -0.304329 -0.576402 
2.25408 13.3679 -1.30126 0.944915 0 -0.327317 
0 13.3679 2.60289 -0.188998 0 0.981978 
0 11.5567 2.60289 0.0850983 -0.43164 0.898023 
-2.25408 13.3679 1.30139 -0.944915 0 0.327317 
-2.25408 11.5567 1.30139 -0.78891 -0.381525 0.481726 
-2.25408 13.3679 -1.30126 -0.755946 0 -0.654634 
-2.25408 11.5567 -1.30126 -0.878374 -0.30433 -0.368568 
1e-06 13.3679 -2.60277 0.188998 0 -0.981978 
1e-06 11.5567 -2.60277 -0.0850981 -0.43162 -0.898033 
1.89243 11.1156 1.09274 0.553597 -0.680933 0.479438 
1.89243 11.1156 -1.09261 0.628858 -0.687539 -0.363082 
0 11.1156 2.18523 0 -0.687627 0.726064 
-1.89243 11.1156 1.09274 -0.553597 -0.680933 0.479438 
-1.89243 11.1156 -1.09261 -0.628858 -0.687539 -0.363082 
1e-06 11.1156 -2.18516 1.61575e-07 -0.687575 -0.726113 
1.83147 10.1119 1.0576 0.754117 -0.0686891 0.653138 
1.83147 10.1119 -1.05741 0.942676 -0.0687051 -0.326559 
0 10.1119 2.11483 0 0.939094 0.34366 
-1.83147 10.1119 1.0576 -0.754117 -0.0686891 0.653138 
-1.83147 10.1119 -1.05741 -0.942676 -0.0687051 -0.326559 
0 10.1119 -2.11476 8.59783e-08 -0.0699627 -0.99755 
2.10603 9.99579 1.21591 0.65268 0.606413 0.454171 
2.10603 8.34769 1.21591 0.755351 -0.600811 0.261671 
2.10603 8.34769 -1.21584 0.687688 -0.607803 -0.397066 
2.10603 9.99579 -1.21584 0.791185 0.406626 -0.456816 
0 9.99579 2.43206 -0.0922237 0.679447 0.727906 
0 8.34769 2.43205 0.0922238 -0.67945 0.727903 
-2.10603 9.99579 1.21591 -0.755353 0.600808 0.261672 
-2.10603 8.34769 1.21591 -0.652678 -0.606416 0.454171 
-2.10603 9.99579 -1.21584 -0.682085 0.48621 -0.546223 
-2.10603 8.34769 -1.21584 -0.814067 -0.486213 -0.317634 
0 9.99579 -2.43169 0 0.767045 -0.641594 
0 8.34769 -2.43169 -2.4583e-09 -0.607771 -0.794113 
1.83147 8.2316 1.0576 0.755896 0 0.654691 
1.83147 6.34038 1.0576 0.944905 0 0.327346 
1.83147 6.34038 -1.05741 0.297873 0.93898 -0.172011 
1.83147 8.2316 -1.05741 0.86602 0 -0.500009 
0 8.2316 2.11483 -0.188953 0 0.981986 
0 6.34038 2.11483 0.188953 0 0.981986 
-1.83147 8.2316 1.0576 -0.944905 0 0.327346 
-1.83147 6.34038 1.0576 -0.755896 0 0.654691 
-1.83147 8.2316 -1.05741 -0.75592 0 -0.654665 
-1.83147 6.34038 -1.05741 -0.944909 0 -0.327332 
0 8.2316 -2.11476 0 0 -1 
0 6.34038 -2.11476 -8.60309e-09 0 -1 
2.10603 6.22426 1.21591 0.652712 0.606376 0.454177 
2.10603 4.57632 1.21591 0.755351 -0.600811 0.261671 
2.10603 4.57632 -1.21584 0.687687 -0.607803 -0.397066 
2.10603 6.22426 -1.21584 0.791195 0.406601 -0.456822 
0 6.22426 2.43205 -0.0922217 0.679406 0.727944 
0 4.57632 2.43205 0.0922238 -0.67945 0.727903 
-2.10603 6.22426 1.21591 -0.75538 0.60077 0.261681 
-2.10603 4.57632 1.21591 -0.652678 -0.606416 0.454171 
-2.10603 6.22426 -1.21584 -0.682102 0.486179 -0.546229 
-2.10603 4.57632 -1.21584 -0.814067 -0.486214 -0.317634 
0 6.22426 -2.43169 0 0.767002 -0.641645 
0 4.57632 -2.43169 2.4583e-09 -0.607771 -0.794113 
1.83147 4.46023 1.0576 0.755897 -1.80261e-07 0.654691 
1.83147 2.56904 1.05759 0.944905 -1.80261e-07 0.327346 
1.83147 2.56904 -1.05741 0.297798 0.939012 -0.171967 
1.83147 4.46023 -1.05741 0.86602 2.70896e-07 -0.500009 
0 4.46023 2.11483 -0.188953 -1.85696e-07 0.981986 
0 2.56904 2.11483 0.188953 -1.80252e-07 0.981986 
-1.83147 4.46023 1.0576 -0.944905 -1.85705e-07 0.327346 
-1.83147 2.56904 1.05759 -0.755896 -1.85705e-07 0.654691 
-1.83147 4.46023 -1.05741 -0.75592 3.45318e-07 -0.654665 
-1.83147 2.56904 -1.05741 -0.944909 1.80254e-07 -0.327332 
0 4.46023 -2.11476 -1.72062e-08 5.10265e-07 -1 
0 2.56904 -2.11476 -8.60309e-09 5.34628e-07 -1 
2.10603 2.45295 1.2159 0.652677 0.606417 0.454171 
2.10603 0.804855 1.2159 0.755379 -0.600771 0.261681 
2.10603 0.804855 -1.21584 0.687714 -0.607763 -0.397081 
2.10603 2.45295 -1.21584 0.791184 0.406629 -0.456816 
0 2.45295 2.43205 -0.0922239 0.679451 0.727902 
0 0.804855 2.43205 0.0922218 -0.679407 0.727943 
-2.10603 2.45295 1.2159 -0.75535 0.600812 0.261671 
-2.10603 0.804855 1.2159 -0.652711 -0.606377 0.454177 
-2.10603 2.45295 -1.21584 -0.682084 0.486213 -0.546222 
-2.10603 0.804855 -1.21584 -0.814081 -0.486182 -0.317646 
0 2.45296 -2.43169 6.20509e-09 0.767049 -0.641588 
0 0.804855 -2.43169 2.45824e-09 -0.607731 -0.794143 
1.83147 0.688736 1.05759 0.755896 0 0.654691 
1.83147 -1.20236 1.05759 0.944905 0 0.327346 
1.83147 -1.20236 -1.05741 0.297806 0.939009 -0.171972 
1.83147 0.688736 -1.05741 0.86602 7.74437e-08 -0.500009 
0 0.688736 2.11482 -0.188953 0 0.981986 
0 -1.20236 2.11482 0.188953 0 0.981986 
-1.83147 0.688736 1.05759 -0.944905 0 0.327346 
-1.83147 -1.20236 1.05759 -0.755896 0 0.654691 
-1.83147 0.688736 -1.05741 -0.75592 -9.99296e-08 -0.654665 
-1.83147 -1.20236 -1.05741 -0.944909 0 -0.327332 
0 0.688736 -2.11476 -1.72062e-08 2.24232e-09 -1 
1e-06 -1.20236 -2.11476 1.03237e-07 1.12116e-09 -1 
2.10603 -1.31845 1.2159 0.65268 0.606413 0.454171 
2.10603 -3.68728 1.2159 0.707074 -0.663367 0.244928 
2.10603 -3.68728 -1.21584 0.528796 -0.776599 -0.342445 
2.10603 -1.31845 -1.21584 0.791185 0.406626 -0.456816 
0 -1.31845 2.43205 -0.0922237 0.679447 0.727906 
0 -3.68728 2.43205 0.0960446 -0.745546 0.659497 
-2.10603 -1.31845 1.2159 -0.755353 0.600808 0.261672 
-2.10603 -3.68728 1.2159 -0.596912 -0.667559 0.44504 
-2.10603 -1.31845 -1.21584 -0.682085 0.48621 -0.546223 
-2.10603 -3.68728 -1.21584 -0.683866 -0.667586 -0.294375 
1e-06 -1.31845 -2.43169 1.20999e-07 0.767044 -0.641594 
1e-06 -3.68728 -2.43169 1.78533e-07 -0.447203 -0.894432 
2.10603 -14.6531 -1.21585 0.814068 -0.486211 -0.317635 
2.10603 -14.6531 1.2159 0.652681 -0.606412 0.454172 
0 -14.6531 2.43205 -0.0922236 -0.679446 0.727907 
-2.10603 -14.6531 1.2159 -0.755354 -0.600807 0.261672 
-2.10603 -14.6531 -1.21585 -0.682086 -0.486209 -0.546223 
1e-06 -14.6531 -2.43169 0.0922017 -0.679377 -0.727974 
0 18.9354 5.76856 -4.19952e-09 -0.90826 0.418406 
-2.47694 19.6332 5.76856 -0.867505 -0.383986 0.316211 
-2.47694 15.4562 2.0423 -0.698272 -0.482213 0.529044 
0 15.4562 2.60514 0 -0.67273 0.739888 
-2.47694 27.588 4e-06 -0.56436 0.825529 -5.08406e-06 
-2.47694 21.1216 5.76856 -0.861344 0.366574 0.351724 
0 21.8194 5.76856 1.04095e-08 0.912737 0.408549 
0 27.588 4e-06 0 1 -5.22624e-06 
0 21.8194 -5.76843 0 0.912735 -0.408553 
-2.47694 21.1216 -5.76843 -0.893277 0.318545 -0.317151 
2.9339 18.0179 3e-06 1 0 0 
2.9339 19.9056 -1.90988 1 0 0 
2.9339 19.9056 1.91001 1 0 0 
2.9339 20.8492 -1.90988 1 0 0 
2.9339 20.8492 1.91001 1 0 0 
2.9339 22.7368 4e-06 1 0 0 
-2.9339 18.0179 3e-06 -1 0 0 
-2.9339 19.9056 1.91001 -1 0 0 
-2.9339 19.9056 -1.90988 -1 0 0 
-2.9339 20.8492 -1.90988 -1 0 0 
-2.9339 20.8492 1.91001 -1 0 0 
-2.9339 22.7368 4e-06 -1 0 0 
-1.97279 21.1216 15.2829 -0.308792 0.178828 0.934167 
-1.97279 19.6332 15.2829 -0.286956 -0.266445 0.920143 
0 18.9354 15.2829 0 -0.158864 0.987301 
0 21.8194 15.2829 0 0.239685 0.970851 
-1.97279 19.6332 -15.2827 -0.286938 -0.266425 -0.920154 
-1.97279 21.1216 -15.2827 -0.308773 0.178816 -0.934176 
0 21.8194 -15.2827 0 0.239668 -0.970855 
0 18.9354 -15.2827 0 -0.158852 -0.987302 
-1.97279 19.6332 12.1119 -0.583091 -0.632592 -0.509738 
-1.97279 21.1216 12.1119 -0.717801 0.48225 -0.502192 
0 18.9354 12.1119 0 -0.849744 -0.527196 
2.47694 19.6332 5.76856 0.807059 -0.465175 0.363688 
2.47694 21.1216 5.76856 0.893275 0.31855 0.317151 
1.97279 21.1216 12.1119 0.616104 0.53818 -0.575133 
1.97279 19.6332 12.1119 0.706576 -0.558385 -0.434691 
0 21.8194 12.1119 -4.50647e-09 0.849745 -0.527193 
-2.47694 19.6332 -5.76843 -0.80706 -0.465174 -0.363685 
-1.97279 21.1216 -12.1117 -0.616066 0.538156 0.575197 
-1.97279 19.6332 -12.1117 -0.706561 -0.558365 0.434742 
0 21.8194 -12.1117 0 0.849716 0.527241 
2.47694 21.1216 -5.76843 0.861346 0.366569 -0.351724 
2.47694 19.6332 -5.76843 0.867506 -0.383985 -0.316209 
1.97279 19.6332 -12.1117 0.583067 -0.632568 0.509794 
1.97279 21.1216 -12.1117 0.717772 0.482231 0.502251 
0 18.9354 -5.76843 2.09976e-09 -0.90826 -0.418407 
0 18.9354 -12.1117 4.5066e-09 -0.849714 0.527244 
3.44931 21.1224 -3.01575 0.930452 0.16186 -0.328726 
3.44931 19.6324 -3.01575 0.937193 -0.142297 -0.318466 
2.47694 27.588 4e-06 0.56436 0.825529 -5.07646e-06 
3.44931 24.1029 4e-06 0.95307 0.302751 -5.0058e-07 
3.44931 21.1224 3.01593 0.930448 0.161872 0.328732 
3.44931 19.6324 3.01593 0.937193 -0.142299 0.318467 
2.47694 15.4562 2.0423 0.698272 -0.482213 0.529044 
3.11566 15.4562 3e-06 0.558413 0.829563 -1.32327e-06 
3.44931 16.6519 3e-06 0.960232 -0.279204 -8.09208e-06 
-3.44931 19.6324 -3.01575 -0.937193 -0.142297 -0.318466 
-3.44931 21.1224 -3.01575 -0.930452 0.16186 -0.328726 
-2.47694 15.4562 -2.04217 -0.698269 -0.482211 -0.529049 
-3.11566 15.4562 3e-06 -0.558411 0.829564 -1.32866e-06 
-3.44931 16.6519 3e-06 -0.960232 -0.279204 -8.08432e-06 
-3.44931 21.1224 3.01593 -0.930448 0.161872 0.328732 
-3.44931 19.6324 3.01593 -0.937193 -0.142299 0.318467 
-3.44931 24.1029 4e-06 -0.95307 0.302751 -5.0058e-07 
1.97279 21.1216 -15.2827 0.308773 0.178816 -0.934176 
1.97279 19.6332 -15.2827 0.286938 -0.266425 -0.920154 
1.97279 19.6332 15.2829 0.286956 -0.266445 0.920143 
1.97279 21.1216 15.2829 0.308792 0.178828 0.934167 
2.81381 18.9707 12.8256 0.738763 -0.352866 -0.574208 
2.81381 21.7842 12.8256 0.844744 0.36097 -0.395105 
2.81381 21.7842 14.5694 0.704979 0.58846 0.395878 
2.81381 18.9707 14.5694 0.802941 -0.421445 0.421508 
0 17.5894 14.5694 -1.17868e-08 -0.748807 0.662788 
0 17.5894 12.8256 0 -0.857347 -0.514738 
-2.81381 18.9707 12.8256 -0.825379 -0.295595 -0.481012 
-2.81381 18.9707 14.5694 -0.721992 -0.489211 0.489285 
-2.81381 21.7842 12.8256 -0.704992 0.588466 -0.395846 
-2.81381 21.7842 14.5694 -0.844733 0.36096 0.395137 
0 23.1653 12.8256 0.0762749 0.810919 -0.580166 
0 23.1653 14.5694 -0.0762761 0.810892 0.580204 
0 23.1653 -14.5693 -1.17868e-08 0.748783 -0.662816 
0 23.1653 -12.8252 0 0.857314 0.514795 
2.81381 21.7842 -12.8252 0.742095 0.452071 0.494901 
2.81381 21.7842 -14.5693 0.803611 0.493804 -0.332215 
-2.81381 21.7842 -12.8252 -0.844728 0.360955 0.395153 
-2.81381 21.7842 -14.5693 -0.704973 0.588457 -0.395894 
-2.81381 18.9707 -12.8252 -0.72198 -0.489208 0.489305 
-2.81381 18.9707 -14.5693 -0.825349 -0.295583 -0.481071 
0 17.5894 -12.8252 0.0762825 -0.810881 0.580219 
0 17.5894 -14.5693 -0.0762825 -0.810881 -0.580219 
2.81381 18.9707 -12.8252 0.825349 -0.295583 0.481071 
2.81381 18.9707 -14.5693 0.72198 -0.489208 -0.489305 
0 15.4562 -2.60501 0 -0.67273 -0.739888 
2.47694 15.4562 -2.04217 0.698269 -0.48221 -0.529049 
0 15.2146 3.84202 0.09298 0.657757 0.747469 
-3.22274 15.2146 1.97384 -0.74323 0.450207 0.494897 
-3.22274 13.8929 1.97384 -0.70594 -0.643909 0.295009 
0 13.8929 3.84202 -0.130611 -0.467779 0.874142 
-3.22274 15.2146 -1.97378 -0.839699 0.445832 -0.310063 
0 15.2146 -3.84189 -0.0929777 0.657772 -0.747456 
0 13.8929 -3.84189 0.130608 -0.467777 -0.874143 
-3.22274 13.8929 -1.97378 -0.62415 -0.571487 -0.532766 
3.22274 13.8929 1.97384 0.616325 -0.644651 0.452293 
3.22274 13.8929 -1.97378 0.737521 -0.576846 -0.351158 
3.22274 15.2146 -1.97378 0.743223 0.450219 -0.494896 
3.22274 15.2146 1.97384 0.839705 0.445818 0.310067 
-1.17311 21.3938 3.43828 -0.896004 -7.00579e-08 0.444046 
0 21.3938 5.8054 0 -1.60168e-07 1 
0 45.3567 5.80541 1.77662e-08 -0.106121 0.994353 
-1.17311 46.1004 3.43828 -0.900192 -0.0395593 0.433693 
0 103.77 1.7e-05 -1.15561e-07 1 -2.58856e-05 
-1.17311 95.4327 1.6e-05 -0.991352 0.131231 1.5314e-06 
-1.17311 84.6747 3.43829 -1 0 0 
0 86.7176 5.80541 -2.46833e-08 0.202008 0.979384 
0 31.9438 -5.80527 -0.0697456 0.129982 -0.98906 
0 21.3938 -5.80527 0 9.33583e-08 -1 
-1.17311 21.3938 -3.43797 -0.896017 1.01548e-06 -0.44402 
-0.564372 34.5895 -4.66633 -0.695212 0.00635811 -0.718777 
-1.17311 46.1004 -3.43796 -0.8983 -0.0197807 -0.438937 
0 45.3567 -5.80527 2.40968e-08 -0.143955 -0.989584 
0 37.4947 -5.80527 -0.0703055 -0.119383 -0.990356 
-1.17311 21.3938 1.71905 -1 0 0 
-1.17311 46.1004 1.71905 -1 0 0 
0 86.7176 -5.80526 0 0.202002 -0.979385 
-1.17311 84.6747 -3.43796 -0.908147 0.0384043 -0.416887 
-1.17311 51.3958 4.42882 -0.919204 -0.00119313 0.39378 
-1.17311 51.3958 2.2146 -1 0 0 
-1.17311 51.3958 -4.4288 -0.919211 -0.00119313 -0.393764 
0 51.3958 -7.47805 0 -0.0017727 -0.999999 
0 51.3958 7.47807 0 -0.00177298 0.999999 
-1.17311 57.0398 1.71906 -1 0 0 
-1.17311 57.0398 3.43829 -1 0 0 
-1.17311 65.2428 3.43829 -0.896004 -1.06999e-07 0.444046 
-1.17311 65.2428 1.71906 -1 0 0 
0 65.2428 -5.80527 0 1.41159e-07 -1 
-1.17311 65.2428 -3.43796 -0.896018 7.74814e-08 -0.444018 
0 57.514 5.80541 0 0.10283 0.994699 
0 65.2428 5.80541 -3.35577e-08 -1.46068e-07 1 
1.17311 46.1004 -1.71898 1 0 0 
1.17311 21.3938 -1.71898 1 0 0 
1.17311 21.3938 -3.43797 0.896018 1.49512e-07 -0.444018 
1.17311 46.1004 -3.43796 1 0 0 
1.17311 51.3958 -2.2144 1 0 0 
1.17311 51.3958 -4.4288 1 0 0 
1.17311 65.2428 -1.71897 1 0 0 
1.17311 65.2428 -3.43796 1 0 0 
1.17311 84.6747 -3.43796 1 0 0 
1.17311 69.3608 1.1e-05 1 0 0 
1.17311 84.6747 3.43829 1 0 0 
-1.17311 57.0398 -3.43796 -0.89837 0.0378211 -0.437609 
0 57.514 -5.80527 0 0.10285 -0.994697 
1.17311 57.0398 -1.71898 1 0 0 
1.17311 57.0398 -3.43796 1 0 0 
0.459282 34.5896 -4.87845 0.587866 0.00715561 -0.808927 
1.17311 21.3938 3.43828 0.896004 -7.00449e-08 0.444046 
1.17311 46.1004 3.43828 0.900192 -0.0395593 0.433693 
1.17311 51.3958 4.42882 0.919204 -0.00119313 0.39378 
1.17311 57.0398 3.43829 0.898356 0.037812 0.437637 
0 77.9171 5.80541 0.0783712 -0.144297 0.986426 
0.795001 74.6721 4.20103 0.705165 -0.00449913 0.709029 
0 71.2229 5.80541 0.0789156 0.136698 0.987464 
1.17311 65.2428 3.43829 0.895997 2.51598e-06 0.444061 
1.17311 95.4327 1.6e-05 0.991352 0.131231 1.5314e-06 
1.17311 57.0398 1.71906 1 0 0 
1.17311 65.2428 1.71906 0 0.261342 0.965246 
1.17311 51.3958 2.2146 1 0 0 
1.17311 46.1004 1.71905 0 -0.0621758 0.998065 
1.17311 21.3938 1.71905 1 0 0 
-1.17311 57.0398 -1.71898 -1 0 0 
-1.17311 65.2428 -1.71897 0 0.261334 -0.965248 
-1.17311 51.3958 -2.2144 -1 0 0 
-1.17311 46.1004 -1.71898 0 -0.0621602 -0.998066 
-1.17311 21.3938 -1.71898 -1 0 0 
-0.627984 74.6721 4.53826 -0.585487 -0.00514428 0.810665 
2.03682 57.0398 -1.71898 0.555027 0.0242665 -0.831478 
2.03682 65.2428 -1.71897 0.713249 0.183172 -0.676553 
2.03682 65.2428 1.71906 0.561406 0.108136 0.820445 
2.03682 57.0398 1.71906 0.800245 0.0349959 0.598651 
2.03682 51.3958 -2.2144 0.801046 0.0163681 -0.598379 
2.03682 51.3958 2.2146 0.556098 -0.0274945 0.830662 
2.03682 21.3938 -1.71898 0.333333 -0.666667 -0.666667 
2.03682 46.1004 -1.71898 0.707449 -0.0439326 -0.705398 
2.03682 46.1004 1.71905 0.707449 -0.0219719 0.706423 
2.03682 21.3938 1.71905 0.816497 -0.408248 0.408248 
-2.03682 69.3608 1.1e-05 -0.560139 0.647337 -0.516913 
-2.03682 65.2428 -1.71897 -0.713249 0.0915861 -0.694901 
-2.03682 65.2428 1.71906 -0.561406 0.216271 0.79878 
-2.03682 57.0398 -1.71898 -0.555027 0.0485328 -0.830415 
-2.03682 51.3958 -2.2144 -0.801046 -0.0197976 -0.598276 
-2.03682 51.3958 2.2146 -0.556098 0.0227312 0.830806 
-2.03682 57.0398 1.71906 -0.800245 0.0174979 0.599417 
-2.03682 46.1004 -1.71898 -0.555072 -0.0258524 -0.831401 
-2.03682 46.1004 1.71905 -0.800278 -0.0372824 0.598468 
-2.03682 21.3938 -1.71898 -0.666667 -0.666667 -0.333333 
-2.03682 21.3938 1.71905 -0.408248 -0.408248 0.816497 
-1.17311 69.3608 1.1e-05 -1 0 0 
2.03682 69.3608 1.1e-05 0.560139 0.647344 0.516905 
1.68111 -3.79291 -0.970354 0.755946 0 -0.654634 
1.68108 -3.79291 0.970717 0.944917 0 0.327311 
1.68108 -5.20078 0.970717 0.755969 0 0.654607 
1.68111 -5.20078 -0.970354 0.944917 0 -0.32731 
0 -3.79291 1.9415 0.189021 0 0.981973 
0 -5.20078 1.9415 -0.189021 0 0.981973 
-1.68108 -3.79291 0.970717 -0.755969 0 0.654607 
-1.68108 -5.20078 0.970717 -0.944917 0 0.32731 
-1.68111 -3.79291 -0.970354 -0.944917 0 -0.327311 
-1.68111 -5.20078 -0.970354 -0.755945 0 -0.654635 
1e-06 -3.79291 -1.94101 -0.188995 0 -0.981978 
1e-06 -5.20078 -1.94101 0.188995 0 -0.981978 
2.10603 -5.30632 -1.21584 0.565587 0.663468 -0.489817 
2.10603 -5.30632 1.2159 0.707012 0.663442 0.244907 
2.10603 -8.30322 1.2159 0.62533 -0.637892 0.449506 
2.10603 -8.30322 -1.21584 0.701946 -0.637917 -0.316756 
0 -5.30632 2.43205 0.09605 0.745624 0.659408 
0 -8.30322 2.43205 -0.0940209 -0.713496 0.694322 
-2.10603 -5.30632 1.2159 -0.596839 0.667632 0.445029 
-2.10603 -8.30322 1.2159 -0.731597 -0.632883 0.253424 
-2.10603 -5.30632 -1.21584 -0.68382 0.667658 -0.294317 
-2.10603 -8.30322 -1.21584 -0.585265 -0.632899 -0.506857 
1e-06 -5.30632 -2.43169 -0.138078 0.536052 -0.832816 
1e-06 -8.30322 -2.43169 0.13486 -0.51181 -0.848447 
1.68111 -8.44475 -0.970354 0.866036 2.44249e-07 -0.499981 
1.68108 -8.44475 0.970717 0.944917 -1.722e-07 0.327311 
1.68108 -10.3318 0.970716 0.755969 -3.5829e-07 0.654607 
1.68111 -10.3318 -0.970355 0.866036 2.64261e-07 -0.499981 
0 -8.44478 1.9415 0 -5.47335e-07 1 
0 -10.3318 1.94149 0 -5.68567e-07 1 
-1.68108 -8.44475 0.970717 -0.866045 -2.63033e-07 0.499966 
-1.68108 -10.3318 0.970716 -0.866045 -2.73649e-07 0.499966 
-1.68111 -8.44478 -0.970354 -0.944917 1.72199e-07 -0.32731 
-1.68111 -10.3318 -0.970355 -0.755945 3.58305e-07 -0.654635 
1e-06 -8.44478 -1.94101 2.40894e-07 5.37939e-07 -1 
1e-06 -10.3318 -1.94101 2.40894e-07 5.68567e-07 -1 
2.10603 -10.4733 -1.21585 0.58525 0.632923 -0.506844 
2.10603 -10.4733 1.2159 0.731591 0.632891 0.253423 
0 -10.4733 2.43205 0.0940216 0.71351 0.694308 
-2.10603 -10.4733 1.2159 -0.62533 0.637892 0.449506 
-2.10603 -10.4733 -1.21585 -0.701941 0.637925 -0.316749 
1e-06 -10.4733 -2.43169 -0.134862 0.51183 -0.848436 
-1.89243 -15.8421 1.09273 -0.510638 0.807669 0.294821 
-1.89243 -15.8421 -1.09262 -0.451018 0.802506 -0.390599 
1.89243 -15.8421 -1.09262 0.510648 0.80766 -0.294829 
1e-06 -15.8421 -2.18517 1.41668e-07 0.807677 -0.589625 
1.89243 -15.8421 1.09273 0.451005 0.802518 0.390588 
0 -15.8421 2.18522 0 0.807706 0.589586 
1.89243 11.1156 1.09274 0.942675 -0.0686857 0.326566 
1.89243 11.1156 -1.09261 0.754134 -0.0687077 -0.653117 
0 11.1156 2.18523 0 -0.0699322 0.997552 
-1.89243 11.1156 1.09274 -0.942675 -0.0686857 0.326566 
-1.89243 11.1156 -1.09261 -0.754134 -0.0687074 -0.653117 
1e-06 11.1156 -2.18516 1.71957e-07 -0.0699654 -0.997549 
1.83147 8.2316 -1.05741 0.297801 -0.939011 -0.171969 
1.83147 8.2316 1.0576 0.264111 -0.93698 0.228722 
1.83147 10.1119 -1.05741 0.297805 0.939009 -0.171972 
0 8.2316 2.11483 0 -0.939096 0.343655 
1.83147 10.1119 1.0576 0.264115 0.936978 0.228725 
-1.83147 8.2316 1.0576 -0.264111 -0.93698 0.228722 
-1.83147 10.1119 1.0576 -0.264115 0.936978 0.228725 
-1.83147 8.2316 -1.05741 -0.297801 -0.939011 -0.171969 
-1.83147 10.1119 -1.05741 -0.297805 0.939009 -0.171972 
0 8.2316 -2.11476 0 -0.93899 -0.343946 
0 10.1119 -2.11476 0 0.938988 -0.343951 
1.83147 4.46023 -1.05741 0.297801 -0.939011 -0.171969 
1.83147 4.46023 1.0576 0.264112 -0.93698 0.228722 
0 4.46023 2.11483 0 -0.939096 0.343655 
1.83147 6.34038 1.0576 0.264175 0.936948 0.228777 
-1.83147 4.46023 1.0576 -0.264112 -0.93698 0.228722 
-1.83147 6.34038 1.0576 -0.264175 0.936948 0.228777 
0 6.34038 2.11483 0 0.939065 0.343739 
-1.83147 4.46023 -1.05741 -0.297801 -0.939011 -0.171969 
-1.83147 6.34038 -1.05741 -0.297873 0.93898 -0.172011 
0 4.46023 -2.11476 0 -0.93899 -0.343946 
0 6.34038 -2.11476 0 0.938959 -0.344029 
1.83147 0.688736 -1.05741 0.297871 -0.938981 -0.17201 
1.83147 0.688736 1.05759 0.264173 -0.936949 0.228776 
0 0.688736 2.11482 0 -0.939066 0.343736 
1.83147 2.56904 1.05759 0.26411 0.936981 0.22872 
-1.83147 0.688736 1.05759 -0.264173 -0.936949 0.228776 
-1.83147 2.56904 1.05759 -0.264109 0.936981 0.22872 
0 2.56904 2.11483 0 0.939097 0.343652 
-1.83147 0.688736 -1.05741 -0.297871 -0.938981 -0.17201 
-1.83147 2.56904 -1.05741 -0.297798 0.939012 -0.171967 
0 0.688736 -2.11476 0 -0.93896 -0.344027 
0 2.56904 -2.11476 0 0.938991 -0.343941 
1.83147 -14.7692 -1.05741 0.297807 -0.939008 -0.171973 
1.83147 -14.7692 1.05759 0.264117 -0.936977 0.228727 
0 -14.7692 2.11482 0 -0.939093 0.343663 
1.83147 -1.20236 1.05759 0.264116 0.936978 0.228726 
-1.83147 -14.7692 1.05759 -0.264117 -0.936977 0.228727 
-1.83147 -1.20236 1.05759 -0.264116 0.936978 0.228726 
0 -1.20236 2.11482 0 0.939094 0.343661 
-1.83147 -14.7692 -1.05741 -0.297807 -0.939008 -0.171973 
-1.83147 -1.20236 -1.05741 -0.297806 0.939009 -0.171972 
1e-06 -14.7692 -2.11476 1.06345e-07 -0.938987 -0.343953 
1e-06 -1.20236 -2.11476 9.11526e-08 0.938987 -0.343951 
3.44931 19.6324 -3.01575 0.908663 0.169211 0.381705 
2.9339 18.0179 3e-06 0.935624 0.352998 9.12197e-06 
3.44931 16.6519 3e-06 0.935618 0.353014 9.3745e-06 
2.9339 20.8492 -1.90988 0.910991 -0.112604 0.396756 
2.9339 19.9056 -1.90988 0.908666 0.169204 0.381701 
3.44931 21.1224 -3.01575 0.903225 -0.225221 0.365323 
2.9339 22.7368 4e-06 0.935628 -0.352987 9.043e-06 
3.44931 21.1224 3.01593 0.903231 -0.225224 -0.365305 
3.44931 24.1029 4e-06 0.93562 -0.353008 9.26398e-06 
3.44931 19.6324 3.01593 0.90867 0.169213 -0.381687 
2.9339 20.8492 1.91001 0.910999 -0.112606 -0.396738 
2.9339 19.9056 1.91001 0.908673 0.169206 -0.381684 
-3.44931 19.6324 -3.01575 -0.908663 0.169211 0.381705 
-2.9339 20.8492 -1.90988 -0.910991 -0.112604 0.396756 
-3.44931 21.1224 -3.01575 -0.903225 -0.225221 0.365323 
-2.9339 18.0179 3e-06 -0.935624 0.352998 9.12197e-06 
-2.9339 19.9056 -1.90988 -0.908666 0.169204 0.381701 
-3.44931 19.6324 3.01593 -0.90867 0.169213 -0.381687 
-3.44931 16.6519 3e-06 -0.935618 0.353014 9.3745e-06 
-2.9339 20.8492 1.91001 -0.910999 -0.112606 -0.396738 
-2.9339 19.9056 1.91001 -0.908673 0.169206 -0.381684 
-3.44931 21.1224 3.01593 -0.903231 -0.225224 -0.365305 
-2.9339 22.7368 4e-06 -0.935628 -0.352987 9.043e-06 
-3.44931 24.1029 4e-06 -0.93562 -0.353008 9.26398e-06 
-2.47694 15.4562 2.0423 -0.227683 0.932557 0.280175 
0 15.4562 2.60514 0 0.981461 0.191662 
-2.47694 15.4562 -2.04217 -0.227667 0.932566 -0.280159 
2.47694 15.4562 -2.04217 0.227667 0.932566 -0.280159 
2.47694 15.4562 2.0423 0.227683 0.932557 0.280175 
0 15.4562 -2.60501 0 0.981461 -0.19166 
2.25408 13.3679 -1.30126 0.400837 -0.906795 -0.130584 
2.25408 13.3679 1.30139 0.358291 -0.912699 0.196492 
1e-06 13.3679 -2.60277 8.02088e-08 -0.920343 -0.391113 
-2.25408 13.3679 -1.30126 -0.400837 -0.906795 -0.130584 
0 13.3679 2.60289 0 -0.92034 0.391121 
-2.25408 13.3679 1.30139 -0.358291 -0.912699 0.196492 
-1.17311 21.3938 3.43828 -1 0 0 
-1.17311 46.1004 3.43828 -1 0 0 
-1.17311 57.0398 3.43829 -0.898356 0.037812 0.437637 
1.17311 84.6747 -3.43796 0.908147 0.0384043 -0.416887 
1.17311 51.3958 -4.4288 0.919211 -0.00119313 -0.393764 
1.17311 46.1004 -3.43796 0.898301 -0.01978 -0.438935 
1.17311 84.6747 3.43829 0.90529 0.0287929 0.423818 
1.17311 65.2428 3.43829 1 0 0 
1.17311 57.0398 3.43829 1 0 0 
1.17311 51.3958 4.42882 1 0 0 
1.17311 46.1004 3.43828 1 0 0 
1.17311 21.3938 3.43828 1 0 0 
-1.17311 65.2428 -3.43796 -1 0 0 
-1.17311 57.0398 -3.43796 -1 0 0 
-1.17311 51.3958 -4.4288 -1 0 0 
-1.17311 46.1004 -3.43796 -1 0 0 
-1.17311 21.3938 -3.43797 -1 0 0 
-1.17311 84.6747 -3.43796 -1 0 0 
-1.17311 95.4327 1.6e-05 -1 0 0 
-1.17311 65.2428 3.43829 -1 0 0 
-1.17311 84.6747 3.43829 -0.905298 0.028796 0.423799 
1.17311 65.2428 -3.43796 0.896018 7.74815e-08 -0.444019 
1.17311 95.4327 1.6e-05 1 0 0 
1.17311 65.2428 -1.71897 0 0.130667 -0.991426 
1.17311 57.0398 -1.71898 0 0.0583444 -0.998297 
1.17311 57.0398 1.71906 0 0.029179 0.999574 
1.17311 51.3958 -2.2144 0 -0.0330729 -0.999453 
1.17311 51.3958 2.2146 0 0.0273502 0.999626 
1.17311 46.1004 -1.71898 0 -0.03108 -0.999517 
1.17311 21.3938 -1.71898 0 -0.707107 -0.707107 
1.17311 21.3938 1.71905 0 -0.707107 0.707107 
1.17311 69.3608 1.1e-05 0 0.781432 -0.623991 
-1.17311 69.3608 1.1e-05 0 0.78144 0.623981 
-1.17311 51.3958 -2.2144 0 0.0273438 -0.999626 
-1.17311 57.0398 -1.71898 0 0.0291723 -0.999574 
-1.17311 21.3938 -1.71898 0 -0.447214 -0.894427 
-1.17311 21.3938 1.71905 0 -0.894427 0.447214 
-1.17311 46.1004 1.71905 0 -0.031088 0.999517 
-1.17311 51.3958 2.2146 0 -0.0330814 0.999453 
-1.17311 57.0398 1.71906 0 0.0583583 0.998296 
-1.17311 65.2428 1.71906 0 0.130671 0.991426 
1.68111 -3.79291 -0.970354 0.202332 -0.976807 -0.0700702 
1.68111 -5.20078 -0.970354 0.202171 0.976844 -0.0700143 
1.68108 -5.20078 0.970717 0.161775 0.976832 0.140104 
1.68108 -3.79291 0.970717 0.161904 -0.976794 0.140215 
0 -5.20078 1.9415 0 0.97763 0.21033 
-1.68108 -3.79291 0.970717 -0.161904 -0.976794 0.140215 
0 -3.79291 1.9415 0 -0.977594 0.210498 
-1.68108 -5.20078 0.970717 -0.161775 0.976832 0.140104 
-1.68111 -3.79291 -0.970354 -0.202332 -0.976807 -0.0700702 
-1.68111 -5.20078 -0.970354 -0.202171 0.976844 -0.0700143 
1e-06 -3.79291 -1.94101 6.94246e-08 -0.977612 -0.210418 
1e-06 -5.20078 -1.94101 7.13001e-08 0.977648 -0.210249 
1.68111 -8.44475 -0.970354 0.266294 -0.959471 -0.0922163 
1.68111 -10.3318 -0.970355 0.266291 0.959471 -0.0922208 
1.68108 -10.3318 0.970716 0.213082 0.959449 0.184537 
1.68108 -8.44475 0.970717 0.213097 -0.959442 0.184554 
0 -10.3318 1.94149 0 0.960811 0.277204 
-1.68108 -8.44475 0.970717 -0.213094 -0.959442 0.184558 
0 -8.44478 1.9415 0 -0.960796 0.277256 
-1.68108 -10.3318 0.970716 -0.213082 0.959449 0.184537 
-1.68111 -8.44478 -0.970354 -0.266319 -0.959462 -0.0922333 
-1.68111 -10.3318 -0.970355 -0.266291 0.959471 -0.0922209 
1e-06 -8.44478 -1.94101 -5.07048e-06 -0.960831 -0.277136 
1e-06 -10.3318 -1.94101 5.659e-08 0.960841 -0.2771 
0 10.1119 2.11483 0 -0.0699655 0.997549 
1.83147 6.34038 -1.05741 0.86602 0 -0.500009 
1.83147 2.56904 -1.05741 0.86602 2.83658e-07 -0.500009 
1.83147 -1.20236 -1.05741 0.86602 0 -0.500009 
3.11566 15.4562 3e-06 0.963207 -0.26876 -8.26375e-06 
-3.11566 15.4562 3e-06 -0.963207 -0.268762 -8.23262e-06 
-1.17311 51.3958 4.42882 -1 0 0 
1.17311 21.3938 -3.43797 1 0 0 
1.17311 57.0398 -3.43796 0.89837 0.0378211 -0.437609 
1.17311 65.2428 1.71906 1 0 0 
1.17311 46.1004 1.71905 1 0 0 
-1.17311 65.2428 -1.71897 -1 0 0 
-1.17311 46.1004 -1.71898 -1 0 0 
3 1 3 0
3 4 2 1
3 4 7 5
3 8 7 6
3 8 11 9
3 10 3 11
3 1 0 12
3 4 1 12
3 6 4 12
3 8 6 12
3 10 8 12
3 0 10 12
3 14 16 13
3 18 13 17
3 19 18 17
3 22 19 21
3 24 21 23
3 15 23 16
3 25 27 28
3 29 28 30
3 29 32 31
3 31 34 33
3 35 34 36
3 35 27 26
3 5 25 2
3 2 29 3
3 3 31 11
3 11 33 9
3 9 35 7
3 7 26 5
3 38 40 37
3 42 37 41
3 43 42 41
3 45 44 43
3 47 46 45
3 47 39 48
3 50 52 49
3 54 49 53
3 56 53 55
3 58 55 57
3 60 57 59
3 51 59 52
3 27 14 28
3 403 13 16
3 28 18 30
3 404 17 13
3 405 17 406
3 32 18 20
3 32 22 34
3 405 21 19
3 34 24 36
3 407 23 21
3 27 24 15
3 403 23 408
3 62 50 61
3 61 54 63
3 64 54 56
3 65 56 58
3 65 60 66
3 62 60 51
3 409 68 410
3 411 67 409
3 70 411 412
3 71 412 413
3 72 413 414
3 410 72 414
3 74 76 73
3 78 73 77
3 80 77 79
3 82 79 81
3 84 81 83
3 76 84 83
3 86 88 85
3 90 85 89
3 92 89 91
3 94 91 93
3 96 93 95
3 88 96 95
3 98 100 97
3 102 97 101
3 104 101 103
3 106 103 105
3 108 105 107
3 100 108 107
3 110 112 109
3 114 109 113
3 116 113 115
3 118 115 117
3 120 117 119
3 112 120 119
3 122 124 121
3 126 121 125
3 128 125 127
3 130 127 129
3 132 129 131
3 124 132 131
3 134 136 133
3 138 133 137
3 140 137 139
3 142 139 141
3 144 141 143
3 136 144 143
3 146 148 145
3 150 145 149
3 152 149 151
3 154 151 153
3 156 153 155
3 148 156 155
3 415 74 416
3 417 73 76
3 416 78 418
3 419 77 73
3 420 78 80
3 421 77 69
3 422 80 82
3 423 79 421
3 422 84 424
3 423 83 81
3 417 83 425
3 415 84 75
3 426 98 427
3 87 97 100
3 427 102 428
3 429 101 97
3 430 102 104
3 431 101 432
3 433 104 106
3 434 103 431
3 433 108 435
3 434 107 105
3 87 107 436
3 426 108 99
3 437 122 438
3 111 121 124
3 438 126 439
3 440 125 121
3 441 126 128
3 442 125 443
3 444 128 130
3 445 127 442
3 444 132 446
3 445 131 129
3 111 131 447
3 437 132 123
3 448 158 449
3 135 145 148
3 449 159 450
3 451 149 145
3 452 159 160
3 453 149 454
3 455 160 161
3 456 151 453
3 455 162 457
3 456 155 153
3 135 155 458
3 448 162 157
3 163 165 166
3 167 169 170
3 171 167 170
3 173 174 175
3 174 177 175
3 176 178 177
3 179 180 181
3 181 183 182
3 182 183 184
3 185 187 188
3 190 192 189
3 164 194 168
3 163 193 164
3 197 199 196
3 169 194 200
3 172 203 201
3 171 202 172
3 206 208 205
3 209 203 210
3 205 212 206
3 205 214 211
3 197 214 213
3 197 216 215
3 196 217 216
3 217 219 216
3 172 220 221
3 201 222 220
3 222 224 220
3 168 226 164
3 168 227 225
3 172 227 167
3 169 198 197
3 169 213 170
3 171 213 205
3 171 208 204
3 192 228 229
3 209 207 206
3 163 217 196
3 163 199 195
3 187 231 188
3 233 235 232
3 237 235 236
3 237 239 238
3 238 241 240
3 240 243 242
3 242 234 233
3 245 247 244
3 245 249 248
3 248 251 250
3 250 253 252
3 252 255 254
3 254 247 246
3 198 232 199
3 231 235 234
3 199 237 195
3 230 236 235
3 193 237 238
3 186 236 187
3 194 238 240
3 185 239 186
3 194 242 200
3 185 243 241
3 198 242 233
3 231 243 188
3 208 245 204
3 228 244 247
3 202 245 248
3 190 244 191
3 202 250 203
3 190 251 249
3 203 252 210
3 189 253 251
3 207 252 254
3 229 253 192
3 208 254 246
3 228 255 229
3 459 460 461
3 459 462 463
3 464 465 462
3 466 465 467
3 468 469 466
3 468 460 470
3 471 472 473
3 471 474 475
3 476 474 477
3 476 478 479
3 480 481 478
3 473 481 482
3 222 209 256
3 206 212 257
3 219 257 212
3 164 226 165
3 224 165 226
3 257 209 206
3 259 261 258
3 263 265 262
3 267 269 266
3 260 262 265
3 268 264 263
3 258 266 269
3 483 258 484
3 485 263 262
3 486 218 268
3 268 218 269
3 218 487 269
3 483 223 259
3 259 223 262
3 262 223 485
3 486 263 488
3 487 258 269
3 489 266 490
3 491 267 489
3 491 265 264
3 492 260 265
3 493 260 494
3 493 266 261
3 270 272 273
3 275 277 274
3 278 280 281
3 282 284 281
3 282 281 280
3 495 286 285
3 287 275 274
3 496 290 286
3 291 283 282
3 272 289 273
3 295 297 294
3 288 298 299
3 300 296 497
3 303 305 302
3 306 305 307
3 309 311 308
3 311 310 312
3 290 295 294
3 314 291 313
3 306 316 315
3 289 300 497
3 498 298 287
3 314 499 292
3 283 499 500
3 304 278 317
3 284 500 317
3 500 304 317
3 272 318 319
3 272 320 293
3 300 320 321
3 501 322 323
3 324 325 323
3 325 501 323
3 326 277 501
3 287 326 498
3 327 502 503
3 329 503 504
3 505 329 504
3 331 505 506
3 332 507 508
3 334 508 509
3 510 334 509
3 336 510 511
3 317 281 284
3 278 281 317
3 323 337 324
3 322 337 323
3 339 341 338
3 342 341 343
3 345 347 344
3 342 346 345
3 348 349 350
3 352 354 351
3 352 356 353
3 357 356 355
3 512 276 513
3 514 359 297
3 359 276 512
3 299 314 313
3 322 515 337
3 296 324 337
3 296 337 515
3 308 316 309
3 516 314 298
3 325 300 321
3 340 339 360
3 349 354 350
3 502 311 312
3 507 359 512
3 517 312 310
3 518 338 519
3 520 340 328
3 519 342 521
3 522 341 520
3 523 344 524
3 521 345 523
3 330 343 522
3 525 346 330
3 525 344 347
3 526 339 518
3 328 360 526
3 333 348 527
3 528 351 529
3 335 352 528
3 530 355 335
3 357 531 358
3 532 358 531
3 533 356 532
3 534 353 533
3 527 350 535
3 529 349 333
3 535 354 534
3 362 364 361
3 365 363 362
3 367 366 365
3 369 368 367
3 371 370 369
3 361 372 371
3 374 376 373
3 377 375 374
3 379 378 377
3 381 380 379
3 383 382 381
3 373 384 383
3 386 388 385
3 389 387 386
3 389 392 390
3 393 392 391
3 395 394 393
3 395 388 396
3 398 157 397
3 399 158 398
3 400 159 399
3 401 160 400
3 402 161 401
3 397 162 402
3 146 536 147
3 374 537 538
3 150 539 146
3 377 538 540
3 150 541 542
3 377 543 379
3 152 544 541
3 379 545 381
3 154 546 544
3 381 547 383
3 147 546 156
3 373 547 537
3 375 548 376
3 398 549 550
3 378 551 375
3 399 550 552
3 378 553 554
3 399 555 400
3 380 556 553
3 400 557 401
3 382 558 556
3 401 559 402
3 376 558 384
3 397 559 549
3 1 2 3
3 4 5 2
3 4 6 7
3 8 9 7
3 8 10 11
3 10 0 3
3 14 15 16
3 18 14 13
3 19 20 18
3 22 20 19
3 24 22 21
3 15 24 23
3 25 26 27
3 29 25 28
3 29 30 32
3 31 32 34
3 35 33 34
3 35 36 27
3 5 26 25
3 2 25 29
3 3 29 31
3 11 31 33
3 9 33 35
3 7 35 26
3 38 39 40
3 42 38 37
3 43 44 42
3 45 46 44
3 47 48 46
3 47 40 39
3 50 51 52
3 54 50 49
3 56 54 53
3 58 56 55
3 60 58 57
3 51 60 59
3 27 15 14
3 403 404 13
3 28 14 18
3 404 406 17
3 405 19 17
3 32 30 18
3 32 20 22
3 405 407 21
3 34 22 24
3 407 408 23
3 27 36 24
3 403 16 23
3 62 51 50
3 61 50 54
3 64 63 54
3 65 64 56
3 65 58 60
3 62 66 60
3 409 67 68
3 411 560 67
3 70 560 411
3 71 70 412
3 72 71 413
3 410 68 72
3 74 75 76
3 78 74 73
3 80 78 77
3 82 80 79
3 84 82 81
3 76 75 84
3 86 561 88
3 90 86 85
3 92 90 89
3 94 92 91
3 96 94 93
3 88 561 96
3 98 99 100
3 102 98 97
3 104 102 101
3 106 104 103
3 108 106 105
3 100 99 108
3 110 562 112
3 114 110 109
3 116 114 113
3 118 116 115
3 120 118 117
3 112 562 120
3 122 123 124
3 126 122 121
3 128 126 125
3 130 128 127
3 132 130 129
3 124 123 132
3 134 563 136
3 138 134 133
3 140 138 137
3 142 140 139
3 144 142 141
3 136 563 144
3 146 147 148
3 150 146 145
3 152 150 149
3 154 152 151
3 156 154 153
3 148 147 156
3 415 75 74
3 417 419 73
3 416 74 78
3 419 69 77
3 420 418 78
3 421 79 77
3 422 420 80
3 423 81 79
3 422 82 84
3 423 425 83
3 417 76 83
3 415 424 84
3 426 99 98
3 87 429 97
3 427 98 102
3 429 432 101
3 430 428 102
3 431 103 101
3 433 430 104
3 434 105 103
3 433 106 108
3 434 436 107
3 87 100 107
3 426 435 108
3 437 123 122
3 111 440 121
3 438 122 126
3 440 443 125
3 441 439 126
3 442 127 125
3 444 441 128
3 445 129 127
3 444 130 132
3 445 447 131
3 111 124 131
3 437 446 132
3 448 157 158
3 135 451 145
3 449 158 159
3 451 454 149
3 452 450 159
3 453 151 149
3 455 452 160
3 456 153 151
3 455 161 162
3 456 458 155
3 135 148 155
3 448 457 162
3 163 164 165
3 167 168 169
3 171 172 167
3 174 176 177
3 181 180 183
3 185 186 187
3 190 191 192
3 164 193 194
3 163 195 193
3 197 198 199
3 169 168 194
3 172 202 203
3 171 204 202
3 206 207 208
3 209 201 203
3 205 211 212
3 205 213 214
3 197 215 214
3 197 196 216
3 217 564 219
3 172 201 220
3 222 565 224
3 168 225 226
3 168 167 227
3 172 221 227
3 169 200 198
3 169 197 213
3 171 170 213
3 171 205 208
3 192 191 228
3 209 210 207
3 163 166 217
3 163 196 199
3 187 230 231
3 233 234 235
3 237 232 235
3 237 236 239
3 238 239 241
3 240 241 243
3 242 243 234
3 245 246 247
3 245 244 249
3 248 249 251
3 250 251 253
3 252 253 255
3 254 255 247
3 198 233 232
3 231 230 235
3 199 232 237
3 230 187 236
3 193 195 237
3 186 239 236
3 194 193 238
3 185 241 239
3 194 240 242
3 185 188 243
3 198 200 242
3 231 234 243
3 208 246 245
3 228 191 244
3 202 204 245
3 190 249 244
3 202 248 250
3 190 189 251
3 203 250 252
3 189 192 253
3 207 210 252
3 229 255 253
3 208 207 254
3 228 247 255
3 459 463 460
3 459 464 462
3 464 467 465
3 466 469 465
3 468 470 469
3 468 461 460
3 471 475 472
3 471 477 474
3 476 479 474
3 476 480 478
3 480 482 481
3 473 472 481
3 222 201 209
3 219 564 257
3 224 565 165
3 257 256 209
3 259 260 261
3 263 264 265
3 267 268 269
3 260 259 262
3 268 267 264
3 258 261 266
3 483 259 258
3 485 488 263
3 486 268 263
3 487 484 258
3 489 267 266
3 491 264 267
3 491 492 265
3 492 494 260
3 493 261 260
3 493 490 266
3 270 271 272
3 275 515 277
3 278 279 280
3 282 283 284
3 495 496 286
3 287 288 275
3 496 566 290
3 291 292 283
3 272 293 289
3 295 514 297
3 288 287 298
3 300 301 296
3 303 567 305
3 306 302 305
3 309 310 311
3 290 566 295
3 314 292 291
3 306 307 316
3 289 293 300
3 498 516 298
3 314 568 499
3 283 292 499
3 304 279 278
3 284 283 500
3 272 271 318
3 272 319 320
3 300 293 320
3 501 277 322
3 324 301 325
3 326 274 277
3 287 274 326
3 327 569 502
3 329 327 503
3 505 570 329
3 331 570 505
3 332 571 507
3 334 332 508
3 510 572 334
3 336 572 510
3 339 340 341
3 342 338 341
3 345 346 347
3 342 343 346
3 352 353 354
3 352 355 356
3 357 358 356
3 514 276 359
3 299 298 314
3 322 277 515
3 296 301 324
3 308 315 316
3 516 568 314
3 325 301 300
3 349 351 354
3 502 569 311
3 507 571 359
3 518 339 338
3 520 341 340
3 519 338 342
3 522 343 341
3 523 345 344
3 521 342 345
3 330 346 343
3 525 347 346
3 525 524 344
3 526 360 339
3 328 340 360
3 333 349 348
3 528 352 351
3 335 355 352
3 530 357 355
3 357 530 531
3 532 356 358
3 533 353 356
3 534 354 353
3 527 348 350
3 529 351 349
3 535 350 354
3 362 363 364
3 365 366 363
3 367 368 366
3 369 370 368
3 371 372 370
3 361 364 372
3 374 375 376
3 377 378 375
3 379 380 378
3 381 382 380
3 383 384 382
3 373 376 384
3 386 387 388
3 389 390 387
3 389 391 392
3 393 394 392
3 395 396 394
3 395 385 388
3 398 158 157
3 399 159 158
3 400 160 159
3 401 161 160
3 402 162 161
3 397 157 162
3 146 539 536
3 374 373 537
3 150 542 539
3 377 374 538
3 150 152 541
3 377 540 543
3 152 154 544
3 379 543 545
3 154 156 546
3 381 545 547
3 147 536 546
3 373 383 547
3 375 551 548
3 398 397 549
3 378 554 551
3 399 398 550
3 378 380 553
3 399 552 555
3 380 382 556
3 400 555 557
3 382 384 558
3 401 557 559
3 376 548 558
3 397 402 559
