ply
format ascii 1.0
comment VCGLIB generated
comment TextureFile Dungeons_Texture_01.png
element vertex 323
property float x
property float y
property float z
property float nx
property float ny
property float nz
property uchar red
property uchar green
property uchar blue
property uchar alpha
property float texture_u
property float texture_v
element face 448
property list uchar int vertex_indices
end_header
0.030972 0.189235 -0.044544 0.4688635 0.6012375 -0.6470553 79 79 78 255 0.296299 0.328975
0.024772 0.149961 -0.041588 0.2938768 -0.6904206 -0.6610263 79 79 78 255 0.296299 0.328975
-0.030981 0.189235 -0.044544 -0.4693786 0.3591836 -0.8066418 79 79 78 255 0.296299 0.328975
-0.024781 0.149961 -0.041588 -0.277447 -0.8308068 -0.4824762 79 79 78 255 0.296299 0.328975
-0.048844 0.192993 -0.004897 -0.5962101 0.8028286 1.961708e-08 79 79 78 255 0.296299 0.328975
-0.045208 0.149961 -0.004897 -0.8584838 -0.5128406 -2.661158e-06 79 79 78 255 0.296299 0.328975
-0.030981 0.189235 0.03475 -0.4689004 0.6012848 0.6469846 79 79 78 255 0.296299 0.328975
-0.024781 0.149961 0.031795 -0.2939573 -0.6904256 0.6609854 79 79 78 255 0.296299 0.328975
0.030972 0.189235 0.03475 0.4693317 0.3591619 0.8066787 79 79 78 255 0.296299 0.328975
0.024772 0.149961 0.031795 0.2773795 -0.8308054 0.4825174 79 79 78 255 0.296299 0.328975
0.048844 0.192993 -0.004897 0.5961605 0.8028653 1.63479e-08 79 79 78 255 0.296299 0.328975
0.045208 0.149961 -0.004897 0.8584682 -0.5128669 -2.664495e-06 79 79 78 255 0.296299 0.328975
-0.027659 0.093807 -0.004897 -0.9832473 -9.994109e-05 -0.1822765 122 102 74 255 0.244701 0.378875
-0.01517 0.105211 0.017553 -0.5068883 -6.869848e-05 0.8620118 122 102 74 255 0.244701 0.378875
-0.027664 0.145405 -0.004897 -0.9832365 -0.0001205988 0.1823348 122 102 74 255 0.244701 0.378875
-0.015177 0.145405 0.017553 -0.506911 -8.828728e-05 0.8619984 122 102 74 255 0.244701 0.378875
0.015161 0.145405 0.017553 0.3314836 7.421863e-05 0.943461 122 102 74 255 0.244701 0.378875
0.01517 0.105211 0.017553 0.6630492 7.42215e-05 0.7485759 122 102 74 255 0.244701 0.378875
0.015161 0.145405 -0.027347 0.6629 -4.73543e-05 -0.748708 122 102 74 255 0.244701 0.378875
0.015152 0.082413 -0.027347 0.3314164 -4.735281e-05 -0.9434846 122 102 74 255 0.244701 0.378875
-0.015177 0.145405 -0.027347 -0.5069057 -5.272865e-05 -0.8620016 122 102 74 255 0.244701 0.378875
-0.01517 0.082412 -0.027347 -0.5069003 -5.633456e-05 -0.8620048 122 102 74 255 0.244701 0.378875
0.027664 0.145405 -0.004897 0.9832214 7.337639e-05 0.1824167 122 102 74 255 0.244701 0.378875
0.027664 0.093807 -0.004897 0.9831691 -4.681808e-05 -0.1826982 122 102 74 255 0.244701 0.378875
-0.026839 0.466785 0.026335 -0.7764916 -0.217079 0.5915552 97 95 95 255 0.286536 0.306458
-0.020311 0.494923 0.018736 -0.6693574 0.3344506 0.6634029 97 95 95 255 0.286536 0.306458
-0.026839 0.466785 -0.03613 -0.5413166 -0.2912854 -0.7887517 97 95 95 255 0.286536 0.306458
-0.023256 0.495482 -0.031976 -0.71176 0.1864918 -0.6772138 120 120 119 255 0.286735 0.327577
0 0.582419 -0.004897 -0.5360374 0.8183786 0.2071725 120 120 119 255 0.286735 0.327577
0.020701 0.493142 0.019215 0.8323906 0.2771766 0.4798948 120 120 119 255 0.286735 0.327577
0.019176 0.519798 -0.027227 0.4216258 0.3224375 -0.8475056 120 120 119 255 0.286735 0.327577
0.022972 0.493483 -0.031646 0.3303611 0.1862761 -0.9252906 120 120 119 255 0.286735 0.327577
0.026821 0.466785 0.026335 0.548121 -0.2670965 0.7926051 97 95 95 255 0.286536 0.306458
-0.026839 0.408031 -0.03613 -0.548224 -0.02521238 -0.8359515 79 79 78 255 0.296299 0.328975
-0.039593 0.408031 -0.004971 -0.9681228 0.2504756 -0.0005130445 79 79 78 255 0.296299 0.328975
-0.016408 0.444911 -0.023981 -0.5326309 0.4730401 -0.7018101 79 79 78 255 0.296299 0.328975
-0.016408 0.444911 -0.004897 -0.8466027 0.5322254 0 79 79 78 255 0.296299 0.328975
0.026821 0.390949 0.026335 0.6302453 -0.1142844 0.7679389 79 79 78 255 0.296299 0.328975
0.020098 0.431553 0.018507 0.5604633 0.3956189 0.7275758 79 79 78 255 0.296299 0.328975
-0.003832 0.408031 0.026335 -0.003452413 0.0430466 0.9990671 79 79 78 255 0.296299 0.328975
0.016391 0.444911 -0.023981 0.8122187 0.4630688 -0.354779 79 79 78 255 0.296299 0.328975
0.026821 0.408031 -0.03613 0.5617817 0.08008405 -0.8234003 79 79 78 255 0.296299 0.328975
0.0193 0.369713 -0.029592 0.4607241 -0.07360159 -0.8844864 79 79 78 255 0.296299 0.328975
-0.0193 0.369712 -0.029592 -0.6429581 -0.07094334 -0.7626087 79 79 78 255 0.296299 0.328975
-0.030422 0.369713 -0.004897 -0.9881595 -0.1534298 -0.0002583815 79 79 78 255 0.296299 0.328975
-0.016408 0.444911 0.014186 -0.373637 -0.5801531 0.7237526 97 95 95 255 0.286536 0.306458
0.016391 0.444911 0.014186 0.7472913 -0.5573148 0.3618783 97 95 95 255 0.286536 0.306458
0.026821 0.466785 -0.03613 0.8841538 -0.1922123 -0.4258243 97 95 95 255 0.286536 0.306458
-0.033321 -0.133708 -0.004822 -0.932137 -0.3573639 0.05840957 112 50 44 255 0.265622 0.353182
-0.018266 -0.126774 0.022146 -0.4672921 -0.2325787 0.8529627 112 50 44 255 0.265622 0.353182
-0.033321 -0.087492 -0.004822 -0.895034 0.4414139 -0.06378038 112 50 44 255 0.265622 0.353188
-0.018266 -0.080737 0.022146 -0.4605059 0.5670409 0.6829341 112 50 44 255 0.265622 0.353188
0.018257 -0.080727 0.022146 0.4750198 0.4408085 0.7616062 112 50 44 255 0.265622 0.353188
0.018257 -0.126774 0.022146 0.4655971 -0.3421577 0.8161786 112 50 44 255 0.265622 0.353182
0.033321 -0.087492 -0.004833 0.8949615 0.4415453 -0.0638878 112 50 44 255 0.265622 0.353188
0.033321 -0.133708 -0.004833 0.9321592 -0.3573246 0.05829596 112 50 44 255 0.265622 0.353182
0.018257 -0.094295 -0.031939 0.4518265 0.4240415 -0.7848832 112 50 44 255 0.265622 0.353188
0.018257 -0.140671 -0.031939 0.4971014 -0.354228 -0.7920939 112 50 44 255 0.265622 0.353182
-0.018266 -0.094295 -0.031939 -0.4542178 0.2879206 -0.8430824 112 50 44 255 0.265622 0.353188
-0.018266 -0.140671 -0.031939 -0.4875243 -0.4601918 -0.7419863 112 50 44 255 0.265622 0.353182
-0.022487 -0.782732 -0.023339 -0.5727482 0.003952273 -0.8197219 122 102 74 255 0.244701 0.378874
-0.009887 -0.276508 -0.029702 -0.4124935 0.001614694 -0.9109591 122 102 74 255 0.244701 0.378874
0.007453 -0.797212 -0.027003 0.2311586 -0.01044192 -0.9728601 122 102 74 255 0.244701 0.378874
0.020339 -0.276508 -0.02722 0.6009475 0.002634939 -0.7992842 122 102 74 255 0.244701 0.378874
-0.013552 -0.265145 0.015066 -0.4577019 -0.01856588 0.8889118 122 102 74 255 0.244701 0.378874
-0.024179 -0.270819 -0.008328 -0.9997047 -0.009072233 -0.02254527 122 102 74 255 0.244701 0.378874
-0.015342 -0.653303 0.011042 -0.605598 0.001530573 0.7957692 122 102 74 255 0.244701 0.378874
-0.031251 -0.757571 -0.005498 -0.9887381 0.01592781 -0.1488069 122 102 74 255 0.244701 0.378874
0.014602 -0.667785 0.007373 0.4907454 -0.02136088 0.8710411 122 102 74 255 0.244701 0.378874
0.016678 -0.265144 0.017538 0.5519459 -0.001963602 0.8338777 122 102 74 255 0.244701 0.378874
0.030971 -0.270819 -0.003826 0.9983606 0.006421074 0.05687708 122 102 74 255 0.244701 0.378874
0.023368 -0.78399 -0.012194 0.9688669 -0.01779679 -0.2469414 122 102 74 255 0.244701 0.378874
-0.027664 -0.0557 -0.004897 -0.983225 0 -0.1823967 86 40 35 255 0.26546 0.332783
-0.027664 -0.0826 -0.004897 -0.983225 0 0.1823967 86 40 35 255 0.26546 0.332783
-0.01517 -0.064365 0.017553 -0.6631311 0 0.7485032 86 40 35 255 0.26546 0.332783
-0.01517 -0.075816 0.017553 -0.3315656 0 0.9434322 86 40 35 255 0.26546 0.332783
0.015161 -0.047034 -0.027347 0.5066765 0 -0.8621363 86 40 35 255 0.26546 0.332783
0.015161 -0.089374 -0.027347 0.5066765 0 -0.8621363 86 40 35 255 0.26546 0.332783
-0.01517 -0.047034 -0.027347 -0.3315656 0 -0.9434322 86 40 35 255 0.26546 0.332783
-0.01517 -0.089374 -0.027347 -0.6631311 0 -0.7485032 86 40 35 255 0.26546 0.332783
0.027664 -0.0557 -0.004897 0.9832015 0 -0.1825237 86 40 35 255 0.26546 0.332783
0.027664 -0.0826 -0.004897 0.9832015 0 0.1825237 86 40 35 255 0.26546 0.332783
0.015161 -0.064365 0.017553 0.5066765 0 0.8621363 86 40 35 255 0.26546 0.332783
0.015161 -0.075816 0.017553 0.5066765 0 0.8621363 86 40 35 255 0.26546 0.332783
-0.033321 -0.007404 -0.004822 -0.9277212 0.364617 0.07992373 112 50 44 255 0.265622 0.353188
-0.033321 -0.049612 -0.004822 -0.9184957 -0.3870746 -0.08086436 112 50 44 255 0.265622 0.353188
-0.018266 -0.016201 0.022146 -0.4577021 0.3480466 0.8181518 112 50 44 255 0.265622 0.353188
-0.018266 -0.058259 0.022145 -0.5002063 -0.385937 0.7751428 112 50 44 255 0.265622 0.353188
0.018257 0.00145 -0.031939 0.4955359 0.4702764 -0.7302632 112 50 44 255 0.265622 0.353188
0.018257 -0.040928 -0.031939 0.4564555 -0.2516891 -0.8534056 112 50 44 255 0.265622 0.353188
-0.018266 0.00145 -0.031939 -0.5063828 0.3619626 -0.7826619 112 50 44 255 0.265622 0.353188
-0.018266 -0.040928 -0.031939 -0.4548396 -0.3699484 -0.8100982 112 50 44 255 0.265622 0.353188
0.033321 -0.007395 -0.004833 0.9276679 0.3647666 0.07985962 112 50 44 255 0.265622 0.353188
0.033321 -0.049612 -0.004833 0.9184373 -0.3871969 -0.08094122 112 50 44 255 0.265622 0.353188
0.018257 -0.016201 0.022146 0.4592891 0.2368919 0.8561167 112 50 44 255 0.265622 0.353188
0.018257 -0.058259 0.022146 0.4881652 -0.4997332 0.7155149 112 50 44 255 0.265622 0.353188
-0.027664 -0.000715 -0.004897 -0.983225 0 -0.1823967 86 40 35 255 0.26546 0.332783
-0.01517 -0.00954 0.017553 -0.5068084 0 0.8620588 86 40 35 255 0.26546 0.332783
-0.027664 0.031615 -0.004897 -0.983225 0 0.1823966 86 40 35 255 0.26546 0.332783
-0.01517 0.043036 0.017553 -0.5068083 0 0.8620588 86 40 35 255 0.26546 0.332783
0.015161 0.020192 -0.027347 0.6629672 0 -0.7486485 86 40 35 255 0.26546 0.332783
0.015161 0.008111 -0.027347 0.3314836 0 -0.943461 86 40 35 255 0.26546 0.332783
-0.01517 0.020192 -0.027347 -0.5068084 0 -0.8620588 86 40 35 255 0.26546 0.332783
-0.01517 0.008111 -0.027347 -0.5068083 0 -0.8620588 86 40 35 255 0.26546 0.332783
0.027664 0.031615 -0.004897 0.9832015 0 0.1825237 86 40 35 255 0.26546 0.332783
0.027664 -0.000714 -0.004897 0.9832015 0 -0.1825237 86 40 35 255 0.26546 0.332783
0.015161 0.043046 0.017553 0.3314836 0 0.943461 86 40 35 255 0.26546 0.332783
0.015161 -0.00954 0.017553 0.6629672 0 0.7486485 86 40 35 255 0.26546 0.332783
-0.033321 0.038276 -0.004822 -0.9234799 -0.3677896 0.1091593 112 50 44 255 0.265622 0.353188
-0.018266 0.04967 0.022146 -0.4491258 -0.238042 0.8611748 112 50 44 255 0.265622 0.353188
-0.033314 0.086789 -0.004822 -0.9301595 0.352187 -0.103767 112 50 44 255 0.265622 0.353188
-0.018266 0.098154 0.022146 -0.5102938 0.4561297 0.729072 112 50 44 255 0.265622 0.353188
0.018257 0.075366 -0.031939 0.4517983 0.3345392 -0.8270199 112 50 44 255 0.265622 0.353188
0.018257 0.026816 -0.031939 0.5194827 -0.3662935 -0.7719889 112 50 44 255 0.265622 0.353188
-0.018266 0.075366 -0.031939 -0.4535842 0.2280604 -0.8615392 112 50 44 255 0.265622 0.353188
-0.018266 0.026816 -0.031939 -0.5081416 -0.4757785 -0.7179325 112 50 44 255 0.265622 0.353188
0.033321 0.086788 -0.004833 0.9300608 0.3524113 -0.1038908 112 50 44 255 0.265622 0.353188
0.033321 0.038267 -0.004833 0.9233483 -0.368136 0.1091048 112 50 44 255 0.265622 0.353188
0.018257 0.098154 0.022146 0.5207855 0.3507 0.7783264 112 50 44 255 0.265622 0.353188
0.018257 0.04967 0.022146 0.4474276 -0.3495356 0.8231849 112 50 44 255 0.265622 0.353188
-0.027664 -0.14053 -0.004897 -0.7889522 -0.6144544 0.0005091727 112 50 44 255 0.265622 0.353182
-0.01517 -0.133586 0.017553 -0.3370368 -0.6086193 0.7183236 112 50 44 255 0.265622 0.353182
0.015161 -0.133586 0.017553 0.4460737 -0.6073964 0.6573339 112 50 44 255 0.265622 0.353182
0.027664 -0.14053 -0.004897 0.7889956 -0.6143987 0.0004593407 112 50 44 255 0.265622 0.353182
0.015161 -0.147483 -0.027347 0.2971524 -0.622888 -0.7236788 112 50 44 255 0.265622 0.353182
-0.01517 -0.147483 -0.027347 -0.4533657 -0.6306506 -0.6298726 112 50 44 255 0.265622 0.353182
-0.016905 0.52726 -0.007233 -0.9430347 0.2548706 -0.2138377 120 120 119 255 0.286735 0.327577
-0.013872 0.53714 -0.021042 -0.6809132 -0.02013334 -0.7320874 120 120 119 255 0.286735 0.327577
-0.026839 0.408031 0.026335 -0.6557043 0.01168754 0.7549274 79 79 78 255 0.296299 0.328975
-0.0193 0.369712 0.019799 -0.4606876 -0.07363861 0.8845023 79 79 78 255 0.296299 0.328975
0.0193 0.369713 0.019799 0.5132988 -0.1455101 0.8457844 79 79 78 255 0.296299 0.328975
0.039576 0.408031 -0.001022 0.9844505 0.1654548 0.05900718 79 79 78 255 0.296299 0.328975
0.030422 0.369713 -0.004897 0.9827961 -0.1840781 -0.01506955 79 79 78 255 0.296299 0.328975
-0.020967 0.513994 -0.029295 -0.5944365 0.424899 -0.6827196 120 120 119 255 0.286735 0.327577
-0.024027 0.192337 -0.035656 -0.2512821 0.7229192 -0.6436188 79 79 78 255 0.296299 0.328975
0.024027 0.192337 -0.035656 0.3503642 0.7552115 -0.5539861 79 79 78 255 0.296299 0.328975
-0.037899 0.195874 -0.004897 -0.8967496 0.4425385 -3.023102e-06 79 79 78 255 0.296299 0.328975
-0.024027 0.192337 0.025862 -0.3503453 0.7551798 0.5540413 79 79 78 255 0.296299 0.328975
0.024027 0.192337 0.025862 0.2512955 0.7229434 0.6435865 79 79 78 255 0.296299 0.328975
0.03789 0.195874 -0.004897 0.8967377 0.4425625 -3.023177e-06 79 79 78 255 0.296299 0.328975
0.012382 0.377891 0.138005 0.9951301 0.04040528 0.08990806 97 95 95 255 0.285936 0.306458
0.012382 0.336813 0.146199 0.9987867 0.009716704 0.04827774 97 95 95 255 0.285936 0.306458
0.012382 0.358841 0.078809 1 3.212706e-05 7.02995e-06 97 95 95 255 0.285936 0.306458
0.012382 0.312286 0.088091 1 -3.721814e-05 -4.642859e-05 97 95 95 255 0.285936 0.306458
0.012391 0.310717 0.151402 1 6.941061e-05 -0.00014044 97 95 95 255 0.285936 0.306458
-0.012399 0.398849 0.049171 -0.9030153 0.4019791 -0.1515794 97 95 95 255 0.285936 0.306458
-0.012399 0.435606 0.095251 -0.4472136 0.6992217 -0.5577536 97 95 95 255 0.285936 0.306458
0.012382 0.398849 0.049171 0.7244574 0.6449874 -0.2432136 97 95 95 255 0.285936 0.306458
0.012382 0.435606 0.095251 0.7071068 0.5527833 -0.4409429 97 95 95 255 0.285936 0.306458
-0.012399 0.310717 0.151402 -0.9952911 -0.01075805 0.09633242 97 95 95 255 0.285936 0.306458
-0.012399 0.350316 0.143506 -0.9987754 0.009674625 0.04851899 97 95 95 255 0.285936 0.306458
-0.012399 0.312286 0.088091 -1 0 0 97 95 95 255 0.285936 0.306458
-0.012399 0.358841 0.078809 -1 0 0 97 95 95 255 0.285936 0.306458
-0.012399 0.377891 0.138005 -1 0 0 97 95 95 255 0.285936 0.306458
0.012382 0.227803 0.043248 0.8463641 -0.4914663 -0.2052529 97 95 95 255 0.285936 0.306458
0.012391 0.188827 0.086703 0.8240888 -0.4907939 -0.2828408 97 95 95 255 0.285936 0.306458
-0.012399 0.227803 0.043248 -0.6219828 -0.7225969 -0.3016473 97 95 95 255 0.285936 0.306458
-0.012399 0.188827 0.086703 -0.7070629 -0.5264243 -0.4721648 97 95 95 255 0.285936 0.306458
0.012382 0.269639 0.140249 0.998775 -0.01288299 0.04777582 97 95 95 255 0.285936 0.306458
0.012373 0.266274 0.075601 1 9.866167e-05 -3.583282e-06 97 95 95 255 0.285936 0.306458
0.012391 0.244327 0.133385 0.9949273 -0.0533861 0.08526213 97 95 95 255 0.285936 0.306458
0.012391 0.307946 -0.095119 0.8627193 -0.3314677 -0.3818961 97 95 95 255 0.285936 0.306458
0.012391 0.242771 -0.080629 0.662438 -0.5252948 -0.5340799 97 95 95 255 0.285936 0.306458
-0.012399 0.307946 -0.095119 -0.6489359 -0.4988339 -0.5744972 97 95 95 255 0.285936 0.306458
-0.012408 0.242771 -0.080629 -0.870603 -0.3450041 -0.350746 97 95 95 255 0.285936 0.306458
-0.012408 0.244327 0.133385 -0.9987757 -0.01290454 0.04775548 97 95 95 255 0.285936 0.306458
-0.012399 0.266274 0.075601 -1 3.721383e-05 -3.036796e-05 97 95 95 255 0.285936 0.306458
0.012382 0.40855 0.115294 0.9986682 0.03071027 0.0414577 97 95 95 255 0.285936 0.306458
0.005789 0.43951 0.158835 0.894305 0.2769284 0.3514672 120 120 119 255 0.285634 0.327596
-0.012399 0.407668 0.115948 -1 0 0 97 95 95 255 0.285936 0.306458
-0.008506 0.283668 0.164102 -0.9802649 -0.05146594 0.1908716 97 95 95 255 0.285936 0.306458
-0.009694 0.31038 0.165184 -0.9812877 -0.006396964 0.1924413 97 95 95 255 0.285936 0.306458
0 0.484639 0.108686 7.373437e-05 0.6749109 -0.7378993 120 120 119 255 0.285634 0.327596
0 0.462289 0.157794 0.05472084 0.5985744 0.7991961 120 120 119 255 0.285634 0.327596
-0.005328 0.442162 0.159658 -0.8446923 0.3174179 0.4309766 120 120 119 255 0.285634 0.327596
-0.009189 0.3985 0.141255 -0.9796404 0.04979329 0.1944873 120 120 119 255 0.285634 0.327596
0 0.396933 0.197209 -0.03473802 0.341316 0.9393065 120 120 119 255 0.285634 0.327596
0 0.437559 0.175293 -0.4439864 0.678377 0.5853894 120 120 119 255 0.285634 0.327596
0.007521 0.385368 0.161269 0.980549 0.08045591 0.1790269 97 95 95 255 0.285936 0.306458
0.007619 0.235884 0.155624 0.9801693 -0.09278835 0.1750958 97 95 95 255 0.285936 0.306458
0.004914 0.264046 0.177155 0.910032 -0.07804763 0.4071246 120 120 119 255 0.285634 0.327596
0.007681 0.19196 0.117794 0.9772169 -0.137275 0.1618725 97 95 95 255 0.285936 0.306458
0.009978 0.224174 0.131246 0.9778162 -0.1350974 0.1600761 97 95 95 255 0.285936 0.306458
-9e-06 0.142042 0.080701 0.7421862 -0.5048152 -0.4408188 120 120 119 255 0.285634 0.327596
-1.8e-05 0.178543 0.153951 0.001843345 -0.6939896 0.7199827 120 120 119 255 0.285634 0.327596
-0.004364 0.264851 0.18031 -0.8739234 -0.1173857 0.4716764 120 120 119 255 0.285634 0.327596
-9e-06 0.246597 0.19773 0.6993971 0.2326187 0.6758196 120 120 119 255 0.285634 0.327596
-9e-06 0.281041 0.207079 -0.4337754 -0.5481865 0.7150738 120 120 119 255 0.285634 0.327596
-9e-06 0.30915 0.214711 -0.0001054005 0.04370042 0.9990447 120 120 119 255 0.285634 0.327596
0.012391 0.307824 -0.053836 1 3.151368e-05 3.667645e-05 97 95 95 255 0.285936 0.306458
0.012382 0.349224 -0.069046 1 9.804322e-05 -1.054364e-05 97 95 95 255 0.285936 0.306458
0.012382 0.329493 -0.152457 0.8171771 -0.5696869 -0.08762682 97 95 95 255 0.285936 0.306458
-0.012399 0.307824 -0.053836 -1 1.6799e-05 5.518941e-05 97 95 95 255 0.285936 0.306458
-0.012399 0.349224 -0.069046 -1 0 0 97 95 95 255 0.285936 0.306458
-0.012399 0.329493 -0.152457 -0.8926176 -0.4497551 -0.03089033 97 95 95 255 0.285936 0.306458
0.012391 0.245173 -0.057179 1 3.895897e-05 6.158881e-05 97 95 95 255 0.285936 0.306458
-0.012399 0.245173 -0.057179 -1 0.0001187405 0.0001797414 97 95 95 255 0.285936 0.306458
0.012391 0.232696 -0.038614 0.7083569 -0.7009361 -0.08318155 97 95 95 255 0.285936 0.306458
-0.012399 0.232696 -0.038614 -0.7083833 -0.6948268 -0.1241327 97 95 95 255 0.285936 0.306458
0.012382 0.393335 -0.065934 0.8944272 0.4467014 -0.02139881 97 95 95 255 0.285936 0.306458
0.012382 0.394018 -0.129392 1 0 0 97 95 95 255 0.285936 0.306458
-0.012399 0.393335 -0.065934 -0.7071068 0.7062969 -0.03383448 97 95 95 255 0.285936 0.306458
-0.012399 0.394018 -0.129392 -1 0 0 97 95 95 255 0.285936 0.306458
-0.012399 0.352715 -0.185065 -1 -7.799397e-05 -5.55439e-05 97 95 95 255 0.285936 0.306458
-0.012391 0.33989 -0.239072 -0.9597622 -0.2788023 -0.03355528 97 95 95 255 0.285936 0.306458
0.012382 0.33989 -0.239072 0.9597571 -0.27883 -0.03346995 97 95 95 255 0.285936 0.306458
0.012382 0.352715 -0.185065 1 0 0 97 95 95 255 0.285936 0.306458
-9e-06 0.316207 -0.204221 -5.3844e-05 -0.9982708 0.05878321 97 95 95 255 0.285936 0.306458
-9e-06 0.342793 -0.30155 -0.0003026139 -0.2886418 -0.9574372 120 120 119 255 0.286185 0.327567
0 0.366296 -0.20678 0.0002101709 0.9128855 -0.4082157 120 120 119 255 0.286185 0.327567
0 0.416278 -0.084121 0.0002093846 0.9548112 0.297213 120 120 119 255 0.286185 0.327567
0 0.416278 -0.144055 0.0002946265 0.9517145 -0.3069848 120 120 119 255 0.286185 0.327567
-0.041722 0.371857 -0.004897 -0.4394177 0.8982829 6.818017e-09 79 79 78 255 0.296299 0.328975
-0.041722 0.291857 -0.004897 -0.8904529 -0.4550756 1.036215e-08 79 79 78 255 0.296299 0.328975
-0.02189 0.358573 0.063437 -0.5497765 0.2809711 0.7866391 79 79 78 255 0.296299 0.328975
-0.02189 0.305141 0.063437 -0.3499007 -0.715277 0.6049367 79 79 78 255 0.296299 0.328975
0.041704 0.371857 -0.004897 0.8904006 0.4551777 -2.072325e-08 79 79 78 255 0.296299 0.328975
0.021872 0.358573 0.063437 0.3498783 0.7153064 0.6049148 79 79 78 255 0.296299 0.328975
0.041713 0.291856 -0.004897 0.4394355 -0.8982742 -1.363668e-08 79 79 78 255 0.296299 0.328975
0.021881 0.305141 0.063437 0.549785 -0.2808979 0.7866593 79 79 78 255 0.296299 0.328975
0.021881 0.305141 -0.073231 0.6917911 -0.3534521 -0.6296797 79 79 78 255 0.296299 0.328975
-0.02189 0.305141 -0.073231 -0.2789371 -0.5702111 -0.7726923 79 79 78 255 0.296299 0.328975
0.021872 0.358573 -0.073231 0.2789233 0.570243 -0.7726738 79 79 78 255 0.296299 0.328975
-0.02189 0.358573 -0.073231 -0.6917714 0.3535397 -0.6296524 79 79 78 255 0.296299 0.328975
-0.025413 -0.836935 -0.004952 -0.182164 -0.2048374 0.9616954 92 78 58 255 0.243593 0.351077
0.017533 -0.864865 -0.010214 0.101033 -0.3280816 0.939231 92 78 58 255 0.243593 0.351077
0.01064 -0.74202 0.005155 0.3610754 -0.08123558 0.9289916 92 78 58 255 0.243593 0.351077
-0.012905 -0.72671 0.008053 -0.1780594 -0.05932356 0.9822299 92 78 58 255 0.243593 0.351077
-0.018524 -0.863534 -0.01898 -0.2220567 -0.4991269 0.8375937 92 78 58 255 0.243593 0.351077
0.005017 -0.878842 -0.021859 0.3155515 -0.0690546 -0.9463925 122 102 74 255 0.243121 0.377966
-0.026839 0.466785 -0.03613 -0.7116818 0.1868836 -0.677188 120 120 119 255 0.286735 0.327577
-0.020311 0.494923 0.018736 -0.9191608 0.2203213 0.3264993 120 120 119 255 0.286735 0.327577
0.020701 0.493142 0.019215 0.6720201 0.3020781 0.6761197 97 95 95 255 0.286536 0.306458
-0.016408 0.444911 -0.023981 -0.7472739 -0.5573394 -0.3618763 97 95 95 255 0.286536 0.306458
-0.016408 0.444911 -0.004897 -0.9026233 -0.4304315 0 97 95 95 255 0.286536 0.306458
0.016391 0.444911 -0.023981 0.3736457 -0.5801425 -0.7237566 97 95 95 255 0.286536 0.306458
-0.01517 -0.075816 0.017553 -0.4075541 0.7468502 0.525466 112 50 44 255 0.265622 0.353188
-0.027664 -0.0826 -0.004897 -0.6869355 0.7252522 -0.04614038 112 50 44 255 0.265622 0.353188
0.015161 -0.075816 0.017553 0.2676665 0.742506 0.6140355 112 50 44 255 0.265622 0.353188
0.027664 -0.0826 -0.004897 0.6865674 0.7255943 -0.04623841 112 50 44 255 0.265622 0.353188
0.015161 -0.089374 -0.027347 0.3676359 0.7183116 -0.5906541 112 50 44 255 0.265622 0.353188
-0.01517 -0.089374 -0.027347 -0.2772942 0.7197747 -0.6364216 112 50 44 255 0.265622 0.353188
-0.027664 -0.0557 -0.004897 -0.7616074 -0.6458213 -0.05356428 112 50 44 255 0.265622 0.353188
-0.01517 -0.064365 0.017553 -0.2978984 -0.66566 0.6842173 112 50 44 255 0.265622 0.353188
-0.027664 -0.000715 -0.004897 -0.7872115 0.6153038 0.04122229 112 50 44 255 0.265622 0.353188
-0.01517 -0.00954 0.017553 -0.4223839 0.6093641 0.6710196 112 50 44 255 0.265622 0.353188
0.015161 -0.047034 -0.027347 0.3048643 -0.6405529 -0.7048048 112 50 44 255 0.265622 0.353188
-0.01517 -0.047034 -0.027347 -0.4044544 -0.6386932 -0.6545897 112 50 44 255 0.265622 0.353188
-0.01517 0.008111 -0.027347 -0.3052078 0.6325795 -0.7118226 112 50 44 255 0.265622 0.353188
0.015161 0.008111 -0.027347 0.4660582 0.6386995 -0.6122522 112 50 44 255 0.265622 0.353188
0.027664 -0.000714 -0.004897 0.7870388 0.6155261 0.04120118 112 50 44 255 0.265622 0.353188
0.027664 -0.0557 -0.004897 0.7614591 -0.6460069 -0.05343506 112 50 44 255 0.265622 0.353188
0.015161 -0.064365 0.017553 0.4545196 -0.67106 0.5857393 112 50 44 255 0.265622 0.353188
0.015161 -0.00954 0.017553 0.3188354 0.6105146 0.7249936 112 50 44 255 0.265622 0.353188
-0.027664 0.031615 -0.004897 -0.7893623 -0.6068603 0.09288617 112 50 44 255 0.265622 0.353188
-0.01517 0.043036 0.017553 -0.2980021 -0.6041192 0.739077 112 50 44 255 0.265622 0.353188
-0.01517 0.105211 0.017553 -0.4917614 0.6161637 0.6152342 112 50 44 255 0.265622 0.353188
-0.027659 0.093807 -0.004897 -0.8061501 0.5861451 -0.08096908 112 50 44 255 0.265622 0.353188
0.015161 0.020192 -0.027347 0.3172262 -0.6359636 -0.7035041 112 50 44 255 0.265622 0.353188
-0.01517 0.020192 -0.027347 -0.4856504 -0.6398663 -0.5955794 112 50 44 255 0.265622 0.353188
-0.01517 0.082412 -0.027347 -0.3118162 0.5819063 -0.751103 112 50 44 255 0.265622 0.353188
0.015152 0.082413 -0.027347 0.412692 0.5802191 -0.7021618 112 50 44 255 0.265622 0.353188
0.027664 0.093807 -0.004897 0.8061421 0.5861832 -0.08077203 112 50 44 255 0.265622 0.353188
0.027664 0.031615 -0.004897 0.7891902 -0.6070753 0.09294295 112 50 44 255 0.265622 0.353188
0.015161 0.043046 0.017553 0.3950602 -0.6026446 0.6933592 112 50 44 255 0.265622 0.353188
0.01517 0.105211 0.017553 0.32122 0.6112705 0.7233023 112 50 44 255 0.265622 0.353188
0.022972 0.493483 -0.031646 0.7077593 0.2150559 -0.6729248 97 95 95 255 0.286536 0.306458
-0.016408 0.444911 0.014186 -0.4203574 0.4495493 0.7881657 79 79 78 255 0.296299 0.328975
0.016391 0.444911 0.014186 0.6549386 0.3909447 0.6466975 79 79 78 255 0.296299 0.328975
0.015161 -0.133586 0.017553 0.3046374 -0.003809059 0.9524608 122 102 74 255 0.244701 0.378874
-0.01517 -0.133586 0.017553 -0.5043437 -0.02252092 0.8632093 122 102 74 255 0.244701 0.378874
-0.027664 -0.14053 -0.004897 -0.9869598 -0.02454939 0.1590842 122 102 74 255 0.244701 0.378874
-0.01517 -0.147483 -0.027347 -0.6431559 -0.006211845 -0.7657101 122 102 74 255 0.244701 0.378874
0.015161 -0.147483 -0.027347 0.538589 0.02160623 -0.8422916 122 102 74 255 0.244701 0.378874
0.027664 -0.14053 -0.004897 0.9782393 0.02040222 0.2064743 122 102 74 255 0.244701 0.378874
0.015161 0.145405 -0.027347 0.08382166 -0.9641232 -0.2518739 79 79 78 255 0.296299 0.328975
-0.015177 0.145405 -0.027347 -0.1260108 -0.9663665 -0.2241808 79 79 78 255 0.296299 0.328975
-0.015177 0.145405 0.017553 -0.0838978 -0.9641238 0.2518463 79 79 78 255 0.296299 0.328975
-0.027664 0.145405 -0.004897 -0.2514782 -0.967863 -1.944742e-06 79 79 78 255 0.296299 0.328975
0.015161 0.145405 0.017553 0.1258886 -0.9663804 0.22419 79 79 78 255 0.296299 0.328975
0.027664 0.145405 -0.004897 0.251363 -0.9678929 -1.956042e-06 79 79 78 255 0.296299 0.328975
0.012382 0.40855 0.115294 0.9922839 0.05511234 0.1110643 120 120 119 255 0.285634 0.327596
0.012382 0.435606 0.095251 0.9408486 0.2584079 -0.2191558 120 120 119 255 0.285634 0.327596
-0.012399 0.435606 0.095251 -0.9393297 0.2631963 -0.219971 120 120 119 255 0.285634 0.327596
-0.012399 0.407668 0.115948 -0.9915115 0.05255287 0.1189252 120 120 119 255 0.285634 0.327596
-0.012399 0.377891 0.138005 -0.9804199 0.08257538 0.1787688 120 120 119 255 0.285634 0.327596
0.007521 0.385368 0.161269 0.984742 0.03855277 0.1696962 120 120 119 255 0.285634 0.327596
0.007619 0.235884 0.155624 0.9777513 -0.09339557 0.1878293 120 120 119 255 0.285634 0.327596
0.012382 0.269639 0.140249 0.9803175 -0.05173324 0.1905291 120 120 119 255 0.285634 0.327596
-0.012399 0.188827 0.086703 -0.9320387 -0.1335834 -0.3368371 120 120 119 255 0.285634 0.327596
0.012391 0.188827 0.086703 0.750468 -0.1154216 -0.6507502 120 120 119 255 0.285634 0.327596
-0.012408 0.244327 0.133385 -0.9768263 -0.1003774 0.1890364 120 120 119 255 0.285634 0.327596
-0.009694 0.31038 0.165184 -0.9812669 -0.02163387 0.1914346 120 120 119 255 0.285634 0.327596
-0.008506 0.283668 0.164102 -0.9803061 -0.05149238 0.1906533 120 120 119 255 0.285634 0.327596
-0.012399 0.350316 0.143506 -0.9804768 0.03841132 0.1928467 120 120 119 255 0.285634 0.327596
-0.012399 0.377891 0.138005 -0.977509 0.1255297 0.1694653 97 95 95 255 0.285936 0.306764
-0.009189 0.3985 0.141255 -0.977509 0.1255297 0.1694653 97 95 95 255 0.285936 0.306764
-0.012399 0.407668 0.115948 -0.977509 0.1255297 0.1694653 97 95 95 255 0.285936 0.306764
0.012382 0.336813 0.146199 0.9804661 0.03848706 0.1928863 120 120 119 255 0.285634 0.327596
0.012391 0.310717 0.151402 0.9810823 -0.02920273 0.1913757 120 120 119 255 0.285634 0.327596
0.007681 0.19196 0.117794 0.9650835 -0.2153181 0.1491711 120 120 119 255 0.285634 0.327596
0.009978 0.224174 0.131246 0.9780174 -0.1352928 0.158675 120 120 119 255 0.285634 0.327596
0.012382 0.33989 -0.239072 0.9666131 0.1827322 -0.1796333 120 120 119 255 0.286185 0.327567
-9e-06 0.316207 -0.204221 -0.0001807241 -0.9646587 -0.2635022 120 120 119 255 0.286185 0.327567
-0.012391 0.33989 -0.239072 -0.9665545 0.1830382 -0.1796372 120 120 119 255 0.286185 0.327567
0.012382 0.352715 -0.185065 0.8634006 0.4616049 -0.2036181 120 120 119 255 0.286185 0.327567
-0.012399 0.352715 -0.185065 -0.8631206 0.4620133 -0.2038787 120 120 119 255 0.286185 0.327567
-0.012399 0.393335 -0.065934 -0.544247 0.6817117 0.4889422 120 120 119 255 0.286185 0.327567
0.012382 0.393335 -0.065934 0.5444845 0.6814815 0.4889987 120 120 119 255 0.286185 0.327567
0.012382 0.394018 -0.129392 0.896933 0.4211233 -0.1347833 120 120 119 255 0.286185 0.327567
-0.012399 0.394018 -0.129392 -0.8966925 0.4215863 -0.1349355 120 120 119 255 0.286185 0.327567
0.023368 -0.78399 -0.012194 0.7449796 -0.04907866 0.6652793 92 78 58 255 0.243593 0.351077
0.014602 -0.667785 0.007373 0.3301977 -0.04642061 0.9427697 92 78 58 255 0.243593 0.351077
-0.031251 -0.757571 -0.005498 -0.5450761 -0.04360316 0.8372519 92 78 58 255 0.243593 0.351077
-0.015342 -0.653303 0.011042 -0.2282931 -0.04717534 0.9724488 92 78 58 255 0.243593 0.351077
0.007453 -0.797212 -0.027003 0.314628 -0.0706905 -0.9465792 122 102 74 255 0.243121 0.377966
-0.018524 -0.863534 -0.01898 -0.4735094 -0.06925694 -0.8780617 122 102 74 255 0.243121 0.377966
-0.022487 -0.782732 -0.023339 -0.7661164 -0.0742927 -0.6383935 122 102 74 255 0.243121 0.377966
0.017533 -0.864865 -0.010214 0.7136107 -0.06673355 -0.6973567 122 102 74 255 0.243121 0.377966
-0.025413 -0.836935 -0.004952 -0.9349775 -0.06764492 -0.3481971 122 102 74 255 0.243121 0.377966
-0.031251 -0.757571 -0.005498 -0.9312581 -0.07096183 -0.3573831 122 102 74 255 0.243121 0.377966
0.005017 -0.878842 -0.021859 -0.222066 -0.499035 0.8376459 92 78 58 255 0.243593 0.351077
0.023368 -0.78399 -0.012194 0.7094649 -0.06835901 -0.7014176 122 102 74 255 0.243121 0.377966
3 0 1 2 
3 2 1 3 
3 4 5 6 
3 6 5 7 
3 6 7 8 
3 8 7 9 
3 10 8 11 
3 11 8 9 
3 12 13 14 
3 14 13 15 
3 15 13 16 
3 16 13 17 
3 3 5 2 
3 2 5 4 
3 10 11 0 
3 0 11 1 
3 18 19 20 
3 20 19 21 
3 22 23 18 
3 18 23 19 
3 24 25 26 
3 230 231 27 
3 28 29 30 
3 30 29 31 
3 32 232 24 
3 24 232 25 
3 33 34 35 
3 35 34 36 
3 37 38 39 
3 40 41 35 
3 35 41 33 
3 41 42 33 
3 33 42 43 
3 43 44 33 
3 33 44 34 
3 24 45 32 
3 32 45 46 
3 26 233 24 
3 233 234 24 
3 234 45 24 
3 47 235 26 
3 26 235 233 
3 235 47 46 
3 46 47 32 
3 48 49 50 
3 50 49 51 
3 51 49 52 
3 52 49 53 
3 54 55 56 
3 56 55 57 
3 56 57 58 
3 58 57 59 
3 60 61 62 
3 62 61 63 
3 64 65 66 
3 66 65 67 
3 66 68 64 
3 64 68 69 
3 70 71 63 
3 63 71 62 
3 72 73 74 
3 74 73 75 
3 76 77 78 
3 78 77 79 
3 76 80 77 
3 77 80 81 
3 74 75 82 
3 82 75 83 
3 84 85 86 
3 86 85 87 
3 88 89 90 
3 90 89 91 
3 88 92 89 
3 89 92 93 
3 86 87 94 
3 94 87 95 
3 96 97 98 
3 98 97 99 
3 100 101 102 
3 102 101 103 
3 104 105 100 
3 100 105 101 
3 99 97 106 
3 106 97 107 
3 108 109 110 
3 110 109 111 
3 112 113 114 
3 114 113 115 
3 116 117 112 
3 112 117 113 
3 111 109 118 
3 118 109 119 
3 120 121 48 
3 48 121 49 
3 236 237 51 
3 51 237 50 
3 49 121 53 
3 53 121 122 
3 52 238 51 
3 51 238 236 
3 239 54 240 
3 240 54 56 
3 55 123 57 
3 57 123 124 
3 57 124 59 
3 59 124 125 
3 58 241 56 
3 56 241 240 
3 85 242 87 
3 87 242 243 
3 244 84 245 
3 245 84 86 
3 89 246 91 
3 91 246 247 
3 90 248 88 
3 88 248 249 
3 249 250 88 
3 88 250 92 
3 251 246 93 
3 93 246 89 
3 87 243 95 
3 95 243 252 
3 94 253 86 
3 86 253 245 
3 254 255 108 
3 108 255 109 
3 256 257 111 
3 111 257 110 
3 113 258 115 
3 115 258 259 
3 114 260 112 
3 112 260 261 
3 262 116 261 
3 261 116 112 
3 117 263 113 
3 113 263 258 
3 109 255 119 
3 119 255 264 
3 118 265 111 
3 111 265 256 
3 21 12 20 
3 20 12 14 
3 257 260 110 
3 110 260 114 
3 115 108 114 
3 114 108 110 
3 259 254 115 
3 115 254 108 
3 103 96 102 
3 102 96 98 
3 84 244 90 
3 90 244 248 
3 85 84 91 
3 91 84 90 
3 242 85 247 
3 247 85 91 
3 73 72 79 
3 79 72 78 
3 237 241 50 
3 50 241 58 
3 59 48 58 
3 58 48 50 
3 125 120 59 
3 59 120 48 
3 60 67 61 
3 61 67 65 
3 16 17 22 
3 22 17 23 
3 116 262 118 
3 118 262 265 
3 117 116 119 
3 119 116 118 
3 263 117 264 
3 264 117 119 
3 105 104 107 
3 107 104 106 
3 250 253 92 
3 92 253 94 
3 92 94 93 
3 93 94 95 
3 252 251 95 
3 95 251 93 
3 80 82 81 
3 81 82 83 
3 54 239 52 
3 52 239 238 
3 55 54 53 
3 53 54 52 
3 123 55 122 
3 122 55 53 
3 69 68 70 
3 70 68 71 
3 126 127 30 
3 30 127 28 
3 47 26 266 
3 31 230 27 
3 128 39 267 
3 39 38 267 
3 267 38 268 
3 128 129 39 
3 129 130 39 
3 37 39 130 
3 131 37 132 
3 132 37 130 
3 41 40 131 
3 131 40 38 
3 38 40 268 
3 27 231 133 
3 133 231 126 
3 28 126 231 
3 28 127 126 
3 266 232 47 
3 47 232 32 
3 27 133 31 
3 31 133 30 
3 69 269 64 
3 64 269 270 
3 65 64 271 
3 271 64 270 
3 61 65 272 
3 272 65 271 
3 63 61 273 
3 273 61 272 
3 274 70 273 
3 273 70 63 
3 70 274 69 
3 69 274 269 
3 1 275 3 
3 3 275 276 
3 2 134 0 
3 0 134 135 
3 136 4 137 
3 137 4 6 
3 277 7 278 
3 278 7 5 
3 7 277 9 
3 9 277 279 
3 8 138 6 
3 6 138 137 
3 139 138 10 
3 10 138 8 
3 279 280 9 
3 9 280 11 
3 276 278 3 
3 3 278 5 
3 136 134 4 
3 4 134 2 
3 139 10 135 
3 135 10 0 
3 275 1 280 
3 280 1 11 
3 28 231 29 
3 126 30 133 
3 137 138 129 
3 129 138 130 
3 137 129 136 
3 136 129 44 
3 134 136 43 
3 43 136 44 
3 135 134 42 
3 42 134 43 
3 135 42 139 
3 139 42 132 
3 138 139 130 
3 130 139 132 
3 131 38 37 
3 34 44 128 
3 128 44 129 
3 36 34 267 
3 267 34 128 
3 42 41 132 
3 132 41 131 
3 140 141 142 
3 142 141 143 
3 141 144 143 
3 145 146 147 
3 147 146 148 
3 149 150 151 
3 151 150 152 
3 150 153 152 
3 154 155 156 
3 156 155 157 
3 144 158 143 
3 143 158 159 
3 158 160 159 
3 161 162 163 
3 163 162 164 
3 165 149 166 
3 166 149 151 
3 159 160 154 
3 154 160 155 
3 157 165 156 
3 156 165 166 
3 147 148 167 
3 281 282 168 
3 147 167 142 
3 142 167 140 
3 153 169 152 
3 152 169 145 
3 169 146 145 
3 165 170 149 
3 149 170 171 
3 171 150 149 
3 172 283 173 
3 173 283 174 
3 283 284 174 
3 174 284 175 
3 285 176 175 
3 176 177 175 
3 175 177 174 
3 172 282 283 
3 140 167 178 
3 286 281 168 
3 178 141 140 
3 160 158 179 
3 287 288 180 
3 181 155 182 
3 182 155 160 
3 179 182 160 
3 183 289 290 
3 291 289 184 
3 184 289 183 
3 168 174 177 
3 173 174 168 
3 180 185 186 
3 187 185 180 
3 188 292 187 
3 187 292 293 
3 187 293 185 
3 185 293 291 
3 291 184 185 
3 185 184 186 
3 188 176 294 
3 294 176 285 
3 294 292 188 
3 295 296 297 
3 172 173 282 
3 282 173 168 
3 177 176 168 
3 168 176 286 
3 176 188 298 
3 298 188 299 
3 298 286 176 
3 184 287 186 
3 186 287 180 
3 188 187 299 
3 299 187 180 
3 288 299 180 
3 183 300 184 
3 300 301 184 
3 184 301 287 
3 189 161 190 
3 190 161 191 
3 192 193 163 
3 163 193 194 
3 195 162 189 
3 189 162 161 
3 196 192 164 
3 164 192 163 
3 195 197 162 
3 197 198 162 
3 162 198 164 
3 198 196 164 
3 199 190 200 
3 200 190 191 
3 201 202 193 
3 193 202 194 
3 161 163 191 
3 191 163 194 
3 203 194 202 
3 204 194 203 
3 205 206 191 
3 191 206 200 
3 196 198 166 
3 156 166 198 
3 151 192 166 
3 166 192 196 
3 151 152 192 
3 192 152 193 
3 152 145 193 
3 193 145 201 
3 145 147 201 
3 201 147 199 
3 142 190 147 
3 147 190 199 
3 143 189 142 
3 142 189 190 
3 143 159 189 
3 189 159 195 
3 195 159 197 
3 159 154 197 
3 154 156 197 
3 197 156 198 
3 191 207 205 
3 302 303 208 
3 191 194 207 
3 194 204 207 
3 303 304 208 
3 305 302 209 
3 209 302 208 
3 306 209 304 
3 304 209 208 
3 307 308 210 
3 308 309 210 
3 210 309 211 
3 307 210 310 
3 310 210 211 
3 305 209 309 
3 309 209 211 
3 306 310 209 
3 209 310 211 
3 183 290 300 
3 212 213 214 
3 214 213 215 
3 216 212 217 
3 217 212 214 
3 218 216 219 
3 219 216 217 
3 213 218 215 
3 215 218 219 
3 215 219 214 
3 214 219 217 
3 220 221 222 
3 222 221 223 
3 223 212 222 
3 222 212 216 
3 221 213 223 
3 223 213 212 
3 220 218 221 
3 221 218 213 
3 222 216 220 
3 220 216 218 
3 224 226 227 
3 228 225 224 
3 311 226 225 
3 312 227 226 
3 313 227 314 
3 315 316 317 
3 315 318 229 
3 317 319 320 
3 224 225 226 
3 228 321 225 
3 311 312 226 
3 312 314 227 
3 313 224 227 
3 315 229 316 
3 315 322 318 
3 317 316 319 
