ply
format ascii 1.0
comment INFO-3111 Flatenator generated
comment TextureFile Dungeons_Texture_01.png
element vertex 323
property float x
property float y
property float z
element face 448
property list uchar int vertex_indices
end_header
0.030972 0.189235 -0.044544 
0.024772 0.149961 -0.041588 
-0.030981 0.189235 -0.044544 
-0.024781 0.149961 -0.041588 
-0.048844 0.192993 -0.004897 
-0.045208 0.149961 -0.004897 
-0.030981 0.189235 0.03475 
-0.024781 0.149961 0.031795 
0.030972 0.189235 0.03475 
0.024772 0.149961 0.031795 
0.048844 0.192993 -0.004897 
0.045208 0.149961 -0.004897 
-0.027659 0.093807 -0.004897 
-0.01517 0.105211 0.017553 
-0.027664 0.145405 -0.004897 
-0.015177 0.145405 0.017553 
0.015161 0.145405 0.017553 
0.01517 0.105211 0.017553 
0.015161 0.145405 -0.027347 
0.015152 0.082413 -0.027347 
-0.015177 0.145405 -0.027347 
-0.01517 0.082412 -0.027347 
0.027664 0.145405 -0.004897 
0.027664 0.093807 -0.004897 
-0.026839 0.466785 0.026335 
-0.020311 0.494923 0.018736 
-0.026839 0.466785 -0.03613 
-0.023256 0.495482 -0.031976 
0 0.582419 -0.004897 
0.020701 0.493142 0.019215 
0.019176 0.519798 -0.027227 
0.022972 0.493483 -0.031646 
0.026821 0.466785 0.026335 
-0.026839 0.408031 -0.03613 
-0.039593 0.408031 -0.004971 
-0.016408 0.444911 -0.023981 
-0.016408 0.444911 -0.004897 
0.026821 0.390949 0.026335 
0.020098 0.431553 0.018507 
-0.003832 0.408031 0.026335 
0.016391 0.444911 -0.023981 
0.026821 0.408031 -0.03613 
0.0193 0.369713 -0.029592 
-0.0193 0.369712 -0.029592 
-0.030422 0.369713 -0.004897 
-0.016408 0.444911 0.014186 
0.016391 0.444911 0.014186 
0.026821 0.466785 -0.03613 
-0.033321 -0.133708 -0.004822 
-0.018266 -0.126774 0.022146 
-0.033321 -0.087492 -0.004822 
-0.018266 -0.080737 0.022146 
0.018257 -0.080727 0.022146 
0.018257 -0.126774 0.022146 
0.033321 -0.087492 -0.004833 
0.033321 -0.133708 -0.004833 
0.018257 -0.094295 -0.031939 
0.018257 -0.140671 -0.031939 
-0.018266 -0.094295 -0.031939 
-0.018266 -0.140671 -0.031939 
-0.022487 -0.782732 -0.023339 
-0.009887 -0.276508 -0.029702 
0.007453 -0.797212 -0.027003 
0.020339 -0.276508 -0.02722 
-0.013552 -0.265145 0.015066 
-0.024179 -0.270819 -0.008328 
-0.015342 -0.653303 0.011042 
-0.031251 -0.757571 -0.005498 
0.014602 -0.667785 0.007373 
0.016678 -0.265144 0.017538 
0.030971 -0.270819 -0.003826 
0.023368 -0.78399 -0.012194 
-0.027664 -0.0557 -0.004897 
-0.027664 -0.0826 -0.004897 
-0.01517 -0.064365 0.017553 
-0.01517 -0.075816 0.017553 
0.015161 -0.047034 -0.027347 
0.015161 -0.089374 -0.027347 
-0.01517 -0.047034 -0.027347 
-0.01517 -0.089374 -0.027347 
0.027664 -0.0557 -0.004897 
0.027664 -0.0826 -0.004897 
0.015161 -0.064365 0.017553 
0.015161 -0.075816 0.017553 
-0.033321 -0.007404 -0.004822 
-0.033321 -0.049612 -0.004822 
-0.018266 -0.016201 0.022146 
-0.018266 -0.058259 0.022145 
0.018257 0.00145 -0.031939 
0.018257 -0.040928 -0.031939 
-0.018266 0.00145 -0.031939 
-0.018266 -0.040928 -0.031939 
0.033321 -0.007395 -0.004833 
0.033321 -0.049612 -0.004833 
0.018257 -0.016201 0.022146 
0.018257 -0.058259 0.022146 
-0.027664 -0.000715 -0.004897 
-0.01517 -0.00954 0.017553 
-0.027664 0.031615 -0.004897 
-0.01517 0.043036 0.017553 
0.015161 0.020192 -0.027347 
0.015161 0.008111 -0.027347 
-0.01517 0.020192 -0.027347 
-0.01517 0.008111 -0.027347 
0.027664 0.031615 -0.004897 
0.027664 -0.000714 -0.004897 
0.015161 0.043046 0.017553 
0.015161 -0.00954 0.017553 
-0.033321 0.038276 -0.004822 
-0.018266 0.04967 0.022146 
-0.033314 0.086789 -0.004822 
-0.018266 0.098154 0.022146 
0.018257 0.075366 -0.031939 
0.018257 0.026816 -0.031939 
-0.018266 0.075366 -0.031939 
-0.018266 0.026816 -0.031939 
0.033321 0.086788 -0.004833 
0.033321 0.038267 -0.004833 
0.018257 0.098154 0.022146 
0.018257 0.04967 0.022146 
-0.027664 -0.14053 -0.004897 
-0.01517 -0.133586 0.017553 
0.015161 -0.133586 0.017553 
0.027664 -0.14053 -0.004897 
0.015161 -0.147483 -0.027347 
-0.01517 -0.147483 -0.027347 
-0.016905 0.52726 -0.007233 
-0.013872 0.53714 -0.021042 
-0.026839 0.408031 0.026335 
-0.0193 0.369712 0.019799 
0.0193 0.369713 0.019799 
0.039576 0.408031 -0.001022 
0.030422 0.369713 -0.004897 
-0.020967 0.513994 -0.029295 
-0.024027 0.192337 -0.035656 
0.024027 0.192337 -0.035656 
-0.037899 0.195874 -0.004897 
-0.024027 0.192337 0.025862 
0.024027 0.192337 0.025862 
0.03789 0.195874 -0.004897 
0.012382 0.377891 0.138005 
0.012382 0.336813 0.146199 
0.012382 0.358841 0.078809 
0.012382 0.312286 0.088091 
0.012391 0.310717 0.151402 
-0.012399 0.398849 0.049171 
-0.012399 0.435606 0.095251 
0.012382 0.398849 0.049171 
0.012382 0.435606 0.095251 
-0.012399 0.310717 0.151402 
-0.012399 0.350316 0.143506 
-0.012399 0.312286 0.088091 
-0.012399 0.358841 0.078809 
-0.012399 0.377891 0.138005 
0.012382 0.227803 0.043248 
0.012391 0.188827 0.086703 
-0.012399 0.227803 0.043248 
-0.012399 0.188827 0.086703 
0.012382 0.269639 0.140249 
0.012373 0.266274 0.075601 
0.012391 0.244327 0.133385 
0.012391 0.307946 -0.095119 
0.012391 0.242771 -0.080629 
-0.012399 0.307946 -0.095119 
-0.012408 0.242771 -0.080629 
-0.012408 0.244327 0.133385 
-0.012399 0.266274 0.075601 
0.012382 0.40855 0.115294 
0.005789 0.43951 0.158835 
-0.012399 0.407668 0.115948 
-0.008506 0.283668 0.164102 
-0.009694 0.31038 0.165184 
0 0.484639 0.108686 
0 0.462289 0.157794 
-0.005328 0.442162 0.159658 
-0.009189 0.3985 0.141255 
0 0.396933 0.197209 
0 0.437559 0.175293 
0.007521 0.385368 0.161269 
0.007619 0.235884 0.155624 
0.004914 0.264046 0.177155 
0.007681 0.19196 0.117794 
0.009978 0.224174 0.131246 
-9e-06 0.142042 0.080701 
-1.8e-05 0.178543 0.153951 
-0.004364 0.264851 0.18031 
-9e-06 0.246597 0.19773 
-9e-06 0.281041 0.207079 
-9e-06 0.30915 0.214711 
0.012391 0.307824 -0.053836 
0.012382 0.349224 -0.069046 
0.012382 0.329493 -0.152457 
-0.012399 0.307824 -0.053836 
-0.012399 0.349224 -0.069046 
-0.012399 0.329493 -0.152457 
0.012391 0.245173 -0.057179 
-0.012399 0.245173 -0.057179 
0.012391 0.232696 -0.038614 
-0.012399 0.232696 -0.038614 
0.012382 0.393335 -0.065934 
0.012382 0.394018 -0.129392 
-0.012399 0.393335 -0.065934 
-0.012399 0.394018 -0.129392 
-0.012399 0.352715 -0.185065 
-0.012391 0.33989 -0.239072 
0.012382 0.33989 -0.239072 
0.012382 0.352715 -0.185065 
-9e-06 0.316207 -0.204221 
-9e-06 0.342793 -0.30155 
0 0.366296 -0.20678 
0 0.416278 -0.084121 
0 0.416278 -0.144055 
-0.041722 0.371857 -0.004897 
-0.041722 0.291857 -0.004897 
-0.02189 0.358573 0.063437 
-0.02189 0.305141 0.063437 
0.041704 0.371857 -0.004897 
0.021872 0.358573 0.063437 
0.041713 0.291856 -0.004897 
0.021881 0.305141 0.063437 
0.021881 0.305141 -0.073231 
-0.02189 0.305141 -0.073231 
0.021872 0.358573 -0.073231 
-0.02189 0.358573 -0.073231 
-0.025413 -0.836935 -0.004952 
0.017533 -0.864865 -0.010214 
0.01064 -0.74202 0.005155 
-0.012905 -0.72671 0.008053 
-0.018524 -0.863534 -0.01898 
0.005017 -0.878842 -0.021859 
-0.026839 0.466785 -0.03613 
-0.020311 0.494923 0.018736 
0.020701 0.493142 0.019215 
-0.016408 0.444911 -0.023981 
-0.016408 0.444911 -0.004897 
0.016391 0.444911 -0.023981 
-0.01517 -0.075816 0.017553 
-0.027664 -0.0826 -0.004897 
0.015161 -0.075816 0.017553 
0.027664 -0.0826 -0.004897 
0.015161 -0.089374 -0.027347 
-0.01517 -0.089374 -0.027347 
-0.027664 -0.0557 -0.004897 
-0.01517 -0.064365 0.017553 
-0.027664 -0.000715 -0.004897 
-0.01517 -0.00954 0.017553 
0.015161 -0.047034 -0.027347 
-0.01517 -0.047034 -0.027347 
-0.01517 0.008111 -0.027347 
0.015161 0.008111 -0.027347 
0.027664 -0.000714 -0.004897 
0.027664 -0.0557 -0.004897 
0.015161 -0.064365 0.017553 
0.015161 -0.00954 0.017553 
-0.027664 0.031615 -0.004897 
-0.01517 0.043036 0.017553 
-0.01517 0.105211 0.017553 
-0.027659 0.093807 -0.004897 
0.015161 0.020192 -0.027347 
-0.01517 0.020192 -0.027347 
-0.01517 0.082412 -0.027347 
0.015152 0.082413 -0.027347 
0.027664 0.093807 -0.004897 
0.027664 0.031615 -0.004897 
0.015161 0.043046 0.017553 
0.01517 0.105211 0.017553 
0.022972 0.493483 -0.031646 
-0.016408 0.444911 0.014186 
0.016391 0.444911 0.014186 
0.015161 -0.133586 0.017553 
-0.01517 -0.133586 0.017553 
-0.027664 -0.14053 -0.004897 
-0.01517 -0.147483 -0.027347 
0.015161 -0.147483 -0.027347 
0.027664 -0.14053 -0.004897 
0.015161 0.145405 -0.027347 
-0.015177 0.145405 -0.027347 
-0.015177 0.145405 0.017553 
-0.027664 0.145405 -0.004897 
0.015161 0.145405 0.017553 
0.027664 0.145405 -0.004897 
0.012382 0.40855 0.115294 
0.012382 0.435606 0.095251 
-0.012399 0.435606 0.095251 
-0.012399 0.407668 0.115948 
-0.012399 0.377891 0.138005 
0.007521 0.385368 0.161269 
0.007619 0.235884 0.155624 
0.012382 0.269639 0.140249 
-0.012399 0.188827 0.086703 
0.012391 0.188827 0.086703 
-0.012408 0.244327 0.133385 
-0.009694 0.31038 0.165184 
-0.008506 0.283668 0.164102 
-0.012399 0.350316 0.143506 
-0.012399 0.377891 0.138005 
-0.009189 0.3985 0.141255 
-0.012399 0.407668 0.115948 
0.012382 0.336813 0.146199 
0.012391 0.310717 0.151402 
0.007681 0.19196 0.117794 
0.009978 0.224174 0.131246 
0.012382 0.33989 -0.239072 
-9e-06 0.316207 -0.204221 
-0.012391 0.33989 -0.239072 
0.012382 0.352715 -0.185065 
-0.012399 0.352715 -0.185065 
-0.012399 0.393335 -0.065934 
0.012382 0.393335 -0.065934 
0.012382 0.394018 -0.129392 
-0.012399 0.394018 -0.129392 
0.023368 -0.78399 -0.012194 
0.014602 -0.667785 0.007373 
-0.031251 -0.757571 -0.005498 
-0.015342 -0.653303 0.011042 
0.007453 -0.797212 -0.027003 
-0.018524 -0.863534 -0.01898 
-0.022487 -0.782732 -0.023339 
0.017533 -0.864865 -0.010214 
-0.025413 -0.836935 -0.004952 
-0.031251 -0.757571 -0.005498 
0.005017 -0.878842 -0.021859 
0.023368 -0.78399 -0.012194 
3 0 1 2
3 2 1 3
3 4 5 6
3 6 5 7
3 6 7 8
3 8 7 9
3 10 8 11
3 11 8 9
3 12 13 14
3 14 13 15
3 15 13 16
3 16 13 17
3 3 5 2
3 2 5 4
3 10 11 0
3 0 11 1
3 18 19 20
3 20 19 21
3 22 23 18
3 18 23 19
3 24 25 26
3 230 231 27
3 28 29 30
3 30 29 31
3 32 232 24
3 24 232 25
3 33 34 35
3 35 34 36
3 37 38 39
3 40 41 35
3 35 41 33
3 41 42 33
3 33 42 43
3 43 44 33
3 33 44 34
3 24 45 32
3 32 45 46
3 26 233 24
3 233 234 24
3 234 45 24
3 47 235 26
3 26 235 233
3 235 47 46
3 46 47 32
3 48 49 50
3 50 49 51
3 51 49 52
3 52 49 53
3 54 55 56
3 56 55 57
3 56 57 58
3 58 57 59
3 60 61 62
3 62 61 63
3 64 65 66
3 66 65 67
3 66 68 64
3 64 68 69
3 70 71 63
3 63 71 62
3 72 73 74
3 74 73 75
3 76 77 78
3 78 77 79
3 76 80 77
3 77 80 81
3 74 75 82
3 82 75 83
3 84 85 86
3 86 85 87
3 88 89 90
3 90 89 91
3 88 92 89
3 89 92 93
3 86 87 94
3 94 87 95
3 96 97 98
3 98 97 99
3 100 101 102
3 102 101 103
3 104 105 100
3 100 105 101
3 99 97 106
3 106 97 107
3 108 109 110
3 110 109 111
3 112 113 114
3 114 113 115
3 116 117 112
3 112 117 113
3 111 109 118
3 118 109 119
3 120 121 48
3 48 121 49
3 236 237 51
3 51 237 50
3 49 121 53
3 53 121 122
3 52 238 51
3 51 238 236
3 239 54 240
3 240 54 56
3 55 123 57
3 57 123 124
3 57 124 59
3 59 124 125
3 58 241 56
3 56 241 240
3 85 242 87
3 87 242 243
3 244 84 245
3 245 84 86
3 89 246 91
3 91 246 247
3 90 248 88
3 88 248 249
3 249 250 88
3 88 250 92
3 251 246 93
3 93 246 89
3 87 243 95
3 95 243 252
3 94 253 86
3 86 253 245
3 254 255 108
3 108 255 109
3 256 257 111
3 111 257 110
3 113 258 115
3 115 258 259
3 114 260 112
3 112 260 261
3 262 116 261
3 261 116 112
3 117 263 113
3 113 263 258
3 109 255 119
3 119 255 264
3 118 265 111
3 111 265 256
3 21 12 20
3 20 12 14
3 257 260 110
3 110 260 114
3 115 108 114
3 114 108 110
3 259 254 115
3 115 254 108
3 103 96 102
3 102 96 98
3 84 244 90
3 90 244 248
3 85 84 91
3 91 84 90
3 242 85 247
3 247 85 91
3 73 72 79
3 79 72 78
3 237 241 50
3 50 241 58
3 59 48 58
3 58 48 50
3 125 120 59
3 59 120 48
3 60 67 61
3 61 67 65
3 16 17 22
3 22 17 23
3 116 262 118
3 118 262 265
3 117 116 119
3 119 116 118
3 263 117 264
3 264 117 119
3 105 104 107
3 107 104 106
3 250 253 92
3 92 253 94
3 92 94 93
3 93 94 95
3 252 251 95
3 95 251 93
3 80 82 81
3 81 82 83
3 54 239 52
3 52 239 238
3 55 54 53
3 53 54 52
3 123 55 122
3 122 55 53
3 69 68 70
3 70 68 71
3 126 127 30
3 30 127 28
3 47 26 266
3 31 230 27
3 128 39 267
3 39 38 267
3 267 38 268
3 128 129 39
3 129 130 39
3 37 39 130
3 131 37 132
3 132 37 130
3 41 40 131
3 131 40 38
3 38 40 268
3 27 231 133
3 133 231 126
3 28 126 231
3 28 127 126
3 266 232 47
3 47 232 32
3 27 133 31
3 31 133 30
3 69 269 64
3 64 269 270
3 65 64 271
3 271 64 270
3 61 65 272
3 272 65 271
3 63 61 273
3 273 61 272
3 274 70 273
3 273 70 63
3 70 274 69
3 69 274 269
3 1 275 3
3 3 275 276
3 2 134 0
3 0 134 135
3 136 4 137
3 137 4 6
3 277 7 278
3 278 7 5
3 7 277 9
3 9 277 279
3 8 138 6
3 6 138 137
3 139 138 10
3 10 138 8
3 279 280 9
3 9 280 11
3 276 278 3
3 3 278 5
3 136 134 4
3 4 134 2
3 139 10 135
3 135 10 0
3 275 1 280
3 280 1 11
3 28 231 29
3 126 30 133
3 137 138 129
3 129 138 130
3 137 129 136
3 136 129 44
3 134 136 43
3 43 136 44
3 135 134 42
3 42 134 43
3 135 42 139
3 139 42 132
3 138 139 130
3 130 139 132
3 131 38 37
3 34 44 128
3 128 44 129
3 36 34 267
3 267 34 128
3 42 41 132
3 132 41 131
3 140 141 142
3 142 141 143
3 141 144 143
3 145 146 147
3 147 146 148
3 149 150 151
3 151 150 152
3 150 153 152
3 154 155 156
3 156 155 157
3 144 158 143
3 143 158 159
3 158 160 159
3 161 162 163
3 163 162 164
3 165 149 166
3 166 149 151
3 159 160 154
3 154 160 155
3 157 165 156
3 156 165 166
3 147 148 167
3 281 282 168
3 147 167 142
3 142 167 140
3 153 169 152
3 152 169 145
3 169 146 145
3 165 170 149
3 149 170 171
3 171 150 149
3 172 283 173
3 173 283 174
3 283 284 174
3 174 284 175
3 285 176 175
3 176 177 175
3 175 177 174
3 172 282 283
3 140 167 178
3 286 281 168
3 178 141 140
3 160 158 179
3 287 288 180
3 181 155 182
3 182 155 160
3 179 182 160
3 183 289 290
3 291 289 184
3 184 289 183
3 168 174 177
3 173 174 168
3 180 185 186
3 187 185 180
3 188 292 187
3 187 292 293
3 187 293 185
3 185 293 291
3 291 184 185
3 185 184 186
3 188 176 294
3 294 176 285
3 294 292 188
3 295 296 297
3 172 173 282
3 282 173 168
3 177 176 168
3 168 176 286
3 176 188 298
3 298 188 299
3 298 286 176
3 184 287 186
3 186 287 180
3 188 187 299
3 299 187 180
3 288 299 180
3 183 300 184
3 300 301 184
3 184 301 287
3 189 161 190
3 190 161 191
3 192 193 163
3 163 193 194
3 195 162 189
3 189 162 161
3 196 192 164
3 164 192 163
3 195 197 162
3 197 198 162
3 162 198 164
3 198 196 164
3 199 190 200
3 200 190 191
3 201 202 193
3 193 202 194
3 161 163 191
3 191 163 194
3 203 194 202
3 204 194 203
3 205 206 191
3 191 206 200
3 196 198 166
3 156 166 198
3 151 192 166
3 166 192 196
3 151 152 192
3 192 152 193
3 152 145 193
3 193 145 201
3 145 147 201
3 201 147 199
3 142 190 147
3 147 190 199
3 143 189 142
3 142 189 190
3 143 159 189
3 189 159 195
3 195 159 197
3 159 154 197
3 154 156 197
3 197 156 198
3 191 207 205
3 302 303 208
3 191 194 207
3 194 204 207
3 303 304 208
3 305 302 209
3 209 302 208
3 306 209 304
3 304 209 208
3 307 308 210
3 308 309 210
3 210 309 211
3 307 210 310
3 310 210 211
3 305 209 309
3 309 209 211
3 306 310 209
3 209 310 211
3 183 290 300
3 212 213 214
3 214 213 215
3 216 212 217
3 217 212 214
3 218 216 219
3 219 216 217
3 213 218 215
3 215 218 219
3 215 219 214
3 214 219 217
3 220 221 222
3 222 221 223
3 223 212 222
3 222 212 216
3 221 213 223
3 223 213 212
3 220 218 221
3 221 218 213
3 222 216 220
3 220 216 218
3 224 226 227
3 228 225 224
3 311 226 225
3 312 227 226
3 313 227 314
3 315 316 317
3 315 318 229
3 317 319 320
3 224 225 226
3 228 321 225
3 311 312 226
3 312 314 227
3 313 224 227
3 315 229 316
3 315 322 318
3 317 316 319
