ply
format ascii 1.0
comment INFO-3111 Flatenator generated
comment TextureFile Dungeons_Texture_01.png
element vertex 36
property float x
property float y
property float z
element face 36
property list uchar int vertex_indices
end_header
0.14946 -1.98148 5.41402 
0.121708 -1.62139 0.414017 
0.139294 -1.6214 5.41402 
-0.14946 -1.6214 5.41402 
-0.141911 -1.95692 0.414017 
-0.11552 -1.62139 1.7275 
0.113354 -1.62139 1.7275 
0.113354 -1.98148 1.7275 
0.124172 -1.98148 3.67889 
-0.126335 -1.6214 3.67889 
-0.126335 -1.98148 3.67889 
0.141514 -1.98148 0.414017 
-0.143677 -1.62139 0.414017 
-0.126335 -1.98148 2.21534 
-0.0583 -1.98148 1.7275 
-0.11552 -1.86407 1.7275 
0.129951 -1.6214 3.98957 
-0.143677 -1.98148 5.41402 
0.124172 -1.71391 3.59197 
0.061543 -1.6214 3.67889 
0.113354 -1.62139 1.7275 
-0.0583 -1.98148 1.7275 
-0.11552 -1.86407 1.7275 
-0.126335 -1.98148 2.21534 
0.124172 -1.71391 3.59197 
0.061543 -1.6214 3.67889 
-0.141911 -1.95692 0.414017 
0.129951 -1.6214 3.98957 
0.139294 -1.6214 5.41402 
-0.143677 -1.98148 5.41402 
0.121708 -1.62139 0.414017 
-0.141911 -1.95692 0.414017 
-0.143677 -1.62139 0.414017 
0.14946 -1.98148 5.41402 
-0.14946 -1.6214 5.41402 
0.141514 -1.98148 0.414017 
3 18 6 19
3 14 13 15
3 1 7 11
3 1 5 20
3 17 9 10
3 8 17 10
3 11 21 4
3 12 22 5
3 10 5 22
3 8 23 21
3 2 8 24
3 9 3 25
3 5 25 20
3 24 7 20
3 18 19 16
3 14 15 26
3 27 3 2
3 28 29 0
3 30 31 32
3 1 20 7
3 1 12 5
3 17 3 9
3 8 33 17
3 11 7 21
3 12 4 22
3 22 23 10
3 10 9 5
3 21 7 8
3 8 10 23
3 24 27 2
3 2 33 8
3 5 9 25
3 24 8 7
3 27 25 3
3 28 34 29
3 30 35 31
