ply
format ascii 1.0
comment VCGLIB generated
comment TextureFile Dungeons_Texture_01.png
element vertex 88
property float x
property float y
property float z
property float nx
property float ny
property float nz
property uchar red
property uchar green
property uchar blue
property uchar alpha
property float texture_u
property float texture_v
element face 100
property list uchar int vertex_indices
end_header
0.345909 0.461873 0.215561 0.1219101 0.9726763 0.197582 120 120 119 255 0.199346 0.303024
0.228695 0.460753 0.264652 0.0646567 0.5532206 0.8305218 120 120 119 255 0.199346 0.303024
0.394958 0.364545 0.265295 0.1661423 0.2934126 0.9414382 120 120 119 255 0.199346 0.303024
0.448261 0.40493 0.188805 0.4149204 0.6185204 0.6672883 97 95 95 255 0.199346 0.281689
0.504509 -0 0.265198 0.2675014 -0.5112945 0.8167135 120 120 119 255 0.199346 0.303024
0.503677 0.345412 0.222649 0.5370972 0.4996445 0.6796191 97 95 95 255 0.199346 0.281689
0.499607 0.208974 0.231153 0.4386277 0.09903172 0.8931957 97 95 95 255 0.199346 0.281689
-0.504692 0.461034 0.265432 -0.4201158 0.6947277 0.5838289 120 120 119 255 0.199346 0.303024
-0.244461 0.05061 0.265444 0.01461885 0.008368924 0.9998581 120 120 119 255 0.199346 0.303024
-0.0779 0.07073 0.257353 0.007980669 0.02828274 0.9995681 120 120 119 255 0.199346 0.303024
-0.236168 0.026948 0.247744 0.2789429 -0.8047457 0.5239994 97 95 95 255 0.199346 0.281689
-0.095589 -0 0.265278 0.001235528 -0.9810869 0.1935638 120 120 119 255 0.199346 0.303024
-0.284851 -0 0.265278 -0.002755846 -0.8951696 0.4457173 120 120 119 255 0.199346 0.303024
-0.504509 -0 0.265198 -0.8020918 -0.2694699 0.5329491 120 120 119 255 0.199346 0.303024
-0.172741 0.021305 0.220949 -0.2257225 -0.7598675 0.6096317 97 95 95 255 0.199346 0.281689
0.323318 -0 0.045776 0.03308906 -0.9994464 0.003466914 120 120 119 255 0.199346 0.303024
0.079819 0.462128 0.099546 -0.011433 0.9994875 -0.02990341 120 120 119 255 0.199346 0.303024
0.488537 0.427817 0.14612 0.5945876 0.5592622 0.5776603 97 95 95 255 0.199346 0.281689
0.50457 -0 0.06662 0.6945125 -0.7190298 -0.02546548 120 120 119 255 0.199346 0.303024
-0.267155 -0 0.04594 0.01510978 -0.9826843 0.184671 97 95 95 255 0.199346 0.281689
-0.118286 0.455147 0.109447 -0.001828079 0.9992407 -0.03891919 120 120 119 255 0.199346 0.303024
0.504696 0.461581 0.034565 0.6346804 0.7680386 0.08542596 120 120 119 255 0.199346 0.303024
-0.46526 0.462128 0.056335 -0.3854349 0.9204582 -0.06478152 120 120 119 255 0.199346 0.303024
-0.504692 0.334938 0.119226 -0.9957207 0.06997322 -0.06036605 120 120 119 255 0.199346 0.303024
-0.504692 0.281493 0.046791 -0.9999945 -0.003220084 -0.0008467322 120 120 119 255 0.199346 0.303024
0.188301 0.462128 0.078836 0.0006930966 0.9999992 0.001066233 120 120 119 255 0.199346 0.303024
0.105656 0.429335 -0.01491 -0.04911114 0.9981779 -0.03505796 97 95 95 255 0.199346 0.281689
0.441242 0.010719 -0.059372 -0.01559178 -0.9998538 0.007020538 120 120 119 255 0.199346 0.303024
-0.445545 0.41705 -0.037663 -0.692844 0.7011799 0.1682675 97 95 95 255 0.199346 0.281689
0.504311 0.248684 -0.165888 0.9999623 -0.006838768 0.005355756 120 120 119 255 0.199346 0.303024
-0.056023 0.431411 -0.030205 0.04732716 0.9898324 0.1341344 97 95 95 255 0.199346 0.281689
0.323318 0.462128 -0.165911 0.001726103 0.9999985 -0.0002339198 120 120 119 255 0.199346 0.303024
-0.307465 0.461364 -0.070392 0.006747411 0.9999717 0.003331537 120 120 119 255 0.199346 0.303024
-0.433632 0.001094 -0.227354 -0.005868095 -0.9999828 0.0001657896 120 120 119 255 0.199346 0.303024
-0.504654 0.461725 -0.081567 -0.1028417 0.6246641 0.774092 97 95 95 255 0.199346 0.281689
-0.014729 0.461141 -0.101444 0.02379871 0.9347632 0.3544735 97 95 95 255 0.199346 0.281689
0.504406 0 -0.260901 0.3261684 -0.9099194 -0.256244 120 120 119 255 0.199346 0.303024
-0.361786 0.000138 -0.261247 0.02280049 -0.8549145 -0.5182678 120 120 119 255 0.199346 0.303024
0.079819 0 -0.261378 -0.01410469 -0.7188075 -0.6950661 120 120 119 255 0.199346 0.303024
0.500999 0.002639 -0.133052 0.6547791 -0.755797 0.005947419 120 120 119 255 0.199346 0.303024
-0.502651 0.029894 -0.196483 -0.9999782 -0.006333913 -0.001839043 120 120 119 255 0.199346 0.303024
0.504696 0.461045 -0.26192 0.5797697 0.5785326 -0.5737311 120 120 119 255 0.199346 0.303024
0.142906 0.462128 -0.197412 -0.009275177 0.9998848 -0.01201965 120 120 119 255 0.199346 0.303024
-0.504692 0.461045 -0.26192 -0.213419 0.7177441 -0.6627939 120 120 119 255 0.199346 0.303024
0.061691 0.458258 -0.242401 0.004988588 0.9088249 -0.4171481 120 120 119 255 0.199346 0.303024
-0.158749 0.0073 -0.252502 0.005120299 -0.7480878 -0.6635801 120 120 119 255 0.199346 0.303024
0.504696 0.30327 -0.263703 0.714056 0.007911056 -0.7000439 120 120 119 255 0.199346 0.303024
0.456413 0.218142 -0.26543 0.9079437 -0.155495 -0.3891781 97 95 95 255 0.199346 0.281689
-0.504692 0.259944 -0.263703 -0.8323305 0.00219031 -0.5542755 120 120 119 255 0.199346 0.303024
0.048279 0.364423 -0.265446 0.1866834 0.4331851 -0.8817596 97 95 95 255 0.199346 0.281689
-0.433712 0.039896 -0.265446 -0.5244027 -0.5068243 -0.6842009 97 95 95 255 0.199346 0.281689
0.016731 0.112294 -0.265446 0.002877615 -0.04475974 -0.9989937 120 120 119 255 0.199346 0.303024
0.345909 0.461873 0.215561 0.4826958 0.5457953 0.6849176 97 95 95 255 0.199346 0.281689
0.394958 0.364545 0.265295 0.4553838 0.386749 0.8019045 97 95 95 255 0.199346 0.281689
0.504509 -0 0.265198 0.501713 0.1505453 0.8518334 97 95 95 255 0.199346 0.281689
-0.0779 0.07073 0.257353 -0.06021058 -0.4485844 0.89171 97 95 95 255 0.199346 0.281689
-0.244461 0.05061 0.265444 0.3107178 -0.4971156 0.8101423 97 95 95 255 0.199346 0.281689
-0.095589 -0 0.265278 -0.537274 -0.393768 0.7458441 97 95 95 255 0.199346 0.281689
-0.284851 -0 0.265278 0.5510578 -0.7036089 0.4486311 97 95 95 255 0.199346 0.281689
0.499607 0.208974 0.231153 0.9999689 0.002536127 0.007470516 120 120 119 255 0.199346 0.303024
0.488537 0.427817 0.14612 0.3637652 0.8756317 0.317717 120 120 119 255 0.199346 0.303024
0.188301 0.462128 0.078836 -0.1459368 0.9668452 -0.2095537 97 95 95 255 0.199346 0.281689
0.079819 0.462128 0.099546 -0.05133033 0.9569262 -0.285758 97 95 95 255 0.199346 0.281689
0.504696 0.461581 0.034565 0.886061 0.3922423 0.2470668 97 95 95 255 0.199346 0.281689
-0.118286 0.455147 0.109447 0.03819769 0.9822254 -0.1837773 97 95 95 255 0.199346 0.281689
-0.504692 0.334938 0.119226 -0.9452347 0.2197283 -0.2413521 97 95 95 255 0.199346 0.281689
-0.504692 0.281493 0.046791 -0.72699 0.5625257 0.3937645 97 95 95 255 0.199346 0.281689
0.503677 0.345412 0.222649 0.9998417 -0.01681618 0.005818002 120 120 119 255 0.199346 0.303024
-0.46526 0.462128 0.056335 -0.7351774 0.5381095 -0.4122528 97 95 95 255 0.199346 0.281689
-0.267155 -0 0.04594 -0.005552541 -0.9999844 0.0006590807 120 120 119 255 0.199346 0.303024
-0.307465 0.461364 -0.070392 -0.06725395 0.9836127 0.1672812 97 95 95 255 0.199346 0.281689
0.323318 0.462128 -0.165911 -0.09514759 0.992374 0.07836322 97 95 95 255 0.199346 0.281689
-0.502651 0.029894 -0.196483 -0.5886735 -0.6316634 -0.5044451 97 95 95 255 0.199346 0.281689
-0.433632 0.001094 -0.227354 -0.4413227 -0.763221 -0.4719407 97 95 95 255 0.199346 0.281689
-0.504509 -0 0.265198 -0.4073672 -0.9112487 -0.06064307 97 95 95 255 0.199346 0.281689
-0.014729 0.461141 -0.101444 -0.005813942 0.9999134 -0.0118108 120 120 119 255 0.199346 0.303024
-0.504654 0.461725 -0.081567 -0.8942089 0.4476471 -0.00159953 120 120 119 255 0.199346 0.303024
0.504696 0.30327 -0.263703 0.8421063 -0.4723465 -0.2602802 97 95 95 255 0.199346 0.281689
0.504311 0.248684 -0.165888 0.9079437 -0.155495 -0.3891781 97 95 95 255 0.199346 0.281689
0.142906 0.462128 -0.197412 0.1866834 0.4331851 -0.8817596 97 95 95 255 0.199346 0.281689
0.061691 0.458258 -0.242401 0.4740981 0.1454992 -0.8683669 97 95 95 255 0.199346 0.281689
0.504406 0 -0.260901 0.8636074 0.1802248 -0.4708516 97 95 95 255 0.199346 0.281689
-0.361786 0.000138 -0.261247 -0.3268104 -0.6624238 -0.6740842 97 95 95 255 0.199346 0.281689
0.048279 0.364423 -0.265446 0.008369362 0.06230645 -0.998022 120 120 119 255 0.199346 0.303024
0.504696 0.461045 -0.26192 -0.1316368 0.6491573 -0.7491772 97 95 95 255 0.199346 0.281689
0.456413 0.218142 -0.26543 0.005917561 -0.005523202 -0.9999673 120 120 119 255 0.199346 0.303024
-0.433712 0.039896 -0.265446 0.005953945 -0.03704402 -0.9992959 120 120 119 255 0.199346 0.303024
-0.504692 0.259944 -0.263703 -0.6755385 -0.2123127 -0.7060957 97 95 95 255 0.199346 0.281689
3 0 1 2 
3 3 52 53 
3 2 1 4 
3 3 53 5 
3 6 5 53 
3 7 8 9 
3 7 9 1 
3 6 53 54 
3 55 56 10 
3 1 9 4 
3 4 9 11 
3 12 8 13 
3 55 10 14 
3 55 14 57 
3 8 7 13 
3 10 56 58 
3 15 4 11 
3 16 7 1 
3 0 16 1 
3 17 52 3 
3 17 3 5 
3 59 4 18 
3 19 14 10 
3 15 18 4 
3 19 57 14 
3 58 19 10 
3 16 20 7 
3 0 60 21 
3 20 22 7 
3 7 23 13 
3 23 24 13 
3 0 25 16 
3 7 22 23 
3 61 26 62 
3 63 17 5 
3 27 18 15 
3 26 64 62 
3 65 28 66 
3 67 59 29 
3 29 59 18 
3 68 28 65 
3 26 30 64 
3 31 0 21 
3 32 22 20 
3 33 69 12 
3 30 70 64 
3 13 33 12 
3 71 26 61 
3 28 34 66 
3 35 30 26 
3 29 21 67 
3 70 28 68 
3 31 25 0 
3 15 36 27 
3 70 34 28 
3 69 37 11 
3 38 36 15 
3 39 18 27 
3 24 40 13 
3 29 18 39 
3 72 73 74 
3 33 37 69 
3 36 39 27 
3 35 70 30 
3 35 26 71 
3 21 29 41 
3 42 75 31 
3 75 43 32 
3 32 43 76 
3 41 31 21 
3 38 15 11 
3 44 75 42 
3 45 38 11 
3 41 29 46 
3 29 39 36 
3 37 45 11 
3 77 78 47 
3 24 48 40 
3 43 75 44 
3 79 49 80 
3 47 78 81 
3 50 82 73 
3 41 42 31 
3 76 43 48 
3 76 48 24 
3 43 44 83 
3 48 43 51 
3 43 83 51 
3 49 79 84 
3 83 41 85 
3 41 46 85 
3 48 51 86 
3 83 85 51 
3 86 51 37 
3 72 87 50 
3 51 45 37 
3 85 36 38 
3 51 38 45 
3 51 85 38 
3 72 50 73 
