ply
format ascii 1.0
comment VCGLIB generated
comment TextureFile Dungeons_Texture_01.png
element vertex 54
property float x
property float y
property float z
property float nx
property float ny
property float nz
property uchar red
property uchar green
property uchar blue
property uchar alpha
property float texture_u
property float texture_v
element face 104
property list uchar int vertex_indices
end_header
0 -0.201822 -0 0 -1 0 120 116 110 255 0.211923 0.303946
0.169054 -0.201822 0.085383 0.4357767 -0.8995104 0.0313006 120 116 110 255 0.211923 0.303946
0.161499 -0.201822 0.16221 0.2981953 -0.9198511 0.2548598 120 116 110 255 0.211923 0.303946
0.081148 -0.201822 0.166552 0.01651962 -0.9486856 0.315789 120 116 110 255 0.211923 0.303946
0.169319 -0.114131 0.201116 0.3061864 0.02656098 0.951601 120 116 110 255 0.211923 0.303946
0.163002 0.158822 0.201822 0.3213721 0.1059183 0.9410108 120 116 110 255 0.211923 0.303946
0 0.163704 0.201822 0.004960265 0.3379755 0.9411418 120 116 110 255 0.211923 0.303946
0 -0 0.201822 0.001544297 0.0002291046 0.9999988 120 116 110 255 0.211923 0.303946
-0.201822 0.162214 0.161912 -0.9505728 0.2005453 0.2370505 120 116 110 255 0.211923 0.303946
-0.201822 0.159368 -0.11571 -0.9604424 0.2757179 0.03911546 120 116 110 255 0.211923 0.303946
-0.201822 0 0 -1 0 0 120 116 110 255 0.211923 0.303946
-0.201822 0.092739 0.180955 -0.9096531 0.03989244 0.4134487 120 116 110 255 0.211923 0.303946
0.201818 0 0 1 0 0 120 116 110 255 0.211923 0.303946
0.201818 0.180956 0 0.923876 0.3821784 0.01981674 120 116 110 255 0.211923 0.303946
0.201818 0.154493 0.169432 0.9218005 0.2371978 0.3066286 120 116 110 255 0.211923 0.303946
0.201818 -0 0.180955 0.8834749 0.01254203 0.4683105 120 116 110 255 0.211923 0.303946
0.180956 0.201822 0.180955 0.329551 0.7875555 0.520723 120 116 110 255 0.211923 0.303946
0.180956 0.201822 0 0.4348905 0.9002493 0.02052999 120 116 110 255 0.211923 0.303946
0 0.201822 0 0 1 0 120 116 110 255 0.211923 0.303946
-0.058468 0.201822 0.161552 0.02269159 0.9284786 0.370692 120 116 110 255 0.211923 0.303946
0.180956 0.180956 -0.201821 0.2417403 0.4843993 -0.8407847 120 116 110 255 0.211923 0.303946
0.170975 0.116557 -0.201821 0.3948703 -0.04301294 -0.9177294 120 116 110 255 0.211923 0.303946
0 0 -0.201821 0 0 -1 120 116 110 255 0.211923 0.303946
0.000563 0.166088 -0.201821 0.008887387 0.419026 -0.9079307 120 116 110 255 0.211923 0.303946
-0.180956 -0.201822 0.180955 -0.4624054 -0.8552321 0.2340072 120 116 110 255 0.211923 0.303946
-0.201822 -0.180956 0.180955 -0.8683277 -0.3714031 0.328735 120 116 110 255 0.211923 0.303946
-0.201822 -0.161853 0.094913 -0.9484025 -0.3149368 -0.03670833 120 116 110 255 0.211923 0.303946
-0.164732 -0.201822 0.089715 -0.3946084 -0.918819 -0.00747072 120 116 110 255 0.211923 0.303946
0.096874 -0.168759 0.201822 -0.008619241 -0.4293422 0.9031008 120 116 110 255 0.211923 0.303946
0.180956 -0.180956 0.201822 0.2865462 -0.5139619 0.8085384 120 116 110 255 0.211923 0.303946
-0.171751 0.116174 0.201822 -0.3831762 0.01745934 0.9235103 120 116 110 255 0.211923 0.303946
-0.180956 0.180956 0.201822 -0.4012006 0.4298408 0.8088726 120 116 110 255 0.211923 0.303946
0.201818 -0.180956 0.180955 0.803974 -0.4133587 0.4275049 120 116 110 255 0.211923 0.303946
0.201818 -0.154328 0.087344 0.9353666 -0.3532613 -0.01719995 120 116 110 255 0.211923 0.303946
-0.180956 0.201822 0.180955 -0.5269948 0.7862344 0.3226638 120 116 110 255 0.211923 0.303946
-0.180956 0.201822 -0.080774 -0.5241592 0.8516199 -0.0008910406 120 116 110 255 0.211923 0.303946
-0.201822 0.180956 -0.180955 -0.8830241 0.2876503 -0.3708447 120 116 110 255 0.211923 0.303946
-0.180956 0.180956 -0.201821 -0.2808591 0.2938274 -0.913665 120 116 110 255 0.211923 0.303946
-0.180956 -0.072939 -0.201821 -0.4476567 -0.004526741 -0.8941941 120 116 110 255 0.211923 0.303946
-0.201822 -0.100223 -0.168447 -0.9633496 0.01276969 -0.2679451 120 116 110 255 0.211923 0.303946
0.0993 0.201822 -0.156612 -0.03856965 0.939285 -0.3409635 120 116 110 255 0.211923 0.303946
0.180956 0.201822 -0.180955 0.4166381 0.8594763 -0.2961641 120 116 110 255 0.211923 0.303946
0.201818 0.180956 -0.180955 0.8505425 0.2497679 -0.4628104 120 116 110 255 0.211923 0.303946
0.201818 0.007032 -0.157717 0.9136387 -0.003833421 -0.4065091 120 116 110 255 0.211923 0.303946
0 -0.201822 -0.180955 0.003711543 -0.7825568 -0.6225682 120 116 110 255 0.211923 0.303946
-0.028217 -0.163123 -0.201821 0.01719226 -0.2879267 -0.9574981 120 116 110 255 0.211923 0.303946
0.159979 -0.156681 -0.201821 0.2432721 -0.1693056 -0.9550677 120 116 110 255 0.211923 0.303946
0.180956 -0.201822 -0.180955 0.2499347 -0.8576362 -0.4494361 120 116 110 255 0.211923 0.303946
-0.180956 -0.180956 0.201822 -0.2936499 -0.3279791 0.8978861 120 116 110 255 0.211923 0.303946
-0.180956 0.201822 -0.180955 -0.3530877 0.8853096 -0.3025823 120 116 110 255 0.211923 0.303946
-0.180956 -0.201822 -0.180955 -0.2362918 -0.8777038 -0.4168959 120 116 110 255 0.211923 0.303946
-0.201822 -0.180956 -0.180955 -0.8598351 -0.4298597 -0.2755073 120 116 110 255 0.211923 0.303946
-0.180956 -0.180956 -0.201821 -0.4833252 -0.2771496 -0.8304125 120 116 110 255 0.211923 0.303946
0.201818 -0.180956 -0.180955 0.8880746 -0.3002436 -0.3481052 120 116 110 255 0.211923 0.303946
3 1 3 0 
3 5 7 4 
3 8 10 11 
3 12 14 15 
3 16 18 19 
3 21 23 20 
3 24 26 27 
3 28 2 29 
3 30 8 11 
3 2 33 32 
3 15 5 4 
3 8 35 9 
3 6 16 19 
3 14 17 16 
3 36 38 39 
3 40 20 23 
3 42 21 20 
3 44 46 47 
3 25 24 48 
3 2 32 29 
3 34 8 31 
3 14 16 5 
3 37 36 49 
3 42 20 41 
3 50 51 52 
3 53 47 46 
3 19 35 34 
3 31 19 34 
3 6 30 7 
3 48 3 28 
3 27 3 24 
3 50 45 44 
3 22 37 23 
3 49 23 37 
3 17 40 18 
3 18 49 35 
3 9 49 36 
3 9 39 10 
3 27 51 50 
3 50 0 27 
3 47 0 44 
3 1 53 33 
3 43 13 12 
3 13 41 17 
3 33 15 32 
3 53 12 33 
3 43 46 21 
3 22 46 45 
3 38 45 52 
3 39 52 51 
3 26 39 51 
3 11 26 25 
3 48 11 25 
3 7 48 28 
3 4 28 29 
3 32 4 29 
3 1 2 3 
3 5 6 7 
3 8 9 10 
3 12 13 14 
3 16 17 18 
3 21 22 23 
3 24 25 26 
3 28 3 2 
3 30 31 8 
3 2 1 33 
3 15 14 5 
3 8 34 35 
3 6 5 16 
3 14 13 17 
3 36 37 38 
3 40 41 20 
3 42 43 21 
3 44 45 46 
3 19 18 35 
3 31 6 19 
3 6 31 30 
3 48 24 3 
3 27 0 3 
3 50 52 45 
3 22 38 37 
3 49 40 23 
3 17 41 40 
3 18 40 49 
3 9 35 49 
3 9 36 39 
3 27 26 51 
3 50 44 0 
3 47 1 0 
3 1 47 53 
3 43 42 13 
3 13 42 41 
3 33 12 15 
3 53 43 12 
3 43 53 46 
3 22 21 46 
3 38 22 45 
3 39 38 52 
3 26 10 39 
3 11 10 26 
3 48 30 11 
3 7 30 48 
3 4 7 28 
3 32 15 4 
