ply
format ascii 1.0
comment INFO-3111 Flatenator generated
comment TextureFile Dungeons_Texture_01.png
element vertex 502
property float x
property float y
property float z
element face 698
property list uchar int vertex_indices
end_header
0.779341 0.028284 4.98105 
0.21385 0.042119 4.99557 
0.311411 -1e-06 5 
2.77194 0.028529 4.97794 
2.51841 0.042659 4.99806 
2.45986 -1e-06 5 
3.22249 0.027959 4.97955 
3.00669 -1e-06 5 
3.86607 -1e-06 5 
3.78795 0.037564 4.98905 
0.87779 -1e-06 5 
1.13196 0.032279 4.97526 
1.54177 -1e-06 5 
2.1861 0.033809 4.97718 
4.25669 -1e-06 5 
4.179 0.023394 4.98609 
0 -1e-06 5 
1.9132 0.035394 4.98314 
1.93248 -1e-06 5 
4.83815 0.053589 4.9127 
5 -1e-06 5 
0.098869 0.086999 4.8794 
1.56523 0.053919 4.905 
1.93248 -0.000801 4.84264 
2.54895 0.057814 4.89589 
4.09953 0.043594 4.91678 
4.28489 0.053919 4.91332 
0.04785 0.092659 4.7092 
0 -1e-06 4.68639 
3.41685 -0.000801 4.64732 
0.89415 0.062729 4.89945 
2.36333 0.044539 4.91751 
4.90811 0.054394 4.87036 
0.291851 -0.000801 3.55357 
2.40123 -0.0008 0.428579 
3.26411 0.098369 4.84993 
3.38247 0.053934 4.90495 
3.66017 0.097509 4.84936 
4.7765 0.100614 4.84746 
4.26234 0.093294 4.87258 
0.67783 0.086199 4.88045 
0.7015 0.038939 4.91388 
1.44671 0.097219 4.89387 
0.84967 0.094994 4.895 
1.7465 0.100614 4.85278 
2.9385 0.089449 4.8855 
2.63851 0.098939 4.84897 
2.15466 0.087484 4.86654 
4.05892 0.078874 4.87835 
0.488211 0.100614 4.83765 
0.87472 0.097634 4.64122 
2.11047 0.100614 4.71856 
4.88637 0.089649 4.52767 
4.12669 0.037499 4.62748 
1.15648 0.099444 4.42175 
0.79883 0.030484 4.50869 
2.34335 0.091414 4.59834 
4.07896 0.099469 4.75471 
2.54234 0.100614 4.36551 
0.686081 0.091499 4.68904 
4.18077 0.044559 4.19834 
2.36213 0.044679 4.68378 
4.83987 0.098989 4.44191 
2.16864 0.100614 4.26698 
0.50963 0.100614 4.22011 
4.99794 0.042504 4.13948 
4.2523 0.099714 4.54728 
0.689671 0.094934 4.23033 
2.54111 0.044579 4.20317 
0.041981 0.090384 4.23398 
2.35857 0.099979 4.26624 
0.87615 0.080299 4.41445 
4.48217 0.100219 4.229 
4.89902 0.096434 4.23448 
4.03539 0.053789 4.17069 
2.36258 0.044274 4.20027 
4.91912 0.043014 4.21831 
4.25715 0.094599 4.31272 
0.700899 0.040644 4.21756 
0.895536 0.044424 4.1583 
0.869307 0.086149 4.25349 
4.99782 3.9e-05 3.92467 
2.95122 0.097639 4.2254 
0.03937 0.044734 4.21753 
1.33773 0.085714 4.23516 
2.61578 0.089734 4.24202 
4.07243 0.093954 4.21098 
0.008841 0.040309 4.04066 
1.69974 0.044799 4.21764 
3.38215 0.042659 4.15024 
1.06185 0.043984 4.20826 
2.91149 0.044499 4.21725 
0.722891 0.044539 4.09885 
1.84545 0.054209 4.02001 
4.90098 0.047944 4.08877 
2.46333 0.054189 3.97156 
3.93344 0.044759 3.96945 
1.0068 0.053819 3.95164 
3.31043 0.035799 4.02268 
4.15482 0.045174 4.05821 
2.04884 0.096404 3.92019 
1.03407 0.099954 3.92433 
2.69682 0.096324 3.92241 
2.57406 0.099729 3.8591 
0.717051 0.099784 4.088 
0.18432 0.100614 4.08911 
2.39753 0.100314 3.87966 
4.77417 0.100554 4.08911 
4.22529 0.100409 4.08822 
2.95462 0.080244 3.92028 
0.05587 0.078069 4.06807 
3.8906 0.099864 3.92412 
3.27795 0.090714 3.91326 
3.26528 0.100614 3.70309 
4.84645 0.094534 3.93408 
3.93589 0.045034 3.55903 
0 -1e-06 3.80748 
0.602299 0.100614 3.54383 
1.14759 0.100579 3.72174 
1.03319 0.099884 3.1003 
0.05792 0.092774 3.92044 
2.46428 0.100615 2.96437 
4.22046 0.054234 3.2952 
0.743372 0.044804 3.62005 
0.71472 0.099389 3.64546 
2.29463 0.096849 3.45694 
3.69511 0.100614 3.40073 
4.93417 0.041784 3.78848 
0.05987 0.075139 3.71979 
4.22602 0.099704 3.34398 
3.86242 0.099824 3.52945 
2.43711 0.095374 3.38651 
1.15123 -0.0008 0.741079 
4.86961 0.086549 3.65662 
0.869169 0.054229 3.54117 
4.99782 3.9e-05 3.37779 
4.98931 0.037864 3.61193 
4.59988 0.095364 3.5119 
3.97562 0.086944 3.40076 
0.10634 0.100614 3.48917 
0.005171 0.041549 3.2804 
0.596661 0.100614 3.34393 
0.72135 0.044279 3.35637 
0 0 2.67467 
0.053431 0.090625 2.91222 
0.783791 0.025739 3.43805 
2.17203 0.097899 3.10014 
4.83408 0.100614 3.22507 
4.03041 0.045024 3.11114 
4.92005 0.045209 3.23863 
3.8916 0.09981 2.84133 
2.27935 0.090419 3.08721 
4.1868 0.045265 3.05995 
0.72113 0.09405 2.55089 
4.26161 0.084064 3.11598 
0.873104 0.05423 2.84324 
4.9937 0.04011 2.65525 
4.36507 0.100604 3.12881 
4.91947 0.042745 2.53878 
0.18462 0.10058 2.55198 
4.0112 0.045025 2.66855 
2.19107 0.08973 2.85556 
2.04893 0.09665 2.75168 
4.21844 0.04476 2.53788 
0.01231 0.038885 2.58028 
1.1888 0.100615 2.2934 
4.88103 0.087355 2.56684 
0.088381 0.095015 2.55698 
4.22549 0.10038 2.55265 
0.721251 0.044125 2.53794 
0.982815 0.05103 2.31055 
2.07748 0.082195 2.56689 
1.03388 0.099845 2.40481 
1.70034 0.10058 2.22608 
3.89148 0.099845 2.09091 
0.05859 0.043985 2.53841 
4.99782 4e-05 2.04967 
2.10312 0.100615 2.31598 
4.19911 0.04518 2.42051 
0.705061 0.044735 2.4392 
3.92804 0.045025 1.92579 
2.50438 0.100615 2.2054 
4.81779 0.05906 2.41492 
0.01367 0.038935 2.37905 
0 0 2.08873 
4.87493 0.079215 2.36705 
4.79037 0.09013 2.40314 
0.717569 0.100405 2.41698 
0.205841 0.100615 2.4176 
4.22554 0.100405 2.41698 
4.60359 0.100615 2.41776 
4.22618 0.09983 2.03477 
0.050501 0.09227 1.96156 
0.717279 0.10035 2.05743 
4.92007 0.0452 2.24235 
4.99829 0.034995 2.18639 
2.03625 0.090785 2.07023 
1.0331 0.099825 2.19263 
4.53901 0.092615 2.10514 
1.22218 0.09306 2.1772 
1.73377 0.08801 2.15355 
-0.000639 0.02555 1.61998 
2.94266 0.09653 2.10297 
4.10782 0.03445 1.91468 
0.72154 0.04477 1.63758 
4.88796 0.087705 1.91339 
3.88815 0.095735 1.94555 
2.78637 0.099335 2.01343 
1.86992 0.09952 1.97997 
4.27375 0.079755 1.90972 
0.054781 0.091805 1.5886 
2.28205 0.099755 1.91048 
4.81347 0.10022 1.28677 
4.92006 0.0452 1.71662 
4.28805 0.0984 1.7216 
1.03429 0.099225 1.68772 
2.29468 0.095825 1.70045 
0 0 1.60045 
4.99298 0.039845 1.65904 
3.09898 0.100615 1.26054 
4.88534 0.091425 1.57554 
0.163691 0.10032 0.880178 
1.80314 0.100615 1.11856 
4.22059 0.054165 1.60434 
3.59048 0.100615 1.10361 
0.96422 0.05427 1.1853 
4.22111 0.09403 0.879532 
2.32813 0.100615 1.45421 
4.1794 0.043925 0.9126 
4.99782 4e-05 1.22936 
0.05409 0.093935 1.29935 
2.71042 0.100615 1.33119 
3.89236 0.093965 1.06272 
1.04193 0.09526 1.45421 
4.3687 0.100605 0.879839 
0.765627 0.04474 0.919252 
4.98023 0.036045 1.05362 
4.86596 0.09574 1.16663 
0.037121 0.0544 1.16639 
4.92042 0.04404 0.87838 
2.53997 0.0895 1.36435 
4.99782 4e-05 0.799669 
2.94384 0.09179 1.0731 
0.98834 0.043965 1.02366 
3.92624 0.044735 1.03234 
2.17203 0.09992 1.06428 
0.09231 0.09077 0.888309 
1.04546 0.091425 1.11086 
2.45098 0.09409 1.07011 
2.63756 0.0849 1.094 
3.26663 0.09238 1.07351 
4.8968 0.093855 0.887629 
0 0 0.74087 
1.21024 0.078595 1.09186 
1.48035 0.09121 1.08086 
1.85083 0.09271 1.05939 
0.03367 0.03679 0.88216 
4.99455 0.04044 0.72138 
2.77444 0.044935 0.993692 
1.47733 0.04417 1.03261 
2.11698 0.044415 1.01959 
2.33384 0.04479 0.996645 
3.48803 0.044935 0.967497 
4.57101 0.04476 0.877739 
1.06337 0.029945 0.866026 
1.49598 0.03226 0.921122 
1.73664 0.032805 0.799559 
2.9473 0.040985 0.826876 
0.054979 0.049045 0.72913 
0.688202 0.04481 0.762495 
4.17211 0.038215 0.748386 
2.06527 0.052885 0.763624 
2.36106 0.064775 0.746786 
2.51926 0.045135 0.73975 
3.5989 0.054165 0.73354 
4.04995 0.04796 0.765087 
0.816141 0.04494 0.736082 
4.8498 0.04887 0.730968 
1.0235 0.053345 0.7328 
1.71068 0.095965 0.725019 
0.92104 0.090245 0.716139 
3.79347 0.1 0.73037 
3.34728 0.1 0.73028 
0.158571 0.09945 0.642698 
0.05798 0.0825 0.702599 
4.07198 0.086555 0.72526 
4.77641 0.100615 0.730799 
4.34192 0.093155 0.72097 
0.625578 0.100615 0.685905 
1.03779 0.09847 0.631479 
4.86978 0.076375 0.6395 
2.35899 0.100605 0.41408 
2.54219 0.100605 0.344889 
0.83873 -0.0008 0.584829 
4.25231 0.088215 0.611889 
2.36284 0.044005 0.057709 
0.83423 0.09307 0.496859 
1.49424 0.100615 0.20315 
4.20806 0.05374 0.3267 
4.21083 0.100615 0.326149 
1.84274 0.09976 0.12739 
4.0658 0.086985 0.4774 
1.05357 -0.0008 0.565289 
1.0731 -0.0008 0.545759 
2.14732 -0.0008 0.272329 
0.653017 0.10061 0.175455 
2.54236 0.049925 0.053959 
1.05357 -0.0008 0.545759 
5 0 0 
0.04435 0.08595 0.156569 
4.98354 0.035745 0.290619 
1.15123 -0.0008 0.428579 
4.75332 0.09683 0.095129 
4.87404 0.08303 0.12101 
2.34315 0.08921 0.06321 
0.80154 0.041725 0.058449 
2.55219 0.094255 0.053999 
0.83041 0.095295 0.052759 
4.06776 0.08964 0.06555 
0 0 0 
4.86668 0.072135 0.06781 
4.09983 0.04254 0.057949 
2.75726 0.100605 0.180809 
4.21474 0.097595 0.156879 
0.70101 0.042905 0.041309 
0.084961 0.088255 0.06481 
3.23797 0.09759 0.109369 
3.76758 0.080615 0.053598 
2.30357 -0.0008 0.194199 
2.3231 -0.0008 0.174669 
2.30357 -0.0008 0.174669 
2.40123 0 0 
1.5296 0.089965 0.064119 
2.87767 0.09329 0.05315 
1.27675 0.083245 0.05876 
0.062111 0.044125 0.04048 
0.68791 0.093175 0.057249 
1.0731 0 0 
2.07267 0.093345 0.061899 
3.38293 0.073745 0.04941 
2.50263 0.034735 0.01215 
3.69035 0.041635 0.031149 
4.29939 0.06247 0.052809 
1.19052 0.037585 0.02186 
3.32152 0.0451 0.038309 
1.58198 0.045075 0.03829 
4.839 0.037355 0.015909 
0.604351 0 0 
3.74888 0 0 
2.96761 0.04099 0.007309 
4.27634 0.042405 0.000139 
1.44671 0.097219 4.89387 
0.84967 0.094994 4.895 
1.7465 0.100614 4.85278 
2.15466 0.087484 4.86654 
2.34335 0.091414 4.59834 
2.63851 0.098939 4.84897 
3.26411 0.098369 4.84993 
2.54234 0.100614 4.36551 
4.26234 0.093294 4.87258 
4.7765 0.100614 4.84746 
4.83987 0.098989 4.44191 
0.04785 0.092659 4.7092 
0.488211 0.100614 4.83765 
0.87472 0.097634 4.64122 
4.2523 0.099714 4.54728 
0.87615 0.080299 4.41445 
2.35857 0.099979 4.26624 
0.041981 0.090384 4.23398 
0.689671 0.094934 4.23033 
0.686081 0.091499 4.68904 
4.25715 0.094599 4.31272 
0.869307 0.086149 4.25349 
2.95122 0.097639 4.2254 
4.07896 0.099469 4.75471 
4.89902 0.096434 4.23448 
4.07243 0.093954 4.21098 
2.16864 0.100614 4.26698 
0.50963 0.100614 4.22011 
1.33773 0.085714 4.23516 
4.48217 0.100219 4.229 
3.27795 0.090714 3.91326 
3.8906 0.099864 3.92412 
0.717051 0.099784 4.088 
0.18432 0.100614 4.08911 
2.04884 0.096404 3.92019 
1.03407 0.099954 3.92433 
2.69682 0.096324 3.92241 
2.95462 0.080244 3.92028 
0.71472 0.099389 3.64546 
1.03319 0.099884 3.1003 
2.39753 0.100314 3.87966 
0.05792 0.092774 3.92044 
3.86242 0.099824 3.52945 
3.41685 -0.000801 4.64732 
4.99782 3.9e-05 3.92467 
2.57406 0.099729 3.8591 
4.84645 0.094534 3.93408 
4.22529 0.100409 4.08822 
4.86961 0.086549 3.65662 
0.10634 0.100614 3.48917 
3.69511 0.100614 3.40073 
4.22602 0.099704 3.34398 
4.99782 3.9e-05 3.37779 
0.602299 0.100614 3.54383 
0.596661 0.100614 3.34393 
0.602299 0.100614 3.54383 
0.72135 0.044279 3.35637 
3.97562 0.086944 3.40076 
3.8916 0.09981 2.84133 
3.69511 0.100614 3.40073 
2.27935 0.090419 3.08721 
2.17203 0.097899 3.10014 
2.29463 0.096849 3.45694 
4.83408 0.100614 3.22507 
4.26161 0.084064 3.11598 
3.8916 0.09981 2.84133 
0.72113 0.09405 2.55089 
0.18462 0.10058 2.55198 
2.19107 0.08973 2.85556 
2.04893 0.09665 2.75168 
4.88103 0.087355 2.56684 
4.22549 0.10038 2.55265 
0.72113 0.09405 2.55089 
1.03388 0.099845 2.40481 
2.10312 0.100615 2.31598 
1.70034 0.10058 2.22608 
0.717569 0.100405 2.41698 
0.205841 0.100615 2.4176 
0.717279 0.10035 2.05743 
3.89148 0.099845 2.09091 
1.0331 0.099825 2.19263 
4.60359 0.100615 2.41776 
4.22618 0.09983 2.03477 
4.22554 0.100405 2.41698 
4.79037 0.09013 2.40314 
2.03625 0.090785 2.07023 
1.22218 0.09306 2.1772 
4.53901 0.092615 2.10514 
3.88815 0.095735 1.94555 
4.81347 0.10022 1.28677 
4.28805 0.0984 1.7216 
2.29468 0.095825 1.70045 
2.28205 0.099755 1.91048 
0.054781 0.091805 1.5886 
1.03429 0.099225 1.68772 
1.86992 0.09952 1.97997 
2.32813 0.100615 1.45421 
0.163691 0.10032 0.880178 
4.3687 0.100605 0.879839 
3.89236 0.093965 1.06272 
1.04193 0.09526 1.45421 
2.29468 0.095825 1.70045 
2.71042 0.100615 1.33119 
2.32813 0.100615 1.45421 
2.53997 0.0895 1.36435 
2.94384 0.09179 1.0731 
1.04546 0.091425 1.11086 
2.63756 0.0849 1.094 
2.17203 0.09992 1.06428 
1.80314 0.100615 1.11856 
4.8968 0.093855 0.887629 
1.48035 0.09121 1.08086 
0.765627 0.04474 0.919252 
2.63756 0.0849 1.094 
2.94384 0.09179 1.0731 
1.21024 0.078595 1.09186 
2.45098 0.09409 1.07011 
3.26663 0.09238 1.07351 
3.59048 0.100615 1.10361 
1.71068 0.095965 0.725019 
2.36106 0.064775 0.746786 
2.51926 0.045135 0.73975 
3.34728 0.1 0.73028 
3.79347 0.1 0.73037 
4.77641 0.100615 0.730799 
4.25231 0.088215 0.611889 
4.34192 0.093155 0.72097 
1.03779 0.09847 0.631479 
4.07198 0.086555 0.72526 
0.158571 0.09945 0.642698 
0.625578 0.100615 0.685905 
2.54219 0.100605 0.344889 
0.653017 0.10061 0.175455 
4.21083 0.100615 0.326149 
4.0658 0.086985 0.4774 
4.86978 0.076375 0.6395 
2.35899 0.100605 0.41408 
4.87404 0.08303 0.12101 
0.83423 0.09307 0.496859 
0.04435 0.08595 0.156569 
0.83041 0.095295 0.052759 
4.06776 0.08964 0.06555 
2.34315 0.08921 0.06321 
2.55219 0.094255 0.053999 
4.21474 0.097595 0.156879 
1.84274 0.09976 0.12739 
1.49424 0.100615 0.20315 
2.75726 0.100605 0.180809 
3.76758 0.080615 0.053598 
3.23797 0.09759 0.109369 
4.75332 0.09683 0.095129 
3 0 1 2
3 3 4 5
3 6 3 7
3 6 8 9
3 0 2 10
3 11 0 10
3 11 10 12
3 13 5 4
3 3 5 7
3 6 7 8
3 9 14 15
3 1 16 2
3 17 12 18
3 13 17 18
3 5 13 18
3 9 8 14
3 19 14 20
3 21 16 1
3 22 12 17
3 19 15 14
3 10 23 12
3 23 18 12
3 23 5 18
3 23 7 5
3 24 3 6
3 25 9 15
3 19 26 15
3 16 27 28
3 29 8 7
3 21 27 16
3 30 0 11
3 22 11 12
3 4 31 13
3 20 32 19
3 2 33 10
3 23 34 7
3 29 14 8
3 20 14 29
3 35 36 37
3 38 39 26
3 39 15 26
3 38 26 19
3 38 19 32
3 40 21 41
3 42 43 30
3 44 42 22
3 45 46 24
3 35 45 36
3 47 44 22
3 45 24 36
3 48 37 36
3 48 36 25
3 22 42 30
3 47 22 31
3 1 0 21
3 0 41 21
3 11 22 30
3 17 31 22
3 17 13 31
3 4 3 24
3 6 36 24
3 6 9 36
3 9 25 36
3 28 2 16
3 49 21 40
3 351 50 352
3 353 50 351
3 51 353 354
3 52 38 32
3 53 25 15
3 33 34 10
3 34 23 10
3 54 50 353
3 55 41 0
3 55 0 30
3 24 31 4
3 56 47 31
3 35 46 45
3 355 51 354
3 57 37 48
3 58 356 357
3 59 40 41
3 39 60 15
3 49 27 21
3 61 56 31
3 46 358 24
3 53 15 60
3 359 360 62
3 59 49 40
3 63 353 51
3 52 361 38
3 57 48 25
3 64 362 363
3 43 55 30
3 57 35 37
3 364 55 43
3 24 61 31
3 65 32 20
3 39 66 60
3 67 59 41
3 68 61 24
3 64 69 362
3 70 51 355
3 54 71 50
3 72 365 359
3 72 359 62
3 364 366 55
3 73 361 52
3 367 56 61
3 57 25 74
3 28 27 368
3 68 75 61
3 32 76 52
3 70 63 51
3 28 33 2
3 76 32 65
3 7 34 29
3 72 77 365
3 367 61 75
3 41 78 67
3 79 78 55
3 53 74 25
3 369 363 370
3 54 80 71
3 78 41 55
3 369 64 363
3 66 371 60
3 60 74 53
3 65 20 81
3 82 58 357
3 358 68 24
3 83 28 368
3 80 54 84
3 84 54 353
3 366 372 55
3 63 84 353
3 55 372 79
3 373 85 358
3 374 82 357
3 72 62 375
3 358 85 68
3 73 52 76
3 86 82 374
3 376 57 74
3 83 87 28
3 367 75 377
3 378 83 368
3 379 377 88
3 373 376 89
3 371 380 60
3 372 379 90
3 373 91 85
3 378 67 78
3 379 88 90
3 85 91 68
3 373 89 91
3 380 73 76
3 83 378 78
3 79 372 90
3 88 377 75
3 89 376 74
3 76 60 380
3 78 92 83
3 75 93 88
3 76 94 60
3 29 81 20
3 95 75 68
3 91 95 68
3 74 96 89
3 65 94 76
3 79 92 78
3 88 97 90
3 98 95 91
3 98 91 89
3 97 79 90
3 93 97 88
3 95 93 75
3 96 98 89
3 94 99 60
3 60 96 74
3 100 101 93
3 102 103 95
3 104 105 92
3 93 101 97
3 100 93 95
3 103 106 95
3 107 108 94
3 100 95 106
3 102 95 109
3 105 110 92
3 108 99 94
3 111 112 96
3 87 83 110
3 83 92 110
3 95 98 109
3 98 112 109
3 98 96 112
3 113 381 382
3 99 96 60
3 114 107 94
3 111 96 115
3 28 87 116
3 383 117 384
3 385 118 386
3 101 119 97
3 105 120 110
3 121 387 388
3 121 388 381
3 99 108 122
3 87 110 120
3 123 92 79
3 99 115 96
3 383 124 117
3 125 118 385
3 382 126 113
3 127 114 94
3 116 33 28
3 128 87 120
3 65 127 94
3 121 381 113
3 87 128 116
3 81 127 65
3 389 104 92
3 108 129 122
3 123 79 97
3 99 122 115
3 118 390 386
3 125 385 391
3 130 126 382
3 117 392 384
3 131 125 391
3 33 132 34
3 127 133 114
3 119 134 97
3 393 111 115
3 114 108 107
3 394 135 395
3 396 131 391
3 389 92 123
3 121 396 387
3 136 127 81
3 397 137 398
3 399 137 397
3 393 115 138
3 123 97 134
3 139 128 120
3 117 400 392
3 138 401 393
3 128 140 116
3 141 400 117
3 402 398 137
3 136 81 403
3 34 403 29
3 389 142 404
3 121 113 126
3 116 140 143
3 139 144 128
3 142 389 123
3 145 123 134
3 405 406 407
3 125 146 118
3 147 137 399
3 115 148 138
3 142 123 145
3 149 127 136
3 143 33 116
3 126 150 121
3 408 409 410
3 131 151 125
3 133 127 149
3 121 131 396
3 144 140 128
3 152 115 122
3 153 405 407
3 411 412 413
3 129 154 122
3 155 142 145
3 156 136 403
3 414 133 149
3 152 148 115
3 137 415 402
3 136 156 149
3 147 157 137
3 151 131 121
3 157 415 137
3 138 148 416
3 154 152 122
3 417 400 141
3 158 414 149
3 159 144 139
3 416 148 160
3 155 145 134
3 121 161 151
3 417 418 400
3 419 412 411
3 156 158 149
3 419 162 412
3 154 163 152
3 140 164 143
3 118 165 390
3 166 157 147
3 160 148 152
3 420 118 146
3 119 155 134
3 167 144 159
3 154 168 163
3 421 414 158
3 163 160 152
3 157 422 415
3 423 142 169
3 144 167 140
3 164 140 167
3 169 142 155
3 169 155 170
3 171 162 419
3 119 170 155
3 119 172 170
3 173 165 420
3 424 390 165
3 174 121 150
3 166 422 157
3 164 167 175
3 176 156 403
3 419 177 171
3 159 175 167
3 163 421 158
3 168 421 163
3 159 169 175
3 425 161 121
3 178 160 163
3 170 179 169
3 178 180 160
3 425 121 181
3 158 182 163
3 175 183 164
3 143 184 33
3 184 132 33
3 171 426 162
3 179 175 169
3 178 163 182
3 183 143 164
3 185 186 182
3 187 188 179
3 188 183 179
3 189 178 182
3 190 189 182
3 186 190 182
3 183 175 179
3 189 191 178
3 158 156 176
3 192 183 188
3 427 193 428
3 429 187 179
3 185 182 194
3 194 182 158
3 430 416 160
3 195 194 158
3 195 158 176
3 177 196 171
3 172 197 170
3 165 431 424
3 196 426 171
3 432 433 434
3 435 198 432
3 183 184 143
3 173 199 165
3 196 200 426
3 430 160 180
3 176 403 34
3 199 431 165
3 192 201 183
3 181 436 425
3 200 437 426
3 202 181 121
3 174 202 121
3 203 180 178
3 203 178 191
3 179 204 429
3 170 204 179
3 194 205 185
3 198 433 432
3 205 186 185
3 430 180 206
3 207 181 202
3 196 208 200
3 438 209 191
3 192 210 201
3 203 191 209
3 211 436 181
3 211 181 207
3 212 198 435
3 205 194 213
3 212 214 198
3 437 200 208
3 439 207 202
3 439 202 174
3 205 440 186
3 183 201 184
3 199 215 431
3 216 208 196
3 217 132 184
3 210 192 188
3 441 209 438
3 218 194 195
3 439 219 207
3 209 441 203
3 218 195 176
3 207 442 211
3 220 205 213
3 213 194 218
3 216 196 443
3 221 444 428
3 222 215 199
3 441 223 203
3 223 180 203
3 205 220 440
3 197 445 170
3 224 219 439
3 170 445 225
3 441 226 223
3 216 227 208
3 226 228 223
3 225 204 170
3 218 176 229
3 428 193 221
3 222 199 446
3 210 230 201
3 34 229 176
3 447 222 446
3 228 180 223
3 201 217 184
3 231 442 207
3 232 224 439
3 445 233 225
3 230 210 448
3 234 214 212
3 449 226 441
3 450 206 180
3 235 204 225
3 236 213 218
3 236 218 229
3 451 215 222
3 220 237 440
3 230 238 201
3 237 220 239
3 213 239 220
3 240 452 453
3 240 454 452
3 236 239 213
3 201 238 217
3 241 229 34
3 429 204 235
3 242 231 207
3 243 235 225
3 244 450 180
3 242 207 219
3 245 447 455
3 230 246 238
3 245 222 447
3 456 240 453
3 247 225 233
3 236 229 241
3 448 246 230
3 248 245 455
3 249 240 456
3 250 242 219
3 251 440 237
3 238 252 217
3 253 457 451
3 244 180 228
3 252 132 217
3 254 253 451
3 458 248 455
3 224 250 219
3 254 451 222
3 251 237 239
3 459 255 460
3 212 461 234
3 247 243 225
3 246 256 238
3 255 462 460
3 257 239 236
3 257 236 241
3 463 221 193
3 464 465 258
3 466 462 259
3 459 467 260
3 255 259 462
3 467 464 261
3 468 258 465
3 468 469 262
3 255 459 260
3 260 467 261
3 469 450 244
3 247 466 243
3 464 258 261
3 468 262 258
3 259 243 466
3 244 262 469
3 238 256 252
3 246 448 256
3 448 235 256
3 449 251 263
3 449 263 226
3 259 264 243
3 265 259 260
3 266 265 260
3 262 267 258
3 263 228 226
3 239 263 251
3 235 268 256
3 269 235 243
3 270 244 228
3 270 228 263
3 268 252 256
3 265 264 259
3 257 263 239
3 271 266 260
3 272 260 261
3 267 273 258
3 274 262 244
3 275 274 244
3 275 244 270
3 276 269 243
3 264 276 243
3 272 271 260
3 273 261 258
3 257 277 263
3 269 268 235
3 273 272 261
3 274 267 262
3 277 270 263
3 278 264 265
3 279 280 278
3 279 271 272
3 281 282 274
3 283 284 268
3 281 275 285
3 277 286 287
3 288 283 268
3 280 276 278
3 282 273 274
3 288 268 269
3 271 279 278
3 281 274 275
3 276 264 278
3 265 266 278
3 266 271 278
3 267 274 273
3 270 277 287
3 289 280 279
3 290 286 277
3 291 470 471
3 292 472 473
3 252 268 284
3 257 290 277
3 252 293 132
3 287 294 270
3 292 473 474
3 475 476 477
3 273 295 272
3 296 276 280
3 289 296 280
3 297 478 470
3 294 298 270
3 299 476 475
3 291 300 470
3 301 474 479
3 293 302 132
3 302 303 132
3 303 304 132
3 305 480 481
3 482 306 273
3 483 288 269
3 294 484 298
3 293 307 302
3 307 303 302
3 34 308 241
3 283 309 284
3 485 285 275
3 257 310 290
3 293 311 307
3 311 303 307
3 311 304 303
3 312 299 475
3 313 475 486
3 284 309 252
3 310 257 241
3 487 272 314
3 295 314 272
3 315 269 276
3 306 295 273
3 310 488 290
3 304 34 132
3 297 489 478
3 482 316 306
3 305 490 480
3 276 296 315
3 296 317 315
3 491 489 297
3 300 297 470
3 318 474 301
3 313 312 475
3 252 319 293
3 492 485 275
3 493 300 291
3 488 310 320
3 321 270 298
3 322 494 292
3 312 323 299
3 315 324 269
3 308 310 241
3 483 325 309
3 326 292 474
3 327 326 474
3 318 327 474
3 484 495 298
3 321 275 270
3 304 328 34
3 328 329 34
3 326 322 292
3 304 330 328
3 330 329 328
3 304 331 330
3 331 329 330
3 331 34 329
3 496 332 497
3 333 316 498
3 309 319 252
3 334 497 332
3 492 275 321
3 324 483 269
3 321 298 495
3 309 335 319
3 336 325 483
3 334 317 497
3 336 483 324
3 337 311 293
3 314 338 496
3 499 339 500
3 320 501 488
3 309 325 335
3 340 295 306
3 308 320 310
3 500 333 498
3 317 334 315
3 496 338 332
3 338 314 295
3 316 333 306
3 500 339 333
3 499 492 341
3 492 321 341
3 495 501 342
3 334 332 343
3 325 336 335
3 334 343 315
3 339 499 344
3 501 320 342
3 335 336 324
3 343 332 345
3 332 338 345
3 333 344 306
3 333 339 344
3 499 341 344
3 321 495 342
3 346 342 320
3 319 347 293
3 347 337 293
3 331 304 311
3 331 348 34
3 348 308 34
3 340 345 338
3 349 306 344
3 350 341 321
3 350 321 342
3 308 346 320
3 337 331 311
3 347 324 315
3 340 338 295
3 349 340 306
3 346 350 342
3 335 324 319
3 315 343 337
3 345 340 331
3 341 348 344
3 341 350 348
3 315 337 347
3 343 345 337
3 345 331 337
3 340 349 331
3 349 344 348
3 350 346 308
3 324 347 319
3 348 350 308
3 349 348 331
3 420 165 118
3 159 423 169
3 255 260 259
