ply
format ascii 1.0
comment INFO-3111 Flatenator generated
comment TextureFile Dungeons_Texture_01.png
element vertex 535
property float x
property float y
property float z
element face 588
property list uchar int vertex_indices
end_header
0.852684 5.02988 0.25333 
0.010666 5.02774 0.251563 
0.086411 4.54661 0.253313 
1.53355 5.02717 0.23825 
0.950653 5.05178 0.252954 
0.967751 4.58289 0.244231 
2.21406 5.01368 0.253406 
0.804184 4.59278 0.252291 
2.19663 4.53365 0.253415 
1.05432 3.92772 0.253297 
0.144424 3.89177 0.2537 
0.751068 3.43495 0.253664 
3.92163 3.91462 0.213434 
3.93736 3.44711 0.253486 
4.24205 3.91583 0.254288 
4.96718 3.89362 0.253388 
4.99676 3.41199 0.253967 
3.87337 3.90396 0.252845 
3.89153 3.42314 0.253974 
3.05138 3.92857 0.253163 
3.04086 3.50811 0.253081 
0.009415 3.88552 0.232399 
0.013138 3.40522 0.253219 
1.07917 3.4332 0.216874 
3.03287 3.4334 0.217415 
5.01086 2.78994 0.253476 
4.54918 2.78201 0.254429 
4.86346 2.30891 0.251973 
3.98375 2.39026 0.242168 
5.00825 2.32595 0.235869 
4.9464 1.68404 0.226654 
4.81702 1.66961 0.251439 
5.00841 1.18765 0.25286 
3.342 1.08072 0.253973 
2.49052 1.11058 0.253338 
2.64493 0.627896 0.245644 
2.49523 0.674229 0.248952 
3.31601 0.588356 0.215659 
1.47987 0.564509 0.250731 
1.39894 0.596794 0.236624 
1.36435 0.099033 0.257834 
1.69574 4.48586 0.213563 
4.28541 3.99819 0.237948 
3.13431 4.48776 0.257436 
3.43277 4.03634 0.252769 
3.3439 3.98265 0.213757 
3.04833 3.95401 0.213389 
0.019592 2.80596 0.255516 
0.024498 2.36898 0.243533 
1.02758 2.77097 0.242164 
3.9443 2.805 0.217009 
3.86822 2.80609 0.241386 
3.69096 2.35923 0.239002 
3.91085 2.37571 0.224069 
3.94831 1.60484 0.243018 
2.40631 0.627387 0.252617 
2.42238 1.09213 0.244648 
1.60412 0.652281 0.248095 
1.8609 0.019386 0.239677 
5.02048 5.0136 0.243097 
3.80312 5.05491 0.243353 
4.56449 4.54969 0.243244 
3.14764 4.54656 0.239092 
3.73968 5.02949 0.24344 
2.87741 5.02949 0.24344 
2.97142 4.60872 0.230086 
3.81023 4.55957 0.232856 
5.00324 4.53391 0.243353 
2.27826 5.02463 0.240112 
2.90303 4.57166 0.216023 
2.26994 4.5476 0.243512 
4.25557 4.54882 0.213173 
3.1115 4.50878 0.213605 
2.47305 4.49929 0.213441 
4.22523 4.46319 0.239419 
0.886253 4.50878 0.212793 
0.593643 4.4951 0.243512 
1.65104 4.46935 0.243512 
0.50563 4.47879 0.243365 
0.004257 4.48109 0.223758 
0.460701 4.00259 0.238239 
1.29207 3.99682 0.243313 
1.69568 3.98279 0.213661 
4.96976 4.47667 0.242893 
4.33682 4.47972 0.242824 
4.96927 3.99682 0.243512 
2.43207 4.47682 0.242975 
1.71056 4.47682 0.242975 
2.11654 3.99276 0.234459 
3.06945 4.47765 0.242251 
2.48611 4.47722 0.243552 
2.75947 4.03326 0.239143 
3.29999 3.99584 0.243692 
1.71133 3.99686 0.243512 
2.42949 3.99064 0.218297 
-0.004936 4.03882 0.225855 
0.568924 4.00712 0.211835 
4.89989 3.91275 0.217297 
1.39417 3.91283 0.243322 
1.13882 3.92469 0.217141 
1.1461 3.58664 0.243512 
1.6824 3.44178 0.232597 
1.72272 3.52552 0.23986 
2.99808 3.89906 0.246357 
2.4594 3.92726 0.239036 
2.97307 3.41617 0.243779 
5.06676 3.38631 0.02546 
2.25795 3.46177 0.23557 
3.20232 3.3761 0.208861 
1.64914 3.41647 0.211517 
1.24178 3.32366 0.240029 
1.65153 2.87291 0.242945 
0.525536 3.36591 0.213692 
0.594421 2.83906 0.243511 
4.34274 3.3392 0.241517 
4.93271 2.8625 0.243132 
4.93237 3.34144 0.243512 
4.27582 3.34937 0.243489 
3.3868 3.31647 0.243385 
4.28051 2.86696 0.243484 
1.71084 3.34178 0.243456 
1.7105 2.86241 0.242869 
2.43182 3.34181 0.243476 
-0.055176 3.34143 0.243512 
0.522003 2.86252 0.243128 
0.521667 3.34143 0.243512 
4.32838 2.83946 0.213453 
2.49108 2.84462 0.235244 
3.40311 2.83408 0.243511 
0.573387 2.82822 0.213353 
2.20518 2.78993 0.243003 
1.14848 2.78939 0.241968 
2.13788 2.31114 0.239746 
1.3024 2.31461 0.243584 
3.02841 2.77802 0.230506 
2.26168 2.78425 0.243157 
2.94262 2.28761 0.243157 
2.28481 2.321 0.240418 
2.22504 2.3128 0.212885 
-0.087256 2.30198 0.038678 
1.0258 2.29524 0.232957 
1.04982 2.27207 0.213408 
4.97488 2.23021 0.240304 
4.34476 2.27099 0.212264 
4.34376 2.05001 0.24183 
0.478111 2.19571 0.237239 
-0.051865 2.21074 0.237561 
0.094345 1.73795 0.242019 
2.43106 2.23019 0.242397 
1.71084 2.16491 0.243511 
1.71079 1.7541 0.243157 
3.31333 2.23322 0.242987 
2.49271 2.22442 0.239481 
3.34014 1.75005 0.242179 
4.76996 1.75623 0.243203 
0.524429 1.75614 0.243511 
3.39568 2.21319 0.256197 
3.40434 1.68268 0.213126 
3.39833 1.73538 0.243246 
2.48682 1.7804 0.243511 
3.94144 1.68625 0.21189 
1.06485 1.66409 0.24502 
0.020988 1.72493 0.22186 
0.99881 1.23202 0.242607 
2.2589 1.67553 0.213453 
1.14491 1.66455 0.243466 
2.09028 1.23146 0.241609 
3.00945 1.73218 0.209341 
3.05726 1.21522 0.238249 
3.09833 1.66407 0.243511 
3.87189 1.66666 0.24067 
0.00412 1.1862 0.244428 
5.03392 1.71193 0.14105 
2.23587 1.248 0.21427 
3.83184 1.18712 0.243105 
2.99064 1.65114 0.242865 
2.26949 1.66459 0.243199 
2.98283 1.18665 0.242687 
3.94305 1.1591 0.213664 
2.32635 1.24301 0.240886 
1.19528 1.23168 0.24046 
2.48518 1.13825 0.212406 
1.70294 1.13483 0.239371 
0.583626 1.10686 0.211418 
-0.035019 1.08603 0.243464 
0.492981 0.777006 0.239572 
0.586128 0.603593 0.243312 
1.18272 1.08628 0.243188 
1.5648 0.603705 0.243317 
4.9769 1.0798 0.240233 
4.29131 1.07897 0.243511 
4.97364 0.604755 0.243511 
4.45871 0.604113 0.243511 
-0.036514 0.602044 0.240465 
2.46348 0.58084 0.211393 
0.551826 0.718502 0.205794 
0.438011 0.543407 0.209971 
3.97836 0.591656 0.213609 
3.40125 1.10448 0.243361 
3.38646 0.626163 0.243357 
1.56618 0.578414 0.213453 
3.10457 0.524283 0.241814 
1.90042 0.520246 0.213551 
3.10383 0.041854 0.243511 
4.06529 0.517279 0.243511 
3.16615 0.541674 0.242141 
3.15462 0.055239 0.243404 
4.41061 0.520827 0.243214 
5.01077 0.042231 0.243511 
5.01131 0.525557 0.238844 
-0.001884 0.495423 0.243495 
1.29952 0.056095 0.243357 
1.93628 0.041864 0.243511 
4.15247 0.511754 0.211367 
4.11941 0.033576 0.243435 
0.008759 0.000578 0.207294 
0.227425 0.02329 0.243141 
2.22233 5.01327 0.212777 
2.28208 3.96139 0.213525 
3.30159 2.91151 0.238465 
3.39691 2.8207 0.217035 
1.72426 2.80079 0.215742 
0.044373 2.24162 0.212068 
2.95712 2.26896 0.218799 
1.64423 2.25703 0.214337 
4.99138 2.25772 0.175961 
0.535553 2.29327 0.210378 
0.583374 2.10656 0.239191 
1.63889 2.2497 0.235684 
4.28622 2.22296 0.247661 
4.30092 1.74257 0.21307 
0.594154 1.73267 0.239543 
1.70683 1.74203 0.216891 
0.619087 1.68255 0.213023 
3.03854 1.15648 0.211351 
1.14757 1.18201 0.217202 
1.29307 1.12104 0.208978 
0.925781 5.0993 0.12748 
0.935219 4.99903 0.217462 
2.19853 4.50888 0.213389 
0.004044 3.38697 0.198225 
3.92181 3.43406 0.213454 
3.12121 3.31838 0.241002 
1.0876 2.79743 0.212095 
2.25852 2.83911 0.213707 
3.38491 2.25509 0.210398 
1.14717 1.68195 0.212854 
3.10045 0.593776 0.213551 
3.1174 -0.001522 0.122786 
3.13643 0.013942 0.136301 
4.16122 -0.001522 0.136332 
0.225868 3.92122 0.21186 
2.47277 2.22445 0.21366 
3.88161 2.24234 0.216726 
3.35889 1.10103 0.213453 
0.586113 4.51978 0.213634 
-0.076965 2.81694 0.136294 
1.86356 -0.032288 0.127644 
2.23299 5.05563 0.1457 
4.97595 4.49886 0.194653 
5.03449 3.97959 0.032209 
4.29257 3.35559 0.212895 
4.94081 3.36995 0.176697 
4.89983 1.17271 0.216977 
1.34972 0.078899 0.216695 
3.10969 0.078277 0.217347 
-0.083823 3.98231 0.032975 
2.93461 3.32662 0.236848 
4.99715 1.14365 0.077352 
1.86577 0.068399 0.212213 
1.3203 0.014197 0.140678 
-0.147892 2.24737 0.032967 
-0.12338 1.66999 0.032874 
5.03188 0.56613 0.136309 
5.0419 5.0569 0.136331 
2.89119 5.07061 0.141086 
0.894775 5.15129 0.02546 
-0.127272 2.82351 0.032235 
5.0819 2.83672 0.025459 
3.81007 5.09661 0.032732 
2.24361 5.01734 0.130942 
5.08366 2.25936 0.028269 
-0.039455 1.09614 0.028542 
4.94826 1.14329 0.095315 
-0.015182 5.07172 0.141572 
-0.036801 0.515936 0.033267 
2.9167 5.0712 0.13631 
-0.083823 4.55989 0.03309 
1.84137 -0.019721 0.011485 
5.03654 4.53518 0.032336 
5.08292 0.525858 0.032628 
5.08204 -0.052743 0.033103 
-0.125373 3.4021 0.032775 
-0.048632 1.70502 0.031813 
4.99046 1.12709 0.07757 
-0.107501 1.099 0.032858 
0.680579 -0.052254 0.033192 
5.08381 3.96497 0.028322 
4.19578 -0.052743 0.033103 
-0.053342 -0.079452 0.033115 
2.25174 5.12266 0.032713 
1.83718 -0.093305 0.014295 
2.89731 5.09346 0.010257 
5.09352 1.69301 0.024598 
-0.06378 5.12192 0.02546 
5.0947 1.11561 0.025194 
3.13033 -0.052743 0.032971 
5.09386 5.10754 0.033111 
5.0345 1.70342 0.032844 
-0.058245 0.013862 0.032906 
-0.011581 3.50061 0.008519 
3.77724 5.09357 0.010284 
4.98285 2.84443 0.028724 
4.98457 3.3482 0.010211 
1.29672 -0.019825 0.033192 
3.92163 3.91462 0.213434 
3.87337 3.90396 0.252845 
3.89153 3.42314 0.253974 
3.04086 3.50811 0.253081 
2.19663 4.53365 0.253415 
0.967751 4.58289 0.244231 
4.28541 3.99819 0.237948 
3.43277 4.03634 0.252769 
3.05138 3.92857 0.253163 
1.47987 0.564509 0.250731 
1.36435 0.099033 0.257834 
3.81023 4.55957 0.232856 
2.87741 5.02949 0.24344 
4.56449 4.54969 0.243244 
3.81023 4.55957 0.232856 
3.14764 4.54656 0.239092 
2.90303 4.57166 0.216023 
2.26994 4.5476 0.243512 
3.13431 4.48776 0.257436 
1.65104 4.46935 0.243512 
0.593643 4.4951 0.243512 
4.22523 4.46319 0.239419 
4.28541 3.99819 0.237948 
2.42949 3.99064 0.218297 
4.24205 3.91583 0.254288 
4.96718 3.89362 0.253388 
4.99676 3.41199 0.253967 
1.72272 3.52552 0.23986 
1.6824 3.44178 0.232597 
1.1461 3.58664 0.243512 
1.07917 3.4332 0.216874 
0.013138 3.40522 0.253219 
0.751068 3.43495 0.253664 
4.27582 3.34937 0.243489 
4.28051 2.86696 0.243484 
4.32838 2.83946 0.213453 
3.9443 2.805 0.217009 
0.019592 2.80596 0.255516 
1.02758 2.77097 0.242164 
4.93271 2.8625 0.243132 
4.54918 2.78201 0.254429 
5.01086 2.78994 0.253476 
2.26168 2.78425 0.243157 
0.024498 2.36898 0.243533 
2.28481 2.321 0.240418 
2.20518 2.78993 0.243003 
2.13788 2.31114 0.239746 
3.39568 2.21319 0.256197 
3.39833 1.73538 0.243246 
4.9464 1.68404 0.226654 
2.48682 1.7804 0.243511 
3.09833 1.66407 0.243511 
3.05726 1.21522 0.238249 
4.9464 1.68404 0.226654 
5.00841 1.18765 0.25286 
2.2589 1.67553 0.213453 
2.09028 1.23146 0.241609 
3.87189 1.66666 0.24067 
3.83184 1.18712 0.243105 
2.26949 1.66459 0.243199 
2.32635 1.24301 0.240886 
3.94305 1.1591 0.213664 
2.49052 1.11058 0.253338 
3.342 1.08072 0.253973 
0.583626 1.10686 0.211418 
1.70294 1.13483 0.239371 
1.39894 0.596794 0.236624 
2.49523 0.674229 0.248952 
0.492981 0.777006 0.239572 
0.438011 0.543407 0.209971 
2.40631 0.627387 0.252617 
1.60412 0.652281 0.248095 
1.39894 0.596794 0.236624 
4.06529 0.517279 0.243511 
4.11941 0.033576 0.243435 
-0.001884 0.495423 0.243495 
4.15247 0.511754 0.211367 
4.11941 0.033576 0.243435 
0.227425 0.02329 0.243141 
2.21406 5.01368 0.253406 
2.87741 5.02949 0.24344 
2.97142 4.60872 0.230086 
0.50563 4.47879 0.243365 
0.460701 4.00259 0.238239 
0.568924 4.00712 0.211835 
1.71056 4.47682 0.242975 
1.71133 3.99686 0.243512 
2.99808 3.89906 0.246357 
2.42949 3.99064 0.218297 
2.4594 3.92726 0.239036 
2.25795 3.46177 0.23557 
3.3868 3.31647 0.243385 
3.3868 3.31647 0.243385 
3.30159 2.91151 0.238465 
2.49108 2.84462 0.235244 
1.14848 2.78939 0.241968 
1.0258 2.29524 0.232957 
1.04982 2.27207 0.213408 
1.3024 2.31461 0.243584 
4.34476 2.27099 0.212264 
4.86346 2.30891 0.251973 
3.98375 2.39026 0.242168 
2.95712 2.26896 0.218799 
2.49271 2.22442 0.239481 
3.31333 2.23322 0.242987 
1.63889 2.2497 0.235684 
0.583374 2.10656 0.239191 
3.34014 1.75005 0.242179 
2.48682 1.7804 0.243511 
0.020988 1.72493 0.22186 
1.06485 1.66409 0.24502 
2.99064 1.65114 0.242865 
3.94144 1.68625 0.21189 
0.99881 1.23202 0.242607 
0.583626 1.10686 0.211418 
0.00412 1.1862 0.244428 
1.18272 1.08628 0.243188 
2.42238 1.09213 0.244648 
1.90042 0.520246 0.213551 
3.10457 0.524283 0.241814 
1.53355 5.02717 0.23825 
0.950653 5.05178 0.252954 
2.43207 4.47682 0.242975 
2.48611 4.47722 0.243552 
3.06945 4.47765 0.242251 
0.009415 3.88552 0.232399 
-0.055176 3.34143 0.243512 
0.521667 3.34143 0.243512 
3.02841 2.77802 0.230506 
2.94262 2.28761 0.243157 
5.00825 2.32595 0.235869 
1.71084 2.16491 0.243511 
2.43106 2.23019 0.242397 
-0.051865 2.21074 0.237561 
0.478111 2.19571 0.237239 
0.594154 1.73267 0.239543 
0.524429 1.75614 0.243511 
0.094345 1.73795 0.242019 
1.70683 1.74203 0.216891 
1.71079 1.7541 0.243157 
1.14491 1.66455 0.243466 
2.98283 1.18665 0.242687 
3.40125 1.10448 0.243361 
4.29131 1.07897 0.243511 
3.31601 0.588356 0.215659 
3.38646 0.626163 0.243357 
1.70294 1.13483 0.239371 
2.64493 0.627896 0.245644 
3.97836 0.591656 0.213609 
1.90042 0.520246 0.213551 
3.16615 0.541674 0.242141 
3.15462 0.055239 0.243404 
3.10383 0.041854 0.243511 
1.93628 0.041864 0.243511 
5.01077 0.042231 0.243511 
0.010666 5.02774 0.251563 
0.004257 4.48109 0.223758 
0.086411 4.54661 0.253313 
0.804184 4.59278 0.252291 
3.29999 3.99584 0.243692 
1.69568 3.98279 0.213661 
-0.004936 4.03882 0.225855 
2.75947 4.03326 0.239143 
2.97307 3.41617 0.243779 
0.525536 3.36591 0.213692 
0.594421 2.83906 0.243511 
3.69096 2.35923 0.239002 
4.28622 2.22296 0.247661 
4.34376 2.05001 0.24183 
4.30092 1.74257 0.21307 
4.76996 1.75623 0.243203 
3.94831 1.60484 0.243018 
4.81702 1.66961 0.251439 
1.19528 1.23168 0.24046 
1.5648 0.603705 0.243317 
2.27826 5.02463 0.240112 
1.13882 3.92469 0.217141 
1.29207 3.99682 0.243313 
2.11654 3.99276 0.234459 
2.28208 3.96139 0.213525 
1.65153 2.87291 0.242945 
0.586128 0.603593 0.243312 
1.8609 0.019386 0.239677 
0.852684 5.02988 0.25333 
4.33682 4.47972 0.242824 
4.96976 4.47667 0.242893 
4.96927 3.99682 0.243512 
0.144424 3.89177 0.2537 
1.05432 3.92772 0.253297 
3.93736 3.44711 0.253486 
4.93237 3.34144 0.243512 
4.34274 3.3392 0.241517 
1.24178 3.32366 0.240029 
3.12121 3.31838 0.241002 
0.522003 2.86252 0.243128 
3.40311 2.83408 0.243511 
3.9443 2.805 0.217009 
3.86822 2.80609 0.241386 
3.91085 2.37571 0.224069 
4.97488 2.23021 0.240304 
4.97364 0.604755 0.243511 
4.41061 0.520827 0.243214 
5.01131 0.525557 0.238844 
1.29952 0.056095 0.243357 
5.00324 4.53391 0.243353 
2.25795 3.46177 0.23557 
1.64914 3.41647 0.211517 
1.71084 3.34178 0.243456 
1.7105 2.86241 0.242869 
4.45871 0.604113 0.243511 
3.80312 5.05491 0.243353 
3.73968 5.02949 0.24344 
1.39417 3.91283 0.243322 
2.28208 3.96139 0.213525 
2.43182 3.34181 0.243476 
-0.035019 1.08603 0.243464 
4.9769 1.0798 0.240233 
-0.036514 0.602044 0.240465 
5.02048 5.0136 0.243097 
2.93461 3.32662 0.236848 
3 0 1 2
3 3 4 5
3 3 5 6
3 0 2 7
3 6 5 8
3 9 10 11
3 12 13 14
3 15 14 16
3 315 17 18
3 316 19 20
3 14 13 16
3 21 22 10
3 316 20 317
3 9 11 23
3 18 318 24
3 10 22 11
3 25 26 27
3 27 26 28
3 25 27 29
3 30 31 32
3 33 34 35
3 35 34 36
3 37 33 35
3 38 39 40
3 41 319 320
3 42 43 44
3 321 322 315
3 45 323 17
3 323 46 318
3 47 48 49
3 26 50 28
3 51 52 53
3 31 54 32
3 55 56 57
3 324 325 58
3 59 60 61
3 62 63 64
3 64 65 62
3 60 66 61
3 59 61 67
3 63 62 326
3 68 69 327
3 69 68 70
3 328 329 71
3 330 72 329
3 73 331 332
3 72 333 74
3 75 76 77
3 78 79 80
3 334 335 81
3 82 334 81
3 83 84 85
3 336 43 42
3 86 87 88
3 89 90 91
3 89 91 92
3 87 93 88
3 86 88 94
3 85 84 337
3 90 338 91
3 80 79 95
3 81 335 96
3 97 339 340
3 98 99 100
3 98 100 101
3 102 98 101
3 103 104 105
3 340 341 106
3 107 342 343
3 344 345 343
3 18 24 108
3 346 345 347
3 109 110 111
3 110 112 113
3 114 115 116
3 111 110 113
3 117 118 119
3 120 121 122
3 123 47 124
3 125 123 124
3 126 348 349
3 122 121 127
3 114 350 115
3 119 118 351
3 351 118 128
3 352 353 129
3 354 355 356
3 130 131 132
3 131 133 132
3 134 135 136
3 137 357 138
3 352 139 358
3 136 135 359
3 138 360 361
3 48 140 49
3 133 131 141
3 142 143 144
3 145 146 147
3 148 149 150
3 151 152 153
3 142 144 154
3 145 147 155
3 156 157 158
3 152 159 153
3 362 363 160
3 142 154 364
3 148 150 365
3 161 162 163
3 164 165 166
3 167 168 169
3 170 366 367
3 162 171 163
3 368 369 172
3 370 371 173
3 174 170 367
3 175 176 177
3 178 372 373
3 374 173 179
3 373 168 178
3 176 375 177
3 166 165 180
3 32 54 376
3 377 378 181
3 56 182 57
3 183 184 185
3 379 186 187
3 380 187 188
3 189 190 191
3 191 190 192
3 187 186 381
3 185 184 193
3 188 187 381
3 382 377 194
3 195 383 196
3 197 198 199
3 185 193 384
3 190 198 192
3 385 386 200
3 198 197 192
3 201 202 203
3 204 205 206
3 207 208 209
3 387 210 211
3 202 212 203
3 213 388 214
3 204 206 389
3 390 215 216
3 207 391 392
3 207 392 208
3 211 210 393
3 217 394 319
3 395 331 396
3 72 330 396
3 322 333 45
3 397 398 399
3 400 41 401
3 402 403 404
3 218 405 104
3 105 104 405
3 219 406 127
3 407 408 220
3 408 409 220
3 221 410 360
3 51 134 52
3 353 411 412
3 139 222 358
3 134 223 52
3 224 413 412
3 224 361 413
3 414 415 416
3 414 225 415
3 417 418 419
3 412 226 227
3 412 227 228
3 229 362 230
3 420 421 231
3 420 231 232
3 230 362 160
3 422 423 167
3 233 424 425
3 374 426 167
3 168 167 234
3 427 372 178
3 173 374 370
3 235 425 428
3 429 428 430
3 236 235 431
3 432 385 194
3 433 434 194
3 435 237 436
3 436 238 75
3 239 400 437
3 72 73 438
3 72 438 439
3 46 403 402
3 315 45 17
3 346 440 240
3 18 108 241
3 240 441 442
3 241 407 348
3 406 242 127
3 243 410 221
3 409 357 443
3 357 244 138
3 226 411 358
3 444 137 417
3 415 225 445
3 224 446 447
3 448 449 222
3 245 419 422
3 227 226 450
3 226 449 451
3 452 448 424
3 446 453 454
3 370 423 454
3 453 455 370
3 372 157 169
3 427 157 372
3 167 426 234
3 455 246 235
3 234 426 456
3 235 429 431
3 178 457 458
3 457 459 460
3 461 200 386
3 462 382 194
3 194 247 462
3 196 390 39
3 213 463 388
3 464 324 58
3 465 247 466
3 248 467 468
3 249 214 466
3 250 469 214
3 470 471 472
3 436 75 320
3 473 75 238
3 71 74 321
3 45 439 474
3 41 475 401
3 398 476 251
3 474 477 46
3 402 478 46
3 107 24 478
3 345 346 479
3 243 480 129
3 226 412 411
3 245 481 417
3 417 252 418
3 245 417 419
3 253 156 482
3 483 484 485
3 484 368 485
3 427 486 487
3 486 427 178
3 455 235 488
3 181 456 179
3 254 234 378
3 383 195 429
3 200 461 489
3 200 39 38
3 459 247 465
3 332 490 239
3 239 319 41
3 76 255 399
3 333 72 45
3 491 475 492
3 475 493 401
3 403 494 404
3 441 256 352
3 495 480 221
3 353 243 129
3 244 357 409
3 243 353 412
3 428 429 235
3 496 195 196
3 257 497 40
3 435 394 258
3 258 394 217
3 498 473 238
3 396 331 72
3 471 255 472
3 255 473 472
3 71 499 500
3 77 475 41
3 73 437 403
3 438 73 403
3 259 501 260
3 399 491 492
3 322 45 315
3 46 45 474
3 321 97 501
3 251 502 503
3 491 251 503
3 251 440 502
3 318 46 24
3 315 18 241
3 341 504 241
3 479 346 240
3 261 262 341
3 505 261 506
3 479 507 345
3 508 407 108
3 479 442 509
3 407 220 510
3 220 511 510
3 220 443 512
3 512 511 220
3 511 513 416
3 243 412 410
3 513 511 512
3 222 226 358
3 513 414 416
3 514 225 414
3 253 245 156
3 418 252 423
3 252 447 423
3 245 157 156
3 414 482 484
3 226 233 450
3 224 228 453
3 446 224 453
3 234 178 168
3 178 263 369
3 378 234 181
3 461 236 431
3 377 181 194
3 496 429 195
3 459 254 378
3 194 181 432
3 200 194 385
3 39 496 196
3 489 39 200
3 247 459 462
3 39 264 40
3 200 38 433
3 463 459 465
3 388 463 465
3 515 516 517
3 39 518 264
3 467 265 434
3 247 265 466
3 436 237 238
3 217 319 239
3 75 41 320
3 239 73 332
3 71 259 328
3 519 328 259
3 255 76 75
3 71 72 74
3 255 471 397
3 239 41 400
3 73 239 437
3 259 71 500
3 399 255 397
3 499 71 321
3 45 46 323
3 339 97 315
3 98 102 520
3 251 266 440
3 504 315 241
3 24 46 478
3 491 503 345
3 345 521 343
3 261 341 241
3 479 240 442
3 521 345 507
3 261 241 348
3 508 108 24
3 267 508 24
3 261 348 126
3 261 126 506
3 522 221 523
3 479 509 129
3 243 221 480
3 221 244 523
3 244 409 523
3 511 126 349
3 480 479 129
3 417 443 444
3 244 360 138
3 245 513 481
3 224 138 361
3 252 224 447
3 449 226 222
3 414 484 483
3 246 453 450
3 453 370 454
3 424 451 452
3 246 233 425
3 453 246 455
3 167 370 374
3 173 181 179
3 263 268 369
3 178 254 457
3 457 254 459
3 459 463 460
3 247 194 434
3 524 213 516
3 515 524 516
3 269 433 497
3 216 270 518
3 525 526 329
3 490 217 239
3 473 255 75
3 331 73 72
3 72 71 329
3 77 41 75
3 439 45 72
3 259 500 501
3 398 251 399
3 493 475 494
3 403 493 494
3 477 403 46
3 491 399 251
3 494 475 527
3 321 315 97
3 491 527 475
3 98 520 528
3 344 491 345
3 343 521 107
3 24 107 529
3 107 521 522
3 241 108 407
3 107 522 529
3 261 505 262
3 24 529 267
3 521 495 221
3 522 521 221
3 509 352 129
3 354 126 355
3 126 511 355
3 360 244 221
3 220 409 443
3 137 138 252
3 417 137 252
3 513 245 253
3 224 412 228
3 414 513 253
3 224 252 138
3 482 414 253
3 245 422 157
3 233 226 451
3 448 271 272
3 172 514 368
3 427 158 157
3 368 484 487
3 451 424 233
3 423 370 167
3 422 167 157
3 450 233 246
3 484 427 487
3 169 157 167
3 425 235 246
3 488 235 236
3 488 236 461
3 371 488 461
3 371 461 432
3 456 181 234
3 178 234 254
3 173 371 432
3 263 178 458
3 181 173 432
3 429 430 530
3 458 531 263
3 524 463 213
3 532 390 196
3 194 200 433
3 515 517 273
3 433 269 468
3 247 434 265
3 448 272 424
3 269 497 257
3 274 525 533
3 260 501 97
3 262 505 354
3 275 490 395
3 276 498 238
3 533 519 274
3 256 277 352
3 466 265 249
3 278 354 356
3 526 525 279
3 225 514 172
3 172 369 268
3 273 517 469
3 280 217 490
3 440 266 240
3 281 356 445
3 225 281 445
3 222 271 448
3 471 266 476
3 352 277 139
3 430 282 530
3 283 263 531
3 531 515 273
3 251 476 266
3 270 264 518
3 498 284 470
3 278 356 281
3 424 282 430
3 532 530 285
3 264 257 40
3 286 395 526
3 262 106 341
3 532 285 390
3 264 270 257
3 258 237 435
3 266 471 287
3 340 260 97
3 269 288 468
3 265 467 248
3 215 270 216
3 288 248 468
3 519 259 289
3 276 284 498
3 470 284 471
3 279 525 274
3 258 217 280
3 531 273 290
3 291 273 469
3 250 291 469
3 292 441 240
3 441 277 256
3 424 293 282
3 290 294 531
3 530 295 285
3 296 270 215
3 237 276 238
3 272 293 424
3 294 283 531
3 297 340 106
3 283 268 263
3 214 298 250
3 299 296 215
3 298 214 249
3 297 260 340
3 490 300 280
3 270 301 257
3 302 275 395
3 303 172 268
3 471 284 304
3 303 268 305
3 269 257 301
3 139 271 222
3 306 298 249
3 276 237 258
3 300 490 275
3 307 274 519
3 268 294 305
3 306 248 288
3 274 307 279
3 280 300 258
3 304 287 471
3 308 225 172
3 390 309 215
3 215 309 299
3 286 302 395
3 266 310 240
3 303 308 172
3 265 306 249
3 292 240 310
3 295 530 282
3 298 291 250
3 289 259 260
3 300 276 258
3 311 302 286
3 311 286 526
3 441 292 277
3 312 262 354
3 265 248 306
3 302 300 275
3 311 526 279
3 313 262 312
3 290 273 291
3 307 519 289
3 262 313 106
3 278 312 354
3 281 225 308
3 305 294 290
3 390 285 309
3 288 269 301
3 314 270 296
3 314 301 270
3 276 304 284
3 534 122 127
3 242 534 127
3 268 283 294
