ply
format ascii 1.0
comment INFO-3111 Flatenator generated
comment TextureFile Dungeons_Texture_01.png
element vertex 566
property float x
property float y
property float z
element face 694
property list uchar int vertex_indices
end_header
0.934362 5.05021 0.264546 
-0.009873 5.04806 0.261519 
0.066451 4.56492 0.264518 
1.52478 5.04749 0.238711 
1.03309 5.0722 0.263903 
1.05032 4.60136 0.248958 
1.88729 5.03394 0.26468 
0.88549 4.61129 0.262766 
1.86973 4.55191 0.264692 
1.04184 3.94346 0.264491 
0.124917 3.90737 0.26518 
0.736247 3.44865 0.265119 
3.93132 3.93031 0.196193 
3.94717 3.46086 0.264814 
4.25421 3.93152 0.266191 
5.02884 3.90922 0.264648 
5.01475 3.42558 0.265637 
3.88268 3.9196 0.263717 
3.90098 3.43678 0.265651 
3.05434 3.94431 0.264262 
3.04374 3.5221 0.26412 
-0.011134 3.90109 0.228685 
-0.007387 3.41879 0.264357 
1.06689 3.44688 0.202085 
3.03569 3.44709 0.203013 
5.02896 2.80095 0.264801 
4.56371 2.79298 0.266432 
4.88042 2.31792 0.262224 
3.99392 2.39961 0.245424 
5.02633 2.33503 0.234632 
4.964 1.69045 0.218843 
4.83363 1.67596 0.261309 
5.0265 1.19199 0.263742 
3.34721 1.08462 0.26565 
2.48914 1.1146 0.264565 
2.64474 0.629909 0.251379 
2.49389 0.676435 0.257047 
3.32101 0.590205 0.200006 
1.04312 0.566258 0.260095 
0.961561 0.598678 0.235926 
0.926701 0.098846 0.272264 
1.68823 4.50392 0.196414 
4.2979 4.01423 0.238192 
3.41079 4.50583 0.271584 
3.43868 4.05253 0.263588 
3.34912 3.99862 0.196746 
3.05126 3.96986 0.196116 
-0.000883 2.81704 0.268293 
0.004065 2.37824 0.247765 
1.01489 2.78189 0.245418 
3.95417 2.81608 0.202318 
3.87749 2.81717 0.244083 
3.69886 2.36844 0.239999 
3.92046 2.38499 0.214414 
3.9582 1.61092 0.246881 
2.40428 0.629397 0.263325 
2.42048 1.09607 0.249674 
1.67837 0.654395 0.255579 
2.19104 0.018867 0.241158 
5.03867 5.03386 0.247017 
4.18291 5.07534 0.247455 
4.57914 4.56802 0.247268 
3.42423 4.56487 0.240153 
4.11898 5.04982 0.247603 
3.18954 5.04982 0.247603 
3.28428 4.62729 0.224723 
4.1077 4.57795 0.229467 
5.02129 4.55217 0.247455 
1.95199 5.04494 0.2419 
3.21536 4.59009 0.200629 
1.94361 4.56592 0.247726 
4.26783 4.56714 0.195746 
3.38781 4.52694 0.196488 
2.47154 4.51741 0.196204 
4.23727 4.48116 0.240714 
0.968196 4.52694 0.195093 
0.577606 4.5132 0.247726 
1.64317 4.48734 0.247726 
0.488914 4.49682 0.247475 
-0.016337 4.49913 0.213882 
0.443638 4.01865 0.238692 
1.28143 4.01286 0.247387 
1.68816 3.99876 0.196581 
4.95023 4.49469 0.246666 
4.34971 4.49776 0.246547 
4.94974 4.01286 0.247726 
2.43024 4.49484 0.246807 
1.70315 4.49484 0.246807 
2.11227 4.00877 0.232213 
3.34543 4.49568 0.245568 
2.4847 4.49525 0.247792 
2.76017 4.04944 0.24024 
3.30487 4.01186 0.248035 
1.70393 4.01289 0.247726 
2.42764 4.00664 0.204524 
-0.025599 4.05502 0.217474 
0.552702 4.02319 0.193454 
4.91713 3.92843 0.202811 
1.38432 3.92851 0.247401 
1.127 3.94042 0.202542 
1.13434 3.60097 0.247726 
1.67477 3.4555 0.229024 
1.71541 3.53959 0.241468 
3.00062 3.91469 0.252601 
2.45778 3.943 0.240059 
2.97543 3.42979 0.248183 
5.03344 3.38272 -0.125959 
2.25478 3.47558 0.234119 
3.20645 3.38955 0.188356 
1.64126 3.43009 0.192907 
1.23075 3.33689 0.241759 
1.64367 2.88426 0.246754 
0.508977 3.37931 0.196635 
0.578394 2.85028 0.247725 
4.35568 3.35249 0.244308 
4.9502 2.87381 0.247075 
4.94987 3.35474 0.247726 
4.28824 3.36271 0.247685 
3.39234 3.32966 0.247508 
4.29297 2.87829 0.247677 
1.70344 3.35508 0.24763 
1.7031 2.87372 0.246625 
2.42999 3.35511 0.247664 
-0.076228 3.35473 0.247726 
0.505417 2.87383 0.24707 
0.505078 3.35473 0.247726 
4.34121 2.85068 0.196225 
2.48971 2.85585 0.233561 
3.40879 2.84527 0.247725 
0.557194 2.83938 0.196055 
2.2016 2.80094 0.246854 
1.13673 2.80039 0.245081 
2.13378 2.32015 0.241273 
1.29184 2.32364 0.247851 
3.03119 2.78898 0.225443 
2.25853 2.79523 0.247118 
2.94474 2.29653 0.247118 
2.28184 2.33005 0.242426 
2.22161 2.32182 0.195253 
-0.057356 2.31548 -0.10376 
1.01311 2.30419 0.229643 
1.03731 2.28093 0.19615 
4.99271 2.23889 0.242231 
4.35772 2.27984 0.194188 
4.35671 2.05794 0.244844 
0.461185 2.20425 0.236979 
-0.072894 2.21933 0.237532 
0.074451 1.74458 0.245169 
2.42923 2.23886 0.245816 
1.70344 2.17332 0.247725 
1.70338 1.7608 0.247118 
3.31832 2.24191 0.246828 
2.49135 2.23307 0.240819 
3.34534 1.75673 0.245444 
4.7862 1.76294 0.247197 
0.507859 1.76284 0.247725 
3.40129 2.2218 0.269461 
3.41649 1.71621 0.197703 
3.40398 1.742 0.247272 
2.48542 1.78721 0.247725 
3.95128 1.69267 0.193548 
1.05245 1.67042 0.250313 
0.000525 1.73151 0.210629 
0.985909 1.23655 0.246174 
2.25573 1.75058 -0.62496 
1.13314 1.7364 -0.573535 
2.08581 1.17684 -0.576719 
3.07146 1.81891 -0.623446 
3.20894 1.15668 -0.57333 
3.19401 1.82344 -0.553602 
3.88119 1.73913 -0.578329 
-0.016472 1.19054 0.249296 
5.0522 1.71846 0.072177 
2.23253 1.1982 -0.623559 
3.84084 1.11954 -0.574155 
2.99313 1.71907 -0.574568 
2.33135 1.72935 -0.564625 
2.92641 1.13069 -0.582319 
3.95291 1.16333 0.196588 
2.32371 1.19176 -0.577958 
1.18389 1.17711 -0.578688 
2.48377 1.14238 0.194431 
1.69548 1.13895 0.240633 
0.567513 1.11086 0.192739 
-0.055914 1.08995 0.247643 
0.476166 0.77964 0.240976 
0.570038 0.605505 0.247386 
1.17124 1.0902 0.247171 
1.63875 0.605618 0.247393 
4.99474 1.0837 0.242109 
4.30385 1.08286 0.247725 
4.99146 0.606672 0.247725 
4.3526 0.606027 0.247725 
-0.05742 0.603949 0.242505 
2.46189 0.582657 0.192697 
0.53547 0.720892 0.183105 
0.420776 0.545068 0.190258 
3.6112 0.593518 0.196493 
3.40691 1.10848 0.247469 
3.39201 0.628169 0.247461 
1.64014 0.580221 0.196225 
3.17908 0.525865 0.244817 
2.23086 0.521811 0.196394 
3.17833 0.041429 0.247725 
3.6988 0.518832 0.247725 
3.24114 0.543328 0.245378 
3.22952 0.054869 0.24754 
4.30414 0.522394 0.247216 
5.02887 0.041807 0.247725 
5.02943 0.527144 0.239729 
-0.022527 0.496885 0.247698 
0.861372 0.055729 0.247461 
2.27478 -0.021457 0.247725 
3.78665 0.513284 0.192652 
3.75334 0.033116 0.247595 
-0.011799 -1.9e-05 0.185675 
0.208558 0.022788 0.24709 
1.89562 5.03352 0.195066 
2.27909 3.97727 0.196347 
3.30648 2.92303 0.239079 
3.40255 2.83184 0.202365 
1.71696 2.81185 0.200148 
0.024094 2.25035 0.193851 
2.95935 2.27781 0.205384 
1.63631 2.26582 0.197741 
5.00933 2.26651 0.131989 
0.51907 2.30221 0.190957 
0.567257 2.11473 0.240322 
1.63093 2.25846 0.234316 
4.29873 2.23161 0.254837 
4.31354 1.74922 0.19557 
0.578123 1.73928 0.240929 
1.69941 1.74868 0.202116 
0.603248 1.68896 0.19549 
3.0414 1.11739 -0.62856 
1.13581 1.18633 0.202649 
1.28244 1.1251 0.188558 
1.00803 5.11992 0.048925 
1.01754 5.01923 0.203095 
1.87165 4.52704 0.196116 
-0.016545 3.40046 0.170135 
3.9315 3.44774 0.196226 
3.12471 3.33159 0.243425 
1.07538 2.80847 0.193899 
2.25536 2.85033 0.196663 
3.39045 2.26387 0.190991 
1.13541 1.68835 0.195199 
3.17493 0.595648 0.196394 
3.19202 -0.002128 0.040884 
3.21118 0.013401 0.06404 
3.79547 -0.002128 0.064095 
0.206988 3.93693 0.193495 
2.47126 2.2331 0.19658 
3.89099 2.25107 0.201833 
3.36423 1.10501 0.196225 
0.570015 4.53798 0.196536 
-0.098186 2.82806 0.064028 
2.19372 -0.033022 0.049208 
1.90637 5.07607 0.080142 
4.95648 4.51697 0.164014 
4.96427 3.96665 -0.114626 
4.30513 3.36895 0.19527 
4.95837 3.38337 0.133249 
4.91708 1.17699 0.202265 
0.911952 0.078628 0.20178 
3.18425 0.078004 0.202898 
-0.053968 3.96933 -0.113339 
2.93667 3.33986 0.236308 
5.01515 1.14781 -0.036958 
2.19595 0.068085 0.194101 
0.882311 0.013657 0.071538 
-0.11725 2.26173 -0.113353 
-0.093041 1.69345 -0.113509 
5.05014 0.567886 0.064054 
5.06025 5.07734 0.06409 
3.20343 5.0911 0.072237 
1.00834 5.11988 -0.125959 
-0.096882 2.82879 -0.11458 
5.0484 2.84179 -0.12596 
4.1632 5.06607 -0.113749 
1.91707 5.03762 0.054857 
5.05014 2.27354 -0.121242 
-0.010145 1.12865 -0.120784 
4.96588 1.14745 -0.006183 
-0.035924 5.09222 0.07307 
-0.007524 0.557588 -0.112848 
3.22913 5.0917 0.064055 
-0.053968 4.5378 -0.113143 
2.19178 -0.032523 -0.149427 
4.96629 4.51348 -0.114412 
5.04942 0.567354 -0.11392 
5.04854 -0.002128 -0.113124 
-0.095011 3.39826 -0.113675 
-0.019209 1.72793 -0.115288 
5.0084 1.13119 -0.036586 
-0.077355 1.13146 -0.113535 
0.701058 -0.001647 -0.112974 
5.05029 3.95225 -0.121153 
3.79586 -0.002128 -0.113124 
-0.023861 -0.028416 -0.113104 
1.9297 5.0917 -0.113778 
2.17985 -0.042051 -0.14471 
3.20112 5.06296 -0.15149 
5.05989 1.71611 -0.127403 
-0.034166 5.09097 -0.125959 
5.06105 1.14781 -0.126407 
3.1919 -0.002128 -0.113346 
5.06021 5.07683 -0.11311 
5.00158 1.72635 -0.113557 
-0.028706 0.063427 -0.113455 
0.017388 3.49522 -0.154409 
4.66853 -0.001913 -0.112815 
3.75974 5.06307 -0.151442 
4.95056 2.84939 -0.12048 
4.95226 3.34522 -0.151565 
-0.010316 2.89716 -0.151579 
0.88208 0.030271 -0.112974 
4.95221 5.06282 -0.150965 
0.002716 2.2213 -0.15441 
4.94258 2.65242 -0.15441 
4.95211 -0.028416 -0.972521 
4.36545 0.048727 -0.120898 
4.47095 0.04106 -0.11483 
4.28008 0.04106 -0.11479 
4.55695 0.048717 -0.12108 
3.85452 -0.001055 -0.975595 
4.95225 0.045912 -0.151472 
4.53285 5.06313 -0.151612 
-0.010242 0.011881 -0.972778 
4.19486 0.046383 -0.151606 
0.521733 5.05403 -0.154303 
4.9521 4.14198 -0.151335 
0.002707 3.24058 -0.154409 
-0.010316 3.13233 -0.151578 
0.003085 1.39789 -0.15441 
2.48132 3.21446 -0.978413 
4.11728 4.56385 -0.154409 
1.62717 2.57583 -0.975595 
4.41027 4.74029 -0.154409 
4.59345 4.72962 -0.154409 
4.51649 4.68142 -0.154409 
4.50651 4.67132 -0.154409 
4.51642 4.67079 -0.154409 
4.48662 4.62268 -0.154409 
0.002716 3.00536 -0.15441 
3.46947 2.98701 -0.975595 
0.531881 2.26905 -0.154384 
1.95639 0.011881 -0.975595 
1.34999 2.03636 -0.973802 
3.93132 3.93031 0.196193 
3.88268 3.9196 0.263717 
3.90098 3.43678 0.265651 
3.04374 3.5221 0.26412 
1.86973 4.55191 0.264692 
1.05032 4.60136 0.248958 
4.2979 4.01423 0.238192 
3.43868 4.05253 0.263588 
3.05434 3.94431 0.264262 
1.04312 0.566258 0.260095 
0.926701 0.098846 0.272264 
4.1077 4.57795 0.229467 
4.57914 4.56802 0.247268 
4.1077 4.57795 0.229467 
3.42423 4.56487 0.240153 
3.21536 4.59009 0.200629 
1.94361 4.56592 0.247726 
3.41079 4.50583 0.271584 
1.64317 4.48734 0.247726 
0.577606 4.5132 0.247726 
4.23727 4.48116 0.240714 
2.42764 4.00664 0.204524 
4.25421 3.93152 0.266191 
5.02884 3.90922 0.264648 
1.38432 3.92851 0.247401 
1.67477 3.4555 0.229024 
5.01475 3.42558 0.265637 
1.71541 3.53959 0.241468 
1.67477 3.4555 0.229024 
1.13434 3.60097 0.247726 
1.06689 3.44688 0.202085 
-0.007387 3.41879 0.264357 
0.736247 3.44865 0.265119 
4.28824 3.36271 0.247685 
4.29297 2.87829 0.247677 
4.34121 2.85068 0.196225 
3.95417 2.81608 0.202318 
-0.000883 2.81704 0.268293 
1.01489 2.78189 0.245418 
4.9502 2.87381 0.247075 
4.56371 2.79298 0.266432 
5.02896 2.80095 0.264801 
2.25853 2.79523 0.247118 
0.004065 2.37824 0.247765 
2.28184 2.33005 0.242426 
2.2016 2.80094 0.246854 
2.13378 2.32015 0.241273 
3.40129 2.2218 0.269461 
3.40398 1.742 0.247272 
2.48542 1.78721 0.247725 
3.19401 1.82344 -0.553602 
3.20894 1.15668 -0.57333 
4.964 1.69045 0.218843 
5.0265 1.19199 0.263742 
2.25573 1.75058 -0.62496 
2.08581 1.17684 -0.576719 
3.88119 1.73913 -0.578329 
3.84084 1.11954 -0.574155 
2.33135 1.72935 -0.564625 
2.32371 1.19176 -0.577958 
3.95291 1.16333 0.196588 
2.48914 1.1146 0.264565 
3.34721 1.08462 0.26565 
0.961561 0.598678 0.235926 
2.49389 0.676435 0.257047 
0.476166 0.77964 0.240976 
0.420776 0.545068 0.190258 
2.40428 0.629397 0.263325 
1.67837 0.654395 0.255579 
3.6988 0.518832 0.247725 
3.75334 0.033116 0.247595 
-0.022527 0.496885 0.247698 
3.78665 0.513284 0.192652 
3.75334 0.033116 0.247595 
0.208558 0.022788 0.24709 
1.88729 5.03394 0.26468 
3.18954 5.04982 0.247603 
3.28428 4.62729 0.224723 
0.488914 4.49682 0.247475 
0.443638 4.01865 0.238692 
0.552702 4.02319 0.193454 
1.70315 4.49484 0.246807 
1.70393 4.01289 0.247726 
3.00062 3.91469 0.252601 
2.42764 4.00664 0.204524 
2.45778 3.943 0.240059 
2.25478 3.47558 0.234119 
3.39234 3.32966 0.247508 
3.30648 2.92303 0.239079 
2.48971 2.85585 0.233561 
1.13673 2.80039 0.245081 
1.01311 2.30419 0.229643 
1.03731 2.28093 0.19615 
1.29184 2.32364 0.247851 
4.35772 2.27984 0.194188 
4.88042 2.31792 0.262224 
3.99392 2.39961 0.245424 
2.95935 2.27781 0.205384 
2.49135 2.23307 0.240819 
3.31832 2.24191 0.246828 
1.63093 2.25846 0.234316 
0.567257 2.11473 0.240322 
3.34534 1.75673 0.245444 
2.48542 1.78721 0.247725 
0.000525 1.73151 0.210629 
1.05245 1.67042 0.250313 
2.99313 1.71907 -0.574568 
3.95128 1.69267 0.193548 
0.985909 1.23655 0.246174 
0.567513 1.11086 0.192739 
-0.016472 1.19054 0.249296 
1.17124 1.0902 0.247171 
2.42048 1.09607 0.249674 
2.23086 0.521811 0.196394 
3.17908 0.525865 0.244817 
1.52478 5.04749 0.238711 
1.03309 5.0722 0.263903 
2.43024 4.49484 0.246807 
2.4847 4.49525 0.247792 
3.34543 4.49568 0.245568 
-0.011134 3.90109 0.228685 
-0.076228 3.35473 0.247726 
0.505078 3.35473 0.247726 
3.03119 2.78898 0.225443 
2.94474 2.29653 0.247118 
5.02633 2.33503 0.234632 
1.70344 2.17332 0.247725 
2.42923 2.23886 0.245816 
-0.072894 2.21933 0.237532 
0.461185 2.20425 0.236979 
0.578123 1.73928 0.240929 
0.507859 1.76284 0.247725 
0.074451 1.74458 0.245169 
1.69941 1.74868 0.202116 
1.70338 1.7608 0.247118 
1.13314 1.7364 -0.573535 
2.92641 1.13069 -0.582319 
3.40691 1.10848 0.247469 
4.30385 1.08286 0.247725 
3.32101 0.590205 0.200006 
3.39201 0.628169 0.247461 
1.69548 1.13895 0.240633 
2.64474 0.629909 0.251379 
3.6112 0.593518 0.196493 
2.23086 0.521811 0.196394 
3.24114 0.543328 0.245378 
3.22952 0.054869 0.24754 
3.17833 0.041429 0.247725 
2.27478 -0.021457 0.247725 
5.02887 0.041807 0.247725 
-0.009873 5.04806 0.261519 
-0.016337 4.49913 0.213882 
0.066451 4.56492 0.264518 
0.88549 4.61129 0.262766 
3.30487 4.01186 0.248035 
1.68816 3.99876 0.196581 
-0.025599 4.05502 0.217474 
2.76017 4.04944 0.24024 
2.97543 3.42979 0.248183 
0.508977 3.37931 0.196635 
0.578394 2.85028 0.247725 
3.69886 2.36844 0.239999 
4.29873 2.23161 0.254837 
4.35671 2.05794 0.244844 
4.31354 1.74922 0.19557 
4.7862 1.76294 0.247197 
3.9582 1.61092 0.246881 
4.83363 1.67596 0.261309 
1.18389 1.17711 -0.578688 
1.63875 0.605618 0.247393 
1.95199 5.04494 0.2419 
1.127 3.94042 0.202542 
1.28143 4.01286 0.247387 
2.11227 4.00877 0.232213 
2.27909 3.97727 0.196347 
1.64367 2.88426 0.246754 
0.570038 0.605505 0.247386 
2.19104 0.018867 0.241158 
0.934362 5.05021 0.264546 
4.34971 4.49776 0.246547 
4.95023 4.49469 0.246666 
4.94974 4.01286 0.247726 
0.124917 3.90737 0.26518 
1.04184 3.94346 0.264491 
3.94717 3.46086 0.264814 
4.94987 3.35474 0.247726 
4.35568 3.35249 0.244308 
1.23075 3.33689 0.241759 
3.12471 3.33159 0.243425 
0.505417 2.87383 0.24707 
3.40879 2.84527 0.247725 
3.95417 2.81608 0.202318 
3.87749 2.81717 0.244083 
3.92046 2.38499 0.214414 
4.99271 2.23889 0.242231 
4.99146 0.606672 0.247725 
4.30414 0.522394 0.247216 
5.02943 0.527144 0.239729 
0.861372 0.055729 0.247461 
5.02129 4.55217 0.247455 
1.71541 3.53959 0.241468 
1.64126 3.43009 0.192907 
1.70344 3.35508 0.24763 
1.7031 2.87372 0.246625 
4.3526 0.606027 0.247725 
4.18291 5.07534 0.247455 
4.11898 5.04982 0.247603 
1.38432 3.92851 0.247401 
2.42999 3.35511 0.247664 
-0.055914 1.08995 0.247643 
4.99474 1.0837 0.242109 
-0.05742 0.603949 0.242505 
5.03867 5.03386 0.247017 
-0.028706 0.063427 -0.113455 
-0.010242 0.011881 -0.972778 
0.701058 -0.001647 -0.112974 
2.93667 3.33986 0.236308 
3 0 1 2
3 3 4 5
3 3 5 6
3 0 2 7
3 6 5 8
3 9 10 11
3 12 13 14
3 15 14 16
3 349 17 18
3 350 19 20
3 14 13 16
3 21 22 10
3 350 20 351
3 9 11 23
3 18 352 24
3 10 22 11
3 25 26 27
3 27 26 28
3 25 27 29
3 30 31 32
3 33 34 35
3 35 34 36
3 37 33 35
3 38 39 40
3 41 353 354
3 42 43 44
3 355 356 349
3 45 357 17
3 357 46 352
3 47 48 49
3 26 50 28
3 51 52 53
3 31 54 32
3 55 56 57
3 358 359 58
3 59 60 61
3 62 63 64
3 64 65 62
3 60 66 61
3 59 61 67
3 63 62 360
3 68 69 64
3 69 68 70
3 361 362 71
3 363 72 362
3 73 364 365
3 72 366 74
3 75 76 77
3 78 79 80
3 367 368 81
3 82 367 81
3 83 84 85
3 369 43 42
3 86 87 88
3 89 90 91
3 89 91 92
3 87 93 88
3 86 88 94
3 85 84 42
3 90 370 91
3 80 79 95
3 81 368 96
3 97 371 372
3 98 99 100
3 98 100 101
3 102 373 374
3 103 104 105
3 372 375 106
3 107 376 377
3 378 379 377
3 18 24 108
3 380 379 381
3 109 110 111
3 110 112 113
3 114 115 116
3 111 110 113
3 117 118 119
3 120 121 122
3 123 47 124
3 125 123 124
3 126 382 383
3 122 121 127
3 114 384 115
3 119 118 385
3 385 118 128
3 386 387 129
3 388 389 390
3 130 131 132
3 131 133 132
3 134 135 136
3 137 391 138
3 386 139 392
3 136 135 393
3 138 394 395
3 48 140 49
3 133 131 141
3 142 143 144
3 145 146 147
3 148 149 150
3 151 152 153
3 142 144 154
3 145 147 155
3 156 157 158
3 152 159 153
3 396 397 160
3 142 154 30
3 148 150 398
3 161 162 163
3 164 165 166
3 167 168 169
3 170 399 400
3 162 171 163
3 401 402 172
3 403 404 173
3 174 170 400
3 175 176 177
3 178 405 406
3 407 173 179
3 406 168 178
3 176 408 177
3 166 165 180
3 32 54 409
3 410 411 181
3 56 182 57
3 183 184 185
3 183 186 187
3 182 187 188
3 189 190 191
3 191 190 192
3 187 186 412
3 185 184 193
3 188 187 412
3 413 410 194
3 195 414 196
3 197 198 199
3 185 193 415
3 190 198 192
3 416 417 200
3 198 197 192
3 201 202 203
3 204 205 206
3 207 208 209
3 412 210 211
3 202 212 203
3 213 418 214
3 204 206 419
3 420 215 216
3 207 421 422
3 207 422 208
3 211 210 423
3 217 424 353
3 425 364 426
3 72 363 426
3 356 366 45
3 427 428 429
3 430 41 431
3 432 433 434
3 218 435 104
3 105 104 435
3 219 118 127
3 436 437 220
3 437 438 220
3 221 439 394
3 51 134 52
3 387 440 441
3 139 222 392
3 134 223 52
3 224 442 441
3 224 395 442
3 443 444 445
3 443 225 444
3 446 447 448
3 441 226 227
3 441 227 228
3 229 396 230
3 449 450 231
3 449 231 232
3 230 396 160
3 451 452 167
3 233 453 454
3 407 455 167
3 168 167 234
3 456 405 178
3 173 407 403
3 235 454 457
3 458 457 459
3 236 235 460
3 461 416 194
3 462 463 194
3 464 237 465
3 465 238 75
3 239 430 466
3 72 73 467
3 72 467 468
3 46 433 432
3 349 45 17
3 380 469 240
3 18 108 241
3 240 470 471
3 241 436 382
3 118 242 127
3 243 439 221
3 438 391 472
3 391 244 138
3 226 440 392
3 473 137 446
3 444 225 474
3 224 475 476
3 477 478 222
3 245 448 451
3 227 226 479
3 226 478 480
3 481 477 453
3 475 482 483
3 403 452 483
3 482 484 403
3 405 157 169
3 456 157 405
3 167 455 234
3 484 246 235
3 234 455 485
3 235 458 460
3 178 486 487
3 486 488 489
3 490 200 417
3 491 413 194
3 194 247 491
3 196 420 39
3 213 492 418
3 493 358 58
3 494 247 495
3 248 496 497
3 249 214 495
3 250 498 214
3 499 500 501
3 465 75 354
3 502 75 238
3 71 74 355
3 45 468 503
3 41 504 431
3 428 505 251
3 503 506 46
3 432 507 46
3 107 24 507
3 379 380 508
3 243 509 129
3 226 441 440
3 245 510 446
3 446 252 447
3 245 446 448
3 253 156 511
3 512 513 514
3 513 401 514
3 456 515 516
3 515 456 178
3 484 235 517
3 181 485 179
3 254 234 411
3 414 195 458
3 200 490 518
3 200 39 38
3 488 247 494
3 365 519 239
3 239 353 41
3 76 255 429
3 366 72 45
3 520 504 521
3 504 522 431
3 433 523 434
3 470 256 386
3 524 509 221
3 387 243 129
3 244 391 438
3 243 387 441
3 457 458 235
3 525 195 196
3 257 526 40
3 464 424 258
3 258 424 217
3 527 502 238
3 426 364 72
3 500 255 501
3 255 502 501
3 71 528 529
3 77 504 41
3 73 466 433
3 467 73 433
3 259 530 260
3 429 520 521
3 356 45 349
3 46 45 503
3 355 97 530
3 251 531 532
3 520 251 532
3 251 469 531
3 352 46 24
3 349 18 241
3 375 533 241
3 508 380 240
3 261 262 375
3 534 261 535
3 508 536 379
3 537 436 108
3 508 471 538
3 436 220 539
3 220 540 539
3 220 472 541
3 541 540 220
3 540 542 445
3 243 441 439
3 542 540 541
3 222 226 392
3 542 443 445
3 543 225 443
3 253 245 156
3 447 252 452
3 252 476 452
3 245 157 156
3 443 511 513
3 226 233 479
3 224 228 482
3 475 224 482
3 234 178 168
3 178 263 402
3 411 234 181
3 490 236 460
3 410 181 194
3 525 458 195
3 488 254 411
3 194 181 461
3 200 194 416
3 39 525 196
3 518 39 200
3 247 488 491
3 39 264 40
3 200 38 462
3 492 488 494
3 418 492 494
3 544 545 546
3 39 547 264
3 496 265 463
3 247 265 495
3 465 237 238
3 217 353 239
3 75 41 354
3 239 73 365
3 71 259 361
3 548 361 259
3 255 76 75
3 71 72 74
3 255 500 427
3 239 41 430
3 73 239 466
3 259 71 529
3 429 255 427
3 528 71 355
3 45 46 357
3 371 97 349
3 98 549 435
3 251 266 469
3 533 349 241
3 24 46 507
3 520 532 379
3 379 550 377
3 261 375 241
3 508 240 471
3 550 379 536
3 261 241 382
3 537 108 24
3 267 537 24
3 261 382 126
3 261 126 535
3 551 221 552
3 508 538 129
3 243 221 509
3 221 244 552
3 244 438 552
3 540 126 383
3 509 508 129
3 446 472 473
3 244 394 138
3 245 542 510
3 224 138 395
3 252 224 476
3 478 226 222
3 443 513 512
3 246 482 479
3 482 403 483
3 453 480 481
3 246 233 454
3 482 246 484
3 167 403 407
3 173 181 179
3 263 268 402
3 178 254 486
3 486 254 488
3 488 492 489
3 247 194 463
3 553 213 545
3 544 553 545
3 269 462 526
3 216 270 547
3 554 555 362
3 519 217 239
3 502 255 75
3 364 73 72
3 72 71 362
3 77 41 75
3 468 45 72
3 259 529 530
3 428 251 429
3 522 504 523
3 433 522 523
3 506 433 46
3 520 429 251
3 523 504 556
3 355 349 97
3 520 556 504
3 98 435 218
3 378 520 379
3 377 550 107
3 24 107 557
3 107 550 551
3 241 108 436
3 107 551 557
3 261 534 262
3 24 557 267
3 550 524 221
3 551 550 221
3 538 386 129
3 388 126 389
3 126 540 389
3 394 244 221
3 220 438 472
3 137 138 252
3 446 137 252
3 542 245 253
3 224 441 228
3 443 542 253
3 224 252 138
3 511 443 253
3 245 451 157
3 233 226 480
3 477 271 272
3 172 543 401
3 456 158 157
3 401 513 516
3 480 453 233
3 452 403 167
3 451 167 157
3 479 233 246
3 513 456 516
3 169 157 167
3 454 235 246
3 517 235 236
3 517 236 490
3 404 517 490
3 404 490 461
3 485 181 234
3 178 234 254
3 173 404 461
3 263 178 487
3 181 173 461
3 458 459 558
3 487 559 263
3 553 492 213
3 560 420 196
3 194 200 462
3 544 546 273
3 462 269 497
3 247 463 265
3 477 272 453
3 269 526 257
3 274 554 561
3 260 530 97
3 262 534 388
3 275 519 425
3 276 527 238
3 561 548 274
3 256 277 386
3 495 265 249
3 278 388 390
3 555 554 279
3 225 543 172
3 172 402 268
3 273 546 498
3 280 217 519
3 469 266 240
3 281 390 474
3 225 281 474
3 222 271 477
3 500 266 505
3 386 277 139
3 459 282 558
3 283 263 559
3 559 544 273
3 251 505 266
3 270 264 547
3 527 284 499
3 278 390 281
3 453 282 459
3 560 558 285
3 264 257 40
3 286 425 555
3 262 106 375
3 560 285 420
3 264 270 257
3 258 237 464
3 266 500 287
3 372 260 97
3 269 288 497
3 265 496 248
3 215 270 216
3 288 248 497
3 548 259 289
3 276 284 527
3 499 284 500
3 279 554 274
3 258 217 280
3 559 273 290
3 291 273 498
3 250 291 498
3 292 470 240
3 470 277 256
3 453 293 282
3 290 294 559
3 558 295 285
3 296 270 215
3 237 276 238
3 272 293 453
3 294 283 559
3 297 372 106
3 283 268 263
3 214 298 250
3 299 296 215
3 298 214 249
3 297 260 372
3 519 300 280
3 270 301 257
3 302 275 425
3 303 172 268
3 500 284 304
3 303 268 305
3 269 257 301
3 139 271 222
3 306 298 249
3 276 237 258
3 300 519 275
3 307 274 548
3 268 294 305
3 306 248 288
3 274 307 279
3 280 300 258
3 304 287 500
3 308 225 172
3 420 309 215
3 215 309 299
3 286 302 425
3 266 310 240
3 303 308 172
3 265 306 249
3 292 240 310
3 295 558 282
3 311 291 250
3 289 259 260
3 311 250 298
3 300 276 258
3 312 302 286
3 312 286 555
3 470 292 277
3 313 262 388
3 265 248 306
3 302 300 275
3 312 555 279
3 314 262 313
3 139 277 315
3 290 273 291
3 307 548 289
3 262 314 106
3 278 313 388
3 281 225 308
3 305 294 290
3 420 285 309
3 288 269 301
3 316 270 296
3 316 301 270
3 276 304 284
3 317 307 289
3 266 287 310
3 277 292 315
3 315 318 139
3 319 281 308
3 271 139 293
3 271 293 272
3 305 290 320
3 295 282 285
3 320 290 291
3 321 322 323
3 321 324 322
3 298 306 325
3 296 299 309
3 323 311 298
3 323 322 311
3 322 324 311
3 324 291 311
3 324 326 291
3 307 327 279
3 307 317 327
3 139 318 293
3 282 328 285
3 285 328 309
3 326 320 291
3 329 323 298
3 329 321 323
3 329 324 321
3 330 304 276
3 317 289 331
3 260 297 314
3 314 297 106
3 310 332 292
3 292 332 333
3 313 278 319
3 319 278 281
3 308 303 305
3 305 320 308
3 329 326 324
3 331 289 260
3 331 260 314
3 292 333 315
3 314 313 319
3 329 298 325
3 327 312 279
3 293 334 282
3 276 335 330
3 276 300 335
3 302 312 336
3 330 337 310
3 330 335 337
3 300 302 335
3 312 338 336
3 312 327 338
3 327 339 338
3 327 331 339
3 327 317 331
3 304 330 287
3 302 336 335
3 287 330 310
3 338 339 340
3 338 340 341
3 340 342 341
3 340 339 342
3 341 342 343
3 342 339 343
3 339 331 343
3 341 343 338
3 343 336 338
3 331 314 343
3 332 310 337
3 336 343 335
3 333 332 344
3 335 343 345
3 333 344 315
3 337 344 332
3 343 314 345
3 315 344 346
3 335 345 347
3 337 335 347
3 315 346 318
3 345 314 319
3 344 337 346
3 337 347 348
3 346 337 348
3 345 319 308
3 345 308 320
3 318 346 334
3 293 318 334
3 348 347 328
3 346 348 328
3 325 345 320
3 334 346 282
3 282 346 328
3 325 320 329
3 345 325 347
3 329 320 326
3 288 347 306
3 328 316 296
3 562 563 564
3 328 347 316
3 347 288 301
3 347 325 306
3 347 301 316
3 565 122 127
3 242 565 127
3 268 283 294
