ply
format ascii 1.0
comment INFO-3111 Flatenator generated
comment TextureFile Dungeons_Texture_01.png
element vertex 231
property float x
property float y
property float z
element face 208
property list uchar int vertex_indices
end_header
2.64138 -0.16552 0.417651 
1.41663 -0.16552 0.417651 
3.95116 -0.16552 0.417651 
0.595888 -0.16552 0.417651 
1.85287 -0.16552 0.417651 
3.11462 -0.16552 0.417651 
4.34385 -0.16552 0.417651 
0.534486 -0.16552 0.496251 
0.163732 -0.16552 0.496251 
1.79147 -0.16552 0.496251 
1.47803 -0.16552 0.496251 
3.05321 -0.16552 0.496251 
2.70279 -0.16552 0.496251 
4.28245 -0.16552 0.496251 
4.01257 -0.16552 0.496251 
4.40525 -0.16552 0.496251 
4.83627 -0.16552 0.496251 
2.57998 -0.16552 0.496251 
1.91428 -0.16552 0.496251 
1.35523 -0.16552 0.496251 
0.657293 -0.16552 0.496251 
3.88976 -0.16552 0.496251 
3.17602 -0.16552 0.496251 
4.83627 -1.83726 0.496251 
4.45825 -1.83726 0.496251 
4.39685 -1.83726 0.417651 
4.33545 -1.83726 0.553632 
4.09728 -1.83726 0.553632 
3.99556 -1.83726 0.417651 
3.93415 -1.83726 0.444752 
3.16385 -1.83726 0.451181 
3.02088 -1.83726 0.42837 
2.9692 -1.83726 0.542328 
2.70631 -1.83726 0.553047 
2.61577 -1.83726 0.417651 
2.55437 -1.83726 0.496251 
1.9707 -1.83726 0.496251 
1.88196 -1.83726 0.417651 
1.75703 -1.83726 0.496251 
1.45297 -1.83726 0.496251 
1.39156 -1.83726 0.417651 
1.33016 -1.83726 0.496251 
0.708307 -1.83726 0.496251 
0.595888 -1.83726 0.417651 
0.534486 -1.83726 0.478204 
0.163732 -1.83726 0.478204 
4.83627 -1.12153 0.508418 
4.4166 -0.979036 0.508418 
4.3552 -0.979036 0.417651 
4.2938 -0.979036 0.487281 
4.00218 -1.06866 0.487281 
3.94078 -1.06866 0.417651 
3.87938 -1.06866 0.496251 
3.17602 -1.12153 0.496251 
3.11462 -1.12153 0.417651 
2.96289 -1.12804 0.44057 
2.71342 -1.15805 0.44057 
2.65201 -1.15805 0.417651 
2.59061 -1.15805 0.496251 
1.93474 -0.978566 0.496251 
1.87333 -0.978566 0.417651 
1.81193 -0.955667 0.438786 
1.52601 -1.09863 0.438786 
1.4646 -1.12153 0.417651 
1.39947 -1.12153 0.52208 
0.708217 -1.20352 0.52208 
0.646812 -1.20352 0.417651 
0.585411 -1.20352 0.496251 
0.163732 -1.12153 0.496251 
3.03762 -0.802815 0.451515 
3.00358 -1.43173 0.46091 
5 0 0.6067 
0 0 0.6067 
5 -2.00278 0.6067 
0 -2.00278 0.6067 
4.71463 -0.286192 0.6067 
0.278095 -0.270296 0.6067 
0.287106 -1.6972 0.6067 
4.72268 -1.71627 0.6067 
4.67143 -0.32939 0.414019 
0.321297 -0.313496 0.414019 
0.330303 -1.654 0.414019 
4.67948 -1.67308 0.414019 
5 0 0 
0 0 0 
5 -2.00278 0 
0 -2.00278 0 
0.253983 -0.758284 0.414019 
0.210785 -0.739555 0.6067 
0 -0.639927 0.6067 
0 -0.648169 0 
0 -1.301 0 
0 -1.30799 0.6067 
0.210785 -1.22357 0.6067 
0.253983 -1.2077 0.414019 
4.74602 -1.24081 0.414019 
4.78922 -1.25775 0.6067 
5 -1.34789 0.6067 
5 -1.34044 0 
5 -0.680576 0 
5 -0.67174 0.6067 
4.78922 -0.778576 0.6067 
4.74602 -0.79866 0.414019 
4.15405 -2.00278 0 
4.16007 -2.00278 0.6067 
4.12 -1.83215 0.6067 
4.07375 -1.7488 0.414019 
1.24174 -1.7488 0.414019 
1.2272 -1.79199 0.6067 
1.14986 -2.00278 0.6067 
1.15626 -2.00278 0 
0.954239 -0.253986 0.414019 
0.896095 -0.133812 0.6067 
0.822163 0 0.6067 
0.83136 0 0 
4.11024 -0.253986 0.414019 
4.12241 -0.210789 0.6067 
4.18712 0 0.6067 
4.18176 0 0 
0.63496 -0.237886 0.6067 
1.29402 -0.210789 0.6067 
4.42661 -1.75156 0.6067 
3.6965 -1.79199 0.6067 
0.993783 -1.83726 0.42894 
1.01043 -1.16272 0.454769 
0.980623 -0.16552 0.42894 
2.18226 -1.83726 0.42894 
2.24935 -1.07527 0.42894 
2.21178 -0.165518 0.42894 
3.52318 -1.83726 0.380533 
3.5006 -1.09409 0.42894 
3.50599 -0.165518 0.42894 
0.910019 -0.165521 0.496251 
0.945916 -1.17449 0.52208 
0.934099 -1.83726 0.496251 
1.04335 -1.83726 0.496251 
1.064 -1.15295 0.52208 
1.03926 -0.16552 0.496251 
2.15741 -0.165518 0.496251 
2.20493 -1.04471 0.496251 
2.12644 -1.83726 0.496251 
2.25766 -1.83726 0.496251 
2.31467 -1.10233 0.496251 
2.2859 -0.165518 0.496251 
3.4503 -0.165518 0.496251 
3.44609 -1.10008 0.496251 
3.46109 -1.83726 0.448572 
3.58747 -1.83726 0.44709 
3.55703 -1.08789 0.496251 
3.56364 -0.165518 0.496251 
0.585411 -1.20352 0.496251 
1.81193 -0.955667 0.438786 
3.03762 -0.802815 0.451515 
2.71342 -1.15805 0.44057 
4.2938 -0.979036 0.487281 
4.4166 -0.979036 0.508418 
4.45825 -1.83726 0.496251 
4.00218 -1.06866 0.487281 
3.00358 -1.43173 0.46091 
2.70631 -1.83726 0.553047 
1.52601 -1.09863 0.438786 
1.75703 -1.83726 0.496251 
2.96289 -1.12804 0.44057 
0.210785 -1.22357 0.6067 
3.6965 -1.79199 0.6067 
4.78922 -1.25775 0.6067 
0.822163 0 0.6067 
0 0 0.6067 
5 -1.34789 0.6067 
0 -1.30799 0.6067 
4.16007 -2.00278 0.6067 
0.210785 -0.739555 0.6067 
0.278095 -0.270296 0.6067 
0 -0.639927 0.6067 
4.72268 -1.71627 0.6067 
5 -0.67174 0.6067 
4.78922 -0.778576 0.6067 
5 -2.00278 0.6067 
4.42661 -1.75156 0.6067 
0.287106 -1.6972 0.6067 
0 -2.00278 0.6067 
1.14986 -2.00278 0.6067 
1.29402 -0.210789 0.6067 
4.71463 -0.286192 0.6067 
4.18712 0 0.6067 
5 0 0.6067 
0.896095 -0.133812 0.6067 
4.12 -1.83215 0.6067 
0.657293 -0.16552 0.496251 
0.708217 -1.20352 0.52208 
1.064 -1.15295 0.52208 
1.39947 -1.12153 0.52208 
1.93474 -0.978566 0.496251 
2.20493 -1.04471 0.496251 
1.9707 -1.83726 0.496251 
2.59061 -1.15805 0.496251 
3.44609 -1.10008 0.496251 
3.17602 -0.16552 0.496251 
3.17602 -1.12153 0.496251 
3.46109 -1.83726 0.448572 
3.87938 -1.06866 0.496251 
3.88976 -0.16552 0.496251 
4.40525 -0.16552 0.496251 
2.15741 -0.165518 0.496251 
0.534486 -0.16552 0.496251 
1.79147 -0.16552 0.496251 
1.47803 -0.16552 0.496251 
3.05321 -0.16552 0.496251 
2.70279 -0.16552 0.496251 
4.28245 -0.16552 0.496251 
4.01257 -0.16552 0.496251 
2.57998 -0.16552 0.496251 
1.35523 -0.16552 0.496251 
4.33545 -1.83726 0.553632 
4.09728 -1.83726 0.553632 
2.9692 -1.83726 0.542328 
1.33016 -1.83726 0.496251 
0.534486 -1.83726 0.478204 
1.45297 -1.83726 0.496251 
0.63496 -0.237886 0.6067 
1.2272 -1.79199 0.6067 
4.12241 -0.210789 0.6067 
1.03926 -0.16552 0.496251 
0.708307 -1.83726 0.496251 
1.04335 -1.83726 0.496251 
1.91428 -0.16552 0.496251 
2.12644 -1.83726 0.496251 
2.55437 -1.83726 0.496251 
3.4503 -0.165518 0.496251 
3.16385 -1.83726 0.451181 
3.93415 -1.83726 0.444752 
3 16 47 46
3 128 139 127
3 124 132 133
3 130 144 145
3 7 68 67
3 10 61 9
3 56 55 69
3 14 49 13
3 3 150 66
3 4 151 60
3 62 1 63
3 5 152 54
3 153 0 57
3 6 154 48
3 50 2 51
3 15 48 155
3 0 58 57
3 18 60 59
3 1 64 63
3 20 66 65
3 21 51 2
3 22 54 53
3 46 24 23
3 155 25 156
3 154 25 48
3 157 26 49
3 50 28 27
3 29 51 52
3 146 130 145
3 30 54 31
3 70 31 54
3 33 32 158
3 153 34 159
3 58 34 57
3 140 127 139
3 59 37 36
3 39 63 40
3 64 40 63
3 133 123 124
3 42 66 43
3 150 43 66
3 45 67 68
3 160 38 61
3 161 60 151
3 152 162 54
3 162 70 54
3 113 72 76
3 88 92 93
3 104 105 122
3 97 101 96
3 119 80 111
3 87 163 94
3 107 164 106
3 165 102 95
3 166 84 167
3 99 168 98
3 169 90 91
3 170 110 103
3 171 80 172
3 89 76 72
3 173 84 90
3 169 86 74
3 92 77 93
3 163 81 94
3 165 82 78
3 97 174 73
3 168 85 98
3 100 83 71
3 175 75 101
3 176 79 102
3 170 85 177
3 104 73 121
3 178 82 106
3 108 81 179
3 109 77 180
3 181 86 110
3 115 120 111
3 113 112 182
3 114 117 118
3 116 79 183
3 184 75 185
3 117 83 118
3 111 120 186
3 111 186 119
3 106 164 187
3 106 187 178
3 124 135 136
3 136 125 124
3 126 142 127
3 143 127 142
3 130 147 148
3 148 131 130
3 133 188 189
3 189 134 133
3 190 41 191
3 137 191 19
3 138 192 193
3 194 193 192
3 141 195 142
3 17 142 195
3 196 197 198
3 198 199 196
3 147 200 148
3 149 200 201
3 16 202 47
3 128 203 139
3 124 125 132
3 130 131 144
3 7 8 68
3 10 160 61
3 69 11 12
3 12 56 69
3 14 157 49
3 3 204 150
3 4 205 151
3 62 206 1
3 5 207 152
3 153 208 0
3 6 209 154
3 50 210 2
3 15 6 48
3 0 211 58
3 18 4 60
3 1 212 64
3 20 3 66
3 21 52 51
3 22 5 54
3 46 47 24
3 155 48 25
3 154 213 25
3 157 214 26
3 50 51 28
3 29 28 51
3 146 129 130
3 30 53 54
3 70 215 31
3 55 56 158
3 56 33 158
3 153 57 34
3 58 35 34
3 140 126 127
3 59 60 37
3 39 62 63
3 64 216 40
3 133 134 123
3 42 65 66
3 150 44 43
3 45 217 67
3 160 218 38
3 161 37 60
3 76 219 113
3 219 112 113
3 88 89 92
3 122 220 109
3 109 104 122
3 97 175 101
3 119 172 80
3 87 171 163
3 107 108 164
3 165 176 102
3 166 114 84
3 99 100 168
3 169 173 90
3 170 181 110
3 171 87 80
3 89 88 76
3 173 167 84
3 169 91 86
3 92 180 77
3 163 179 81
3 165 95 82
3 97 96 174
3 168 177 85
3 100 99 83
3 175 185 75
3 176 183 79
3 170 103 85
3 174 121 73
3 121 105 104
3 178 78 82
3 108 107 81
3 109 220 77
3 181 74 86
3 115 116 120
3 182 221 184
3 184 113 182
3 114 166 117
3 116 115 79
3 184 221 75
3 117 71 83
3 124 123 135
3 136 222 125
3 126 141 142
3 143 128 127
3 130 129 147
3 148 149 131
3 133 132 188
3 189 223 134
3 190 224 41
3 137 190 191
3 138 225 192
3 194 226 193
3 141 227 195
3 17 143 142
3 196 228 197
3 198 229 199
3 147 230 200
3 149 148 200
