ply
format ascii 1.0
comment INFO-3111 Flatenator generated
comment TextureFile Dungeons_Texture_01.png
element vertex 478
property float x
property float y
property float z
element face 700
property list uchar int vertex_indices
end_header
1.17168 0.027854 4.99947 
1.14297 0.047324 4.95243 
0.507799 -6.1e-05 4.99927 
1.34764 -9.1e-05 4.99931 
1.78146 0.047034 4.95431 
2.54652 0.046924 4.89611 
2.36565 0.037949 4.9986 
2.50347 -0.000136 4.99934 
3.09093 0.046994 4.90767 
3.06639 0.028079 4.99998 
4.31234 0.047399 4.89753 
3.73046 0.028074 4.99998 
4.10155 0.037724 4.99943 
3.74998 -7.1e-05 4.99927 
4.99998 0.037309 4.99998 
5 -1e-06 5 
0.048079 0.045919 4.94944 
5e-05 1.4e-05 4.99992 
1.34764 -9.1e-05 4.99931 
3.18358 -0.003126 4.99927 
2.27483 0.083114 4.98036 
1.74759 0.085919 4.95431 
3.18541 0.038019 4.93671 
0.879959 0.098029 4.91542 
0.539598 0.088299 4.93897 
1.26418 0.095299 4.80934 
1.13889 0.104539 4.85972 
1.25558 0.048734 4.92074 
3.72834 0.046964 4.91609 
4.64835 -0.003241 3.37891 
4.99926 -6.1e-05 4.72655 
0.207129 0.098169 4.8452 
0.04916 0.095604 4.82797 
1.26234 0.081059 4.91102 
2.39106 0.083769 4.82048 
3.85821 0.046309 4.87154 
4.93603 0.047199 4.89727 
0 -1e-06 5 
1.1328 -0.00324 0.89842 
3.70144 0.096269 4.87757 
3.24312 0.073315 4.90176 
4.87307 0.098104 4.87613 
4.06109 0.080649 4.87385 
3.0571 0.086334 4.88316 
2.54397 0.082119 4.89819 
3.194 0.096259 4.82236 
3.87855 0.085409 4.81033 
4.93423 0.076919 4.8339 
2.80309 0.088034 4.84249 
0.028799 0.040509 4.10172 
2.5469 0.048189 4.42492 
3.19394 0.096264 4.42832 
4.99795 0.037304 4.5508 
3.74494 0.096174 4.42848 
2.5471 0.095429 4.42816 
0.049309 0.095604 4.21091 
4.7399 0.098174 4.50234 
3.09816 0.094294 4.42832 
3.80862 0.042319 4.41402 
3.85699 0.047694 4.21292 
1.19135 0.042339 4.41251 
3.89376 0.090214 4.50235 
3.1 0.047544 4.42733 
3.87615 0.097949 4.08692 
2.24057 0.090799 4.45494 
2.42119 0.086699 4.37884 
4.91544 0.097889 4.41855 
2.42978 0.044429 4.25571 
1.33076 0.046309 3.79847 
2.50512 0.036449 4.33642 
4.99926 -6.1e-05 4.10155 
4.93564 0.047244 4.09855 
3.30015 0.042384 4.31445 
3.14996 0.047449 4.29341 
3.73863 0.047114 4.26876 
1.3314 0.101974 3.80525 
3.32849 0.098169 4.2371 
3.70641 0.092284 4.24414 
3.1335 0.091499 4.23651 
2.63079 0.097869 4.25133 
2.56076 0.056989 4.29234 
4.91835 0.098044 3.88052 
2.56074 0.086364 3.40923 
2.42971 0.046479 3.88861 
3.05851 0.097939 4.02316 
1.17939 0.095424 3.82033 
3.25859 0.063869 4.07655 
3.37238 0.081084 4.07903 
0.00071 -6.1e-05 3.55467 
5 -0.003126 3.16405 
0.049799 0.045544 3.82239 
3.69691 0.083744 3.94122 
0.156609 0.095594 3.8208 
1.19122 0.042309 3.80876 
2.68785 0.097854 3.56887 
3.31015 0.094709 3.95733 
2.55803 0.042319 3.63108 
2.38459 0.092386 3.88219 
4.62251 0.098169 3.61099 
3.72079 0.097764 3.83791 
4.91855 0.098019 3.58953 
3.73831 0.047159 3.5452 
3.8479 0.042309 3.55473 
2.0738 0.046574 3.85073 
2.41814 0.044154 3.71514 
2.66793 0.075104 3.47486 
0.721989 0.042324 3.80859 
4.97471 0.046409 3.57129 
2.15558 0.036374 3.71317 
1.96462 0.048294 3.71575 
3.58724 0.098209 3.24837 
0.1462 0.047304 3.72527 
1.17546 0.047194 3.72441 
1.08378 0.093139 3.72215 
0.14744 0.094824 3.72386 
2.4064 0.088784 3.70561 
1.3408 0.092469 3.72138 
1.89169 0.083439 3.71753 
0.07164 0.047324 3.66975 
0.147469 0.09807 2.98051 
2.908 0.097739 3.56884 
3.85699 0.095324 3.57038 
0.826929 0.096134 3.35479 
2.4238 0.086229 3.53593 
0.00071 -0.003125 2.79295 
0.09362 0.086989 3.50587 
0.017439 0.030249 3.08592 
2.42587 0.095245 2.55694 
1.1347 0.099563 3.40541 
2.44085 0.042274 3.45608 
4.41294 0.047504 3.56931 
2.42068 0.050354 3.31833 
2.55794 0.042319 3.22267 
3.80865 0.042319 3.20315 
4.6693 0.047929 3.39301 
4.36554 0.047594 3.37911 
2.64866 0.098174 3.24846 
3.73641 0.104674 3.27202 
4.04381 0.042774 3.32028 
2.42217 0.091054 3.23123 
4.66281 0.073824 3.43368 
4.05212 0.122684 3.3312 
3.73837 0.047184 3.23474 
4.97668 0.042319 3.10249 
4.7572 0.04682 2.88938 
1.02956 0.09811 2.5705 
3.62098 0.155379 3.25614 
2.44128 0.04231 2.53907 
0.696449 0.097485 2.88496 
4.19982 0.0423 3.02771 
0.099619 0.090675 2.96119 
3.76306 0.078284 3.17718 
0.07378 0.045505 2.55947 
0.4965 0.097495 2.9254 
4.19381 0.07837 2.49022 
2.5638 0.09516 2.57736 
3.73912 0.046995 2.577 
2.55745 0.04232 2.59672 
4.99942 0.037725 2.65623 
4.28555 0.05048 2.94455 
4.28639 0.14404 2.4941 
4.76896 0.092505 2.59937 
0.44157 0.095095 2.5571 
5 -0.002865 2.3828 
3.72226 0.10868 2.57201 
4.40003 0.05037 2.74828 
4.56583 0.1218 2.53059 
0.094028 0.085585 2.57214 
3.77784 0.18235 2.39684 
0.276119 0.09521 2.55708 
4.81686 0.037615 2.54586 
4.92761 0.046425 2.47343 
4.49364 0.0441 2.59863 
4.99952 0.037705 1.75783 
4.28379 0.04733 2.47401 
0.0005 0.03776 2.48044 
0.349789 0.040095 2.55668 
1.45138 0.047485 2.55643 
4.5295 0.05671 2.51615 
1.06689 0.046745 2.47851 
2.57451 0.0472 2.47447 
2.86844 0.04718 2.47433 
4.53048 0.042545 2.49881 
3.76906 0.09684 2.47313 
0.45034 0.045875 2.46166 
3.6227 0.047225 2.47451 
4.46344 0.09511 2.47543 
4.70517 0.09479 2.473 
4.68603 0.04525 2.47826 
3.54768 0.094395 2.47098 
4.89759 0.08755 2.46282 
2.7758 0.08048 2.46516 
2.57402 0.095615 2.47268 
2.94149 0.09447 2.46911 
1.88645 0.04768 2.43642 
3.82143 0.10818 2.39317 
2.14195 0.098855 2.40402 
1.08123 0.09604 2.475 
0.087679 0.087555 2.36783 
1.61206 0.108225 2.36881 
0.22142 0.09816 2.39195 
0.474419 0.09605 2.42591 
0.848999 0.09587 2.42556 
0.90074 0.045145 2.42538 
2.52262 0.095575 2.39647 
-1.1e-05 0.028105 2.26561 
3.74669 0.084585 2.23814 
1.37662 0.09667 2.16227 
2.52884 0.042475 2.2012 
1.53247 0.047085 1.98128 
2.51451 0.09565 2.26602 
2.57446 0.096115 2.1262 
1.13472 0.043205 2.1899 
4.92567 0.0966 2.08335 
2.12045 0.098175 2.10171 
0.00071 -0.003125 1.54295 
1.15785 0.124692 1.49659 
1.21871 0.096285 2.06502 
3.74656 0.08788 2.08239 
4.92813 0.04652 1.73894 
3.03337 0.095085 1.73938 
2.49496 0.09576 1.93932 
5 -0.002725 1.09373 
0.071699 0.04716 1.67343 
4.11748 0.09504 1.73938 
2.57462 0.04721 1.73821 
1.32657 0.041645 1.99139 
4.27733 -0.00324 0.37108 
1.62101 0.09535 1.88854 
1.26874 0.078455 1.88021 
2.57517 0.09487 1.73938 
0.09861 0.089765 1.41695 
4.83411 0.098175 1.75102 
2.48068 0.095405 1.65444 
3.98818 0.08258 1.74676 
2.48222 0.047565 1.65363 
1.47076 0.097935 1.81163 
0.005629 0.03541 1.60156 
1.25556 0.076425 1.43828 
1.85976 0.047005 1.627 
2.07035 0.09528 1.40366 
3.69644 0.047315 1.73864 
4.01166 0.0473 1.73872 
4.52284 0.047225 1.7388 
4.19951 0.036215 1.68736 
3.88576 0.043435 1.66004 
4.92883 0.045675 1.62959 
3.16411 0.04232 1.68008 
2.57074 0.051405 1.633 
4.85302 0.098145 1.61359 
4.46661 0.09339 1.62096 
2.59161 0.098065 1.61365 
3.71909 0.100905 1.60684 
4.28563 0.06197 1.62978 
4.15751 0.104595 1.58998 
2.07254 0.042435 1.24746 
1.45439 0.098175 0.98909 
3.56624 0.110493 1.50128 
0.074179 0.07685 0.91711 
1.94254 0.0981 1.35698 
2.57439 0.09551 0.76597 
4.6689 0.098175 1.36044 
0.00071 -0.003125 1.54295 
4.26235 0.06989 1.41735 
4.90071 0.088985 1.28092 
4.0808 0.098175 1.22518 
2.46041 0.04231 0.99626 
0.01882 -0.003125 1.28905 
1.2788 0.078685 1.20421 
4.42986 0.098175 1.26189 
2.57385 0.04746 0.83639 
2.44317 0.095775 1.00456 
1.17529 0.075565 1.06725 
4.26661 0.081155 1.16287 
0.01882 -0.003125 1.11327 
3.41337 0.098175 0.76865 
4.99998 0.02807 0.8203 
0.00071 -6e-05 1.21092 
4.92823 0.047215 1.08485 
1.12388 0.098175 0.77269 
0.275099 0.098175 0.38427 
0.140839 0.097785 0.37977 
2.42538 0.095895 0.89513 
4.15045 0.06227 0.91029 
4.87085 0.098175 0.67128 
2.44142 0.04232 0.89781 
0.00071 -6e-05 1.21092 
1.33376 0.094505 0.5754 
4.01383 0.098175 0.75145 
0.011549 0.033545 0.70313 
3.0078 -6e-05 0.0007 
2.57378 0.04742 0.57984 
1.14096 0.098175 0.30163 
4.1 0.078985 0.63767 
5 0 0.46873 
1.2569 0.082015 0.24389 
2.68644 0.07632 0.69755 
1.37476 0.098175 0.26378 
4.3749 0.098175 0.49822 
3.78708 0.080915 0.72041 
2.58165 0.06032 0.61623 
3.95319 0.081625 0.63808 
4.92817 0.04715 0.56519 
2.42647 0.04752 0.59863 
3.51103 0.075415 0.63591 
0 0 0 
3.58461 0.0977 0.51727 
2.41671 0.087785 0.0791 
4.90826 0.098075 0.28348 
2.57431 0.095785 0.54128 
0.081369 0.081725 0.36814 
4.13586 0.098175 0.3999 
4.54012 0.09783 0.14826 
2.30467 -0.003125 0 
0.070839 0.046955 0.07482 
4.44774 0.08282 0.28186 
2.57685 0.09487 0.22288 
2.57493 0.047155 0.05215 
0.299068 0.09813 0.26217 
0.88274 0.095155 0.07454 
3.38393 0.09292 0.10686 
0.149858 0.09124 0.08001 
4.85207 0.089165 0.13046 
4.98409 0.02144 0.01374 
1.22715 0.06983 0.08829 
5 0 0 
3.09066 0.09154 0.05222 
1.7882 0.090545 0.10986 
2.6308 0.08945 0.05519 
3.89699 0.08493 0.05683 
2.42569 0.0474 0.07369 
1.43385 0.08488 0.07664 
4.79709 0.082475 0.05535 
0.882069 0.047305 0.07391 
1.19446 0.047395 0.07369 
2.03124 0.03773 0.00055 
3.05337 0.0475 0.04955 
3.56717 0.0475 0.04955 
4.57808 0.047535 0.04955 
0.078199 0.037705 0.00059 
1.01562 0.037755 0.00053 
2.59766 0.037755 0.0005 
3.47656 0.037725 0.00054 
4.10156 0.037725 0.00054 
0.917959 -0.003125 0 
1.24999 -0.003125 0 
3.6328 -6e-05 0.0007 
1.32812 0.037755 0.00053 
3.194 0.096259 4.82236 
3.70144 0.096269 4.87757 
2.80309 0.088034 4.84249 
2.54397 0.082119 4.89819 
0.207129 0.098169 4.8452 
0.04916 0.095604 4.82797 
3.74494 0.096174 4.42848 
3.19394 0.096264 4.42832 
2.5471 0.095429 4.42816 
4.7399 0.098174 4.50234 
4.06109 0.080649 4.87385 
4.87307 0.098104 4.87613 
3.0571 0.086334 4.88316 
3.09816 0.094294 4.42832 
3.87615 0.097949 4.08692 
0.049309 0.095604 4.21091 
4.93423 0.076919 4.8339 
4.91544 0.097889 4.41855 
2.24057 0.090799 4.45494 
1.26418 0.095299 4.80934 
2.27483 0.083114 4.98036 
2.63079 0.097869 4.25133 
3.1335 0.091499 4.23651 
1.3314 0.101974 3.80525 
0.879959 0.098029 4.91542 
1.13889 0.104539 4.85972 
3.05851 0.097939 4.02316 
0.207129 0.098169 4.8452 
1.17939 0.095424 3.82033 
0.156609 0.095594 3.8208 
2.38459 0.092386 3.88219 
0.156609 0.095594 3.8208 
4.91835 0.098044 3.88052 
2.56074 0.086364 3.40923 
2.68785 0.097854 3.56887 
3.72079 0.097764 3.83791 
3.31015 0.094709 3.95733 
0.14744 0.094824 3.72386 
1.08378 0.093139 3.72215 
4.91855 0.098019 3.58953 
2.908 0.097739 3.56884 
0.147469 0.09807 2.98051 
1.3408 0.092469 3.72138 
3.85699 0.095324 3.57038 
1.1347 0.099563 3.40541 
0.826929 0.096134 3.35479 
4.62251 0.098169 3.61099 
1.89169 0.083439 3.71753 
2.66793 0.075104 3.47486 
3.58724 0.098209 3.24837 
2.42217 0.091054 3.23123 
2.64866 0.098174 3.24846 
2.42587 0.095245 2.55694 
4.05212 0.122684 3.3312 
3.62098 0.155379 3.25614 
4.66281 0.073824 3.43368 
4.76896 0.092505 2.59937 
3.77784 0.18235 2.39684 
0.094028 0.085585 2.57214 
3.72226 0.10868 2.57201 
2.5638 0.09516 2.57736 
0.44157 0.095095 2.5571 
1.02956 0.09811 2.5705 
4.56583 0.1218 2.53059 
0.276119 0.09521 2.55708 
4.28639 0.14404 2.4941 
1.61206 0.108225 2.36881 
1.08123 0.09604 2.475 
1.37662 0.09667 2.16227 
4.46344 0.09511 2.47543 
3.74669 0.084585 2.23814 
3.82143 0.10818 2.39317 
4.70517 0.09479 2.473 
4.89759 0.08755 2.46282 
0.474419 0.09605 2.42591 
0.22142 0.09816 2.39195 
1.21871 0.096285 2.06502 
0.848999 0.09587 2.42556 
4.92567 0.0966 2.08335 
2.57446 0.096115 2.1262 
2.94149 0.09447 2.46911 
3.74656 0.08788 2.08239 
3.54768 0.094395 2.47098 
2.51451 0.09565 2.26602 
2.49496 0.09576 1.93932 
1.62101 0.09535 1.88854 
4.11748 0.09504 1.73938 
2.57517 0.09487 1.73938 
2.48068 0.095405 1.65444 
4.92813 0.04652 1.73894 
3.98818 0.08258 1.74676 
3.03337 0.095085 1.73938 
2.07035 0.09528 1.40366 
4.83411 0.098175 1.75102 
1.15785 0.124692 1.49659 
0.09861 0.089765 1.41695 
4.46661 0.09339 1.62096 
4.85302 0.098145 1.61359 
2.57439 0.09551 0.76597 
2.59161 0.098065 1.61365 
3.56624 0.110493 1.50128 
4.90071 0.088985 1.28092 
1.94254 0.0981 1.35698 
1.45439 0.098175 0.98909 
1.47076 0.097935 1.81163 
4.0808 0.098175 1.22518 
4.15751 0.104595 1.58998 
4.42986 0.098175 1.26189 
4.6689 0.098175 1.36044 
2.44317 0.095775 1.00456 
0.140839 0.097785 0.37977 
1.12388 0.098175 0.77269 
4.01383 0.098175 0.75145 
4.87085 0.098175 0.67128 
3.41337 0.098175 0.76865 
1.37476 0.098175 0.26378 
1.14096 0.098175 0.30163 
2.42538 0.095895 0.89513 
4.3749 0.098175 0.49822 
4.90826 0.098075 0.28348 
2.57431 0.095785 0.54128 
3.58461 0.0977 0.51727 
0.88274 0.095155 0.07454 
2.41671 0.087785 0.0791 
4.54012 0.09783 0.14826 
0.149858 0.09124 0.08001 
2.57685 0.09487 0.22288 
3.38393 0.09292 0.10686 
3.09066 0.09154 0.05222 
2.6308 0.08945 0.05519 
3 0 1 2
3 0 3 4
3 5 6 7
3 8 7 9
3 10 11 12
3 4 3 7
3 6 4 7
3 12 11 13
3 14 12 15
3 16 17 2
3 0 2 18
3 9 7 19
3 12 13 15
3 3 0 18
3 11 9 19
3 13 11 19
3 20 21 4
3 6 20 4
3 1 16 2
3 22 9 11
3 23 24 1
3 25 21 20
3 26 23 1
3 0 26 1
3 24 16 1
3 27 0 4
3 8 5 7
3 10 28 11
3 29 19 7
3 30 14 15
3 31 32 16
3 33 21 25
3 34 20 6
3 4 21 33
3 33 27 4
3 35 28 10
3 10 12 36
3 14 36 12
3 37 2 17
3 38 7 3
3 38 29 7
3 29 15 13
3 24 31 16
3 39 40 28
3 40 22 28
3 8 9 22
3 11 28 22
3 18 2 37
3 38 3 18
3 13 19 29
3 41 42 10
3 41 10 36
3 43 44 8
3 44 5 8
3 10 42 35
3 23 31 24
3 39 45 40
3 46 35 42
3 47 41 36
3 43 48 44
3 32 49 16
3 44 50 5
3 51 348 349
3 40 45 22
3 16 37 17
3 52 36 14
3 30 15 29
3 33 25 27
3 5 50 6
3 53 39 28
3 350 54 351
3 52 14 30
3 352 55 353
3 47 56 41
3 43 8 57
3 58 28 35
3 354 51 349
3 45 355 22
3 46 59 35
3 60 0 27
3 42 61 46
3 44 356 50
3 22 62 8
3 357 63 358
3 26 0 60
3 59 58 35
3 359 357 358
3 34 64 20
3 360 361 350
3 362 61 42
3 65 64 34
3 363 49 32
3 37 16 49
3 66 357 364
3 57 8 62
3 34 6 67
3 47 36 365
3 68 60 27
3 61 59 46
3 38 18 37
3 361 54 350
3 25 68 27
3 69 6 50
3 366 367 368
3 65 34 67
3 355 62 22
3 53 28 58
3 29 70 30
3 355 53 58
3 57 62 356
3 50 356 62
3 62 355 58
3 69 67 6
3 52 71 36
3 72 73 62
3 74 72 58
3 62 69 50
3 58 72 62
3 52 30 70
3 366 75 367
3 73 69 62
3 365 36 71
3 76 74 77
3 78 79 73
3 76 72 74
3 79 80 73
3 69 73 80
3 76 73 72
3 81 365 71
3 76 78 73
3 70 71 52
3 59 74 58
3 79 82 80
3 61 362 59
3 80 83 69
3 84 369 370
3 25 371 68
3 85 372 373
3 83 67 69
3 86 78 76
3 87 86 76
3 88 38 37
3 29 89 70
3 363 90 49
3 86 374 78
3 372 85 375
3 65 67 83
3 91 77 74
3 92 55 352
3 376 26 60
3 68 93 60
3 94 369 84
3 91 76 77
3 95 86 87
3 80 82 96
3 80 96 83
3 97 64 65
3 91 87 76
3 98 63 357
3 97 65 83
3 49 88 37
3 99 87 91
3 66 98 357
3 99 95 87
3 60 93 376
3 377 90 363
3 378 75 366
3 100 81 71
3 91 74 101
3 102 74 59
3 99 91 101
3 88 49 90
3 85 379 375
3 380 98 66
3 97 83 103
3 104 103 83
3 96 104 83
3 101 74 102
3 371 97 103
3 86 105 374
3 377 376 106
3 376 93 106
3 100 71 107
3 377 106 90
3 371 103 68
3 104 108 103
3 103 109 68
3 94 381 369
3 105 382 374
3 95 105 86
3 383 110 384
3 70 107 71
3 111 90 106
3 112 111 106
3 112 106 93
3 108 109 103
3 113 114 111
3 115 108 104
3 116 112 109
3 117 116 109
3 112 113 111
3 118 88 90
3 118 90 111
3 93 68 112
3 68 109 112
3 119 385 386
3 120 105 95
3 380 387 98
3 111 114 118
3 362 121 59
3 388 384 110
3 112 122 113
3 123 108 115
3 124 38 88
3 389 125 114
3 114 125 118
3 121 102 59
3 126 88 118
3 127 128 390
3 98 391 63
3 129 108 123
3 107 70 89
3 392 112 116
3 129 109 108
3 393 119 386
3 123 115 104
3 121 394 130
3 121 130 102
3 394 100 130
3 100 107 130
3 96 129 104
3 131 109 129
3 123 104 129
3 96 132 129
3 102 133 101
3 82 132 96
3 127 390 395
3 112 392 122
3 134 135 130
3 107 134 130
3 388 136 396
3 137 397 99
3 99 101 137
3 138 130 135
3 139 109 131
3 105 82 382
3 140 135 134
3 140 141 135
3 130 138 102
3 127 395 398
3 132 131 129
3 137 101 142
3 141 138 135
3 143 144 107
3 126 124 88
3 127 145 128
3 82 105 132
3 101 133 142
3 133 102 138
3 141 146 137
3 141 137 138
3 110 136 388
3 138 137 142
3 146 397 137
3 105 399 132
3 132 147 131
3 145 148 128
3 149 133 138
3 89 143 107
3 125 150 118
3 142 151 138
3 140 134 144
3 389 150 125
3 139 131 147
3 126 118 152
3 107 144 134
3 153 119 393
3 400 139 147
3 151 149 138
3 151 154 149
3 118 150 152
3 128 153 393
3 399 155 132
3 151 142 156
3 157 147 132
3 158 143 89
3 148 153 128
3 159 149 154
3 149 156 133
3 155 157 132
3 401 160 402
3 401 403 161
3 404 140 144
3 148 162 153
3 158 89 163
3 164 154 151
3 29 163 89
3 165 149 159
3 161 166 401
3 389 167 150
3 142 133 156
3 146 168 397
3 153 169 119
3 167 152 150
3 404 144 170
3 143 170 144
3 158 170 143
3 160 405 402
3 164 151 156
3 149 165 156
3 162 169 153
3 168 164 397
3 169 406 119
3 154 165 159
3 158 171 170
3 165 154 172
3 407 408 136
3 407 136 110
3 145 162 148
3 173 158 163
3 155 164 157
3 157 164 156
3 174 156 165
3 126 175 124
3 401 166 160
3 409 410 176
3 410 400 177
3 411 404 178
3 176 410 177
3 177 400 147
3 167 412 152
3 412 409 176
3 178 404 170
3 412 176 152
3 154 178 172
3 179 176 177
3 180 147 157
3 156 181 157
3 182 172 178
3 173 171 158
3 164 183 154
3 175 126 152
3 184 152 176
3 185 181 156
3 174 165 172
3 182 174 172
3 186 411 178
3 184 175 152
3 181 180 157
3 182 178 170
3 413 411 186
3 187 186 188
3 183 189 185
3 187 188 171
3 190 187 171
3 191 180 181
3 191 181 193
3 178 154 174
3 189 193 181
3 185 189 181
3 183 185 174
3 154 183 174
3 174 186 178
3 186 174 188
3 194 177 147
3 156 174 185
3 182 188 174
3 182 170 188
3 170 171 188
3 168 195 164
3 164 195 183
3 196 197 194
3 194 197 179
3 184 198 175
3 179 184 176
3 177 194 179
3 199 197 196
3 200 198 184
3 201 200 184
3 202 201 184
3 202 184 203
3 203 184 179
3 180 194 147
3 186 195 413
3 204 196 194
3 175 205 124
3 195 168 413
3 204 194 180
3 206 189 183
3 195 206 183
3 414 207 415
3 192 208 180
3 179 197 416
3 209 203 179
3 210 196 204
3 191 208 192
3 193 211 191
3 210 199 196
3 417 418 419
3 210 204 180
3 202 203 212
3 179 416 209
3 205 175 198
3 213 420 421
3 210 180 208
3 414 214 207
3 211 208 191
3 212 203 209
3 205 215 124
3 422 216 423
3 202 212 217
3 218 189 206
3 424 422 425
3 426 190 219
3 219 190 171
3 220 427 428
3 429 428 430
3 221 210 208
3 173 163 222
3 214 414 431
3 432 214 431
3 205 198 223
3 417 224 418
3 211 225 208
3 220 428 429
3 209 226 212
3 173 219 171
3 227 222 163
3 214 228 207
3 217 212 229
3 416 433 209
3 211 230 225
3 200 231 198
3 420 232 417
3 212 226 229
3 29 227 163
3 216 422 424
3 233 214 432
3 213 232 420
3 198 231 223
3 234 206 434
3 234 218 206
3 221 208 235
3 229 226 236
3 235 208 225
3 215 38 124
3 237 205 223
3 205 237 215
3 220 435 427
3 436 221 235
3 236 238 229
3 228 214 233
3 209 433 239
3 239 226 209
3 238 217 229
3 232 213 437
3 240 228 233
3 438 220 429
3 224 417 232
3 439 234 241
3 239 433 440
3 234 434 242
3 243 441 219
3 230 439 225
3 434 243 242
3 434 441 243
3 439 241 225
3 241 234 242
3 244 242 243
3 245 241 242
3 246 244 243
3 246 243 219
3 247 248 225
3 247 225 241
3 247 241 245
3 238 442 217
3 248 235 225
3 245 242 244
3 249 250 244
3 251 248 247
3 251 247 252
3 253 252 245
3 250 253 244
3 249 244 246
3 253 245 244
3 247 245 252
3 443 423 216
3 254 252 253
3 255 226 239
3 219 173 246
3 256 238 236
3 257 251 252
3 223 231 258
3 236 226 259
3 251 260 248
3 261 444 445
3 259 226 255
3 215 237 262
3 446 447 448
3 263 254 253
3 250 263 253
3 264 249 246
3 257 252 254
3 263 265 254
3 449 261 445
3 248 266 235
3 237 223 258
3 450 451 452
3 267 38 215
3 256 268 238
3 453 448 454
3 269 444 261
3 270 266 248
3 222 246 173
3 233 271 240
3 268 272 238
3 273 263 250
3 455 273 250
3 262 267 215
3 267 274 38
3 272 442 238
3 448 275 446
3 436 235 266
3 239 440 266
3 266 255 239
3 260 270 248
3 276 246 222
3 237 277 262
3 278 264 246
3 277 267 262
3 272 279 442
3 280 281 443
3 216 280 443
3 453 275 448
3 259 255 282
3 264 455 456
3 440 457 266
3 276 278 246
3 277 274 267
3 263 283 265
3 273 283 263
3 457 436 266
3 458 258 231
3 264 278 284
3 285 255 266
3 286 38 274
3 256 287 268
3 286 274 277
3 283 288 265
3 237 289 277
3 290 227 29
3 291 285 266
3 270 291 266
3 280 216 459
3 255 285 282
3 258 289 237
3 460 275 453
3 268 292 272
3 461 269 449
3 293 288 283
3 289 286 277
3 293 283 273
3 276 222 294
3 295 292 268
3 287 295 268
3 462 296 260
3 292 279 272
3 297 287 256
3 450 463 451
3 298 273 455
3 299 462 288
3 299 296 462
3 260 300 270
3 270 300 291
3 464 280 459
3 296 300 260
3 301 299 288
3 293 301 288
3 284 278 302
3 291 303 285
3 304 296 299
3 282 285 303
3 298 293 273
3 305 38 286
3 301 304 299
3 278 276 302
3 302 276 294
3 463 450 465
3 304 300 296
3 306 304 301
3 307 282 303
3 308 284 302
3 300 309 291
3 304 309 300
3 301 293 298
3 466 269 461
3 306 309 304
3 458 310 258
3 311 306 301
3 289 305 286
3 312 306 311
3 313 29 38
3 227 294 222
3 289 258 314
3 315 301 298
3 309 316 291
3 310 314 258
3 291 316 317
3 315 311 301
3 461 467 466
3 315 298 308
3 297 295 287
3 313 290 29
3 318 281 280
3 312 311 315
3 317 303 291
3 319 280 464
3 319 318 280
3 289 314 305
3 320 468 469
3 321 281 318
3 322 315 308
3 458 314 310
3 308 302 323
3 292 324 470
3 324 292 295
3 471 463 465
3 472 320 469
3 322 312 315
3 302 294 323
3 325 294 227
3 473 314 458
3 297 324 295
3 326 474 320
3 323 322 308
3 319 321 318
3 327 297 307
3 326 328 474
3 329 475 312
3 330 307 303
3 331 324 297
3 327 331 297
3 332 329 312
3 332 312 322
3 317 330 303
3 329 476 475
3 470 324 333
3 473 470 314
3 470 333 314
3 307 330 327
3 331 334 324
3 331 327 334
3 327 330 334
3 316 477 317
3 324 334 333
3 335 334 330
3 477 476 317
3 476 336 317
3 476 337 336
3 332 322 323
3 329 332 338
3 329 338 337
3 338 332 323
3 339 305 314
3 339 314 333
3 340 339 333
3 317 341 330
3 342 336 337
3 338 343 337
3 305 344 38
3 344 345 38
3 345 313 38
3 290 346 227
3 346 325 227
3 340 333 334
3 335 347 334
3 343 342 337
3 323 294 325
3 345 340 334
3 335 330 341
3 341 317 336
3 342 341 336
3 341 342 290
3 342 343 346
3 343 338 325
3 340 345 344
3 334 347 345
3 347 335 345
3 335 341 313
3 290 342 346
3 343 325 346
3 339 344 305
3 339 340 344
3 338 323 325
3 335 313 345
3 313 341 290
3 139 117 109
3 191 192 180
3 320 474 468
3 476 329 337
