ply
format ascii 1.0
comment INFO-3111 Flatenator generated
comment TextureFile Dungeons_Texture_01.png
element vertex 178
property float x
property float y
property float z
property float nx
property float ny
property float nz
property float texture_u
property float texture_v
element face 216
property list uchar int vertex_indices
end_header
0 0 -4e-06 0 0 1 0.199329 0.278745 
0 5 5 -1.67883e-07 -1 -1.90735e-07 0.199329 0.278745 
5 0 -4e-06 -0.706329 -0.037655 0.706882 0.199329 0.278745 
2.5 5 4.78682 -0.330301 -0.787629 0.520136 0.199329 0.278745 
0 5 2.5 -1.20005e-07 -0.967538 0.252725 0.199329 0.278745 
0 2.5 -4e-06 0 -0.252726 0.967538 0.199329 0.278745 
0.213177 0.161493 -4e-06 -0.275899 -0.293066 0.915419 0.199329 0.278745 
4.99151 0.131396 0.005508 -0.514125 -0.716186 0.471966 0.199329 0.278745 
0.138424 2.5 -4e-06 -0.417737 -0.382123 0.824304 0.199329 0.278745 
0.277094 5 4.7561 -0.270524 -0.930339 0.24756 0.199329 0.278745 
0.213179 5 2.5 -0.598869 -0.713871 0.362965 0.199329 0.278745 
0.290966 0.444191 0.147717 -0.708668 -0.0858095 0.700305 0.199329 0.278745 
4.75705 0.356437 0.22039 -0.421524 -0.816292 0.39495 0.199329 0.278745 
4.81649 2.46468 0.166813 -0.583888 -0.544828 0.601861 0.197903 0.303684 
0.290966 2.44703 0.127876 -0.00360968 -0.243924 0.969788 0.197903 0.303684 
0.354881 4.85018 4.61943 -0.000574533 -0.999996 0.00281148 0.197903 0.303684 
0.251785 4.93653 2.52629 -0.692863 -0.671392 0.263008 0.199329 0.278745 
1.15012 1.1063 0.149815 -0.00386915 0.00752676 0.999964 0.197903 0.303684 
3.93777 1.0768 0.149815 -0.0314134 0.0298462 0.999061 0.197903 0.303684 
3.93777 2.44703 0.127876 -0.0333667 -0.378999 0.924796 0.197903 0.303684 
1.06223 2.44703 0.127876 -9.12208e-07 -0.501098 0.865391 0.197903 0.303684 
2.0549 4.87212 2.55297 -0.598745 -0.784838 -0.159793 0.199329 0.278745 
2.44704 4.87212 3.93777 -0.49855 -0.866861 -5.75327e-07 0.197903 0.303684 
1.06223 4.87212 2.55297 0.817683 -0.528839 0.227429 0.199329 0.278745 
1.26766 1.2312 -0.016209 0.19808 0.0436424 0.979214 0.199329 0.278745 
3.8476 1.16358 -0.016209 -0.373652 0.0383198 0.926777 0.199329 0.278745 
3.8476 2.50461 -0.01384 0.0357665 -0.308338 0.950604 0.199329 0.278745 
1.22331 2.50461 -0.01384 -0.102091 -0.308602 0.945697 0.199329 0.278745 
1.90477 5.01383 2.49537 -0.121107 -0.670428 0.732025 0.199329 0.278745 
2.50464 5.01383 3.78764 -0.617147 -0.768487 -0.16899 0.199329 0.278745 
1.1776 5.01383 2.49537 0.238814 -0.752036 0.614337 0.199329 0.278745 
0.290966 4.87031 2.73077 -0.775285 -0.629704 -0.0490429 0.199329 0.278745 
0.290966 4.71378 2.39462 -0.695285 -0.50604 0.510394 0.199329 0.278745 
0.407021 4.87212 2.55297 -0.409558 -0.85223 0.325524 0.199329 0.278745 
1.06223 4.85247 3.37601 -0.00530561 -0.999941 -0.00950147 0.197903 0.303684 
0.895172 4.85018 4.01919 -0.00704899 -0.99996 -0.00543414 0.197903 0.303684 
1.60163 4.85018 3.97402 0.524197 -0.795175 -0.304819 0.199329 0.278745 
2.44704 4.87212 4.70903 -0.197771 -0.495473 0.845809 0.199329 0.278745 
0.234333 0.180809 0.040741 -0.475785 -0.490719 0.729947 0.199329 0.278745 
0.528934 0.232517 0.149815 -0.0745112 -0.743051 0.665074 0.199329 0.278745 
0 4.37034 1.87034 2.28702e-06 -0.707107 0.707107 0.199329 0.278745 
0.248787 4.36988 1.86988 -0.493031 -0.624255 0.605992 0.199329 0.278745 
0.434805 4.29934 1.98019 -0.562071 -0.611687 0.5567 0.199329 0.278745 
1.06223 4.29806 1.97891 -2.28452e-06 -0.707106 0.707107 0.197903 0.303684 
2.4669 4.29015 1.971 -0.265628 -0.797709 0.541389 0.197903 0.303684 
1.17177 4.3752 1.85674 0.164064 -0.69526 0.699783 0.199329 0.278745 
2.35838 4.36801 1.84955 0.180192 -0.626913 0.757965 0.199329 0.278745 
3.02109 4.29806 2.45512 -0.186891 -0.724076 0.663917 0.199329 0.278745 
0 3.31352 0.813523 2.97902e-06 -0.707108 0.707106 0.199329 0.278745 
0.163006 3.32209 0.822091 -0.371723 -0.649395 0.663406 0.199329 0.278745 
0.290966 3.27905 0.959897 -0.667812 -0.5025 0.549109 0.199329 0.278745 
1.13498 3.3074 0.988244 0.759516 -0.449142 0.470539 0.199329 0.278745 
3.22716 3.48295 1.1638 -0.0201295 -0.715321 0.698506 0.197903 0.303684 
1.26263 3.37111 0.852655 -0.0988973 -0.719656 0.687251 0.199329 0.278745 
3.11246 3.53079 1.01234 -0.174948 -0.768591 0.615355 0.199329 0.278745 
5 -1e-06 5 -1 -7.43636e-06 5.04829e-06 0.199329 0.278745 
2.5 5 5 -0.382684 -0.923879 3.88813e-06 0.199329 0.278745 
5 2.5 5 -0.92388 -0.382683 -6.83387e-06 0.199329 0.278745 
5 0.132462 4.8173 -0.945789 -0.234708 0.224491 0.199329 0.278745 
5 2.5 4.78682 -0.68725 -0.280357 0.67014 0.199329 0.278745 
4.85018 0.268681 4.66181 -0.999988 0.00327197 0.00365474 0.197903 0.303684 
4.87212 2.44703 4.59582 -0.816758 -0.308404 0.48764 0.199329 0.278745 
4.85018 1.1063 1.15012 -0.995419 -0.0276736 0.0915191 0.197903 0.303684 
4.85018 1.0768 3.93777 -0.999953 0.00860942 0.00442547 0.197903 0.303684 
4.87212 2.44703 3.93777 -0.926339 -0.37669 0.000628933 0.197903 0.303684 
4.87212 2.44703 1.06223 -0.923495 -0.380353 0.0498783 0.197903 0.303684 
2.44947 4.87212 3.01876 0.284096 -0.680674 0.675257 0.199329 0.278745 
5.01621 1.2312 1.26766 -0.981492 -0.00302878 0.191478 0.199329 0.278745 
5.01621 1.16358 3.8476 -0.931648 0.202377 -0.301788 0.199329 0.278745 
5.01384 2.50461 3.8476 -0.954522 -0.297892 0.0122061 0.199329 0.278745 
5.01384 2.50461 1.22331 -0.897869 -0.437354 0.0505352 0.199329 0.278745 
2.50464 5.01383 3.14137 -0.728393 -0.659328 0.186361 0.199329 0.278745 
4.57908 2.74007 4.70903 -0.707106 -0.707107 1.405e-06 0.197903 0.303684 
4.95734 2.48233 4.76086 -0.649775 -0.252821 0.71685 0.199329 0.278745 
4.86923 2.15501 4.70903 -0.68757 0.0460701 0.724655 0.199329 0.278745 
4.85018 0.232517 0.528934 -0.660609 -0.750521 -0.0177233 0.199329 0.278745 
4.93961 1.12354 2.26411 -0.752766 0.658029 0.0184596 0.199329 0.278745 
4.85018 0.931736 2.08113 -1 -1.23418e-06 -5.37012e-07 0.197903 0.303684 
3.14151 4.35849 5 -0.707107 -0.707106 7.09912e-06 0.199329 0.278745 
3.141 4.359 4.78682 -0.628139 -0.649064 0.429135 0.199329 0.278745 
3.02901 4.29015 3.86619 -0.707107 -0.707107 -4.03193e-07 0.197903 0.303684 
3.14326 4.3752 2.56466 -0.741166 -0.646955 -0.179228 0.199329 0.278745 
3.15045 4.36801 3.75767 -0.693312 -0.706264 -0.14321 0.199329 0.278745 
3.03028 4.28887 4.70903 -0.335741 -0.410384 0.847858 0.199329 0.278745 
3.92365 3.57636 5 -0.707107 -0.707107 -2.67997e-07 0.199329 0.278745 
3.93485 3.56515 4.78682 -0.673619 -0.656865 0.338772 0.199329 0.278745 
4.01175 3.3074 1.72228 -0.695911 -0.717554 0.0287175 0.197903 0.303684 
3.8362 3.48295 3.93777 -0.707108 -0.707106 1.21762e-06 0.197903 0.303684 
4.14735 3.37111 1.84993 -0.688644 -0.724078 0.0384934 0.199329 0.278745 
3.98766 3.53079 3.82308 -0.705851 -0.70685 0.0462358 0.199329 0.278745 
3.80786 3.51129 4.57086 -0.53398 -0.553112 0.639478 0.199329 0.278745 
1.21569 4.85228 3.37026 -0.194254 -0.876492 -0.440485 0.199329 0.278745 
1.67614 4.85265 3.82665 0.70473 -0.511918 0.491218 0.199329 0.278745 
1.16365 5.01514 3.06914 0.162931 -0.942405 -0.292107 0.199329 0.278745 
1.7793 5.01548 3.84835 0.418329 -0.908294 0.00145504 0.199329 0.278745 
1.53515 1.36015 0.150241 -0.000258374 -0.0200824 0.999798 0.223307 0.294738 
3.58009 1.30655 0.150254 0.298601 -0.446756 0.843355 0.199329 0.278745 
3.56796 2.42249 0.172105 -0.000182735 -0.260903 0.965365 0.223307 0.294739 
1.48786 2.42249 0.172111 -0.000868794 -0.49976 0.866163 0.223307 0.294739 
1.28201 4.82173 2.53832 -0.500527 -0.12584 0.856526 0.199329 0.278745 
1.85838 4.82173 2.53832 7.19025e-07 -0.707104 0.707109 0.223307 0.294738 
1.31026 4.23299 1.94958 9.65486e-07 -0.707104 0.707109 0.223307 0.294738 
2.25081 4.22729 1.94388 6.35697e-07 -0.707104 0.707109 0.223307 0.294738 
1.46103 3.25844 0.975039 -0.000817436 -0.702354 0.711827 0.223307 0.294739 
2.92727 3.38501 1.10161 -0.000817225 -0.698203 0.7159 0.223307 0.294739 
4.84976 1.36015 1.53515 -0.999786 -0.0206959 -0.000266651 0.223307 0.294738 
4.84974 1.30655 3.58009 -0.836545 -0.451259 0.310739 0.199329 0.278745 
4.8272 2.42318 3.59327 -0.923522 -0.383544 -0.000680283 0.223307 0.294739 
4.8272 2.42318 1.51317 -0.923679 -0.383167 1.90414e-06 0.223307 0.294739 
2.4632 4.82021 3.1685 -0.707109 -0.707104 7.15164e-07 0.223307 0.294738 
2.4632 4.82021 3.68075 -0.707109 -0.707105 0 0.223307 0.294738 
3.05229 4.23112 2.67523 -0.70711 -0.707104 8.39218e-07 0.223307 0.294738 
3.05799 4.22542 3.62084 -0.70711 -0.707104 9.65829e-07 0.223307 0.294738 
4.02538 3.25802 2.04779 -0.71593 -0.698172 -0.000667082 0.223307 0.294739 
3.89881 3.38459 3.61177 -0.71122 -0.702969 -0.000667084 0.223307 0.294739 
0.528934 0.232517 0.149815 -0.00809676 0.0266983 0.999611 0.197903 0.303684 
4.75705 0.356437 0.22039 -0.663937 -0.00881806 0.747737 0.197903 0.303684 
3.93777 1.0768 0.149815 -0.346396 0.694638 0.630467 0.199329 0.278745 
3.93777 2.44703 0.127876 -0.837078 -0.377248 0.396213 0.199329 0.278745 
1.06223 2.44703 0.127876 0.746343 -0.257412 0.613769 0.199329 0.278745 
0.290966 4.71378 2.39462 -1.77608e-06 -0.707106 0.707107 0.197903 0.303684 
1.06223 4.87212 2.55297 -0.000857213 -0.927104 0.374803 0.197903 0.303684 
0.290966 4.87031 2.73077 -0.00777974 -0.999885 -0.013051 0.197903 0.303684 
1.60163 4.85018 3.97402 0.00761356 -0.999971 0.000258013 0.197903 0.303684 
0.290966 0.444191 0.147717 -0.00773814 0.00687253 0.999946 0.197903 0.303684 
0.434805 4.29934 1.98019 -2.57473e-06 -0.707107 0.707107 0.197903 0.303684 
1.13498 3.3074 0.988244 -2.58491e-06 -0.707107 0.707106 0.197903 0.303684 
2.4669 4.29015 1.971 -0.658387 -0.731845 0.175865 0.199329 0.278745 
0.290966 2.44703 0.127876 -0.69083 -0.35465 0.630062 0.199329 0.278745 
0.290966 3.27905 0.959897 -1.73339e-06 -0.707107 0.707106 0.197903 0.303684 
4.85018 0.232517 0.528934 -0.995657 -0.0539415 0.0758749 0.197903 0.303684 
4.86923 2.15501 4.70903 -0.999919 0.0119143 0.00442655 0.197903 0.303684 
4.87212 2.44703 3.93777 -0.47125 -0.213839 -0.855685 0.199329 0.278745 
4.85018 1.0768 3.93777 -0.749058 0.548115 -0.372132 0.199329 0.278745 
4.87212 2.44703 1.06223 -0.623549 -0.249383 0.740942 0.199329 0.278745 
4.57908 2.74007 4.70903 -0.501046 -0.520516 0.691387 0.199329 0.278745 
4.85018 1.1063 1.15012 -0.818575 0.461799 0.34158 0.199329 0.278745 
4.85018 0.931736 2.08113 -0.912278 0.409225 0.0168689 0.199329 0.278745 
3.03028 4.28887 4.70903 -0.707107 -0.707107 -1.06979e-06 0.197903 0.303684 
2.44704 4.87212 3.93777 -0.282045 -0.567035 -0.773901 0.199329 0.278745 
3.02109 4.29806 2.45512 -0.486406 -0.808032 0.332406 0.197903 0.303684 
3.80786 3.51129 4.57086 -0.707108 -0.707106 7.87358e-07 0.197903 0.303684 
3.8362 3.48295 3.93777 -0.424317 -0.467463 -0.775521 0.199329 0.278745 
4.01175 3.3074 1.72228 -0.282903 -0.73784 0.612828 0.199329 0.278745 
1.06223 4.85247 3.37601 0.477059 -0.831936 -0.283367 0.199329 0.278745 
2.0549 4.87212 2.55297 -0.295685 -0.907678 0.29781 0.197903 0.303684 
2.44947 4.87212 3.01876 -0.146256 -0.981514 0.123452 0.197903 0.303684 
1.21569 4.85228 3.37026 0.00897341 -0.999918 -0.00912356 0.197903 0.303684 
1.53515 1.36015 0.150241 -0.418088 -0.310954 0.853528 0.199329 0.278745 
1.48786 2.42249 0.172111 -0.626751 -0.395823 0.671199 0.199329 0.278745 
1.85838 4.82173 2.53832 0.569474 0.00686499 0.821981 0.199329 0.278745 
2.25081 4.22729 1.94388 0.739652 -0.121698 0.661895 0.199329 0.278745 
1.31026 4.23299 1.94958 -0.730362 -0.5162 0.447336 0.199329 0.278745 
2.92727 3.38501 1.10161 0.638561 -0.223809 0.736308 0.199329 0.278745 
1.46103 3.25844 0.975039 -0.641088 -0.566659 0.517594 0.199329 0.278745 
3.56796 2.42249 0.172105 0.588188 -0.216868 0.779104 0.199329 0.278745 
4.84976 1.36015 1.53515 -0.862148 -0.305585 -0.404128 0.199329 0.278745 
4.8272 2.42318 1.51317 -0.778534 -0.222995 -0.58665 0.199329 0.278745 
2.4632 4.82021 3.68075 -0.849065 -0.143058 0.50855 0.199329 0.278745 
2.4632 4.82021 3.1685 -0.844806 0.0503656 -0.532697 0.199329 0.278745 
3.05799 4.22542 3.62084 -0.482726 -0.491097 0.72512 0.199329 0.278745 
4.02538 3.25802 2.04779 -0.703839 -0.253386 -0.663631 0.199329 0.278745 
3.05229 4.23112 2.67523 -0.672159 -0.134344 -0.728116 0.199329 0.278745 
3.89881 3.38459 3.61177 -0.555959 -0.555625 0.618216 0.199329 0.278745 
4.8272 2.42318 3.59327 -0.670922 -0.393282 0.628644 0.199329 0.278745 
3.58009 1.30655 0.150254 -0.000519634 -0.0195827 0.999808 0.223307 0.294738 
1.28201 4.82173 2.53832 0 -0.707104 0.70711 0.223307 0.294738 
1.15012 1.1063 0.149815 0.474436 0.508562 0.718523 0.199329 0.278745 
1.06223 4.29806 1.97891 0.791625 -0.417232 0.446371 0.199329 0.278745 
3.22716 3.48295 1.1638 -0.624797 -0.743546 0.23826 0.199329 0.278745 
0.354881 4.85018 4.61943 -0.54602 -0.701421 0.458116 0.199329 0.278745 
0.407021 4.87212 2.55297 -1.34753e-06 -0.925821 0.377963 0.197903 0.303684 
2.44704 4.87212 4.70903 -0.24079 -0.970554 0.00670719 0.197903 0.303684 
4.84974 1.30655 3.58009 -0.999796 -0.0201758 -0.000535365 0.223307 0.294738 
4.85018 0.268681 4.66181 -0.808284 -0.430726 0.401438 0.199329 0.278745 
4.87212 2.44703 4.59582 -0.925764 -0.378102 3.35415e-06 0.197903 0.303684 
3.02901 4.29015 3.86619 -0.43753 -0.423303 -0.793336 0.199329 0.278745 
1.67614 4.85265 3.82665 0.0121121 -0.999861 -0.0114292 0.197903 0.303684 
3 95 97 98
3 100 101 102
3 2 6 0
3 5 6 8
3 4 9 1
3 40 10 4
3 7 12 39
3 6 38 11
3 115 18 17
3 13 18 116
3 14 17 20
3 33 31 16
3 16 32 33
3 13 52 19
3 24 117 25
3 118 25 117
3 119 24 27
3 94 36 92
3 23 45 30
3 118 54 26
3 10 16 31
3 41 42 32
3 120 43 121
3 34 35 122
3 9 37 3
3 15 35 123
3 38 39 11
3 124 115 17
3 102 103 104
3 40 49 41
3 34 123 35
3 45 51 53
3 46 21 28
3 41 50 42
3 125 126 43
3 52 13 44
3 54 127 46
3 104 98 97
3 48 8 49
3 53 119 27
3 49 128 50
3 129 20 126
3 105 107 108
3 109 112 110
3 2 58 7
3 57 58 55
3 57 85 59
3 58 75 7
3 59 73 74
3 83 90 79
3 77 130 60
3 131 64 63
3 13 62 65
3 72 87 64
3 67 76 68
3 132 68 133
3 134 67 70
3 66 81 71
3 132 89 69
3 73 135 61
3 74 73 61
3 7 75 12
3 136 137 76
3 136 76 67
3 68 76 133
3 77 60 63
3 130 62 116
3 76 137 133
3 111 114 112
3 79 56 3
3 138 22 80
3 47 88 81
3 82 139 29
3 140 13 86
3 84 79 85
3 141 80 87
3 142 82 89
3 113 107 114
3 143 70 88
3 86 13 65
3 56 9 3
3 66 94 92
3 93 23 30
3 28 93 30
3 21 93 28
3 91 144 93
3 94 71 29
3 139 94 29
3 145 140 146
3 147 123 34
3 146 147 145
3 44 13 140
3 24 96 148
3 26 96 25
3 27 148 149
3 28 99 150
3 45 99 30
3 46 150 151
3 53 152 45
3 46 153 54
3 53 149 154
3 54 155 26
3 67 106 156
3 69 106 68
3 70 156 157
3 71 158 29
3 81 159 71
3 82 158 160
3 81 161 162
3 89 160 163
3 88 157 161
3 89 164 69
3 95 165 97
3 100 166 101
3 2 7 6
3 5 0 6
3 4 10 9
3 40 41 10
3 38 6 39
3 6 7 39
3 128 8 11
3 8 6 11
3 115 116 18
3 13 19 18
3 14 124 17
3 24 167 117
3 118 26 25
3 119 167 24
3 23 168 45
3 118 169 54
3 170 9 31
3 9 10 31
3 16 10 32
3 10 41 32
3 121 171 120
3 120 125 43
3 35 15 122
3 122 171 121
3 121 34 122
3 9 170 37
3 123 22 172
3 172 15 123
3 102 101 103
3 40 48 49
3 45 168 51
3 46 127 21
3 41 49 50
3 125 129 126
3 54 169 127
3 104 103 98
3 48 5 8
3 53 51 119
3 49 8 128
3 129 14 20
3 105 173 107
3 109 111 112
3 2 55 58
3 57 59 58
3 57 84 85
3 58 174 75
3 174 58 74
3 58 59 74
3 73 59 135
3 59 85 135
3 79 3 37
3 85 79 90
3 90 135 85
3 79 37 83
3 63 60 131
3 131 175 64
3 13 116 62
3 64 175 72
3 72 141 87
3 132 69 68
3 134 136 67
3 66 47 81
3 132 142 89
3 130 77 62
3 111 113 114
3 79 78 56
3 138 172 22
3 47 143 88
3 82 176 139
3 84 78 79
3 141 138 80
3 142 176 82
3 113 108 107
3 143 134 70
3 56 1 9
3 66 71 94
3 93 144 23
3 21 91 93
3 139 36 94
3 145 44 140
3 147 177 123
3 146 177 147
3 24 25 96
3 26 155 96
3 27 24 148
3 28 30 99
3 45 152 99
3 46 28 150
3 53 154 152
3 46 151 153
3 53 27 149
3 54 153 155
3 67 68 106
3 69 164 106
3 70 67 156
3 71 159 158
3 81 162 159
3 82 29 158
3 81 88 161
3 89 82 160
3 88 70 157
3 89 163 164
