ply
format ascii 1.0
comment VCGLIB generated
comment TextureFile Dungeons_Texture_01.png
element vertex 8
property float x
property float y
property float z
property float nx
property float ny
property float nz
property uchar red
property uchar green
property uchar blue
property uchar alpha
property float texture_u
property float texture_v
element face 12
property list uchar int vertex_indices
end_header
-0.307377 -0.10058 0.181581 -0.5773503 -0.5773503 0.5773503 120 116 110 255 0.211923 0.303946
0.307379 -0.10058 0.181581 0.5773503 -0.5773503 0.5773503 120 116 110 255 0.211923 0.303946
0.307379 0.10058 0.181581 0.5773503 0.5773503 0.5773503 120 116 110 255 0.211923 0.303946
-0.307377 0.10058 0.181581 -0.5773503 0.5773503 0.5773503 120 116 110 255 0.211923 0.303946
0.307379 0.10058 -0.18158 0.5773503 0.5773503 -0.5773503 120 116 110 255 0.211923 0.303946
-0.307377 0.10058 -0.18158 -0.5773503 0.5773503 -0.5773503 120 116 110 255 0.211923 0.303946
0.307379 -0.10058 -0.18158 0.5773503 -0.5773503 -0.5773503 120 116 110 255 0.211923 0.303946
-0.307377 -0.10058 -0.18158 -0.5773503 -0.5773503 -0.5773503 120 116 110 255 0.211923 0.303946
3 1 3 0 
3 2 5 3 
3 4 7 5 
3 6 0 7 
3 6 2 1 
3 0 5 7 
3 1 2 3 
3 2 4 5 
3 4 6 7 
3 6 1 0 
3 6 4 2 
3 0 3 5 
