ply
format ascii 1.0
comment INFO-3111 Flatenator generated
comment TextureFile Dungeons_Texture_01.png
element vertex 87
property float x
property float y
property float z
element face 100
property list uchar int vertex_indices
end_header
-0.504677 0.143011 0.265444 
-0.37788 0.137288 0.257994 
0.08675 0.121143 0.264132 
0.379475 0.142936 0.265305 
-0.132179 0.123479 0.258139 
0.504692 0.081497 0.265402 
-0.504692 0.006859 0.265438 
-0.219818 0.070683 0.264668 
-0.282337 0.037412 0.244154 
-0.219307 0.006201 0.193172 
-0.197075 0.000388 0.263113 
-0.363708 0.000419 0.265093 
0.504326 0.000271 0.265041 
-0.102432 0.144694 0.215237 
-0.205956 0.137909 0.212721 
-0.504528 5e-06 0.119135 
0.158669 0.143133 0.265379 
0.480572 0.120289 0.242832 
-0.165604 0.145548 0.161915 
-0.291775 0.002877 0.078665 
-0.504581 0.143685 -0.025454 
0.493191 0.13165 0.105518 
-0.504692 0.060511 0.067364 
0.433723 0.145548 0.150814 
0.370632 0 -0.016586 
0.504433 7.4e-05 0.046753 
0.481808 0.031248 0.001528 
-0.455257 0.001672 -0.006584 
0.495651 0.125773 -0.008442 
-0.491123 0.01246 -0.071512 
0.476871 0.010013 -0.037477 
0.46418 0.118797 -0.067763 
0.504284 0.000175 -0.261952 
0.501877 0.002028 -0.059355 
0.504692 0.143685 -0.165905 
-0.503399 0.080998 -0.173665 
-0.502087 0.002771 -0.207154 
0.014717 0.001651 -0.196754 
-0.501614 0.089025 -0.229881 
0.298702 0.145548 -0.207373 
0.347935 0.017604 -0.26543 
-0.43314 0.142862 -0.216164 
-0.464813 0.00043 -0.26129 
-0.048874 0.006089 -0.240344 
0.235844 0.138153 -0.233529 
0.504692 0.143531 -0.263078 
-0.331905 0.110961 -0.263594 
0.172531 0.143536 -0.263125 
0.150032 0.021363 -0.262989 
-0.463867 0.090416 -0.262473 
-0.188301 0.006896 -0.265436 
-0.09367 0.070677 -0.265446 
-0.37788 0.137288 0.257994 
0.08675 0.121143 0.264132 
-0.132179 0.123479 0.258139 
-0.219818 0.070683 0.264668 
-0.363708 0.000419 0.265093 
-0.197075 0.000388 0.263113 
-0.504692 0.006859 0.265438 
0.158669 0.143133 0.265379 
-0.165604 0.145548 0.161915 
0.504326 0.000271 0.265041 
0.504433 7.4e-05 0.046753 
-0.102432 0.144694 0.215237 
0.433723 0.145548 0.150814 
0.480572 0.120289 0.242832 
0.504692 0.081497 0.265402 
0.493191 0.13165 0.105518 
-0.504528 5e-06 0.119135 
0.495651 0.125773 -0.008442 
-0.504692 0.060511 0.067364 
0.298702 0.145548 -0.207373 
0.46418 0.118797 -0.067763 
0.501877 0.002028 -0.059355 
-0.502087 0.002771 -0.207154 
0.504284 0.000175 -0.261952 
-0.43314 0.142862 -0.216164 
-0.503399 0.080998 -0.173665 
-0.504581 0.143685 -0.025454 
0.172531 0.143536 -0.263125 
-0.331905 0.110961 -0.263594 
0.150032 0.021363 -0.262989 
-0.463867 0.090416 -0.262473 
-0.188301 0.006896 -0.265436 
0.347935 0.017604 -0.26543 
-0.464813 0.00043 -0.26129 
-0.09367 0.070677 -0.265446 
3 13 4 2
3 4 14 1
3 17 3 5
3 0 6 52
3 16 53 12
3 54 52 7
3 53 54 7
3 52 6 11
3 52 11 7
3 5 3 12
3 55 8 9
3 55 56 8
3 55 9 10
3 53 7 12
3 3 16 12
3 7 57 12
3 15 56 58
3 13 14 4
3 59 13 2
3 14 18 1
3 20 0 52
3 60 20 52
3 24 25 61
3 18 14 13
3 23 3 17
3 5 12 62
3 56 19 8
3 23 63 16
3 23 16 3
3 19 9 8
3 23 60 63
3 64 65 66
3 64 66 21
3 0 20 22
3 67 5 62
3 0 22 6
3 6 22 68
3 19 61 9
3 61 10 9
3 15 27 56
3 27 19 56
3 28 64 21
3 67 62 69
3 70 27 15
3 26 28 25
3 24 30 25
3 30 26 25
3 39 23 69
3 70 29 27
3 30 28 26
3 41 20 60
3 31 28 30
3 32 30 24
3 32 33 30
3 31 71 28
3 33 31 30
3 20 35 22
3 34 39 72
3 34 72 73
3 70 36 29
3 37 24 61
3 35 74 22
3 36 27 29
3 27 42 19
3 34 73 75
3 19 37 61
3 76 77 78
3 39 44 23
3 77 76 38
3 40 32 24
3 36 42 27
3 40 24 37
3 77 38 36
3 19 43 37
3 48 40 37
3 47 41 60
3 23 47 60
3 45 44 39
3 45 34 75
3 42 50 19
3 50 43 19
3 47 23 44
3 46 76 79
3 45 39 34
3 43 48 37
3 38 76 49
3 76 46 49
3 80 47 51
3 44 45 47
3 47 81 51
3 82 80 83
3 47 45 84
3 82 83 85
3 84 45 75
3 38 49 42
3 80 51 83
3 38 42 36
3 50 86 43
3 86 48 43
3 47 84 81
