ply
format ascii 1.0
comment VCGLIB generated
comment TextureFile Dungeons_Texture_01.png
element vertex 180
property float x
property float y
property float z
property float nx
property float ny
property float nz
property uchar red
property uchar green
property uchar blue
property uchar alpha
property float texture_u
property float texture_v
element face 200
property list uchar int vertex_indices
end_header
5 2e-06 5 0 -1 0 97 95 95 255 0.199329 0.278745
0 2e-06 5 0 -1 0 97 95 95 255 0.199329 0.278745
5 3e-06 0 0 -1 0 97 95 95 255 0.199329 0.278745
0 3e-06 0 0 -1 0 97 95 95 255 0.199329 0.278745
4.75354 2e-06 4.75354 0 -1 0 97 95 95 255 0.199329 0.278745
0.24646 2e-06 4.75354 -0.1575802 -0.9741636 0.1617832 97 95 95 255 0.199329 0.278745
0.24646 3e-06 0.246468 -0.1259162 -0.9707617 -0.2043698 97 95 95 255 0.199329 0.278745
4.75354 3e-06 0.246468 0.1385143 -0.9513314 -0.2752861 97 95 95 255 0.199329 0.278745
4.295914 2e-06 4.585617 0.2315069 -0.9647418 -0.125211 97 95 95 255 0.199511 0.27862
0.35157 -0.149818 4.404739 -0.629886 -0.7738791 0.06599133 97 95 95 255 0.199329 0.278745
0.782234 -0.149817 0.420364 -0.1126951 -0.8976165 -0.4261273 97 95 95 255 0.199329 0.278745
4.64431 -0.149817 0.631676 0.6071838 -0.7915062 -0.06961126 97 95 95 255 0.199329 0.278745
3.954659 2e-06 3.954659 -0.3043065 -0.9525383 0.008273517 97 95 95 255 0.199329 0.278745
0.957138 -0.149818 4.042854 0.5541283 -0.6397536 -0.5325946 97 95 95 255 0.199329 0.278745
1.583488 3e-06 1.401466 0.2927404 -0.9055597 0.3070258 97 95 95 255 0.199329 0.278745
4.042862 -0.149817 0.957146 -0.5137412 -0.8169124 0.2621531 97 95 95 255 0.199329 0.278745
1.045341 2e-06 3.954659 0.2626192 -0.9336937 -0.2434077 97 95 95 255 0.199329 0.278745
3.854334 3e-06 1.054552 -0.5909885 -0.7422332 0.315947 97 95 95 255 0.199329 0.278745
5 2e-06 3.381516 6.514394e-08 -1 -1.728284e-07 97 95 95 255 0.199329 0.278745
4.688957 2e-06 3.264275 0.5269136 -0.8498754 -0.008599743 97 95 95 255 0.199329 0.278745
4.591751 -0.149818 3.229996 0.8409113 -0.5407596 -0.02115363 97 95 95 255 0.199329 0.278745
4.070831 -0.149818 3.130074 1.797314e-07 -1 -9.36989e-07 120 120 119 255 0.200754 0.303684
3.766342 2e-06 3.210281 -0.1711681 -0.9699385 -0.1729763 97 95 95 255 0.199329 0.278745
1.093719 3e-06 3.014771 -0.1493199 -0.9851173 -0.08513255 97 95 95 255 0.199329 0.278745
0.389168 -0.149818 3.207985 -0.7316676 -0.6811122 -0.02736629 97 95 95 255 0.199329 0.278745
0.24646 2e-06 3.294609 -0.5823895 -0.8128432 -0.01041516 97 95 95 255 0.199329 0.278745
0 2e-06 3.381516 4.615398e-08 -1 -2.836605e-07 97 95 95 255 0.199329 0.278745
0 3e-06 1.45282 1.339619e-07 -1 -1.728284e-07 97 95 95 255 0.199329 0.278745
0.271103 3e-06 1.662956 -0.4072197 -0.9132984 -0.007631735 97 95 95 255 0.199328 0.278745
0.373718 -0.149817 1.418945 -0.856263 -0.5146545 -0.04409589 97 95 95 255 0.199329 0.278745
0.824913 -0.149817 1.711014 0.1396022 -0.9523709 0.2711107 97 95 95 255 0.199329 0.278745
1.483215 3e-06 1.886009 0.1384487 -0.9812538 -0.134063 97 95 95 255 0.199329 0.278745
3.954659 3e-06 1.890686 -0.731981 -0.678935 0.05701798 97 95 95 255 0.199329 0.278745
4.096092 -0.149817 1.831444 -5.57767e-07 -1 -2.782328e-07 120 120 119 255 0.200754 0.303684
4.603104 -0.149817 1.619072 0.7571014 -0.6529623 0.02092415 97 95 95 255 0.199329 0.278745
4.75354 3e-06 1.556053 0.5581733 -0.8296536 0.01084261 97 95 95 255 0.199329 0.278745
5 3e-06 1.45282 -1.342953e-08 -1 -2.783272e-07 97 95 95 255 0.199329 0.278745
2.386375 3e-06 0 0 -1 0 97 95 95 255 0.199329 0.278745
2.397575 3e-06 0.246468 -0.001046963 -0.9039876 -0.4275575 97 95 95 255 0.199329 0.278745
2.673515 -0.149817 0.536407 0 -1 0 120 120 119 255 0.200754 0.303684
2.393215 -0.149817 1.096014 0 -1 0 120 120 119 255 0.200754 0.303684
2.398548 3e-06 1.213323 0.3637642 -0.5846242 0.7251829 97 95 95 255 0.199329 0.278745
2.433884 2e-06 3.954659 -0.006469563 -0.9914072 0.1306524 97 95 95 255 0.199329 0.278745
2.394142 -0.149818 4.088554 0.004896241 -0.6189587 -0.7854083 97 95 95 255 0.199329 0.278745
2.571152 -0.149818 4.547913 0 -1 0 120 120 119 255 0.200754 0.303684
2.533066 2e-06 4.707382 0.01224393 -0.8334938 0.5523931 97 95 95 255 0.199329 0.278745
2.386375 2e-06 5 0 -1 0 97 95 95 255 0.199329 0.278745
0.286324 -0.061437 4.713676 -0.4524036 -0.7682775 0.4528585 97 95 95 255 0.199329 0.278745
0.550148 -0.149818 4.646278 -0.0738631 -0.7901677 0.6084236 97 95 95 255 0.199329 0.278745
0.957138 -0.149818 3.519066 0.7161523 -0.6966945 -0.041747 97 95 95 255 0.199329 0.278745
0.783585 -0.149818 3.094124 0.4247584 -0.9040923 -0.04687858 97 95 95 255 0.199329 0.278745
0.880707 -0.149817 2.457985 0.3366723 -0.9402273 0.05122955 97 95 95 255 0.199329 0.278745
4.341309 -0.149817 0.34774 0.1106253 -0.8051919 -0.5826046 97 95 95 255 0.199329 0.278745
4.724274 -0.045095 0.275726 0.4432641 -0.7673034 -0.4634246 97 95 95 255 0.199329 0.278745
0.872269 -0.149817 1.285789 0.2071253 -0.9782933 -0.006427782 97 95 95 255 0.199329 0.278745
1.628734 -0.149817 1.170784 0 -1 0 120 120 119 255 0.200754 0.303684
0.828957 -0.149817 1.027069 0 -1 0 120 120 119 255 0.200754 0.303684
2.250604 0.810279 2.00763 0 -1 0 41 35 28 255 0.014542 0.253193
2.543442 -0.149817 2.860023 -2.235613e-07 -1 -6.859817e-07 106 103 98 255 0.224414 0.294
1.178619 -0.149817 2.983109 1.359389e-08 -1 -5.853057e-07 106 103 98 255 0.224414 0.294
1.766985 3e-06 1.951964 0.1413577 -0.781105 -0.6081883 97 95 95 255 0.199329 0.278745
2.436356 -0.149818 3.865189 -1.31466e-07 -1 -8.490714e-07 106 103 98 255 0.224414 0.294
1.260452 -0.149818 3.737946 1.448201e-07 -1 -1.33834e-06 106 103 98 255 0.224414 0.294
2.543225 0.810279 0.921588 0 -1 0 41 35 28 255 0.014542 0.253193
1.679124 0.810279 1.293495 0 -1 0 41 35 28 255 0.014542 0.253193
4.053 0.810279 2.059278 0 -1 0 41 35 28 255 0.014542 0.253193
3.793583 0.810279 0.950953 0 -1 0 41 35 28 255 0.014542 0.253193
3.400024 -0.149818 3.335213 -2.901197e-07 -1 -5.275314e-07 106 103 98 255 0.224414 0.294
3.58812 -0.149818 3.76403 0 -1 0 106 103 98 255 0.224414 0.294
3.775398 -0.149818 4.065376 -0.006275838 -0.6300495 -0.7765296 97 95 95 255 0.199329 0.278745
3.962433 -0.149818 4.50325 0 -1 0 120 120 119 255 0.200754 0.303684
4.264481 2e-06 4.74337 0.06567987 -0.9921504 0.1064138 97 95 95 255 0.199329 0.278745
4.736122 2e-06 4.35202 0.142204 -0.9838392 0.1088048 97 95 95 255 0.199329 0.278745
4.644211 -0.149818 4.147438 0.650017 -0.7284747 0.2163389 97 95 95 255 0.199329 0.278745
4.030876 -0.149818 3.825798 0 -1 0 120 120 119 255 0.200754 0.303684
4.62323 2e-06 4.331329 -0.03989355 -0.9752081 0.2176641 97 95 95 255 0.199329 0.278745
0.404724 -0.149817 0.816864 -0.6291044 -0.7731373 -0.08053774 97 95 95 255 0.199329 0.278745
3.959724 -0.149818 3.41449 0 -1 0 120 120 119 255 0.200754 0.303684
3.983116 -0.149817 2.58049 -5.267365e-07 -1 -1.043543e-06 120 120 119 255 0.200754 0.303684
1.54635 -0.149817 2.268939 -0.5000489 -0.779484 -0.3773007 97 95 95 255 0.199329 0.278745
2.080647 -0.149817 2.331316 0 -1 0 106 103 98 255 0.224414 0.294
1.642308 0.810279 1.805457 0 -1 0 41 35 28 255 0.014542 0.253193
3.636462 0.810279 2.835674 0 -1 0 41 35 28 255 0.014542 0.253193
2.822364 0.810279 2.618395 0 -1 0 41 35 28 255 0.014542 0.253193
2.204872 3e-06 2.124001 0.4714863 -0.7442104 -0.4731297 97 95 95 255 0.200121 0.280448
3.611877 3e-06 3.059616 0.4656501 -0.7451573 -0.4773999 97 95 95 255 0.199329 0.278745
2.596542 3e-06 2.723579 0.373962 -0.7466171 -0.5501958 97 95 95 255 0.200121 0.280448
0.816277 -0.149817 2.068047 0.03253222 -0.8030535 -0.5950183 97 95 95 255 0.199511 0.281668
0.439499 -0.149817 2.047447 0.09574789 -0.8548813 -0.5099121 97 95 95 255 0.199511 0.281668
0.807465 3e-06 1.865364 -0.0241951 -0.9891357 -0.1450004 97 95 95 255 0.199511 0.281668
1.693748 -0.149817 0.40139 0.01915673 -0.7885767 -0.6146379 97 95 95 255 0.199329 0.278745
3.608482 -0.149817 0.3582 -0.02575883 -0.6670095 -0.7446038 97 95 95 255 0.199329 0.278745
3.504987 0.202816 2.793063 -0.63008 -0.6081147 -0.4829034 97 95 95 255 0.199329 0.278745
3.774402 0.250739 1.966755 -0.9826593 -0.1813348 0.03870833 97 95 95 255 0.199329 0.278745
3.665537 0.250739 1.1777 -0.7820848 -0.499131 0.3731107 97 95 95 255 0.199329 0.278745
2.401168 0.250739 1.415004 0.4469359 0.03567481 0.8938544 97 95 95 255 0.199329 0.278745
1.869547 0.250739 1.457919 0.6717181 -0.2200871 0.7073588 97 95 95 255 0.199329 0.278745
1.788523 0.225936 1.79217 0.7802726 -0.6165445 -0.1051078 97 95 95 255 0.199329 0.278745
2.29697 0.168521 1.986483 0.5005502 -0.4032012 -0.7660798 97 95 95 255 0.200121 0.280448
2.735847 0.244854 2.522316 0.6148328 -0.3481233 -0.7076659 97 95 95 255 0.200121 0.280448
3.841678 -0.149817 1.359025 -0.7555066 -0.6551062 0.006752711 97 95 95 255 0.199329 0.278745
3.734329 3e-06 1.391957 -0.7809742 -0.6245633 0.0001985951 97 95 95 255 0.199329 0.278745
3.477248 0.250739 1.497352 -0.9944322 -0.1003665 0.03211385 97 95 95 255 0.199329 0.278745
2.715341 0.250739 1.052873 0.3651946 -0.1056835 0.9249129 97 95 95 255 0.199329 0.278745
2.735046 3e-06 0.865625 0.2770387 -0.5623388 0.7791179 97 95 95 255 0.199329 0.278745
2.74641 -0.149817 0.749791 0.1341799 -0.610972 0.7801981 97 95 95 255 0.199329 0.278745
1.693748 -0.149817 0.40139 0 -1 0 120 120 119 255 0.200754 0.303684
0.782234 -0.149817 0.420364 0 -1 0 120 120 119 255 0.200754 0.303684
4.603104 -0.149817 1.619072 -8.678842e-08 -1 -2.071965e-07 120 120 119 255 0.200754 0.303684
4.591751 -0.149818 3.229996 -2.18973e-07 -1 -4.51446e-07 120 120 119 255 0.200754 0.303684
1.628734 -0.149817 1.170784 0.03739336 -0.7725177 0.6338912 97 95 95 255 0.199329 0.278745
2.393215 -0.149817 1.096014 0.46077 -0.5409243 0.7036278 97 95 95 255 0.199329 0.278745
4.096092 -0.149817 1.831444 -0.6998028 -0.7053331 0.1130551 97 95 95 255 0.199329 0.278745
3.983116 -0.149817 2.58049 -0.6578672 -0.7513351 -0.05202319 97 95 95 255 0.199329 0.278745
4.644211 -0.149818 4.147438 0 -1 0 120 120 119 255 0.200754 0.303684
3.959724 -0.149818 3.41449 -0.6946045 -0.7177886 0.04800122 97 95 95 255 0.199329 0.278745
4.030876 -0.149818 3.825798 -0.8269686 -0.543744 0.1430574 97 95 95 255 0.199329 0.278745
0.404724 -0.149817 0.816864 0 -1 0 120 120 119 255 0.200754 0.303684
2.543442 -0.149817 2.860023 0.4808876 -0.7328621 -0.481311 97 95 95 255 0.200121 0.280448
3.775398 -0.149818 4.065376 0 -1 0 120 120 119 255 0.200754 0.303684
2.394142 -0.149818 4.088554 0 -1 0 120 120 119 255 0.200754 0.303684
3.962433 -0.149818 4.50325 0.142241 -0.8763013 0.4602864 97 95 95 255 0.199329 0.278745
2.571152 -0.149818 4.547913 0.02778975 -0.7252103 0.6879664 97 95 95 255 0.199329 0.278745
0.957138 -0.149818 4.042854 0 -1 0 120 120 119 255 0.200754 0.303684
0.550148 -0.149818 4.646278 0 -1 0 120 120 119 255 0.200754 0.303684
0.35157 -0.149818 4.404739 0 -1 0 120 120 119 255 0.200754 0.303684
0.389168 -0.149818 3.207985 -6.287325e-08 -1 -2.177946e-07 120 120 119 255 0.200754 0.303684
0.957138 -0.149818 3.519066 0 -1 0 120 120 119 255 0.200754 0.303684
0.783585 -0.149818 3.094124 3.42397e-07 -1 -7.484632e-07 120 120 119 255 0.200754 0.303684
0.271103 3e-06 1.662956 -0.1402437 -0.9565144 0.2557575 97 95 95 255 0.199511 0.281668
0.816277 -0.149817 2.068047 0.1199452 -0.9360105 -0.330904 97 95 95 255 0.199329 0.278745
0.807465 3e-06 1.865364 -0.002008124 -0.9978355 0.06572963 97 95 95 255 0.199329 0.278745
4.64431 -0.149817 0.631676 0 -1 0 120 120 119 255 0.200754 0.303684
3.841678 -0.149817 1.359025 0 -1 0 120 120 119 255 0.200754 0.303684
4.042862 -0.149817 0.957146 0 -1 0 120 120 119 255 0.200754 0.303684
4.341309 -0.149817 0.34774 0 -1 0 120 120 119 255 0.200754 0.303684
0.828957 -0.149817 1.027069 0.06163407 -0.9632977 0.2612639 97 95 95 255 0.199329 0.278745
3.608482 -0.149817 0.3582 0 -1 0 120 120 119 255 0.200754 0.303684
2.74641 -0.149817 0.749791 0 -1 0 120 120 119 255 0.200754 0.303684
1.178619 -0.149817 2.983109 -0.8722183 -0.4579744 -0.1717402 97 95 95 255 0.199329 0.278745
1.260452 -0.149818 3.737946 -0.453054 -0.7773297 0.4364637 97 95 95 255 0.199329 0.278745
2.436356 -0.149818 3.865189 -0.008626325 -0.512802 0.8584636 97 95 95 255 0.199329 0.278745
3.400024 -0.149818 3.335213 0.3056649 -0.9273522 -0.2158402 97 95 95 255 0.199329 0.278745
3.58812 -0.149818 3.76403 0.239989 -0.9042338 0.3532231 97 95 95 255 0.199329 0.278745
3.962433 -0.149818 4.50325 0.4924551 -0.8377925 -0.2357793 97 95 95 255 0.199511 0.27862
3.954659 2e-06 3.954659 0.07862506 -0.9816532 0.1737099 97 95 95 255 0.199511 0.27862
3.775398 -0.149818 4.065376 0.5368976 -0.8118791 -0.2293322 97 95 95 255 0.199511 0.27862
4.295914 2e-06 4.585617 0.1333036 -0.9907193 0.02656144 97 95 95 255 0.199329 0.278745
4.62323 2e-06 4.331329 -0.1731201 -0.9357395 0.3072799 97 95 95 255 0.199511 0.27862
4.030876 -0.149818 3.825798 -0.3287296 -0.7063931 0.6268538 97 95 95 255 0.199511 0.27862
4.644211 -0.149818 4.147438 -0.3265526 -0.7292348 0.6013153 97 95 95 255 0.199511 0.27862
0.824913 -0.149817 1.711014 0 -1 0 120 120 119 255 0.200754 0.303684
0.373718 -0.149817 1.418945 0 -1 0 120 120 119 255 0.200754 0.303684
0.872269 -0.149817 1.285789 0 -1 0 120 120 119 255 0.200754 0.303684
4.070831 -0.149818 3.130074 -0.4531561 -0.8894885 -0.058821 97 95 95 255 0.199329 0.278745
2.080647 -0.149817 2.331316 0.2202883 -0.8784662 -0.4239932 97 95 95 255 0.200121 0.280448
1.788523 0.225936 1.79217 0.3203935 -0.1476423 -0.9357082 97 95 95 255 0.200121 0.280448
1.766985 3e-06 1.951964 0.1893145 -0.7759351 -0.6017348 97 95 95 255 0.200121 0.280448
1.54635 -0.149817 2.268939 0 -1 0 106 103 98 255 0.224414 0.294
1.54635 -0.149817 2.268939 0.04670996 -0.9152807 -0.4000994 97 95 95 255 0.200121 0.280448
3.611877 3e-06 3.059616 0.1740527 -0.8325475 -0.5258996 97 95 95 255 0.200121 0.280448
3.504987 0.202816 2.793063 0.2785906 -0.3583721 -0.8910425 97 95 95 255 0.200121 0.280448
3.400024 -0.149818 3.335213 0.2440474 -0.8179524 -0.5209556 97 95 95 255 0.200121 0.280448
0.439499 -0.149817 2.047447 3.42397e-07 -1 -7.484632e-07 120 120 119 255 0.200754 0.303684
0.880707 -0.149817 2.457985 6.393421e-07 -1 -6.871055e-07 120 120 119 255 0.200754 0.303684
0.816277 -0.149817 2.068047 0 -1 0 120 120 119 255 0.200754 0.303684
0.439499 -0.149817 2.047447 -0.6935688 -0.7200887 -0.0208496 97 95 95 255 0.199329 0.278745
0.824913 -0.149817 1.711014 -0.2627017 -0.7962911 0.544893 97 95 95 255 0.199511 0.281668
0.373718 -0.149817 1.418945 -0.270838 -0.8669435 0.4183968 97 95 95 255 0.199511 0.281668
2.673515 -0.149817 0.536407 -0.002959747 -0.8895453 -0.4568374 97 95 95 255 0.199329 0.278745
3.636462 0.810279 2.835674 -0.8671376 0.3446333 -0.3595836 97 95 95 255 0.199329 0.278745
4.053 0.810279 2.059278 -0.8576905 0.5048212 0.09758379 97 95 95 255 0.199329 0.278745
3.793583 0.810279 0.950953 -0.6674959 0.4593252 0.5860628 97 95 95 255 0.199329 0.278745
2.543225 0.810279 0.921588 0.3593456 0.4153235 0.8356897 97 95 95 255 0.199329 0.278745
1.679124 0.810279 1.293495 0.5285454 0.4833113 0.6978897 97 95 95 255 0.199329 0.278745
1.642308 0.810279 1.805457 0.9451832 0.286171 0.1572731 97 95 95 255 0.199329 0.278745
2.250604 0.810279 2.00763 0.5609573 0.06137009 -0.8255668 97 95 95 255 0.200121 0.280448
1.642308 0.810279 1.805457 0.3138155 0.09999282 -0.944204 97 95 95 255 0.200121 0.280448
2.822364 0.810279 2.618395 0.4551803 0.04269252 -0.8893752 97 95 95 255 0.200121 0.280448
3.636462 0.810279 2.835674 0.2578505 0.01196151 -0.9661108 97 95 95 255 0.200121 0.280448
3 59 80 58 
3 45 46 5 
3 5 46 1 
3 3 37 6 
3 6 37 38 
3 35 36 19 
3 19 36 18 
3 48 47 9 
3 38 90 6 
3 6 90 10 
3 35 19 34 
3 34 19 20 
3 23 50 51 
3 39 40 106 
3 40 55 106 
3 106 55 107 
3 107 55 56 
3 108 109 33 
3 33 109 78 
3 109 21 78 
3 42 43 16 
3 16 43 13 
3 14 110 41 
3 41 110 111 
3 112 113 32 
3 32 113 22 
3 19 18 72 
3 72 18 0 
3 20 19 73 
3 73 19 72 
3 114 74 109 
3 74 77 109 
3 77 21 109 
3 22 115 12 
3 12 115 116 
3 58 61 59 
3 59 61 62 
3 1 26 5 
3 5 26 25 
3 28 27 6 
3 6 27 3 
3 29 28 76 
3 76 28 6 
3 56 117 107 
3 31 30 14 
3 14 30 54 
3 15 100 17 
3 17 100 101 
3 2 36 7 
3 7 36 35 
3 38 37 7 
3 7 37 2 
3 52 53 11 
3 104 105 17 
3 17 105 15 
3 65 57 66 
3 66 57 63 
3 86 118 84 
3 68 61 67 
3 67 61 58 
3 12 69 42 
3 42 69 43 
3 70 44 119 
3 119 44 120 
3 71 45 121 
3 121 45 122 
3 0 46 71 
3 71 46 45 
3 5 25 47 
3 47 25 9 
3 25 24 9 
3 49 50 23 
3 120 44 123 
3 123 44 124 
3 5 47 45 
3 47 48 45 
3 122 45 48 
3 125 126 123 
3 123 126 127 
3 126 128 127 
3 87 88 89 
3 89 88 129 
3 31 130 131 
3 13 49 16 
3 16 49 23 
3 132 133 134 
3 134 135 132 
3 38 7 91 
3 7 53 91 
3 91 53 52 
3 7 35 53 
3 53 35 11 
3 35 34 11 
3 136 110 14 
3 54 136 14 
3 135 134 137 
3 39 137 138 
3 138 137 134 
3 124 125 123 
3 31 79 23 
3 23 79 139 
3 16 140 42 
3 42 140 141 
3 16 23 140 
3 140 23 139 
3 31 97 60 
3 14 41 96 
3 96 41 95 
3 103 104 94 
3 94 104 17 
3 17 101 94 
3 94 101 102 
3 85 22 142 
3 12 42 143 
3 143 42 141 
3 12 143 22 
3 22 143 142 
3 8 144 145 
3 145 144 146 
3 147 71 121 
3 0 71 4 
3 72 0 4 
3 75 4 147 
3 145 148 8 
3 149 150 145 
3 145 150 148 
3 73 72 75 
3 75 72 4 
3 4 71 147 
3 76 6 10 
3 151 152 153 
3 117 56 152 
3 152 56 153 
3 22 154 115 
3 22 113 154 
3 79 31 60 
3 155 84 118 
3 31 14 97 
3 97 14 96 
3 63 57 64 
3 64 57 81 
3 65 83 57 
3 22 92 32 
3 32 92 93 
3 156 98 157 
3 157 98 84 
3 98 99 84 
3 84 99 86 
3 92 22 85 
3 158 80 59 
3 84 155 157 
3 157 155 159 
3 82 83 65 
3 160 86 161 
3 161 86 99 
3 118 86 162 
3 162 86 160 
3 23 51 31 
3 31 51 130 
3 126 163 128 
3 128 163 164 
3 164 163 165 
3 24 25 166 
3 166 25 28 
3 25 26 28 
3 28 26 27 
3 89 129 167 
3 167 129 168 
3 31 131 30 
3 90 38 169 
3 169 38 91 
3 92 170 93 
3 93 170 171 
3 94 102 172 
3 173 103 172 
3 172 103 94 
3 96 95 174 
3 174 95 173 
3 97 96 175 
3 175 96 174 
3 98 156 176 
3 176 156 177 
3 178 99 176 
3 176 99 98 
3 99 178 161 
3 161 178 179 
3 132 108 133 
3 133 108 33 
3 101 100 32 
3 32 100 112 
3 102 101 93 
3 93 101 32 
3 172 102 171 
3 171 102 93 
3 95 103 173 
3 104 103 41 
3 41 103 95 
3 41 111 104 
3 104 111 105 
3 40 39 138 
