ply
format ascii 1.0
comment INFO-3111 Flatenator generated
comment TextureFile Dungeons_Texture_01.png
element vertex 399
property float x
property float y
property float z
element face 502
property list uchar int vertex_indices
end_header
-0.408283 3.00218 0.315957 
0.366908 2.93308 0.314931 
0.410591 2.98253 0.275034 
0.644148 2.89051 0.316398 
0.218896 3.00517 0.31758 
1.09219 2.74418 0.316427 
0.182338 2.69407 0.317347 
-0.208552 2.69621 0.308103 
-0.901544 2.55715 0.314762 
-0.513081 2.68388 0.316957 
0.823723 2.56782 0.315147 
-0.91327 2.52975 0.248525 
-1.00378 2.49025 0.315626 
1.52203 2.33317 0.317059 
1.23442 2.16973 0.316152 
-1.17406 2.34442 0.293401 
-1.34319 2.30297 0.317029 
1.4667 2.20481 0.315779 
-1.57249 2.1498 0.316864 
1.51978 2.1606 0.309587 
1.2656 2.10826 0.316762 
1.61325 2.16416 0.248271 
1.57225 2.09995 0.31641 
-1.34699 2.11124 0.315079 
1.62214 1.98262 0.235463 
1.61519 1.84581 0.31602 
-1.38031 1.8763 0.315266 
1.41461 1.71979 0.316347 
-1.39063 1.65402 0.312447 
1.61338 1.6722 0.305594 
-1.35164 1.58254 0.314088 
-1.64265 1.05922 0.315698 
1.33991 1.08079 0.271344 
1.62385 1.05931 0.315753 
1.62547 0.594492 0.315753 
-1.32612 0.563133 0.234937 
-1.3494 1.05134 0.316292 
-1.40131 0.565173 0.314096 
1.59502 0.526024 0.25708 
-1.32213 0.484756 0.313092 
1.38384 0.485634 0.314944 
1.62586 0.381145 0.305793 
-1.6426 0.486459 0.314986 
1.62553 0.318968 0.315571 
1.62551 0.281558 0.315541 
-1.32119 0.105775 0.315423 
1.62554 0.160124 0.315461 
1.62539 0.001656 0.315351 
-0.299403 3.00977 0.317063 
-0.604268 2.92056 0.317682 
-0.341052 2.76964 0.315584 
0.347622 2.69053 0.315944 
1.17272 2.70369 0.31694 
1.5792 2.18961 0.257481 
-1.34697 1.73431 0.236451 
1.62408 1.60323 0.316559 
-1.34936 1.13147 0.316347 
1.29717 0.587428 0.315088 
-1.58856 0.782907 0.31338 
-1.35233 0.515642 0.253404 
1.62586 0.289946 0.305759 
1.62586 0.197458 0.305713 
1.62586 0.075888 0.305628 
-1.00395 2.58749 0.264273 
-1.21588 2.29641 0.258068 
-1.3239 2.17111 0.316512 
-1.28502 2.14905 -0.312941 
-1.37001 1.61635 0.234842 
1.60225 1.08162 0.271885 
-0.43602 2.71741 0.256286 
0.60795 2.60826 0.283195 
0.995705 2.63387 0.262561 
-1.48412 2.18185 0.263491 
1.33261 1.73458 0.27906 
1.60187 1.62846 0.273315 
1.62432 1.60344 -0.315946 
-1.36897 1.1025 0.271864 
1.62543 1.12645 0.316376 
-1.57923 0.560989 0.303691 
-0.3773 2.97147 0.259479 
0.296259 2.87076 0.293949 
-1.35056 0.008567 0.26315 
0.291518 2.96661 0.235751 
0.697664 2.56069 0.275161 
-1.35005 1.12409 -0.187443 
-1.55208 2.23007 0.316054 
1.59905 2.22494 0.023054 
1.62552 0.487235 -0.316234 
-1.3215 0.486288 -0.174478 
-1.1708 2.70142 0.316533 
-1.30187 0.138344 -0.003742 
0.298089 2.71689 0.303225 
-0.947607 2.52119 -0.048488 
-1.63658 0.6603 0.270331 
-1.05982 2.74466 0.135471 
-1.33928 2.14522 0.093213 
-1.6409 1.67431 0.315567 
-1.62198 1.64496 0.274879 
1.35271 1.63633 0.268022 
-1.34891 1.64786 0.163772 
1.32056 1.13127 0.306624 
0.95541 2.42605 0.317084 
1.31869 1.56473 0.316533 
1.60919 1.70035 0.137541 
-1.34769 1.57273 -0.315412 
1.60057 1.08439 0.119812 
1.09538 2.71543 0.068406 
-1.03928 2.38045 -0.147842 
0.334264 2.72451 0.035 
1.14769 2.70725 -0.314622 
-1.33293 0.697093 -0.316084 
-0.972385 2.78473 0.310494 
-1.40175 2.46468 0.317216 
0.784604 2.53816 0.149093 
-1.11548 2.70897 0.271327 
1.59163 1.65958 -0.033976 
1.04125 2.74761 -0.313655 
-1.62053 1.08162 0.271893 
1.2884 2.14782 0.262198 
-1.64357 1.05241 0.051529 
-1.64239 0.565303 0.193091 
1.29135 0.000938 0.315351 
-1.31983 0.003371 0.06737 
-0.881421 2.57551 -0.267861 
1.31857 1.65195 0.163274 
0.853558 2.52804 0.260914 
-1.64197 1.5895 0.316499 
1.62338 1.79852 -0.187685 
1.31954 1.34357 0.14811 
1.32478 0.528846 0.249583 
1.29247 0.486112 0.314927 
1.27279 0.138576 -0.004026 
0.702278 2.86925 -0.313687 
-1.54875 2.20236 0.262071 
1.31916 1.59129 0.078362 
1.58945 1.0889 -0.252709 
1.32071 1.05231 0.177752 
1.62303 1.04578 -0.312784 
-1.34706 1.65556 -0.315611 
-1.64313 0.001658 0.315351 
-1.6411 1.6696 -0.00202 
-1.32574 0.563585 -0.231443 
1.62287 1.66842 -0.313037 
-1.10531 2.70617 0.121391 
-1.6432 1.12638 0.316376 
1.29624 0.594294 -0.049332 
0.397002 3.00807 -0.188634 
-0.319798 2.69455 0.178375 
1.50641 2.19952 -0.258744 
-1.3294 0 -0.31769 
0.258417 3.01159 -0.313706 
1.26369 2.1112 -0.076465 
-1.59157 2.21381 -0.04948 
1.31985 1.25303 -0.060328 
0.383527 2.73235 -0.255025 
1.24649 2.18296 0.079193 
1.07943 2.72015 -0.269238 
-1.26474 2.21023 -0.313922 
-1.61278 1.64207 -0.263177 
1.33832 1.37475 -0.038058 
-1.39117 1.10235 -0.261516 
-1.6436 0.001321 0.05396 
0.411218 2.98992 -0.223462 
1.56606 2.12708 -0.271817 
1.62511 1.20833 -0.314812 
-1.35798 0.481724 -0.288967 
1.62586 0.00146 -0.143863 
-0.311911 2.96691 -0.255394 
0.338923 2.97338 -0.254624 
-0.968276 2.77071 -0.245489 
0.915889 2.58646 -0.255847 
1.49093 2.22739 -0.31378 
-1.34933 1.05173 -0.315997 
-0.307309 2.71459 -0.245152 
-0.902757 2.6358 -0.271298 
1.34966 2.47766 -0.286073 
-1.55554 2.2057 -0.258977 
-1.32544 2.18587 -0.258119 
1.23219 2.14762 -0.266782 
-1.36558 1.62618 -0.271942 
-1.34883 1.26739 -0.315558 
1.59928 0.543384 -0.259102 
-1.34881 0.531064 -0.245504 
1.62582 0.10654 -0.27355 
-1.59428 0.014408 -0.231276 
-0.701586 2.84772 -0.282038 
-1.01955 2.73674 -0.300701 
-1.55894 2.17269 -0.314539 
1.49244 2.15869 -0.30982 
1.35187 1.61701 -0.262149 
1.60231 1.62967 -0.271266 
-1.62018 1.0829 -0.269846 
1.34026 1.08188 -0.269594 
-1.64346 1.05311 -0.315024 
-1.32103 0.327646 -0.314139 
1.58868 0.021203 -0.280402 
-0.863438 2.5475 -0.313744 
-1.64202 1.58746 -0.314624 
1.31985 1.04348 -0.316501 
1.6256 0.594867 -0.315554 
-1.61301 0.529023 -0.260225 
-1.64283 0.487844 -0.315315 
-0.254971 3.00662 -0.314526 
-0.35553 2.99897 -0.313412 
-0.222915 2.70175 -0.312096 
-0.8323 2.77862 -0.313944 
0.420022 2.89146 -0.307934 
0.305058 2.76045 -0.31399 
0.442993 2.69681 -0.315702 
-0.991147 2.7434 -0.257848 
0.061734 2.69929 -0.315262 
-0.77502 2.57594 -0.313342 
-0.367007 2.68928 -0.314897 
-1.3838 2.41254 -0.293816 
1.00861 2.58853 -0.315611 
0.900007 2.50124 -0.311913 
-1.34263 2.38661 -0.315582 
0.975276 2.43467 -0.314626 
0.830979 2.5378 -0.313465 
1.2167 2.43399 -0.285839 
1.16741 2.2951 -0.303615 
1.13746 2.28894 -0.252528 
-1.5034 2.29716 -0.315635 
-1.54364 2.23522 -0.313689 
1.19247 2.16443 -0.300356 
1.20698 2.11631 -0.313096 
-1.64094 1.8003 -0.31438 
-1.61026 1.69665 -0.314819 
1.6231 1.88587 -0.314406 
-1.55725 1.66031 -0.313291 
1.31787 1.66571 -0.314423 
1.37222 1.59622 -0.309055 
1.31898 1.4892 -0.314986 
1.32052 1.13165 -0.301409 
1.58265 1.20784 -0.316633 
-1.64338 1.12663 -0.315986 
1.41583 1.12426 -0.314107 
1.30367 0.706015 -0.31612 
1.3489 0.646855 -0.315944 
1.32988 0.530883 -0.246682 
-1.6419 0.565444 -0.301564 
-1.37005 0.585358 -0.309631 
1.29227 0.486647 -0.314664 
-1.43333 0.472515 -0.315544 
-1.6436 0.206256 -0.315633 
-1.55335 0.228717 -0.317281 
1.29113 0.001853 -0.31665 
-1.62484 0.056335 -0.242749 
1.57262 0.061806 -0.317103 
-1.49232 0.000754 -0.317686 
-1.56512 0.06377 -0.312115 
1.42715 0.000631 -0.273135 
-1.64094 1.69846 -0.201368 
-0.299403 3.00977 0.317063 
-0.208552 2.69621 0.308103 
-0.972385 2.78473 0.310494 
-0.901544 2.55715 0.314762 
1.52203 2.33317 0.317059 
1.4667 2.20481 0.315779 
1.61325 2.16416 0.248271 
1.57225 2.09995 0.31641 
1.2656 2.10826 0.316762 
1.41461 1.71979 0.316347 
1.33261 1.73458 0.27906 
1.61338 1.6722 0.305594 
1.38384 0.485634 0.314944 
1.62586 0.381145 0.305793 
0.366908 2.93308 0.314931 
0.410591 2.98253 0.275034 
-1.39063 1.65402 0.312447 
-1.6409 1.67431 0.315567 
-1.35164 1.58254 0.314088 
-1.64197 1.5895 0.316499 
1.31869 1.56473 0.316533 
1.62408 1.60323 0.316559 
-1.6432 1.12638 0.316376 
-1.34936 1.13147 0.316347 
-1.64265 1.05922 0.315698 
-1.3494 1.05134 0.316292 
1.29247 0.486112 0.314927 
0.347622 2.69053 0.315944 
1.09219 2.74418 0.316427 
0.823723 2.56782 0.315147 
0.853558 2.52804 0.260914 
-1.55208 2.23007 0.316054 
-1.3239 2.17111 0.316512 
-1.57249 2.1498 0.316864 
-1.34699 2.11124 0.315079 
1.23442 2.16973 0.316152 
1.62385 1.05931 0.315753 
1.33991 1.08079 0.271344 
-1.40131 0.565173 0.314096 
-1.32612 0.563133 0.234937 
-0.408283 3.00218 0.315957 
-0.513081 2.68388 0.316957 
0.218896 3.00517 0.31758 
0.182338 2.69407 0.317347 
-1.1708 2.70142 0.316533 
1.17272 2.70369 0.31694 
-1.00378 2.49025 0.315626 
0.853558 2.52804 0.260914 
-0.91327 2.52975 0.248525 
1.31857 1.65195 0.163274 
1.32056 1.13127 0.306624 
1.62543 1.12645 0.316376 
-1.63658 0.6603 0.270331 
-1.57923 0.560989 0.303691 
1.62547 0.594492 0.315753 
1.29717 0.587428 0.315088 
-1.6426 0.486459 0.314986 
-1.32213 0.484756 0.313092 
-1.34697 1.73431 0.236451 
-1.38031 1.8763 0.315266 
-0.319798 2.69455 0.178375 
-0.43602 2.71741 0.256286 
1.62552 0.487235 -0.316234 
-1.10531 2.70617 0.121391 
-1.64357 1.05241 0.051529 
-1.3215 0.486288 -0.174478 
-1.6411 1.6696 -0.00202 
1.31916 1.59129 0.078362 
1.24649 2.18296 0.079193 
-1.34769 1.57273 -0.315412 
-1.34933 1.05173 -0.315997 
-1.64239 0.565303 0.193091 
-0.972385 2.78473 0.310494 
-0.604268 2.92056 0.317682 
-1.05982 2.74466 0.135471 
-0.947607 2.52119 -0.048488 
-1.35005 1.12409 -0.187443 
-1.28502 2.14905 -0.312941 
-1.64338 1.12663 -0.315986 
1.14769 2.70725 -0.314622 
1.60919 1.70035 0.137541 
1.29624 0.594294 -0.049332 
-1.64283 0.487844 -0.315315 
-1.55894 2.17269 -0.314539 
1.26369 2.1112 -0.076465 
-0.77502 2.57594 -0.313342 
0.784604 2.53816 0.149093 
1.59163 1.65958 -0.033976 
1.31787 1.66571 -0.314423 
1.62303 1.04578 -0.312784 
1.04125 2.74761 -0.313655 
1.58945 1.0889 -0.252709 
1.32071 1.05231 0.177752 
1.29227 0.486647 -0.314664 
0.397002 3.00807 -0.188634 
-1.5034 2.29716 -0.315635 
-0.254971 3.00662 -0.314526 
-1.64346 1.05311 -0.315024 
1.62432 1.60344 -0.315946 
1.32052 1.13165 -0.301409 
0.900007 2.50124 -0.311913 
-0.968276 2.77071 -0.245489 
-1.26474 2.21023 -0.313922 
-1.33293 0.697093 -0.316084 
0.442993 2.69681 -0.315702 
-1.01955 2.73674 -0.300701 
1.56606 2.12708 -0.271817 
0.258417 3.01159 -0.313706 
0.383527 2.73235 -0.255025 
1.20698 2.11631 -0.313096 
-0.367007 2.68928 -0.314897 
-1.34706 1.65556 -0.315611 
1.62287 1.66842 -0.313037 
1.35187 1.61701 -0.262149 
1.31916 1.59129 0.078362 
1.31898 1.4892 -0.314986 
0.830979 2.5378 -0.313465 
1.19247 2.16443 -0.300356 
-1.64094 1.8003 -0.31438 
-0.701586 2.84772 -0.282038 
1.32988 0.530883 -0.246682 
-0.35553 2.99897 -0.313412 
-0.222915 2.70175 -0.312096 
1.49093 2.22739 -0.31378 
-0.863438 2.5475 -0.313744 
1.31985 1.04348 -0.316501 
-0.701586 2.84772 -0.282038 
1.37222 1.59622 -0.309055 
-1.6419 0.565444 -0.301564 
0.411218 2.98992 -0.223462 
1.49244 2.15869 -0.30982 
-1.64202 1.58746 -0.314624 
1.6256 0.594867 -0.315554 
-1.32103 0.327646 -0.314139 
0.305058 2.76045 -0.31399 
-1.34883 1.26739 -0.315558 
0.420022 2.89146 -0.307934 
-0.8323 2.77862 -0.313944 
1.00861 2.58853 -0.315611 
-1.54364 2.23522 -0.313689 
1.62432 1.60344 -0.315946 
1.41583 1.12426 -0.314107 
-1.37005 0.585358 -0.309631 
1.3489 0.646855 -0.315944 
-1.43333 0.472515 -0.315544 
-1.61278 1.64207 -0.263177 
3 2 1 3
3 0 49 9
3 48 6 4
3 49 111 9
3 7 253 50
3 3 1 51
3 48 254 6
3 255 114 8
3 3 51 70
3 111 256 9
3 3 70 10
3 5 3 10
3 9 256 11
3 10 70 83
3 89 112 12
3 12 112 16
3 52 125 101
3 16 112 85
3 52 101 14
3 52 14 17
3 52 17 13
3 12 16 15
3 15 16 65
3 15 65 64
3 53 257 258
3 16 85 65
3 21 53 19
3 19 22 21
3 19 20 22
3 23 18 26
3 259 260 24
3 260 261 27
3 24 260 25
3 25 260 27
3 26 18 28
3 27 261 73
3 18 96 28
3 25 27 29
3 262 263 98
3 264 262 98
3 55 102 77
3 30 126 56
3 77 102 100
3 126 144 56
3 33 32 57
3 36 31 58
3 33 57 34
3 36 58 93
3 36 93 78
3 36 37 35
3 36 78 37
3 38 40 41
3 265 130 44
3 265 44 43
3 266 265 43
3 39 42 45
3 44 130 121
3 42 139 45
3 44 121 46
3 81 45 139
3 46 121 47
3 267 268 82
3 253 79 69
3 69 50 253
3 8 114 63
3 54 23 26
3 269 270 67
3 271 67 272
3 273 274 74
3 275 76 276
3 117 277 278
3 279 40 129
3 266 43 60
3 60 43 44
3 60 44 61
3 61 44 46
3 61 46 62
3 62 46 47
3 280 267 91
3 71 281 282
3 109 52 13
3 10 83 283
3 101 155 14
3 284 133 72
3 284 72 285
3 286 287 72
3 288 118 258
3 20 19 118
3 261 124 73
3 270 97 67
3 264 98 74
3 75 55 77
3 289 68 290
3 32 136 57
3 291 59 292
3 40 38 129
3 39 45 90
3 183 266 60
3 121 130 131
3 183 60 61
3 183 61 62
3 183 62 47
3 121 166 47
3 293 294 79
3 91 267 80
3 295 296 91
3 143 297 114
3 297 63 114
3 298 281 71
3 50 147 7
3 297 299 63
3 282 300 71
3 298 71 300
3 8 63 301
3 15 64 12
3 286 72 133
3 53 258 19
3 285 72 287
3 263 302 98
3 272 67 97
3 273 74 98
3 75 77 164
3 76 84 276
3 275 117 76
3 303 290 304
3 76 117 278
3 304 290 68
3 119 277 117
3 305 120 306
3 307 308 129
3 291 306 59
3 120 309 310
3 59 120 310
3 267 82 80
3 295 80 82
3 79 294 69
3 295 91 80
3 63 299 301
3 258 118 19
3 24 25 29
3 311 312 269
3 311 269 67
3 306 120 59
3 307 129 38
3 53 86 257
3 130 242 131
3 139 122 81
3 253 167 79
3 70 113 83
3 102 128 100
3 58 31 93
3 310 88 59
3 38 41 87
3 90 45 81
3 313 6 254
3 9 11 314
3 151 20 118
3 270 140 97
3 74 274 115
3 172 76 278
3 120 200 309
3 315 266 183
3 89 316 112
3 50 69 147
3 299 92 301
3 74 115 264
3 272 97 158
3 31 317 93
3 161 122 139
3 94 114 255
3 113 283 83
3 284 152 133
3 53 148 86
3 21 148 53
3 95 285 287
3 67 99 311
3 39 90 318
3 70 51 113
3 163 24 29
3 18 319 96
3 136 198 57
3 213 85 112
3 115 103 264
3 271 104 67
3 102 134 128
3 100 128 153
3 183 47 166
3 273 98 320
3 289 105 68
3 59 182 292
3 296 108 91
3 91 108 280
3 92 123 301
3 288 321 118
3 322 30 56
3 68 105 304
3 122 90 81
3 298 106 281
3 123 211 301
3 66 23 54
3 302 189 98
3 323 36 35
3 167 293 79
3 222 152 284
3 93 317 324
3 146 82 268
3 209 143 114
3 320 98 189
3 126 235 144
3 185 325 326
3 325 185 327
3 12 107 328
3 107 12 64
3 187 286 133
3 261 230 124
3 163 259 24
3 322 56 329
3 308 145 129
3 94 209 114
3 88 182 59
3 95 287 330
3 97 140 158
3 164 77 135
3 275 331 117
3 117 331 119
3 289 137 105
3 201 309 200
3 4 150 48
3 298 332 106
3 316 186 112
3 215 101 125
3 321 178 118
3 118 178 151
3 163 29 333
3 331 191 119
3 193 119 191
3 57 198 334
3 42 335 139
3 95 157 285
3 336 226 18
3 261 337 230
3 159 153 128
3 13 175 109
3 208 113 51
3 197 272 158
3 116 281 106
3 108 154 280
3 338 314 11
3 339 218 300
3 64 65 107
3 176 187 133
3 127 333 340
3 302 341 189
3 134 159 128
3 33 34 342
3 343 132 5
3 296 154 108
3 313 210 6
3 215 217 101
3 163 333 127
3 303 233 290
3 105 344 304
3 290 233 345
3 239 279 129
3 346 279 239
3 150 202 48
3 347 2 3
3 5 132 3
3 185 169 327
3 173 147 69
3 348 85 213
3 66 54 138
3 233 192 345
3 172 160 76
3 307 181 199
3 145 239 129
3 167 253 349
3 152 176 133
3 317 350 324
3 38 181 307
3 69 212 173
3 139 244 161
3 161 249 122
3 121 251 166
3 226 252 18
3 115 274 351
3 153 352 100
3 198 237 334
3 168 295 82
3 18 252 319
3 49 0 203
3 218 353 300
3 95 177 157
3 177 95 330
3 67 179 99
3 141 110 292
3 94 354 209
3 107 65 355
3 148 171 86
3 323 35 356
3 139 335 244
3 347 3 132
3 154 357 280
3 86 171 257
3 104 179 67
3 344 105 137
3 358 143 209
3 223 176 152
3 148 21 359
3 292 182 141
3 332 156 106
3 244 247 161
3 168 360 295
3 210 361 6
3 321 224 178
3 225 151 178
3 362 230 337
3 127 340 142
3 87 181 38
3 116 106 156
3 338 363 314
3 217 221 101
3 223 152 222
3 101 221 155
3 364 311 99
3 115 190 365
3 115 351 190
3 366 232 367
3 368 159 134
3 159 368 153
3 153 368 352
3 164 135 234
3 76 160 84
3 161 184 249
3 149 122 249
3 168 82 146
3 113 208 369
3 370 155 221
3 228 163 127
3 131 242 246
3 371 227 158
3 122 149 90
3 162 168 146
3 372 49 203
3 213 112 186
3 92 196 123
3 221 220 370
3 366 231 232
3 318 90 194
3 247 184 161
3 334 237 373
3 120 240 200
3 88 165 182
3 131 246 121
3 251 195 166
3 167 374 293
3 168 162 206
3 357 154 168
3 173 204 147
3 313 375 210
3 13 376 175
3 355 377 107
3 99 179 364
3 180 84 160
3 345 192 378
3 199 181 239
3 165 200 182
3 183 166 195
3 212 374 167
3 167 349 173
3 357 168 206
3 209 354 379
3 212 167 173
3 170 116 156
3 170 156 332
3 358 209 174
3 174 211 123
3 218 170 353
3 188 178 148
3 359 188 148
3 176 223 177
3 380 189 190
3 191 331 160
3 236 344 192
3 350 381 324
3 239 238 199
3 87 239 181
3 132 382 347
3 332 214 170
3 218 116 170
3 174 196 358
3 123 196 174
3 107 377 328
3 171 148 178
3 177 330 176
3 383 163 228
3 341 365 190
3 341 190 189
3 179 104 158
3 126 384 235
3 233 236 192
3 172 193 191
3 172 191 160
3 385 342 34
3 165 88 386
3 194 90 149
3 207 360 168
3 205 372 203
3 173 349 204
3 207 168 154
3 210 387 361
3 214 353 170
3 224 171 178
3 223 157 177
3 176 330 187
3 188 225 178
3 228 127 142
3 227 229 158
3 229 179 158
3 179 229 364
3 104 197 158
3 351 380 190
3 388 322 329
3 137 192 344
3 240 241 200
3 241 182 200
3 241 141 182
3 243 201 200
3 346 239 87
3 246 251 121
3 202 150 387
3 382 132 389
3 205 203 363
3 132 208 389
3 209 379 390
3 208 132 343
3 205 363 338
3 202 210 375
3 202 387 210
3 209 390 174
3 390 211 174
3 208 343 369
3 213 186 216
3 216 186 377
3 391 109 219
3 215 391 217
3 109 175 219
3 217 391 220
3 175 376 219
3 217 220 221
3 391 219 220
3 377 355 216
3 220 219 370
3 213 216 348
3 216 392 348
3 219 376 370
3 216 355 392
3 336 66 226
3 362 383 228
3 226 66 138
3 362 228 230
3 371 364 227
3 227 364 229
3 228 142 230
3 231 393 232
3 384 322 235
3 368 75 234
3 368 234 352
3 234 75 164
3 322 388 235
3 352 234 394
3 331 180 160
3 394 234 135
3 192 137 378
3 342 385 198
3 237 198 385
3 350 323 356
3 356 395 350
3 237 385 396
3 237 396 373
3 350 395 381
3 110 141 241
3 200 165 243
3 165 386 243
3 335 397 245
3 242 315 246
3 335 245 244
3 397 194 245
3 315 248 246
3 244 245 247
3 247 245 250
3 248 315 183
3 245 194 249
3 245 249 250
3 194 149 249
3 183 195 248
3 246 248 251
3 250 249 184
3 250 184 247
3 251 248 195
3 226 398 252
3 319 252 398
