ply
format ascii 1.0
comment INFO-3111 Flatenator generated
comment TextureFile Dungeons_Texture_01.png
element vertex 610
property float x
property float y
property float z
element face 760
property list uchar int vertex_indices
end_header
1.01802 5.01706 0.264546 
-0.009872 5.01492 0.261519 
0.066452 4.53496 0.264518 
1.52477 5.01435 0.238711 
1.11675 5.0389 0.263902 
1.13398 4.57115 0.248958 
2.21055 5.0009 0.26468 
0.969149 4.58101 0.262765 
2.19299 4.52203 0.264691 
1.04184 3.91757 0.264491 
0.124916 3.88172 0.26518 
0.736244 3.426 0.265119 
3.93132 3.9045 0.196193 
3.94717 3.43814 0.264813 
4.25421 3.90571 0.266191 
5.02885 3.88355 0.264648 
5.01475 3.40309 0.265637 
3.88267 3.89387 0.263717 
3.90099 3.41422 0.265651 
3.05434 3.91842 0.264262 
3.04374 3.49898 0.264119 
-0.011139 3.87548 0.228684 
-0.007385 3.39634 0.264356 
1.06689 3.42425 0.202085 
3.03569 3.42446 0.203013 
5.02896 2.78256 0.264801 
4.56371 2.77465 0.266432 
4.88042 2.30271 0.262224 
3.99391 2.38386 0.245424 
5.02633 2.3197 0.234631 
4.964 1.67935 0.218842 
4.83363 1.66495 0.261309 
5.0265 1.18416 0.263742 
3.34721 1.0775 -0.041553 
2.48914 1.10728 -0.042639 
2.64475 0.625774 -0.055824 
2.49389 0.671994 -0.050158 
3.32101 0.58633 -0.107199 
1.37567 0.562541 0.260094 
1.29411 0.594747 0.235926 
1.25925 0.098197 0.272264 
1.68823 4.47436 0.196414 
4.2979 3.98787 0.238191 
3.41079 4.47625 0.271585 
3.43868 4.02593 0.263589 
3.34912 3.97236 0.196746 
3.05434 3.91842 -0.054944 
3.05127 3.9438 -0.123094 
3.04374 3.49898 -0.055089 
-0.000885 2.79854 0.268293 
0.004066 2.36262 0.247765 
1.01489 2.76363 0.245419 
3.95417 2.79759 0.202318 
3.87749 2.79868 0.244083 
3.69886 2.35289 0.239998 
3.92046 2.36933 0.214413 
3.95821 1.60035 0.246881 
2.40428 0.625265 0.263325 
2.42048 1.08888 0.249674 
1.67838 0.650099 0.255579 
1.88347 0.018743 0.241158 
5.03867 5.00081 0.247018 
4.07752 5.04202 0.247455 
4.57915 4.53803 0.247268 
3.42423 4.5349 0.240153 
4.0136 5.01667 0.247603 
2.88535 5.01667 0.247603 
2.98008 4.59691 0.224723 
4.00231 4.54789 0.229466 
5.02129 4.52228 0.247455 
2.27524 5.01182 0.2419 
2.91116 4.55995 0.200629 
2.26686 4.53594 0.247726 
4.26783 4.53716 0.195746 
3.38781 4.49722 0.196488 
2.47154 4.48775 0.196204 
4.23727 4.45174 0.240714 
1.05185 4.49722 0.195092 
0.577606 4.48357 0.247726 
1.64317 4.45788 0.247726 
0.488914 4.4673 0.247476 
-0.016335 4.4696 0.213882 
0.443642 3.99227 0.238692 
1.28143 3.98651 0.247388 
1.68816 3.97251 0.19658 
4.95023 4.46518 0.246667 
4.34972 4.46823 0.246547 
4.94974 3.98651 0.247726 
2.43024 4.46533 0.246808 
1.70315 4.46533 0.246808 
2.11227 3.98245 0.232213 
3.34543 4.46617 0.245568 
2.4847 4.46574 0.247792 
2.76018 4.02286 0.240239 
3.30487 3.98552 0.248035 
1.70393 3.98654 0.247726 
2.42764 3.98034 0.204524 
-0.025597 4.0284 0.217473 
0.552704 3.99678 0.193454 
4.91713 3.90264 0.202811 
1.38432 3.90272 -0.071805 
1.127 3.91455 -0.116666 
1.13434 3.57733 -0.071481 
1.67477 3.43282 -0.090184 
1.71541 3.51636 -0.077741 
3.00063 3.88899 -0.066606 
2.45778 3.91711 -0.079148 
2.97543 3.40727 -0.071023 
5.03345 3.36051 -0.12596 
2.25478 3.45276 -0.085088 
1.06689 3.42425 -0.117124 
3.20645 3.3673 0.188355 
1.64126 3.40757 0.192906 
1.23074 3.31499 0.241759 
1.64367 2.86533 0.246754 
0.508972 3.35713 0.196635 
0.578392 2.83156 0.247725 
4.35568 3.33048 0.244308 
4.9502 2.85494 0.247074 
4.94987 3.33272 0.247726 
4.28824 3.34063 0.247685 
3.39235 3.30781 0.247508 
4.29297 2.8594 0.247677 
1.70344 3.33306 -0.071576 
1.7031 2.85485 -0.072584 
2.42999 3.33309 -0.071546 
-0.076233 3.33271 0.247726 
0.505417 2.85496 0.24707 
0.505081 3.33271 0.247726 
4.34121 2.83196 0.196224 
2.48972 2.83711 -0.085646 
3.40878 2.82659 0.247725 
0.557198 2.82074 0.196056 
2.2016 2.78255 -0.072355 
1.13673 2.78201 -0.074125 
2.13378 2.30492 -0.077936 
1.29184 2.30839 -0.071356 
3.03119 2.77067 -0.093763 
2.25854 2.77688 -0.072088 
2.94474 2.28146 -0.072088 
2.28185 2.31476 -0.07678 
2.22161 2.30658 -0.123953 
-0.057358 2.30027 -0.10376 
1.01311 2.28907 0.229643 
1.03731 2.26595 -0.123056 
4.99271 2.22419 0.242231 
4.35771 2.26487 0.194187 
4.35671 2.04443 0.244844 
0.461182 2.18977 0.236979 
-0.072891 2.20476 0.237532 
0.074455 1.73313 0.245169 
2.42923 2.22417 0.245815 
1.70344 2.15905 0.247725 
1.70338 1.74924 0.247118 
3.31831 2.2272 0.246828 
2.49136 2.21841 0.240818 
3.34534 1.7452 0.245445 
4.78621 1.75136 0.247196 
0.507858 1.75127 0.247725 
3.40129 2.20721 0.269461 
3.41003 1.67799 0.195663 
3.40398 1.73056 0.247272 
2.48541 1.77547 0.247725 
3.95128 1.68156 0.193548 
1.05245 1.65945 0.250313 
0.000526 1.72014 0.210629 
0.985909 1.22843 0.246174 
2.25574 1.67086 0.196224 
1.13313 1.65991 0.24765 
2.08581 1.22787 0.244465 
3.01208 1.72737 0.18918 
3.06027 1.21167 0.23871 
3.10165 1.65943 0.247725 
3.8812 1.66201 0.242855 
-0.016472 1.18272 0.249296 
5.0522 1.70718 0.072178 
2.23253 1.24437 0.197626 
3.84084 1.18364 0.24703 
2.99313 1.64653 0.246616 
2.26641 1.65995 0.247189 
2.98526 1.18317 0.246315 
3.95291 1.15569 0.196587 
2.32371 1.23939 0.243227 
1.18389 1.22809 0.242496 
2.48376 1.13488 -0.112772 
1.69548 1.13148 0.240633 
0.567513 1.10357 0.192739 
-0.055916 1.0828 0.247643 
0.476166 0.774521 0.240976 
0.570038 0.60153 0.247387 
1.17124 1.08304 0.247171 
1.63875 0.601642 0.247393 
4.99474 1.07658 0.242109 
4.30385 1.07575 0.247725 
4.99146 0.602689 0.247725 
4.3526 0.602049 0.247725 
-0.057419 0.599984 0.242504 
2.46189 0.578832 -0.114508 
0.535469 0.716159 0.183105 
0.420776 0.54149 0.190258 
3.91835 0.589622 0.196493 
3.40691 1.1012 0.247469 
3.39201 0.624045 0.247461 
1.64014 0.576412 0.196224 
2.99333 0.522412 -0.062387 
1.9233 0.518385 -0.110809 
2.99258 0.041157 -0.059479 
4.00595 0.515426 -0.059479 
3.05539 0.539761 -0.061827 
3.04377 0.054509 -0.059664 
4.30414 0.518965 0.247215 
5.02887 0.041533 0.247725 
5.02942 0.523683 0.239729 
-0.022522 0.493623 0.247698 
1.19393 0.055363 0.247461 
1.95943 0.041167 -0.059479 
4.0938 0.509914 -0.114552 
4.0605 0.032899 -0.059608 
-0.011795 -1.9e-05 0.185675 
0.208557 0.022638 0.247089 
4.0938 0.509914 0.192652 
4.0605 0.032899 0.247595 
2.21889 5.00048 0.195066 
2.42764 3.98034 -0.114682 
2.2791 3.95116 -0.122861 
3.30649 2.90384 -0.08013 
3.39235 3.30781 -0.071698 
3.40254 2.81325 -0.116842 
1.71696 2.79339 -0.119059 
3.03119 2.77067 0.225443 
1.03731 2.26595 0.19615 
0.024094 2.23558 0.193851 
2.95935 2.26285 0.205383 
1.63631 2.25094 -0.121466 
5.00933 2.25163 0.131989 
0.519066 2.2871 0.190956 
0.567261 2.10084 0.240322 
1.63094 2.24363 0.234316 
4.29872 2.21696 0.254837 
4.31354 1.73774 0.19557 
0.578125 1.72786 0.240929 
1.6994 1.7372 0.202116 
0.603249 1.67787 0.19549 
3.0414 1.15308 0.192625 
1.13581 1.17854 0.202648 
1.28244 1.11772 0.188557 
2.46189 0.578832 0.192696 
1.09169 5.08631 0.048924 
1.1012 4.98628 0.203095 
2.1949 4.49732 0.196115 
-0.016548 3.37814 0.170135 
3.9315 3.42511 0.196225 
3.12471 3.30971 -0.075784 
1.07538 2.79003 -0.125307 
2.25536 2.83161 -0.122545 
2.95935 2.26285 -0.113825 
1.63631 2.25094 0.197741 
3.39045 2.24901 0.19099 
1.13541 1.67727 0.195198 
3.32101 0.58633 0.200005 
2.98918 0.591737 -0.110809 
3.91835 0.589622 -0.11071 
1.9233 0.518385 0.196394 
3.00615 -0.002114 -0.113344 
4.10262 -0.002114 0.064095 
0.206985 3.91108 0.193494 
3.05127 3.9438 0.196115 
3.03569 3.42446 -0.116193 
1.07538 2.79003 0.193899 
2.47126 2.21844 0.196579 
3.89099 2.23629 0.201832 
2.48376 1.13488 0.194431 
3.36423 1.09775 -0.110979 
3.0414 1.15308 -0.114578 
0.570015 4.50819 0.196536 
1.127 3.91455 0.202542 
-0.09819 2.8095 0.064028 
1.71696 2.79339 0.200148 
1.88615 -0.032805 0.049208 
2.22963 5.04274 0.080142 
4.95647 4.48732 0.164014 
4.96426 3.94061 -0.114627 
4.30513 3.34684 0.19527 
4.95837 3.36116 0.133248 
3.20645 3.3673 -0.130853 
3.40254 2.81325 0.202366 
4.91708 1.16927 0.202265 
1.2445 0.078112 0.20178 
2.9985 0.077492 -0.104305 
-0.05397 3.94327 -0.113339 
1.64126 3.40757 -0.126302 
2.93667 3.31793 -0.082898 
5.01515 1.14027 -0.036957 
3.36423 1.09775 0.196224 
1.88838 0.067638 0.194101 
1.21486 0.013567 0.071537 
2.2791 3.95116 0.196347 
1.68816 3.97251 -0.122628 
1.64367 2.86533 -0.072454 
2.47126 2.21844 -0.122629 
-0.117249 2.24689 -0.113354 
-0.09304 1.68233 -0.11351 
5.05014 0.564158 0.064054 
1.88838 0.067638 -0.113102 
5.06024 5.044 0.06409 
2.89924 5.05768 0.072236 
1.09201 5.08627 -0.12596 
-0.096878 2.81022 -0.11458 
5.0484 2.82313 -0.125961 
4.05782 5.03281 -0.113749 
2.24033 5.00455 0.054856 
5.05014 2.25861 -0.121243 
-0.010147 1.12124 -0.120785 
4.96588 1.13992 -0.006184 
-0.035927 5.05879 0.07307 
-0.007523 0.553927 -0.112848 
2.92494 5.05827 0.064055 
-0.05397 4.50801 -0.113143 
1.87643 0.030174 -0.149427 
4.96629 4.48385 -0.114413 
5.04942 0.563629 -0.11392 
5.04854 -0.002114 -0.113125 
-0.095009 3.37595 -0.113675 
-0.019211 1.71658 -0.115288 
5.0084 1.12376 -0.036587 
-0.077354 1.12403 -0.113535 
0.701057 -0.001636 -0.112974 
5.05028 3.92631 -0.121154 
4.10301 -0.002114 -0.113125 
-0.023865 -0.028229 -0.113104 
2.25296 5.05827 -0.113778 
1.87229 -0.041775 -0.144711 
2.89693 5.02973 -0.15149 
5.05989 1.70485 -0.127403 
-0.034164 5.05755 -0.12596 
5.06104 1.14027 -0.126408 
5.06021 5.0435 -0.11311 
5.00158 1.71502 -0.113556 
-0.028702 0.063011 -0.113455 
0.017387 3.47228 -0.15441 
4.66853 -0.001901 -0.112816 
3.86613 5.02983 -0.151442 
4.95056 2.83068 -0.12048 
4.95227 3.32325 -0.151565 
-0.010315 2.87814 -0.151579 
1.21463 0.030072 -0.112974 
4.9522 5.02958 -0.150966 
0.002716 2.20672 -0.154411 
4.94258 2.63501 -0.154411 
4.95211 0.960641 -0.151337 
4.36545 0.048407 -0.120899 
4.47095 0.04079 -0.11483 
4.28008 0.04079 -0.11479 
4.55695 0.048397 -0.12108 
4.16167 0.064577 -0.154411 
4.95225 0.045611 -0.151472 
4.53285 5.02989 -0.151612 
-0.010239 0.736346 -0.151592 
4.19486 0.046079 -0.151606 
0.521729 5.02085 -0.154304 
4.9521 4.11479 -0.151336 
0.002708 3.2193 -0.15441 
-0.010315 3.11177 -0.151578 
0.003082 1.38871 -0.154411 
2.48132 2.80112 -0.157228 
4.0119 4.53389 -0.15441 
1.62717 2.30803 -0.154411 
4.41027 4.70917 -0.15441 
4.59345 4.69857 -0.15441 
4.5165 4.65068 -0.15441 
4.50652 4.64066 -0.15441 
4.51642 4.64013 -0.15441 
4.48662 4.59233 -0.15441 
3.26685 3.16038 -0.150903 
0.002716 2.98563 -0.154411 
3.46947 2.6255 -0.154411 
0.531883 2.25416 -0.154385 
1.64883 0.328411 -0.154411 
1.34998 1.89151 -0.152617 
0.893761 1.69261 -0.15139 
3.00615 -0.002114 0.23707 
4.14479 -0.002114 0.148479 
1.83355 -0.002114 0.144246 
3.93132 3.9045 0.196193 
3.88267 3.89387 0.263717 
3.90099 3.41422 0.265651 
3.04374 3.49898 0.264119 
2.19299 4.52203 0.264691 
1.13398 4.57115 0.248958 
4.2979 3.98787 0.238191 
3.43868 4.02593 0.263589 
3.05434 3.91842 0.264262 
1.37567 0.562541 0.260094 
1.25925 0.098197 0.272264 
4.00231 4.54789 0.229466 
2.88535 5.01667 0.247603 
4.57915 4.53803 0.247268 
4.00231 4.54789 0.229466 
3.42423 4.5349 0.240153 
2.91116 4.55995 0.200629 
2.26686 4.53594 0.247726 
3.41079 4.47625 0.271585 
1.64317 4.45788 0.247726 
0.577606 4.48357 0.247726 
4.23727 4.45174 0.240714 
4.2979 3.98787 0.238191 
4.25421 3.90571 0.266191 
5.02885 3.88355 0.264648 
1.38432 3.90272 -0.071805 
1.67477 3.43282 -0.090184 
5.01475 3.40309 0.265637 
1.71541 3.51636 -0.077741 
1.67477 3.43282 -0.090184 
1.13434 3.57733 -0.071481 
-0.007385 3.39634 0.264356 
1.06689 3.42425 0.202085 
0.736244 3.426 0.265119 
4.28824 3.34063 0.247685 
4.29297 2.8594 0.247677 
4.34121 2.83196 0.196224 
-0.000885 2.79854 0.268293 
1.01489 2.76363 0.245419 
4.9502 2.85494 0.247074 
4.56371 2.77465 0.266432 
5.02896 2.78256 0.264801 
2.25854 2.77688 -0.072088 
0.004066 2.36262 0.247765 
2.28185 2.31476 -0.07678 
2.2016 2.78255 -0.072355 
2.13378 2.30492 -0.077936 
3.40129 2.20721 0.269461 
3.40398 1.73056 0.247272 
4.964 1.67935 0.218842 
3.10165 1.65943 0.247725 
3.06027 1.21167 0.23871 
4.964 1.67935 0.218842 
5.0265 1.18416 0.263742 
2.25574 1.67086 0.196224 
2.08581 1.22787 0.244465 
3.8812 1.66201 0.242855 
3.84084 1.18364 0.24703 
2.26641 1.65995 0.247189 
2.32371 1.23939 0.243227 
3.95291 1.15569 0.196587 
2.48914 1.10728 -0.042639 
3.34721 1.0775 -0.041553 
0.567513 1.10357 0.192739 
1.69548 1.13148 0.240633 
1.29411 0.594747 0.235926 
2.49389 0.671994 -0.050158 
0.476166 0.774521 0.240976 
0.420776 0.54149 0.190258 
4.30385 1.07575 0.247725 
4.3526 0.602049 0.247725 
2.40428 0.625265 0.263325 
1.67838 0.650099 0.255579 
1.29411 0.594747 0.235926 
4.00595 0.515426 -0.059479 
4.0605 0.032899 -0.059608 
-0.022522 0.493623 0.247698 
0.208557 0.022638 0.247089 
2.21055 5.0009 0.26468 
2.88535 5.01667 0.247603 
2.98008 4.59691 0.224723 
0.488914 4.4673 0.247476 
0.443642 3.99227 0.238692 
0.552704 3.99678 0.193454 
1.70315 4.46533 0.246808 
1.70393 3.98654 0.247726 
3.00063 3.88899 -0.066606 
2.45778 3.91711 -0.079148 
2.25478 3.45276 -0.085088 
3.39235 3.30781 -0.071698 
3.30649 2.90384 -0.08013 
2.48972 2.83711 -0.085646 
1.13673 2.78201 -0.074125 
1.01311 2.28907 0.229643 
1.29184 2.30839 -0.071356 
1.03731 2.26595 -0.123056 
4.35771 2.26487 0.194187 
4.88042 2.30271 0.262224 
3.99391 2.38386 0.245424 
2.95935 2.26285 0.205383 
2.49136 2.21841 0.240818 
3.31831 2.2272 0.246828 
1.63094 2.24363 0.234316 
0.567261 2.10084 0.240322 
3.34534 1.7452 0.245445 
2.48541 1.77547 0.247725 
0.000526 1.72014 0.210629 
1.05245 1.65945 0.250313 
2.99313 1.64653 0.246616 
3.95128 1.68156 0.193548 
0.985909 1.22843 0.246174 
0.567513 1.10357 0.192739 
-0.016472 1.18272 0.249296 
1.17124 1.08304 0.247171 
2.42048 1.08888 0.249674 
1.9233 0.518385 -0.110809 
2.99333 0.522412 -0.062387 
1.52477 5.01435 0.238711 
1.11675 5.0389 0.263902 
2.43024 4.46533 0.246808 
2.4847 4.46574 0.247792 
3.34543 4.46617 0.245568 
-0.011139 3.87548 0.228684 
-0.076233 3.33271 0.247726 
0.505081 3.33271 0.247726 
3.39235 3.30781 0.247508 
3.03119 2.77067 -0.093763 
2.94474 2.28146 -0.072088 
5.02633 2.3197 0.234631 
1.70344 2.15905 0.247725 
2.42923 2.22417 0.245815 
-0.072891 2.20476 0.237532 
0.461182 2.18977 0.236979 
0.578125 1.72786 0.240929 
0.507858 1.75127 0.247725 
0.074455 1.73313 0.245169 
1.6994 1.7372 0.202116 
1.70338 1.74924 0.247118 
1.13313 1.65991 0.24765 
2.98526 1.18317 0.246315 
3.40691 1.1012 0.247469 
4.30385 1.07575 0.247725 
3.39201 0.624045 0.247461 
1.69548 1.13148 0.240633 
2.64475 0.625774 -0.055824 
3.05539 0.539761 -0.061827 
3.04377 0.054509 -0.059664 
2.99258 0.041157 -0.059479 
1.95943 0.041167 -0.059479 
5.02887 0.041533 0.247725 
4.0605 0.032899 0.247595 
-0.009872 5.01492 0.261519 
-0.016335 4.4696 0.213882 
0.066452 4.53496 0.264518 
0.969149 4.58101 0.262765 
3.30487 3.98552 0.248035 
1.68816 3.97251 0.19658 
-0.025597 4.0284 0.217473 
2.76018 4.02286 0.240239 
2.97543 3.40727 -0.071023 
0.508972 3.35713 0.196635 
0.578392 2.83156 0.247725 
3.69886 2.35289 0.239998 
4.29872 2.21696 0.254837 
4.35671 2.04443 0.244844 
4.31354 1.73774 0.19557 
4.78621 1.75136 0.247196 
3.95821 1.60035 0.246881 
4.83363 1.66495 0.261309 
1.18389 1.22809 0.242496 
1.63875 0.601642 0.247393 
3.32101 0.58633 -0.107199 
2.27524 5.01182 0.2419 
1.28143 3.98651 0.247388 
2.11227 3.98245 0.232213 
2.2791 3.95116 -0.122861 
1.64367 2.86533 0.246754 
0.570038 0.60153 0.247387 
1.88347 0.018743 0.241158 
1.01802 5.01706 0.264546 
4.34972 4.46823 0.246547 
4.95023 4.46518 0.246667 
2.42764 3.98034 0.204524 
4.94974 3.98651 0.247726 
0.124916 3.88172 0.26518 
1.04184 3.91757 0.264491 
3.94717 3.43814 0.264813 
4.94987 3.33272 0.247726 
4.35568 3.33048 0.244308 
1.23074 3.31499 0.241759 
3.12471 3.30971 -0.075784 
0.505417 2.85496 0.24707 
3.40878 2.82659 0.247725 
3.95417 2.79759 0.202318 
3.03119 2.77067 0.225443 
3.87749 2.79868 0.244083 
3.92046 2.36933 0.214413 
4.99271 2.22419 0.242231 
1.9233 0.518385 0.196394 
4.99146 0.602689 0.247725 
4.30414 0.518965 0.247215 
5.02942 0.523683 0.239729 
1.19393 0.055363 0.247461 
5.02129 4.52228 0.247455 
1.71541 3.51636 -0.077741 
1.64126 3.40757 0.192906 
1.70344 3.33306 -0.071576 
1.7031 2.85485 -0.072584 
3.91835 0.589622 0.196493 
4.3526 0.602049 0.247725 
4.0938 0.509914 0.192652 
4.07752 5.04202 0.247455 
4.0136 5.01667 0.247603 
1.38432 3.90272 -0.071805 
1.127 3.91455 -0.116666 
2.42999 3.33309 -0.071546 
-0.055916 1.0828 0.247643 
4.99474 1.07658 0.242109 
-0.057419 0.599984 0.242504 
5.03867 5.00081 0.247018 
-0.028702 0.063011 -0.113455 
-0.010239 0.736346 -0.151592 
0.701057 -0.001636 -0.112974 
2.93667 3.31793 -0.082898 
4.10301 -0.002114 -0.113125 
3.00615 -0.002114 -0.113344 
1.87643 0.030174 -0.149427 
3 0 1 2
3 3 4 5
3 3 5 6
3 0 2 7
3 6 5 8
3 9 10 11
3 12 13 14
3 15 14 16
3 383 17 18
3 384 19 20
3 14 13 16
3 21 22 10
3 384 20 385
3 9 11 23
3 18 386 24
3 10 22 11
3 25 26 27
3 27 26 28
3 25 27 29
3 30 31 32
3 33 34 35
3 35 34 36
3 37 33 35
3 38 39 40
3 41 387 388
3 42 43 44
3 389 390 383
3 45 391 17
3 46 47 48
3 49 50 51
3 26 52 28
3 53 54 55
3 31 56 32
3 57 58 59
3 392 393 60
3 61 62 63
3 64 65 66
3 66 67 64
3 62 68 63
3 61 63 69
3 65 64 394
3 70 71 395
3 71 70 72
3 396 397 73
3 398 74 397
3 75 399 400
3 74 401 76
3 77 78 79
3 80 81 82
3 402 403 83
3 84 402 83
3 85 86 87
3 404 43 42
3 88 89 90
3 91 92 93
3 91 93 94
3 89 95 90
3 88 90 96
3 87 86 405
3 92 96 93
3 82 81 97
3 83 403 98
3 99 406 407
3 100 101 102
3 100 102 103
3 104 408 409
3 105 106 107
3 407 410 108
3 109 411 412
3 413 110 412
3 18 24 111
3 414 415 416
3 112 113 114
3 113 115 116
3 117 118 119
3 114 113 116
3 120 121 122
3 123 124 125
3 126 49 127
3 128 126 127
3 129 417 418
3 125 124 130
3 117 419 118
3 122 121 52
3 52 121 131
3 420 421 132
3 422 423 424
3 133 134 135
3 134 136 135
3 137 138 139
3 140 425 141
3 420 142 426
3 139 138 427
3 141 428 429
3 50 143 51
3 136 134 144
3 145 146 147
3 148 149 150
3 151 152 153
3 154 155 156
3 145 147 157
3 148 150 158
3 159 160 161
3 155 162 156
3 430 431 163
3 145 157 432
3 151 153 162
3 164 165 166
3 167 168 169
3 170 171 172
3 173 433 434
3 165 174 166
3 435 436 175
3 437 438 176
3 177 173 434
3 178 179 180
3 181 439 440
3 441 176 182
3 440 171 181
3 179 442 180
3 169 168 183
3 32 56 443
3 444 445 184
3 58 185 59
3 186 187 188
3 446 189 190
3 447 190 191
3 192 193 194
3 194 193 195
3 190 189 448
3 188 187 196
3 191 190 448
3 449 444 197
3 198 450 199
3 200 201 202
3 188 196 451
3 452 201 453
3 454 455 203
3 201 200 453
3 204 205 206
3 207 208 209
3 210 211 212
3 456 213 214
3 205 215 206
3 216 457 217
3 207 209 458
3 459 218 219
3 210 220 221
3 210 221 211
3 214 213 460
3 222 461 387
3 462 399 463
3 74 398 463
3 390 401 45
3 464 465 466
3 467 41 468
3 469 223 470
3 224 471 106
3 107 106 471
3 225 226 130
3 472 473 227
3 473 474 227
3 228 475 428
3 53 229 54
3 421 476 230
3 142 231 426
3 229 232 54
3 233 477 478
3 233 429 477
3 479 480 481
3 479 234 480
3 482 483 484
3 230 235 236
3 230 236 237
3 238 430 239
3 485 486 240
3 485 240 241
3 239 430 163
3 487 488 170
3 242 489 490
3 441 491 170
3 171 170 243
3 492 439 181
3 176 441 437
3 244 490 493
3 494 493 495
3 245 244 496
3 497 454 246
3 498 499 197
3 500 247 501
3 501 248 77
3 249 467 502
3 74 75 503
3 74 503 504
3 47 223 469
3 383 45 17
3 414 505 250
3 18 111 251
3 250 506 507
3 251 508 417
3 226 252 130
3 253 475 228
3 474 425 509
3 425 254 141
3 235 476 426
3 510 140 255
3 480 234 511
3 256 512 513
3 514 515 231
3 257 484 487
3 236 235 516
3 235 515 517
3 518 514 489
3 512 519 520
3 437 488 520
3 519 521 437
3 439 160 172
3 492 160 439
3 170 491 243
3 521 258 244
3 243 491 522
3 244 494 496
3 181 523 524
3 523 259 525
3 526 203 455
3 527 449 197
3 197 260 527
3 199 459 39
3 216 261 457
3 262 392 60
3 528 260 529
3 263 530 531
3 263 217 529
3 264 532 533
3 534 535 536
3 501 77 388
3 537 77 248
3 73 76 389
3 45 504 538
3 41 539 468
3 465 540 265
3 538 541 266
3 469 542 47
3 109 267 542
3 415 414 543
3 268 544 132
3 235 230 476
3 257 545 482
3 482 269 483
3 257 482 484
3 270 159 546
3 547 548 549
3 548 435 549
3 492 550 551
3 550 492 181
3 521 244 552
3 271 522 182
3 272 273 445
3 450 198 494
3 203 526 553
3 203 39 38
3 554 260 528
3 400 555 249
3 249 387 41
3 78 274 466
3 401 74 45
3 275 539 556
3 539 557 468
3 223 558 470
3 506 276 420
3 559 544 277
3 421 268 132
3 254 425 474
3 268 421 230
3 493 494 244
3 560 198 199
3 278 561 40
3 500 461 279
3 279 461 222
3 562 537 248
3 463 399 74
3 535 274 536
3 274 537 536
3 73 563 564
3 79 539 41
3 75 502 565
3 503 75 565
3 280 566 281
3 466 275 556
3 390 45 383
3 266 45 538
3 389 99 566
3 265 567 568
3 275 265 568
3 265 505 567
3 48 47 267
3 383 18 251
3 410 569 251
3 543 414 250
3 282 283 410
3 570 282 571
3 543 572 415
3 573 472 284
3 543 507 574
3 508 285 575
3 285 576 575
3 285 577 578
3 578 576 285
3 576 579 481
3 253 478 475
3 579 576 578
3 231 235 426
3 579 479 481
3 580 234 479
3 270 257 159
3 483 269 488
3 269 513 488
3 257 160 159
3 479 546 548
3 235 242 516
3 256 237 519
3 512 256 519
3 243 181 171
3 181 286 436
3 445 273 184
3 526 245 496
3 444 184 197
3 560 494 198
3 554 272 445
3 246 271 497
3 203 246 454
3 39 560 199
3 553 39 203
3 260 554 527
3 39 287 40
3 203 38 581
3 261 554 528
3 457 261 528
3 582 583 584
3 39 585 287
3 530 288 499
3 260 288 529
3 501 247 248
3 222 387 249
3 77 41 388
3 249 75 400
3 73 280 396
3 586 396 280
3 274 78 77
3 73 74 76
3 274 535 464
3 249 41 467
3 75 249 502
3 280 73 564
3 466 274 464
3 563 73 389
3 45 266 391
3 406 99 383
3 100 587 471
3 265 289 505
3 569 383 251
3 267 47 542
3 275 568 415
3 110 290 412
3 282 410 251
3 543 250 507
3 588 415 572
3 282 251 417
3 573 284 267
3 291 573 267
3 282 417 129
3 282 129 571
3 589 228 590
3 543 574 132
3 268 277 544
3 228 254 590
3 254 474 590
3 576 129 418
3 544 543 132
3 255 509 510
3 254 428 141
3 257 579 545
3 233 141 429
3 269 256 513
3 515 235 231
3 479 548 547
3 258 519 516
3 519 437 520
3 489 517 518
3 258 242 490
3 519 258 521
3 170 437 441
3 176 271 182
3 286 292 436
3 181 293 523
3 523 293 259
3 259 591 525
3 260 197 499
3 592 593 583
3 582 592 583
3 294 581 561
3 219 295 585
3 594 595 397
3 555 222 249
3 537 274 77
3 399 75 74
3 74 73 397
3 79 41 77
3 504 45 74
3 280 564 566
3 465 265 466
3 557 539 296
3 565 557 296
3 541 565 266
3 275 466 265
3 558 297 596
3 389 383 99
3 597 596 297
3 100 471 224
3 413 597 110
3 412 290 109
3 267 109 598
3 109 290 589
3 251 111 508
3 109 589 598
3 282 570 283
3 267 598 291
3 290 298 228
3 589 290 228
3 574 420 132
3 422 129 423
3 129 576 423
3 428 254 228
3 227 474 509
3 140 141 299
3 255 140 299
3 579 257 270
3 256 230 237
3 479 579 270
3 233 299 141
3 546 479 270
3 257 487 160
3 242 235 517
3 514 300 301
3 175 580 435
3 492 161 160
3 435 548 551
3 517 489 242
3 488 437 170
3 487 170 160
3 516 242 258
3 548 492 551
3 172 160 170
3 490 244 258
3 552 244 245
3 552 245 526
3 438 552 526
3 438 526 497
3 522 271 243
3 181 243 293
3 176 438 497
3 286 181 524
3 271 176 497
3 494 495 599
3 524 600 286
3 592 591 593
3 601 459 199
3 246 203 581
3 582 584 302
3 498 303 531
3 260 499 288
3 514 301 489
3 294 561 278
3 304 594 602
3 281 566 99
3 283 570 422
3 305 555 462
3 306 562 248
3 602 586 304
3 276 307 420
3 529 288 263
3 308 422 424
3 595 594 309
3 234 580 175
3 175 436 292
3 302 584 532
3 310 222 555
3 505 289 250
3 311 424 511
3 234 311 511
3 231 300 514
3 535 289 540
3 420 307 142
3 495 312 599
3 313 286 600
3 600 582 302
3 265 540 289
3 295 287 585
3 562 314 534
3 308 424 311
3 489 312 495
3 601 599 315
3 287 278 40
3 316 462 595
3 283 108 410
3 601 315 459
3 287 295 278
3 279 247 500
3 289 535 317
3 407 281 99
3 303 318 531
3 288 530 263
3 218 295 219
3 318 263 531
3 586 280 319
3 306 314 562
3 534 314 535
3 309 594 304
3 279 222 310
3 600 302 320
3 321 302 532
3 264 321 532
3 322 506 250
3 506 307 276
3 489 323 312
3 320 324 600
3 599 325 315
3 326 295 218
3 247 306 248
3 301 323 489
3 324 313 600
3 327 407 108
3 313 292 286
3 533 328 264
3 329 326 218
3 328 217 263
3 327 281 407
3 555 330 310
3 295 331 278
3 332 305 462
3 333 175 292
3 535 314 334
3 333 292 335
3 294 278 331
3 142 300 231
3 306 247 279
3 330 555 305
3 336 304 586
3 292 324 335
3 304 336 309
3 310 330 279
3 334 317 535
3 337 234 175
3 459 338 218
3 218 338 329
3 316 332 462
3 289 339 250
3 333 337 175
3 322 250 339
3 325 599 312
3 340 321 264
3 319 280 281
3 340 264 328
3 330 306 279
3 341 332 316
3 341 316 595
3 506 322 307
3 342 283 422
3 332 330 305
3 341 595 309
3 343 283 342
3 142 307 344
3 320 302 321
3 336 586 319
3 283 343 108
3 308 342 422
3 311 234 337
3 335 324 320
3 459 315 338
3 318 294 331
3 345 295 326
3 345 331 295
3 306 334 314
3 346 336 319
3 289 317 339
3 307 322 344
3 344 347 142
3 348 311 337
3 300 142 323
3 300 323 301
3 335 320 349
3 325 312 315
3 349 320 321
3 350 351 352
3 350 353 351
3 328 263 354
3 326 329 338
3 352 340 328
3 352 351 340
3 351 353 340
3 353 321 340
3 353 355 321
3 336 356 309
3 336 346 356
3 142 347 323
3 312 357 315
3 315 357 338
3 355 349 321
3 358 352 328
3 358 350 352
3 358 353 350
3 359 334 306
3 346 319 360
3 281 327 343
3 343 327 108
3 339 361 322
3 322 361 362
3 342 308 348
3 348 308 311
3 337 333 335
3 335 349 337
3 358 355 353
3 360 319 281
3 360 281 343
3 322 362 344
3 343 342 348
3 358 328 354
3 356 341 309
3 323 363 312
3 306 364 359
3 306 330 364
3 332 341 365
3 359 366 339
3 359 364 366
3 330 332 364
3 341 367 365
3 341 356 367
3 356 368 367
3 356 360 368
3 356 346 360
3 334 359 317
3 332 365 364
3 317 359 339
3 367 368 369
3 367 369 370
3 369 371 370
3 369 368 371
3 370 371 372
3 371 368 372
3 368 360 372
3 370 372 367
3 372 365 367
3 364 365 373
3 360 343 372
3 361 339 366
3 365 372 373
3 362 361 374
3 373 372 375
3 362 374 344
3 366 374 361
3 364 373 375
3 372 343 375
3 344 374 376
3 364 375 377
3 366 364 377
3 344 376 347
3 375 343 348
3 374 366 376
3 366 377 378
3 376 366 379
3 379 366 378
3 375 348 337
3 375 337 349
3 347 376 363
3 323 347 363
3 379 378 357
3 378 377 357
3 376 379 357
3 354 375 349
3 363 376 312
3 312 376 357
3 354 349 358
3 375 354 377
3 358 349 355
3 318 377 263
3 357 345 326
3 603 604 605
3 357 377 345
3 377 318 331
3 377 354 263
3 377 331 345
3 606 125 130
3 252 606 130
3 266 46 391
3 386 46 48
3 285 472 227
3 230 233 478
3 266 223 47
3 268 228 277
3 296 223 565
3 24 48 267
3 111 472 508
3 268 478 253
3 588 110 415
3 111 267 284
3 482 509 255
3 296 297 558
3 539 597 297
3 415 597 275
3 588 298 290
3 277 298 559
3 285 509 577
3 269 255 299
3 269 233 256
3 593 217 533
3 246 498 197
3 593 261 216
3 243 272 293
3 243 184 273
3 246 184 271
3 293 554 259
3 591 554 261
3 294 498 581
3 294 318 303
3 328 533 217
3 380 607 608
3 609 380 608
3 292 313 324
3 266 47 46
3 386 391 46
3 285 508 472
3 230 256 233
3 266 565 223
3 268 253 228
3 296 558 223
3 24 386 48
3 111 284 472
3 268 230 478
3 588 290 110
3 111 24 267
3 482 577 509
3 296 539 297
3 539 275 597
3 415 110 597
3 588 559 298
3 277 228 298
3 285 227 509
3 269 482 255
3 269 299 233
3 593 216 217
3 246 581 498
3 593 591 261
3 243 273 272
3 243 271 184
3 246 197 184
3 293 272 554
3 591 259 554
3 294 303 498
3 380 381 607
3 609 382 380
