ply
format ascii 1.0
comment INFO-3111 Flatenator generated
comment TextureFile Dungeons_Texture_01.png
element vertex 179
property float x
property float y
property float z
element face 190
property list uchar int vertex_indices
end_header
3.5731 2.18068 0.134333 
2.7835 1.46989 0.150511 
3.47547 1.45068 0.150511 
3.55919 4.87153 2.55447 
3.55446 4.84948 3.65317 
1.43944 4.84948 3.69227 
1.41222 4.87153 2.55447 
1.47763 4.21976 1.96178 
1.76153 4.01203 1.73028 
3.53454 4.25012 1.96744 
3e-06 0 -4e-06 
5 0 -4e-06 
4.8173 0.132463 -4e-06 
0.21318 0.161493 -4e-06 
5 2.5 -4e-06 
4.78682 2.5 -4e-06 
3e-06 2.5 -4e-06 
0.138427 2.5 -4e-06 
5 5 2.5 
5 5 5 
4.78682 5 4.7964 
4.78682 5 2.5 
3e-06 5 5 
0.277097 5 4.7561 
3e-06 5 2.5 
0.213181 5 2.5 
3e-06 4.37034 1.87034 
0.24879 4.36988 1.86988 
5 3.57636 1.07636 
4.78682 3.56515 1.06515 
4.46931 0.564119 0.149815 
0.72002 0.429083 0.149815 
0.234336 0.180809 0.040741 
4.76087 2.48233 0.042664 
4.70903 2.15502 0.130768 
4.74645 4.92224 4.74811 
4.31504 4.85018 4.54189 
4.53173 4.85275 4.29032 
2.08113 0.931736 0.149815 
4.59582 2.52593 0.127876 
3.93777 2.44703 0.127876 
3.93777 1.0768 0.149815 
0.290969 2.30239 0.129309 
1.0698 2.33153 0.129766 
1.22331 2.50461 -0.01384 
0.407023 4.87212 2.55297 
0.290969 4.87031 2.73077 
0.251788 4.93653 2.52629 
0.290969 4.71378 2.39462 
4.70903 2.74007 0.420914 
4.57086 3.5113 1.19214 
3.93777 3.48295 1.1638 
2.50046 1.19889 -0.016209 
2.26411 1.12354 0.060394 
3.8476 1.16358 -0.016209 
3.8476 2.50461 -0.01384 
3.93777 4.87212 2.55297 
3.93777 4.85018 3.94974 
3.8476 5.0162 3.87503 
3.78763 5.01383 2.49537 
1.21761 4.85018 3.98651 
1.12845 4.9721 3.89488 
1.1524 5.0162 3.87503 
1.06223 4.85247 3.5661 
1.06223 4.87212 2.55297 
1.17761 5.01383 2.49537 
1.00658 4.07144 1.69555 
1.17178 4.13215 1.61461 
3.82308 3.53079 1.01234 
0.354884 4.85018 4.61943 
0.434808 4.29934 1.98019 
0.895175 4.85018 4.01919 
4.70903 4.87212 2.55297 
0.482051 0.640756 0.147717 
1.6923 1.0768 0.149815 
1.15012 1.1063 0.149815 
1.26766 1.2312 -0.016209 
2.85667 1.0768 0.149815 
1.49306 3.68995 1.43218 
1.48216 3.25322 0.970544 
3.58834 3.41291 1.13023 
3e-06 3.31352 0.813523 
0.163009 3.32209 0.822091 
4.78682 4.359 1.859 
5 4.35849 1.85849 
3.75766 4.36801 1.84955 
4.70903 4.40933 2.09018 
4.04965 4.39525 2.07609 
1.13498 3.3074 0.988244 
1.26263 3.37111 0.852655 
0.290969 3.27905 0.959897 
4.04555 4.13607 1.81692 
4.63095 4.14427 1.82511 
1.44981 2.44549 0.128465 
3.30554 2.3662 0.128465 
3.60417 2.6541 0.344482 
1.084 2.70452 0.385367 
0.290969 2.60725 0.288093 
1.54387 1.50432 0.150511 
2.40525 1.4804 0.150511 
2.60908 1.47474 -0.005185 
3.60851 2.44549 -0.027232 
0.72002 0.429083 0.149815 
4.46931 0.564119 0.149815 
4.70903 2.15502 0.130768 
0.138427 2.5 -4e-06 
3.93777 2.44703 0.127876 
3.93777 1.0768 0.149815 
0.434808 4.29934 1.98019 
1.06223 4.87212 2.55297 
1.06223 4.85247 3.5661 
0.290969 4.87031 2.73077 
0.895175 4.85018 4.01919 
0.354884 4.85018 4.61943 
1.21761 4.85018 3.98651 
3.93777 4.87212 2.55297 
4.70903 2.74007 0.420914 
2.08113 0.931736 0.149815 
2.85667 1.0768 0.149815 
1.6923 1.0768 0.149815 
1.15012 1.1063 0.149815 
4.53173 4.85275 4.29032 
4.31504 4.85018 4.54189 
4.78682 4.359 1.859 
0.290969 3.27905 0.959897 
1.13498 3.3074 0.988244 
3.47547 1.45068 0.150511 
2.7835 1.46989 0.150511 
3.5731 2.18068 0.134333 
1.22331 2.50461 -0.01384 
1.44981 2.44549 0.128465 
3.55919 4.87153 2.55447 
1.43944 4.84948 3.69227 
1.47763 4.21976 1.96178 
1.41222 4.87153 2.55447 
3.75766 4.36801 1.84955 
1.49306 3.68995 1.43218 
3.58834 3.41291 1.13023 
1.48216 3.25322 0.970544 
4.04555 4.13607 1.81692 
4.57086 3.5113 1.19214 
4.04555 4.13607 1.81692 
4.70903 4.87212 2.55297 
4.04965 4.39525 2.07609 
4.04965 4.39525 2.07609 
1.084 2.70452 0.385367 
1.084 2.70452 0.385367 
0.290969 2.60725 0.288093 
1.0698 2.33153 0.129766 
1.0698 2.33153 0.129766 
1.54387 1.50432 0.150511 
2.40525 1.4804 0.150511 
3.30554 2.3662 0.128465 
2.60908 1.47474 -0.005185 
3.60417 2.6541 0.344482 
3.30554 2.3662 0.128465 
3.60851 2.44549 -0.027232 
3.60851 2.44549 -0.027232 
3.5731 2.18068 0.134333 
1.76153 4.01203 1.73028 
3.55446 4.84948 3.65317 
3.53454 4.25012 1.96744 
4.59582 2.52593 0.127876 
0.290969 2.30239 0.129309 
3.93777 4.85018 3.94974 
1.00658 4.07144 1.69555 
3.93777 3.48295 1.1638 
0.407023 4.87212 2.55297 
0.290969 4.71378 2.39462 
0.482051 0.640756 0.147717 
4.70903 4.40933 2.09018 
4.63095 4.14427 1.82511 
3.60417 2.6541 0.344482 
4.63095 4.14427 1.82511 
4.70903 4.40933 2.09018 
0.290969 2.60725 0.288093 
0.290969 2.30239 0.129309 
2.40525 1.4804 0.150511 
2.7835 1.46989 0.150511 
3 0 1 2
3 3 5 6
3 6 7 8
3 10 12 13
3 14 12 11
3 16 13 17
3 18 20 21
3 19 23 20
3 24 23 22
3 26 25 24
3 14 29 15
3 12 30 31
3 15 33 34
3 35 36 37
3 38 102 103
3 104 40 41
3 105 43 44
3 45 46 47
3 47 48 45
3 49 51 40
3 52 53 54
3 106 54 107
3 56 58 59
3 60 62 58
3 63 65 62
3 64 67 65
3 106 68 55
3 25 47 46
3 27 70 48
3 108 66 109
3 110 71 111
3 112 63 61
3 60 112 61
3 23 69 36
3 113 71 114
3 72 57 115
3 20 35 37
3 33 116 39
3 34 33 39
3 32 31 73
3 74 117 53
3 74 76 75
3 54 77 107
3 103 118 38
3 102 119 120
3 121 122 57
3 53 117 77
3 78 79 80
3 26 82 27
3 83 18 21
3 123 87 85
3 67 88 89
3 27 90 70
3 66 124 125
3 28 83 29
3 91 123 85
3 79 93 94
3 81 17 82
3 97 44 96
3 52 126 127
3 54 128 126
3 129 98 130
3 59 4 131
3 58 132 4
3 65 132 62
3 65 133 134
3 135 131 9
3 89 136 67
3 135 137 68
3 89 130 138
3 68 95 55
3 29 50 116
3 68 139 135
3 140 141 51
3 29 92 50
3 86 21 142
3 143 72 115
3 144 59 135
3 89 145 129
3 124 146 125
3 82 147 90
3 13 32 73
3 42 120 148
3 149 76 129
3 99 93 150
3 52 98 76
3 76 53 52
3 151 52 100
3 152 153 101
3 154 155 156
3 55 95 157
3 128 55 157
3 153 158 101
3 100 52 127
3 133 67 159
3 67 136 159
3 3 160 5
3 161 3 8
3 3 6 8
3 10 11 12
3 14 15 12
3 16 10 13
3 18 19 20
3 19 22 23
3 24 25 23
3 26 27 25
3 14 28 29
3 32 13 31
3 13 12 31
3 30 12 34
3 12 15 34
3 41 103 104
3 104 162 40
3 105 163 43
3 40 162 49
3 49 140 51
3 106 55 54
3 56 164 58
3 58 164 60
3 60 61 62
3 62 61 63
3 63 64 65
3 64 165 67
3 106 166 68
3 69 23 46
3 23 25 46
3 47 25 48
3 25 27 48
3 109 167 168
3 168 108 109
3 71 113 111
3 111 167 109
3 109 110 111
3 35 20 36
3 20 23 36
3 114 57 122
3 122 113 114
3 72 121 57
3 142 21 37
3 21 20 37
3 74 53 76
3 54 53 77
3 103 41 118
3 120 169 102
3 102 38 119
3 80 161 8
3 8 78 80
3 26 81 82
3 83 84 18
3 123 170 87
3 67 165 88
3 27 82 90
3 66 108 124
3 28 84 83
3 91 171 123
3 172 80 94
3 80 79 94
3 81 16 17
3 97 105 44
3 52 54 126
3 54 55 128
3 129 76 98
3 59 58 4
3 58 62 132
3 65 134 132
3 65 67 133
3 135 59 131
3 89 138 136
3 135 9 137
3 89 129 130
3 68 137 95
3 33 15 116
3 15 29 116
3 68 166 139
3 140 173 141
3 29 83 92
3 86 83 21
3 143 174 72
3 144 56 59
3 89 88 145
3 124 175 146
3 82 17 147
3 176 17 73
3 17 13 73
3 42 169 120
3 149 75 76
3 99 94 93
3 52 151 98
3 152 177 153
3 153 178 158
