ply
format ascii 1.0
comment INFO-3111 Flatenator generated
comment TextureFile Dungeons_Texture_01.png
element vertex 186
property float x
property float y
property float z
element face 214
property list uchar int vertex_indices
end_header
1.54387 1.50432 0.150511 
3.25567 1.45068 0.150511 
2.71038 2.37317 0.128465 
1.44981 2.44549 0.128465 
3.55919 4.87153 2.55447 
3.55446 4.84948 3.65317 
1.43944 4.84948 3.69227 
1.42361 4.8623 3.03076 
2.11517 4.87153 2.55447 
2.28652 4.25434 1.97166 
3.53454 4.25012 1.96744 
0 0 -4e-06 
5 0 -4e-06 
4.8173 0.132463 -4e-06 
0.213177 0.161493 -4e-06 
5 2.5 -4e-06 
4.78682 2.5 -4e-06 
4.8102 0.684173 -4e-06 
0 2.5 -4e-06 
0.138424 2.5 -4e-06 
5 5 2.5 
5 5 5 
4.78682 5 4.7964 
4.78682 5 2.5 
0 5 5 
0.277094 5 4.7561 
0 5 2.5 
0.213179 5 2.5 
0 4.37034 1.87034 
0.248787 4.36988 1.86988 
5 3.57636 1.07636 
4.78682 3.56515 1.06515 
4.66181 0.268682 0.149815 
0.670776 0.406365 0.149815 
0.234333 0.180809 0.040741 
4.6823 0.966762 0.14155 
4.76086 2.48233 0.042664 
4.70903 2.15502 0.130768 
0.432808 0.618039 0.147717 
0.290966 1.65566 0.135716 
4.74645 4.92224 4.74811 
4.49234 4.85018 4.70335 
4.70903 4.85275 4.45178 
4.70903 4.28887 1.96972 
4.78682 4.359 1.859 
4.70903 4.87212 2.55297 
2.08113 0.931736 0.149815 
3.93777 1.48661 0.146513 
4.59582 2.44703 0.127876 
3.93777 2.50448 0.127876 
0.527795 2.36211 0.127876 
1.15012 1.1063 0.149815 
1.06223 2.44703 0.127876 
0.407021 4.87212 2.55297 
0.290966 4.87031 2.73077 
0.251785 4.93653 2.52629 
0.290966 4.71378 2.39462 
4.70903 2.74007 0.420914 
4.57086 3.5113 1.19214 
3.93777 3.48295 1.1638 
1.26766 1.2312 -0.016209 
2.26411 1.12354 0.060394 
3.8476 1.16358 -0.016209 
3.8476 2.50461 -0.01384 
1.22331 2.50461 -0.01384 
3.93777 4.87212 2.55297 
3.93777 4.85018 3.94974 
3.8476 5.0162 3.87503 
3.78763 5.01383 2.49537 
1.21761 4.85018 3.98651 
1.12844 4.9721 3.89488 
1.1524 5.0162 3.87503 
1.06223 4.85247 3.5661 
1.16675 5.01485 3.08963 
1.06223 4.87212 2.55297 
1.06223 4.29806 1.97891 
1.17177 4.3752 1.85674 
1.1776 5.01383 2.49537 
3.82307 3.53079 1.01234 
0.354881 4.85018 4.61943 
0.434805 4.29934 1.98019 
0.895172 4.85018 4.01919 
1.69229 1.0768 0.149815 
2.85667 1.0768 0.149815 
3.80159 1.0768 0.149815 
2.67751 3.34385 1.06117 
3.58834 3.41291 1.13023 
0 3.31352 0.813523 
0.163006 3.32209 0.822091 
5 4.35849 1.85849 
3.86619 4.29015 1.971 
1.13498 3.3074 0.988244 
1.26263 3.37111 0.852655 
3.75766 4.36801 1.84955 
0.290966 3.27905 0.959897 
3.60851 2.44549 0.128465 
0.290966 2.87381 0.554655 
1.40742 4.25731 1.97463 
1.41221 4.87153 2.55447 
1.48216 3.25322 0.970544 
1.41845 5.01233 2.81501 
1.74707 5.01738 2.55447 
1.81614 4.25593 1.97325 
3.15606 2.44549 -0.02235 
3.53438 1.89121 -0.010067 
2.23444 3.46818 0.946737 
2.04467 4.41308 1.89163 
2.04318 3.36956 0.975298 
1.85438 3.62774 1.34506 
1.75802 3.27414 0.991459 
2.11733 3.04034 0.747706 
4.02151 1.09188 -0.015275 
4.67034 0.609404 -0.017143 
4.81508 0.304413 -4e-06 
0.670776 0.406365 0.149815 
4.66181 0.268682 0.149815 
4.70903 2.15502 0.130768 
0.290966 1.65566 0.135716 
1.06223 2.44703 0.127876 
3.93777 2.50448 0.127876 
0.290966 4.71378 2.39462 
1.06223 4.87212 2.55297 
1.06223 4.85247 3.5661 
0.290966 4.87031 2.73077 
0.895172 4.85018 4.01919 
0.354881 4.85018 4.61943 
1.21761 4.85018 3.98651 
4.70903 4.87212 2.55297 
3.93777 4.87212 2.55297 
4.70903 2.74007 0.420914 
4.59582 2.44703 0.127876 
2.08113 0.931736 0.149815 
1.15012 1.1063 0.149815 
2.85667 1.0768 0.149815 
1.69229 1.0768 0.149815 
4.70903 4.85275 4.45178 
4.49234 4.85018 4.70335 
4.70903 4.28887 1.96972 
0.434805 4.29934 1.98019 
1.13498 3.3074 0.988244 
3.93777 3.48295 1.1638 
0.290966 2.87381 0.554655 
1.54387 1.50432 0.150511 
3.60851 2.44549 0.128465 
1.44981 2.44549 0.128465 
3.55919 4.87153 2.55447 
1.43944 4.84948 3.69227 
1.42361 4.8623 3.03076 
3.53454 4.25012 1.96744 
3.58834 3.41291 1.13023 
1.42361 4.8623 3.03076 
2.11517 4.87153 2.55447 
1.41221 4.87153 2.55447 
1.40742 4.25731 1.97463 
3.60851 2.44549 0.128465 
2.67751 3.34385 1.06117 
2.28652 4.25434 1.97166 
1.41845 5.01233 2.81501 
1.41221 4.87153 2.55447 
1.81614 4.25593 1.97325 
2.71038 2.37317 0.128465 
3.53438 1.89121 -0.010067 
1.85438 3.62774 1.34506 
1.48216 3.25322 0.970544 
2.11733 3.04034 0.747706 
4.02151 1.09188 -0.015275 
3.93777 1.48661 0.146513 
4.6823 0.966762 0.14155 
4.66181 0.268682 0.149815 
3.80159 1.0768 0.149815 
0.527795 2.36211 0.127876 
4.57086 3.5113 1.19214 
3.25567 1.45068 0.150511 
3.55446 4.84948 3.65317 
3.93777 1.48661 0.146513 
4.6823 0.966762 0.14155 
0.432808 0.618039 0.147717 
3.93777 4.85018 3.94974 
1.06223 4.29806 1.97891 
0.407021 4.87212 2.55297 
3.80159 1.0768 0.149815 
3.86619 4.29015 1.971 
0.290966 3.27905 0.959897 
3.25567 1.45068 0.150511 
1.75802 3.27414 0.991459 
4.67034 0.609404 -0.017143 
3 0 2 3
3 6 7 8
3 4 9 10
3 11 13 14
3 15 17 12
3 18 14 19
3 20 22 23
3 21 25 22
3 26 25 24
3 28 27 26
3 15 31 16
3 13 32 33
3 16 36 37
3 14 38 39
3 40 41 42
3 44 45 43
3 46 114 115
3 49 116 48
3 117 51 52
3 53 54 55
3 55 56 53
3 57 59 49
3 60 61 62
3 47 63 62
3 118 60 64
3 65 67 68
3 69 71 67
3 72 71 70
3 74 76 77
3 119 78 63
3 27 55 54
3 29 80 56
3 120 75 121
3 122 81 123
3 124 72 70
3 69 124 70
3 25 79 41
3 125 81 126
3 127 66 128
3 22 40 42
3 36 129 130
3 37 36 130
3 34 33 38
3 82 131 61
3 82 60 132
3 62 83 84
3 115 133 46
3 114 134 51
3 135 136 66
3 61 131 83
3 10 85 86
3 28 88 29
3 44 20 23
3 137 128 90
3 76 91 92
3 93 65 68
3 29 94 80
3 138 139 75
3 30 44 31
3 58 90 59
3 140 93 78
3 86 85 95
3 87 19 88
3 92 118 64
3 88 96 94
3 141 50 52
3 60 1 142
3 62 63 143
3 64 142 144
3 68 5 145
3 67 146 5
3 71 147 146
3 76 98 77
3 93 145 148
3 92 97 76
3 93 149 78
3 92 144 99
3 78 143 63
3 73 147 71
3 150 101 151
3 102 152 153
3 103 104 154
3 155 103 154
3 156 105 155
3 151 106 156
3 73 74 77
3 98 73 77
3 100 73 98
3 101 157 158
3 101 159 106
3 107 108 109
3 110 107 109
3 160 104 103
3 62 161 1
3 62 143 161
3 162 153 163
3 164 163 3
3 105 107 110
3 106 159 108
3 62 111 47
3 165 35 166
3 112 17 167
3 12 17 113
3 84 111 62
3 168 165 169
3 113 32 13
3 12 113 13
3 19 39 170
3 96 19 170
3 31 171 129
3 171 44 43
3 0 172 2
3 8 4 173
3 173 6 8
3 4 8 9
3 11 12 13
3 15 16 17
3 18 11 14
3 20 21 22
3 21 24 25
3 26 27 25
3 28 29 27
3 15 30 31
3 34 14 33
3 14 13 33
3 37 167 17
3 17 16 37
3 39 19 14
3 14 34 38
3 44 23 45
3 49 174 116
3 174 175 116
3 52 50 117
3 117 176 51
3 49 48 57
3 57 58 59
3 47 119 63
3 118 132 60
3 65 177 67
3 67 177 69
3 69 70 71
3 72 73 71
3 74 178 76
3 119 140 78
3 79 25 54
3 25 27 54
3 55 27 56
3 27 29 56
3 121 179 120
3 120 138 75
3 81 125 123
3 123 179 121
3 121 122 123
3 40 22 41
3 22 25 41
3 126 66 136
3 136 125 126
3 127 135 66
3 45 23 42
3 23 22 42
3 82 61 60
3 62 61 83
3 115 180 133
3 51 176 114
3 114 46 134
3 10 9 85
3 28 87 88
3 44 89 20
3 137 127 128
3 76 178 91
3 93 181 65
3 29 88 94
3 138 182 139
3 30 89 44
3 58 137 90
3 140 181 93
3 87 18 19
3 92 91 118
3 88 19 96
3 52 139 141
3 139 182 141
3 60 62 1
3 64 60 142
3 68 67 5
3 67 71 146
3 76 97 98
3 93 68 145
3 92 99 97
3 93 148 149
3 92 64 144
3 78 149 143
3 73 100 147
3 150 157 101
3 155 105 103
3 156 106 105
3 151 101 106
3 73 72 74
3 101 158 159
3 160 183 104
3 163 184 162
3 162 102 153
3 3 2 164
3 164 184 163
3 160 103 110
3 103 105 110
3 107 105 108
3 105 106 108
3 165 185 35
3 112 113 17
3 168 185 165
3 113 112 32
3 36 16 129
3 16 31 129
3 171 31 44
