ply
format ascii 1.0
comment INFO-3111 Flatenator generated
comment TextureFile Dungeons_Texture_01.png
element vertex 136
property float x
property float y
property float z
property float nx
property float ny
property float nz
property float texture_u
property float texture_v
element face 164
property list uchar int vertex_indices
end_header
1.54387 1.50432 0.150511 0.000686602 0.0247246 0.999694 0.222199 0.294369 
3.47546 1.45068 0.150511 -0.000156273 0.022924 0.999737 0.222199 0.294369 
3.60851 2.50043 0.128465 0.0133997 -0.511617 0.859109 0.222199 0.294369 
1.44981 2.39832 0.128465 0.0117922 -0.235232 0.971868 0.222199 0.294369 
3.55919 4.87153 2.55447 -0.000133754 -0.968778 0.247931 0.222199 0.294369 
3.55446 4.84948 3.65317 0.374775 -0.905315 0.199869 0.200041 0.278032 
1.43944 4.84948 3.69227 -0.000185444 -0.999806 -0.0197195 0.222199 0.294369 
1.41221 4.87153 2.55447 4.97419e-05 -0.855751 0.517389 0.222199 0.294369 
1.40742 4.25731 1.97463 4.59891e-05 -0.700289 0.713859 0.222199 0.294369 
3.53454 4.25012 1.96744 4.60947e-05 -0.693491 0.720465 0.222199 0.294369 
0 0 -4e-06 0 0 1 0.200041 0.278032 
5 0 -4e-06 0 0 1 0.200041 0.278032 
4.8173 0.132463 -4e-06 0.227485 -0.241984 0.943236 0.200041 0.278032 
0.213177 0.161494 -4e-06 -0.321832 -0.334612 0.885697 0.200041 0.278032 
5 2.5 -4e-06 -9.94064e-07 -0.382684 0.923879 0.200041 0.278032 
4.78682 2.5 -4e-06 0.670138 -0.280359 0.68725 0.200041 0.278032 
0 2.5 -4e-06 0 -0.252726 0.967538 0.200041 0.278032 
0.138424 2.5 -4e-06 -0.43309 -0.374796 0.819732 0.200041 0.278032 
5 5 2.5 1.91751e-06 -0.923879 0.382684 0.200041 0.278032 
5 5 5 1.21443e-07 -1 -1.27157e-07 0.200041 0.278032 
4.78682 5 4.7964 0.318543 -0.896837 0.306944 0.200041 0.278032 
4.78682 5 2.5 0.624189 -0.737619 0.2575 0.200041 0.278032 
0 5 5 -1.67883e-07 -1 -1.90735e-07 0.200041 0.278032 
0.277094 5 4.7561 -0.268679 -0.930736 0.248079 0.200041 0.278032 
0 5 2.5 -1.20005e-07 -0.967538 0.252725 0.200041 0.278032 
0.213179 5 2.5 -0.598869 -0.713871 0.362965 0.200041 0.278032 
0 4.37034 1.87034 2.28702e-06 -0.707107 0.707107 0.200041 0.278032 
0.248787 4.36988 1.86988 -0.493031 -0.624255 0.605992 0.200041 0.278032 
5 3.57636 1.07636 -3.0368e-07 -0.707108 0.707106 0.200041 0.278032 
4.78682 3.56515 1.06515 0.338771 -0.656866 0.673618 0.200041 0.278032 
4.66181 0.268682 0.149815 0.401448 -0.43073 0.808276 0.200041 0.278032 
0.528934 0.232517 0.149815 -0.0747025 -0.755735 0.650603 0.200041 0.278032 
0.234333 0.180809 0.040741 -0.475784 -0.490727 0.729943 0.200041 0.278032 
4.76086 2.48233 0.042664 0.667302 -0.301496 0.681035 0.200041 0.278032 
4.70903 2.15502 0.130768 0.736022 0.0412255 0.675701 0.200041 0.278032 
0.290966 0.444191 0.147717 -0.708381 -0.0857707 0.700599 0.200041 0.278032 
0.290966 2.40821 0.127876 0.00846011 -0.236943 0.971487 0.197903 0.304397 
4.74645 4.92224 4.74811 0.455338 -0.78481 0.420405 0.200041 0.278032 
4.49234 4.85018 4.70335 0.0567576 -0.711357 0.700535 0.200041 0.278032 
4.70903 4.85275 4.45178 0.765452 -0.641618 0.0490849 0.200041 0.278032 
4.78682 4.359 1.859 0.429131 -0.649065 0.628141 0.200041 0.278032 
4.70903 4.87212 2.55297 0.00357075 -0.969758 0.244044 0.197903 0.304397 
4.70903 4.28887 1.96972 0.847848 -0.410394 0.335752 0.200041 0.278032 
4.57086 3.5113 1.19214 0.639473 -0.553115 0.533983 0.200041 0.278032 
4.70903 2.74007 0.420914 0.0328538 -0.748636 0.662166 0.197903 0.304397 
2.08113 0.931736 0.149815 0 0 1 0.197903 0.304397 
4.59582 2.52566 0.127876 0.336746 -0.396653 0.853972 0.200041 0.278032 
3.93777 2.44703 0.127876 0.0276343 -0.417832 0.908104 0.197903 0.304397 
3.93777 1.0768 0.149815 0.00442499 0.00861059 0.999953 0.197903 0.304397 
1.15012 1.1063 0.149815 -0.0041121 0.00756225 0.999963 0.197903 0.304397 
1.06223 2.44703 0.127876 0.0121402 -0.494175 0.869278 0.197903 0.304397 
0.407021 4.87212 2.55297 -0.409558 -0.85223 0.325524 0.200041 0.278032 
0.290966 4.87031 2.73077 -0.775285 -0.629704 -0.0490429 0.200041 0.278032 
0.251785 4.93653 2.52629 -0.692863 -0.671392 0.263008 0.200041 0.278032 
0.290966 4.71378 2.39462 -0.695285 -0.50604 0.510394 0.200041 0.278032 
3.93777 3.48295 1.1638 3.6162e-08 -0.707107 0.707107 0.197903 0.304397 
1.26766 1.2312 -0.016209 0.164982 0.208673 0.963969 0.200041 0.278032 
2.26411 1.12354 0.060394 0.0169817 0.656778 0.753893 0.200041 0.278032 
3.8476 1.16358 -0.016209 -0.260507 0.387577 0.884262 0.200041 0.278032 
3.8476 2.50461 -0.01384 -0.103296 -0.30822 0.945691 0.200041 0.278032 
1.22331 2.50461 -0.01384 -0.0938615 -0.301508 0.948833 0.200041 0.278032 
3.93777 4.87212 2.55297 -0.795664 -0.542649 0.269169 0.200041 0.278032 
3.93777 4.85018 3.94974 0.00408861 -0.999962 -0.00765248 0.197903 0.304397 
3.8476 5.0162 3.87503 -0.225319 -0.969179 -0.0996123 0.200041 0.278032 
3.78763 5.01383 2.49537 0.0515906 -0.952595 0.299834 0.200041 0.278032 
1.21761 4.85018 3.98651 0.0278872 -0.52998 -0.847552 0.200041 0.278032 
1.12844 4.9721 3.89488 0.478393 -0.757005 -0.445065 0.200041 0.278032 
1.1524 5.0162 3.87503 0.355908 -0.901137 -0.247551 0.200041 0.278032 
1.06223 4.85247 3.5661 0.779237 -0.624764 0.0495881 0.200041 0.278032 
1.06223 4.87212 2.55297 0.800836 -0.520384 0.296415 0.200041 0.278032 
1.1776 5.01383 2.49537 0.209659 -0.944767 0.25191 0.200041 0.278032 
1.06223 4.29806 1.97891 -2.28452e-06 -0.707106 0.707107 0.197903 0.304397 
1.17177 4.3752 1.85674 0.275545 -0.669146 0.690158 0.200041 0.278032 
3.82307 3.53079 1.01234 -0.18502 -0.702347 0.687369 0.200041 0.278032 
0.354881 4.85018 4.61943 -0.542232 -0.702309 0.461244 0.200041 0.278032 
0.434805 4.29934 1.98019 -0.562071 -0.611687 0.5567 0.200041 0.278032 
0.895172 4.85018 4.01919 -0.00801071 -0.999946 -0.00665623 0.197903 0.304397 
1.69229 1.0768 0.149815 0.0685388 0.650277 0.756599 0.200041 0.278032 
2.85667 1.0768 0.149815 -0.0318178 0.783608 0.62044 0.200041 0.278032 
1.48216 3.25322 0.970544 0.0127357 -0.716385 0.697589 0.222199 0.294369 
3.58834 3.41291 1.13023 0.00166292 -0.717986 0.696056 0.222199 0.294369 
0 3.31352 0.813523 2.97902e-06 -0.707108 0.707106 0.200041 0.278032 
0.163006 3.32209 0.822091 -0.387423 -0.642529 0.661105 0.200041 0.278032 
5 4.35849 1.85849 6.64702e-06 -0.707107 0.707107 0.200041 0.278032 
3.86619 4.29015 1.971 -4.81843e-07 -0.707107 0.707106 0.197903 0.304397 
1.13498 3.3074 0.988244 0.759516 -0.449142 0.470539 0.200041 0.278032 
1.26263 3.37111 0.852655 -0.0500778 -0.712009 0.700382 0.200041 0.278032 
3.75766 4.36801 1.84955 -0.121961 -0.696123 0.707487 0.200041 0.278032 
0.290966 3.27905 0.959897 -0.669157 -0.49767 0.551863 0.200041 0.278032 
0.528934 0.232517 0.149815 -0.00135021 0.000959884 0.999999 0.197903 0.304397 
4.66181 0.268682 0.149815 0.00274065 0.00245551 0.999993 0.197903 0.304397 
4.70903 2.15502 0.130768 0.00412509 0.0111197 0.99993 0.197903 0.304397 
3.93777 2.44703 0.127876 -0.855685 -0.213839 0.47125 0.200041 0.278032 
3.93777 1.0768 0.149815 -0.559337 0.570104 0.601768 0.200041 0.278032 
1.06223 2.44703 0.127876 0.746343 -0.257412 0.613769 0.200041 0.278032 
0.290966 4.71378 2.39462 -1.77608e-06 -0.707106 0.707107 0.197903 0.304397 
1.06223 4.87212 2.55297 -0.000576565 -0.926685 0.375838 0.197903 0.304397 
1.06223 4.85247 3.5661 -0.00737245 -0.999867 -0.0145468 0.197903 0.304397 
0.290966 4.87031 2.73077 -0.0065383 -0.999902 -0.0123926 0.197903 0.304397 
0.895172 4.85018 4.01919 0.278731 -0.893173 -0.352917 0.200041 0.278032 
0.354881 4.85018 4.61943 -0.00380234 -0.999987 -0.00342412 0.197903 0.304397 
1.21761 4.85018 3.98651 -5.47981e-08 -1 -1.48919e-06 0.197903 0.304397 
3.93777 4.87212 2.55297 -2.87598e-07 -0.86529 0.501271 0.197903 0.304397 
4.70903 2.74007 0.420914 0.626013 -0.572287 0.529713 0.200041 0.278032 
2.08113 0.931736 0.149815 0.0143915 0.411186 0.911438 0.200041 0.278032 
1.15012 1.1063 0.149815 0.488689 0.495021 0.718427 0.200041 0.278032 
2.85667 1.0768 0.149815 0 0 1 0.197903 0.304397 
1.69229 1.0768 0.149815 0 0 1 0.197903 0.304397 
4.70903 4.85275 4.45178 0.00817706 -0.999939 -0.00745155 0.197903 0.304397 
4.49234 4.85018 4.70335 0.00212902 -0.999996 -0.00156805 0.197903 0.304397 
4.70903 4.28887 1.96972 -5.24628e-07 -0.707107 0.707106 0.197903 0.304397 
0.434805 4.29934 1.98019 -2.57473e-06 -0.707107 0.707107 0.197903 0.304397 
1.13498 3.3074 0.988244 -2.58491e-06 -0.707107 0.707106 0.197903 0.304397 
4.57086 3.5113 1.19214 -1.85839e-07 -0.707107 0.707107 0.197903 0.304397 
3.93777 3.48295 1.1638 -0.775519 -0.467465 0.424318 0.200041 0.278032 
0.290966 2.40821 0.127876 -0.714 -0.332519 0.616146 0.200041 0.278032 
0.290966 3.27905 0.959897 0.0115854 -0.701669 0.712409 0.197903 0.304397 
3.47546 1.45068 0.150511 0.23734 -0.285904 0.928401 0.200041 0.278032 
1.54387 1.50432 0.150511 -0.374779 -0.200027 0.905279 0.200041 0.278032 
1.44981 2.39832 0.128465 -0.610646 -0.390564 0.688891 0.200041 0.278032 
3.55919 4.87153 2.55447 0.580517 -0.709181 0.400078 0.200041 0.278032 
1.43944 4.84948 3.69227 -0.278299 -0.896621 0.344413 0.200041 0.278032 
1.41221 4.87153 2.55447 -0.566759 -0.708125 0.42112 0.200041 0.278032 
3.53454 4.25012 1.96744 0.598481 -0.554805 0.577938 0.200041 0.278032 
1.40742 4.25731 1.97463 -0.586663 -0.58245 0.562653 0.200041 0.278032 
3.58834 3.41291 1.13023 0.58557 -0.566129 0.580178 0.200041 0.278032 
1.48216 3.25322 0.970544 -0.604802 -0.566471 0.559754 0.200041 0.278032 
3.60851 2.50043 0.128465 0.522074 -0.450949 0.723936 0.200041 0.278032 
3.55446 4.84948 3.65317 -0.000370887 -0.999799 -0.0200649 0.222199 0.294369 
4.70903 4.87212 2.55297 0.869886 -0.426528 0.247733 0.200041 0.278032 
4.59582 2.52566 0.127876 0.055084 -0.460977 0.885701 0.197903 0.304397 
0.290966 0.444191 0.147717 -0.00781358 0.00697043 0.999945 0.197903 0.304397 
3.93777 4.85018 3.94974 -0.570155 -0.574114 -0.587636 0.200041 0.278032 
1.06223 4.29806 1.97891 0.791625 -0.417232 0.446371 0.200041 0.278032 
0.407021 4.87212 2.55297 -1.34753e-06 -0.925821 0.377963 0.197903 0.304397 
3.86619 4.29015 1.971 -0.79333 -0.423308 0.437535 0.200041 0.278032 
3 1 3 0
3 4 6 7
3 7 9 4
3 10 12 13
3 14 12 11
3 16 13 17
3 18 20 21
3 19 23 20
3 24 23 22
3 26 25 24
3 14 29 15
3 12 30 31
3 15 33 34
3 13 32 35
3 37 38 39
3 42 43 40
3 45 89 90
3 91 47 48
3 36 49 50
3 51 52 53
3 53 54 51
3 44 55 47
3 56 57 58
3 92 58 93
3 94 56 60
3 61 63 64
3 65 67 63
3 68 70 67
3 69 72 70
3 92 73 59
3 25 53 52
3 27 75 54
3 95 71 96
3 97 76 98
3 99 68 66
3 65 99 66
3 23 74 38
3 100 76 101
3 41 62 102
3 20 37 39
3 33 103 46
3 34 33 46
3 32 31 35
3 77 104 57
3 77 56 105
3 58 78 93
3 90 106 45
3 89 107 49
3 108 109 62
3 57 104 78
3 8 80 9
3 26 82 27
3 40 18 21
3 110 102 84
3 72 85 86
3 87 61 64
3 27 88 75
3 111 112 71
3 28 40 29
3 113 84 55
3 114 87 73
3 79 2 80
3 81 17 82
3 86 94 60
3 82 115 88
3 116 50 112
3 56 117 118
3 59 117 58
3 60 118 119
3 64 5 120
3 63 121 5
3 70 121 67
3 72 122 70
3 87 120 123
3 86 124 72
3 87 125 73
3 86 119 126
3 73 127 59
3 1 2 3
3 4 128 6
3 7 8 9
3 10 11 12
3 14 15 12
3 16 10 13
3 18 19 20
3 19 22 23
3 24 25 23
3 26 27 25
3 14 28 29
3 32 13 31
3 13 12 31
3 30 12 34
3 12 15 34
3 115 17 35
3 17 13 35
3 33 15 103
3 15 29 103
3 40 21 129
3 29 40 43
3 43 103 29
3 40 129 42
3 48 90 91
3 91 130 47
3 36 131 49
3 47 130 44
3 44 113 55
3 92 59 58
3 94 105 56
3 61 132 63
3 63 132 65
3 65 66 67
3 67 66 68
3 68 69 70
3 69 133 72
3 92 114 73
3 74 23 52
3 23 25 52
3 53 25 54
3 25 27 54
3 96 134 95
3 95 111 71
3 76 100 98
3 98 134 96
3 96 97 98
3 37 20 38
3 20 23 38
3 101 62 109
3 109 100 101
3 41 108 62
3 129 21 39
3 21 20 39
3 77 57 56
3 58 57 78
3 90 48 106
3 49 131 89
3 89 45 107
3 8 79 80
3 26 81 82
3 40 83 18
3 110 41 102
3 72 133 85
3 87 135 61
3 27 82 88
3 111 116 112
3 28 83 40
3 113 110 84
3 114 135 87
3 79 3 2
3 81 16 17
3 86 85 94
3 82 17 115
3 116 36 50
3 56 58 117
3 59 127 117
3 60 56 118
3 64 63 5
3 63 67 121
3 70 122 121
3 72 124 122
3 87 64 120
3 86 126 124
3 87 123 125
3 86 60 119
3 73 125 127
