ply
format ascii 1.0
comment VCGLIB generated
comment TextureFile Dungeons_Texture_01.png
element vertex 36
property float x
property float y
property float z
property float nx
property float ny
property float nz
property uchar red
property uchar green
property uchar blue
property uchar alpha
property float texture_u
property float texture_v
element face 36
property list uchar int vertex_indices
end_header
0.14946 -1.98148 5.414019 0 0 1 72 64 55 255 0.03804 0.25346
0.121708 -1.621395 0.414017 0.69712 0.7168891 0.009685246 95 84 71 255 0.038226 0.276843
0.139294 -1.621397 5.414019 0.9494286 0.3138462 -0.009271974 95 84 71 255 0.038226 0.276843
-0.14946 -1.621397 5.414019 -0.317693 0.9481842 -0.004234064 95 84 71 255 0.038226 0.276843
-0.141911 -1.956917 0.414017 -0.7351703 -0.6778644 0.004959849 95 84 71 255 0.038226 0.276843
-0.11552 -1.621395 1.727498 -0.5999654 0.8000233 0.002070031 95 84 71 255 0.038226 0.276843
0.113354 -1.621395 1.727498 0.8374615 0.5460439 0.02223584 72 64 55 255 0.038226 0.2506
0.113354 -1.981478 1.727498 0.8990681 -0.4377933 0.003691263 95 84 71 255 0.038226 0.276843
0.124172 -1.98148 3.678889 0.5162219 -0.8564411 -0.004866814 95 84 71 255 0.038226 0.276843
-0.126335 -1.621397 3.678889 -0.8340542 0.5516241 -0.008024317 95 84 71 255 0.038226 0.276843
-0.126335 -1.98148 3.678889 -0.9023625 -0.4309516 -0.004760479 95 84 71 255 0.038226 0.276843
0.141514 -1.981478 0.414017 0.4251814 -0.9051 0.003855567 95 84 71 255 0.038226 0.276843
-0.143677 -1.621395 0.414017 -0.8951699 0.4453304 0.01875443 95 84 71 255 0.038226 0.276843
-0.126335 -1.981478 2.215345 -0.8919457 -0.4346953 -0.1243905 72 64 55 255 0.038226 0.2506
-0.0583 -1.981478 1.727498 -0.8982831 -0.4377839 -0.03785228 72 64 55 255 0.038226 0.2506
-0.11552 -1.864069 1.727498 -0.8982831 -0.4377839 -0.03785228 72 64 55 255 0.038226 0.2506
0.129951 -1.621397 3.989573 0.7392949 0.6534104 -0.1627818 72 64 55 255 0.038226 0.2506
-0.143677 -1.98148 5.414019 -0.7042029 -0.7099514 -0.008211674 95 84 71 255 0.038226 0.276843
0.124172 -1.713911 3.591973 0.7938946 0.6039236 -0.07076468 72 64 55 255 0.038226 0.2506
0.061543 -1.621397 3.678889 0.7938946 0.6039236 -0.07076468 72 64 55 255 0.038226 0.2506
0.113354 -1.621395 1.727498 0.7071003 0.7071133 0.0001976503 95 84 71 255 0.038226 0.276843
-0.0583 -1.981478 1.727498 -0.02159823 -0.9997613 -0.003285889 95 84 71 255 0.038226 0.276843
-0.11552 -1.864069 1.727498 -0.9997246 0.02163533 0.009095629 95 84 71 255 0.038226 0.276843
-0.126335 -1.981478 2.215345 -0.4626272 -0.8865529 -8.732034e-07 95 84 71 255 0.038226 0.276843
0.124172 -1.713911 3.591973 0.999932 -0.0096783 -0.006516979 95 84 71 255 0.038226 0.276843
0.061543 -1.621397 3.678889 0 1 5.192598e-07 95 84 71 255 0.038226 0.276843
-0.141911 -1.956917 0.414017 -0.8978488 -0.4375722 0.04897128 72 64 55 255 0.038226 0.2506
0.129951 -1.621397 3.989573 0.4531946 0.8914067 -0.002972521 95 84 71 255 0.038226 0.276843
0.139294 -1.621397 5.414019 0 0 1 72 64 55 255 0.03804 0.25346
-0.143677 -1.98148 5.414019 0 0 1 72 64 55 255 0.03804 0.25346
0.121708 -1.621395 0.414017 0 0 -1 72 64 55 255 0.03804 0.25346
-0.141911 -1.956917 0.414017 0 0 -1 72 64 55 255 0.03804 0.25346
-0.143677 -1.621395 0.414017 0 0 -1 72 64 55 255 0.03804 0.25346
0.14946 -1.98148 5.414019 0.7169378 -0.6970587 -0.01044874 95 84 71 255 0.038226 0.276843
-0.14946 -1.621397 5.414019 0 0 1 72 64 55 255 0.03804 0.25346
0.141514 -1.981478 0.414017 0 0 -1 72 64 55 255 0.03804 0.25346
3 18 6 19 
3 14 13 15 
3 1 7 11 
3 1 5 20 
3 17 9 10 
3 8 17 10 
3 11 21 4 
3 12 22 5 
3 10 5 22 
3 8 23 21 
3 2 8 24 
3 9 3 25 
3 5 25 20 
3 24 7 20 
3 18 19 16 
3 14 15 26 
3 27 3 2 
3 28 29 0 
3 30 31 32 
3 1 20 7 
3 1 12 5 
3 17 3 9 
3 8 33 17 
3 11 7 21 
3 12 4 22 
3 22 23 10 
3 10 9 5 
3 21 7 8 
3 8 10 23 
3 24 27 2 
3 2 33 8 
3 5 9 25 
3 24 8 7 
3 27 25 3 
3 28 34 29 
3 30 35 31 
