ply
format ascii 1.0
comment VCGLIB generated
comment TextureFile Dungeons_Texture_01.png
element vertex 295
property float x
property float y
property float z
property float nx
property float ny
property float nz
property uchar red
property uchar green
property uchar blue
property uchar alpha
property float texture_u
property float texture_v
element face 408
property list uchar int vertex_indices
end_header
1.171677 0.027854 4.999467 0.001255995 0.6929379 0.7209963 97 95 95 255 0.199168 0.279594
1.255577 0.048734 4.920739 -0.00200895 0.7234778 0.6903448 97 95 95 255 0.199168 0.279594
0.507797 -6.1e-05 4.999269 -0.00642909 0.821191 0.5706173 97 95 95 255 0.199168 0.279594
1.347641 -9.1e-05 4.999307 0.02227265 0.01559152 0.9996304 97 95 95 255 0.199168 0.279594
1.78146 0.047034 4.954309 -0.03496181 0.3115979 0.9495707 97 95 95 255 0.199168 0.279594
2.54652 0.046924 4.896111 -0.2508412 0.7866033 0.5642109 97 95 95 255 0.199168 0.279594
2.36565 0.037949 4.998597 0.2430782 0.801849 0.5458491 97 95 95 255 0.199168 0.279594
2.503471 -0.000136 4.999337 0.02404777 0.03858317 0.998966 97 95 95 255 0.199168 0.279594
3.090931 0.046994 4.90767 -0.01035111 0.7722421 0.6352441 97 95 95 255 0.199168 0.279594
3.066391 0.028079 4.999978 -0.01612693 0.6255447 0.7800217 97 95 95 255 0.199168 0.279594
4.31234 0.047399 4.897531 0.001155815 0.8253183 0.5646666 97 95 95 255 0.199168 0.279594
3.730461 0.028074 4.999978 -0.003803755 0.7235641 0.6902467 97 95 95 255 0.199168 0.279594
4.101547 0.037724 4.999429 -0.005527383 0.6763687 0.7365426 97 95 95 255 0.199168 0.279594
3.749977 -7.1e-05 4.999269 0.001950261 -0.5629254 0.8265055 97 95 95 255 0.199168 0.279594
4.999977 0.037309 4.999978 0.6874083 0.6379205 0.3471704 97 95 95 255 0.199168 0.279594
5 -1e-06 5.000001 0.3356753 -0.6657546 0.666403 97 95 95 255 0.199168 0.279594
0.04808 0.045919 4.949441 -0.3249503 0.762664 0.5592414 97 95 95 255 0.199168 0.279594
2.3e-05 7e-06 4.999955 -0.7803305 0.5382957 0.3183111 97 95 95 255 0.199168 0.279594
3.183578 -0.003126 4.999269 0.0003106557 -0.5679872 0.8230373 97 95 95 255 0.199168 0.279594
2.27483 0.083114 4.980363 -0.006639227 0.7929072 0.6093063 97 95 95 255 0.199168 0.279594
1.747589 0.085919 4.954309 -0.06777485 0.5985606 0.7982054 97 95 95 255 0.199168 0.279594
0.879959 0.098029 4.915421 0.05254691 0.8526372 0.5198545 97 95 95 255 0.199168 0.279594
0.539597 0.088299 4.938973 -0.005270476 0.6990104 0.7150921 97 95 95 255 0.199168 0.279594
1.264179 0.095299 4.809342 0.007288804 0.9601414 0.2794196 97 95 95 255 0.199168 0.279594
3.72834 0.046964 4.916093 0.004601452 0.8456589 0.5337039 97 95 95 255 0.199168 0.279594
4.64835 -0.003241 3.378907 0.001897586 -0.9999982 0.0003541573 97 95 95 255 0.199168 0.279594
4.99926 -6.1e-05 4.726548 0.8397686 -0.542941 -0.001955936 97 95 95 255 0.199168 0.279594
0.20713 0.098169 4.845201 -0.04886102 0.9524792 0.3006592 97 95 95 255 0.199168 0.279594
0.04916 0.095604 4.827973 -0.8164725 0.5536292 0.163913 97 95 95 255 0.199168 0.279594
2.352573 0.113402 4.783326 0.4058633 0.9074286 0.10885 97 95 95 255 0.199168 0.279594
3.701439 0.096269 4.877572 0.003445511 0.5403922 0.8414062 97 95 95 255 0.199168 0.279594
4.936028 0.047199 4.897271 0.4382582 0.8700413 0.2257385 97 95 95 255 0.199168 0.279594
1.132797 -0.00324 0.898423 -0.0007948835 -0.9999974 -0.002133594 97 95 95 255 0.199168 0.279594
4.87307 0.098104 4.87613 0.1880669 0.5658649 0.8027626 97 95 95 255 0.199168 0.279594
3.057098 0.086334 4.883157 0.004964047 0.7598066 0.6501303 97 95 95 255 0.199168 0.279594
2.543968 0.082119 4.898187 -0.4647763 0.6858146 0.560037 97 95 95 255 0.199168 0.279594
4.934227 0.076919 4.833901 0.8833824 0.4334592 0.1781818 97 95 95 255 0.199168 0.279594
2.803089 0.088034 4.842492 -0.005890327 0.9968992 0.07846918 97 95 95 255 0.199168 0.279594
0.028801 0.040509 4.101716 -0.8549566 0.5186077 -0.009761679 97 95 95 255 0.199168 0.279594
2.56076 0.056989 4.292336 -0.3685269 0.9293914 -0.02048148 97 95 95 255 0.199168 0.279594
3.193943 0.096264 4.428323 -0.002144353 0.9999579 0.008921282 120 120 119 255 0.199162 0.303929
4.997948 0.037304 4.550797 0.7173385 0.696511 -0.01726144 97 95 95 255 0.199168 0.279594
2.630791 0.097869 4.251328 -0.02480018 0.9996908 0.00177219 120 120 119 255 0.199162 0.303929
0.049309 0.095604 4.210908 -0.01195248 0.999928 -0.001069632 120 120 119 255 0.199162 0.303704
4.739899 0.098174 4.502343 0.2667361 0.9590907 -0.09485154 120 120 119 255 0.199143 0.304122
3.720787 0.097764 3.837907 0.001040408 0.9999984 -0.001476633 120 120 119 255 0.199162 0.303929
2.24057 0.090799 4.454942 -0.2275081 0.9737422 -0.008140828 97 95 95 255 0.199168 0.279594
2.379589 0.115439 4.346566 0.4673393 0.8840564 -0.006185208 97 95 95 255 0.199168 0.279594
4.91544 0.097889 4.41855 0.009226258 0.9998195 0.01660692 120 120 119 255 0.199162 0.303929
2.429779 0.044429 4.255708 0.5646833 0.8245817 0.03460961 97 95 95 255 0.199168 0.279594
4.99926 -6.1e-05 4.101548 0.9994867 0.03141164 -0.006293701 97 95 95 255 0.199168 0.279594
4.935638 0.047244 4.09855 0.7249421 0.6887653 0.00784075 97 95 95 255 0.199168 0.279594
1.17939 0.095424 3.820329 0.002267919 0.9999943 0.002504977 120 120 119 255 0.199162 0.303929
4.91835 0.098044 3.880517 0.7762845 0.6303791 -0.002173393 97 95 95 255 0.199168 0.279594
2.667931 0.075104 3.474862 -0.4219962 0.9064662 0.01543727 97 95 95 255 0.199168 0.279594
2.42971 0.046479 3.888612 0.4022125 0.9155152 -0.00754715 97 95 95 255 0.199168 0.279594
0.00071 -6.1e-05 3.554673 -0.9853142 0.1707206 -0.003230922 97 95 95 255 0.199168 0.279594
5 -0.003126 3.164048 0.9878564 -0.1549736 0.01108952 97 95 95 255 0.199168 0.279594
0.049797 0.045544 3.822389 -0.630046 0.7763116 -0.01955465 97 95 95 255 0.199168 0.279594
0.156609 0.095594 3.820802 -0.00767005 0.9999683 -0.002135323 120 120 119 255 0.199162 0.303704
2.907997 0.097739 3.568841 -0.04311291 0.9989323 0.01660212 120 120 119 255 0.199162 0.303929
2.558029 0.042319 3.631082 -0.102666 0.9946895 -0.007256671 97 95 95 255 0.199168 0.279594
2.38459 0.092386 3.882195 0.6873372 0.7263176 -0.005506477 97 95 95 255 0.199168 0.279594
4.868568 0.098169 3.58764 -0.000117644 0.9999969 -0.002496659 120 120 119 255 0.199162 0.303929
4.974709 0.046409 3.57129 0.6582361 0.7527758 0.007341945 97 95 95 255 0.199168 0.279594
3.587242 0.098209 3.248368 0.002972986 0.9999955 0.0004751519 120 120 119 255 0.199162 0.303929
0.147469 0.09807 2.980508 -0.01184495 0.9999204 -0.004346367 120 120 119 255 0.199162 0.303929
0.00071 -0.003125 2.792947 -0.9454534 -0.3256498 0.008375868 97 95 95 255 0.199168 0.279594
0.09362 0.086989 3.505868 -0.3702353 0.9287786 0.01721117 97 95 95 255 0.199168 0.279594
0.017441 0.030249 3.085923 -0.6749166 0.7377888 0.01246258 97 95 95 255 0.199168 0.279594
2.326653 0.095245 2.626283 0.01382135 0.9999017 0.002367474 120 120 119 255 0.199162 0.303929
1.134701 0.099563 3.405412 0.0004484587 0.9999992 0.001232086 120 120 119 255 0.199162 0.303929
3.856987 0.095324 3.570382 0.005394896 0.9999651 -0.006373717 120 120 119 255 0.199162 0.303929
2.420677 0.050354 3.31833 0.6201506 0.7842724 0.01816598 97 95 95 255 0.199168 0.279594
2.557938 0.042319 3.222672 -0.2823759 0.9590644 0.02143267 97 95 95 255 0.199168 0.279594
4.866322 0.103326 3.305429 0.4348521 0.9003689 0.01547422 97 95 95 255 0.199168 0.279594
2.648659 0.098174 3.24846 -0.04997687 0.99809 0.03631533 120 120 119 255 0.199162 0.303929
2.422169 0.091054 3.31833 0.04109696 0.9991551 0.0003786553 120 120 119 255 0.199162 0.303929
4.976685 0.042319 3.102494 0.6965087 0.7175328 -0.004735275 97 95 95 255 0.199168 0.279594
4.886387 0.102217 2.882867 0.5537584 0.8324849 -0.01790509 97 95 95 255 0.199168 0.279594
1.02956 0.09811 2.570497 -0.001966694 0.9999955 -0.00224556 120 120 119 255 0.199162 0.303929
2.441277 0.04231 2.539071 0.2058561 0.9766351 -0.06170203 97 95 95 255 0.199168 0.279594
0.696449 0.097485 2.884957 -0.002518591 0.9999903 -0.00362187 120 120 119 255 0.199162 0.303929
0.099617 0.090675 2.96119 -0.5852625 0.8108355 -0.003682398 97 95 95 255 0.199168 0.279594
0.07378 0.045505 2.559472 -0.3679661 0.874106 -0.3170797 97 95 95 255 0.199168 0.279594
0.496498 0.097495 2.925401 4.548816e-05 0.999984 -0.00566802 120 120 119 255 0.199162 0.303929
2.621758 0.09516 2.684503 -0.4344017 0.8857296 -0.1636408 97 95 95 255 0.199168 0.279594
2.557449 0.04232 2.596719 -0.1352625 0.9867064 -0.09008136 97 95 95 255 0.199168 0.279594
4.99942 0.037725 2.656228 0.7527728 0.6580752 -0.0164374 97 95 95 255 0.199168 0.279594
0.44157 0.095095 2.557099 -0.001861951 0.9999835 -0.005438587 120 120 119 255 0.199162 0.303929
5 -0.002865 2.382798 0.7119703 -0.7022096 -0.0001008285 97 95 95 255 0.199168 0.279594
0.094028 0.085585 2.572137 -0.4918324 0.770392 -0.4057056 97 95 95 255 0.199168 0.279594
0.276119 0.09521 2.557076 -0.01780348 0.9997672 -0.01218772 120 120 119 255 0.199162 0.303929
4.866295 0.093012 2.580171 0.3150689 0.9227251 -0.2220583 97 95 95 255 0.199168 0.279594
4.927608 0.046425 2.473428 0.2982844 0.9151717 0.2710851 97 95 95 255 0.199168 0.279594
3.72226 0.10868 2.572007 -0.01276817 0.9999073 -0.004734833 120 120 119 255 0.199162 0.303929
4.999519 0.037705 1.757829 0.6343222 0.772914 -0.01547269 97 95 95 255 0.199168 0.279594
0.0005 0.03776 2.480439 -0.5520784 0.8308153 0.07039481 97 95 95 255 0.199168 0.279594
0.349789 0.040095 2.55668 0.0043336 0.6458601 -0.7634435 97 95 95 255 0.199168 0.279594
1.451378 0.047485 2.556428 0.005450773 0.8972521 -0.4414849 97 95 95 255 0.199168 0.279594
1.066887 0.046745 2.478509 0.003414241 0.8341314 0.5515553 97 95 95 255 0.199168 0.279594
2.574509 0.0472 2.474473 -0.05122035 0.8879153 0.4571466 97 95 95 255 0.199168 0.279594
2.868439 0.04718 2.474328 0.01328769 0.8840271 0.4672469 97 95 95 255 0.199168 0.279594
0.45034 0.045875 2.461663 -0.05691941 0.8133922 0.5789244 97 95 95 255 0.199168 0.279594
3.6227 0.047225 2.474511 0.03755048 0.9484702 0.3146334 97 95 95 255 0.199168 0.279594
4.70517 0.09479 2.473001 0.03046418 0.1643223 0.9859362 97 95 95 255 0.199168 0.279594
4.46344 0.09511 2.475427 -0.03721725 0.167941 0.9850942 97 95 95 255 0.199168 0.279594
4.686028 0.04525 2.478257 0.01132362 0.8678672 0.4966672 97 95 95 255 0.199168 0.279594
3.82143 0.10818 2.393167 0.01138727 0.6100098 0.7923121 97 95 95 255 0.199168 0.279594
3.579311 0.094395 2.447007 0.03991468 0.6204461 0.7832327 97 95 95 255 0.199168 0.279594
4.897591 0.08755 2.462823 0.8480971 0.2112495 0.4859063 97 95 95 255 0.199168 0.279594
2.775799 0.08048 2.465158 -0.02955904 0.8124295 0.5823097 97 95 95 255 0.199168 0.279594
2.57402 0.095615 2.47268 -0.5338326 0.6127301 0.5827388 97 95 95 255 0.199168 0.279594
2.917561 0.09447 2.423348 0.02058124 0.847263 0.5307749 97 95 95 255 0.199168 0.279594
4.283791 0.04733 2.474008 -0.02488471 0.9645613 0.2626828 97 95 95 255 0.199168 0.279594
1.886452 0.04768 2.436418 0.006086464 0.7993711 0.6008067 97 95 95 255 0.199168 0.279594
4.530479 0.097942 2.573747 0.01467405 0.8835852 -0.4680405 97 95 95 255 0.199168 0.279594
2.141949 0.098855 2.404023 0.01407497 0.9037864 0.4277523 97 95 95 255 0.199168 0.279594
1.08123 0.09604 2.474999 0.006812899 0.4587894 0.8885189 97 95 95 255 0.199168 0.279594
0.087677 0.087555 2.367829 -0.4292805 0.8705994 0.2403642 97 95 95 255 0.199168 0.279594
1.612061 0.108225 2.368806 0.01218339 0.9965713 0.08183653 97 95 95 255 0.199168 0.279594
0.22142 0.09816 2.391953 -0.141869 0.7502367 0.6457694 97 95 95 255 0.199168 0.279594
0.474419 0.09605 2.425912 -0.08254829 0.6042816 0.7924832 97 95 95 255 0.199168 0.279594
2.378914 0.095575 2.419557 0.04123428 0.9031857 0.4272649 97 95 95 255 0.199168 0.279594
-1.1e-05 0.028105 2.265611 -0.8342453 0.5512233 -0.01369376 97 95 95 255 0.199168 0.279594
1.376617 0.09667 2.162271 -0.00519314 0.9999546 -0.007991523 120 120 119 255 0.199162 0.303929
2.528839 0.042475 2.201203 0.04324268 0.9990161 0.009845932 97 95 95 255 0.199168 0.279594
2.437344 0.09565 2.262788 0.2575806 0.9660079 0.02192892 97 95 95 255 0.199168 0.279594
2.642262 0.096115 2.128289 -0.4681511 0.8793981 0.08656516 97 95 95 255 0.199168 0.279594
4.925667 0.0966 2.083352 0.2142773 0.9765745 -0.01968663 120 120 119 255 0.199162 0.303929
2.120449 0.098175 2.101708 0.002640217 0.9999173 -0.01258685 120 120 119 255 0.199162 0.303929
0.00071 -0.003125 1.542947 -0.7488911 -0.6626835 -0.003590807 97 95 95 255 0.199168 0.279594
1.157856 0.124692 1.496591 -0.006542409 0.9999587 0.006314266 120 120 119 255 0.199162 0.303929
4.928829 0.045675 1.629594 0.6712956 0.7409816 0.01757033 97 95 95 255 0.199168 0.279594
3.566238 0.110493 1.501283 0.004065904 0.9999918 0.000138883 120 120 119 255 0.199162 0.303929
2.494957 0.09576 1.939317 0.9183647 0.3955548 -0.01194922 97 95 95 255 0.199168 0.279594
5 -0.002725 1.093728 0.9885781 -0.150708 -0.0006822729 97 95 95 255 0.199168 0.279594
0.071701 0.04716 1.673432 -0.5490348 0.8357852 0.00488716 97 95 95 255 0.199168 0.279594
4.117477 0.09504 1.739381 0.01158086 0.9999329 -0.0002435952 120 120 119 255 0.199162 0.303929
2.57074 0.051405 1.632997 -0.5801328 0.8143923 0.01452598 97 95 95 255 0.199168 0.279594
4.277328 -0.00324 0.37108 0.001229982 -0.9999946 -0.003069463 97 95 95 255 0.199168 0.279594
1.62101 0.09535 1.888543 -0.0005544875 0.9999946 -0.003249802 120 120 119 255 0.199162 0.303929
2.59161 0.098065 1.613649 -0.9034401 0.4255722 0.05181042 97 95 95 255 0.199168 0.279594
0.09861 0.089765 1.416947 -0.5627635 0.8266155 0.002031372 97 95 95 255 0.199168 0.279594
4.85302 0.098145 1.613587 0.1032007 0.9945203 -0.01670444 120 120 119 255 0.199162 0.303929
2.480679 0.095405 1.654443 0.0006813878 0.9999971 -0.002299728 120 120 119 255 0.199162 0.303929
2.48222 0.047565 1.653627 0.7830195 0.6205173 -0.04288221 97 95 95 255 0.199168 0.279594
0.00563 0.03541 1.601564 -0.7682079 0.6401755 0.005655383 97 95 95 255 0.199168 0.279594
2.070351 0.09528 1.403657 0.001235695 0.9999986 -0.001096883 120 120 119 255 0.199162 0.303929
0.074181 0.07685 0.917108 -0.5433271 0.8395182 0.002195947 97 95 95 255 0.199168 0.279594
2.57431 0.095785 0.541284 -0.9894455 0.1449023 0.0009860145 97 95 95 255 0.199168 0.279594
4.6689 0.098175 1.360437 0.008860248 0.99995 -0.004644317 120 120 119 255 0.199162 0.303929
4.900711 0.088985 1.280923 0.732383 0.6808169 0.01017684 97 95 95 255 0.199168 0.279594
2.460411 0.04231 0.996263 0.6058006 0.7948384 -0.03517983 97 95 95 255 0.199168 0.279594
1.428574 0.098175 0.941438 0.007476737 0.9999177 -0.01042958 120 120 119 255 0.199162 0.303929
0.018822 -0.003125 1.289048 -0.07405858 -0.9972513 -0.00229705 97 95 95 255 0.199168 0.279594
4.080799 0.098175 1.225183 0.01144774 0.999925 0.004370643 120 120 119 255 0.199162 0.303929
2.57378 0.04742 0.579843 -0.7066264 0.7075861 -0.001076742 97 95 95 255 0.199168 0.279594
2.443169 0.095775 1.004563 -0.0003219714 0.9999934 -0.00362351 120 120 119 255 0.199162 0.303929
0.018822 -0.003125 1.113267 -0.1727547 -0.9844305 -0.03244313 97 95 95 255 0.199168 0.279594
4.013832 0.098175 0.751451 0.003925944 0.9999515 -0.009034864 120 120 119 255 0.199162 0.303929
4.999977 0.02807 0.820298 0.646239 0.7631338 -0.001361827 97 95 95 255 0.199168 0.279594
0.00071 -6e-05 1.210923 -0.9245901 -0.3807262 -0.01344612 97 95 95 255 0.199168 0.279594
4.92823 0.047215 1.084848 0.5859298 0.8103445 -0.005308676 97 95 95 255 0.199168 0.279594
0.275101 0.098175 0.384271 -0.002368453 0.9999782 -0.006155252 120 120 119 255 0.199162 0.303929
0.140839 0.097785 0.379769 -0.008285563 0.999952 -0.00524058 120 120 119 255 0.199162 0.303929
4.87085 0.098175 0.671281 0.6897999 0.7236934 -0.02107094 97 95 95 255 0.199168 0.279594
0.011551 0.033545 0.703134 -0.7526783 0.6582065 -0.01547788 97 95 95 255 0.199168 0.279594
3.007797 -6e-05 0.000703 0.0006564093 -0.7062401 -0.7079721 97 95 95 255 0.199168 0.279594
5 -0 0.468728 0.9945351 0.1026283 -0.01917176 97 95 95 255 0.199168 0.279594
1.7882 0.090545 0.109857 0.002729552 0.9999803 -0.0056625 120 120 119 255 0.199162 0.303929
1.140961 0.098175 0.301629 -0.0006811752 0.9999743 -0.007136838 120 120 119 255 0.199162 0.303929
4.928169 0.04715 0.565187 0.5157285 0.8566443 -0.01359511 97 95 95 255 0.199168 0.279594
2.426468 0.04752 0.598634 0.6490004 0.7605053 -0.02074157 97 95 95 255 0.199168 0.279594
0 -0 1e-06 -0.8498375 0.03071541 -0.5261491 97 95 95 255 0.199168 0.279594
2.41671 0.087785 0.079103 0.8784609 0.1034632 -0.466478 97 95 95 255 0.199168 0.279594
4.85207 0.089165 0.130464 0.2387553 0.9219046 -0.3051032 97 95 95 255 0.199168 0.279594
0.081367 0.081725 0.368142 -0.5307102 0.8465823 -0.04056064 97 95 95 255 0.199168 0.279594
2.304668 -0.003125 1e-06 0.001252952 -0.7030136 -0.7111753 97 95 95 255 0.199168 0.279594
0.070839 0.046955 0.074823 -0.4088947 0.862366 -0.2985466 97 95 95 255 0.199168 0.279594
2.576851 0.09487 0.222879 -0.9480122 0.3075231 -0.08186915 97 95 95 255 0.199168 0.279594
2.574928 0.047155 0.052148 -0.2787791 0.8513933 -0.4443102 97 95 95 255 0.199168 0.279594
0.299068 0.09813 0.26217 -0.00502177 0.9998843 -0.01435862 120 120 119 255 0.199162 0.303929
0.878551 0.095155 0.115113 8.268695e-05 0.99987 -0.016127 120 120 119 255 0.199162 0.303929
3.38393 0.09292 0.106858 0.0008758138 0.9999422 -0.01071688 120 120 119 255 0.199162 0.303929
0.149857 0.09124 0.080011 -0.01125813 0.999528 -0.02858442 120 120 119 255 0.199162 0.303929
4.984089 0.02144 0.013742 0.4287454 0.8538202 -0.2952432 97 95 95 255 0.199168 0.279594
5 -0 1e-06 0.3784145 -0.3879359 -0.8404215 97 95 95 255 0.199168 0.279594
3.09066 0.09154 0.052217 -0.00272329 0.9996125 -0.02770365 120 120 119 255 0.199162 0.303929
2.630798 0.08945 0.055192 -0.004761077 0.9994161 -0.03383495 120 120 119 255 0.199162 0.303929
3.567169 0.0475 0.049546 0.01480582 0.8613498 -0.5077966 97 95 95 255 0.199168 0.279594
2.42569 0.0474 0.073693 0.1645599 0.9004689 -0.4025864 97 95 95 255 0.199168 0.279594
0.882069 0.047305 0.073907 0.08161577 0.9294551 -0.3597945 97 95 95 255 0.199168 0.279594
1.362213 0.08488 0.133729 -0.08291813 0.9328005 -0.3507246 97 95 95 255 0.199168 0.279594
1.194458 0.047395 0.073693 -0.04041706 0.9252421 -0.3772181 97 95 95 255 0.199168 0.279594
2.031239 0.03773 0.00055 -1.830877e-05 0.6641284 -0.7476186 97 95 95 255 0.199168 0.279594
3.053368 0.0475 0.049546 -0.001778299 0.767279 -0.6413111 97 95 95 255 0.199168 0.279594
4.101559 0.037725 0.000543 0.006744997 0.6597028 -0.7514964 97 95 95 255 0.199168 0.279594
0.078201 0.037705 0.000589 -0.1130143 0.7649921 -0.6340464 97 95 95 255 0.199168 0.279594
1.015617 0.037755 0.000528 0.03756125 0.7233995 -0.6894072 97 95 95 255 0.199168 0.279594
2.59766 0.037755 0.000497 -0.004913498 0.7302492 -0.6831633 97 95 95 255 0.199168 0.279594
3.476559 0.037725 0.000543 2.070388e-05 0.6325089 -0.7745531 97 95 95 255 0.199168 0.279594
0.917961 -0.003125 1e-06 -0.0009540164 -0.5467772 -0.8372776 97 95 95 255 0.199168 0.279594
1.249989 -0.003125 1e-06 -0.04332445 -0.1080286 -0.9932033 97 95 95 255 0.199168 0.279594
3.632797 -6e-05 0.000703 -0.0001308483 -0.5537021 -0.8327148 97 95 95 255 0.199168 0.279594
1.328117 0.037755 0.000528 -0.1338302 0.664748 -0.7349827 97 95 95 255 0.199168 0.279594
3.057098 0.086334 4.883157 -0.006108081 0.9997815 0.01998964 120 120 119 255 0.199162 0.303929
3.701439 0.096269 4.877572 -0.004854311 0.9999747 0.005201776 120 120 119 255 0.199162 0.303929
2.803089 0.088034 4.842492 -0.005892753 0.9997687 0.02068392 120 120 119 255 0.199162 0.303929
2.543968 0.082119 4.898187 -0.01810907 0.999596 0.02190794 120 120 119 255 0.199162 0.303929
0.20713 0.098169 4.845201 -0.01195248 0.999928 -0.001069632 120 120 119 255 0.199162 0.303704
0.04916 0.095604 4.827973 -0.01623467 0.9998683 -3.920188e-06 120 120 119 255 0.199162 0.303704
4.934227 0.076919 4.833901 0.2667361 0.9590907 -0.09485154 120 120 119 255 0.199143 0.304122
4.87307 0.098104 4.87613 0.2667361 0.9590907 -0.09485154 120 120 119 255 0.199143 0.304122
2.630791 0.097869 4.251328 -0.5251436 0.8495487 -0.04991066 97 95 95 255 0.199168 0.279594
4.739899 0.098174 4.502343 0.004726043 0.9999355 0.01032518 120 120 119 255 0.199162 0.303929
4.87307 0.098104 4.87613 -0.001565277 0.9999985 0.000744935 120 120 119 255 0.199162 0.303929
0.049309 0.095604 4.210908 -0.7970963 0.6006479 -0.06212681 97 95 95 255 0.199168 0.279594
4.934227 0.076919 4.833901 0.02514115 0.9984689 0.04927297 120 120 119 255 0.199162 0.303929
4.91544 0.097889 4.41855 0.9732825 0.2291587 -0.01440725 97 95 95 255 0.199168 0.279594
2.24057 0.090799 4.454942 0.005516584 0.9999685 0.005697895 120 120 119 255 0.199162 0.303929
1.264179 0.095299 4.809342 0.00705889 0.9999654 0.004420247 120 120 119 255 0.199162 0.303929
2.27483 0.083114 4.980363 0.009687028 0.9998552 0.01399261 120 120 119 255 0.199162 0.303929
0.879959 0.098029 4.915421 0.003709329 0.9999922 -0.001364541 120 120 119 255 0.199162 0.303929
0.20713 0.098169 4.845201 0.00030436 0.9999971 -0.002389642 120 120 119 255 0.199162 0.303929
0.156609 0.095594 3.820802 -0.3384185 0.9408333 -0.01747878 97 95 95 255 0.199168 0.279594
2.38459 0.092386 3.882195 0.01528746 0.9998812 0.001968737 120 120 119 255 0.199162 0.303929
0.156609 0.095594 3.820802 0.0001663112 1 0.0002114796 120 120 119 255 0.199162 0.303929
4.91835 0.098044 3.880517 0.0007908572 0.9999997 0.0002923675 120 120 119 255 0.199162 0.303929
2.667931 0.075104 3.474862 -0.1091295 0.9932407 0.03954338 120 120 119 255 0.199162 0.303929
0.147469 0.09807 2.980508 -0.1537317 0.9881126 -0.0003978601 97 95 95 255 0.199168 0.279594
4.868568 0.098169 3.58764 0.4344108 0.9002229 -0.02976757 97 95 95 255 0.199168 0.279594
2.648659 0.098174 3.24846 -0.538317 0.8393211 0.07586147 97 95 95 255 0.199168 0.279594
2.422169 0.091054 3.31833 0.9421602 0.3346851 0.01789424 97 95 95 255 0.199168 0.279594
2.326653 0.095245 2.626283 0.1534252 0.8440306 -0.5138804 97 95 95 255 0.199168 0.279594
0.094028 0.085585 2.572137 -0.05469684 0.9982297 -0.02336074 120 120 119 255 0.199162 0.303929
2.621758 0.09516 2.684503 -0.01276817 0.9999073 -0.004734833 120 120 119 255 0.199162 0.303929
3.72226 0.10868 2.572007 0.006604088 0.9998371 0.01679719 120 120 119 255 0.199168 0.303673
2.648659 0.098174 3.24846 -3.577222e-05 0.9998803 0.01547238 120 120 119 255 0.199168 0.303673
3.587242 0.098209 3.248368 0.005797463 0.9998985 0.01301632 120 120 119 255 0.199168 0.303673
3.72226 0.10868 2.572007 -0.03038598 0.9059708 -0.4222482 97 95 95 255 0.199168 0.279594
0.44157 0.095095 2.557099 0.0115385 -0.01163512 -0.9998658 97 95 95 255 0.199168 0.279594
1.02956 0.09811 2.570497 0.02003546 0.2632914 -0.9645083 97 95 95 255 0.199168 0.279594
0.276119 0.09521 2.557076 -0.0356978 0.1164729 -0.9925522 97 95 95 255 0.199168 0.279594
1.612061 0.108225 2.368806 -0.006678679 0.9995791 -0.02823135 120 120 119 255 0.199162 0.303929
1.08123 0.09604 2.474999 -0.01396395 0.9998401 -0.01117543 120 120 119 255 0.199162 0.303929
4.70517 0.09479 2.473001 0.01282941 0.9998519 0.01147804 120 120 119 255 0.199162 0.303929
4.897591 0.08755 2.462823 0.03899647 0.9988824 0.02670757 120 120 119 255 0.199162 0.303929
0.474419 0.09605 2.425912 0.004759012 0.9996836 0.02469768 120 120 119 255 0.199162 0.303929
0.22142 0.09816 2.391953 -0.0144021 0.9997903 0.01456371 120 120 119 255 0.199162 0.303929
4.925667 0.0966 2.083352 0.895711 -0.4411278 0.05575 97 95 95 255 0.199168 0.279594
2.642262 0.096115 2.128289 -0.009693294 0.9999157 0.008644916 120 120 119 255 0.199162 0.303929
2.917561 0.09447 2.423348 -0.009965337 0.9968485 0.07870092 120 120 119 255 0.199162 0.303929
3.82143 0.10818 2.393167 0.007490932 0.9986296 0.05179543 120 120 119 255 0.199162 0.303929
3.579311 0.094395 2.447007 -0.007604596 0.9764083 0.2157985 120 120 119 255 0.199162 0.303929
2.437344 0.09565 2.262788 0.01045839 0.9999333 -0.004900584 120 120 119 255 0.199162 0.303929
2.494957 0.09576 1.939317 0.006465039 0.9999791 3.857707e-05 120 120 119 255 0.199162 0.303929
4.46344 0.09511 2.475427 0.006371283 0.9999787 -0.001464484 120 120 119 255 0.199162 0.303929
2.59161 0.098065 1.613649 -0.01257352 0.9999198 0.00153519 120 120 119 255 0.199162 0.303929
2.480679 0.095405 1.654443 0.9907134 0.1277955 -0.04642522 97 95 95 255 0.199168 0.279594
4.928829 0.045675 1.629594 0.5793033 0.8104644 -0.08692059 120 120 119 255 0.199162 0.303929
0.09861 0.089765 1.416947 -0.02297534 0.9997343 0.001860818 120 120 119 255 0.199162 0.303929
2.57431 0.095785 0.541284 -0.002708959 0.9999712 -0.007103025 120 120 119 255 0.199162 0.303929
4.85302 0.098145 1.613587 0.5599326 0.8265396 0.0575132 97 95 95 255 0.199168 0.279594
4.900711 0.088985 1.280923 0.02098139 0.9997711 -0.004197337 120 120 119 255 0.199162 0.303929
4.900711 0.088985 1.280923 0.01587215 0.9974895 -0.06901402 120 120 119 255 0.199175 0.3038
4.080799 0.098175 1.225183 0.01587215 0.9974895 -0.06901402 120 120 119 255 0.199175 0.3038
4.6689 0.098175 1.360437 0.01587215 0.9974895 -0.06901402 120 120 119 255 0.199175 0.3038
2.443169 0.095775 1.004563 0.9828529 0.176316 -0.05397065 97 95 95 255 0.199168 0.279594
0.140839 0.097785 0.379769 -0.3369919 0.9408353 -0.03557355 97 95 95 255 0.199168 0.279594
4.87085 0.098175 0.671281 0.002887912 0.9999956 -0.0006774291 120 120 119 255 0.199162 0.303929
4.85207 0.089165 0.130464 0.0005891475 0.9999058 -0.01371253 120 120 119 255 0.199162 0.303929
2.41671 0.087785 0.079103 0.003963159 0.9999539 -0.008746458 120 120 119 255 0.199162 0.303929
0.149857 0.09124 0.080011 -0.3047274 0.6276507 -0.7163768 97 95 95 255 0.199168 0.279594
2.576851 0.09487 0.222879 -0.00114715 0.9998107 -0.01942292 120 120 119 255 0.199162 0.303929
3.38393 0.09292 0.106858 0.04586726 0.8490873 -0.5262575 97 95 95 255 0.199168 0.279594
3.09066 0.09154 0.052217 0.01864844 0.3032482 -0.9527292 97 95 95 255 0.199168 0.279594
0.878551 0.095155 0.115113 0.1821866 0.4616398 -0.8681571 97 95 95 255 0.199168 0.279594
1.140961 0.098175 0.301629 0.1187772 0.908598 -0.4004269 97 95 95 255 0.199168 0.279594
1.7882 0.090545 0.109857 -0.03083014 0.5992332 -0.7999807 97 95 95 255 0.199168 0.279594
2.630798 0.08945 0.055192 -0.3683375 0.5409759 -0.7560904 97 95 95 255 0.199168 0.279594
1.62101 0.09535 1.888543 0.05583202 0.9984017 0.008767115 120 120 119 255 0.199162 0.303772
1.428574 0.098175 0.941438 0.03464171 0.9992751 -0.01578418 120 120 119 255 0.199162 0.303772
1.157856 0.124692 1.496591 0.05583202 0.9984017 0.008767115 120 120 119 255 0.199162 0.303772
1.376617 0.09667 2.162271 0.03836618 0.9988301 0.02943785 120 120 119 255 0.199162 0.303772
1.140961 0.098175 0.301629 0.04475137 0.9987956 -0.02011705 120 120 119 255 0.199162 0.303772
1.362213 0.08488 0.133729 0.01530603 0.999726 -0.01771315 120 120 119 255 0.199162 0.303772
1.7882 0.090545 0.109857 -0.01415269 0.9997829 -0.01529378 120 120 119 255 0.199162 0.303772
4.530479 0.097942 2.573747 0.002911546 0.9999917 -0.002843993 120 120 119 255 0.199168 0.303673
4.886387 0.102217 2.882867 0.002963691 0.9998471 -0.01723973 120 120 119 255 0.199168 0.303673
4.866295 0.093012 2.580171 0.01527251 0.9993901 -0.03140526 120 120 119 255 0.199168 0.303673
3.72226 0.10868 2.572007 0.01270136 0.8786568 -0.477285 97 95 95 255 0.199168 0.279808
4.866322 0.103326 3.305429 -0.007090126 0.999967 0.003969496 120 120 119 255 0.199168 0.303673
3.856987 0.095324 3.570382 -0.00257982 0.9999735 0.006810407 120 120 119 255 0.199168 0.303673
4.868568 0.098169 3.58764 -0.003124065 0.9998277 0.01829528 120 120 119 255 0.199168 0.303673
3 0 1 2 
3 0 3 4 
3 5 6 7 
3 8 7 9 
3 10 11 12 
3 4 3 7 
3 6 4 7 
3 12 11 13 
3 14 12 15 
3 16 17 2 
3 0 2 3 
3 9 7 18 
3 12 13 15 
3 11 9 18 
3 13 11 18 
3 19 20 4 
3 6 19 4 
3 1 16 2 
3 8 9 11 
3 21 22 1 
3 23 20 19 
3 23 21 1 
3 22 16 1 
3 1 0 4 
3 8 5 7 
3 10 24 11 
3 25 18 7 
3 26 14 15 
3 27 28 16 
3 1 20 23 
3 29 19 6 
3 4 20 1 
3 30 24 10 
3 10 12 31 
3 14 31 12 
3 32 7 3 
3 32 25 7 
3 25 15 13 
3 22 27 16 
3 30 8 24 
3 11 24 8 
3 3 2 17 
3 13 18 25 
3 33 30 10 
3 33 10 31 
3 34 35 8 
3 35 5 8 
3 21 27 22 
3 30 34 8 
3 36 33 31 
3 34 37 35 
3 28 38 16 
3 35 39 5 
3 40 206 207 
3 41 31 14 
3 26 15 25 
3 5 39 6 
3 208 42 209 
3 41 14 26 
3 210 43 211 
3 212 44 213 
3 45 40 207 
3 35 214 39 
3 215 45 207 
3 216 215 207 
3 29 46 19 
3 206 40 208 
3 47 46 29 
3 217 38 28 
3 17 16 38 
3 48 215 218 
3 29 6 49 
3 36 31 219 
3 32 3 17 
3 40 42 208 
3 220 221 222 
3 47 29 49 
3 25 50 26 
3 39 49 6 
3 41 51 31 
3 41 26 50 
3 220 52 221 
3 219 31 51 
3 53 219 51 
3 50 51 41 
3 214 54 39 
3 52 223 221 
3 55 49 39 
3 56 32 17 
3 25 57 50 
3 217 58 38 
3 223 52 224 
3 47 49 55 
3 59 43 210 
3 60 42 40 
3 39 54 61 
3 39 61 55 
3 62 46 47 
3 63 45 215 
3 62 47 55 
3 38 56 17 
3 48 63 215 
3 225 58 217 
3 226 52 220 
3 56 38 58 
3 52 227 224 
3 228 63 48 
3 53 51 64 
3 60 229 42 
3 45 65 40 
3 50 64 51 
3 66 227 52 
3 60 40 65 
3 67 32 56 
3 230 68 225 
3 225 68 58 
3 69 56 58 
3 70 71 52 
3 63 72 45 
3 64 50 57 
3 71 66 52 
3 53 64 231 
3 61 73 55 
3 61 74 73 
3 54 74 61 
3 70 52 226 
3 64 75 231 
3 60 76 229 
3 70 226 77 
3 78 79 64 
3 69 67 56 
3 70 80 71 
3 65 76 60 
3 54 232 74 
3 74 81 73 
3 80 82 71 
3 57 78 64 
3 68 83 58 
3 230 83 68 
3 233 73 81 
3 69 58 84 
3 64 79 75 
3 85 66 71 
3 234 233 81 
3 58 83 84 
3 232 86 74 
3 87 81 74 
3 88 78 57 
3 82 85 71 
3 86 87 74 
3 82 89 85 
3 88 57 90 
3 25 90 57 
3 230 91 83 
3 85 92 66 
3 91 84 83 
3 78 93 79 
3 88 93 78 
3 89 92 85 
3 92 235 66 
3 88 94 93 
3 95 236 76 
3 237 238 239 
3 80 89 82 
3 96 88 90 
3 86 240 87 
3 69 97 67 
3 241 242 98 
3 242 234 99 
3 98 242 99 
3 99 234 81 
3 91 243 84 
3 243 241 98 
3 243 98 84 
3 100 98 99 
3 101 81 87 
3 240 102 87 
3 96 94 88 
3 97 69 84 
3 103 84 98 
3 104 102 240 
3 103 97 84 
3 102 101 87 
3 105 106 107 
3 108 109 104 
3 105 107 94 
3 110 105 94 
3 111 101 102 
3 111 102 113 
3 106 108 114 
3 109 113 102 
3 104 109 102 
3 108 104 114 
3 106 114 107 
3 115 99 81 
3 240 114 104 
3 116 107 114 
3 116 93 107 
3 93 94 107 
3 117 118 115 
3 115 118 100 
3 103 119 97 
3 100 103 98 
3 99 115 100 
3 120 118 117 
3 121 119 103 
3 122 121 103 
3 118 122 103 
3 101 115 81 
3 123 117 115 
3 97 124 67 
3 123 115 101 
3 244 125 245 
3 112 126 101 
3 127 117 123 
3 111 126 112 
3 113 128 111 
3 127 120 117 
3 127 123 101 
3 124 97 119 
3 129 246 247 
3 127 101 126 
3 244 130 125 
3 128 126 111 
3 124 131 67 
3 248 132 249 
3 125 248 245 
3 250 110 133 
3 133 110 94 
3 134 251 252 
3 253 252 254 
3 135 127 126 
3 96 90 136 
3 130 244 255 
3 256 130 255 
3 124 119 137 
3 257 138 253 
3 128 139 126 
3 134 252 253 
3 96 133 94 
3 140 136 90 
3 130 141 125 
3 128 142 139 
3 121 143 119 
3 246 144 257 
3 25 140 90 
3 132 248 125 
3 145 130 256 
3 129 144 246 
3 119 143 137 
3 135 126 146 
3 146 126 139 
3 131 32 67 
3 147 124 137 
3 124 147 131 
3 134 258 251 
3 259 135 146 
3 141 130 145 
3 144 129 260 
3 148 141 145 
3 138 134 253 
3 138 257 144 
3 261 249 132 
3 137 143 149 
3 142 150 139 
3 151 138 144 
3 262 258 134 
3 152 263 133 
3 264 151 144 
3 139 153 146 
3 147 137 149 
3 148 154 141 
3 155 32 131 
3 156 134 138 
3 156 138 151 
3 157 153 139 
3 136 133 96 
3 145 158 148 
3 155 159 32 
3 134 160 262 
3 259 146 153 
3 150 157 139 
3 161 133 136 
3 147 162 131 
3 163 152 133 
3 162 155 131 
3 164 165 261 
3 132 164 261 
3 156 160 134 
3 265 266 267 
3 161 163 133 
3 162 159 155 
3 268 259 153 
3 269 149 143 
3 152 163 166 
3 162 32 159 
3 147 167 162 
3 168 140 25 
3 164 132 154 
3 149 167 147 
3 270 156 264 
3 161 136 169 
3 148 170 154 
3 171 164 154 
3 166 163 172 
3 157 173 153 
3 268 153 173 
3 174 32 162 
3 163 161 172 
3 172 161 169 
3 170 148 158 
3 175 268 173 
3 176 166 172 
3 160 156 270 
3 269 177 149 
3 167 174 162 
3 178 25 32 
3 140 169 136 
3 167 149 179 
3 150 180 157 
3 177 179 149 
3 157 180 181 
3 270 271 160 
3 178 168 25 
3 182 165 164 
3 181 173 157 
3 183 164 171 
3 183 182 164 
3 167 179 174 
3 184 262 160 
3 185 165 182 
3 269 179 177 
3 176 172 186 
3 272 170 158 
3 271 184 160 
3 172 169 186 
3 187 169 140 
3 273 179 269 
3 188 274 184 
3 183 185 182 
3 188 189 274 
3 190 275 176 
3 191 175 173 
3 181 191 173 
3 190 276 275 
3 277 278 192 
3 273 277 179 
3 277 192 179 
3 175 191 279 
3 193 194 278 
3 193 279 194 
3 279 191 194 
3 180 280 181 
3 278 194 192 
3 195 194 191 
3 280 276 181 
3 276 196 181 
3 276 190 196 
3 190 176 197 
3 197 176 186 
3 198 174 179 
3 198 179 192 
3 199 198 192 
3 181 200 191 
3 201 196 190 
3 174 202 32 
3 202 203 32 
3 203 178 32 
3 168 204 140 
3 204 187 140 
3 199 192 194 
3 195 205 194 
3 197 201 190 
3 186 169 187 
3 203 199 194 
3 195 191 200 
3 200 181 196 
3 201 200 196 
3 200 201 168 
3 201 197 204 
3 199 203 202 
3 194 205 203 
3 205 195 203 
3 195 200 178 
3 168 201 204 
3 197 187 204 
3 198 202 174 
3 198 199 202 
3 197 186 187 
3 195 178 203 
3 178 200 168 
3 118 103 100 
3 281 282 283 
3 281 283 284 
3 285 282 286 
3 286 282 287 
3 45 72 65 
3 288 289 290 
3 291 116 114 
3 239 288 237 
3 292 293 294 
3 293 288 239 
3 288 292 289 
3 73 62 55 
3 111 112 101 
3 184 274 262 
3 293 292 288 
3 73 233 62 
