ply
format ascii 1.0
comment VCGLIB generated
comment TextureFile Dungeons_Texture_01.png
element vertex 179
property float x
property float y
property float z
property float nx
property float ny
property float nz
property uchar red
property uchar green
property uchar blue
property uchar alpha
property float texture_u
property float texture_v
element face 190
property list uchar int vertex_indices
end_header
3.573098 2.180683 0.134333 0.0006129718 0.02207414 0.9997562 95 92 87 255 0.222569 0.296953
2.783496 1.469894 0.150511 0.0006129718 0.02207414 0.9997562 95 92 87 255 0.222569 0.296953
3.475465 1.450679 0.150511 0.0006129718 0.02207414 0.9997562 95 92 87 255 0.222569 0.296953
3.55919 4.871531 2.554469 -0.001480277 -0.9229099 0.3850134 95 92 87 255 0.222569 0.296953
3.554463 4.849483 3.65317 0.3747768 -0.9053148 0.1998687 97 95 95 255 0.200041 0.278032
1.439443 4.849483 3.692265 -0.0001854436 -0.9998055 -0.01971953 95 92 87 255 0.222569 0.296953
1.412217 4.871531 2.554469 0.04341073 -0.8517083 0.5222149 95 92 87 255 0.222569 0.296953
1.477631 4.219756 1.961777 0.1199426 -0.6613052 0.7404655 95 92 87 255 0.222569 0.296953
1.761534 4.012035 1.730275 0.02593585 -0.6874248 0.7257923 95 92 87 255 0.222569 0.296953
3.534539 4.250121 1.967435 0.5984846 -0.5548029 0.5779359 97 95 95 255 0.200041 0.278032
3e-06 0 -4e-06 0 0 1 97 95 95 255 0.200041 0.278032
5.000001 0 -4e-06 0 0 1 97 95 95 255 0.200041 0.278032
4.8173 0.132463 -4e-06 0.1621738 -0.1122185 0.9803605 97 95 95 255 0.200041 0.278032
0.21318 0.161493 -4e-06 -0.1723543 -0.180872 0.9682868 97 95 95 255 0.200041 0.278032
5.000001 2.5 -4e-06 -9.940642e-07 -0.382684 0.9238793 97 95 95 255 0.200041 0.278032
4.78682 2.5 -4e-06 0.6701401 -0.28036 0.6872485 97 95 95 255 0.200041 0.278032
3e-06 2.5 -4e-06 0 -0.2527255 0.9675381 97 95 95 255 0.200041 0.278032
0.138427 2.5 -4e-06 -0.34225 -0.3814773 0.8586851 97 95 95 255 0.200041 0.278032
5.000001 5 2.499999 1.917514e-06 -0.9238794 0.3826836 97 95 95 255 0.200041 0.278032
5.000001 4.999999 4.999999 1.214417e-07 -1 -1.271566e-07 97 95 95 255 0.200041 0.278032
4.78682 4.999999 4.796399 0.1884869 -0.9652734 0.1808866 97 95 95 255 0.200041 0.278032
4.78682 5 2.499999 0.6004396 -0.7421589 0.2977791 97 95 95 255 0.200041 0.278032
3e-06 4.999999 4.999999 -1.678834e-07 -1 -1.907349e-07 97 95 95 255 0.200041 0.278032
0.277097 4.999999 4.756103 -0.2548597 -0.9479747 0.1907629 97 95 95 255 0.200041 0.278032
3e-06 5 2.499999 -1.200053e-07 -0.9675382 0.252725 97 95 95 255 0.200041 0.278032
0.213181 5 2.499999 -0.5988654 -0.7138739 0.362966 97 95 95 255 0.200041 0.278032
3e-06 4.370338 1.870339 2.287018e-06 -0.7071066 0.707107 97 95 95 255 0.200041 0.278032
0.24879 4.369878 1.869878 -0.4930305 -0.6242549 0.6059924 97 95 95 255 0.200041 0.278032
5.000001 3.576357 1.076356 -3.0368e-07 -0.7071076 0.7071059 97 95 95 255 0.200041 0.278032
4.78682 3.56515 1.065148 0.3857334 -0.6488896 0.6558598 97 95 95 255 0.200041 0.278032
4.469306 0.564119 0.149815 0.1857897 -0.1851473 0.9649885 97 95 95 255 0.200041 0.278032
0.72002 0.429083 0.149815 0.07711139 -0.5205958 0.850314 97 95 95 255 0.200041 0.278032
0.234336 0.180809 0.040741 -0.360328 -0.3717948 0.8555304 97 95 95 255 0.200041 0.278032
4.760865 2.482327 0.042664 0.6671159 -0.301641 0.6811528 97 95 95 255 0.200041 0.278032
4.709031 2.155016 0.130768 0.6644463 0.03384337 0.7465694 97 95 95 255 0.200041 0.278032
4.746446 4.92224 4.748105 0.3680197 -0.8731381 0.3196738 97 95 95 255 0.200041 0.278032
4.315045 4.85018 4.541894 -0.06179105 -0.7900569 0.6099116 97 95 95 255 0.200041 0.278032
4.531735 4.852747 4.290322 0.6781725 -0.7324884 -0.0595216 97 95 95 255 0.200041 0.278032
2.081128 0.931736 0.149815 0 0 1 120 120 119 255 0.197903 0.304397
4.595819 2.525927 0.127876 0.3361181 -0.396901 0.8541044 97 95 95 255 0.200041 0.278032
3.937768 2.447031 0.127876 0.02773995 -0.4179825 0.9080315 120 120 119 255 0.197903 0.304397
3.937768 1.076801 0.149815 0.004131286 0.008820674 0.9999526 120 120 119 255 0.197903 0.304397
0.290969 2.302388 0.129309 -0.005624813 0.01310214 0.9998984 120 120 119 255 0.197903 0.304397
1.069802 2.331528 0.129766 -0.006715094 0.5866538 0.80981 97 95 95 255 0.199511 0.279839
1.22331 2.504612 -0.01384 0.03414571 -0.6012532 0.7983287 97 95 95 255 0.199511 0.279839
0.407023 4.872121 2.552966 -0.4095604 -0.8522294 0.3255234 97 95 95 255 0.200041 0.278032
0.290969 4.870306 2.730767 -0.7752824 -0.6297078 -0.04904383 97 95 95 255 0.200041 0.278032
0.251788 4.936532 2.526286 -0.6928591 -0.6713959 0.2630091 97 95 95 255 0.200041 0.278032
0.290969 4.713775 2.39462 -0.6952827 -0.5060413 0.5103961 97 95 95 255 0.200041 0.278032
4.709031 2.740068 0.420914 0.03297961 -0.7487894 0.6619871 120 120 119 255 0.197903 0.304397
4.570863 3.511295 1.19214 0.5122988 -0.5957977 0.6185266 97 95 95 255 0.200041 0.278032
3.937768 3.482951 1.163796 -2.345991e-07 -0.7071068 0.7071068 120 120 119 255 0.197903 0.304397
2.500461 1.198892 -0.016209 -0.01295068 -0.1116542 0.9936628 97 95 95 255 0.200041 0.278032
2.264108 1.123543 0.060394 0.01714885 0.661625 0.7496387 97 95 95 255 0.200041 0.278032
3.8476 1.163582 -0.016209 -0.1487328 0.3344883 0.9305892 97 95 95 255 0.200041 0.278032
3.8476 2.504612 -0.01384 -0.1682091 -0.3298919 0.9289117 97 95 95 255 0.200041 0.278032
3.937772 4.87212 2.552966 -0.7787586 -0.6092363 0.1495529 97 95 95 255 0.200041 0.278032
3.937772 4.850181 3.94974 0.004232178 -0.9999626 -0.007540766 120 120 119 255 0.197903 0.304397
3.8476 5.016201 3.875028 -0.2253165 -0.96918 -0.09961218 97 95 95 255 0.200041 0.278032
3.787633 5.013834 2.495366 -0.06011346 -0.9311936 0.3595341 97 95 95 255 0.200041 0.278032
1.217607 4.850181 3.986505 0.02788951 -0.5299791 -0.847552 97 95 95 255 0.200041 0.278032
1.128446 4.972095 3.894877 0.4784004 -0.7569967 -0.4450719 97 95 95 255 0.200041 0.278032
1.152398 5.016201 3.875028 0.3559151 -0.9011329 -0.2475559 97 95 95 255 0.200041 0.278032
1.06223 4.852466 3.566104 0.7792399 -0.6247613 0.04958335 97 95 95 255 0.200041 0.278032
1.06223 4.87212 2.552966 0.7185107 -0.6019154 0.3484828 97 95 95 255 0.200041 0.278032
1.177606 5.013834 2.495366 0.07277177 -0.9366903 0.3425137 97 95 95 255 0.200041 0.278032
1.006584 4.071441 1.695547 0.03703652 -0.7077164 0.7055252 120 120 119 255 0.197903 0.304397
1.171777 4.132152 1.614615 0.1471358 -0.702657 0.6961495 97 95 95 255 0.200041 0.278032
3.823075 3.530794 1.012338 -0.2230229 -0.6773105 0.7010787 97 95 95 255 0.200041 0.278032
0.354884 4.85018 4.619428 -0.5301813 -0.7049967 0.4710493 97 95 95 255 0.200041 0.278032
0.434808 4.299341 1.980187 -0.5620712 -0.611687 0.5567001 97 95 95 255 0.200041 0.278032
0.895175 4.850181 4.019185 -0.008010727 -0.9999458 -0.006656219 120 120 119 255 0.197903 0.304397
4.709035 4.87212 2.552966 0.002745393 -0.926325 0.3767155 120 120 119 255 0.197903 0.304397
0.482051 0.640756 0.147717 -0.607821 0.04825301 0.7926067 97 95 95 255 0.200041 0.278032
1.692296 1.076801 0.149815 0.06853886 0.6502752 0.7566007 97 95 95 255 0.200041 0.278032
1.150117 1.106296 0.149815 0.4886898 0.4950207 0.7184267 97 95 95 255 0.200041 0.278032
1.267663 1.231205 -0.016209 0.1906451 0.328956 0.9249013 97 95 95 255 0.200041 0.278032
2.856671 1.076801 0.149815 -0.03181738 0.7836055 0.6204435 97 95 95 255 0.200041 0.278032
1.493058 3.68995 1.43218 0.008617851 -0.706313 0.7078473 95 92 87 255 0.222569 0.296953
1.48216 3.253223 0.970544 -0.01007575 -0.7130143 0.7010772 95 92 87 255 0.222569 0.296953
3.588342 3.412906 1.130227 0.04005799 -0.7051017 0.7079738 95 92 87 255 0.222569 0.296953
3e-06 3.313523 0.813523 2.979018e-06 -0.707108 0.7071056 97 95 95 255 0.200041 0.278032
0.163009 3.322092 0.822091 -0.3742316 -0.6486427 0.6627318 97 95 95 255 0.200041 0.278032
4.78682 4.358997 1.858998 0.2707478 -0.6806967 0.6806965 97 95 95 255 0.200041 0.278032
5.000001 4.358492 1.858491 6.647021e-06 -0.7071068 0.7071068 97 95 95 255 0.200041 0.278032
3.757665 4.36801 1.849546 -0.01268223 -0.7141715 0.699856 97 95 95 255 0.198292 0.279229
4.709031 4.409331 2.090178 0.8543528 -0.36748 0.3674774 97 95 95 255 0.200041 0.278032
4.049649 4.395246 2.076091 0.003151552 -0.9845462 0.1750963 97 95 95 255 0.198292 0.279229
1.134984 3.307397 0.988244 0.6758462 -0.4927264 0.5481357 97 95 95 255 0.200041 0.278032
1.262635 3.371112 0.852655 -0.02375649 -0.7125996 0.7011687 97 95 95 255 0.200041 0.278032
0.290969 3.279053 0.959897 -0.667812 -0.5025005 0.5491088 97 95 95 255 0.200041 0.278032
4.045552 4.136072 1.816918 -0.01109311 -0.1497363 0.9886637 97 95 95 255 0.198292 0.279229
4.630948 4.144266 1.825112 0.5706365 -0.5925372 0.5685717 97 95 95 255 0.200041 0.278032
1.449811 2.445486 0.128465 -0.01049382 -0.2426635 0.9700538 95 92 87 255 0.222569 0.296953
3.305541 2.366204 0.128465 0.04069788 -0.5591598 0.8280604 95 92 87 255 0.222569 0.296953
3.604165 2.654099 0.344482 0.4417212 -0.6943365 0.5681367 97 95 95 255 0.200041 0.278032
1.084004 2.704521 0.385367 0.05200141 -0.8855606 0.4616042 97 95 95 255 0.199511 0.279839
0.290969 2.607248 0.288093 0.03026479 -0.9141665 0.4042076 97 95 95 255 0.199511 0.279839
1.543874 1.504319 0.150511 -0.285277 -0.2876562 0.9142598 97 95 95 255 0.200041 0.278032
2.405252 1.480399 0.150511 0.000835427 0.02366421 0.9997196 95 92 87 255 0.222569 0.296953
2.609084 1.474738 -0.005185 -0.04245255 -0.02320059 0.9988291 97 95 95 255 0.200041 0.278032
3.608514 2.445486 -0.027232 0.01568347 0.006561194 0.9998555 97 95 95 255 0.200121 0.27862
0.72002 0.429083 0.149815 -0.001408394 0.0008944691 0.9999986 120 120 119 255 0.197903 0.304397
4.469306 0.564119 0.149815 0.002520382 0.00261308 0.9999934 120 120 119 255 0.197903 0.304397
4.709031 2.155016 0.130768 0.003830626 0.01132777 0.9999285 120 120 119 255 0.197903 0.304397
0.138427 2.5 -4e-06 -0.002538874 0.1176857 0.9930477 97 95 95 255 0.199511 0.279839
3.937768 2.447031 0.127876 -0.8556851 -0.2138385 0.4712496 97 95 95 255 0.200041 0.278032
3.937768 1.076801 0.149815 -0.5593364 0.5701016 0.6017699 97 95 95 255 0.200041 0.278032
0.434808 4.299341 1.980187 0.03763001 -0.7166629 0.6964038 120 120 119 255 0.197903 0.304397
1.06223 4.87212 2.552966 0.009685016 -0.8950788 0.4458028 120 120 119 255 0.197903 0.304397
1.06223 4.852466 3.566104 -0.00737249 -0.999867 -0.01454673 120 120 119 255 0.197903 0.304397
0.290969 4.870306 2.730767 -0.006538315 -0.9999019 -0.01239259 120 120 119 255 0.197903 0.304397
0.895175 4.850181 4.019185 0.2787297 -0.893173 -0.3529187 97 95 95 255 0.200041 0.278032
0.354884 4.85018 4.619428 -0.003802363 -0.9999869 -0.00342415 120 120 119 255 0.197903 0.304397
1.217607 4.850181 3.986505 -7.636366e-08 -1 -1.631058e-06 120 120 119 255 0.197903 0.304397
3.937772 4.87212 2.552966 0 -0.9268564 0.3754162 120 120 119 255 0.197903 0.304397
4.709031 2.740068 0.420914 0.6257737 -0.5724597 0.5298087 97 95 95 255 0.200041 0.278032
2.081128 0.931736 0.149815 0.01439163 0.4111857 0.911438 97 95 95 255 0.200041 0.278032
2.856671 1.076801 0.149815 0 0 1 120 120 119 255 0.197903 0.304397
1.692296 1.076801 0.149815 0 0 1 120 120 119 255 0.197903 0.304397
1.150117 1.106296 0.149815 -0.004220868 0.00744564 0.9999634 120 120 119 255 0.197903 0.304397
4.531735 4.852747 4.290322 0.008464184 -0.9999381 -0.00722795 120 120 119 255 0.197903 0.304397
4.315045 4.85018 4.541894 0.002269247 -0.9999964 -0.001447378 120 120 119 255 0.197903 0.304397
4.78682 4.358997 1.858998 -0.004891312 -0.6977044 0.7163691 97 95 95 255 0.198292 0.279229
0.290969 3.279053 0.959897 0.01601623 -0.7013788 0.7126088 120 120 119 255 0.197903 0.304397
1.134984 3.307397 0.988244 -0.0009125349 -0.6934295 0.720524 120 120 119 255 0.197903 0.304397
3.475465 1.450679 0.150511 0.1258876 -0.37003 0.920451 97 95 95 255 0.200041 0.278032
2.783496 1.469894 0.150511 -0.3782993 -0.1652366 0.9108164 97 95 95 255 0.200041 0.278032
3.573098 2.180683 0.134333 0.2487418 0.1797692 0.9517409 97 95 95 255 0.200041 0.278032
1.22331 2.504612 -0.01384 -0.06104564 -0.3069519 0.9497652 97 95 95 255 0.200041 0.278032
1.449811 2.445486 0.128465 -0.5835049 -0.410935 0.7004673 97 95 95 255 0.200041 0.278032
3.55919 4.871531 2.554469 0.5805195 -0.7091792 0.4000775 97 95 95 255 0.200041 0.278032
1.439443 4.849483 3.692265 -0.2782987 -0.8966215 0.3444123 97 95 95 255 0.200041 0.278032
1.477631 4.219756 1.961777 -0.4399724 -0.6995069 0.5631292 97 95 95 255 0.200041 0.278032
1.412217 4.871531 2.554469 -0.5489671 -0.7726509 0.3188194 97 95 95 255 0.200041 0.278032
3.757665 4.36801 1.849546 0.2694413 -0.6759863 0.6858892 97 95 95 255 0.200041 0.278032
1.493058 3.68995 1.43218 -0.4801835 -0.5854363 0.6532137 97 95 95 255 0.200041 0.278032
3.588342 3.412906 1.130227 0.5855051 -0.5605162 0.5856667 97 95 95 255 0.200041 0.278032
1.48216 3.253223 0.970544 -0.6048004 -0.5671785 0.5590394 97 95 95 255 0.200041 0.278032
4.045552 4.136072 1.816918 -0.6415984 -0.5171677 0.5664708 97 95 95 255 0.200041 0.278032
4.570863 3.511295 1.19214 1.052897e-07 -0.707107 0.7071066 120 120 119 255 0.197903 0.304397
4.045552 4.136072 1.816918 1.151177e-07 -0.7071074 0.7071063 120 120 119 255 0.197903 0.304397
4.709035 4.87212 2.552966 0.8709284 -0.4353337 0.2279656 97 95 95 255 0.200041 0.278032
4.049649 4.395246 2.076091 -1.166436e-06 -0.7071068 0.7071067 120 120 119 255 0.197903 0.304397
4.049649 4.395246 2.076091 -0.5820175 -0.6105634 0.5370922 97 95 95 255 0.200041 0.278032
1.084004 2.704521 0.385367 0.705637 -0.5236924 0.4773077 97 95 95 255 0.200041 0.278032
1.084004 2.704521 0.385367 -1.815019e-06 -0.7071068 0.7071068 120 120 119 255 0.197903 0.304397
0.290969 2.607248 0.288093 -0.6824518 -0.511907 0.5217382 97 95 95 255 0.200041 0.278032
1.069802 2.331528 0.129766 -0.001195924 0.01628285 0.9998667 120 120 119 255 0.197903 0.304397
1.069802 2.331528 0.129766 0.7340693 0.04208429 0.6777692 97 95 95 255 0.200041 0.278032
1.543874 1.504319 0.150511 0.0006521035 0.02348281 0.999724 95 92 87 255 0.222569 0.296953
2.405252 1.480399 0.150511 0.3001415 -0.4088903 0.8618143 97 95 95 255 0.200041 0.278032
3.305541 2.366204 0.128465 0.5054781 -0.5002977 0.7029895 97 95 95 255 0.200121 0.27862
2.609084 1.474738 -0.005185 0.004477418 0.03673206 0.9993151 97 95 95 255 0.200121 0.27862
3.604165 2.654099 0.344482 0.4336627 -0.78361 0.4448505 97 95 95 255 0.199681 0.278126
3.305541 2.366204 0.128465 0.4336627 -0.78361 0.4448505 97 95 95 255 0.199681 0.278126
3.608514 2.445486 -0.027232 0.4336627 -0.78361 0.4448505 97 95 95 255 0.199681 0.278126
3.608514 2.445486 -0.027232 0.005340275 -0.2413927 0.9704129 97 95 95 255 0.200041 0.278032
3.573098 2.180683 0.134333 -0.5008383 0.5522037 0.6665074 97 95 95 255 0.200121 0.27862
1.761534 4.012035 1.730275 -0.2719676 -0.7125145 0.646805 97 95 95 255 0.200041 0.278032
3.554463 4.849483 3.65317 -0.0003708872 -0.9997986 -0.02006489 95 92 87 255 0.222569 0.296953
3.534539 4.250121 1.967435 -0.002341375 -0.6969196 0.7171455 95 92 87 255 0.222569 0.296953
4.595819 2.525927 0.127876 0.05530481 -0.4612828 0.8855279 120 120 119 255 0.197903 0.304397
0.290969 2.302388 0.129309 -0.02056018 0.5362846 0.8437868 97 95 95 255 0.199511 0.279839
3.937772 4.850181 3.94974 -0.570151 -0.5741187 -0.5876357 97 95 95 255 0.200041 0.278032
1.006584 4.071441 1.695547 0.5197063 -0.5885231 0.6193108 97 95 95 255 0.200041 0.278032
3.937768 3.482951 1.163796 -0.7864547 -0.4026513 0.4683598 97 95 95 255 0.200041 0.278032
0.407023 4.872121 2.552966 -1.347537e-06 -0.9258209 0.3779627 120 120 119 255 0.197903 0.304397
0.290969 4.713775 2.39462 -1.306987e-06 -0.7071068 0.7071068 120 120 119 255 0.197903 0.304397
0.482051 0.640756 0.147717 -0.007843602 0.006749501 0.9999465 120 120 119 255 0.197903 0.304397
4.709031 4.409331 2.090178 0.01618898 -0.9758342 0.2179121 97 95 95 255 0.198292 0.279229
4.630948 4.144266 1.825112 -0.01177831 -0.1475193 0.9889891 97 95 95 255 0.198292 0.279229
3.604165 2.654099 0.344482 0.184519 -0.7051188 0.6846607 95 92 87 255 0.222569 0.296953
4.630948 4.144266 1.825112 5.694799e-08 -0.7071074 0.7071062 120 120 119 255 0.197903 0.304397
4.709031 4.409331 2.090178 -2.332872e-06 -0.707106 0.7071075 120 120 119 255 0.197903 0.304397
0.290969 2.607248 0.288093 -1.067981e-06 -0.7071063 0.7071073 120 120 119 255 0.197903 0.304397
0.290969 2.302388 0.129309 -0.6978221 -0.0723527 0.7126075 97 95 95 255 0.200041 0.278032
2.405252 1.480399 0.150511 0.5146977 -0.5058856 0.6922183 97 95 95 255 0.200121 0.27862
2.783496 1.469894 0.150511 -0.5249673 0.596984 0.6066461 97 95 95 255 0.200121 0.27862
3 0 1 2 
3 3 5 6 
3 6 7 8 
3 10 12 13 
3 14 12 11 
3 16 13 17 
3 18 20 21 
3 19 23 20 
3 24 23 22 
3 26 25 24 
3 14 29 15 
3 12 30 31 
3 15 33 34 
3 35 36 37 
3 38 102 103 
3 104 40 41 
3 105 43 44 
3 45 46 47 
3 47 48 45 
3 49 51 40 
3 52 53 54 
3 106 54 107 
3 56 58 59 
3 60 62 58 
3 63 65 62 
3 64 67 65 
3 106 68 55 
3 25 47 46 
3 27 70 48 
3 108 66 109 
3 110 71 111 
3 112 63 61 
3 60 112 61 
3 23 69 36 
3 113 71 114 
3 72 57 115 
3 20 35 37 
3 33 116 39 
3 34 33 39 
3 32 31 73 
3 74 117 53 
3 74 76 75 
3 54 77 107 
3 103 118 38 
3 102 119 120 
3 121 122 57 
3 53 117 77 
3 78 79 80 
3 26 82 27 
3 83 18 21 
3 123 87 85 
3 67 88 89 
3 27 90 70 
3 66 124 125 
3 28 83 29 
3 91 123 85 
3 79 93 94 
3 81 17 82 
3 97 44 96 
3 52 126 127 
3 54 128 126 
3 129 98 130 
3 59 4 131 
3 58 132 4 
3 65 132 62 
3 65 133 134 
3 135 131 9 
3 89 136 67 
3 135 137 68 
3 89 130 138 
3 68 95 55 
3 29 50 116 
3 68 139 135 
3 140 141 51 
3 29 92 50 
3 86 21 142 
3 143 72 115 
3 144 59 135 
3 89 145 129 
3 124 146 125 
3 82 147 90 
3 13 32 73 
3 42 120 148 
3 149 76 129 
3 99 93 150 
3 52 98 76 
3 76 53 52 
3 151 52 100 
3 152 153 101 
3 154 155 156 
3 55 95 157 
3 128 55 157 
3 153 158 101 
3 100 52 127 
3 133 67 159 
3 67 136 159 
3 3 160 5 
3 161 3 8 
3 3 6 8 
3 10 11 12 
3 14 15 12 
3 16 10 13 
3 18 19 20 
3 19 22 23 
3 24 25 23 
3 26 27 25 
3 14 28 29 
3 32 13 31 
3 13 12 31 
3 30 12 34 
3 12 15 34 
3 41 103 104 
3 104 162 40 
3 105 163 43 
3 40 162 49 
3 49 140 51 
3 106 55 54 
3 56 164 58 
3 58 164 60 
3 60 61 62 
3 62 61 63 
3 63 64 65 
3 64 165 67 
3 106 166 68 
3 69 23 46 
3 23 25 46 
3 47 25 48 
3 25 27 48 
3 109 167 168 
3 168 108 109 
3 71 113 111 
3 111 167 109 
3 109 110 111 
3 35 20 36 
3 20 23 36 
3 114 57 122 
3 122 113 114 
3 72 121 57 
3 142 21 37 
3 21 20 37 
3 74 53 76 
3 54 53 77 
3 103 41 118 
3 120 169 102 
3 102 38 119 
3 80 161 8 
3 8 78 80 
3 26 81 82 
3 83 84 18 
3 123 170 87 
3 67 165 88 
3 27 82 90 
3 66 108 124 
3 28 84 83 
3 91 171 123 
3 172 80 94 
3 80 79 94 
3 81 16 17 
3 97 105 44 
3 52 54 126 
3 54 55 128 
3 129 76 98 
3 59 58 4 
3 58 62 132 
3 65 134 132 
3 65 67 133 
3 135 59 131 
3 89 138 136 
3 135 9 137 
3 89 129 130 
3 68 137 95 
3 33 15 116 
3 15 29 116 
3 68 166 139 
3 140 173 141 
3 29 83 92 
3 86 83 21 
3 143 174 72 
3 144 56 59 
3 89 88 145 
3 124 175 146 
3 82 17 147 
3 176 17 73 
3 17 13 73 
3 42 169 120 
3 149 75 76 
3 99 94 93 
3 52 151 98 
3 152 177 153 
3 153 178 158 
