ply
format ascii 1.0
comment INFO-3111 Flatenator generated
comment TextureFile Dungeons_Texture_01.png
element vertex 626
property float x
property float y
property float z
element face 771
property list uchar int vertex_indices
end_header
1.27082 5.02237 0.264546 
-0.009872 5.02023 0.261521 
0.066452 4.53976 0.26452 
1.52477 5.01966 0.238713 
1.36954 5.04423 0.263906 
1.38678 4.57599 0.24896 
2.21055 5.00619 0.26468 
1.22195 4.58586 0.262769 
2.19299 4.52682 0.264695 
1.04184 3.92172 0.264493 
0.124916 3.88582 0.26518 
0.736244 3.42963 0.265119 
3.93132 3.90864 0.196195 
3.94717 3.44178 0.264817 
4.25421 3.90985 0.266191 
5.02885 3.88767 0.264649 
5.01475 3.4067 0.265637 
3.88267 3.89799 0.263719 
3.90099 3.41783 0.265653 
3.05434 3.92256 0.264264 
3.04374 3.50269 0.264123 
-0.011139 3.87958 0.228688 
-0.007385 3.39994 0.26436 
1.06689 3.42788 0.202085 
3.03569 3.42808 0.203015 
5.02896 2.7855 0.264801 
4.56371 2.77758 0.266434 
4.88042 2.30514 0.262226 
3.99391 2.38638 0.245426 
5.02633 2.32215 0.234634 
4.964 1.68113 0.218845 
4.83363 1.66672 0.261311 
5.0265 1.18542 0.263744 
3.34721 1.07864 0.265652 
2.48914 1.10846 0.264565 
2.64475 0.626436 0.251381 
2.49389 0.672705 0.25705 
3.32101 0.586951 0.200008 
1.04794 0.563136 0.260098 
0.966377 0.595377 0.235928 
0.931518 0.098301 0.272266 
1.68823 4.47909 0.196416 
4.2979 3.99209 -0.056479 
3.41079 4.48099 -0.023086 
3.43868 4.03019 -0.031081 
3.93132 3.90864 -0.098475 
3.34912 3.97657 0.196748 
3.05127 3.94797 0.196118 
-0.000885 2.80151 0.268295 
0.004066 2.36512 0.247765 
1.01489 2.76656 0.245419 
3.95417 2.80055 0.20232 
3.87749 2.80164 0.244083 
3.69886 2.35539 0.240002 
3.92046 2.37184 0.214417 
3.95821 1.60204 0.246883 
2.40428 0.625927 -0.031345 
2.42048 1.09003 -0.044994 
1.67838 0.650787 -0.039089 
2.19104 0.018763 0.241158 
5.03867 5.00611 0.247018 
3.97113 5.04736 0.247457 
4.57915 4.54283 0.24727 
3.42423 4.53971 0.240155 
3.9072 5.02198 0.247605 
2.71865 5.02198 0.247605 
2.81338 4.60178 0.224725 
3.89592 4.5527 0.22947 
5.02129 4.52707 0.247457 
2.27524 5.01712 0.241902 
2.74446 4.56478 0.200631 
2.26686 4.54074 0.247727 
4.26783 4.54197 0.195748 
3.38781 4.50198 0.196488 
2.47154 4.4925 0.196206 
3.38781 4.50198 -0.098182 
4.23727 4.45645 -0.053954 
1.30465 4.50198 0.195096 
0.577606 4.48832 0.247727 
1.64317 4.4626 0.247727 
0.488914 4.47203 0.247476 
-0.016335 4.47433 0.213883 
0.443642 3.99649 0.238694 
1.28143 3.99073 0.247388 
1.68816 3.97671 0.196584 
4.95023 4.46991 0.246667 
4.34972 4.47296 0.246549 
4.94974 3.99073 0.247727 
2.43024 4.47006 0.246808 
1.70316 4.47006 0.246808 
2.11227 3.98667 0.232213 
3.34543 4.4709 0.245568 
2.4847 4.47047 0.247792 
2.76018 4.02711 0.240243 
3.30487 3.98974 0.248036 
1.70393 3.99076 0.247727 
2.42764 3.98455 0.204526 
4.2979 3.99209 0.238195 
-0.025597 4.03266 0.217477 
0.552704 4.00101 0.193456 
4.91713 3.90677 0.202813 
1.38432 3.90686 -0.047267 
1.127 3.9187 -0.092128 
1.13434 3.58111 -0.046943 
1.67477 3.43645 -0.065646 
1.71541 3.52008 -0.053203 
3.00063 3.8931 0.252603 
2.45778 3.92126 0.24006 
2.97543 3.41088 0.248185 
5.03345 3.36407 -0.125956 
2.25478 3.45642 -0.06055 
1.06689 3.42788 -0.092586 
3.3766 3.36907 0.188359 
1.64126 3.41118 0.19291 
1.23074 3.3185 0.241761 
1.64367 2.86836 0.246754 
0.508972 3.36068 0.196637 
0.578392 2.83456 0.247726 
4.35568 3.33401 0.244309 
4.9502 2.85797 0.247078 
4.94987 3.33625 0.247727 
4.28824 3.34417 -0.046985 
3.39235 3.31131 -0.04716 
4.29297 2.86243 -0.046993 
1.70344 3.33659 0.247632 
1.7031 2.85787 0.246628 
2.42999 3.33662 0.247666 
-0.076233 3.33624 0.247727 
0.505417 2.85799 0.24707 
0.505081 3.33624 0.247727 
4.34121 2.83496 -0.098446 
2.48972 2.84011 0.233562 
4.34121 2.83496 0.196228 
3.95417 2.80055 -0.09235 
3.40878 2.82958 -0.046944 
0.557198 2.82373 0.196056 
2.2016 2.78549 0.246857 
1.13673 2.78495 0.245083 
2.13378 2.30736 0.241276 
1.29184 2.31083 0.247852 
3.03119 2.7736 0.225445 
2.25854 2.77982 0.24712 
2.94474 2.28387 0.24712 
2.28185 2.31721 0.242428 
2.22161 2.30902 0.195255 
-0.057358 2.30271 -0.10376 
1.01311 2.29149 0.229645 
1.03731 2.26835 0.196152 
4.99271 2.22654 0.242233 
4.35771 2.26727 0.194191 
4.35671 2.0466 0.244846 
0.461182 2.19209 0.23698 
-0.072891 2.2071 0.237534 
0.074455 1.73496 0.245171 
2.42923 2.22652 0.245819 
1.70344 2.16134 0.247726 
1.70338 1.75109 0.24712 
3.31831 2.22955 0.24683 
2.49136 2.22076 0.240822 
3.34534 1.74705 0.245445 
4.78621 1.75322 0.2472 
0.507858 1.75312 0.247726 
3.40129 2.20955 0.269463 
3.41003 1.67977 0.195667 
3.40398 1.7324 0.247272 
2.48541 1.77735 0.247726 
3.95128 1.68334 0.19355 
1.05245 1.66121 0.250313 
0.000526 1.72196 0.210632 
0.985909 1.22973 0.246174 
2.25574 1.67263 0.196228 
1.13313 1.66167 0.24765 
2.08581 1.22917 0.244469 
3.01208 1.7292 -0.105488 
3.06027 1.21295 -0.055958 
3.10165 1.66119 -0.046944 
3.8812 1.66377 -0.051815 
-0.016472 1.18397 0.249298 
5.0522 1.70898 0.072178 
2.23253 1.24568 0.197628 
3.84084 1.18489 -0.047638 
2.99313 1.64827 -0.048054 
2.26641 1.66171 -0.047482 
2.98526 1.18442 -0.048355 
3.95291 1.15691 -0.098083 
2.23253 1.24568 -0.097042 
2.32371 1.24071 -0.051441 
1.1839 1.22939 0.2425 
3.95291 1.15691 0.19659 
2.48376 1.13609 0.194431 
1.69548 1.13268 -0.054035 
0.567513 1.10474 0.192741 
-0.055916 1.08394 0.247646 
0.476166 0.775342 0.240978 
0.570038 0.602167 0.247387 
1.17124 1.08419 0.247173 
1.69548 1.13268 0.240635 
1.63876 0.602279 0.247395 
4.99474 1.07772 0.242111 
4.30385 1.07689 0.247726 
4.99146 0.603328 0.247726 
4.3526 0.602686 0.247726 
-0.057419 0.60062 0.242508 
2.46189 0.579445 0.192699 
0.535469 0.716918 0.183105 
0.420776 0.542063 0.190258 
3.75914 0.590246 0.196495 
3.40691 1.10237 0.247471 
3.39201 0.624706 0.247463 
1.64014 0.577022 -0.098446 
3.1658 0.522965 0.24482 
2.23087 0.518934 0.196396 
3.16505 0.0412 0.247726 
4.16211 0.515972 0.247726 
3.22785 0.540333 0.24538 
3.21623 0.054567 0.247543 
4.30414 0.519514 0.247219 
5.02887 0.041577 0.247726 
5.02942 0.524238 0.239731 
-0.022522 0.494145 0.2477 
0.866195 0.055422 0.247463 
2.267 0.04121 0.247726 
4.24996 0.510454 0.192654 
4.21666 0.032934 0.247597 
-0.011795 -1.9e-05 0.185677 
0.208557 0.022662 0.247093 
2.21889 5.00577 0.195066 
3.34912 3.97657 -0.097922 
2.2791 3.95534 0.196347 
2.25478 3.45642 0.23412 
3.30649 2.90691 0.239082 
3.39235 3.31131 0.24751 
3.40254 2.81623 0.202366 
1.71696 2.79634 0.20015 
0.024094 2.23794 0.193851 
2.95935 2.26525 0.205387 
1.63631 2.25333 0.197742 
5.00933 2.25402 0.131992 
1.03731 2.26835 -0.098518 
0.519066 2.28952 -0.103714 
0.567261 2.10307 -0.054348 
1.63094 2.24601 -0.060352 
4.29872 2.2193 0.254837 
4.31354 1.73958 0.195572 
0.578125 1.72969 -0.053741 
1.6994 1.73904 -0.092552 
3.01208 1.7292 0.189182 
0.603249 1.67964 0.195492 
3.0414 1.1543 -0.102043 
3.95128 1.68334 -0.10112 
2.26641 1.66171 0.247192 
1.13581 1.17979 0.202652 
1.28244 1.1189 0.18856 
2.46189 0.579445 -0.101974 
1.34448 5.09169 0.048928 
1.35399 4.99156 0.203095 
2.1949 4.50208 0.196118 
-0.016548 3.38171 0.170136 
3.9315 3.42874 0.196229 
3.9315 3.42874 -0.098445 
3.12471 3.31322 0.243428 
1.07538 2.79299 0.193901 
2.25536 2.83461 0.196663 
0.519066 2.28952 0.19096 
3.39045 2.25139 0.190994 
1.6994 1.73904 0.202118 
3.41003 1.67977 -0.099007 
1.13541 1.67904 0.195202 
3.16165 0.592364 0.196396 
3.17873 -0.002116 0.040886 
3.1979 0.013327 0.064041 
4.25878 -0.002116 0.064095 
4.26783 4.54197 -0.098922 
0.206985 3.91523 0.193498 
2.47126 2.22079 0.196583 
3.89099 2.23866 0.201836 
2.48376 1.13609 -0.100239 
3.36423 1.09892 0.196228 
3.0414 1.1543 0.192627 
1.64014 0.577022 0.196228 
0.570015 4.51296 0.196538 
1.127 3.9187 0.202542 
-0.09819 2.81247 0.06403 
2.19372 -0.03284 0.04921 
2.22963 5.04808 0.080144 
4.95647 4.49207 0.164014 
4.96426 3.94478 -0.114623 
4.30513 3.35038 0.195272 
4.95837 3.36471 0.133252 
3.40254 2.81623 -0.092304 
0.578125 1.72969 0.240929 
1.63094 2.24601 0.234318 
4.91708 1.1705 0.202267 
2.48376 1.13609 -0.100239 
0.916771 0.078195 0.201782 
3.17096 0.077574 0.2029 
-0.05397 3.94744 -0.113337 
1.64126 3.41118 -0.101764 
4.30513 3.35038 -0.099399 
2.93667 3.32145 0.23631 
1.13541 1.67904 -0.099472 
5.01515 1.14148 -0.036957 
2.19595 0.067709 0.194103 
0.88713 0.013581 0.071541 
2.2791 3.95534 -0.098323 
1.68816 3.97671 -0.09809 
3.3766 3.36907 -0.106315 
-0.117249 2.24926 -0.11335 
-0.09304 1.68411 -0.113506 
0.603249 1.67964 -0.099178 
5.05014 0.564755 0.064056 
5.06024 5.04934 0.064092 
2.73253 5.06304 0.07224 
1.3448 5.09165 -0.125956 
-0.096878 2.81319 -0.114578 
5.0484 2.82612 -0.125957 
3.95142 5.03814 -0.113749 
2.24033 5.00984 0.05486 
5.05014 2.261 -0.121239 
-0.010147 1.12242 -0.120781 
4.96588 1.14112 -0.00618 
-0.035927 5.06415 0.073072 
-0.007523 0.554514 -0.112846 
2.75824 5.06363 0.064057 
-0.05397 4.51278 -0.113143 
2.184 0.030206 -0.149426 
4.96629 4.4886 -0.114409 
5.04942 0.564226 -0.113918 
5.04854 -0.002116 -0.113121 
-0.095009 3.37952 -0.113673 
-0.019211 1.7184 -0.115288 
5.0084 1.12495 -0.036583 
-0.077354 1.12522 -0.113533 
0.701057 -0.001638 -0.112972 
5.05028 3.93046 -0.12115 
4.25917 -0.002116 -0.113121 
-0.023865 -0.028259 -0.113102 
2.25296 5.06363 -0.113776 
2.17986 -0.041819 -0.144707 
2.73023 5.03505 -0.151488 
5.05989 1.70665 -0.127403 
-0.034164 5.0629 -0.125956 
5.06104 1.14148 -0.126404 
3.17862 -0.002116 -0.113346 
5.06021 5.04883 -0.113109 
5.00158 1.71683 -0.113556 
-0.028702 0.063077 -0.113453 
0.017387 3.47595 -0.154407 
4.66853 -0.001903 -0.112812 
3.75974 5.03515 -0.151442 
4.95056 2.83368 -0.12048 
4.95227 3.32677 -0.151565 
-0.010315 2.88119 -0.151577 
0.886894 0.030104 -0.112972 
4.9522 5.03491 -0.150962 
0.002716 2.20905 -0.154408 
4.94258 2.6378 -0.154408 
4.95211 0.961659 -0.151333 
4.36545 0.048459 -0.120895 
4.47095 0.040834 -0.11483 
4.28008 0.040834 -0.114788 
4.55695 0.048448 -0.121078 
4.31783 0.064645 -0.154408 
4.95225 0.045659 -0.15147 
4.53285 5.03521 -0.15161 
-0.010239 0.737125 -0.151592 
4.19486 0.046127 -0.151604 
0.521729 5.02616 -0.1543 
4.9521 4.11914 -0.151332 
0.002708 3.22271 -0.154407 
-0.010315 3.11507 -0.151576 
0.003082 1.39018 -0.154408 
2.48132 2.80408 -0.157227 
3.90551 4.53869 -0.154407 
1.62717 2.31048 -0.154408 
4.41027 4.71415 -0.154407 
4.59345 4.70355 -0.154407 
4.5165 4.65561 -0.154407 
4.50652 4.64557 -0.154407 
4.51642 4.64504 -0.154407 
4.48662 4.59719 -0.154407 
3.26685 3.16373 -0.150901 
0.002716 2.98879 -0.154408 
3.46947 2.62828 -0.154408 
0.531883 2.25654 -0.154381 
1.95639 0.328759 -0.154408 
1.34999 1.89351 -0.152615 
0.893761 1.6944 -0.15139 
3.93132 3.90864 0.196195 
3.88267 3.89799 0.263719 
3.90099 3.41783 0.265653 
3.04374 3.50269 0.264123 
2.19299 4.52682 0.264695 
1.38678 4.57599 0.24896 
4.2979 3.99209 -0.056479 
3.43868 4.03019 -0.031081 
3.05434 3.92256 0.264264 
1.04794 0.563136 0.260098 
0.931518 0.098301 0.272266 
2.71865 5.02198 0.247605 
4.57915 4.54283 0.24727 
3.89592 4.5527 0.22947 
3.42423 4.53971 0.240155 
2.74446 4.56478 0.200631 
2.26686 4.54074 0.247727 
3.41079 4.48099 -0.023086 
1.64317 4.4626 0.247727 
0.577606 4.48832 0.247727 
4.23727 4.45645 -0.053954 
4.25421 3.90985 0.266191 
5.02885 3.88767 0.264649 
5.01475 3.4067 0.265637 
1.71541 3.52008 -0.053203 
1.67477 3.43645 -0.065646 
1.13434 3.58111 -0.046943 
-0.007385 3.39994 0.26436 
1.06689 3.42788 0.202085 
0.736244 3.42963 0.265119 
-0.000885 2.80151 0.268295 
4.28824 3.34417 -0.046985 
4.29297 2.86243 -0.046993 
-0.000885 2.80151 0.268295 
1.01489 2.76656 0.245419 
4.9502 2.85797 0.247078 
4.56371 2.77758 0.266434 
5.02896 2.7855 0.264801 
2.25854 2.77982 0.24712 
0.004066 2.36512 0.247765 
2.28185 2.31721 0.242428 
2.2016 2.78549 0.246857 
2.13378 2.30736 0.241276 
3.40129 2.20955 0.269463 
3.40398 1.7324 0.247272 
4.964 1.68113 0.218845 
3.10165 1.66119 -0.046944 
3.06027 1.21295 -0.055958 
4.964 1.68113 0.218845 
5.0265 1.18542 0.263744 
2.25574 1.67263 0.196228 
2.08581 1.22917 0.244469 
3.8812 1.66377 -0.051815 
3.84084 1.18489 -0.047638 
2.26641 1.66171 -0.047482 
2.32371 1.24071 -0.051441 
2.48914 1.10846 0.264565 
3.34721 1.07864 0.265652 
0.966377 0.595377 0.235928 
2.49389 0.672705 0.25705 
0.476166 0.775342 0.240978 
0.420776 0.542063 0.190258 
4.30385 1.07689 0.247726 
4.3526 0.602686 0.247726 
2.40428 0.625927 -0.031345 
1.67838 0.650787 -0.039089 
4.16211 0.515972 0.247726 
4.21666 0.032934 0.247597 
-0.022522 0.494145 0.2477 
4.24996 0.510454 0.192654 
0.208557 0.022662 0.247093 
2.21055 5.00619 0.26468 
2.71865 5.02198 0.247605 
2.81338 4.60178 0.224725 
0.488914 4.47203 0.247476 
0.443642 3.99649 0.238694 
0.552704 4.00101 0.193456 
1.70316 4.47006 0.246808 
1.70393 3.99076 0.247727 
3.00063 3.8931 0.252603 
2.42764 3.98455 0.204526 
2.45778 3.92126 0.24006 
3.39235 3.31131 0.24751 
3.30649 2.90691 0.239082 
2.48972 2.84011 0.233562 
1.13673 2.78495 0.245083 
3.03119 2.7736 0.225445 
1.01311 2.29149 0.229645 
1.03731 2.26835 0.196152 
1.29184 2.31083 0.247852 
4.35771 2.26727 0.194191 
4.88042 2.30514 0.262226 
3.99391 2.38638 0.245426 
2.95935 2.26525 0.205387 
2.49136 2.22076 0.240822 
3.31831 2.22955 0.24683 
1.63094 2.24601 -0.060352 
0.567261 2.10307 -0.054348 
3.34534 1.74705 0.245445 
2.48541 1.77735 0.247726 
0.000526 1.72196 0.210632 
1.05245 1.66121 0.250313 
2.99313 1.64827 -0.048054 
0.985909 1.22973 0.246174 
0.567513 1.10474 0.192741 
-0.016472 1.18397 0.249298 
1.17124 1.08419 0.247173 
2.42048 1.09003 -0.044994 
2.23087 0.518934 0.196396 
3.1658 0.522965 0.24482 
1.52477 5.01966 0.238713 
1.36954 5.04423 0.263906 
2.43024 4.47006 0.246808 
2.4847 4.47047 0.247792 
3.34543 4.4709 0.245568 
-0.011139 3.87958 0.228688 
-0.076233 3.33624 0.247727 
0.505081 3.33624 0.247727 
3.39235 3.31131 -0.04716 
3.03119 2.7736 0.225445 
2.94474 2.28387 0.24712 
5.02633 2.32215 0.234634 
1.70344 2.16134 0.247726 
2.42923 2.22652 0.245819 
-0.072891 2.2071 0.237534 
0.461182 2.19209 0.23698 
0.578125 1.72969 -0.053741 
0.507858 1.75312 0.247726 
0.074455 1.73496 0.245171 
1.70338 1.75109 0.24712 
1.13313 1.66167 0.24765 
2.98526 1.18442 -0.048355 
3.95291 1.15691 0.19659 
3.40691 1.10237 0.247471 
4.30385 1.07689 0.247726 
3.32101 0.586951 0.200008 
3.39201 0.624706 0.247463 
1.69548 1.13268 -0.054035 
2.64475 0.626436 0.251381 
3.75914 0.590246 0.196495 
2.23087 0.518934 0.196396 
3.22785 0.540333 0.24538 
3.21623 0.054567 0.247543 
3.16505 0.0412 0.247726 
2.267 0.04121 0.247726 
5.02887 0.041577 0.247726 
-0.009872 5.02023 0.261521 
-0.016335 4.47433 0.213883 
0.066452 4.53976 0.26452 
1.22195 4.58586 0.262769 
3.30487 3.98974 0.248036 
1.68816 3.97671 0.196584 
-0.025597 4.03266 0.217477 
2.76018 4.02711 0.240243 
2.97543 3.41088 0.248185 
2.25478 3.45642 0.23412 
0.508972 3.36068 0.196637 
0.578392 2.83456 0.247726 
3.69886 2.35539 0.240002 
4.29872 2.2193 0.254837 
4.35671 2.0466 0.244846 
4.31354 1.73958 0.195572 
4.78621 1.75322 0.2472 
3.95128 1.68334 0.19355 
3.95821 1.60204 0.246883 
4.83363 1.66672 0.261311 
1.1839 1.22939 0.2425 
1.69548 1.13268 0.240635 
1.63876 0.602279 0.247395 
2.27524 5.01712 0.241902 
1.28143 3.99073 0.247388 
2.11227 3.98667 0.232213 
2.2791 3.95534 0.196347 
1.64367 2.86836 0.246754 
0.570038 0.602167 0.247387 
2.19104 0.018763 0.241158 
1.27082 5.02237 0.264546 
4.34972 4.47296 0.246549 
4.95023 4.46991 0.246667 
4.94974 3.99073 0.247727 
4.2979 3.99209 0.238195 
0.124916 3.88582 0.26518 
1.04184 3.92172 0.264493 
3.94717 3.44178 0.264817 
4.94987 3.33625 0.247727 
4.35568 3.33401 0.244309 
1.23074 3.3185 0.241761 
3.12471 3.31322 0.243428 
0.505417 2.85799 0.24707 
3.40878 2.82958 -0.046944 
3.95417 2.80055 -0.09235 
3.87749 2.80164 0.244083 
3.95417 2.80055 0.20232 
3.92046 2.37184 0.214417 
4.99271 2.22654 0.242233 
4.99146 0.603328 0.247726 
4.30414 0.519514 0.247219 
5.02942 0.524238 0.239731 
0.866195 0.055422 0.247463 
5.02129 4.52707 0.247457 
2.25478 3.45642 -0.06055 
1.64126 3.41118 0.19291 
4.34121 2.83496 0.196228 
1.70344 3.33659 0.247632 
1.7031 2.85787 0.246628 
1.6994 1.73904 -0.092552 
2.23253 1.24568 -0.097042 
2.48376 1.13609 -0.100239 
2.32371 1.24071 -0.051441 
4.3526 0.602686 0.247726 
3.97113 5.04736 0.247457 
3.9072 5.02198 0.247605 
1.38432 3.90686 -0.047267 
1.127 3.9187 -0.092128 
2.2791 3.95534 -0.098323 
2.42999 3.33662 0.247666 
-0.055916 1.08394 0.247646 
4.99474 1.07772 0.242111 
-0.057419 0.60062 0.242508 
5.03867 5.00611 0.247018 
-0.028702 0.063077 -0.113453 
-0.010239 0.737125 -0.151592 
0.701057 -0.001638 -0.112972 
2.93667 3.32145 0.23631 
3.38781 4.50198 0.196488 
3.34912 3.97657 -0.097922 
3.38781 4.50198 -0.098182 
3.01208 1.7292 0.189182 
3.41003 1.67977 -0.099007 
3.41003 1.67977 0.195667 
2.42048 1.09003 -0.044994 
2.08581 1.22917 0.244469 
1.69548 1.13268 0.240635 
1.69548 1.13268 -0.054035 
3.34912 3.97657 0.196748 
3.01208 1.7292 -0.105488 
2.48376 1.13609 -0.100239 
2.23253 1.24568 0.197628 
3 0 1 2
3 3 4 5
3 3 5 6
3 0 2 7
3 6 5 8
3 9 10 11
3 12 13 14
3 15 14 16
3 388 17 18
3 389 19 20
3 14 13 16
3 21 22 10
3 389 20 390
3 9 11 23
3 18 391 24
3 10 22 11
3 25 26 27
3 27 26 28
3 25 27 29
3 30 31 32
3 33 34 35
3 35 34 36
3 37 33 35
3 38 39 40
3 41 392 393
3 42 43 44
3 394 395 45
3 46 396 17
3 396 47 391
3 48 49 50
3 26 51 28
3 52 53 54
3 31 55 32
3 56 57 58
3 397 398 59
3 60 61 62
3 63 64 65
3 65 66 63
3 61 67 62
3 60 62 68
3 64 63 67
3 69 70 399
3 70 69 71
3 400 401 72
3 402 73 401
3 74 403 404
3 75 405 76
3 77 78 79
3 80 81 82
3 406 407 83
3 84 406 83
3 85 86 87
3 408 43 42
3 88 89 90
3 91 92 93
3 91 93 94
3 89 95 90
3 88 90 96
3 87 86 97
3 92 96 93
3 82 81 98
3 83 407 99
3 100 409 410
3 101 102 103
3 101 103 104
3 105 101 104
3 106 107 108
3 410 411 109
3 110 412 413
3 414 111 413
3 18 24 112
3 415 416 417
3 113 114 115
3 114 116 117
3 118 119 120
3 115 114 117
3 121 122 123
3 124 125 126
3 127 418 128
3 129 127 128
3 130 419 420
3 126 125 131
3 118 132 119
3 123 122 133
3 133 122 134
3 421 422 135
3 423 424 425
3 136 137 138
3 137 139 138
3 140 141 142
3 143 426 144
3 421 145 427
3 142 141 428
3 144 429 430
3 49 146 50
3 139 137 147
3 148 149 150
3 151 152 153
3 154 155 156
3 157 158 159
3 148 150 160
3 151 153 161
3 162 163 164
3 158 165 159
3 431 432 166
3 148 160 433
3 154 156 165
3 167 168 169
3 170 171 172
3 173 174 175
3 176 434 435
3 168 177 169
3 436 437 178
3 438 439 179
3 180 176 435
3 181 182 183
3 184 440 441
3 442 185 186
3 441 174 184
3 182 443 183
3 172 171 187
3 32 55 188
3 444 445 189
3 57 190 58
3 191 192 193
3 191 194 195
3 196 195 197
3 198 199 200
3 200 199 201
3 195 194 446
3 193 192 202
3 197 195 446
3 447 444 203
3 204 448 205
3 206 207 208
3 193 202 449
3 450 207 451
3 452 453 209
3 207 206 451
3 210 211 212
3 213 214 215
3 216 217 218
3 446 219 220
3 211 221 212
3 222 454 223
3 213 215 455
3 456 224 225
3 216 457 455
3 216 455 217
3 220 219 458
3 226 459 392
3 460 403 461
3 73 402 461
3 395 405 227
3 462 463 464
3 465 41 466
3 467 468 469
3 228 229 107
3 108 107 229
3 230 231 131
3 470 471 232
3 471 472 232
3 233 473 429
3 52 474 53
3 422 475 476
3 145 234 427
3 474 235 53
3 236 477 476
3 236 430 477
3 478 479 480
3 478 237 479
3 481 482 483
3 238 239 240
3 238 240 241
3 242 431 243
3 484 485 244
3 484 244 245
3 243 431 166
3 486 487 246
3 247 488 489
3 442 490 173
3 174 173 248
3 249 440 184
3 179 250 438
3 251 489 491
3 492 491 493
3 252 251 494
3 495 452 253
3 496 497 203
3 498 254 499
3 499 255 77
3 256 465 500
3 73 74 501
3 73 501 502
3 47 468 467
3 388 46 17
3 415 503 257
3 18 112 258
3 257 504 505
3 259 506 419
3 231 260 131
3 261 473 233
3 472 426 507
3 426 262 144
3 263 475 427
3 508 143 481
3 479 237 509
3 236 510 511
3 512 513 234
3 264 483 486
3 240 239 514
3 263 513 515
3 516 512 488
3 510 265 517
3 438 487 517
3 265 518 438
3 440 266 175
3 249 266 440
3 173 490 248
3 518 267 251
3 248 490 519
3 251 492 494
3 520 521 522
3 521 523 524
3 525 209 453
3 526 447 203
3 203 268 526
3 205 456 39
3 222 527 454
3 528 397 59
3 529 268 530
3 269 531 532
3 270 223 530
3 271 533 223
3 534 535 536
3 499 77 393
3 537 77 255
3 272 76 394
3 46 502 538
3 41 539 466
3 463 540 273
3 538 541 47
3 467 542 47
3 543 24 542
3 416 415 544
3 261 545 135
3 263 476 475
3 264 546 481
3 481 274 482
3 264 481 483
3 275 162 547
3 548 549 550
3 549 436 550
3 551 552 553
3 552 551 520
3 518 251 554
3 276 519 186
3 277 278 445
3 448 204 492
3 279 555 556
3 279 39 38
3 523 268 529
3 404 557 256
3 256 392 41
3 78 280 464
3 405 75 227
3 281 539 558
3 539 559 466
3 468 560 469
3 504 282 421
3 561 545 233
3 422 261 135
3 262 426 472
3 261 422 476
3 491 492 251
3 562 204 205
3 283 563 40
3 498 459 284
3 284 459 226
3 564 537 255
3 461 403 73
3 535 280 536
3 280 537 536
3 72 565 566
3 79 539 41
3 74 500 468
3 501 74 468
3 285 567 286
3 464 281 558
3 395 227 45
3 47 46 538
3 568 100 567
3 273 569 570
3 281 273 570
3 273 503 569
3 391 47 24
3 388 18 258
3 411 571 258
3 544 415 257
3 287 288 411
3 572 287 573
3 544 574 416
3 575 470 112
3 544 505 576
3 506 289 577
3 289 578 577
3 232 507 579
3 579 580 232
3 580 581 480
3 261 476 473
3 581 580 579
3 234 263 427
3 581 478 480
3 582 237 478
3 275 264 162
3 482 274 487
3 274 511 487
3 264 163 162
3 478 547 549
3 263 247 290
3 236 291 265
3 510 236 265
3 248 184 174
3 520 292 437
3 445 278 189
3 555 252 494
3 444 189 203
3 562 492 204
3 523 277 445
3 253 293 495
3 209 253 452
3 39 562 205
3 556 39 279
3 268 523 526
3 39 294 40
3 279 38 496
3 527 523 529
3 454 527 529
3 583 584 585
3 39 586 294
3 531 295 497
3 268 295 530
3 499 254 255
3 226 392 256
3 77 41 393
3 256 74 404
3 72 285 400
3 587 400 285
3 280 78 77
3 272 75 76
3 280 535 462
3 256 41 465
3 74 256 500
3 285 72 566
3 464 280 462
3 565 72 568
3 46 47 396
3 409 100 388
3 101 105 588
3 273 296 503
3 571 388 258
3 24 47 542
3 281 570 416
3 111 297 413
3 287 411 258
3 544 257 505
3 589 416 574
3 298 259 419
3 575 112 24
3 299 575 24
3 298 419 130
3 287 590 573
3 591 233 592
3 544 576 135
3 261 233 545
3 233 262 592
3 262 472 592
3 578 130 420
3 545 544 135
3 481 507 508
3 262 429 144
3 264 581 546
3 236 144 430
3 274 236 511
3 513 263 234
3 478 549 548
3 300 593 514
3 265 438 517
3 488 515 516
3 267 247 489
3 265 267 518
3 246 438 250
3 594 595 596
3 292 301 437
3 520 277 521
3 521 277 523
3 523 527 524
3 268 203 497
3 597 222 584
3 583 597 584
3 302 496 563
3 225 303 586
3 598 599 401
3 557 226 256
3 537 280 77
3 403 74 73
3 73 72 401
3 79 41 77
3 502 46 73
3 285 566 567
3 463 273 464
3 559 539 560
3 468 559 560
3 541 468 47
3 281 464 273
3 304 305 600
3 568 388 100
3 601 600 305
3 101 588 602
3 414 601 111
3 413 297 110
3 24 543 603
3 543 589 591
3 259 306 506
3 543 591 603
3 287 572 288
3 24 603 299
3 589 561 233
3 591 589 233
3 576 421 135
3 423 590 424
3 590 580 424
3 429 262 233
3 232 472 507
3 143 144 274
3 481 143 274
3 581 264 275
3 236 476 291
3 478 581 275
3 236 274 144
3 547 478 275
3 264 486 163
3 247 263 515
3 512 307 308
3 178 582 436
3 551 164 163
3 436 549 553
3 515 488 247
3 487 438 246
3 486 246 163
3 514 309 300
3 549 551 553
3 175 266 173
3 489 251 267
3 554 251 252
3 554 252 555
3 439 554 555
3 519 276 248
3 520 278 277
3 292 520 522
3 492 493 604
3 522 605 292
3 597 527 222
3 606 456 205
3 203 279 496
3 583 585 310
3 496 302 532
3 268 497 295
3 512 308 488
3 302 563 283
3 311 598 607
3 286 567 100
3 288 572 423
3 312 557 460
3 313 564 255
3 607 587 311
3 282 314 421
3 530 295 270
3 315 423 425
3 599 598 316
3 237 582 178
3 178 437 301
3 310 585 533
3 317 226 557
3 503 296 257
3 318 425 509
3 237 318 509
3 234 307 512
3 535 296 540
3 421 314 145
3 493 319 604
3 320 292 605
3 605 583 310
3 273 540 296
3 303 294 586
3 564 321 534
3 315 425 318
3 488 319 493
3 606 604 322
3 294 283 40
3 323 460 599
3 288 109 411
3 606 322 456
3 294 303 283
3 284 254 498
3 296 535 324
3 410 286 100
3 302 325 532
3 295 531 269
3 224 303 225
3 325 269 532
3 587 285 326
3 313 321 564
3 534 321 535
3 316 598 311
3 284 226 317
3 605 310 327
3 328 310 533
3 271 328 533
3 329 504 257
3 504 314 282
3 488 330 319
3 327 331 605
3 604 332 322
3 333 303 224
3 254 313 255
3 308 330 488
3 331 320 605
3 334 410 109
3 320 301 292
3 223 335 271
3 336 333 224
3 335 223 270
3 334 286 410
3 557 337 317
3 303 338 283
3 339 312 460
3 340 178 301
3 535 321 341
3 340 301 342
3 302 283 338
3 145 307 234
3 343 335 270
3 313 254 284
3 337 557 312
3 344 311 587
3 301 331 342
3 343 269 325
3 311 344 316
3 317 337 284
3 341 324 535
3 345 237 178
3 456 346 224
3 224 346 336
3 323 339 460
3 296 347 257
3 340 345 178
3 295 343 270
3 329 257 347
3 332 604 319
3 348 328 271
3 326 285 286
3 348 271 335
3 337 313 284
3 349 339 323
3 349 323 599
3 504 329 314
3 350 288 423
3 295 269 343
3 339 337 312
3 349 599 316
3 351 288 350
3 145 314 352
3 327 310 328
3 344 587 326
3 288 351 109
3 315 350 423
3 318 237 345
3 342 331 327
3 456 322 346
3 325 302 338
3 353 303 333
3 353 338 303
3 313 341 321
3 354 344 326
3 296 324 347
3 314 329 352
3 352 355 145
3 356 318 345
3 307 145 330
3 307 330 308
3 342 327 357
3 332 319 322
3 357 327 328
3 358 359 360
3 358 361 359
3 335 343 362
3 333 336 346
3 360 348 335
3 360 359 348
3 359 361 348
3 361 328 348
3 361 363 328
3 344 364 316
3 344 354 364
3 145 355 330
3 319 365 322
3 322 365 346
3 363 357 328
3 366 360 335
3 366 358 360
3 366 361 358
3 367 341 313
3 354 326 368
3 286 334 351
3 351 334 109
3 347 369 329
3 329 369 370
3 350 315 356
3 356 315 318
3 345 340 342
3 342 357 345
3 366 363 361
3 368 326 286
3 368 286 351
3 329 370 352
3 351 350 356
3 366 335 362
3 364 349 316
3 330 371 319
3 313 372 367
3 313 337 372
3 339 349 373
3 367 374 347
3 367 372 374
3 337 339 372
3 349 375 373
3 349 364 375
3 364 376 375
3 364 368 376
3 364 354 368
3 341 367 324
3 339 373 372
3 324 367 347
3 375 376 377
3 375 377 378
3 377 379 378
3 377 376 379
3 378 379 380
3 379 376 380
3 376 368 380
3 378 380 375
3 380 373 375
3 372 373 381
3 368 351 380
3 369 347 374
3 373 380 381
3 370 369 382
3 381 380 383
3 370 382 352
3 374 382 369
3 372 381 383
3 380 351 383
3 352 382 384
3 372 383 385
3 374 372 385
3 352 384 355
3 383 351 356
3 382 374 384
3 374 385 386
3 384 374 387
3 387 374 386
3 383 356 345
3 383 345 357
3 355 384 371
3 330 355 371
3 387 386 365
3 386 385 365
3 384 387 365
3 362 383 357
3 371 384 319
3 319 384 365
3 362 357 366
3 383 362 385
3 366 357 363
3 325 385 343
3 365 353 333
3 608 609 610
3 365 385 353
3 385 325 338
3 385 362 343
3 385 338 353
3 611 126 131
3 260 611 131
3 388 394 45
3 72 394 568
3 612 613 614
3 388 227 46
3 72 75 272
3 279 525 555
3 203 293 253
3 203 209 279
3 589 111 416
3 560 305 304
3 539 601 305
3 560 110 543
3 416 601 281
3 589 110 297
3 232 506 470
3 580 289 232
3 287 259 298
3 287 130 590
3 590 578 580
3 112 259 258
3 112 506 306
3 179 442 250
3 246 442 173
3 551 184 520
3 551 266 249
3 278 184 248
3 615 616 617
3 278 276 189
3 263 238 476
3 476 241 291
3 265 241 593
3 263 514 239
3 267 593 300
3 247 514 290
3 267 309 247
3 618 595 594
3 594 619 620
3 621 594 620
3 621 618 594
3 301 320 331
3 388 568 394
3 72 272 394
3 612 622 613
3 388 45 227
3 72 73 75
3 279 209 525
3 203 189 293
3 203 253 209
3 589 297 111
3 560 539 305
3 539 281 601
3 560 304 110
3 416 111 601
3 589 543 110
3 232 289 506
3 580 578 289
3 287 258 259
3 287 298 130
3 590 130 578
3 112 306 259
3 112 470 506
3 179 185 442
3 246 250 442
3 551 249 184
3 551 163 266
3 278 520 184
3 615 623 616
3 278 248 276
3 263 239 238
3 476 238 241
3 265 291 241
3 263 290 514
3 267 265 593
3 247 309 514
3 267 300 309
3 618 624 595
3 594 625 619
