ply
format ascii 1.0
comment INFO-3111 Flatenator generated
comment TextureFile Dungeons_Texture_01.png
element vertex 585
property float x
property float y
property float z
property float nx
property float ny
property float nz
element face 738
property list uchar int vertex_indices
end_header
2.18951 -0.004399 0.245602 -0.0209038 -0.0494318 0.998559 
1.16977 0.584586 0.247929 -0.0245154 -0.0410537 0.998856 
1.12275 0.054867 0.211532 -0.0354812 -0.0653702 0.99723 
1.91237 5.03047 0.200123 0.0827666 0.118992 0.989439 
1.15309 5.0493 0.261373 0.0405753 0.0600097 0.997373 
1.88397 4.52671 0.263082 0.0405753 0.0600097 0.997373 
1.13577 4.56818 0.261682 -0.0018319 0.000708169 0.999998 
1.06499 5.0258 0.262822 0.000385443 -0.000754766 1 
0.006996 5.02606 0.26323 -0.0176658 -0.00640304 0.999824 
1.06426 4.54051 0.262456 0.00280592 0.0045157 0.999986 
0.286507 4.55676 0.266362 -0.0266954 -0.00922826 0.999601 
1.05555 3.92026 0.262555 -0.00106823 0.00408719 0.999991 
-0.001846 3.88098 0.261941 -0.000705697 0.00336577 0.999994 
0.014633 3.39718 0.263581 -0.00106823 0.00408719 0.999991 
5.00475 3.88609 0.262994 -0.000550531 -0.000133513 1 
3.89674 3.89871 0.261403 5.95579e-05 0.0025592 0.999997 
4.39654 3.42053 0.262597 0.000147495 0.00128108 0.999999 
1.07069 3.43523 0.264909 -0.00143075 0.0048086 0.999987 
3.05368 3.92243 0.262296 0.00121538 0.00554957 0.999984 
3.03497 3.43713 0.265012 0.00266463 0.00284387 0.999992 
3.88692 3.4164 0.26151 0.00411387 0.000138141 0.999991 
3.93133 3.4383 0.263242 0.00154354 0.00411027 0.99999 
4.98988 3.40082 0.26238 0.000323367 -0.00127515 0.999999 
5.0047 2.7686 0.263741 0.127015 -0.0990063 0.986947 
3.94967 2.77801 0.260433 -0.00207406 0.0045478 0.999987 
4.39179 2.29514 0.263546 0.0317141 -0.0399449 0.998698 
3.94564 2.29438 0.263084 -0.00104483 0.00549015 0.999984 
4.88379 2.27863 0.212036 0.191052 -0.149519 0.970125 
4.34089 2.23356 0.246708 0.00492481 -0.0221207 0.999743 
3.3917 2.19817 0.269577 0.0258675 -0.0485752 0.998485 
3.39757 1.71701 0.246017 0.0187767 -0.0356268 0.999189 
4.17449 1.6479 0.262943 -0.0307643 0.00134485 0.999526 
3.69083 1.64663 0.248058 -0.0367695 -0.00472817 0.999313 
4.17481 1.16751 0.263599 -0.0367695 -0.00472817 0.999313 
3.79383 1.16149 0.247223 -0.0427721 -0.0108008 0.999026 
2.35278 1.02225 0.249027 -0.0134298 0.0157336 0.999786 
1.64565 0.585656 0.246399 -0.00648035 0.00862911 0.999942 
2.40375 0.607035 0.261013 -0.0200109 0.0263948 0.999451 
3.33774 1.0589 0.264858 0.00017407 4.7938e-06 1 
2.48811 1.09052 0.263191 -0.00182 0.00381577 0.999991 
2.47124 0.60551 0.265011 0.00017407 4.7938e-06 1 
3.3199 0.57478 0.263054 0.00216813 -0.00380618 0.99999 
1.4335 0.528104 0.257401 -0.0135896 -0.04143 0.999049 
4.17254 5.02619 0.247235 -2.99384e-05 -0.00123364 0.999999 
3.29744 5.02661 0.247148 -9.99343e-05 -0.00110758 0.999999 
3.29829 4.54078 0.24661 -2.99384e-05 -0.00123364 0.999999 
5.01218 5.007 0.24817 4.40832e-05 -0.00306681 0.999995 
4.23701 5.04865 0.248109 -0.000218113 -0.00259427 0.999997 
4.22066 4.56781 0.246858 4.40832e-05 -0.00306681 0.999995 
1.95826 5.02602 0.247178 2.62313e-05 -0.00136005 0.999999 
1.95917 4.54076 0.246518 1.31101e-05 -0.00132534 0.999999 
3.24203 5.02578 0.247144 1.31101e-05 -0.00132534 0.999999 
4.994 4.5268 0.246476 0.000306279 -0.00353935 0.999994 
3.24115 4.54075 0.246518 -1.09994e-08 -0.00129064 0.999999 
4.17176 4.54077 0.246575 4.00574e-05 -0.00135971 0.999999 
0.841095 4.47584 0.20234 0.0425178 -0.149836 0.987796 
1.95687 4.51799 0.199121 -0.273498 -0.204723 0.939834 
0.80098 4.45789 0.249124 -0.00107993 -0.000542398 0.999999 
-0.009666 4.47382 0.246629 -0.0308168 -0.0127089 0.999444 
-0.01033 3.9899 0.247994 -0.00107993 -0.000542398 0.999999 
0.734283 3.99813 0.247384 0.00086243 -0.00390965 0.999992 
1.79374 4.4738 0.212091 0.326128 -0.0211573 0.945089 
1.49337 4.47313 0.246667 0.0226801 -0.0329827 0.999199 
1.77497 4.07029 0.247605 0.515827 -0.109332 0.849688 
2.46441 4.51914 0.200341 0.0724556 0.0840812 0.993821 
1.88184 4.47382 0.246648 0.0364485 0.0433809 0.998393 
2.4292 3.9897 0.247701 0.0364485 0.0433809 0.998393 
2.48512 4.47383 0.247781 0.000470485 0.00241515 0.999997 
2.48419 3.98926 0.249265 0.000837487 0.00306094 0.999995 
3.33541 3.99061 0.248548 0.000470485 0.00241515 0.999997 
3.33508 4.47385 0.247693 0.000103482 0.00176937 0.999999 
4.92388 4.47382 0.246667 0.00161371 0.00316942 0.999994 
4.33315 4.47363 0.247335 0.00112963 0.00376053 0.999992 
4.33305 3.98996 0.249154 0.00161371 0.00316942 0.999994 
4.92466 3.98954 0.247914 0.0020978 0.00257832 0.999995 
1.88102 3.98953 0.247884 0.000333038 0.00255162 0.999997 
0.884308 4.00738 0.24801 -0.0330039 0.0460381 0.998394 
4.27483 3.98637 0.238599 0.0424236 -0.0083671 0.999065 
4.25597 4.47185 0.243466 -0.0521713 0.0398552 0.997843 
4.0138 3.99697 0.249772 -0.00557052 0.0428874 0.999064 
3.48076 4.43298 0.251596 0.0408922 0.0458167 0.998113 
3.40507 3.98661 0.247773 -0.00314703 -0.00803058 0.999963 
1.60857 3.9856 0.247136 -0.000854253 0.000760124 0.999999 
1.77688 3.96893 0.213014 0.240222 0.22332 0.944681 
0.559433 3.92406 0.198037 0.0154763 0.267055 0.963557 
3.39555 3.9523 0.202649 -0.165126 0.265339 0.94991 
1.1264 3.91372 0.20205 0.0750383 0.384844 0.919926 
3.89989 3.78373 0.223462 -0.136072 -0.16743 0.976448 
2.89658 3.88656 0.253644 -0.0156256 -0.0116011 0.999811 
2.46557 3.89864 0.247048 -0.0233695 -0.0194678 0.999537 
2.93648 3.43501 0.249028 -0.0322439 -0.0345205 0.998884 
1.14967 3.90573 0.246938 -3.93398e-09 -6.38332e-05 1 
1.1497 3.41994 0.246907 -3.02035e-05 -1.23632e-05 1 
1.97755 3.90567 0.246938 -3.02035e-05 -1.23632e-05 1 
3.03551 3.39673 0.202291 -0.268911 -0.0272927 0.962778 
1.97758 3.41991 0.246957 -6.04032e-05 3.91067e-05 1 
0.005188 3.37712 0.198969 -0.656543 0.255012 0.709873 
0.520149 3.33208 0.247506 -0.00106329 0.00297279 0.999995 
-0.053085 3.33224 0.246896 -0.00143731 0.00252968 0.999996 
0.519897 2.84861 0.248943 -0.00143731 0.00252968 0.999996 
1.63764 3.3418 0.247293 0.0190258 -0.0366535 0.999147 
0.597252 2.8276 0.248241 0.034488 -0.00910563 0.999364 
2.42797 3.33227 0.247205 -1.11487e-05 0.00250135 0.999997 
1.71023 3.33227 0.247197 2.35417e-05 0.00255279 0.999997 
2.42872 2.84774 0.248417 2.35417e-05 0.00255279 0.999997 
4.92419 3.33224 0.246884 0.00178832 0.0029201 0.999994 
4.33301 3.33208 0.247521 0.00107649 0.00371274 0.999992 
4.40976 2.87026 0.249153 0.00178832 0.0029201 0.999994 
-0.053832 2.84802 0.247905 -0.00181133 0.00208656 0.999996 
4.27062 3.3367 0.247445 0.0486529 -0.0364455 0.998151 
3.38371 3.30667 0.244718 -0.0142523 -0.00929416 0.999855 
3.89658 2.84552 0.247742 0.010977 -0.019109 0.999757 
1.56501 2.84314 0.212658 0.0378394 -0.0747247 0.996486 
1.70945 2.8477 0.248459 5.8232e-05 0.00260423 0.999997 
4.32233 2.8149 0.20237 0.100276 -0.0757601 0.992071 
4.92469 2.84798 0.247913 0.00250014 0.00212747 0.999995 
3.40059 2.8126 0.234463 -0.0217165 0.0102183 0.999712 
0.027428 2.78973 0.265778 -0.447906 0.864912 0.226511 
0.006154 2.81224 0.212198 -0.707111 -0.300172 0.640227 
0.007507 2.31793 0.258335 -0.686352 0.00636418 0.727242 
1.13101 2.7877 0.212597 0.0691679 0.0346334 0.997004 
1.05991 2.27619 0.235298 0.040352 0.00673378 0.999163 
1.14409 2.77767 0.2444 -6.87988e-05 0.00542323 0.999985 
1.14186 2.2951 0.247017 0.000728821 0.00422074 0.999991 
1.86938 2.77765 0.24445 0.000728821 0.00422074 0.999991 
2.20162 2.77814 0.243336 0.0574861 -0.0255302 0.99802 
1.92949 2.77813 0.243347 4.01513e-05 0.00702093 0.999975 
1.92742 2.29403 0.246746 0.0574861 -0.0255302 0.99802 
2.97775 2.74753 0.248627 -0.00057355 -0.00350211 0.999994 
2.26051 2.78761 0.248356 -0.0250758 -0.0361876 0.99903 
2.95412 2.26769 0.246933 -0.0250758 -0.0361876 0.99903 
2.22417 2.29106 0.212257 0.114681 -0.05797 0.991709 
1.86998 2.29595 0.245903 0.00152644 0.00301825 0.999994 
5.02753 2.26213 0.166269 0.281356 -0.169108 0.944585 
3.9548 2.2774 0.21228 -0.320441 0.111732 0.940656 
3.33507 1.73205 0.246647 0.000125544 -0.00186749 0.999998 
3.3354 2.21597 0.247505 0.000251045 -0.00177318 0.999999 
3.00335 2.17347 0.247513 0.000125544 -0.00186749 0.999998 
2.87905 1.73204 0.246647 4.30843e-08 -0.0019618 0.999998 
0.512436 2.23341 0.21196 0.0678827 -0.00681283 0.99767 
-0.070801 2.19613 0.247074 0.0599876 0.00170996 0.998198 
-0.049347 1.71085 0.246616 0.0678827 -0.00681283 0.99767 
4.96137 1.72985 0.247913 -0.00892876 -0.00860648 0.999923 
4.97544 2.21374 0.246904 -0.000243523 0.00209226 0.999998 
4.28257 1.72613 0.235882 -0.00296556 -0.0209894 0.999775 
2.79253 2.21572 0.247684 0.000130337 -0.00245974 0.999997 
1.71214 2.21588 0.24789 0.000190278 -0.00259357 0.999997 
1.71263 1.73204 0.246635 0.000130337 -0.00245974 0.999997 
2.79174 1.73202 0.246559 7.03954e-05 -0.00232592 0.999997 
3.61694 1.6484 0.24794 -7.37736e-06 -0.00228722 0.999997 
2.53721 1.64836 0.247913 -2.49239e-05 -0.00224806 0.999997 
2.53749 1.16482 0.246826 -7.37736e-06 -0.00228722 0.999997 
1.7498 1.15675 0.202209 0.0695142 -0.0896285 0.993546 
1.73132 1.64923 0.247929 0.0347986 -0.0458979 0.99834 
1.12102 1.16484 0.246933 0.0347986 -0.0458979 0.99834 
0.007439 1.64859 0.25061 0.000821832 -0.00267987 0.999996 
0.007957 1.16478 0.249313 0.000674363 -0.00235773 0.999997 
1.06485 1.6486 0.249741 0.000674363 -0.00235773 0.999997 
1.12043 1.64924 0.247913 -2.62306e-05 -0.00202319 0.999998 
2.44016 1.64922 0.247929 -2.58237e-05 -0.00208723 0.999998 
1.82455 1.64917 0.247913 -1.29119e-05 -0.00207083 0.999998 
2.43957 1.16484 0.246918 -1.29119e-05 -0.00207083 0.999998 
1.06453 1.16463 0.248756 0.000526893 -0.00203559 0.999998 
1.82509 1.16484 0.246918 0 -0.00205443 0.999998 
3.6166 1.16481 0.246815 1.01692e-05 -0.00232639 0.999997 
4.27228 1.63945 0.246964 -3.47755e-05 0.00180748 0.999998 
4.96064 1.13595 0.247898 -3.47755e-05 0.00180748 0.999998 
4.97449 1.61966 0.247166 -0.000244805 0.00152034 0.999999 
4.25839 1.15651 0.247978 0.000175254 0.00209462 0.999998 
0.832497 1.05863 0.245243 0.00386395 0.00556951 0.999977 
0.482353 1.0788 0.201923 -0.0170315 0.0836287 0.996351 
0.510666 0.583293 0.249134 0.00386395 0.00556951 0.999977 
0.414055 0.586 0.246784 0.03232 0.0304979 0.999012 
-0.034477 1.06018 0.246819 0.03232 0.0304979 0.999012 
4.96879 1.05949 0.246197 -0.0207751 0.0349242 0.999174 
4.12882 1.07135 0.2104 -0.0414907 0.0697823 0.996699 
4.17319 0.586676 0.246181 -0.0102151 0.0159224 0.999821 
1.70247 1.11385 0.24411 -0.00684654 0.00506996 0.999964 
4.12499 1.05736 0.247395 0.00069792 -0.00250771 0.999997 
3.39528 1.07919 0.247959 0.000341061 -0.00307136 0.999995 
1.63482 1.06028 0.247635 -0.00226372 -0.00265582 0.999994 
0.921204 1.05931 0.246017 -0.00223502 0.00102461 0.999997 
-0.033646 0.578082 0.238144 -0.0189733 -0.0180207 0.999658 
0.844337 0.519035 0.202003 0.124987 -0.0765268 0.989203 
0.921204 0.586848 0.246029 -0.00764343 2.54198e-05 0.999971 
3.38141 0.606076 0.246239 -1.57988e-05 -0.00363501 0.999993 
4.96879 0.586686 0.246201 -2.51353e-05 8.44651e-06 1 
0.659721 0.487204 0.249187 -0.00694207 -0.00208679 0.999974 
-0.002335 0.477732 0.23695 -0.0184825 0.000159419 0.999829 
0.013885 -0.012468 0.237328 -0.0141251 -0.00547394 0.999885 
1.05646 0.510492 0.246132 0.00742483 0.00468773 0.999961 
1.07175 0.038732 0.24823 -0.00117113 -0.00320987 0.999994 
2.98695 0.500908 0.24654 0.000839578 0.00166924 0.999998 
2.26775 0.501352 0.246925 0.000536632 0.00211976 0.999998 
2.26729 0.01698 0.247952 0.000839578 0.00166924 0.999998 
3.12587 0.508856 0.245773 -0.000125536 0.00105912 1 
3.8849 0.00777 0.246399 -0.000125536 0.00105912 1 
3.89736 0.491102 0.246609 -0.00109296 -0.000406314 0.999999 
4.54138 0.501393 0.246647 0.00180861 0.00436707 0.999989 
3.9765 0.486053 0.249008 0.00204584 0.00217048 0.999996 
5.00455 0.017848 0.247921 0.00123501 0.00220178 0.999997 
5.00428 0.501383 0.246826 -0.000386628 0.00226438 0.999997 
2.22429 0.477974 0.234032 0.0309086 0.0217397 0.999286 
2.98691 0.018474 0.247128 0.000992208 0.00187164 0.999998 
3.94876 0.017515 0.248013 8.78099e-05 -0.00212881 0.999998 
2.94816 5.0683 0.088296 0.000159664 0.946561 0.322525 
5.06759 5.08614 0.090294 0.679737 0.614185 0.400918 
1.12617 4.98791 0.202182 -0.435659 0.323898 0.839817 
4.21297 4.99972 0.197854 -0.440829 0.27725 0.853699 
4.19077 4.53289 0.201924 0.13738 -0.344327 0.928744 
4.32413 4.49519 0.201924 -0.123112 0.109775 0.986303 
1.08814 4.51382 0.201921 0.0112594 -0.354521 0.93498 
4.93355 4.49499 0.189308 0.907591 -0.300832 0.29288 
3.98959 4.49483 0.201905 -0.0309299 0.0941669 0.995076 
4.30476 3.97558 0.202119 -0.0857746 -0.106462 0.99061 
1.86457 3.99206 0.202222 -0.335146 -0.211489 0.918123 
3.9337 3.94846 0.200013 0.00185516 -0.216763 0.976223 
1.4374 3.97643 0.20213 -0.0206712 -0.62921 0.776961 
2.73341 3.97766 0.20728 -0.0115019 -0.496307 0.868071 
2.91457 3.92909 0.212232 0.191552 0.275375 0.94206 
4.88155 3.90386 0.211213 0.767825 0.441966 0.463801 
2.05032 3.88437 0.233728 -0.0405453 -0.0459723 0.99812 
2.05374 3.39481 0.202172 -0.0499621 -0.0645924 0.99666 
3.33544 3.35255 0.200906 0.0779095 0.0794627 0.993789 
3.92624 3.42078 0.212487 -0.282963 -0.521557 0.804929 
1.12647 3.41393 0.201882 -0.235711 -0.409963 0.881119 
3.88822 3.3765 0.202249 0.159291 0.125483 0.979224 
4.91269 3.39141 0.211974 0.474967 -0.615721 0.628724 
1.71212 3.35549 0.201825 -0.11895 0.0715411 0.99032 
4.30264 3.33757 0.202394 -0.00100247 0.455816 0.890073 
3.32576 3.33664 0.247323 -0.0323937 0.0267799 0.999116 
2.44996 3.31715 0.20213 -0.052766 0.0596797 0.996822 
2.55288 2.85721 0.235115 -0.0323937 0.0267799 0.999116 
3.33573 2.85206 0.244457 -0.0119727 -0.0061602 0.999909 
2.26944 2.83591 0.211491 -0.140912 -0.40584 0.903016 
2.43127 2.83613 0.21059 0.456735 0.183195 0.870536 
3.9057 2.81473 0.201702 0.0969357 0.0127584 0.995209 
0.57859 2.81385 0.203373 -0.155882 0.438233 0.885241 
3.02406 2.7635 0.231678 -0.035729 -0.0127137 0.999281 
3.89275 2.32122 0.257111 -0.0331394 -0.00244521 0.999448 
1.90195 2.78399 0.202053 -0.127525 0.445267 0.88627 
1.87706 2.22903 0.208214 0.281475 0.162357 0.945734 
3.88806 2.30374 0.210846 0.206707 -0.249308 0.946106 
3.01912 2.27561 0.202209 -0.0595089 -0.0595835 0.996448 
0.596336 2.28257 0.212067 -0.0486524 -0.106354 0.993137 
1.22543 2.19847 0.243462 0.000345441 -2.21762e-05 1 
1.41774 1.75079 0.243195 0.047497 -0.0148453 0.998761 
1.63619 2.22944 0.236591 0.0748632 -0.0204105 0.996985 
2.85547 1.66322 0.212395 -0.0156797 0.12823 0.99162 
0.596489 1.71168 0.23711 -0.00760379 -0.00322414 0.999966 
3.35812 2.23545 0.20195 0.0311047 0.377537 0.925472 
3.3403 1.72656 0.212444 0.067512 -0.449432 0.89076 
0.580238 2.1968 0.238312 -0.00797478 -0.0027448 0.999964 
1.71205 1.71546 0.201923 0.133171 -0.0471178 0.989972 
0.538574 1.71649 0.202023 0.0757686 -0.0153347 0.997007 
2.45132 1.71645 0.202049 -0.0130016 -0.106314 0.994248 
3.16052 1.66331 0.212349 0.00524346 0.652211 0.75802 
3.64108 1.66698 0.2024 -0.000730014 0.197669 0.980269 
4.87099 1.64054 0.201923 0.168939 0.307501 0.936431 
1.12552 1.71708 0.19915 -0.151154 -0.0593387 0.986728 
4.19126 1.66832 0.201923 0.209862 0.0256222 0.977395 
1.06913 1.15565 0.210846 0.297062 -0.417671 0.858665 
3.36116 1.07884 0.202839 -0.0559206 0.274808 0.959872 
0.917938 1.09795 0.202351 -0.0510387 -0.0189575 0.998517 
3.6647 1.092 0.202084 -0.00157725 0.3612 0.932487 
3.29884 0.520096 0.210281 0.321116 0.321326 0.890862 
1.65494 1.09821 0.20232 -0.0594287 0.349844 0.934921 
2.40988 0.587282 0.211937 0.10615 -0.34258 0.933473 
1.70149 0.613155 0.21212 0.111138 -0.871394 0.477829 
3.94501 0.520651 0.201923 -0.128471 0.0312464 0.991221 
0.310684 0.499222 0.202023 0.0292087 0.398654 0.916636 
2.24283 0.501777 0.201893 -0.0164957 0.411968 0.911049 
4.9831 0.544007 0.16332 0.830022 0.373255 0.414419 
3.91009 0.058021 0.199009 0.338778 -0.2095 0.917245 
1.06926 5.09586 0.090102 0.204445 0.946357 0.250221 
1.91509 5.09393 0.091352 -0.035761 0.934261 0.354793 
4.21258 5.10141 0.090101 -0.0222915 0.932996 0.359196 
3.28501 5.04939 0.161031 -0.255275 0.790087 0.557312 
0.879974 3.97471 0.202352 -0.125237 -0.342806 0.931021 
2.42887 3.97741 0.208333 0.068137 -0.550519 0.832038 
3.04073 3.93142 0.211255 -0.240945 0.0136566 0.970443 
0.026198 3.9021 0.196496 -0.324292 0.394345 0.859841 
1.99639 3.91346 0.201924 0.099032 0.415871 0.904015 
0.824875 3.33021 0.201745 0.00364795 0.764191 0.64498 
3.38637 2.93435 0.213394 -0.344992 -0.157053 0.925373 
4.94959 2.80212 0.174568 0.868841 0.263697 0.419021 
3.38502 2.80807 0.201523 -0.325226 0.530274 0.782967 
2.98215 2.76374 0.210846 0.140535 0.434927 0.889431 
2.84846 2.23779 0.202461 0.124619 -0.106722 0.986448 
4.99431 2.23343 0.175885 0.755354 -0.0620666 0.652371 
5.00562 1.65661 0.088314 0.937865 0.024784 0.346115 
4.96734 1.11488 0.174042 0.872498 -0.121633 0.473236 
2.4691 1.09948 0.201923 0.0143523 0.152168 0.98825 
-0.123055 0.486813 -0.082814 -0.980541 -0.0567276 -0.187938 
0.482475 0.567862 0.201923 -0.0786503 -0.438121 0.895469 
1.06758 0.542121 0.202858 0.257181 -0.0953432 0.961649 
3.02766 -0.046414 0.08905 -0.00479008 -0.947668 0.31922 
3.90969 -0.051387 0.111739 0.00427895 -0.913839 0.406055 
3.26341 4.53283 0.201844 0.27778 0.0575086 0.958922 
3.66307 4.51987 0.198869 -0.00167461 -0.58561 0.810592 
3.37834 4.47544 0.202283 0.219945 0.28539 0.932833 
-0.101278 4.57291 -0.073662 -0.998289 0.0259488 0.0524048 
-0.051552 3.94167 0.099906 -0.93748 0.044061 0.345239 
1.713 2.25727 0.202229 -0.155071 0.040469 0.987074 
3.72385 2.2323 0.199398 -0.072002 0.593186 0.801839 
0.046351 1.13768 0.199149 -0.261413 -0.178033 0.948666 
3.03678 0.542353 0.202866 0.0210943 -0.149559 0.988528 
2.04133 0.498656 0.201702 0.0363708 0.422096 0.905821 
-0.140526 1.64471 -0.082814 -0.936394 -0.20185 -0.287095 
-0.002574 1.66729 0.18652 -0.838652 -0.210011 0.502551 
-0.125307 1.06858 -0.073874 -0.900822 0.363895 -0.236853 
-0.026034 5.08198 0.089044 -0.525933 0.813983 0.246629 
1.07138 -0.04575 0.089531 0.487434 -0.843227 0.226663 
-0.16508 2.22892 -0.082814 -0.895212 0.435883 -0.0927475 
1.08535 -0.009978 0.091023 0.281191 -0.913911 0.292743 
-0.146025 3.39766 -0.082813 -0.862227 0.506311 -0.0146499 
5.09595 0.486762 -0.082186 0.963585 0.224593 -0.145124 
2.19088 -0.092338 0.063985 0.714174 -0.668985 0.205948 
-0.035566 -0.087497 0.089259 -0.475919 -0.760016 0.44258 
1.09834 5.16139 -0.093458 -0.639086 0.767521 -0.0498064 
-0.106785 2.28874 -0.072368 -0.913013 0.193698 -0.359009 
5.00646 3.38018 -0.094062 0.862702 -0.2736 0.425309 
5.06031 -0.062701 0.090819 0.521191 -0.755911 0.396181 
2.24917 -0.09683 -0.081617 -0.183328 -0.982877 0.0185181 
1.0941 5.11593 -0.09518 0.114967 0.953526 -0.278515 
5.09508 2.8275 -0.093459 0.957349 0.272343 0.0964969 
5.06178 2.23015 -0.061127 0.956135 -0.178257 -0.232445 
5.04846 1.79142 -0.08261 0.975284 -0.00841912 -0.220796 
5.05345 0.576073 -0.082814 0.988959 0.14753 -0.0139451 
-0.071727 -0.125261 -0.082139 -0.546386 -0.828007 -0.125962 
5.09595 -0.098481 -0.073906 0.460695 -0.761222 -0.456401 
0.56856 5.1189 -0.094843 -0.00492495 0.999974 0.00523396 
1.92968 5.14093 -0.060902 0.00894683 0.999944 -0.0056643 
3.7696 5.13903 -0.08191 -0.0194834 0.996686 -0.0789816 
5.0833 4.54092 -0.082813 0.930012 -0.367321 -0.0123322 
-0.099489 3.98294 -0.084174 -0.987355 -0.0169912 -0.157614 
5.06676 4.49143 -0.083926 0.977879 -0.0707219 -0.196854 
5.0974 3.96409 -0.098294 0.977868 0.187144 -0.0935453 
5.06281 3.05531 -0.148808 0.845291 0.0393187 -0.532857 
-0.054742 1.0405 -0.098793 -0.885175 0.14421 -0.442344 
2.17349 -0.047549 -0.12467 0.252181 -0.65839 -0.709174 
3.03534 -0.083394 -0.081292 -0.00740962 -0.979166 -0.202925 
1.05026 -0.083767 -0.08228 0.210132 -0.95058 -0.228565 
3.86991 -0.104525 -0.081931 -0.00734943 -0.981076 -0.193483 
-0.086404 2.79849 -0.062774 -0.931557 -0.17562 -0.318369 
2.17313 -0.137867 -0.111365 0.358214 -0.902284 -0.239931 
-0.077163 3.42808 -0.082856 -0.973781 0.166314 -0.155214 
-0.057504 -0.048795 -0.147004 -0.489433 -0.35063 -0.798445 
5.10431 5.12171 -0.082813 0.380104 0.822282 -0.423525 
-0.054146 0.457697 -0.099056 -0.795004 0.030692 -0.605827 
4.29304 5.16452 -0.082197 0.00247281 0.98563 -0.168903 
1.33412 -0.076789 -0.087642 -0.011522 -0.951395 -0.307758 
1.52865 5.1452 -0.093458 0.00507282 0.913961 -0.40577 
-0.057653 5.1105 -0.147046 -0.595481 0.66352 -0.452928 
4.3843 5.11053 -0.14705 0.000983096 0.666694 -0.745331 
2.78507 5.11025 -0.146862 -0.000724084 0.669741 -0.742594 
-0.057143 4.54637 -0.146866 -0.483854 0.00103678 -0.875148 
4.99589 5.11036 -0.147003 0.380032 0.254926 -0.88915 
4.99565 1.94675 -0.147078 0.45472 -0.00913178 -0.890588 
4.99546 0.595698 -0.146874 0.510108 0.0645016 -0.857688 
4.99595 -0.048899 -0.147051 0.321855 -0.239181 -0.91608 
3.25892 -0.048442 -0.146874 -0.012091 -0.562309 -0.826839 
4.38427 -0.048732 -0.14707 0.00131504 -0.377769 -0.925899 
0.257913 5.11028 -0.146854 0.00171004 0.767831 -0.640651 
1.93586 5.11041 -0.147069 -0.000787749 0.478013 -0.878353 
-0.05708 3.17589 -0.146873 -0.648789 -0.00616678 -0.760943 
-0.057253 1.94675 -0.14707 -0.555496 0.0167335 -0.831351 
-0.05701 1.24074 -0.146882 -0.647339 -0.0216876 -0.761894 
1.18564 -0.048753 -0.147067 0.00898712 -0.520836 -0.85361 
4.345 4.48638 -0.148878 0.0203314 0.00324225 -0.999788 
1.53821 1.41509 -0.148879 -0.000119495 -0.00322481 -0.999995 
3.89674 3.89871 0.261403 0.00266463 0.00284387 0.999992 
1.06426 4.54051 0.262456 0.527382 -0.489991 0.694102 
0.286507 4.55676 0.266362 0.0195968 -0.534293 0.845072 
1.13577 4.56818 0.261682 -0.513346 -0.389849 0.764522 
1.88397 4.52671 0.263082 0.437583 -0.677539 0.591152 
1.49337 4.47313 0.246667 -0.0229839 0.0307742 0.999262 
0.841095 4.47584 0.20234 -0.0671473 0.0906737 0.993614 
1.77497 4.07029 0.247605 -0.00295302 0.000264183 0.999996 
1.60857 3.9856 0.247136 0.0365953 -0.819547 0.571842 
-0.001846 3.88098 0.261941 -0.535361 0.755347 0.377941 
1.05555 3.92026 0.262555 0.276386 0.856426 0.436056 
3.89674 3.89871 0.261403 -0.00512543 0.708882 0.705308 
3.05368 3.92243 0.262296 -0.691278 0.642723 0.330215 
1.07069 3.43523 0.264909 0.465704 -0.595337 0.654747 
3.88692 3.4164 0.26151 0.86312 -0.385733 0.325936 
3.03497 3.43713 0.265012 -0.360249 -0.704078 0.61196 
0.014633 3.39718 0.263581 -0.66004 -0.68473 0.309019 
0.520149 3.33208 0.247506 0.0001777 0.00148413 0.999999 
4.32233 2.8149 0.20237 -0.0810406 0.0461669 0.995641 
3.94967 2.77801 0.260433 -0.520333 0.462555 0.717842 
5.0047 2.7686 0.263741 0.378032 0.828475 0.413185 
0.027428 2.78973 0.265778 0.0259188 -0.00722089 0.999638 
2.22417 2.29106 0.212257 -0.0495362 -0.0688127 0.996399 
0.007507 2.31793 0.258335 0.0212209 -0.016666 0.999636 
4.39179 2.29514 0.263546 0.0187475 -0.815984 0.577771 
3.94564 2.29438 0.263084 -0.718457 -0.688252 0.100646 
1.95826 5.02602 0.247178 -0.54464 0.684761 0.484221 
3.24203 5.02578 0.247144 0.598979 0.645577 0.473765 
4.23701 5.04865 0.248109 -0.578865 0.677363 0.453976 
5.01218 5.007 0.24817 0.654793 0.558142 0.50963 
1.15309 5.0493 0.261373 -0.586082 0.669806 0.455926 
4.22066 4.56781 0.246858 -0.590206 -0.351928 0.726501 
4.17254 5.02619 0.247235 0.734383 0.3881 0.55683 
4.17176 4.54077 0.246575 0.403771 -0.813727 0.418111 
4.994 4.5268 0.246476 0.593684 -0.627387 0.50391 
4.33315 4.47363 0.247335 -0.775996 0.398615 0.488811 
4.92388 4.47382 0.246667 0.43269 0.802542 0.410737 
3.48076 4.43298 0.251596 -0.60905 0.373594 0.699633 
3.40507 3.98661 0.247773 -0.450969 -0.625946 0.636253 
4.27483 3.98637 0.238599 0.499969 -0.628313 0.596031 
4.25597 4.47185 0.243466 0.516569 0.348348 0.782183 
2.48419 3.98926 0.249265 -0.508611 -0.627998 0.58901 
2.48512 4.47383 0.247781 -0.372894 0.536604 0.756972 
2.46441 4.51914 0.200341 -0.132856 -0.345154 0.929095 
1.88184 4.47382 0.246648 -0.87047 0.478293 0.116266 
1.88102 3.98953 0.247884 -0.428209 -0.864887 0.261932 
4.0138 3.99697 0.249772 0.011504 -0.83572 0.549036 
0.734283 3.99813 0.247384 0.329929 -0.380522 0.863915 
-0.01033 3.9899 0.247994 -0.653381 -0.395305 0.645622 
0.884308 4.00738 0.24801 -0.431954 -0.786941 0.440614 
3.33541 3.99061 0.248548 0.323736 -0.476036 0.81767 
4.92466 3.98954 0.247914 0.724741 -0.612975 0.314661 
4.33305 3.98996 0.249154 -0.565622 -0.629541 0.532682 
1.14967 3.90573 0.246938 -0.600328 0.465534 0.650295 
1.97755 3.90567 0.246938 0.506332 0.45716 0.731186 
2.46557 3.89864 0.247048 -0.01976 0.760016 0.649604 
2.89658 3.88656 0.253644 0.53604 0.461495 0.706883 
5.00475 3.88609 0.262994 0.372672 0.822632 0.429409 
3.93133 3.4383 0.263242 -0.850433 -0.461889 0.251839 
2.93648 3.43501 0.249028 0.542016 -0.248025 0.802934 
4.39654 3.42053 0.262597 -0.0321547 -0.96097 0.274777 
4.98988 3.40082 0.26238 0.668717 -0.717075 0.19652 
-0.053085 3.33224 0.246896 -0.565795 0.649444 0.508034 
0.520149 3.33208 0.247506 -0.0729154 0.767633 0.636728 
1.71023 3.33227 0.247197 -0.712707 0.636069 0.295744 
2.42797 3.33227 0.247205 0.707681 0.662748 0.244853 
4.92419 3.33224 0.246884 0.697173 0.585135 0.414206 
4.33301 3.33208 0.247521 -0.573807 0.403888 0.712475 
1.63764 3.3418 0.247293 0.233341 0.856539 0.460319 
1.56501 2.84314 0.212658 0.0488888 -0.0874712 0.994967 
4.40976 2.87026 0.249153 -0.246093 -0.368798 0.896341 
2.42872 2.84774 0.248417 0.444066 -0.846034 0.295011 
1.70945 2.8477 0.248459 -0.475515 -0.702 0.530172 
3.89658 2.84552 0.247742 0.873371 -0.385559 0.297604 
0.597252 2.8276 0.248241 -0.608988 0.334361 0.719262 
1.92949 2.77813 0.243347 -0.564278 0.676974 0.472542 
1.92742 2.29403 0.246746 -0.529044 -0.197358 0.825325 
1.86938 2.77765 0.24445 0.798205 0.431776 0.420045 
1.86998 2.29595 0.245903 0.340684 -0.495268 0.799152 
3.89275 2.32122 0.257111 0.722346 -0.667932 0.179118 
1.05991 2.27619 0.235298 -0.0996899 -0.290187 0.951763 
2.22417 2.29106 0.212257 -0.167912 0.26628 0.949158 
1.71214 2.21588 0.24789 -0.64953 0.657575 0.381714 
2.79253 2.21572 0.247684 0.331214 0.36598 0.869687 
3.3917 2.19817 0.269577 -0.424864 0.657291 0.622462 
4.34089 2.23356 0.246708 0.0279457 0.839214 0.543082 
2.79174 1.73202 0.246559 0.149049 -0.568609 0.808992 
3.39757 1.71701 0.246017 -0.200905 -0.645069 0.73724 
1.71205 1.71546 0.201923 -0.344716 -0.00131902 0.938706 
1.71263 1.73204 0.246635 -0.445778 -0.840349 0.308376 
2.53721 1.64836 0.247913 -0.118408 0.703287 0.700976 
3.61694 1.6484 0.24794 0.37012 0.772575 0.515886 
3.69083 1.64663 0.248058 -0.468792 0.495218 0.731432 
4.17449 1.6479 0.262943 0.409374 0.802693 0.433701 
4.27228 1.63945 0.246964 -0.164857 0.712032 0.68252 
4.97449 1.61966 0.247166 0.717205 0.626077 0.306016 
1.12043 1.64924 0.247913 -0.735517 0.430935 0.52279 
1.12102 1.16484 0.246933 -0.768697 -0.439492 0.464707 
4.17481 1.16751 0.263599 0.906122 -0.290768 0.307243 
1.06485 1.6486 0.249741 0.690134 0.223806 0.688205 
1.06453 1.16463 0.248756 0.571297 -0.638316 0.515919 
2.48811 1.09052 0.263191 -0.390437 0.859622 0.32956 
3.33774 1.0589 0.264858 0.91098 0.386952 0.142774 
0.921204 1.05931 0.246017 -0.689243 0.516252 0.508359 
1.63482 1.06028 0.247635 0.364925 0.619204 0.695282 
4.12882 1.07135 0.2104 0.345461 0.0745526 0.935467 
4.12499 1.05736 0.247395 0.438605 0.813521 0.38185 
0.921204 0.586848 0.246029 -0.259656 -0.347714 0.90093 
4.17319 0.586676 0.246181 0.425269 -0.429578 0.796624 
1.70247 1.11385 0.24411 -0.306001 0.578633 0.756007 
1.64565 0.585656 0.246399 0.258226 -0.743942 0.616336 
3.3199 0.57478 0.263054 0.418555 -0.767734 0.485177 
2.35278 1.02225 0.249027 0.591143 0.226896 0.773995 
2.40375 0.607035 0.261013 0.521943 -0.84942 -0.0778488 
3.38141 0.606076 0.246239 -0.348116 -0.233318 0.907953 
1.4335 0.528104 0.257401 0.20608 0.231913 0.950656 
1.16977 0.584586 0.247929 -0.149487 -0.209583 0.966296 
0.844337 0.519035 0.202003 -0.144007 0.216923 0.965508 
0.659721 0.487204 0.249187 -0.0344197 0.905233 0.423519 
1.05646 0.510492 0.246132 0.356877 0.758679 0.545018 
2.98695 0.500908 0.24654 0.265216 0.747113 0.609494 
2.26775 0.501352 0.246925 -0.616447 0.706379 0.347883 
4.54138 0.501393 0.246647 -0.00778065 0.866107 0.499798 
3.9765 0.486053 0.249008 -0.497798 0.505735 0.704577 
5.00428 0.501383 0.246826 0.679339 0.638651 0.361419 
-0.002335 0.477732 0.23695 -0.629156 0.226856 0.743437 
3.89736 0.491102 0.246609 0.516299 0.531659 0.671397 
3.8849 0.00777 0.246399 0.575604 -0.664293 0.476859 
3.94876 0.017515 0.248013 -0.716985 -0.328756 0.614697 
0.006996 5.02606 0.26323 -0.646264 0.65602 0.389846 
1.06499 5.0258 0.262822 0.68176 0.585177 0.439057 
3.29744 5.02661 0.247148 -0.447937 0.816108 0.365131 
1.95917 4.54076 0.246518 -0.442265 -0.80184 0.401813 
0.80098 4.45789 0.249124 0.52561 0.539633 0.65767 
2.05032 3.88437 0.233728 -0.323604 0.357699 0.875975 
2.05374 3.39481 0.202172 0.173631 -0.270982 0.946795 
1.97758 3.41991 0.246957 0.219248 -0.501905 0.836673 
1.1497 3.41994 0.246907 -0.420237 -0.661302 0.621354 
3.32576 3.33664 0.247323 0.489912 0.461114 0.739838 
3.33573 2.85206 0.244457 0.824229 -0.553099 -0.12136 
3.40059 2.8126 0.234463 -0.854742 0.402703 0.327486 
3.38371 3.30667 0.244718 -0.504322 0.363538 0.783262 
4.92469 2.84798 0.247913 0.389322 -0.615163 0.685567 
1.13101 2.7877 0.212597 -0.388808 0.231427 0.891779 
2.20162 2.77814 0.243336 0.143946 0.629041 0.763929 
3.02406 2.7635 0.231678 -0.296719 0.839728 0.454769 
2.97775 2.74753 0.248627 0.693808 0.413152 0.589861 
2.26051 2.78761 0.248356 -0.305122 0.702788 0.642642 
1.14409 2.77767 0.2444 -0.335595 0.698515 0.632023 
1.14186 2.2951 0.247017 -0.334202 -0.0268172 0.94212 
3.01912 2.27561 0.202209 0.227109 -0.0452522 0.972817 
2.95412 2.26769 0.246933 0.292358 -0.706537 0.644463 
3.00335 2.17347 0.247513 -0.405136 0.327216 0.853694 
2.87905 1.73204 0.246647 -0.475907 -0.626752 0.617005 
4.97544 2.21374 0.246904 0.681877 0.637854 0.35803 
4.96137 1.72985 0.247913 0.728315 -0.374005 0.574175 
3.3354 2.21597 0.247505 0.641423 0.42385 0.639474 
3.33507 1.73205 0.246647 0.690453 -0.69032 0.216181 
1.41774 1.75079 0.243195 0.0175016 -0.846654 0.531855 
0.596489 1.71168 0.23711 -0.210027 -0.838964 0.502024 
3.6166 1.16481 0.246815 0.203931 -0.320977 0.924871 
2.53749 1.16482 0.246826 -0.273996 -0.275437 0.921445 
4.96064 1.13595 0.247898 0.674782 -0.691276 0.258472 
1.7498 1.15675 0.202209 -0.186197 -0.218213 0.957974 
2.43957 1.16484 0.246918 0.337725 -0.670765 0.660316 
1.82509 1.16484 0.246918 -0.335745 -0.648788 0.682898 
4.25839 1.15651 0.247978 -0.22368 -0.410843 0.883841 
3.39528 1.07919 0.247959 -0.347689 0.824716 0.446046 
4.96879 1.05949 0.246197 0.867021 0.361088 0.34335 
4.96879 0.586686 0.246201 0.445511 -0.628518 0.637562 
-0.034477 1.06018 0.246819 -0.774682 0.382597 0.503475 
-0.033646 0.578082 0.238144 -0.457633 -0.369343 0.8088 
2.47124 0.60551 0.265011 -0.55373 -0.522724 0.648184 
0.414055 0.586 0.246784 0.341914 -0.565866 0.750261 
3.12587 0.508856 0.245773 -0.120435 0.707886 0.695984 
1.12275 0.054867 0.211532 0.440427 -0.544378 0.713917 
2.22429 0.477974 0.234032 0.398477 0.733789 0.550245 
2.18951 -0.004399 0.245602 0.485229 -0.63353 0.602655 
2.26729 0.01698 0.247952 -0.290659 -0.767937 0.57078 
2.98691 0.018474 0.247128 0.0851494 -0.580442 0.809837 
5.00455 0.017848 0.247921 0.63994 -0.583698 0.499774 
3.29829 4.54078 0.24661 -0.625736 -0.626944 0.464107 
1.91237 5.03047 0.200123 -0.13055 0.562162 0.816658 
3.24115 4.54075 0.246518 0.388124 -0.805246 0.448262 
-0.009666 4.47382 0.246629 -0.693267 0.208761 0.689783 
3.33508 4.47385 0.247693 0.429679 0.544155 0.720605 
3.98959 4.49483 0.201905 -0.00727405 0.384028 0.923293 
2.4292 3.9897 0.247701 0.683531 -0.698359 0.212319 
2.44996 3.31715 0.20213 0.158925 0.314714 0.935787 
4.27062 3.3367 0.247445 0.373367 0.702855 0.605469 
0.519897 2.84861 0.248943 0.234926 -0.560836 0.793897 
-0.053832 2.84802 0.247905 -0.745424 -0.530587 0.403511 
2.55288 2.85721 0.235115 -0.0864928 0.118273 0.989207 
4.88379 2.27863 0.212036 0.19375 -0.278621 0.940655 
1.22543 2.19847 0.243462 -0.0167113 0.00428436 0.999851 
1.63619 2.22944 0.236591 0.206356 0.481885 0.851589 
4.28257 1.72613 0.235882 -0.00600352 -0.485132 0.87442 
0.007439 1.64859 0.25061 -0.342529 0.669223 0.659405 
1.73132 1.64923 0.247929 -0.000445597 0.427504 0.904013 
2.44016 1.64922 0.247929 0.715582 0.234755 0.6579 
1.82455 1.64917 0.247913 -0.11001 0.346425 0.931605 
0.007957 1.16478 0.249313 -0.672677 -0.504269 0.541497 
3.79383 1.16149 0.247223 -0.16877 -0.336422 0.926465 
0.482353 1.0788 0.201923 -0.0706302 0.313269 0.947034 
0.510666 0.583293 0.249134 -0.609703 -0.570299 0.550474 
1.07175 0.038732 0.24823 0.52895 -0.602312 0.597856 
0.512436 2.23341 0.21196 -0.111291 0.00648485 0.993767 
-0.070801 2.19613 0.247074 -0.823811 0.0867875 0.560182 
0.580238 2.1968 0.238312 -0.283472 0.144179 0.94808 
0.538574 1.71649 0.202023 -0.266071 -0.0909385 0.959654 
-0.049347 1.71085 0.246616 -0.543418 -0.688465 0.480325 
0.832497 1.05863 0.245243 -0.0224223 0.300774 0.953432 
0.013885 -0.012468 0.237328 -0.776984 -0.410122 0.477593 
5.02753 2.26213 0.166269 0.859298 -0.231635 0.456018 
3 0 1 2
3 3 4 5
3 4 6 5
3 7 8 9
3 9 8 10
3 11 12 13
3 14 15 16
3 11 13 17
3 371 18 19
3 20 371 19
3 15 21 16
3 14 16 22
3 23 24 25
3 24 26 25
3 23 25 27
3 28 29 30
3 31 32 33
3 32 34 33
3 35 36 37
3 38 39 40
3 38 40 41
3 42 1 0
3 43 44 45
3 46 47 48
3 49 50 51
3 46 48 52
3 51 50 53
3 43 45 54
3 55 372 373
3 374 56 375
3 57 58 59
3 57 59 60
3 61 62 63
3 64 65 66
3 67 68 69
3 70 67 69
3 71 72 73
3 71 73 74
3 65 75 66
3 376 377 76
3 77 78 79
3 80 81 79
3 378 376 82
3 82 376 76
3 83 63 379
3 84 380 381
3 382 85 383
3 86 381 384
3 87 382 385
3 88 89 90
3 91 92 93
3 383 94 386
3 93 92 95
3 380 96 387
3 97 98 99
3 100 388 101
3 102 103 104
3 105 106 107
3 98 108 99
3 109 110 111
3 100 101 112
3 103 113 104
3 109 111 114
3 105 107 115
3 111 110 116
3 389 390 391
3 117 118 119
3 120 101 121
3 122 123 124
3 125 126 127
3 101 392 121
3 128 129 130
3 131 125 127
3 130 129 393
3 132 124 123
3 392 394 121
3 133 23 27
3 395 396 134
3 135 136 137
3 137 138 135
3 139 140 141
3 142 143 28
3 142 28 144
3 145 146 147
3 148 145 147
3 149 150 151
3 152 153 154
3 155 156 157
3 154 153 158
3 159 160 161
3 157 156 162
3 160 163 161
3 149 151 164
3 165 166 167
3 166 165 168
3 169 170 171
3 172 170 173
3 174 175 176
3 177 36 35
3 176 178 179
3 36 180 181
3 172 173 182
3 169 171 183
3 181 184 1
3 181 1 36
3 179 185 176
3 174 176 186
3 187 188 189
3 190 187 191
3 192 193 194
3 195 196 197
3 198 199 200
3 201 198 200
3 0 202 42
3 192 194 203
3 199 204 200
3 187 189 191
3 196 195 203
3 205 397 398
3 206 399 400
3 401 207 374
3 402 399 208
3 209 403 404
3 210 405 402
3 211 55 62
3 210 406 407
3 212 210 407
3 213 80 79
3 78 213 79
3 408 85 409
3 410 214 411
3 412 413 414
3 415 215 416
3 417 409 216
3 84 418 419
3 217 379 420
3 412 218 421
3 409 85 216
3 214 422 423
3 83 424 425
3 219 426 427
3 220 214 428
3 382 87 429
3 427 430 219
3 89 221 90
3 90 221 222
3 386 94 223
3 431 429 224
3 384 96 225
3 385 386 226
3 227 432 431
3 96 433 434
3 228 435 436
3 437 229 438
3 228 439 440
3 230 231 232
3 438 389 441
3 233 230 232
3 234 442 443
3 234 235 442
3 236 389 444
3 445 237 117
3 116 238 239
3 111 116 239
3 446 240 447
3 241 448 449
3 242 444 450
3 239 238 243
3 244 451 119
3 452 453 454
3 134 455 456
3 245 246 247
3 454 457 248
3 245 249 246
3 455 250 251
3 245 252 249
3 253 247 246
3 254 139 141
3 28 30 144
3 458 455 251
3 459 255 460
3 256 461 462
3 463 464 257
3 258 465 466
3 467 259 468
3 260 464 469
3 261 470 471
3 262 472 473
3 474 475 263
3 476 264 477
3 262 473 265
3 474 263 478
3 476 477 479
3 480 266 481
3 473 482 265
3 483 484 267
3 484 481 268
3 485 269 479
3 486 481 487
3 488 489 490
3 491 271 492
3 493 269 494
3 495 272 493
3 270 496 489
3 273 497 498
3 494 269 499
3 500 501 274
3 205 275 397
3 276 277 502
3 276 502 403
3 206 400 405
3 397 56 503
3 55 504 418
3 420 55 278
3 212 407 422
3 217 420 278
3 379 217 83
3 215 279 416
3 279 218 412
3 280 421 218
3 417 214 410
3 85 280 383
3 382 216 85
3 382 428 214
3 84 281 380
3 505 426 282
3 383 280 94
3 429 87 224
3 506 425 507
3 219 430 94
3 87 385 226
3 228 507 508
3 224 227 431
3 283 434 439
3 434 237 445
3 438 229 389
3 509 510 284
3 284 511 512
3 437 513 285
3 514 440 445
3 389 285 513
3 237 118 117
3 515 240 446
3 511 286 516
3 389 236 390
3 285 389 391
3 517 287 518
3 519 514 520
3 518 234 452
3 396 390 134
3 521 517 522
3 452 288 522
3 288 521 522
3 241 453 452
3 523 248 524
3 289 525 526
3 251 527 528
3 289 526 290
3 529 530 259
3 260 257 464
3 461 248 255
3 461 256 248
3 462 257 256
3 257 462 531
3 255 532 461
3 466 533 291
3 534 535 536
3 476 291 537
3 292 534 480
3 292 480 483
3 264 538 477
3 272 539 540
3 541 293 542
3 292 543 472
3 542 294 544
3 497 265 545
3 487 295 546
3 271 547 548
3 549 296 550
3 551 499 297
3 502 277 552
3 553 375 56
3 402 208 209
3 8 58 10
3 398 554 298
3 209 210 402
3 372 55 211
3 503 414 554
3 414 298 554
3 298 299 552
3 299 404 552
3 299 209 404
3 212 405 210
3 55 555 504
3 298 414 413
3 298 413 556
3 300 298 556
3 557 300 408
3 411 210 557
3 415 56 215
3 300 556 421
3 408 300 85
3 411 214 210
3 406 210 214
3 61 63 83
3 55 418 278
3 423 406 214
3 301 302 419
3 414 558 279
3 412 414 279
3 418 84 278
3 558 416 279
3 84 381 86
3 214 216 382
3 282 83 425
3 219 282 426
3 282 425 506
3 380 302 96
3 424 86 225
3 424 225 508
3 86 384 225
3 225 228 508
3 228 506 507
3 386 223 226
3 506 94 430
3 228 283 439
3 559 228 436
3 229 226 560
3 559 436 235
3 226 512 560
3 284 223 509
3 229 560 389
3 435 228 443
3 235 436 442
3 561 562 118
3 443 440 234
3 563 284 510
3 511 284 286
3 513 441 389
3 237 561 118
3 240 519 448
3 235 234 518
3 518 563 235
3 518 287 563
3 286 287 516
3 444 242 236
3 287 517 521
3 240 448 241
3 287 521 516
3 521 242 450
3 289 395 134
3 289 564 395
3 303 565 566
3 453 241 303
3 452 454 288
3 288 454 248
3 523 288 248
3 523 521 288
3 523 527 521
3 527 250 521
3 304 250 455
3 456 525 289
3 250 527 251
3 566 459 303
3 453 303 459
3 453 459 460
3 259 459 529
3 457 460 255
3 255 248 457
3 251 524 248
3 567 458 260
3 259 568 470
3 467 569 259
3 570 255 571
3 255 570 292
3 259 470 261
3 465 260 537
3 292 570 535
3 468 259 261
3 571 534 536
3 260 469 476
3 305 263 572
3 263 471 572
3 261 471 263
3 261 534 468
3 534 292 535
3 476 469 573
3 291 533 537
3 262 292 472
3 305 541 574
3 266 263 475
3 538 264 262
3 291 476 539
3 292 483 267
3 266 475 481
3 538 262 485
3 574 544 294
3 484 268 267
3 268 481 486
3 306 543 267
3 306 482 543
3 294 488 575
3 478 295 487
3 265 482 306
3 486 547 307
3 265 306 545
3 490 295 488
3 271 307 547
3 273 269 497
3 295 490 576
3 492 271 549
3 545 306 550
3 295 576 546
3 273 498 297
3 296 297 498
3 399 276 208
3 397 553 56
3 403 209 208
3 398 298 277
3 501 372 207
3 372 211 207
3 374 207 211
3 552 277 298
3 374 211 62
3 56 374 62
3 503 56 414
3 299 557 209
3 373 555 55
3 414 56 415
3 299 298 300
3 557 210 209
3 62 61 56
3 300 557 299
3 56 61 215
3 300 421 85
3 215 61 83
3 84 419 281
3 217 278 86
3 279 219 218
3 280 218 219
3 421 280 85
3 214 417 216
3 84 86 278
3 217 86 83
3 215 83 282
3 279 215 282
3 280 219 94
3 422 214 220
3 424 83 86
3 282 219 279
3 505 282 506
3 87 226 224
3 228 225 283
3 94 506 559
3 224 226 229
3 227 224 229
3 225 96 283
3 506 228 559
3 94 559 509
3 94 509 223
3 96 434 283
3 229 437 227
3 512 226 223
3 284 512 223
3 434 561 237
3 443 228 440
3 563 559 235
3 284 563 286
3 519 440 514
3 519 240 440
3 240 234 440
3 240 515 234
3 563 287 286
3 390 236 242
3 134 390 242
3 234 515 452
3 447 240 241
3 451 520 514
3 134 242 304
3 244 119 577
3 451 244 565
3 449 520 565
3 449 565 303
3 241 449 303
3 447 241 452
3 289 134 456
3 119 578 577
3 565 520 451
3 250 242 521
3 304 242 250
3 579 565 244
3 304 455 134
3 579 244 577
3 579 577 580
3 530 579 580
3 581 578 308
3 567 258 526
3 580 581 309
3 530 580 259
3 458 251 257
3 309 568 580
3 568 259 580
3 259 569 459
3 571 459 569
3 571 255 459
3 256 251 248
3 256 257 251
3 257 260 458
3 258 567 260
3 465 258 260
3 571 569 534
3 255 292 532
3 573 463 257
3 573 257 531
3 537 260 476
3 292 262 532
3 263 305 574
3 534 261 266
3 532 262 531
3 573 531 264
3 476 573 264
3 263 574 582
3 266 261 263
3 480 534 266
3 262 264 531
3 305 310 541
3 488 478 582
3 263 582 478
3 265 485 262
3 575 574 294
3 542 496 270
3 294 542 270
3 488 294 270
3 478 488 295
3 268 486 307
3 306 267 271
3 269 485 265
3 540 479 269
3 540 269 272
3 268 307 267
3 267 307 271
3 491 306 271
3 497 269 265
3 493 272 269
3 496 293 583
3 491 550 306
3 499 269 273
3 549 271 548
3 296 498 550
3 311 500 274
3 397 275 553
3 220 212 422
3 227 437 285
3 546 576 312
3 208 276 403
3 311 301 500
3 419 302 281
3 289 584 564
3 119 313 578
3 546 312 314
3 546 314 548
3 206 276 399
3 302 380 281
3 315 433 96
3 433 315 562
3 290 258 466
3 310 293 541
3 316 272 495
3 314 317 548
3 275 401 553
3 277 205 398
3 308 309 581
3 526 258 290
3 495 551 316
3 318 312 576
3 275 319 401
3 500 301 555
3 555 301 419
3 119 118 320
3 310 305 572
3 318 576 583
3 401 319 207
3 568 309 572
3 466 291 290
3 291 539 272
3 542 293 496
3 297 499 273
3 321 432 227
3 313 308 578
3 583 293 318
3 316 551 322
3 296 549 323
3 319 324 207
3 207 324 501
3 276 205 277
3 274 501 324
3 321 227 285
3 297 322 551
3 391 325 285
3 326 289 327
3 327 289 290
3 291 328 290
3 316 328 272
3 318 293 329
3 330 316 322
3 331 311 274
3 205 332 275
3 333 205 276
3 212 334 405
3 301 335 302
3 336 212 220
3 428 337 220
3 321 285 338
3 325 391 584
3 309 339 572
3 548 340 549
3 549 340 323
3 323 341 296
3 341 297 296
3 405 334 206
3 320 313 119
3 312 342 314
3 329 312 318
3 343 322 297
3 337 428 432
3 344 320 118
3 328 291 272
3 548 317 340
3 562 344 118
3 327 290 328
3 310 572 339
3 317 345 340
3 346 315 96
3 289 326 584
3 293 347 329
3 348 206 334
3 314 345 317
3 336 220 337
3 329 342 312
3 309 308 339
3 341 343 297
3 302 346 96
3 276 206 348
3 325 338 285
3 349 347 293
3 343 330 322
3 348 350 276
3 333 332 205
3 350 333 276
3 336 334 212
3 337 432 321
3 562 315 344
3 342 351 314
3 345 314 351
3 352 319 275
3 331 353 311
3 324 331 274
3 332 352 275
3 311 353 301
3 302 335 346
3 325 584 326
3 348 354 350
3 333 350 354
3 355 332 333
3 348 334 336
3 301 356 335
3 357 336 337
3 315 346 344
3 313 320 308
3 358 326 327
3 358 327 359
3 359 327 328
3 359 328 316
3 310 339 293
3 293 339 349
3 360 359 316
3 360 316 330
3 361 343 341
3 362 330 343
3 362 360 330
3 347 342 329
3 353 331 363
3 319 352 324
3 352 332 364
3 355 364 332
3 354 355 333
3 357 354 348
3 301 353 356
3 346 365 344
3 326 338 325
3 344 366 320
3 308 320 366
3 308 366 367
3 308 367 339
3 368 351 342
3 340 341 323
3 340 361 341
3 361 362 343
3 331 324 363
3 324 364 363
3 324 352 364
3 357 348 336
3 356 365 335
3 335 365 346
3 326 358 338
3 351 340 345
3 337 321 338
3 339 367 349
3 367 347 349
3 368 340 351
3 344 365 366
3 368 342 347
3 353 363 356
3 363 364 356
3 355 369 364
3 355 354 369
3 354 357 369
3 369 370 364
3 356 364 365
3 369 357 337
3 365 364 370
3 370 369 338
3 369 337 338
3 365 370 366
3 370 338 358
3 367 366 370
3 370 358 362
3 362 358 359
3 362 359 360
3 361 370 362
3 367 370 368
3 370 340 368
3 370 361 340
3 367 368 347
3 384 387 96
3 488 270 489
3 292 267 543
3 251 528 524
