ply
format ascii 1.0
comment INFO-3111 Flatenator generated
comment TextureFile Dungeons_Texture_01.png
element vertex 95
property float x
property float y
property float z
property float nx
property float ny
property float nz
element face 100
property list uchar int vertex_indices
end_header
0.504311 0.418547 0.260777 0.721473 0.016522 0.692246 
0.260384 0.462128 0.264658 0.00581187 0.70966 0.70452 
0.34761 0.273758 0.265444 0.00473361 0.00109637 0.999988 
0.187263 0.462128 0.19854 -0.490884 0.870092 0.0444228 
0.006214 0.398182 0.193992 0.013065 0.716502 0.697463 
0.113583 0.217723 0.264721 -0.000651355 -0.00565524 0.999984 
-0.085468 0.460392 0.262432 0.0108544 0.303571 0.952747 
-0.25642 0.462128 0.264715 -0.0430484 0.928868 0.367901 
-0.393353 0.406194 0.264557 0.0106443 -0.0212706 0.999717 
0.475861 0.228431 0.227869 0.624152 -0.0167528 0.781124 
-0.504692 0.144418 0.263411 -0.553231 -0.00686747 0.833 
0.504326 0 0.262268 0.672571 0.191456 0.714837 
0.113506 0.000547 0.263054 -0.69991 -0.550887 0.454587 
0.021076 0.06205 0.195275 -0.164768 -0.796231 0.582124 
-0.504692 9.6e-05 0.260952 -0.577324 -0.586197 0.568392 
-0.086334 0.000669 0.262199 4.65977e-05 -0.834959 0.550313 
-0.096878 0.462128 -0.149878 -0.00057999 0.999991 0.00411498 
0.504696 0.461656 0.230931 0.760476 0.365032 0.537055 
0.504658 0.199343 0.17419 0.875809 -0.0226681 0.482125 
-0.464405 0.002612 0.082754 -0.0634949 -0.996547 -0.0535017 
0.504288 9.6e-05 -0.118788 0.706246 -0.707967 0.000165456 
-0.484394 0.447741 0.153405 -0.707445 0.447196 0.5473 
0.499012 0.459999 0.051257 0.742265 0.556032 -0.373993 
0.377853 0.462128 -0.074379 0.00367764 0.999988 -0.00312746 
-0.034649 0.000812 -0.033691 0.426932 -0.900026 -0.0876524 
-0.504372 0.45701 0.082377 -0.585419 0.809015 0.0527227 
0.05109 0.393983 0.036062 0.142465 0.984838 0.0989788 
-0.504692 0.02888 0.100576 -1 0.000257046 -6.53841e-05 
0.142139 0.409135 0.041994 -0.374105 0.927221 0.017499 
0.209827 0 -0.265297 0.0224407 -0.44633 -0.894587 
0.189419 0.461443 -0.066347 -0.516168 0.854989 0.0506478 
0.46685 0.409586 -0.059826 0.620885 0.776396 -0.108215 
-0.504684 0.461544 -0.05791 -0.10576 0.991441 -0.076542 
-0.459488 0.017992 -0.024343 -0.234307 -0.972163 -5.35911e-05 
-0.17149 0 -0.265286 0.0622399 -0.888139 -0.45534 
-0.504684 0.354071 -0.224364 -0.670054 0.016697 -0.742125 
0.104641 0.064604 -0.191422 0.120438 -0.671203 -0.731424 
-0.504578 0 -0.099071 0.155576 -0.977636 0.141509 
0.504696 0.363569 -0.098878 0.716569 0.687798 -0.116028 
-0.338051 0.461236 -0.265335 -0.0850872 0.786224 -0.612055 
0.103664 0.396388 -0.190744 -0.132948 0.613014 -0.778806 
-0.002792 0.461475 -0.26534 0.546674 0.806105 -0.226587 
0.504448 0.113095 -0.22402 0.999997 -0.00241477 -4.3135e-06 
0.209499 0.461125 -0.265445 -0.68217 0.504376 -0.529386 
0.504696 0.187765 -0.257599 0.712347 -0.00541748 -0.701806 
-0.504494 0 -0.265205 -0.40754 -0.407273 -0.817337 
0.503052 0.461284 -0.265445 0.672122 0.681429 0.289665 
-0.432945 0.428873 -0.264356 -0.314545 0.914616 -0.254045 
0.025169 0.084581 -0.241618 0.437987 -0.711091 -0.550016 
0.005859 0.247081 -0.264112 0.567818 -0.01113 -0.823079 
-0.059669 0.025987 -0.252386 0.574651 -0.802967 -0.158177 
0.449352 0.079867 -0.259282 0.545524 -0.559105 -0.624344 
0.260384 0.462128 0.264658 -0.188778 0.60088 0.776728 
0.113583 0.217723 0.264721 -0.49936 0.0526933 0.864791 
0.504311 0.418547 0.260777 0.68014 0.0386377 0.732063 
0.34761 0.273758 0.265444 0.278446 -0.00831034 0.960416 
0.504326 0 0.262268 0.406973 -0.415443 0.813498 
0.113506 0.000547 0.263054 0.000190292 -0.894982 0.446102 
-0.085468 0.460392 0.262432 0.654463 0.655635 0.376592 
-0.086334 0.000669 0.262199 0.650367 -0.320189 0.688841 
-0.504692 0.144418 0.263411 -0.838271 0.234603 0.492202 
-0.393353 0.406194 0.264557 -0.526934 0.558728 0.64044 
-0.25642 0.462128 0.264715 -0.316699 0.773767 0.548621 
0.499012 0.459999 0.051257 0.889609 0.456676 -0.00653794 
0.504658 0.199343 0.17419 0.999983 0.00573747 -0.000801887 
0.504696 0.461656 0.230931 0.0150375 0.999876 -0.00470164 
-0.484394 0.447741 0.153405 -0.143393 0.975368 0.167616 
-0.504372 0.45701 0.082377 -0.985677 0.0831708 0.146713 
-0.504692 9.6e-05 0.260952 -0.584259 -0.798803 -0.143368 
-0.504692 0.02888 0.100576 -0.365355 -0.929428 -0.0517661 
-0.464405 0.002612 0.082754 -0.584065 -0.799103 -0.142487 
-0.096878 0.462128 -0.149878 0.327335 0.941129 0.0844258 
0.187263 0.462128 0.19854 -0.00187338 0.999997 -0.00130825 
0.377853 0.462128 -0.074379 0.517839 0.849747 -0.0988616 
0.189419 0.461443 -0.066347 -0.00373302 0.99999 -0.00229445 
-0.504684 0.461544 -0.05791 -0.939407 0.287991 -0.185945 
-0.504684 0.354071 -0.224364 -1 -5.85331e-05 -8.40709e-05 
0.209827 0 -0.265297 -0.496364 -0.618086 -0.609584 
-0.459488 0.017992 -0.024343 -0.0481682 -0.998694 0.0170006 
-0.504578 0 -0.099071 -0.692663 -0.718294 0.0653666 
0.504696 0.363569 -0.098878 0.99992 0.0120196 0.00400252 
-0.034649 0.000812 -0.033691 0.123414 -0.989922 -0.0694501 
0.209499 0.461125 -0.265445 0.00783841 0.700838 -0.713277 
0.503052 0.461284 -0.265445 0.579403 0.566478 -0.585999 
-0.432945 0.428873 -0.264356 -0.448523 -0.0470254 -0.892533 
-0.059669 0.025987 -0.252386 0.230622 -0.620143 -0.749824 
-0.002792 0.461475 -0.26534 -0.000511712 0.702864 -0.711324 
0.504288 9.6e-05 -0.118788 0.4817 -0.667762 -0.567503 
0.005859 0.247081 -0.264112 0.0426818 -0.029539 -0.998652 
-0.338051 0.461236 -0.265335 -0.0587519 -0.275482 -0.959509 
-0.504494 0 -0.265205 -0.302913 0.109043 -0.946759 
0.504696 0.187765 -0.257599 0.639478 -0.317082 -0.700376 
0.504448 0.113095 -0.22402 0.654971 -0.4179 -0.629582 
0.449352 0.079867 -0.259282 0.0240122 0.0032769 -0.999706 
0.025169 0.084581 -0.241618 0.138592 -0.0454055 -0.989308 
3 0 1 2
3 3 4 52
3 1 5 2
3 6 7 8
3 52 4 53
3 54 55 9
3 8 10 6
3 9 55 11
3 2 5 56
3 12 53 13
3 56 5 57
3 10 14 15
3 6 10 15
3 16 7 6
3 17 52 54
3 58 59 4
3 54 9 18
3 18 9 11
3 14 19 15
3 20 56 57
3 21 60 61
3 62 21 61
3 17 54 22
3 63 0 64
3 59 13 4
3 53 4 13
3 23 1 65
3 59 24 13
3 25 66 7
3 16 25 7
3 4 26 58
3 10 27 14
3 21 67 60
3 65 63 23
3 64 56 20
3 4 3 28
3 68 69 70
3 26 71 58
3 29 20 57
3 30 28 3
3 26 4 28
3 23 72 1
3 31 73 22
3 23 74 72
3 16 32 25
3 10 25 27
3 30 26 28
3 70 69 33
3 19 34 15
3 67 75 35
3 27 25 76
3 13 77 12
3 24 36 13
3 78 34 19
3 69 37 33
3 38 31 22
3 16 39 32
3 76 79 27
3 80 63 64
3 26 40 41
3 40 26 30
3 26 41 71
3 42 64 20
3 43 40 30
3 44 80 64
3 76 45 79
3 34 81 15
3 46 73 31
3 46 31 38
3 82 74 23
3 83 82 23
3 34 78 79
3 44 64 42
3 39 47 32
3 24 48 36
3 75 84 35
3 83 80 44
3 36 40 77
3 13 36 77
3 40 36 49
3 49 36 48
3 50 48 24
3 34 85 81
3 86 39 16
3 77 40 43
3 77 51 87
3 49 41 40
3 45 34 79
3 39 86 88
3 44 82 83
3 84 89 35
3 82 44 29
3 35 89 90
3 39 88 45
3 91 92 51
3 93 29 44
3 88 94 34
3 94 85 34
3 51 92 87
3 45 88 34
