ply
format ascii 1.0
comment VCGLIB generated
comment TextureFile Dungeons_Texture_01.png
element vertex 88
property float x
property float y
property float z
property float nx
property float ny
property float nz
property uchar red
property uchar green
property uchar blue
property uchar alpha
property float texture_u
property float texture_v
element face 100
property list uchar int vertex_indices
end_header
-0.543095 0.143574 0.247411 -0.6877165 0.6956974 0.2074876 97 95 95 255 0.201528 0.277604
-0.006138 0.143005 0.325087 0.1708854 0.7017125 0.6916631 97 95 95 255 0.201528 0.277604
0.063927 0.106629 0.303433 0.7621112 0.2596194 0.5931142 97 95 95 255 0.201528 0.277604
-0.473858 0.108323 0.325112 -0.2367273 0.4566477 0.857574 97 95 95 255 0.201528 0.277604
-0.290657 0.033181 0.31898 0.03288574 0.01981676 0.9992626 97 95 95 255 0.201528 0.277604
-0.350037 -0 0.324661 0.01836813 -0.7069399 0.7070352 97 95 95 255 0.201528 0.277604
-0.543034 -0 0.325006 -0.603969 -0.5194465 0.6044806 97 95 95 255 0.201528 0.277604
-0.172821 0.000573 0.323956 -0.00923048 -0.7095163 0.7046286 97 95 95 255 0.201528 0.277604
0.048939 -0 0.324375 0.51465 -0.600562 0.611932 97 95 95 255 0.201528 0.277604
0.074684 0.130009 0.256373 0.7789485 0.6193791 0.09802417 97 95 95 255 0.201528 0.277604
-0.279556 0.143797 0.325846 -0.01559361 0.7010029 0.712988 97 95 95 255 0.201528 0.277604
-0.543221 -0 0.196271 -0.6972282 -0.7107927 -0.0929875 97 95 95 255 0.201528 0.277604
0.35442 -0 0.237299 -0.06199039 -0.5660921 0.8220079 97 95 95 255 0.201528 0.277604
0.06842 0.029151 0.175217 0.9177029 -0.3966447 0.02223529 97 95 95 255 0.201528 0.277604
0.485176 0.062746 0.127339 0.6108575 0.1616431 0.7750643 97 95 95 255 0.201528 0.277604
-0.534367 0.145485 0.162969 -0.6052656 0.7827681 -0.1446643 97 95 95 255 0.201528 0.277604
0.356506 0.14463 0.228135 -0.01977236 0.6282559 0.7777555 97 95 95 255 0.201528 0.277604
0.052197 0.102812 0.116775 -0.02314517 0.9971737 -0.07147691 120 120 119 255 0.201528 0.302495
0.448059 0.134835 0.100868 0.2593394 0.8983594 0.3545328 97 95 95 255 0.201528 0.277604
-0.504436 0.003249 0.079936 -0.4500045 -0.8876168 0.09814479 120 120 119 255 0.201528 0.304075
0.045181 0.006249 0.058299 0.4491893 -0.8885447 0.09336674 97 95 95 255 0.201528 0.277604
0.155548 0.071389 0.023316 -0.8852603 0.04438932 0.4629728 97 95 95 255 0.201528 0.277604
0.092018 0.100736 -0.035477 0.8099635 0.5298135 0.251509 97 95 95 255 0.201528 0.277604
-0.524876 0.087198 0.096405 -0.9868632 0.1573957 0.03643653 97 95 95 255 0.201528 0.277604
-0.477287 0.136709 0.071076 -0.1533016 0.9839228 0.091622 97 95 95 255 0.201528 0.277604
0.075695 0.000595 0.038983 0.5512174 -0.5922244 0.5877326 97 95 95 255 0.201528 0.277604
-0.543247 0.143308 0.038025 -0.6762081 0.6861585 0.268196 97 95 95 255 0.201528 0.277604
-0.086823 0.145548 0.145465 0.1107951 0.9918853 -0.06235324 120 120 119 255 0.201528 0.302495
-0.543285 -0 0.029169 -0.6867203 -0.7038463 0.1817022 97 95 95 255 0.201528 0.277604
0.428474 0.000239 0.016481 0.05555015 -0.9980844 -0.02723482 120 120 119 255 0.201528 0.304075
0.209259 0.143961 -0.004957 -0.4063647 0.9057992 0.1199816 97 95 95 255 0.201528 0.277604
-0.543541 0.143207 -0.202532 -0.5778645 0.5756908 -0.5784918 97 95 95 255 0.201528 0.277604
-0.078777 0.135249 0.070168 0.1664806 0.9859473 -0.01386676 120 120 119 255 0.201528 0.302495
0.04372 0.125178 0.016429 0.3682712 0.9267459 0.07428633 97 95 95 255 0.201528 0.277604
-0.023212 0.145198 -0.003454 -0.07725279 0.9969937 -0.005961289 97 95 95 255 0.201528 0.277604
0.542053 0.144683 0.078247 0.7528161 0.6368113 0.1665512 97 95 95 255 0.201528 0.277604
0.290787 0 -0.173608 0.2343782 -0.9504621 -0.2041782 120 120 119 255 0.201528 0.304075
0.543537 0.00757 0.077643 0.8310853 -0.5523744 0.0646522 120 120 119 255 0.201528 0.304075
0.124702 0.000451 -0.128578 -0.002466678 -0.9834463 0.1811832 120 120 119 255 0.201528 0.304075
0.133671 0.107696 -0.135431 -0.05915942 0.8242432 0.5631371 97 95 95 255 0.201528 0.277604
-0.543236 0 -0.202151 -0.573842 -0.5822937 -0.5758814 120 120 119 255 0.201528 0.304075
0.283451 0.021958 -0.22381 0.7306505 -0.3811047 -0.5664884 97 95 95 255 0.201528 0.277604
0.394131 0.144083 -0.098452 0.529566 0.7116796 -0.4615971 120 120 119 255 0.201528 0.302495
-0.215054 0.143552 -0.110173 0.03071809 0.9529371 -0.3016079 120 120 119 255 0.201528 0.302495
0.063484 0.144407 -0.180455 -0.139226 0.8353011 -0.5318724 97 95 95 255 0.201528 0.277604
-0.372807 0.143303 -0.202332 0.08892425 0.6912892 -0.7170856 120 120 119 255 0.201528 0.302495
-0.289738 0.080796 -0.198258 0.1754177 0.3055257 -0.9358861 97 95 95 255 0.201528 0.277604
-0.204731 0.059815 -0.195239 0.02316836 0.3773655 -0.9257746 97 95 95 255 0.201528 0.277604
0.094997 0 -0.158827 -0.1955827 -0.8835659 -0.4255101 120 120 119 255 0.201528 0.304075
-0.24699 0 -0.202256 0.03055471 -0.6787525 -0.7337312 120 120 119 255 0.201528 0.304075
0.203934 0.14368 -0.325847 -0.004277438 0.5462313 -0.8376235 97 95 95 255 0.201528 0.277604
0.197918 0.001476 -0.324786 -0.0711347 -0.5631441 -0.8232914 120 120 119 255 0.201528 0.304075
-0.350037 -0 0.324661 0.01836813 -0.7069399 0.7070352 120 120 119 255 0.201528 0.304075
-0.543034 -0 0.325006 -0.603969 -0.5194465 0.6044806 120 120 119 255 0.201528 0.304075
-0.279556 0.143797 0.325846 -0.01559361 0.7010029 0.712988 120 120 119 255 0.201528 0.302495
-0.006138 0.143005 0.325087 0.1708854 0.7017125 0.6916631 120 120 119 255 0.201528 0.302495
0.074684 0.130009 0.256373 0.7789485 0.6193791 0.09802417 120 120 119 255 0.201528 0.302495
-0.543221 -0 0.196271 -0.6972282 -0.7107927 -0.0929875 120 120 119 255 0.201528 0.304075
-0.477287 0.136709 0.071076 -0.1533016 0.9839228 0.091622 120 120 119 255 0.201528 0.302495
-0.543095 0.143574 0.247411 -0.6877165 0.6956974 0.2074876 120 120 119 255 0.201528 0.302495
0.048939 -0 0.324375 0.51465 -0.600562 0.611932 120 120 119 255 0.201528 0.304075
-0.172821 0.000573 0.323956 -0.00923048 -0.7095163 0.7046286 120 120 119 255 0.201528 0.304075
0.35442 -0 0.237299 -0.06199039 -0.5660921 0.8220079 120 120 119 255 0.201528 0.304075
0.543537 0.00757 0.077643 0.8310853 -0.5523744 0.0646522 97 95 95 255 0.201528 0.277604
-0.504436 0.003249 0.079936 -0.4500045 -0.8876168 0.09814479 97 95 95 255 0.201528 0.277604
0.052197 0.102812 0.116775 -0.02314517 0.9971737 -0.07147691 97 95 95 255 0.201528 0.277604
0.045181 0.006249 0.058299 0.4491893 -0.8885447 0.09336674 120 120 119 255 0.201528 0.304075
0.209259 0.143961 -0.004957 -0.4063647 0.9057992 0.1199816 120 120 119 255 0.201528 0.302495
0.356506 0.14463 0.228135 -0.01977236 0.6282559 0.7777555 120 120 119 255 0.201528 0.302495
0.448059 0.134835 0.100868 0.2593394 0.8983594 0.3545328 120 120 119 255 0.201528 0.302495
-0.078777 0.135249 0.070168 0.1664806 0.9859473 -0.01386676 97 95 95 255 0.201528 0.277604
0.542053 0.144683 0.078247 0.7528161 0.6368113 0.1665512 120 120 119 255 0.201528 0.302495
0.155548 0.071389 0.023316 -0.8852603 0.04438932 0.4629728 120 120 119 255 0.201528 0.304075
0.124702 0.000451 -0.128578 -0.002466678 -0.9834463 0.1811832 97 95 95 255 0.201528 0.277604
-0.543247 0.143308 0.038025 -0.6762081 0.6861585 0.268196 120 120 119 255 0.201528 0.302495
0.394131 0.144083 -0.098452 0.529566 0.7116796 -0.4615971 97 95 95 255 0.201528 0.277604
-0.543541 0.143207 -0.202532 -0.5778645 0.5756908 -0.5784918 120 120 119 255 0.201528 0.302495
-0.543285 -0 0.029169 -0.6867203 -0.7038463 0.1817022 120 120 119 255 0.201528 0.304075
0.133671 0.107696 -0.135431 -0.05915942 0.8242432 0.5631371 120 120 119 255 0.201528 0.302495
0.063484 0.144407 -0.180455 -0.139226 0.8353011 -0.5318724 120 120 119 255 0.201528 0.302495
-0.24699 0 -0.202256 0.03055471 -0.6787525 -0.7337312 97 95 95 255 0.201528 0.277604
0.094997 0 -0.158827 -0.1955827 -0.8835659 -0.4255101 97 95 95 255 0.201528 0.277604
0.290787 0 -0.173608 0.2343782 -0.9504621 -0.2041782 97 95 95 255 0.201528 0.277604
-0.215054 0.143552 -0.110173 0.03071809 0.9529371 -0.3016079 97 95 95 255 0.201528 0.277604
-0.543236 0 -0.202151 -0.573842 -0.5822937 -0.5758814 97 95 95 255 0.201528 0.277604
-0.372807 0.143303 -0.202332 0.08892425 0.6912892 -0.7170856 97 95 95 255 0.201528 0.277604
0.197918 0.001476 -0.324786 -0.0711347 -0.5631441 -0.8232914 97 95 95 255 0.201528 0.277604
0.203934 0.14368 -0.325847 -0.004277438 0.5462313 -0.8376235 120 120 119 255 0.201528 0.302495
3 3 0 6 
3 10 3 6 
3 10 6 5 
3 1 8 2 
3 10 5 4 
3 10 4 7 
3 10 7 8 
3 10 8 1 
3 19 52 53 
3 9 1 2 
3 9 2 8 
3 10 0 3 
3 27 54 55 
3 5 7 4 
3 6 0 11 
3 27 55 56 
3 12 14 16 
3 57 19 53 
3 9 8 13 
3 24 15 0 
3 58 59 54 
3 17 27 56 
3 0 15 11 
3 49 60 61 
3 29 37 62 
3 16 14 18 
3 14 12 63 
3 49 61 52 
3 12 16 21 
3 15 23 11 
3 11 23 64 
3 20 13 8 
3 24 23 15 
3 16 30 21 
3 65 9 22 
3 22 9 13 
3 14 35 18 
3 49 66 60 
3 22 13 20 
3 32 27 17 
3 42 67 68 
3 69 42 68 
3 35 14 63 
3 22 20 25 
3 33 70 65 
3 24 26 23 
3 23 28 64 
3 19 49 52 
3 38 29 62 
3 71 42 69 
3 33 65 22 
3 23 26 28 
3 62 72 38 
3 34 70 33 
3 49 38 66 
3 73 25 20 
3 58 43 74 
3 27 58 54 
3 26 31 28 
3 75 35 63 
3 22 25 73 
3 43 76 74 
3 38 36 29 
3 22 34 33 
3 36 37 29 
3 21 30 39 
3 39 22 73 
3 39 34 22 
3 21 39 73 
3 32 43 27 
3 48 36 38 
3 41 75 63 
3 40 19 77 
3 39 44 34 
3 42 78 67 
3 79 43 32 
3 80 81 73 
3 44 70 34 
3 82 41 63 
3 75 44 39 
3 50 75 41 
3 45 76 43 
3 48 51 36 
3 47 83 44 
3 31 84 28 
3 46 85 83 
3 47 46 83 
3 40 49 19 
3 86 41 82 
3 31 85 84 
3 44 80 47 
3 47 80 46 
3 44 81 80 
3 85 46 84 
3 46 80 84 
3 42 87 79 
3 41 86 50 
3 44 50 81 
3 81 50 86 
3 27 43 58 
