ply
format ascii 1.0
comment INFO-3111 Flatenator generated
comment TextureFile Dungeons_Texture_01.png
element vertex 327
property float x
property float y
property float z
element face 498
property list uchar int vertex_indices
end_header
1.09238 0.042619 4.99785 
0.00415 0.030964 4.99605 
0.42832 -1e-06 5 
0 -1e-06 5 
2.08848 0.042619 4.99784 
1.36582 -1e-06 5 
3.4752 0.041084 4.99724 
2.44004 0.042619 4.99784 
2.5377 -1e-06 5 
4.17832 -1e-06 5 
4.74473 0.042004 4.9972 
5 -1e-06 5 
4.99826 0.042544 4.99825 
0.58469 0.029484 4.89402 
2.61689 0.045444 4.84205 
4.76355 0.045059 4.82368 
1.11122 0.044519 4.84191 
3.90513 0.045444 4.84205 
-0.00058 0.042619 4.68613 
5 -1e-06 3.39707 
2.26442 0.045444 4.84205 
5 -1e-06 4.15879 
0.466919 0.045024 4.84191 
0 0 1.67832 
0.175249 0.044329 4.84248 
3.45628 0.045439 4.84206 
0.32716 0.098894 4.78664 
0.183029 0.081779 4.78672 
0.80308 0.078949 4.8066 
0.981649 0.099769 4.76738 
1.31959 0.098269 4.746 
1.21364 0.095219 4.81909 
1.89101 0.098534 4.8052 
2.71169 0.082624 4.8096 
2.13963 0.091044 4.78457 
4.33518 0.092434 4.81569 
3.87183 0.094944 4.82382 
4.73279 0.089529 4.81354 
3.33628 0.079104 4.81547 
3.39036 0.100784 4.74793 
0.57103 0.100744 4.74788 
0 -1e-06 4.21738 
0.17915 0.099864 4.51089 
1.10577 0.101034 4.65043 
2.01632 0.101034 4.64996 
4.47755 0.100834 3.69159 
4.54928 0.101034 4.16331 
0.83835 0.097314 4.57455 
0.176939 0.053894 4.61027 
4.99785 0.042619 4.3541 
4.7464 0.053949 4.18787 
0.411589 0.084914 4.41203 
0.208719 0.085929 4.35648 
4.74469 0.099874 4.3007 
-0.000221 0.042639 4.19785 
0.82053 0.101034 3.81489 
0.2183 0.074519 4.24025 
0.21464 0.100264 4.04539 
1.8553 0.099169 4.02503 
0.15621 0.045699 4.25693 
0.410179 0.101034 3.94652 
4.74474 0.099964 3.77392 
0.081619 0.038859 3.92293 
-0.000511 0.042589 4.00253 
4.76335 0.045569 3.65286 
4.60088 0.084934 3.7127 
0.232609 0.083909 3.98946 
0.1779 0.052134 3.90989 
0 -1e-06 3.08457 
0.355539 0.101034 3.73253 
4.9902 0.032734 3.59232 
0.213869 0.101034 3.82985 
0.156219 0.045704 3.32039 
0.80286 0.092019 3.69189 
4.74151 0.080704 3.57747 
0.64212 0.101034 3.5784 
1.03452 0.095849 3.48094 
0.19548 0.100994 3.3021 
1.30196 0.092914 3.51747 
0.32744 0.10093 2.66 
4.53143 0.101034 3.49665 
1.65922 0.091154 3.36349 
4.19197 0.095419 3.32331 
0.220919 0.095129 3.07166 
1.92688 0.095539 3.344 
2.24785 0.098574 3.10723 
1.837 0.091354 3.24582 
4.74225 0.079989 3.1481 
1.51583 0.101034 3.22329 
4.03787 0.101034 3.12898 
4.67164 0.098685 2.91283 
4.7632 0.04465 2.34443 
4.99742 0.03988 2.9675 
5 0 2.30332 
3.69296 0.096315 2.97381 
4.56712 0.101035 1.82101 
4.88133 0.041275 2.69394 
3.05115 0.101035 2.73913 
3.58548 0.101034 3.05077 
2.23007 0.097675 2.93305 
0.149399 0.03274 2.94715 
2.01639 0.101035 2.8786 
-0.00057 0.04262 2.90878 
0.22072 0.09296 2.69681 
2.65769 0.09002 2.85534 
4.74129 0.09456 2.36951 
2.67593 0.096695 2.69502 
3.10375 0.08421 2.63952 
2.14054 0.101035 2.67657 
0.50057 0.097045 2.4442 
3.19363 0.100425 2.6197 
0.05724 0.04518 2.61582 
-0.00057 0.04262 2.12753 
0.19146 0.089865 2.57961 
0.17705 0.05374 2.32707 
3.08632 0.10092 2.18964 
3.10385 0.094155 2.52186 
3.17505 0.09451 2.2509 
0.28516 0.100565 2.25159 
0.874029 0.098625 1.91693 
4.9798 0.045085 2.22519 
0.20882 0.09362 2.03567 
0.15621 0.045705 2.01219 
4.99784 0.04262 1.46348 
3.19435 0.092125 1.93714 
5 0 1.60019 
4.74151 0.088665 1.93645 
3.15767 0.096855 1.66122 
1.48065 0.10093 1.45101 
3.58539 0.0999 1.27205 
1.05246 0.09989 1.27202 
4.74603 0.0518 1.27122 
1.23087 0.101035 1.35306 
4.17832 0 0 
0.35454 0.099865 1.27187 
3.05112 0.099885 1.27208 
4.56712 0.099815 1.27154 
3.30096 0.097095 1.48661 
0.155849 0.04556 1.26856 
0.1805 0.08259 1.32821 
2.24825 0.09508 1.28524 
1.83751 0.09258 1.30482 
4.72555 0.08557 1.29324 
4.99784 0.04262 0.682228 
1.65925 0.080405 1.27607 
4.78334 0.043215 1.22934 
2.01649 0.073845 1.2707 
1.44515 0.078795 1.28102 
1.28478 0.053845 1.26957 
5 0 0 
2.44358 0.053875 1.26948 
3.2802 0.045675 1.24983 
3.90675 0.05388 1.2695 
0.41003 0.05388 1.2695 
1.36581 0.034515 1.21117 
1.93158 0.045675 1.24983 
3.45567 0.04143 1.21456 
4.29538 0.04518 1.22906 
-0.00057 0.04262 0.877537 
1.32676 0.04518 1.15098 
3.51437 0.040135 1.06021 
4.82262 0.045315 1.01324 
0.506449 0.03876 1.08544 
1.77598 0.042675 1.11056 
2.53773 0.045595 1.03275 
0.11574 0.04518 1.01318 
0.89603 0.04513 1.03219 
1.46357 0.045585 1.03226 
0.778379 0.0456 1.03276 
4.02048 0.04536 1.03235 
0.349039 0.053865 1.01151 
2.36162 0.044815 1.03121 
1.7761 0.045305 1.03067 
4.13965 0.04513 1.0318 
3.11724 0.05398 1.01187 
3.50935 0.05387 1.01169 
4.09335 0.03884 0.916637 
2.11089 0.099915 1.01043 
1.71923 0.09754 1.00278 
2.34575 0.08328 0.97657 
4.68524 0.096095 0.994675 
4.34735 0.100945 0.963177 
0.33086 0.10014 1.01038 
0.13059 0.100205 1.01044 
0.75651 0.092405 0.990917 
1.55573 0.083365 0.953758 
3.39137 0.08634 0.979126 
3.09076 0.09112 0.996605 
4.15901 0.09269 0.959106 
4.80407 0.10035 0.985737 
1.02753 0.091145 0.990479 
0.957319 0.097975 0.95755 
1.34865 0.09895 0.954647 
2.55278 0.09096 0.999496 
3.7836 0.09353 0.995186 
3.48307 0.10102 0.884197 
4.01481 0.100395 0.886417 
2.36322 0.10019 0.88826 
1.52199 0.09748 0.725338 
2.53935 0.09994 0.866119 
0 0 0 
4.14034 0.09959 0.486748 
4.01481 0.100265 0.489929 
4.80098 0.054365 0.260197 
4.01149 0.049145 0.2593 
4.80582 0.100185 0.250786 
1.71821 0.099805 0.253857 
0.88821 0.100445 0.274307 
4.38927 0.101035 0.486755 
0.129099 0.100155 0.250839 
4.13795 0.04575 0.41523 
0.76376 0.096235 0.259499 
0.36972 0.10071 0.321449 
0.11582 0.04518 0.252319 
0.772299 0.05046 0.250317 
2.38057 0.04558 0.292236 
1.57968 0.09988 0.254967 
0.87731 0.04234 0.233788 
2.51926 0.045745 0.292217 
-0.00099 0.042545 -0.000992 
4.84047 0.038905 0.177227 
4.9798 0.045085 0.291595 
2.5395 0.10012 0.252838 
2.36293 0.10028 0.252567 
4.14038 0.09842 0.252338 
3.11581 0.08802 0.258186 
4.01467 0.100195 0.252945 
4.13959 0.043755 0.233818 
3.50808 0.10038 0.253418 
4.53515 0.08633 0.254257 
0.48938 0.09019 0.260818 
1.52198 0.058075 0.25605 
2.02986 0.045575 0.233696 
2.61052 0.062515 0.263405 
3.10336 0.053345 0.249146 
2.57868 0.032915 0.203487 
1.97164 0.03434 0.187748 
3.43606 0.03593 0.195408 
3.33847 0.03626 0.140549 
3.96279 0.03625 0.163857 
4.99837 0.042595 -0.001102 
0.799419 0.04517 0.135345 
1.6002 0.04518 0.135345 
2.44003 0.044545 0.076668 
4.74473 0.04484 0.057716 
1.58067 0.04262 -0.000572 
2.90879 0.04262 -0.000572 
3.49473 0.04262 -0.000572 
4.60801 0.03452 0.008938 
0.74082 0 0 
2.5377 0 0 
1.31959 0.098269 4.746 
1.21364 0.095219 4.81909 
2.13963 0.091044 4.78457 
1.89101 0.098534 4.8052 
3.39036 0.100784 4.74793 
2.71169 0.082624 4.8096 
3.87183 0.094944 4.82382 
4.33518 0.092434 4.81569 
4.73279 0.089529 4.81354 
0.57103 0.100744 4.74788 
0.17915 0.099864 4.51089 
0.32716 0.098894 4.78664 
0.981649 0.099769 4.76738 
0.80308 0.078949 4.8066 
0.208719 0.085929 4.35648 
4.74469 0.099874 4.3007 
0.2183 0.074519 4.24025 
0.21464 0.100264 4.04539 
4.74474 0.099964 3.77392 
0.232609 0.083909 3.98946 
0.213869 0.101034 3.82985 
4.74151 0.080704 3.57747 
0.19548 0.100994 3.3021 
4.74225 0.079989 3.1481 
0.220919 0.095129 3.07166 
0.22072 0.09296 2.69681 
4.74129 0.09456 2.36951 
0.19146 0.089865 2.57961 
0.20882 0.09362 2.03567 
4.74151 0.088665 1.93645 
0.1805 0.08259 1.32821 
4.72555 0.08557 1.29324 
1.83751 0.09258 1.30482 
2.24825 0.09508 1.28524 
1.44515 0.078795 1.28102 
1.23087 0.101035 1.35306 
1.05246 0.09989 1.27202 
0.35454 0.099865 1.27187 
3.05112 0.099885 1.27208 
3.58539 0.0999 1.27205 
4.56712 0.099815 1.27154 
1.65925 0.080405 1.27607 
4.01481 0.100395 0.886417 
3.48307 0.10102 0.884197 
3.7836 0.09353 0.995186 
1.34865 0.09895 0.954647 
0.957319 0.097975 0.95755 
1.55573 0.083365 0.953758 
2.55278 0.09096 0.999496 
3.09076 0.09112 0.996605 
4.34735 0.100945 0.963177 
4.15901 0.09269 0.959106 
2.53935 0.09994 0.866119 
1.71923 0.09754 1.00278 
4.01481 0.100265 0.489929 
4.14034 0.09959 0.486748 
2.36322 0.10019 0.88826 
4.68524 0.096095 0.994675 
4.80407 0.10035 0.985737 
0.33086 0.10014 1.01038 
0.13059 0.100205 1.01044 
0.88821 0.100445 0.274307 
0.75651 0.092405 0.990917 
4.80582 0.100185 0.250786 
0.76376 0.096235 0.259499 
0.129099 0.100155 0.250839 
2.36293 0.10028 0.252567 
2.5395 0.10012 0.252838 
4.01467 0.100195 0.252945 
4.14038 0.09842 0.252338 
0.36972 0.10071 0.321449 
1.57968 0.09988 0.254967 
3.11581 0.08802 0.258186 
3.50808 0.10038 0.253418 
4.53515 0.08633 0.254257 
1.71821 0.099805 0.253857 
3 0 1 2
3 1 3 2
3 4 0 5
3 6 7 8
3 4 5 8
3 7 4 8
3 6 8 9
3 6 9 10
3 10 11 12
3 5 0 2
3 11 10 9
3 13 1 0
3 6 14 7
3 12 15 10
3 16 13 0
3 17 6 10
3 1 18 3
3 8 19 9
3 7 20 4
3 9 21 11
3 22 1 13
3 14 20 7
3 15 17 10
3 5 23 8
3 22 24 1
3 16 22 13
3 16 0 4
3 20 16 4
3 17 25 6
3 12 11 21
3 25 14 6
3 23 5 2
3 26 27 24
3 28 26 22
3 29 28 16
3 30 31 32
3 33 34 20
3 33 20 14
3 31 29 16
3 32 16 20
3 34 32 20
3 35 36 17
3 35 15 37
3 26 24 22
3 32 31 16
3 38 33 25
3 36 38 17
3 35 17 15
3 18 1 24
3 22 16 28
3 25 33 14
3 25 17 38
3 38 39 33
3 36 39 38
3 40 26 28
3 18 41 3
3 26 42 27
3 251 43 252
3 253 44 254
3 255 44 256
3 45 257 258
3 46 258 259
3 41 2 3
3 23 19 8
3 260 261 262
3 43 263 252
3 44 253 256
3 263 47 264
3 46 45 258
3 42 48 27
3 27 48 24
3 12 49 15
3 45 44 255
3 45 255 257
3 37 15 50
3 51 260 264
3 47 51 264
3 43 47 263
3 52 261 260
3 51 52 260
3 53 46 259
3 54 18 24
3 18 54 41
3 55 43 251
3 50 15 49
3 51 56 52
3 254 55 251
3 49 12 21
3 43 57 47
3 48 54 24
3 58 55 254
3 265 48 42
3 47 56 51
3 266 37 50
3 48 265 59
3 59 54 48
3 57 56 47
3 44 58 254
3 265 267 59
3 19 21 9
3 60 57 43
3 61 266 50
3 62 54 59
3 267 268 59
3 62 63 54
3 49 64 50
3 65 45 46
3 54 63 41
3 53 65 46
3 268 66 59
3 66 67 59
3 63 68 41
3 53 269 65
3 67 62 59
3 60 270 57
3 60 69 270
3 55 60 43
3 70 49 21
3 66 71 67
3 69 271 270
3 72 62 67
3 73 60 55
3 61 50 64
3 70 64 49
3 68 2 41
3 73 69 60
3 74 65 269
3 70 21 19
3 75 69 73
3 64 272 61
3 76 73 55
3 69 77 271
3 58 78 55
3 71 273 67
3 79 69 75
3 78 76 55
3 80 45 65
3 74 80 65
3 76 75 73
3 81 78 58
3 80 82 45
3 69 83 77
3 84 81 58
3 273 72 67
3 76 79 75
3 85 58 44
3 82 44 45
3 86 81 84
3 87 80 74
3 274 272 64
3 72 63 62
3 88 76 78
3 81 88 78
3 79 83 69
3 89 82 80
3 88 79 76
3 85 84 58
3 90 80 87
3 274 64 91
3 88 81 86
3 92 19 93
3 89 94 82
3 95 89 80
3 90 95 80
3 96 64 70
3 97 44 98
3 82 98 44
3 97 85 44
3 94 98 82
3 273 275 72
3 70 19 92
3 99 86 84
3 85 99 84
3 275 100 72
3 86 101 88
3 72 102 63
3 92 96 70
3 99 101 86
3 103 100 275
3 95 94 89
3 79 276 83
3 100 102 72
3 63 102 68
3 96 91 64
3 104 85 97
3 104 99 85
3 105 274 91
3 106 99 104
3 94 107 98
3 108 101 99
3 277 90 87
3 88 109 79
3 106 108 99
3 107 97 98
3 110 94 95
3 111 112 102
3 102 112 68
3 107 104 97
3 100 111 102
3 68 23 2
3 93 19 23
3 101 108 88
3 106 104 107
3 103 113 100
3 110 107 94
3 113 114 100
3 114 111 100
3 79 109 276
3 109 278 276
3 115 108 106
3 116 106 107
3 110 116 107
3 117 116 110
3 116 115 106
3 118 278 109
3 119 118 109
3 95 117 110
3 277 95 90
3 120 96 92
3 117 115 116
3 120 92 93
3 118 121 278
3 112 23 68
3 114 122 111
3 96 120 91
3 123 120 93
3 124 115 117
3 113 279 114
3 122 112 111
3 114 279 122
3 88 119 109
3 123 93 125
3 95 124 117
3 126 105 91
3 280 95 277
3 124 127 115
3 123 91 120
3 88 128 119
3 129 124 95
3 130 118 119
3 131 91 123
3 127 108 115
3 132 130 119
3 133 93 23
3 134 121 118
3 132 119 128
3 127 135 108
3 280 136 95
3 130 134 118
3 137 127 124
3 126 91 131
3 138 112 122
3 134 139 121
3 88 108 140
3 129 137 124
3 141 128 88
3 279 281 122
3 133 125 93
3 135 127 137
3 142 136 280
3 140 141 88
3 135 140 108
3 282 126 131
3 122 281 138
3 123 125 143
3 144 128 141
3 123 145 131
3 146 283 284
3 147 132 128
3 144 147 128
3 136 129 95
3 285 148 286
3 129 135 137
3 133 149 125
3 148 287 286
3 143 125 149
3 281 288 138
3 288 287 148
3 284 289 150
3 289 290 151
3 291 152 290
3 291 131 152
3 291 282 131
3 150 289 151
3 290 152 151
3 285 292 148
3 283 146 292
3 288 153 138
3 288 148 153
3 146 284 150
3 154 148 292
3 155 154 292
3 155 292 146
3 155 146 150
3 156 151 152
3 157 152 131
3 145 157 131
3 158 112 138
3 159 148 154
3 159 154 155
3 160 156 152
3 157 160 152
3 112 158 23
3 161 157 145
3 153 162 138
3 123 161 145
3 163 159 155
3 164 155 150
3 164 150 151
3 165 158 138
3 162 165 138
3 166 153 148
3 159 166 148
3 167 159 163
3 153 168 162
3 169 160 157
3 170 165 162
3 167 166 159
3 171 172 163
3 171 163 155
3 160 151 156
3 173 169 157
3 173 157 161
3 166 168 153
3 172 167 163
3 174 164 151
3 169 175 160
3 176 169 173
3 143 161 123
3 168 170 162
3 164 171 155
3 174 151 160
3 177 178 172
3 177 172 179
3 180 181 161
3 182 183 165
3 184 182 170
3 184 170 168
3 178 185 172
3 186 187 174
3 181 188 173
3 189 180 161
3 170 182 165
3 190 191 166
3 185 192 167
3 172 185 167
3 179 172 171
3 187 193 174
3 194 186 174
3 169 194 175
3 193 164 174
3 181 173 161
3 190 166 167
3 192 190 167
3 194 174 175
3 160 175 174
3 192 191 190
3 195 187 186
3 195 186 194
3 196 194 169
3 197 177 179
3 293 294 295
3 197 179 171
3 296 198 297
3 198 296 298
3 178 177 197
3 199 299 300
3 294 199 300
3 158 200 23
3 301 201 302
3 202 196 169
3 193 303 164
3 203 189 161
3 304 198 298
3 305 199 294
3 202 169 204
3 305 294 293
3 188 306 173
3 205 189 203
3 304 307 206
3 207 297 198
3 208 308 309
3 310 209 311
3 208 301 308
3 191 312 166
3 306 210 173
3 211 310 313
3 314 208 309
3 211 212 310
3 213 158 165
3 176 204 169
3 210 176 173
3 143 203 161
3 214 168 166
3 315 184 168
3 212 209 310
3 316 213 183
3 164 215 171
3 210 204 176
3 198 216 207
3 312 217 166
3 218 215 164
3 183 213 165
3 219 200 158
3 208 201 301
3 143 220 203
3 221 143 149
3 303 222 164
3 213 219 158
3 223 206 307
3 208 224 201
3 305 225 199
3 206 198 304
3 226 202 204
3 315 168 214
3 197 171 317
3 164 222 218
3 217 214 166
3 318 199 225
3 227 204 210
3 206 216 198
3 319 228 305
3 229 208 314
3 306 320 210
3 227 210 320
3 228 225 305
3 229 224 208
3 215 317 171
3 221 220 143
3 230 316 321
3 230 321 315
3 312 231 217
3 312 322 231
3 317 215 232
3 218 222 233
3 323 324 234
3 324 226 204
3 205 203 325
3 322 326 232
3 326 317 232
3 222 323 233
3 316 230 213
3 315 214 230
3 322 232 231
3 323 234 233
3 233 235 218
3 234 324 204
3 320 325 227
3 214 213 230
3 236 231 232
3 235 215 218
3 235 233 234
3 237 234 204
3 203 227 325
3 235 232 215
3 238 234 237
3 239 237 204
3 227 239 204
3 220 227 203
3 240 220 221
3 240 221 149
3 241 214 217
3 236 217 231
3 235 236 232
3 238 235 234
3 242 217 236
3 243 236 235
3 239 238 237
3 220 244 227
3 244 220 240
3 242 241 217
3 243 235 238
3 244 239 227
3 243 242 236
3 219 213 214
3 219 214 241
3 245 242 243
3 246 243 238
3 219 241 245
3 239 247 238
3 244 248 239
3 246 245 243
3 247 246 238
3 249 23 200
3 249 250 23
3 250 133 23
3 245 241 242
3 248 247 239
3 240 248 244
3 219 245 249
3 246 247 250
3 247 248 133
3 133 250 247
3 219 249 200
3 249 245 250
3 245 246 250
3 133 248 149
3 248 240 149
