ply
format ascii 1.0
comment INFO-3111 Flatenator generated
comment TextureFile Dungeons_Texture_01.png
element vertex 20
property float x
property float y
property float z
element face 36
property list uchar int vertex_indices
end_header
0.307379 -0.10058 0.09079 
0.307379 -0.05029 0.181581 
0.153688 -0.10058 0.181581 
-0.307381 0.10058 0.09079 
-0.307381 0.05029 0.181581 
-0.15369 0.10058 0.181581 
0.307379 0.05029 0.181581 
0.307379 0.10058 -0.032031 
0.153688 0.10058 0.181581 
-0.307381 0.05029 -0.18158 
-0.307381 0.10058 -0.074544 
-0.05006 0.10058 -0.18158 
-0.307381 -0.10058 0.181581 
0.307379 0.10058 -0.18158 
-0.307381 -0.10058 -0.090789 
-0.307381 -0.05029 -0.18158 
-0.15369 -0.10058 -0.18158 
0.307379 -0.05029 -0.18158 
0.307379 -0.10058 -0.090789 
-0.042452 -0.10058 -0.18158 
3 0 1 2
3 3 4 5
3 6 7 8
3 9 10 11
3 8 5 2
3 11 10 5
3 14 15 16
3 17 18 19
3 10 9 14
3 7 6 0
3 2 12 19
3 19 16 11
3 4 12 5
3 12 2 5
3 2 1 6
3 6 8 2
3 10 3 5
3 5 8 11
3 8 7 11
3 7 13 11
3 9 15 14
3 14 12 3
3 12 4 3
3 3 10 14
3 6 1 0
3 0 18 7
3 18 17 7
3 17 13 7
3 12 14 16
3 16 19 12
3 19 18 2
3 18 0 2
3 15 9 16
3 9 11 16
3 11 13 17
3 17 19 11
