ply
format ascii 1.0
comment INFO-3111 Flatenator generated
comment TextureFile Dungeons_Texture_01.png
element vertex 399
property float x
property float y
property float z
property float nx
property float ny
property float nz
element face 502
property list uchar int vertex_indices
end_header
-0.408283 3.00218 0.315957 -0.348234 -0.66314 -0.662554 
0.366908 2.93308 0.314931 0.223493 -0.403002 -0.887491 
0.410591 2.98253 0.275034 -0.0531751 -0.902132 -0.428171 
0.644148 2.89051 0.316398 -0.232581 -0.634447 -0.737146 
0.218896 3.00517 0.31758 -0.302278 -0.672699 -0.675355 
1.09219 2.74418 0.316427 -0.331153 -0.561929 -0.758006 
0.182338 2.69407 0.317347 -0.0988292 0.715164 -0.691934 
-0.208552 2.69621 0.308103 0.102803 0.719524 -0.686817 
-0.901544 2.55715 0.314762 0.0738072 0.615578 -0.784612 
-0.513081 2.68388 0.316957 -0.383272 0.61175 -0.692 
0.823723 2.56782 0.315147 -0.0469763 0.498694 -0.865504 
-0.91327 2.52975 0.248525 -0.274333 0.916792 -0.290231 
-1.00378 2.49025 0.315626 -0.558026 0.30342 -0.772362 
1.52203 2.33317 0.317059 -0.64671 -0.35644 -0.674327 
1.23442 2.16973 0.316152 0.334052 0.68464 -0.647825 
-1.17406 2.34442 0.293401 -0.473473 0.593742 -0.65061 
-1.34319 2.30297 0.317029 -0.0453421 0.0158172 -0.998846 
1.4667 2.20481 0.315779 -0.0928159 0.158801 -0.982938 
-1.57249 2.1498 0.316864 0.573125 -0.427156 -0.699332 
1.51978 2.1606 0.309587 -0.235492 -0.28911 -0.927879 
1.2656 2.10826 0.316762 0.681888 -0.312618 -0.661286 
1.61325 2.16416 0.248271 -0.847477 -0.445758 -0.288239 
1.57225 2.09995 0.31641 -0.47544 -0.156872 -0.865649 
-1.34699 2.11124 0.315079 -0.601965 0.00920922 -0.798469 
1.62214 1.98262 0.235463 -0.993853 -0.0434713 -0.101814 
1.61519 1.84581 0.31602 -0.684732 0.00205851 -0.728792 
-1.38031 1.8763 0.315266 -0.46118 0.0633385 -0.885043 
1.41461 1.71979 0.316347 0.166888 0.220131 -0.961088 
-1.39063 1.65402 0.312447 -0.426176 0.481483 -0.765865 
1.61338 1.6722 0.305594 -0.671593 0.316704 -0.669822 
-1.35164 1.58254 0.314088 -0.613109 -0.452241 -0.647747 
-1.64265 1.05922 0.315698 0.62035 -0.443764 -0.646714 
1.33991 1.08079 0.271344 0.735479 0.233769 -0.635943 
1.62385 1.05931 0.315753 -0.592922 -0.452009 -0.666432 
1.62547 0.594492 0.315753 -0.651551 0.32473 -0.685589 
-1.32612 0.563133 0.234937 -0.933547 0.198764 -0.2983 
-1.3494 1.05134 0.316292 -0.633003 -0.326777 -0.701801 
-1.40131 0.565173 0.314096 -0.273593 0.364834 -0.889968 
1.59502 0.526024 0.25708 -0.787685 0.163188 -0.594073 
-1.32213 0.484756 0.313092 -0.618443 -0.448502 -0.645271 
1.38384 0.485634 0.314944 -0.0231418 -0.470626 -0.882029 
1.62586 0.381145 0.305793 -0.741421 -0.19745 -0.641334 
-1.6426 0.486459 0.314986 0.614048 -0.384244 -0.689421 
1.62553 0.318968 0.315571 -0.688365 -0.0333199 -0.724599 
1.62551 0.281558 0.315541 -0.69363 6.28208e-05 -0.720331 
-1.32119 0.105775 0.315423 -0.678765 0.214701 -0.702269 
1.62554 0.160124 0.315461 -0.695362 0.000491746 -0.718659 
1.62539 0.001656 0.315351 -0.576132 0.578188 -0.577728 
-0.299403 3.00977 0.317063 0.291407 -0.6819 -0.670891 
-0.604268 2.92056 0.317682 0.268896 -0.662681 -0.698963 
-0.341052 2.76964 0.315584 0.284694 0.324705 -0.901951 
0.347622 2.69053 0.315944 0.328353 0.650803 -0.684572 
1.17272 2.70369 0.31694 -0.374686 -0.631999 -0.678371 
1.5792 2.18961 0.257481 -0.754375 -0.411628 -0.511352 
-1.34697 1.73431 0.236451 -0.963736 0.0883743 -0.251797 
1.62408 1.60323 0.316559 -0.60154 -0.449945 -0.660075 
-1.34936 1.13147 0.316347 -0.630165 0.406993 -0.661248 
1.29717 0.587428 0.315088 0.650905 0.332956 -0.682249 
-1.58856 0.782907 0.31338 -0.0160862 0.283203 -0.958925 
-1.35233 0.515642 0.253404 -0.782387 -0.387833 -0.487295 
1.62586 0.289946 0.305759 -0.99984 0.000186321 -0.0178765 
1.62586 0.197458 0.305713 -0.999856 -0.00011215 -0.0169654 
1.62586 0.075888 0.305628 -0.999808 0.00225307 -0.0194471 
-1.00395 2.58749 0.264273 -0.0309399 0.0681069 -0.997198 
-1.21588 2.29641 0.258068 -0.744078 0.656366 -0.12463 
-1.3239 2.17111 0.316512 -0.472339 0.397625 -0.786632 
-1.28502 2.14905 -0.312941 -0.692175 -0.389079 0.607875 
-1.37001 1.61635 0.234842 -0.916912 -0.191054 -0.350387 
1.60225 1.08162 0.271885 -0.835856 -0.255463 -0.485884 
-0.43602 2.71741 0.256286 -0.302214 0.790039 -0.533391 
0.60795 2.60826 0.283195 0.243538 0.69022 -0.681384 
0.995705 2.63387 0.262561 0.0210106 0.0900624 -0.995714 
-1.48412 2.18185 0.263491 0.0951361 0.0811078 -0.992154 
1.33261 1.73458 0.27906 0.753463 0.206912 -0.624084 
1.60187 1.62846 0.273315 -0.741629 -0.399557 -0.538833 
1.62432 1.60344 -0.315946 -0.613096 -0.435171 0.659348 
-1.36897 1.1025 0.271864 -0.832443 0.22073 -0.508249 
1.62543 1.12645 0.316376 -0.644823 0.349432 -0.67978 
-1.57923 0.560989 0.303691 0.397124 0.577785 -0.713062 
-0.3773 2.97147 0.259479 -0.285143 -0.719674 -0.633059 
0.296259 2.87076 0.293949 -0.0434154 -0.176978 -0.983257 
-1.35056 0.008567 0.26315 -0.529743 0.756199 -0.384104 
0.291518 2.96661 0.235751 -0.246814 -0.901817 -0.354694 
0.697664 2.56069 0.275161 0.351128 0.865101 -0.358202 
-1.35005 1.12409 -0.187443 -0.863416 0.495854 0.0929597 
-1.55208 2.23007 0.316054 0.743212 0.121446 -0.657942 
1.59905 2.22494 0.023054 -0.982668 0.0253849 0.183629 
1.62552 0.487235 -0.316234 -0.638281 -0.358308 0.681331 
-1.3215 0.486288 -0.174478 -0.952245 -0.297082 0.0705155 
-1.1708 2.70142 0.316533 0.242728 -0.749463 -0.615945 
-1.30187 0.138344 -0.003742 -0.998771 0.0492819 -0.00521967 
0.298089 2.71689 0.303225 0.130727 0.663967 -0.736246 
-0.947607 2.52119 -0.048488 -0.695417 0.716814 -0.0507265 
-1.63658 0.6603 0.270331 0.804438 0.0563945 -0.591354 
-1.05982 2.74466 0.135471 0.557146 -0.827144 0.0736218 
-1.33928 2.14522 0.093213 -0.993997 0.0708081 -0.0834 
-1.6409 1.67431 0.315567 0.664848 0.348972 -0.660451 
-1.62198 1.64496 0.274879 0.774451 0.282018 -0.566297 
1.35271 1.63633 0.268022 0.708813 -0.143816 -0.69058 
-1.34891 1.64786 0.163772 -0.952723 0.300735 -0.043337 
1.32056 1.13127 0.306624 0.675041 0.293852 -0.676735 
0.95541 2.42605 0.317084 0.562155 0.418412 -0.713382 
1.31869 1.56473 0.316533 0.666771 -0.283387 -0.689281 
1.60919 1.70035 0.137541 -0.998386 0.051911 0.0230194 
-1.34769 1.57273 -0.315412 -0.658578 -0.297597 0.691166 
1.60057 1.08439 0.119812 -0.991062 -0.130853 0.025959 
1.09538 2.71543 0.068406 -0.506834 -0.86128 0.0362877 
-1.03928 2.38045 -0.147842 -0.689688 0.723138 -0.0374542 
0.334264 2.72451 0.035 0.0949366 0.994554 0.0430137 
1.14769 2.70725 -0.314622 -0.262205 -0.672139 0.692444 
-1.33293 0.697093 -0.316084 -0.689894 0.033343 0.723142 
-0.972385 2.78473 0.310494 0.348375 -0.630559 -0.693563 
-1.40175 2.46468 0.317216 0.580667 -0.489538 -0.650521 
0.784604 2.53816 0.149093 0.243583 0.969688 0.0192835 
-1.11548 2.70897 0.271327 0.109788 -0.853414 -0.50954 
1.59163 1.65958 -0.033976 -0.99206 -0.125758 0.00128565 
1.04125 2.74761 -0.313655 -0.574707 -0.360402 0.734726 
-1.62053 1.08162 0.271893 0.820266 -0.253257 -0.51286 
1.2884 2.14782 0.262198 0.815179 0.277586 -0.50836 
-1.64357 1.05241 0.051529 0.988586 -0.148207 -0.0270448 
-1.64239 0.565303 0.193091 0.980243 0.0534474 -0.190441 
1.29135 0.000938 0.315351 0.562266 0.582389 -0.587094 
-1.31983 0.003371 0.06737 -0.695708 0.714683 -0.0722431 
-0.881421 2.57551 -0.267861 -0.891481 0.407757 0.197473 
1.31857 1.65195 0.163274 0.843238 0.531001 -0.0835947 
0.853558 2.52804 0.260914 0.281818 0.801575 -0.52731 
-1.64197 1.5895 0.316499 0.630032 -0.333061 -0.70152 
1.62338 1.79852 -0.187685 -0.996226 -0.0434855 -0.0751214 
1.31954 1.34357 0.14811 0.999647 -0.00657461 0.025729 
1.32478 0.528846 0.249583 0.860625 -0.153076 -0.485687 
1.29247 0.486112 0.314927 0.618684 -0.425371 -0.660522 
1.27279 0.138576 -0.004026 0.999381 0.035194 0.000176788 
0.702278 2.86925 -0.313687 -0.230896 -0.659179 0.715661 
-1.54875 2.20236 0.262071 0.903098 0.090891 -0.419706 
1.31916 1.59129 0.078362 0.942069 -0.334688 0.0221403 
1.58945 1.0889 -0.252709 -0.795607 -0.286558 0.533755 
1.32071 1.05231 0.177752 0.974473 -0.212785 -0.0715874 
1.62303 1.04578 -0.312784 -0.63608 -0.407705 0.655117 
-1.34706 1.65556 -0.315611 -0.595598 0.443269 0.669908 
-1.64313 0.001658 0.315351 0.561147 0.585653 -0.584915 
-1.6411 1.6696 -0.00202 0.953536 0.301277 0.00102505 
-1.32574 0.563585 -0.231443 -0.938265 0.287873 0.191801 
1.62287 1.66842 -0.313037 -0.662773 0.370819 0.650558 
-1.10531 2.70617 0.121391 0.550579 -0.830827 0.0811711 
-1.6432 1.12638 0.316376 0.638624 0.356849 -0.681776 
1.29624 0.594294 -0.049332 0.979825 0.199141 0.0169174 
0.397002 3.00807 -0.188634 0.019881 -0.990025 0.139484 
-0.319798 2.69455 0.178375 0.131976 0.98553 -0.106364 
1.50641 2.19952 -0.258744 -0.808863 -0.196226 0.554289 
-1.3294 0 -0.31769 -0.545769 0.590869 0.594146 
0.258417 3.01159 -0.313706 -0.287405 -0.684683 0.669782 
1.26369 2.1112 -0.076465 0.976299 0.194664 -0.0945802 
-1.59157 2.21381 -0.04948 0.975457 0.219686 -0.0148816 
1.31985 1.25303 -0.060328 0.999058 -0.0426211 -0.0081751 
0.383527 2.73235 -0.255025 0.356155 0.76648 0.534474 
1.24649 2.18296 0.079193 0.753446 0.656897 -0.0283916 
1.07943 2.72015 -0.269238 -0.281563 -0.799778 0.530168 
-1.26474 2.21023 -0.313922 -0.301373 0.665883 0.682476 
-1.61278 1.64207 -0.263177 0.855917 -0.0638964 0.513151 
1.33832 1.37475 -0.038058 0.999038 -0.0437767 -0.00257223 
-1.39117 1.10235 -0.261516 -0.660608 -0.228508 0.715109 
-1.6436 0.001321 0.05396 0.706698 0.707364 0.0146614 
0.411218 2.98992 -0.223462 -0.138917 -0.828717 0.542153 
1.56606 2.12708 -0.271817 -0.819152 -0.392089 0.418637 
1.62511 1.20833 -0.314812 -0.686049 0.229275 0.690485 
-1.35798 0.481724 -0.288967 -0.55365 -0.44389 0.70458 
1.62586 0.00146 -0.143863 -0.705169 0.705763 0.0680868 
-0.311911 2.96691 -0.255394 -0.00897441 -0.804373 0.594056 
0.338923 2.97338 -0.254624 -0.271935 -0.751109 0.601569 
-0.968276 2.77071 -0.245489 0.448278 -0.80866 0.380942 
0.915889 2.58646 -0.255847 -0.224636 0.0246505 0.974131 
1.49093 2.22739 -0.31378 -0.62412 0.140011 0.768682 
-1.34933 1.05173 -0.315997 -0.628585 -0.399325 0.667398 
-0.307309 2.71459 -0.245152 -0.0903216 0.883835 0.458996 
-0.902757 2.6358 -0.271298 -0.184106 -0.241395 0.952803 
1.34966 2.47766 -0.286073 -0.570969 -0.439885 0.693178 
-1.55554 2.2057 -0.258977 0.936046 -0.0608888 0.34657 
-1.32544 2.18587 -0.258119 -0.707386 0.269648 0.653373 
1.23219 2.14762 -0.266782 0.853601 0.318441 0.412263 
-1.36558 1.62618 -0.271942 -0.839048 0.213228 0.500532 
-1.34883 1.26739 -0.315558 -0.695772 0.113595 0.709223 
1.59928 0.543384 -0.259102 -0.840397 0.0592277 0.538725 
-1.34881 0.531064 -0.245504 -0.806122 0.136001 0.575909 
1.62582 0.10654 -0.27355 -0.909943 0.126676 0.394915 
-1.59428 0.014408 -0.231276 0.519449 0.807632 0.279112 
-0.701586 2.84772 -0.282038 0.381115 -0.910465 0.16064 
-1.01955 2.73674 -0.300701 0.0842444 -0.752448 0.653242 
-1.55894 2.17269 -0.314539 0.535443 -0.479865 0.695003 
1.49244 2.15869 -0.30982 -0.179245 -0.483068 0.85704 
1.35187 1.61701 -0.262149 0.865242 0.136362 0.482454 
1.60231 1.62967 -0.271266 -0.830947 -0.256445 0.493724 
-1.62018 1.0829 -0.269846 0.789851 -0.10394 0.604427 
1.34026 1.08188 -0.269594 0.820936 -0.100079 0.562181 
-1.64346 1.05311 -0.315024 0.630836 -0.411056 0.658087 
-1.32103 0.327646 -0.314139 -0.699567 -0.066477 0.711468 
1.58868 0.021203 -0.280402 -0.48961 0.712343 0.502842 
-0.863438 2.5475 -0.313744 -0.828872 0.124314 0.545451 
-1.64202 1.58746 -0.314624 0.644586 -0.351288 0.679047 
1.31985 1.04348 -0.316501 0.622295 -0.38978 0.678838 
1.6256 0.594867 -0.315554 -0.637441 0.360012 0.681219 
-1.61301 0.529023 -0.260225 0.797608 0.000900289 0.603176 
-1.64283 0.487844 -0.315315 0.624759 -0.412716 0.662828 
-0.254971 3.00662 -0.314526 0.375807 -0.630994 0.678687 
-0.35553 2.99897 -0.313412 -0.27557 -0.70685 0.651478 
-0.222915 2.70175 -0.312096 0.260379 0.653794 0.710462 
-0.8323 2.77862 -0.313944 0.290448 -0.416214 0.861629 
0.420022 2.89146 -0.307934 0.224737 -0.274917 0.934834 
0.305058 2.76045 -0.31399 -0.329546 0.296228 0.896464 
0.442993 2.69681 -0.315702 0.43692 0.541799 0.718022 
-0.991147 2.7434 -0.257848 0.209833 -0.846551 0.489205 
0.061734 2.69929 -0.315262 -0.0378699 0.709276 0.703913 
-0.77502 2.57594 -0.313342 -0.0130857 0.713294 0.700743 
-0.367007 2.68928 -0.314897 -0.436249 0.596815 0.673424 
-1.3838 2.41254 -0.293816 0.567121 -0.631469 0.528792 
1.00861 2.58853 -0.315611 0.216974 -0.280363 0.93505 
0.900007 2.50124 -0.311913 0.483961 0.360669 0.797308 
-1.34263 2.38661 -0.315582 0.120578 -0.157402 0.980146 
0.975276 2.43467 -0.314626 0.440258 0.527378 0.726668 
0.830979 2.5378 -0.313465 0.142228 0.644522 0.751241 
1.2167 2.43399 -0.285839 -0.067898 -0.0101469 0.997641 
1.16741 2.2951 -0.303615 0.204005 0.207871 0.956646 
1.13746 2.28894 -0.252528 0.76188 0.622547 0.178814 
-1.5034 2.29716 -0.315635 0.527772 -0.464842 0.7109 
-1.54364 2.23522 -0.313689 0.664029 0.180885 0.725497 
1.19247 2.16443 -0.300356 0.51485 0.600947 0.611386 
1.20698 2.11631 -0.313096 0.766994 -0.296104 0.569247 
-1.64094 1.8003 -0.31438 0.741237 -0.0262523 0.67073 
-1.61026 1.69665 -0.314819 0.522335 0.274176 0.807461 
1.6231 1.88587 -0.314406 -0.749894 -0.120111 0.650563 
-1.55725 1.66031 -0.313291 0.121189 0.563482 0.817191 
1.31787 1.66571 -0.314423 0.606674 0.422237 0.673545 
1.37222 1.59622 -0.309055 0.31359 -0.538344 0.782207 
1.31898 1.4892 -0.314986 0.723329 -0.0999682 0.683228 
1.32052 1.13165 -0.301409 0.702042 0.26031 0.662854 
1.58265 1.20784 -0.316633 -0.0506554 0.207182 0.97699 
-1.64338 1.12663 -0.315986 0.61269 0.363193 0.701927 
1.41583 1.12426 -0.314107 0.0193962 0.340407 0.940078 
1.30367 0.706015 -0.31612 0.710155 0.0690815 0.700648 
1.3489 0.646855 -0.315944 0.2125 0.278528 0.936625 
1.32988 0.530883 -0.246682 0.774958 -0.360948 0.518803 
-1.6419 0.565444 -0.301564 0.643317 0.405891 0.64915 
-1.37005 0.585358 -0.309631 -0.340344 0.40493 0.848645 
1.29227 0.486647 -0.314664 0.621605 -0.430047 0.654727 
-1.43333 0.472515 -0.315544 -0.104842 -0.460132 0.881639 
-1.6436 0.206256 -0.315633 0.64781 0.206586 0.733256 
-1.55335 0.228717 -0.317281 0.0480733 0.0630423 0.996852 
1.29113 0.001853 -0.31665 0.549971 0.585982 0.595111 
-1.62484 0.056335 -0.242749 0.830636 0.381605 0.40549 
1.57262 0.061806 -0.317103 -0.338241 0.310149 0.888482 
-1.49232 0.000754 -0.317686 0.146254 0.699966 0.69904 
-1.56512 0.06377 -0.312115 0.501439 0.228057 0.834595 
1.42715 0.000631 -0.273135 -0.0835896 0.95321 0.290525 
-1.64094 1.69846 -0.201368 0.985223 0.16311 0.0522516 
-0.299403 3.00977 0.317063 0.291407 -0.6819 -0.670891 
-0.208552 2.69621 0.308103 0.102803 0.719524 -0.686817 
-0.972385 2.78473 0.310494 0.348375 -0.630559 -0.693563 
-0.901544 2.55715 0.314762 0.0738072 0.615578 -0.784612 
1.52203 2.33317 0.317059 -0.64671 -0.35644 -0.674327 
1.4667 2.20481 0.315779 -0.0928159 0.158801 -0.982938 
1.61325 2.16416 0.248271 -0.847477 -0.445758 -0.288239 
1.57225 2.09995 0.31641 -0.47544 -0.156872 -0.865649 
1.2656 2.10826 0.316762 0.681888 -0.312618 -0.661286 
1.41461 1.71979 0.316347 0.166888 0.220131 -0.961088 
1.33261 1.73458 0.27906 0.753463 0.206912 -0.624084 
1.61338 1.6722 0.305594 -0.671593 0.316704 -0.669822 
1.38384 0.485634 0.314944 -0.0231418 -0.470626 -0.882029 
1.62586 0.381145 0.305793 -0.741421 -0.19745 -0.641334 
0.366908 2.93308 0.314931 0.223493 -0.403002 -0.887491 
0.410591 2.98253 0.275034 -0.0531751 -0.902132 -0.428171 
-1.39063 1.65402 0.312447 -0.426176 0.481483 -0.765865 
-1.6409 1.67431 0.315567 0.664848 0.348972 -0.660451 
-1.35164 1.58254 0.314088 -0.613109 -0.452241 -0.647747 
-1.64197 1.5895 0.316499 0.630032 -0.333061 -0.70152 
1.31869 1.56473 0.316533 0.666771 -0.283387 -0.689281 
1.62408 1.60323 0.316559 -0.60154 -0.449945 -0.660075 
-1.6432 1.12638 0.316376 0.638624 0.356849 -0.681776 
-1.34936 1.13147 0.316347 -0.630165 0.406993 -0.661248 
-1.64265 1.05922 0.315698 0.62035 -0.443764 -0.646714 
-1.3494 1.05134 0.316292 -0.633003 -0.326777 -0.701801 
1.29247 0.486112 0.314927 0.618684 -0.425371 -0.660522 
0.347622 2.69053 0.315944 0.328353 0.650803 -0.684572 
1.09219 2.74418 0.316427 -0.331153 -0.561929 -0.758006 
0.823723 2.56782 0.315147 -0.0469763 0.498694 -0.865504 
0.853558 2.52804 0.260914 0.281818 0.801575 -0.52731 
-1.55208 2.23007 0.316054 0.743212 0.121446 -0.657942 
-1.3239 2.17111 0.316512 -0.472339 0.397625 -0.786632 
-1.57249 2.1498 0.316864 0.573125 -0.427156 -0.699332 
-1.34699 2.11124 0.315079 -0.601965 0.00920922 -0.798469 
1.23442 2.16973 0.316152 0.334052 0.68464 -0.647825 
1.62385 1.05931 0.315753 -0.592922 -0.452009 -0.666432 
1.33991 1.08079 0.271344 0.735479 0.233769 -0.635943 
-1.40131 0.565173 0.314096 -0.273593 0.364834 -0.889968 
-1.32612 0.563133 0.234937 -0.933547 0.198764 -0.2983 
-0.408283 3.00218 0.315957 -0.348234 -0.66314 -0.662554 
-0.513081 2.68388 0.316957 -0.383272 0.61175 -0.692 
0.218896 3.00517 0.31758 -0.302278 -0.672699 -0.675355 
0.182338 2.69407 0.317347 -0.0988292 0.715164 -0.691934 
-1.1708 2.70142 0.316533 0.242728 -0.749463 -0.615945 
1.17272 2.70369 0.31694 -0.374686 -0.631999 -0.678371 
-1.00378 2.49025 0.315626 -0.558026 0.30342 -0.772362 
0.853558 2.52804 0.260914 0.281818 0.801575 -0.52731 
-0.91327 2.52975 0.248525 -0.274333 0.916792 -0.290231 
1.31857 1.65195 0.163274 0.843238 0.531001 -0.0835947 
1.32056 1.13127 0.306624 0.675041 0.293852 -0.676735 
1.62543 1.12645 0.316376 -0.644823 0.349432 -0.67978 
-1.63658 0.6603 0.270331 0.804438 0.0563945 -0.591354 
-1.57923 0.560989 0.303691 0.397124 0.577785 -0.713062 
1.62547 0.594492 0.315753 -0.651551 0.32473 -0.685589 
1.29717 0.587428 0.315088 0.650905 0.332956 -0.682249 
-1.6426 0.486459 0.314986 0.614048 -0.384244 -0.689421 
-1.32213 0.484756 0.313092 -0.618443 -0.448502 -0.645271 
-1.34697 1.73431 0.236451 -0.963736 0.0883743 -0.251797 
-1.38031 1.8763 0.315266 -0.46118 0.0633385 -0.885043 
-0.319798 2.69455 0.178375 0.131976 0.98553 -0.106364 
-0.43602 2.71741 0.256286 -0.302214 0.790039 -0.533391 
1.62552 0.487235 -0.316234 -0.638281 -0.358308 0.681331 
-1.10531 2.70617 0.121391 0.550579 -0.830827 0.0811711 
-1.64357 1.05241 0.051529 0.988586 -0.148207 -0.0270448 
-1.3215 0.486288 -0.174478 -0.952245 -0.297082 0.0705155 
-1.6411 1.6696 -0.00202 0.953536 0.301277 0.00102505 
1.31916 1.59129 0.078362 0.942069 -0.334688 0.0221403 
1.24649 2.18296 0.079193 0.753446 0.656897 -0.0283916 
-1.34769 1.57273 -0.315412 -0.658578 -0.297597 0.691166 
-1.34933 1.05173 -0.315997 -0.628585 -0.399325 0.667398 
-1.64239 0.565303 0.193091 0.980243 0.0534474 -0.190441 
-0.972385 2.78473 0.310494 0.348375 -0.630559 -0.693563 
-0.604268 2.92056 0.317682 0.268896 -0.662681 -0.698963 
-1.05982 2.74466 0.135471 0.557146 -0.827144 0.0736218 
-0.947607 2.52119 -0.048488 -0.695417 0.716814 -0.0507265 
-1.35005 1.12409 -0.187443 -0.863416 0.495854 0.0929597 
-1.28502 2.14905 -0.312941 -0.692175 -0.389079 0.607875 
-1.64338 1.12663 -0.315986 0.61269 0.363193 0.701927 
1.14769 2.70725 -0.314622 -0.262205 -0.672139 0.692444 
1.60919 1.70035 0.137541 -0.998386 0.051911 0.0230194 
1.29624 0.594294 -0.049332 0.979825 0.199141 0.0169174 
-1.64283 0.487844 -0.315315 0.624759 -0.412716 0.662828 
-1.55894 2.17269 -0.314539 0.535443 -0.479865 0.695003 
1.26369 2.1112 -0.076465 0.976299 0.194664 -0.0945802 
-0.77502 2.57594 -0.313342 -0.0130857 0.713294 0.700743 
0.784604 2.53816 0.149093 0.243583 0.969688 0.0192835 
1.59163 1.65958 -0.033976 -0.99206 -0.125758 0.00128565 
1.31787 1.66571 -0.314423 0.606674 0.422237 0.673545 
1.62303 1.04578 -0.312784 -0.63608 -0.407705 0.655117 
1.04125 2.74761 -0.313655 -0.574707 -0.360402 0.734726 
1.58945 1.0889 -0.252709 -0.795607 -0.286558 0.533755 
1.32071 1.05231 0.177752 0.974473 -0.212785 -0.0715874 
1.29227 0.486647 -0.314664 0.621605 -0.430047 0.654727 
0.397002 3.00807 -0.188634 0.019881 -0.990025 0.139484 
-1.5034 2.29716 -0.315635 0.527772 -0.464842 0.7109 
-0.254971 3.00662 -0.314526 0.375807 -0.630994 0.678687 
-1.64346 1.05311 -0.315024 0.630836 -0.411056 0.658087 
1.62432 1.60344 -0.315946 -0.613096 -0.435171 0.659348 
1.32052 1.13165 -0.301409 0.702042 0.26031 0.662854 
0.900007 2.50124 -0.311913 0.483961 0.360669 0.797308 
-0.968276 2.77071 -0.245489 0.448278 -0.80866 0.380942 
-1.26474 2.21023 -0.313922 -0.301373 0.665883 0.682476 
-1.33293 0.697093 -0.316084 -0.689894 0.033343 0.723142 
0.442993 2.69681 -0.315702 0.43692 0.541799 0.718022 
-1.01955 2.73674 -0.300701 0.0842444 -0.752448 0.653242 
1.56606 2.12708 -0.271817 -0.819152 -0.392089 0.418637 
0.258417 3.01159 -0.313706 -0.287405 -0.684683 0.669782 
0.383527 2.73235 -0.255025 0.356155 0.76648 0.534474 
1.20698 2.11631 -0.313096 0.766994 -0.296104 0.569247 
-0.367007 2.68928 -0.314897 -0.436249 0.596815 0.673424 
-1.34706 1.65556 -0.315611 -0.595598 0.443269 0.669908 
1.62287 1.66842 -0.313037 -0.662773 0.370819 0.650558 
1.35187 1.61701 -0.262149 0.865242 0.136362 0.482454 
1.31916 1.59129 0.078362 0.942069 -0.334688 0.0221403 
1.31898 1.4892 -0.314986 0.723329 -0.0999682 0.683228 
0.830979 2.5378 -0.313465 0.142228 0.644522 0.751241 
1.19247 2.16443 -0.300356 0.51485 0.600947 0.611386 
-1.64094 1.8003 -0.31438 0.741237 -0.0262523 0.67073 
-0.701586 2.84772 -0.282038 0.381115 -0.910465 0.16064 
1.32988 0.530883 -0.246682 0.774958 -0.360948 0.518803 
-0.35553 2.99897 -0.313412 -0.27557 -0.70685 0.651478 
-0.222915 2.70175 -0.312096 0.260379 0.653794 0.710462 
1.49093 2.22739 -0.31378 -0.62412 0.140011 0.768682 
-0.863438 2.5475 -0.313744 -0.828872 0.124314 0.545451 
1.31985 1.04348 -0.316501 0.622295 -0.38978 0.678838 
-0.701586 2.84772 -0.282038 0.381115 -0.910465 0.16064 
1.37222 1.59622 -0.309055 0.31359 -0.538344 0.782207 
-1.6419 0.565444 -0.301564 0.643317 0.405891 0.64915 
0.411218 2.98992 -0.223462 -0.138917 -0.828717 0.542153 
1.49244 2.15869 -0.30982 -0.179245 -0.483068 0.85704 
-1.64202 1.58746 -0.314624 0.644586 -0.351288 0.679047 
1.6256 0.594867 -0.315554 -0.637441 0.360012 0.681219 
-1.32103 0.327646 -0.314139 -0.699567 -0.066477 0.711468 
0.305058 2.76045 -0.31399 -0.329546 0.296228 0.896464 
-1.34883 1.26739 -0.315558 -0.695772 0.113595 0.709223 
0.420022 2.89146 -0.307934 0.224737 -0.274917 0.934834 
-0.8323 2.77862 -0.313944 0.290448 -0.416214 0.861629 
1.00861 2.58853 -0.315611 0.216974 -0.280363 0.93505 
-1.54364 2.23522 -0.313689 0.664029 0.180885 0.725497 
1.62432 1.60344 -0.315946 -0.613096 -0.435171 0.659348 
1.41583 1.12426 -0.314107 0.0193962 0.340407 0.940078 
-1.37005 0.585358 -0.309631 -0.340344 0.40493 0.848645 
1.3489 0.646855 -0.315944 0.2125 0.278528 0.936625 
-1.43333 0.472515 -0.315544 -0.104842 -0.460132 0.881639 
-1.61278 1.64207 -0.263177 0.855917 -0.0638964 0.513151 
3 2 1 3
3 0 49 9
3 48 6 4
3 49 111 9
3 7 253 50
3 3 1 51
3 48 254 6
3 255 114 8
3 3 51 70
3 111 256 9
3 3 70 10
3 5 3 10
3 9 256 11
3 10 70 83
3 89 112 12
3 12 112 16
3 52 125 101
3 16 112 85
3 52 101 14
3 52 14 17
3 52 17 13
3 12 16 15
3 15 16 65
3 15 65 64
3 53 257 258
3 16 85 65
3 21 53 19
3 19 22 21
3 19 20 22
3 23 18 26
3 259 260 24
3 260 261 27
3 24 260 25
3 25 260 27
3 26 18 28
3 27 261 73
3 18 96 28
3 25 27 29
3 262 263 98
3 264 262 98
3 55 102 77
3 30 126 56
3 77 102 100
3 126 144 56
3 33 32 57
3 36 31 58
3 33 57 34
3 36 58 93
3 36 93 78
3 36 37 35
3 36 78 37
3 38 40 41
3 265 130 44
3 265 44 43
3 266 265 43
3 39 42 45
3 44 130 121
3 42 139 45
3 44 121 46
3 81 45 139
3 46 121 47
3 267 268 82
3 253 79 69
3 69 50 253
3 8 114 63
3 54 23 26
3 269 270 67
3 271 67 272
3 273 274 74
3 275 76 276
3 117 277 278
3 279 40 129
3 266 43 60
3 60 43 44
3 60 44 61
3 61 44 46
3 61 46 62
3 62 46 47
3 280 267 91
3 71 281 282
3 109 52 13
3 10 83 283
3 101 155 14
3 284 133 72
3 284 72 285
3 286 287 72
3 288 118 258
3 20 19 118
3 261 124 73
3 270 97 67
3 264 98 74
3 75 55 77
3 289 68 290
3 32 136 57
3 291 59 292
3 40 38 129
3 39 45 90
3 183 266 60
3 121 130 131
3 183 60 61
3 183 61 62
3 183 62 47
3 121 166 47
3 293 294 79
3 91 267 80
3 295 296 91
3 143 297 114
3 297 63 114
3 298 281 71
3 50 147 7
3 297 299 63
3 282 300 71
3 298 71 300
3 8 63 301
3 15 64 12
3 286 72 133
3 53 258 19
3 285 72 287
3 263 302 98
3 272 67 97
3 273 74 98
3 75 77 164
3 76 84 276
3 275 117 76
3 303 290 304
3 76 117 278
3 304 290 68
3 119 277 117
3 305 120 306
3 307 308 129
3 291 306 59
3 120 309 310
3 59 120 310
3 267 82 80
3 295 80 82
3 79 294 69
3 295 91 80
3 63 299 301
3 258 118 19
3 24 25 29
3 311 312 269
3 311 269 67
3 306 120 59
3 307 129 38
3 53 86 257
3 130 242 131
3 139 122 81
3 253 167 79
3 70 113 83
3 102 128 100
3 58 31 93
3 310 88 59
3 38 41 87
3 90 45 81
3 313 6 254
3 9 11 314
3 151 20 118
3 270 140 97
3 74 274 115
3 172 76 278
3 120 200 309
3 315 266 183
3 89 316 112
3 50 69 147
3 299 92 301
3 74 115 264
3 272 97 158
3 31 317 93
3 161 122 139
3 94 114 255
3 113 283 83
3 284 152 133
3 53 148 86
3 21 148 53
3 95 285 287
3 67 99 311
3 39 90 318
3 70 51 113
3 163 24 29
3 18 319 96
3 136 198 57
3 213 85 112
3 115 103 264
3 271 104 67
3 102 134 128
3 100 128 153
3 183 47 166
3 273 98 320
3 289 105 68
3 59 182 292
3 296 108 91
3 91 108 280
3 92 123 301
3 288 321 118
3 322 30 56
3 68 105 304
3 122 90 81
3 298 106 281
3 123 211 301
3 66 23 54
3 302 189 98
3 323 36 35
3 167 293 79
3 222 152 284
3 93 317 324
3 146 82 268
3 209 143 114
3 320 98 189
3 126 235 144
3 185 325 326
3 325 185 327
3 12 107 328
3 107 12 64
3 187 286 133
3 261 230 124
3 163 259 24
3 322 56 329
3 308 145 129
3 94 209 114
3 88 182 59
3 95 287 330
3 97 140 158
3 164 77 135
3 275 331 117
3 117 331 119
3 289 137 105
3 201 309 200
3 4 150 48
3 298 332 106
3 316 186 112
3 215 101 125
3 321 178 118
3 118 178 151
3 163 29 333
3 331 191 119
3 193 119 191
3 57 198 334
3 42 335 139
3 95 157 285
3 336 226 18
3 261 337 230
3 159 153 128
3 13 175 109
3 208 113 51
3 197 272 158
3 116 281 106
3 108 154 280
3 338 314 11
3 339 218 300
3 64 65 107
3 176 187 133
3 127 333 340
3 302 341 189
3 134 159 128
3 33 34 342
3 343 132 5
3 296 154 108
3 313 210 6
3 215 217 101
3 163 333 127
3 303 233 290
3 105 344 304
3 290 233 345
3 239 279 129
3 346 279 239
3 150 202 48
3 347 2 3
3 5 132 3
3 185 169 327
3 173 147 69
3 348 85 213
3 66 54 138
3 233 192 345
3 172 160 76
3 307 181 199
3 145 239 129
3 167 253 349
3 152 176 133
3 317 350 324
3 38 181 307
3 69 212 173
3 139 244 161
3 161 249 122
3 121 251 166
3 226 252 18
3 115 274 351
3 153 352 100
3 198 237 334
3 168 295 82
3 18 252 319
3 49 0 203
3 218 353 300
3 95 177 157
3 177 95 330
3 67 179 99
3 141 110 292
3 94 354 209
3 107 65 355
3 148 171 86
3 323 35 356
3 139 335 244
3 347 3 132
3 154 357 280
3 86 171 257
3 104 179 67
3 344 105 137
3 358 143 209
3 223 176 152
3 148 21 359
3 292 182 141
3 332 156 106
3 244 247 161
3 168 360 295
3 210 361 6
3 321 224 178
3 225 151 178
3 362 230 337
3 127 340 142
3 87 181 38
3 116 106 156
3 338 363 314
3 217 221 101
3 223 152 222
3 101 221 155
3 364 311 99
3 115 190 365
3 115 351 190
3 366 232 367
3 368 159 134
3 159 368 153
3 153 368 352
3 164 135 234
3 76 160 84
3 161 184 249
3 149 122 249
3 168 82 146
3 113 208 369
3 370 155 221
3 228 163 127
3 131 242 246
3 371 227 158
3 122 149 90
3 162 168 146
3 372 49 203
3 213 112 186
3 92 196 123
3 221 220 370
3 366 231 232
3 318 90 194
3 247 184 161
3 334 237 373
3 120 240 200
3 88 165 182
3 131 246 121
3 251 195 166
3 167 374 293
3 168 162 206
3 357 154 168
3 173 204 147
3 313 375 210
3 13 376 175
3 355 377 107
3 99 179 364
3 180 84 160
3 345 192 378
3 199 181 239
3 165 200 182
3 183 166 195
3 212 374 167
3 167 349 173
3 357 168 206
3 209 354 379
3 212 167 173
3 170 116 156
3 170 156 332
3 358 209 174
3 174 211 123
3 218 170 353
3 188 178 148
3 359 188 148
3 176 223 177
3 380 189 190
3 191 331 160
3 236 344 192
3 350 381 324
3 239 238 199
3 87 239 181
3 132 382 347
3 332 214 170
3 218 116 170
3 174 196 358
3 123 196 174
3 107 377 328
3 171 148 178
3 177 330 176
3 383 163 228
3 341 365 190
3 341 190 189
3 179 104 158
3 126 384 235
3 233 236 192
3 172 193 191
3 172 191 160
3 385 342 34
3 165 88 386
3 194 90 149
3 207 360 168
3 205 372 203
3 173 349 204
3 207 168 154
3 210 387 361
3 214 353 170
3 224 171 178
3 223 157 177
3 176 330 187
3 188 225 178
3 228 127 142
3 227 229 158
3 229 179 158
3 179 229 364
3 104 197 158
3 351 380 190
3 388 322 329
3 137 192 344
3 240 241 200
3 241 182 200
3 241 141 182
3 243 201 200
3 346 239 87
3 246 251 121
3 202 150 387
3 382 132 389
3 205 203 363
3 132 208 389
3 209 379 390
3 208 132 343
3 205 363 338
3 202 210 375
3 202 387 210
3 209 390 174
3 390 211 174
3 208 343 369
3 213 186 216
3 216 186 377
3 391 109 219
3 215 391 217
3 109 175 219
3 217 391 220
3 175 376 219
3 217 220 221
3 391 219 220
3 377 355 216
3 220 219 370
3 213 216 348
3 216 392 348
3 219 376 370
3 216 355 392
3 336 66 226
3 362 383 228
3 226 66 138
3 362 228 230
3 371 364 227
3 227 364 229
3 228 142 230
3 231 393 232
3 384 322 235
3 368 75 234
3 368 234 352
3 234 75 164
3 322 388 235
3 352 234 394
3 331 180 160
3 394 234 135
3 192 137 378
3 342 385 198
3 237 198 385
3 350 323 356
3 356 395 350
3 237 385 396
3 237 396 373
3 350 395 381
3 110 141 241
3 200 165 243
3 165 386 243
3 335 397 245
3 242 315 246
3 335 245 244
3 397 194 245
3 315 248 246
3 244 245 247
3 247 245 250
3 248 315 183
3 245 194 249
3 245 249 250
3 194 149 249
3 183 195 248
3 246 248 251
3 250 249 184
3 250 184 247
3 251 248 195
3 226 398 252
3 319 252 398
