ply
format ascii 1.0
comment INFO-3111 Flatenator generated
comment TextureFile Dungeons_Texture_01.png
element vertex 932
property float x
property float y
property float z
element face 1334
property list uchar int vertex_indices
end_header
-1.31925 0.011275 0.036885 
-1.31925 0.121074 0.036885 
-1.31925 0.121074 -0.033505 
-1.31925 0.011275 -0.033505 
-1.0163 0.106811 0.046597 
-1.03732 0.117223 0.064859 
-1.03732 0 0.064859 
-1.0163 0.010412 0.046597 
-1.0163 0.106811 -0.043217 
-1.03732 0.117223 -0.06148 
-1.0163 0.010412 -0.043217 
-1.03732 0 -0.06148 
-1.30179 0.124786 0.064859 
-1.30179 0.007562 0.064859 
-1.30179 0.124786 -0.06148 
-1.30179 0.007562 -0.06148 
-1.14165 0.092565 0.061169 
-1.14026 0.090231 0.080091 
-1.11032 0.090231 0.080091 
-1.10893 0.092565 0.061169 
-1.09536 0.065237 0.080091 
-1.09256 0.065237 0.061169 
-1.11032 0.040243 0.080091 
-1.10893 0.037909 0.061169 
-1.14026 0.040243 0.080091 
-1.14165 0.037909 0.061169 
-1.15523 0.065237 0.080091 
-1.15802 0.065237 0.061169 
-1.12529 0.065237 0.080091 
-1.14165 0.092565 -0.057715 
-1.10893 0.092565 -0.057715 
-1.11032 0.090231 -0.076637 
-1.14026 0.090231 -0.076637 
-1.09256 0.065237 -0.057715 
-1.09536 0.065237 -0.076637 
-1.10893 0.037909 -0.057715 
-1.11032 0.040243 -0.076637 
-1.14165 0.037909 -0.057715 
-1.14026 0.040243 -0.076637 
-1.15802 0.065237 -0.057715 
-1.15523 0.065237 -0.076637 
-1.12529 0.065237 -0.076638 
-1.29545 0.111371 0.044235 
-1.2243 0.111371 0.044235 
-1.22627 1.21227 0.058175 
-1.29334 1.21227 0.058175 
-1.29545 0.111371 -0.043139 
-1.30347 0.962736 -0.051449 
-1.2243 0.111371 -0.043139 
-1.22627 0.962736 -0.051449 
-1.22627 1.31155 0.058175 
-1.29334 1.31155 0.058175 
-1.30347 1.06202 -0.051449 
-1.22627 1.06202 -0.051449 
-1.22627 2.71039 0.050759 
-1.29742 2.71039 0.050759 
-1.29742 2.70254 -0.044033 
-1.22627 2.70254 -0.044033 
-0.645367 1.52756 -0.050233 
-0.612637 1.52745 -0.050233 
-0.614033 1.52501 -0.069155 
-0.64397 1.52511 -0.069155 
-0.596272 1.49886 -0.050233 
-0.599068 1.49886 -0.069155 
-0.612637 1.4704 -0.050233 
-0.614033 1.47283 -0.069155 
-0.645367 1.47046 -0.050233 
-0.64397 1.47288 -0.069155 
-0.661732 1.49902 -0.050233 
-0.658936 1.49902 -0.069155 
-0.629002 1.49894 -0.069155 
-0.645367 0.569629 -0.050233 
-0.612637 0.569629 -0.050233 
-0.614033 0.567209 -0.069155 
-0.64397 0.567209 -0.069155 
-0.596272 0.541285 -0.050233 
-0.599068 0.541285 -0.069155 
-0.612637 0.51294 -0.050233 
-0.614033 0.515361 -0.069155 
-0.645367 0.51294 -0.050233 
-0.64397 0.515361 -0.069155 
-0.661732 0.541285 -0.050233 
-0.658936 0.541285 -0.069155 
-0.629002 0.541285 -0.069155 
-0.641323 1.94962 0.057395 
-0.639923 1.94704 0.076316 
-0.609989 1.94658 0.076316 
-0.608589 1.94911 0.057395 
-0.59502 1.91983 0.076316 
-0.592228 1.91986 0.057395 
-0.609989 1.89354 0.076316 
-0.608589 1.89111 0.057395 
-0.639923 1.89395 0.076316 
-0.641323 1.89156 0.057395 
-0.654892 1.92071 0.076316 
-0.657684 1.92082 0.057395 
-0.624954 1.92028 0.076317 
-1.10897 1.9526 0.057395 
-1.10758 1.95002 0.076316 
-1.07764 1.95013 0.076316 
-1.07625 1.95272 0.057395 
-1.06267 1.92348 0.076316 
-1.05988 1.92357 0.057395 
-1.07764 1.89676 0.076316 
-1.07625 1.89435 0.057395 
-1.10758 1.89667 0.076316 
-1.10897 1.89425 0.057395 
-1.12255 1.92327 0.076316 
-1.12534 1.92335 0.057395 
-1.09261 1.9234 0.076317 
-0.167664 1.94244 0.057395 
-0.166267 1.93998 0.076316 
-0.136333 1.93972 0.076316 
-0.134937 1.94214 0.057395 
-0.121368 1.9135 0.076316 
-0.118572 1.91348 0.057395 
-0.136333 1.88754 0.076316 
-0.134937 1.8851 0.057395 
-0.166267 1.88775 0.076316 
-0.167664 1.88533 0.057395 
-0.181236 1.91399 0.076316 
-0.184032 1.91402 0.057395 
-0.151299 1.91373 0.076317 
-0.645367 1.52753 0.045218 
-0.64397 1.52507 0.06414 
-0.614033 1.52498 0.06414 
-0.612637 1.52743 0.045218 
-0.599068 1.49884 0.06414 
-0.596272 1.49884 0.045218 
-0.614033 1.47282 0.06414 
-0.612637 1.4704 0.045218 
-0.64397 1.47287 0.06414 
-0.645367 1.47045 0.045218 
-0.658936 1.49898 0.06414 
-0.661732 1.499 0.045218 
-0.629002 1.49891 0.064141 
-0.645367 0.569629 0.045218 
-0.64397 0.567209 0.06414 
-0.614033 0.567209 0.06414 
-0.612637 0.569629 0.045218 
-0.599068 0.541285 0.06414 
-0.596272 0.541285 0.045218 
-0.614033 0.515361 0.06414 
-0.612637 0.51294 0.045218 
-0.64397 0.515361 0.06414 
-0.645367 0.51294 0.045218 
-0.658936 0.541285 0.06414 
-0.661732 0.541285 0.045218 
-0.629002 0.541285 0.064141 
-0.641323 1.94977 -0.06149 
-0.608589 1.94925 -0.06149 
-0.609989 1.94677 -0.080412 
-0.639923 1.94724 -0.080412 
-0.592228 1.91999 -0.06149 
-0.59502 1.91999 -0.080412 
-0.608589 1.89124 -0.06149 
-0.609989 1.89371 -0.080412 
-0.641323 1.8917 -0.06149 
-0.639923 1.89412 -0.080412 
-0.657684 1.92096 -0.06149 
-0.654892 1.92091 -0.080412 
-0.624954 1.92046 -0.080412 
-1.10897 1.95278 -0.06149 
-1.07625 1.95291 -0.06149 
-1.07764 1.95036 -0.080412 
-1.10758 1.95026 -0.080412 
-1.05988 1.92375 -0.06149 
-1.06267 1.92371 -0.080412 
-1.07625 1.89452 -0.06149 
-1.07764 1.89698 -0.080412 
-1.10897 1.89441 -0.06149 
-1.10758 1.89688 -0.080412 
-1.12534 1.92352 -0.06149 
-1.12255 1.9235 -0.080412 
-1.09261 1.92362 -0.080412 
-0.167664 1.9424 -0.06149 
-0.134937 1.94208 -0.06149 
-0.136333 1.93966 -0.080412 
-0.166267 1.93995 -0.080412 
-0.118572 1.91346 -0.06149 
-0.121368 1.91348 -0.080412 
-0.134937 1.8851 -0.06149 
-0.136333 1.88754 -0.080412 
-0.167664 1.88533 -0.06149 
-0.166267 1.88775 -0.080412 
-0.184032 1.91402 -0.06149 
-0.181236 1.91398 -0.080412 
-0.151299 1.91371 -0.080412 
-1.19141 0.946517 -0.07499 
-1.15774 0.972471 -0.067242 
-1.15663 0.971326 -0.078748 
-1.18702 0.947334 -0.087661 
-1.15014 0.982407 -0.06487 
-1.08197 0.982407 -0.06487 
-1.0836 0.977963 -0.08454 
-1.14852 0.977963 -0.08454 
-1.07564 0.972471 -0.067242 
-1.0407 0.946517 -0.07499 
-1.0451 0.947334 -0.087661 
-1.07633 0.971326 -0.078748 
-1.02057 0.896452 -0.086941 
-1.02525 0.899407 -0.102351 
-1.02948 0.824859 -0.104032 
-1.03305 0.834261 -0.121061 
-1.07595 0.798122 -0.110415 
-1.07786 0.810827 -0.128136 
-1.08169 0.779754 -0.114799 
-1.15043 0.779754 -0.114799 
-1.1488 0.80112 -0.14143 
-1.08332 0.80112 -0.14143 
-1.15617 0.798122 -0.110415 
-1.20264 0.824859 -0.104032 
-1.19907 0.834261 -0.121061 
-1.15426 0.810827 -0.128136 
-1.21155 0.896452 -0.086941 
-1.20686 0.899407 -0.102351 
-1.15663 0.966253 -0.057494 
-1.18702 0.941522 -0.063316 
-1.17237 0.934543 -0.065203 
-1.15235 0.952095 -0.060868 
-1.0836 0.969557 -0.049328 
-1.14852 0.969557 -0.049328 
-1.14228 0.945505 -0.05475 
-1.08983 0.945505 -0.05475 
-1.0451 0.941522 -0.063316 
-1.07633 0.966253 -0.057494 
-1.07898 0.952095 -0.060868 
-1.05974 0.934543 -0.065203 
-1.02525 0.89214 -0.071855 
-1.0438 0.888538 -0.07295 
-1.03305 0.825555 -0.084592 
-1.04927 0.851066 -0.078573 
-1.07786 0.801453 -0.088865 
-1.08524 0.829518 -0.082186 
-1.1488 0.786787 -0.08139 
-1.08332 0.786787 -0.08139 
-1.08965 0.827715 -0.071107 
-1.14247 0.827715 -0.071107 
-1.19907 0.825556 -0.084592 
-1.15426 0.801453 -0.088865 
-1.14688 0.829518 -0.082186 
-1.18284 0.851066 -0.078573 
-1.20686 0.89214 -0.071855 
-1.18832 0.888538 -0.07295 
-1.15235 0.957171 -0.082133 
-1.17237 0.940255 -0.08913 
-1.08983 0.954055 -0.090568 
-1.14228 0.954055 -0.090568 
-1.05974 0.940255 -0.08913 
-1.07898 0.957171 -0.082133 
-1.0438 0.895711 -0.102999 
-1.04927 0.85974 -0.114908 
-1.08524 0.838883 -0.121418 
-1.14247 0.842279 -0.132117 
-1.08965 0.842279 -0.132117 
-1.18284 0.85974 -0.114908 
-1.14688 0.838883 -0.121418 
-1.18832 0.895711 -0.102999 
-1.16813 0.935262 -0.077677 
-1.15109 0.950211 -0.072556 
-1.14044 0.940501 -0.074874 
-1.09168 0.940501 -0.074874 
-1.07976 0.950211 -0.072556 
-1.06398 0.935262 -0.077677 
-1.04952 0.890914 -0.088263 
-1.0545 0.864091 -0.094666 
-1.08759 0.843099 -0.099678 
-1.09166 0.850544 -0.097901 
-1.14046 0.850544 -0.097901 
-1.14453 0.843099 -0.099678 
-1.17762 0.864091 -0.094666 
-1.1826 0.890914 -0.088263 
-1.10292 0.997459 -0.073341 
-1.12898 0.997459 -0.073341 
-1.12898 1.03271 -0.073341 
-1.10292 1.03271 -0.073341 
-1.06897 1.10858 -0.086601 
-1.16292 1.10858 -0.086601 
-1.16292 1.10858 -0.060707 
-1.06897 1.10858 -0.060707 
-1.01462 1.03933 -0.037698 
-1.21728 1.03933 -0.037698 
-1.20159 0.913058 -0.037698 
-1.0303 0.913058 -0.037698 
-1.06897 0.970069 -0.060707 
-1.16292 0.970069 -0.060707 
-1.16292 0.970069 -0.086601 
-1.06897 0.970069 -0.086601 
-1.17153 1.03933 -0.060707 
-1.17153 1.03933 -0.086601 
-1.06037 1.03933 -0.086601 
-1.06037 1.03933 -0.060707 
-1.12898 0.997459 -0.086601 
-1.10292 0.997459 -0.086601 
-1.12898 1.03271 -0.086601 
-1.10593 1.07579 -0.086601 
-1.12596 1.07579 -0.086601 
-1.10292 1.03271 -0.086601 
-1.10593 1.07579 -0.073341 
-1.09091 1.06795 -0.086601 
-1.09091 1.06795 -0.073341 
-1.14098 1.04397 -0.086601 
-1.14098 1.04397 -0.073341 
-1.14098 1.06795 -0.086601 
-1.14098 1.06795 -0.073341 
-1.09091 1.04397 -0.073341 
-1.09091 1.04397 -0.086601 
-1.0303 1.13367 -0.037698 
-1.20159 1.13367 -0.037698 
-1.12596 1.07579 -0.073341 
-1.20159 0.913058 -0.060707 
-1.21728 1.03933 -0.060707 
-1.0303 0.913058 -0.060707 
-1.01462 1.03933 -0.060707 
-1.20159 1.13367 -0.060707 
-1.0303 1.13367 -0.060707 
-1.19141 0.946517 0.07499 
-1.18702 0.947334 0.087661 
-1.15663 0.971326 0.078748 
-1.15774 0.972471 0.067242 
-1.15014 0.982407 0.06487 
-1.14852 0.977963 0.08454 
-1.0836 0.977963 0.08454 
-1.08197 0.982407 0.06487 
-1.07564 0.972471 0.067242 
-1.07633 0.971326 0.078748 
-1.0451 0.947334 0.087661 
-1.0407 0.946517 0.07499 
-1.02525 0.899407 0.102351 
-1.02057 0.896452 0.086941 
-1.03305 0.834261 0.121061 
-1.02948 0.824859 0.104032 
-1.07786 0.810827 0.128136 
-1.07595 0.798122 0.110415 
-1.08169 0.779754 0.114799 
-1.08332 0.80112 0.141429 
-1.1488 0.80112 0.141429 
-1.15043 0.779754 0.114799 
-1.15617 0.798122 0.110415 
-1.15426 0.810827 0.128136 
-1.19907 0.834261 0.121061 
-1.20264 0.824859 0.104032 
-1.20686 0.899407 0.102351 
-1.21155 0.896452 0.086941 
-1.15663 0.966253 0.057494 
-1.15235 0.952095 0.060868 
-1.17237 0.934543 0.065202 
-1.18702 0.941522 0.063316 
-1.0836 0.969557 0.049328 
-1.08983 0.945505 0.054749 
-1.14228 0.945505 0.054749 
-1.14852 0.969557 0.049328 
-1.0451 0.941522 0.063316 
-1.05974 0.934543 0.065202 
-1.07898 0.952095 0.060868 
-1.07633 0.966253 0.057494 
-1.02525 0.89214 0.071855 
-1.0438 0.888538 0.072949 
-1.03305 0.825555 0.084592 
-1.04927 0.851066 0.078573 
-1.07786 0.801453 0.088865 
-1.08524 0.829518 0.082186 
-1.1488 0.786787 0.08139 
-1.14247 0.827715 0.071107 
-1.08965 0.827715 0.071107 
-1.08332 0.786787 0.08139 
-1.19907 0.825556 0.084592 
-1.18284 0.851066 0.078573 
-1.14688 0.829518 0.082186 
-1.15426 0.801453 0.088865 
-1.20686 0.89214 0.071855 
-1.18832 0.888538 0.072949 
-1.17237 0.940255 0.08913 
-1.15235 0.957171 0.082132 
-1.14228 0.954055 0.090568 
-1.08983 0.954055 0.090568 
-1.07898 0.957171 0.082132 
-1.05974 0.940255 0.08913 
-1.0438 0.895711 0.102999 
-1.04927 0.85974 0.114908 
-1.08524 0.838883 0.121418 
-1.08965 0.842279 0.132117 
-1.14247 0.842279 0.132117 
-1.14688 0.838883 0.121418 
-1.18284 0.85974 0.114908 
-1.18832 0.895711 0.102999 
-1.15109 0.950211 0.072556 
-1.16813 0.935262 0.077676 
-1.09168 0.940501 0.074874 
-1.14044 0.940501 0.074874 
-1.06398 0.935262 0.077676 
-1.07976 0.950211 0.072556 
-1.04952 0.890914 0.088263 
-1.0545 0.864091 0.094666 
-1.08759 0.843099 0.099677 
-1.14046 0.850544 0.0979 
-1.09166 0.850544 0.0979 
-1.17762 0.864091 0.094666 
-1.14453 0.843099 0.099677 
-1.1826 0.890914 0.088263 
-1.10292 0.997459 0.073341 
-1.10292 1.03271 0.073341 
-1.12898 1.03271 0.073341 
-1.12898 0.997459 0.073341 
-1.06897 1.10858 0.086601 
-1.06897 1.10858 0.060707 
-1.16292 1.10858 0.060707 
-1.16292 1.10858 0.086601 
-1.01462 1.03933 0.037698 
-1.0303 0.913058 0.037698 
-1.20159 0.913058 0.037698 
-1.21728 1.03933 0.037698 
-1.06897 0.970069 0.060707 
-1.06897 0.970069 0.086601 
-1.16292 0.970069 0.086601 
-1.16292 0.970069 0.060707 
-1.17153 1.03933 0.086601 
-1.17153 1.03933 0.060707 
-1.06037 1.03933 0.060707 
-1.06037 1.03933 0.086601 
-1.10292 0.997459 0.086601 
-1.12898 0.997459 0.086601 
-1.12898 1.03271 0.086601 
-1.12596 1.07579 0.086601 
-1.10593 1.07579 0.086601 
-1.10292 1.03271 0.086601 
-1.10593 1.07579 0.073341 
-1.09091 1.06795 0.073341 
-1.09091 1.06795 0.086601 
-1.14098 1.04397 0.086601 
-1.14098 1.04397 0.073341 
-1.14098 1.06795 0.073341 
-1.14098 1.06795 0.086601 
-1.09091 1.04397 0.073341 
-1.09091 1.04397 0.086601 
-1.0303 1.13367 0.037698 
-1.20159 1.13367 0.037698 
-1.12596 1.07579 0.073341 
-1.21728 1.03933 0.060707 
-1.20159 0.913058 0.060707 
-1.0303 0.913058 0.060707 
-1.01462 1.03933 0.060707 
-1.0303 1.13367 0.060707 
-1.20159 1.13367 0.060707 
-1.01883 2.10793 -0.019994 
-0.951942 2.10875 -0.041209 
-0.976913 0.281936 -0.041209 
-0.971416 0.033054 0.022435 
-0.904709 0.043397 0.04365 
-0.977402 0.094035 0.04365 
-0.743645 2.57085 0.04365 
-0.739265 2.63568 0.022435 
-0.789265 2.64313 0.04365 
-0.788437 0.281936 0.04365 
-0.755436 0.281936 0.022435 
-0.751274 0.386969 0.04365 
-0.976913 0.281936 0.04365 
-0.950424 0.047433 -0.041209 
-0.746334 0.037795 -0.019994 
-0.814003 0.037795 -0.041209 
-0.751606 0.09883 -0.041209 
-0.762825 0.281936 -0.041209 
-0.751274 2.28888 0.04365 
-0.751274 2.28794 -0.041209 
-0.739265 2.63432 -0.041209 
-0.780861 2.62868 -0.041209 
-1.01883 2.10777 0.04365 
-0.965775 2.65239 0.04365 
-0.75322 0.037795 0.03996 
-1.025 2.18317 -0.041209 
-0.958073 2.64665 -0.041209 
-0.800709 2.54092 -0.041209 
-0.816792 2.63638 -0.041209 
-0.485065 2.15877 -0.016324 
-0.48999 0.281936 -0.034356 
-0.551952 2.15787 -0.034356 
-0.481255 0.029337 0.01974 
-0.486938 0.090373 0.037772 
-0.554203 0.029337 0.037772 
-0.745956 2.50966 0.037772 
-0.671776 2.58941 0.037772 
-0.74165 2.59499 0.01974 
-0.695732 0.281936 0.037772 
-0.752621 1.16222 0.037772 
-0.757084 0.281936 0.025692 
-0.506409 0.040304 -0.034356 
-0.48999 0.281936 0.037772 
-0.773048 0.029337 -0.016324 
-0.767365 0.090373 -0.034356 
-0.7001 0.029337 -0.034356 
-0.764313 0.281936 -0.034356 
-0.752621 2.15358 0.037772 
-0.770451 2.58988 -0.034356 
-0.752621 2.15439 -0.034356 
-0.693714 2.58971 -0.034356 
-0.485065 2.16032 0.037772 
-0.456795 2.53375 0.037772 
-0.765625 0.029337 0.043295 
-0.478893 2.25279 -0.034356 
-0.466793 2.54113 -0.034356 
-0.665936 2.50364 -0.034356 
-0.615414 2.56625 -0.034356 
-1.29846 2.15708 0.014699 
-1.25635 2.16012 0.035662 
-1.28471 2.33849 0.035662 
-0.951733 0.024584 0.018441 
-0.957909 0.084922 0.035662 
-1.03097 0.024584 0.035662 
-1.24398 0.265934 -0.016 
-1.24398 0.369767 -0.033221 
-1.20691 0.248679 -0.033221 
-0.962658 2.57238 0.035662 
-0.940414 2.64507 0.018441 
-1.01765 2.65505 0.035662 
-1.03097 0.024584 -0.033221 
-0.957909 0.084922 -0.033221 
-0.951733 0.024584 -0.016 
-0.985863 2.38364 -0.033221 
-0.940414 2.64101 -0.033221 
-0.976429 2.2947 0.035662 
-1.11377 0.059076 -0.033221 
-1.10121 0.024584 -0.033221 
-1.09799 0.024584 0.035662 
-1.1119 0.048399 0.035662 
-1.29846 2.17321 -0.033221 
-1.09011 2.59257 -0.033221 
-1.04689 2.65205 -0.033221 
-1.07086 2.65352 -0.01712 
-1.26868 0.017685 -0.033221 
-1.26868 0.017685 0.035662 
-1.24398 0.265934 0.035662 
-1.25016 0.205597 -0.033221 
-1.03021 0.392287 -0.033221 
-0.976429 0.354497 -0.016 
-0.970253 0.29416 -0.033221 
-0.976429 0.284784 0.013944 
-1.26609 2.69425 0.035662 
-1.26609 2.69437 -0.016 
-1.2665 2.60019 -0.033221 
-1.13022 0.017685 -0.033221 
-1.13043 0.017685 0.035662 
-1.10012 2.65288 -0.033221 
-0.240372 2.00023 -0.01357 
-0.351078 2.0236 -0.028361 
-0.2342 2.07452 -0.028361 
-0.508064 0.062673 -0.01357 
-0.502689 0.12301 -0.028361 
-0.439075 0.062673 -0.028361 
-0.238129 0.261727 0.016011 
-0.238129 0.36556 0.030802 
-0.270416 0.244472 0.030802 
-0.221851 2.26186 0.030802 
-0.215679 2.344 0.016011 
-0.285145 2.40118 0.030802 
-0.526447 2.40279 -0.028361 
-0.532623 2.48584 -0.01357 
-0.453388 2.48782 -0.028361 
-0.439075 0.062673 0.030802 
-0.502689 0.12301 0.030802 
-0.508064 0.062673 0.016011 
-0.507927 2.1041 0.030802 
-0.532623 2.48581 0.030802 
-0.507927 2.1036 -0.00508 
-0.366974 0.097165 0.030802 
-0.377918 0.062673 0.030802 
-0.380718 0.062673 -0.028361 
-0.368607 0.086487 -0.028361 
-0.240372 2.00025 0.004797 
-0.392597 2.41627 0.030802 
-0.423389 2.48685 0.030802 
-0.398796 2.48359 0.016973 
-0.216629 0.055773 0.030802 
-0.216629 0.055773 -0.028361 
-0.238129 0.261727 -0.028361 
-0.232754 0.20139 0.030802 
-0.439739 0.38808 0.030802 
-0.486561 0.35029 0.016011 
-0.49194 0.289952 0.030802 
-0.486561 0.315392 -0.028361 
-0.215679 2.34184 -0.028361 
-0.352657 0.055773 0.030802 
-0.35247 0.055773 -0.028361 
-0.374767 2.47274 0.030802 
-0.256001 2.02364 0.022435 
-0.244453 0.281936 0.04365 
-0.189114 2.02264 0.04365 
-0.259136 0.037795 -0.019994 
-0.253803 0.09883 -0.041209 
-0.190678 0.037795 -0.041209 
0.030075 2.09154 -0.041209 
-0.034222 2.22154 -0.041209 
0.032509 2.13652 -0.019994 
-0.061111 0.281936 -0.041209 
-0.003887 0.386969 -0.041209 
0 0.281936 -0.019994 
-0.235527 0.048762 0.04365 
-0.244453 0.281936 -0.041209 
0.014687 0.037795 0.022435 
0.00935 0.09883 0.04365 
-0.053772 0.037795 0.04365 
0 0.281936 0.04365 
0.011551 1.85039 -0.041209 
0.032509 2.10649 0.04365 
0.011551 1.85039 0.04365 
-0.022381 2.16067 0.04365 
-0.256001 2.02358 -0.041209 
-0.219437 2.30908 -0.041209 
0.007717 0.037795 -0.037519 
-0.262177 2.10285 0.04365 
-0.20858 2.31662 0.04365 
-0.05035 2.09439 0.04365 
-0.073025 2.21568 0.04365 
-0.683182 0.47834 0.055946 
-0.641502 0.463845 0.051081 
-0.641502 0.625518 0.051081 
-0.683182 0.611023 0.055946 
-0.641502 0.625518 -0.05525 
-0.683182 0.611023 -0.060116 
-0.641502 0.463845 -0.05525 
-0.683182 0.47834 -0.060116 
-0.907543 0.533719 0.061084 
-0.907543 0.555644 0.061084 
-0.907543 0.555644 -0.065254 
-0.907543 0.533719 -0.065254 
0.033169 0.491228 -0.044681 
0.033169 0.598592 -0.044681 
0.033169 0.598592 0.040511 
0.033169 0.491228 0.040511 
-0.489861 0.591867 -0.058245 
-0.557636 0.608153 -0.054688 
-0.557636 0.608153 0.050519 
-0.489861 0.591867 0.054076 
-0.557636 0.479467 0.050519 
-0.489861 0.484503 0.054076 
-0.557636 0.479467 -0.054688 
-0.489861 0.484503 -0.058245 
-0.787525 0.651109 0.061084 
-0.787525 0.438253 0.061084 
-0.787525 0.651109 -0.065254 
-0.787525 0.438253 -0.065254 
-0.224464 0.49544 -0.061766 
-0.268791 0.494754 -0.043321 
-0.268791 0.602117 -0.043321 
-0.224464 0.602804 -0.061766 
-0.268791 0.602117 0.039152 
-0.224464 0.602804 0.057597 
-0.268791 0.494754 0.039152 
-0.224464 0.49544 0.057597 
0.009216 0.491228 -0.06493 
0.009216 0.598592 -0.06493 
0.009216 0.598592 0.06076 
0.009216 0.491228 0.06076 
-0.607899 0.658307 0.049849 
-0.607899 0.431056 0.049849 
-0.607899 0.658307 -0.054019 
-0.607899 0.431056 -0.054019 
-0.683182 1.43287 0.055946 
-0.641502 1.41875 0.051081 
-0.641502 1.57639 0.051081 
-0.683182 1.56235 0.055946 
-0.641502 1.57643 -0.05525 
-0.683182 1.5624 -0.060116 
-0.641502 1.41875 -0.05525 
-0.683182 1.43288 -0.060116 
-0.907543 1.48719 0.061084 
-0.907543 1.50868 0.061084 
-0.907543 1.50872 -0.065254 
-0.907543 1.48723 -0.065254 
0.033169 1.44738 -0.044681 
0.033169 1.54764 -0.044681 
0.033169 1.54764 0.040511 
0.033169 1.44738 0.040511 
-0.489861 1.5416 -0.058245 
-0.557636 1.55907 -0.054688 
-0.557636 1.55905 0.050519 
-0.489861 1.54156 0.054076 
-0.557636 1.43388 0.050519 
-0.489861 1.4411 0.054076 
-0.557636 1.43388 -0.054688 
-0.489861 1.4411 -0.058245 
-0.787525 1.60216 0.061084 
-0.787525 1.394 0.061084 
-0.787525 1.60223 -0.065254 
-0.787525 1.394 -0.065254 
-0.224464 1.44522 -0.061766 
-0.268791 1.4415 -0.043321 
-0.268791 1.54176 -0.043321 
-0.224464 1.54548 -0.061766 
-0.268791 1.54176 0.039152 
-0.224464 1.54548 0.057597 
-0.268791 1.4415 0.039152 
-0.224464 1.44522 0.057597 
0.009216 1.44738 -0.06493 
0.009216 1.54764 -0.06493 
0.009216 1.54764 0.06076 
0.009216 1.44738 0.06076 
-0.607899 1.60836 0.049849 
-0.607899 1.38699 0.049849 
-0.607899 1.6084 -0.054019 
-0.607899 1.38699 -0.054019 
-0.229122 1.9769 0.061084 
-0.264702 1.9774 0.037805 
-0.264702 1.85448 0.037805 
-0.229122 1.85412 0.061084 
-0.229122 1.97688 -0.065254 
-0.264702 1.9774 -0.041975 
-0.229122 1.85416 -0.065254 
-0.264702 1.85451 -0.041975 
-1.32148 1.86462 0.03311 
-1.32148 1.98157 0.03311 
-1.32148 1.98166 -0.03728 
-1.32148 1.8647 -0.03728 
0.031269 1.85702 -0.03728 
0.031269 1.97091 -0.03728 
0.031269 1.97091 0.03311 
0.031269 1.85702 0.03311 
0.010494 1.97484 -0.065254 
0.010494 1.97484 0.061084 
0.010494 1.85317 0.061084 
0.010494 1.85317 -0.065254 
-0.485229 1.98725 0.061084 
-0.485229 1.86335 0.061084 
-0.485229 1.98739 -0.065254 
-0.485229 1.86346 -0.065254 
-0.776882 1.98574 0.061084 
-0.776882 1.86084 0.061084 
-0.776882 1.98593 -0.065254 
-0.776882 1.861 -0.065254 
-0.960396 1.97912 0.052303 
-0.960396 1.85394 0.052303 
-0.960396 1.97926 -0.046992 
-0.960396 1.85405 -0.046992 
-1.00463 1.97912 0.061084 
-1.00463 1.85394 0.061084 
-1.00463 1.97932 -0.065254 
-1.00463 1.8541 -0.065254 
-1.30402 1.98563 0.061084 
-1.30402 1.86077 0.061084 
-1.30402 1.98582 -0.065254 
-1.30402 1.86091 -0.065254 
-1.15617 0.798122 -0.110415 
-1.07786 0.810827 -0.128136 
-1.07786 0.801453 -0.088865 
-1.15426 0.801453 -0.088865 
-1.14688 0.829518 -0.082186 
-1.15426 0.810827 -0.128136 
-1.08524 0.838883 -0.121418 
-1.08524 0.829518 -0.082186 
-1.14453 0.843099 -0.099678 
-1.08759 0.843099 -0.099678 
-1.14688 0.838883 -0.121418 
-1.10292 0.997459 -0.073341 
-1.12898 0.997459 -0.073341 
-1.10292 1.03271 -0.073341 
-1.10593 1.07579 -0.073341 
-1.09091 1.06795 -0.073341 
-1.09091 1.04397 -0.073341 
-1.14098 1.04397 -0.073341 
-1.14098 1.06795 -0.073341 
-1.12596 1.07579 -0.073341 
-1.15617 0.798122 0.110415 
-1.15426 0.810827 0.128136 
-1.07595 0.798122 0.110415 
-1.07786 0.810827 0.128136 
-1.07786 0.801453 0.088865 
-1.08524 0.829518 0.082186 
-1.15426 0.801453 0.088865 
-1.14688 0.829518 0.082186 
-1.14688 0.838883 0.121418 
-1.08524 0.838883 0.121418 
-1.08759 0.843099 0.099677 
-1.14453 0.843099 0.099677 
-1.10292 0.997459 0.073341 
-1.12898 0.997459 0.073341 
-1.10292 1.03271 0.073341 
-1.09091 1.06795 0.073341 
-1.10593 1.07579 0.073341 
-1.09091 1.04397 0.073341 
-1.14098 1.06795 0.073341 
-1.14098 1.04397 0.073341 
-1.12898 1.03271 0.073341 
-1.12596 1.07579 0.073341 
-0.976913 0.281936 -0.041209 
-0.751606 0.09883 -0.041209 
-0.739265 2.63568 0.022435 
-0.743645 2.57085 0.04365 
-0.743645 2.57085 0.04365 
-0.789265 2.64313 0.04365 
-0.788437 0.281936 0.04365 
-0.977402 0.094035 0.04365 
-0.904709 0.043397 0.04365 
-0.762825 0.281936 -0.041209 
-0.751274 0.386969 0.04365 
-0.965775 2.65239 0.04365 
-1.01883 2.10777 0.04365 
-0.751274 2.28794 -0.041209 
-1.01883 2.10793 -0.019994 
-0.951942 2.10875 -0.041209 
-1.025 2.18317 -0.041209 
-0.789265 2.64313 0.04365 
-0.800709 2.54092 -0.041209 
-0.816792 2.63638 -0.041209 
-0.958073 2.64665 -0.041209 
-0.739265 2.63432 -0.041209 
-0.48999 0.281936 -0.034356 
-0.767365 0.090373 -0.034356 
-0.745956 2.50966 0.037772 
-0.74165 2.59499 0.01974 
-0.671776 2.58941 0.037772 
-0.671776 2.58941 0.037772 
-0.745956 2.50966 0.037772 
-0.486938 0.090373 0.037772 
-0.48999 0.281936 0.037772 
-0.695732 0.281936 0.037772 
-0.757084 0.281936 0.025692 
-0.764313 0.281936 -0.034356 
-0.752621 1.16222 0.037772 
-0.752621 1.16222 0.037772 
-0.485065 2.16032 0.037772 
-0.456795 2.53375 0.037772 
-0.752621 2.15439 -0.034356 
-0.485065 2.15877 -0.016324 
-0.478893 2.25279 -0.034356 
-0.765625 0.029337 0.043295 
-0.665936 2.50364 -0.034356 
-0.615414 2.56625 -0.034356 
-0.770451 2.58988 -0.034356 
-0.940414 2.64101 -0.033221 
-0.985863 2.38364 -0.033221 
-1.03021 0.392287 -0.033221 
-1.29846 2.17321 -0.033221 
-1.28471 2.33849 0.035662 
-1.01765 2.65505 0.035662 
-0.976429 0.284784 0.013944 
-1.24398 0.265934 0.035662 
-1.29846 2.15708 0.014699 
-1.25016 0.205597 -0.033221 
-1.20691 0.248679 -0.033221 
-1.11377 0.059076 -0.033221 
-1.1119 0.048399 0.035662 
-1.03097 0.024584 0.035662 
-1.1119 0.048399 0.035662 
-1.09799 0.024584 0.035662 
-0.970253 0.29416 -0.033221 
-0.957909 0.084922 0.035662 
-0.976429 0.284784 0.013944 
-1.09011 2.59257 -0.033221 
-1.26609 2.69425 0.035662 
-1.2665 2.60019 -0.033221 
-1.10012 2.65288 -0.033221 
-0.532623 2.48581 0.030802 
-0.507927 2.1041 0.030802 
-0.439739 0.38808 0.030802 
-0.240372 2.00025 0.004797 
-0.2342 2.07452 -0.028361 
-0.507927 2.1036 -0.00508 
-0.486561 0.315392 -0.028361 
-0.238129 0.261727 -0.028361 
-0.240372 2.00023 -0.01357 
-0.232754 0.20139 0.030802 
-0.270416 0.244472 0.030802 
-0.366974 0.097165 0.030802 
-0.368607 0.086487 -0.028361 
-0.439075 0.062673 -0.028361 
-0.380718 0.062673 -0.028361 
-0.49194 0.289952 0.030802 
-0.439075 0.062673 0.030802 
-0.502689 0.12301 0.030802 
-0.502689 0.12301 -0.028361 
-0.392597 2.41627 0.030802 
-0.215679 2.34184 -0.028361 
-0.285145 2.40118 0.030802 
-0.374767 2.47274 0.030802 
-0.244453 0.281936 0.04365 
0.00935 0.09883 0.04365 
0.030075 2.09154 -0.041209 
-0.034222 2.22154 -0.041209 
-0.253803 0.09883 -0.041209 
-0.244453 0.281936 -0.041209 
-0.061111 0.281936 -0.041209 
0 0.281936 0.04365 
-0.003887 0.386969 -0.041209 
-0.256001 2.02358 -0.041209 
0.011551 1.85039 0.04365 
-0.256001 2.02364 0.022435 
-0.262177 2.10285 0.04365 
-0.05035 2.09439 0.04365 
-0.073025 2.21568 0.04365 
0.032509 2.10649 0.04365 
-1.07595 0.798122 -0.110415 
-1.12898 1.03271 -0.073341 
-0.814003 0.037795 -0.041209 
-0.950424 0.047433 -0.041209 
-0.751274 2.28888 0.04365 
-0.75322 0.037795 0.03996 
-0.976913 0.281936 0.04365 
-0.780861 2.62868 -0.041209 
-0.506409 0.040304 -0.034356 
-0.7001 0.029337 -0.034356 
-0.752621 2.15358 0.037772 
-0.765625 0.029337 0.043295 
-0.554203 0.029337 0.037772 
-0.466793 2.54113 -0.034356 
-0.693714 2.58971 -0.034356 
-1.04689 2.65205 -0.033221 
-1.24398 0.369767 -0.033221 
-0.976429 2.2947 0.035662 
-0.962658 2.57238 0.035662 
-1.13022 0.017685 -0.033221 
-1.26868 0.017685 -0.033221 
-1.26868 0.017685 0.035662 
-1.13043 0.017685 0.035662 
-0.957909 0.084922 -0.033221 
-1.26609 2.69437 -0.016 
-0.423389 2.48685 0.030802 
-0.238129 0.36556 0.030802 
-0.526447 2.40279 -0.028361 
-0.453388 2.48782 -0.028361 
-0.352657 0.055773 0.030802 
-0.216629 0.055773 0.030802 
-0.216629 0.055773 -0.028361 
-0.35247 0.055773 -0.028361 
-0.377918 0.062673 0.030802 
-0.221851 2.26186 0.030802 
-0.235527 0.048762 0.04365 
-0.053772 0.037795 0.04365 
0.011551 1.85039 -0.041209 
-0.219437 2.30908 -0.041209 
0.007717 0.037795 -0.037519 
-0.190678 0.037795 -0.041209 
-0.20858 2.31662 0.04365 
-0.022381 2.16067 0.04365 
3 1 3 0
3 5 7 4
3 8 5 4
3 11 8 10
3 6 10 7
3 5 13 6
3 14 5 9
3 15 9 11
3 13 11 6
3 12 0 13
3 2 12 14
3 3 14 15
3 13 3 15
3 7 8 4
3 17 19 16
3 19 20 21
3 20 23 21
3 22 25 23
3 25 26 27
3 26 16 27
3 28 18 17
3 28 20 18
3 28 22 20
3 28 24 22
3 28 26 24
3 17 26 28
3 30 32 29
3 30 34 31
3 35 34 33
3 37 36 35
3 37 40 38
3 29 40 39
3 41 32 31
3 41 31 34
3 41 34 36
3 41 36 38
3 41 38 40
3 32 41 40
3 43 45 42
3 42 47 46
3 46 49 48
3 43 49 44
3 50 45 44
3 45 52 47
3 52 49 47
3 53 44 49
3 54 51 50
3 51 56 52
3 56 53 52
3 57 50 53
3 59 61 58
3 62 60 59
3 62 65 63
3 66 65 64
3 68 67 66
3 68 61 69
3 70 61 60
3 70 60 63
3 70 63 65
3 70 65 67
3 70 67 69
3 61 70 69
3 72 74 71
3 72 76 73
3 75 78 76
3 77 80 78
3 81 80 79
3 71 82 81
3 83 74 73
3 83 73 76
3 83 76 78
3 83 78 80
3 83 80 82
3 74 83 82
3 85 87 84
3 86 89 87
3 89 90 91
3 90 93 91
3 93 94 95
3 95 85 84
3 96 86 85
3 96 88 86
3 96 90 88
3 96 92 90
3 96 94 92
3 85 94 96
3 97 99 100
3 99 102 100
3 101 104 102
3 104 105 106
3 106 107 108
3 108 98 97
3 109 99 98
3 109 101 99
3 109 103 101
3 109 105 103
3 109 107 105
3 98 107 109
3 111 113 110
3 112 115 113
3 115 116 117
3 116 119 117
3 119 120 121
3 121 111 110
3 122 112 111
3 122 114 112
3 122 116 114
3 122 118 116
3 122 120 118
3 111 120 122
3 124 126 123
3 125 128 126
3 128 129 130
3 129 132 130
3 132 133 134
3 134 124 123
3 135 125 124
3 135 127 125
3 135 129 127
3 135 131 129
3 135 133 131
3 124 133 135
3 137 139 136
3 139 140 141
3 141 142 143
3 143 144 145
3 144 147 145
3 146 136 147
3 148 138 137
3 148 140 138
3 148 142 140
3 148 144 142
3 148 146 144
3 137 146 148
3 150 152 149
3 153 151 150
3 153 156 154
3 157 156 155
3 159 158 157
3 159 152 160
3 161 152 151
3 161 151 154
3 161 154 156
3 161 156 158
3 161 158 160
3 152 161 160
3 162 164 165
3 166 164 163
3 166 169 167
3 168 171 169
3 172 171 170
3 172 165 173
3 174 165 164
3 174 164 167
3 174 167 169
3 174 169 171
3 174 171 173
3 165 174 173
3 176 178 175
3 179 177 176
3 179 182 180
3 183 182 181
3 183 186 184
3 185 178 186
3 187 178 177
3 187 177 180
3 187 180 182
3 187 182 184
3 187 184 186
3 178 187 186
3 188 190 191
3 192 194 195
3 197 199 196
3 200 198 197
3 200 203 201
3 202 205 203
3 206 208 209
3 211 213 210
3 214 212 211
3 214 191 215
3 217 219 216
3 220 222 223
3 224 226 227
3 224 229 228
3 228 231 230
3 230 233 232
3 234 236 237
3 238 240 241
3 242 241 243
3 217 243 218
3 191 244 245
3 194 247 195
3 198 249 199
3 198 250 248
3 201 251 250
3 203 252 251
3 208 254 209
3 212 256 213
3 215 255 212
3 191 257 215
3 218 259 219
3 222 261 223
3 227 262 263
3 227 264 229
3 229 265 231
3 231 266 233
3 237 267 268
3 241 269 270
3 243 270 271
3 218 271 258
3 264 248 250
3 265 250 251
3 266 251 252
3 267 253 268
3 269 255 270
3 270 257 271
3 271 245 258
3 258 244 259
3 261 247 246
3 263 249 248
3 217 214 242
3 217 189 188
3 220 192 221
3 224 196 225
3 224 200 197
3 230 200 228
3 232 202 230
3 234 206 235
3 239 211 210
3 238 214 211
3 740 208 207
3 204 209 741
3 742 236 235
3 743 237 744
3 745 253 208
3 741 254 746
3 747 267 236
3 744 268 748
3 746 267 749
3 750 268 253
3 740 234 743
3 204 235 206
3 199 193 196
3 190 192 195
3 219 221 216
3 226 220 223
3 249 194 199
3 244 195 247
3 259 222 219
3 262 223 261
3 259 247 260
3 262 246 249
3 225 193 220
3 216 192 189
3 273 275 272
3 277 279 276
3 280 282 283
3 285 287 284
3 285 289 286
3 287 291 284
3 286 293 287
3 289 292 286
3 276 296 277
3 290 293 297
3 292 751 293
3 294 752 292
3 295 300 298
3 297 751 753
3 294 289 301
3 301 304 302
3 305 754 755
3 306 300 299
3 290 299 276
3 290 279 291
3 308 280 307
3 288 277 289
3 306 290 297
3 289 303 301
3 295 276 299
3 277 296 303
3 306 753 756
3 309 757 758
3 309 754 275
3 294 302 274
3 296 298 759
3 296 304 303
3 285 311 288
3 284 310 285
3 284 313 312
3 279 314 315
3 278 311 314
3 279 313 291
3 310 281 311
3 312 282 310
3 313 283 312
3 314 307 315
3 311 308 314
3 315 280 313
3 316 318 319
3 320 322 323
3 325 327 324
3 326 329 327
3 329 330 331
3 331 332 333
3 334 336 337
3 339 341 338
3 340 343 341
3 343 317 316
3 345 347 344
3 348 350 351
3 352 354 355
3 357 352 356
3 359 356 358
3 361 358 360
3 362 364 365
3 366 368 369
3 370 367 366
3 347 371 370
3 317 373 318
3 374 322 321
3 376 326 325
3 326 378 328
3 328 379 330
3 330 380 332
3 381 336 335
3 383 340 339
3 384 342 340
3 385 317 342
3 386 346 345
3 388 350 349
3 353 391 354
3 392 353 357
3 393 357 359
3 394 359 361
3 363 396 364
3 367 398 368
3 371 397 367
3 346 399 371
3 392 377 390
3 393 378 392
3 394 379 393
3 382 396 395
3 384 398 397
3 385 397 399
3 372 399 387
3 373 387 386
3 388 374 389
3 390 376 391
3 343 347 370
3 347 319 344
3 320 348 351
3 324 352 355
3 352 329 356
3 329 358 356
3 331 360 358
3 334 362 365
3 369 341 366
3 366 343 370
3 760 336 761
3 335 762 763
3 764 364 765
3 363 766 767
3 761 382 768
3 381 763 769
3 765 396 770
3 395 767 771
3 396 769 770
3 768 395 771
3 362 760 766
3 762 365 764
3 323 325 324
3 318 320 319
3 351 345 344
3 354 348 355
3 322 376 325
3 373 321 318
3 350 386 345
3 391 349 354
3 386 374 373
3 375 391 376
3 355 323 324
3 320 344 319
3 401 403 400
3 405 407 404
3 408 410 411
3 413 415 412
3 416 415 414
3 418 413 412
3 420 414 413
3 421 416 414
3 423 404 407
3 420 419 425
3 772 421 420
3 773 422 421
3 427 424 426
3 772 425 774
3 422 429 416
3 431 429 430
3 433 775 776
3 427 434 428
3 428 419 404
3 405 419 418
3 408 436 435
3 407 417 416
3 434 425 419
3 432 416 429
3 424 428 404
3 407 432 423
3 774 434 777
3 437 778 779
3 437 779 402
3 430 422 780
3 426 423 781
3 431 423 432
3 438 415 417
3 439 412 415
3 412 441 418
3 405 443 406
3 406 438 417
3 441 405 418
3 411 439 438
3 410 440 439
3 409 441 440
3 435 443 442
3 436 438 443
3 408 442 441
3 444 445 446
3 447 448 449
3 450 451 452
3 453 454 455
3 449 782 457
3 458 459 460
3 446 461 783
3 447 459 458
3 464 784 785
3 465 784 464
3 786 787 467
3 788 789 790
3 460 454 468
3 463 455 791
3 792 462 466
3 793 469 794
3 795 445 471
3 461 445 795
3 456 796 782
3 796 469 797
3 453 468 454
3 448 458 468
3 471 798 472
3 799 465 800
3 800 801 799
3 472 798 470
3 793 801 802
3 471 803 795
3 473 474 475
3 476 477 478
3 479 480 481
3 482 483 484
3 804 486 477
3 487 488 489
3 805 490 474
3 489 476 487
3 806 492 493
3 494 807 808
3 496 809 810
3 811 812 813
3 814 815 488
3 815 816 493
3 495 491 817
3 818 498 819
3 820 500 475
3 490 475 474
3 821 486 804
3 473 475 822
3 482 484 497
3 487 478 823
3 822 500 501
3 808 824 494
3 824 808 825
3 501 499 822
3 819 825 808
3 826 500 820
3 502 503 504
3 505 506 507
3 508 509 510
3 511 512 513
3 514 515 516
3 518 512 511
3 521 523 520
3 525 827 517
3 526 527 513
3 530 508 531
3 532 828 533
3 535 506 515
3 519 533 828
3 524 517 829
3 538 830 831
3 832 536 504
3 833 503 834
3 835 830 509
3 508 510 531
3 532 533 534
3 502 834 503
3 516 507 514
3 539 523 540
3 836 837 838
3 528 540 529
3 839 833 834
3 840 841 522
3 514 842 521
3 837 829 843
3 514 520 515
3 844 845 841
3 526 846 527
3 846 541 527
3 541 537 847
3 848 849 525
3 542 543 544
3 545 546 547
3 548 549 550
3 551 552 553
3 554 555 556
3 557 558 559
3 561 555 554
3 564 566 563
3 568 850 560
3 569 570 556
3 573 548 574
3 575 851 576
3 578 546 577
3 562 576 851
3 567 560 852
3 551 853 854
3 579 544 855
3 856 543 857
3 858 853 549
3 548 550 574
3 575 576 577
3 542 857 543
3 559 547 557
3 580 566 581
3 859 860 861
3 571 581 572
3 862 856 857
3 863 862 565
3 557 864 564
3 860 852 865
3 866 861 867
3 868 856 862
3 569 869 570
3 869 582 570
3 556 553 870
3 871 872 568
3 583 584 585
3 586 587 588
3 589 590 591
3 592 593 594
3 873 596 587
3 597 598 599
3 874 600 584
3 599 586 597
3 589 602 603
3 604 591 590
3 875 605 876
3 877 878 879
3 594 880 598
3 880 593 603
3 881 878 601
3 882 608 606
3 883 610 585
3 883 584 600
3 884 596 873
3 583 585 885
3 592 594 607
3 597 588 607
3 885 610 611
3 590 886 604
3 886 590 887
3 611 609 885
3 606 887 590
3 888 610 883
3 613 615 612
3 615 616 617
3 616 619 617
3 618 612 619
3 621 623 620
3 625 627 624
3 629 631 628
3 631 632 633
3 632 635 633
3 634 628 635
3 636 620 637
3 622 636 638
3 623 638 639
3 620 639 637
3 640 642 643
3 642 645 643
3 644 647 645
3 646 640 647
3 640 649 648
3 643 650 649
3 650 647 651
3 651 640 648
3 624 649 625
3 625 650 626
3 626 651 627
3 627 648 624
3 641 628 642
3 633 641 646
3 631 646 644
3 628 644 642
3 630 653 632
3 629 652 630
3 655 629 634
3 653 634 632
3 616 652 654
3 614 653 652
3 653 618 655
3 618 654 655
3 636 612 615
3 638 615 617
3 619 638 617
3 637 619 612
3 656 658 659
3 658 661 659
3 660 663 661
3 662 656 663
3 665 667 664
3 669 671 668
3 672 674 675
3 675 676 677
3 676 679 677
3 678 672 679
3 665 681 680
3 666 680 682
3 683 666 682
3 664 683 681
3 684 686 687
3 686 689 687
3 688 691 689
3 690 684 691
3 692 687 693
3 687 694 693
3 689 695 694
3 695 684 692
3 668 693 669
3 669 694 670
3 670 695 671
3 671 692 668
3 685 672 686
3 690 679 685
3 675 690 688
3 672 688 686
3 674 697 676
3 673 696 674
3 699 673 678
3 697 678 676
3 660 696 698
3 658 697 696
3 697 662 699
3 699 660 698
3 659 681 656
3 661 680 659
3 683 661 663
3 656 683 663
3 700 702 703
3 704 701 700
3 707 704 706
3 702 706 703
3 709 711 708
3 713 715 712
3 704 717 716
3 717 703 718
3 703 719 718
3 706 716 719
3 701 721 702
3 705 720 701
3 723 705 707
3 721 707 702
3 724 721 720
3 726 720 722
3 723 726 722
3 721 727 723
3 728 725 724
3 730 724 726
3 727 730 726
3 725 731 727
3 732 729 728
3 730 732 728
3 735 730 731
3 733 731 729
3 732 737 733
3 734 736 732
3 739 734 735
3 737 735 733
3 709 737 736
3 710 736 738
3 739 710 738
3 708 739 737
3 713 717 714
3 714 718 715
3 715 719 712
3 713 719 716
3 54 56 55
3 1 2 3
3 5 6 7
3 8 9 5
3 11 9 8
3 6 11 10
3 5 12 13
3 14 12 5
3 15 14 9
3 13 15 11
3 12 1 0
3 2 1 12
3 3 2 14
3 13 0 3
3 7 10 8
3 17 18 19
3 19 18 20
3 20 22 23
3 22 24 25
3 25 24 26
3 26 17 16
3 30 31 32
3 30 33 34
3 35 36 34
3 37 38 36
3 37 39 40
3 29 32 40
3 43 44 45
3 42 45 47
3 46 47 49
3 43 48 49
3 50 51 45
3 45 51 52
3 52 53 49
3 53 50 44
3 54 55 51
3 51 55 56
3 56 57 53
3 57 54 50
3 59 60 61
3 62 63 60
3 62 64 65
3 66 67 65
3 68 69 67
3 68 58 61
3 72 73 74
3 72 75 76
3 75 77 78
3 77 79 80
3 81 82 80
3 71 74 82
3 85 86 87
3 86 88 89
3 89 88 90
3 90 92 93
3 93 92 94
3 95 94 85
3 97 98 99
3 99 101 102
3 101 103 104
3 104 103 105
3 106 105 107
3 108 107 98
3 111 112 113
3 112 114 115
3 115 114 116
3 116 118 119
3 119 118 120
3 121 120 111
3 124 125 126
3 125 127 128
3 128 127 129
3 129 131 132
3 132 131 133
3 134 133 124
3 137 138 139
3 139 138 140
3 141 140 142
3 143 142 144
3 144 146 147
3 146 137 136
3 150 151 152
3 153 154 151
3 153 155 156
3 157 158 156
3 159 160 158
3 159 149 152
3 162 163 164
3 166 167 164
3 166 168 169
3 168 170 171
3 172 173 171
3 172 162 165
3 176 177 178
3 179 180 177
3 179 181 182
3 183 184 182
3 183 185 186
3 185 175 178
3 188 189 190
3 192 193 194
3 197 198 199
3 200 201 198
3 200 202 203
3 202 889 205
3 206 207 208
3 211 212 213
3 214 215 212
3 214 188 191
3 217 218 219
3 220 221 222
3 224 225 226
3 224 227 229
3 228 229 231
3 230 231 233
3 234 235 236
3 238 239 240
3 242 238 241
3 217 242 243
3 191 190 244
3 194 246 247
3 198 248 249
3 198 201 250
3 201 203 251
3 203 205 252
3 208 253 254
3 212 255 256
3 215 257 255
3 191 245 257
3 218 258 259
3 222 260 261
3 227 226 262
3 227 263 264
3 229 264 265
3 231 265 266
3 237 236 267
3 241 240 269
3 243 241 270
3 218 243 271
3 264 263 248
3 265 264 250
3 266 265 251
3 267 254 253
3 269 256 255
3 270 255 257
3 271 257 245
3 258 245 244
3 261 260 247
3 263 262 249
3 217 188 214
3 217 216 189
3 220 193 192
3 224 197 196
3 224 228 200
3 230 202 200
3 232 889 202
3 234 207 206
3 239 238 211
3 238 242 214
3 740 745 208
3 204 206 209
3 742 747 236
3 743 234 237
3 745 750 253
3 741 209 254
3 747 749 267
3 744 237 268
3 746 254 267
3 750 748 268
3 740 207 234
3 204 742 235
3 199 194 193
3 190 189 192
3 219 222 221
3 226 225 220
3 249 246 194
3 244 190 195
3 259 260 222
3 262 226 223
3 259 244 247
3 262 261 246
3 225 196 193
3 216 221 192
3 273 890 275
3 277 278 279
3 280 281 282
3 285 286 287
3 285 288 289
3 287 290 291
3 286 292 293
3 289 294 292
3 276 295 296
3 290 287 293
3 292 752 751
3 294 274 752
3 295 299 300
3 297 293 751
3 301 303 304
3 306 756 300
3 290 306 299
3 290 276 279
3 308 281 280
3 288 278 277
3 289 277 303
3 306 297 753
3 305 275 754
3 275 890 309
3 890 757 309
3 294 301 302
3 296 295 298
3 296 759 304
3 285 310 311
3 284 312 310
3 284 291 313
3 279 278 314
3 278 288 311
3 279 315 313
3 310 282 281
3 312 283 282
3 313 280 283
3 314 308 307
3 311 281 308
3 315 307 280
3 316 317 318
3 320 321 322
3 325 326 327
3 326 328 329
3 329 328 330
3 331 330 332
3 334 335 336
3 339 340 341
3 340 342 343
3 343 342 317
3 345 346 347
3 348 349 350
3 352 353 354
3 357 353 352
3 359 357 356
3 361 359 358
3 362 363 364
3 366 367 368
3 370 371 367
3 347 346 371
3 317 372 373
3 374 375 322
3 376 377 326
3 326 377 378
3 328 378 379
3 330 379 380
3 381 382 336
3 383 384 340
3 384 385 342
3 385 372 317
3 386 387 346
3 388 389 350
3 353 390 391
3 392 390 353
3 393 392 357
3 394 393 359
3 363 395 396
3 367 397 398
3 371 399 397
3 346 387 399
3 392 378 377
3 393 379 378
3 394 380 379
3 382 381 396
3 384 383 398
3 385 384 397
3 372 385 399
3 373 372 387
3 388 375 374
3 390 377 376
3 343 316 347
3 347 316 319
3 320 323 348
3 324 327 352
3 352 327 329
3 329 331 358
3 331 333 360
3 334 337 362
3 369 338 341
3 366 341 343
3 760 337 336
3 335 334 762
3 764 365 364
3 363 362 766
3 761 336 382
3 381 335 763
3 765 364 396
3 395 363 767
3 396 381 769
3 768 382 395
3 362 337 760
3 762 334 365
3 323 322 325
3 318 321 320
3 351 350 345
3 354 349 348
3 322 375 376
3 373 374 321
3 350 389 386
3 391 388 349
3 386 389 374
3 375 388 391
3 355 348 323
3 320 351 344
3 401 402 403
3 405 406 407
3 408 409 410
3 413 414 415
3 416 417 415
3 418 419 413
3 420 421 414
3 421 422 416
3 423 424 404
3 420 413 419
3 772 773 421
3 773 780 422
3 427 428 424
3 772 420 425
3 431 432 429
3 427 777 434
3 428 434 419
3 405 404 419
3 408 411 436
3 407 406 417
3 432 407 416
3 774 425 434
3 402 401 437
3 401 433 776
3 437 401 776
3 430 429 422
3 426 424 423
3 431 781 423
3 438 439 415
3 439 440 412
3 412 440 441
3 405 442 443
3 406 443 438
3 441 442 405
3 411 410 439
3 410 409 440
3 409 408 441
3 435 436 443
3 436 411 438
3 408 435 442
3 457 447 449
3 449 456 782
3 891 892 783
3 892 446 783
3 447 457 459
3 785 893 463
3 463 464 785
3 465 799 784
3 467 466 462
3 462 786 467
3 790 894 788
3 788 895 789
3 468 458 460
3 460 791 454
3 893 455 463
3 455 454 791
3 466 895 792
3 895 788 792
3 802 469 793
3 469 796 794
3 461 446 445
3 456 794 796
3 448 447 458
3 471 445 798
3 793 799 801
3 471 896 803
3 477 476 485
3 485 804 477
3 474 897 898
3 898 805 474
3 489 485 476
3 493 899 806
3 806 807 492
3 494 492 807
3 491 495 810
3 495 496 810
3 813 900 901
3 901 811 813
3 488 487 823
3 823 814 488
3 814 816 815
3 816 899 493
3 813 812 817
3 812 495 817
3 821 498 818
3 498 902 819
3 490 820 475
3 821 818 486
3 487 476 478
3 822 475 500
3 819 902 825
3 826 903 500
3 519 828 511
3 828 518 511
3 521 842 523
3 517 524 525
3 525 904 827
3 513 512 518
3 518 526 513
3 531 528 529
3 529 530 531
3 506 505 515
3 505 516 515
3 515 534 535
3 534 533 535
3 519 535 533
3 837 905 829
3 905 524 829
3 835 831 830
3 831 847 538
3 847 537 538
3 503 906 504
3 906 907 504
3 907 832 504
3 833 906 503
3 508 530 509
3 530 835 509
3 516 505 507
3 539 520 523
3 838 908 909
3 909 836 838
3 528 539 540
3 834 910 839
3 910 911 839
3 840 844 841
3 514 507 842
3 912 838 843
3 838 837 843
3 514 521 520
3 513 527 847
3 527 541 847
3 525 524 848
3 848 913 849
3 562 851 554
3 851 561 554
3 564 864 566
3 560 567 568
3 568 914 850
3 556 555 561
3 561 569 556
3 574 571 572
3 572 573 574
3 546 545 558
3 545 559 558
3 558 577 546
3 577 576 578
3 562 578 576
3 860 915 852
3 915 567 852
3 858 854 853
3 854 870 551
3 870 552 551
3 543 855 544
3 855 916 579
3 916 917 579
3 856 855 543
3 548 573 549
3 573 858 549
3 559 545 547
3 580 563 566
3 861 918 919
3 919 859 861
3 571 580 581
3 857 920 862
3 920 921 862
3 863 868 862
3 557 547 864
3 867 861 865
3 861 860 865
3 866 922 861
3 556 570 553
3 570 582 553
3 553 552 870
3 568 567 923
3 923 871 568
3 587 586 595
3 595 873 587
3 584 924 925
3 925 874 584
3 599 595 586
3 603 926 589
3 589 591 602
3 604 602 591
3 601 605 875
3 605 927 876
3 879 928 929
3 929 877 879
3 598 597 607
3 607 594 598
3 594 593 880
3 593 926 603
3 879 878 881
3 878 605 601
3 884 608 882
3 608 930 606
3 883 585 584
3 884 882 596
3 597 586 588
3 885 585 610
3 606 930 887
3 888 931 610
3 613 614 615
3 615 614 616
3 616 618 619
3 618 613 612
3 621 622 623
3 625 626 627
3 629 630 631
3 631 630 632
3 632 634 635
3 634 629 628
3 636 621 620
3 622 621 636
3 623 622 638
3 620 623 639
3 640 641 642
3 642 644 645
3 644 646 647
3 646 641 640
3 640 643 649
3 643 645 650
3 650 645 647
3 651 647 640
3 624 648 649
3 625 649 650
3 626 650 651
3 627 651 648
3 641 635 628
3 633 635 641
3 631 633 646
3 628 631 644
3 630 652 653
3 629 654 652
3 655 654 629
3 653 655 634
3 616 614 652
3 614 613 653
3 653 613 618
3 618 616 654
3 636 637 612
3 638 636 615
3 619 639 638
3 637 639 619
3 656 657 658
3 658 660 661
3 660 662 663
3 662 657 656
3 665 666 667
3 669 670 671
3 672 673 674
3 675 674 676
3 676 678 679
3 678 673 672
3 665 664 681
3 666 665 680
3 683 667 666
3 664 667 683
3 684 685 686
3 686 688 689
3 688 690 691
3 690 685 684
3 692 684 687
3 687 689 694
3 689 691 695
3 695 691 684
3 668 692 693
3 669 693 694
3 670 694 695
3 671 695 692
3 685 679 672
3 690 677 679
3 675 677 690
3 672 675 688
3 674 696 697
3 673 698 696
3 699 698 673
3 697 699 678
3 660 658 696
3 658 657 697
3 697 657 662
3 699 662 660
3 659 680 681
3 661 682 680
3 683 682 661
3 656 681 683
3 700 701 702
3 704 705 701
3 707 705 704
3 702 707 706
3 709 710 711
3 713 714 715
3 704 700 717
3 717 700 703
3 703 706 719
3 706 704 716
3 701 720 721
3 705 722 720
3 723 722 705
3 721 723 707
3 724 725 721
3 726 724 720
3 723 727 726
3 721 725 727
3 728 729 725
3 730 728 724
3 727 731 730
3 725 729 731
3 732 733 729
3 730 734 732
3 735 734 730
3 733 735 731
3 732 736 737
3 734 738 736
3 739 738 734
3 737 739 735
3 709 708 737
3 710 709 736
3 739 711 710
3 708 711 739
3 713 716 717
3 714 717 718
3 715 718 719
3 713 712 719
3 54 57 56
