ply
format ascii 1.0
comment INFO-3111 Flatenator generated
comment TextureFile Dungeons_Texture_01.png
element vertex 538
property float x
property float y
property float z
element face 609
property list uchar int vertex_indices
end_header
0.934362 5.05485 0.253215 
-0.009873 5.0527 0.251448 
0.066451 4.56912 0.253198 
1.52478 5.05212 0.238136 
1.03309 5.07686 0.252839 
1.05032 4.60558 0.244116 
1.88729 5.03857 0.253293 
0.88549 4.61552 0.252175 
1.86973 4.55609 0.2533 
1.04184 3.94708 0.253182 
0.124917 3.91096 0.253584 
0.736247 3.45181 0.253549 
3.93132 3.93392 0.213319 
3.94717 3.46404 0.253371 
4.25421 3.93514 0.254174 
5.02884 3.91281 0.253274 
5.01475 3.42873 0.253851 
3.88268 3.9232 0.25273 
3.90098 3.43994 0.253859 
3.05434 3.94793 0.253049 
3.04374 3.52534 0.252966 
-0.011134 3.90468 0.232284 
-0.007387 3.42193 0.253104 
1.06689 3.45005 0.216758 
3.03569 3.45025 0.2173 
5.02896 2.80352 0.253363 
4.56371 2.79555 0.254315 
4.88042 2.32005 0.251859 
3.99392 2.40181 0.242053 
5.02633 2.33717 0.235754 
4.964 1.692 0.226539 
4.83363 1.67749 0.251324 
5.0265 1.19308 0.252745 
3.34721 1.08561 0.253858 
2.48914 1.11563 0.253225 
2.64474 0.630488 0.245529 
2.49389 0.677056 0.248837 
3.32101 0.590747 0.215544 
1.04312 0.566778 0.250616 
0.961561 0.599227 0.236509 
0.926701 0.098936 0.257719 
1.68823 4.50806 0.213448 
4.2979 4.01791 0.237832 
3.41079 4.50997 0.257322 
3.43868 4.05625 0.252655 
3.34912 4.00229 0.213642 
3.05126 3.97351 0.213274 
-0.000883 2.81962 0.255401 
0.004065 2.38042 0.243419 
1.01489 2.78445 0.242049 
3.95417 2.81866 0.216894 
3.87749 2.81976 0.241271 
3.69886 2.37062 0.238887 
3.92046 2.38718 0.223954 
3.9582 1.6124 0.242904 
2.40428 0.629976 0.252501 
2.42048 1.09708 0.244534 
1.67837 0.654996 0.24798 
2.19104 0.018884 0.239563 
5.03867 5.03849 0.242983 
4.18291 5.08 0.243239 
4.57914 4.57221 0.24313 
3.42423 4.56907 0.238977 
4.11898 5.05446 0.243326 
3.18954 5.05446 0.243326 
3.28428 4.63154 0.229971 
4.1077 4.58215 0.23274 
5.02129 4.55635 0.243239 
1.95199 5.04957 0.239997 
3.21536 4.5943 0.215909 
1.94361 4.57011 0.243397 
4.26783 4.57134 0.213059 
3.38781 4.53109 0.213492 
2.47154 4.52155 0.213326 
4.23727 4.48527 0.239305 
0.968196 4.53109 0.212677 
0.577606 4.51734 0.243397 
1.64317 4.49146 0.243397 
0.488914 4.50095 0.24325 
-0.016337 4.50327 0.223643 
0.443638 4.02234 0.238125 
1.28143 4.01654 0.243199 
1.68816 4.00243 0.213546 
4.95023 4.49882 0.242778 
4.34971 4.50189 0.242709 
4.94974 4.01654 0.243397 
2.43024 4.49897 0.242861 
1.70315 4.49897 0.242861 
2.11227 4.01245 0.234343 
3.34543 4.49981 0.242138 
2.4847 4.49938 0.243436 
2.76017 4.05316 0.239028 
3.30487 4.01555 0.243577 
1.70393 4.01657 0.243397 
2.42764 4.01032 0.218182 
-0.025599 4.05874 0.22574 
0.552702 4.02689 0.211721 
4.91713 3.93204 0.217182 
1.38432 3.93212 0.243208 
1.127 3.94404 0.217025 
1.13434 3.60427 0.243397 
1.67477 3.45868 0.232482 
1.71541 3.54284 0.239744 
3.00062 3.91828 0.246242 
2.45778 3.94662 0.238922 
2.97543 3.43294 0.243664 
5.03344 3.38583 0.025292 
2.25478 3.47877 0.235456 
3.20645 3.39266 0.208745 
1.64126 3.43324 0.211402 
1.23075 3.33996 0.239915 
1.64367 2.88691 0.242829 
0.508977 3.38242 0.213577 
0.578394 2.85289 0.243396 
4.35568 3.35557 0.241402 
4.9502 2.87645 0.243017 
4.94987 3.35783 0.243397 
4.28824 3.3658 0.243373 
3.39234 3.33272 0.24327 
4.29297 2.88094 0.243368 
1.70344 3.35816 0.243341 
1.7031 2.87636 0.242754 
2.42999 3.3582 0.243361 
-0.076228 3.35782 0.243397 
0.505417 2.87647 0.243014 
0.505078 3.35782 0.243397 
4.34121 2.85329 0.213338 
2.48971 2.85848 0.235129 
3.40879 2.84788 0.243396 
0.557194 2.84199 0.213239 
2.2016 2.80351 0.242888 
1.13673 2.80296 0.241853 
2.13378 2.32228 0.23963 
1.29184 2.32578 0.24347 
3.03119 2.79154 0.230391 
2.25853 2.7978 0.243042 
2.94474 2.29864 0.243042 
2.28184 2.33219 0.240303 
2.22161 2.32396 0.21277 
-0.057356 2.3176 0.038248 
1.01311 2.30631 0.232842 
1.03731 2.28302 0.213294 
4.99271 2.24094 0.24019 
4.35772 2.28194 0.212149 
4.35671 2.05983 0.241715 
0.461185 2.20627 0.237124 
-0.072894 2.22137 0.237447 
0.074451 1.74618 0.241904 
2.42923 2.24092 0.242282 
1.70344 2.17532 0.243396 
1.70338 1.76241 0.243042 
3.31832 2.24397 0.242873 
2.49135 2.23512 0.239365 
3.34534 1.75835 0.242065 
4.7862 1.76455 0.243088 
0.507859 1.76446 0.243396 
3.40129 2.22384 0.256082 
3.41649 1.71779 0.2142 
3.40398 1.7436 0.243131 
2.48542 1.78885 0.243396 
3.95128 1.69423 0.211775 
1.05245 1.67195 0.244907 
0.000525 1.7331 0.221745 
0.985909 1.23768 0.242491 
2.25573 1.75219 -0.265956 
1.13314 1.73799 -0.235941 
2.08581 1.17792 -0.2378 
3.07146 1.82058 -0.265073 
3.20894 1.15774 -0.235822 
3.19401 1.82512 -0.224307 
3.88119 1.74072 -0.23874 
-0.016472 1.19163 0.244313 
5.0522 1.72004 0.140936 
2.23253 1.1993 -0.265138 
3.84084 1.12057 -0.236303 
2.99313 1.72064 -0.236544 
2.33135 1.73094 -0.230741 
2.92641 1.13173 -0.241068 
3.95291 1.1644 0.213549 
2.32371 1.19286 -0.238523 
1.18389 1.1782 -0.238949 
2.48377 1.14343 0.212291 
1.69548 1.14 0.239257 
0.567513 1.11188 0.211303 
-0.055914 1.09095 0.243349 
0.476166 0.780356 0.239457 
0.570038 0.606061 0.243198 
1.17124 1.0912 0.243073 
1.63875 0.606174 0.243202 
4.99474 1.08469 0.240118 
4.30385 1.08385 0.243396 
4.99146 0.607229 0.243396 
4.3526 0.606584 0.243396 
-0.05742 0.604504 0.240349 
2.46189 0.583192 0.211278 
0.53547 0.721554 0.20568 
0.420776 0.545569 0.209855 
3.6112 0.594063 0.213494 
3.40691 1.1095 0.243247 
3.39201 0.628746 0.243242 
1.64014 0.580754 0.213338 
3.17908 0.526348 0.241699 
2.23086 0.52229 0.213436 
3.17833 0.041467 0.243396 
3.6988 0.519309 0.243396 
3.24114 0.543827 0.242026 
3.22952 0.05492 0.243288 
4.30414 0.522874 0.243099 
5.02887 0.041846 0.243396 
5.02943 0.527628 0.238729 
-0.022527 0.497341 0.24338 
0.861372 0.05578 0.243242 
2.30812 -0.029943 0.243396 
3.78665 0.513755 0.211252 
3.75334 0.033147 0.24332 
-0.011799 -1.9e-05 0.20718 
0.208558 0.022809 0.243026 
1.89562 5.03815 0.212661 
2.27909 3.98093 0.213409 
3.30648 2.92571 0.23835 
3.40255 2.83444 0.216921 
1.71696 2.81443 0.215627 
0.024094 2.25242 0.211952 
2.95935 2.2799 0.218684 
1.63631 2.2679 0.214222 
5.00933 2.2686 0.175846 
0.51907 2.30432 0.210263 
0.567257 2.11667 0.239075 
1.63093 2.26053 0.23557 
4.29873 2.23366 0.247547 
4.31354 1.75083 0.212955 
0.578123 1.74088 0.239429 
1.69941 1.75028 0.216776 
0.603248 1.69051 0.212909 
3.0414 1.11842 -0.268057 
1.13581 1.18742 0.217087 
1.28244 1.12614 0.208862 
1.00803 5.12462 0.127365 
1.01754 5.02384 0.217348 
1.87165 4.5312 0.213274 
-0.016545 3.40358 0.19811 
3.9315 3.45091 0.213339 
3.12471 3.33465 0.240887 
1.07538 2.81105 0.21198 
2.25536 2.85295 0.213593 
3.39045 2.26595 0.210283 
1.13541 1.6899 0.212739 
3.17493 0.596195 0.213436 
3.19202 -0.00213 0.122671 
3.21118 0.013413 0.136186 
3.79547 -0.00213 0.136218 
0.206988 3.94055 0.211745 
2.47126 2.23515 0.213545 
3.89099 2.25313 0.216611 
3.36423 1.10602 0.213338 
0.570015 4.54215 0.21352 
-0.098186 2.83066 0.136179 
2.19372 -0.033052 0.127529 
1.90637 5.08073 0.145585 
4.95648 4.52112 0.194538 
4.96427 3.97029 0.031906 
4.30513 3.37205 0.21278 
4.95837 3.38647 0.176582 
4.91708 1.17807 0.216863 
0.911952 0.078701 0.21658 
3.18425 0.078076 0.217232 
-0.053968 3.97298 0.032657 
2.93667 3.34293 0.236733 
5.01515 1.14886 0.077238 
2.19595 0.068147 0.212098 
0.882311 0.013669 0.140563 
-0.11725 2.26381 0.032649 
-0.093041 1.69501 0.032558 
5.05014 0.568407 0.136195 
5.06025 5.082 0.136216 
3.20343 5.09578 0.140971 
1.00834 5.12458 0.025292 
-0.096882 2.83139 0.031933 
5.0484 2.8444 0.025291 
4.1632 5.07072 0.032418 
1.91707 5.04224 0.130827 
5.05014 2.27562 0.028045 
-0.010145 1.12968 0.028312 
4.96588 1.1485 0.0952 
-0.035924 5.0969 0.141457 
-0.007524 0.5581 0.032944 
3.22913 5.09637 0.136196 
-0.053968 4.54197 0.032772 
2.22512 -0.041019 0.011594 
4.96629 4.51763 0.032031 
5.04942 0.567875 0.032318 
5.04854 -0.00213 0.032783 
-0.095011 3.40138 0.032461 
-0.019209 1.72951 0.03152 
5.0084 1.13222 0.077455 
-0.077355 1.1325 0.032543 
0.701058 -0.001649 0.03287 
5.05029 3.95588 0.028097 
3.79586 -0.00213 0.032783 
-0.023861 -0.028442 0.032794 
1.9297 5.09637 0.032401 
2.17985 -0.042089 0.014347 
3.20112 5.06762 0.01039 
5.05989 1.71769 0.024448 
-0.034166 5.09565 0.025292 
5.06105 1.14886 0.02503 
3.1919 -0.00213 0.032653 
5.06021 5.08149 0.032791 
5.00158 1.72793 0.03253 
-0.028706 0.063485 0.03259 
0.017388 3.49843 0.008686 
4.66853 -0.001915 0.032963 
3.75974 5.06772 0.010418 
4.95056 2.852 0.028489 
4.95226 3.34829 0.010347 
-0.010316 2.89982 0.010338 
0.88208 0.030298 0.03287 
4.95221 5.06747 0.010697 
0.002716 2.22334 0.008685 
4.53285 5.06778 0.010319 
0.002707 3.24355 0.008686 
-0.010316 3.13521 0.010339 
0.003085 1.39917 0.008685 
0.002716 3.00812 0.008685 
3.93132 3.93392 0.213319 
3.88268 3.9232 0.25273 
3.90098 3.43994 0.253859 
3.04374 3.52534 0.252966 
1.86973 4.55609 0.2533 
1.05032 4.60558 0.244116 
4.2979 4.01791 0.237832 
3.43868 4.05625 0.252655 
3.05434 3.94793 0.253049 
1.04312 0.566778 0.250616 
0.926701 0.098936 0.257719 
4.1077 4.58215 0.23274 
4.57914 4.57221 0.24313 
4.1077 4.58215 0.23274 
3.42423 4.56907 0.238977 
3.21536 4.5943 0.215909 
1.94361 4.57011 0.243397 
3.41079 4.50997 0.257322 
1.64317 4.49146 0.243397 
0.577606 4.51734 0.243397 
4.23727 4.48527 0.239305 
2.42764 4.01032 0.218182 
4.25421 3.93514 0.254174 
5.02884 3.91281 0.253274 
1.38432 3.93212 0.243208 
1.67477 3.45868 0.232482 
5.01475 3.42873 0.253851 
1.71541 3.54284 0.239744 
1.67477 3.45868 0.232482 
1.13434 3.60427 0.243397 
1.06689 3.45005 0.216758 
-0.007387 3.42193 0.253104 
0.736247 3.45181 0.253549 
4.28824 3.3658 0.243373 
4.29297 2.88094 0.243368 
4.34121 2.85329 0.213338 
3.95417 2.81866 0.216894 
-0.000883 2.81962 0.255401 
1.01489 2.78445 0.242049 
4.9502 2.87645 0.243017 
4.56371 2.79555 0.254315 
5.02896 2.80352 0.253363 
2.25853 2.7978 0.243042 
0.004065 2.38042 0.243419 
2.28184 2.33219 0.240303 
2.2016 2.80351 0.242888 
2.13378 2.32228 0.23963 
3.40129 2.22384 0.256082 
3.40398 1.7436 0.243131 
2.48542 1.78885 0.243396 
3.19401 1.82512 -0.224307 
3.20894 1.15774 -0.235822 
4.964 1.692 0.226539 
5.0265 1.19308 0.252745 
2.25573 1.75219 -0.265956 
2.08581 1.17792 -0.2378 
3.88119 1.74072 -0.23874 
3.84084 1.12057 -0.236303 
2.33135 1.73094 -0.230741 
2.32371 1.19286 -0.238523 
3.95291 1.1644 0.213549 
2.48914 1.11563 0.253225 
3.34721 1.08561 0.253858 
0.961561 0.599227 0.236509 
2.49389 0.677056 0.248837 
0.476166 0.780356 0.239457 
0.420776 0.545569 0.209855 
2.40428 0.629976 0.252501 
1.67837 0.654996 0.24798 
3.6988 0.519309 0.243396 
3.75334 0.033147 0.24332 
-0.022527 0.497341 0.24338 
3.78665 0.513755 0.211252 
3.75334 0.033147 0.24332 
0.208558 0.022809 0.243026 
1.88729 5.03857 0.253293 
3.18954 5.05446 0.243326 
3.28428 4.63154 0.229971 
0.488914 4.50095 0.24325 
0.443638 4.02234 0.238125 
0.552702 4.02689 0.211721 
1.70315 4.49897 0.242861 
1.70393 4.01657 0.243397 
3.00062 3.91828 0.246242 
2.42764 4.01032 0.218182 
2.45778 3.94662 0.238922 
2.25478 3.47877 0.235456 
3.39234 3.33272 0.24327 
3.30648 2.92571 0.23835 
2.48971 2.85848 0.235129 
1.13673 2.80296 0.241853 
1.01311 2.30631 0.232842 
1.03731 2.28302 0.213294 
1.29184 2.32578 0.24347 
4.35772 2.28194 0.212149 
4.88042 2.32005 0.251859 
3.99392 2.40181 0.242053 
2.95935 2.2799 0.218684 
2.49135 2.23512 0.239365 
3.31832 2.24397 0.242873 
1.63093 2.26053 0.23557 
0.567257 2.11667 0.239075 
3.34534 1.75835 0.242065 
2.48542 1.78885 0.243396 
0.000525 1.7331 0.221745 
1.05245 1.67195 0.244907 
2.99313 1.72064 -0.236544 
3.95128 1.69423 0.211775 
0.985909 1.23768 0.242491 
0.567513 1.11188 0.211303 
-0.016472 1.19163 0.244313 
1.17124 1.0912 0.243073 
2.42048 1.09708 0.244534 
2.23086 0.52229 0.213436 
3.17908 0.526348 0.241699 
1.52478 5.05212 0.238136 
1.03309 5.07686 0.252839 
2.43024 4.49897 0.242861 
2.4847 4.49938 0.243436 
3.34543 4.49981 0.242138 
-0.011134 3.90468 0.232284 
-0.076228 3.35782 0.243397 
0.505078 3.35782 0.243397 
3.03119 2.79154 0.230391 
2.94474 2.29864 0.243042 
5.02633 2.33717 0.235754 
1.70344 2.17532 0.243396 
2.42923 2.24092 0.242282 
-0.072894 2.22137 0.237447 
0.461185 2.20627 0.237124 
0.578123 1.74088 0.239429 
0.507859 1.76446 0.243396 
0.074451 1.74618 0.241904 
1.69941 1.75028 0.216776 
1.70338 1.76241 0.243042 
1.13314 1.73799 -0.235941 
2.92641 1.13173 -0.241068 
3.40691 1.1095 0.243247 
4.30385 1.08385 0.243396 
3.32101 0.590747 0.215544 
3.39201 0.628746 0.243242 
1.69548 1.14 0.239257 
2.64474 0.630488 0.245529 
3.6112 0.594063 0.213494 
2.23086 0.52229 0.213436 
3.24114 0.543827 0.242026 
3.22952 0.05492 0.243288 
3.17833 0.041467 0.243396 
2.30812 -0.029943 0.243396 
5.02887 0.041846 0.243396 
-0.009873 5.0527 0.251448 
-0.016337 4.50327 0.223643 
0.066451 4.56912 0.253198 
0.88549 4.61552 0.252175 
3.30487 4.01555 0.243577 
1.68816 4.00243 0.213546 
-0.025599 4.05874 0.22574 
2.76017 4.05316 0.239028 
2.97543 3.43294 0.243664 
0.508977 3.38242 0.213577 
0.578394 2.85289 0.243396 
3.69886 2.37062 0.238887 
4.29873 2.23366 0.247547 
4.35671 2.05983 0.241715 
4.31354 1.75083 0.212955 
4.7862 1.76455 0.243088 
3.9582 1.6124 0.242904 
4.83363 1.67749 0.251324 
1.18389 1.1782 -0.238949 
1.63875 0.606174 0.243202 
1.95199 5.04957 0.239997 
1.127 3.94404 0.217025 
1.28143 4.01654 0.243199 
2.11227 4.01245 0.234343 
2.27909 3.98093 0.213409 
1.64367 2.88691 0.242829 
0.570038 0.606061 0.243198 
2.19104 0.018884 0.239563 
0.934362 5.05485 0.253215 
4.34971 4.50189 0.242709 
4.95023 4.49882 0.242778 
4.94974 4.01654 0.243397 
0.124917 3.91096 0.253584 
1.04184 3.94708 0.253182 
3.94717 3.46404 0.253371 
4.94987 3.35783 0.243397 
4.35568 3.35557 0.241402 
1.23075 3.33996 0.239915 
3.12471 3.33465 0.240887 
0.505417 2.87647 0.243014 
3.40879 2.84788 0.243396 
3.95417 2.81866 0.216894 
3.87749 2.81976 0.241271 
3.92046 2.38718 0.223954 
4.99271 2.24094 0.24019 
4.99146 0.607229 0.243396 
4.30414 0.522874 0.243099 
5.02943 0.527628 0.238729 
0.861372 0.05578 0.243242 
5.02129 4.55635 0.243239 
1.71541 3.54284 0.239744 
1.64126 3.43324 0.211402 
1.70344 3.35816 0.243341 
1.7031 2.87636 0.242754 
4.3526 0.606584 0.243396 
4.18291 5.08 0.243239 
4.11898 5.05446 0.243326 
1.38432 3.93212 0.243208 
2.42999 3.3582 0.243361 
-0.055914 1.09095 0.243349 
4.99474 1.08469 0.240118 
-0.05742 0.604504 0.240349 
5.03867 5.03849 0.242983 
2.93667 3.34293 0.236733 
3 0 1 2
3 3 4 5
3 3 5 6
3 0 2 7
3 6 5 8
3 9 10 11
3 12 13 14
3 15 14 16
3 324 17 18
3 325 19 20
3 14 13 16
3 21 22 10
3 325 20 326
3 9 11 23
3 18 327 24
3 10 22 11
3 25 26 27
3 27 26 28
3 25 27 29
3 30 31 32
3 33 34 35
3 35 34 36
3 37 33 35
3 38 39 40
3 41 328 329
3 42 43 44
3 330 331 324
3 45 332 17
3 332 46 327
3 47 48 49
3 26 50 28
3 51 52 53
3 31 54 32
3 55 56 57
3 333 334 58
3 59 60 61
3 62 63 64
3 64 65 62
3 60 66 61
3 59 61 67
3 63 62 335
3 68 69 64
3 69 68 70
3 336 337 71
3 338 72 337
3 73 339 340
3 72 341 74
3 75 76 77
3 78 79 80
3 342 343 81
3 82 342 81
3 83 84 85
3 344 43 42
3 86 87 88
3 89 90 91
3 89 91 92
3 87 93 88
3 86 88 94
3 85 84 42
3 90 345 91
3 80 79 95
3 81 343 96
3 97 346 347
3 98 99 100
3 98 100 101
3 102 348 349
3 103 104 105
3 347 350 106
3 107 351 352
3 353 354 352
3 18 24 108
3 355 354 356
3 109 110 111
3 110 112 113
3 114 115 116
3 111 110 113
3 117 118 119
3 120 121 122
3 123 47 124
3 125 123 124
3 126 357 358
3 122 121 127
3 114 359 115
3 119 118 360
3 360 118 128
3 361 362 129
3 363 364 365
3 130 131 132
3 131 133 132
3 134 135 136
3 137 366 138
3 361 139 367
3 136 135 368
3 138 369 370
3 48 140 49
3 133 131 141
3 142 143 144
3 145 146 147
3 148 149 150
3 151 152 153
3 142 144 154
3 145 147 155
3 156 157 158
3 152 159 153
3 371 372 160
3 142 154 30
3 148 150 373
3 161 162 163
3 164 165 166
3 167 168 169
3 170 374 375
3 162 171 163
3 376 377 172
3 378 379 173
3 174 170 375
3 175 176 177
3 178 380 381
3 382 173 179
3 381 168 178
3 176 383 177
3 166 165 180
3 32 54 384
3 385 386 181
3 56 182 57
3 183 184 185
3 183 186 187
3 182 187 188
3 189 190 191
3 191 190 192
3 187 186 387
3 185 184 193
3 188 187 387
3 388 385 194
3 195 389 196
3 197 198 199
3 185 193 390
3 190 198 192
3 391 392 200
3 198 197 192
3 201 202 203
3 204 205 206
3 207 208 209
3 387 210 211
3 202 212 203
3 213 393 214
3 204 206 394
3 395 215 216
3 207 396 397
3 207 397 208
3 211 210 398
3 217 399 328
3 400 339 401
3 72 338 401
3 331 341 45
3 402 403 404
3 405 41 406
3 407 408 409
3 218 410 104
3 105 104 410
3 219 118 127
3 411 412 220
3 412 413 220
3 221 414 369
3 51 134 52
3 362 415 416
3 139 222 367
3 134 223 52
3 224 417 416
3 224 370 417
3 418 419 420
3 418 225 419
3 421 422 423
3 416 226 227
3 416 227 228
3 229 371 230
3 424 425 231
3 424 231 232
3 230 371 160
3 426 427 167
3 233 428 429
3 382 430 167
3 168 167 234
3 431 380 178
3 173 382 378
3 235 429 432
3 433 432 434
3 236 235 435
3 436 391 194
3 437 438 194
3 439 237 440
3 440 238 75
3 239 405 441
3 72 73 442
3 72 442 443
3 46 408 407
3 324 45 17
3 355 444 240
3 18 108 241
3 240 445 446
3 241 411 357
3 118 242 127
3 243 414 221
3 413 366 447
3 366 244 138
3 226 415 367
3 448 137 421
3 419 225 449
3 224 450 451
3 452 453 222
3 245 423 426
3 227 226 454
3 226 453 455
3 456 452 428
3 450 457 458
3 378 427 458
3 457 459 378
3 380 157 169
3 431 157 380
3 167 430 234
3 459 246 235
3 234 430 460
3 235 433 435
3 178 461 462
3 461 463 464
3 465 200 392
3 466 388 194
3 194 247 466
3 196 395 39
3 213 467 393
3 468 333 58
3 469 247 470
3 248 471 472
3 249 214 470
3 250 473 214
3 474 475 476
3 440 75 329
3 477 75 238
3 71 74 330
3 45 443 478
3 41 479 406
3 403 480 251
3 478 481 46
3 407 482 46
3 107 24 482
3 354 355 483
3 243 484 129
3 226 416 415
3 245 485 421
3 421 252 422
3 245 421 423
3 253 156 486
3 487 488 489
3 488 376 489
3 431 490 491
3 490 431 178
3 459 235 492
3 181 460 179
3 254 234 386
3 389 195 433
3 200 465 493
3 200 39 38
3 463 247 469
3 340 494 239
3 239 328 41
3 76 255 404
3 341 72 45
3 495 479 496
3 479 497 406
3 408 498 409
3 445 256 361
3 499 484 221
3 362 243 129
3 244 366 413
3 243 362 416
3 432 433 235
3 500 195 196
3 257 501 40
3 439 399 258
3 258 399 217
3 502 477 238
3 401 339 72
3 475 255 476
3 255 477 476
3 71 503 504
3 77 479 41
3 73 441 408
3 442 73 408
3 259 505 260
3 404 495 496
3 331 45 324
3 46 45 478
3 330 97 505
3 251 506 507
3 495 251 507
3 251 444 506
3 327 46 24
3 324 18 241
3 350 508 241
3 483 355 240
3 261 262 350
3 509 261 510
3 483 511 354
3 512 411 108
3 483 446 513
3 411 220 514
3 220 515 514
3 220 447 516
3 516 515 220
3 515 517 420
3 243 416 414
3 517 515 516
3 222 226 367
3 517 418 420
3 518 225 418
3 253 245 156
3 422 252 427
3 252 451 427
3 245 157 156
3 418 486 488
3 226 233 454
3 224 228 457
3 450 224 457
3 234 178 168
3 178 263 377
3 386 234 181
3 465 236 435
3 385 181 194
3 500 433 195
3 463 254 386
3 194 181 436
3 200 194 391
3 39 500 196
3 493 39 200
3 247 463 466
3 39 264 40
3 200 38 437
3 467 463 469
3 393 467 469
3 519 520 521
3 39 522 264
3 471 265 438
3 247 265 470
3 440 237 238
3 217 328 239
3 75 41 329
3 239 73 340
3 71 259 336
3 523 336 259
3 255 76 75
3 71 72 74
3 255 475 402
3 239 41 405
3 73 239 441
3 259 71 504
3 404 255 402
3 503 71 330
3 45 46 332
3 346 97 324
3 98 524 410
3 251 266 444
3 508 324 241
3 24 46 482
3 495 507 354
3 354 525 352
3 261 350 241
3 483 240 446
3 525 354 511
3 261 241 357
3 512 108 24
3 267 512 24
3 261 357 126
3 261 126 510
3 526 221 527
3 483 513 129
3 243 221 484
3 221 244 527
3 244 413 527
3 515 126 358
3 484 483 129
3 421 447 448
3 244 369 138
3 245 517 485
3 224 138 370
3 252 224 451
3 453 226 222
3 418 488 487
3 246 457 454
3 457 378 458
3 428 455 456
3 246 233 429
3 457 246 459
3 167 378 382
3 173 181 179
3 263 268 377
3 178 254 461
3 461 254 463
3 463 467 464
3 247 194 438
3 528 213 520
3 519 528 520
3 269 437 501
3 216 270 522
3 529 530 337
3 494 217 239
3 477 255 75
3 339 73 72
3 72 71 337
3 77 41 75
3 443 45 72
3 259 504 505
3 403 251 404
3 497 479 498
3 408 497 498
3 481 408 46
3 495 404 251
3 498 479 531
3 330 324 97
3 495 531 479
3 98 410 218
3 353 495 354
3 352 525 107
3 24 107 532
3 107 525 526
3 241 108 411
3 107 526 532
3 261 509 262
3 24 532 267
3 525 499 221
3 526 525 221
3 513 361 129
3 363 126 364
3 126 515 364
3 369 244 221
3 220 413 447
3 137 138 252
3 421 137 252
3 517 245 253
3 224 416 228
3 418 517 253
3 224 252 138
3 486 418 253
3 245 426 157
3 233 226 455
3 452 271 272
3 172 518 376
3 431 158 157
3 376 488 491
3 455 428 233
3 427 378 167
3 426 167 157
3 454 233 246
3 488 431 491
3 169 157 167
3 429 235 246
3 492 235 236
3 492 236 465
3 379 492 465
3 379 465 436
3 460 181 234
3 178 234 254
3 173 379 436
3 263 178 462
3 181 173 436
3 433 434 533
3 462 534 263
3 528 467 213
3 535 395 196
3 194 200 437
3 519 521 273
3 437 269 472
3 247 438 265
3 452 272 428
3 269 501 257
3 274 529 536
3 260 505 97
3 262 509 363
3 275 494 400
3 276 502 238
3 536 523 274
3 256 277 361
3 470 265 249
3 278 363 365
3 530 529 279
3 225 518 172
3 172 377 268
3 273 521 473
3 280 217 494
3 444 266 240
3 281 365 449
3 225 281 449
3 222 271 452
3 475 266 480
3 361 277 139
3 434 282 533
3 283 263 534
3 534 519 273
3 251 480 266
3 270 264 522
3 502 284 474
3 278 365 281
3 428 282 434
3 535 533 285
3 264 257 40
3 286 400 530
3 262 106 350
3 535 285 395
3 264 270 257
3 258 237 439
3 266 475 287
3 347 260 97
3 269 288 472
3 265 471 248
3 215 270 216
3 288 248 472
3 523 259 289
3 276 284 502
3 474 284 475
3 279 529 274
3 258 217 280
3 534 273 290
3 291 273 473
3 250 291 473
3 292 445 240
3 445 277 256
3 428 293 282
3 290 294 534
3 533 295 285
3 296 270 215
3 237 276 238
3 272 293 428
3 294 283 534
3 297 347 106
3 283 268 263
3 214 298 250
3 299 296 215
3 298 214 249
3 297 260 347
3 494 300 280
3 270 301 257
3 302 275 400
3 303 172 268
3 475 284 304
3 303 268 305
3 269 257 301
3 139 271 222
3 306 298 249
3 276 237 258
3 300 494 275
3 307 274 523
3 268 294 305
3 306 248 288
3 274 307 279
3 280 300 258
3 304 287 475
3 308 225 172
3 395 309 215
3 215 309 299
3 286 302 400
3 266 310 240
3 303 308 172
3 265 306 249
3 292 240 310
3 295 533 282
3 311 291 250
3 289 259 260
3 311 250 298
3 300 276 258
3 312 302 286
3 312 286 530
3 445 292 277
3 313 262 363
3 265 248 306
3 302 300 275
3 312 530 279
3 314 262 313
3 139 277 315
3 290 273 291
3 307 523 289
3 262 314 106
3 278 313 363
3 281 225 308
3 305 294 290
3 395 285 309
3 288 269 301
3 316 270 296
3 316 301 270
3 276 304 284
3 317 307 289
3 266 287 310
3 277 292 315
3 315 318 139
3 271 139 293
3 271 293 272
3 295 282 285
3 296 299 309
3 307 319 279
3 307 317 319
3 139 318 293
3 310 320 292
3 292 320 321
3 292 321 315
3 319 312 279
3 293 322 282
3 321 320 323
3 321 323 315
3 293 318 322
3 537 122 127
3 242 537 127
3 268 283 294
