ply
format ascii 1.0
comment VCGLIB generated
comment TextureFile Dungeons_Texture_01.png
element vertex 12
property float x
property float y
property float z
property float nx
property float ny
property float nz
property uchar red
property uchar green
property uchar blue
property uchar alpha
property float texture_u
property float texture_v
element face 20
property list uchar int vertex_indices
end_header
0.307377 0.05029 0.181581 0.5550258 0.4200888 0.7179637 120 116 110 255 0.211923 0.303946
0.307377 0.10058 0.090791 0.8526611 0.5060183 0.130056 120 116 110 255 0.211923 0.303946
0.004517 0.10058 0.181581 0.02762765 0.742972 0.668752 120 116 110 255 0.211923 0.303946
-0.307379 -0.10058 -0.090789 -0.8650991 -0.4862754 -0.1230443 120 116 110 255 0.211923 0.303946
-0.307379 -0.05029 -0.18158 -0.6023315 -0.3972419 -0.6923841 120 116 110 255 0.211923 0.303946
-0.153688 -0.10058 -0.18158 -0.05311619 -0.7413862 -0.6689732 120 116 110 255 0.211923 0.303946
0.307377 -0.10058 0.181581 0.5773503 -0.5773503 0.5773503 120 116 110 255 0.211923 0.303946
0.307377 -0.10058 -0.18158 0.8164966 -0.4082483 -0.4082483 120 116 110 255 0.211923 0.303946
0.307377 0.10058 -0.18158 0.3333333 0.6666667 -0.6666667 120 116 110 255 0.211923 0.303946
-0.307379 0.10058 0.181581 -0.8164966 0.4082483 0.4082483 120 116 110 255 0.211923 0.303946
-0.307379 0.10058 -0.18158 -0.5773503 0.5773503 -0.5773503 120 116 110 255 0.211923 0.303946
-0.307379 -0.10058 0.181581 -0.3333333 -0.6666667 0.6666667 120 116 110 255 0.211923 0.303946
3 0 1 2 
3 3 4 5 
3 7 8 1 
3 2 8 10 
3 6 0 2 
3 8 7 5 
3 5 6 11 
3 3 9 10 
3 0 6 1 
3 6 7 1 
3 10 9 2 
3 2 1 8 
3 9 11 2 
3 11 6 2 
3 4 10 5 
3 10 8 5 
3 11 3 5 
3 5 7 6 
3 10 4 3 
3 3 11 9 
