ply
format ascii 1.0
comment INFO-3111 Flatenator generated
comment TextureFile Dungeons_Texture_01.png
element vertex 167
property float x
property float y
property float z
element face 242
property list uchar int vertex_indices
end_header
0.439696 0.057206 -0.749386 
0.425365 0.041339 -0.825325 
0.395951 -0.030478 -0.796589 
0.487911 -0.021238 -0.662414 
0.534901 0.039769 -0.869349 
0.493013 0.053073 -0.699718 
0.544335 -0.017427 -0.905072 
0.634491 -0.023463 -0.754242 
0.601512 0.048609 -0.74577 
0.990819 0 0.085401 
1.04343 -0.000875 0.155423 
1.0742 0.062112 0.091478 
1.11727 -0.000887 0.096697 
1.05797 -0.000272 0.008682 
-0.274281 0.117727 -0.360416 
-0.366294 0.131285 -0.342514 
-0.340399 0.086839 -0.278625 
-0.312523 -0.009386 -0.312415 
-0.338146 0.021425 -0.281296 
-0.275012 -0.014913 -0.393031 
-0.271874 0.002467 -0.461626 
-0.348622 -0.030478 -0.390358 
-0.269795 0.108889 -0.459167 
-0.322533 0.123912 -0.501194 
-0.431559 0.102114 -0.313683 
-0.396572 0.026197 -0.284532 
-0.421853 -0.003289 -0.319325 
-0.354972 0.014332 -0.528249 
-0.482227 0.083826 -0.353235 
-0.469091 -0.004777 -0.451929 
-0.448425 0.130978 -0.425481 
-0.482262 0.009247 -0.353262 
-0.399891 -0.010143 -0.502336 
-0.412838 0.100132 -0.53088 
-0.466915 0.100776 -0.465386 
-0.428545 -0.000313 -0.511258 
0.098254 0.074528 0.958949 
0.067583 0.085729 0.894041 
0.025058 0.049012 0.925331 
0.055403 -0.030478 0.939635 
0.173824 -0.020686 0.941612 
0.172393 0.067227 0.94362 
0.053634 0.046523 0.805972 
0.053648 -0.015085 0.805941 
0.20757 -0.010885 0.867351 
0.181059 -0.022983 0.815957 
0.139764 0.060525 0.796147 
0.198589 0.059993 0.823907 
0.602584 0.059408 -0.29104 
0.59136 0.043143 -0.242298 
0.616261 -0.030478 -0.251696 
0.596586 -0.021006 -0.355123 
0.514989 0.041533 -0.244644 
0.583873 0.055171 -0.334332 
0.500118 -0.017099 -0.225916 
0.485839 -0.023287 -0.338748 
0.50759 0.050596 -0.335206 
0.999089 0.068105 -0.505669 
1.05212 0.051165 -0.492146 
1.05216 -0.030478 -0.531993 
0.916565 -0.019301 -0.512862 
1.04449 0.050242 -0.409511 
0.951267 0.063357 -0.488811 
1.07837 -0.011511 -0.379802 
0.931096 -0.020864 -0.368061 
0.947189 0.059039 -0.406232 
0.821431 0.07344 -0.057645 
0.810708 0.054635 -0.114468 
0.788698 -0.030478 -0.092966 
0.857509 -0.019528 0.007433 
0.89267 0.052774 -0.14741 
0.861327 0.068541 -0.020481 
0.89973 -0.015011 -0.174141 
0.967191 -0.022164 -0.061279 
0.942514 0.063252 -0.05494 
-0.288827 0.059408 -0.917815 
-0.255881 0.043143 -0.95545 
-0.282265 -0.030478 -0.958949 
-0.313855 -0.021006 -0.858518 
-0.189705 0.041533 -0.917257 
-0.29282 0.055171 -0.870823 
-0.167744 -0.017099 -0.926724 
-0.208536 -0.023287 -0.820558 
-0.226025 0.050596 -0.833968 
-1.0917 0.059408 -0.136055 
-1.12285 0.043143 -0.175188 
-1.131 -0.030478 -0.149853 
-1.03782 -0.021006 -0.100846 
-1.07346 0.041533 -0.233486 
-1.04617 0.055171 -0.123739 
-1.07885 -0.017099 -0.256784 
-0.981673 -0.023287 -0.197699 
-0.997988 0.050596 -0.182884 
-0.671912 0.047931 0.336928 
-0.680003 0.033743 0.294053 
-0.69661 -0.030478 0.310277 
-0.64469 -0.022216 0.386031 
-0.61816 0.032338 0.269197 
-0.641809 0.044235 0.364969 
-0.612833 -0.018808 0.249028 
-0.561931 -0.024205 0.334186 
-0.580551 0.040244 0.338969 
-0.024017 0 0.550818 
-0.110873 -0.000875 0.562106 
-0.070387 0.062112 0.620386 
-0.096145 -0.000887 0.65529 
0.009659 -0.000272 0.647055 
0.151857 0 0.635079 
0.204471 -0.000875 0.705101 
0.235241 0.062112 0.641157 
0.278305 -0.000887 0.646376 
0.219012 -0.000272 0.558361 
0.574359 -0.000287 0.327186 
0.527322 -0.000879 0.363236 
0.570784 0.04174 0.383643 
0.567531 -0.000887 0.412813 
0.626699 -0.000471 0.372129 
-0.506291 -0.000287 0.861424 
-0.470691 -0.000879 0.908802 
-0.449871 0.04174 0.865536 
-0.420733 -0.000887 0.869067 
-0.460852 -0.000471 0.809514 
0.236896 0 -0.720802 
0.150041 -0.000875 -0.709514 
0.190526 0.062112 -0.651233 
0.164768 -0.000887 -0.616329 
0.270573 -0.000272 -0.624564 
0.543335 -0.00045 -0.073294 
0.569259 -0.000881 -0.038792 
0.58442 0.030154 -0.070299 
0.605639 -0.000887 -0.067728 
0.576424 -0.000584 -0.111095 
-0.44142 -0.000287 -0.152731 
-0.500188 -0.000879 -0.145093 
-0.472795 0.04174 -0.105659 
-0.490223 -0.000887 -0.082043 
-0.418634 -0.000471 -0.087614 
1.00455 0 -0.799401 
1.05717 -0.000875 -0.72938 
1.08794 0.062112 -0.793324 
1.131 -0.000887 -0.788105 
1.07171 -0.000272 -0.87612 
-0.894615 0 -0.540187 
-0.981471 -0.000875 -0.528899 
-0.940985 0.062112 -0.470619 
-0.966743 -0.000887 -0.435715 
-0.860939 -0.000272 -0.44395 
-1.03656 0 0.049405 
-0.983951 -0.000875 0.119427 
-0.95318 0.062112 0.055482 
-0.910116 -0.000887 0.060701 
-0.969409 -0.000272 -0.027314 
-0.80902 -0.000287 -0.189686 
-0.773421 -0.000879 -0.142307 
-0.752601 0.04174 -0.185573 
-0.723463 -0.000887 -0.182042 
-0.763581 -0.000471 -0.241595 
0.138206 0 -0.426185 
0.19082 -0.000875 -0.356163 
0.221591 0.062112 -0.420108 
0.264655 -0.000887 -0.414889 
0.205362 -0.000272 -0.502904 
-0.301093 0 0.21406 
-0.24848 -0.000875 0.284082 
-0.217709 0.062112 0.220137 
-0.174645 -0.000887 0.225356 
-0.233938 -0.000272 0.137341 
3 0 1 2
3 0 2 3
3 0 4 1
3 5 0 3
3 2 1 6
3 7 5 3
3 6 7 2
3 0 8 4
3 1 4 6
3 5 8 0
3 8 5 7
3 2 7 3
3 4 8 7
3 4 7 6
3 9 10 11
3 11 12 13
3 12 9 13
3 10 12 11
3 13 9 11
3 14 15 16
3 17 16 18
3 14 16 17
3 14 17 19
3 14 19 20
3 21 19 17
3 22 23 14
3 21 20 19
3 23 15 14
3 15 24 16
3 16 25 18
3 17 18 26
3 17 26 21
3 16 24 25
3 22 14 20
3 18 25 26
3 27 22 20
3 27 23 22
3 24 28 25
3 26 29 21
3 15 30 24
3 31 26 25
3 25 28 31
3 23 30 15
3 27 20 32
3 33 23 27
3 26 31 29
3 33 30 23
3 30 28 24
3 21 32 20
3 34 28 30
3 30 33 34
3 33 27 35
3 34 33 35
3 28 34 29
3 34 35 29
3 35 27 32
3 28 29 31
3 29 35 32
3 29 32 21
3 36 37 38
3 36 38 39
3 36 39 40
3 41 37 36
3 37 42 38
3 41 36 40
3 39 38 43
3 44 41 40
3 43 45 39
3 37 46 42
3 38 42 43
3 41 46 37
3 44 40 45
3 47 41 44
3 47 46 41
3 39 45 40
3 47 44 45
3 46 47 45
3 42 46 45
3 42 45 43
3 48 49 50
3 48 50 51
3 48 52 49
3 53 48 51
3 50 49 54
3 55 53 51
3 54 55 50
3 48 56 52
3 49 52 54
3 53 56 48
3 56 53 55
3 50 55 51
3 52 56 55
3 52 55 54
3 57 58 59
3 57 59 60
3 57 61 58
3 62 57 60
3 59 58 63
3 64 62 60
3 63 64 59
3 57 65 61
3 58 61 63
3 62 65 57
3 65 62 64
3 59 64 60
3 61 65 64
3 61 64 63
3 66 67 68
3 66 68 69
3 66 70 67
3 71 66 69
3 68 67 72
3 73 71 69
3 72 73 68
3 66 74 70
3 67 70 72
3 71 74 66
3 74 71 73
3 68 73 69
3 70 74 73
3 70 73 72
3 75 76 77
3 75 77 78
3 75 79 76
3 80 75 78
3 77 76 81
3 82 80 78
3 81 82 77
3 75 83 79
3 76 79 81
3 80 83 75
3 83 80 82
3 77 82 78
3 79 83 82
3 79 82 81
3 84 85 86
3 84 86 87
3 84 88 85
3 89 84 87
3 86 85 90
3 91 89 87
3 90 91 86
3 84 92 88
3 85 88 90
3 89 92 84
3 92 89 91
3 86 91 87
3 88 92 91
3 88 91 90
3 93 94 95
3 93 95 96
3 93 97 94
3 98 93 96
3 95 94 99
3 100 98 96
3 99 100 95
3 93 101 97
3 94 97 99
3 98 101 93
3 101 98 100
3 95 100 96
3 97 101 100
3 97 100 99
3 102 103 104
3 104 105 106
3 105 102 106
3 103 105 104
3 106 102 104
3 107 108 109
3 109 110 111
3 110 107 111
3 108 110 109
3 111 107 109
3 112 113 114
3 114 115 116
3 115 112 116
3 113 115 114
3 116 112 114
3 117 118 119
3 119 120 121
3 120 117 121
3 118 120 119
3 121 117 119
3 122 123 124
3 124 125 126
3 125 122 126
3 123 125 124
3 126 122 124
3 127 128 129
3 129 130 131
3 130 127 131
3 128 130 129
3 131 127 129
3 132 133 134
3 134 135 136
3 135 132 136
3 133 135 134
3 136 132 134
3 137 138 139
3 139 140 141
3 140 137 141
3 138 140 139
3 141 137 139
3 142 143 144
3 144 145 146
3 145 142 146
3 143 145 144
3 146 142 144
3 147 148 149
3 149 150 151
3 150 147 151
3 148 150 149
3 151 147 149
3 152 153 154
3 154 155 156
3 155 152 156
3 153 155 154
3 156 152 154
3 157 158 159
3 159 160 161
3 160 157 161
3 158 160 159
3 161 157 159
3 162 163 164
3 164 165 166
3 165 162 166
3 163 165 164
3 166 162 164
3 12 10 9
3 105 103 102
3 110 108 107
3 115 113 112
3 120 118 117
3 125 123 122
3 130 128 127
3 135 133 132
3 140 138 137
3 145 143 142
3 150 148 147
3 155 153 152
3 160 158 157
3 165 163 162
