ply
format ascii 1.0
comment INFO-3111 Flatenator generated
comment TextureFile Dungeons_Texture_01.png
element vertex 932
property float x
property float y
property float z
element face 1334
property list uchar int vertex_indices
end_header
1.32626 0.019649 0.036885 
1.32626 0.019649 -0.033505 
1.32626 0.129448 -0.033505 
1.32626 0.129448 0.036885 
1.02331 0.115185 0.046597 
1.02331 0.018787 0.046597 
1.04432 0.008374 0.064859 
1.04432 0.125598 0.064859 
1.02331 0.115185 -0.043217 
1.04432 0.125598 -0.06148 
1.02331 0.018787 -0.043217 
1.04432 0.008374 -0.06148 
1.3088 0.015937 0.064859 
1.3088 0.13316 0.064859 
1.3088 0.13316 -0.06148 
1.3088 0.015937 -0.06148 
1.14866 0.10094 0.061169 
1.11594 0.10094 0.061169 
1.11733 0.098606 0.080091 
1.14727 0.098606 0.080091 
1.09957 0.073611 0.061169 
1.10237 0.073611 0.080091 
1.11594 0.046283 0.061169 
1.11733 0.048617 0.080091 
1.14866 0.046283 0.061169 
1.14727 0.048617 0.080091 
1.16503 0.073611 0.061169 
1.16224 0.073611 0.080091 
1.1323 0.073611 0.080091 
1.14866 0.10094 -0.057715 
1.14727 0.098606 -0.076637 
1.11733 0.098606 -0.076637 
1.11594 0.10094 -0.057715 
1.10237 0.073611 -0.076637 
1.09957 0.073611 -0.057715 
1.11733 0.048617 -0.076637 
1.11594 0.046283 -0.057715 
1.14727 0.048617 -0.076637 
1.14866 0.046283 -0.057715 
1.16224 0.073611 -0.076637 
1.16503 0.073611 -0.057715 
1.1323 0.073611 -0.076638 
1.30246 0.119745 0.051658 
1.2956 0.829709 0.058175 
1.23328 0.829709 0.058175 
1.23131 0.119745 0.051658 
1.30246 0.119745 -0.050562 
1.32899 0.971111 -0.051449 
1.23131 0.119745 -0.050562 
1.23328 0.971111 -0.051449 
1.2956 0.928994 0.058175 
1.23328 0.928994 0.058175 
1.32899 1.0704 -0.051449 
1.23328 1.0704 -0.051449 
1.30443 2.71457 0.058175 
1.23328 2.71457 0.058175 
1.30443 2.70672 -0.051449 
1.23328 2.70672 -0.051449 
0.645369 1.53593 -0.050233 
0.64397 1.53348 -0.069155 
0.614037 1.53338 -0.069155 
0.612638 1.53582 -0.050233 
0.599068 1.50723 -0.069155 
0.596273 1.50723 -0.050233 
0.614037 1.48121 -0.069155 
0.612638 1.47878 -0.050233 
0.64397 1.48126 -0.069155 
0.645369 1.47883 -0.050233 
0.658937 1.5074 -0.069155 
0.661732 1.5074 -0.050233 
0.629004 1.50731 -0.069155 
0.645369 0.578004 -0.050233 
0.64397 0.575583 -0.069155 
0.614037 0.575583 -0.069155 
0.612638 0.578004 -0.050233 
0.599068 0.549659 -0.069155 
0.596273 0.549659 -0.050233 
0.614037 0.523735 -0.069155 
0.612638 0.521314 -0.050233 
0.64397 0.523735 -0.069155 
0.645369 0.521314 -0.050233 
0.658937 0.549659 -0.069155 
0.661732 0.549659 -0.050233 
0.629004 0.549659 -0.069155 
0.641321 1.95799 0.057395 
0.608593 1.95748 0.057395 
0.609989 1.95496 0.076316 
0.639925 1.95542 0.076316 
0.592228 1.92823 0.057395 
0.595022 1.92821 0.076316 
0.608593 1.89948 0.057395 
0.609989 1.90191 0.076316 
0.641321 1.89994 0.057395 
0.639925 1.90233 0.076316 
0.657686 1.92919 0.057395 
0.654892 1.92908 0.076316 
0.624958 1.92865 0.076317 
1.10898 1.96098 0.057395 
1.07625 1.9611 0.057395 
1.07765 1.95851 0.076316 
1.10758 1.9584 0.076316 
1.05988 1.93195 0.057395 
1.06268 1.93185 0.076316 
1.07625 1.90273 0.057395 
1.07765 1.90513 0.076316 
1.10898 1.90262 0.057395 
1.10758 1.90504 0.076316 
1.12534 1.93172 0.057395 
1.12255 1.93165 0.076316 
1.09261 1.93177 0.076317 
0.167667 1.95081 0.057395 
0.134937 1.95051 0.057395 
0.136333 1.94809 0.076316 
0.166267 1.94836 0.076316 
0.118572 1.92185 0.057395 
0.121365 1.92187 0.076316 
0.134937 1.89347 0.057395 
0.136333 1.89591 0.076316 
0.167667 1.8937 0.057395 
0.166267 1.89612 0.076316 
0.184029 1.9224 0.057395 
0.181236 1.92237 0.076316 
0.151302 1.92211 0.076317 
0.645369 1.5359 0.045218 
0.612638 1.5358 0.045218 
0.614037 1.53335 0.06414 
0.64397 1.53345 0.06414 
0.596273 1.50722 0.045218 
0.599068 1.50722 0.06414 
0.612638 1.47878 0.045218 
0.614037 1.4812 0.06414 
0.645369 1.47882 0.045218 
0.64397 1.48124 0.06414 
0.661732 1.50738 0.045218 
0.658937 1.50736 0.06414 
0.629004 1.50728 0.064141 
0.645369 0.578004 0.045218 
0.612638 0.578004 0.045218 
0.614037 0.575583 0.06414 
0.64397 0.575583 0.06414 
0.596273 0.549659 0.045218 
0.599068 0.549659 0.06414 
0.612638 0.521314 0.045218 
0.614037 0.523735 0.06414 
0.645369 0.521314 0.045218 
0.64397 0.523735 0.06414 
0.661732 0.549659 0.045218 
0.658937 0.549659 0.06414 
0.629004 0.549659 0.064141 
0.641321 1.95814 -0.06149 
0.639925 1.95561 -0.080412 
0.609989 1.95515 -0.080412 
0.608593 1.95763 -0.06149 
0.595022 1.92836 -0.080412 
0.592228 1.92836 -0.06149 
0.609989 1.90208 -0.080412 
0.608593 1.89961 -0.06149 
0.639925 1.90249 -0.080412 
0.641321 1.90007 -0.06149 
0.654892 1.92928 -0.080412 
0.657686 1.92934 -0.06149 
0.624958 1.92884 -0.080412 
1.10898 1.96116 -0.06149 
1.10758 1.95864 -0.080412 
1.07765 1.95874 -0.080412 
1.07625 1.96128 -0.06149 
1.06268 1.93208 -0.080412 
1.05988 1.93212 -0.06149 
1.07765 1.90535 -0.080412 
1.07625 1.90289 -0.06149 
1.10758 1.90525 -0.080412 
1.10898 1.90278 -0.06149 
1.12255 1.93187 -0.080412 
1.12534 1.93189 -0.06149 
1.09261 1.932 -0.080412 
0.167667 1.95078 -0.06149 
0.166267 1.94832 -0.080412 
0.136333 1.94803 -0.080412 
0.134937 1.95045 -0.06149 
0.121365 1.92185 -0.080412 
0.118572 1.92184 -0.06149 
0.136333 1.89591 -0.080412 
0.134937 1.89347 -0.06149 
0.166267 1.89612 -0.080412 
0.167667 1.8937 -0.06149 
0.181236 1.92236 -0.080412 
0.184029 1.9224 -0.06149 
0.151302 1.92209 -0.080412 
1.19142 0.954891 -0.07499 
1.18702 0.955708 -0.087661 
1.15664 0.979701 -0.078748 
1.15775 0.980845 -0.067242 
1.15014 0.990782 -0.06487 
1.14852 0.986337 -0.08454 
1.08359 0.986337 -0.08454 
1.08198 0.990782 -0.06487 
1.07564 0.980845 -0.067242 
1.07633 0.979701 -0.078748 
1.0451 0.955708 -0.087661 
1.0407 0.954891 -0.07499 
1.02526 0.907782 -0.102351 
1.02057 0.904827 -0.086941 
1.03305 0.842636 -0.121061 
1.02948 0.833234 -0.104032 
1.07786 0.819202 -0.128136 
1.07595 0.806496 -0.110415 
1.08169 0.788128 -0.114799 
1.08332 0.809494 -0.14143 
1.1488 0.809494 -0.14143 
1.15043 0.788128 -0.114799 
1.15617 0.806496 -0.110415 
1.15426 0.819202 -0.128136 
1.19907 0.842636 -0.121061 
1.20264 0.833234 -0.104032 
1.20686 0.907782 -0.102351 
1.21155 0.904827 -0.086941 
1.15664 0.974627 -0.057494 
1.15235 0.960469 -0.060868 
1.17237 0.942917 -0.065203 
1.18702 0.949896 -0.063316 
1.08359 0.977931 -0.049328 
1.08983 0.953879 -0.05475 
1.14229 0.953879 -0.05475 
1.14852 0.977931 -0.049328 
1.0451 0.949896 -0.063316 
1.05974 0.942917 -0.065203 
1.07898 0.960469 -0.060868 
1.07633 0.974627 -0.057494 
1.02526 0.900514 -0.071855 
1.0438 0.896912 -0.07295 
1.03305 0.83393 -0.084592 
1.04928 0.859441 -0.078573 
1.07786 0.809827 -0.088865 
1.08524 0.837892 -0.082186 
1.1488 0.795162 -0.08139 
1.14247 0.836089 -0.071107 
1.08965 0.836089 -0.071107 
1.08332 0.795162 -0.08139 
1.19907 0.83393 -0.084592 
1.18284 0.859441 -0.078573 
1.14688 0.837892 -0.082186 
1.15426 0.809827 -0.088865 
1.20686 0.900514 -0.071855 
1.18832 0.896912 -0.07295 
1.17237 0.948629 -0.08913 
1.15235 0.965545 -0.082133 
1.14229 0.962429 -0.090568 
1.08983 0.962429 -0.090568 
1.07898 0.965545 -0.082133 
1.05974 0.948629 -0.08913 
1.0438 0.904085 -0.102999 
1.04928 0.868115 -0.114908 
1.08524 0.847257 -0.121418 
1.08965 0.850653 -0.132117 
1.14247 0.850653 -0.132117 
1.14688 0.847257 -0.121418 
1.18284 0.868115 -0.114908 
1.18832 0.904085 -0.102999 
1.15109 0.958585 -0.072556 
1.16814 0.943636 -0.077677 
1.09168 0.948876 -0.074874 
1.14044 0.948876 -0.074874 
1.06399 0.943636 -0.077677 
1.07977 0.958585 -0.072556 
1.04952 0.899289 -0.088263 
1.05449 0.872466 -0.094666 
1.08759 0.851474 -0.099678 
1.14046 0.858918 -0.097901 
1.09166 0.858918 -0.097901 
1.17762 0.872466 -0.094666 
1.14453 0.851474 -0.099678 
1.1826 0.899289 -0.088263 
1.10292 1.00583 -0.073341 
1.10292 1.04108 -0.073341 
1.12897 1.04108 -0.073341 
1.12897 1.00583 -0.073341 
1.06897 1.11696 -0.086601 
1.06897 1.11696 -0.060707 
1.16292 1.11696 -0.060707 
1.16292 1.11696 -0.086601 
1.01462 1.0477 -0.037698 
1.03031 0.921432 -0.037698 
1.20159 0.921432 -0.037698 
1.21728 1.0477 -0.037698 
1.06897 0.978444 -0.060707 
1.06897 0.978444 -0.086601 
1.16292 0.978444 -0.086601 
1.16292 0.978444 -0.060707 
1.17153 1.0477 -0.086601 
1.17153 1.0477 -0.060707 
1.06037 1.0477 -0.060707 
1.06037 1.0477 -0.086601 
1.10292 1.00583 -0.086601 
1.12897 1.00583 -0.086601 
1.12897 1.04108 -0.086601 
1.12596 1.08417 -0.086601 
1.10593 1.08417 -0.086601 
1.10292 1.04108 -0.086601 
1.10593 1.08417 -0.073341 
1.09091 1.07633 -0.073341 
1.09091 1.07633 -0.086601 
1.14099 1.05235 -0.086601 
1.14099 1.05235 -0.073341 
1.14099 1.07633 -0.073341 
1.14099 1.07633 -0.086601 
1.09091 1.05235 -0.073341 
1.09091 1.05235 -0.086601 
1.03031 1.14205 -0.037698 
1.20159 1.14205 -0.037698 
1.12596 1.08417 -0.073341 
1.21728 1.0477 -0.060707 
1.20159 0.921432 -0.060707 
1.03031 0.921432 -0.060707 
1.01462 1.0477 -0.060707 
1.03031 1.14205 -0.060707 
1.20159 1.14205 -0.060707 
1.19142 0.954891 0.07499 
1.15775 0.980845 0.067242 
1.15664 0.979701 0.078748 
1.18702 0.955708 0.087661 
1.15014 0.990782 0.06487 
1.08198 0.990782 0.06487 
1.08359 0.986337 0.08454 
1.14852 0.986337 0.08454 
1.07564 0.980845 0.067242 
1.0407 0.954891 0.07499 
1.0451 0.955708 0.087661 
1.07633 0.979701 0.078748 
1.02057 0.904827 0.086941 
1.02526 0.907782 0.102351 
1.02948 0.833234 0.104032 
1.03305 0.842636 0.121061 
1.07595 0.806496 0.110415 
1.07786 0.819202 0.128136 
1.08169 0.788128 0.114799 
1.15043 0.788128 0.114799 
1.1488 0.809494 0.141429 
1.08332 0.809494 0.141429 
1.15617 0.806496 0.110415 
1.20264 0.833234 0.104032 
1.19907 0.842636 0.121061 
1.15426 0.819202 0.128136 
1.21155 0.904827 0.086941 
1.20686 0.907782 0.102351 
1.15664 0.974627 0.057494 
1.18702 0.949896 0.063316 
1.17237 0.942917 0.065202 
1.15235 0.960469 0.060868 
1.08359 0.977931 0.049328 
1.14852 0.977931 0.049328 
1.14229 0.953879 0.054749 
1.08983 0.953879 0.054749 
1.0451 0.949896 0.063316 
1.07633 0.974627 0.057494 
1.07898 0.960469 0.060868 
1.05974 0.942917 0.065202 
1.02526 0.900514 0.071855 
1.0438 0.896912 0.072949 
1.03305 0.83393 0.084592 
1.04928 0.859441 0.078573 
1.07786 0.809827 0.088865 
1.08524 0.837892 0.082186 
1.1488 0.795162 0.08139 
1.08332 0.795162 0.08139 
1.08965 0.836089 0.071107 
1.14247 0.836089 0.071107 
1.19907 0.83393 0.084592 
1.15426 0.809827 0.088865 
1.14688 0.837892 0.082186 
1.18284 0.859441 0.078573 
1.20686 0.900514 0.071855 
1.18832 0.896912 0.072949 
1.15235 0.965545 0.082132 
1.17237 0.948629 0.08913 
1.08983 0.962429 0.090568 
1.14229 0.962429 0.090568 
1.05974 0.948629 0.08913 
1.07898 0.965545 0.082132 
1.0438 0.904085 0.102999 
1.04928 0.868115 0.114908 
1.08524 0.847257 0.121418 
1.14247 0.850653 0.132117 
1.08965 0.850653 0.132117 
1.18284 0.868115 0.114908 
1.14688 0.847257 0.121418 
1.18832 0.904085 0.102999 
1.16814 0.943636 0.077676 
1.15109 0.958585 0.072556 
1.14044 0.948876 0.074874 
1.09168 0.948876 0.074874 
1.07977 0.958585 0.072556 
1.06399 0.943636 0.077676 
1.04952 0.899289 0.088263 
1.05449 0.872466 0.094666 
1.08759 0.851474 0.099677 
1.09166 0.858918 0.0979 
1.14046 0.858918 0.0979 
1.14453 0.851474 0.099677 
1.17762 0.872466 0.094666 
1.1826 0.899289 0.088263 
1.10292 1.00583 0.073341 
1.12897 1.00583 0.073341 
1.12897 1.04108 0.073341 
1.10292 1.04108 0.073341 
1.06897 1.11696 0.086601 
1.16292 1.11696 0.086601 
1.16292 1.11696 0.060707 
1.06897 1.11696 0.060707 
1.01462 1.0477 0.037698 
1.21728 1.0477 0.037698 
1.20159 0.921432 0.037698 
1.03031 0.921432 0.037698 
1.06897 0.978444 0.060707 
1.16292 0.978444 0.060707 
1.16292 0.978444 0.086601 
1.06897 0.978444 0.086601 
1.17153 1.0477 0.060707 
1.17153 1.0477 0.086601 
1.06037 1.0477 0.086601 
1.06037 1.0477 0.060707 
1.12897 1.00583 0.086601 
1.10292 1.00583 0.086601 
1.12897 1.04108 0.086601 
1.10593 1.08417 0.086601 
1.12596 1.08417 0.086601 
1.10292 1.04108 0.086601 
1.10593 1.08417 0.073341 
1.09091 1.07633 0.086601 
1.09091 1.07633 0.073341 
1.14099 1.05235 0.086601 
1.14099 1.05235 0.073341 
1.14099 1.07633 0.086601 
1.14099 1.07633 0.073341 
1.09091 1.05235 0.073341 
1.09091 1.05235 0.086601 
1.03031 1.14205 0.037698 
1.20159 1.14205 0.037698 
1.12596 1.08417 0.073341 
1.20159 0.921432 0.060707 
1.21728 1.0477 0.060707 
1.03031 0.921432 0.060707 
1.01462 1.0477 0.060707 
1.20159 1.14205 0.060707 
1.03031 1.14205 0.060707 
1.30621 2.08151 -0.019994 
1.24885 0.250703 -0.041209 
1.19351 2.11712 -0.041209 
1.28509 0.019079 0.022435 
1.27892 0.076985 0.04365 
1.20586 0.019079 0.04365 
0.974321 2.63111 0.04365 
1.03862 2.70339 0.04365 
0.968147 2.69595 0.022435 
1.021 0.246365 0.04365 
0.992844 0.350351 0.04365 
1.0044 0.250703 0.022435 
1.25777 0.029484 -0.041209 
1.24885 0.250703 0.04365 
1.01939 0.019079 -0.019994 
1.02557 0.076985 -0.041209 
1.04738 0.019079 -0.041209 
1.0044 0.250703 -0.041209 
0.992844 2.29726 0.04365 
0.968147 2.69458 -0.041209 
0.992844 2.29631 -0.041209 
1.02678 2.68894 -0.041209 
1.30621 2.08135 0.04365 
1.33322 2.70888 0.04365 
1.02746 0.019079 0.03996 
1.31239 2.15675 -0.041209 
1.32237 2.70314 -0.041209 
1.05474 2.60118 -0.041209 
1.07742 2.69665 -0.041209 
0.485067 2.16715 -0.016324 
0.551956 2.16625 -0.034356 
0.496618 0.250703 -0.034356 
0.483377 0.019079 0.01974 
0.543684 0.019079 0.037772 
0.488075 0.076985 0.037772 
0.74596 2.51803 0.037772 
0.74165 2.60336 0.01974 
0.671776 2.59778 0.037772 
0.701841 0.250703 0.037772 
0.734632 0.250703 0.025692 
0.752621 1.1706 0.037772 
0.496618 0.250703 0.037772 
0.504175 0.029484 -0.034356 
0.724606 0.019079 -0.016324 
0.664299 0.019079 -0.034356 
0.719908 0.076985 -0.034356 
0.74107 0.250703 -0.034356 
0.752621 2.16196 0.037772 
0.752621 2.16276 -0.034356 
0.770454 2.59826 -0.034356 
0.693716 2.59808 -0.034356 
0.485067 2.1687 0.037772 
0.456795 2.54212 0.037772 
0.71847 0.019079 0.043295 
0.478893 2.26117 -0.034356 
0.466797 2.54951 -0.034356 
0.665936 2.51202 -0.034356 
0.615414 2.57462 -0.034356 
1.00223 2.03636 0.014699 
1.00841 2.13425 0.035662 
0.924454 2.02028 0.035662 
0.709982 0.006546 0.018441 
0.789219 0.006546 0.035662 
0.716156 0.06379 0.035662 
1.00223 0.235522 -0.016 
0.965153 0.219151 -0.033221 
1.00223 0.334031 -0.033221 
0.720907 2.53937 0.035662 
0.775898 2.62204 0.035662 
0.698662 2.61206 0.018441 
0.789219 0.006546 -0.033221 
0.709982 0.006546 -0.016 
0.716156 0.06379 -0.033221 
0.74411 2.39202 -0.033221 
0.734678 2.30307 0.035662 
0.698662 2.608 -0.033221 
0.872025 0.039269 -0.033221 
0.870148 0.029139 0.035662 
0.856237 0.006546 0.035662 
0.859453 0.006546 -0.033221 
1.00223 2.18158 -0.033221 
0.805136 2.61904 -0.033221 
0.848356 2.55956 -0.033221 
0.829109 2.62051 -0.01712 
1.02693 0 -0.033221 
1.00841 0.178278 -0.033221 
1.00223 0.235522 0.035662 
1.02693 0 0.035662 
0.788452 0.355396 -0.033221 
0.734678 0.319544 -0.016 
0.734678 0.253405 0.013944 
0.728504 0.2623 -0.033221 
1.0184 2.5771 -0.033221 
1.01799 2.67128 -0.016 
1.01799 2.67116 0.035662 
0.888466 0 -0.033221 
0.888681 0 0.035662 
0.858364 2.61986 -0.033221 
0.240372 2.0086 -0.01357 
0.2342 2.08289 -0.028361 
0.351078 2.03197 -0.028361 
0.503853 0.057437 -0.01357 
0.439003 0.057437 -0.028361 
0.4988 0.114681 -0.028361 
0.249004 0.246286 0.016011 
0.273491 0.246038 0.030802 
0.249004 0.344795 0.030802 
0.221851 2.27023 0.030802 
0.285145 2.40955 0.030802 
0.215675 2.35238 0.016011 
0.526449 2.41116 -0.028361 
0.453386 2.4962 -0.028361 
0.532623 2.49421 -0.01357 
0.439003 0.057437 0.030802 
0.503853 0.057437 0.016011 
0.4988 0.114681 0.030802 
0.507929 2.11247 0.030802 
0.507929 2.11198 -0.00508 
0.532623 2.49418 0.030802 
0.371227 0.09016 0.030802 
0.372765 0.08003 -0.028361 
0.384148 0.057437 -0.028361 
0.381516 0.057437 0.030802 
0.240372 2.00862 0.004797 
0.423389 2.49522 0.030802 
0.392597 2.42465 0.030802 
0.398796 2.49196 0.016973 
0.244446 0.050891 0.030802 
0.243229 0.189042 0.030802 
0.249004 0.246286 -0.028361 
0.244446 0.050891 -0.028361 
0.460756 0.359705 0.030802 
0.499296 0.330308 0.016011 
0.499296 0.297199 -0.028361 
0.505072 0.273064 0.030802 
0.215675 2.35022 -0.028361 
0.357773 0.050891 0.030802 
0.357594 0.050891 -0.028361 
0.374763 2.48112 0.030802 
0.256004 2.03202 0.022435 
0.189114 2.03102 0.04365 
0.244453 0.250703 0.04365 
0.280697 0.019079 -0.019994 
0.201462 0.019079 -0.041209 
0.274525 0.076985 -0.041209 
-0.030071 2.09992 -0.041209 
-0.032505 2.14489 -0.019994 
0.034222 2.22991 -0.041209 
0.061111 0.250703 -0.041209 
0 0.250703 -0.019994 
0.003887 0.350351 -0.041209 
0.244453 0.250703 -0.041209 
0.253372 0.029484 0.04365 
-0.036247 0.019079 0.022435 
0.042988 0.019079 0.04365 
-0.030071 0.076985 0.04365 
0 0.250703 0.04365 
-0.011551 1.85877 -0.041209 
-0.011551 1.85877 0.04365 
-0.032505 2.11487 0.04365 
0.022381 2.16904 0.04365 
0.256004 2.03196 -0.041209 
0.219437 2.31745 -0.041209 
-0.028187 0.019079 -0.037519 
0.262177 2.11123 0.04365 
0.20858 2.32499 0.04365 
0.05035 2.10277 0.04365 
0.073025 2.22405 0.04365 
0.683184 0.486714 0.055946 
0.683184 0.619397 0.055946 
0.641504 0.633892 0.051081 
0.641504 0.472219 0.051081 
0.683184 0.619397 -0.060116 
0.641504 0.633892 -0.05525 
0.683184 0.486714 -0.060116 
0.641504 0.472219 -0.05525 
0.907545 0.542093 0.061084 
0.907545 0.542093 -0.065254 
0.907545 0.564018 -0.065254 
0.907545 0.564018 0.061084 
-0.033169 0.499603 -0.044681 
-0.033169 0.499603 0.040511 
-0.033169 0.606966 0.040511 
-0.033169 0.606966 -0.044681 
0.489862 0.600241 -0.058245 
0.489862 0.600241 0.054076 
0.557636 0.616527 0.050519 
0.557636 0.616527 -0.054688 
0.489862 0.492877 0.054076 
0.557636 0.487841 0.050519 
0.489862 0.492877 -0.058245 
0.557636 0.487841 -0.054688 
0.787527 0.659484 0.061084 
0.787527 0.446627 0.061084 
0.787527 0.659484 -0.065254 
0.787527 0.446627 -0.065254 
0.224464 0.503814 -0.061766 
0.224464 0.611178 -0.061766 
0.268787 0.610492 -0.043321 
0.268787 0.503128 -0.043321 
0.224464 0.611178 0.057597 
0.268787 0.610492 0.039152 
0.224464 0.503814 0.057597 
0.268787 0.503128 0.039152 
-0.009216 0.499603 -0.06493 
-0.009216 0.606966 -0.06493 
-0.009216 0.606966 0.06076 
-0.009216 0.499603 0.06076 
0.607901 0.43943 0.049849 
0.607901 0.666681 0.049849 
0.607901 0.666681 -0.054019 
0.607901 0.43943 -0.054019 
0.683184 1.44124 0.055946 
0.683184 1.57072 0.055946 
0.641504 1.58476 0.051081 
0.641504 1.42712 0.051081 
0.683184 1.57078 -0.060116 
0.641504 1.5848 -0.05525 
0.683184 1.44125 -0.060116 
0.641504 1.42712 -0.05525 
0.907545 1.49557 0.061084 
0.907545 1.49561 -0.065254 
0.907545 1.51709 -0.065254 
0.907545 1.51706 0.061084 
-0.033169 1.45576 -0.044681 
-0.033169 1.45576 0.040511 
-0.033169 1.55602 0.040511 
-0.033169 1.55602 -0.044681 
0.489862 1.54998 -0.058245 
0.489862 1.54994 0.054076 
0.557636 1.56743 0.050519 
0.557636 1.56745 -0.054688 
0.489862 1.44948 0.054076 
0.557636 1.44225 0.050519 
0.489862 1.44948 -0.058245 
0.557636 1.44225 -0.054688 
0.787527 1.61054 0.061084 
0.787527 1.40238 0.061084 
0.787527 1.61061 -0.065254 
0.787527 1.40238 -0.065254 
0.224464 1.45359 -0.061766 
0.224464 1.55385 -0.061766 
0.268787 1.55014 -0.043321 
0.268787 1.44988 -0.043321 
0.224464 1.55385 0.057597 
0.268787 1.55014 0.039152 
0.224464 1.45359 0.057597 
0.268787 1.44988 0.039152 
-0.009216 1.45576 -0.06493 
-0.009216 1.55602 -0.06493 
-0.009216 1.55602 0.06076 
-0.009216 1.45576 0.06076 
0.607901 1.39537 0.049849 
0.607901 1.61673 0.049849 
0.607901 1.61678 -0.054019 
0.607901 1.39537 -0.054019 
0.229126 1.98528 0.061084 
0.229126 1.8625 0.061084 
0.264702 1.86286 0.037805 
0.264702 1.98577 0.037805 
0.229126 1.98526 -0.065254 
0.264702 1.98577 -0.041975 
0.229126 1.86254 -0.065254 
0.264702 1.86289 -0.041975 
1.32214 1.86453 0.03311 
1.32214 1.86462 -0.03728 
1.32214 1.99846 -0.03728 
1.32214 1.99835 0.03311 
-0.031273 1.8654 -0.03728 
-0.031273 1.8654 0.03311 
-0.031273 1.97928 0.03311 
-0.031273 1.97928 -0.03728 
-0.010494 1.98321 -0.065254 
-0.010494 1.98321 0.061084 
-0.010494 1.86155 0.061084 
-0.010494 1.86155 -0.065254 
0.485228 1.87172 0.061084 
0.485228 1.99562 0.061084 
0.485228 1.99576 -0.065254 
0.485228 1.87183 -0.065254 
0.776886 1.86921 0.061084 
0.776886 1.99411 0.061084 
0.776886 1.99431 -0.065254 
0.776886 1.86937 -0.065254 
0.960398 1.86231 0.042822 
0.960398 1.98749 0.042822 
0.960398 1.98764 -0.046992 
0.960398 1.86243 -0.046992 
1.00464 1.86231 0.061084 
1.00464 1.98749 0.061084 
1.00464 1.9877 -0.065254 
1.00464 1.86248 -0.065254 
1.30468 1.86012 0.061084 
1.30468 2.003 0.061084 
1.30468 2.00322 -0.065254 
1.30468 1.86028 -0.065254 
1.15617 0.806496 -0.110415 
1.15426 0.819202 -0.128136 
1.07595 0.806496 -0.110415 
1.07786 0.819202 -0.128136 
1.07786 0.809827 -0.088865 
1.08524 0.837892 -0.082186 
1.15426 0.809827 -0.088865 
1.14688 0.837892 -0.082186 
1.14688 0.847257 -0.121418 
1.08524 0.847257 -0.121418 
1.08759 0.851474 -0.099678 
1.14453 0.851474 -0.099678 
1.10292 1.00583 -0.073341 
1.12897 1.00583 -0.073341 
1.10292 1.04108 -0.073341 
1.09091 1.07633 -0.073341 
1.10593 1.08417 -0.073341 
1.09091 1.05235 -0.073341 
1.14099 1.07633 -0.073341 
1.14099 1.05235 -0.073341 
1.12897 1.04108 -0.073341 
1.12596 1.08417 -0.073341 
1.15617 0.806496 0.110415 
1.07786 0.819202 0.128136 
1.07786 0.809827 0.088865 
1.15426 0.809827 0.088865 
1.14688 0.837892 0.082186 
1.15426 0.819202 0.128136 
1.08524 0.847257 0.121418 
1.08524 0.837892 0.082186 
1.14453 0.851474 0.099677 
1.08759 0.851474 0.099677 
1.14688 0.847257 0.121418 
1.10292 1.00583 0.073341 
1.12897 1.00583 0.073341 
1.10292 1.04108 0.073341 
1.10593 1.08417 0.073341 
1.09091 1.07633 0.073341 
1.09091 1.05235 0.073341 
1.14099 1.05235 0.073341 
1.14099 1.07633 0.073341 
1.12596 1.08417 0.073341 
1.24885 0.250703 -0.041209 
1.02557 0.076985 -0.041209 
0.974321 2.63111 0.04365 
0.968147 2.69595 0.022435 
1.03862 2.70339 0.04365 
0.974321 2.63111 0.04365 
1.20586 0.019079 0.04365 
1.24885 0.250703 0.04365 
1.021 0.246365 0.04365 
1.0044 0.250703 -0.041209 
0.992844 0.350351 0.04365 
1.30621 2.08135 0.04365 
1.33322 2.70888 0.04365 
0.992844 2.29631 -0.041209 
1.30621 2.08151 -0.019994 
1.19351 2.11712 -0.041209 
1.31239 2.15675 -0.041209 
1.05474 2.60118 -0.041209 
1.07742 2.69665 -0.041209 
0.968147 2.69458 -0.041209 
0.496618 0.250703 -0.034356 
0.719908 0.076985 -0.034356 
0.664299 0.019079 -0.034356 
0.74165 2.60336 0.01974 
0.74596 2.51803 0.037772 
0.74596 2.51803 0.037772 
0.671776 2.59778 0.037772 
0.701841 0.250703 0.037772 
0.488075 0.076985 0.037772 
0.543684 0.019079 0.037772 
0.734632 0.250703 0.025692 
0.752621 1.1706 0.037772 
0.752621 1.1706 0.037772 
0.456795 2.54212 0.037772 
0.485067 2.1687 0.037772 
0.752621 2.16276 -0.034356 
0.74107 0.250703 -0.034356 
0.485067 2.16715 -0.016324 
0.478893 2.26117 -0.034356 
0.71847 0.019079 0.043295 
0.671776 2.59778 0.037772 
0.665936 2.51202 -0.034356 
0.615414 2.57462 -0.034356 
0.466797 2.54951 -0.034356 
0.770454 2.59826 -0.034356 
0.698662 2.608 -0.033221 
0.805136 2.61904 -0.033221 
0.788452 0.355396 -0.033221 
0.74411 2.39202 -0.033221 
1.01799 2.67116 0.035662 
0.775898 2.62204 0.035662 
0.720907 2.53937 0.035662 
0.734678 0.253405 0.013944 
0.734678 2.30307 0.035662 
1.00223 2.18158 -0.033221 
1.00223 2.03636 0.014699 
1.00223 0.235522 0.035662 
0.872025 0.039269 -0.033221 
1.00841 0.178278 -0.033221 
1.02693 0 -0.033221 
0.870148 0.029139 0.035662 
0.870148 0.029139 0.035662 
0.789219 0.006546 0.035662 
0.856237 0.006546 0.035662 
0.728504 0.2623 -0.033221 
0.965153 0.219151 -0.033221 
0.716156 0.06379 0.035662 
0.734678 0.253405 0.013944 
0.848356 2.55956 -0.033221 
0.858364 2.61986 -0.033221 
1.01799 2.67128 -0.016 
1.0184 2.5771 -0.033221 
0.532623 2.49418 0.030802 
0.423389 2.49522 0.030802 
0.460756 0.359705 0.030802 
0.507929 2.11247 0.030802 
0.215675 2.35022 -0.028361 
0.453386 2.4962 -0.028361 
0.526449 2.41116 -0.028361 
0.507929 2.11198 -0.00508 
0.240372 2.00862 0.004797 
0.240372 2.0086 -0.01357 
0.249004 0.246286 -0.028361 
0.371227 0.09016 0.030802 
0.243229 0.189042 0.030802 
0.244446 0.050891 0.030802 
0.372765 0.08003 -0.028361 
0.439003 0.057437 -0.028361 
0.384148 0.057437 -0.028361 
0.505072 0.273064 0.030802 
0.273491 0.246038 0.030802 
0.439003 0.057437 0.030802 
0.381516 0.057437 0.030802 
0.4988 0.114681 -0.028361 
0.392597 2.42465 0.030802 
0.285145 2.40955 0.030802 
0.221851 2.27023 0.030802 
0.244453 0.250703 0.04365 
-0.030071 0.076985 0.04365 
0.042988 0.019079 0.04365 
0.034222 2.22991 -0.041209 
-0.030071 2.09992 -0.041209 
0.274525 0.076985 -0.041209 
0.201462 0.019079 -0.041209 
0 0.250703 0.04365 
0.003887 0.350351 -0.041209 
0.256004 2.03196 -0.041209 
-0.011551 1.85877 0.04365 
0.244453 0.250703 -0.041209 
0.256004 2.03202 0.022435 
0.262177 2.11123 0.04365 
0.05035 2.10277 0.04365 
0.073025 2.22405 0.04365 
0.20858 2.32499 0.04365 
-0.032505 2.11487 0.04365 
1.07595 0.806496 0.110415 
1.12897 1.04108 0.073341 
1.25777 0.029484 -0.041209 
1.04738 0.019079 -0.041209 
0.992844 2.29726 0.04365 
1.03862 2.70339 0.04365 
1.02746 0.019079 0.03996 
1.27892 0.076985 0.04365 
1.32237 2.70314 -0.041209 
1.02678 2.68894 -0.041209 
0.504175 0.029484 -0.034356 
0.752621 2.16196 0.037772 
0.71847 0.019079 0.043295 
0.496618 0.250703 0.037772 
0.693716 2.59808 -0.034356 
1.00223 0.334031 -0.033221 
1.00841 2.13425 0.035662 
0.888466 0 -0.033221 
0.888681 0 0.035662 
1.02693 0 0.035662 
0.716156 0.06379 -0.033221 
0.499296 0.297199 -0.028361 
0.249004 0.344795 0.030802 
0.2342 2.08289 -0.028361 
0.357773 0.050891 0.030802 
0.357594 0.050891 -0.028361 
0.244446 0.050891 -0.028361 
0.4988 0.114681 0.030802 
0.374763 2.48112 0.030802 
0.253372 0.029484 0.04365 
-0.011551 1.85877 -0.041209 
0.219437 2.31745 -0.041209 
-0.028187 0.019079 -0.037519 
0.061111 0.250703 -0.041209 
0.022381 2.16904 0.04365 
3 1 3 0
3 5 7 4
3 8 7 9
3 8 11 10
3 10 6 5
3 7 12 13
3 7 14 9
3 9 15 11
3 11 12 6
3 12 3 13
3 13 2 14
3 14 1 15
3 12 1 0
3 8 5 4
3 17 19 16
3 17 21 18
3 22 21 20
3 24 23 22
3 24 27 25
3 16 27 26
3 28 19 18
3 28 18 21
3 28 21 23
3 28 23 25
3 28 25 27
3 19 28 27
3 30 32 29
3 32 33 34
3 33 36 34
3 36 37 38
3 38 39 40
3 39 29 40
3 41 31 30
3 41 33 31
3 41 35 33
3 41 37 35
3 41 39 37
3 30 39 41
3 43 45 42
3 46 43 42
3 49 46 48
3 44 48 45
3 43 51 44
3 47 50 43
3 49 52 47
3 49 51 53
3 50 55 51
3 52 54 50
3 53 56 52
3 53 55 57
3 59 61 58
3 60 63 61
3 63 64 65
3 64 67 65
3 66 69 67
3 69 59 58
3 70 60 59
3 70 62 60
3 70 64 62
3 70 66 64
3 70 68 66
3 59 68 70
3 72 74 71
3 74 75 76
3 75 78 76
3 77 80 78
3 80 81 82
3 81 71 82
3 83 73 72
3 83 75 73
3 83 77 75
3 83 79 77
3 83 81 79
3 72 81 83
3 85 87 84
3 88 86 85
3 88 91 89
3 92 91 90
3 92 95 93
3 94 87 95
3 96 87 86
3 96 86 89
3 96 89 91
3 96 91 93
3 96 93 95
3 87 96 95
3 97 99 100
3 101 99 98
3 103 102 101
3 103 106 104
3 105 108 106
3 107 100 108
3 109 100 99
3 109 99 102
3 109 102 104
3 109 104 106
3 109 106 108
3 100 109 108
3 111 113 110
3 114 112 111
3 114 117 115
3 118 117 116
3 118 121 119
3 120 113 121
3 122 113 112
3 122 112 115
3 122 115 117
3 122 117 119
3 122 119 121
3 113 122 121
3 124 126 123
3 127 125 124
3 127 130 128
3 131 130 129
3 131 134 132
3 133 126 134
3 135 126 125
3 135 125 128
3 135 128 130
3 135 130 132
3 135 132 134
3 126 135 134
3 137 139 136
3 137 141 138
3 142 141 140
3 144 143 142
3 144 147 145
3 136 147 146
3 148 139 138
3 148 138 141
3 148 141 143
3 148 143 145
3 148 145 147
3 139 148 147
3 150 152 149
3 151 154 152
3 154 155 156
3 155 158 156
3 157 160 158
3 160 150 149
3 161 151 150
3 161 153 151
3 161 155 153
3 161 157 155
3 161 159 157
3 150 159 161
3 162 164 165
3 164 167 165
3 167 168 169
3 169 170 171
3 170 173 171
3 173 163 162
3 174 164 163
3 174 166 164
3 174 168 166
3 174 170 168
3 174 172 170
3 163 172 174
3 176 178 175
3 177 180 178
3 180 181 182
3 181 184 182
3 184 185 186
3 186 176 175
3 187 177 176
3 187 179 177
3 187 181 179
3 187 183 181
3 187 185 183
3 176 185 187
3 188 190 191
3 193 195 192
3 197 199 196
3 198 201 199
3 201 202 203
3 203 204 205
3 207 209 206
3 211 213 210
3 212 215 213
3 215 189 188
3 217 219 216
3 221 223 220
3 224 226 227
3 229 224 228
3 231 228 230
3 233 230 232
3 235 237 234
3 238 240 241
3 242 239 238
3 219 243 242
3 189 245 190
3 193 247 194
3 248 198 197
3 198 250 200
3 200 251 202
3 202 252 204
3 207 254 208
3 255 212 211
3 256 214 212
3 257 189 214
3 258 218 217
3 221 261 222
3 225 263 226
3 264 225 229
3 265 229 231
3 266 231 233
3 267 236 235
3 239 270 240
3 243 269 239
3 218 271 243
3 264 249 262
3 265 250 264
3 266 251 265
3 254 268 267
3 256 270 269
3 257 269 271
3 244 271 259
3 245 259 258
3 247 261 260
3 262 248 263
3 215 219 242
3 219 191 216
3 223 195 220
3 196 224 227
3 224 201 228
3 201 230 228
3 203 232 230
3 237 209 234
3 241 213 238
3 238 215 242
3 740 208 741
3 207 742 743
3 744 236 745
3 235 746 747
3 741 254 748
3 253 743 749
3 745 268 750
3 267 747 751
3 268 749 750
3 748 267 751
3 234 740 746
3 742 237 744
3 195 197 196
3 190 192 191
3 223 217 216
3 226 220 227
3 194 248 197
3 245 193 190
3 222 258 217
3 263 221 226
3 258 246 245
3 247 263 248
3 227 195 196
3 192 216 191
3 273 275 272
3 277 279 276
3 280 282 283
3 285 287 284
3 288 287 286
3 290 285 284
3 285 293 286
3 293 288 286
3 295 276 279
3 292 291 297
3 752 293 292
3 753 294 293
3 299 296 298
3 752 297 754
3 294 301 288
3 303 301 302
3 305 755 756
3 299 306 300
3 300 291 276
3 277 291 290
3 280 308 307
3 279 289 288
3 306 297 291
3 304 288 301
3 296 300 276
3 279 304 295
3 754 306 757
3 309 758 759
3 309 759 274
3 302 294 760
3 298 295 761
3 303 295 304
3 310 287 289
3 311 284 287
3 284 313 290
3 277 315 278
3 278 310 289
3 313 277 290
3 283 311 310
3 282 312 311
3 281 313 312
3 307 315 314
3 308 310 315
3 280 314 313
3 316 318 319
3 321 323 320
3 325 327 324
3 328 326 325
3 328 331 329
3 330 333 331
3 335 337 334
3 339 341 338
3 342 340 339
3 342 319 343
3 345 347 344
3 349 351 348
3 352 354 355
3 352 357 356
3 356 359 358
3 358 361 360
3 363 365 362
3 366 368 369
3 370 369 371
3 345 371 346
3 319 372 373
3 323 374 375
3 326 377 327
3 326 378 376
3 329 379 378
3 331 380 379
3 337 381 382
3 340 384 341
3 343 383 340
3 319 385 343
3 346 387 347
3 351 388 389
3 355 390 391
3 355 392 357
3 357 393 359
3 359 394 361
3 364 396 365
3 369 397 398
3 371 398 399
3 346 399 386
3 392 376 378
3 393 378 379
3 394 379 380
3 395 381 396
3 397 383 398
3 398 385 399
3 399 373 386
3 386 372 387
3 388 374 389
3 391 377 376
3 345 342 370
3 345 317 316
3 349 321 320
3 352 324 353
3 352 328 325
3 358 328 356
3 360 330 358
3 363 335 334
3 367 339 338
3 366 342 339
3 762 336 335
3 332 337 763
3 764 364 363
3 765 365 766
3 767 381 336
3 763 382 768
3 769 395 364
3 766 396 770
3 768 395 771
3 772 396 381
3 762 362 765
3 332 363 334
3 327 321 324
3 318 320 323
3 347 349 344
3 354 348 351
3 377 322 327
3 372 323 375
3 387 350 347
3 390 351 389
3 387 375 388
3 390 374 377
3 353 321 348
3 344 320 317
3 401 403 400
3 405 407 404
3 408 410 411
3 413 415 412
3 413 417 414
3 415 419 412
3 415 420 421
3 417 420 414
3 404 424 405
3 418 421 425
3 420 773 421
3 422 774 420
3 423 428 426
3 425 773 775
3 422 417 429
3 429 432 430
3 433 776 777
3 434 428 427
3 418 427 404
3 418 407 419
3 436 408 435
3 416 405 417
3 434 418 425
3 417 431 429
3 423 404 427
3 405 424 431
3 434 775 778
3 437 779 780
3 437 776 403
3 422 430 402
3 424 426 781
3 424 432 431
3 413 439 416
3 412 438 413
3 412 441 440
3 407 442 443
3 406 439 442
3 407 441 419
3 438 409 439
3 440 410 438
3 441 411 440
3 442 435 443
3 439 436 442
3 443 408 441
3 444 445 446
3 447 448 449
3 450 451 452
3 453 454 455
3 782 457 448
3 458 459 460
3 783 461 445
3 460 447 458
3 784 463 464
3 465 785 786
3 467 787 462
3 788 789 790
3 455 791 459
3 791 454 464
3 466 462 792
3 793 469 794
3 795 471 446
3 461 446 445
3 796 457 782
3 796 797 469
3 453 455 468
3 458 449 468
3 798 471 472
3 786 799 465
3 799 786 800
3 472 470 798
3 794 800 786
3 801 471 795
3 473 474 475
3 476 477 478
3 479 480 481
3 482 483 484
3 478 802 486
3 487 488 489
3 475 803 804
3 476 488 487
3 493 805 806
3 494 805 493
3 807 808 496
3 809 810 811
3 489 812 497
3 492 813 490
3 814 491 495
3 815 498 816
3 817 474 500
3 818 474 817
3 485 819 802
3 473 820 474
3 482 821 483
3 477 487 497
3 500 820 501
3 822 494 823
3 823 824 822
3 501 820 499
3 815 824 825
3 500 826 817
3 502 503 504
3 505 506 507
3 508 509 510
3 511 512 513
3 514 515 516
3 511 513 519
3 521 523 520
3 827 525 526
3 512 828 519
3 529 530 531
3 532 533 517
3 516 534 535
3 533 518 517
3 829 830 524
3 536 537 538
3 831 832 833
3 834 504 835
3 510 836 837
3 508 529 509
3 532 535 533
3 502 504 838
3 506 515 514
3 539 521 520
3 839 840 528
3 540 841 531
3 838 834 842
3 843 844 522
3 845 514 523
3 846 829 847
3 514 520 523
3 848 843 849
3 828 527 850
3 850 527 541
3 538 537 541
3 851 852 853
3 542 543 544
3 545 546 547
3 548 549 550
3 551 552 553
3 554 555 556
3 557 558 559
3 554 556 562
3 564 566 563
3 854 568 569
3 555 855 562
3 572 573 574
3 575 576 560
3 578 559 547
3 576 561 560
3 856 857 567
3 551 553 579
3 858 859 860
3 577 544 861
3 550 862 863
3 548 572 549
3 575 578 576
3 542 544 864
3 546 558 557
3 580 564 563
3 865 866 571
3 581 867 574
3 864 577 868
3 868 869 565
3 870 557 566
3 871 856 872
3 873 865 874
3 875 868 577
3 855 570 876
3 876 570 582
3 579 553 552
3 569 877 878
3 583 584 585
3 586 587 588
3 589 590 591
3 592 593 594
3 588 879 596
3 597 598 599
3 600 880 881
3 586 598 597
3 603 590 589
3 604 590 603
3 882 605 883
3 595 884 885
3 599 593 607
3 602 594 886
3 601 595 887
3 606 608 888
3 889 584 610
3 585 889 600
3 890 891 879
3 583 892 584
3 592 607 593
3 587 597 607
3 610 892 611
3 591 604 893
3 893 894 591
3 611 892 609
3 606 894 895
3 610 896 889
3 613 615 612
3 613 617 614
3 618 617 616
3 612 619 618
3 621 623 620
3 625 627 624
3 629 631 628
3 629 633 630
3 634 633 632
3 628 635 634
3 637 623 636
3 636 622 638
3 638 621 639
3 639 620 637
3 640 642 643
3 644 642 641
3 646 645 644
3 640 647 646
3 649 640 648
3 650 641 649
3 650 646 644
3 651 640 646
3 649 624 627
3 650 627 626
3 651 626 625
3 648 625 624
3 643 628 634
3 643 632 647
3 647 629 645
3 645 628 642
3 630 652 653
3 631 653 654
3 631 655 635
3 635 652 633
3 653 617 654
3 652 614 653
3 652 619 615
3 654 619 655
3 612 636 613
3 613 638 616
3 616 639 618
3 618 637 612
3 656 658 659
3 660 658 657
3 662 661 660
3 656 663 662
3 665 667 664
3 669 671 668
3 672 674 675
3 673 677 674
3 676 679 677
3 672 679 678
3 681 667 680
3 680 666 682
3 683 666 665
3 683 664 681
3 684 686 687
3 688 686 685
3 690 689 688
3 684 691 690
3 692 685 684
3 694 685 693
3 695 688 694
3 695 684 690
3 693 668 671
3 694 671 670
3 695 670 669
3 692 669 668
3 687 672 678
3 687 676 691
3 691 673 689
3 689 672 686
3 674 696 697
3 675 697 698
3 675 699 679
3 679 696 677
3 697 661 698
3 696 658 697
3 696 663 659
3 699 661 663
3 657 681 680
3 660 680 682
3 660 683 662
3 656 683 681
3 700 702 703
3 704 703 705
3 704 707 706
3 706 702 701
3 709 711 708
3 713 715 712
3 717 704 716
3 717 701 700
3 719 701 718
3 716 706 719
3 703 720 721
3 705 721 722
3 705 723 707
3 707 720 702
3 720 725 721
3 721 726 722
3 723 726 727
3 720 727 724
3 724 729 725
3 725 730 726
3 727 730 731
3 724 731 728
3 728 733 729
3 730 733 734
3 730 735 731
3 731 732 728
3 733 736 737
3 734 737 738
3 734 739 735
3 732 739 736
3 736 711 737
3 737 710 738
3 739 710 709
3 739 708 736
3 717 715 714
3 718 714 713
3 719 713 712
3 715 719 712
3 56 55 54
3 1 2 3
3 5 6 7
3 8 4 7
3 8 9 11
3 10 11 6
3 7 6 12
3 7 13 14
3 9 14 15
3 11 15 12
3 12 0 3
3 13 3 2
3 14 2 1
3 12 15 1
3 8 10 5
3 17 18 19
3 17 20 21
3 22 23 21
3 24 25 23
3 24 26 27
3 16 19 27
3 30 31 32
3 32 31 33
3 33 35 36
3 36 35 37
3 38 37 39
3 39 30 29
3 43 44 45
3 46 47 43
3 49 47 46
3 44 49 48
3 43 50 51
3 47 52 50
3 49 53 52
3 49 44 51
3 50 54 55
3 52 56 54
3 53 57 56
3 53 51 55
3 59 60 61
3 60 62 63
3 63 62 64
3 64 66 67
3 66 68 69
3 69 68 59
3 72 73 74
3 74 73 75
3 75 77 78
3 77 79 80
3 80 79 81
3 81 72 71
3 85 86 87
3 88 89 86
3 88 90 91
3 92 93 91
3 92 94 95
3 94 84 87
3 97 98 99
3 101 102 99
3 103 104 102
3 103 105 106
3 105 107 108
3 107 97 100
3 111 112 113
3 114 115 112
3 114 116 117
3 118 119 117
3 118 120 121
3 120 110 113
3 124 125 126
3 127 128 125
3 127 129 130
3 131 132 130
3 131 133 134
3 133 123 126
3 137 138 139
3 137 140 141
3 142 143 141
3 144 145 143
3 144 146 147
3 136 139 147
3 150 151 152
3 151 153 154
3 154 153 155
3 155 157 158
3 157 159 160
3 160 159 150
3 162 163 164
3 164 166 167
3 167 166 168
3 169 168 170
3 170 172 173
3 173 172 163
3 176 177 178
3 177 179 180
3 180 179 181
3 181 183 184
3 184 183 185
3 186 185 176
3 188 189 190
3 193 194 195
3 197 198 199
3 198 200 201
3 201 200 202
3 203 202 204
3 207 208 209
3 211 212 213
3 212 214 215
3 215 214 189
3 217 218 219
3 221 222 223
3 224 225 226
3 229 225 224
3 231 229 228
3 233 231 230
3 235 236 237
3 238 239 240
3 242 243 239
3 219 218 243
3 189 244 245
3 193 246 247
3 248 249 198
3 198 249 250
3 200 250 251
3 202 251 252
3 207 253 254
3 255 256 212
3 256 257 214
3 257 244 189
3 258 259 218
3 221 260 261
3 225 262 263
3 264 262 225
3 265 264 229
3 266 265 231
3 267 268 236
3 239 269 270
3 243 271 269
3 218 259 271
3 264 250 249
3 265 251 250
3 266 252 251
3 254 253 268
3 256 255 270
3 257 256 269
3 244 257 271
3 245 244 259
3 247 246 261
3 262 249 248
3 215 188 219
3 219 188 191
3 223 192 195
3 196 199 224
3 224 199 201
3 201 203 230
3 203 205 232
3 237 206 209
3 241 210 213
3 238 213 215
3 740 209 208
3 207 206 742
3 744 237 236
3 235 234 746
3 741 208 254
3 253 207 743
3 745 236 268
3 267 235 747
3 268 253 749
3 748 254 267
3 234 209 740
3 742 206 237
3 195 194 197
3 190 193 192
3 223 222 217
3 226 221 220
3 194 247 248
3 245 246 193
3 222 261 258
3 263 260 221
3 258 261 246
3 247 260 263
3 227 220 195
3 192 223 216
3 273 274 275
3 277 278 279
3 280 281 282
3 285 286 287
3 288 289 287
3 290 291 285
3 285 292 293
3 293 294 288
3 295 296 276
3 292 285 291
3 752 753 293
3 753 760 294
3 299 300 296
3 752 292 297
3 303 304 301
3 299 757 306
3 300 306 291
3 277 276 291
3 280 283 308
3 279 278 289
3 304 279 288
3 754 297 306
3 274 273 309
3 273 305 756
3 309 273 756
3 302 301 294
3 298 296 295
3 303 761 295
3 310 311 287
3 311 312 284
3 284 312 313
3 277 314 315
3 278 315 310
3 313 314 277
3 283 282 311
3 282 281 312
3 281 280 313
3 307 308 315
3 308 283 310
3 280 307 314
3 316 317 318
3 321 322 323
3 325 326 327
3 328 329 326
3 328 330 331
3 330 897 333
3 335 336 337
3 339 340 341
3 342 343 340
3 342 316 319
3 345 346 347
3 349 350 351
3 352 353 354
3 352 355 357
3 356 357 359
3 358 359 361
3 363 364 365
3 366 367 368
3 370 366 369
3 345 370 371
3 319 318 372
3 323 322 374
3 326 376 377
3 326 329 378
3 329 331 379
3 331 333 380
3 337 336 381
3 340 383 384
3 343 385 383
3 319 373 385
3 346 386 387
3 351 350 388
3 355 354 390
3 355 391 392
3 357 392 393
3 359 393 394
3 364 395 396
3 369 368 397
3 371 369 398
3 346 371 399
3 392 391 376
3 393 392 378
3 394 393 379
3 395 382 381
3 397 384 383
3 398 383 385
3 399 385 373
3 386 373 372
3 388 375 374
3 391 390 377
3 345 316 342
3 345 344 317
3 349 348 321
3 352 325 324
3 352 356 328
3 358 330 328
3 360 897 330
3 363 362 335
3 367 366 339
3 366 370 342
3 762 767 336
3 332 334 337
3 764 769 364
3 765 362 365
3 767 772 381
3 763 337 382
3 769 771 395
3 766 365 396
3 768 382 395
3 772 770 396
3 762 335 362
3 332 764 363
3 327 322 321
3 318 317 320
3 347 350 349
3 354 353 348
3 377 374 322
3 372 318 323
3 387 388 350
3 390 354 351
3 387 372 375
3 390 389 374
3 353 324 321
3 344 349 320
3 401 898 403
3 405 406 407
3 408 409 410
3 413 414 415
3 413 416 417
3 415 418 419
3 415 414 420
3 417 422 420
3 404 423 424
3 418 415 421
3 420 774 773
3 422 402 774
3 423 427 428
3 425 421 773
3 429 431 432
3 434 778 428
3 418 434 427
3 418 404 407
3 436 409 408
3 416 406 405
3 417 405 431
3 434 425 775
3 433 403 776
3 403 898 437
3 898 779 437
3 422 429 430
3 424 423 426
3 424 781 432
3 413 438 439
3 412 440 438
3 412 419 441
3 407 406 442
3 406 416 439
3 407 443 441
3 438 410 409
3 440 411 410
3 441 408 411
3 442 436 435
3 439 409 436
3 443 435 408
3 448 447 456
3 456 782 448
3 445 899 783
3 899 900 783
3 460 456 447
3 464 901 784
3 784 785 463
3 465 463 785
3 462 466 467
3 467 902 787
3 790 903 788
3 788 904 789
3 459 458 468
3 468 455 459
3 455 454 791
3 454 901 464
3 790 789 792
3 789 466 792
3 796 469 793
3 469 905 794
3 461 795 446
3 796 793 457
3 458 447 449
3 798 446 471
3 794 905 800
3 801 906 471
3 486 476 478
3 478 485 802
3 804 907 475
3 475 818 803
3 476 486 488
3 806 908 492
3 492 493 806
3 494 822 805
3 496 495 807
3 495 491 807
3 811 909 809
3 809 910 810
3 497 487 489
3 489 490 812
3 908 813 492
3 813 812 490
3 495 910 814
3 910 809 814
3 825 498 815
3 498 819 816
3 818 475 474
3 485 816 819
3 477 476 487
3 500 474 820
3 815 822 824
3 500 911 826
3 519 517 511
3 517 518 511
3 521 845 523
3 526 524 830
3 830 827 526
3 519 513 512
3 512 527 828
3 531 841 529
3 529 508 530
3 515 505 516
3 505 507 516
3 507 534 516
3 534 533 535
3 533 534 518
3 524 912 829
3 912 847 829
3 538 913 536
3 913 837 836
3 536 913 836
3 833 835 831
3 835 504 503
3 503 831 835
3 834 838 504
3 837 530 510
3 530 508 510
3 506 505 515
3 539 540 521
3 528 914 839
3 839 847 840
3 540 539 841
3 915 916 842
3 916 838 842
3 843 848 844
3 845 506 514
3 847 839 846
3 839 917 846
3 514 516 520
3 541 527 538
3 527 512 538
3 853 524 526
3 526 851 853
3 562 560 554
3 560 561 554
3 564 870 566
3 569 567 857
3 857 854 569
3 562 556 555
3 555 570 855
3 574 867 572
3 572 548 573
3 558 545 559
3 545 547 559
3 547 918 578
3 918 576 578
3 576 918 561
3 567 919 856
3 919 872 856
3 579 920 551
3 920 863 862
3 551 920 862
3 860 861 858
3 861 544 543
3 858 861 543
3 577 864 544
3 863 573 550
3 573 548 550
3 546 545 558
3 580 581 564
3 571 921 865
3 865 872 866
3 581 580 867
3 922 923 868
3 923 864 868
3 868 875 869
3 870 546 557
3 872 865 871
3 865 924 871
3 873 924 865
3 582 570 552
3 570 555 552
3 555 579 552
3 878 567 569
3 569 925 877
3 596 586 588
3 588 890 879
3 881 926 585
3 585 600 881
3 586 596 598
3 589 927 602
3 602 603 589
3 604 591 590
3 928 605 882
3 605 601 883
3 885 929 930
3 930 595 885
3 607 597 599
3 599 886 593
3 927 594 602
3 594 593 886
3 605 595 601
3 595 930 887
3 895 608 606
3 608 891 888
3 585 584 889
3 890 888 891
3 587 586 597
3 610 584 892
3 606 591 894
3 610 931 896
3 613 614 615
3 613 616 617
3 618 619 617
3 612 615 619
3 621 622 623
3 625 626 627
3 629 630 631
3 629 632 633
3 634 635 633
3 628 631 635
3 637 620 623
3 636 623 622
3 638 622 621
3 639 621 620
3 640 641 642
3 644 645 642
3 646 647 645
3 640 643 647
3 649 641 640
3 650 644 641
3 650 651 646
3 651 648 640
3 649 648 624
3 650 649 627
3 651 650 626
3 648 651 625
3 643 642 628
3 643 634 632
3 647 632 629
3 645 629 628
3 630 633 652
3 631 630 653
3 631 654 655
3 635 655 652
3 653 614 617
3 652 615 614
3 652 655 619
3 654 617 619
3 612 637 636
3 613 636 638
3 616 638 639
3 618 639 637
3 656 657 658
3 660 661 658
3 662 663 661
3 656 659 663
3 665 666 667
3 669 670 671
3 672 673 674
3 673 676 677
3 676 678 679
3 672 675 679
3 681 664 667
3 680 667 666
3 683 682 666
3 683 665 664
3 684 685 686
3 688 689 686
3 690 691 689
3 684 687 691
3 692 693 685
3 694 688 685
3 695 690 688
3 695 692 684
3 693 692 668
3 694 693 671
3 695 694 670
3 692 695 669
3 687 686 672
3 687 678 676
3 691 676 673
3 689 673 672
3 674 677 696
3 675 674 697
3 675 698 699
3 679 699 696
3 697 658 661
3 696 659 658
3 696 699 663
3 699 698 661
3 657 656 681
3 660 657 680
3 660 682 683
3 656 662 683
3 700 701 702
3 704 700 703
3 704 705 707
3 706 707 702
3 709 710 711
3 713 714 715
3 717 700 704
3 717 718 701
3 719 706 701
3 716 704 706
3 703 702 720
3 705 703 721
3 705 722 723
3 707 723 720
3 720 724 725
3 721 725 726
3 723 722 726
3 720 723 727
3 724 728 729
3 725 729 730
3 727 726 730
3 724 727 731
3 728 732 733
3 730 729 733
3 730 734 735
3 731 735 732
3 733 732 736
3 734 733 737
3 734 738 739
3 732 735 739
3 736 708 711
3 737 711 710
3 739 738 710
3 739 709 708
3 717 716 715
3 718 717 714
3 719 718 713
3 715 716 719
3 56 57 55
