ply
format ascii 1.0
comment INFO-3111 Flatenator generated
comment TextureFile Dungeons_Texture_01.png
element vertex 295
property float x
property float y
property float z
element face 408
property list uchar int vertex_indices
end_header
1.17168 0.027854 4.99947 
1.25558 0.048734 4.92074 
0.507797 -6.1e-05 4.99927 
1.34764 -9.1e-05 4.99931 
1.78146 0.047034 4.95431 
2.54652 0.046924 4.89611 
2.36565 0.037949 4.9986 
2.50347 -0.000136 4.99934 
3.09093 0.046994 4.90767 
3.06639 0.028079 4.99998 
4.31234 0.047399 4.89753 
3.73046 0.028074 4.99998 
4.10155 0.037724 4.99943 
3.74998 -7.1e-05 4.99927 
4.99998 0.037309 4.99998 
5 -1e-06 5 
0.04808 0.045919 4.94944 
2.3e-05 7e-06 4.99996 
3.18358 -0.003126 4.99927 
2.27483 0.083114 4.98036 
1.74759 0.085919 4.95431 
0.879959 0.098029 4.91542 
0.539597 0.088299 4.93897 
1.26418 0.095299 4.80934 
3.72834 0.046964 4.91609 
4.64835 -0.003241 3.37891 
4.99926 -6.1e-05 4.72655 
0.20713 0.098169 4.8452 
0.04916 0.095604 4.82797 
2.35257 0.113402 4.78333 
3.70144 0.096269 4.87757 
4.93603 0.047199 4.89727 
1.1328 -0.00324 0.898423 
4.87307 0.098104 4.87613 
3.0571 0.086334 4.88316 
2.54397 0.082119 4.89819 
4.93423 0.076919 4.8339 
2.80309 0.088034 4.84249 
0.028801 0.040509 4.10172 
2.56076 0.056989 4.29234 
3.19394 0.096264 4.42832 
4.99795 0.037304 4.5508 
2.63079 0.097869 4.25133 
0.049309 0.095604 4.21091 
4.7399 0.098174 4.50234 
3.72079 0.097764 3.83791 
2.24057 0.090799 4.45494 
2.37959 0.115439 4.34657 
4.91544 0.097889 4.41855 
2.42978 0.044429 4.25571 
4.99926 -6.1e-05 4.10155 
4.93564 0.047244 4.09855 
1.17939 0.095424 3.82033 
4.91835 0.098044 3.88052 
2.66793 0.075104 3.47486 
2.42971 0.046479 3.88861 
0.00071 -6.1e-05 3.55467 
5 -0.003126 3.16405 
0.049797 0.045544 3.82239 
0.156609 0.095594 3.8208 
2.908 0.097739 3.56884 
2.55803 0.042319 3.63108 
2.38459 0.092386 3.88219 
4.86857 0.098169 3.58764 
4.97471 0.046409 3.57129 
3.58724 0.098209 3.24837 
0.147469 0.09807 2.98051 
0.00071 -0.003125 2.79295 
0.09362 0.086989 3.50587 
0.017441 0.030249 3.08592 
2.32665 0.095245 2.62628 
1.1347 0.099563 3.40541 
3.85699 0.095324 3.57038 
2.42068 0.050354 3.31833 
2.55794 0.042319 3.22267 
4.86632 0.103326 3.30543 
2.64866 0.098174 3.24846 
2.42217 0.091054 3.31833 
4.97669 0.042319 3.10249 
4.88639 0.102217 2.88287 
1.02956 0.09811 2.5705 
2.44128 0.04231 2.53907 
0.696449 0.097485 2.88496 
0.099617 0.090675 2.96119 
0.07378 0.045505 2.55947 
0.496498 0.097495 2.9254 
2.62176 0.09516 2.6845 
2.55745 0.04232 2.59672 
4.99942 0.037725 2.65623 
0.44157 0.095095 2.5571 
5 -0.002865 2.3828 
0.094028 0.085585 2.57214 
0.276119 0.09521 2.55708 
4.86629 0.093012 2.58017 
4.92761 0.046425 2.47343 
3.72226 0.10868 2.57201 
4.99952 0.037705 1.75783 
0.0005 0.03776 2.48044 
0.349789 0.040095 2.55668 
1.45138 0.047485 2.55643 
1.06689 0.046745 2.47851 
2.57451 0.0472 2.47447 
2.86844 0.04718 2.47433 
0.45034 0.045875 2.46166 
3.6227 0.047225 2.47451 
4.70517 0.09479 2.473 
4.46344 0.09511 2.47543 
4.68603 0.04525 2.47826 
3.82143 0.10818 2.39317 
3.57931 0.094395 2.44701 
4.89759 0.08755 2.46282 
2.7758 0.08048 2.46516 
2.57402 0.095615 2.47268 
2.91756 0.09447 2.42335 
4.28379 0.04733 2.47401 
1.88645 0.04768 2.43642 
4.53048 0.097942 2.57375 
2.14195 0.098855 2.40402 
1.08123 0.09604 2.475 
0.087677 0.087555 2.36783 
1.61206 0.108225 2.36881 
0.22142 0.09816 2.39195 
0.474419 0.09605 2.42591 
2.37891 0.095575 2.41956 
-1.1e-05 0.028105 2.26561 
1.37662 0.09667 2.16227 
2.52884 0.042475 2.2012 
2.43734 0.09565 2.26279 
2.64226 0.096115 2.12829 
4.92567 0.0966 2.08335 
2.12045 0.098175 2.10171 
0.00071 -0.003125 1.54295 
1.15786 0.124692 1.49659 
4.92883 0.045675 1.62959 
3.56624 0.110493 1.50128 
2.49496 0.09576 1.93932 
5 -0.002725 1.09373 
0.071701 0.04716 1.67343 
4.11748 0.09504 1.73938 
2.57074 0.051405 1.633 
4.27733 -0.00324 0.37108 
1.62101 0.09535 1.88854 
2.59161 0.098065 1.61365 
0.09861 0.089765 1.41695 
4.85302 0.098145 1.61359 
2.48068 0.095405 1.65444 
2.48222 0.047565 1.65363 
0.00563 0.03541 1.60156 
2.07035 0.09528 1.40366 
0.074181 0.07685 0.917108 
2.57431 0.095785 0.541284 
4.6689 0.098175 1.36044 
4.90071 0.088985 1.28092 
2.46041 0.04231 0.996263 
1.42857 0.098175 0.941438 
0.018822 -0.003125 1.28905 
4.0808 0.098175 1.22518 
2.57378 0.04742 0.579843 
2.44317 0.095775 1.00456 
0.018822 -0.003125 1.11327 
4.01383 0.098175 0.751451 
4.99998 0.02807 0.820298 
0.00071 -6e-05 1.21092 
4.92823 0.047215 1.08485 
0.275101 0.098175 0.384271 
0.140839 0.097785 0.379769 
4.87085 0.098175 0.671281 
0.011551 0.033545 0.703134 
3.0078 -6e-05 0.000703 
5 0 0.468728 
1.7882 0.090545 0.109857 
1.14096 0.098175 0.301629 
4.92817 0.04715 0.565187 
2.42647 0.04752 0.598634 
0 0 1e-06 
2.41671 0.087785 0.079103 
4.85207 0.089165 0.130464 
0.081367 0.081725 0.368142 
2.30467 -0.003125 1e-06 
0.070839 0.046955 0.074823 
2.57685 0.09487 0.222879 
2.57493 0.047155 0.052148 
0.299068 0.09813 0.26217 
0.878551 0.095155 0.115113 
3.38393 0.09292 0.106858 
0.149857 0.09124 0.080011 
4.98409 0.02144 0.013742 
5 0 1e-06 
3.09066 0.09154 0.052217 
2.6308 0.08945 0.055192 
3.56717 0.0475 0.049546 
2.42569 0.0474 0.073693 
0.882069 0.047305 0.073907 
1.36221 0.08488 0.133729 
1.19446 0.047395 0.073693 
2.03124 0.03773 0.00055 
3.05337 0.0475 0.049546 
4.10156 0.037725 0.000543 
0.078201 0.037705 0.000589 
1.01562 0.037755 0.000528 
2.59766 0.037755 0.000497 
3.47656 0.037725 0.000543 
0.917961 -0.003125 1e-06 
1.24999 -0.003125 1e-06 
3.6328 -6e-05 0.000703 
1.32812 0.037755 0.000528 
3.0571 0.086334 4.88316 
3.70144 0.096269 4.87757 
2.80309 0.088034 4.84249 
2.54397 0.082119 4.89819 
0.20713 0.098169 4.8452 
0.04916 0.095604 4.82797 
4.93423 0.076919 4.8339 
4.87307 0.098104 4.87613 
2.63079 0.097869 4.25133 
4.7399 0.098174 4.50234 
4.87307 0.098104 4.87613 
0.049309 0.095604 4.21091 
4.93423 0.076919 4.8339 
4.91544 0.097889 4.41855 
2.24057 0.090799 4.45494 
1.26418 0.095299 4.80934 
2.27483 0.083114 4.98036 
0.879959 0.098029 4.91542 
0.20713 0.098169 4.8452 
0.156609 0.095594 3.8208 
2.38459 0.092386 3.88219 
0.156609 0.095594 3.8208 
4.91835 0.098044 3.88052 
2.66793 0.075104 3.47486 
0.147469 0.09807 2.98051 
4.86857 0.098169 3.58764 
2.64866 0.098174 3.24846 
2.42217 0.091054 3.31833 
2.32665 0.095245 2.62628 
0.094028 0.085585 2.57214 
2.62176 0.09516 2.6845 
3.72226 0.10868 2.57201 
2.64866 0.098174 3.24846 
3.58724 0.098209 3.24837 
3.72226 0.10868 2.57201 
0.44157 0.095095 2.5571 
1.02956 0.09811 2.5705 
0.276119 0.09521 2.55708 
1.61206 0.108225 2.36881 
1.08123 0.09604 2.475 
4.70517 0.09479 2.473 
4.89759 0.08755 2.46282 
0.474419 0.09605 2.42591 
0.22142 0.09816 2.39195 
4.92567 0.0966 2.08335 
2.64226 0.096115 2.12829 
2.91756 0.09447 2.42335 
3.82143 0.10818 2.39317 
3.57931 0.094395 2.44701 
2.43734 0.09565 2.26279 
2.49496 0.09576 1.93932 
4.46344 0.09511 2.47543 
2.59161 0.098065 1.61365 
2.48068 0.095405 1.65444 
4.92883 0.045675 1.62959 
0.09861 0.089765 1.41695 
2.57431 0.095785 0.541284 
4.85302 0.098145 1.61359 
4.90071 0.088985 1.28092 
4.90071 0.088985 1.28092 
4.0808 0.098175 1.22518 
4.6689 0.098175 1.36044 
2.44317 0.095775 1.00456 
0.140839 0.097785 0.379769 
4.87085 0.098175 0.671281 
4.85207 0.089165 0.130464 
2.41671 0.087785 0.079103 
0.149857 0.09124 0.080011 
2.57685 0.09487 0.222879 
3.38393 0.09292 0.106858 
3.09066 0.09154 0.052217 
0.878551 0.095155 0.115113 
1.14096 0.098175 0.301629 
1.7882 0.090545 0.109857 
2.6308 0.08945 0.055192 
1.62101 0.09535 1.88854 
1.42857 0.098175 0.941438 
1.15786 0.124692 1.49659 
1.37662 0.09667 2.16227 
1.14096 0.098175 0.301629 
1.36221 0.08488 0.133729 
1.7882 0.090545 0.109857 
4.53048 0.097942 2.57375 
4.88639 0.102217 2.88287 
4.86629 0.093012 2.58017 
3.72226 0.10868 2.57201 
4.86632 0.103326 3.30543 
3.85699 0.095324 3.57038 
4.86857 0.098169 3.58764 
3 0 1 2
3 0 3 4
3 5 6 7
3 8 7 9
3 10 11 12
3 4 3 7
3 6 4 7
3 12 11 13
3 14 12 15
3 16 17 2
3 0 2 3
3 9 7 18
3 12 13 15
3 11 9 18
3 13 11 18
3 19 20 4
3 6 19 4
3 1 16 2
3 8 9 11
3 21 22 1
3 23 20 19
3 23 21 1
3 22 16 1
3 1 0 4
3 8 5 7
3 10 24 11
3 25 18 7
3 26 14 15
3 27 28 16
3 1 20 23
3 29 19 6
3 4 20 1
3 30 24 10
3 10 12 31
3 14 31 12
3 32 7 3
3 32 25 7
3 25 15 13
3 22 27 16
3 30 8 24
3 11 24 8
3 3 2 17
3 13 18 25
3 33 30 10
3 33 10 31
3 34 35 8
3 35 5 8
3 21 27 22
3 30 34 8
3 36 33 31
3 34 37 35
3 28 38 16
3 35 39 5
3 40 206 207
3 41 31 14
3 26 15 25
3 5 39 6
3 208 42 209
3 41 14 26
3 210 43 211
3 212 44 213
3 45 40 207
3 35 214 39
3 215 45 207
3 216 215 207
3 29 46 19
3 206 40 208
3 47 46 29
3 217 38 28
3 17 16 38
3 48 215 218
3 29 6 49
3 36 31 219
3 32 3 17
3 40 42 208
3 220 221 222
3 47 29 49
3 25 50 26
3 39 49 6
3 41 51 31
3 41 26 50
3 220 52 221
3 219 31 51
3 53 219 51
3 50 51 41
3 214 54 39
3 52 223 221
3 55 49 39
3 56 32 17
3 25 57 50
3 217 58 38
3 223 52 224
3 47 49 55
3 59 43 210
3 60 42 40
3 39 54 61
3 39 61 55
3 62 46 47
3 63 45 215
3 62 47 55
3 38 56 17
3 48 63 215
3 225 58 217
3 226 52 220
3 56 38 58
3 52 227 224
3 228 63 48
3 53 51 64
3 60 229 42
3 45 65 40
3 50 64 51
3 66 227 52
3 60 40 65
3 67 32 56
3 230 68 225
3 225 68 58
3 69 56 58
3 70 71 52
3 63 72 45
3 64 50 57
3 71 66 52
3 53 64 231
3 61 73 55
3 61 74 73
3 54 74 61
3 70 52 226
3 64 75 231
3 60 76 229
3 70 226 77
3 78 79 64
3 69 67 56
3 70 80 71
3 65 76 60
3 54 232 74
3 74 81 73
3 80 82 71
3 57 78 64
3 68 83 58
3 230 83 68
3 233 73 81
3 69 58 84
3 64 79 75
3 85 66 71
3 234 233 81
3 58 83 84
3 232 86 74
3 87 81 74
3 88 78 57
3 82 85 71
3 86 87 74
3 82 89 85
3 88 57 90
3 25 90 57
3 230 91 83
3 85 92 66
3 91 84 83
3 78 93 79
3 88 93 78
3 89 92 85
3 92 235 66
3 88 94 93
3 95 236 76
3 237 238 239
3 80 89 82
3 96 88 90
3 86 240 87
3 69 97 67
3 241 242 98
3 242 234 99
3 98 242 99
3 99 234 81
3 91 243 84
3 243 241 98
3 243 98 84
3 100 98 99
3 101 81 87
3 240 102 87
3 96 94 88
3 97 69 84
3 103 84 98
3 104 102 240
3 103 97 84
3 102 101 87
3 105 106 107
3 108 109 104
3 105 107 94
3 110 105 94
3 111 101 102
3 111 102 113
3 106 108 114
3 109 113 102
3 104 109 102
3 108 104 114
3 106 114 107
3 115 99 81
3 240 114 104
3 116 107 114
3 116 93 107
3 93 94 107
3 117 118 115
3 115 118 100
3 103 119 97
3 100 103 98
3 99 115 100
3 120 118 117
3 121 119 103
3 122 121 103
3 118 122 103
3 101 115 81
3 123 117 115
3 97 124 67
3 123 115 101
3 244 125 245
3 112 126 101
3 127 117 123
3 111 126 112
3 113 128 111
3 127 120 117
3 127 123 101
3 124 97 119
3 129 246 247
3 127 101 126
3 244 130 125
3 128 126 111
3 124 131 67
3 248 132 249
3 125 248 245
3 250 110 133
3 133 110 94
3 134 251 252
3 253 252 254
3 135 127 126
3 96 90 136
3 130 244 255
3 256 130 255
3 124 119 137
3 257 138 253
3 128 139 126
3 134 252 253
3 96 133 94
3 140 136 90
3 130 141 125
3 128 142 139
3 121 143 119
3 246 144 257
3 25 140 90
3 132 248 125
3 145 130 256
3 129 144 246
3 119 143 137
3 135 126 146
3 146 126 139
3 131 32 67
3 147 124 137
3 124 147 131
3 134 258 251
3 259 135 146
3 141 130 145
3 144 129 260
3 148 141 145
3 138 134 253
3 138 257 144
3 261 249 132
3 137 143 149
3 142 150 139
3 151 138 144
3 262 258 134
3 152 263 133
3 264 151 144
3 139 153 146
3 147 137 149
3 148 154 141
3 155 32 131
3 156 134 138
3 156 138 151
3 157 153 139
3 136 133 96
3 145 158 148
3 155 159 32
3 134 160 262
3 259 146 153
3 150 157 139
3 161 133 136
3 147 162 131
3 163 152 133
3 162 155 131
3 164 165 261
3 132 164 261
3 156 160 134
3 265 266 267
3 161 163 133
3 162 159 155
3 268 259 153
3 269 149 143
3 152 163 166
3 162 32 159
3 147 167 162
3 168 140 25
3 164 132 154
3 149 167 147
3 270 156 264
3 161 136 169
3 148 170 154
3 171 164 154
3 166 163 172
3 157 173 153
3 268 153 173
3 174 32 162
3 163 161 172
3 172 161 169
3 170 148 158
3 175 268 173
3 176 166 172
3 160 156 270
3 269 177 149
3 167 174 162
3 178 25 32
3 140 169 136
3 167 149 179
3 150 180 157
3 177 179 149
3 157 180 181
3 270 271 160
3 178 168 25
3 182 165 164
3 181 173 157
3 183 164 171
3 183 182 164
3 167 179 174
3 184 262 160
3 185 165 182
3 269 179 177
3 176 172 186
3 272 170 158
3 271 184 160
3 172 169 186
3 187 169 140
3 273 179 269
3 188 274 184
3 183 185 182
3 188 189 274
3 190 275 176
3 191 175 173
3 181 191 173
3 190 276 275
3 277 278 192
3 273 277 179
3 277 192 179
3 175 191 279
3 193 194 278
3 193 279 194
3 279 191 194
3 180 280 181
3 278 194 192
3 195 194 191
3 280 276 181
3 276 196 181
3 276 190 196
3 190 176 197
3 197 176 186
3 198 174 179
3 198 179 192
3 199 198 192
3 181 200 191
3 201 196 190
3 174 202 32
3 202 203 32
3 203 178 32
3 168 204 140
3 204 187 140
3 199 192 194
3 195 205 194
3 197 201 190
3 186 169 187
3 203 199 194
3 195 191 200
3 200 181 196
3 201 200 196
3 200 201 168
3 201 197 204
3 199 203 202
3 194 205 203
3 205 195 203
3 195 200 178
3 168 201 204
3 197 187 204
3 198 202 174
3 198 199 202
3 197 186 187
3 195 178 203
3 178 200 168
3 118 103 100
3 281 282 283
3 281 283 284
3 285 282 286
3 286 282 287
3 45 72 65
3 288 289 290
3 291 116 114
3 239 288 237
3 292 293 294
3 293 288 239
3 288 292 289
3 73 62 55
3 111 112 101
3 184 274 262
3 293 292 288
3 73 233 62
