ply
format ascii 1.0
comment INFO-3111 Flatenator generated
comment TextureFile Dungeons_Texture_01.png
element vertex 96
property float x
property float y
property float z
property float nx
property float ny
property float nz
property float texture_u
property float texture_v
element face 168
property list uchar int vertex_indices
end_header
0.183207 0.16087 0.100393 0.416707 0.583034 0.697443 0.212182 0.304582 
0.145214 0.177818 0.067814 0.113873 0.973124 0.200156 0.212182 0.304582 
-0.170197 0.122036 0.270276 -0.111255 0.416082 0.902495 0.212182 0.304582 
-0.203423 0.147735 0.218153 -0.554613 0.754049 0.351872 0.212182 0.304582 
-0.000588 -0.067346 0.189599 0.239842 -0.563137 0.790792 0.212182 0.304582 
0.332706 0.117563 0.030759 0.703038 0.54466 0.457255 0.212182 0.304582 
0.329302 0.051675 0.032614 0.673686 -0.000995834 0.739017 0.212182 0.304582 
-0.162869 0.022338 0.266641 -0.185455 -0.375518 0.908071 0.212182 0.304582 
0.332455 -0.008494 0.030271 0.719512 -0.379121 0.581868 0.212182 0.304582 
-0.19478 0.010423 0.236318 -0.732622 -0.314299 0.603723 0.212182 0.304582 
0.196678 -0.065208 0.09542 0.424361 -0.792414 0.438175 0.212182 0.304582 
0.25367 -0.058613 -0.02009 0.25975 -0.953741 0.151356 0.212182 0.304582 
0.185839 -0.079195 0.049557 0.224273 -0.969022 0.103432 0.212182 0.304582 
0.359709 0.105872 -0.043891 0.989847 0.139577 -0.0268425 0.212182 0.304582 
0.284075 0.164356 -0.165327 0.496474 0.794705 -0.349224 0.212182 0.304582 
0.342506 -0.048512 -0.077279 0.531728 -0.846748 -0.0168077 0.212182 0.304582 
0.249188 -0.059796 -0.027749 0.0595266 -0.995438 0.0745667 0.212182 0.304582 
0.242803 -0.060262 -0.032568 0.10551 -0.993749 -0.0364676 0.212182 0.304582 
0.038408 -0.103022 0.037559 -0.00225148 -0.999644 -0.0265934 0.212182 0.304582 
-0.240679 -0.05069 0.134082 -0.627006 -0.69658 0.348768 0.212182 0.304582 
-0.142003 0.175161 0.140016 -0.0799556 0.990832 0.108902 0.212182 0.304582 
-0.292912 0.060609 -0.022714 -0.979761 0.176138 -0.0950932 0.212182 0.304582 
0.208648 0.177632 -0.121665 0.0912454 0.994829 -0.044601 0.212182 0.304582 
0.260889 -0.04948 -0.200931 0.532733 -0.603158 -0.59363 0.212182 0.304582 
0.08927 0.178116 -0.151542 -0.0605348 0.96107 -0.269594 0.212182 0.304582 
0.147901 -0.057311 -0.181763 0.0671086 -0.920095 -0.385904 0.212182 0.304582 
-0.281951 -0.026599 0.010554 -0.680535 -0.720979 -0.130619 0.212182 0.304582 
-0.148482 0.176061 -0.023165 -0.391838 0.914331 -0.102283 0.212182 0.304582 
0.206972 -0.01717 -0.23648 0.301314 -0.351737 -0.886279 0.212182 0.304582 
-0.209149 0.122385 -0.103569 -0.463722 0.603154 -0.648975 0.212182 0.304582 
0.168432 0.107368 -0.258461 0.0596526 0.372866 -0.925966 0.212182 0.304582 
0.143486 0.002897 -0.253856 -0.134036 -0.342191 -0.930021 0.212182 0.304582 
-0.217939 0.044975 -0.140102 -0.604212 -0.0103107 -0.796757 0.212182 0.304582 
-0.154842 -0.055077 -0.129488 -0.438902 -0.715232 -0.543882 0.212182 0.304582 
0.095026 -0.06655 -0.180286 0.00536208 -0.89477 -0.446496 0.212182 0.304582 
-0.33567 0.153661 0.449915 0.823003 0.484686 0.296221 0.212182 0.304582 
-0.479906 0.177149 0.477977 0.00453591 0.953145 0.302479 0.212182 0.304582 
-0.439314 0.100153 0.578126 0.268032 0.35702 0.894816 0.212182 0.304582 
-0.395618 -0.066543 0.525158 0.535922 -0.57669 0.616617 0.212182 0.304582 
-0.435783 -0.013167 0.573939 0.153461 -0.419996 0.894457 0.212182 0.304582 
-0.336817 -0.076117 0.398789 0.751869 -0.647128 0.126165 0.212182 0.304582 
-0.331898 -0.046008 0.291264 0.710121 -0.600632 -0.367381 0.212182 0.304582 
-0.452204 -0.103082 0.402979 0.0176963 -0.999821 -0.0067634 0.212182 0.304582 
-0.328639 0.13835 0.295118 0.816686 0.290444 -0.498664 0.212182 0.304582 
-0.411308 0.164376 0.22924 0.273091 0.841682 -0.465825 0.212182 0.304582 
-0.582211 0.126615 0.523171 -0.43195 0.602389 0.671228 0.212182 0.304582 
-0.527367 -0.0049 0.568867 -0.406069 -0.168042 0.898259 0.212182 0.304582 
-0.566997 -0.05598 0.514327 -0.242856 -0.837538 0.489439 0.212182 0.304582 
-0.462157 -0.025455 0.186829 0.299593 -0.29273 -0.908049 0.212182 0.304582 
-0.661636 0.094933 0.461172 -0.914793 0.25857 0.310316 0.212182 0.304582 
-0.641044 -0.058558 0.306464 -0.691158 -0.700056 -0.179505 0.212182 0.304582 
-0.60865 0.176617 0.347922 -0.429569 0.902049 -0.042159 0.212182 0.304582 
-0.66169 -0.034263 0.461129 -0.764953 -0.429888 0.479629 0.212182 0.304582 
-0.532571 -0.067855 0.227448 -0.00668088 -0.919585 -0.392834 0.212182 0.304582 
-0.552866 0.12318 0.182706 -0.337541 0.425124 -0.839843 0.212182 0.304582 
-0.637634 0.124296 0.28537 -0.876016 0.273707 -0.39709 0.212182 0.304582 
-0.577487 -0.050826 0.213464 -0.495197 -0.427491 -0.756328 0.212182 0.304582 
0.311065 0.08013 0.414705 -0.146958 0.42845 0.891535 0.212182 0.304582 
0.27327 0.094271 0.334722 -0.231069 0.972028 -0.0420662 0.212182 0.304582 
0.220869 0.047916 0.373279 -0.929382 0.298795 0.216728 0.212182 0.304582 
0.258262 -0.052441 0.390906 -0.39568 -0.750881 0.528786 0.212182 0.304582 
0.404186 -0.040078 0.393342 0.433643 -0.590585 0.680561 0.212182 0.304582 
0.402423 0.070912 0.395816 0.568271 0.738909 0.362053 0.212182 0.304582 
0.256083 0.044774 0.226199 -0.523682 0.365266 -0.769635 0.212182 0.304582 
0.2561 -0.033007 0.226161 -0.69949 -0.499613 -0.510979 0.212182 0.304582 
0.44577 -0.027704 0.301834 0.963558 -0.258661 0.0681945 0.212182 0.304582 
0.413101 -0.042979 0.238503 0.343107 -0.661843 -0.666514 0.212182 0.304582 
0.362216 0.062451 0.214092 0.117626 0.73167 -0.671433 0.212182 0.304582 
0.434703 0.061779 0.2483 0.82009 0.385279 -0.423099 0.212182 0.304582 
0.048535 0.093851 -1.09054 -0.543501 0.810096 0.219888 0.212182 0.304582 
0.033377 0.066617 -1.17086 -0.638023 0.469348 -0.610442 0.212182 0.304582 
0.002265 -0.056648 -1.14047 -0.798293 -0.599171 -0.0610082 0.212182 0.304582 
0.099532 -0.040789 -0.998547 -0.379137 -0.183334 0.906997 0.212182 0.304582 
0.149234 0.063922 -1.21742 0.340407 0.722509 -0.601751 0.212182 0.304582 
0.104929 0.086756 -1.038 0.12029 0.515361 0.848489 0.212182 0.304582 
0.159213 -0.034247 -1.25521 -0.0144324 -0.201458 -0.979391 0.212182 0.304582 
0.254572 -0.044607 -1.09567 0.886456 -0.387652 0.252829 0.212182 0.304582 
0.21969 0.079096 -1.08671 0.517564 0.847468 0.118005 0.212182 0.304582 
-1.3059 0.064398 0.517373 -0.434829 0.847424 -0.304626 0.212182 0.304582 
-1.26551 0.045442 0.47549 0.139819 0.586224 -0.797993 0.212182 0.304582 
-1.30288 -0.043631 0.454943 -0.40815 -0.507016 -0.759176 0.212182 0.304582 
-1.35661 -0.030364 0.59055 -0.98225 -0.0238715 0.186053 0.212182 0.304582 
-1.19301 0.044326 0.526159 0.605122 0.794877 -0.0446999 0.212182 0.304582 
-1.31554 0.059567 0.570586 -0.578577 0.619431 0.530616 0.212182 0.304582 
-1.14798 -0.023444 0.510831 0.816234 0.0106709 -0.577623 0.212182 0.304582 
-1.21485 -0.032487 0.653481 0.296369 -0.216417 0.930231 0.212182 0.304582 
-1.24124 0.054715 0.617948 0.167631 0.8804 0.443616 0.212182 0.304582 
0.481433 0.061276 -0.409056 0.0430671 0.846755 -0.530237 0.212182 0.304582 
0.537962 0.042777 -0.394643 0.758137 0.591479 -0.274554 0.212182 0.304582 
0.538 -0.04638 -0.437114 0.461556 -0.504925 -0.729394 0.212182 0.304582 
0.393473 -0.034174 -0.416723 -0.647564 -0.0302706 -0.761409 0.212182 0.304582 
0.52982 0.041769 -0.306565 0.332243 0.798398 0.50217 0.212182 0.304582 
0.430461 0.056091 -0.391087 -0.752104 0.613259 -0.241356 0.212182 0.304582 
0.565934 -0.025667 -0.274899 0.905762 0.0183802 0.423389 0.212182 0.304582 
0.408961 -0.035882 -0.262385 -0.660006 -0.220061 0.718307 0.212182 0.304582 
0.426115 0.051375 -0.303069 -0.309228 0.878772 0.363507 0.212182 0.304582 
3 0 1 2
3 1 3 2
3 2 4 0
3 5 0 6
3 0 4 6
3 4 2 7
3 6 4 8
3 4 7 9
3 4 10 8
3 8 10 11
3 10 4 12
3 10 12 11
3 2 9 7
3 13 6 8
3 3 9 2
3 5 6 13
3 14 1 0
3 15 8 11
3 13 8 15
3 16 11 17
3 18 12 4
3 17 11 12
3 4 9 19
3 4 19 18
3 1 20 3
3 3 21 9
3 18 17 12
3 14 0 5
3 16 15 11
3 22 1 14
3 17 15 16
3 23 15 17
3 21 19 9
3 24 20 1
3 24 1 22
3 13 15 23
3 5 13 14
3 14 13 23
3 25 23 17
3 19 21 26
3 27 3 20
3 14 24 22
3 27 20 24
3 28 14 23
3 3 27 21
3 24 29 27
3 26 18 19
3 28 23 25
3 18 25 17
3 24 14 30
3 30 14 28
3 30 28 31
3 29 24 30
3 29 30 31
3 27 29 21
3 29 31 32
3 33 32 31
3 31 28 25
3 26 21 33
3 31 34 33
3 31 25 34
3 26 33 18
3 33 34 18
3 34 25 18
3 35 36 37
3 38 37 39
3 35 37 38
3 35 38 40
3 35 40 41
3 42 40 38
3 43 44 35
3 42 41 40
3 44 36 35
3 36 45 37
3 37 46 39
3 38 39 47
3 38 47 42
3 37 45 46
3 43 35 41
3 39 46 47
3 48 43 41
3 48 44 43
3 45 49 46
3 47 50 42
3 36 51 45
3 52 47 46
3 46 49 52
3 44 51 36
3 48 41 53
3 54 44 48
3 47 52 50
3 54 51 44
3 51 49 45
3 42 53 41
3 55 49 51
3 51 54 55
3 54 48 56
3 55 54 56
3 49 55 50
3 55 56 50
3 56 48 53
3 49 50 52
3 50 56 53
3 50 53 42
3 57 58 59
3 57 59 60
3 57 60 61
3 62 58 57
3 58 63 59
3 62 57 61
3 60 59 64
3 65 62 61
3 64 66 60
3 58 67 63
3 59 63 64
3 62 67 58
3 65 61 66
3 68 62 65
3 68 67 62
3 60 66 61
3 68 65 66
3 67 68 66
3 63 67 66
3 63 66 64
3 69 70 71
3 69 71 72
3 69 73 70
3 74 69 72
3 71 70 75
3 76 74 72
3 75 76 71
3 69 77 73
3 70 73 75
3 74 77 69
3 77 74 76
3 71 76 72
3 73 77 76
3 73 76 75
3 78 79 80
3 78 80 81
3 78 82 79
3 83 78 81
3 80 79 84
3 85 83 81
3 84 85 80
3 78 86 82
3 79 82 84
3 83 86 78
3 86 83 85
3 80 85 81
3 82 86 85
3 82 85 84
3 87 88 89
3 87 89 90
3 87 91 88
3 92 87 90
3 89 88 93
3 94 92 90
3 93 94 89
3 87 95 91
3 88 91 93
3 92 95 87
3 95 92 94
3 89 94 90
3 91 95 94
3 91 94 93
3 21 32 33
3 29 32 21
