ply
format ascii 1.0
comment INFO-3111 Flatenator generated
comment TextureFile Dungeons_Texture_01.png
element vertex 419
property float x
property float y
property float z
element face 498
property list uchar int vertex_indices
end_header
0.423328 5.02179 -0.555924 
0.53001 4.85813 -0.555875 
0.53001 4.58457 -0.55584 
0.025448 4.68551 -0.555592 
-0.013264 5.01983 -0.555581 
-0.009747 4.62117 -0.518525 
0.009987 4.5825 -0.517163 
-0.012936 4.00858 -0.55523 
0.53001 3.99485 -0.555886 
0.376862 3.56573 -0.554208 
-0.013252 3.75708 -0.555654 
0.089767 3.60358 -0.554357 
0.53001 3.6022 -0.555875 
-0.012947 2.9904 -0.555239 
0.53001 2.97671 -0.555887 
-0.013264 2.54292 -0.555536 
0.53001 2.54271 -0.555849 
0.53001 1.97426 -0.555849 
0.53001 1.54026 -0.555887 
-0.012936 1.52653 -0.555231 
-0.013264 1.97405 -0.555532 
-0.013264 0.949754 -0.555414 
0.53001 0.950066 -0.555841 
0.53001 0.635216 -0.555876 
0.509007 0.530238 -0.524874 
-0.001217 0.51598 -0.544401 
0.479225 4.00858 -0.396153 
0.529835 1.97446 -0.360842 
-0.013264 3.56038 -0.378537 
0.054935 2.54094 -0.37723 
-0.013264 1.97476 -0.378531 
-0.012245 1.63864 -0.445585 
0.054935 0.957682 -0.377302 
0.477703 0.957722 -0.359865 
0.461079 4.57696 -0.377374 
0.055477 4.53881 -0.357675 
0.055817 3.03287 -0.356088 
0.504055 3.5786 -0.114549 
0.53001 2.54264 0.164366 
0.529667 0.508344 -0.360865 
0.477638 0.506884 -0.359831 
0.004078 5.02629 0.028598 
-0.012833 4.51767 -0.395539 
0.529243 4.5176 -0.395539 
0.529125 4.07694 -0.395539 
-0.012817 4.07687 -0.395539 
0.055733 4.05805 -0.357434 
0.529259 3.50011 -0.395539 
0.309132 3.05425 -0.395539 
-0.012829 3.50019 -0.395539 
0.497902 3.10406 -0.357614 
0.011028 3.05602 -0.358274 
0.444523 2.48079 -0.39554 
-0.012833 2.48197 -0.39554 
0.376682 2.03448 -0.39554 
0.529251 2.48192 -0.39554 
0.53001 2.18753 -0.365896 
0.47863 2.04677 -0.362139 
-0.012829 2.03372 -0.39554 
-0.014153 1.52653 -0.004454 
0.477406 1.52412 -0.359739 
0.055752 1.47639 -0.357389 
0.343346 1.46472 -0.39554 
0.477882 1.46719 -0.363264 
0.529255 1.01831 -0.39554 
-0.012817 1.46542 -0.39554 
-0.012829 1.01825 -0.39554 
0.055614 0.466044 -0.357573 
-0.012817 0.441093 -0.39554 
0.529129 0.441004 -0.39554 
-0.012901 0.190212 -0.39554 
0.376854 0 -0.38302 
0.053623 0.002906 -0.341738 
0.529728 0 -0.383051 
0.007977 3.99789 -0.292336 
0.304478 3.53119 -0.357156 
0.055317 3.52833 -0.358045 
0.457142 0.466118 -0.357996 
0.447048 3.01643 -0.350992 
0.055637 2.02146 -0.357668 
0.53001 1.46557 -0.034357 
0.529667 0 0.063227 
0.530006 3.05285 -0.187506 
-0.013927 9.6e-05 -0.006723 
0.455994 4.5397 -0.16652 
0.459885 3.55207 0.146094 
-0.014645 3.05279 -0.007925 
-0.01395 2.03367 -0.006693 
0.53001 0.951997 0.085207 
-0.014332 4.07093 -0.007855 
0.477852 0.449706 0.130064 
0.529488 3.50024 -0.00879 
0.529507 2.9904 -0.244684 
-0.01395 2.48198 -0.006697 
0.513561 5.02614 0.334567 
0.052361 4.05758 0.06824 
0.002468 3.89417 -0.027387 
-0.014591 3.56042 -0.00467 
0.052273 3.55262 0.068114 
-0.027737 2.9904 0.010927 
0.052296 2.02085 0.068213 
0.529495 1.52653 0.147455 
-0.014595 0.95148 -0.004671 
0.529495 4.00858 0.147456 
0.461571 2.54106 0.502787 
0.460007 1.47746 0.126692 
-0.014248 0.508344 -0.004496 
0.052395 0.466966 0.068262 
0.052387 0.994358 0.068262 
0.460407 4.54101 0.282786 
-0.029289 4.51783 0.011024 
0.478092 2.03298 0.479605 
0.477722 1.97676 -0.024237 
-0.030399 1.46568 0.010279 
-0.013939 1.01828 -0.006712 
0.517372 4.4987 -0.052506 
0.458965 3.00777 0.480688 
0.031708 2.52529 0.079725 
-0.014534 0.44682 -0.008005 
0.52953 1.01818 -0.128405 
0.529465 4.58464 0.283301 
0.529369 2.48205 0.554224 
-0.013935 3.50013 -0.006715 
0.53001 3.05255 0.554865 
0.052273 3.03074 0.06814 
0.529377 2.0337 -0.008768 
0.53001 1.97426 0.554865 
0.052444 1.47673 0.068487 
0.53001 0.441717 0.554865 
0.029915 4.5746 0.064712 
-0.014591 4.58316 -0.00467 
-0.02808 1.97497 0.01029 
-0.028088 2.54196 0.010271 
0.499962 1.02884 0.18141 
-0.464573 5.02106 0.049956 
-0.530006 4.58467 0.011729 
-0.305431 4.56241 0.08422 
-0.360542 4.42621 0.035304 
-0.361858 4.07364 0.011603 
-0.050137 3.92858 0.026458 
-0.530006 3.89647 0.011691 
-0.530006 3.56096 0.011718 
-0.400822 4.00858 0.012084 
-0.359657 3.50024 0.012225 
-0.361408 3.05328 0.011602 
-0.416897 2.98954 0.013586 
-0.530006 2.54282 0.011717 
-0.529572 2.89243 0.08581 
-0.359638 2.03361 0.012213 
-0.334274 2.46843 0.028608 
-0.303959 1.97641 0.063814 
-0.529465 1.52653 0.012251 
-0.522461 1.9441 0.087217 
-0.361401 1.46517 0.011602 
-0.359653 1.01819 0.012224 
-0.530006 0.949964 0.011728 
-0.439808 0.537752 0.012037 
-0.530006 0.73345 0.01169 
-0.361858 0.44431 0.011602 
-0.361595 0.012806 0.011602 
-0.303883 4.01031 0.063903 
0.53001 3.56091 0.1986 
-0.317394 2.48109 0.085119 
-0.303867 1.52468 0.063921 
-0.319496 0.957705 0.086637 
-0.319912 3.56006 0.111266 
-0.307934 2.53119 0.076525 
0.477844 0.507034 0.181589 
-0.305405 3.00799 0.084146 
-0.529533 2.9904 0.266661 
-0.359589 2.48173 0.164389 
0.53001 4.07623 0.554866 
0.477676 4.01067 0.479468 
-0.527702 4.00491 0.419051 
-0.530006 2.54253 0.454206 
-0.530006 1.97415 0.554754 
-0.529747 0.508344 0.266665 
0.529552 0.508344 0.554411 
-0.530006 5.01989 0.554748 
-0.530006 4.58467 0.554744 
0.494667 4.581 0.517734 
-0.361858 4.07364 0.55487 
-0.530006 0.949964 0.554743 
-0.304077 0.507438 0.502729 
-0.361858 0.44431 0.554869 
-0.359715 0 0.554338 
-0.359715 4.51795 0.554339 
-0.303913 1.52465 0.502447 
-0.303524 1.46692 0.503031 
0.455795 0.976714 0.14604 
0.527512 0.032571 0.41905 
-0.400822 4.00858 0.554385 
0.529362 3.50024 0.554217 
0.529522 4.00858 0.453719 
-0.305592 3.00803 0.481768 
0.529369 2.9904 0.554224 
-0.304108 2.54133 0.502867 
-0.359638 2.03361 0.554258 
-0.530006 3.56096 0.554755 
0.47823 3.55982 0.479636 
-0.35952 3.05352 0.434622 
0.477585 1.52446 0.479433 
0.478203 1.46712 0.479647 
0.53001 1.46591 0.554865 
-0.361401 1.46517 0.554869 
-0.300659 0.981797 0.47603 
-0.529469 2.9904 0.554224 
-0.360733 2.48205 0.435503 
0.343288 0 0.554529 
-0.31913 1.97662 0.47962 
-0.319511 1.01787 0.482573 
0.461414 1.01655 0.502523 
-0.305607 4.56238 0.481631 
-0.303246 3.50251 0.502345 
-0.305061 3.55219 0.481116 
0.529362 1.01818 0.554216 
0.461483 0.507182 0.502672 
0.461235 3.50244 0.502292 
-0.4632 2.54338 0.553862 
0.529362 1.52653 0.554216 
-0.529461 1.52653 0.554216 
0.53001 0.950062 0.554865 
-0.529659 0.508344 0.554411 
0.529995 4.9562 0.554748 
0.53001 3.56085 0.554866 
0.514568 2.55023 0.533686 
0.53001 4.505 0.554866 
0.456409 4.55225 0.469894 
-0.359657 3.50024 0.554248 
-0.530006 3.85518 0.554782 
0.241028 1.97428 0.554869 
0.49012 0.035351 0.555925 
0.444473 4.00858 0.55432 
0.529369 2.03361 0.554224 
0.376717 5.02088 0.55487 
0.376862 4.58353 0.55487 
0.12294 4.01069 0.502517 
0.068707 3.55207 0.484744 
-0.068306 3.05246 0.554869 
0.027863 2.55095 0.526411 
0.071331 2.49478 0.489408 
-0.068096 1.47746 0.484869 
0.068737 0.972597 0.485106 
0.087914 0.467856 0.485174 
0.259602 2.54312 0.553957 
-0.359638 2.48205 0.554258 
-0.093346 0.508344 0.55451 
-0.318558 3.13468 0.546634 
-0.013279 3.50024 0.554423 
-0.031021 1.01818 0.554346 
-0.190804 2.65969 0.554869 
0.025448 4.68551 -0.555592 
0.53001 4.58457 -0.55584 
-0.009747 4.62117 -0.518525 
0.53001 3.99485 -0.555886 
-0.012936 4.00858 -0.55523 
0.376862 3.56573 -0.554208 
-0.013264 3.56038 -0.378537 
0.089767 3.60358 -0.554357 
-0.013264 2.54292 -0.555536 
0.53001 2.54271 -0.555849 
0.53001 1.97426 -0.555849 
-0.013264 1.97405 -0.555532 
0.53001 0.950066 -0.555841 
-0.013264 0.949754 -0.555414 
-0.013264 1.97476 -0.378531 
0.53001 3.6022 -0.555875 
0.53001 2.97671 -0.555887 
-0.012947 2.9904 -0.555239 
0.509007 0.530238 -0.524874 
0.53001 0.635216 -0.555876 
0.53001 2.54264 0.164366 
0.444523 2.48079 -0.39554 
0.376682 2.03448 -0.39554 
0.53001 2.18753 -0.365896 
0.529835 1.97446 -0.360842 
0.53001 1.54026 -0.555887 
-0.012936 1.52653 -0.555231 
-0.001217 0.51598 -0.544401 
-0.012901 0.190212 -0.39554 
0.376854 0 -0.38302 
-0.012817 4.07687 -0.395539 
0.529125 4.07694 -0.395539 
0.529259 3.50011 -0.395539 
-0.012829 3.50019 -0.395539 
0.529129 0.441004 -0.39554 
-0.012817 0.441093 -0.39554 
0.529243 4.5176 -0.395539 
-0.012833 4.51767 -0.395539 
0.309132 3.05425 -0.395539 
0.497902 3.10406 -0.357614 
0.011028 3.05602 -0.358274 
-0.012833 2.48197 -0.39554 
-0.012829 2.03372 -0.39554 
0.477882 1.46719 -0.363264 
0.343346 1.46472 -0.39554 
-0.012817 1.46542 -0.39554 
0.529255 1.01831 -0.39554 
-0.012829 1.01825 -0.39554 
0.530006 3.05285 -0.187506 
0.529667 0.508344 -0.360865 
-0.014645 3.05279 -0.007925 
0.055477 4.53881 -0.357675 
0.529507 2.9904 -0.244684 
0.53001 0.951997 0.085207 
0.504055 3.5786 -0.114549 
0.529495 1.52653 0.147455 
-0.014153 1.52653 -0.004454 
-0.012245 1.63864 -0.445585 
-0.014595 0.95148 -0.004671 
-0.014248 0.508344 -0.004496 
-0.014591 3.56042 -0.00467 
0.529488 3.50024 -0.00879 
-0.029289 4.51783 0.011024 
0.007977 3.99789 -0.292336 
-0.01395 2.48198 -0.006697 
0.529667 0 0.063227 
0.529728 0 -0.383051 
0.529251 2.48192 -0.39554 
0.52953 1.01818 -0.128405 
-0.014534 0.44682 -0.008005 
0.529465 4.58464 0.283301 
-0.027737 2.9904 0.010927 
0.529377 2.0337 -0.008768 
-0.014591 4.58316 -0.00467 
0.052361 4.05758 0.06824 
0.53001 1.97426 0.554865 
0.517372 4.4987 -0.052506 
0.529369 2.48205 0.554224 
-0.014332 4.07093 -0.007855 
-0.013935 3.50013 -0.006715 
-0.01395 2.03367 -0.006693 
0.53001 1.46557 -0.034357 
-0.013927 9.6e-05 -0.006723 
-0.028088 2.54196 0.010271 
-0.02808 1.97497 0.01029 
-0.030399 1.46568 0.010279 
-0.360542 4.42621 0.035304 
-0.013939 1.01828 -0.006712 
0.53001 0.441717 0.554865 
-0.530006 4.58467 0.011729 
0.529495 4.00858 0.147456 
-0.050137 3.92858 0.026458 
-0.400822 4.00858 0.012084 
-0.359657 3.50024 0.012225 
-0.334274 2.46843 0.028608 
-0.529465 1.52653 0.012251 
-0.530006 0.949964 0.011728 
-0.439808 0.537752 0.012037 
-0.530006 3.56096 0.011718 
-0.530006 2.54282 0.011717 
-0.361401 1.46517 0.011602 
-0.361858 4.07364 0.011603 
0.53001 3.56091 0.1986 
-0.361408 3.05328 0.011602 
-0.416897 2.98954 0.013586 
-0.529572 2.89243 0.08581 
-0.416897 2.98954 0.013586 
-0.359653 1.01819 0.012224 
-0.359638 2.03361 0.012213 
-0.303959 1.97641 0.063814 
-0.522461 1.9441 0.087217 
-0.361858 0.44431 0.011602 
0.53001 3.05255 0.554865 
-0.529533 2.9904 0.266661 
-0.530006 2.54253 0.454206 
-0.530006 1.97415 0.554754 
-0.361595 0.012806 0.011602 
0.499962 1.02884 0.18141 
-0.529533 2.9904 0.266661 
-0.359589 2.48173 0.164389 
-0.359715 0 0.554338 
-0.530006 0.949964 0.554743 
0.529552 0.508344 0.554411 
-0.527702 4.00491 0.419051 
0.527512 0.032571 0.41905 
-0.530006 4.58467 0.554744 
-0.359715 4.51795 0.554339 
0.529362 3.50024 0.554217 
0.529369 2.9904 0.554224 
-0.361401 1.46517 0.554869 
0.529522 4.00858 0.453719 
-0.529747 0.508344 0.266665 
-0.359638 2.03361 0.554258 
0.529362 1.01818 0.554216 
0.53001 0.950062 0.554865 
-0.529659 0.508344 0.554411 
0.53001 3.56085 0.554866 
0.53001 1.46591 0.554865 
0.53001 4.505 0.554866 
0.53001 4.07623 0.554866 
-0.359657 3.50024 0.554248 
0.514568 2.55023 0.533686 
0.494667 4.581 0.517734 
-0.400822 4.00858 0.554385 
-0.529469 2.9904 0.554224 
-0.529461 1.52653 0.554216 
-0.361858 0.44431 0.554869 
0.444473 4.00858 0.55432 
-0.35952 3.05352 0.434622 
0.529369 2.03361 0.554224 
-0.319511 1.01787 0.482573 
0.49012 0.035351 0.555925 
-0.530006 3.56096 0.554755 
-0.360733 2.48205 0.435503 
0.529362 1.52653 0.554216 
-0.361858 4.07364 0.55487 
-0.4632 2.54338 0.553862 
-0.318558 3.13468 0.546634 
-0.359638 2.48205 0.554258 
0.376862 4.58353 0.55487 
-0.013279 3.50024 0.554423 
-0.068306 3.05246 0.554869 
-0.190804 2.65969 0.554869 
0.241028 1.97428 0.554869 
-0.303913 1.52465 0.502447 
-0.031021 1.01818 0.554346 
-0.093346 0.508344 0.55451 
0.343288 0 0.554529 
3 0 1 2
3 0 2 3
3 4 0 3
3 5 4 3
3 251 252 6
3 253 251 6
3 7 8 9
3 7 9 10
3 10 9 11
3 8 12 9
3 13 14 15
3 15 14 16
3 17 18 19
3 20 17 19
3 21 22 23
3 21 23 24
3 21 24 25
3 26 254 255
3 17 27 18
3 28 7 10
3 10 11 28
3 256 257 258
3 29 259 260
3 30 261 262
3 20 19 31
3 32 263 264
3 34 6 252
3 265 20 31
3 253 6 35
3 266 257 256
3 36 267 268
3 8 37 12
3 14 38 16
3 269 270 39
3 39 40 269
3 4 41 0
3 34 35 6
3 42 43 44
3 45 42 44
3 46 26 255
3 47 48 49
3 48 47 50
3 51 49 48
3 271 52 260
3 52 29 260
3 53 272 54
3 272 56 54
3 273 274 57
3 53 54 58
3 275 261 30
3 265 31 59
3 276 60 277
3 61 277 60
3 62 63 64
3 65 62 66
3 66 62 64
3 40 67 269
3 67 278 269
3 68 69 70
3 70 69 71
3 279 280 72
3 69 73 71
3 46 281 282
3 74 46 255
3 266 75 257
3 76 283 284
3 77 285 286
3 34 287 35
3 287 288 35
3 46 282 26
3 257 75 76
3 283 76 75
3 289 290 78
3 289 78 36
3 291 289 36
3 267 36 78
3 29 52 292
3 273 57 79
3 79 293 273
3 57 275 79
3 275 30 79
3 61 60 294
3 295 61 294
3 295 296 61
3 64 63 80
3 297 33 32
3 298 297 32
3 40 77 67
3 286 67 77
3 69 81 73
3 82 50 47
3 279 72 83
3 252 84 34
3 34 84 287
3 75 85 283
3 86 49 51
3 290 299 78
3 79 87 293
3 23 88 300
3 46 89 281
3 36 301 291
3 90 285 77
3 91 82 47
3 78 92 267
3 93 53 58
3 22 88 23
3 41 94 0
3 0 94 1
3 4 5 302
3 74 95 46
3 96 28 97
3 76 98 257
3 99 36 268
3 303 38 14
3 30 100 79
3 101 60 276
3 33 304 263
3 102 32 264
3 7 28 96
3 8 103 37
3 305 75 266
3 305 85 75
3 271 104 52
3 27 306 18
3 307 308 277
3 60 105 294
3 309 21 106
3 106 21 25
3 107 310 67
3 310 278 67
3 98 311 257
3 312 283 85
3 61 307 277
3 102 108 32
3 252 109 84
3 110 35 288
3 55 52 104
3 111 112 57
3 275 57 112
3 113 61 296
3 114 65 66
3 84 115 287
3 42 45 313
3 314 7 96
3 78 116 92
3 29 292 117
3 315 117 292
3 77 40 90
3 118 67 286
3 119 33 297
3 67 118 107
3 316 280 317
3 1 94 120
3 318 121 56
3 80 319 64
3 320 68 70
3 280 83 72
3 252 321 109
3 46 95 89
3 122 76 284
3 91 123 82
3 36 124 301
3 274 125 57
3 27 126 306
3 32 108 298
3 13 15 322
3 125 111 57
3 127 307 61
3 69 128 81
3 1 120 2
3 129 130 35
3 99 124 36
3 56 121 323
3 4 302 41
3 41 302 324
3 314 96 325
3 117 259 29
3 30 131 100
3 112 326 275
3 327 44 43
3 117 132 259
3 328 55 104
3 79 100 87
3 113 127 61
3 313 45 329
3 330 49 86
3 331 93 58
3 332 294 105
3 333 320 70
3 322 15 334
3 335 265 59
3 336 65 114
3 133 33 119
3 41 324 134
3 134 324 135
3 110 129 35
3 136 110 137
3 313 329 337
3 337 329 138
3 325 96 139
3 140 139 141
3 140 142 139
3 96 97 139
3 139 97 141
3 98 76 122
3 143 330 144
3 330 86 144
3 145 322 146
3 145 146 147
3 146 322 334
3 93 331 148
3 149 93 148
3 150 151 152
3 150 335 151
3 151 335 59
3 153 336 154
3 336 114 154
3 108 338 298
3 155 156 157
3 155 309 106
3 155 106 156
3 339 285 90
3 158 320 333
3 158 333 159
3 129 340 130
3 129 136 340
3 26 341 254
3 160 342 343
3 103 161 37
3 98 122 344
3 345 162 315
3 163 346 307
3 164 102 347
3 107 348 310
3 160 95 342
3 165 349 311
3 117 166 132
3 166 350 132
3 163 113 351
3 164 108 102
3 39 167 40
3 136 129 110
3 89 160 352
3 305 353 85
3 165 311 98
3 124 354 301
3 168 99 355
3 356 169 357
3 170 149 148
3 127 113 163
3 108 164 338
3 164 358 338
3 282 171 26
3 89 95 160
3 172 341 26
3 173 142 140
3 165 98 344
3 354 124 168
3 99 168 124
3 166 174 350
3 166 117 162
3 315 162 117
3 359 87 100
3 359 100 360
3 131 360 100
3 175 360 361
3 163 307 127
3 176 157 156
3 88 177 300
3 348 107 362
3 118 362 107
3 178 134 135
3 178 135 179
3 321 180 109
3 115 84 109
3 160 181 352
3 363 78 299
3 364 168 355
3 365 147 146
3 366 152 151
3 182 157 176
3 183 348 362
3 158 159 184
3 83 185 367
3 178 41 134
3 137 186 136
3 187 346 163
3 351 188 163
3 319 80 368
3 189 304 33
3 128 190 81
3 369 147 365
3 370 162 345
3 184 159 371
3 185 83 280
3 133 189 33
3 182 155 157
3 191 160 343
3 91 192 123
3 372 164 347
3 373 167 39
3 172 193 341
3 374 191 343
3 168 194 354
3 116 195 92
3 196 174 166
3 196 166 162
3 170 148 197
3 375 280 316
3 136 376 340
3 377 337 138
3 171 172 26
3 140 141 198
3 353 199 85
3 85 378 312
3 194 200 354
3 303 379 38
3 60 201 105
3 163 188 187
3 202 203 332
3 202 332 105
3 204 188 351
3 380 153 154
3 372 205 164
3 206 168 364
3 207 162 370
3 208 185 280
3 103 381 161
3 360 209 359
3 175 209 360
3 164 205 210
3 210 358 164
3 183 382 348
3 133 211 189
3 167 90 40
3 375 208 280
3 212 376 136
3 213 165 344
3 162 207 196
3 209 383 359
3 80 215 368
3 167 216 90
3 217 378 85
3 363 116 78
3 218 174 196
3 126 219 306
3 220 366 151
3 101 201 60
3 105 201 202
3 384 211 133
3 221 304 189
3 88 385 177
3 222 382 183
3 94 223 120
3 224 199 353
3 214 349 165
3 271 225 104
3 182 176 386
3 226 115 109
3 226 109 227
3 186 212 136
3 161 381 387
3 199 217 85
3 228 143 144
3 80 388 215
3 373 216 167
3 109 180 227
3 44 389 390
3 229 173 140
3 391 213 344
3 379 392 38
3 230 112 111
3 231 208 375
3 120 223 393
3 181 160 191
3 394 173 229
3 381 232 387
3 395 369 365
3 233 111 125
3 187 396 346
3 211 221 189
3 90 216 339
3 397 183 362
3 234 94 41
3 178 234 41
3 180 235 227
3 235 212 227
3 186 227 212
3 327 389 44
3 171 181 236
3 171 236 172
3 398 193 172
3 236 398 172
3 191 236 181
3 229 140 198
3 217 199 237
3 213 217 237
3 213 237 214
3 228 144 399
3 116 238 194
3 195 116 194
3 239 240 104
3 239 196 240
3 104 240 328
3 240 196 207
3 121 400 323
3 111 383 209
3 209 230 111
3 201 241 202
3 201 187 241
3 241 187 188
3 380 154 401
3 211 210 242
3 210 205 242
3 211 242 221
3 216 183 243
3 216 243 339
3 128 402 190
3 235 376 212
3 186 226 227
3 403 214 237
3 214 403 349
3 206 194 168
3 244 239 104
3 207 245 240
3 404 170 197
3 405 187 201
3 241 203 202
3 204 241 188
3 372 242 205
3 246 183 216
3 234 223 94
3 377 138 406
3 224 237 199
3 247 200 194
3 363 238 116
3 407 395 365
3 225 244 104
3 239 218 196
3 233 383 111
3 326 112 230
3 405 201 101
3 204 203 241
3 372 221 242
3 397 243 183
3 191 398 236
3 248 378 217
3 248 217 213
3 391 248 213
3 228 399 408
3 206 195 194
3 245 328 240
3 409 404 197
3 175 230 209
3 384 249 211
3 249 210 211
3 373 246 216
3 246 222 183
3 397 339 243
3 234 178 179
3 223 234 410
3 223 410 393
3 234 179 410
3 389 377 406
3 389 406 390
3 394 229 198
3 232 394 387
3 394 198 387
3 224 403 237
3 192 411 123
3 411 412 123
3 412 411 228
3 228 408 412
3 247 194 238
3 379 395 250
3 395 407 250
3 379 250 392
3 225 413 244
3 218 239 413
3 244 413 239
3 121 409 197
3 121 197 400
3 126 414 219
3 414 366 415
3 366 220 415
3 219 414 415
3 215 388 416
3 388 380 416
3 380 401 416
3 385 182 417
3 385 417 177
3 417 182 386
3 184 418 402
3 184 402 128
3 184 371 418
3 32 33 263
3 272 318 56
3 213 214 165
