ply
format ascii 1.0
comment INFO-3111 Flatenator generated
comment TextureFile Dungeons_Texture_01.png
element vertex 12
property float x
property float y
property float z
property float nx
property float ny
property float nz
property uchar red
property uchar green
property uchar blue
property uchar alpha
property float texture_u
property float texture_v
element face 20
property list uchar int vertex_indices
end_header
0.307377 0.05029 0.181581 0.555026 0.420089 0.717964 120 116 110 255 0.211923 0.303946 
0.307377 0.10058 0.090791 0.852661 0.506018 0.130056 120 116 110 255 0.211923 0.303946 
0.004517 0.10058 0.181581 0.0276277 0.742972 0.668752 120 116 110 255 0.211923 0.303946 
-0.307379 -0.10058 -0.090789 -0.865099 -0.486275 -0.123044 120 116 110 255 0.211923 0.303946 
-0.307379 -0.05029 -0.18158 -0.602332 -0.397242 -0.692384 120 116 110 255 0.211923 0.303946 
-0.153688 -0.10058 -0.18158 -0.0531162 -0.741386 -0.668973 120 116 110 255 0.211923 0.303946 
0.307377 -0.10058 0.181581 0.57735 -0.57735 0.57735 120 116 110 255 0.211923 0.303946 
0.307377 -0.10058 -0.18158 0.816497 -0.408248 -0.408248 120 116 110 255 0.211923 0.303946 
0.307377 0.10058 -0.18158 0.333333 0.666667 -0.666667 120 116 110 255 0.211923 0.303946 
-0.307379 0.10058 0.181581 -0.816497 0.408248 0.408248 120 116 110 255 0.211923 0.303946 
-0.307379 0.10058 -0.18158 -0.57735 0.57735 -0.57735 120 116 110 255 0.211923 0.303946 
-0.307379 -0.10058 0.181581 -0.333333 -0.666667 0.666667 120 116 110 255 0.211923 0.303946 
3 0 1 2
3 3 4 5
3 7 8 1
3 2 8 10
3 6 0 2
3 8 7 5
3 5 6 11
3 3 9 10
3 0 6 1
3 6 7 1
3 10 9 2
3 2 1 8
3 9 11 2
3 11 6 2
3 4 10 5
3 10 8 5
3 11 3 5
3 5 7 6
3 10 4 3
3 3 11 9
