ply
format ascii 1.0
comment VCGLIB generated
comment TextureFile Dungeons_Texture_01.png
element vertex 24
property float x
property float y
property float z
property float nx
property float ny
property float nz
property uchar red
property uchar green
property uchar blue
property uchar alpha
property float texture_u
property float texture_v
element face 44
property list uchar int vertex_indices
end_header
-0.307377 -0.05029 0.18158 -0.8027751 -0.2967345 0.5172048 120 116 110 255 0.211923 0.303946
-0.307377 -0.10058 0.09079 -0.7677193 -0.6212077 0.1571883 120 116 110 255 0.211923 0.303946
-0.153688 -0.10058 0.18158 -0.0531167 -0.7413856 0.6689739 120 116 110 255 0.211923 0.303946
0.307379 -0.10058 0.042114 0.7337794 -0.675011 0.07699265 120 116 110 255 0.211923 0.303946
0.307379 -0.05029 0.18158 0.4253986 -0.3335837 0.8412836 120 116 110 255 0.211923 0.303946
0.048891 -0.10058 0.18158 0.03493634 -0.7617491 0.6469296 120 116 110 255 0.211923 0.303946
-0.307377 0.10058 0.09079 -0.8207445 0.5635046 0.09402712 120 116 110 255 0.211923 0.303946
-0.307377 0.05029 0.18158 -0.4069773 0.30022 0.862692 120 116 110 255 0.211923 0.303946
-0.050518 0.10058 0.18158 -0.03246435 0.7427491 0.6687824 120 116 110 255 0.211923 0.303946
0.307379 0.05029 0.18158 0.8211543 0.3226561 0.4707427 120 116 110 255 0.211923 0.303946
0.307379 0.10058 0.037926 0.7485401 0.6591998 0.07171768 120 116 110 255 0.211923 0.303946
0.153688 0.10058 0.18158 0.06682112 0.6571057 0.7508309 120 116 110 255 0.211923 0.303946
-0.307377 0.05029 -0.181581 -0.6023327 0.3972412 -0.6923834 120 116 110 255 0.211923 0.303946
-0.307377 0.10058 -0.09079 -0.8650994 0.4862748 -0.1230441 120 116 110 255 0.211923 0.303946
-0.153688 0.10058 -0.181581 -0.05311683 0.7413862 -0.6689732 120 116 110 255 0.211923 0.303946
0.307379 0.10058 -0.09079 0.8540422 0.5038682 -0.1293397 120 116 110 255 0.211923 0.303946
0.307379 0.05029 -0.181581 0.4039193 0.30103 -0.8638461 120 116 110 255 0.211923 0.303946
0.033957 0.10058 -0.181581 0.02655665 0.8131027 -0.5815142 120 116 110 255 0.211923 0.303946
-0.307377 -0.10058 -0.042989 -0.7363356 -0.6722304 -0.0769169 120 116 110 255 0.211923 0.303946
-0.307377 -0.05029 -0.181581 -0.659173 -0.276026 -0.6995003 120 116 110 255 0.211923 0.303946
-0.075373 -0.10058 -0.181581 -0.03876213 -0.7612423 -0.6473081 120 116 110 255 0.211923 0.303946
0.307379 -0.05029 -0.181581 0.8027751 -0.2967358 -0.5172042 120 116 110 255 0.211923 0.303946
0.307379 -0.10058 -0.09079 0.8650991 -0.4862754 -0.1230443 120 116 110 255 0.211923 0.303946
0.153688 -0.10058 -0.181581 0.05311619 -0.7413862 -0.6689732 120 116 110 255 0.211923 0.303946
3 0 1 2 
3 3 4 5 
3 6 7 8 
3 9 10 11 
3 12 13 14 
3 8 7 2 
3 15 16 17 
3 18 19 20 
3 17 14 8 
3 21 22 23 
3 6 13 18 
3 10 9 3 
3 5 2 20 
3 20 19 14 
3 7 0 2 
3 2 5 8 
3 5 4 11 
3 4 9 11 
3 11 8 5 
3 13 6 14 
3 6 8 14 
3 8 11 17 
3 11 10 17 
3 10 15 17 
3 12 19 13 
3 19 18 13 
3 18 1 6 
3 1 0 6 
3 0 7 6 
3 9 4 3 
3 3 22 10 
3 22 21 15 
3 21 16 15 
3 15 10 22 
3 1 18 2 
3 18 20 2 
3 20 23 5 
3 23 22 3 
3 5 23 3 
3 19 12 14 
3 14 17 20 
3 17 16 23 
3 16 21 23 
3 23 20 17 
