ply
format ascii 1.0
comment VCGLIB generated
comment TextureFile Dungeons_Texture_01.png
element vertex 178
property float x
property float y
property float z
property float nx
property float ny
property float nz
property uchar red
property uchar green
property uchar blue
property uchar alpha
property float texture_u
property float texture_v
element face 216
property list uchar int vertex_indices
end_header
0 0 -4e-06 0 0 1 97 95 95 255 0.199329 0.278745
0 4.999999 4.999999 -1.678834e-07 -1 -1.907349e-07 97 95 95 255 0.199329 0.278745
5 0 -4e-06 -0.7063289 -0.037655 0.7068816 97 95 95 255 0.199329 0.278745
2.500002 4.999999 4.78682 -0.3303014 -0.7876294 0.5201356 97 95 95 255 0.199329 0.278745
0 5 2.499999 -1.200053e-07 -0.9675382 0.2527249 97 95 95 255 0.199329 0.278745
0 2.5 -4e-06 0 -0.2527255 0.9675381 97 95 95 255 0.199329 0.278745
0.213177 0.161493 -4e-06 -0.2758994 -0.2930662 0.9154189 97 95 95 255 0.199329 0.278745
4.991508 0.131396 0.005508 -0.5141254 -0.7161863 0.4719664 97 95 95 255 0.199329 0.278745
0.138424 2.5 -4e-06 -0.4177372 -0.3821234 0.8243042 97 95 95 255 0.199329 0.278745
0.277094 4.999999 4.756103 -0.270524 -0.9303392 0.2475595 97 95 95 255 0.199329 0.278745
0.213179 5 2.499999 -0.5988694 -0.7138709 0.3629653 97 95 95 255 0.199329 0.278745
0.290966 0.444191 0.147717 -0.7086677 -0.08580951 0.7003048 97 95 95 255 0.199329 0.278745
4.757046 0.356437 0.22039 -0.4215243 -0.8162915 0.3949502 97 95 95 255 0.199329 0.278745
4.816494 2.464679 0.166813 -0.5838882 -0.5448284 0.6018611 120 120 119 255 0.197903 0.303684
0.290966 2.447031 0.127876 -0.003609679 -0.2439235 0.9697878 120 120 119 255 0.197903 0.303684
0.354881 4.85018 4.619428 -0.0005745335 -0.9999959 0.002811478 120 120 119 255 0.197903 0.303684
0.251785 4.936532 2.526286 -0.6928629 -0.6713924 0.263008 97 95 95 255 0.199329 0.278745
1.150116 1.106296 0.149815 -0.003869149 0.007526756 0.9999642 120 120 119 255 0.197903 0.303684
3.937767 1.076802 0.149815 -0.03141342 0.02984624 0.9990608 120 120 119 255 0.197903 0.303684
3.937767 2.447031 0.127876 -0.03336669 -0.3789986 0.9247956 120 120 119 255 0.197903 0.303684
1.062229 2.447031 0.127876 -9.122081e-07 -0.5010975 0.8653909 120 120 119 255 0.197903 0.303684
2.054903 4.87212 2.552966 -0.5987449 -0.7848381 -0.1597929 97 95 95 255 0.199329 0.278745
2.447035 4.87212 3.93777 -0.4985499 -0.866861 -5.753267e-07 120 120 119 255 0.197903 0.303684
1.062229 4.87212 2.552966 0.8176829 -0.5288391 0.2274288 97 95 95 255 0.199329 0.278745
1.267662 1.231205 -0.016209 0.1980796 0.0436424 0.9792139 97 95 95 255 0.199329 0.278745
3.847599 1.163582 -0.016209 -0.3736522 0.03831976 0.926777 97 95 95 255 0.199329 0.278745
3.847599 2.504612 -0.01384 0.03576649 -0.3083382 0.9506042 97 95 95 255 0.199329 0.278745
1.223309 2.504612 -0.01384 -0.1020914 -0.308602 0.9456967 97 95 95 255 0.199329 0.278745
1.904768 5.013834 2.495366 -0.121107 -0.6704277 0.7320246 97 95 95 255 0.199329 0.278745
2.504635 5.013834 3.787635 -0.6171471 -0.7684867 -0.16899 97 95 95 255 0.199329 0.278745
1.177603 5.013834 2.495366 0.2388136 -0.7520363 0.6143367 97 95 95 255 0.199329 0.278745
0.290966 4.870306 2.730767 -0.7752852 -0.6297045 -0.04904287 97 95 95 255 0.199329 0.278745
0.290966 4.713775 2.39462 -0.6952854 -0.5060399 0.5103938 97 95 95 255 0.199329 0.278745
0.407021 4.872121 2.552966 -0.4095583 -0.8522302 0.3255237 97 95 95 255 0.199329 0.278745
1.062229 4.852466 3.376006 -0.005305614 -0.9999408 -0.009501467 120 120 119 255 0.197903 0.303684
0.895172 4.850181 4.019185 -0.007048989 -0.9999604 -0.00543414 120 120 119 255 0.197903 0.303684
1.601635 4.850181 3.974023 0.5241965 -0.7951753 -0.3048185 97 95 95 255 0.199329 0.278745
2.447035 4.87212 4.709033 -0.1977705 -0.4954728 0.8458094 97 95 95 255 0.199329 0.278745
0.234333 0.180809 0.040741 -0.4757852 -0.4907192 0.7299474 97 95 95 255 0.199329 0.278745
0.528934 0.232517 0.149815 -0.07451119 -0.7430511 0.6650738 97 95 95 255 0.199329 0.278745
0 4.370338 1.870339 2.287018e-06 -0.7071066 0.707107 97 95 95 255 0.199329 0.278745
0.248787 4.369878 1.869878 -0.4930311 -0.6242545 0.6059923 97 95 95 255 0.199329 0.278745
0.434805 4.299341 1.980187 -0.5620712 -0.6116871 0.5567001 97 95 95 255 0.199329 0.278745
1.062229 4.298062 1.97891 -2.28452e-06 -0.7071065 0.7071072 120 120 119 255 0.197903 0.303684
2.466902 4.290151 1.970996 -0.2656281 -0.7977087 0.5413893 120 120 119 255 0.197903 0.303684
1.171774 4.375202 1.85674 0.1640643 -0.6952602 0.699783 97 95 95 255 0.199329 0.278745
2.358379 4.36801 1.849546 0.1801922 -0.6269135 0.7579646 97 95 95 255 0.199329 0.278745
3.021091 4.298062 2.455121 -0.1868909 -0.7240757 0.6639173 97 95 95 255 0.199329 0.278745
0 3.313523 0.813523 2.979018e-06 -0.707108 0.7071056 97 95 95 255 0.199329 0.278745
0.163006 3.322092 0.822091 -0.3717233 -0.649395 0.6634064 97 95 95 255 0.199329 0.278745
0.290966 3.279053 0.959897 -0.667812 -0.5025004 0.5491088 97 95 95 255 0.199329 0.278745
1.134983 3.307397 0.988244 0.7595162 -0.4491419 0.4705387 97 95 95 255 0.199329 0.278745
3.227158 3.482951 1.163796 -0.02012948 -0.7153209 0.6985062 120 120 119 255 0.197903 0.303684
1.262634 3.371112 0.852655 -0.09889732 -0.7196561 0.6872513 97 95 95 255 0.199329 0.278745
3.112465 3.530794 1.012338 -0.1749482 -0.7685909 0.6153546 97 95 95 255 0.199329 0.278745
5.000004 -1e-06 5 -1 -7.436358e-06 5.048289e-06 97 95 95 255 0.199329 0.278745
2.500004 4.999999 5.000001 -0.3826839 -0.9238794 3.888128e-06 97 95 95 255 0.199329 0.278745
5 2.499999 4.999999 -0.9238795 -0.3826835 -6.83387e-06 97 95 95 255 0.199329 0.278745
5.000002 0.132462 4.817303 -0.9457885 -0.2347078 0.2244914 97 95 95 255 0.199329 0.278745
5.000004 2.499999 4.786819 -0.6872497 -0.2803571 0.6701401 97 95 95 255 0.199329 0.278745
4.850185 0.268681 4.661808 -0.999988 0.003271971 0.003654736 120 120 119 255 0.197903 0.303684
4.872124 2.44703 4.595819 -0.8167581 -0.308404 0.4876404 97 95 95 255 0.199329 0.278745
4.850185 1.106296 1.150116 -0.9954187 -0.02767364 0.09151905 120 120 119 255 0.197903 0.303684
4.850183 1.076801 3.937769 -0.9999532 0.00860942 0.004425475 120 120 119 255 0.197903 0.303684
4.872122 2.44703 3.937769 -0.9263391 -0.3766901 0.0006289328 120 120 119 255 0.197903 0.303684
4.872124 2.447031 1.062229 -0.9234955 -0.3803527 0.04987828 120 120 119 255 0.197903 0.303684
2.449469 4.87212 3.01876 0.284096 -0.6806741 0.6752572 97 95 95 255 0.199329 0.278745
5.016209 1.231205 1.267662 -0.9814923 -0.003028777 0.1914777 97 95 95 255 0.199329 0.278745
5.016207 1.163581 3.847601 -0.9316478 0.2023771 -0.301788 97 95 95 255 0.199329 0.278745
5.013838 2.504611 3.847601 -0.9545217 -0.2978918 0.01220614 97 95 95 255 0.199329 0.278745
5.01384 2.504612 1.223309 -0.8978685 -0.4373539 0.05053519 97 95 95 255 0.199329 0.278745
2.504635 5.013834 3.141374 -0.7283928 -0.659328 0.1863614 97 95 95 255 0.199329 0.278745
4.579084 2.740068 4.709033 -0.7071064 -0.7071073 1.404997e-06 120 120 119 255 0.197903 0.303684
4.957336 2.482325 4.760864 -0.6497754 -0.2528209 0.7168497 97 95 95 255 0.199329 0.278745
4.86923 2.155015 4.709033 -0.6875704 0.04607013 0.7246547 97 95 95 255 0.199329 0.278745
4.850185 0.232517 0.528934 -0.6606095 -0.7505205 -0.0177233 97 95 95 255 0.199329 0.278745
4.939606 1.123543 2.264107 -0.752766 0.6580293 0.01845963 97 95 95 255 0.199329 0.278745
4.850183 0.931736 2.081129 -1 -1.234181e-06 -5.370118e-07 120 120 119 255 0.197903 0.303684
3.14151 4.358492 5 -0.7071074 -0.7071063 7.099116e-06 97 95 95 255 0.199329 0.278745
3.141003 4.358997 4.786819 -0.6281391 -0.6490642 0.429135 97 95 95 255 0.199329 0.278745
3.029005 4.290151 3.866191 -0.707107 -0.7071066 -4.031934e-07 120 120 119 255 0.197903 0.303684
3.143261 4.375202 2.564664 -0.7411655 -0.6469554 -0.1792275 97 95 95 255 0.199329 0.278745
3.150455 4.36801 3.757667 -0.693312 -0.7062644 -0.1432104 97 95 95 255 0.199329 0.278745
3.030281 4.288873 4.709033 -0.335741 -0.4103836 0.8478581 97 95 95 255 0.199329 0.278745
3.923645 3.576356 5 -0.7071068 -0.7071068 -2.679967e-07 97 95 95 255 0.199329 0.278745
3.934853 3.565149 4.786819 -0.6736189 -0.6568646 0.3387718 97 95 95 255 0.199329 0.278745
4.011755 3.307397 1.722278 -0.6959107 -0.717554 0.02871755 120 120 119 255 0.197903 0.303684
3.836203 3.48295 3.937769 -0.7071079 -0.7071057 1.217621e-06 120 120 119 255 0.197903 0.303684
4.147345 3.371112 1.849929 -0.6886436 -0.7240776 0.03849336 97 95 95 255 0.199329 0.278745
3.987661 3.530793 3.823076 -0.7058511 -0.7068498 0.04623575 97 95 95 255 0.199329 0.278745
3.807861 3.511294 4.570862 -0.5339805 -0.5531117 0.6394782 97 95 95 255 0.199329 0.278745
1.215685 4.852285 3.370256 -0.1942541 -0.8764922 -0.4404846 97 95 95 255 0.199329 0.278745
1.676144 4.852646 3.826648 0.7047303 -0.5119177 0.4912183 97 95 95 255 0.199329 0.278745
1.163647 5.015144 3.069142 0.1629314 -0.942405 -0.2921066 97 95 95 255 0.199329 0.278745
1.779303 5.01548 3.848346 0.4183293 -0.9082943 0.001455042 97 95 95 255 0.199329 0.278745
1.535149 1.360153 0.150241 -0.000258374 -0.02008242 0.9997983 106 103 98 255 0.223307 0.294738
3.580093 1.306553 0.150254 0.298601 -0.4467558 0.8433545 97 95 95 255 0.199329 0.278745
3.567963 2.422493 0.172105 -0.0001827354 -0.2609026 0.9653651 106 103 98 255 0.223307 0.294739
1.487864 2.422493 0.172111 -0.0008687937 -0.4997604 0.8661633 106 103 98 255 0.223307 0.294739
1.282007 4.821733 2.538321 -0.500527 -0.1258398 0.8565261 97 95 95 255 0.199329 0.278745
1.858381 4.821733 2.538321 7.190246e-07 -0.7071042 0.7071093 106 103 98 255 0.223307 0.294738
1.310265 4.232992 1.949585 9.654857e-07 -0.7071044 0.7071092 106 103 98 255 0.223307 0.294738
2.250807 4.227291 1.943882 6.356971e-07 -0.7071044 0.7071092 106 103 98 255 0.223307 0.294738
1.461033 3.258441 0.975039 -0.0008174356 -0.7023543 0.7118272 106 103 98 255 0.223307 0.294739
2.927269 3.38501 1.101609 -0.0008172253 -0.698203 0.7158995 106 103 98 255 0.223307 0.294739
4.849758 1.360153 1.53515 -0.9997858 -0.02069585 -0.0002666512 106 103 98 255 0.223307 0.294738
4.849745 1.306552 3.580094 -0.8365447 -0.4512586 0.310739 97 95 95 255 0.199329 0.278745
4.827204 2.423182 3.593271 -0.9235225 -0.3835438 -0.0006802832 106 103 98 255 0.223307 0.294739
4.8272 2.423182 1.51317 -0.9236792 -0.3831666 1.904141e-06 106 103 98 255 0.223307 0.294739
2.4632 4.820213 3.1685 -0.7071093 -0.7071042 7.151642e-07 106 103 98 255 0.223307 0.294738
2.4632 4.820213 3.680748 -0.707109 -0.7071046 0 106 103 98 255 0.223307 0.294738
3.052288 4.231119 2.67523 -0.7071097 -0.7071039 8.39218e-07 106 103 98 255 0.223307 0.294738
3.057991 4.225418 3.620843 -0.7071096 -0.707104 9.658295e-07 106 103 98 255 0.223307 0.294738
4.025383 3.258018 2.047791 -0.7159298 -0.698172 -0.0006670817 106 103 98 255 0.223307 0.294739
3.898815 3.384586 3.611773 -0.7112203 -0.702969 -0.0006670837 106 103 98 255 0.223307 0.294739
0.528934 0.232517 0.149815 -0.008096762 0.02669828 0.9996107 120 120 119 255 0.197903 0.303684
4.757046 0.356437 0.22039 -0.6639369 -0.008818056 0.7477366 120 120 119 255 0.197903 0.303684
3.937767 1.076802 0.149815 -0.3463962 0.6946379 0.6304665 97 95 95 255 0.199329 0.278745
3.937767 2.447031 0.127876 -0.8370778 -0.3772479 0.3962132 97 95 95 255 0.199329 0.278745
1.062229 2.447031 0.127876 0.7463426 -0.2574121 0.6137685 97 95 95 255 0.199329 0.278745
0.290966 4.713775 2.39462 -1.776075e-06 -0.7071065 0.7071071 120 120 119 255 0.197903 0.303684
1.062229 4.87212 2.552966 -0.0008572129 -0.9271042 0.3748026 120 120 119 255 0.197903 0.303684
0.290966 4.870306 2.730767 -0.007779737 -0.9998846 -0.01305097 120 120 119 255 0.197903 0.303684
1.601635 4.850181 3.974023 0.007613562 -0.999971 0.0002580135 120 120 119 255 0.197903 0.303684
0.290966 0.444191 0.147717 -0.007738137 0.006872532 0.9999465 120 120 119 255 0.197903 0.303684
0.434805 4.299341 1.980187 -2.574726e-06 -0.707107 0.7071066 120 120 119 255 0.197903 0.303684
1.134983 3.307397 0.988244 -2.584908e-06 -0.7071074 0.7071062 120 120 119 255 0.197903 0.303684
2.466902 4.290151 1.970996 -0.6583875 -0.7318452 0.1758648 97 95 95 255 0.199329 0.278745
0.290966 2.447031 0.127876 -0.6908296 -0.35465 0.6300618 97 95 95 255 0.199329 0.278745
0.290966 3.279053 0.959897 -1.733392e-06 -0.7071071 0.7071065 120 120 119 255 0.197903 0.303684
4.850185 0.232517 0.528934 -0.9956573 -0.05394149 0.07587491 120 120 119 255 0.197903 0.303684
4.86923 2.155015 4.709033 -0.9999192 0.0119143 0.004426547 120 120 119 255 0.197903 0.303684
4.872122 2.44703 3.937769 -0.4712496 -0.2138385 -0.8556851 97 95 95 255 0.199329 0.278745
4.850183 1.076801 3.937769 -0.7490578 0.5481154 -0.3721316 97 95 95 255 0.199329 0.278745
4.872124 2.447031 1.062229 -0.623549 -0.2493831 0.7409418 97 95 95 255 0.199329 0.278745
4.579084 2.740068 4.709033 -0.5010461 -0.5205163 0.6913867 97 95 95 255 0.199329 0.278745
4.850185 1.106296 1.150116 -0.818575 0.4617988 0.3415802 97 95 95 255 0.199329 0.278745
4.850183 0.931736 2.081129 -0.9122778 0.4092245 0.01686892 97 95 95 255 0.199329 0.278745
3.030281 4.288873 4.709033 -0.7071066 -0.7071069 -1.069789e-06 120 120 119 255 0.197903 0.303684
2.447035 4.87212 3.93777 -0.2820454 -0.5670347 -0.7739006 97 95 95 255 0.199329 0.278745
3.021091 4.298062 2.455121 -0.4864061 -0.8080318 0.3324061 120 120 119 255 0.197903 0.303684
3.807861 3.511294 4.570862 -0.7071078 -0.7071059 7.873578e-07 120 120 119 255 0.197903 0.303684
3.836203 3.48295 3.937769 -0.4243173 -0.467463 -0.7755213 97 95 95 255 0.199329 0.278745
4.011755 3.307397 1.722278 -0.2829029 -0.7378399 0.612828 97 95 95 255 0.199329 0.278745
1.062229 4.852466 3.376006 0.4770593 -0.8319361 -0.2833671 97 95 95 255 0.199329 0.278745
2.054903 4.87212 2.552966 -0.2956851 -0.907678 0.2978105 120 120 119 255 0.197903 0.303684
2.449469 4.87212 3.01876 -0.1462561 -0.9815135 0.123452 120 120 119 255 0.197903 0.303684
1.215685 4.852285 3.370256 0.00897341 -0.9999182 -0.009123556 120 120 119 255 0.197903 0.303684
1.535149 1.360153 0.150241 -0.4180883 -0.3109539 0.8535279 97 95 95 255 0.199329 0.278745
1.487864 2.422493 0.172111 -0.6267508 -0.3958227 0.6711989 97 95 95 255 0.199329 0.278745
1.858381 4.821733 2.538321 0.5694735 0.00686499 0.8219811 97 95 95 255 0.199329 0.278745
2.250807 4.227291 1.943882 0.7396521 -0.1216981 0.6618946 97 95 95 255 0.199329 0.278745
1.310265 4.232992 1.949585 -0.7303619 -0.5162001 0.4473356 97 95 95 255 0.199329 0.278745
2.927269 3.38501 1.101609 0.6385608 -0.2238093 0.736308 97 95 95 255 0.199329 0.278745
1.461033 3.258441 0.975039 -0.6410885 -0.5666588 0.5175939 97 95 95 255 0.199329 0.278745
3.567963 2.422493 0.172105 0.5881883 -0.2168677 0.7791039 97 95 95 255 0.199329 0.278745
4.849758 1.360153 1.53515 -0.8621476 -0.3055851 -0.4041277 97 95 95 255 0.199329 0.278745
4.8272 2.423182 1.51317 -0.7785336 -0.2229952 -0.5866504 97 95 95 255 0.199329 0.278745
2.4632 4.820213 3.680748 -0.849065 -0.143058 0.5085499 97 95 95 255 0.199329 0.278745
2.4632 4.820213 3.1685 -0.8448061 0.05036562 -0.5326968 97 95 95 255 0.199329 0.278745
3.057991 4.225418 3.620843 -0.4827263 -0.4910974 0.7251198 97 95 95 255 0.199329 0.278745
4.025383 3.258018 2.047791 -0.7038394 -0.253386 -0.6636308 97 95 95 255 0.199329 0.278745
3.052288 4.231119 2.67523 -0.6721594 -0.1343442 -0.7281163 97 95 95 255 0.199329 0.278745
3.898815 3.384586 3.611773 -0.5559587 -0.555625 0.6182159 97 95 95 255 0.199329 0.278745
4.827204 2.423182 3.593271 -0.6709217 -0.3932819 0.6286442 97 95 95 255 0.199329 0.278745
3.580093 1.306553 0.150254 -0.0005196343 -0.0195827 0.9998081 106 103 98 255 0.223307 0.294738
1.282007 4.821733 2.538321 0 -0.7071039 0.7071096 106 103 98 255 0.223307 0.294738
1.150116 1.106296 0.149815 0.474436 0.5085617 0.7185231 97 95 95 255 0.199329 0.278745
1.062229 4.298062 1.97891 0.791625 -0.4172322 0.446371 97 95 95 255 0.199329 0.278745
3.227158 3.482951 1.163796 -0.6247965 -0.7435465 0.2382605 97 95 95 255 0.199329 0.278745
0.354881 4.85018 4.619428 -0.54602 -0.7014214 0.4581159 97 95 95 255 0.199329 0.278745
0.407021 4.872121 2.552966 -1.347535e-06 -0.9258209 0.3779627 120 120 119 255 0.197903 0.303684
2.447035 4.87212 4.709033 -0.2407899 -0.9705541 0.006707189 120 120 119 255 0.197903 0.303684
4.849745 1.306552 3.580094 -0.9997963 -0.02017582 -0.0005353647 106 103 98 255 0.223307 0.294738
4.850185 0.268681 4.661808 -0.808284 -0.430726 0.4014377 97 95 95 255 0.199329 0.278745
4.872124 2.44703 4.595819 -0.925764 -0.3781018 3.354152e-06 120 120 119 255 0.197903 0.303684
3.029005 4.290151 3.866191 -0.4375301 -0.4233026 -0.7933362 97 95 95 255 0.199329 0.278745
1.676144 4.852646 3.826648 0.0121121 -0.9998614 -0.01142923 120 120 119 255 0.197903 0.303684
3 95 97 98 
3 100 101 102 
3 2 6 0 
3 5 6 8 
3 4 9 1 
3 40 10 4 
3 7 12 39 
3 6 38 11 
3 115 18 17 
3 13 18 116 
3 14 17 20 
3 33 31 16 
3 16 32 33 
3 13 52 19 
3 24 117 25 
3 118 25 117 
3 119 24 27 
3 94 36 92 
3 23 45 30 
3 118 54 26 
3 10 16 31 
3 41 42 32 
3 120 43 121 
3 34 35 122 
3 9 37 3 
3 15 35 123 
3 38 39 11 
3 124 115 17 
3 102 103 104 
3 40 49 41 
3 34 123 35 
3 45 51 53 
3 46 21 28 
3 41 50 42 
3 125 126 43 
3 52 13 44 
3 54 127 46 
3 104 98 97 
3 48 8 49 
3 53 119 27 
3 49 128 50 
3 129 20 126 
3 105 107 108 
3 109 112 110 
3 2 58 7 
3 57 58 55 
3 57 85 59 
3 58 75 7 
3 59 73 74 
3 83 90 79 
3 77 130 60 
3 131 64 63 
3 13 62 65 
3 72 87 64 
3 67 76 68 
3 132 68 133 
3 134 67 70 
3 66 81 71 
3 132 89 69 
3 73 135 61 
3 74 73 61 
3 7 75 12 
3 136 137 76 
3 136 76 67 
3 68 76 133 
3 77 60 63 
3 130 62 116 
3 76 137 133 
3 111 114 112 
3 79 56 3 
3 138 22 80 
3 47 88 81 
3 82 139 29 
3 140 13 86 
3 84 79 85 
3 141 80 87 
3 142 82 89 
3 113 107 114 
3 143 70 88 
3 86 13 65 
3 56 9 3 
3 66 94 92 
3 93 23 30 
3 28 93 30 
3 21 93 28 
3 91 144 93 
3 94 71 29 
3 139 94 29 
3 145 140 146 
3 147 123 34 
3 146 147 145 
3 44 13 140 
3 24 96 148 
3 26 96 25 
3 27 148 149 
3 28 99 150 
3 45 99 30 
3 46 150 151 
3 53 152 45 
3 46 153 54 
3 53 149 154 
3 54 155 26 
3 67 106 156 
3 69 106 68 
3 70 156 157 
3 71 158 29 
3 81 159 71 
3 82 158 160 
3 81 161 162 
3 89 160 163 
3 88 157 161 
3 89 164 69 
3 95 165 97 
3 100 166 101 
3 2 7 6 
3 5 0 6 
3 4 10 9 
3 40 41 10 
3 38 6 39 
3 6 7 39 
3 128 8 11 
3 8 6 11 
3 115 116 18 
3 13 19 18 
3 14 124 17 
3 24 167 117 
3 118 26 25 
3 119 167 24 
3 23 168 45 
3 118 169 54 
3 170 9 31 
3 9 10 31 
3 16 10 32 
3 10 41 32 
3 121 171 120 
3 120 125 43 
3 35 15 122 
3 122 171 121 
3 121 34 122 
3 9 170 37 
3 123 22 172 
3 172 15 123 
3 102 101 103 
3 40 48 49 
3 45 168 51 
3 46 127 21 
3 41 49 50 
3 125 129 126 
3 54 169 127 
3 104 103 98 
3 48 5 8 
3 53 51 119 
3 49 8 128 
3 129 14 20 
3 105 173 107 
3 109 111 112 
3 2 55 58 
3 57 59 58 
3 57 84 85 
3 58 174 75 
3 174 58 74 
3 58 59 74 
3 73 59 135 
3 59 85 135 
3 79 3 37 
3 85 79 90 
3 90 135 85 
3 79 37 83 
3 63 60 131 
3 131 175 64 
3 13 116 62 
3 64 175 72 
3 72 141 87 
3 132 69 68 
3 134 136 67 
3 66 47 81 
3 132 142 89 
3 130 77 62 
3 111 113 114 
3 79 78 56 
3 138 172 22 
3 47 143 88 
3 82 176 139 
3 84 78 79 
3 141 138 80 
3 142 176 82 
3 113 108 107 
3 143 134 70 
3 56 1 9 
3 66 71 94 
3 93 144 23 
3 21 91 93 
3 139 36 94 
3 145 44 140 
3 147 177 123 
3 146 177 147 
3 24 25 96 
3 26 155 96 
3 27 24 148 
3 28 30 99 
3 45 152 99 
3 46 28 150 
3 53 154 152 
3 46 151 153 
3 53 27 149 
3 54 153 155 
3 67 68 106 
3 69 164 106 
3 70 67 156 
3 71 159 158 
3 81 162 159 
3 82 29 158 
3 81 88 161 
3 89 82 160 
3 88 70 157 
3 89 163 164 
