ply
format ascii 1.0
comment VCGLIB generated
comment TextureFile Dungeons_Texture_01.png
element vertex 136
property float x
property float y
property float z
property float nx
property float ny
property float nz
property uchar red
property uchar green
property uchar blue
property uchar alpha
property float texture_u
property float texture_v
element face 164
property list uchar int vertex_indices
end_header
1.543874 1.504319 0.150511 0.0006866016 0.02472465 0.999694 106 103 98 255 0.222199 0.294369
3.475461 1.450679 0.150511 -0.0001562729 0.02292395 0.9997372 106 103 98 255 0.222199 0.294369
3.608513 2.500428 0.128465 0.01339965 -0.5116174 0.8591089 106 103 98 255 0.222199 0.294369
1.449808 2.398319 0.128465 0.01179215 -0.2352324 0.9718677 106 103 98 255 0.222199 0.294369
3.559188 4.871531 2.554469 -0.0001337542 -0.9687777 0.247931 106 103 98 255 0.222199 0.294369
3.554461 4.849483 3.65317 0.3747755 -0.9053153 0.1998686 97 95 95 255 0.200041 0.278032
1.439441 4.849483 3.692265 -0.0001854436 -0.9998055 -0.01971953 106 103 98 255 0.222199 0.294369
1.412214 4.871531 2.554469 4.974193e-05 -0.8557507 0.5173885 106 103 98 255 0.222199 0.294369
1.40742 4.257314 1.974629 4.598908e-05 -0.7002891 0.7138594 106 103 98 255 0.222199 0.294369
3.534536 4.250121 1.967435 4.609473e-05 -0.6934909 0.7204654 106 103 98 255 0.222199 0.294369
0 0 -4e-06 0 0 1 97 95 95 255 0.200041 0.278032
5 0 -4e-06 0 0 1 97 95 95 255 0.200041 0.278032
4.817299 0.132463 -4e-06 0.2274846 -0.2419837 0.9432362 97 95 95 255 0.200041 0.278032
0.213177 0.161494 -4e-06 -0.321832 -0.3346115 0.8856971 97 95 95 255 0.200041 0.278032
5 2.5 -4e-06 -9.940642e-07 -0.382684 0.9238793 97 95 95 255 0.200041 0.278032
4.786819 2.5 -4e-06 0.6701385 -0.2803594 0.6872504 97 95 95 255 0.200041 0.278032
0 2.5 -4e-06 0 -0.2527255 0.9675381 97 95 95 255 0.200041 0.278032
0.138424 2.5 -4e-06 -0.4330899 -0.374796 0.8197323 97 95 95 255 0.200041 0.278032
4.999998 5 2.499999 1.917515e-06 -0.9238794 0.3826836 97 95 95 255 0.200041 0.278032
4.999998 4.999999 4.999999 1.214428e-07 -1 -1.271566e-07 97 95 95 255 0.200041 0.278032
4.786819 4.999999 4.796399 0.3185428 -0.8968365 0.3069445 97 95 95 255 0.200041 0.278032
4.786818 5 2.499999 0.6241887 -0.7376193 0.2575002 97 95 95 255 0.200041 0.278032
0 4.999999 4.999999 -1.678834e-07 -1 -1.907349e-07 97 95 95 255 0.200041 0.278032
0.277094 4.999999 4.756103 -0.2686794 -0.9307355 0.2480786 97 95 95 255 0.200041 0.278032
0 5 2.499999 -1.200053e-07 -0.9675382 0.2527249 97 95 95 255 0.200041 0.278032
0.213179 5 2.499999 -0.5988694 -0.7138709 0.3629653 97 95 95 255 0.200041 0.278032
0 4.370338 1.870339 2.287018e-06 -0.7071066 0.707107 97 95 95 255 0.200041 0.278032
0.248787 4.369878 1.869878 -0.4930311 -0.6242545 0.6059923 97 95 95 255 0.200041 0.278032
5 3.576357 1.076356 -3.0368e-07 -0.7071076 0.7071059 97 95 95 255 0.200041 0.278032
4.786819 3.56515 1.065148 0.3387707 -0.656866 0.6736182 97 95 95 255 0.200041 0.278032
4.661808 0.268682 0.149815 0.4014485 -0.4307298 0.8082765 97 95 95 255 0.200041 0.278032
0.528934 0.232517 0.149815 -0.07470254 -0.7557347 0.6506032 97 95 95 255 0.200041 0.278032
0.234333 0.180809 0.040741 -0.4757842 -0.4907267 0.729943 97 95 95 255 0.200041 0.278032
4.760864 2.482326 0.042664 0.6673021 -0.3014959 0.6810346 97 95 95 255 0.200041 0.278032
4.70903 2.155016 0.130768 0.736022 0.04122552 0.6757012 97 95 95 255 0.200041 0.278032
0.290966 0.444191 0.147717 -0.7083812 -0.08577073 0.7005994 97 95 95 255 0.200041 0.278032
0.290966 2.408205 0.127876 0.008460109 -0.2369431 0.9714867 120 120 119 255 0.197903 0.304397
4.746445 4.92224 4.748105 0.4553377 -0.7848104 0.4204049 97 95 95 255 0.200041 0.278032
4.492342 4.85018 4.703349 0.05675756 -0.7113569 0.7005354 97 95 95 255 0.200041 0.278032
4.709032 4.852747 4.451778 0.7654517 -0.6416185 0.04908493 97 95 95 255 0.200041 0.278032
4.786819 4.358997 1.858998 0.4291309 -0.6490655 0.6281406 97 95 95 255 0.200041 0.278032
4.709032 4.87212 2.552966 0.003570752 -0.9697576 0.2440442 120 120 119 255 0.197903 0.304397
4.70903 4.288874 1.96972 0.8478485 -0.4103943 0.3357522 97 95 95 255 0.200041 0.278032
4.570862 3.511295 1.19214 0.6394733 -0.5531146 0.5339832 97 95 95 255 0.200041 0.278032
4.70903 2.740069 0.420914 0.03285379 -0.7486362 0.6621664 120 120 119 255 0.197903 0.304397
2.081127 0.931736 0.149815 0 0 1 120 120 119 255 0.197903 0.304397
4.595818 2.525664 0.127876 0.3367459 -0.3966533 0.8539721 97 95 95 255 0.200041 0.278032
3.937767 2.447031 0.127876 0.02763431 -0.4178324 0.9081038 120 120 119 255 0.197903 0.304397
3.937767 1.076802 0.149815 0.004424992 0.008610593 0.9999532 120 120 119 255 0.197903 0.304397
1.150116 1.106296 0.149815 -0.004112103 0.007562248 0.999963 120 120 119 255 0.197903 0.304397
1.062229 2.447031 0.127876 0.01214023 -0.4941747 0.8692778 120 120 119 255 0.197903 0.304397
0.407021 4.872121 2.552966 -0.4095583 -0.8522302 0.3255237 97 95 95 255 0.200041 0.278032
0.290966 4.870306 2.730767 -0.7752852 -0.6297045 -0.04904287 97 95 95 255 0.200041 0.278032
0.251785 4.936532 2.526286 -0.6928629 -0.6713924 0.263008 97 95 95 255 0.200041 0.278032
0.290966 4.713775 2.39462 -0.6952854 -0.5060399 0.5103938 97 95 95 255 0.200041 0.278032
3.937767 3.482951 1.163796 3.616197e-08 -0.7071068 0.7071068 120 120 119 255 0.197903 0.304397
1.267662 1.231205 -0.016209 0.1649817 0.2086729 0.9639692 97 95 95 255 0.200041 0.278032
2.264107 1.123543 0.060394 0.01698168 0.6567782 0.7538926 97 95 95 255 0.200041 0.278032
3.847599 1.163582 -0.016209 -0.260507 0.3875773 0.8842624 97 95 95 255 0.200041 0.278032
3.847599 2.504612 -0.01384 -0.1032956 -0.3082198 0.9456905 97 95 95 255 0.200041 0.278032
1.223309 2.504612 -0.01384 -0.09386148 -0.3015075 0.9488326 97 95 95 255 0.200041 0.278032
3.937769 4.87212 2.552966 -0.7956637 -0.5426487 0.2691689 97 95 95 255 0.200041 0.278032
3.937769 4.850181 3.94974 0.004088612 -0.9999624 -0.007652479 120 120 119 255 0.197903 0.304397
3.847599 5.016201 3.875028 -0.2253194 -0.9691793 -0.0996123 97 95 95 255 0.200041 0.278032
3.787632 5.013834 2.495366 0.05159063 -0.9525954 0.299834 97 95 95 255 0.200041 0.278032
1.217606 4.850181 3.986505 0.02788718 -0.5299799 -0.8475515 97 95 95 255 0.200041 0.278032
1.128443 4.972095 3.894877 0.4783933 -0.7570052 -0.4450653 97 95 95 255 0.200041 0.278032
1.152397 5.016201 3.875028 0.3559083 -0.9011369 -0.2475511 97 95 95 255 0.200041 0.278032
1.062229 4.852466 3.566104 0.7792372 -0.6247644 0.0495881 97 95 95 255 0.200041 0.278032
1.062229 4.87212 2.552966 0.800836 -0.5203844 0.2964151 97 95 95 255 0.200041 0.278032
1.177603 5.013834 2.495366 0.2096593 -0.9447669 0.2519099 97 95 95 255 0.200041 0.278032
1.062229 4.298062 1.97891 -2.28452e-06 -0.7071065 0.7071072 120 120 119 255 0.197903 0.304397
1.171774 4.375202 1.85674 0.2755452 -0.6691458 0.6901585 97 95 95 255 0.200041 0.278032
3.823074 3.530794 1.012338 -0.1850199 -0.7023474 0.6873688 97 95 95 255 0.200041 0.278032
0.354881 4.85018 4.619428 -0.5422322 -0.7023089 0.4612445 97 95 95 255 0.200041 0.278032
0.434805 4.299341 1.980187 -0.5620712 -0.6116871 0.5567001 97 95 95 255 0.200041 0.278032
0.895172 4.850181 4.019185 -0.008010705 -0.9999458 -0.006656229 120 120 119 255 0.197903 0.304397
1.692295 1.076802 0.149815 0.06853881 0.6502766 0.7565995 97 95 95 255 0.200041 0.278032
2.85667 1.076802 0.149815 -0.03181782 0.7836082 0.6204401 97 95 95 255 0.200041 0.278032
1.48216 3.253223 0.970544 0.01273566 -0.7163846 0.6975894 106 103 98 255 0.222199 0.294369
3.588342 3.412906 1.130227 0.001662923 -0.7179858 0.6960558 106 103 98 255 0.222199 0.294369
0 3.313523 0.813523 2.979018e-06 -0.707108 0.7071056 97 95 95 255 0.200041 0.278032
0.163006 3.322092 0.822091 -0.3874225 -0.6425291 0.6611053 97 95 95 255 0.200041 0.278032
5 4.358492 1.858491 6.647021e-06 -0.7071068 0.7071068 97 95 95 255 0.200041 0.278032
3.86619 4.290151 1.970996 -4.818426e-07 -0.7071072 0.7071065 120 120 119 255 0.197903 0.304397
1.134983 3.307397 0.988244 0.7595162 -0.4491419 0.4705387 97 95 95 255 0.200041 0.278032
1.262634 3.371112 0.852655 -0.05007784 -0.7120089 0.7003824 97 95 95 255 0.200041 0.278032
3.757664 4.36801 1.849546 -0.1219612 -0.6961231 0.7074872 97 95 95 255 0.200041 0.278032
0.290966 3.279053 0.959897 -0.6691574 -0.49767 0.5518633 97 95 95 255 0.200041 0.278032
0.528934 0.232517 0.149815 -0.00135021 0.0009598839 0.9999986 120 120 119 255 0.197903 0.304397
4.661808 0.268682 0.149815 0.002740654 0.002455509 0.9999933 120 120 119 255 0.197903 0.304397
4.70903 2.155016 0.130768 0.004125091 0.01111971 0.9999297 120 120 119 255 0.197903 0.304397
3.937767 2.447031 0.127876 -0.8556851 -0.2138386 0.4712496 97 95 95 255 0.200041 0.278032
3.937767 1.076802 0.149815 -0.5593369 0.5701036 0.6017676 97 95 95 255 0.200041 0.278032
1.062229 2.447031 0.127876 0.7463426 -0.2574121 0.6137685 97 95 95 255 0.200041 0.278032
0.290966 4.713775 2.39462 -1.776075e-06 -0.7071065 0.7071071 120 120 119 255 0.197903 0.304397
1.062229 4.87212 2.552966 -0.0005765645 -0.9266853 0.3758377 120 120 119 255 0.197903 0.304397
1.062229 4.852466 3.566104 -0.007372453 -0.999867 -0.01454675 120 120 119 255 0.197903 0.304397
0.290966 4.870306 2.730767 -0.006538296 -0.9999019 -0.0123926 120 120 119 255 0.197903 0.304397
0.895172 4.850181 4.019185 0.2787307 -0.8931734 -0.3529172 97 95 95 255 0.200041 0.278032
0.354881 4.85018 4.619428 -0.003802343 -0.9999869 -0.003424123 120 120 119 255 0.197903 0.304397
1.217606 4.850181 3.986505 -5.479813e-08 -1 -1.489189e-06 120 120 119 255 0.197903 0.304397
3.937769 4.87212 2.552966 -2.875984e-07 -0.8652901 0.5012714 120 120 119 255 0.197903 0.304397
4.70903 2.740069 0.420914 0.6260127 -0.5722867 0.5297132 97 95 95 255 0.200041 0.278032
2.081127 0.931736 0.149815 0.01439154 0.4111858 0.911438 97 95 95 255 0.200041 0.278032
1.150116 1.106296 0.149815 0.4886888 0.4950214 0.7184269 97 95 95 255 0.200041 0.278032
2.85667 1.076802 0.149815 0 0 1 120 120 119 255 0.197903 0.304397
1.692295 1.076802 0.149815 0 0 1 120 120 119 255 0.197903 0.304397
4.709032 4.852747 4.451778 0.00817706 -0.9999388 -0.00745155 120 120 119 255 0.197903 0.304397
4.492342 4.85018 4.703349 0.002129019 -0.9999965 -0.001568048 120 120 119 255 0.197903 0.304397
4.70903 4.288874 1.96972 -5.246276e-07 -0.7071072 0.7071064 120 120 119 255 0.197903 0.304397
0.434805 4.299341 1.980187 -2.574726e-06 -0.707107 0.7071066 120 120 119 255 0.197903 0.304397
1.134983 3.307397 0.988244 -2.584908e-06 -0.7071074 0.7071062 120 120 119 255 0.197903 0.304397
4.570862 3.511295 1.19214 -1.85839e-07 -0.7071068 0.7071067 120 120 119 255 0.197903 0.304397
3.937767 3.482951 1.163796 -0.7755191 -0.4674654 0.4243185 97 95 95 255 0.200041 0.278032
0.290966 2.408205 0.127876 -0.7139997 -0.3325189 0.6161458 97 95 95 255 0.200041 0.278032
0.290966 3.279053 0.959897 0.01158538 -0.7016687 0.7124091 120 120 119 255 0.197903 0.304397
3.475461 1.450679 0.150511 0.2373405 -0.2859044 0.9284009 97 95 95 255 0.200041 0.278032
1.543874 1.504319 0.150511 -0.3747794 -0.200027 0.9052788 97 95 95 255 0.200041 0.278032
1.449808 2.398319 0.128465 -0.6106456 -0.3905644 0.6888915 97 95 95 255 0.200041 0.278032
3.559188 4.871531 2.554469 0.5805169 -0.7091809 0.4000784 97 95 95 255 0.200041 0.278032
1.439441 4.849483 3.692265 -0.278299 -0.8966213 0.3444125 97 95 95 255 0.200041 0.278032
1.412214 4.871531 2.554469 -0.5667593 -0.7081255 0.4211203 97 95 95 255 0.200041 0.278032
3.534536 4.250121 1.967435 0.5984809 -0.5548045 0.5779382 97 95 95 255 0.200041 0.278032
1.40742 4.257314 1.974629 -0.5866627 -0.5824499 0.5626535 97 95 95 255 0.200041 0.278032
3.588342 3.412906 1.130227 0.5855695 -0.5661291 0.5801777 97 95 95 255 0.200041 0.278032
1.48216 3.253223 0.970544 -0.604802 -0.5664712 0.5597544 97 95 95 255 0.200041 0.278032
3.608513 2.500428 0.128465 0.5220743 -0.4509493 0.7239359 97 95 95 255 0.200041 0.278032
3.554461 4.849483 3.65317 -0.0003708872 -0.9997986 -0.02006489 106 103 98 255 0.222199 0.294369
4.709032 4.87212 2.552966 0.8698863 -0.4265279 0.2477333 97 95 95 255 0.200041 0.278032
4.595818 2.525664 0.127876 0.05508399 -0.4609775 0.8857006 120 120 119 255 0.197903 0.304397
0.290966 0.444191 0.147717 -0.007813577 0.006970427 0.9999452 120 120 119 255 0.197903 0.304397
3.937769 4.850181 3.94974 -0.5701549 -0.5741138 -0.5876365 97 95 95 255 0.200041 0.278032
1.062229 4.298062 1.97891 0.791625 -0.4172322 0.446371 97 95 95 255 0.200041 0.278032
0.407021 4.872121 2.552966 -1.347535e-06 -0.9258209 0.3779627 120 120 119 255 0.197903 0.304397
3.86619 4.290151 1.970996 -0.7933305 -0.4233081 0.4375351 97 95 95 255 0.200041 0.278032
3 1 3 0 
3 4 6 7 
3 7 9 4 
3 10 12 13 
3 14 12 11 
3 16 13 17 
3 18 20 21 
3 19 23 20 
3 24 23 22 
3 26 25 24 
3 14 29 15 
3 12 30 31 
3 15 33 34 
3 13 32 35 
3 37 38 39 
3 42 43 40 
3 45 89 90 
3 91 47 48 
3 36 49 50 
3 51 52 53 
3 53 54 51 
3 44 55 47 
3 56 57 58 
3 92 58 93 
3 94 56 60 
3 61 63 64 
3 65 67 63 
3 68 70 67 
3 69 72 70 
3 92 73 59 
3 25 53 52 
3 27 75 54 
3 95 71 96 
3 97 76 98 
3 99 68 66 
3 65 99 66 
3 23 74 38 
3 100 76 101 
3 41 62 102 
3 20 37 39 
3 33 103 46 
3 34 33 46 
3 32 31 35 
3 77 104 57 
3 77 56 105 
3 58 78 93 
3 90 106 45 
3 89 107 49 
3 108 109 62 
3 57 104 78 
3 8 80 9 
3 26 82 27 
3 40 18 21 
3 110 102 84 
3 72 85 86 
3 87 61 64 
3 27 88 75 
3 111 112 71 
3 28 40 29 
3 113 84 55 
3 114 87 73 
3 79 2 80 
3 81 17 82 
3 86 94 60 
3 82 115 88 
3 116 50 112 
3 56 117 118 
3 59 117 58 
3 60 118 119 
3 64 5 120 
3 63 121 5 
3 70 121 67 
3 72 122 70 
3 87 120 123 
3 86 124 72 
3 87 125 73 
3 86 119 126 
3 73 127 59 
3 1 2 3 
3 4 128 6 
3 7 8 9 
3 10 11 12 
3 14 15 12 
3 16 10 13 
3 18 19 20 
3 19 22 23 
3 24 25 23 
3 26 27 25 
3 14 28 29 
3 32 13 31 
3 13 12 31 
3 30 12 34 
3 12 15 34 
3 115 17 35 
3 17 13 35 
3 33 15 103 
3 15 29 103 
3 40 21 129 
3 29 40 43 
3 43 103 29 
3 40 129 42 
3 48 90 91 
3 91 130 47 
3 36 131 49 
3 47 130 44 
3 44 113 55 
3 92 59 58 
3 94 105 56 
3 61 132 63 
3 63 132 65 
3 65 66 67 
3 67 66 68 
3 68 69 70 
3 69 133 72 
3 92 114 73 
3 74 23 52 
3 23 25 52 
3 53 25 54 
3 25 27 54 
3 96 134 95 
3 95 111 71 
3 76 100 98 
3 98 134 96 
3 96 97 98 
3 37 20 38 
3 20 23 38 
3 101 62 109 
3 109 100 101 
3 41 108 62 
3 129 21 39 
3 21 20 39 
3 77 57 56 
3 58 57 78 
3 90 48 106 
3 49 131 89 
3 89 45 107 
3 8 79 80 
3 26 81 82 
3 40 83 18 
3 110 41 102 
3 72 133 85 
3 87 135 61 
3 27 82 88 
3 111 116 112 
3 28 83 40 
3 113 110 84 
3 114 135 87 
3 79 3 2 
3 81 16 17 
3 86 85 94 
3 82 17 115 
3 116 36 50 
3 56 58 117 
3 59 127 117 
3 60 56 118 
3 64 63 5 
3 63 67 121 
3 70 122 121 
3 72 124 122 
3 87 64 120 
3 86 126 124 
3 87 123 125 
3 86 60 119 
3 73 125 127 
