ply
format ascii 1.0
comment VCGLIB generated
comment TextureFile Dungeons_Texture_01.png
element vertex 17
property float x
property float y
property float z
property float nx
property float ny
property float nz
property uchar red
property uchar green
property uchar blue
property uchar alpha
property float texture_u
property float texture_v
element face 30
property list uchar int vertex_indices
end_header
-0.006256 0.01974 0.121178 -0.103935 0.06087295 0.9927195 120 116 110 255 0.211594 0.300503
0.066284 0.010183 0.091728 0.4815393 0.07839847 0.872911 120 116 110 255 0.211594 0.300503
0.086273 0.037415 0.066904 0.7742698 0.5171824 0.3647311 120 116 110 255 0.211594 0.300503
-0.005096 0.084222 0.083429 -0.03849741 0.6496354 0.7592707 120 116 110 255 0.211594 0.300503
0.012878 -0.094345 0.077038 0.009515692 -0.7581781 0.6519781 120 116 110 255 0.211594 0.300503
-0.108246 -0.008386 0.050291 -0.9191785 -0.08031871 0.3855644 120 116 110 255 0.211594 0.300503
0.095184 -0.032447 0.062996 0.8037006 -0.344546 0.4851323 120 116 110 255 0.211594 0.300503
0.054047 -0.102453 -0.032145 0.4787576 -0.775282 -0.4119818 120 116 110 255 0.211594 0.300503
-0.080811 0.076904 0.037941 -0.6774674 0.6620812 0.3204473 120 116 110 255 0.211594 0.300503
-0.01178 0.117336 0.009311 -0.06844938 0.9966706 -0.04429944 120 116 110 255 0.211594 0.300503
-0.05481 -0.07613 -0.073149 -0.5121301 -0.7458705 -0.4259108 120 116 110 255 0.211594 0.300503
0.112244 -0.026755 -0.027549 0.9807905 -0.1325835 -0.1430793 120 116 110 255 0.211594 0.300503
0.042145 0.108221 -0.026433 0.3864409 0.8557586 -0.3440068 120 116 110 255 0.211594 0.300503
-0.083313 -0.000877 -0.082981 -0.8272116 -0.0323636 -0.5609578 120 116 110 255 0.211594 0.300503
-0.083527 0.06496 -0.043587 -0.7158808 0.5751902 -0.395817 120 116 110 255 0.211594 0.300503
0.079742 0.023599 -0.085571 0.7466201 0.1812249 -0.6400906 120 116 110 255 0.211594 0.300503
-0.022552 0.006081 -0.119991 -0.1182935 0.2379021 -0.9640588 120 116 110 255 0.211594 0.300503
3 1 3 0 
3 1 0 4 
3 4 0 5 
3 0 3 5 
3 1 4 6 
3 7 6 4 
3 1 6 2 
3 5 3 8 
3 3 9 8 
3 3 2 9 
3 10 4 5 
3 6 7 11 
3 2 6 11 
3 12 9 2 
3 5 13 10 
3 14 8 9 
3 8 14 5 
3 7 4 10 
3 2 15 12 
3 5 14 13 
3 7 15 11 
3 16 7 10 
3 11 15 2 
3 16 14 9 
3 16 15 7 
3 12 16 9 
3 10 13 16 
3 13 14 16 
3 16 12 15 
3 1 2 3 
