ply
format ascii 1.0
comment INFO-3111 Flatenator generated
comment TextureFile Dungeons_Texture_01.png
element vertex 179
property float x
property float y
property float z
property float nx
property float ny
property float nz
property uchar red
property uchar green
property uchar blue
property uchar alpha
property float texture_u
property float texture_v
element face 190
property list uchar int vertex_indices
end_header
3.5731 2.18068 0.134333 0.000612972 0.0220741 0.999756 95 92 87 255 0.222569 0.296953 
2.7835 1.46989 0.150511 0.000612972 0.0220741 0.999756 95 92 87 255 0.222569 0.296953 
3.47547 1.45068 0.150511 0.000612972 0.0220741 0.999756 95 92 87 255 0.222569 0.296953 
3.55919 4.87153 2.55447 -0.00148028 -0.92291 0.385013 95 92 87 255 0.222569 0.296953 
3.55446 4.84948 3.65317 0.374777 -0.905315 0.199869 97 95 95 255 0.200041 0.278032 
1.43944 4.84948 3.69227 -0.000185444 -0.999806 -0.0197195 95 92 87 255 0.222569 0.296953 
1.41222 4.87153 2.55447 0.0434107 -0.851708 0.522215 95 92 87 255 0.222569 0.296953 
1.47763 4.21976 1.96178 0.119943 -0.661305 0.740466 95 92 87 255 0.222569 0.296953 
1.76153 4.01203 1.73028 0.0259358 -0.687425 0.725792 95 92 87 255 0.222569 0.296953 
3.53454 4.25012 1.96744 0.598485 -0.554803 0.577936 97 95 95 255 0.200041 0.278032 
3e-06 0 -4e-06 0 0 1 97 95 95 255 0.200041 0.278032 
5 0 -4e-06 0 0 1 97 95 95 255 0.200041 0.278032 
4.8173 0.132463 -4e-06 0.162174 -0.112218 0.980361 97 95 95 255 0.200041 0.278032 
0.21318 0.161493 -4e-06 -0.172354 -0.180872 0.968287 97 95 95 255 0.200041 0.278032 
5 2.5 -4e-06 -9.94064e-07 -0.382684 0.923879 97 95 95 255 0.200041 0.278032 
4.78682 2.5 -4e-06 0.67014 -0.28036 0.687249 97 95 95 255 0.200041 0.278032 
3e-06 2.5 -4e-06 0 -0.252726 0.967538 97 95 95 255 0.200041 0.278032 
0.138427 2.5 -4e-06 -0.34225 -0.381477 0.858685 97 95 95 255 0.200041 0.278032 
5 5 2.5 1.91751e-06 -0.923879 0.382684 97 95 95 255 0.200041 0.278032 
5 5 5 1.21442e-07 -1 -1.27157e-07 97 95 95 255 0.200041 0.278032 
4.78682 5 4.7964 0.188487 -0.965273 0.180887 97 95 95 255 0.200041 0.278032 
4.78682 5 2.5 0.60044 -0.742159 0.297779 97 95 95 255 0.200041 0.278032 
3e-06 5 5 -1.67883e-07 -1 -1.90735e-07 97 95 95 255 0.200041 0.278032 
0.277097 5 4.7561 -0.25486 -0.947975 0.190763 97 95 95 255 0.200041 0.278032 
3e-06 5 2.5 -1.20005e-07 -0.967538 0.252725 97 95 95 255 0.200041 0.278032 
0.213181 5 2.5 -0.598865 -0.713874 0.362966 97 95 95 255 0.200041 0.278032 
3e-06 4.37034 1.87034 2.28702e-06 -0.707107 0.707107 97 95 95 255 0.200041 0.278032 
0.24879 4.36988 1.86988 -0.49303 -0.624255 0.605992 97 95 95 255 0.200041 0.278032 
5 3.57636 1.07636 -3.0368e-07 -0.707108 0.707106 97 95 95 255 0.200041 0.278032 
4.78682 3.56515 1.06515 0.385733 -0.64889 0.65586 97 95 95 255 0.200041 0.278032 
4.46931 0.564119 0.149815 0.18579 -0.185147 0.964989 97 95 95 255 0.200041 0.278032 
0.72002 0.429083 0.149815 0.0771114 -0.520596 0.850314 97 95 95 255 0.200041 0.278032 
0.234336 0.180809 0.040741 -0.360328 -0.371795 0.85553 97 95 95 255 0.200041 0.278032 
4.76087 2.48233 0.042664 0.667116 -0.301641 0.681153 97 95 95 255 0.200041 0.278032 
4.70903 2.15502 0.130768 0.664446 0.0338434 0.746569 97 95 95 255 0.200041 0.278032 
4.74645 4.92224 4.74811 0.36802 -0.873138 0.319674 97 95 95 255 0.200041 0.278032 
4.31504 4.85018 4.54189 -0.0617911 -0.790057 0.609912 97 95 95 255 0.200041 0.278032 
4.53173 4.85275 4.29032 0.678173 -0.732488 -0.0595216 97 95 95 255 0.200041 0.278032 
2.08113 0.931736 0.149815 0 0 1 120 120 119 255 0.197903 0.304397 
4.59582 2.52593 0.127876 0.336118 -0.396901 0.854104 97 95 95 255 0.200041 0.278032 
3.93777 2.44703 0.127876 0.0277399 -0.417982 0.908032 120 120 119 255 0.197903 0.304397 
3.93777 1.0768 0.149815 0.00413129 0.00882067 0.999953 120 120 119 255 0.197903 0.304397 
0.290969 2.30239 0.129309 -0.00562481 0.0131021 0.999898 120 120 119 255 0.197903 0.304397 
1.0698 2.33153 0.129766 -0.00671509 0.586654 0.80981 97 95 95 255 0.199511 0.279839 
1.22331 2.50461 -0.01384 0.0341457 -0.601253 0.798329 97 95 95 255 0.199511 0.279839 
0.407023 4.87212 2.55297 -0.40956 -0.852229 0.325523 97 95 95 255 0.200041 0.278032 
0.290969 4.87031 2.73077 -0.775282 -0.629708 -0.0490438 97 95 95 255 0.200041 0.278032 
0.251788 4.93653 2.52629 -0.692859 -0.671396 0.263009 97 95 95 255 0.200041 0.278032 
0.290969 4.71378 2.39462 -0.695283 -0.506041 0.510396 97 95 95 255 0.200041 0.278032 
4.70903 2.74007 0.420914 0.0329796 -0.748789 0.661987 120 120 119 255 0.197903 0.304397 
4.57086 3.5113 1.19214 0.512299 -0.595798 0.618527 97 95 95 255 0.200041 0.278032 
3.93777 3.48295 1.1638 -2.34599e-07 -0.707107 0.707107 120 120 119 255 0.197903 0.304397 
2.50046 1.19889 -0.016209 -0.0129507 -0.111654 0.993663 97 95 95 255 0.200041 0.278032 
2.26411 1.12354 0.060394 0.0171489 0.661625 0.749639 97 95 95 255 0.200041 0.278032 
3.8476 1.16358 -0.016209 -0.148733 0.334488 0.930589 97 95 95 255 0.200041 0.278032 
3.8476 2.50461 -0.01384 -0.168209 -0.329892 0.928912 97 95 95 255 0.200041 0.278032 
3.93777 4.87212 2.55297 -0.778759 -0.609236 0.149553 97 95 95 255 0.200041 0.278032 
3.93777 4.85018 3.94974 0.00423218 -0.999963 -0.00754077 120 120 119 255 0.197903 0.304397 
3.8476 5.0162 3.87503 -0.225316 -0.96918 -0.0996122 97 95 95 255 0.200041 0.278032 
3.78763 5.01383 2.49537 -0.0601135 -0.931194 0.359534 97 95 95 255 0.200041 0.278032 
1.21761 4.85018 3.98651 0.0278895 -0.529979 -0.847552 97 95 95 255 0.200041 0.278032 
1.12845 4.9721 3.89488 0.4784 -0.756997 -0.445072 97 95 95 255 0.200041 0.278032 
1.1524 5.0162 3.87503 0.355915 -0.901133 -0.247556 97 95 95 255 0.200041 0.278032 
1.06223 4.85247 3.5661 0.77924 -0.624761 0.0495833 97 95 95 255 0.200041 0.278032 
1.06223 4.87212 2.55297 0.718511 -0.601915 0.348483 97 95 95 255 0.200041 0.278032 
1.17761 5.01383 2.49537 0.0727718 -0.93669 0.342514 97 95 95 255 0.200041 0.278032 
1.00658 4.07144 1.69555 0.0370365 -0.707716 0.705525 120 120 119 255 0.197903 0.304397 
1.17178 4.13215 1.61461 0.147136 -0.702657 0.69615 97 95 95 255 0.200041 0.278032 
3.82308 3.53079 1.01234 -0.223023 -0.677311 0.701079 97 95 95 255 0.200041 0.278032 
0.354884 4.85018 4.61943 -0.530181 -0.704997 0.471049 97 95 95 255 0.200041 0.278032 
0.434808 4.29934 1.98019 -0.562071 -0.611687 0.5567 97 95 95 255 0.200041 0.278032 
0.895175 4.85018 4.01919 -0.00801073 -0.999946 -0.00665622 120 120 119 255 0.197903 0.304397 
4.70903 4.87212 2.55297 0.00274539 -0.926325 0.376716 120 120 119 255 0.197903 0.304397 
0.482051 0.640756 0.147717 -0.607821 0.048253 0.792607 97 95 95 255 0.200041 0.278032 
1.6923 1.0768 0.149815 0.0685389 0.650275 0.756601 97 95 95 255 0.200041 0.278032 
1.15012 1.1063 0.149815 0.48869 0.495021 0.718427 97 95 95 255 0.200041 0.278032 
1.26766 1.2312 -0.016209 0.190645 0.328956 0.924901 97 95 95 255 0.200041 0.278032 
2.85667 1.0768 0.149815 -0.0318174 0.783606 0.620444 97 95 95 255 0.200041 0.278032 
1.49306 3.68995 1.43218 0.00861785 -0.706313 0.707847 95 92 87 255 0.222569 0.296953 
1.48216 3.25322 0.970544 -0.0100757 -0.713014 0.701077 95 92 87 255 0.222569 0.296953 
3.58834 3.41291 1.13023 0.040058 -0.705102 0.707974 95 92 87 255 0.222569 0.296953 
3e-06 3.31352 0.813523 2.97902e-06 -0.707108 0.707106 97 95 95 255 0.200041 0.278032 
0.163009 3.32209 0.822091 -0.374232 -0.648643 0.662732 97 95 95 255 0.200041 0.278032 
4.78682 4.359 1.859 0.270748 -0.680697 0.680696 97 95 95 255 0.200041 0.278032 
5 4.35849 1.85849 6.64702e-06 -0.707107 0.707107 97 95 95 255 0.200041 0.278032 
3.75766 4.36801 1.84955 -0.0126822 -0.714172 0.699856 97 95 95 255 0.198292 0.279229 
4.70903 4.40933 2.09018 0.854353 -0.36748 0.367477 97 95 95 255 0.200041 0.278032 
4.04965 4.39525 2.07609 0.00315155 -0.984546 0.175096 97 95 95 255 0.198292 0.279229 
1.13498 3.3074 0.988244 0.675846 -0.492726 0.548136 97 95 95 255 0.200041 0.278032 
1.26263 3.37111 0.852655 -0.0237565 -0.7126 0.701169 97 95 95 255 0.200041 0.278032 
0.290969 3.27905 0.959897 -0.667812 -0.5025 0.549109 97 95 95 255 0.200041 0.278032 
4.04555 4.13607 1.81692 -0.0110931 -0.149736 0.988664 97 95 95 255 0.198292 0.279229 
4.63095 4.14427 1.82511 0.570637 -0.592537 0.568572 97 95 95 255 0.200041 0.278032 
1.44981 2.44549 0.128465 -0.0104938 -0.242664 0.970054 95 92 87 255 0.222569 0.296953 
3.30554 2.3662 0.128465 0.0406979 -0.55916 0.82806 95 92 87 255 0.222569 0.296953 
3.60417 2.6541 0.344482 0.441721 -0.694336 0.568137 97 95 95 255 0.200041 0.278032 
1.084 2.70452 0.385367 0.0520014 -0.885561 0.461604 97 95 95 255 0.199511 0.279839 
0.290969 2.60725 0.288093 0.0302648 -0.914167 0.404208 97 95 95 255 0.199511 0.279839 
1.54387 1.50432 0.150511 -0.285277 -0.287656 0.91426 97 95 95 255 0.200041 0.278032 
2.40525 1.4804 0.150511 0.000835427 0.0236642 0.99972 95 92 87 255 0.222569 0.296953 
2.60908 1.47474 -0.005185 -0.0424526 -0.0232006 0.998829 97 95 95 255 0.200041 0.278032 
3.60851 2.44549 -0.027232 0.0156835 0.00656119 0.999856 97 95 95 255 0.200121 0.27862 
0.72002 0.429083 0.149815 -0.00140839 0.000894469 0.999999 120 120 119 255 0.197903 0.304397 
4.46931 0.564119 0.149815 0.00252038 0.00261308 0.999993 120 120 119 255 0.197903 0.304397 
4.70903 2.15502 0.130768 0.00383063 0.0113278 0.999928 120 120 119 255 0.197903 0.304397 
0.138427 2.5 -4e-06 -0.00253887 0.117686 0.993048 97 95 95 255 0.199511 0.279839 
3.93777 2.44703 0.127876 -0.855685 -0.213839 0.47125 97 95 95 255 0.200041 0.278032 
3.93777 1.0768 0.149815 -0.559336 0.570102 0.60177 97 95 95 255 0.200041 0.278032 
0.434808 4.29934 1.98019 0.03763 -0.716663 0.696404 120 120 119 255 0.197903 0.304397 
1.06223 4.87212 2.55297 0.00968502 -0.895079 0.445803 120 120 119 255 0.197903 0.304397 
1.06223 4.85247 3.5661 -0.00737249 -0.999867 -0.0145467 120 120 119 255 0.197903 0.304397 
0.290969 4.87031 2.73077 -0.00653832 -0.999902 -0.0123926 120 120 119 255 0.197903 0.304397 
0.895175 4.85018 4.01919 0.27873 -0.893173 -0.352919 97 95 95 255 0.200041 0.278032 
0.354884 4.85018 4.61943 -0.00380236 -0.999987 -0.00342415 120 120 119 255 0.197903 0.304397 
1.21761 4.85018 3.98651 -7.63637e-08 -1 -1.63106e-06 120 120 119 255 0.197903 0.304397 
3.93777 4.87212 2.55297 0 -0.926856 0.375416 120 120 119 255 0.197903 0.304397 
4.70903 2.74007 0.420914 0.625774 -0.57246 0.529809 97 95 95 255 0.200041 0.278032 
2.08113 0.931736 0.149815 0.0143916 0.411186 0.911438 97 95 95 255 0.200041 0.278032 
2.85667 1.0768 0.149815 0 0 1 120 120 119 255 0.197903 0.304397 
1.6923 1.0768 0.149815 0 0 1 120 120 119 255 0.197903 0.304397 
1.15012 1.1063 0.149815 -0.00422087 0.00744564 0.999963 120 120 119 255 0.197903 0.304397 
4.53173 4.85275 4.29032 0.00846418 -0.999938 -0.00722795 120 120 119 255 0.197903 0.304397 
4.31504 4.85018 4.54189 0.00226925 -0.999996 -0.00144738 120 120 119 255 0.197903 0.304397 
4.78682 4.359 1.859 -0.00489131 -0.697704 0.716369 97 95 95 255 0.198292 0.279229 
0.290969 3.27905 0.959897 0.0160162 -0.701379 0.712609 120 120 119 255 0.197903 0.304397 
1.13498 3.3074 0.988244 -0.000912535 -0.69343 0.720524 120 120 119 255 0.197903 0.304397 
3.47547 1.45068 0.150511 0.125888 -0.37003 0.920451 97 95 95 255 0.200041 0.278032 
2.7835 1.46989 0.150511 -0.378299 -0.165237 0.910816 97 95 95 255 0.200041 0.278032 
3.5731 2.18068 0.134333 0.248742 0.179769 0.951741 97 95 95 255 0.200041 0.278032 
1.22331 2.50461 -0.01384 -0.0610456 -0.306952 0.949765 97 95 95 255 0.200041 0.278032 
1.44981 2.44549 0.128465 -0.583505 -0.410935 0.700467 97 95 95 255 0.200041 0.278032 
3.55919 4.87153 2.55447 0.580519 -0.709179 0.400077 97 95 95 255 0.200041 0.278032 
1.43944 4.84948 3.69227 -0.278299 -0.896622 0.344412 97 95 95 255 0.200041 0.278032 
1.47763 4.21976 1.96178 -0.439972 -0.699507 0.563129 97 95 95 255 0.200041 0.278032 
1.41222 4.87153 2.55447 -0.548967 -0.772651 0.318819 97 95 95 255 0.200041 0.278032 
3.75766 4.36801 1.84955 0.269441 -0.675986 0.685889 97 95 95 255 0.200041 0.278032 
1.49306 3.68995 1.43218 -0.480184 -0.585436 0.653214 97 95 95 255 0.200041 0.278032 
3.58834 3.41291 1.13023 0.585505 -0.560516 0.585667 97 95 95 255 0.200041 0.278032 
1.48216 3.25322 0.970544 -0.6048 -0.567178 0.559039 97 95 95 255 0.200041 0.278032 
4.04555 4.13607 1.81692 -0.641598 -0.517168 0.566471 97 95 95 255 0.200041 0.278032 
4.57086 3.5113 1.19214 1.0529e-07 -0.707107 0.707107 120 120 119 255 0.197903 0.304397 
4.04555 4.13607 1.81692 1.15118e-07 -0.707107 0.707106 120 120 119 255 0.197903 0.304397 
4.70903 4.87212 2.55297 0.870928 -0.435334 0.227966 97 95 95 255 0.200041 0.278032 
4.04965 4.39525 2.07609 -1.16644e-06 -0.707107 0.707107 120 120 119 255 0.197903 0.304397 
4.04965 4.39525 2.07609 -0.582017 -0.610563 0.537092 97 95 95 255 0.200041 0.278032 
1.084 2.70452 0.385367 0.705637 -0.523692 0.477308 97 95 95 255 0.200041 0.278032 
1.084 2.70452 0.385367 -1.81502e-06 -0.707107 0.707107 120 120 119 255 0.197903 0.304397 
0.290969 2.60725 0.288093 -0.682452 -0.511907 0.521738 97 95 95 255 0.200041 0.278032 
1.0698 2.33153 0.129766 -0.00119592 0.0162829 0.999867 120 120 119 255 0.197903 0.304397 
1.0698 2.33153 0.129766 0.734069 0.0420843 0.677769 97 95 95 255 0.200041 0.278032 
1.54387 1.50432 0.150511 0.000652104 0.0234828 0.999724 95 92 87 255 0.222569 0.296953 
2.40525 1.4804 0.150511 0.300142 -0.40889 0.861814 97 95 95 255 0.200041 0.278032 
3.30554 2.3662 0.128465 0.505478 -0.500298 0.70299 97 95 95 255 0.200121 0.27862 
2.60908 1.47474 -0.005185 0.00447742 0.0367321 0.999315 97 95 95 255 0.200121 0.27862 
3.60417 2.6541 0.344482 0.433663 -0.78361 0.444851 97 95 95 255 0.199681 0.278126 
3.30554 2.3662 0.128465 0.433663 -0.78361 0.444851 97 95 95 255 0.199681 0.278126 
3.60851 2.44549 -0.027232 0.433663 -0.78361 0.444851 97 95 95 255 0.199681 0.278126 
3.60851 2.44549 -0.027232 0.00534027 -0.241393 0.970413 97 95 95 255 0.200041 0.278032 
3.5731 2.18068 0.134333 -0.500838 0.552204 0.666507 97 95 95 255 0.200121 0.27862 
1.76153 4.01203 1.73028 -0.271968 -0.712515 0.646805 97 95 95 255 0.200041 0.278032 
3.55446 4.84948 3.65317 -0.000370887 -0.999799 -0.0200649 95 92 87 255 0.222569 0.296953 
3.53454 4.25012 1.96744 -0.00234137 -0.69692 0.717146 95 92 87 255 0.222569 0.296953 
4.59582 2.52593 0.127876 0.0553048 -0.461283 0.885528 120 120 119 255 0.197903 0.304397 
0.290969 2.30239 0.129309 -0.0205602 0.536285 0.843787 97 95 95 255 0.199511 0.279839 
3.93777 4.85018 3.94974 -0.570151 -0.574119 -0.587636 97 95 95 255 0.200041 0.278032 
1.00658 4.07144 1.69555 0.519706 -0.588523 0.619311 97 95 95 255 0.200041 0.278032 
3.93777 3.48295 1.1638 -0.786455 -0.402651 0.46836 97 95 95 255 0.200041 0.278032 
0.407023 4.87212 2.55297 -1.34754e-06 -0.925821 0.377963 120 120 119 255 0.197903 0.304397 
0.290969 4.71378 2.39462 -1.30699e-06 -0.707107 0.707107 120 120 119 255 0.197903 0.304397 
0.482051 0.640756 0.147717 -0.0078436 0.0067495 0.999946 120 120 119 255 0.197903 0.304397 
4.70903 4.40933 2.09018 0.016189 -0.975834 0.217912 97 95 95 255 0.198292 0.279229 
4.63095 4.14427 1.82511 -0.0117783 -0.147519 0.988989 97 95 95 255 0.198292 0.279229 
3.60417 2.6541 0.344482 0.184519 -0.705119 0.684661 95 92 87 255 0.222569 0.296953 
4.63095 4.14427 1.82511 5.6948e-08 -0.707107 0.707106 120 120 119 255 0.197903 0.304397 
4.70903 4.40933 2.09018 -2.33287e-06 -0.707106 0.707107 120 120 119 255 0.197903 0.304397 
0.290969 2.60725 0.288093 -1.06798e-06 -0.707106 0.707107 120 120 119 255 0.197903 0.304397 
0.290969 2.30239 0.129309 -0.697822 -0.0723527 0.712608 97 95 95 255 0.200041 0.278032 
2.40525 1.4804 0.150511 0.514698 -0.505886 0.692218 97 95 95 255 0.200121 0.27862 
2.7835 1.46989 0.150511 -0.524967 0.596984 0.606646 97 95 95 255 0.200121 0.27862 
3 0 1 2
3 3 5 6
3 6 7 8
3 10 12 13
3 14 12 11
3 16 13 17
3 18 20 21
3 19 23 20
3 24 23 22
3 26 25 24
3 14 29 15
3 12 30 31
3 15 33 34
3 35 36 37
3 38 102 103
3 104 40 41
3 105 43 44
3 45 46 47
3 47 48 45
3 49 51 40
3 52 53 54
3 106 54 107
3 56 58 59
3 60 62 58
3 63 65 62
3 64 67 65
3 106 68 55
3 25 47 46
3 27 70 48
3 108 66 109
3 110 71 111
3 112 63 61
3 60 112 61
3 23 69 36
3 113 71 114
3 72 57 115
3 20 35 37
3 33 116 39
3 34 33 39
3 32 31 73
3 74 117 53
3 74 76 75
3 54 77 107
3 103 118 38
3 102 119 120
3 121 122 57
3 53 117 77
3 78 79 80
3 26 82 27
3 83 18 21
3 123 87 85
3 67 88 89
3 27 90 70
3 66 124 125
3 28 83 29
3 91 123 85
3 79 93 94
3 81 17 82
3 97 44 96
3 52 126 127
3 54 128 126
3 129 98 130
3 59 4 131
3 58 132 4
3 65 132 62
3 65 133 134
3 135 131 9
3 89 136 67
3 135 137 68
3 89 130 138
3 68 95 55
3 29 50 116
3 68 139 135
3 140 141 51
3 29 92 50
3 86 21 142
3 143 72 115
3 144 59 135
3 89 145 129
3 124 146 125
3 82 147 90
3 13 32 73
3 42 120 148
3 149 76 129
3 99 93 150
3 52 98 76
3 76 53 52
3 151 52 100
3 152 153 101
3 154 155 156
3 55 95 157
3 128 55 157
3 153 158 101
3 100 52 127
3 133 67 159
3 67 136 159
3 3 160 5
3 161 3 8
3 3 6 8
3 10 11 12
3 14 15 12
3 16 10 13
3 18 19 20
3 19 22 23
3 24 25 23
3 26 27 25
3 14 28 29
3 32 13 31
3 13 12 31
3 30 12 34
3 12 15 34
3 41 103 104
3 104 162 40
3 105 163 43
3 40 162 49
3 49 140 51
3 106 55 54
3 56 164 58
3 58 164 60
3 60 61 62
3 62 61 63
3 63 64 65
3 64 165 67
3 106 166 68
3 69 23 46
3 23 25 46
3 47 25 48
3 25 27 48
3 109 167 168
3 168 108 109
3 71 113 111
3 111 167 109
3 109 110 111
3 35 20 36
3 20 23 36
3 114 57 122
3 122 113 114
3 72 121 57
3 142 21 37
3 21 20 37
3 74 53 76
3 54 53 77
3 103 41 118
3 120 169 102
3 102 38 119
3 80 161 8
3 8 78 80
3 26 81 82
3 83 84 18
3 123 170 87
3 67 165 88
3 27 82 90
3 66 108 124
3 28 84 83
3 91 171 123
3 172 80 94
3 80 79 94
3 81 16 17
3 97 105 44
3 52 54 126
3 54 55 128
3 129 76 98
3 59 58 4
3 58 62 132
3 65 134 132
3 65 67 133
3 135 59 131
3 89 138 136
3 135 9 137
3 89 129 130
3 68 137 95
3 33 15 116
3 15 29 116
3 68 166 139
3 140 173 141
3 29 83 92
3 86 83 21
3 143 174 72
3 144 56 59
3 89 88 145
3 124 175 146
3 82 17 147
3 176 17 73
3 17 13 73
3 42 169 120
3 149 75 76
3 99 94 93
3 52 151 98
3 152 177 153
3 153 178 158
