ply
format ascii 1.0
comment INFO-3111 Flatenator generated
comment TextureFile Dungeons_Texture_01.png
element vertex 17
property float x
property float y
property float z
property float nx
property float ny
property float nz
property uchar red
property uchar green
property uchar blue
property uchar alpha
property float texture_u
property float texture_v
element face 30
property list uchar int vertex_indices
end_header
-0.006256 0.01974 0.121178 -0.103935 0.0608729 0.992719 120 116 110 255 0.211594 0.300503 
0.066284 0.010183 0.091728 0.481539 0.0783985 0.872911 120 116 110 255 0.211594 0.300503 
0.086273 0.037415 0.066904 0.77427 0.517182 0.364731 120 116 110 255 0.211594 0.300503 
-0.005096 0.084222 0.083429 -0.0384974 0.649635 0.759271 120 116 110 255 0.211594 0.300503 
0.012878 -0.094345 0.077038 0.00951569 -0.758178 0.651978 120 116 110 255 0.211594 0.300503 
-0.108246 -0.008386 0.050291 -0.919178 -0.0803187 0.385564 120 116 110 255 0.211594 0.300503 
0.095184 -0.032447 0.062996 0.803701 -0.344546 0.485132 120 116 110 255 0.211594 0.300503 
0.054047 -0.102453 -0.032145 0.478758 -0.775282 -0.411982 120 116 110 255 0.211594 0.300503 
-0.080811 0.076904 0.037941 -0.677467 0.662081 0.320447 120 116 110 255 0.211594 0.300503 
-0.01178 0.117336 0.009311 -0.0684494 0.996671 -0.0442994 120 116 110 255 0.211594 0.300503 
-0.05481 -0.07613 -0.073149 -0.51213 -0.74587 -0.425911 120 116 110 255 0.211594 0.300503 
0.112244 -0.026755 -0.027549 0.98079 -0.132583 -0.143079 120 116 110 255 0.211594 0.300503 
0.042145 0.108221 -0.026433 0.386441 0.855759 -0.344007 120 116 110 255 0.211594 0.300503 
-0.083313 -0.000877 -0.082981 -0.827212 -0.0323636 -0.560958 120 116 110 255 0.211594 0.300503 
-0.083527 0.06496 -0.043587 -0.715881 0.57519 -0.395817 120 116 110 255 0.211594 0.300503 
0.079742 0.023599 -0.085571 0.74662 0.181225 -0.640091 120 116 110 255 0.211594 0.300503 
-0.022552 0.006081 -0.119991 -0.118294 0.237902 -0.964059 120 116 110 255 0.211594 0.300503 
3 1 3 0
3 1 0 4
3 4 0 5
3 0 3 5
3 1 4 6
3 7 6 4
3 1 6 2
3 5 3 8
3 3 9 8
3 3 2 9
3 10 4 5
3 6 7 11
3 2 6 11
3 12 9 2
3 5 13 10
3 14 8 9
3 8 14 5
3 7 4 10
3 2 15 12
3 5 14 13
3 7 15 11
3 16 7 10
3 11 15 2
3 16 14 9
3 16 15 7
3 12 16 9
3 10 13 16
3 13 14 16
3 16 12 15
3 1 2 3
