ply
format ascii 1.0
comment INFO-3111 Flatenator generated
comment TextureFile Dungeons_Texture_01.png
element vertex 399
property float x
property float y
property float z
property float nx
property float ny
property float nz
property uchar red
property uchar green
property uchar blue
property uchar alpha
property float texture_u
property float texture_v
element face 452
property list uchar int vertex_indices
end_header
-0.655739 -0.290294 0.271397 -0.779385 -0.511341 0.362061 120 120 119 255 0.200638 0.303862 
-0.395095 -0.285923 0.299631 -0.00650845 -0.949309 0.314276 120 120 119 255 0.200638 0.303862 
-0.285581 -0.26117 0.200088 0.084748 -0.991015 0.103472 97 95 95 255 0.200638 0.281232 
0.59435 -0.290463 0.237326 0.288694 -0.944467 0.156962 120 120 119 255 0.200638 0.303862 
0.05682 -0.244479 0.336536 -0.0645503 -0.961603 0.266746 97 95 95 255 0.200638 0.281232 
0.365825 -0.286329 0.26506 -0.00108025 -0.952321 0.305097 120 120 119 255 0.200638 0.303862 
0.120584 -0.290668 0.237548 -0.109208 -0.925884 0.361681 97 95 95 255 0.200638 0.281232 
0.627353 -0.256738 0.062416 0.367023 -0.376798 -0.85048 97 95 95 255 0.200638 0.281232 
-0.451132 -0.290697 0.018175 -0.00234668 -0.999997 -0.000304597 120 120 119 255 0.200638 0.303862 
-0.24859 -0.290189 0.017452 -0.0604386 -0.948216 -0.311824 97 95 95 255 0.200638 0.281232 
0.595423 -0.272346 0.048799 0.376699 -0.513969 -0.77067 97 95 95 255 0.200638 0.281232 
0.14365 -0.284603 0.000111 0.0139816 -0.998988 -0.0427565 120 120 119 255 0.200638 0.303862 
-0.650086 -0.286464 0.000111 -0.715307 -0.698371 -0.024765 120 120 119 255 0.200638 0.303862 
-0.285635 -0.2478 0.000111 0.00420815 -0.234605 -0.972082 97 95 95 255 0.200638 0.281232 
0.451035 -0.276849 0.012672 0.147082 -0.369967 -0.917328 97 95 95 255 0.200638 0.281232 
-0.173806 -0.222541 0.42224 -0.00295702 -0.926378 0.376582 120 120 119 255 0.200638 0.303862 
0.335424 -0.191558 0.003946 0.11367 0.0290982 -0.993092 97 95 95 255 0.200638 0.281232 
-0.059276 -0.243667 5.01127 0.321142 -0.492506 0.808892 97 95 95 255 0.200638 0.281232 
0.590262 -0.21773 4.97775 0.751652 -0.566517 0.337753 97 95 95 255 0.200638 0.281232 
0.447395 -0.245394 5.06334 0.158418 -0.777816 0.608199 97 95 95 255 0.200638 0.281232 
0.523699 -0.248442 4.95449 0.366255 -0.930058 0.0291417 97 95 95 255 0.200638 0.281232 
0.569994 -0.19711 4.60468 0.561549 -0.794091 -0.232555 97 95 95 255 0.200638 0.281232 
-0.594093 -0.248035 4.56 -0.190213 -0.981735 -0.0040497 120 120 119 255 0.200638 0.303862 
0.422702 -0.239473 4.54043 0.00796394 -0.99969 -0.0235968 120 120 119 255 0.200638 0.303862 
-0.310385 -0.238893 1.25488 -0.204025 -0.963822 0.171525 97 95 95 255 0.200638 0.281232 
-4.8e-05 -0.227318 1.28123 0.00063697 -0.99967 0.0256908 97 95 95 255 0.200638 0.281232 
0.17942 -0.234935 1.25399 0.00695737 -0.999671 0.0246809 97 95 95 255 0.200638 0.281232 
0.492215 -0.218575 1.27962 0.451375 -0.858552 0.243205 97 95 95 255 0.200638 0.281232 
0.145233 -0.238893 1.10332 0.0394302 -0.938531 -0.342934 97 95 95 255 0.200638 0.281232 
-0.398046 -0.238893 1.10221 -0.0579307 -0.918051 -0.392208 97 95 95 255 0.200638 0.281232 
0.634053 -0.207035 0.321363 0.879273 -0.334281 0.339318 120 120 119 255 0.200638 0.303862 
-0.110292 -0.246041 5.06259 0.0324659 -0.788802 0.61379 120 120 119 255 0.200638 0.303862 
-0.532648 -0.204867 1.0937 -0.485359 -0.571859 -0.661366 97 95 95 255 0.200638 0.281232 
-0.55567 -0.209135 5.10748 -0.642392 -0.341534 0.686066 97 95 95 255 0.200638 0.281232 
0.532162 -0.186552 5.10958 0.570149 -0.400573 0.717267 97 95 95 255 0.200638 0.281232 
-0.598228 -0.250713 5.03891 -0.965959 -0.258354 -0.0133046 120 120 119 255 0.200638 0.303862 
0.580074 -0.113109 1.25711 0.932992 -0.29399 0.207598 97 95 95 255 0.200638 0.281232 
-0.063266 -0.180486 1.06997 -0.00792701 -0.476855 -0.878946 97 95 95 255 0.200638 0.281232 
0.554844 -0.196805 1.12688 0.555886 -0.804603 -0.208816 97 95 95 255 0.200638 0.281232 
0.557544 -0.223793 0.418628 0.258314 -0.867043 0.426041 120 120 119 255 0.200638 0.303862 
0.494327 -0.16755 4.41454 0.632286 -0.573531 -0.520842 97 95 95 255 0.200638 0.281232 
-0.495064 -0.169248 4.41276 -0.530752 -0.514794 -0.673268 97 95 95 255 0.200638 0.281232 
-0.450047 -0.148624 1.37638 -0.00788059 -0.805505 0.592537 120 120 119 255 0.200638 0.303862 
-0.580769 -0.151468 1.25572 -0.824207 -0.502547 0.261016 97 95 95 255 0.200638 0.281232 
0.495803 -0.18079 1.07447 0.256051 -0.539338 -0.802217 97 95 95 255 0.200638 0.281232 
-0.493883 -0.180423 0.873049 -0.0055772 -0.999914 0.0118762 120 120 119 255 0.200638 0.303862 
-0.153591 -0.169276 0.843091 -0.00131512 -0.999713 -0.0239265 120 120 119 255 0.200638 0.303862 
0.093572 -0.180423 0.75244 -0.0171336 -0.999072 0.0395218 120 120 119 255 0.200638 0.303862 
-0.461209 -0.161493 0.715869 -0.769326 -0.636621 -0.0533894 97 95 95 255 0.200638 0.281232 
-0.501111 -0.185091 0.493716 -0.167722 -0.905587 0.389592 120 120 119 255 0.200638 0.303862 
0.493594 -0.180423 0.528398 0.591294 -0.689391 0.418463 120 120 119 255 0.200638 0.303862 
-0.479958 -0.16989 4.14342 -0.908429 -0.416831 -0.0317536 120 120 119 255 0.200638 0.303862 
0.091266 -0.173991 4.21546 0.00605081 -0.99978 0.0200954 120 120 119 255 0.200638 0.303862 
-0.334588 -0.173991 4.21546 -0.00897349 -0.99977 0.0195051 120 120 119 255 0.200638 0.303862 
0.22237 -0.157123 4.15821 -0.0815931 -0.705771 -0.703726 97 95 95 255 0.200638 0.281232 
0.575845 -0.151095 1.10365 0.757675 -0.236502 -0.608273 97 95 95 255 0.200638 0.281232 
0.506329 -0.163014 5.12524 0.57715 -0.125567 0.806927 97 95 95 255 0.200638 0.281232 
-0.479323 0.098135 4.22051 -0.999506 -0.0108279 -0.0295042 120 120 119 255 0.200638 0.303862 
-0.393082 -0.130076 4.13731 0.105999 -0.621088 -0.77654 97 95 95 255 0.200638 0.281232 
-0.594738 -0.147847 4.56239 -0.995477 0.0941087 0.0130243 120 120 119 255 0.200638 0.303862 
0.479864 -0.169853 4.14354 0.892656 -0.449167 -0.0376109 120 120 119 255 0.200638 0.303862 
0.142819 -0.104338 4.11669 -0.0384987 -0.774336 -0.631603 97 95 95 255 0.200638 0.281232 
0.386191 -0.105521 4.11825 0.290167 -0.246562 -0.924668 97 95 95 255 0.200638 0.281232 
0.385162 -0.104746 1.43841 0.574862 -0.66378 0.478466 120 120 119 255 0.200638 0.303862 
-0.496004 -0.095097 0.842758 -0.992767 -0.114643 -0.0356361 97 95 95 255 0.200638 0.281232 
-0.084274 -0.071022 5.12748 -0.0150525 -0.117916 0.992909 120 120 119 255 0.200638 0.303862 
0.598776 0.059069 5.00838 0.997946 -0.00920319 -0.0633957 120 120 119 255 0.200638 0.303862 
-0.38413 -0.103422 3.45107 -0.44456 -0.895625 -0.0149085 120 120 119 255 0.200638 0.303862 
0.383587 -0.10319 3.58279 0.71099 -0.702894 -0.0208164 120 120 119 255 0.200638 0.303862 
0.28623 -0.102678 3.4813 0.00139785 -0.999979 -0.00638569 120 120 119 255 0.200638 0.303862 
-0.382305 -0.087781 3.20073 -0.828585 -0.552872 0.0881959 120 120 119 255 0.200638 0.303862 
0.252279 -0.102987 3.20018 0.0135362 -0.999847 0.0111218 120 120 119 255 0.200638 0.303862 
0.371434 -0.067633 3.19606 0.696882 -0.670733 0.253913 97 95 95 255 0.200638 0.281232 
-0.168054 -0.103358 2.97591 -0.0352048 -0.999365 0.0054521 120 120 119 255 0.200638 0.303862 
-0.341618 -0.089472 2.97552 -0.0797483 -0.996815 -0.000837635 120 120 119 255 0.200638 0.303862 
0.332669 -0.094586 2.97458 0.642889 -0.753093 -0.139799 97 95 95 255 0.200638 0.281232 
-0.023516 -0.103421 2.68056 0.214088 -0.966536 -0.141334 97 95 95 255 0.200638 0.281232 
0.168006 -0.103421 2.85158 0.0214514 -0.999761 -0.00431755 120 120 119 255 0.200638 0.303862 
0.323769 -0.039358 2.87515 0.934036 -0.270153 -0.233654 97 95 95 255 0.200638 0.281232 
-0.367744 -0.090318 2.41745 -0.0486241 -0.998814 -0.0026193 120 120 119 255 0.200638 0.303862 
-0.049393 -0.102511 2.40639 -0.0100741 -0.988837 -0.148658 97 95 95 255 0.200638 0.281232 
0.384081 -0.103421 2.62954 0.221139 -0.793481 0.566997 97 95 95 255 0.200638 0.281232 
0.384027 -0.103388 2.4314 0.894461 -0.447144 -0.00147968 120 120 119 255 0.200638 0.303862 
-0.382699 -0.053242 2.1122 -0.570066 -0.811327 0.129513 97 95 95 255 0.200638 0.281232 
0.384081 -0.103421 1.91801 0.554848 -0.831951 -0.000505565 120 120 119 255 0.200638 0.303862 
-0.286423 -0.103388 2.1495 0.00035318 -0.999999 0.00116555 120 120 119 255 0.200638 0.303862 
-0.312737 -0.103629 1.44074 0.000235645 -0.988741 0.149638 120 120 119 255 0.200638 0.303862 
0.382944 -0.102881 1.67329 0.698706 -0.715399 0.00377787 120 120 119 255 0.200638 0.303862 
-0.385508 -0.070344 1.44335 -0.512175 -0.592941 0.621368 97 95 95 255 0.200638 0.281232 
-0.540815 -0.049689 5.12254 0.0182134 -0.152968 0.988063 120 120 119 255 0.200638 0.303862 
-0.333256 -0.069363 3.27893 -0.535272 -0.752456 0.383789 97 95 95 255 0.200638 0.281232 
0.383294 -0.102846 2.20669 0.894843 -0.446372 0.00292265 120 120 119 255 0.200638 0.303862 
0.384081 -0.037601 1.83086 0.999997 -0.0015287 -0.00165484 120 120 119 255 0.200638 0.303862 
-0.488669 -0.05304 0.528453 -0.985931 -0.158642 0.0526557 97 95 95 255 0.200638 0.281232 
0.647335 -0.034821 0.000111 0.186771 -0.0255798 -0.982071 97 95 95 255 0.200638 0.281232 
-0.569444 -0.03296 4.63686 -0.919268 0.13686 -0.369073 97 95 95 255 0.200638 0.281232 
-0.483259 0.051316 4.45345 -0.999432 0.00957934 -0.0323127 120 120 119 255 0.200638 0.303862 
0.374536 0.026326 3.42783 0.882981 -0.105501 -0.4574 97 95 95 255 0.200638 0.281232 
-0.333987 -0.069868 3.36569 -0.61775 -0.672207 -0.408072 97 95 95 255 0.200638 0.281232 
0.037198 -0.054294 3.32534 0.0113789 -0.999929 -0.00342458 97 95 95 255 0.200638 0.281232 
0.309941 -0.053583 3.3254 0.821318 -0.568608 0.0460585 97 95 95 255 0.200638 0.281232 
0.332175 -0.068344 3.27816 0.279494 -0.888105 0.3649 97 95 95 255 0.200638 0.281232 
-0.372117 -0.052058 2.94084 -0.8242 -0.565855 -0.0224053 97 95 95 255 0.200638 0.281232 
-0.382404 -0.053718 2.40583 -0.889934 -0.214454 -0.402526 97 95 95 255 0.200638 0.281232 
0.324798 -0.055883 2.29845 0.685741 -0.709254 -0.163457 97 95 95 255 0.200638 0.281232 
-0.313183 -0.055443 2.3064 -0.564103 -0.825699 -0.00298093 97 95 95 255 0.200638 0.281232 
-0.497174 -0.010922 1.06786 -0.774012 -0.038232 -0.632016 97 95 95 255 0.200638 0.281232 
0.556658 -0.032828 4.50397 0.860847 -0.0532448 -0.506071 97 95 95 255 0.200638 0.281232 
-0.385552 0.062218 4.11669 -0.464355 -0.00777185 -0.885615 97 95 95 255 0.200638 0.281232 
0.321354 -0.036785 2.74726 0.441243 -0.891865 0.0994094 97 95 95 255 0.200638 0.281232 
-0.377439 0.194943 3.42845 -0.873837 0.033715 -0.485048 97 95 95 255 0.200638 0.281232 
-0.311805 0.353271 3.32607 -0.782218 0.616209 -0.0917677 97 95 95 255 0.200638 0.281232 
0.373554 -0.067534 3.00237 0.632901 -0.746836 -0.204137 97 95 95 255 0.200638 0.281232 
-0.382699 0.002117 2.20891 -0.843082 -0.170257 0.510122 97 95 95 255 0.200638 0.281232 
-0.061154 -0.069934 0.000111 0.00455801 -0.00200314 -0.999988 97 95 95 255 0.200638 0.281232 
-0.580365 0.410188 1.10165 -0.761584 0.0622895 -0.645066 97 95 95 255 0.200638 0.281232 
0.497879 0.256095 1.06847 0.369893 -0.00575356 -0.929057 97 95 95 255 0.200638 0.281232 
0.494622 0.225277 4.41338 0.99931 0.012648 -0.0349269 120 120 119 255 0.200638 0.303862 
-0.590991 0.212822 5.06287 -0.999506 -0.0311823 0.00407325 120 120 119 255 0.200638 0.303862 
0.481885 0.021993 4.14359 0.196534 0.00596933 -0.980479 97 95 95 255 0.200638 0.281232 
0.384081 0.160948 2.85275 0.993699 -0.112084 2.15546e-05 120 120 119 255 0.200638 0.303862 
-0.496004 0.204593 1.06986 -0.589743 0.0358345 -0.806795 97 95 95 255 0.200638 0.281232 
0.495954 0.502283 0.530454 0.845671 0.441933 0.299225 120 120 119 255 0.200638 0.303862 
-0.115365 0.159801 0.000111 -0.00915531 -0.00648439 -0.999937 97 95 95 255 0.200638 0.281232 
0.651906 0.300723 0.080869 0.999739 0.00853899 -0.0211951 120 120 119 255 0.200638 0.303862 
-0.647375 0.372607 0.000111 -0.999627 -0.00173341 -0.0272445 120 120 119 255 0.200638 0.303862 
0.383294 0.176862 3.20012 0.997707 -0.0222222 -0.0639207 120 120 119 255 0.200638 0.303862 
-0.597932 0.122347 4.65859 -0.877518 -0.22588 -0.423014 97 95 95 255 0.200638 0.281232 
-0.580464 0.510549 1.25699 -0.670996 0.0126423 0.741353 120 120 119 255 0.200638 0.303862 
0.384081 0.392312 2.65527 0.999998 0.00184108 0.00102078 120 120 119 255 0.200638 0.303862 
0.589181 0.174867 0.005614 0.425645 -0.00877312 -0.904848 97 95 95 255 0.200638 0.281232 
-0.486747 0.181878 4.37541 -0.999111 -0.0212195 -0.036413 120 120 119 255 0.200638 0.303862 
0.383053 0.37592 3.77493 0.999937 0.0110115 0.00194055 120 120 119 255 0.200638 0.303862 
0.384081 0.332314 2.14955 0.988383 0.150668 -0.0199829 120 120 119 255 0.200638 0.303862 
-0.54018 0.433378 5.12272 -0.53523 0.111665 0.837293 97 95 95 255 0.200638 0.281232 
0.476324 0.116083 5.12631 0.687318 -0.0253504 0.725914 97 95 95 255 0.200638 0.281232 
-0.501363 0.467548 0.492994 -0.954063 0.0066477 0.299531 120 120 119 255 0.200638 0.303862 
-0.595079 0.237537 4.56277 -0.873116 -0.105945 -0.475862 97 95 95 255 0.200638 0.281232 
-0.314606 0.384524 2.29839 -0.759814 0.649831 -0.0200924 97 95 95 255 0.200638 0.281232 
0.381478 0.292897 3.10052 0.999989 -0.000961745 -0.00449844 120 120 119 255 0.200638 0.303862 
-0.41758 0.315789 0.005336 -0.00226823 -0.00955439 -0.999952 97 95 95 255 0.200638 0.281232 
0.647335 0.428982 0.000111 0.398871 -0.0495268 -0.915669 97 95 95 255 0.200638 0.281232 
0.583517 0.561468 4.55221 0.811182 0.584187 0.0266406 120 120 119 255 0.200638 0.303862 
-0.384075 0.425152 2.4314 -0.902548 0.43058 0.00290824 120 120 119 255 0.200638 0.303862 
0.377238 0.309863 1.76961 0.984166 0.177131 -0.00644768 120 120 119 255 0.200638 0.303862 
0.385753 0.293375 1.44308 0.937936 0.092712 0.334186 120 120 119 255 0.200638 0.303862 
0.656137 -0.108098 0.269562 0.973794 -0.0334913 0.224955 120 120 119 255 0.200638 0.303862 
-0.084321 0.25711 5.12748 0.00673142 0.0374543 0.999276 120 120 119 255 0.200638 0.303862 
0.598877 0.445435 5.00847 0.77735 0.443337 0.446295 97 95 95 255 0.200638 0.281232 
-0.487042 0.495377 4.37742 -0.540757 0.600215 -0.589341 97 95 95 255 0.200638 0.281232 
0.421566 0.411943 4.13753 0.372064 0.237671 -0.897263 97 95 95 255 0.200638 0.281232 
-0.38413 0.276577 2.81429 -0.999221 -0.0336273 -0.0206527 120 120 119 255 0.200638 0.303862 
0.357909 0.353272 1.7964 0.958086 0.286171 0.0133081 120 120 119 255 0.200638 0.303862 
0.655984 0.217123 0.269618 0.976616 0.0047718 0.21494 120 120 119 255 0.200638 0.303862 
0.168452 0.392919 5.12748 -0.0158586 0.0475688 0.998742 120 120 119 255 0.200638 0.303862 
0.478542 0.501813 4.41504 0.482928 0.605259 -0.632805 97 95 95 255 0.200638 0.281232 
-0.387027 0.426847 4.11825 -0.080442 0.318282 -0.944577 97 95 95 255 0.200638 0.281232 
-0.383288 0.424647 3.51782 -0.703844 0.710201 -0.0147435 120 120 119 255 0.200638 0.303862 
0.348268 0.385539 2.7542 0.788158 0.612621 -0.0591837 97 95 95 255 0.200638 0.281232 
-0.383334 0.423564 2.20647 -0.32525 0.775874 0.540585 97 95 95 255 0.200638 0.281232 
-0.477597 0.49277 0.809688 -0.825913 0.563417 -0.0207012 120 120 119 255 0.200638 0.303862 
-0.38344 0.375722 1.57613 -0.93189 0.328728 0.153355 120 120 119 255 0.200638 0.303862 
-0.544947 0.520808 1.10715 -0.604599 0.491935 -0.626466 97 95 95 255 0.200638 0.281232 
0.580128 0.560289 1.10193 0.660419 0.36055 -0.658674 97 95 95 255 0.200638 0.281232 
-0.471892 0.485656 5.12724 -0.00615725 -0.0038719 0.999973 120 120 119 255 0.200638 0.303862 
0.540132 0.433378 5.12277 0.716872 0.413536 0.561322 97 95 95 255 0.200638 0.281232 
9.6e-05 0.37514 3.32646 -0.083323 0.996522 -0.00128909 97 95 95 255 0.200638 0.281232 
0.385009 0.425965 1.43919 0.562435 0.666126 0.48984 120 120 119 255 0.200638 0.303862 
0.311658 0.375548 3.3254 0.678252 0.733118 -0.0501227 97 95 95 255 0.200638 0.281232 
-0.354409 0.404697 3.24836 -0.45267 0.687238 0.56815 97 95 95 255 0.200638 0.281232 
0.324308 0.38422 2.29511 0.758912 0.599371 0.254573 97 95 95 255 0.200638 0.281232 
-0.49418 0.500389 1.07314 -0.286209 0.438344 -0.852021 97 95 95 255 0.200638 0.281232 
0.04954 0.421397 3.4265 -0.0799016 0.926295 -0.36823 97 95 95 255 0.200638 0.281232 
0.384081 0.425188 3.45112 0.45128 0.892381 0.00172287 120 120 119 255 0.200638 0.303862 
-0.38413 0.425223 3.16194 -0.684917 0.701557 0.19674 120 120 119 255 0.200638 0.303862 
0.384081 0.425223 3.16194 0.560194 0.826446 0.0563053 120 120 119 255 0.200638 0.303862 
-0.28145 0.423632 2.75237 -0.816917 0.57657 0.0146403 97 95 95 255 0.200638 0.281232 
0.366371 0.416421 2.19657 0.882033 0.435714 0.179365 97 95 95 255 0.200638 0.281232 
-0.378118 0.42133 1.43263 -0.510096 0.729288 0.456005 120 120 119 255 0.200638 0.303862 
0.366514 0.410797 4.04021 0.997344 0.0464829 0.0560682 120 120 119 255 0.200638 0.303862 
0.285739 0.426882 4.1173 0.0705034 0.809554 -0.582797 97 95 95 255 0.200638 0.281232 
-0.217106 0.424206 3.82957 -0.00315333 0.999919 -0.0122937 120 120 119 255 0.200638 0.303862 
0.369224 0.421329 3.67266 0.767152 0.640078 0.042164 97 95 95 255 0.200638 0.281232 
-0.120285 0.416792 3.55483 -0.0830203 0.95575 -0.282223 97 95 95 255 0.200638 0.281232 
0.384081 0.425287 2.87793 0.450763 0.89256 -0.0121651 120 120 119 255 0.200638 0.303862 
0.284843 0.418791 2.6296 0.504676 0.862613 -0.0346569 97 95 95 255 0.200638 0.281232 
0.383338 0.423531 2.409 0.53807 0.75956 -0.365444 97 95 95 255 0.200638 0.281232 
0.35097 0.408126 1.91628 0.939983 0.32759 -0.0954833 97 95 95 255 0.200638 0.281232 
-0.023856 0.425287 1.44135 -0.0181576 0.979681 0.199739 120 120 119 255 0.200638 0.303862 
0.312555 0.425287 1.70008 0.825119 0.563986 0.0331496 97 95 95 255 0.200638 0.281232 
0.023369 0.425287 1.6729 0.00381943 0.999744 0.0223208 120 120 119 255 0.200638 0.303862 
-0.329865 0.410594 1.63649 -0.613158 0.77945 0.128431 120 120 119 255 0.200638 0.303862 
-0.656133 0.486337 0.269951 -0.984089 -0.00302415 0.177649 120 120 119 255 0.200638 0.303862 
-0.140651 0.465681 4.14176 0.0301897 0.8159 -0.577405 97 95 95 255 0.200638 0.281232 
-0.55405 0.555007 1.25327 -0.519828 0.846794 0.112776 97 95 95 255 0.200638 0.281232 
-0.476372 0.488403 0.551241 -0.95742 0.171042 0.232575 97 95 95 255 0.200638 0.281232 
0.648265 0.527778 0.300798 0.959554 -0.00441046 0.281492 120 120 119 255 0.200638 0.303862 
-0.271762 0.488098 5.12748 0.0245342 0.0200917 0.999497 120 120 119 255 0.200638 0.303862 
0.105773 0.54295 5.10814 -0.044047 0.109609 0.992998 120 120 119 255 0.200638 0.303862 
-0.480056 0.490739 4.1432 -0.294247 0.401399 -0.867351 97 95 95 255 0.200638 0.281232 
-0.649443 0.608232 0.000333 -0.230854 0.0935374 -0.968482 97 95 95 255 0.200638 0.281232 
-0.587154 0.526524 5.05914 -0.679739 0.355261 0.641673 97 95 95 255 0.200638 0.281232 
-0.214199 0.49585 4.27643 -0.00798244 0.99867 -0.0509304 120 120 119 255 0.200638 0.303862 
0.214008 0.486541 4.21835 -0.0462666 0.896661 -0.440294 97 95 95 255 0.200638 0.281232 
0.480016 0.4907 4.14331 0.879775 0.47376 -0.0393395 120 120 119 255 0.200638 0.303862 
-0.032131 0.482169 5.10986 -0.00343404 0.0875008 0.996159 120 120 119 255 0.200638 0.303862 
-0.255726 0.506722 4.44455 -0.00380243 0.997431 -0.0715387 120 120 119 255 0.200638 0.303862 
0.497475 0.502999 1.0688 0.1272 0.392651 -0.910849 97 95 95 255 0.200638 0.281232 
-0.3089 0.502283 1.06925 -0.0120402 0.58372 -0.811866 97 95 95 255 0.200638 0.281232 
-0.140703 0.508044 0.492493 -0.00523506 0.955189 0.295951 120 120 119 255 0.200638 0.303862 
-0.518042 0.521721 0.446029 -0.889041 0.0427482 0.455827 97 95 95 255 0.200638 0.281232 
-0.285832 0.554192 5.05667 0.254496 0.748592 0.612243 97 95 95 255 0.200638 0.281232 
0.372417 0.532724 5.12291 -0.0200857 0.0618954 0.997881 120 120 119 255 0.200638 0.303862 
-0.452956 0.554969 1.10926 -0.0954185 0.831474 -0.547308 97 95 95 255 0.200638 0.281232 
0.581898 0.559539 0.382612 0.697356 0.643331 0.315944 97 95 95 255 0.200638 0.281232 
0.055989 0.572984 5.03597 -0.281985 0.84312 0.457858 97 95 95 255 0.200638 0.281232 
-0.583612 0.559068 5.02949 -0.504168 0.65115 0.567291 97 95 95 255 0.200638 0.281232 
-0.594093 0.569563 4.55977 -0.707698 0.706045 0.0257795 120 120 119 255 0.200638 0.303862 
0.580674 0.560593 1.2536 0.443756 0.896138 -0.00416988 97 95 95 255 0.200638 0.281232 
0.64704 0.570001 0 0.751887 0.470035 -0.462313 97 95 95 255 0.200638 0.281232 
0.368043 0.568108 5.06273 0.245738 0.867836 0.431825 97 95 95 255 0.200638 0.281232 
-0.056127 0.57281 4.90238 -0.247403 0.87706 0.411773 97 95 95 255 0.200638 0.281232 
-0.369757 0.57068 4.56283 0.0256296 0.905496 -0.423581 97 95 95 255 0.200638 0.281232 
-0.224581 0.571358 4.90378 -0.00818706 0.999563 0.0284011 120 120 119 255 0.200638 0.303862 
0.035273 0.570478 4.56233 0.00261918 0.876687 -0.481055 97 95 95 255 0.200638 0.281232 
0.483351 0.60742 0.301021 0.434065 0.898637 0.0635439 97 95 95 255 0.200638 0.281232 
-0.593209 0.607213 0.300687 -0.931766 0.105251 0.34747 97 95 95 255 0.200638 0.281232 
-0.47917 -0.16487 1.06443 -0.0385046 -0.995731 0.0838823 120 120 119 255 0.200638 0.303862 
0.365825 -0.286329 0.26506 -0.0295049 -0.912956 0.40699 97 95 95 255 0.200638 0.281232 
0.120584 -0.290668 0.237548 0.00471074 -0.99941 0.0340185 120 120 119 255 0.200638 0.303862 
-0.395095 -0.285923 0.299631 0.227649 -0.973708 0.00832328 97 95 95 255 0.200638 0.281232 
-0.451132 -0.290697 0.018175 0.07839 -0.874328 -0.478963 97 95 95 255 0.200638 0.281232 
0.59435 -0.290463 0.237326 0.266378 -0.959592 -0.0906985 97 95 95 255 0.200638 0.281232 
-0.24859 -0.290189 0.017452 0.0131635 -0.999619 -0.0242552 120 120 119 255 0.200638 0.303862 
0.451035 -0.276849 0.012672 0.0283444 -0.996513 -0.0784705 120 120 119 255 0.200638 0.303862 
-0.173806 -0.222541 0.42224 0.116145 -0.986767 0.113146 97 95 95 255 0.200638 0.281232 
0.05682 -0.244479 0.336536 -0.0148756 -0.944321 0.328689 120 120 119 255 0.200638 0.303862 
0.627353 -0.256738 0.062416 0.962294 -0.271885 0.00825577 120 120 119 255 0.200638 0.303862 
-0.650086 -0.286464 0.000111 0.0190647 -0.147 -0.988953 97 95 95 255 0.200638 0.281232 
0.14365 -0.284603 0.000111 0.00532066 -0.110877 -0.99382 97 95 95 255 0.200638 0.281232 
-0.059276 -0.243667 5.01127 -0.0238601 -0.952666 0.303081 120 120 119 255 0.200638 0.303862 
0.447395 -0.245394 5.06334 -0.0066128 -0.999799 0.0189286 120 120 119 255 0.200638 0.303862 
0.523699 -0.248442 4.95449 -0.000124255 -1 -0.000679608 120 120 119 255 0.200638 0.303862 
0.422702 -0.239473 4.54043 0.178452 -0.920301 -0.34814 97 95 95 255 0.200638 0.281232 
-0.598228 -0.250713 5.03891 -0.533661 -0.534568 0.655319 97 95 95 255 0.200638 0.281232 
-0.110292 -0.246041 5.06259 0.364386 -0.661917 0.655048 97 95 95 255 0.200638 0.281232 
-0.594093 -0.248035 4.56 -0.525625 -0.550835 -0.648305 97 95 95 255 0.200638 0.281232 
-0.310385 -0.238893 1.25488 -0.0190894 -0.812935 0.582041 120 120 119 255 0.200638 0.303862 
-4.8e-05 -0.227318 1.28123 0.00741624 -0.812694 0.582644 120 120 119 255 0.200638 0.303862 
-0.55567 -0.209135 5.10748 0.0913893 -0.10204 0.990574 120 120 119 255 0.200638 0.303862 
-0.084274 -0.071022 5.12748 0.674107 -0.342778 0.654281 97 95 95 255 0.200638 0.281232 
-0.063266 -0.180486 1.06997 -0.00376464 -0.999956 -0.00855951 120 120 119 255 0.200638 0.303862 
0.495803 -0.18079 1.07447 0.547802 -0.836586 -0.00612077 120 120 119 255 0.200638 0.303862 
-0.153591 -0.169276 0.843091 -0.00669309 -0.998968 -0.0449297 97 95 95 255 0.200638 0.281232 
-0.493883 -0.180423 0.873049 -0.86679 -0.485827 -0.112465 97 95 95 255 0.200638 0.281232 
0.093572 -0.180423 0.75244 -0.0357597 -0.999039 0.0253479 97 95 95 255 0.200638 0.281232 
-0.461209 -0.161493 0.715869 -0.0413149 -0.99275 0.112875 120 120 119 255 0.200638 0.303862 
-0.594738 -0.147847 4.56239 -0.866053 0.176426 -0.467789 97 95 95 255 0.200638 0.281232 
0.494327 -0.16755 4.41454 0.319738 -0.947498 0.00388225 120 120 119 255 0.200638 0.303862 
-0.495064 -0.169248 4.41276 -0.467338 -0.883973 -0.0136398 120 120 119 255 0.200638 0.303862 
-0.334588 -0.173991 4.21546 0.104871 -0.81193 -0.574257 97 95 95 255 0.200638 0.281232 
-0.479958 -0.16989 4.14342 -0.174207 -0.259051 -0.950023 97 95 95 255 0.200638 0.281232 
0.091266 -0.173991 4.21546 -0.082335 -0.833192 -0.546819 97 95 95 255 0.200638 0.281232 
0.479864 -0.169853 4.14354 0.0441457 -0.512541 -0.857527 97 95 95 255 0.200638 0.281232 
-0.450047 -0.148624 1.37638 -0.43875 -0.557725 0.704586 97 95 95 255 0.200638 0.281232 
0.17942 -0.234935 1.25399 0.0207634 -0.827529 0.561039 120 120 119 255 0.200638 0.303862 
0.492215 -0.218575 1.27962 -0.00495338 -0.814316 0.580401 120 120 119 255 0.200638 0.303862 
0.385162 -0.104746 1.43841 0.623409 -0.372619 0.687398 97 95 95 255 0.200638 0.281232 
0.506329 -0.163014 5.12524 -0.0427502 -0.297658 0.953715 120 120 119 255 0.200638 0.303862 
0.590262 -0.21773 4.97775 0.998152 -0.0245515 -0.055584 120 120 119 255 0.200638 0.303862 
0.569994 -0.19711 4.60468 0.997415 0.00115575 -0.0718447 120 120 119 255 0.200638 0.303862 
0.142819 -0.104338 4.11669 0.0208089 -0.999624 -0.0178492 120 120 119 255 0.200638 0.303862 
-0.393082 -0.130076 4.13731 -0.703832 -0.709416 -0.0367354 120 120 119 255 0.200638 0.303862 
0.386191 -0.105521 4.11825 0.714674 -0.699234 0.0176902 120 120 119 255 0.200638 0.303862 
0.252279 -0.102987 3.20018 0.140503 -0.966505 0.214774 97 95 95 255 0.200638 0.281232 
0.332669 -0.094586 2.97458 0.0642051 -0.997835 -0.0142792 120 120 119 255 0.200638 0.303862 
0.168006 -0.103421 2.85158 0.234372 -0.938177 -0.254744 97 95 95 255 0.200638 0.281232 
-0.023516 -0.103421 2.68056 -0.0220709 -0.999747 -0.00431807 120 120 119 255 0.200638 0.303862 
-0.049393 -0.102511 2.40639 -0.0201413 -0.999797 6.43079e-05 120 120 119 255 0.200638 0.303862 
0.384081 -0.103421 2.62954 0.89425 -0.447568 -0.000196292 120 120 119 255 0.200638 0.303862 
-0.312737 -0.103629 1.44074 -0.404089 -0.857201 0.319247 97 95 95 255 0.200638 0.281232 
-0.483259 0.051316 4.45345 -0.899702 0.0388157 -0.434776 97 95 95 255 0.200638 0.281232 
0.383587 -0.10319 3.58279 0.643483 -0.696149 -0.318286 97 95 95 255 0.200638 0.281232 
0.28623 -0.102678 3.4813 0.0720125 -0.949216 -0.306273 97 95 95 255 0.200638 0.281232 
-0.341618 -0.089472 2.97552 -0.754601 -0.654788 -0.0427783 97 95 95 255 0.200638 0.281232 
-0.367744 -0.090318 2.41745 -0.708 -0.672079 -0.2169 97 95 95 255 0.200638 0.281232 
-0.286423 -0.103388 2.1495 -0.343454 -0.924651 0.164496 97 95 95 255 0.200638 0.281232 
-0.47917 -0.16487 1.06443 -0.815585 -0.241833 -0.525679 97 95 95 255 0.200638 0.281232 
-0.501111 -0.185091 0.493716 -0.984003 0.0475491 0.171691 97 95 95 255 0.200638 0.281232 
0.494622 0.225277 4.41338 0.813766 0.0180116 -0.580914 97 95 95 255 0.200638 0.281232 
0.481885 0.021993 4.14359 0.998995 -0.00328104 -0.0446918 120 120 119 255 0.200638 0.303862 
-0.38413 -0.103422 3.45107 -0.546351 -0.619012 -0.564203 97 95 95 255 0.200638 0.281232 
-0.382305 -0.087781 3.20073 -0.661925 -0.698087 0.273002 97 95 95 255 0.200638 0.281232 
0.384027 -0.103388 2.4314 0.606554 -0.623672 -0.493077 97 95 95 255 0.200638 0.281232 
0.383294 -0.102846 2.20669 0.584569 -0.597694 0.548672 97 95 95 255 0.200638 0.281232 
0.647335 -0.034821 0.000111 0.99728 -0.0560789 -0.0478282 120 120 119 255 0.200638 0.303862 
-0.569444 -0.03296 4.63686 -0.999908 0.00815302 0.0108853 120 120 119 255 0.200638 0.303862 
0.556658 -0.032828 4.50397 0.996604 -0.00599764 -0.0821232 120 120 119 255 0.200638 0.303862 
0.598776 0.059069 5.00838 0.789029 -0.03403 0.613413 97 95 95 255 0.200638 0.281232 
-0.479323 0.098135 4.22051 -0.735124 0.0374268 -0.676899 97 95 95 255 0.200638 0.281232 
-0.385552 0.062218 4.11669 -0.999907 0.00907764 -0.0102215 120 120 119 255 0.200638 0.303862 
0.373554 -0.067534 3.00237 0.98416 0.0861518 -0.154945 120 120 119 255 0.200638 0.303862 
0.323769 -0.039358 2.87515 0.985804 -0.125156 -0.111919 120 120 119 255 0.200638 0.303862 
0.321354 -0.036785 2.74726 0.956521 -0.290682 -0.0239106 120 120 119 255 0.200638 0.303862 
-0.540815 -0.049689 5.12254 -0.565026 0.00277383 0.825069 97 95 95 255 0.200638 0.281232 
-0.590991 0.212822 5.06287 -0.789264 0.00265683 0.614048 97 95 95 255 0.200638 0.281232 
-0.377439 0.194943 3.42845 -0.999933 0.00121616 -0.0115526 120 120 119 255 0.200638 0.303862 
0.371434 -0.067633 3.19606 0.998757 -0.0486288 0.0109065 120 120 119 255 0.200638 0.303862 
0.384081 0.160948 2.85275 0.599286 -0.516441 0.611674 97 95 95 255 0.200638 0.281232 
0.374536 0.026326 3.42783 0.99976 -0.00277038 -0.0217416 120 120 119 255 0.200638 0.303862 
0.383294 0.176862 3.20012 0.891966 0.0024672 0.452096 97 95 95 255 0.200638 0.281232 
-0.372117 -0.052058 2.94084 -0.999314 -0.0339894 -0.0147309 120 120 119 255 0.200638 0.303862 
-0.382404 -0.053718 2.40583 -0.999805 -0.00451587 0.0192378 120 120 119 255 0.200638 0.303862 
-0.597932 0.122347 4.65859 -0.996346 -0.0780934 0.0345832 120 120 119 255 0.200638 0.303862 
-0.580769 -0.151468 1.25572 -0.69266 -0.00107331 0.721264 120 120 119 255 0.200638 0.303862 
-0.385508 -0.070344 1.44335 -0.916899 0.0118006 0.398945 120 120 119 255 0.200638 0.303862 
0.651906 0.300723 0.080869 0.781317 -0.0163281 -0.623921 97 95 95 255 0.200638 0.281232 
0.476324 0.116083 5.12631 0.00582497 0.00130832 0.999982 120 120 119 255 0.200638 0.303862 
0.580074 -0.113109 1.25711 0.695337 0.00600935 0.718659 120 120 119 255 0.200638 0.303862 
-0.580464 0.510549 1.25699 -0.936027 0.332359 0.115722 97 95 95 255 0.200638 0.281232 
-0.486747 0.181878 4.37541 -0.87709 -0.193581 -0.43959 97 95 95 255 0.200638 0.281232 
-0.647375 0.372607 0.000111 0.0228616 0.000525252 -0.999739 97 95 95 255 0.200638 0.281232 
0.497879 0.256095 1.06847 0.999989 -0.00159558 -0.00430804 120 120 119 255 0.200638 0.303862 
-0.488669 -0.05304 0.528453 -0.922517 -0.0319091 0.384635 120 120 119 255 0.200638 0.303862 
-0.496004 -0.095097 0.842758 -0.999916 0.0127474 0.00225319 120 120 119 255 0.200638 0.303862 
-0.471892 0.485656 5.12724 -0.141421 0.547406 0.824832 97 95 95 255 0.200638 0.281232 
-0.354409 0.404697 3.24836 -0.637155 0.671363 0.378558 120 120 119 255 0.200638 0.303862 
0.383338 0.423531 2.409 0.453048 0.891391 0.0129912 120 120 119 255 0.200638 0.303862 
-0.595079 0.237537 4.56277 -0.999811 0.0161123 0.0109141 120 120 119 255 0.200638 0.303862 
0.480016 0.4907 4.14331 0.023534 0.280233 -0.959644 97 95 95 255 0.200638 0.281232 
0.583517 0.561468 4.55221 0.504306 0.578395 -0.641198 97 95 95 255 0.200638 0.281232 
-0.382699 0.002117 2.20891 -0.999999 -0.00150172 0.000859626 120 120 119 255 0.200638 0.303862 
-0.383334 0.423564 2.20647 -0.45029 0.892458 -0.0275194 120 120 119 255 0.200638 0.303862 
-0.382699 -0.053242 2.1122 -0.987509 0.135094 0.081091 120 120 119 255 0.200638 0.303862 
-0.487042 0.495377 4.37742 -0.71411 0.697528 -0.059175 120 120 119 255 0.200638 0.303862 
0.384081 0.425188 3.45112 0.747516 0.57107 -0.339263 97 95 95 255 0.200638 0.281232 
-0.384075 0.425152 2.4314 -0.696995 0.681648 -0.222605 97 95 95 255 0.200638 0.281232 
0.384081 0.332314 2.14955 0.967179 0.0894468 0.237834 97 95 95 255 0.200638 0.281232 
-0.496004 0.204593 1.06986 -0.998551 0.0179856 -0.0507257 120 120 119 255 0.200638 0.303862 
0.478542 0.501813 4.41504 0.428142 0.902175 -0.0526631 120 120 119 255 0.200638 0.303862 
-0.383288 0.424647 3.51782 -0.546547 0.697535 -0.463393 97 95 95 255 0.200638 0.281232 
0.598877 0.445435 5.00847 0.866595 0.489809 0.0953909 120 120 119 255 0.200638 0.303862 
0.384081 0.425287 2.87793 0.959657 0.00998557 -0.280996 97 95 95 255 0.200638 0.281232 
0.381478 0.292897 3.10052 0.913361 0.406599 0.0211811 97 95 95 255 0.200638 0.281232 
0.384081 0.392312 2.65527 0.27999 0.947013 0.157395 97 95 95 255 0.200638 0.281232 
-0.38413 0.276577 2.81429 -0.816917 0.57657 0.0146403 97 95 95 255 0.200638 0.281232 
0.357909 0.353272 1.7964 0.912422 0.409011 -0.0139688 97 95 95 255 0.200638 0.281232 
0.540132 0.433378 5.12277 0.0112565 0.0128404 0.999854 120 120 119 255 0.200638 0.303862 
-0.587154 0.526524 5.05914 -0.999905 0.00771597 0.0114723 120 120 119 255 0.200638 0.303862 
0.366514 0.410797 4.04021 0.68304 0.711186 -0.166345 97 95 95 255 0.200638 0.281232 
-0.480056 0.490739 4.1432 -0.712524 0.700768 -0.0351297 120 120 119 255 0.200638 0.303862 
-0.387027 0.426847 4.11825 -0.444566 0.895706 -0.00852851 120 120 119 255 0.200638 0.303862 
-0.649443 0.608232 0.000333 -0.438423 0.89676 -0.060057 120 120 119 255 0.200638 0.303862 
0.383053 0.37592 3.77493 0.925344 0.376777 0.0421685 97 95 95 255 0.200638 0.281232 
0.384081 0.425223 3.16194 0.592129 0.659679 0.462825 97 95 95 255 0.200638 0.281232 
0.385009 0.425965 1.43919 0.692037 0.695306 0.193997 97 95 95 255 0.200638 0.281232 
0.580674 0.560593 1.2536 0.187441 0.695276 0.693871 120 120 119 255 0.200638 0.303862 
-0.49418 0.500389 1.07314 -0.706483 0.704752 -0.0648519 120 120 119 255 0.200638 0.303862 
-0.38413 0.425223 3.16194 -0.840918 0.497587 -0.212754 97 95 95 255 0.200638 0.281232 
0.647335 0.428982 0.000111 0.999552 0.0282737 -0.00985164 120 120 119 255 0.200638 0.303862 
0.285739 0.426882 4.1173 0.000791255 0.999943 -0.0106825 120 120 119 255 0.200638 0.303862 
0.369224 0.421329 3.67266 0.00569487 0.999979 0.00294536 120 120 119 255 0.200638 0.303862 
0.04954 0.421397 3.4265 -0.0374472 0.998795 -0.0317336 120 120 119 255 0.200638 0.303862 
-0.120285 0.416792 3.55483 -0.0162644 0.999333 -0.0327001 120 120 119 255 0.200638 0.303862 
-0.28145 0.423632 2.75237 0.0033931 0.999994 0.000231832 120 120 119 255 0.200638 0.303862 
0.284843 0.418791 2.6296 0.00863452 0.999963 0.000397883 120 120 119 255 0.200638 0.303862 
0.366371 0.416421 2.19657 0.00912608 0.999506 -0.0300813 120 120 119 255 0.200638 0.303862 
0.35097 0.408126 1.91628 0.0111625 0.9996 0.0259986 120 120 119 255 0.200638 0.303862 
0.312555 0.425287 1.70008 -0.00390288 0.99913 0.0415269 120 120 119 255 0.200638 0.303862 
-0.378118 0.42133 1.43263 -0.511235 0.368752 0.776312 97 95 95 255 0.200638 0.281232 
-0.656133 0.486337 0.269951 -0.838646 0.318778 0.441649 97 95 95 255 0.200638 0.281232 
-0.501363 0.467548 0.492994 -0.8528 0.395712 0.3408 97 95 95 255 0.200638 0.281232 
-0.477597 0.49277 0.809688 -0.618088 0.785942 -0.0162097 97 95 95 255 0.200638 0.281232 
0.648265 0.527778 0.300798 0.779234 0.594508 0.198379 97 95 95 255 0.200638 0.281232 
0.497475 0.502999 1.0688 0.706208 0.707998 -0.00293693 120 120 119 255 0.200638 0.303862 
0.214008 0.486541 4.21835 -0.00347331 0.998107 -0.0613974 120 120 119 255 0.200638 0.303862 
-0.214199 0.49585 4.27643 0.0313089 0.978847 -0.202186 97 95 95 255 0.200638 0.281232 
0.495954 0.502283 0.530454 0.797465 0.236385 0.555132 97 95 95 255 0.200638 0.281232 
-0.271762 0.488098 5.12748 0.289451 0.808132 0.512973 97 95 95 255 0.200638 0.281232 
-0.594093 0.569563 4.55977 -0.806351 0.459035 -0.372941 97 95 95 255 0.200638 0.281232 
-0.255726 0.506722 4.44455 0.0180276 0.896131 -0.443423 97 95 95 255 0.200638 0.281232 
-0.3089 0.502283 1.06925 -0.0186641 0.999789 -0.00859887 120 120 119 255 0.200638 0.303862 
-0.476372 0.488403 0.551241 -0.0236457 0.990554 0.135069 120 120 119 255 0.200638 0.303862 
-0.593209 0.607213 0.300687 0.00682955 0.953445 0.301491 120 120 119 255 0.200638 0.303862 
0.581898 0.559539 0.382612 0.000256153 0.904848 0.425735 120 120 119 255 0.200638 0.303862 
0.372417 0.532724 5.12291 0.240131 0.844341 0.478984 97 95 95 255 0.200638 0.281232 
-0.55405 0.555007 1.25327 -0.0041137 0.799855 0.60018 120 120 119 255 0.200638 0.303862 
0.105773 0.54295 5.10814 -0.117233 0.86307 0.491291 97 95 95 255 0.200638 0.281232 
-0.032131 0.482169 5.10986 -0.196388 0.876626 0.439271 97 95 95 255 0.200638 0.281232 
-0.583612 0.559068 5.02949 -0.00994146 0.998742 0.0491581 120 120 119 255 0.200638 0.303862 
-0.285832 0.554192 5.05667 0.00587437 0.993475 0.113897 120 120 119 255 0.200638 0.303862 
-0.224581 0.571358 4.90378 0.288401 0.86735 0.405622 97 95 95 255 0.200638 0.281232 
-0.369757 0.57068 4.56283 -0.0117241 0.999877 0.0104025 120 120 119 255 0.200638 0.303862 
0.368043 0.568108 5.06273 0.182207 0.981161 0.0642112 120 120 119 255 0.200638 0.303862 
0.035273 0.570478 4.56233 0.00585444 0.999966 -0.00580359 120 120 119 255 0.200638 0.303862 
0.055989 0.572984 5.03597 0.0105756 0.999928 -0.00575298 120 120 119 255 0.200638 0.303862 
-0.056127 0.57281 4.90238 -0.0018407 0.999971 -0.00735228 120 120 119 255 0.200638 0.303862 
0.483351 0.60742 0.301021 0.0109116 0.975224 0.220952 120 120 119 255 0.200638 0.303862 
0.64704 0.570001 0 0.0292767 0.993762 -0.107611 120 120 119 255 0.200638 0.303862 
3 3 39 5
3 228 4 6
3 5 229 3
3 1 0 8
3 230 231 2
3 4 2 9
3 4 9 6
3 232 10 7
3 2 231 9
3 9 231 13
3 229 233 11
3 3 229 11
3 10 232 14
3 0 12 8
3 3 11 234
3 1 49 0
3 1 15 49
3 230 2 235
3 2 4 235
3 5 39 236
3 3 30 39
3 30 3 237
3 13 231 238
3 13 239 9
3 56 17 19
3 19 20 18
3 31 35 22
3 240 31 22
3 241 240 22
3 18 20 21
3 242 241 22
3 242 22 23
3 20 243 21
3 27 26 28
3 26 25 28
3 24 32 29
3 25 24 29
3 25 29 28
3 27 28 38
3 16 14 239
3 244 245 33
3 19 18 34
3 243 246 41
3 247 248 42
3 37 28 29
3 89 249 31
3 65 89 31
3 17 250 245
3 56 19 34
3 243 40 21
3 243 41 40
3 36 27 38
3 24 43 32
3 29 32 37
3 28 37 44
3 38 28 44
3 251 227 45
3 251 45 46
3 251 46 252
3 253 254 48
3 252 46 47
3 253 48 255
3 252 47 50
3 47 256 49
3 47 49 50
3 50 49 15
3 50 15 39
3 236 39 15
3 39 30 50
3 35 59 22
3 257 41 246
3 258 259 53
3 60 258 52
3 259 51 53
3 258 53 52
3 260 261 58
3 262 54 263
3 264 43 24
3 63 248 265
3 63 265 266
3 36 38 55
3 44 55 38
3 114 16 239
3 16 10 14
3 259 96 51
3 117 258 60
3 58 61 260
3 61 262 260
3 146 30 237
3 16 7 10
3 61 54 262
3 61 62 54
3 62 263 54
3 62 119 263
3 248 63 42
3 27 36 267
3 254 64 48
3 239 13 114
3 16 94 7
3 65 240 268
3 66 269 270
3 271 272 67
3 273 271 67
3 68 273 67
3 68 67 69
3 71 70 73
3 72 274 75
3 72 75 112
3 73 70 74
3 71 77 275
3 112 75 78
3 75 276 109
3 78 75 109
3 276 76 109
3 73 277 77
3 277 73 79
3 76 80 109
3 73 74 79
3 109 80 81
3 277 79 278
3 279 278 82
3 91 85 84
3 84 85 86
3 84 86 87
3 83 88 280
3 87 86 63
3 264 280 88
3 42 63 86
3 43 115 32
3 13 123 114
3 257 281 41
3 51 96 57
3 97 282 100
3 282 283 100
3 90 274 101
3 101 274 72
3 284 102 285
3 286 105 83
3 286 83 280
3 84 87 92
3 287 64 254
3 48 93 288
3 34 18 56
3 95 281 257
3 40 107 21
3 289 107 40
3 117 60 290
3 108 58 261
3 283 291 98
3 283 98 99
3 292 102 284
3 285 102 103
3 293 80 104
3 286 294 105
3 122 252 50
3 295 146 237
3 114 94 16
3 35 118 296
3 35 296 59
3 66 270 297
3 283 99 100
3 90 99 98
3 90 101 99
3 101 100 99
3 285 103 105
3 80 285 105
3 80 105 104
3 294 104 105
3 92 87 63
3 43 264 88
3 291 110 98
3 90 98 111
3 113 83 105
3 64 93 48
3 50 30 146
3 65 164 89
3 298 56 18
3 101 72 100
3 32 115 106
3 44 116 55
3 261 299 108
3 272 300 67
3 126 301 302
3 120 302 303
3 238 123 13
3 304 305 33
3 298 135 56
3 305 244 33
3 95 127 281
3 67 300 306
3 98 110 111
3 126 307 301
3 308 109 81
3 91 84 92
3 132 68 309
3 115 121 106
3 146 295 124
3 72 310 100
3 120 279 129
3 129 279 82
3 36 55 163
3 153 146 124
3 12 0 125
3 273 68 132
3 311 151 143
3 311 143 312
3 130 94 114
3 296 118 313
3 66 297 142
3 96 131 57
3 70 151 311
3 104 186 293
3 128 314 315
3 116 163 55
3 130 316 94
3 197 164 65
3 65 317 154
3 126 302 120
3 318 145 63
3 100 168 97
3 310 168 100
3 90 169 292
3 133 91 92
3 43 319 115
3 50 146 122
3 304 134 305
3 281 127 320
3 169 90 111
3 113 105 138
3 133 92 144
3 144 92 63
3 144 63 145
3 321 140 238
3 127 137 320
3 106 121 64
3 322 252 122
3 238 140 123
3 103 138 105
3 323 324 136
3 0 49 323
3 141 114 123
3 141 130 114
3 325 134 304
3 147 197 65
3 174 70 326
3 70 174 151
3 139 126 120
3 120 129 139
3 129 82 327
3 159 113 138
3 118 328 313
3 117 290 204
3 299 199 108
3 154 147 65
3 320 137 149
3 62 150 119
3 150 329 119
3 132 309 173
3 294 170 104
3 165 135 298
3 165 298 148
3 289 330 107
3 141 316 130
3 104 170 186
3 331 332 333
3 152 133 144
3 134 201 305
3 131 334 57
3 97 168 335
3 103 336 138
3 294 337 170
3 338 160 324
3 324 160 136
3 289 155 330
3 339 117 204
3 199 156 108
3 300 157 306
3 110 340 111
3 153 122 146
3 341 66 142
3 273 132 179
3 175 139 184
3 342 343 158
3 158 343 344
3 345 176 336
3 337 177 170
3 177 337 346
3 332 191 333
3 333 191 161
3 333 161 315
3 152 144 145
3 152 145 167
3 178 128 315
3 318 167 145
3 218 36 163
3 115 162 121
3 136 0 323
3 317 347 154
3 118 348 328
3 150 62 349
3 126 139 175
3 315 161 178
3 140 200 123
3 200 141 123
3 154 205 147
3 334 350 57
3 300 351 157
3 183 166 111
3 172 168 166
3 169 111 166
3 168 169 166
3 162 171 121
3 125 192 352
3 205 197 147
3 347 212 154
3 349 353 182
3 182 353 335
3 183 172 166
3 335 168 172
3 168 310 354
3 186 170 138
3 138 170 159
3 187 177 346
3 189 346 355
3 318 356 167
3 116 207 163
3 338 357 160
3 0 192 125
3 198 205 154
3 340 183 111
3 354 169 168
3 358 176 345
3 336 186 138
3 177 159 170
3 161 191 178
3 0 136 192
3 153 124 359
3 193 180 156
3 180 150 349
3 180 349 182
3 351 360 181
3 360 361 181
3 351 181 157
3 181 362 363
3 181 363 157
3 181 361 173
3 181 173 362
3 326 175 174
3 175 364 174
3 175 184 364
3 185 342 158
3 184 365 364
3 158 344 185
3 185 344 186
3 364 365 327
3 364 327 143
3 332 366 367
3 332 188 191
3 332 367 190
3 187 346 189
3 188 332 190
3 367 368 190
3 190 368 167
3 190 167 188
3 191 188 178
3 319 369 194
3 115 319 162
3 210 370 371
3 153 196 122
3 359 196 153
3 321 200 140
3 199 193 156
3 329 150 180
3 356 178 188
3 167 356 188
3 371 372 195
3 373 141 219
3 325 201 134
3 348 217 328
3 203 180 193
3 374 322 122
3 334 206 202
3 206 375 202
3 206 339 375
3 334 202 350
3 375 339 204
3 199 376 193
3 376 203 193
3 203 329 180
3 371 195 210
3 373 214 377
3 211 325 378
3 212 198 154
3 137 379 149
3 380 330 155
3 162 213 171
3 171 213 208
3 381 374 122
3 357 381 160
3 160 381 382
3 382 381 209
3 381 122 209
3 226 210 195
3 383 382 209
3 384 209 122
3 165 220 385
3 356 386 178
3 213 207 208
3 213 163 207
3 216 201 325
3 211 216 325
3 387 215 388
3 220 387 385
3 201 216 379
3 379 222 149
3 222 380 149
3 222 224 380
3 224 330 380
3 319 194 162
3 214 373 225
3 225 373 219
3 226 200 370
3 387 220 215
3 389 390 223
3 220 165 148
3 211 378 391
3 378 388 391
3 388 215 221
3 389 223 392
3 391 388 221
3 393 341 142
3 393 394 395
3 389 392 217
3 393 142 394
3 396 395 394
3 396 394 223
3 392 223 394
3 194 218 213
3 194 213 162
3 218 163 213
3 226 370 210
3 397 383 209
3 397 209 384
3 200 219 141
3 383 397 352
3 352 397 398
3 37 32 287
3 32 106 287
3 71 73 77
3 90 292 274
3 287 106 64
3 65 268 317
