ply
format ascii 1.0
comment INFO-3111 Flatenator generated
comment TextureFile Dungeons_Texture_01.png
element vertex 88
property float x
property float y
property float z
element face 100
property list uchar int vertex_indices
end_header
0.345909 0.461873 0.215561 
0.228695 0.460753 0.264652 
0.394958 0.364545 0.265295 
0.448261 0.40493 0.188805 
0.504509 0 0.265198 
0.503677 0.345412 0.222649 
0.499607 0.208974 0.231153 
-0.504692 0.461034 0.265432 
-0.244461 0.05061 0.265444 
-0.0779 0.07073 0.257353 
-0.236168 0.026948 0.247744 
-0.095589 0 0.265278 
-0.284851 0 0.265278 
-0.504509 0 0.265198 
-0.172741 0.021305 0.220949 
0.323318 0 0.045776 
0.079819 0.462128 0.099546 
0.488537 0.427817 0.14612 
0.50457 0 0.06662 
-0.267155 0 0.04594 
-0.118286 0.455147 0.109447 
0.504696 0.461581 0.034565 
-0.46526 0.462128 0.056335 
-0.504692 0.334938 0.119226 
-0.504692 0.281493 0.046791 
0.188301 0.462128 0.078836 
0.105656 0.429335 -0.01491 
0.441242 0.010719 -0.059372 
-0.445545 0.41705 -0.037663 
0.504311 0.248684 -0.165888 
-0.056023 0.431411 -0.030205 
0.323318 0.462128 -0.165911 
-0.307465 0.461364 -0.070392 
-0.433632 0.001094 -0.227354 
-0.504654 0.461725 -0.081567 
-0.014729 0.461141 -0.101444 
0.504406 0 -0.260901 
-0.361786 0.000138 -0.261247 
0.079819 0 -0.261378 
0.500999 0.002639 -0.133052 
-0.502651 0.029894 -0.196483 
0.504696 0.461045 -0.26192 
0.142906 0.462128 -0.197412 
-0.504692 0.461045 -0.26192 
0.061691 0.458258 -0.242401 
-0.158749 0.0073 -0.252502 
0.504696 0.30327 -0.263703 
0.456413 0.218142 -0.26543 
-0.504692 0.259944 -0.263703 
0.048279 0.364423 -0.265446 
-0.433712 0.039896 -0.265446 
0.016731 0.112294 -0.265446 
0.345909 0.461873 0.215561 
0.394958 0.364545 0.265295 
0.504509 0 0.265198 
-0.0779 0.07073 0.257353 
-0.244461 0.05061 0.265444 
-0.095589 0 0.265278 
-0.284851 0 0.265278 
0.499607 0.208974 0.231153 
0.488537 0.427817 0.14612 
0.188301 0.462128 0.078836 
0.079819 0.462128 0.099546 
0.504696 0.461581 0.034565 
-0.118286 0.455147 0.109447 
-0.504692 0.334938 0.119226 
-0.504692 0.281493 0.046791 
0.503677 0.345412 0.222649 
-0.46526 0.462128 0.056335 
-0.267155 0 0.04594 
-0.307465 0.461364 -0.070392 
0.323318 0.462128 -0.165911 
-0.502651 0.029894 -0.196483 
-0.433632 0.001094 -0.227354 
-0.504509 0 0.265198 
-0.014729 0.461141 -0.101444 
-0.504654 0.461725 -0.081567 
0.504696 0.30327 -0.263703 
0.504311 0.248684 -0.165888 
0.142906 0.462128 -0.197412 
0.061691 0.458258 -0.242401 
0.504406 0 -0.260901 
-0.361786 0.000138 -0.261247 
0.048279 0.364423 -0.265446 
0.504696 0.461045 -0.26192 
0.456413 0.218142 -0.26543 
-0.433712 0.039896 -0.265446 
-0.504692 0.259944 -0.263703 
3 0 1 2
3 3 52 53
3 2 1 4
3 3 53 5
3 6 5 53
3 7 8 9
3 7 9 1
3 6 53 54
3 55 56 10
3 1 9 4
3 4 9 11
3 12 8 13
3 55 10 14
3 55 14 57
3 8 7 13
3 10 56 58
3 15 4 11
3 16 7 1
3 0 16 1
3 17 52 3
3 17 3 5
3 59 4 18
3 19 14 10
3 15 18 4
3 19 57 14
3 58 19 10
3 16 20 7
3 0 60 21
3 20 22 7
3 7 23 13
3 23 24 13
3 0 25 16
3 7 22 23
3 61 26 62
3 63 17 5
3 27 18 15
3 26 64 62
3 65 28 66
3 67 59 29
3 29 59 18
3 68 28 65
3 26 30 64
3 31 0 21
3 32 22 20
3 33 69 12
3 30 70 64
3 13 33 12
3 71 26 61
3 28 34 66
3 35 30 26
3 29 21 67
3 70 28 68
3 31 25 0
3 15 36 27
3 70 34 28
3 69 37 11
3 38 36 15
3 39 18 27
3 24 40 13
3 29 18 39
3 72 73 74
3 33 37 69
3 36 39 27
3 35 70 30
3 35 26 71
3 21 29 41
3 42 75 31
3 75 43 32
3 32 43 76
3 41 31 21
3 38 15 11
3 44 75 42
3 45 38 11
3 41 29 46
3 29 39 36
3 37 45 11
3 77 78 47
3 24 48 40
3 43 75 44
3 79 49 80
3 47 78 81
3 50 82 73
3 41 42 31
3 76 43 48
3 76 48 24
3 43 44 83
3 48 43 51
3 43 83 51
3 49 79 84
3 83 41 85
3 41 46 85
3 48 51 86
3 83 85 51
3 86 51 37
3 72 87 50
3 51 45 37
3 85 36 38
3 51 38 45
3 51 85 38
3 72 50 73
