ply
format ascii 1.0
comment INFO-3111 Flatenator generated
comment TextureFile Dungeons_Texture_01.png
element vertex 478
property float x
property float y
property float z
property float nx
property float ny
property float nz
element face 700
property list uchar int vertex_indices
end_header
1.17168 0.027854 4.99947 -0.0691188 -0.815963 -0.573958 
1.14297 0.047324 4.95243 0.0373499 -0.744102 -0.667021 
0.507799 -6.1e-05 4.99927 0.00766174 -0.832215 -0.554399 
1.34764 -9.1e-05 4.99931 -0.0348171 -0.0294541 -0.99896 
1.78146 0.047034 4.95431 0.0418736 -0.307282 -0.950697 
2.54652 0.046924 4.89611 0.252616 -0.784552 -0.566272 
2.36565 0.037949 4.9986 -0.238731 -0.827219 -0.508642 
2.50347 -0.000136 4.99934 -0.0240491 -0.0385832 -0.998966 
3.09093 0.046994 4.90767 -0.297381 -0.839248 -0.455222 
3.06639 0.028079 4.99998 0.00529066 -0.751 -0.660281 
4.31234 0.047399 4.89753 0.0149142 -0.856991 -0.515116 
3.73046 0.028074 4.99998 0.00473796 -0.728546 -0.684981 
4.10155 0.037724 4.99943 0.00552642 -0.67635 -0.73656 
3.74998 -7.1e-05 4.99927 -0.00195183 0.562942 -0.826494 
4.99998 0.037309 4.99998 -0.687437 -0.637883 -0.347184 
5 -1e-06 5 -0.335663 0.665787 -0.666377 
0.048079 0.045919 4.94944 0.182847 -0.738567 -0.648911 
5e-05 1.4e-05 4.99992 -0.398243 -0.661034 -0.635953 
1.34764 -9.1e-05 4.99931 8.03812e-05 0.00801337 -0.999968 
3.18358 -0.003126 4.99927 -0.000311441 0.568003 -0.823026 
2.27483 0.083114 4.98036 -0.0720069 -0.797977 -0.598371 
1.74759 0.085919 4.95431 0.0545453 -0.648957 -0.758867 
3.18541 0.038019 4.93671 0.228886 -0.937506 -0.262094 
0.879959 0.098029 4.91542 -0.0360242 -0.872525 -0.48724 
0.539598 0.088299 4.93897 0.017112 -0.793396 -0.608465 
1.26418 0.095299 4.80934 0.800394 -0.599162 -0.0193363 
1.13889 0.104539 4.85972 -0.476983 -0.810549 -0.339849 
1.25558 0.048734 4.92074 0.536883 -0.800788 -0.265508 
3.72834 0.046964 4.91609 -0.217268 -0.929289 -0.298691 
4.64835 -0.003241 3.37891 -0.00189758 0.999998 -0.000354158 
4.99926 -6.1e-05 4.72655 -0.83975 0.542971 0.0019559 
0.207129 0.098169 4.8452 0.048862 -0.952479 -0.30066 
0.04916 0.095604 4.82797 0.816461 -0.553647 -0.16391 
1.26234 0.081059 4.91102 0.41301 -0.511057 -0.753819 
2.39106 0.083769 4.82048 -0.662591 -0.738373 -0.125611 
3.85821 0.046309 4.87154 0.241063 -0.926018 -0.290482 
4.93603 0.047199 4.89727 -0.43826 -0.87004 -0.225741 
0 -1e-06 5 0.533486 -0.71202 -0.456531 
1.1328 -0.00324 0.89842 0.000795519 0.999997 0.00213425 
3.70144 0.096269 4.87757 -0.324992 -0.827312 -0.458187 
3.24312 0.073315 4.90176 0.0728454 -0.812855 -0.577893 
4.87307 0.098104 4.87613 -0.224495 -0.770643 -0.596416 
4.06109 0.080649 4.87385 0.0419803 -0.838379 -0.543469 
3.0571 0.086334 4.88316 -0.293423 -0.871772 -0.392323 
2.54397 0.082119 4.89819 0.645138 -0.453857 -0.614663 
3.194 0.096259 4.82236 0.526662 -0.798767 -0.290858 
3.87855 0.085409 4.81033 0.479954 -0.866067 -0.139905 
4.93423 0.076919 4.8339 -0.720126 -0.688608 -0.0850782 
2.80309 0.088034 4.84249 0.00589063 -0.9969 -0.0784613 
0.028799 0.040509 4.10172 0.854925 -0.51866 0.00976626 
2.5469 0.048189 4.42492 0.571565 -0.76296 0.302002 
3.19394 0.096264 4.42832 -7.11515e-05 -1 9.15051e-05 
4.99795 0.037304 4.5508 -0.717351 -0.696498 0.0172624 
3.74494 0.096174 4.42848 -0.657016 -0.67098 0.34368 
2.5471 0.095429 4.42816 0.00735079 -0.999722 -0.0223847 
0.049309 0.095604 4.21091 0.0119526 -0.999928 0.00106963 
4.7399 0.098174 4.50234 -0.266729 -0.959093 0.0948483 
3.09816 0.094294 4.42832 -0.829379 -0.353416 0.432697 
3.80862 0.042319 4.41402 -0.0860553 -0.95322 0.289768 
3.85699 0.047694 4.21292 0.646888 -0.762463 -0.0136121 
1.19135 0.042339 4.41251 -0.501706 -0.864877 -0.0166976 
3.89376 0.090214 4.50235 0.432209 -0.901621 -0.0165827 
3.1 0.047544 4.42733 -0.094499 -0.889487 0.447082 
3.87615 0.097949 4.08692 0.00531334 -0.999964 -0.00664136 
2.24057 0.090799 4.45494 -0.0220715 -0.999701 -0.0105532 
2.42119 0.086699 4.37884 -0.687967 -0.725665 -0.0105571 
4.91544 0.097889 4.41855 -0.0089445 -0.999825 -0.0164574 
2.42978 0.044429 4.25571 -0.845789 -0.53148 -0.0465828 
1.33076 0.046309 3.79847 0.360565 -0.914375 0.18415 
2.50512 0.036449 4.33642 0.0435293 -0.997751 -0.0509735 
4.99926 -6.1e-05 4.10155 -0.999487 -0.0314041 0.00629522 
4.93564 0.047244 4.09855 -0.743808 -0.668374 -0.00505983 
3.30015 0.042384 4.31445 -0.00692351 -0.968728 -0.248029 
3.14996 0.047449 4.29341 0.00222262 -0.897313 -0.44139 
3.73863 0.047114 4.26876 -0.22594 -0.950053 -0.215291 
1.3314 0.101974 3.80525 -0.0079683 -0.99995 -0.0060489 
3.32849 0.098169 4.2371 0.0361383 -0.952307 -0.302994 
3.70641 0.092284 4.24414 -0.354344 -0.868963 -0.345461 
3.1335 0.091499 4.23651 -0.0386364 -0.961954 -0.270467 
2.63079 0.097869 4.25133 0.164197 -0.856585 -0.489184 
2.56076 0.056989 4.29234 0.355337 -0.901533 -0.246929 
4.91835 0.098044 3.88052 -0.942818 -0.333296 -0.00289993 
2.56074 0.086364 3.40923 0.562327 -0.815851 0.134818 
2.42971 0.046479 3.88861 -0.262095 -0.950753 0.165455 
3.05851 0.097939 4.02316 -0.00661719 -0.999897 -0.0127111 
1.17939 0.095424 3.82033 0.00887965 -0.999949 0.00486937 
3.25859 0.063869 4.07655 0.0175806 -0.999258 0.0342769 
3.37238 0.081084 4.07903 0.0568927 -0.997835 -0.0329939 
0.00071 -6.1e-05 3.55467 0.911235 -0.411607 0.0151968 
5 -0.003126 3.16405 -0.98786 0.154952 -0.0110903 
0.049799 0.045544 3.82239 0.421677 -0.880875 0.215055 
3.69691 0.083744 3.94122 -0.526373 -0.850033 -0.019384 
0.156609 0.095594 3.8208 0.00767013 -0.999968 0.00213532 
1.19122 0.042309 3.80876 -0.253058 -0.938517 0.234833 
2.68785 0.097854 3.56887 0.0408788 -0.999158 0.0034398 
3.31015 0.094709 3.95733 0.113642 -0.980535 -0.160115 
2.55803 0.042319 3.63108 0.434192 -0.900779 0.00862571 
2.38459 0.092386 3.88219 -0.320379 -0.639229 0.699102 
4.62251 0.098169 3.61099 0.000308808 -1 0.000985229 
3.72079 0.097764 3.83791 -0.571073 -0.810849 -0.128064 
4.91855 0.098019 3.58953 -0.5149 -0.692602 0.505154 
3.73831 0.047159 3.5452 -0.726124 -0.68684 -0.0315437 
3.8479 0.042309 3.55473 0.159806 -0.971963 0.172485 
2.0738 0.046574 3.85073 -0.0535358 -0.807616 0.587274 
2.41814 0.044154 3.71514 -0.367765 -0.908278 -0.19945 
2.66793 0.075104 3.47486 -0.0316823 -0.996458 0.0778982 
0.721989 0.042324 3.80859 0.00339427 -0.774194 0.63294 
4.97471 0.046409 3.57129 -0.468217 -0.874117 0.129198 
2.15558 0.036374 3.71317 0.118997 -0.989491 -0.0821486 
1.96462 0.048294 3.71575 -0.126224 -0.904577 -0.407194 
3.58724 0.098209 3.24837 0.00120983 -0.99998 -0.00621783 
0.1462 0.047304 3.72527 0.138846 -0.726016 -0.673515 
1.17546 0.047194 3.72441 -0.0174418 -0.949994 -0.311781 
1.08378 0.093139 3.72215 -0.219483 -0.468336 -0.855855 
0.14744 0.094824 3.72386 0.448565 -0.621409 -0.642371 
2.4064 0.088784 3.70561 -0.382062 -0.752664 -0.536214 
1.3408 0.092469 3.72138 0.0998712 -0.392055 -0.914505 
1.89169 0.083439 3.71753 -0.239719 -0.453981 -0.858159 
0.07164 0.047324 3.66975 0.612963 -0.77985 -0.126925 
0.147469 0.09807 2.98051 0.01061 -0.99994 0.00277049 
2.908 0.097739 3.56884 0.159095 -0.972117 -0.172271 
3.85699 0.095324 3.57038 0.630192 -0.480049 0.610255 
0.826929 0.096134 3.35479 -0.209989 -0.975275 0.0688747 
2.4238 0.086229 3.53593 -0.490396 -0.860156 0.140154 
0.00071 -0.003125 2.79295 0.945449 0.325662 -0.00837504 
0.09362 0.086989 3.50587 0.482653 -0.875228 -0.0319642 
0.017439 0.030249 3.08592 0.637665 -0.770141 -0.0163022 
2.42587 0.095245 2.55694 -0.00562765 -0.999943 -0.0090322 
1.1347 0.099563 3.40541 0.000488966 -0.999991 -0.00416839 
2.44085 0.042274 3.45608 -0.118165 -0.99223 0.038945 
4.41294 0.047504 3.56931 0.00036143 -0.864952 0.501855 
2.42068 0.050354 3.31833 -0.365613 -0.922523 -0.123606 
2.55794 0.042319 3.22267 0.368874 -0.929479 -0.000763663 
3.80865 0.042319 3.20315 -0.0305135 -0.999534 -3.36492e-05 
4.6693 0.047929 3.39301 -0.39554 -0.871273 -0.290571 
4.36554 0.047594 3.37911 0.144233 -0.351087 -0.925168 
2.64866 0.098174 3.24846 0.0371976 -0.99881 -0.0315312 
3.73641 0.104674 3.27202 -0.298637 -0.10335 -0.948754 
4.04381 0.042774 3.32028 0.22357 -0.496589 -0.838699 
2.42217 0.091054 3.23123 -0.784629 -0.564779 -0.2557 
4.66281 0.073824 3.43368 -0.659086 0.171918 -0.732154 
4.05212 0.122684 3.3312 0.175893 0.105166 -0.978776 
3.73837 0.047184 3.23474 -0.978597 0.0104841 -0.205521 
4.97668 0.042319 3.10249 -0.420269 -0.907399 -7.44469e-05 
4.7572 0.04682 2.88938 -0.548916 -0.832208 -0.0782387 
1.02956 0.09811 2.5705 0.00205456 -0.999995 0.00223449 
3.62098 0.155379 3.25614 0.533474 -0.170363 -0.828482 
2.44128 0.04231 2.53907 -0.330183 -0.934548 0.132664 
0.696449 0.097485 2.88496 0.00251855 -0.99999 0.00362189 
4.19982 0.0423 3.02771 0.360466 -0.896439 0.257799 
0.099619 0.090675 2.96119 0.653893 -0.756585 0.00177315 
3.76306 0.078284 3.17718 -0.346275 0.927323 0.142006 
0.07378 0.045505 2.55947 0.375213 -0.870883 0.317457 
0.4965 0.097495 2.9254 0.00200129 -0.999997 0.00130518 
4.19381 0.07837 2.49022 0.0702641 0.986774 -0.146085 
2.5638 0.09516 2.57736 0.819379 -0.330626 0.4683 
3.73912 0.046995 2.577 -0.260503 -0.95456 0.14475 
2.55745 0.04232 2.59672 0.243093 -0.869279 0.430418 
4.99942 0.037725 2.65623 -0.643178 -0.765456 -0.0199632 
4.28555 0.05048 2.94455 0.242382 0.945023 0.219505 
4.28639 0.14404 2.4941 -0.0693071 -0.996598 -0.0446072 
4.76896 0.092505 2.59937 -0.0960651 -0.993957 -0.0531088 
0.44157 0.095095 2.5571 0.00186196 -0.999983 0.0054386 
5 -0.002865 2.3828 -0.71197 0.70221 0.000100829 
3.72226 0.10868 2.57201 0.428293 0.469793 0.77192 
4.40003 0.05037 2.74828 0.188378 -0.976763 0.102217 
4.56583 0.1218 2.53059 -0.0954938 -0.993609 -0.0601764 
0.094028 0.085585 2.57214 0.491821 -0.770415 0.405676 
3.77784 0.18235 2.39684 0.797471 -0.172718 0.578107 
0.276119 0.09521 2.55708 0.0178035 -0.999767 0.0121878 
4.81686 0.037615 2.54586 -0.144232 -0.981772 0.123777 
4.92761 0.046425 2.47343 -0.19817 -0.900477 -0.38713 
4.49364 0.0441 2.59863 0.828382 -0.306211 0.469061 
4.99952 0.037705 1.75783 -0.544782 -0.838463 0.0138537 
4.28379 0.04733 2.47401 -0.00982214 -0.744675 -0.667355 
0.0005 0.03776 2.48044 0.552079 -0.830815 -0.0703944 
0.349789 0.040095 2.55668 -0.00433243 -0.645881 0.763426 
1.45138 0.047485 2.55643 0.00601314 -0.796867 0.604124 
4.5295 0.05671 2.51615 -0.0477043 0.114857 0.992236 
1.06689 0.046745 2.47851 0.250403 -0.966586 0.0548584 
2.57451 0.0472 2.47447 -0.102981 -0.890858 -0.442455 
2.86844 0.04718 2.47433 0.00810323 -0.669888 -0.742418 
4.53048 0.042545 2.49881 0.175812 -0.970734 0.1636 
3.76906 0.09684 2.47313 0.396234 -0.347946 -0.849666 
0.45034 0.045875 2.46166 0.028357 -0.856019 -0.516167 
3.6227 0.047225 2.47451 0.00271849 -0.583975 -0.811767 
4.46344 0.09511 2.47543 -0.548873 -0.540791 0.637404 
4.70517 0.09479 2.473 -0.0304755 -0.164412 -0.985921 
4.68603 0.04525 2.47826 -0.00388795 -0.685787 -0.727792 
3.54768 0.094395 2.47098 -0.0133561 -0.603974 -0.796892 
4.89759 0.08755 2.46282 -0.844894 -0.241669 -0.477231 
2.7758 0.08048 2.46516 0.104902 -0.715648 -0.690539 
2.57402 0.095615 2.47268 0.533859 -0.612684 -0.582763 
2.94149 0.09447 2.46911 0.0519503 -0.522044 -0.851335 
1.88645 0.04768 2.43642 -0.0185906 -0.800564 -0.598959 
3.82143 0.10818 2.39317 0.420342 -0.534684 0.733093 
2.14195 0.098855 2.40402 -0.0275866 -0.879513 -0.475074 
1.08123 0.09604 2.475 0.277236 -0.695311 -0.663086 
0.087679 0.087555 2.36783 0.429262 -0.87061 -0.240358 
1.61206 0.108225 2.36881 -0.0119054 -0.996229 -0.0859445 
0.22142 0.09816 2.39195 0.141861 -0.75025 -0.645756 
0.474419 0.09605 2.42591 0.0498254 -0.595306 -0.801953 
0.848999 0.09587 2.42556 -0.341837 -0.473365 -0.811833 
0.90074 0.045145 2.42538 -0.154773 -0.915121 -0.372288 
2.52262 0.095575 2.39647 -0.212337 -0.886662 -0.410784 
-1.1e-05 0.028105 2.26561 0.834247 -0.551221 0.013693 
3.74669 0.084585 2.23814 0.0472811 -0.998724 0.0177762 
1.37662 0.09667 2.16227 0.0121373 -0.999567 0.0268072 
2.52884 0.042475 2.2012 -0.138455 -0.990194 0.0186233 
1.53247 0.047085 1.98128 0.428813 -0.811427 0.397122 
2.51451 0.09565 2.26602 -0.597243 -0.800194 0.0546882 
2.57446 0.096115 2.1262 0.694624 -0.712616 -0.0983674 
1.13472 0.043205 2.1899 -0.484729 -0.795175 -0.364327 
4.92567 0.0966 2.08335 -0.172777 -0.98445 0.0317333 
2.12045 0.098175 2.10171 -0.00227827 -0.999909 0.0133238 
0.00071 -0.003125 1.54295 0.725878 0.687819 0.00252139 
1.15785 0.124692 1.49659 0.00442639 -0.999955 -0.00833892 
1.21871 0.096285 2.06502 -0.729861 -0.613638 -0.30125 
3.74656 0.08788 2.08239 -0.0624739 -0.997824 -0.0210574 
4.92813 0.04652 1.73894 -0.487111 -0.84319 0.227493 
3.03337 0.095085 1.73938 -0.00628108 -0.999979 0.00157337 
2.49496 0.09576 1.93932 -0.978976 -0.194046 0.0628694 
5 -0.002725 1.09373 -0.988574 0.150734 0.000681135 
0.071699 0.04716 1.67343 0.549021 -0.835794 -0.00488853 
4.11748 0.09504 1.73938 0.0108786 -0.999928 -0.0050181 
2.57462 0.04721 1.73821 0.339897 -0.858749 0.383433 
1.32657 0.041645 1.99139 -0.238547 -0.927313 -0.288421 
4.27733 -0.00324 0.37108 -0.00122999 0.999995 0.00306945 
1.62101 0.09535 1.88854 0.00166185 -0.999986 0.00513978 
1.26874 0.078455 1.88021 -0.33433 -0.917974 -0.213418 
2.57517 0.09487 1.73938 0.706301 -0.025519 0.707452 
0.09861 0.089765 1.41695 0.562744 -0.826629 -0.00203249 
4.83411 0.098175 1.75102 -0.118447 -0.992543 0.0288008 
2.48068 0.095405 1.65444 -0.00068139 -0.999997 0.0022997 
3.98818 0.08258 1.74676 0.0282736 -0.648507 0.760683 
2.48222 0.047565 1.65363 -0.659711 -0.751019 0.0274093 
1.47076 0.097935 1.81163 -0.120187 -0.956424 -0.266097 
0.005629 0.03541 1.60156 0.768219 -0.640162 -0.00565602 
1.25556 0.076425 1.43828 -0.115116 -0.993245 0.0145487 
1.85976 0.047005 1.627 0.518353 -0.703533 0.48616 
2.07035 0.09528 1.40366 0.000407303 -1 -0.000167998 
3.69644 0.047315 1.73864 -0.00153577 -0.731639 0.681691 
4.01166 0.0473 1.73872 0.00860094 -0.714064 0.700028 
4.52284 0.047225 1.7388 0.0003492 -0.716622 0.697461 
4.19951 0.036215 1.68736 0.0141123 -0.958742 -0.283927 
3.88576 0.043435 1.66004 -0.00976857 -0.957883 -0.286991 
4.92883 0.045675 1.62959 -0.368805 -0.92265 -0.112696 
3.16411 0.04232 1.68008 0.0068698 -0.915274 -0.402773 
2.57074 0.051405 1.633 0.391552 -0.901246 -0.185588 
4.85302 0.098145 1.61359 -0.240025 -0.744058 -0.62351 
4.46661 0.09339 1.62096 0.123783 -0.971364 -0.202807 
2.59161 0.098065 1.61365 0.302625 -0.803282 -0.512987 
3.71909 0.100905 1.60684 -0.00963186 -0.857941 -0.513659 
4.28563 0.06197 1.62978 -0.0030216 -0.931639 -0.363373 
4.15751 0.104595 1.58998 -0.146824 -0.969595 -0.195776 
2.07254 0.042435 1.24746 -0.42765 -0.789021 -0.441092 
1.45439 0.098175 0.98909 0.0884868 -0.99606 -0.00585069 
3.56624 0.110493 1.50128 0.00329318 -0.995454 -0.095189 
0.074179 0.07685 0.91711 0.543312 -0.839528 -0.00219502 
1.94254 0.0981 1.35698 -0.664521 -0.30287 -0.683141 
2.57439 0.09551 0.76597 0.772508 -0.619197 0.140808 
4.6689 0.098175 1.36044 -0.00462403 -0.999989 3.6386e-05 
0.00071 -0.003125 1.54295 0.790951 0.611853 0.00564807 
4.26235 0.06989 1.41735 -0.0320654 -0.999484 -0.00171947 
4.90071 0.088985 1.28092 -0.587623 -0.809113 0.0059949 
4.0808 0.098175 1.22518 -0.245675 -0.967726 0.0561263 
2.46041 0.04231 0.99626 -0.049892 -0.971344 0.232382 
0.01882 -0.003125 1.28905 0.0740661 0.997251 0.00229701 
1.2788 0.078685 1.20421 0.0616166 -0.998045 -0.0104533 
4.42986 0.098175 1.26189 -0.00440217 -0.999947 -0.0093521 
2.57385 0.04746 0.83639 0.765534 -0.643279 0.0122068 
2.44317 0.095775 1.00456 0.000676453 -1 -0.000608384 
1.17529 0.075565 1.06725 -0.270691 -0.962457 0.0200517 
4.26661 0.081155 1.16287 0.189372 -0.980896 -0.0445004 
0.01882 -0.003125 1.11327 0.172773 0.984427 0.0324451 
3.41337 0.098175 0.76865 -0.0034292 -0.999923 0.0119227 
4.99998 0.02807 0.8203 -0.646247 -0.763127 0.00136166 
0.00071 -6e-05 1.21092 0.809684 0.586842 0.00531991 
4.92823 0.047215 1.08485 -0.58592 -0.810351 0.00530801 
1.12388 0.098175 0.77269 -0.512011 -0.858659 0.0234544 
0.275099 0.098175 0.38427 0.0025561 -0.999981 0.0056551 
0.140839 0.097785 0.37977 0.00828559 -0.999952 0.00524058 
2.42538 0.095895 0.89513 -0.902027 -0.219685 -0.371598 
4.15045 0.06227 0.91029 -0.0153938 -0.999721 -0.0179081 
4.87085 0.098175 0.67128 -0.724304 -0.689335 -0.0141406 
2.44142 0.04232 0.89781 -0.40822 -0.896078 -0.174358 
0.00071 -6e-05 1.21092 0.949723 -0.311481 0.0317087 
1.33376 0.094505 0.5754 0.116698 -0.993149 -0.00609029 
4.01383 0.098175 0.75145 -0.0986111 -0.984453 0.145353 
0.011549 0.033545 0.70313 0.75269 -0.658194 0.0154782 
3.0078 -6e-05 0.0007 -0.000654027 0.706216 0.707996 
2.57378 0.04742 0.57984 0.637202 -0.770175 -0.0283571 
1.14096 0.098175 0.30163 -0.116218 -0.992759 0.0303868 
4.1 0.078985 0.63767 0.0472932 -0.99815 -0.0382049 
5 0 0.46873 -0.994537 -0.102607 0.0191729 
1.2569 0.082015 0.24389 0.0455823 -0.998523 0.0295473 
2.68644 0.07632 0.69755 -0.00262863 -0.9774 0.211382 
1.37476 0.098175 0.26378 0.0659279 -0.996834 0.0444578 
4.3749 0.098175 0.49822 0.0512548 -0.998678 -0.00379769 
3.78708 0.080915 0.72041 0.0174998 -0.982171 0.187174 
2.58165 0.06032 0.61623 0.631998 -0.774267 -0.0330079 
3.95319 0.081625 0.63808 0.000266947 -0.999688 -0.0249834 
4.92817 0.04715 0.56519 -0.597718 -0.801612 -0.012319 
2.42647 0.04752 0.59863 -0.632368 -0.774622 0.00849203 
3.51103 0.075415 0.63591 0.0110717 -0.995725 -0.0917041 
0 0 0 0.849841 -0.0307151 0.526144 
3.58461 0.0977 0.51727 -0.000680761 -0.993902 -0.110267 
2.41671 0.087785 0.0791 -0.735553 -0.546654 0.400165 
4.90826 0.098075 0.28348 -0.391026 -0.919559 0.0388751 
2.57431 0.095785 0.54128 0.677291 -0.687935 -0.260813 
0.081369 0.081725 0.36814 0.530689 -0.846595 0.0405617 
4.13586 0.098175 0.3999 -0.0603828 -0.992605 -0.105308 
4.54012 0.09783 0.14826 -0.030255 -0.999443 0.0140554 
2.30467 -0.003125 0 -0.00125344 0.702989 0.7112 
0.070839 0.046955 0.07482 0.437175 -0.830008 0.346359 
4.44774 0.08282 0.28186 -0.0210548 -0.998854 -0.0429861 
2.57685 0.09487 0.22288 0.948025 -0.307481 0.0818758 
2.57493 0.047155 0.05215 0.278785 -0.851382 0.444328 
0.299068 0.09813 0.26217 0.00549268 -0.999887 0.0139708 
0.88274 0.095155 0.07454 0.000472701 -0.99989 0.0148507 
3.38393 0.09292 0.10686 0.00118128 -0.999937 0.0111917 
0.149858 0.09124 0.08001 0.0122044 -0.999539 0.0278096 
4.85207 0.089165 0.13046 -0.121148 -0.988361 0.0920114 
4.98409 0.02144 0.01374 -0.44675 -0.820675 0.356241 
1.22715 0.06983 0.08829 0.0144622 -0.86783 0.49665 
5 0 0 -0.31862 0.0119819 0.947807 
3.09066 0.09154 0.05222 0.00272312 -0.999613 0.0277035 
1.7882 0.090545 0.10986 -0.00958426 -0.636992 0.77081 
2.6308 0.08945 0.05519 0.00476072 -0.999416 0.0338343 
3.89699 0.08493 0.05683 -0.00367567 -0.72114 0.69278 
2.42569 0.0474 0.07369 -0.164558 -0.900473 0.402577 
1.43385 0.08488 0.07664 0.0313352 -0.762065 0.646742 
4.79709 0.082475 0.05535 -0.0513154 -0.826894 0.560011 
0.882069 0.047305 0.07391 -0.00791814 -0.740509 0.672 
1.19446 0.047395 0.07369 0.0243808 -0.770438 0.637049 
2.03124 0.03773 0.00055 1.7697e-05 -0.664146 0.747603 
3.05337 0.0475 0.04955 0.00177743 -0.767279 0.641311 
3.56717 0.0475 0.04955 -0.00137912 -0.682965 0.730449 
4.57808 0.047535 0.04955 0.0104617 -0.58237 0.812856 
0.078199 0.037705 0.00059 0.113013 -0.765005 0.634031 
1.01562 0.037755 0.00053 -0.0375583 -0.723414 0.689392 
2.59766 0.037755 0.0005 0.00491297 -0.730273 0.683138 
3.47656 0.037725 0.00054 -1.89421e-05 -0.632529 0.774537 
4.10156 0.037725 0.00054 -0.00865919 -0.695311 0.718657 
0.917959 -0.003125 0 0.000953701 0.546739 0.837303 
1.24999 -0.003125 0 0.0433202 0.107985 0.993208 
3.6328 -6e-05 0.0007 0.000130441 0.553706 0.832712 
1.32812 0.037755 0.00053 0.133817 -0.664768 0.734967 
3.194 0.096259 4.82236 2.1085e-05 -1 -1.26906e-05 
3.70144 0.096269 4.87757 -7.11515e-05 -1 9.15051e-05 
2.80309 0.088034 4.84249 0.00362226 -0.999776 -0.0208714 
2.54397 0.082119 4.89819 0.0167553 -0.999462 -0.0281905 
0.207129 0.098169 4.8452 0.0119526 -0.999928 0.00106963 
0.04916 0.095604 4.82797 0.0162348 -0.999868 3.92024e-06 
3.74494 0.096174 4.42848 -0.000163388 -1 0.000195701 
3.19394 0.096264 4.42832 0.536989 -0.49251 0.684892 
2.5471 0.095429 4.42816 0.444398 -0.0420965 0.89484 
4.7399 0.098174 4.50234 0.00146702 -0.999865 -0.0163637 
4.06109 0.080649 4.87385 0.0168622 -0.999724 -0.0163492 
4.87307 0.098104 4.87613 0.0215132 -0.999738 -0.00785175 
3.0571 0.086334 4.88316 -0.0038345 -0.999834 -0.0178439 
3.09816 0.094294 4.42832 -0.00294455 -0.999848 -0.0172101 
3.87615 0.097949 4.08692 0.686768 -0.72594 -0.0368927 
0.049309 0.095604 4.21091 0.797082 -0.600667 0.0621303 
4.93423 0.076919 4.8339 -0.0251402 -0.998469 -0.049273 
4.91544 0.097889 4.41855 -0.973285 -0.229146 0.01441 
2.24057 0.090799 4.45494 -0.00854127 -0.999926 -0.00869687 
1.26418 0.095299 4.80934 -0.00844171 -0.999909 -0.010561 
2.27483 0.083114 4.98036 -0.00968704 -0.999855 -0.0139926 
2.63079 0.097869 4.25133 0.0227798 -0.999721 -0.00620042 
3.1335 0.091499 4.23651 -0.0134166 -0.999586 -0.025457 
1.3314 0.101974 3.80525 0.38275 -0.141582 0.912939 
0.879959 0.098029 4.91542 0.0134022 -0.999892 0.00604311 
1.13889 0.104539 4.85972 0.0272453 -0.999581 0.00982749 
3.05851 0.097939 4.02316 -0.251129 -0.952299 0.17338 
0.207129 0.098169 4.8452 -0.000304363 -0.999997 0.00238964 
1.17939 0.095424 3.82033 -0.631699 -0.401414 0.663191 
0.156609 0.095594 3.8208 0.18348 -0.467196 0.864906 
2.38459 0.092386 3.88219 -0.00874031 -0.99995 -0.00496855 
0.156609 0.095594 3.8208 -0.000165054 -0.999997 0.0025218 
4.91835 0.098044 3.88052 -0.000329878 -1 -0.000101684 
2.56074 0.086364 3.40923 0.0815058 -0.996649 0.00683654 
2.68785 0.097854 3.56887 -0.312277 -0.906095 0.28544 
3.72079 0.097764 3.83791 0.00677368 -0.999974 -0.00228925 
3.31015 0.094709 3.95733 0.00238316 -0.999989 -0.00400532 
0.14744 0.094824 3.72386 -0.00180752 -0.999989 -0.00436674 
1.08378 0.093139 3.72215 0.00043113 -0.999974 -0.00719291 
4.91855 0.098019 3.58953 -0.000500493 -1 8.55858e-05 
2.908 0.097739 3.56884 0.0450378 -0.998191 -0.0398154 
0.147469 0.09807 2.98051 0.15476 -0.987952 0.000506209 
1.3408 0.092469 3.72138 -0.0145885 -0.999766 -0.0159775 
3.85699 0.095324 3.57038 0.00345357 -0.999982 0.00495368 
1.1347 0.099563 3.40541 0.148193 -0.972694 -0.178619 
0.826929 0.096134 3.35479 0.00470183 -0.999954 -0.00838607 
4.62251 0.098169 3.61099 0.00232227 -0.641017 0.767523 
1.89169 0.083439 3.71753 -0.00390568 -0.999921 -0.0119693 
2.66793 0.075104 3.47486 0.136618 -0.984281 -0.111926 
3.58724 0.098209 3.24837 0.727774 -0.63964 -0.247397 
2.42217 0.091054 3.23123 0.00870041 -0.999943 -0.00616734 
2.64866 0.098174 3.24846 0.541739 -0.834875 -0.0974808 
2.42587 0.095245 2.55694 -0.410923 -0.346463 0.843271 
4.05212 0.122684 3.3312 -0.0833229 -0.99531 -0.0491439 
3.62098 0.155379 3.25614 -0.0673143 -0.996764 -0.0439469 
4.66281 0.073824 3.43368 -0.0744118 -0.996721 -0.031785 
4.76896 0.092505 2.59937 -0.666496 -0.60495 0.435681 
3.77784 0.18235 2.39684 -0.0667775 -0.99682 -0.0434773 
0.094028 0.085585 2.57214 0.0546967 -0.99823 0.0233608 
3.72226 0.10868 2.57201 0.00586011 -0.999964 -0.00622987 
2.5638 0.09516 2.57736 0.0116837 -0.999927 0.00301341 
0.44157 0.095095 2.5571 -0.0115308 0.0116048 0.999866 
1.02956 0.09811 2.5705 -0.00399593 -0.140687 0.990046 
4.56583 0.1218 2.53059 -0.351364 -0.26038 0.899303 
0.276119 0.09521 2.55708 0.0356998 -0.116554 0.992543 
4.28639 0.14404 2.4941 -0.156585 -0.556891 0.815692 
1.61206 0.108225 2.36881 0.00716229 -0.999549 0.0291511 
1.08123 0.09604 2.475 0.0277867 -0.99932 0.0242328 
1.37662 0.09667 2.16227 0.726286 -0.148244 0.671217 
4.46344 0.09511 2.47543 -0.00537778 -0.999229 0.0388825 
3.74669 0.084585 2.23814 -0.012293 -0.996611 0.0813365 
3.82143 0.10818 2.39317 -0.0418267 -0.984554 0.17001 
4.70517 0.09479 2.473 -0.013497 -0.999835 -0.0121194 
4.89759 0.08755 2.46282 -0.0389972 -0.998882 -0.0267081 
0.474419 0.09605 2.42591 -0.00900514 -0.999579 -0.0275844 
0.22142 0.09816 2.39195 0.0144023 -0.99979 -0.0145637 
1.21871 0.096285 2.06502 -0.0115968 -0.999631 -0.0245679 
0.848999 0.09587 2.42556 -0.000482071 -0.999999 -0.00164538 
4.92567 0.0966 2.08335 -0.928401 0.366711 -0.059954 
2.57446 0.096115 2.1262 -0.00141821 -0.999999 0.000980211 
2.94149 0.09447 2.46911 -0.00420814 -0.999981 0.00447382 
3.74656 0.08788 2.08239 -0.00748785 -0.999947 0.00700254 
3.54768 0.094395 2.47098 -0.000175148 -0.999861 0.0166738 
2.51451 0.09565 2.26602 -0.00937264 -0.999931 0.00711193 
2.49496 0.09576 1.93932 -0.00610489 -0.999981 0.000791956 
1.62101 0.09535 1.88854 0.736512 -0.0620068 0.673576 
4.11748 0.09504 1.73938 0.0472209 -0.400982 0.914868 
2.57517 0.09487 1.73938 0.000469228 -0.999995 0.00321939 
2.48068 0.095405 1.65444 -0.990715 -0.12778 0.0464285 
4.92813 0.04652 1.73894 -0.465503 -0.876303 0.124097 
3.98818 0.08258 1.74676 -0.0131443 -0.999894 0.00632686 
3.03337 0.095085 1.73938 -0.00332477 -0.064686 0.9979 
2.07035 0.09528 1.40366 0.729043 0.0347839 0.683583 
4.83411 0.098175 1.75102 -0.00809938 -0.186159 0.982486 
1.15785 0.124692 1.49659 -0.506222 -0.860938 0.0502481 
0.09861 0.089765 1.41695 0.0229754 -0.999734 -0.00186082 
4.46661 0.09339 1.62096 0.00893455 -0.999895 -0.0114276 
4.85302 0.098145 1.61359 -0.0098051 -0.999927 0.00701293 
2.57439 0.09551 0.76597 0.00809612 -0.999923 0.00945407 
2.59161 0.098065 1.61365 0.0130673 -0.999911 0.00274837 
3.56624 0.110493 1.50128 -0.00256069 -0.999888 0.0147129 
4.90071 0.088985 1.28092 -0.0253436 -0.999669 0.00441164 
1.94254 0.0981 1.35698 -0.00106502 -0.999999 0.000421348 
1.45439 0.098175 0.98909 -5.01138e-05 -1 -0.000137363 
1.47076 0.097935 1.81163 6.72677e-05 -1 -0.000293115 
4.0808 0.098175 1.22518 -0.00881175 -0.999873 0.0133138 
4.15751 0.104595 1.58998 -0.0130222 -0.999708 0.0203319 
4.42986 0.098175 1.26189 0.0687302 -0.997615 0.00641959 
4.6689 0.098175 1.36044 -0.0216045 -0.998392 0.0524033 
2.44317 0.095775 1.00456 -0.283599 -0.235746 0.929514 
0.140839 0.097785 0.37977 0.33699 -0.940836 0.0355737 
1.12388 0.098175 0.77269 -0.00856004 -0.999788 0.0187055 
4.01383 0.098175 0.75145 0 -1 0 
4.87085 0.098175 0.67128 -0.00634302 -0.999969 -0.00463132 
3.41337 0.098175 0.76865 0.00383792 -0.941403 0.337263 
1.37476 0.098175 0.26378 -0.00381885 -0.999985 0.00386064 
1.14096 0.098175 0.30163 0.000572469 -0.999982 0.00599803 
2.42538 0.095895 0.89513 -0.00564451 -0.999967 0.00578174 
4.3749 0.098175 0.49822 -4.35229e-05 -1 0.000124727 
4.90826 0.098075 0.28348 -8.70457e-05 -1 0.000249453 
2.57431 0.095785 0.54128 7.09434e-05 -0.999977 0.00672707 
3.58461 0.0977 0.51727 0.00302244 -0.999944 0.0101683 
0.88274 0.095155 0.07454 -0.0328999 -0.348055 0.936897 
2.41671 0.087785 0.0791 -0.00819405 -0.999916 0.0100246 
4.54012 0.09783 0.14826 0.0038977 -0.999945 0.00974038 
0.149858 0.09124 0.08001 0.326215 -0.661244 0.675529 
2.57685 0.09487 0.22288 0.00114704 -0.999811 0.0194228 
3.38393 0.09292 0.10686 -0.00482793 -0.994004 0.109236 
3.09066 0.09154 0.05222 -0.000718696 -0.313108 0.949717 
2.6308 0.08945 0.05519 0.368347 -0.540919 0.756127 
3 0 1 2
3 0 3 4
3 5 6 7
3 8 7 9
3 10 11 12
3 4 3 7
3 6 4 7
3 12 11 13
3 14 12 15
3 16 17 2
3 0 2 18
3 9 7 19
3 12 13 15
3 3 0 18
3 11 9 19
3 13 11 19
3 20 21 4
3 6 20 4
3 1 16 2
3 22 9 11
3 23 24 1
3 25 21 20
3 26 23 1
3 0 26 1
3 24 16 1
3 27 0 4
3 8 5 7
3 10 28 11
3 29 19 7
3 30 14 15
3 31 32 16
3 33 21 25
3 34 20 6
3 4 21 33
3 33 27 4
3 35 28 10
3 10 12 36
3 14 36 12
3 37 2 17
3 38 7 3
3 38 29 7
3 29 15 13
3 24 31 16
3 39 40 28
3 40 22 28
3 8 9 22
3 11 28 22
3 18 2 37
3 38 3 18
3 13 19 29
3 41 42 10
3 41 10 36
3 43 44 8
3 44 5 8
3 10 42 35
3 23 31 24
3 39 45 40
3 46 35 42
3 47 41 36
3 43 48 44
3 32 49 16
3 44 50 5
3 51 348 349
3 40 45 22
3 16 37 17
3 52 36 14
3 30 15 29
3 33 25 27
3 5 50 6
3 53 39 28
3 350 54 351
3 52 14 30
3 352 55 353
3 47 56 41
3 43 8 57
3 58 28 35
3 354 51 349
3 45 355 22
3 46 59 35
3 60 0 27
3 42 61 46
3 44 356 50
3 22 62 8
3 357 63 358
3 26 0 60
3 59 58 35
3 359 357 358
3 34 64 20
3 360 361 350
3 362 61 42
3 65 64 34
3 363 49 32
3 37 16 49
3 66 357 364
3 57 8 62
3 34 6 67
3 47 36 365
3 68 60 27
3 61 59 46
3 38 18 37
3 361 54 350
3 25 68 27
3 69 6 50
3 366 367 368
3 65 34 67
3 355 62 22
3 53 28 58
3 29 70 30
3 355 53 58
3 57 62 356
3 50 356 62
3 62 355 58
3 69 67 6
3 52 71 36
3 72 73 62
3 74 72 58
3 62 69 50
3 58 72 62
3 52 30 70
3 366 75 367
3 73 69 62
3 365 36 71
3 76 74 77
3 78 79 73
3 76 72 74
3 79 80 73
3 69 73 80
3 76 73 72
3 81 365 71
3 76 78 73
3 70 71 52
3 59 74 58
3 79 82 80
3 61 362 59
3 80 83 69
3 84 369 370
3 25 371 68
3 85 372 373
3 83 67 69
3 86 78 76
3 87 86 76
3 88 38 37
3 29 89 70
3 363 90 49
3 86 374 78
3 372 85 375
3 65 67 83
3 91 77 74
3 92 55 352
3 376 26 60
3 68 93 60
3 94 369 84
3 91 76 77
3 95 86 87
3 80 82 96
3 80 96 83
3 97 64 65
3 91 87 76
3 98 63 357
3 97 65 83
3 49 88 37
3 99 87 91
3 66 98 357
3 99 95 87
3 60 93 376
3 377 90 363
3 378 75 366
3 100 81 71
3 91 74 101
3 102 74 59
3 99 91 101
3 88 49 90
3 85 379 375
3 380 98 66
3 97 83 103
3 104 103 83
3 96 104 83
3 101 74 102
3 371 97 103
3 86 105 374
3 377 376 106
3 376 93 106
3 100 71 107
3 377 106 90
3 371 103 68
3 104 108 103
3 103 109 68
3 94 381 369
3 105 382 374
3 95 105 86
3 383 110 384
3 70 107 71
3 111 90 106
3 112 111 106
3 112 106 93
3 108 109 103
3 113 114 111
3 115 108 104
3 116 112 109
3 117 116 109
3 112 113 111
3 118 88 90
3 118 90 111
3 93 68 112
3 68 109 112
3 119 385 386
3 120 105 95
3 380 387 98
3 111 114 118
3 362 121 59
3 388 384 110
3 112 122 113
3 123 108 115
3 124 38 88
3 389 125 114
3 114 125 118
3 121 102 59
3 126 88 118
3 127 128 390
3 98 391 63
3 129 108 123
3 107 70 89
3 392 112 116
3 129 109 108
3 393 119 386
3 123 115 104
3 121 394 130
3 121 130 102
3 394 100 130
3 100 107 130
3 96 129 104
3 131 109 129
3 123 104 129
3 96 132 129
3 102 133 101
3 82 132 96
3 127 390 395
3 112 392 122
3 134 135 130
3 107 134 130
3 388 136 396
3 137 397 99
3 99 101 137
3 138 130 135
3 139 109 131
3 105 82 382
3 140 135 134
3 140 141 135
3 130 138 102
3 127 395 398
3 132 131 129
3 137 101 142
3 141 138 135
3 143 144 107
3 126 124 88
3 127 145 128
3 82 105 132
3 101 133 142
3 133 102 138
3 141 146 137
3 141 137 138
3 110 136 388
3 138 137 142
3 146 397 137
3 105 399 132
3 132 147 131
3 145 148 128
3 149 133 138
3 89 143 107
3 125 150 118
3 142 151 138
3 140 134 144
3 389 150 125
3 139 131 147
3 126 118 152
3 107 144 134
3 153 119 393
3 400 139 147
3 151 149 138
3 151 154 149
3 118 150 152
3 128 153 393
3 399 155 132
3 151 142 156
3 157 147 132
3 158 143 89
3 148 153 128
3 159 149 154
3 149 156 133
3 155 157 132
3 401 160 402
3 401 403 161
3 404 140 144
3 148 162 153
3 158 89 163
3 164 154 151
3 29 163 89
3 165 149 159
3 161 166 401
3 389 167 150
3 142 133 156
3 146 168 397
3 153 169 119
3 167 152 150
3 404 144 170
3 143 170 144
3 158 170 143
3 160 405 402
3 164 151 156
3 149 165 156
3 162 169 153
3 168 164 397
3 169 406 119
3 154 165 159
3 158 171 170
3 165 154 172
3 407 408 136
3 407 136 110
3 145 162 148
3 173 158 163
3 155 164 157
3 157 164 156
3 174 156 165
3 126 175 124
3 401 166 160
3 409 410 176
3 410 400 177
3 411 404 178
3 176 410 177
3 177 400 147
3 167 412 152
3 412 409 176
3 178 404 170
3 412 176 152
3 154 178 172
3 179 176 177
3 180 147 157
3 156 181 157
3 182 172 178
3 173 171 158
3 164 183 154
3 175 126 152
3 184 152 176
3 185 181 156
3 174 165 172
3 182 174 172
3 186 411 178
3 184 175 152
3 181 180 157
3 182 178 170
3 413 411 186
3 187 186 188
3 183 189 185
3 187 188 171
3 190 187 171
3 191 180 181
3 191 181 193
3 178 154 174
3 189 193 181
3 185 189 181
3 183 185 174
3 154 183 174
3 174 186 178
3 186 174 188
3 194 177 147
3 156 174 185
3 182 188 174
3 182 170 188
3 170 171 188
3 168 195 164
3 164 195 183
3 196 197 194
3 194 197 179
3 184 198 175
3 179 184 176
3 177 194 179
3 199 197 196
3 200 198 184
3 201 200 184
3 202 201 184
3 202 184 203
3 203 184 179
3 180 194 147
3 186 195 413
3 204 196 194
3 175 205 124
3 195 168 413
3 204 194 180
3 206 189 183
3 195 206 183
3 414 207 415
3 192 208 180
3 179 197 416
3 209 203 179
3 210 196 204
3 191 208 192
3 193 211 191
3 210 199 196
3 417 418 419
3 210 204 180
3 202 203 212
3 179 416 209
3 205 175 198
3 213 420 421
3 210 180 208
3 414 214 207
3 211 208 191
3 212 203 209
3 205 215 124
3 422 216 423
3 202 212 217
3 218 189 206
3 424 422 425
3 426 190 219
3 219 190 171
3 220 427 428
3 429 428 430
3 221 210 208
3 173 163 222
3 214 414 431
3 432 214 431
3 205 198 223
3 417 224 418
3 211 225 208
3 220 428 429
3 209 226 212
3 173 219 171
3 227 222 163
3 214 228 207
3 217 212 229
3 416 433 209
3 211 230 225
3 200 231 198
3 420 232 417
3 212 226 229
3 29 227 163
3 216 422 424
3 233 214 432
3 213 232 420
3 198 231 223
3 234 206 434
3 234 218 206
3 221 208 235
3 229 226 236
3 235 208 225
3 215 38 124
3 237 205 223
3 205 237 215
3 220 435 427
3 436 221 235
3 236 238 229
3 228 214 233
3 209 433 239
3 239 226 209
3 238 217 229
3 232 213 437
3 240 228 233
3 438 220 429
3 224 417 232
3 439 234 241
3 239 433 440
3 234 434 242
3 243 441 219
3 230 439 225
3 434 243 242
3 434 441 243
3 439 241 225
3 241 234 242
3 244 242 243
3 245 241 242
3 246 244 243
3 246 243 219
3 247 248 225
3 247 225 241
3 247 241 245
3 238 442 217
3 248 235 225
3 245 242 244
3 249 250 244
3 251 248 247
3 251 247 252
3 253 252 245
3 250 253 244
3 249 244 246
3 253 245 244
3 247 245 252
3 443 423 216
3 254 252 253
3 255 226 239
3 219 173 246
3 256 238 236
3 257 251 252
3 223 231 258
3 236 226 259
3 251 260 248
3 261 444 445
3 259 226 255
3 215 237 262
3 446 447 448
3 263 254 253
3 250 263 253
3 264 249 246
3 257 252 254
3 263 265 254
3 449 261 445
3 248 266 235
3 237 223 258
3 450 451 452
3 267 38 215
3 256 268 238
3 453 448 454
3 269 444 261
3 270 266 248
3 222 246 173
3 233 271 240
3 268 272 238
3 273 263 250
3 455 273 250
3 262 267 215
3 267 274 38
3 272 442 238
3 448 275 446
3 436 235 266
3 239 440 266
3 266 255 239
3 260 270 248
3 276 246 222
3 237 277 262
3 278 264 246
3 277 267 262
3 272 279 442
3 280 281 443
3 216 280 443
3 453 275 448
3 259 255 282
3 264 455 456
3 440 457 266
3 276 278 246
3 277 274 267
3 263 283 265
3 273 283 263
3 457 436 266
3 458 258 231
3 264 278 284
3 285 255 266
3 286 38 274
3 256 287 268
3 286 274 277
3 283 288 265
3 237 289 277
3 290 227 29
3 291 285 266
3 270 291 266
3 280 216 459
3 255 285 282
3 258 289 237
3 460 275 453
3 268 292 272
3 461 269 449
3 293 288 283
3 289 286 277
3 293 283 273
3 276 222 294
3 295 292 268
3 287 295 268
3 462 296 260
3 292 279 272
3 297 287 256
3 450 463 451
3 298 273 455
3 299 462 288
3 299 296 462
3 260 300 270
3 270 300 291
3 464 280 459
3 296 300 260
3 301 299 288
3 293 301 288
3 284 278 302
3 291 303 285
3 304 296 299
3 282 285 303
3 298 293 273
3 305 38 286
3 301 304 299
3 278 276 302
3 302 276 294
3 463 450 465
3 304 300 296
3 306 304 301
3 307 282 303
3 308 284 302
3 300 309 291
3 304 309 300
3 301 293 298
3 466 269 461
3 306 309 304
3 458 310 258
3 311 306 301
3 289 305 286
3 312 306 311
3 313 29 38
3 227 294 222
3 289 258 314
3 315 301 298
3 309 316 291
3 310 314 258
3 291 316 317
3 315 311 301
3 461 467 466
3 315 298 308
3 297 295 287
3 313 290 29
3 318 281 280
3 312 311 315
3 317 303 291
3 319 280 464
3 319 318 280
3 289 314 305
3 320 468 469
3 321 281 318
3 322 315 308
3 458 314 310
3 308 302 323
3 292 324 470
3 324 292 295
3 471 463 465
3 472 320 469
3 322 312 315
3 302 294 323
3 325 294 227
3 473 314 458
3 297 324 295
3 326 474 320
3 323 322 308
3 319 321 318
3 327 297 307
3 326 328 474
3 329 475 312
3 330 307 303
3 331 324 297
3 327 331 297
3 332 329 312
3 332 312 322
3 317 330 303
3 329 476 475
3 470 324 333
3 473 470 314
3 470 333 314
3 307 330 327
3 331 334 324
3 331 327 334
3 327 330 334
3 316 477 317
3 324 334 333
3 335 334 330
3 477 476 317
3 476 336 317
3 476 337 336
3 332 322 323
3 329 332 338
3 329 338 337
3 338 332 323
3 339 305 314
3 339 314 333
3 340 339 333
3 317 341 330
3 342 336 337
3 338 343 337
3 305 344 38
3 344 345 38
3 345 313 38
3 290 346 227
3 346 325 227
3 340 333 334
3 335 347 334
3 343 342 337
3 323 294 325
3 345 340 334
3 335 330 341
3 341 317 336
3 342 341 336
3 341 342 290
3 342 343 346
3 343 338 325
3 340 345 344
3 334 347 345
3 347 335 345
3 335 341 313
3 290 342 346
3 343 325 346
3 339 344 305
3 339 340 344
3 338 323 325
3 335 313 345
3 313 341 290
3 139 117 109
3 191 192 180
3 320 474 468
3 476 329 337
