ply
format ascii 1.0
comment INFO-3111 Flatenator generated
comment TextureFile Dungeons_Texture_01.png
element vertex 24
property float x
property float y
property float z
property float nx
property float ny
property float nz
property float texture_u
property float texture_v
element face 44
property list uchar int vertex_indices
end_header
-0.307377 -0.05029 0.18158 -0.802775 -0.296735 0.517205 0.211923 0.303946 
-0.307377 -0.10058 0.09079 -0.767719 -0.621208 0.157188 0.211923 0.303946 
-0.153688 -0.10058 0.18158 -0.0531167 -0.741386 0.668974 0.211923 0.303946 
0.307379 -0.10058 0.042114 0.733779 -0.675011 0.0769927 0.211923 0.303946 
0.307379 -0.05029 0.18158 0.425399 -0.333584 0.841284 0.211923 0.303946 
0.048891 -0.10058 0.18158 0.0349363 -0.761749 0.64693 0.211923 0.303946 
-0.307377 0.10058 0.09079 -0.820745 0.563505 0.0940271 0.211923 0.303946 
-0.307377 0.05029 0.18158 -0.406977 0.30022 0.862692 0.211923 0.303946 
-0.050518 0.10058 0.18158 -0.0324644 0.742749 0.668782 0.211923 0.303946 
0.307379 0.05029 0.18158 0.821154 0.322656 0.470743 0.211923 0.303946 
0.307379 0.10058 0.037926 0.74854 0.6592 0.0717177 0.211923 0.303946 
0.153688 0.10058 0.18158 0.0668211 0.657106 0.750831 0.211923 0.303946 
-0.307377 0.05029 -0.181581 -0.602333 0.397241 -0.692383 0.211923 0.303946 
-0.307377 0.10058 -0.09079 -0.865099 0.486275 -0.123044 0.211923 0.303946 
-0.153688 0.10058 -0.181581 -0.0531168 0.741386 -0.668973 0.211923 0.303946 
0.307379 0.10058 -0.09079 0.854042 0.503868 -0.12934 0.211923 0.303946 
0.307379 0.05029 -0.181581 0.403919 0.30103 -0.863846 0.211923 0.303946 
0.033957 0.10058 -0.181581 0.0265567 0.813103 -0.581514 0.211923 0.303946 
-0.307377 -0.10058 -0.042989 -0.736336 -0.67223 -0.0769169 0.211923 0.303946 
-0.307377 -0.05029 -0.181581 -0.659173 -0.276026 -0.6995 0.211923 0.303946 
-0.075373 -0.10058 -0.181581 -0.0387621 -0.761242 -0.647308 0.211923 0.303946 
0.307379 -0.05029 -0.181581 0.802775 -0.296736 -0.517204 0.211923 0.303946 
0.307379 -0.10058 -0.09079 0.865099 -0.486275 -0.123044 0.211923 0.303946 
0.153688 -0.10058 -0.181581 0.0531162 -0.741386 -0.668973 0.211923 0.303946 
3 0 1 2
3 3 4 5
3 6 7 8
3 9 10 11
3 12 13 14
3 8 7 2
3 15 16 17
3 18 19 20
3 17 14 8
3 21 22 23
3 6 13 18
3 10 9 3
3 5 2 20
3 20 19 14
3 7 0 2
3 2 5 8
3 5 4 11
3 4 9 11
3 11 8 5
3 13 6 14
3 6 8 14
3 8 11 17
3 11 10 17
3 10 15 17
3 12 19 13
3 19 18 13
3 18 1 6
3 1 0 6
3 0 7 6
3 9 4 3
3 3 22 10
3 22 21 15
3 21 16 15
3 15 10 22
3 1 18 2
3 18 20 2
3 20 23 5
3 23 22 3
3 5 23 3
3 19 12 14
3 14 17 20
3 17 16 23
3 16 21 23
3 23 20 17
