ply
format ascii 1.0
comment VCGLIB generated
comment TextureFile Dungeons_Texture_01.png
element vertex 265
property float x
property float y
property float z
property float nx
property float ny
property float nz
property uchar red
property uchar green
property uchar blue
property uchar alpha
property float texture_u
property float texture_v
element face 390
property list uchar int vertex_indices
end_header
4.997841 0.042764 4.99794 0.4703718 0.7700169 0.4310734 97 95 95 255 0.200027 0.278477
4.080509 0.034159 4.99231 -0.00250684 0.8385618 0.5448007 97 95 95 255 0.200027 0.278477
4.353951 0.000234 5 -0.002364888 -0.4678857 0.8837858 97 95 95 255 0.200027 0.278477
1.40822 0.036479 4.995068 -0.01441362 0.7093518 0.7047073 97 95 95 255 0.200027 0.278477
1.268009 0.000234 5 -0.00368428 -0.4166114 0.9090772 97 95 95 255 0.200027 0.278477
2.08832 0.000234 5 -0.000697956 -0.6739632 0.7387646 97 95 95 255 0.200027 0.278477
3.103951 0.044874 4.979729 0.007969896 0.8534225 0.5211588 97 95 95 255 0.200027 0.278477
2.615669 0.042814 4.9977 0.002744396 0.8542933 0.5197842 97 95 95 255 0.200027 0.278477
3.357849 0.000234 5 0.005429573 -0.2104237 0.9775952 97 95 95 255 0.200027 0.278477
5 -1e-06 5 0.4219125 -0.8025081 0.4218657 97 95 95 255 0.200027 0.278477
0.954939 0.019669 4.992699 -0.001555896 0.6800684 0.733147 97 95 95 255 0.200027 0.278477
0.68207 0.032654 4.985577 0.01577522 0.8294367 0.5583779 97 95 95 255 0.200027 0.278477
0.01272 0.034669 4.99049 -0.2659607 0.8710333 0.4129963 97 95 95 255 0.200027 0.278477
0.603949 0.000234 5 0.001096105 -0.5685581 0.8226424 97 95 95 255 0.200027 0.278477
0 -1e-06 5 -0.6697402 -0.2790195 0.6881832 97 95 95 255 0.200027 0.278477
0.7404 0.033294 4.911617 -0.0008420378 0.9833349 0.1818016 97 95 95 255 0.200027 0.278477
0 -1e-06 3.084499 -0.4082011 -0.9128914 -0.001091818 97 95 95 255 0.200027 0.278477
4.529728 -0.000611 3.924347 0.0001156994 -0.9999999 0.0003783164 97 95 95 255 0.200027 0.278477
4.8778 0.030159 4.841858 0.07979435 0.9962908 -0.03221076 97 95 95 255 0.200027 0.278477
4.76189 0.045504 4.84111 0.1471765 0.9806338 0.1292149 97 95 95 255 0.200027 0.278477
1.4827 0.045519 4.841087 0.004796566 0.9269328 0.3751968 97 95 95 255 0.200027 0.278477
3.279579 0.045519 4.841087 -0.001506398 0.963046 0.2693329 97 95 95 255 0.200027 0.278477
2.498478 0.040204 4.872677 -0.0003810803 0.9851943 0.1714413 97 95 95 255 0.200027 0.278477
3.729721 0.045519 4.841087 0.002285165 0.9085621 0.4177437 97 95 95 255 0.200027 0.278477
0 -1e-06 4.764187 -0.9800397 0.197142 -0.0256362 97 95 95 255 0.200027 0.278477
0.140419 0.050474 4.820808 -0.4245064 0.8305685 0.3604862 97 95 95 255 0.200027 0.278477
2.879169 0.098839 4.780449 -0.003055911 0.7768391 0.6296918 97 95 95 255 0.200027 0.278477
2.407789 0.100399 4.76527 -0.01430147 0.7290791 0.6842802 97 95 95 255 0.200027 0.278477
2.135489 0.071689 4.790169 -0.005677635 0.8210998 0.5707565 97 95 95 255 0.200027 0.278477
3.4701 0.100689 4.747879 0.006622047 0.8685095 0.4956283 97 95 95 255 0.200027 0.278477
4.185059 0.069349 4.810959 0.005907877 0.8805392 0.4739365 97 95 95 255 0.200027 0.278477
4.624065 0.089484 4.686203 0.09704409 0.9856641 0.1380175 97 95 95 255 0.200027 0.278477
0.33753 0.100009 4.819469 0.003776362 0.4786488 0.8779983 97 95 95 255 0.200027 0.278477
0.139299 0.100064 4.819469 -0.6368524 0.6449822 0.4223944 97 95 95 255 0.200027 0.278477
0.61215 0.072174 4.817249 -0.004777106 0.678394 0.7346829 97 95 95 255 0.200027 0.278477
0.992119 0.093159 4.804958 0.0121737 0.6807828 0.7323842 97 95 95 255 0.200027 0.278477
1.862679 0.092144 4.765957 0.01022542 0.7710276 0.6367197 97 95 95 255 0.200027 0.278477
0 -1e-06 4.451687 -0.9086595 -0.4174229 0.009799852 97 95 95 255 0.200027 0.278477
0.16379 0.084234 4.708157 -0.7371318 0.6615697 -0.137704 97 95 95 255 0.200027 0.278477
0.429399 0.095074 4.60112 -0.03289605 0.9990066 0.03006124 120 120 119 255 0.200027 0.303813
0.93725 0.096759 4.565998 0.003244526 0.99999 0.003055535 120 120 119 255 0.200027 0.300797
1.75383 0.081939 3.839119 -0.00280622 0.9999961 -3.07135e-06 120 120 119 255 0.200027 0.300797
4.373478 -0.000611 3.299347 -2.902083e-05 -1 2.280454e-05 97 95 95 255 0.200027 0.278477
4.734909 0.083039 4.584309 0.3720262 0.9270266 0.04709758 97 95 95 255 0.200027 0.278477
4.782711 0.050709 4.38522 0.4744242 0.8801997 0.01304784 97 95 95 255 0.200027 0.278477
5 -1e-06 4.119659 0.7261846 -0.6874996 0.0003244252 97 95 95 255 0.200027 0.278477
0.0107 0.035594 4.29583 -0.5084509 0.8608806 0.01903336 97 95 95 255 0.200027 0.278477
4.69323 0.100019 4.220989 0.005905403 0.9999052 0.0124374 120 120 119 255 0.200027 0.300797
0.14543 0.069429 4.476177 -0.4765578 0.8784178 0.03570479 97 95 95 255 0.200027 0.278477
0.285149 0.093544 4.45726 -0.1064132 0.9925372 0.0595499 120 120 119 255 0.200027 0.303813
0.16699 0.083829 4.237858 -0.164031 0.9854417 0.04470408 120 120 119 255 0.200027 0.303813
0.211079 0.100734 4.002647 -0.03559364 0.9992828 0.012918 120 120 119 255 0.200027 0.300797
4.997608 0.042814 3.475128 0.5515727 0.8339745 -0.01594025 97 95 95 255 0.200027 0.278477
4.80077 0.040814 3.610619 0.3227335 0.9464826 -0.003707579 97 95 95 255 0.200027 0.278477
0.137089 0.054484 3.98439 -0.4473421 0.8943426 -0.006041669 97 95 95 255 0.200027 0.278477
4.42205 0.100804 3.275768 -0.004636387 0.9999874 -0.001927759 120 120 119 255 0.200027 0.300797
3.405411 0.095554 4.36607 -0.009308548 0.9999512 -0.003306417 120 120 119 255 0.200027 0.300797
4.766918 0.077749 3.875118 0.6194562 0.7850147 0.005099847 97 95 95 255 0.200027 0.278477
4.744568 -0.000611 3.826687 0.0007271752 -0.9999998 3.233628e-05 97 95 95 255 0.200027 0.278477
5 -1e-06 3.611847 0.6167194 -0.7871831 -0.0001270228 97 95 95 255 0.200027 0.278477
-0.00065 0.042814 3.865749 -0.6733693 0.7392873 0.005306059 97 95 95 255 0.200027 0.278477
0.144569 0.095209 3.369438 -0.6939597 0.7199866 0.006265494 97 95 95 255 0.200027 0.278477
1.93207 -0.00061 1.502468 -0.000131744 -1 -7.560822e-05 97 95 95 255 0.200027 0.278477
2.670189 0.080539 2.06221 -0.008355176 0.9998035 0.01797705 120 120 119 255 0.200027 0.300797
4.760559 0.066599 3.439899 0.4182121 0.907797 0.03167453 97 95 95 255 0.200027 0.278477
4.607849 -0.000611 3.729038 0 -1 0 97 95 95 255 0.200027 0.278477
4.62738 -0.000611 3.748569 0 -1 0 97 95 95 255 0.200027 0.278477
0.265419 0.100805 3.003178 -0.1307534 0.9913427 -0.01196772 120 120 119 255 0.200027 0.303813
0.11698 0.04554 2.713287 -0.4502832 0.8928418 -0.00887212 97 95 95 255 0.200027 0.278477
4.62738 -0.000611 3.729038 0 -1 0 97 95 95 255 0.200027 0.278477
4.529728 -0.000611 3.611847 0.0003706057 -0.9999999 -8.824175e-05 97 95 95 255 0.200027 0.278477
4.582661 0.080939 3.440399 0.1196299 0.9928138 0.003087815 120 120 119 255 0.200027 0.305019
0.008459 0.030895 2.635338 -0.6684294 0.7437739 -0.001577846 97 95 95 255 0.200027 0.278477
4.87096 0.033794 3.475128 0.06243663 0.9980454 -0.002644859 97 95 95 255 0.200027 0.278477
4.744137 0.100804 3.133606 0.08018855 0.9910869 0.1063794 120 120 119 255 0.200027 0.303813
4.997608 0.042815 3.006378 0.5404379 0.8413246 -0.009998176 97 95 95 255 0.200027 0.278477
0.15815 0.08565 3.021709 -0.1433376 0.989461 -0.02052742 120 120 119 255 0.200027 0.303813
4.744568 -0.000611 3.201687 0.0006244454 -0.9999998 -2.173217e-06 97 95 95 255 0.200027 0.278477
4.874889 0.031669 3.10445 0.2620361 0.9650557 0.00214737 97 95 95 255 0.200027 0.278477
4.607849 -0.000611 3.104038 -1.142862e-06 -1 -3.504722e-06 97 95 95 255 0.200027 0.278477
4.62738 -0.000611 3.123569 0 -1 0 97 95 95 255 0.200027 0.278477
4.749882 0.089605 2.482082 0.03554192 0.9993632 -0.003153889 120 120 119 255 0.200027 0.305019
5 -0 2.537628 0.6224807 -0.7826277 -0.003414355 97 95 95 255 0.200027 0.278477
3.605289 0.100685 2.403538 -0.04486729 0.9988691 0.01573302 120 120 119 255 0.200027 0.300797
4.62738 -0.000611 3.104038 5.815595e-06 -1 -9.112539e-06 97 95 95 255 0.200027 0.278477
4.529728 -0.00061 2.986847 0.0004684371 -0.9999999 9.292336e-05 97 95 95 255 0.200027 0.278477
3.423439 0.100805 2.54884 -0.03224231 0.9975609 -0.06191031 120 120 119 255 0.200027 0.300797
4.939869 0.04495 2.518097 0.0886151 0.9960653 0.001206631 97 95 95 255 0.200027 0.278477
4.800251 0.04417 2.5173 0.3430481 0.9392065 -0.01446297 97 95 95 255 0.200027 0.278477
4.744568 -0.00061 2.576687 0.0007778992 -0.9999997 -0.0001185948 97 95 95 255 0.200027 0.278477
0 -0 2.400909 -0.9197085 -0.3926018 0.0004211698 97 95 95 255 0.200027 0.278477
4.981388 0.033305 2.479038 0.6223595 0.7826824 -0.008777603 97 95 95 255 0.200027 0.278477
4.373478 -0.00061 2.674347 7.74201e-07 -1 -5.333374e-07 97 95 95 255 0.200027 0.278477
3.49633 0.08619 2.404709 -0.07716108 0.9969656 0.01028876 120 120 119 255 0.200027 0.300797
3.768009 -0.00061 2.127468 1.634253e-07 -1 -2.395884e-07 97 95 95 255 0.200027 0.278477
4.585461 0.100805 2.02182 0.0057817 0.999956 -0.007386532 120 120 119 255 0.200027 0.300797
4.607849 -0.00061 2.479038 0 -1 0 97 95 95 255 0.200027 0.278477
4.62738 -0.00061 2.498569 0 -1 0 97 95 95 255 0.200027 0.278477
0.283569 0.100805 2.149097 -0.08535948 0.9959585 0.0279365 120 120 119 255 0.200027 0.300797
0.11734 0.045355 2.224739 -0.4076233 0.9130372 0.01436448 97 95 95 255 0.200027 0.278477
0.1588 0.07732 2.00375 -0.1609977 0.9869365 -0.006016224 120 120 119 255 0.200027 0.303813
4.62738 -0.00061 2.479038 0 -1 0 97 95 95 255 0.200027 0.278477
4.771759 0.088865 1.967377 0.06433795 0.9979274 0.001299844 120 120 119 255 0.200027 0.305019
4.529728 -0.00061 2.361847 0.0004508719 -0.9999999 -0.0002147394 97 95 95 255 0.200027 0.278477
4.987068 0.03719 2.049347 0.5299932 0.8479893 0.004619577 97 95 95 255 0.200027 0.278477
0.009359 0.037475 2.029819 -0.6772275 0.7357721 0.001550723 97 95 95 255 0.200027 0.278477
0.404533 0.128659 1.876728 -0.08622329 0.9962484 0.00739149 120 120 119 255 0.200027 0.300797
4.744568 -0.00061 1.951687 0.0006197889 -0.9999998 -4.249902e-05 97 95 95 255 0.200027 0.278477
4.373478 -0.00061 2.049347 0 -1 0 97 95 95 255 0.200027 0.278477
5 -0 1.502468 0.5534721 -0.8328676 0.0004368238 97 95 95 255 0.200027 0.278477
0 -0 1.893097 -0.9834266 -0.1812856 0.002777755 97 95 95 255 0.200027 0.278477
0.163229 0.08147 1.87743 -0.4489032 0.8935249 -0.009962521 97 95 95 255 0.200027 0.278477
0.0145 0.0295 1.814747 -0.5256187 0.850503 -0.01922933 97 95 95 255 0.200027 0.278477
4.607849 -0.00061 1.854038 0 -1 0 97 95 95 255 0.200027 0.278477
4.62738 -0.00061 1.873569 0 -1 0 97 95 95 255 0.200027 0.278477
4.62738 -0.00061 1.854038 0 -1 0 97 95 95 255 0.200027 0.278477
4.529728 -0.00061 1.736847 0.0003744345 -0.9999999 7.682308e-06 97 95 95 255 0.200027 0.278477
0 -0 0.799347 -0.6154411 -0.7881815 0.001492542 97 95 95 255 0.200027 0.278477
0.081079 0.03302 1.619869 -0.18129 0.9834051 -0.006964278 97 95 95 255 0.200027 0.278477
4.658688 0.085495 1.00523 0.02810366 0.9996004 -0.003038976 120 120 119 255 0.200027 0.300797
0.00639 0.036945 1.580597 -0.610073 0.7918584 0.02777316 97 95 95 255 0.200027 0.278477
0.244549 0.100435 1.669567 -0.1918084 0.9813314 0.01407759 120 120 119 255 0.200027 0.300797
4.80228 0.04545 1.092628 0.5555333 0.8314899 -0.002724143 97 95 95 255 0.200027 0.278477
0.169857 0.09023 1.359047 -0.1162329 0.9932218 -0.0005639707 120 120 119 255 0.200027 0.300797
2.715031 0.073648 1.185928 -0.002372294 0.9998506 0.01712728 120 120 119 255 0.200027 0.300797
4.744568 -0.00061 1.326687 0.001568899 -0.9999982 -0.001123092 97 95 95 255 0.200027 0.278477
2.908638 -0.00061 1.424347 0 -1 0 97 95 95 255 0.200027 0.278477
3.201599 -0.00061 1.229038 1.688383e-05 -1 -0.0001128039 97 95 95 255 0.200027 0.278477
4.373478 -0.00061 1.424347 0 -1 0 97 95 95 255 0.200027 0.278477
4.783279 0.100045 0.967777 -0.1130571 0.9935394 0.009882308 120 120 119 255 0.200027 0.303813
0.13702 0.05455 1.037258 -0.3466504 0.9379925 0.00192913 97 95 95 255 0.200027 0.278477
4.997608 0.042815 0.896999 0.6696197 0.7427026 0.001552301 97 95 95 255 0.200027 0.278477
2.85004 -0.00061 1.189968 -6.745772e-06 -1 -0.0001901503 97 95 95 255 0.200027 0.278477
2.986759 -0.00061 1.307159 0 -1 0 97 95 95 255 0.200027 0.278477
3.00629 -0.00061 1.307159 0 -1 0 97 95 95 255 0.200027 0.278477
3.38747 0.100805 0.459 -0.01357364 0.9994276 -0.03098776 120 120 119 255 0.200027 0.300797
3.00629 -0.00061 1.287628 0 -1 0 97 95 95 255 0.200027 0.278477
4.607849 -0.00061 1.229038 0 -1 0 97 95 95 255 0.200027 0.278477
4.62738 -0.00061 1.248569 0 -1 0 97 95 95 255 0.200027 0.278477
-0.00065 0.042815 0.584499 -0.4386913 0.8985994 -0.008316665 97 95 95 255 0.200027 0.278477
4.62738 -0.00061 1.229038 0 -1 0 97 95 95 255 0.200027 0.278477
4.529728 -0.00061 1.111847 0.001484142 -0.999998 -0.00137132 97 95 95 255 0.200027 0.278477
2.007299 0.09416 0.42329 -0.0001571383 0.999981 -0.006166735 120 120 119 255 0.200027 0.300797
3.169361 0.100805 0.440868 0.04912768 0.9969577 -0.06051353 120 120 119 255 0.200027 0.300797
2.941841 0.100805 0.331818 0.002655568 0.9995148 -0.0310359 120 120 119 255 0.200027 0.300797
0.16947 0.07506 0.65934 -0.652593 0.7572828 0.02540044 97 95 95 255 0.200027 0.278477
0.82807 0.100805 0.313698 -0.0223146 0.9995667 -0.01919958 120 120 119 255 0.200027 0.300797
2.098709 0.09656 0.313709 -0.08502117 0.9961955 0.01912819 120 120 119 255 0.200027 0.300797
5 0 0 0.7029451 -0.6715283 -0.234346 97 95 95 255 0.200027 0.278477
0.065119 0.03991 0.486839 -0.1309756 0.9913856 -3.988879e-05 97 95 95 255 0.200027 0.278477
0.230268 0.0965 0.658939 -0.1989964 0.9794508 0.03281198 120 120 119 255 0.200027 0.303813
4.777809 0.038265 0.185078 0.3105783 0.9367272 -0.161503 97 95 95 255 0.200027 0.278477
4.997608 0.042815 0.271999 0.5353302 0.8438348 -0.03693932 97 95 95 255 0.200027 0.278477
4.692001 0.096825 0.252758 0.003337214 0.9999928 0.001811129 120 120 119 255 0.200027 0.300797
0 0 0 -0.5832873 0.6133255 -0.5325483 97 95 95 255 0.200027 0.278477
0.139309 0.10001 0.404518 -0.1288455 0.9898648 0.05972024 120 120 119 255 0.200027 0.303813
0.11751 0.04528 0.212708 -0.2247289 0.9730018 -0.05257909 97 95 95 255 0.200027 0.278477
3.95282 0.096845 0.178188 0.01255943 0.9998586 0.01118554 120 120 119 255 0.200027 0.300797
0.290783 0.087295 0.336891 0.02579867 0.9995354 -0.01623332 120 120 119 255 0.200027 0.303813
1.300219 0.09086 0.172318 -0.003085179 0.9999278 0.01161928 120 120 119 255 0.200027 0.300797
3.222229 0.061045 0.219028 0.04300297 0.9903802 -0.1315213 120 120 119 255 0.200027 0.300797
2.007969 0.08253 0.210659 -0.1530879 0.9871528 0.04575611 120 120 119 255 0.200027 0.300797
3.099113 0.08796 0.217293 0.06296115 0.9947823 -0.08027573 120 120 119 255 0.200027 0.300797
3.446739 0.08398 0.221458 -0.07989492 0.9927095 -0.09024773 120 120 119 255 0.200027 0.300797
3.724831 0.100775 0.22295 -0.01789866 0.9995093 -0.02570766 120 120 119 255 0.200027 0.300797
1.698801 0.1001 0.206757 0.01418014 0.9998733 0.007226189 120 120 119 255 0.200027 0.300797
2.025639 0.095365 0.194038 -0.2085553 0.9709088 0.1176468 120 120 119 255 0.200027 0.300797
2.28364 -0.000175 -0 -0.0005040563 -0.5546741 -0.8320675 97 95 95 255 0.200027 0.278477
3.06488 -0.000175 -0 -2.985051e-06 -0.5621544 -0.8270323 97 95 95 255 0.200027 0.278477
4.041451 -0.000175 -0 -1.490687e-05 -0.7129644 -0.7012002 97 95 95 255 0.200027 0.278477
0.79311 0.072475 0.20546 0.001255885 0.9673116 -0.2535878 120 120 119 255 0.200027 0.303813
0.519539 0.091025 0.217678 0.01375689 0.9893402 -0.1449716 120 120 119 255 0.200027 0.303813
0.19368 0.04535 0.15535 -0.02734727 0.9706352 -0.2389969 97 95 95 255 0.200027 0.278477
2.205669 0.046245 0.19487 -0.02350764 0.6439953 -0.7646682 97 95 95 255 0.200027 0.278477
3.8419 0.049935 0.172729 -0.03000359 0.7374612 -0.6747227 97 95 95 255 0.200027 0.278477
1.286129 0.03538 0.159508 0.01212626 0.8236029 -0.5670372 97 95 95 255 0.200027 0.278477
2.63435 0.035315 0.159698 -0.001756338 0.8998206 -0.4362566 97 95 95 255 0.200027 0.278477
3.115849 0.044155 0.18018 0.01713105 0.9573701 -0.2883557 97 95 95 255 0.200027 0.278477
4.710781 0.056775 0.18882 0.09401698 0.8445671 -0.5271311 97 95 95 255 0.200027 0.278477
3.67149 0.03953 0.143539 -0.009041706 0.9553692 -0.2952761 97 95 95 255 0.200027 0.278477
0.09614 0.04425 0.077679 -0.08734336 0.9891772 -0.1178968 97 95 95 255 0.200027 0.278477
1.875029 0.036475 0.152828 0.01519639 0.9525111 -0.3041244 97 95 95 255 0.200027 0.278477
4.080521 0.03692 0.129898 0.003909747 0.9944211 -0.105411 97 95 95 255 0.200027 0.278477
1.580959 0.0206 0.123707 0.0003113556 0.9979427 -0.06411172 97 95 95 255 0.200027 0.278477
2.518391 0.02385 0.096748 -0.004174393 0.9994806 -0.0319544 97 95 95 255 0.200027 0.278477
4.705109 0.0285 0.096497 0.05030284 0.9932665 -0.1043615 97 95 95 255 0.200027 0.278477
1.18989 0.042845 -0.000622 0.006836806 0.6941001 -0.7198461 97 95 95 255 0.200027 0.278477
3.709419 0.042815 -0.000572 0.003440736 0.805369 -0.5927638 97 95 95 255 0.200027 0.278477
0.66341 0.038385 0.035347 -0.01344213 0.9299473 -0.3674472 97 95 95 255 0.200027 0.278477
1.756289 0.032645 0.02351 0.05895951 0.9746839 -0.2156735 97 95 95 255 0.200027 0.278477
2.69379 0.042815 -0.000561 -0.01282634 0.7365133 -0.6763015 97 95 95 255 0.200027 0.278477
4.997978 0.04283 -0.000942 0.2717666 0.8318791 -0.4838595 97 95 95 255 0.200027 0.278477
1.87348 -0.000175 -0 0.04116054 -0.128385 -0.9908699 97 95 95 255 0.200027 0.278477
2.18598 0.0421 0.000359 -0.02977888 0.8345726 -0.5500926 97 95 95 255 0.200027 0.278477
0.77973 -0.000175 -0 -0.02281451 -0.2882676 -0.9572781 97 95 95 255 0.200027 0.278477
1.209419 -0.000175 -0 -7.02526e-05 -0.8344896 -0.5510236 97 95 95 255 0.200027 0.278477
1.424259 -0.000175 -0 0 -0.7120982 -0.70208 97 95 95 255 0.200027 0.278477
4.624065 0.089484 4.686203 0.02195032 0.971962 0.2341115 120 120 119 255 0.200027 0.303813
3.4701 0.100689 4.747879 0.02195032 0.971962 0.2341115 120 120 119 255 0.200027 0.303813
4.185059 0.069349 4.810959 0.02195032 0.971962 0.2341115 120 120 119 255 0.200027 0.303813
0.61215 0.072174 4.817249 0.02570983 0.9961502 0.08380809 120 120 119 255 0.200027 0.303813
0.33753 0.100009 4.819469 0.02060166 0.9996908 -0.01392643 120 120 119 255 0.200027 0.303813
0.992119 0.093159 4.804958 0.001821898 0.9998911 0.01464532 120 120 119 255 0.200027 0.300797
1.862679 0.092144 4.765957 -0.00192493 0.9999958 -0.002160547 120 120 119 255 0.200027 0.300797
2.407789 0.100399 4.76527 -0.005555826 0.9998565 -0.0160061 120 120 119 255 0.200027 0.300797
2.879169 0.098839 4.780449 8.849898e-05 0.999837 -0.0180562 120 120 119 255 0.200027 0.300797
3.4701 0.100689 4.747879 -0.002561548 0.9999939 -0.002367718 120 120 119 255 0.200027 0.300797
0.992119 0.093159 4.804958 -0.02609026 0.9963412 0.0813858 120 120 119 255 0.200027 0.303813
0.16379 0.084234 4.708157 -0.06208403 0.9966561 -0.05312483 120 120 119 255 0.200027 0.303813
0.93725 0.096759 4.565998 -0.003015496 0.9999859 0.004372038 120 120 119 255 0.200027 0.303813
4.624065 0.089484 4.686203 0.0110039 0.9996448 0.02427346 120 120 119 255 0.200027 0.300797
4.69323 0.100019 4.220989 0.350488 0.9363981 0.01780045 97 95 95 255 0.200027 0.278477
0.14543 0.069429 4.476177 -0.1266221 0.9910513 0.04224147 120 120 119 255 0.200027 0.303813
0.16699 0.083829 4.237858 -0.3780109 0.9254444 -0.02569984 97 95 95 255 0.200027 0.278477
0.285149 0.093544 4.45726 -0.08305329 0.9961147 0.02928605 120 120 119 255 0.200027 0.300797
0.16699 0.083829 4.237858 -0.157845 0.986599 0.04132134 120 120 119 255 0.200027 0.300797
0.211079 0.100734 4.002647 -0.5311336 0.8472657 0.006163754 97 95 95 255 0.200027 0.278477
4.766918 0.077749 3.875118 0.1650748 0.9846262 -0.05710937 120 120 119 255 0.200027 0.305019
4.42205 0.100804 3.275768 0.08217958 0.9965837 -0.00821195 120 120 119 255 0.200027 0.305019
4.69323 0.100019 4.220989 0.1292701 0.9909461 -0.03626411 120 120 119 255 0.200027 0.305019
0.144569 0.095209 3.369438 -0.1003536 0.9947906 -0.01791321 120 120 119 255 0.200027 0.303813
0.211079 0.100734 4.002647 -0.05509875 0.9984766 -0.002924731 120 120 119 255 0.200027 0.303813
4.760559 0.066599 3.439899 0.08039486 0.9959631 0.03992832 120 120 119 255 0.200027 0.303813
4.582661 0.080939 3.440399 0.08039486 0.9959631 0.03992832 120 120 119 255 0.200027 0.303813
4.766918 0.077749 3.875118 0.08024424 0.9964176 -0.02669998 120 120 119 255 0.200027 0.303813
0.265419 0.100805 3.003178 0.01239242 0.9999231 0.0005018785 120 120 119 255 0.200027 0.300797
4.744137 0.100804 3.133606 0.01475046 0.9993326 0.03341909 120 120 119 255 0.200027 0.305019
0.15815 0.08565 3.021709 -0.615646 0.7878372 -0.01710466 97 95 95 255 0.200027 0.278477
4.744137 0.100804 3.133606 0.4725187 0.8807929 0.0304977 97 95 95 255 0.200027 0.278477
4.749882 0.089605 2.482082 0.5869478 0.8085017 -0.04262916 97 95 95 255 0.200027 0.278477
4.585461 0.100805 2.02182 0.0570936 0.9983612 0.003898325 120 120 119 255 0.200027 0.305019
0.283569 0.100805 2.149097 -0.180657 0.9835387 -0.003839127 120 120 119 255 0.200027 0.303813
0.1588 0.07732 2.00375 -0.6121957 0.7907061 -0.0004829245 97 95 95 255 0.200027 0.278477
4.771759 0.088865 1.967377 0.6591121 0.7515624 0.02693409 97 95 95 255 0.200027 0.280287
4.749882 0.089605 2.482082 0.6591121 0.7515624 0.02693409 97 95 95 255 0.200027 0.280287
4.800251 0.04417 2.5173 0.6591121 0.7515624 0.02693409 97 95 95 255 0.200027 0.280287
0.1588 0.07732 2.00375 -0.1951576 0.9805921 0.01878374 120 120 119 255 0.200027 0.300797
0.163229 0.08147 1.87743 -0.192132 0.9812034 0.01803248 120 120 119 255 0.200027 0.300797
4.771759 0.088865 1.967377 0.06085683 0.9980897 -0.01064775 120 120 119 255 0.200027 0.300797
4.771759 0.088865 1.967377 0.8888443 0.4581347 0.008274858 97 95 95 255 0.200027 0.278477
4.658688 0.085495 1.00523 -0.1130571 0.9935394 0.009882308 120 120 119 255 0.200027 0.303813
4.771759 0.088865 1.967377 -0.1130789 0.9935376 0.009809022 120 120 119 255 0.200027 0.303813
4.783279 0.100045 0.967777 0.8529353 0.5211761 -0.0296125 97 95 95 255 0.200027 0.278477
0.169857 0.09023 1.359047 -0.7031726 0.710984 -0.007078677 97 95 95 255 0.200027 0.278477
0.16947 0.07506 0.65934 -0.3317372 0.9417505 0.05528455 120 120 119 255 0.200027 0.303813
0.169857 0.09023 1.359047 -0.3326208 0.9428431 -0.02025735 120 120 119 255 0.200027 0.303813
0.230268 0.0965 0.658939 -0.0143571 0.9998201 -0.01239274 120 120 119 255 0.200027 0.300797
4.692001 0.096825 0.252758 -0.1130352 0.9935411 0.009955592 120 120 119 255 0.200027 0.303813
4.692001 0.096825 0.252758 0.2729144 0.888255 -0.3694872 97 95 95 255 0.200027 0.278477
0.290783 0.087295 0.336891 -0.08904982 0.9755741 -0.2008121 97 95 95 255 0.200027 0.278477
0.139309 0.10001 0.404518 -0.7317179 0.6728628 -0.108832 97 95 95 255 0.200027 0.278477
0.290783 0.087295 0.336891 -0.02657002 0.9990838 -0.03354919 120 120 119 255 0.200027 0.300797
0.82807 0.100805 0.313698 -0.007865073 0.9843116 -0.1762638 120 120 119 255 0.200027 0.303813
1.300219 0.09086 0.172318 -0.05069253 0.9700572 -0.2375276 120 120 119 255 0.200027 0.303813
0.79311 0.072475 0.20546 -0.01439322 0.6383367 -0.7696227 97 95 95 255 0.200027 0.278477
0.519539 0.091025 0.217678 -0.04342642 0.900436 -0.4328155 97 95 95 255 0.200027 0.278477
2.025639 0.095365 0.194038 -0.08714113 -0.3352705 -0.9380832 97 95 95 255 0.200027 0.278477
3.099113 0.08796 0.217293 0.04646686 0.5887162 -0.8070031 97 95 95 255 0.200027 0.278477
3.446739 0.08398 0.221458 -0.02870863 0.7830745 -0.621265 97 95 95 255 0.200027 0.278477
3.724831 0.100775 0.22295 -0.0991085 0.5744252 -0.8125351 97 95 95 255 0.200027 0.278477
1.300219 0.09086 0.172318 0.003776386 0.2240626 -0.9745675 97 95 95 255 0.200027 0.278477
1.698801 0.1001 0.206757 0.05810398 0.3199005 -0.9456679 97 95 95 255 0.200027 0.278477
2.007969 0.08253 0.210659 -0.0260536 0.3883839 -0.9211293 97 95 95 255 0.200027 0.278477
3.222229 0.061045 0.219028 0.02389426 0.8081049 -0.5885537 97 95 95 255 0.200027 0.278477
3.95282 0.096845 0.178188 -0.03279109 0.5091326 -0.8600632 97 95 95 255 0.200027 0.278477
3 0 1 2 
3 3 4 5 
3 6 7 8 
3 1 6 8 
3 1 8 2 
3 9 0 2 
3 3 10 4 
3 7 3 5 
3 11 12 13 
3 10 11 13 
3 10 13 4 
3 7 5 8 
3 12 14 13 
3 15 12 11 
3 15 11 10 
3 16 4 13 
3 5 17 8 
3 17 2 8 
3 18 19 0 
3 17 9 2 
3 15 10 3 
3 20 3 7 
3 6 21 7 
3 1 21 6 
3 22 20 7 
3 23 21 1 
3 12 24 14 
3 4 16 5 
3 20 15 3 
3 21 22 7 
3 24 13 14 
3 16 17 5 
3 25 12 15 
3 19 1 0 
3 19 23 1 
3 26 27 28 
3 29 23 30 
3 19 31 30 
3 32 33 25 
3 34 32 25 
3 35 34 20 
3 36 35 20 
3 21 26 28 
3 36 20 28 
3 25 15 34 
3 15 20 34 
3 22 28 20 
3 22 21 28 
3 23 19 30 
3 24 12 25 
3 23 26 21 
3 24 37 13 
3 37 16 13 
3 38 33 32 
3 27 36 28 
3 29 26 23 
3 197 198 199 
3 200 39 201 
3 40 202 203 
3 41 204 205 
3 206 41 205 
3 33 38 25 
3 207 39 200 
3 39 208 201 
3 41 203 204 
3 42 17 16 
3 207 209 39 
3 43 19 44 
3 17 45 9 
3 43 31 19 
3 25 46 24 
3 47 206 210 
3 38 48 25 
3 43 211 31 
3 18 44 19 
3 46 37 24 
3 212 208 39 
3 209 49 39 
3 49 212 39 
3 44 211 43 
3 41 40 203 
3 49 50 212 
3 46 25 48 
3 46 48 213 
3 40 51 214 
3 52 18 0 
3 45 0 9 
3 53 44 18 
3 54 46 213 
3 51 215 214 
3 52 53 18 
3 55 56 206 
3 47 55 206 
3 57 211 44 
3 53 57 44 
3 52 0 45 
3 216 54 213 
3 17 58 45 
3 58 59 45 
3 41 51 40 
3 56 41 206 
3 217 218 219 
3 54 60 46 
3 46 60 37 
3 52 45 59 
3 216 61 54 
3 62 42 16 
3 63 41 56 
3 64 57 53 
3 65 66 17 
3 66 58 17 
3 67 220 221 
3 61 68 54 
3 65 69 66 
3 69 58 66 
3 60 54 68 
3 70 69 65 
3 70 58 69 
3 60 16 37 
3 70 17 42 
3 70 65 17 
3 71 218 217 
3 222 223 224 
3 60 72 16 
3 70 59 58 
3 60 68 72 
3 73 53 52 
3 73 64 53 
3 41 225 51 
3 222 74 223 
3 226 218 71 
3 52 75 73 
3 67 76 220 
3 61 227 68 
3 77 59 70 
3 75 78 73 
3 78 64 73 
3 42 77 70 
3 64 78 228 
3 79 80 42 
3 80 77 42 
3 218 226 81 
3 78 229 228 
3 77 82 59 
3 83 56 55 
3 79 84 80 
3 84 77 80 
3 85 84 79 
3 85 77 84 
3 75 52 59 
3 85 79 42 
3 75 59 82 
3 83 86 56 
3 85 82 77 
3 87 88 78 
3 75 87 78 
3 86 63 56 
3 88 229 78 
3 85 89 82 
3 72 90 16 
3 91 75 82 
3 42 92 85 
3 93 86 83 
3 94 92 42 
3 91 87 75 
3 55 95 83 
3 230 218 81 
3 92 89 85 
3 96 97 92 
3 97 89 92 
3 41 98 225 
3 99 72 68 
3 99 68 227 
3 100 76 67 
3 96 101 97 
3 101 89 97 
3 102 230 81 
3 94 96 92 
3 103 101 96 
3 103 89 101 
3 231 100 67 
3 104 91 82 
3 103 96 94 
3 99 227 232 
3 104 87 91 
3 93 63 86 
3 104 88 87 
3 62 94 42 
3 103 82 89 
3 72 105 90 
3 105 72 99 
3 63 106 41 
3 83 63 93 
3 103 107 82 
3 233 234 235 
3 108 103 94 
3 106 98 41 
3 107 109 82 
3 105 110 90 
3 104 82 109 
3 106 236 98 
3 232 111 99 
3 105 99 111 
3 90 62 16 
3 106 237 236 
3 112 105 111 
3 105 112 110 
3 110 62 90 
3 108 107 103 
3 95 63 83 
3 113 114 108 
3 114 107 108 
3 113 115 114 
3 115 107 114 
3 94 113 108 
3 116 115 113 
3 116 107 115 
3 117 62 110 
3 116 113 94 
3 118 112 111 
3 119 95 238 
3 118 120 112 
3 121 237 106 
3 116 109 107 
3 88 122 239 
3 112 120 110 
3 121 123 237 
3 124 63 95 
3 104 122 88 
3 120 117 110 
3 116 125 109 
3 126 127 94 
3 128 116 94 
3 62 126 94 
3 129 240 241 
3 130 120 118 
3 127 128 94 
3 131 122 104 
3 131 104 109 
3 132 133 126 
3 130 118 111 
3 132 126 62 
3 242 239 122 
3 243 130 111 
3 133 134 126 
3 134 127 126 
3 128 125 116 
3 106 123 121 
3 119 135 95 
3 132 136 133 
3 136 134 133 
3 136 127 134 
3 132 127 136 
3 137 138 128 
3 138 125 128 
3 120 139 117 
3 137 140 138 
3 140 125 138 
3 139 120 130 
3 127 137 128 
3 141 140 137 
3 141 125 140 
3 141 137 127 
3 142 63 124 
3 135 124 95 
3 143 144 124 
3 243 145 130 
3 141 109 125 
3 146 123 106 
3 142 106 63 
3 147 142 124 
3 148 131 109 
3 149 139 130 
3 150 244 245 
3 146 246 123 
3 141 148 109 
3 124 135 143 
3 144 147 124 
3 149 130 145 
3 151 122 131 
3 152 131 148 
3 127 148 141 
3 153 135 119 
3 139 154 117 
3 247 240 129 
3 242 122 151 
3 152 151 131 
3 248 242 151 
3 150 155 244 
3 149 145 156 
3 153 157 135 
3 158 155 150 
3 142 159 106 
3 160 143 135 
3 147 161 142 
3 162 144 143 
3 162 147 144 
3 163 160 135 
3 164 163 135 
3 156 139 149 
3 249 156 250 
3 146 251 246 
3 159 146 106 
3 165 159 142 
3 161 165 142 
3 147 166 161 
3 250 156 145 
3 167 168 132 
3 168 169 132 
3 170 171 252 
3 162 166 147 
3 160 162 143 
3 171 158 252 
3 170 252 253 
3 157 164 135 
3 254 172 255 
3 256 257 173 
3 258 259 174 
3 156 249 172 
3 260 261 175 
3 261 262 175 
3 256 173 262 
3 257 176 173 
3 257 263 177 
3 264 174 259 
3 264 178 174 
3 264 248 178 
3 248 151 178 
3 172 249 255 
3 254 175 172 
3 254 260 175 
3 258 179 263 
3 258 174 179 
3 156 180 139 
3 181 175 262 
3 181 262 173 
3 177 176 257 
3 179 177 263 
3 178 182 174 
3 172 180 156 
3 183 175 181 
3 184 181 173 
3 184 173 176 
3 182 179 174 
3 185 182 178 
3 151 185 178 
3 180 154 139 
3 183 186 175 
3 177 184 176 
3 187 177 179 
3 185 151 152 
3 175 188 172 
3 189 183 181 
3 187 190 177 
3 187 179 182 
3 191 185 152 
3 188 180 172 
3 189 186 183 
3 192 189 181 
3 193 192 181 
3 193 181 184 
3 190 184 177 
3 191 187 182 
3 191 182 185 
3 167 192 193 
3 190 193 184 
3 194 117 154 
3 194 195 117 
3 195 62 117 
3 195 196 62 
3 196 192 62 
3 192 132 62 
3 192 167 132 
3 169 127 132 
3 169 148 127 
3 188 154 180 
3 186 188 175 
3 191 152 148 
3 186 189 192 
3 188 186 194 
3 186 195 194 
3 186 196 195 
3 186 192 196 
3 193 190 167 
3 167 190 168 
3 190 187 168 
3 187 169 168 
3 187 191 169 
3 188 194 154 
3 191 148 169 
