ply
format ascii 1.0
comment INFO-3111 Flatenator generated
comment TextureFile Dungeons_Texture_01.png
element vertex 500
property float x
property float y
property float z
property float nx
property float ny
property float nz
property float texture_u
property float texture_v
element face 698
property list uchar int vertex_indices
end_header
0.779335 0.028284 4.98125 -0.00369558 0.872342 0.488882 0.199183 0.279534 
0.213844 0.042119 4.99576 -0.028024 0.595424 0.802922 0.199183 0.279534 
0.311401 -1e-06 5.0002 0.00814855 -0.61048 0.791989 0.199183 0.279534 
2.77193 0.028529 4.97814 0.032458 0.705683 0.707784 0.199183 0.279534 
2.5184 0.042659 4.99826 -0.00245136 0.789856 0.613287 0.199183 0.279534 
2.45985 -1e-06 5.0002 0.002707 -0.203846 0.978999 0.199183 0.279534 
3.22248 0.027959 4.97975 -0.00772619 0.770896 0.636914 0.199183 0.279534 
3.00668 -1e-06 5.0002 -0.000875375 -0.0817384 0.996653 0.199183 0.279534 
3.86606 -1e-06 5.00021 -0.00708538 -0.308525 0.95119 0.199183 0.279534 
3.78794 0.037564 4.98926 0.0065609 0.762033 0.647505 0.199183 0.279534 
0.877785 -1e-06 5.0002 0.00282644 -0.106281 0.994332 0.199183 0.279534 
1.13195 0.032279 4.97545 0.0103812 0.808454 0.588468 0.199183 0.279534 
1.54176 -1e-06 5.0002 -0.00841985 0.277975 0.960551 0.199183 0.279534 
2.18609 0.033809 4.97738 -0.0150796 0.718783 0.695071 0.199183 0.279534 
4.25668 -1e-06 5.00021 0.0268306 0.112756 0.99326 0.199183 0.279534 
4.17899 0.023394 4.9863 0.00398519 0.916846 0.399222 0.199183 0.279534 
-8e-06 -1e-06 5.0002 -0.599119 0.482857 0.638675 0.199183 0.279534 
1.91319 0.035394 4.98334 -0.00452121 0.809843 0.586629 0.199183 0.279534 
1.93247 -1e-06 5.0002 0.0082037 -0.211316 0.977383 0.199183 0.279534 
4.83814 0.053589 4.91291 0.0777387 0.860678 0.50318 0.199183 0.279534 
4.99999 -1e-06 5.00021 0.82944 0.352355 0.433447 0.199183 0.279534 
0.098862 0.086999 4.8796 -0.0907208 0.935409 0.341731 0.199183 0.279534 
1.56522 0.053919 4.9052 0.0132508 0.78575 0.618402 0.199183 0.279534 
1.93247 -0.000801 4.84284 0 -0.999987 0.00508395 0.199183 0.279534 
2.54894 0.057814 4.89609 -0.181723 0.936247 0.300697 0.199183 0.279534 
4.09952 0.043594 4.91699 0.327281 0.924328 0.196227 0.199183 0.279534 
4.28488 0.053919 4.91353 0.0587221 0.814604 0.577037 0.199183 0.279534 
0.047844 0.092659 4.7094 -0.643665 0.762572 0.0646436 0.199183 0.279534 
-8e-06 -1e-06 4.68659 -0.978426 -0.206565 -0.00361377 0.199183 0.279534 
3.41684 -0.000801 4.64752 0.00012845 -0.999999 0.00169165 0.199183 0.279534 
0.894142 0.062729 4.89965 -0.227177 0.623371 0.748197 0.199183 0.279534 
2.36332 0.044539 4.91771 0.1322 0.97243 0.192101 0.199183 0.279534 
4.9081 0.054394 4.87057 0.354869 0.924108 0.14175 0.199183 0.279534 
0.291843 -0.000801 3.55377 -0.00164579 -0.999999 0.000130299 0.199183 0.279534 
2.40122 -0.0008 0.428778 -6.08717e-06 -1 7.76759e-05 0.19921 0.279618 
3.2641 0.098369 4.85013 0.0118065 0.92388 0.3825 0.199183 0.279534 
3.38246 0.053934 4.90515 0.00260651 0.840579 0.541683 0.199183 0.279534 
3.66016 0.097509 4.84957 0.00845155 0.928763 0.370578 0.199183 0.279534 
4.77649 0.100614 4.84768 0.155613 0.914215 0.374159 0.199183 0.279534 
4.26233 0.093294 4.87279 -0.322585 0.859974 0.395453 0.199183 0.279534 
0.677822 0.086199 4.88065 0.280908 0.889559 0.360245 0.199183 0.279534 
0.701492 0.038939 4.91408 0.554443 0.814357 0.171513 0.199183 0.279534 
1.4467 0.097219 4.89406 0.0361536 0.303198 0.952242 0.199183 0.279534 
0.849663 0.094994 4.89519 -0.719051 0.0890221 0.689232 0.199183 0.279534 
1.74649 0.100614 4.85298 0.0564559 0.638825 0.767278 0.199183 0.279534 
2.93849 0.089449 4.8857 -0.00415706 0.786475 0.617609 0.199183 0.279534 
2.6385 0.098939 4.84916 -0.149414 0.934206 0.323937 0.199183 0.279534 
2.15465 0.087484 4.86673 0.0585966 0.862091 0.503355 0.199183 0.279534 
4.05891 0.078874 4.87856 0.142495 0.886452 0.440339 0.199183 0.279534 
0.488205 0.100614 4.83785 0.0132157 0.991293 0.131012 0.199183 0.279534 
0.87471 0.097634 4.64142 -0.0205883 0.999731 -0.0106805 0.199166 0.303873 
2.11046 0.100614 4.71876 0.0320839 0.998874 0.0349574 0.199166 0.303873 
4.88636 0.089649 4.52788 0.531152 0.846337 0.0399005 0.199183 0.279534 
4.12668 0.037499 4.62769 0.14458 0.989412 0.0126391 0.199183 0.279534 
1.15647 0.099444 4.42195 -0.0222338 0.999278 -0.0308156 0.199166 0.303873 
0.79882 0.030484 4.50889 -0.509397 0.860444 -0.0122866 0.199183 0.279534 
2.34334 0.091414 4.59854 0.740551 0.66862 0.0673154 0.199183 0.279534 
4.07895 0.099469 4.75492 0.705242 0.701263 0.104234 0.199183 0.279534 
2.54233 0.100614 4.36571 0.00338703 0.999994 -0.000412198 0.199166 0.303873 
0.686073 0.091499 4.68924 0.725841 0.68697 0.0350266 0.199183 0.279534 
4.18076 0.044559 4.19855 -0.178199 0.97639 -0.122094 0.199183 0.279534 
2.36212 0.044679 4.68398 0.569994 0.821624 0.00642286 0.199183 0.279534 
4.83986 0.098989 4.44212 -0.00260018 0.999995 -0.00201746 0.199166 0.303873 
2.16863 0.100614 4.26718 -0.00470078 0.999981 -0.00404741 0.199166 0.303873 
0.509621 0.100614 4.22031 -0.00280555 0.999995 -0.00134804 0.199166 0.303873 
4.99793 0.042504 4.13969 0.447279 0.894214 -0.0179419 0.199183 0.279534 
4.25229 0.099714 4.54749 -0.620576 0.784139 0.00327622 0.199183 0.279534 
0.689663 0.094934 4.23053 0.851349 0.326671 -0.410476 0.199183 0.279534 
2.5411 0.044579 4.20337 -0.243338 0.954054 -0.174835 0.199183 0.279534 
0.041973 0.090384 4.23418 -0.0220038 0.999748 -0.0045142 0.199166 0.303873 
2.35856 0.099979 4.26644 0.028684 0.999486 0.0143301 0.199166 0.303873 
0.876144 0.080299 4.41465 -0.0676403 0.997535 -0.0186821 0.199166 0.303873 
4.48216 0.100219 4.22922 -0.000622351 1 -0.000817424 0.199166 0.303873 
4.89901 0.096434 4.23469 0.512 0.755515 -0.408721 0.199183 0.279534 
4.03538 0.053789 4.1709 0.436655 0.879069 -0.191236 0.199183 0.279534 
2.36257 0.044274 4.20047 0.169933 0.963975 -0.204635 0.199183 0.279534 
4.91911 0.043014 4.21853 0.35224 0.871911 -0.340145 0.199183 0.279534 
4.25714 0.094599 4.31293 -0.033318 0.999192 -0.022478 0.199166 0.303873 
0.70089 0.040644 4.21776 0.226161 0.899423 -0.374018 0.199183 0.279534 
0.895531 0.044424 4.15849 -0.154845 0.984252 -0.0852741 0.199183 0.279534 
0.869301 0.086149 4.25369 -0.0356397 0.9992 -0.0181252 0.199166 0.303873 
4.99781 3.9e-05 3.92489 0.96673 0.255561 -0.0110152 0.199183 0.279534 
2.95121 0.097639 4.2256 0.00253978 0.999985 -0.00491818 0.199166 0.303873 
0.03936 0.044734 4.21773 -0.424642 0.842343 -0.33187 0.199183 0.279534 
1.33772 0.085714 4.23536 0.00359191 0.999024 -0.0440281 0.199166 0.303873 
2.61577 0.089734 4.24222 -0.122646 0.772314 -0.623288 0.199183 0.279534 
4.07243 0.093954 4.21119 0.00315565 0.999943 -0.0101803 0.199166 0.303873 
0.008835 0.040309 4.04085 -0.750422 0.660802 0.0144303 0.199183 0.279534 
1.69973 0.044799 4.21784 0.00253239 0.904437 -0.426598 0.199183 0.279534 
3.38215 0.042659 4.15044 -0.0315543 0.890878 -0.453144 0.199183 0.279534 
1.06185 0.043984 4.20846 0.0192766 0.904923 -0.425138 0.199183 0.279534 
2.91148 0.044499 4.21744 -0.0289928 0.829342 -0.557988 0.199183 0.279534 
0.722885 0.044539 4.09905 0.362175 0.829251 0.425644 0.199183 0.279534 
1.84544 0.054209 4.02021 -0.00480294 0.946314 0.323215 0.199183 0.279534 
4.90097 0.047944 4.08898 0.17491 0.912078 0.370836 0.199183 0.279534 
2.46333 0.054189 3.97176 0.00768734 0.954465 0.298223 0.199183 0.279534 
3.93343 0.044759 3.96966 0.114164 0.982471 0.147369 0.199183 0.279534 
1.0068 0.053819 3.95184 -0.166995 0.975112 0.14584 0.199183 0.279534 
3.31043 0.035799 4.02288 0.000150339 0.978058 0.208332 0.199183 0.279534 
4.15482 0.045174 4.05842 -0.14994 0.969328 0.194736 0.199183 0.279534 
2.04883 0.096404 3.92038 0.0264783 0.905123 0.424324 0.199183 0.279534 
1.03407 0.099954 3.92454 -0.369855 0.785904 0.495543 0.199183 0.279534 
2.69681 0.096324 3.92261 -0.0359403 0.836699 0.546483 0.199183 0.279534 
2.57406 0.099729 3.8593 -0.0316882 0.936895 0.348173 0.199183 0.279534 
0.717041 0.099784 4.0882 0.698919 0.208296 0.684197 0.199183 0.279534 
0.184311 0.100614 4.08931 -0.11848 0.337826 0.933721 0.199183 0.279534 
2.39752 0.100314 3.87987 0.0455242 0.905501 0.421896 0.199183 0.279534 
4.77416 0.100554 4.08932 0.169315 0.852776 0.494071 0.199183 0.279534 
4.22528 0.100409 4.08843 -0.574111 0.51435 0.637057 0.199183 0.279534 
2.95461 0.080244 3.92048 0.00749432 0.831052 0.556145 0.199183 0.279534 
0.055862 0.078069 4.06827 -0.418293 0.826938 0.375771 0.199183 0.279534 
3.89059 0.099864 3.92433 0.535595 0.793238 0.289676 0.199183 0.279534 
3.27794 0.090714 3.91347 -0.00588888 0.821136 0.570703 0.199183 0.279534 
3.26527 0.100614 3.70329 -0.0157672 0.998723 0.0479941 0.199166 0.303873 
4.84644 0.094534 3.93429 0.384327 0.922159 0.0437727 0.199183 0.279534 
3.93588 0.045034 3.55924 0.411363 0.908627 0.0719553 0.199183 0.279534 
-8e-06 -1e-06 3.80768 -0.99249 -0.122145 -0.00665591 0.199183 0.279534 
0.661095 0.100614 3.48245 -0.000500163 0.999999 -0.00107502 0.199166 0.303873 
1.14759 0.100579 3.72194 -0.00246956 0.999996 0.00161053 0.199166 0.303873 
1.03319 0.099884 3.1005 -0.462158 0.886798 1.75244e-05 0.199183 0.279534 
0.057915 0.092774 3.92064 -0.611829 0.790945 0.00851116 0.199183 0.279534 
2.68824 0.100614 3.27082 -0.00716458 0.999935 0.00889693 0.199161 0.304082 
4.22045 0.054234 3.29542 -0.604299 0.795852 -0.037989 0.199183 0.279534 
0.743362 0.044804 3.62025 0.294098 0.955405 -0.0266077 0.199183 0.279534 
0.714714 0.099389 3.64566 0.0259701 0.999662 -0.00102882 0.199166 0.303873 
2.29462 0.096849 3.45714 0.00324198 0.999967 -0.00741894 0.199161 0.304082 
3.6951 0.100614 3.40094 0.0172291 0.999827 -0.00701933 0.199161 0.304082 
4.93416 0.041784 3.78869 0.438346 0.898804 0.00216089 0.199183 0.279534 
0.05986 0.075139 3.71999 -0.698963 0.714906 -0.0189831 0.199183 0.279534 
4.22601 0.099704 3.34419 -0.974018 0.210029 -0.0847208 0.199183 0.279534 
3.86241 0.099824 3.52966 0.0268569 0.999225 -0.028775 0.199161 0.304082 
2.4371 0.095374 3.38671 -0.00765677 0.999921 -0.0100072 0.199161 0.304082 
1.15122 -0.0008 0.741278 -9.62417e-08 -1 -3.84967e-07 0.19921 0.279618 
4.8696 0.086549 3.65684 0.556046 0.831149 -0.00213874 0.199183 0.279534 
0.869164 0.054229 3.54137 -0.191397 0.98141 -0.0142067 0.199183 0.279534 
4.99781 3.9e-05 3.378 0.00043346 -1 -3.60469e-05 0.19921 0.279618 
4.9893 0.037864 3.61214 0.604306 0.796298 0.0269052 0.199183 0.279534 
4.59987 0.095364 3.51211 -0.00747588 0.999916 0.0106038 0.199166 0.303873 
3.97562 0.086944 3.40097 0.754191 0.626289 0.197379 0.199183 0.279534 
0.106331 0.100614 3.48937 -0.422511 0.906153 -0.0192625 0.199183 0.279534 
0.005165 0.041549 3.2806 -0.861247 0.508118 -0.008326 0.199183 0.279534 
0.655457 0.100614 3.28255 -0.00174904 0.999988 -0.0046438 0.199166 0.303873 
0.721344 0.044279 3.35656 0.547102 0.836329 -0.0351225 0.199183 0.279534 
-8e-06 0 2.67487 -0.969251 -0.246035 -0.00433453 0.199183 0.279534 
0.053421 0.090625 2.91242 -0.478822 0.877835 -0.0116383 0.199183 0.279534 
0.783783 0.025739 3.43825 0.00932473 0.999669 -0.0239931 0.199183 0.279534 
1.89883 0.0979 3.07477 0.0110914 0.999915 -0.00679971 0.199161 0.304082 
4.83407 0.100614 3.22529 0.00556941 0.999944 0.00902675 0.199166 0.303873 
4.0304 0.045024 3.11136 0.440971 0.89686 0.034457 0.199183 0.279534 
4.92004 0.045209 3.23884 0.32505 0.945685 -0.00473819 0.199183 0.279534 
3.89159 0.09981 2.84154 0.0165148 0.999852 0.00477992 0.199161 0.304082 
2.36107 0.090419 3.09606 -0.0055132 0.999952 -0.00813553 0.199161 0.304082 
4.18679 0.045265 3.06016 -0.168575 0.985681 -0.00394712 0.199183 0.279534 
0.721123 0.09405 2.55109 0.617165 0.785347 0.048358 0.199183 0.279566 
4.2616 0.084064 3.11619 -0.795573 0.605308 -0.0258126 0.199183 0.279534 
0.873096 0.05423 2.84344 -0.118842 0.992912 0.0018021 0.199183 0.279534 
4.99369 0.04011 2.65546 0.565166 0.824837 -0.015191 0.199183 0.279534 
4.36506 0.100604 3.12902 -0.0628445 0.997581 0.0296974 0.199166 0.303873 
4.91946 0.042745 2.53899 0.366432 0.92682 -0.0820549 0.199183 0.279534 
0.184612 0.10058 2.55218 -0.0555182 0.704903 -0.707128 0.199183 0.279534 
4.01119 0.045025 2.66877 0.217991 0.975863 -0.0131039 0.199183 0.279534 
2.27278 0.08973 2.8644 -0.0170441 0.999855 -0.000259209 0.199161 0.304082 
1.77572 0.09665 2.72631 0.0203744 0.999751 -0.00911826 0.199161 0.304082 
4.21843 0.04476 2.53809 -0.230394 0.936362 -0.26485 0.199183 0.279534 
0.012302 0.038885 2.58048 -0.732943 0.665855 -0.139394 0.199183 0.279534 
1.18879 0.100615 2.47936 0.00123171 0.999993 -0.0034882 0.199166 0.303873 
4.88102 0.087355 2.56705 0.0120163 0.999849 -0.0125401 0.199166 0.303873 
0.088371 0.095015 2.55718 -0.556327 0.732771 -0.391851 0.199183 0.279534 
4.22548 0.10038 2.55286 -0.705575 0.264061 -0.657599 0.199183 0.279534 
0.721245 0.044125 2.53814 0.176706 0.903461 -0.390556 0.199183 0.279534 
0.982807 0.05103 2.31075 -0.353523 0.935415 -0.00446312 0.199183 0.279534 
2.07747 0.082195 2.56708 -0.00713783 0.999971 0.00260892 0.199161 0.304082 
1.03387 0.099845 2.405 -0.691875 0.722017 0.000868676 0.199183 0.279534 
1.70033 0.10058 2.41204 0.0173408 0.999788 -0.0110959 0.199161 0.304082 
3.89148 0.099845 2.16066 -0.00220006 0.999967 -0.00785156 0.199161 0.304082 
0.058582 0.043985 2.53861 -0.15787 0.846099 -0.509111 0.199183 0.279534 
4.99781 4e-05 2.04989 0.989527 0.142076 0.0255146 0.199183 0.279534 
2.32708 0.100615 2.5529 -0.0407305 0.999155 0.00548569 0.199161 0.304082 
4.1991 0.04518 2.42072 -0.249836 0.949817 0.18823 0.199183 0.279534 
0.705055 0.044735 2.4394 0.404796 0.817451 0.409773 0.199183 0.279534 
3.92803 0.045025 1.926 0.382351 0.923993 -0.00663673 0.199183 0.279534 
2.72834 0.100615 2.44232 0.00125892 0.999998 -0.00152738 0.199161 0.304082 
4.81778 0.05906 2.41514 0.219932 0.605636 0.764745 0.199183 0.279534 
0.013664 0.038935 2.37925 -0.709311 0.68384 0.170997 0.199183 0.279534 
-8e-06 0 2.08893 -0.764955 -0.644074 0.00362545 0.199183 0.279534 
4.87492 0.079215 2.36726 0.658422 0.613956 0.435361 0.199183 0.279534 
4.79036 0.09013 2.40336 0.196722 0.86138 0.468322 0.199183 0.279534 
0.71756 0.100405 2.41718 0.720478 0.111408 0.684471 0.199183 0.279534 
0.205833 0.100615 2.4178 -0.158834 0.700851 0.695399 0.199183 0.279534 
4.22553 0.100405 2.4172 -0.403072 0.185787 0.896111 0.199183 0.279534 
4.60358 0.100615 2.41797 0.0477991 0.179278 0.982637 0.199183 0.279534 
4.22617 0.09983 2.03498 -0.4663 0.880122 -0.0891595 0.199183 0.279534 
0.050491 0.09227 1.96176 -0.522217 0.852504 0.0229433 0.199183 0.279534 
0.71727 0.10035 2.05762 0.0318744 0.99938 -0.0149924 0.199166 0.303873 
4.92006 0.0452 2.24256 0.478999 0.87347 0.0872342 0.199183 0.279534 
4.99828 0.034995 2.1866 0.829162 0.553914 0.0753049 0.199183 0.279534 
2.18414 0.090785 2.15564 -0.0158013 0.999875 5.48611e-05 0.199161 0.304082 
1.0331 0.099825 2.19283 -0.696391 0.717662 -2.08611e-05 0.199183 0.279534 
4.39828 0.092615 2.00865 0.0239782 0.999607 -0.0145405 0.199166 0.303873 
1.22217 0.09306 1.97583 0.00465371 0.999986 -0.00243837 0.199161 0.304082 
1.73376 0.08801 2.15375 0.00317101 0.999955 -0.00897306 0.199161 0.304082 
-0.000648 0.02555 1.62018 -0.919993 0.391625 -0.0155855 0.199183 0.279534 
2.94265 0.09653 2.1727 0.00711199 0.999973 -0.00190263 0.199161 0.304082 
4.10781 0.03445 1.9149 -0.236326 0.971394 -0.0233233 0.199183 0.279534 
0.721535 0.04477 1.63778 0.580983 0.813539 0.0247519 0.199183 0.279534 
4.88795 0.087705 1.9136 0.458739 0.888464 0.0138201 0.199183 0.279534 
3.88814 0.095735 1.94576 0.783909 0.620782 -0.0107709 0.199183 0.279534 
2.78636 0.099335 2.01363 0.00166807 0.999996 -0.0023192 0.199161 0.304082 
1.86991 0.09952 1.7786 -0.000854328 0.999881 0.0154241 0.199161 0.304082 
4.27374 0.079755 1.90994 -0.171152 0.983335 -0.0613072 0.199183 0.279534 
0.054771 0.091805 1.5888 -0.441209 0.897404 0.000700314 0.199183 0.279534 
2.42993 0.099755 1.99589 -0.0183659 0.999808 -0.00686638 0.199161 0.304082 
4.81346 0.10022 1.28699 0.0047244 0.999982 0.00363527 0.199166 0.303873 
4.92005 0.0452 1.71683 0.487473 0.873137 -0.0016515 0.199183 0.279534 
4.28804 0.0984 1.72181 0.00431304 0.999947 0.0093969 0.199166 0.303873 
1.03428 0.099225 1.68792 0.0344887 0.999404 -0.00110653 0.199166 0.303873 
2.44256 0.095825 1.78585 -0.0069539 0.99996 -0.00563419 0.199161 0.304082 
-8e-06 0 1.60064 -0.892467 -0.450392 -0.0254766 0.199183 0.279534 
4.99297 0.039845 1.65925 0.677113 0.735848 -0.0066956 0.199183 0.279534 
3.09897 0.100615 1.26074 -0.011108 0.999681 -0.0226843 0.199161 0.304082 
4.88533 0.091425 1.57575 0.517795 0.855504 -0.00114507 0.199183 0.279534 
0.163681 0.10032 0.880377 0.00930266 0.999853 -0.0144074 0.199166 0.303873 
1.80313 0.100615 1.11876 -0.00637411 0.999957 -0.00667953 0.199161 0.304082 
4.22058 0.054165 1.60455 -0.375282 0.926832 0.0120734 0.199183 0.279534 
3.59047 0.100615 1.1038 -0.00900195 0.999562 -0.0281927 0.199161 0.304082 
0.964211 0.05427 1.1855 -0.290991 0.956178 -0.032361 0.199183 0.279534 
4.2211 0.09403 0.879744 -0.484032 0.651227 -0.58448 0.199183 0.279534 
2.23944 0.100615 1.47708 0.019459 0.999799 -0.00475659 0.199161 0.304082 
4.17939 0.043925 0.912817 -0.205614 0.956084 -0.208866 0.199183 0.279534 
4.99781 4e-05 1.22957 0.999464 -0.0318128 -0.0077478 0.199183 0.279534 
0.054085 0.093935 1.29955 -0.568328 0.822348 -0.0273232 0.199183 0.279534 
2.71041 0.100615 1.3314 -0.0213778 0.999421 -0.0264829 0.199161 0.304082 
3.89235 0.093965 1.06294 0.0217661 0.999761 -0.00190073 0.199166 0.303873 
1.04192 0.09526 1.45441 -0.407454 0.912975 -0.0214134 0.199183 0.279534 
4.36869 0.100605 0.880056 0.00578377 0.999969 -0.00537549 0.199166 0.303873 
0.765617 0.04474 0.919455 0.205922 0.958682 -0.19628 0.199183 0.279534 
4.98022 0.036045 1.05383 0.619216 0.785197 0.00608706 0.199183 0.279534 
4.86595 0.09574 1.16684 0.476236 0.879001 0.0235751 0.199183 0.279534 
0.037113 0.0544 1.16659 -0.831985 0.55276 -0.0475073 0.199183 0.279534 
4.92041 0.04404 0.878592 0.452167 0.877168 -0.161619 0.199183 0.279534 
2.45129 0.0895 1.38721 0.00300402 0.999784 -0.0205596 0.199161 0.304082 
4.99781 4e-05 0.799887 0.969359 -0.245587 0.00543889 0.199183 0.279534 
2.94383 0.09179 1.07329 -0.018449 0.999153 -0.0367692 0.199161 0.304082 
0.988335 0.043965 1.02385 -0.0474839 0.984956 -0.166155 0.199183 0.279534 
3.92623 0.044735 1.03255 0.12136 0.977483 -0.172624 0.199183 0.279534 
2.08335 0.09992 1.08714 0.0209557 0.999777 -0.00254938 0.199161 0.304082 
0.0923 0.09077 0.88851 -0.527063 0.783672 -0.328731 0.199183 0.279534 
1.04545 0.091425 1.11106 -0.323031 0.920448 -0.22006 0.199183 0.279534 
2.45097 0.09409 1.0703 0.0319366 0.999385 0.0144426 0.199161 0.304082 
2.63755 0.0849 1.0942 0.0113761 0.9999 -0.00846599 0.199161 0.304082 
3.26662 0.09238 1.07371 -0.010712 0.998507 -0.0535678 0.199161 0.304082 
4.89679 0.093855 0.887838 0.373948 0.619642 -0.690077 0.199183 0.279534 
-8e-06 0 0.741064 -0.975405 0.159547 0.152082 0.199183 0.279534 
1.21024 0.078595 1.09206 0.0135807 0.999122 -0.0396428 0.199166 0.303873 
1.48034 0.09121 1.08106 -0.0493363 0.996414 -0.0687433 0.199166 0.303873 
1.85082 0.09271 1.05959 -0.00778297 0.859129 -0.5117 0.199183 0.279534 
0.033661 0.03679 0.88236 -0.476477 0.757747 -0.445859 0.199183 0.279534 
4.99454 0.04044 0.721594 0.439832 0.894518 0.0799054 0.199183 0.279534 
2.77443 0.044935 0.993887 -0.00855971 0.965453 -0.260435 0.199183 0.279534 
1.47732 0.04417 1.0328 -0.0162079 0.89184 -0.45206 0.199183 0.279534 
2.11697 0.044415 1.01979 -0.0171654 0.952798 -0.30312 0.199183 0.279534 
2.33384 0.04479 0.996847 0.0351032 0.969543 -0.242393 0.199183 0.279534 
3.48802 0.044935 0.967695 0.0063486 0.978863 -0.204417 0.199183 0.279534 
4.571 0.04476 0.877951 -0.00153522 0.712481 -0.70169 0.199183 0.279534 
1.06337 0.029945 0.866224 0.00595195 0.999669 0.0250355 0.199183 0.279534 
1.49597 0.03226 0.921316 -0.00289131 0.999995 -0.000936129 0.199183 0.279534 
1.73663 0.032805 0.799757 -0.0150303 0.992586 0.120612 0.199183 0.279534 
2.94729 0.040985 0.827078 -0.00309895 0.999784 0.0205495 0.199183 0.279534 
0.05497 0.049045 0.72933 -0.12566 0.901538 0.414052 0.199183 0.279534 
0.688194 0.04481 0.762693 0.192875 0.97734 0.087207 0.199183 0.279534 
4.1721 0.038215 0.748602 -0.100773 0.986236 0.131086 0.199183 0.279534 
2.06526 0.052885 0.763823 -0.0256512 0.899452 0.436267 0.199183 0.279534 
2.36105 0.064775 0.746984 0.395437 0.904939 0.157213 0.199183 0.279534 
2.51925 0.045135 0.73995 -0.11864 0.9777 0.173285 0.199183 0.279534 
3.59889 0.054165 0.73374 -0.0133401 0.821989 0.569347 0.199183 0.279534 
4.04994 0.04796 0.765303 0.561971 0.747532 0.354097 0.199183 0.279534 
0.816132 0.04494 0.73628 -0.204925 0.957223 0.204277 0.199183 0.279534 
4.84979 0.04887 0.731184 0.133854 0.824496 0.549809 0.199183 0.279534 
1.02349 0.053345 0.733 -0.0147529 0.830476 0.556859 0.199183 0.279534 
1.71067 0.095965 0.725218 -0.00950826 0.720101 0.693804 0.199183 0.279534 
0.921032 0.090245 0.716337 -0.102064 0.863921 0.493177 0.199183 0.279534 
3.79346 0.1 0.730581 -0.00514647 0.383531 0.923514 0.199183 0.279534 
3.34728 0.1 0.730474 0.0023336 0.0838147 0.996479 0.199183 0.279534 
0.158562 0.09945 0.642897 0.0534649 0.892565 0.447738 0.199183 0.279534 
0.057972 0.0825 0.702795 -0.306844 0.83514 0.456496 0.199183 0.279534 
4.07197 0.086555 0.72547 0.78586 0.166135 0.595671 0.199183 0.279534 
4.7764 0.100615 0.731009 0.319115 0.455413 0.831123 0.199183 0.279534 
4.34191 0.093155 0.721182 -0.112501 0.528912 0.841187 0.199183 0.279534 
0.625572 0.100615 0.686102 0.207537 0.892443 0.400593 0.199183 0.279534 
1.03778 0.09847 0.631674 -0.0278049 0.997894 0.0586027 0.199183 0.279534 
4.86977 0.076375 0.639715 0.330065 0.929043 0.167141 0.199183 0.279534 
2.35898 0.100605 0.414282 0.0187949 0.999477 0.0263251 0.199166 0.303873 
2.54218 0.100605 0.345083 -0.0142196 0.999616 0.0237668 0.199166 0.303873 
0.838722 -0.0008 0.585028 -0.000313042 -1 -0.000382023 0.199183 0.279534 
4.2523 0.088215 0.612104 -0.696508 0.707342 0.120601 0.199183 0.279534 
2.36283 0.044005 0.057905 0.244183 0.944541 -0.219586 0.199183 0.279534 
0.834221 0.09307 0.497061 -0.613953 0.787036 0.0603026 0.199183 0.279534 
1.49423 0.100615 0.203344 -0.00500121 0.999986 0.00162584 0.199166 0.303873 
4.20805 0.05374 0.32691 -0.760168 0.645469 0.074254 0.199183 0.279534 
4.21082 0.100615 0.326361 -0.0102852 0.999914 0.00812897 0.199166 0.303873 
1.84274 0.09976 0.127584 0.00541347 0.999962 -0.00688104 0.199166 0.303873 
4.06579 0.086985 0.477613 0.0510844 0.998688 0.00361211 0.199166 0.303873 
1.05356 -0.0008 0.565489 0 -1 0 0.199183 0.279534 
1.07309 -0.0008 0.545958 0 -1 0 0.199183 0.279534 
2.14731 -0.0008 0.272528 -0.000705659 -0.999999 -0.00149722 0.199183 0.279534 
0.653008 0.10061 0.17565 -0.0129333 0.999854 -0.0112039 0.199166 0.303873 
2.54235 0.049925 0.054159 -0.365818 0.781056 -0.506091 0.199183 0.279534 
1.05356 -0.0008 0.545958 0 -1 0 0.199183 0.279534 
4.99999 0 0.000212 0.499804 0.193628 -0.844218 0.199183 0.279534 
0.044342 0.08595 0.156767 -0.556656 0.822368 -0.117665 0.199183 0.279534 
4.98353 0.035745 0.290831 0.684629 0.726028 -0.064553 0.199183 0.279534 
1.15122 -0.0008 0.428778 -0.000232514 -0.999999 -0.00116969 0.199183 0.279534 
4.75331 0.09683 0.095343 0.0398769 0.99914 -0.0113779 0.199166 0.303873 
4.87403 0.08303 0.121222 0.190695 0.981647 0.0022223 0.199166 0.303873 
2.34314 0.08921 0.063406 0.754057 0.497869 -0.428397 0.199183 0.279534 
0.801533 0.041725 0.058645 -0.251486 0.78643 -0.564166 0.199183 0.279534 
2.55219 0.094255 0.054197 -0.512257 0.638867 -0.57397 0.199183 0.279534 
0.830402 0.095295 0.052954 -0.428809 0.68883 -0.584496 0.199183 0.279534 
4.06775 0.08964 0.065763 0.0125095 0.999867 -0.01042 0.199166 0.303873 
-8e-06 0 0.000196 -0.542269 0.293863 -0.78714 0.199183 0.279534 
4.86667 0.072135 0.068022 0.247692 0.874369 -0.417285 0.199183 0.279534 
4.09982 0.04254 0.058165 0.0086027 0.976055 -0.217355 0.199183 0.279534 
2.75725 0.100605 0.181005 -0.00465464 0.999971 -0.00610117 0.199166 0.303873 
4.21473 0.097595 0.157095 -0.000626853 0.99984 -0.0178534 0.199166 0.303873 
0.701004 0.042905 0.04151 0.358543 0.74338 -0.564653 0.199183 0.279534 
0.084953 0.088255 0.065008 -0.237246 0.899685 -0.366443 0.199183 0.279534 
3.23796 0.09759 0.109564 0.0130032 0.999879 -0.00849135 0.199166 0.303873 
3.76757 0.080615 0.053808 -2.51153e-05 0.99959 -0.0286306 0.199166 0.303873 
2.30356 -0.0008 0.194395 0 -1 0 0.199183 0.279534 
2.32309 -0.0008 0.174871 0.00151653 -0.999998 -0.00161162 0.199183 0.279534 
2.30356 -0.0008 0.174871 -0.00109997 -0.999995 -0.00290492 0.199183 0.279534 
2.40122 0 0.000196 -0.00618374 -0.773899 -0.633278 0.199183 0.279534 
1.52959 0.089965 0.064322 -0.00507144 0.856909 -0.515443 0.199183 0.279534 
2.87766 0.09329 0.05335 0.00413907 0.716754 -0.697314 0.199183 0.279534 
1.27674 0.083245 0.058958 -0.0109177 0.759678 -0.650208 0.199183 0.279534 
0.062103 0.044125 0.040678 -0.253137 0.642861 -0.722946 0.199183 0.279534 
0.687904 0.093175 0.057447 0.343313 0.722422 -0.600202 0.199183 0.279534 
1.07309 0 0.000196 -0.011827 -0.151564 -0.988377 0.199183 0.279534 
2.07266 0.093345 0.062094 0.0321863 0.851083 -0.524043 0.199183 0.279534 
3.38292 0.073745 0.049612 0.00910436 0.709064 -0.705085 0.199183 0.279534 
2.50262 0.034735 0.01235 0.0110062 0.811138 -0.584752 0.199183 0.279534 
3.69034 0.041635 0.031363 0.00301952 0.60702 -0.794681 0.199183 0.279534 
4.29938 0.06247 0.053022 -0.0368553 0.89524 -0.444058 0.199183 0.279534 
1.19051 0.037585 0.022055 -0.0140427 0.588551 -0.808338 0.199183 0.279534 
3.32151 0.0451 0.038504 0.00169507 0.582814 -0.812604 0.199183 0.279534 
1.58197 0.045075 0.038488 0.00169137 0.511388 -0.859348 0.199183 0.279534 
4.83899 0.037355 0.016119 0.044556 0.786655 -0.615783 0.199183 0.279534 
0.604343 0 0.000196 0.0702335 -0.00321041 -0.997525 0.199183 0.279534 
3.74887 0 0.000212 -0.00384897 0.0382432 -0.999261 0.199183 0.279534 
2.9676 0.04099 0.007505 0.00240526 0.745649 -0.666334 0.199183 0.279534 
4.27633 0.042405 0.000357 -0.0195409 0.757729 -0.652276 0.199183 0.279534 
1.93247 -0.000801 4.84284 -1.87034e-05 -1 -2.21274e-06 0.19921 0.279618 
3.00668 -1e-06 5.0002 -0.000441383 -1 0.00023324 0.19921 0.279618 
1.4467 0.097219 4.89406 -0.00608841 0.999862 0.0154265 0.199166 0.303873 
0.849663 0.094994 4.89519 -0.00370753 0.999943 0.0100364 0.199166 0.303873 
1.74649 0.100614 4.85298 0.00493103 0.999958 0.0077942 0.199166 0.303873 
2.15465 0.087484 4.86673 0.051475 0.996002 0.0730057 0.199166 0.303873 
0.291843 -0.000801 3.55377 0.000256135 -1 0.000172572 0.19921 0.279618 
0.877785 -1e-06 5.0002 -0.000129199 -1 0.000131726 0.19921 0.279618 
2.34334 0.091414 4.59854 0.0637913 0.996842 0.0472848 0.199166 0.303873 
2.6385 0.098939 4.84916 0.000906076 0.999994 0.00328434 0.199166 0.303873 
3.2641 0.098369 4.85013 0.00178991 0.999998 -0.000429906 0.199166 0.303873 
2.54233 0.100614 4.36571 -0.53762 0.837864 -0.0946015 0.199183 0.279534 
4.26233 0.093294 4.87279 0.00236085 0.999969 0.00754206 0.199166 0.303873 
4.77649 0.100614 4.84768 -0.0145417 0.999875 -0.00627854 0.199166 0.303873 
4.83986 0.098989 4.44212 0.152234 0.988027 0.0250589 0.199183 0.279534 
0.047844 0.092659 4.7094 -0.0199424 0.999798 -0.00256716 0.199166 0.303873 
0.488205 0.100614 4.83785 0.0218475 0.999758 0.00278645 0.199166 0.303873 
0.87471 0.097634 4.64142 -0.602332 0.796102 -0.0584561 0.199183 0.279534 
4.25229 0.099714 4.54749 -0.00461807 0.999988 -0.00174869 0.199166 0.303873 
0.876144 0.080299 4.41465 -0.546928 0.837156 -0.00623648 0.199183 0.279534 
2.35856 0.099979 4.26644 0.799538 0.545782 -0.250722 0.199183 0.279534 
0.041973 0.090384 4.23418 -0.820215 0.377068 -0.430195 0.199183 0.279534 
3.41684 -0.000801 4.64752 -0.000213238 -1 9.38137e-05 0.19921 0.279618 
0.689663 0.094934 4.23053 0.0416998 0.99912 0.00448817 0.199166 0.303873 
0.686073 0.091499 4.68924 0.0519242 0.99862 0.00788443 0.199166 0.303873 
4.25714 0.094599 4.31293 -0.338755 0.923889 -0.177974 0.199183 0.279534 
0.869301 0.086149 4.25369 -0.441042 0.789366 -0.427063 0.199183 0.279534 
2.95121 0.097639 4.2256 -0.0640954 0.641217 -0.764678 0.199183 0.279534 
4.07895 0.099469 4.75492 0.000875684 0.999986 -0.0053229 0.199166 0.303873 
4.89901 0.096434 4.23469 0.0092065 0.999911 -0.00969108 0.199166 0.303873 
4.07243 0.093954 4.21119 0.430112 0.475365 -0.767484 0.199183 0.279534 
2.16863 0.100614 4.26718 0.0016812 0.690503 -0.723328 0.199183 0.279534 
0.509621 0.100614 4.22031 0.00926473 0.210202 -0.977614 0.199183 0.279534 
1.33772 0.085714 4.23536 0.00194269 0.570297 -0.821436 0.199183 0.279534 
4.48216 0.100219 4.22922 -0.0366887 0.58881 -0.807438 0.199183 0.279534 
3.27794 0.090714 3.91347 -0.0157672 0.998723 0.0479941 0.199166 0.303873 
3.89059 0.099864 3.92433 -0.0157672 0.998723 0.0479941 0.199166 0.303873 
0.717041 0.099784 4.0882 0.0137664 0.999905 9.86263e-05 0.199166 0.303873 
0.184311 0.100614 4.08931 -0.0143516 0.999834 -0.0112755 0.199166 0.303873 
2.04883 0.096404 3.92038 0.00351896 0.999981 0.00505662 0.199166 0.303873 
1.03407 0.099954 3.92454 -0.0010637 0.999996 0.00248888 0.199166 0.303873 
2.69681 0.096324 3.92261 0.0434088 0.999039 0.00600522 0.199161 0.304082 
2.95461 0.080244 3.92048 0.0154814 0.999568 0.0249939 0.199161 0.304082 
3.27794 0.090714 3.91347 -0.03414 0.998325 0.0467065 0.199161 0.304082 
1.14759 0.100579 3.72194 0.00359731 0.999993 0.000904696 0.199161 0.304082 
2.04883 0.096404 3.92038 -0.00393604 0.999992 -0.00112773 0.199161 0.304082 
3.89059 0.099864 3.92433 0.00293853 0.999996 0.000335365 0.199161 0.304082 
3.26527 0.100614 3.70329 -0.0120402 0.999786 0.0167983 0.199161 0.304082 
0.714714 0.099389 3.64566 0.860885 0.506199 -0.0513803 0.199183 0.279534 
1.03319 0.099884 3.1005 -0.00528951 0.999986 -9.53282e-05 0.199166 0.303873 
2.39752 0.100314 3.87987 -0.00134665 0.999965 -0.0082416 0.199161 0.304082 
0.057915 0.092774 3.92064 -0.0150205 0.999883 -0.00278643 0.199166 0.303873 
3.86241 0.099824 3.52966 0.552045 0.820473 0.148564 0.199183 0.279534 
4.99781 3.9e-05 3.92489 0.00053132 -1 0 0.19921 0.279618 
2.57406 0.099729 3.8593 0.00150743 0.999997 -0.00212674 0.199161 0.304082 
4.84644 0.094534 3.93429 0.0273479 0.999528 -0.0140072 0.199166 0.303873 
4.22528 0.100409 4.08843 0.0103573 0.999944 -0.00202141 0.199166 0.303873 
4.8696 0.086549 3.65684 0.0309571 0.999516 0.00318328 0.199166 0.303873 
0.106331 0.100614 3.48937 0.00222546 0.999995 0.00247377 0.199166 0.303873 
3.97562 0.086944 3.40097 0.0486655 0.9986 -0.0207087 0.199161 0.304082 
4.22601 0.099704 3.34419 0.0257948 0.999168 -0.0316053 0.199166 0.303873 
4.99781 3.9e-05 3.378 0.985307 0.170784 0.00165251 0.199183 0.279534 
0.661095 0.100614 3.48245 0.4853 0.860861 -0.152977 0.199183 0.279534 
0.655457 0.100614 3.28255 0.640094 0.768153 0.0148612 0.199183 0.279566 
0.661095 0.100614 3.48245 0.66178 0.749466 -0.0186645 0.199183 0.279566 
0.721344 0.044279 3.35656 0.640094 0.768153 0.0148612 0.199183 0.279566 
4.83407 0.100614 3.22529 0.62516 0.780464 0.00716686 0.199183 0.279534 
4.2616 0.084064 3.11619 -0.098726 0.994604 0.0318869 0.199166 0.303873 
3.89159 0.09981 2.84154 0.418467 0.907988 -0.0210388 0.199183 0.279534 
0.721123 0.09405 2.55109 0.00433732 0.999982 -0.0041537 0.199166 0.303873 
0.184612 0.10058 2.55218 0.0121723 0.999925 0.000980444 0.199166 0.303873 
1.18879 0.100615 2.47936 0.00328579 0.999991 -0.00247223 0.199161 0.304082 
4.88102 0.087355 2.56705 0.331499 0.591438 -0.735057 0.199183 0.279534 
4.22548 0.10038 2.55286 -0.0715555 0.997293 0.0169474 0.199166 0.303873 
0.721123 0.09405 2.55109 0.707233 0.179191 -0.683895 0.199183 0.279534 
1.03387 0.099845 2.405 -0.00493727 0.999988 -6.86118e-05 0.199166 0.303873 
1.15122 -0.0008 0.741278 -0.000395941 -1 0.0001324 0.199183 0.279534 
0.71756 0.100405 2.41718 0.000410194 1 -0.000153297 0.199166 0.303873 
0.205833 0.100615 2.4178 -0.0221684 0.999754 0.000432582 0.199166 0.303873 
0.71727 0.10035 2.05762 0.974942 -0.220955 0.0258183 0.199183 0.279534 
3.89148 0.099845 2.16066 0.62968 0.776148 -0.0331218 0.199183 0.279534 
1.0331 0.099825 2.19283 0.0165483 0.999851 -0.00495115 0.199166 0.303873 
4.60358 0.100615 2.41797 0.0293369 0.999168 -0.0283196 0.199166 0.303873 
4.22617 0.09983 2.03498 0.017784 0.99965 -0.0195737 0.199166 0.303873 
4.22553 0.100405 2.4172 -0.000552388 0.999999 -0.0015053 0.199166 0.303873 
4.79036 0.09013 2.40336 0.0248749 0.999521 -0.0184169 0.199166 0.303873 
4.99781 4e-05 2.04989 0.000323736 -1 -3.76473e-07 0.19921 0.279618 
1.22217 0.09306 1.97583 0.0272867 0.9996 -0.00738778 0.199166 0.303873 
4.39828 0.092615 2.00865 -0.0759589 0.996531 -0.0339904 0.199183 0.279534 
3.88814 0.095735 1.94576 0.00137345 0.999999 0.000720184 0.199161 0.304082 
4.81346 0.10022 1.28699 0.0874844 0.996137 0.00759759 0.199183 0.279534 
4.28804 0.0984 1.72181 -0.306588 0.951597 0.0216186 0.199183 0.279534 
0.054771 0.091805 1.5888 -0.0672573 0.997734 0.00165257 0.199166 0.303873 
1.03428 0.099225 1.68792 -0.00263237 0.999996 -0.00111372 0.199161 0.304082 
1.03428 0.099225 1.68792 -0.569587 0.821907 -0.00627775 0.199183 0.279534 
4.99781 4e-05 1.22957 0.000323502 -1 0 0.19921 0.279618 
3.59047 0.100615 1.1038 0.0217661 0.999761 -0.00190073 0.199166 0.303873 
3.88814 0.095735 1.94576 0.0217661 0.999761 -0.00190073 0.199166 0.303873 
0.163681 0.10032 0.880377 -0.0888282 0.731974 -0.675517 0.199183 0.279534 
4.36869 0.100605 0.880056 -0.0123042 0.493597 -0.869604 0.199183 0.279534 
3.89235 0.093965 1.06294 0.625875 0.688924 -0.365602 0.199183 0.279534 
1.04192 0.09526 1.45441 -0.0196083 0.999401 -0.0285236 0.199161 0.304082 
2.40122 -0.0008 0.428778 0.000838233 -0.999999 -0.000693627 0.199183 0.279534 
1.04545 0.091425 1.11106 0.0764323 0.997021 -0.0103515 0.199166 0.303873 
1.04192 0.09526 1.45441 0.0135807 0.999122 -0.0396428 0.199166 0.303873 
1.48034 0.09121 1.08106 -0.0244825 0.998916 -0.0395852 0.199161 0.304082 
2.08335 0.09992 1.08714 0.00631852 0.87504 -0.484009 0.199183 0.279534 
1.80313 0.100615 1.11876 -0.0129772 0.989682 -0.14269 0.199183 0.279534 
4.89679 0.093855 0.887838 0.0129745 0.999828 -0.013235 0.199166 0.303873 
1.48034 0.09121 1.08106 -0.040856 0.844407 -0.534142 0.199183 0.279534 
0.765617 0.04474 0.919455 0.0947214 0.994506 -0.0445672 0.199166 0.303873 
2.63755 0.0849 1.0942 0.023865 0.864711 -0.501704 0.199183 0.279534 
2.94383 0.09179 1.07329 -0.0252245 0.883598 -0.467566 0.199183 0.279534 
1.21024 0.078595 1.09206 -0.013841 0.831197 -0.555806 0.199183 0.279534 
2.45097 0.09409 1.0703 0.0173399 0.791765 -0.610579 0.199183 0.279534 
3.26662 0.09238 1.07371 -0.0014854 0.896097 -0.443855 0.199183 0.279534 
3.59047 0.100615 1.1038 -0.0118751 0.806617 -0.590955 0.199183 0.279534 
1.71067 0.095965 0.725218 0.0115453 0.999427 0.0318082 0.199166 0.303873 
2.36105 0.064775 0.746984 0.0440651 0.993314 0.1067 0.199166 0.303873 
2.51925 0.045135 0.73995 -0.0639681 0.988754 0.135183 0.199166 0.303873 
3.34728 0.1 0.730474 -0.0320728 0.997131 0.0685663 0.199166 0.303873 
3.79346 0.1 0.730581 0.017415 0.999807 -0.00907084 0.199166 0.303873 
4.7764 0.100615 0.731009 0.0671751 0.997737 0.003001 0.199166 0.303873 
4.2523 0.088215 0.612104 -0.0255342 0.99964 0.00829976 0.199166 0.303873 
4.34191 0.093155 0.721182 -0.0164404 0.999361 -0.0317541 0.199166 0.303873 
1.03778 0.09847 0.631674 -0.00743273 0.999968 -0.00291305 0.199166 0.303873 
4.07197 0.086555 0.72547 0.0482288 0.998836 0.000530376 0.199166 0.303873 
0.158562 0.09945 0.642897 -0.0129333 0.999854 -0.0112039 0.199166 0.303873 
0.625572 0.100615 0.686102 -0.00248135 0.999997 -0.000143162 0.199166 0.303873 
2.54218 0.100605 0.345083 -0.979559 0.198075 -0.0350714 0.199183 0.279534 
0.653008 0.10061 0.17565 0.549363 0.833253 0.0623714 0.199183 0.279534 
4.21082 0.100615 0.326361 -0.996349 0.0595724 0.0611497 0.199183 0.279534 
4.06579 0.086985 0.477613 0.898154 -0.439563 -0.0101315 0.199183 0.279534 
4.86977 0.076375 0.639715 0.264554 0.964261 0.0145487 0.199166 0.303873 
2.35898 0.100605 0.414282 0.962952 -0.26742 -0.0347845 0.199183 0.279534 
4.87403 0.08303 0.121222 0.416335 0.896353 -0.152372 0.199183 0.279534 
0.834221 0.09307 0.497061 -0.0133338 0.999902 -0.004277 0.199166 0.303873 
0.044342 0.08595 0.156767 -0.0233823 0.999479 -0.022262 0.199166 0.303873 
0.830402 0.095295 0.052954 -0.00916648 0.999945 0.0050886 0.199166 0.303873 
4.06775 0.08964 0.065763 0.678232 0.316337 -0.663274 0.199183 0.279534 
2.34314 0.08921 0.063406 0.0168087 0.999307 -0.0332121 0.199166 0.303873 
2.55219 0.094255 0.054197 -0.0170961 0.999603 -0.022409 0.199166 0.303873 
4.21473 0.097595 0.157095 -0.518912 0.836405 -0.17651 0.199183 0.279534 
1.84274 0.09976 0.127584 -0.00205856 0.996672 -0.0814877 0.199183 0.279534 
1.49423 0.100615 0.203344 -0.00363603 0.994102 -0.108386 0.199183 0.279534 
2.75725 0.100605 0.181005 0.000106558 0.998368 -0.0571089 0.199183 0.279534 
3.76757 0.080615 0.053808 0.000315558 0.592224 -0.805773 0.199183 0.279534 
3.23796 0.09759 0.109564 0.00674936 0.96752 -0.252706 0.199183 0.279534 
4.75331 0.09683 0.095343 0.0421214 0.906806 -0.419439 0.199183 0.279534 
3 0 1 2
3 3 4 5
3 6 3 7
3 6 8 9
3 0 2 10
3 11 0 10
3 11 10 12
3 13 5 4
3 3 5 7
3 6 7 8
3 9 14 15
3 1 16 2
3 17 12 18
3 13 17 18
3 5 13 18
3 9 8 14
3 19 14 20
3 21 16 1
3 22 12 17
3 19 15 14
3 10 23 12
3 23 18 12
3 23 5 18
3 23 7 5
3 24 3 6
3 25 9 15
3 19 26 15
3 16 27 28
3 29 8 7
3 21 27 16
3 30 0 11
3 22 11 12
3 4 31 13
3 20 32 19
3 2 33 10
3 351 34 352
3 29 14 8
3 20 14 29
3 35 36 37
3 38 39 26
3 39 15 26
3 38 26 19
3 38 19 32
3 40 21 41
3 42 43 30
3 44 42 22
3 45 46 24
3 35 45 36
3 47 44 22
3 45 24 36
3 48 37 36
3 48 36 25
3 22 42 30
3 47 22 31
3 1 0 21
3 0 41 21
3 11 22 30
3 17 31 22
3 17 13 31
3 4 3 24
3 6 36 24
3 6 9 36
3 9 25 36
3 28 2 16
3 49 21 40
3 353 50 354
3 355 50 353
3 51 355 356
3 52 38 32
3 53 25 15
3 357 34 358
3 34 351 358
3 54 50 355
3 55 41 0
3 55 0 30
3 24 31 4
3 56 47 31
3 35 46 45
3 359 51 356
3 57 37 48
3 58 360 361
3 59 40 41
3 39 60 15
3 49 27 21
3 61 56 31
3 46 362 24
3 53 15 60
3 363 364 62
3 59 49 40
3 63 355 51
3 52 365 38
3 57 48 25
3 64 366 367
3 43 55 30
3 57 35 37
3 368 55 43
3 24 61 31
3 65 32 20
3 39 66 60
3 67 59 41
3 68 61 24
3 64 69 366
3 70 51 359
3 54 71 50
3 72 369 363
3 72 363 62
3 368 370 55
3 73 365 52
3 371 56 61
3 57 25 74
3 28 27 372
3 68 75 61
3 32 76 52
3 70 63 51
3 28 33 2
3 76 32 65
3 352 34 373
3 72 77 369
3 371 61 75
3 41 78 67
3 79 78 55
3 53 74 25
3 374 367 375
3 54 80 71
3 78 41 55
3 374 64 367
3 66 376 60
3 60 74 53
3 65 20 81
3 82 58 361
3 362 68 24
3 83 28 372
3 80 54 84
3 84 54 355
3 370 377 55
3 63 84 355
3 55 377 79
3 378 85 362
3 379 82 361
3 72 62 380
3 362 85 68
3 73 52 76
3 86 82 379
3 381 57 74
3 83 87 28
3 371 75 382
3 383 83 372
3 384 382 88
3 378 381 89
3 376 385 60
3 377 384 90
3 378 91 85
3 383 67 78
3 384 88 90
3 85 91 68
3 378 89 91
3 385 73 76
3 83 383 78
3 79 377 90
3 88 382 75
3 89 381 74
3 76 60 385
3 78 92 83
3 75 93 88
3 76 94 60
3 29 81 20
3 95 75 68
3 91 95 68
3 74 96 89
3 65 94 76
3 79 92 78
3 88 97 90
3 98 95 91
3 98 91 89
3 97 79 90
3 93 97 88
3 95 93 75
3 96 98 89
3 94 99 60
3 60 96 74
3 100 101 93
3 102 103 95
3 104 105 92
3 93 101 97
3 100 93 95
3 103 106 95
3 107 108 94
3 100 95 106
3 102 95 109
3 105 110 92
3 108 99 94
3 111 112 96
3 87 83 110
3 83 92 110
3 95 98 109
3 98 112 109
3 98 96 112
3 113 386 387
3 99 96 60
3 114 107 94
3 111 96 115
3 28 87 116
3 388 117 389
3 390 118 391
3 101 119 97
3 105 120 110
3 121 392 393
3 121 393 394
3 99 108 122
3 87 110 120
3 123 92 79
3 99 115 96
3 388 124 117
3 125 395 396
3 397 126 398
3 127 114 94
3 116 33 28
3 128 87 120
3 65 127 94
3 121 394 398
3 87 128 116
3 81 127 65
3 399 104 92
3 108 129 122
3 123 79 97
3 99 122 115
3 118 400 391
3 125 396 401
3 130 126 397
3 117 402 389
3 131 125 401
3 357 132 34
3 127 133 114
3 119 134 97
3 403 111 115
3 114 108 107
3 373 135 404
3 405 131 401
3 399 92 123
3 121 405 392
3 136 127 81
3 406 137 407
3 408 137 406
3 403 115 138
3 123 97 134
3 139 128 120
3 117 409 402
3 410 126 130
3 128 140 116
3 141 409 117
3 411 407 137
3 136 81 412
3 34 135 373
3 399 142 413
3 121 398 126
3 116 140 143
3 139 144 128
3 142 399 123
3 145 123 134
3 414 415 416
3 125 146 395
3 147 137 408
3 115 148 138
3 142 123 145
3 149 127 136
3 143 33 116
3 126 150 121
3 410 150 126
3 131 151 125
3 133 127 149
3 121 131 405
3 144 140 128
3 152 115 122
3 153 414 416
3 151 146 125
3 129 154 122
3 155 142 145
3 156 136 412
3 417 133 149
3 152 148 115
3 137 418 411
3 136 156 149
3 147 157 137
3 151 131 121
3 157 418 137
3 138 148 419
3 154 152 122
3 420 409 141
3 158 417 149
3 159 144 139
3 419 148 160
3 155 145 134
3 121 161 151
3 420 421 409
3 161 146 151
3 156 158 149
3 161 162 146
3 154 163 152
3 140 164 143
3 118 165 400
3 166 157 147
3 160 148 152
3 422 146 162
3 119 155 134
3 167 144 159
3 154 168 163
3 423 417 158
3 163 160 152
3 157 424 418
3 425 142 169
3 144 167 140
3 164 140 167
3 169 142 155
3 169 155 170
3 171 162 161
3 119 170 155
3 119 172 170
3 173 422 162
3 426 400 165
3 174 121 150
3 166 424 157
3 164 167 175
3 176 156 412
3 161 177 171
3 159 175 167
3 163 423 158
3 168 423 163
3 159 169 175
3 177 161 121
3 178 160 163
3 170 179 169
3 178 180 160
3 177 121 181
3 158 182 163
3 175 183 164
3 143 184 33
3 184 427 33
3 171 173 162
3 179 175 169
3 178 163 182
3 183 143 164
3 185 186 182
3 187 188 179
3 188 183 179
3 189 178 182
3 190 189 182
3 186 190 182
3 183 175 179
3 189 191 178
3 158 156 176
3 192 183 188
3 428 193 429
3 430 187 179
3 185 182 194
3 194 182 158
3 431 419 160
3 195 194 158
3 195 158 176
3 177 196 171
3 172 197 170
3 165 432 426
3 196 173 171
3 433 434 435
3 436 198 433
3 183 184 143
3 173 199 422
3 196 200 173
3 431 160 180
3 437 135 34
3 438 432 165
3 192 201 183
3 181 196 177
3 200 199 173
3 202 181 121
3 174 202 121
3 203 180 178
3 203 178 191
3 179 204 430
3 170 204 179
3 194 205 185
3 198 434 433
3 205 186 185
3 431 180 206
3 207 181 202
3 196 208 200
3 439 209 191
3 192 210 201
3 203 191 209
3 211 196 181
3 211 181 207
3 212 198 436
3 205 194 213
3 212 214 198
3 199 200 208
3 440 207 202
3 440 202 174
3 205 441 186
3 183 201 184
3 438 215 432
3 216 208 196
3 217 427 184
3 210 192 188
3 442 209 439
3 218 194 195
3 440 219 207
3 209 442 203
3 218 195 176
3 207 216 211
3 220 205 213
3 213 194 218
3 216 196 211
3 221 443 429
3 222 444 199
3 442 223 203
3 223 180 203
3 205 220 441
3 197 445 170
3 224 219 440
3 170 445 225
3 442 226 223
3 216 227 208
3 226 228 223
3 225 204 170
3 218 176 229
3 429 193 221
3 222 199 208
3 210 230 201
3 34 446 437
3 227 222 208
3 228 180 223
3 201 217 184
3 231 216 207
3 232 447 448
3 445 233 225
3 230 210 449
3 234 214 212
3 450 226 442
3 451 206 180
3 235 204 225
3 236 213 218
3 236 218 229
3 452 444 222
3 220 237 441
3 230 238 201
3 237 220 239
3 213 239 220
3 240 216 231
3 240 227 216
3 236 239 213
3 201 238 217
3 241 229 453
3 430 204 235
3 242 231 207
3 243 235 225
3 244 451 180
3 242 207 219
3 245 227 240
3 230 246 238
3 245 222 227
3 242 240 231
3 247 225 233
3 236 229 241
3 449 246 230
3 248 245 240
3 249 240 242
3 250 242 219
3 251 441 237
3 238 252 217
3 253 454 455
3 244 180 228
3 252 427 217
3 254 253 455
3 249 248 240
3 224 250 219
3 456 452 222
3 251 237 239
3 457 255 458
3 212 459 234
3 247 243 225
3 246 256 238
3 255 460 458
3 257 239 236
3 257 236 241
3 461 221 193
3 462 463 258
3 464 460 259
3 457 465 260
3 255 259 460
3 465 462 261
3 466 258 463
3 466 467 262
3 255 457 260
3 260 465 261
3 467 451 244
3 247 464 243
3 462 258 261
3 466 262 258
3 259 243 464
3 244 262 467
3 238 256 252
3 246 449 256
3 449 235 256
3 450 251 263
3 450 263 226
3 259 264 243
3 265 259 260
3 266 265 260
3 262 267 258
3 263 228 226
3 239 263 251
3 235 268 256
3 269 235 243
3 270 244 228
3 270 228 263
3 268 252 256
3 265 264 259
3 257 263 239
3 271 266 260
3 272 260 261
3 267 273 258
3 274 262 244
3 275 274 244
3 275 244 270
3 276 269 243
3 264 276 243
3 272 271 260
3 273 261 258
3 257 277 263
3 269 268 235
3 273 272 261
3 274 267 262
3 277 270 263
3 278 264 265
3 279 280 278
3 279 271 272
3 281 282 274
3 283 284 268
3 281 275 285
3 277 286 287
3 288 283 268
3 280 276 278
3 282 273 274
3 288 268 269
3 271 279 278
3 281 274 275
3 276 264 278
3 265 266 278
3 266 271 278
3 267 274 273
3 270 277 287
3 289 280 279
3 290 286 277
3 291 468 469
3 292 470 471
3 252 268 284
3 257 290 277
3 252 293 427
3 287 294 270
3 292 471 472
3 473 474 475
3 273 295 272
3 296 276 280
3 289 296 280
3 297 476 468
3 294 298 270
3 299 474 473
3 291 300 468
3 301 472 477
3 293 302 427
3 302 303 427
3 303 304 427
3 305 478 479
3 480 306 273
3 481 288 269
3 294 482 298
3 293 307 302
3 307 303 302
3 453 308 241
3 283 309 284
3 483 285 275
3 257 310 290
3 293 311 307
3 311 303 307
3 311 304 303
3 312 299 473
3 313 473 484
3 284 309 252
3 310 257 241
3 485 272 314
3 295 314 272
3 315 269 276
3 306 295 273
3 310 486 290
3 304 453 427
3 297 487 476
3 480 316 306
3 305 488 478
3 276 296 315
3 296 317 315
3 489 487 297
3 300 297 468
3 318 472 301
3 313 312 473
3 252 319 293
3 490 483 275
3 491 300 291
3 486 310 320
3 321 270 298
3 322 492 292
3 312 323 299
3 315 324 269
3 308 310 241
3 481 325 309
3 326 292 472
3 327 326 472
3 318 327 472
3 482 493 298
3 321 275 270
3 304 328 453
3 328 329 453
3 326 322 292
3 304 330 328
3 330 329 328
3 304 331 330
3 331 329 330
3 331 453 329
3 494 332 495
3 333 316 496
3 309 319 252
3 334 495 332
3 490 275 321
3 324 481 269
3 321 298 493
3 309 335 319
3 336 325 481
3 334 317 495
3 336 481 324
3 337 311 293
3 314 338 494
3 497 339 498
3 320 499 486
3 309 325 335
3 340 295 306
3 308 320 310
3 498 333 496
3 317 334 315
3 494 338 332
3 338 314 295
3 316 333 306
3 498 339 333
3 497 490 341
3 490 321 341
3 493 499 342
3 334 332 343
3 325 336 335
3 334 343 315
3 339 497 344
3 499 320 342
3 335 336 324
3 343 332 345
3 332 338 345
3 333 344 306
3 333 339 344
3 497 341 344
3 321 493 342
3 346 342 320
3 319 347 293
3 347 337 293
3 331 304 311
3 331 348 453
3 348 308 453
3 340 345 338
3 349 306 344
3 350 341 321
3 350 321 342
3 308 346 320
3 337 331 311
3 347 324 315
3 340 338 295
3 349 340 306
3 346 350 342
3 335 324 319
3 315 343 337
3 345 340 331
3 341 348 344
3 341 350 348
3 315 337 347
3 343 345 337
3 345 331 337
3 340 349 331
3 349 344 348
3 350 346 308
3 324 347 319
3 348 350 308
3 349 348 331
3 422 395 146
3 159 425 169
3 255 260 259
