ply
format ascii 1.0
comment INFO-3111 Flatenator generated
comment TextureFile Dungeons_Texture_01.png
element vertex 20
property float x
property float y
property float z
property float nx
property float ny
property float nz
element face 18
property list uchar int vertex_indices
end_header
2.5 5 1e-06 -1.15697e-07 -1.97255e-07 1 
0 5 1e-06 0 0 1 
-4e-06 2.5 0 6.9771e-08 -3.18658e-08 1 
0 5 1e-06 2.06436e-07 -4.69428e-07 1 
2.06709 4.81846 1e-06 0.246889 -0.0506616 0.967719 
0.211313 4.81846 1e-06 0 0 0 
0.211313 4.81846 1e-06 0 0 0 
0.21131 2.96268 0 -0.0634385 -0.114561 0.991389 
1.83992 4.75031 0.160411 0 0 1 
0.289167 4.75031 0.160411 0 0 0 
0.289167 4.75031 0.160411 0 0 1 
0.289165 3.19956 0.160411 0 0 1 
0 5 1e-06 0 0 0 
0.211313 4.81846 1e-06 -0.69272 7.07042e-07 0.721207 
0.211313 4.81846 1e-06 0 0.718489 0.695538 
1.83992 4.75031 0.160411 0.298359 0.650187 0.698741 
0.289165 3.19956 0.160411 -0.265403 -0.479277 0.836573 
0.289167 4.75031 0.160411 -0.899639 1.15865e-06 0.436635 
0 5 1e-06 0 0 0 
0.289167 4.75031 0.160411 0 0.920394 0.390993 
3 8 10 11
3 1 4 0
3 12 6 5
3 3 7 13
3 0 7 2
3 14 15 4
3 5 10 9
3 13 16 17
3 4 16 7
3 8 9 10
3 1 14 4
3 12 18 6
3 3 2 7
3 0 4 7
3 14 19 15
3 5 6 10
3 13 7 16
3 4 15 16
