ply
format ascii 1.0
comment INFO-3111 Flatenator generated
comment TextureFile Dungeons_Texture_01.png
element vertex 600
property float x
property float y
property float z
element face 691
property list uchar int vertex_indices
end_header
1.27082 5.02237 0.253215 
-0.009872 5.02023 0.251449 
0.066452 4.53976 0.253199 
1.52477 5.01966 0.238137 
1.36954 5.04423 0.252841 
1.38678 4.57599 0.244117 
2.21055 5.00619 0.253293 
1.22195 4.58586 0.252177 
2.19299 4.52682 0.253301 
1.04184 3.92172 0.253183 
0.124916 3.88582 0.253584 
0.736244 3.42963 0.253549 
3.93132 3.90864 0.21332 
3.94717 3.44178 0.253373 
4.25421 3.90985 0.254174 
5.02885 3.88767 0.253275 
5.01475 3.4067 0.253851 
3.88267 3.89799 0.252731 
3.90099 3.41783 0.25386 
3.05434 3.92256 0.25305 
3.04374 3.50269 0.252967 
-0.011139 3.87958 0.232286 
-0.007385 3.39994 0.253106 
1.06689 3.42788 0.216758 
3.03569 3.42808 0.217301 
5.02896 2.7855 0.253363 
4.56371 2.77758 0.254316 
4.88042 2.30514 0.25186 
3.99391 2.38638 0.242054 
5.02633 2.32215 0.235756 
4.964 1.68113 0.22654 
4.83363 1.66672 0.251326 
5.0265 1.18542 0.252746 
3.34721 1.07864 0.253859 
2.48914 1.10846 0.253225 
2.64475 0.626436 0.24553 
2.49389 0.672705 0.248839 
3.32101 0.586951 0.215546 
1.04794 0.563136 0.250618 
0.966377 0.595377 0.23651 
0.931518 0.098301 0.25772 
1.68823 4.47909 0.213449 
4.2979 3.99209 0.065844 
3.41079 4.48099 0.085335 
3.43868 4.03019 0.080668 
3.93132 3.90864 0.041333 
3.34912 3.97657 0.213643 
3.05127 3.94797 0.213276 
-0.000885 2.80151 0.255402 
0.004066 2.36512 0.243419 
1.01489 2.76656 0.24205 
3.95417 2.80055 0.216895 
3.87749 2.80164 0.241271 
3.69886 2.35539 0.238888 
3.92046 2.37184 0.223955 
3.95821 1.60204 0.242905 
2.40428 0.625927 0.080514 
2.42048 1.09003 0.072547 
1.67838 0.650787 0.075994 
2.19104 0.018763 0.239563 
5.03867 5.00611 0.242984 
3.97113 5.04736 0.24324 
4.57915 4.54283 0.243131 
3.42423 4.53971 0.238978 
3.9072 5.02198 0.243327 
2.71865 5.02198 0.243327 
2.81338 4.60178 0.229972 
3.89592 4.5527 0.232742 
5.02129 4.52707 0.24324 
2.27524 5.01712 0.239998 
2.74446 4.56478 0.21591 
2.26686 4.54074 0.243398 
4.26783 4.54197 0.21306 
3.38781 4.50198 0.213492 
2.47154 4.4925 0.213327 
3.38781 4.50198 0.041504 
4.23727 4.45645 0.067318 
1.30465 4.50198 0.212679 
0.577606 4.48832 0.243398 
1.64317 4.4626 0.243398 
0.488914 4.47203 0.243251 
-0.016335 4.47433 0.223645 
0.443642 3.99649 0.238126 
1.28143 3.99073 0.2432 
1.68816 3.97671 0.213547 
4.95023 4.46991 0.242779 
4.34972 4.47296 0.24271 
4.94974 3.99073 0.243398 
2.43024 4.47006 0.242861 
1.70316 4.47006 0.242861 
2.11227 3.98667 0.234343 
3.34543 4.4709 0.242138 
2.4847 4.47047 0.243436 
2.76018 4.02711 0.23903 
3.30487 3.98974 0.243578 
1.70393 3.99076 0.243398 
2.42764 3.98455 0.218183 
4.2979 3.99209 0.237834 
-0.025597 4.03266 0.225742 
0.552704 4.00101 0.211722 
4.91713 3.90677 0.217183 
1.38432 3.90686 0.071221 
1.127 3.9187 0.045038 
1.13434 3.58111 0.071411 
1.67477 3.43645 0.060494 
1.71541 3.52008 0.067757 
3.00063 3.8931 0.246243 
2.45778 3.92126 0.238923 
2.97543 3.41088 0.243665 
5.03345 3.36407 0.025293 
2.25478 3.45642 0.063469 
1.06689 3.42788 0.044771 
3.3766 3.36907 0.208747 
1.64126 3.41118 0.211403 
1.23074 3.3185 0.239916 
1.64367 2.86836 0.242829 
0.508972 3.36068 0.213579 
0.578392 2.83456 0.243397 
4.35568 3.33401 0.241403 
4.9502 2.85797 0.243018 
4.94987 3.33625 0.243398 
4.28824 3.34417 0.071386 
3.39235 3.31131 0.071284 
4.29297 2.86243 0.071381 
1.70344 3.33659 0.243342 
1.7031 2.85787 0.242756 
2.42999 3.33662 0.243362 
-0.076233 3.33624 0.243398 
0.505417 2.85799 0.243014 
0.505081 3.33624 0.243398 
4.34121 2.83496 0.04135 
2.48972 2.84011 0.23513 
4.34121 2.83496 0.213339 
3.95417 2.80055 0.044908 
3.40878 2.82958 0.07141 
0.557198 2.82373 0.213239 
2.2016 2.78549 0.242889 
1.13673 2.78495 0.241854 
2.13378 2.30736 0.239632 
1.29184 2.31083 0.24347 
3.03119 2.7736 0.230392 
2.25854 2.77982 0.243043 
2.94474 2.28387 0.243043 
2.28185 2.31721 0.240304 
2.22161 2.30902 0.212772 
-0.057358 2.30271 0.038248 
1.01311 2.29149 0.232843 
1.03731 2.26835 0.213295 
4.99271 2.22654 0.240191 
4.35771 2.26727 0.21215 
4.35671 2.0466 0.241716 
0.461182 2.19209 0.237125 
-0.072891 2.2071 0.237448 
0.074455 1.73496 0.241905 
2.42923 2.22652 0.242284 
1.70344 2.16134 0.243397 
1.70338 1.75109 0.243043 
3.31831 2.22955 0.242874 
2.49136 2.22076 0.239367 
3.34534 1.74705 0.242066 
4.78621 1.75322 0.24309 
0.507858 1.75312 0.243397 
3.40129 2.20955 0.256084 
3.41003 1.67977 0.213012 
3.40398 1.7324 0.243132 
2.48541 1.77735 0.243397 
3.95128 1.68334 0.211776 
1.05245 1.66121 0.244907 
0.000526 1.72196 0.221747 
0.985909 1.22973 0.242491 
2.25574 1.67263 0.213339 
1.13313 1.66167 0.243352 
2.08581 1.22917 0.241496 
3.01208 1.7292 0.03724 
3.06027 1.21295 0.066148 
3.10165 1.66119 0.07141 
3.8812 1.66377 0.068566 
-0.016472 1.18397 0.244314 
5.0522 1.70898 0.140936 
2.23253 1.24568 0.214156 
3.84084 1.18489 0.071004 
2.99313 1.64827 0.070762 
2.26641 1.66171 0.071096 
2.98526 1.18442 0.070586 
3.95291 1.15691 0.041561 
2.23253 1.24568 0.042169 
2.32371 1.24071 0.068784 
1.1839 1.22939 0.240347 
3.95291 1.15691 0.213551 
2.48376 1.13609 0.212291 
1.69548 1.13268 0.06727 
0.567513 1.10474 0.211304 
-0.055916 1.08394 0.24335 
0.476166 0.775342 0.239458 
0.570038 0.602167 0.243199 
1.17124 1.08419 0.243074 
1.69548 1.13268 0.239258 
1.63876 0.602279 0.243203 
4.99474 1.07772 0.24012 
4.30385 1.07689 0.243397 
4.99146 0.603328 0.243397 
4.3526 0.602686 0.243397 
-0.057419 0.60062 0.240351 
2.46189 0.579445 0.21128 
0.535469 0.716918 0.20568 
0.420776 0.542063 0.209855 
3.75914 0.590246 0.213495 
3.40691 1.10237 0.243248 
3.39201 0.624706 0.243243 
1.64014 0.577022 0.04135 
3.1658 0.522965 0.2417 
2.23087 0.518934 0.213437 
3.16505 0.0412 0.243397 
4.16211 0.515972 0.243397 
3.22785 0.540333 0.242028 
3.21623 0.054567 0.24329 
4.30414 0.519514 0.243101 
5.02887 0.041577 0.243397 
5.02942 0.524238 0.23873 
-0.022522 0.494145 0.243381 
0.866195 0.055422 0.243243 
2.267 0.04121 0.243397 
4.24996 0.510454 0.211253 
4.21666 0.032934 0.243321 
-0.011795 -1.9e-05 0.207181 
0.208557 0.022662 0.243027 
2.21889 5.00577 0.212661 
3.34912 3.97657 0.041656 
2.2791 3.95534 0.213409 
2.25478 3.45642 0.235456 
3.30649 2.90691 0.238352 
3.39235 3.31131 0.243271 
3.40254 2.81623 0.216922 
1.71696 2.79634 0.215628 
0.024094 2.23794 0.211952 
2.95935 2.26525 0.218685 
1.63631 2.25333 0.214223 
5.00933 2.25402 0.175848 
1.03731 2.26835 0.041307 
0.519066 2.28952 0.038275 
0.567261 2.10307 0.067088 
1.63094 2.24601 0.063583 
4.29872 2.2193 0.247547 
4.31354 1.73958 0.212956 
0.578125 1.72969 0.067442 
1.6994 1.73904 0.04479 
3.01208 1.7292 0.209227 
0.603249 1.67964 0.21291 
3.0414 1.1543 0.03925 
3.95128 1.68334 0.039789 
2.26641 1.66171 0.243085 
1.13581 1.17979 0.217089 
1.28244 1.1189 0.208864 
2.46189 0.579445 0.03929 
1.34448 5.09169 0.127367 
1.35399 4.99156 0.217348 
2.1949 4.50208 0.213276 
-0.016548 3.38171 0.198111 
3.9315 3.42874 0.21334 
3.9315 3.42874 0.041351 
3.12471 3.31322 0.240889 
1.07538 2.79299 0.211981 
2.25536 2.83461 0.213593 
0.519066 2.28952 0.210265 
3.39045 2.25139 0.210285 
1.6994 1.73904 0.216777 
3.41003 1.67977 0.041022 
1.13541 1.67904 0.21274 
3.16165 0.592364 0.213437 
3.17873 -0.002116 0.122672 
3.1979 0.013327 0.136187 
4.25878 -0.002116 0.136218 
4.26783 4.54197 0.041072 
0.206985 3.91523 0.211746 
2.47126 2.22079 0.213546 
3.89099 2.23866 0.216612 
2.48376 1.13609 0.040303 
3.36423 1.09892 0.213339 
3.0414 1.1543 0.211238 
1.64014 0.577022 0.213339 
0.570015 4.51296 0.213521 
1.127 3.9187 0.217025 
-0.09819 2.81247 0.13618 
2.19372 -0.03284 0.12753 
2.22963 5.04808 0.145586 
4.95647 4.49207 0.194538 
4.96426 3.94478 0.031908 
4.30513 3.35038 0.212782 
4.95837 3.36471 0.176583 
3.40254 2.81623 0.044934 
0.578125 1.72969 0.239429 
1.63094 2.24601 0.235571 
4.91708 1.1705 0.216864 
2.48376 1.13609 0.040303 
0.916771 0.078195 0.216581 
3.17096 0.077574 0.217234 
-0.05397 3.94744 0.032658 
1.64126 3.41118 0.039414 
4.30513 3.35038 0.040794 
2.93667 3.32145 0.236734 
1.13541 1.67904 0.040751 
5.01515 1.14148 0.077238 
2.19595 0.067709 0.212099 
0.88713 0.013581 0.140564 
2.2791 3.95534 0.041422 
1.68816 3.97671 0.041558 
3.3766 3.36907 0.036757 
-0.117249 2.24926 0.032651 
-0.09304 1.68411 0.032559 
0.603249 1.67964 0.040922 
5.05014 0.564755 0.136196 
5.06024 5.04934 0.136217 
2.73253 5.06304 0.140973 
1.3448 5.09165 0.025293 
-0.096878 2.81319 0.031934 
5.0484 2.82612 0.025292 
3.95142 5.03814 0.032418 
2.24033 5.00984 0.130829 
5.05014 2.261 0.028046 
-0.010147 1.12242 0.028314 
4.96588 1.14112 0.095202 
-0.035927 5.06415 0.141458 
-0.007523 0.554514 0.032945 
2.75824 5.06363 0.136197 
-0.05397 4.51278 0.032772 
2.184 0.030206 0.011595 
4.96629 4.4886 0.032033 
5.04942 0.564226 0.032319 
5.04854 -0.002116 0.032784 
-0.095009 3.37952 0.032462 
-0.019211 1.7184 0.03152 
5.0084 1.12495 0.077457 
-0.077354 1.12522 0.032544 
0.701057 -0.001638 0.032871 
5.05028 3.93046 0.028099 
4.25917 -0.002116 0.032784 
-0.023865 -0.028259 0.032795 
2.25296 5.06363 0.032402 
2.17986 -0.041819 0.014349 
2.73023 5.03505 0.010391 
5.05989 1.70665 0.024448 
-0.034164 5.0629 0.025293 
5.06104 1.14148 0.025032 
3.17862 -0.002116 0.032653 
5.06021 5.04883 0.032792 
5.00158 1.71683 0.032531 
-0.028702 0.063077 0.032591 
0.017387 3.47595 0.008688 
4.66853 -0.001903 0.032965 
3.75974 5.03515 0.010418 
4.95056 2.83368 0.028489 
4.95227 3.32677 0.010347 
-0.010315 2.88119 0.010339 
0.886894 0.030104 0.032871 
4.9522 5.03491 0.010699 
0.002716 2.20905 0.008687 
4.94258 2.6378 0.008687 
4.95211 0.961659 0.010482 
4.55695 0.048448 0.02814 
4.95225 0.045659 0.010401 
4.53285 5.03521 0.01032 
-0.010239 0.737125 0.01033 
0.521729 5.02616 0.00875 
0.002708 3.22271 0.008688 
-0.010315 3.11507 0.01034 
3.93132 3.90864 0.21332 
3.88267 3.89799 0.252731 
3.90099 3.41783 0.25386 
3.04374 3.50269 0.252967 
2.19299 4.52682 0.253301 
1.38678 4.57599 0.244117 
4.2979 3.99209 0.065844 
3.43868 4.03019 0.080668 
3.05434 3.92256 0.25305 
1.04794 0.563136 0.250618 
0.931518 0.098301 0.25772 
2.71865 5.02198 0.243327 
4.57915 4.54283 0.243131 
3.89592 4.5527 0.232742 
3.42423 4.53971 0.238978 
2.74446 4.56478 0.21591 
2.26686 4.54074 0.243398 
3.41079 4.48099 0.085335 
1.64317 4.4626 0.243398 
0.577606 4.48832 0.243398 
4.23727 4.45645 0.067318 
4.25421 3.90985 0.254174 
5.02885 3.88767 0.253275 
5.01475 3.4067 0.253851 
1.71541 3.52008 0.067757 
1.67477 3.43645 0.060494 
1.13434 3.58111 0.071411 
-0.007385 3.39994 0.253106 
1.06689 3.42788 0.216758 
0.736244 3.42963 0.253549 
-0.000885 2.80151 0.255402 
4.28824 3.34417 0.071386 
4.29297 2.86243 0.071381 
-0.000885 2.80151 0.255402 
1.01489 2.76656 0.24205 
4.9502 2.85797 0.243018 
4.56371 2.77758 0.254316 
5.02896 2.7855 0.253363 
2.25854 2.77982 0.243043 
0.004066 2.36512 0.243419 
2.28185 2.31721 0.240304 
2.2016 2.78549 0.242889 
2.13378 2.30736 0.239632 
3.40129 2.20955 0.256084 
3.40398 1.7324 0.243132 
4.964 1.68113 0.22654 
3.10165 1.66119 0.07141 
3.06027 1.21295 0.066148 
4.964 1.68113 0.22654 
5.0265 1.18542 0.252746 
2.25574 1.67263 0.213339 
2.08581 1.22917 0.241496 
3.8812 1.66377 0.068566 
3.84084 1.18489 0.071004 
2.26641 1.66171 0.071096 
2.32371 1.24071 0.068784 
2.48914 1.10846 0.253225 
3.34721 1.07864 0.253859 
0.966377 0.595377 0.23651 
2.49389 0.672705 0.248839 
0.476166 0.775342 0.239458 
0.420776 0.542063 0.209855 
4.30385 1.07689 0.243397 
4.3526 0.602686 0.243397 
2.40428 0.625927 0.080514 
1.67838 0.650787 0.075994 
4.16211 0.515972 0.243397 
4.21666 0.032934 0.243321 
-0.022522 0.494145 0.243381 
4.24996 0.510454 0.211253 
0.208557 0.022662 0.243027 
2.21055 5.00619 0.253293 
2.71865 5.02198 0.243327 
2.81338 4.60178 0.229972 
0.488914 4.47203 0.243251 
0.443642 3.99649 0.238126 
0.552704 4.00101 0.211722 
1.70316 4.47006 0.242861 
1.70393 3.99076 0.243398 
3.00063 3.8931 0.246243 
2.42764 3.98455 0.218183 
2.45778 3.92126 0.238923 
3.39235 3.31131 0.243271 
3.30649 2.90691 0.238352 
2.48972 2.84011 0.23513 
1.13673 2.78495 0.241854 
3.03119 2.7736 0.230392 
1.01311 2.29149 0.232843 
1.03731 2.26835 0.213295 
1.29184 2.31083 0.24347 
4.35771 2.26727 0.21215 
4.88042 2.30514 0.25186 
3.99391 2.38638 0.242054 
2.95935 2.26525 0.218685 
2.49136 2.22076 0.239367 
3.31831 2.22955 0.242874 
1.63094 2.24601 0.063583 
0.567261 2.10307 0.067088 
3.34534 1.74705 0.242066 
2.48541 1.77735 0.243397 
0.000526 1.72196 0.221747 
1.05245 1.66121 0.244907 
2.99313 1.64827 0.070762 
0.985909 1.22973 0.242491 
0.567513 1.10474 0.211304 
-0.016472 1.18397 0.244314 
1.17124 1.08419 0.243074 
2.42048 1.09003 0.072547 
2.23087 0.518934 0.213437 
3.1658 0.522965 0.2417 
1.52477 5.01966 0.238137 
1.36954 5.04423 0.252841 
2.43024 4.47006 0.242861 
2.4847 4.47047 0.243436 
3.34543 4.4709 0.242138 
-0.011139 3.87958 0.232286 
-0.076233 3.33624 0.243398 
0.505081 3.33624 0.243398 
3.39235 3.31131 0.071284 
3.03119 2.7736 0.230392 
2.94474 2.28387 0.243043 
5.02633 2.32215 0.235756 
1.70344 2.16134 0.243397 
2.42923 2.22652 0.242284 
-0.072891 2.2071 0.237448 
0.461182 2.19209 0.237125 
0.578125 1.72969 0.067442 
0.507858 1.75312 0.243397 
0.074455 1.73496 0.241905 
1.70338 1.75109 0.243043 
1.13313 1.66167 0.243352 
2.98526 1.18442 0.070586 
3.95291 1.15691 0.213551 
3.40691 1.10237 0.243248 
4.30385 1.07689 0.243397 
3.32101 0.586951 0.215546 
3.39201 0.624706 0.243243 
1.69548 1.13268 0.06727 
2.64475 0.626436 0.24553 
3.75914 0.590246 0.213495 
2.23087 0.518934 0.213437 
3.22785 0.540333 0.242028 
3.21623 0.054567 0.24329 
3.16505 0.0412 0.243397 
2.267 0.04121 0.243397 
5.02887 0.041577 0.243397 
-0.009872 5.02023 0.251449 
-0.016335 4.47433 0.223645 
0.066452 4.53976 0.253199 
1.22195 4.58586 0.252177 
3.30487 3.98974 0.243578 
1.68816 3.97671 0.213547 
-0.025597 4.03266 0.225742 
2.76018 4.02711 0.23903 
2.97543 3.41088 0.243665 
2.25478 3.45642 0.235456 
0.508972 3.36068 0.213579 
0.578392 2.83456 0.243397 
3.69886 2.35539 0.238888 
4.29872 2.2193 0.247547 
4.35671 2.0466 0.241716 
4.31354 1.73958 0.212956 
4.78621 1.75322 0.24309 
3.95128 1.68334 0.211776 
3.95821 1.60204 0.242905 
4.83363 1.66672 0.251326 
1.1839 1.22939 0.240347 
1.69548 1.13268 0.239258 
1.63876 0.602279 0.243203 
2.27524 5.01712 0.239998 
1.28143 3.99073 0.2432 
2.11227 3.98667 0.234343 
2.2791 3.95534 0.213409 
1.64367 2.86836 0.242829 
0.570038 0.602167 0.243199 
2.19104 0.018763 0.239563 
1.27082 5.02237 0.253215 
4.34972 4.47296 0.24271 
4.95023 4.46991 0.242779 
4.94974 3.99073 0.243398 
4.2979 3.99209 0.237834 
0.124916 3.88582 0.253584 
1.04184 3.92172 0.253183 
3.94717 3.44178 0.253373 
4.94987 3.33625 0.243398 
4.35568 3.33401 0.241403 
1.23074 3.3185 0.239916 
3.12471 3.31322 0.240889 
0.505417 2.85799 0.243014 
3.40878 2.82958 0.07141 
3.95417 2.80055 0.044908 
3.87749 2.80164 0.241271 
3.95417 2.80055 0.216895 
3.92046 2.37184 0.223955 
4.99271 2.22654 0.240191 
4.99146 0.603328 0.243397 
4.30414 0.519514 0.243101 
5.02942 0.524238 0.23873 
0.866195 0.055422 0.243243 
5.02129 4.52707 0.24324 
2.25478 3.45642 0.063469 
1.64126 3.41118 0.211403 
4.34121 2.83496 0.213339 
1.70344 3.33659 0.243342 
1.7031 2.85787 0.242756 
1.6994 1.73904 0.04479 
2.23253 1.24568 0.042169 
2.48376 1.13609 0.040303 
2.32371 1.24071 0.068784 
4.3526 0.602686 0.243397 
3.97113 5.04736 0.24324 
3.9072 5.02198 0.243327 
1.38432 3.90686 0.071221 
1.127 3.9187 0.045038 
2.2791 3.95534 0.041422 
2.42999 3.33662 0.243362 
-0.055916 1.08394 0.24335 
4.99474 1.07772 0.24012 
-0.057419 0.60062 0.240351 
5.03867 5.00611 0.242984 
2.93667 3.32145 0.236734 
3.38781 4.50198 0.213492 
3.34912 3.97657 0.041656 
3.38781 4.50198 0.041504 
3.01208 1.7292 0.209227 
3.41003 1.67977 0.041022 
3.41003 1.67977 0.213012 
2.42048 1.09003 0.072547 
2.08581 1.22917 0.241496 
1.69548 1.13268 0.239258 
1.69548 1.13268 0.06727 
3.34912 3.97657 0.213643 
3.01208 1.7292 0.03724 
2.48376 1.13609 0.040303 
2.23253 1.24568 0.214156 
3 0 1 2
3 3 4 5
3 3 5 6
3 0 2 7
3 6 5 8
3 9 10 11
3 12 13 14
3 15 14 16
3 365 17 18
3 366 19 20
3 14 13 16
3 21 22 10
3 366 20 367
3 9 11 23
3 18 368 24
3 10 22 11
3 25 26 27
3 27 26 28
3 25 27 29
3 30 31 32
3 33 34 35
3 35 34 36
3 37 33 35
3 38 39 40
3 41 369 370
3 42 43 44
3 371 372 45
3 46 373 17
3 373 47 368
3 48 49 50
3 26 51 28
3 52 53 54
3 31 55 32
3 56 57 58
3 374 375 59
3 60 61 62
3 63 64 65
3 65 66 63
3 61 67 62
3 60 62 68
3 64 63 67
3 69 70 376
3 70 69 71
3 377 378 72
3 379 73 378
3 74 380 381
3 75 382 76
3 77 78 79
3 80 81 82
3 383 384 83
3 84 383 83
3 85 86 87
3 385 43 42
3 88 89 90
3 91 92 93
3 91 93 94
3 89 95 90
3 88 90 96
3 87 86 97
3 92 96 93
3 82 81 98
3 83 384 99
3 100 386 387
3 101 102 103
3 101 103 104
3 105 101 104
3 106 107 108
3 387 388 109
3 110 389 390
3 391 111 390
3 18 24 112
3 392 393 394
3 113 114 115
3 114 116 117
3 118 119 120
3 115 114 117
3 121 122 123
3 124 125 126
3 127 395 128
3 129 127 128
3 130 396 397
3 126 125 131
3 118 132 119
3 123 122 133
3 133 122 134
3 398 399 135
3 400 401 402
3 136 137 138
3 137 139 138
3 140 141 142
3 143 403 144
3 398 145 404
3 142 141 405
3 144 406 407
3 49 146 50
3 139 137 147
3 148 149 150
3 151 152 153
3 154 155 156
3 157 158 159
3 148 150 160
3 151 153 161
3 162 163 164
3 158 165 159
3 408 409 166
3 148 160 410
3 154 156 165
3 167 168 169
3 170 171 172
3 173 174 175
3 176 411 412
3 168 177 169
3 413 414 178
3 415 416 179
3 180 176 412
3 181 182 183
3 184 417 418
3 419 185 186
3 418 174 184
3 182 420 183
3 172 171 187
3 32 55 188
3 421 422 189
3 57 190 58
3 191 192 193
3 191 194 195
3 196 195 197
3 198 199 200
3 200 199 201
3 195 194 423
3 193 192 202
3 197 195 423
3 424 421 203
3 204 425 205
3 206 207 208
3 193 202 426
3 427 207 428
3 429 430 209
3 207 206 428
3 210 211 212
3 213 214 215
3 216 217 218
3 423 219 220
3 211 221 212
3 222 431 223
3 213 215 432
3 433 224 225
3 216 434 432
3 216 432 217
3 220 219 435
3 226 436 369
3 437 380 438
3 73 379 438
3 372 382 227
3 439 440 441
3 442 41 443
3 444 445 446
3 228 229 107
3 108 107 229
3 230 231 131
3 447 448 232
3 448 449 232
3 233 450 406
3 52 451 53
3 399 452 453
3 145 234 404
3 451 235 53
3 236 454 453
3 236 407 454
3 455 456 457
3 455 237 456
3 458 459 460
3 238 239 240
3 238 240 241
3 242 408 243
3 461 462 244
3 461 244 245
3 243 408 166
3 463 464 246
3 247 465 466
3 419 467 173
3 174 173 248
3 249 417 184
3 179 250 415
3 251 466 468
3 469 468 470
3 252 251 471
3 472 429 253
3 473 474 203
3 475 254 476
3 476 255 77
3 256 442 477
3 73 74 478
3 73 478 479
3 47 445 444
3 365 46 17
3 392 480 257
3 18 112 258
3 257 481 482
3 259 483 396
3 231 260 131
3 261 450 233
3 449 403 484
3 403 262 144
3 263 452 404
3 485 143 458
3 456 237 486
3 236 487 488
3 489 490 234
3 264 460 463
3 240 239 491
3 263 490 492
3 493 489 465
3 487 265 494
3 415 464 494
3 265 495 415
3 417 266 175
3 249 266 417
3 173 467 248
3 495 267 251
3 248 467 496
3 251 469 471
3 497 498 499
3 498 500 501
3 502 209 430
3 503 424 203
3 203 268 503
3 205 433 39
3 222 504 431
3 505 374 59
3 506 268 507
3 269 508 509
3 270 223 507
3 271 510 223
3 511 512 513
3 476 77 370
3 514 77 255
3 272 76 371
3 46 479 515
3 41 516 443
3 440 517 273
3 515 518 47
3 444 519 47
3 520 24 519
3 393 392 521
3 261 522 135
3 263 453 452
3 264 523 458
3 458 274 459
3 264 458 460
3 275 162 524
3 525 526 527
3 526 413 527
3 528 529 530
3 529 528 497
3 495 251 531
3 276 496 186
3 277 278 422
3 425 204 469
3 279 532 533
3 279 39 38
3 500 268 506
3 381 534 256
3 256 369 41
3 78 280 441
3 382 75 227
3 281 516 535
3 516 536 443
3 445 537 446
3 481 282 398
3 538 522 233
3 399 261 135
3 262 403 449
3 261 399 453
3 468 469 251
3 539 204 205
3 283 540 40
3 475 436 284
3 284 436 226
3 541 514 255
3 438 380 73
3 512 280 513
3 280 514 513
3 72 542 543
3 79 516 41
3 74 477 445
3 478 74 445
3 285 544 286
3 441 281 535
3 372 227 45
3 47 46 515
3 545 100 544
3 273 546 547
3 281 273 547
3 273 480 546
3 368 47 24
3 365 18 258
3 388 548 258
3 521 392 257
3 287 288 388
3 549 287 550
3 521 551 393
3 552 447 112
3 521 482 553
3 483 289 554
3 289 555 554
3 232 484 556
3 556 557 232
3 557 558 457
3 261 453 450
3 558 557 556
3 234 263 404
3 558 455 457
3 559 237 455
3 275 264 162
3 459 274 464
3 274 488 464
3 264 163 162
3 455 524 526
3 263 247 290
3 236 291 265
3 487 236 265
3 248 184 174
3 497 292 414
3 422 278 189
3 532 252 471
3 421 189 203
3 539 469 204
3 500 277 422
3 253 293 472
3 209 253 429
3 39 539 205
3 533 39 279
3 268 500 503
3 39 294 40
3 279 38 473
3 504 500 506
3 431 504 506
3 560 561 562
3 39 563 294
3 508 295 474
3 268 295 507
3 476 254 255
3 226 369 256
3 77 41 370
3 256 74 381
3 72 285 377
3 564 377 285
3 280 78 77
3 272 75 76
3 280 512 439
3 256 41 442
3 74 256 477
3 285 72 543
3 441 280 439
3 542 72 545
3 46 47 373
3 386 100 365
3 101 105 565
3 273 296 480
3 548 365 258
3 24 47 519
3 281 547 393
3 111 297 390
3 287 388 258
3 521 257 482
3 566 393 551
3 298 259 396
3 552 112 24
3 299 552 24
3 298 396 130
3 287 567 550
3 568 233 569
3 521 553 135
3 261 233 522
3 233 262 569
3 262 449 569
3 555 130 397
3 522 521 135
3 458 484 485
3 262 406 144
3 264 558 523
3 236 144 407
3 274 236 488
3 490 263 234
3 455 526 525
3 300 570 491
3 265 415 494
3 465 492 493
3 267 247 466
3 265 267 495
3 246 415 250
3 571 572 573
3 292 301 414
3 497 277 498
3 498 277 500
3 500 504 501
3 268 203 474
3 574 222 561
3 560 574 561
3 302 473 540
3 225 303 563
3 575 576 378
3 534 226 256
3 514 280 77
3 380 74 73
3 73 72 378
3 79 41 77
3 479 46 73
3 285 543 544
3 440 273 441
3 536 516 537
3 445 536 537
3 518 445 47
3 281 441 273
3 304 305 577
3 545 365 100
3 578 577 305
3 101 565 579
3 391 578 111
3 390 297 110
3 24 520 580
3 520 566 568
3 259 306 483
3 520 568 580
3 287 549 288
3 24 580 299
3 566 538 233
3 568 566 233
3 553 398 135
3 400 567 401
3 567 557 401
3 406 262 233
3 232 449 484
3 143 144 274
3 458 143 274
3 558 264 275
3 236 453 291
3 455 558 275
3 236 274 144
3 524 455 275
3 264 463 163
3 247 263 492
3 489 307 308
3 178 559 413
3 528 164 163
3 413 526 530
3 492 465 247
3 464 415 246
3 463 246 163
3 491 309 300
3 526 528 530
3 175 266 173
3 466 251 267
3 531 251 252
3 531 252 532
3 416 531 532
3 496 276 248
3 497 278 277
3 292 497 499
3 469 470 581
3 499 582 292
3 574 504 222
3 583 433 205
3 203 279 473
3 560 562 310
3 473 302 509
3 268 474 295
3 489 308 465
3 302 540 283
3 311 575 584
3 286 544 100
3 288 549 400
3 312 534 437
3 313 541 255
3 584 564 311
3 282 314 398
3 507 295 270
3 315 400 402
3 576 575 316
3 237 559 178
3 178 414 301
3 310 562 510
3 317 226 534
3 480 296 257
3 318 402 486
3 237 318 486
3 234 307 489
3 512 296 517
3 398 314 145
3 470 319 581
3 320 292 582
3 582 560 310
3 273 517 296
3 303 294 563
3 541 321 511
3 315 402 318
3 465 319 470
3 583 581 322
3 294 283 40
3 323 437 576
3 288 109 388
3 583 322 433
3 294 303 283
3 284 254 475
3 296 512 324
3 387 286 100
3 302 325 509
3 295 508 269
3 224 303 225
3 325 269 509
3 564 285 326
3 313 321 541
3 511 321 512
3 316 575 311
3 284 226 317
3 582 310 327
3 328 310 510
3 271 328 510
3 329 481 257
3 481 314 282
3 465 330 319
3 327 331 582
3 581 332 322
3 333 303 224
3 254 313 255
3 308 330 465
3 331 320 582
3 334 387 109
3 320 301 292
3 223 335 271
3 336 333 224
3 335 223 270
3 334 286 387
3 534 337 317
3 303 338 283
3 339 312 437
3 340 178 301
3 512 321 341
3 340 301 342
3 302 283 338
3 145 307 234
3 343 335 270
3 313 254 284
3 337 534 312
3 344 311 564
3 301 331 342
3 343 269 325
3 311 344 316
3 317 337 284
3 341 324 512
3 345 237 178
3 433 346 224
3 224 346 336
3 323 339 437
3 296 347 257
3 340 345 178
3 295 343 270
3 329 257 347
3 332 581 319
3 348 328 271
3 326 285 286
3 348 271 335
3 337 313 284
3 349 339 323
3 349 323 576
3 481 329 314
3 350 288 400
3 295 269 343
3 339 337 312
3 349 576 316
3 351 288 350
3 145 314 352
3 327 310 328
3 344 564 326
3 288 351 109
3 315 350 400
3 318 237 345
3 342 331 327
3 433 322 346
3 325 302 338
3 353 303 333
3 353 338 303
3 313 341 321
3 354 344 326
3 296 324 347
3 314 329 352
3 352 355 145
3 356 318 345
3 307 145 330
3 307 330 308
3 342 327 357
3 332 319 322
3 357 327 328
3 333 336 346
3 358 328 348
3 358 359 328
3 344 360 316
3 344 354 360
3 145 355 330
3 322 361 346
3 359 357 328
3 362 341 313
3 286 334 351
3 351 334 109
3 347 363 329
3 329 363 364
3 350 315 356
3 356 315 318
3 345 340 342
3 342 357 345
3 329 364 352
3 585 126 131
3 260 585 131
3 365 371 45
3 72 371 545
3 586 587 588
3 365 227 46
3 72 75 272
3 279 502 532
3 203 293 253
3 203 209 279
3 566 111 393
3 537 305 304
3 516 578 305
3 537 110 520
3 393 578 281
3 566 110 297
3 232 483 447
3 557 289 232
3 287 259 298
3 287 130 567
3 567 555 557
3 112 259 258
3 112 483 306
3 179 419 250
3 246 419 173
3 528 184 497
3 528 266 249
3 278 184 248
3 589 590 591
3 278 276 189
3 263 238 453
3 453 241 291
3 265 241 570
3 263 491 239
3 267 570 300
3 247 491 290
3 267 309 247
3 592 572 571
3 571 593 594
3 595 571 594
3 595 592 571
3 301 320 331
3 365 545 371
3 72 272 371
3 586 596 587
3 365 45 227
3 72 73 75
3 279 209 502
3 203 189 293
3 203 253 209
3 566 297 111
3 537 516 305
3 516 281 578
3 537 304 110
3 393 111 578
3 566 520 110
3 232 289 483
3 557 555 289
3 287 258 259
3 287 298 130
3 567 130 555
3 112 306 259
3 112 447 483
3 179 185 419
3 246 250 419
3 528 249 184
3 528 163 266
3 278 497 184
3 589 597 590
3 278 248 276
3 263 239 238
3 453 238 241
3 265 291 241
3 263 290 491
3 267 265 570
3 247 309 491
3 267 300 309
3 592 598 572
3 571 599 593
