ply
format ascii 1.0
comment VCGLIB generated
comment TextureFile Dungeons_Texture_01.png
element vertex 419
property float x
property float y
property float z
property float nx
property float ny
property float nz
property uchar red
property uchar green
property uchar blue
property uchar alpha
property float texture_u
property float texture_v
element face 498
property list uchar int vertex_indices
end_header
0.423328 5.021786 -0.555924 0.203132 0.6206539 -0.7573151 106 103 98 255 0.223097 0.29483
0.53001 4.858127 -0.555875 0.9184615 0.1874635 -0.3482614 106 103 98 255 0.223097 0.29483
0.53001 4.58457 -0.55584 0.4472245 -0.0002039285 -0.8944217 106 103 98 255 0.223097 0.29483
0.025448 4.685506 -0.555592 -0.2315812 -0.02688814 -0.9724439 106 103 98 255 0.223097 0.29483
-0.013264 5.019827 -0.555581 -0.8525494 0.2728541 -0.4457692 106 103 98 255 0.223097 0.29483
-0.009747 4.621168 -0.518525 -0.9738148 -0.02954374 -0.2254147 106 103 98 255 0.223097 0.29483
0.009987 4.582496 -0.517163 -0.343527 -0.781791 -0.5203768 97 95 95 255 0.199099 0.277996
-0.012936 4.008584 -0.55523 -0.8409107 0.08164722 -0.5349794 106 103 98 255 0.223097 0.29483
0.53001 3.994851 -0.555886 0.7149755 -0.02295012 -0.6987727 106 103 98 255 0.223097 0.29483
0.376862 3.565725 -0.554208 -0.002073867 -0.002670897 -0.9999943 106 103 98 255 0.223097 0.29483
-0.013252 3.757076 -0.555654 -0.5509936 -0.1563414 -0.8197338 106 103 98 255 0.223097 0.29483
0.089767 3.603579 -0.554357 -0.4016235 -0.2769243 -0.8729327 106 103 98 255 0.223097 0.29483
0.53001 3.602195 -0.555875 0.7238258 -1.927187e-05 -0.6899828 106 103 98 255 0.223097 0.29483
-0.012947 2.990399 -0.555239 -0.6982339 0.0009696978 -0.715869 106 103 98 255 0.223097 0.29483
0.53001 2.976706 -0.555887 0.7070622 0.001088575 -0.7071506 106 103 98 255 0.223097 0.29483
-0.013264 2.542921 -0.555536 -0.6981131 0.0007407277 -0.7159871 106 103 98 255 0.223097 0.29483
0.53001 2.542712 -0.555849 0.706903 -6.18794e-05 -0.7073105 106 103 98 255 0.223097 0.29483
0.53001 1.974259 -0.555849 0.446732 -0.0002620855 -0.8946678 106 103 98 255 0.223097 0.29483
0.53001 1.540261 -0.555887 0.8946108 7.201251e-05 -0.4468461 106 103 98 255 0.223097 0.29483
-0.012936 1.526529 -0.555231 -0.4491107 -0.0005889589 -0.8934759 106 103 98 255 0.223097 0.29483
-0.013264 1.974052 -0.555532 -0.8957354 -0.001985867 -0.4445832 106 103 98 255 0.223097 0.29483
-0.013264 0.949754 -0.555414 -0.5752873 -0.0835632 -0.8136718 120 120 119 255 0.199079 0.303629
0.53001 0.950066 -0.555841 0.7068288 7.860857e-05 -0.7073847 120 120 119 255 0.199079 0.303629
0.53001 0.635216 -0.555876 0.6845863 -0.09402283 -0.7228426 120 120 119 255 0.199079 0.303629
0.509007 0.530238 -0.524874 -0.05478149 -0.1401687 -0.988611 120 120 119 255 0.199079 0.303629
-0.001217 0.51598 -0.544401 -0.6837959 -0.03749185 -0.7287095 120 120 119 255 0.199079 0.303629
0.479225 4.008584 -0.396153 0.5116558 0.7720212 -0.377083 97 95 95 255 0.199099 0.277996
0.529835 1.974456 -0.360842 0.9999998 -0.0003009044 0.0004799037 106 103 98 255 0.223097 0.29483
-0.013264 3.560377 -0.378537 -0.9850963 -0.1093074 -0.1328052 106 103 98 255 0.223097 0.29483
0.054935 2.54094 -0.37723 -0.3098027 -0.7496954 -0.5847899 97 95 95 255 0.199099 0.277997
-0.013264 1.974755 -0.378531 -0.2358267 0.9460875 -0.2220456 97 95 95 255 0.199099 0.277997
-0.012245 1.638639 -0.445585 -0.9999979 -0.001942152 0.0007362601 106 103 98 255 0.223097 0.29483
0.054935 0.957682 -0.377302 -0.3776025 0.714094 -0.5894794 97 95 95 255 0.199099 0.277997
0.477703 0.957722 -0.359865 0.9514823 0.1069494 -0.288519 97 95 95 255 0.199099 0.277997
0.461079 4.576964 -0.377374 0.142908 -0.8160901 -0.5599771 97 95 95 255 0.199099 0.277996
0.055477 4.538808 -0.357675 -0.7706649 0.1673159 -0.6148831 97 95 95 255 0.199099 0.277996
0.055817 3.032871 -0.356088 -0.6429811 0.2729957 -0.7155757 97 95 95 255 0.199099 0.277997
0.504055 3.578603 -0.114549 0.9997097 -0.02290085 -0.007498495 106 103 98 255 0.223097 0.29483
0.53001 2.54264 0.164366 0.9999075 -0.007946102 0.01104251 106 103 98 255 0.223097 0.29483
0.529667 0.508344 -0.360865 0.3051152 -0.9485549 -0.08454859 97 95 95 255 0.199099 0.277997
0.477638 0.506884 -0.359831 0.4814067 -0.8201423 -0.3092155 97 95 95 255 0.199099 0.277997
0.004078 5.026292 0.028598 -0.3690417 0.9056783 -0.2086986 106 103 98 255 0.223097 0.29483
-0.012833 4.517673 -0.395539 -0.4397898 -1.596324e-05 -0.8981007 120 120 119 255 0.199079 0.303629
0.529243 4.517604 -0.395539 0.7192255 -0.0001926213 -0.6947767 120 120 119 255 0.199079 0.303629
0.529125 4.076943 -0.395539 0.8334149 0.01246656 -0.5525074 120 120 119 255 0.199079 0.303629
-0.012817 4.076867 -0.395539 -0.8861061 -0.01476366 -0.4632473 120 120 119 255 0.199079 0.303629
0.055733 4.058055 -0.357434 -0.7511296 -0.2000356 -0.6291185 97 95 95 255 0.199099 0.277996
0.529259 3.500113 -0.395539 0.7078183 -0.06652844 -0.7032547 120 120 119 255 0.199079 0.303629
0.309132 3.05425 -0.395539 0.03360058 -0.06745775 -0.9971562 120 120 119 255 0.199079 0.303629
-0.012829 3.500186 -0.395539 -0.7154508 -0.04982759 -0.6968841 120 120 119 255 0.199079 0.303629
0.497902 3.104058 -0.357614 0.7061064 -0.1226853 -0.6973966 120 120 119 255 0.199079 0.303629
0.011028 3.056022 -0.358274 -0.722237 -0.09625666 -0.6849149 120 120 119 255 0.199079 0.303629
0.444523 2.480794 -0.39554 0.3493406 -0.6538815 -0.6711186 97 95 95 255 0.199099 0.277997
-0.012833 2.481971 -0.39554 -0.4466988 -3.9861e-06 -0.8946844 120 120 119 255 0.199079 0.303629
0.376682 2.03448 -0.39554 0.07445529 -0.01131742 -0.9971601 120 120 119 255 0.199079 0.303629
0.529251 2.481918 -0.39554 0.3444808 0.9381104 -0.03580585 97 95 95 255 0.199099 0.277997
0.53001 2.187531 -0.365896 0.7479967 -0.04468071 -0.6621968 120 120 119 255 0.199079 0.303629
0.47863 2.046771 -0.362139 0.7487963 -0.4834362 -0.4534244 97 95 95 255 0.199099 0.277997
-0.012829 2.033716 -0.39554 -0.8933958 -3.997582e-06 -0.4492707 120 120 119 255 0.199079 0.303629
-0.014153 1.526529 -0.004454 -0.8897784 2.261788e-06 -0.4563929 106 103 98 255 0.223097 0.29483
0.477406 1.524122 -0.359739 0.4663059 -0.8432064 -0.2675102 97 95 95 255 0.199099 0.277997
0.055752 1.476389 -0.357389 -0.5175448 0.5439332 -0.6605181 97 95 95 255 0.199099 0.277997
0.343346 1.464722 -0.39554 0.07739507 0.03223129 -0.9964794 106 103 98 255 0.223097 0.29483
0.477882 1.467188 -0.363264 0.7267824 0.1316511 -0.6741329 106 103 98 255 0.223097 0.29483
0.529255 1.01831 -0.39554 0.7192781 0.07107821 -0.6910766 106 103 98 255 0.223097 0.29483
-0.012817 1.465422 -0.39554 -0.8858546 -0.01554327 -0.4637026 106 103 98 255 0.223097 0.29483
-0.012829 1.01825 -0.39554 -0.446702 1.198743e-05 -0.8946828 106 103 98 255 0.223097 0.29483
0.055614 0.466044 -0.357573 -0.5975876 -0.3310519 -0.7302696 97 95 95 255 0.199099 0.277997
-0.012817 0.441093 -0.39554 -0.7055368 0.0002362274 -0.7086732 120 120 119 255 0.199079 0.303629
0.529129 0.441004 -0.39554 0.5576109 -0.0167263 -0.8299339 120 120 119 255 0.199079 0.303629
-0.012901 0.190212 -0.39554 -0.7030224 -0.01232823 -0.7110609 120 120 119 255 0.199079 0.303629
0.376854 0 -0.38302 0.007710164 -0.03103747 -0.9994885 120 120 119 255 0.199079 0.303629
0.053623 0.002906 -0.341738 -0.4550525 -0.7385942 -0.4973991 97 95 95 255 0.199099 0.277997
0.529728 0 -0.383051 0.7070965 -0.01905753 -0.7068603 120 120 119 255 0.199079 0.303629
0.007977 3.997893 -0.292336 -0.7609751 0.6475356 0.04018249 97 95 95 255 0.199099 0.277996
0.304478 3.531194 -0.357156 0.2328303 -0.59969 -0.7656122 97 95 95 255 0.199099 0.277997
0.055317 3.52833 -0.358045 -0.4447756 0.5942578 -0.6700988 97 95 95 255 0.199099 0.277997
0.457142 0.466118 -0.357996 0.3777871 0.6508696 -0.6585179 97 95 95 255 0.199099 0.277997
0.447048 3.016434 -0.350992 0.7847376 -0.1138369 -0.609285 97 95 95 255 0.199099 0.277997
0.055637 2.021459 -0.357668 -0.2381947 -0.7735478 -0.5872709 97 95 95 255 0.199099 0.277997
0.53001 1.46557 -0.034357 0.999594 -0.001706915 -0.02844116 106 103 98 255 0.223097 0.29483
0.529667 -0 0.063227 0.9999955 -0.00225072 0.002010592 120 120 119 255 0.199079 0.303629
0.530006 3.052847 -0.187506 0.9969283 -0.03179642 -0.07157476 120 120 119 255 0.199079 0.303629
-0.013927 9.6e-05 -0.006723 -0.2722405 -0.9601747 -0.06284688 97 95 95 255 0.199099 0.277997
0.455994 4.5397 -0.16652 0.9449215 0.3270041 0.01384671 97 95 95 255 0.199099 0.277996
0.459885 3.55207 0.146094 0.9916505 0.1249517 -0.03187958 97 95 95 255 0.199099 0.277997
-0.014645 3.052787 -0.007925 -0.8855714 -0.02384844 -0.4638906 120 120 119 255 0.199079 0.303629
-0.01395 2.033674 -0.006693 -0.1245948 -0.9906669 -0.05527549 97 95 95 255 0.199099 0.277997
0.53001 0.951997 0.085207 0.9999996 -0.0008681571 0.000220144 120 120 119 255 0.199079 0.303629
-0.014332 4.070932 -0.007855 -0.09851103 -0.9546621 -0.2809195 97 95 95 255 0.199099 0.277996
0.477852 0.449706 0.130064 0.8879066 0.4598331 -0.01324609 97 95 95 255 0.199099 0.277997
0.529488 3.500239 -0.00879 0.9999991 0.001333946 -0.000124562 120 120 119 255 0.199079 0.303629
0.529507 2.990399 -0.244684 0.2943693 0.9556209 -0.01163736 97 95 95 255 0.199099 0.277997
-0.01395 2.481977 -0.006697 -0.7350934 0.01490248 -0.6778021 120 120 119 255 0.199079 0.303629
0.513561 5.026144 0.334567 0.6732815 0.7388716 0.02758233 106 103 98 255 0.223097 0.29483
0.052361 4.057577 0.06824 -0.4886086 -0.5442266 -0.6819671 97 95 95 255 0.199099 0.277996
0.002468 3.894172 -0.027387 -0.9488495 0.2126117 -0.2334114 106 103 98 255 0.223097 0.29483
-0.014591 3.560422 -0.00467 -0.7171877 0.04977828 -0.6950999 106 103 98 255 0.223097 0.29483
0.052273 3.552624 0.068114 -0.7155702 -0.2237291 -0.6617436 97 95 95 255 0.199099 0.277997
-0.027737 2.990399 0.010927 -0.2700653 0.941992 -0.1992883 97 95 95 255 0.199099 0.277997
0.052296 2.020849 0.068213 -0.6416507 -0.02258198 -0.7666644 97 95 95 255 0.199099 0.277997
0.529495 1.526529 0.147455 0.1039658 -0.9945618 -0.006168396 97 95 95 255 0.199099 0.277997
-0.014595 0.95148 -0.004671 -0.1809056 0.9715455 -0.1528811 97 95 95 255 0.199099 0.277997
0.529495 4.008584 0.147456 0.9993791 -0.02250011 -0.02711362 106 103 98 255 0.223097 0.29483
0.461571 2.541058 0.502787 0.3567851 -0.7066175 0.6110616 97 95 95 255 0.199099 0.277997
0.460007 1.477459 0.126692 0.8945119 0.4470302 -0.003532996 97 95 95 255 0.199099 0.277997
-0.014248 0.508344 -0.004496 -0.7147594 -0.01345041 -0.6992411 120 120 119 255 0.199079 0.303629
0.052395 0.466966 0.068262 -0.4185209 0.1583359 -0.8942987 97 95 95 255 0.199099 0.277997
0.052387 0.994358 0.068262 -0.795854 -0.4351336 -0.4210406 97 95 95 255 0.199099 0.277997
0.460407 4.541011 0.282786 0.9736187 -0.2276408 0.0156946 97 95 95 255 0.199099 0.277996
-0.029289 4.517828 0.011024 -0.3330331 0.8079155 -0.4861702 97 95 95 255 0.199099 0.277996
0.478092 2.032984 0.479605 0.2699695 -0.9189041 0.2876317 97 95 95 255 0.199099 0.277997
0.477722 1.97676 -0.024237 0.7947048 0.6007183 0.08707463 97 95 95 255 0.199099 0.277997
-0.030399 1.465676 0.010279 -0.04278212 0.9533864 -0.2987043 97 95 95 255 0.199099 0.277997
-0.013939 1.018281 -0.006712 -0.8913859 0.0003561337 -0.4532451 106 103 98 255 0.223097 0.29483
0.517372 4.4987 -0.052506 0.5185517 0.8549563 0.01240216 97 95 95 255 0.199099 0.277996
0.458965 3.00777 0.480688 0.6387004 0.2072768 0.7410116 97 95 95 255 0.199099 0.277997
0.031708 2.525288 0.079725 -0.6824287 -0.2907554 -0.6706358 97 95 95 255 0.199099 0.277997
-0.014534 0.44682 -0.008005 -0.2164402 0.9723762 -0.08739721 97 95 95 255 0.199099 0.277997
0.52953 1.018184 -0.128405 0.6749366 -0.7367181 0.04131803 97 95 95 255 0.199099 0.277997
0.529465 4.584641 0.283301 0.9996813 -0.007352106 0.02415122 106 103 98 255 0.223097 0.29483
0.529369 2.482055 0.554224 0.8319226 0.0003141331 0.5548916 120 120 119 255 0.199079 0.303629
-0.013935 3.500129 -0.006715 -0.3536471 0.9102091 -0.2155298 97 95 95 255 0.199099 0.277997
0.53001 3.052553 0.554865 0.7071352 0.001785424 0.7070762 120 120 119 255 0.199079 0.303629
0.052273 3.030739 0.06814 -0.4446709 -0.5412182 -0.7136881 97 95 95 255 0.199099 0.277997
0.529377 2.033704 -0.008768 0.323457 -0.9439572 -0.0657297 97 95 95 255 0.199099 0.277997
0.53001 1.974258 0.554865 0.8944029 -0.001732142 0.4472589 106 103 98 255 0.223097 0.29483
0.052444 1.476732 0.068487 -0.6226168 0.2179929 -0.75155 97 95 95 255 0.199099 0.277997
0.53001 0.441717 0.554865 0.9185415 -0.03073748 0.394128 120 120 119 255 0.199079 0.303629
0.029915 4.574601 0.064712 -0.4704252 -0.6757448 -0.5675114 97 95 95 255 0.199099 0.277996
-0.014591 4.583158 -0.00467 -0.1471991 -0.9887241 -0.02751597 97 95 95 255 0.199099 0.277996
-0.02808 1.97497 0.01029 -0.3082048 0.9060482 -0.2899767 97 95 95 255 0.199099 0.277997
-0.028088 2.541959 0.010271 -0.0932008 -0.9865133 -0.1345559 97 95 95 255 0.199099 0.277997
0.499962 1.028841 0.18141 0.5557804 -0.8301051 0.04509672 97 95 95 255 0.199099 0.277997
-0.464573 5.021061 0.049956 -0.3931151 0.4882254 -0.779164 106 103 98 255 0.223097 0.29483
-0.530006 4.584672 0.011729 -0.8681774 0.1078663 -0.4843892 106 103 98 255 0.223097 0.29483
-0.305431 4.562407 0.08422 -0.6855113 -0.2249874 -0.6924269 97 95 95 255 0.199099 0.277996
-0.360542 4.426214 0.035304 -0.6573049 0.4758706 -0.5843779 97 95 95 255 0.199099 0.277996
-0.361858 4.073637 0.011603 -0.8995289 0.03311715 -0.4356044 120 120 119 255 0.199079 0.303629
-0.050137 3.928581 0.026458 -0.2350299 0.1277446 -0.9635571 106 103 98 255 0.223097 0.29483
-0.530006 3.896474 0.011691 -0.8404899 0.1698259 -0.5145251 106 103 98 255 0.223097 0.29483
-0.530006 3.560961 0.011718 -0.4479796 0.03630051 -0.8933065 106 103 98 255 0.223097 0.29483
-0.400822 4.008584 0.012084 -0.4025806 0.4666522 -0.7875053 106 103 98 255 0.223097 0.29483
-0.359657 3.500239 0.012225 -0.7261819 0.003803127 -0.6874922 120 120 119 255 0.199079 0.303629
-0.361408 3.053276 0.011602 -0.7272136 0.002346522 -0.6864073 120 120 119 255 0.199079 0.303629
-0.416897 2.989536 0.013586 -0.3376079 0.0894031 -0.9370315 106 103 98 255 0.223097 0.29483
-0.530006 2.54282 0.011717 -0.5093456 0.05311428 -0.8589215 106 103 98 255 0.223097 0.29483
-0.529572 2.892432 0.08581 -0.9587417 0.05994783 -0.2778861 106 103 98 255 0.223097 0.29483
-0.359638 2.033614 0.012213 -0.7009985 0.03538442 -0.7122843 120 120 119 255 0.199079 0.303629
-0.334274 2.468426 0.028608 -0.6768377 0.06712309 -0.7330657 120 120 119 255 0.199079 0.303629
-0.303959 1.976405 0.063814 -0.1581568 0.1903292 -0.9688969 106 103 98 255 0.223097 0.29483
-0.529465 1.526529 0.012251 -0.6183457 0.1134915 -0.7776685 106 103 98 255 0.223097 0.29483
-0.522461 1.944101 0.087217 -0.7449507 0.1299673 -0.6543371 106 103 98 255 0.223097 0.29483
-0.361401 1.46517 0.011602 -0.7085105 -0.003752726 -0.7056904 106 103 98 255 0.223097 0.29483
-0.359653 1.018185 0.012224 -0.7306783 -0.0270504 -0.6821859 106 103 98 255 0.223097 0.29483
-0.530006 0.949964 0.011728 -0.3352446 -0.003025246 -0.9421263 120 120 119 255 0.199079 0.303629
-0.439808 0.537752 0.012037 -0.3492621 -0.158449 -0.9235312 120 120 119 255 0.199079 0.303629
-0.530006 0.73345 0.01169 -0.8971069 -0.124069 -0.4240355 120 120 119 255 0.199079 0.303629
-0.361858 0.44431 0.011602 -0.4854819 -0.0015687 -0.8742453 120 120 119 255 0.199079 0.303629
-0.361595 0.012806 0.011602 -0.8998021 -0.002397306 -0.4362916 120 120 119 255 0.199079 0.303629
-0.303883 4.010309 0.063903 -0.4553635 0.1450301 -0.8784136 97 95 95 255 0.199099 0.277996
0.53001 3.560907 0.1986 0.9996132 -0.002039302 -0.02773953 106 103 98 255 0.223097 0.29483
-0.317394 2.481087 0.085119 -0.386049 0.8590527 -0.3361468 97 95 95 255 0.199099 0.277997
-0.303867 1.524678 0.063921 -0.7234231 -0.2616592 -0.6389003 97 95 95 255 0.199099 0.277997
-0.319496 0.957705 0.086637 -0.7367284 0.4409415 -0.5126421 97 95 95 255 0.199099 0.277997
-0.319912 3.560057 0.111266 -0.7392778 -0.6495829 -0.1775115 97 95 95 255 0.199099 0.277997
-0.307934 2.531187 0.076525 -0.2455929 -0.9172147 -0.3136901 97 95 95 255 0.199099 0.277997
0.477844 0.507034 0.181589 0.5617024 -0.8272185 0.01413756 97 95 95 255 0.199099 0.277997
-0.305405 3.007991 0.084146 -0.2673285 0.8875685 -0.375177 97 95 95 255 0.199099 0.277997
-0.529533 2.990399 0.266661 -0.7283761 0.6025286 -0.3262325 120 120 119 255 0.199079 0.303629
-0.359589 2.48173 0.164389 -0.9976978 0.02036888 -0.06468658 120 120 119 255 0.199079 0.303629
0.53001 4.076231 0.554866 0.4808938 -0.7709094 0.4176599 97 95 95 255 0.199099 0.277996
0.477676 4.01067 0.479468 0.3343426 0.9076774 0.2536472 97 95 95 255 0.199099 0.277996
-0.527702 4.00491 0.419051 -0.8607562 0.4881333 0.1443079 106 103 98 255 0.223097 0.29483
-0.530006 2.542528 0.454206 -0.02364027 -0.9996428 0.01246814 97 95 95 255 0.199099 0.277997
-0.530006 1.974151 0.554754 -0.05519565 0.998409 -0.01152771 97 95 95 255 0.199099 0.277997
-0.529747 0.508344 0.266665 -0.9834911 -0.1361458 -0.1192036 120 120 119 255 0.199079 0.303629
0.529552 0.508344 0.554411 0.894419 -0.001325544 0.4472282 120 120 119 255 0.199079 0.303629
-0.530006 5.019885 0.554748 -0.6493773 0.7035452 0.2886752 106 103 98 255 0.223097 0.29483
-0.530006 4.584673 0.554744 -0.4473115 -4.124014e-06 0.8943782 106 103 98 255 0.223097 0.29483
0.494667 4.580997 0.517734 0.4154395 -0.8882064 0.1962126 97 95 95 255 0.199099 0.277996
-0.361858 4.073637 0.55487 -0.6312265 -0.3682797 0.6825857 97 95 95 255 0.199099 0.277996
-0.530006 0.949964 0.554743 -0.8319997 -0.0008241053 0.5547757 120 120 119 255 0.199079 0.303629
-0.304077 0.507438 0.502729 -0.2995538 -0.8572206 0.4188561 97 95 95 255 0.199099 0.277997
-0.361858 0.44431 0.554869 -0.5556177 -0.004289886 0.8314268 120 120 119 255 0.199079 0.303629
-0.359715 -0 0.554338 -0.01292505 -0.9998838 -0.008079887 97 95 95 255 0.199099 0.277997
-0.359715 4.517947 0.554339 -0.4466991 0.8508179 0.2767108 97 95 95 255 0.199099 0.277996
-0.303913 1.524655 0.502447 -0.2338756 -0.8256981 0.5133467 97 95 95 255 0.199099 0.277997
-0.303524 1.466918 0.503031 -0.5225353 0.7912489 0.3176195 97 95 95 255 0.199099 0.277997
0.455795 0.976714 0.14604 0.9151195 0.4031579 0.004487141 97 95 95 255 0.199099 0.277997
0.527512 0.032571 0.41905 0.9892663 -0.05144031 0.1367701 120 120 119 255 0.199079 0.303629
-0.400822 4.008581 0.554385 -0.2183212 0.9462053 0.2388125 97 95 95 255 0.199099 0.277996
0.529362 3.500239 0.554217 0.7071604 0.002046964 0.7070503 120 120 119 255 0.199079 0.303629
0.529522 4.008584 0.453719 0.05466834 0.9980772 0.02921215 97 95 95 255 0.199099 0.277996
-0.305592 3.008031 0.481768 -0.6909384 -0.08110356 0.7183498 97 95 95 255 0.199099 0.277997
0.529369 2.990399 0.554224 0.08106592 0.9842302 0.1572238 97 95 95 255 0.199099 0.277997
-0.304108 2.541332 0.502867 -0.4276786 -0.8188756 0.3827975 97 95 95 255 0.199099 0.277997
-0.359638 2.033614 0.554258 -0.8313978 -0.000955787 0.5556771 120 120 119 255 0.199079 0.303629
-0.530006 3.560961 0.554755 -0.7065632 0.0002706606 0.70765 106 103 98 255 0.223097 0.29483
0.47823 3.559822 0.479636 0.3404498 -0.8985163 0.2770604 97 95 95 255 0.199099 0.277997
-0.35952 3.053522 0.434622 -0.7517521 -0.593704 0.2870267 97 95 95 255 0.199099 0.277997
0.477585 1.52446 0.479433 0.4523992 -0.7816913 0.4292945 97 95 95 255 0.199099 0.277997
0.478203 1.467123 0.479647 0.3715864 0.8832198 0.2860882 97 95 95 255 0.199099 0.277997
0.53001 1.465914 0.554865 0.01414618 0.998244 0.05752233 97 95 95 255 0.199099 0.277997
-0.361401 1.46517 0.554869 -0.02579725 0.9983763 0.05078769 97 95 95 255 0.199099 0.277997
-0.300659 0.981797 0.47603 -0.4894192 0.5755408 0.6551501 97 95 95 255 0.199099 0.277997
-0.529469 2.990399 0.554224 -0.05263321 0.9954579 0.07933084 97 95 95 255 0.199099 0.277997
-0.360733 2.482055 0.435503 -0.3364926 0.9020938 0.2701844 97 95 95 255 0.199099 0.277997
0.343288 -0 0.554529 0.1378482 -0.9899978 0.03003796 97 95 95 255 0.199099 0.277997
-0.31913 1.976618 0.47962 -0.7454224 0.3895602 0.5409144 97 95 95 255 0.199099 0.277997
-0.319511 1.017872 0.482573 -0.4981163 -0.6387986 0.5863587 97 95 95 255 0.199099 0.277997
0.461414 1.016548 0.502523 0.4022709 -0.7523046 0.5217431 97 95 95 255 0.199099 0.277997
-0.305607 4.562379 0.481631 -0.3869519 -0.6820521 0.6205426 97 95 95 255 0.199099 0.277996
-0.303246 3.502509 0.502345 -0.387297 0.822754 0.4160251 97 95 95 255 0.199099 0.277997
-0.305061 3.552187 0.481116 -0.3464087 -0.8705132 0.3495823 97 95 95 255 0.199099 0.277997
0.529362 1.018184 0.554216 0.906823 -0.05064597 0.418458 106 103 98 255 0.223097 0.29483
0.461483 0.507182 0.502672 0.5016738 -0.6762272 0.5394815 97 95 95 255 0.199099 0.277997
0.461235 3.502436 0.502292 0.218053 0.8347397 0.5056309 97 95 95 255 0.199099 0.277997
-0.4632 2.543383 0.553862 0.02921066 -0.8873022 0.4602626 97 95 95 255 0.199099 0.277997
0.529362 1.526529 0.554216 0.4250158 -0.02001877 0.9049646 106 103 98 255 0.223097 0.29483
-0.529461 1.526529 0.554216 -0.6230124 -0.001698626 0.7822102 106 103 98 255 0.223097 0.29483
0.53001 0.950062 0.554865 0.2756377 0.9110984 0.3064698 97 95 95 255 0.199099 0.277997
-0.529659 0.508344 0.554411 -0.002010029 -0.9999596 0.008756003 97 95 95 255 0.199099 0.277997
0.529995 4.956204 0.554748 0.7427616 0.1974817 0.6397705 106 103 98 255 0.223097 0.29483
0.53001 3.560855 0.554866 0.01301454 -0.9990357 0.04193173 97 95 95 255 0.199099 0.277997
0.514568 2.550225 0.533686 0.1277899 -0.809971 0.5723782 97 95 95 255 0.199099 0.277997
0.53001 4.505001 0.554866 0.3915395 0.9079161 0.1496168 97 95 95 255 0.199099 0.277996
0.456409 4.552253 0.469894 0.5707477 -0.05355066 0.8193775 97 95 95 255 0.199099 0.277996
-0.359657 3.500239 0.554248 -0.7730768 -0.03470155 0.6333625 120 120 119 255 0.199079 0.303629
-0.530006 3.855178 0.554782 -0.8441451 0.1754957 0.5065771 106 103 98 255 0.223097 0.29483
0.241028 1.974283 0.554869 0.1031607 0.9449656 0.3104802 97 95 95 255 0.199099 0.277997
0.49012 0.035351 0.555925 0.2325106 -0.9690287 0.08319958 97 95 95 255 0.199099 0.277997
0.444473 4.008584 0.55432 0.4173682 0.08084053 0.9051346 106 103 98 255 0.223097 0.29483
0.529369 2.033614 0.554224 0.006258346 -0.9999719 0.004140701 97 95 95 255 0.199099 0.277997
0.376717 5.02088 0.55487 0.08321156 0.6584759 0.7479875 106 103 98 255 0.223097 0.29483
0.376862 4.583532 0.55487 0.03710486 -0.9333115 0.3571456 97 95 95 255 0.199099 0.277996
0.12294 4.010688 0.502517 0.05667517 0.2101164 0.9760323 97 95 95 255 0.199099 0.277996
0.068707 3.552071 0.484744 0.003742087 -0.5294726 0.8483189 97 95 95 255 0.199099 0.277997
-0.068306 3.052464 0.554869 -0.06220507 -0.7510433 0.6573161 97 95 95 255 0.199099 0.277997
0.027863 2.55095 0.526411 -0.0145432 -0.7201492 0.6936668 97 95 95 255 0.199099 0.277997
0.071331 2.494779 0.489408 -0.05788977 0.2164666 0.9745722 97 95 95 255 0.199099 0.277997
-0.068096 1.477459 0.484869 0.02073737 0.6641074 0.7473496 97 95 95 255 0.199099 0.277997
0.068737 0.972597 0.485106 -0.03441593 0.5057129 0.8620151 97 95 95 255 0.199099 0.277997
0.087914 0.467856 0.485174 9.606907e-05 0.5018513 0.8649539 97 95 95 255 0.199099 0.277997
0.259602 2.54312 0.553957 -0.01101579 -0.7393051 0.6732805 97 95 95 255 0.199099 0.277997
-0.359638 2.482055 0.554258 -0.01480256 0.9951848 0.09689202 97 95 95 255 0.199099 0.277997
-0.093346 0.508344 0.55451 -0.000111114 -0.9998078 0.01960233 97 95 95 255 0.199099 0.277997
-0.318558 3.134683 0.546634 -0.5038769 -0.4340611 0.7467925 97 95 95 255 0.199099 0.277997
-0.013279 3.500239 0.554423 3.08713e-05 0.9990761 0.04297666 97 95 95 255 0.199099 0.277997
-0.031021 1.018184 0.554346 -0.00100285 -0.9997568 0.02203023 97 95 95 255 0.199099 0.277997
-0.190804 2.659693 0.554869 0.006498335 -0.01556587 0.9998578 106 103 98 255 0.223097 0.29483
0.025448 4.685506 -0.555592 -0.2593569 -0.3031583 -0.9169673 97 95 95 255 0.199099 0.277996
0.53001 4.58457 -0.55584 0.1514313 -0.9491673 -0.275953 97 95 95 255 0.199099 0.277996
-0.009747 4.621168 -0.518525 -0.7943876 -0.4207974 -0.4380389 97 95 95 255 0.199099 0.277996
0.53001 3.994851 -0.555886 0.1155786 0.9921112 -0.04854927 97 95 95 255 0.199099 0.277996
-0.012936 4.008584 -0.55523 -0.2285916 0.9687253 -0.09652555 97 95 95 255 0.199099 0.277996
0.376862 3.565725 -0.554208 0.04815953 -0.9958957 0.07663205 97 95 95 255 0.199099 0.277997
-0.013264 3.560377 -0.378537 -0.09677454 -0.9749766 -0.2001385 97 95 95 255 0.199099 0.277997
0.089767 3.603579 -0.554357 -0.1243412 -0.9442388 -0.3048809 97 95 95 255 0.199099 0.277997
-0.013264 2.542921 -0.555536 -0.0695046 -0.9974347 -0.01712229 97 95 95 255 0.199099 0.277997
0.53001 2.542712 -0.555849 0.1547952 -0.9751512 -0.1584884 97 95 95 255 0.199099 0.277997
0.53001 1.974259 -0.555849 0.0001000677 0.9999969 -0.002490802 97 95 95 255 0.199099 0.277997
-0.013264 1.974052 -0.555532 -0.0003834608 0.9999921 -0.003972243 97 95 95 255 0.199099 0.277997
0.53001 0.950066 -0.555841 0.04501556 0.9985745 -0.02868076 97 95 95 255 0.199099 0.277997
-0.013264 0.949754 -0.555414 -0.0537771 0.9982683 -0.02384309 97 95 95 255 0.199099 0.277997
-0.013264 1.974755 -0.378531 -0.9998302 -0.01162516 -0.01429713 106 103 98 255 0.223097 0.29483
0.53001 3.602195 -0.555875 0.1530467 -0.988203 0.005619854 97 95 95 255 0.199099 0.277997
0.53001 2.976706 -0.555887 0.1406706 0.9793075 -0.145494 97 95 95 255 0.199099 0.277997
-0.012947 2.990399 -0.555239 -0.2470621 0.9615701 -0.1197631 97 95 95 255 0.199099 0.277997
0.509007 0.530238 -0.524874 0.3249919 -0.9248899 -0.1973805 97 95 95 255 0.199099 0.277997
0.53001 0.635216 -0.555876 0.9594665 -0.2369973 -0.1525004 97 95 95 255 0.199099 0.277997
0.53001 2.54264 0.164366 0.3568106 -0.9337347 0.02873803 97 95 95 255 0.199099 0.277997
0.444523 2.480794 -0.39554 0.07495365 -0.04493609 -0.996174 120 120 119 255 0.199079 0.303629
0.376682 2.03448 -0.39554 0.163148 -0.8769935 -0.4519572 97 95 95 255 0.199099 0.277997
0.53001 2.187531 -0.365896 0.7261024 -0.2817811 -0.627196 97 95 95 255 0.199099 0.277997
0.529835 1.974456 -0.360842 0.2473201 0.823801 -0.5100829 97 95 95 255 0.199099 0.277997
0.53001 1.540261 -0.555887 0.1274794 -0.9907115 -0.04732753 97 95 95 255 0.199099 0.277997
-0.012936 1.526529 -0.555231 -0.4644195 -0.8782325 -0.1141157 97 95 95 255 0.199099 0.277997
-0.001217 0.51598 -0.544401 -0.3067193 -0.9386635 -0.1575884 97 95 95 255 0.199099 0.277997
-0.012901 0.190212 -0.39554 -0.6149268 -0.4116085 -0.6726393 97 95 95 255 0.199099 0.277997
0.376854 0 -0.38302 -0.03302266 -0.9901678 -0.1359313 97 95 95 255 0.199099 0.277997
-0.012817 4.076867 -0.395539 -0.132413 -0.962456 -0.2369501 97 95 95 255 0.199099 0.277996
0.529125 4.076943 -0.395539 0.3379963 -0.6604857 -0.6704604 97 95 95 255 0.199099 0.277996
0.529259 3.500113 -0.395539 0.1941132 0.911586 -0.3623962 97 95 95 255 0.199099 0.277997
-0.012829 3.500186 -0.395539 -0.204341 0.9242843 -0.3224023 97 95 95 255 0.199099 0.277997
0.529129 0.441004 -0.39554 0.1736987 0.9665142 -0.188889 97 95 95 255 0.199099 0.277997
-0.012817 0.441093 -0.39554 -0.1173492 0.9126611 -0.3915084 97 95 95 255 0.199099 0.277997
0.529243 4.517604 -0.395539 0.338818 0.8536808 -0.3955142 97 95 95 255 0.199099 0.277996
-0.012833 4.517673 -0.395539 -0.1507577 0.9536746 -0.2603401 97 95 95 255 0.199099 0.277996
0.309132 3.05425 -0.395539 0.03588427 -0.4728552 -0.8804092 97 95 95 255 0.199099 0.277997
0.497902 3.104058 -0.357614 0.5942026 -0.3976892 -0.6991185 97 95 95 255 0.199099 0.277997
0.011028 3.056022 -0.358274 -0.3473243 -0.7277891 -0.591345 97 95 95 255 0.199099 0.277997
-0.012833 2.481971 -0.39554 -0.5523899 0.7327328 -0.397452 97 95 95 255 0.199099 0.277997
-0.012829 2.033716 -0.39554 -0.08845193 -0.9834109 -0.1583645 97 95 95 255 0.199099 0.277997
0.477882 1.467188 -0.363264 0.4373185 0.7866524 -0.4358101 97 95 95 255 0.199099 0.277997
0.343346 1.464722 -0.39554 0.01064147 0.9758447 -0.2182058 97 95 95 255 0.199099 0.277997
-0.012817 1.465422 -0.39554 -0.07700355 0.9864076 -0.1451572 97 95 95 255 0.199099 0.277997
0.529255 1.01831 -0.39554 0.3238691 -0.5961022 -0.7346911 97 95 95 255 0.199099 0.277997
-0.012829 1.01825 -0.39554 -0.4238447 -0.8232858 -0.3775662 97 95 95 255 0.199099 0.277997
0.530006 3.052847 -0.187506 0.6446086 -0.7474505 -0.1606165 97 95 95 255 0.199099 0.277997
0.529667 0.508344 -0.360865 0.9999992 -0.001217884 0.0004424239 120 120 119 255 0.199079 0.303629
-0.014645 3.052787 -0.007925 -0.2660255 -0.9579751 -0.1073038 97 95 95 255 0.199099 0.277997
0.055477 4.538808 -0.357675 -0.997061 -0.01542731 0.07504348 106 103 98 255 0.223097 0.29483
0.529507 2.990399 -0.244684 0.9999979 0.001890327 0.0008395266 106 103 98 255 0.223097 0.29483
0.53001 0.951997 0.085207 0.2514961 0.9678305 -0.00734254 97 95 95 255 0.199099 0.277997
0.504055 3.578603 -0.114549 0.2451321 -0.9681197 -0.05152269 97 95 95 255 0.199099 0.277997
0.529495 1.526529 0.147455 0.9999997 -0.0007834423 0.0002897434 106 103 98 255 0.223097 0.29483
-0.014153 1.526529 -0.004454 -0.5472906 -0.8273839 -0.1261306 97 95 95 255 0.199099 0.277997
-0.012245 1.638639 -0.445585 -0.9999629 0.008324317 -0.002209524 97 95 95 255 0.199099 0.277997
-0.014595 0.95148 -0.004671 -0.7174211 -0.0008368878 -0.6966393 120 120 119 255 0.199079 0.303629
-0.014248 0.508344 -0.004496 -0.426013 -0.889888 -0.1631328 97 95 95 255 0.199099 0.277997
-0.014591 3.560422 -0.00467 -0.04873869 -0.998392 -0.02894867 97 95 95 255 0.199099 0.277997
0.529488 3.500239 -0.00879 0.5969144 0.802305 -0.0002403453 97 95 95 255 0.199099 0.277997
-0.029289 4.517828 0.011024 -0.8945387 0.002559206 -0.4469832 120 120 119 255 0.199079 0.303629
0.007977 3.997893 -0.292336 -0.9616272 0.2616788 0.08244611 106 103 98 255 0.223097 0.29483
-0.01395 2.481977 -0.006697 -0.308772 0.9274791 -0.2108134 97 95 95 255 0.199099 0.277997
0.529667 -0 0.063227 -0.1277137 -0.9908463 0.04373434 97 95 95 255 0.199099 0.277997
0.529728 0 -0.383051 0 -1 0 97 95 95 255 0.199099 0.277997
0.529251 2.481918 -0.39554 0.7076213 -0.06898759 -0.7032161 120 120 119 255 0.199079 0.303629
0.52953 1.018184 -0.128405 0.9988152 -0.01103515 0.04739648 106 103 98 255 0.223097 0.29483
-0.014534 0.44682 -0.008005 -0.8982388 -0.001736442 -0.4395044 120 120 119 255 0.199079 0.303629
0.529465 4.584641 0.283301 0.5336488 -0.8450544 0.03319785 97 95 95 255 0.199099 0.277996
-0.027737 2.990399 0.010927 -0.6995391 0.003108811 -0.7145875 106 103 98 255 0.223097 0.29483
0.529377 2.033704 -0.008768 0.9999996 -0.0007164376 0.0005847373 120 120 119 255 0.199079 0.303629
-0.014591 4.583158 -0.00467 -0.4319606 0.09203984 -0.8971838 106 103 98 255 0.223097 0.29483
0.052361 4.057577 0.06824 -0.7950465 0.4683253 -0.3854511 106 103 98 255 0.223097 0.29483
0.53001 1.974258 0.554865 0.02280246 0.9997374 0.002260625 97 95 95 255 0.199099 0.277997
0.517372 4.4987 -0.052506 0.9997261 0.02243835 0.006664682 120 120 119 255 0.199079 0.303629
0.529369 2.482055 0.554224 0.2160284 0.8975247 0.3844234 97 95 95 255 0.199099 0.277997
-0.014332 4.070932 -0.007855 -0.4951569 0.03182122 -0.8682207 120 120 119 255 0.199079 0.303629
-0.013935 3.500129 -0.006715 -0.4856202 0.002618748 -0.874166 120 120 119 255 0.199079 0.303629
-0.01395 2.033674 -0.006693 -0.7251657 -6.143877e-06 -0.6885744 120 120 119 255 0.199079 0.303629
0.53001 1.46557 -0.034357 0.1214153 0.9926017 0.0004641432 97 95 95 255 0.199099 0.277997
-0.013927 9.6e-05 -0.006723 -0.4848656 -0.001898463 -0.8745866 120 120 119 255 0.199079 0.303629
-0.028088 2.541959 0.010271 -0.6988156 0.00159335 -0.7153001 106 103 98 255 0.223097 0.29483
-0.02808 1.97497 0.01029 -0.5180359 0.08738311 -0.8508837 106 103 98 255 0.223097 0.29483
-0.030399 1.465676 0.010279 -0.4598949 -0.0002669966 -0.8879734 106 103 98 255 0.223097 0.29483
-0.360542 4.426214 0.035304 -0.4960247 0.04794388 -0.8669838 120 120 119 255 0.199079 0.303629
-0.013939 1.018281 -0.006712 -0.1048346 -0.9327246 -0.345014 97 95 95 255 0.199099 0.277997
0.53001 0.441717 0.554865 0.226878 0.9216522 0.3147755 97 95 95 255 0.199099 0.277997
-0.530006 4.584672 0.011729 -0.03053293 -0.9877855 -0.1527995 97 95 95 255 0.199099 0.277996
0.529495 4.008584 0.147456 0.09046511 0.9958742 -0.007123407 97 95 95 255 0.199099 0.277996
-0.050137 3.928581 0.026458 0.1003738 0.6548361 -0.7490759 97 95 95 255 0.199099 0.277996
-0.400822 4.008584 0.012084 0.05855111 0.9870191 -0.14955 97 95 95 255 0.199099 0.277996
-0.359657 3.500239 0.012225 -0.2953622 0.9132429 -0.2806218 97 95 95 255 0.199099 0.277997
-0.334274 2.468426 0.028608 -0.1569673 0.9726806 -0.1710371 97 95 95 255 0.199099 0.277997
-0.529465 1.526529 0.012251 -0.005839742 -0.9999281 -0.01047419 97 95 95 255 0.199099 0.277997
-0.530006 0.949964 0.011728 -0.02124477 0.9988269 -0.04351567 97 95 95 255 0.199099 0.277997
-0.439808 0.537752 0.012037 -0.2202024 -0.8528323 -0.473485 97 95 95 255 0.199099 0.277997
-0.530006 3.560961 0.011718 -0.01144818 -0.9998911 -0.009319558 97 95 95 255 0.199099 0.277997
-0.530006 2.54282 0.011717 -0.02725564 -0.9959755 -0.08538125 97 95 95 255 0.199099 0.277997
-0.361401 1.46517 0.011602 -0.3108585 0.9137291 -0.2616605 97 95 95 255 0.199099 0.277997
-0.361858 4.073637 0.011603 -0.4558744 -0.7765375 -0.4349346 97 95 95 255 0.199099 0.277996
0.53001 3.560907 0.1986 0.1032581 -0.9944949 -0.01782802 97 95 95 255 0.199099 0.277997
-0.361408 3.053276 0.011602 -0.3446562 -0.9124932 -0.2203822 97 95 95 255 0.199099 0.277997
-0.416897 2.989536 0.013586 -0.06544475 0.9858329 -0.1544361 97 95 95 255 0.199099 0.277997
-0.529572 2.892432 0.08581 -0.7283761 0.6025286 -0.3262325 120 120 119 255 0.199079 0.303629
-0.416897 2.989536 0.013586 -0.7283761 0.6025286 -0.3262325 120 120 119 255 0.199079 0.303629
-0.359653 1.018185 0.012224 -0.5470591 -0.7692902 -0.3300287 97 95 95 255 0.199099 0.277997
-0.359638 2.033614 0.012213 -0.4271738 -0.8575719 -0.2865189 97 95 95 255 0.199099 0.277997
-0.303959 1.976405 0.063814 -0.3943779 0.671156 -0.6277067 97 95 95 255 0.199099 0.277997
-0.522461 1.944101 0.087217 -0.152834 0.986056 -0.06584324 97 95 95 255 0.199099 0.277997
-0.361858 0.44431 0.011602 -0.668346 0.5432047 -0.5081754 97 95 95 255 0.199099 0.277997
0.53001 3.052553 0.554865 0.336092 -0.9250128 0.1771822 97 95 95 255 0.199099 0.277997
-0.529533 2.990399 0.266661 -0.1023034 0.9943072 -0.0297894 97 95 95 255 0.199099 0.277997
-0.530006 2.542528 0.454206 -0.9892225 -0.03085245 0.1431326 106 103 98 255 0.223097 0.29483
-0.530006 1.974151 0.554754 -0.6728023 -0.03707651 0.7388928 106 103 98 255 0.223097 0.29483
-0.361595 0.012806 0.011602 -0.0377573 -0.999012 -0.02344117 97 95 95 255 0.199099 0.277997
0.499962 1.028841 0.18141 0.9978548 -0.06506145 0.007273161 106 103 98 255 0.223097 0.29483
-0.529533 2.990399 0.266661 -0.9999995 0.001041792 -3.398732e-05 106 103 98 255 0.223097 0.29483
-0.359589 2.48173 0.164389 -0.1193055 0.9902769 -0.07153855 97 95 95 255 0.199099 0.277997
-0.359715 -0 0.554338 -0.7060074 -0.00425161 0.7081917 120 120 119 255 0.199079 0.303629
-0.530006 0.949964 0.554743 -0.0458677 0.9845364 0.1690688 97 95 95 255 0.199099 0.277997
0.529552 0.508344 0.554411 0.0138021 -0.9998735 0.007911709 97 95 95 255 0.199099 0.277997
-0.527702 4.00491 0.419051 -0.02892771 0.9995815 5.273584e-06 97 95 95 255 0.199099 0.277996
0.527512 0.032571 0.41905 0.05402404 -0.996721 0.06023917 97 95 95 255 0.199099 0.277997
-0.530006 4.584673 0.554744 -0.06697134 -0.9930249 0.09703784 97 95 95 255 0.199099 0.277996
-0.359715 4.517947 0.554339 -0.8942997 0.004331709 0.4474475 120 120 119 255 0.199079 0.303629
0.529362 3.500239 0.554217 0.1843648 0.9808102 0.0634115 97 95 95 255 0.199099 0.277997
0.529369 2.990399 0.554224 0.7033174 -0.02772764 0.710335 106 103 98 255 0.223097 0.29483
-0.361401 1.46517 0.554869 -0.734282 -0.09495529 0.6721706 106 103 98 255 0.223097 0.29483
0.529522 4.008584 0.453719 0.9728558 0.05202545 0.2254882 106 103 98 255 0.223097 0.29483
-0.529747 0.508344 0.266665 0.04040451 -0.998281 -0.04245679 97 95 95 255 0.199099 0.277997
-0.359638 2.033614 0.554258 -0.2972018 -0.9221562 0.2475862 97 95 95 255 0.199099 0.277997
0.529362 1.018184 0.554216 0.02435574 -0.9997033 -0.0003772354 97 95 95 255 0.199099 0.277997
0.53001 0.950062 0.554865 0.4472297 -0.001210236 0.8944184 120 120 119 255 0.199079 0.303629
-0.529659 0.508344 0.554411 -0.7070784 -0.001087216 0.7071343 120 120 119 255 0.199079 0.303629
0.53001 3.560855 0.554866 0.5533016 0.04674351 0.8316684 106 103 98 255 0.223097 0.29483
0.53001 1.465914 0.554865 0.4472976 -0.001816937 0.8943834 106 103 98 255 0.223097 0.29483
0.53001 4.505001 0.554866 0.7106231 0.01647058 0.70338 120 120 119 255 0.199079 0.303629
0.53001 4.076231 0.554866 0.7074375 0 0.7067759 120 120 119 255 0.199079 0.303629
-0.359657 3.500239 0.554248 -0.02012578 0.9995587 0.02184664 97 95 95 255 0.199099 0.277997
0.514568 2.550225 0.533686 0.6990889 -0.0567646 0.7127781 106 103 98 255 0.223097 0.29483
0.494667 4.580997 0.517734 0.7538677 -0.1344255 0.6431277 106 103 98 255 0.223097 0.29483
-0.400822 4.008581 0.554385 -0.1699988 0.1448341 0.9747428 106 103 98 255 0.223097 0.29483
-0.529469 2.990399 0.554224 -0.581452 -0.03843301 0.8126726 106 103 98 255 0.223097 0.29483
-0.529461 1.526529 0.554216 -0.008308218 -0.9999655 6.118673e-08 97 95 95 255 0.199099 0.277997
-0.361858 0.44431 0.554869 -0.2500862 0.8588021 0.4471194 97 95 95 255 0.199099 0.277997
0.444473 4.008584 0.55432 0.02367732 0.9988122 0.04258688 97 95 95 255 0.199099 0.277996
-0.35952 3.053522 0.434622 -0.9754447 -0.05725082 0.2126734 120 120 119 255 0.199079 0.303629
0.529369 2.033614 0.554224 0.7071153 0 0.7070983 120 120 119 255 0.199079 0.303629
-0.319511 1.017872 0.482573 -0.7517031 -0.1732483 0.6363392 106 103 98 255 0.223097 0.29483
0.49012 0.035351 0.555925 0.3876932 -0.0416503 0.920847 120 120 119 255 0.199079 0.303629
-0.530006 3.560961 0.554755 -0.01352491 -0.9967167 0.07983128 97 95 95 255 0.199099 0.277997
-0.360733 2.482055 0.435503 -0.9999953 -0.001779056 0.00250255 120 120 119 255 0.199079 0.303629
0.529362 1.526529 0.554216 0.02023717 -0.9997021 0.01364694 97 95 95 255 0.199099 0.277997
-0.361858 4.073637 0.55487 -0.447412 0.002692392 0.8943239 120 120 119 255 0.199079 0.303629
-0.4632 2.543383 0.553862 -0.4687994 -0.07021148 0.8805098 106 103 98 255 0.223097 0.29483
-0.318558 3.134683 0.546634 -0.5555428 -0.0796978 0.8276597 120 120 119 255 0.199079 0.303629
-0.359638 2.482055 0.554258 -0.7038258 0 0.7103726 120 120 119 255 0.199079 0.303629
0.376862 4.583532 0.55487 0.1000766 -0.04092627 0.9941377 106 103 98 255 0.223097 0.29483
-0.013279 3.500239 0.554423 -3.969555e-05 0.001167164 0.9999993 120 120 119 255 0.199079 0.303629
-0.068306 3.052464 0.554869 -0.01391189 -0.00779723 0.9998729 120 120 119 255 0.199079 0.303629
-0.190804 2.659693 0.554869 0.00242932 -0.123839 0.9922994 97 95 95 255 0.199099 0.277997
0.241028 1.974283 0.554869 -0.02069101 -0.05287933 0.9983866 106 103 98 255 0.223097 0.29483
-0.303913 1.524655 0.502447 0.0543789 -0.0530779 0.9971087 106 103 98 255 0.223097 0.29483
-0.031021 1.018184 0.554346 -0.07986739 -0.0603483 0.9949771 106 103 98 255 0.223097 0.29483
-0.093346 0.508344 0.55451 -6.100417e-05 -0.0008070937 0.9999997 120 120 119 255 0.199079 0.303629
0.343288 -0 0.554529 -0.003508495 -0.006333364 0.9999738 120 120 119 255 0.199079 0.303629
3 0 1 2 
3 0 2 3 
3 4 0 3 
3 5 4 3 
3 251 252 6 
3 253 251 6 
3 7 8 9 
3 7 9 10 
3 10 9 11 
3 8 12 9 
3 13 14 15 
3 15 14 16 
3 17 18 19 
3 20 17 19 
3 21 22 23 
3 21 23 24 
3 21 24 25 
3 26 254 255 
3 17 27 18 
3 28 7 10 
3 10 11 28 
3 256 257 258 
3 29 259 260 
3 30 261 262 
3 20 19 31 
3 32 263 264 
3 34 6 252 
3 265 20 31 
3 253 6 35 
3 266 257 256 
3 36 267 268 
3 8 37 12 
3 14 38 16 
3 269 270 39 
3 39 40 269 
3 4 41 0 
3 34 35 6 
3 42 43 44 
3 45 42 44 
3 46 26 255 
3 47 48 49 
3 48 47 50 
3 51 49 48 
3 271 52 260 
3 52 29 260 
3 53 272 54 
3 272 56 54 
3 273 274 57 
3 53 54 58 
3 275 261 30 
3 265 31 59 
3 276 60 277 
3 61 277 60 
3 62 63 64 
3 65 62 66 
3 66 62 64 
3 40 67 269 
3 67 278 269 
3 68 69 70 
3 70 69 71 
3 279 280 72 
3 69 73 71 
3 46 281 282 
3 74 46 255 
3 266 75 257 
3 76 283 284 
3 77 285 286 
3 34 287 35 
3 287 288 35 
3 46 282 26 
3 257 75 76 
3 283 76 75 
3 289 290 78 
3 289 78 36 
3 291 289 36 
3 267 36 78 
3 29 52 292 
3 273 57 79 
3 79 293 273 
3 57 275 79 
3 275 30 79 
3 61 60 294 
3 295 61 294 
3 295 296 61 
3 64 63 80 
3 297 33 32 
3 298 297 32 
3 40 77 67 
3 286 67 77 
3 69 81 73 
3 82 50 47 
3 279 72 83 
3 252 84 34 
3 34 84 287 
3 75 85 283 
3 86 49 51 
3 290 299 78 
3 79 87 293 
3 23 88 300 
3 46 89 281 
3 36 301 291 
3 90 285 77 
3 91 82 47 
3 78 92 267 
3 93 53 58 
3 22 88 23 
3 41 94 0 
3 0 94 1 
3 4 5 302 
3 74 95 46 
3 96 28 97 
3 76 98 257 
3 99 36 268 
3 303 38 14 
3 30 100 79 
3 101 60 276 
3 33 304 263 
3 102 32 264 
3 7 28 96 
3 8 103 37 
3 305 75 266 
3 305 85 75 
3 271 104 52 
3 27 306 18 
3 307 308 277 
3 60 105 294 
3 309 21 106 
3 106 21 25 
3 107 310 67 
3 310 278 67 
3 98 311 257 
3 312 283 85 
3 61 307 277 
3 102 108 32 
3 252 109 84 
3 110 35 288 
3 55 52 104 
3 111 112 57 
3 275 57 112 
3 113 61 296 
3 114 65 66 
3 84 115 287 
3 42 45 313 
3 314 7 96 
3 78 116 92 
3 29 292 117 
3 315 117 292 
3 77 40 90 
3 118 67 286 
3 119 33 297 
3 67 118 107 
3 316 280 317 
3 1 94 120 
3 318 121 56 
3 80 319 64 
3 320 68 70 
3 280 83 72 
3 252 321 109 
3 46 95 89 
3 122 76 284 
3 91 123 82 
3 36 124 301 
3 274 125 57 
3 27 126 306 
3 32 108 298 
3 13 15 322 
3 125 111 57 
3 127 307 61 
3 69 128 81 
3 1 120 2 
3 129 130 35 
3 99 124 36 
3 56 121 323 
3 4 302 41 
3 41 302 324 
3 314 96 325 
3 117 259 29 
3 30 131 100 
3 112 326 275 
3 327 44 43 
3 117 132 259 
3 328 55 104 
3 79 100 87 
3 113 127 61 
3 313 45 329 
3 330 49 86 
3 331 93 58 
3 332 294 105 
3 333 320 70 
3 322 15 334 
3 335 265 59 
3 336 65 114 
3 133 33 119 
3 41 324 134 
3 134 324 135 
3 110 129 35 
3 136 110 137 
3 313 329 337 
3 337 329 138 
3 325 96 139 
3 140 139 141 
3 140 142 139 
3 96 97 139 
3 139 97 141 
3 98 76 122 
3 143 330 144 
3 330 86 144 
3 145 322 146 
3 145 146 147 
3 146 322 334 
3 93 331 148 
3 149 93 148 
3 150 151 152 
3 150 335 151 
3 151 335 59 
3 153 336 154 
3 336 114 154 
3 108 338 298 
3 155 156 157 
3 155 309 106 
3 155 106 156 
3 339 285 90 
3 158 320 333 
3 158 333 159 
3 129 340 130 
3 129 136 340 
3 26 341 254 
3 160 342 343 
3 103 161 37 
3 98 122 344 
3 345 162 315 
3 163 346 307 
3 164 102 347 
3 107 348 310 
3 160 95 342 
3 165 349 311 
3 117 166 132 
3 166 350 132 
3 163 113 351 
3 164 108 102 
3 39 167 40 
3 136 129 110 
3 89 160 352 
3 305 353 85 
3 165 311 98 
3 124 354 301 
3 168 99 355 
3 356 169 357 
3 170 149 148 
3 127 113 163 
3 108 164 338 
3 164 358 338 
3 282 171 26 
3 89 95 160 
3 172 341 26 
3 173 142 140 
3 165 98 344 
3 354 124 168 
3 99 168 124 
3 166 174 350 
3 166 117 162 
3 315 162 117 
3 359 87 100 
3 359 100 360 
3 131 360 100 
3 175 360 361 
3 163 307 127 
3 176 157 156 
3 88 177 300 
3 348 107 362 
3 118 362 107 
3 178 134 135 
3 178 135 179 
3 321 180 109 
3 115 84 109 
3 160 181 352 
3 363 78 299 
3 364 168 355 
3 365 147 146 
3 366 152 151 
3 182 157 176 
3 183 348 362 
3 158 159 184 
3 83 185 367 
3 178 41 134 
3 137 186 136 
3 187 346 163 
3 351 188 163 
3 319 80 368 
3 189 304 33 
3 128 190 81 
3 369 147 365 
3 370 162 345 
3 184 159 371 
3 185 83 280 
3 133 189 33 
3 182 155 157 
3 191 160 343 
3 91 192 123 
3 372 164 347 
3 373 167 39 
3 172 193 341 
3 374 191 343 
3 168 194 354 
3 116 195 92 
3 196 174 166 
3 196 166 162 
3 170 148 197 
3 375 280 316 
3 136 376 340 
3 377 337 138 
3 171 172 26 
3 140 141 198 
3 353 199 85 
3 85 378 312 
3 194 200 354 
3 303 379 38 
3 60 201 105 
3 163 188 187 
3 202 203 332 
3 202 332 105 
3 204 188 351 
3 380 153 154 
3 372 205 164 
3 206 168 364 
3 207 162 370 
3 208 185 280 
3 103 381 161 
3 360 209 359 
3 175 209 360 
3 164 205 210 
3 210 358 164 
3 183 382 348 
3 133 211 189 
3 167 90 40 
3 375 208 280 
3 212 376 136 
3 213 165 344 
3 162 207 196 
3 209 383 359 
3 80 215 368 
3 167 216 90 
3 217 378 85 
3 363 116 78 
3 218 174 196 
3 126 219 306 
3 220 366 151 
3 101 201 60 
3 105 201 202 
3 384 211 133 
3 221 304 189 
3 88 385 177 
3 222 382 183 
3 94 223 120 
3 224 199 353 
3 214 349 165 
3 271 225 104 
3 182 176 386 
3 226 115 109 
3 226 109 227 
3 186 212 136 
3 161 381 387 
3 199 217 85 
3 228 143 144 
3 80 388 215 
3 373 216 167 
3 109 180 227 
3 44 389 390 
3 229 173 140 
3 391 213 344 
3 379 392 38 
3 230 112 111 
3 231 208 375 
3 120 223 393 
3 181 160 191 
3 394 173 229 
3 381 232 387 
3 395 369 365 
3 233 111 125 
3 187 396 346 
3 211 221 189 
3 90 216 339 
3 397 183 362 
3 234 94 41 
3 178 234 41 
3 180 235 227 
3 235 212 227 
3 186 227 212 
3 327 389 44 
3 171 181 236 
3 171 236 172 
3 398 193 172 
3 236 398 172 
3 191 236 181 
3 229 140 198 
3 217 199 237 
3 213 217 237 
3 213 237 214 
3 228 144 399 
3 116 238 194 
3 195 116 194 
3 239 240 104 
3 239 196 240 
3 104 240 328 
3 240 196 207 
3 121 400 323 
3 111 383 209 
3 209 230 111 
3 201 241 202 
3 201 187 241 
3 241 187 188 
3 380 154 401 
3 211 210 242 
3 210 205 242 
3 211 242 221 
3 216 183 243 
3 216 243 339 
3 128 402 190 
3 235 376 212 
3 186 226 227 
3 403 214 237 
3 214 403 349 
3 206 194 168 
3 244 239 104 
3 207 245 240 
3 404 170 197 
3 405 187 201 
3 241 203 202 
3 204 241 188 
3 372 242 205 
3 246 183 216 
3 234 223 94 
3 377 138 406 
3 224 237 199 
3 247 200 194 
3 363 238 116 
3 407 395 365 
3 225 244 104 
3 239 218 196 
3 233 383 111 
3 326 112 230 
3 405 201 101 
3 204 203 241 
3 372 221 242 
3 397 243 183 
3 191 398 236 
3 248 378 217 
3 248 217 213 
3 391 248 213 
3 228 399 408 
3 206 195 194 
3 245 328 240 
3 409 404 197 
3 175 230 209 
3 384 249 211 
3 249 210 211 
3 373 246 216 
3 246 222 183 
3 397 339 243 
3 234 178 179 
3 223 234 410 
3 223 410 393 
3 234 179 410 
3 389 377 406 
3 389 406 390 
3 394 229 198 
3 232 394 387 
3 394 198 387 
3 224 403 237 
3 192 411 123 
3 411 412 123 
3 412 411 228 
3 228 408 412 
3 247 194 238 
3 379 395 250 
3 395 407 250 
3 379 250 392 
3 225 413 244 
3 218 239 413 
3 244 413 239 
3 121 409 197 
3 121 197 400 
3 126 414 219 
3 414 366 415 
3 366 220 415 
3 219 414 415 
3 215 388 416 
3 388 380 416 
3 380 401 416 
3 385 182 417 
3 385 417 177 
3 417 182 386 
3 184 418 402 
3 184 402 128 
3 184 371 418 
3 32 33 263 
3 272 318 56 
3 213 214 165 
