ply
format ascii 1.0
comment INFO-3111 Flatenator generated
comment TextureFile Dungeons_Texture_01.png
element vertex 265
property float x
property float y
property float z
property float nx
property float ny
property float nz
element face 390
property list uchar int vertex_indices
end_header
4.99784 0.042764 4.99794 0.470372 0.770017 0.431073 
4.08051 0.034159 4.99231 -0.00250684 0.838562 0.544801 
4.35395 0.000234 5 -0.00236489 -0.467886 0.883786 
1.40822 0.036479 4.99507 -0.0144136 0.709352 0.704707 
1.26801 0.000234 5 -0.00368428 -0.416611 0.909077 
2.08832 0.000234 5 -0.000697956 -0.673963 0.738765 
3.10395 0.044874 4.97973 0.0079699 0.853423 0.521159 
2.61567 0.042814 4.9977 0.0027444 0.854293 0.519784 
3.35785 0.000234 5 0.00542957 -0.210424 0.977595 
5 -1e-06 5 0.421912 -0.802508 0.421866 
0.954939 0.019669 4.9927 -0.0015559 0.680068 0.733147 
0.68207 0.032654 4.98558 0.0157752 0.829437 0.558378 
0.01272 0.034669 4.99049 -0.265961 0.871033 0.412996 
0.603949 0.000234 5 0.0010961 -0.568558 0.822642 
0 -1e-06 5 -0.66974 -0.27902 0.688183 
0.7404 0.033294 4.91162 -0.000842038 0.983335 0.181802 
0 -1e-06 3.0845 -0.408201 -0.912891 -0.00109182 
4.52973 -0.000611 3.92435 0.000115699 -1 0.000378316 
4.8778 0.030159 4.84186 0.0797943 0.996291 -0.0322108 
4.76189 0.045504 4.84111 0.147177 0.980634 0.129215 
1.4827 0.045519 4.84109 0.00479657 0.926933 0.375197 
3.27958 0.045519 4.84109 -0.0015064 0.963046 0.269333 
2.49848 0.040204 4.87268 -0.00038108 0.985194 0.171441 
3.72972 0.045519 4.84109 0.00228517 0.908562 0.417744 
0 -1e-06 4.76419 -0.98004 0.197142 -0.0256362 
0.140419 0.050474 4.82081 -0.424506 0.830568 0.360486 
2.87917 0.098839 4.78045 -0.00305591 0.776839 0.629692 
2.40779 0.100399 4.76527 -0.0143015 0.729079 0.68428 
2.13549 0.071689 4.79017 -0.00567763 0.8211 0.570756 
3.4701 0.100689 4.74788 0.00662205 0.868509 0.495628 
4.18506 0.069349 4.81096 0.00590788 0.880539 0.473936 
4.62406 0.089484 4.6862 0.0970441 0.985664 0.138018 
0.33753 0.100009 4.81947 0.00377636 0.478649 0.877998 
0.139299 0.100064 4.81947 -0.636852 0.644982 0.422394 
0.61215 0.072174 4.81725 -0.00477711 0.678394 0.734683 
0.992119 0.093159 4.80496 0.0121737 0.680783 0.732384 
1.86268 0.092144 4.76596 0.0102254 0.771028 0.63672 
0 -1e-06 4.45169 -0.90866 -0.417423 0.00979985 
0.16379 0.084234 4.70816 -0.737132 0.66157 -0.137704 
0.429399 0.095074 4.60112 -0.032896 0.999007 0.0300612 
0.93725 0.096759 4.566 0.00324453 0.99999 0.00305554 
1.75383 0.081939 3.83912 -0.00280622 0.999996 -3.07135e-06 
4.37348 -0.000611 3.29935 -2.90208e-05 -1 2.28045e-05 
4.73491 0.083039 4.58431 0.372026 0.927027 0.0470976 
4.78271 0.050709 4.38522 0.474424 0.8802 0.0130478 
5 -1e-06 4.11966 0.726185 -0.6875 0.000324425 
0.0107 0.035594 4.29583 -0.508451 0.860881 0.0190334 
4.69323 0.100019 4.22099 0.0059054 0.999905 0.0124374 
0.14543 0.069429 4.47618 -0.476558 0.878418 0.0357048 
0.285149 0.093544 4.45726 -0.106413 0.992537 0.0595499 
0.16699 0.083829 4.23786 -0.164031 0.985442 0.0447041 
0.211079 0.100734 4.00265 -0.0355936 0.999283 0.012918 
4.99761 0.042814 3.47513 0.551573 0.833974 -0.0159403 
4.80077 0.040814 3.61062 0.322733 0.946483 -0.00370758 
0.137089 0.054484 3.98439 -0.447342 0.894343 -0.00604167 
4.42205 0.100804 3.27577 -0.00463639 0.999987 -0.00192776 
3.40541 0.095554 4.36607 -0.00930855 0.999951 -0.00330642 
4.76692 0.077749 3.87512 0.619456 0.785015 0.00509985 
4.74457 -0.000611 3.82669 0.000727175 -1 3.23363e-05 
5 -1e-06 3.61185 0.616719 -0.787183 -0.000127023 
-0.00065 0.042814 3.86575 -0.673369 0.739287 0.00530606 
0.144569 0.095209 3.36944 -0.69396 0.719987 0.00626549 
1.93207 -0.00061 1.50247 -0.000131744 -1 -7.56082e-05 
2.67019 0.080539 2.06221 -0.00835518 0.999803 0.017977 
4.76056 0.066599 3.4399 0.418212 0.907797 0.0316745 
4.60785 -0.000611 3.72904 0 -1 0 
4.62738 -0.000611 3.74857 0 -1 0 
0.265419 0.100805 3.00318 -0.130753 0.991343 -0.0119677 
0.11698 0.04554 2.71329 -0.450283 0.892842 -0.00887212 
4.62738 -0.000611 3.72904 0 -1 0 
4.52973 -0.000611 3.61185 0.000370606 -1 -8.82418e-05 
4.58266 0.080939 3.4404 0.11963 0.992814 0.00308781 
0.008459 0.030895 2.63534 -0.668429 0.743774 -0.00157785 
4.87096 0.033794 3.47513 0.0624366 0.998045 -0.00264486 
4.74414 0.100804 3.13361 0.0801886 0.991087 0.106379 
4.99761 0.042815 3.00638 0.540438 0.841325 -0.00999818 
0.15815 0.08565 3.02171 -0.143338 0.989461 -0.0205274 
4.74457 -0.000611 3.20169 0.000624445 -1 -2.17322e-06 
4.87489 0.031669 3.10445 0.262036 0.965056 0.00214737 
4.60785 -0.000611 3.10404 -1.14286e-06 -1 -3.50472e-06 
4.62738 -0.000611 3.12357 0 -1 0 
4.74988 0.089605 2.48208 0.0355419 0.999363 -0.00315389 
5 0 2.53763 0.622481 -0.782628 -0.00341435 
3.60529 0.100685 2.40354 -0.0448673 0.998869 0.015733 
4.62738 -0.000611 3.10404 5.8156e-06 -1 -9.11254e-06 
4.52973 -0.00061 2.98685 0.000468437 -1 9.29234e-05 
3.42344 0.100805 2.54884 -0.0322423 0.997561 -0.0619103 
4.93987 0.04495 2.5181 0.0886151 0.996065 0.00120663 
4.80025 0.04417 2.5173 0.343048 0.939206 -0.014463 
4.74457 -0.00061 2.57669 0.000777899 -1 -0.000118595 
0 0 2.40091 -0.919708 -0.392602 0.00042117 
4.98139 0.033305 2.47904 0.62236 0.782682 -0.0087776 
4.37348 -0.00061 2.67435 7.74201e-07 -1 -5.33337e-07 
3.49633 0.08619 2.40471 -0.0771611 0.996966 0.0102888 
3.76801 -0.00061 2.12747 1.63425e-07 -1 -2.39588e-07 
4.58546 0.100805 2.02182 0.0057817 0.999956 -0.00738653 
4.60785 -0.00061 2.47904 0 -1 0 
4.62738 -0.00061 2.49857 0 -1 0 
0.283569 0.100805 2.1491 -0.0853595 0.995959 0.0279365 
0.11734 0.045355 2.22474 -0.407623 0.913037 0.0143645 
0.1588 0.07732 2.00375 -0.160998 0.986937 -0.00601622 
4.62738 -0.00061 2.47904 0 -1 0 
4.77176 0.088865 1.96738 0.0643379 0.997927 0.00129984 
4.52973 -0.00061 2.36185 0.000450872 -1 -0.000214739 
4.98707 0.03719 2.04935 0.529993 0.847989 0.00461958 
0.009359 0.037475 2.02982 -0.677227 0.735772 0.00155072 
0.404533 0.128659 1.87673 -0.0862233 0.996248 0.00739149 
4.74457 -0.00061 1.95169 0.000619789 -1 -4.2499e-05 
4.37348 -0.00061 2.04935 0 -1 0 
5 0 1.50247 0.553472 -0.832868 0.000436824 
0 0 1.8931 -0.983427 -0.181286 0.00277776 
0.163229 0.08147 1.87743 -0.448903 0.893525 -0.00996252 
0.0145 0.0295 1.81475 -0.525619 0.850503 -0.0192293 
4.60785 -0.00061 1.85404 0 -1 0 
4.62738 -0.00061 1.87357 0 -1 0 
4.62738 -0.00061 1.85404 0 -1 0 
4.52973 -0.00061 1.73685 0.000374434 -1 7.68231e-06 
0 0 0.799347 -0.615441 -0.788181 0.00149254 
0.081079 0.03302 1.61987 -0.18129 0.983405 -0.00696428 
4.65869 0.085495 1.00523 0.0281037 0.9996 -0.00303898 
0.00639 0.036945 1.5806 -0.610073 0.791858 0.0277732 
0.244549 0.100435 1.66957 -0.191808 0.981331 0.0140776 
4.80228 0.04545 1.09263 0.555533 0.83149 -0.00272414 
0.169857 0.09023 1.35905 -0.116233 0.993222 -0.000563971 
2.71503 0.073648 1.18593 -0.00237229 0.999851 0.0171273 
4.74457 -0.00061 1.32669 0.0015689 -0.999998 -0.00112309 
2.90864 -0.00061 1.42435 0 -1 0 
3.2016 -0.00061 1.22904 1.68838e-05 -1 -0.000112804 
4.37348 -0.00061 1.42435 0 -1 0 
4.78328 0.100045 0.967777 -0.113057 0.993539 0.00988231 
0.13702 0.05455 1.03726 -0.34665 0.937993 0.00192913 
4.99761 0.042815 0.896999 0.66962 0.742703 0.0015523 
2.85004 -0.00061 1.18997 -6.74577e-06 -1 -0.00019015 
2.98676 -0.00061 1.30716 0 -1 0 
3.00629 -0.00061 1.30716 0 -1 0 
3.38747 0.100805 0.459 -0.0135736 0.999428 -0.0309878 
3.00629 -0.00061 1.28763 0 -1 0 
4.60785 -0.00061 1.22904 0 -1 0 
4.62738 -0.00061 1.24857 0 -1 0 
-0.00065 0.042815 0.584499 -0.438691 0.898599 -0.00831666 
4.62738 -0.00061 1.22904 0 -1 0 
4.52973 -0.00061 1.11185 0.00148414 -0.999998 -0.00137132 
2.0073 0.09416 0.42329 -0.000157138 0.999981 -0.00616674 
3.16936 0.100805 0.440868 0.0491277 0.996958 -0.0605135 
2.94184 0.100805 0.331818 0.00265557 0.999515 -0.0310359 
0.16947 0.07506 0.65934 -0.652593 0.757283 0.0254004 
0.82807 0.100805 0.313698 -0.0223146 0.999567 -0.0191996 
2.09871 0.09656 0.313709 -0.0850212 0.996195 0.0191282 
5 0 0 0.702945 -0.671528 -0.234346 
0.065119 0.03991 0.486839 -0.130976 0.991386 -3.98888e-05 
0.230268 0.0965 0.658939 -0.198996 0.979451 0.032812 
4.77781 0.038265 0.185078 0.310578 0.936727 -0.161503 
4.99761 0.042815 0.271999 0.53533 0.843835 -0.0369393 
4.692 0.096825 0.252758 0.00333721 0.999993 0.00181113 
0 0 0 -0.583287 0.613325 -0.532548 
0.139309 0.10001 0.404518 -0.128845 0.989865 0.0597202 
0.11751 0.04528 0.212708 -0.224729 0.973002 -0.0525791 
3.95282 0.096845 0.178188 0.0125594 0.999859 0.0111855 
0.290783 0.087295 0.336891 0.0257987 0.999535 -0.0162333 
1.30022 0.09086 0.172318 -0.00308518 0.999928 0.0116193 
3.22223 0.061045 0.219028 0.043003 0.99038 -0.131521 
2.00797 0.08253 0.210659 -0.153088 0.987153 0.0457561 
3.09911 0.08796 0.217293 0.0629612 0.994782 -0.0802757 
3.44674 0.08398 0.221458 -0.0798949 0.99271 -0.0902477 
3.72483 0.100775 0.22295 -0.0178987 0.999509 -0.0257077 
1.6988 0.1001 0.206757 0.0141801 0.999873 0.00722619 
2.02564 0.095365 0.194038 -0.208555 0.970909 0.117647 
2.28364 -0.000175 0 -0.000504056 -0.554674 -0.832067 
3.06488 -0.000175 0 -2.98505e-06 -0.562154 -0.827032 
4.04145 -0.000175 0 -1.49069e-05 -0.712964 -0.7012 
0.79311 0.072475 0.20546 0.00125588 0.967312 -0.253588 
0.519539 0.091025 0.217678 0.0137569 0.98934 -0.144972 
0.19368 0.04535 0.15535 -0.0273473 0.970635 -0.238997 
2.20567 0.046245 0.19487 -0.0235076 0.643995 -0.764668 
3.8419 0.049935 0.172729 -0.0300036 0.737461 -0.674723 
1.28613 0.03538 0.159508 0.0121263 0.823603 -0.567037 
2.63435 0.035315 0.159698 -0.00175634 0.899821 -0.436257 
3.11585 0.044155 0.18018 0.017131 0.95737 -0.288356 
4.71078 0.056775 0.18882 0.094017 0.844567 -0.527131 
3.67149 0.03953 0.143539 -0.00904171 0.955369 -0.295276 
0.09614 0.04425 0.077679 -0.0873434 0.989177 -0.117897 
1.87503 0.036475 0.152828 0.0151964 0.952511 -0.304124 
4.08052 0.03692 0.129898 0.00390975 0.994421 -0.105411 
1.58096 0.0206 0.123707 0.000311356 0.997943 -0.0641117 
2.51839 0.02385 0.096748 -0.00417439 0.999481 -0.0319544 
4.70511 0.0285 0.096497 0.0503028 0.993267 -0.104361 
1.18989 0.042845 -0.000622 0.00683681 0.6941 -0.719846 
3.70942 0.042815 -0.000572 0.00344074 0.805369 -0.592764 
0.66341 0.038385 0.035347 -0.0134421 0.929947 -0.367447 
1.75629 0.032645 0.02351 0.0589595 0.974684 -0.215674 
2.69379 0.042815 -0.000561 -0.0128263 0.736513 -0.676301 
4.99798 0.04283 -0.000942 0.271767 0.831879 -0.48386 
1.87348 -0.000175 0 0.0411605 -0.128385 -0.99087 
2.18598 0.0421 0.000359 -0.0297789 0.834573 -0.550093 
0.77973 -0.000175 0 -0.0228145 -0.288268 -0.957278 
1.20942 -0.000175 0 -7.02526e-05 -0.83449 -0.551024 
1.42426 -0.000175 0 0 -0.712098 -0.70208 
4.62406 0.089484 4.6862 0.0219503 0.971962 0.234112 
3.4701 0.100689 4.74788 0.0219503 0.971962 0.234112 
4.18506 0.069349 4.81096 0.0219503 0.971962 0.234112 
0.61215 0.072174 4.81725 0.0257098 0.99615 0.0838081 
0.33753 0.100009 4.81947 0.0206017 0.999691 -0.0139264 
0.992119 0.093159 4.80496 0.0018219 0.999891 0.0146453 
1.86268 0.092144 4.76596 -0.00192493 0.999996 -0.00216055 
2.40779 0.100399 4.76527 -0.00555583 0.999856 -0.0160061 
2.87917 0.098839 4.78045 8.8499e-05 0.999837 -0.0180562 
3.4701 0.100689 4.74788 -0.00256155 0.999994 -0.00236772 
0.992119 0.093159 4.80496 -0.0260903 0.996341 0.0813858 
0.16379 0.084234 4.70816 -0.062084 0.996656 -0.0531248 
0.93725 0.096759 4.566 -0.0030155 0.999986 0.00437204 
4.62406 0.089484 4.6862 0.0110039 0.999645 0.0242735 
4.69323 0.100019 4.22099 0.350488 0.936398 0.0178005 
0.14543 0.069429 4.47618 -0.126622 0.991051 0.0422415 
0.16699 0.083829 4.23786 -0.378011 0.925444 -0.0256998 
0.285149 0.093544 4.45726 -0.0830533 0.996115 0.029286 
0.16699 0.083829 4.23786 -0.157845 0.986599 0.0413213 
0.211079 0.100734 4.00265 -0.531134 0.847266 0.00616375 
4.76692 0.077749 3.87512 0.165075 0.984626 -0.0571094 
4.42205 0.100804 3.27577 0.0821796 0.996584 -0.00821195 
4.69323 0.100019 4.22099 0.12927 0.990946 -0.0362641 
0.144569 0.095209 3.36944 -0.100354 0.994791 -0.0179132 
0.211079 0.100734 4.00265 -0.0550987 0.998477 -0.00292473 
4.76056 0.066599 3.4399 0.0803949 0.995963 0.0399283 
4.58266 0.080939 3.4404 0.0803949 0.995963 0.0399283 
4.76692 0.077749 3.87512 0.0802442 0.996418 -0.0267 
0.265419 0.100805 3.00318 0.0123924 0.999923 0.000501879 
4.74414 0.100804 3.13361 0.0147505 0.999333 0.0334191 
0.15815 0.08565 3.02171 -0.615646 0.787837 -0.0171047 
4.74414 0.100804 3.13361 0.472519 0.880793 0.0304977 
4.74988 0.089605 2.48208 0.586948 0.808502 -0.0426292 
4.58546 0.100805 2.02182 0.0570936 0.998361 0.00389832 
0.283569 0.100805 2.1491 -0.180657 0.983539 -0.00383913 
0.1588 0.07732 2.00375 -0.612196 0.790706 -0.000482924 
4.77176 0.088865 1.96738 0.659112 0.751562 0.0269341 
4.74988 0.089605 2.48208 0.659112 0.751562 0.0269341 
4.80025 0.04417 2.5173 0.659112 0.751562 0.0269341 
0.1588 0.07732 2.00375 -0.195158 0.980592 0.0187837 
0.163229 0.08147 1.87743 -0.192132 0.981203 0.0180325 
4.77176 0.088865 1.96738 0.0608568 0.99809 -0.0106478 
4.77176 0.088865 1.96738 0.888844 0.458135 0.00827486 
4.65869 0.085495 1.00523 -0.113057 0.993539 0.00988231 
4.77176 0.088865 1.96738 -0.113079 0.993538 0.00980902 
4.78328 0.100045 0.967777 0.852935 0.521176 -0.0296125 
0.169857 0.09023 1.35905 -0.703173 0.710984 -0.00707868 
0.16947 0.07506 0.65934 -0.331737 0.941751 0.0552845 
0.169857 0.09023 1.35905 -0.332621 0.942843 -0.0202574 
0.230268 0.0965 0.658939 -0.0143571 0.99982 -0.0123927 
4.692 0.096825 0.252758 -0.113035 0.993541 0.00995559 
4.692 0.096825 0.252758 0.272914 0.888255 -0.369487 
0.290783 0.087295 0.336891 -0.0890498 0.975574 -0.200812 
0.139309 0.10001 0.404518 -0.731718 0.672863 -0.108832 
0.290783 0.087295 0.336891 -0.02657 0.999084 -0.0335492 
0.82807 0.100805 0.313698 -0.00786507 0.984312 -0.176264 
1.30022 0.09086 0.172318 -0.0506925 0.970057 -0.237528 
0.79311 0.072475 0.20546 -0.0143932 0.638337 -0.769623 
0.519539 0.091025 0.217678 -0.0434264 0.900436 -0.432815 
2.02564 0.095365 0.194038 -0.0871411 -0.33527 -0.938083 
3.09911 0.08796 0.217293 0.0464669 0.588716 -0.807003 
3.44674 0.08398 0.221458 -0.0287086 0.783074 -0.621265 
3.72483 0.100775 0.22295 -0.0991085 0.574425 -0.812535 
1.30022 0.09086 0.172318 0.00377639 0.224063 -0.974567 
1.6988 0.1001 0.206757 0.058104 0.319901 -0.945668 
2.00797 0.08253 0.210659 -0.0260536 0.388384 -0.921129 
3.22223 0.061045 0.219028 0.0238943 0.808105 -0.588554 
3.95282 0.096845 0.178188 -0.0327911 0.509133 -0.860063 
3 0 1 2
3 3 4 5
3 6 7 8
3 1 6 8
3 1 8 2
3 9 0 2
3 3 10 4
3 7 3 5
3 11 12 13
3 10 11 13
3 10 13 4
3 7 5 8
3 12 14 13
3 15 12 11
3 15 11 10
3 16 4 13
3 5 17 8
3 17 2 8
3 18 19 0
3 17 9 2
3 15 10 3
3 20 3 7
3 6 21 7
3 1 21 6
3 22 20 7
3 23 21 1
3 12 24 14
3 4 16 5
3 20 15 3
3 21 22 7
3 24 13 14
3 16 17 5
3 25 12 15
3 19 1 0
3 19 23 1
3 26 27 28
3 29 23 30
3 19 31 30
3 32 33 25
3 34 32 25
3 35 34 20
3 36 35 20
3 21 26 28
3 36 20 28
3 25 15 34
3 15 20 34
3 22 28 20
3 22 21 28
3 23 19 30
3 24 12 25
3 23 26 21
3 24 37 13
3 37 16 13
3 38 33 32
3 27 36 28
3 29 26 23
3 197 198 199
3 200 39 201
3 40 202 203
3 41 204 205
3 206 41 205
3 33 38 25
3 207 39 200
3 39 208 201
3 41 203 204
3 42 17 16
3 207 209 39
3 43 19 44
3 17 45 9
3 43 31 19
3 25 46 24
3 47 206 210
3 38 48 25
3 43 211 31
3 18 44 19
3 46 37 24
3 212 208 39
3 209 49 39
3 49 212 39
3 44 211 43
3 41 40 203
3 49 50 212
3 46 25 48
3 46 48 213
3 40 51 214
3 52 18 0
3 45 0 9
3 53 44 18
3 54 46 213
3 51 215 214
3 52 53 18
3 55 56 206
3 47 55 206
3 57 211 44
3 53 57 44
3 52 0 45
3 216 54 213
3 17 58 45
3 58 59 45
3 41 51 40
3 56 41 206
3 217 218 219
3 54 60 46
3 46 60 37
3 52 45 59
3 216 61 54
3 62 42 16
3 63 41 56
3 64 57 53
3 65 66 17
3 66 58 17
3 67 220 221
3 61 68 54
3 65 69 66
3 69 58 66
3 60 54 68
3 70 69 65
3 70 58 69
3 60 16 37
3 70 17 42
3 70 65 17
3 71 218 217
3 222 223 224
3 60 72 16
3 70 59 58
3 60 68 72
3 73 53 52
3 73 64 53
3 41 225 51
3 222 74 223
3 226 218 71
3 52 75 73
3 67 76 220
3 61 227 68
3 77 59 70
3 75 78 73
3 78 64 73
3 42 77 70
3 64 78 228
3 79 80 42
3 80 77 42
3 218 226 81
3 78 229 228
3 77 82 59
3 83 56 55
3 79 84 80
3 84 77 80
3 85 84 79
3 85 77 84
3 75 52 59
3 85 79 42
3 75 59 82
3 83 86 56
3 85 82 77
3 87 88 78
3 75 87 78
3 86 63 56
3 88 229 78
3 85 89 82
3 72 90 16
3 91 75 82
3 42 92 85
3 93 86 83
3 94 92 42
3 91 87 75
3 55 95 83
3 230 218 81
3 92 89 85
3 96 97 92
3 97 89 92
3 41 98 225
3 99 72 68
3 99 68 227
3 100 76 67
3 96 101 97
3 101 89 97
3 102 230 81
3 94 96 92
3 103 101 96
3 103 89 101
3 231 100 67
3 104 91 82
3 103 96 94
3 99 227 232
3 104 87 91
3 93 63 86
3 104 88 87
3 62 94 42
3 103 82 89
3 72 105 90
3 105 72 99
3 63 106 41
3 83 63 93
3 103 107 82
3 233 234 235
3 108 103 94
3 106 98 41
3 107 109 82
3 105 110 90
3 104 82 109
3 106 236 98
3 232 111 99
3 105 99 111
3 90 62 16
3 106 237 236
3 112 105 111
3 105 112 110
3 110 62 90
3 108 107 103
3 95 63 83
3 113 114 108
3 114 107 108
3 113 115 114
3 115 107 114
3 94 113 108
3 116 115 113
3 116 107 115
3 117 62 110
3 116 113 94
3 118 112 111
3 119 95 238
3 118 120 112
3 121 237 106
3 116 109 107
3 88 122 239
3 112 120 110
3 121 123 237
3 124 63 95
3 104 122 88
3 120 117 110
3 116 125 109
3 126 127 94
3 128 116 94
3 62 126 94
3 129 240 241
3 130 120 118
3 127 128 94
3 131 122 104
3 131 104 109
3 132 133 126
3 130 118 111
3 132 126 62
3 242 239 122
3 243 130 111
3 133 134 126
3 134 127 126
3 128 125 116
3 106 123 121
3 119 135 95
3 132 136 133
3 136 134 133
3 136 127 134
3 132 127 136
3 137 138 128
3 138 125 128
3 120 139 117
3 137 140 138
3 140 125 138
3 139 120 130
3 127 137 128
3 141 140 137
3 141 125 140
3 141 137 127
3 142 63 124
3 135 124 95
3 143 144 124
3 243 145 130
3 141 109 125
3 146 123 106
3 142 106 63
3 147 142 124
3 148 131 109
3 149 139 130
3 150 244 245
3 146 246 123
3 141 148 109
3 124 135 143
3 144 147 124
3 149 130 145
3 151 122 131
3 152 131 148
3 127 148 141
3 153 135 119
3 139 154 117
3 247 240 129
3 242 122 151
3 152 151 131
3 248 242 151
3 150 155 244
3 149 145 156
3 153 157 135
3 158 155 150
3 142 159 106
3 160 143 135
3 147 161 142
3 162 144 143
3 162 147 144
3 163 160 135
3 164 163 135
3 156 139 149
3 249 156 250
3 146 251 246
3 159 146 106
3 165 159 142
3 161 165 142
3 147 166 161
3 250 156 145
3 167 168 132
3 168 169 132
3 170 171 252
3 162 166 147
3 160 162 143
3 171 158 252
3 170 252 253
3 157 164 135
3 254 172 255
3 256 257 173
3 258 259 174
3 156 249 172
3 260 261 175
3 261 262 175
3 256 173 262
3 257 176 173
3 257 263 177
3 264 174 259
3 264 178 174
3 264 248 178
3 248 151 178
3 172 249 255
3 254 175 172
3 254 260 175
3 258 179 263
3 258 174 179
3 156 180 139
3 181 175 262
3 181 262 173
3 177 176 257
3 179 177 263
3 178 182 174
3 172 180 156
3 183 175 181
3 184 181 173
3 184 173 176
3 182 179 174
3 185 182 178
3 151 185 178
3 180 154 139
3 183 186 175
3 177 184 176
3 187 177 179
3 185 151 152
3 175 188 172
3 189 183 181
3 187 190 177
3 187 179 182
3 191 185 152
3 188 180 172
3 189 186 183
3 192 189 181
3 193 192 181
3 193 181 184
3 190 184 177
3 191 187 182
3 191 182 185
3 167 192 193
3 190 193 184
3 194 117 154
3 194 195 117
3 195 62 117
3 195 196 62
3 196 192 62
3 192 132 62
3 192 167 132
3 169 127 132
3 169 148 127
3 188 154 180
3 186 188 175
3 191 152 148
3 186 189 192
3 188 186 194
3 186 195 194
3 186 196 195
3 186 192 196
3 193 190 167
3 167 190 168
3 190 187 168
3 187 169 168
3 187 191 169
3 188 194 154
3 191 148 169
