ply
format ascii 1.0
comment INFO-3111 Flatenator generated
comment TextureFile Dungeons_Texture_01.png
element vertex 472
property float x
property float y
property float z
element face 698
property list uchar int vertex_indices
end_header
-0.002537 0.042603 4.99806 
0 -1e-06 5 
0.739155 0.042588 4.99769 
1.07026 0.044899 4.92002 
1.2471 0.034585 4.98494 
1.20791 -1e-06 5 
1.36416 0.042586 4.99767 
2.06728 0.042588 4.99769 
2.77041 0.042587 4.99769 
2.47744 -1e-06 5 
3.78603 0.042529 4.99761 
3.25869 -1e-06 5 
4.72348 0.035237 4.99781 
4.21572 0.034956 4.99142 
4.19619 -1e-06 5 
5 -1e-06 5 
4.99634 0.042536 4.99792 
4.83963 0.044754 4.84124 
1.38364 0.039936 4.88795 
2.41372 0.05421 4.85438 
3.92279 0.040105 4.93358 
4.74306 -0.000842 3.0259 
1.77423 0.040608 4.89134 
3.06347 0.03737 4.90652 
0.387592 -0.000842 2.04934 
4.66169 0.054234 4.85441 
0.391357 0.041511 4.82255 
0 -1e-06 4.62742 
0.039532 0.043153 4.84213 
1.06516 0.100313 4.90077 
0.468456 0.083179 4.83474 
1.48142 0.097982 4.75295 
1.35677 0.054165 4.82221 
1.85149 0.098312 4.81537 
2.74722 0.100546 4.80133 
2.24096 0.10058 4.80091 
1.98891 0.058719 4.84733 
3.73104 0.094686 4.84341 
3.29656 0.095728 4.84044 
3.39434 0.0542 4.8544 
4.17318 0.090642 4.83804 
3.80446 0.10058 4.78148 
4.68691 0.095537 4.70595 
3.00055 0.086201 4.84146 
1.41721 0.100313 4.45422 
4.81686 0.078534 4.76864 
1.14877 0.045171 4.54804 
0.098164 0.042477 4.66521 
2.25602 0.10058 3.55024 
2.55376 0.100148 2.35986 
0.447968 0.100041 4.70503 
0.456581 0.056976 4.70591 
1.17994 0.100028 4.28843 
0.367134 0.030938 4.7275 
0.027596 0.031308 4.48926 
1.385 0.045342 4.49229 
4.99611 0.042587 4.25636 
0.250557 0.050508 4.66642 
0.258823 0.100087 4.62325 
0.170364 0.100491 4.64858 
1.20517 0.046532 4.21767 
4.66338 0.10058 3.5503 
0.130589 0.095389 4.11515 
0.525845 0.046454 4.21846 
0.620014 0.10058 4.04133 
4.8083 0.093775 4.05958 
4.84 0.04518 4.14026 
0.376965 0.100183 4.09722 
1.49574 0.100025 4.05907 
0.095058 0.045036 3.98259 
0.391403 0.054311 4.0432 
0.018734 0.028786 4.10027 
5 -1e-06 3.29933 
1.48294 0.045348 4.00216 
4.8866 0.033851 4.06153 
0 -1e-06 3.57277 
1.30572 0.044725 3.86593 
1.25193 0.093675 3.90248 
0.642609 0.046366 3.57369 
1.62405 0.095623 3.66938 
0.465244 0.045108 3.78583 
0.604576 0.074211 3.82402 
4.81082 0.062387 3.74896 
0.448559 0.100268 3.76315 
1.28482 0.054091 3.73171 
0.700203 0.093524 3.71043 
1.60029 0.046197 3.49745 
4.8398 0.044443 3.49382 
0.971462 0.099928 3.70471 
4.99611 0.042587 3.39699 
1.26541 0.10058 3.74847 
4.81886 0.099442 3.45722 
1.32047 0.053433 3.53752 
0.001835 0.029936 3.02607 
0.166786 0.10058 3.60921 
1.563 0.034067 3.39958 
1.31719 0.099839 3.55158 
0.249794 0.100185 3.07883 
0.094982 0.04501 3.45444 
0.709751 0.086603 3.33473 
0.132233 0.074761 3.1576 
1.75553 0.100341 3.37292 
0.579918 0.046515 3.26065 
1.40163 0.050235 3.41641 
1.05066 0.045367 3.41763 
0.699337 0.041962 3.28138 
0.129951 0.095449 3.14227 
1.57764 0.045967 3.16234 
1.36246 0.100004 3.39402 
1.10632 0.0542 3.28791 
1.73571 0.043935 3.28008 
2.14304 0.100383 2.81038 
0.785057 0.100221 3.11923 
4.84001 0.045173 3.02628 
0.557594 0.10058 3.08122 
4.77794 0.099048 3.17964 
4.99611 0.042588 2.77199 
0.084366 0.036254 3.06919 
0.779346 0.051325 3.13633 
1.70796 0.089393 2.94798 
1.46027 0.100581 3.0038 
0.580841 0.044726 3.06452 
1.91202 0.046001 3.04526 
0 0 2.98683 
1.90948 0.074387 3.05789 
1.80477 0.036069 2.94206 
4.67097 0.100581 2.10947 
0.368168 0.045066 2.96605 
0.137482 0.035603 3.00222 
0.002571 0.022007 2.7134 
5 0 2.47902 
2.39665 0.100581 2.57387 
0.233299 0.100538 2.94504 
0.151287 0.100581 2.88861 
0.701836 0.100423 2.94283 
4.81101 0.096422 2.86627 
1.92738 0.046358 2.63639 
0.874115 0.04609 2.6949 
1.01372 0.046084 2.77242 
1.31 0.100105 2.3574 
0.120712 0.055407 2.5969 
4.84 0.045179 2.63485 
1.82476 0.097682 2.66751 
0 0 2.36183 
4.95798 -0.000842 2.4009 
4.77625 0.098424 2.51503 
0.096134 0.044728 2.30411 
2.20521 0.046287 2.59767 
2.15483 0.036301 2.39417 
0.211586 0.099843 2.26304 
2.06567 0.045409 2.43989 
0.872345 0.100581 2.24163 
0.90728 0.096953 2.56924 
2.12138 0.079969 2.31436 
2.77087 0.09981 2.16792 
0.120071 0.095416 2.39924 
1.3057 0.044701 2.32312 
2.10093 0.100547 2.20731 
2.39981 0.078619 2.49418 
-0.003021 0.01556 2.10793 
2.38004 0.044702 2.34243 
0.14249 0.068437 2.19646 
1.12822 0.046185 2.30271 
2.14381 0.047834 2.2439 
1.08152 0.075547 2.28377 
5 0 2.04933 
4.80785 0.062562 1.81417 
4.81109 0.093328 2.22343 
2.61439 0.044701 2.18613 
0 0 1.99074 
2.31822 0.052954 2.1435 
2.22066 0.040628 2.1468 
0.323334 0.088103 2.16615 
0.460037 0.100452 2.04606 
1.22655 0.100411 2.02566 
4.88277 0.034791 1.7759 
4.95798 -0.000842 1.7759 
1.5596 0.044701 1.95201 
3.00391 0.045861 1.95254 
1.49968 0.045225 1.73704 
2.37206 0.100228 2.10239 
2.22458 0.099303 2.13926 
2.67228 0.046124 1.91137 
2.49697 -0.000842 1.40481 
1.47534 0.100472 1.57852 
0.256935 0.099812 1.91109 
1.67643 0.045034 1.79645 
0.449089 0.100313 1.57847 
1.67511 0.100372 1.82382 
3.45144 0.100581 1.77457 
0.097023 0.043985 1.89364 
1.75551 0.044889 1.69811 
3.04156 0.037009 1.77237 
4.99611 0.042588 1.44387 
0.017178 0.029141 1.67816 
2.28502 0.099955 1.36806 
1.47559 0.100484 1.73599 
4.82351 0.091032 1.73248 
3.18002 0.045784 1.8351 
3.0831 0.046106 1.63727 
1.78007 0.100333 1.70183 
3.44245 0.073265 1.68392 
4.61131 0.099616 1.5745 
0.129513 0.090345 1.81436 
0 0 1.07277 
2.8797 0.090728 1.74146 
2.6127 0.100581 1.69504 
0.130466 0.085983 1.5916 
3.79205 0.082925 1.63578 
3.01831 0.099566 1.66853 
0.096451 0.04358 1.56213 
3.45401 0.041091 1.60011 
4.99615 0.042623 1.07277 
2.61168 0.100581 1.42391 
1.48049 0.044726 1.56092 
2.24419 0.046044 1.38566 
1.20663 0.045041 1.56141 
0.486427 0.04505 1.56143 
-0.002888 0.035137 1.28762 
5 0 1.42434 
2.7904 0.10017 1.03479 
3.99872 0.046289 1.52344 
1.47756 0.052657 1.4613 
4.34952 0.088874 1.46979 
0.117687 0.050546 1.45383 
0.52264 0.045256 1.48188 
0.953835 0.045254 1.48188 
1.59853 -0.000842 1.0923 
1.7372 0.054913 1.45335 
1.90883 0.034656 1.47962 
4.70204 0.100267 1.38896 
3.40967 0.100355 1.40442 
1.55934 0.044726 1.46248 
3.43365 0.044972 1.40504 
3.88325 0.046455 1.30507 
4.81405 0.04805 1.37203 
2.22353 -0.000842 1.26809 
1.90499 0.099952 1.35522 
1.57618 0.100462 1.457 
0.502739 0.100581 1.42482 
0.939434 0.086432 1.45412 
0.151058 0.098836 1.41842 
1.47609 0.100019 1.42125 
1.17834 0.093068 1.4215 
1.04891 0.100006 1.35803 
1.47618 0.100039 1.21235 
2.18232 0.045737 1.20794 
2.37978 -0.000842 1.24855 
4.70375 0.045227 1.14987 
3.27638 0.045409 1.07309 
3.52663 0.100419 1.36093 
0.170948 0.100424 0.731943 
3.35621 0.045861 0.973436 
2.63728 0.077388 1.14808 
3.85977 0.086396 1.27644 
2.26083 0.09984 1.12578 
4.13965 0.082718 1.23298 
4.31283 0.045201 1.22806 
-0.003033 0.0256 0.604025 
0.095032 0.045073 0.877546 
2.33284 0.033557 1.15797 
2.28212 -0.000842 1.11184 
0.12344 0.093993 1.12882 
4.15398 0.100581 0.991344 
2.65358 0.044702 1.09229 
4.46079 0.099839 1.17797 
3.1223 0.044726 0.799128 
1.55985 0.045064 0.83812 
2.49554 0.044797 1.01188 
2.94619 0 -2e-06 
4.71418 0.099976 1.12641 
2.2419 0.100581 0.778227 
4.86597 0.059288 1.08253 
4.86805 0.092319 1.04549 
2.75092 0.046118 0.836895 
1.5763 0.100217 0.308481 
2.43148 0.088546 0.931465 
4.94933 0.038132 0.72135 
3.2758 0.100408 0.756002 
3.12933 0.09913 0.82066 
3.25869 0.044701 0.740875 
4.5673 0 -2e-06 
0 0 0.174335 
2.77544 0.099921 0.810806 
0.121548 0.085312 0.544004 
1.48041 0.045035 0.131464 
2.96466 0.044877 0.702442 
2.93493 0.096516 0.117683 
3.55044 0.046366 0.683624 
3.07207 0.054037 0.57235 
4.09305 0.100235 0.571575 
3.51019 0.046519 0.523823 
0.107723 0.099945 0.251686 
4.74307 0.099616 0.428574 
4.17547 0.046323 0.546669 
3.55074 0.096985 0.494017 
3.0761 0.100581 0.570339 
1.47615 0.100052 0.251616 
4.8415 0.044854 0.389879 
3.19645 0.09923 0.1555 
3.66123 0.067362 0.46557 
4.43009 0.046393 0.488413 
2.96441 0.044379 0.153725 
5 0 0 
0.132378 0.053334 0.143177 
4.13671 0.045133 0.388456 
4.99298 0.04062 0.25246 
1.57598 0.045102 0.111607 
3.08289 0.046264 0.117182 
4.66482 0.045107 0.271193 
3.76363 0.094567 0.252094 
3.72792 0.100045 0.459227 
0.716953 0.100581 0.310341 
3.64934 0.080513 0.157524 
3.08546 0.094559 0.123745 
4.66185 0.098657 0.24806 
-0.001839 0.042179 0.135469 
4.75917 0.029132 0.172836 
3.78428 0.090687 0.157902 
0.363689 0.081132 0.128819 
4.25262 0.090493 0.145802 
1.67278 0.093882 0.122139 
1.45501 0.081918 0.155426 
0.144863 0.07895 0.138618 
0.952446 0.089163 0.159517 
4.66387 0.043682 0.09782 
2.33905 0.09894 0.133331 
4.98361 0.018962 0.024475 
3.3671 0.060989 0.114826 
3.76581 0.045036 0.096584 
0.895813 0.044611 0.116575 
1.81383 0.04502 0.096579 
2.82838 0.045044 0.096601 
2.55373 0.045038 0.096586 
4.25356 0.044618 0.097866 
0.17281 0.034906 -0.00115 
0 0 0 
0.602478 0.03067 0.002262 
2.00869 0.015557 -0.001442 
3.55166 0.036719 0.006903 
4.56733 0.034126 0.038109 
1.42275 0.029931 0.010082 
1.77431 0.025602 -0.00144 
2.98473 0.037308 0.002928 
0.875874 0 -2e-06 
1.69619 0 -2e-06 
2.32119 0 -2e-06 
3.53212 0 -2e-06 
3.78603 0 -2e-06 
2.59463 0.042622 -0.000631 
0.407124 0 -2e-06 
1.48142 0.097982 4.75295 
1.85149 0.098312 4.81537 
2.24096 0.10058 4.80091 
2.74722 0.100546 4.80133 
3.29656 0.095728 4.84044 
3.80446 0.10058 4.78148 
4.17318 0.090642 4.83804 
4.68691 0.095537 4.70595 
1.41721 0.100313 4.45422 
0.447968 0.100041 4.70503 
1.06516 0.100313 4.90077 
0.620014 0.10058 4.04133 
0.170364 0.100491 4.64858 
0.258823 0.100087 4.62325 
4.66338 0.10058 3.5503 
1.49574 0.100025 4.05907 
0.376965 0.100183 4.09722 
0.130589 0.095389 4.11515 
1.17994 0.100028 4.28843 
1.25193 0.093675 3.90248 
1.62405 0.095623 3.66938 
0.700203 0.093524 3.71043 
0.971462 0.099928 3.70471 
1.26541 0.10058 3.74847 
0.448559 0.100268 3.76315 
1.31719 0.099839 3.55158 
0.166786 0.10058 3.60921 
0.709751 0.086603 3.33473 
1.75553 0.100341 3.37292 
0.557594 0.10058 3.08122 
0.129951 0.095449 3.14227 
0.785057 0.100221 3.11923 
1.36246 0.100004 3.39402 
4.67097 0.100581 2.10947 
0.249794 0.100185 3.07883 
2.14304 0.100383 2.81038 
1.70796 0.089393 2.94798 
1.31 0.100105 2.3574 
1.92738 0.046358 2.63639 
0.233299 0.100538 2.94504 
0.151287 0.100581 2.88861 
0.701836 0.100423 2.94283 
2.06567 0.045409 2.43989 
0.90728 0.096953 2.56924 
0.120071 0.095416 2.39924 
2.39665 0.100581 2.57387 
2.55376 0.100148 2.35986 
2.12138 0.079969 2.31436 
0.120071 0.095416 2.39924 
0.211586 0.099843 2.26304 
0.14249 0.068437 2.19646 
1.08152 0.075547 2.28377 
2.77087 0.09981 2.16792 
2.10093 0.100547 2.20731 
0.323334 0.088103 2.16615 
0.211586 0.099843 2.26304 
0.460037 0.100452 2.04606 
1.22655 0.100411 2.02566 
0.323334 0.088103 2.16615 
1.67511 0.100372 1.82382 
0.097023 0.043985 1.89364 
0.256935 0.099812 1.91109 
2.22458 0.099303 2.13926 
2.37206 0.100228 2.10239 
1.47534 0.100472 1.57852 
3.45144 0.100581 1.77457 
2.8797 0.090728 1.74146 
0.129513 0.090345 1.81436 
1.78007 0.100333 1.70183 
3.79205 0.082925 1.63578 
0.130466 0.085983 1.5916 
0.129513 0.090345 1.81436 
3.01831 0.099566 1.66853 
4.61131 0.099616 1.5745 
0.449089 0.100313 1.57847 
2.28502 0.099955 1.36806 
1.17834 0.093068 1.4215 
1.47609 0.100019 1.42125 
3.40967 0.100355 1.40442 
1.47618 0.100039 1.21235 
1.04891 0.100006 1.35803 
0.502739 0.100581 1.42482 
2.63728 0.077388 1.14808 
0.151058 0.098836 1.41842 
3.52663 0.100419 1.36093 
3.85977 0.086396 1.27644 
0.12344 0.093993 1.12882 
2.26083 0.09984 1.12578 
1.90499 0.099952 1.35522 
4.13965 0.082718 1.23298 
4.46079 0.099839 1.17797 
4.71418 0.099976 1.12641 
2.7904 0.10017 1.03479 
1.57618 0.100462 1.457 
3.12933 0.09913 0.82066 
2.43148 0.088546 0.931465 
3.2758 0.100408 0.756002 
1.5763 0.100217 0.308481 
0.170948 0.100424 0.731943 
2.77544 0.099921 0.810806 
4.09305 0.100235 0.571575 
4.74307 0.099616 0.428574 
3.55074 0.096985 0.494017 
3.0761 0.100581 0.570339 
2.93493 0.096516 0.117683 
1.47615 0.100052 0.251616 
0.107723 0.099945 0.251686 
3.76363 0.094567 0.252094 
3.66123 0.067362 0.46557 
3.08546 0.094559 0.123745 
3.72792 0.100045 0.459227 
4.66185 0.098657 0.24806 
1.45501 0.081918 0.155426 
0.363689 0.081132 0.128819 
1.67278 0.093882 0.122139 
4.25262 0.090493 0.145802 
3.19645 0.09923 0.1555 
3.64934 0.080513 0.157524 
3.78428 0.090687 0.157902 
0.952446 0.089163 0.159517 
2.33905 0.09894 0.133331 
3 0 1 2
3 3 2 4
3 4 2 5
3 6 4 5
3 7 6 5
3 8 7 9
3 10 8 11
3 12 13 14
3 12 14 15
3 10 11 14
3 13 10 14
3 12 15 16
3 2 1 5
3 7 5 9
3 11 8 9
3 16 17 12
3 18 4 6
3 19 7 8
3 13 20 10
3 9 21 11
3 18 6 7
3 22 18 7
3 23 8 10
3 20 23 10
3 24 9 5
3 24 21 9
3 21 14 11
3 21 15 14
3 19 22 7
3 12 25 13
3 25 12 17
3 26 0 2
3 27 5 1
3 26 28 0
3 3 26 2
3 19 8 23
3 25 20 13
3 0 28 1
3 29 30 3
3 31 32 33
3 34 35 36
3 37 38 39
3 40 41 37
3 42 40 25
3 33 32 18
3 33 18 36
3 34 36 19
3 43 34 19
3 38 43 39
3 40 37 39
3 30 26 3
3 17 42 25
3 43 19 39
3 25 40 39
3 32 4 18
3 22 36 18
3 22 19 36
3 23 39 19
3 23 20 39
3 20 25 39
3 44 351 352
3 35 33 36
3 41 38 37
3 38 34 43
3 45 42 17
3 29 3 46
3 26 47 28
3 48 353 354
3 49 355 356
3 49 357 358
3 30 50 51
3 26 30 51
3 29 50 30
3 48 352 353
3 49 48 354
3 49 354 355
3 49 356 357
3 52 29 46
3 53 47 26
3 32 31 359
3 46 3 4
3 28 54 1
3 48 44 352
3 51 53 26
3 55 4 32
3 56 16 15
3 359 55 32
3 57 47 53
3 58 59 57
3 59 47 57
3 1 54 27
3 47 54 28
3 55 46 4
3 52 46 60
3 61 49 358
3 16 56 17
3 47 59 62
3 50 63 51
3 63 53 51
3 64 360 361
3 45 65 42
3 66 45 17
3 362 63 50
3 67 363 364
3 48 68 44
3 65 365 42
3 62 69 47
3 55 359 366
3 70 58 57
3 63 57 53
3 66 65 45
3 71 27 54
3 63 70 57
3 367 58 70
3 47 71 54
3 67 368 363
3 69 71 47
3 55 60 46
3 56 15 72
3 56 66 17
3 64 361 369
3 55 366 73
3 74 66 56
3 71 75 27
3 75 5 27
3 76 60 55
3 73 76 55
3 77 52 60
3 78 70 63
3 21 72 15
3 48 79 68
3 80 70 78
3 75 24 5
3 81 78 63
3 362 81 63
3 82 65 66
3 83 367 70
3 77 60 84
3 85 81 362
3 60 76 84
3 370 64 369
3 366 371 73
3 370 372 64
3 73 86 76
3 56 87 74
3 84 88 77
3 83 70 80
3 66 87 82
3 89 87 56
3 90 88 84
3 91 65 82
3 373 372 370
3 76 92 84
3 71 93 75
3 67 94 368
3 95 92 76
3 87 66 74
3 96 373 374
3 371 86 73
3 97 67 375
3 376 90 84
3 98 93 71
3 89 56 72
3 69 98 71
3 86 95 76
3 376 84 92
3 96 372 373
3 62 98 69
3 96 99 372
3 100 98 62
3 62 377 100
3 101 79 48
3 85 378 81
3 91 365 65
3 83 80 102
3 103 92 95
3 379 86 371
3 104 376 92
3 103 104 92
3 81 378 78
3 105 80 78
3 377 106 100
3 107 103 95
3 378 376 104
3 378 105 78
3 103 108 109
3 110 95 86
3 48 111 101
3 108 112 109
3 86 379 110
3 102 80 105
3 378 104 105
3 109 105 104
3 109 104 103
3 89 113 87
3 114 83 102
3 115 91 82
3 116 89 72
3 115 365 91
3 98 117 93
3 380 97 375
3 117 98 100
3 381 94 67
3 112 118 109
3 108 103 107
3 82 87 115
3 109 118 105
3 119 108 107
3 120 382 383
3 114 102 121
3 87 113 115
3 97 381 67
3 116 113 89
3 110 379 122
3 121 102 105
3 122 95 110
3 93 123 75
3 122 379 124
3 125 107 95
3 126 365 115
3 100 106 117
3 125 95 122
3 384 49 61
3 385 114 117
3 106 385 117
3 117 114 121
3 118 121 105
3 124 379 386
3 127 128 117
3 127 117 121
3 93 129 123
3 21 130 72
3 128 93 117
3 48 131 111
3 132 133 127
3 133 128 127
3 134 132 127
3 115 113 135
3 134 127 121
3 387 120 383
3 136 119 107
3 134 121 137
3 118 112 138
3 123 24 75
3 139 382 120
3 140 93 128
3 138 121 118
3 113 141 135
3 387 142 120
3 133 140 128
3 137 121 138
3 139 120 142
3 138 112 388
3 136 107 125
3 389 142 387
3 122 124 386
3 141 113 116
3 129 143 123
3 144 130 21
3 145 115 135
3 136 125 122
3 145 126 115
3 146 93 140
3 122 386 147
3 146 129 93
3 130 116 72
3 148 136 122
3 390 149 391
3 142 389 150
3 145 135 141
3 147 148 122
3 392 151 390
3 134 137 152
3 148 393 136
3 394 151 392
3 143 24 123
3 150 153 142
3 384 154 49
3 149 155 391
3 133 395 140
3 138 388 156
3 153 157 142
3 386 396 147
3 158 147 396
3 49 131 48
3 146 159 129
3 157 139 142
3 397 158 396
3 129 159 143
3 147 158 160
3 156 137 138
3 160 148 147
3 395 161 140
3 152 137 162
3 162 137 156
3 148 163 393
3 152 162 164
3 398 393 163
3 144 165 130
3 399 400 401
3 151 149 390
3 146 140 161
3 141 166 167
3 402 151 394
3 145 141 167
3 160 158 168
3 403 158 397
3 116 166 141
3 169 24 143
3 403 168 158
3 168 170 160
3 398 163 404
3 171 148 170
3 170 148 160
3 159 169 143
3 167 126 145
3 171 163 148
3 172 401 400
3 151 173 149
3 174 151 402
3 405 406 407
3 116 130 165
3 175 166 116
3 21 176 144
3 176 165 144
3 388 177 156
3 168 403 178
3 179 162 156
3 180 181 170
3 177 179 156
3 170 181 171
3 182 170 168
3 183 21 24
3 184 151 174
3 183 176 21
3 408 164 179
3 180 170 182
3 164 162 179
3 173 185 409
3 186 404 163
3 151 187 173
3 188 139 157
3 384 189 154
3 177 388 410
3 146 190 159
3 191 186 163
3 192 168 178
3 193 175 116
3 186 410 404
3 190 194 159
3 191 163 171
3 411 401 172
3 190 146 161
3 412 411 172
3 159 194 169
3 187 185 173
3 192 182 168
3 195 413 414
3 171 181 191
3 177 410 186
3 408 179 196
3 197 167 166
3 178 403 198
3 186 179 177
3 199 182 192
3 198 192 178
3 167 197 126
3 196 415 408
3 200 413 195
3 416 201 403
3 197 202 126
3 403 201 198
3 193 116 165
3 412 203 411
3 194 204 169
3 169 204 24
3 205 206 414
3 180 182 417
3 418 207 190
3 206 195 414
3 191 181 419
3 417 182 199
3 208 189 384
3 199 192 198
3 415 196 179
3 209 417 199
3 207 210 190
3 186 191 179
3 211 199 198
3 420 201 416
3 211 198 201
3 185 421 422
3 184 187 151
3 423 206 205
3 193 212 175
3 423 213 206
3 424 208 384
3 214 179 191
3 415 179 214
3 210 194 190
3 187 421 185
3 419 215 191
3 201 420 211
3 425 415 216
3 207 217 210
3 207 425 217
3 415 214 216
3 425 216 217
3 210 218 194
3 183 219 176
3 176 219 165
3 220 213 423
3 211 420 221
3 222 216 214
3 223 420 202
3 224 218 210
3 225 210 217
3 226 225 216
3 194 218 204
3 204 227 24
3 225 224 210
3 225 217 216
3 222 226 216
3 228 191 229
3 213 195 206
3 230 202 197
3 231 209 199
3 420 223 221
3 232 222 214
3 232 214 191
3 228 232 191
3 233 199 211
3 221 234 211
3 175 235 166
3 212 235 175
3 219 193 165
3 227 236 24
3 236 183 24
3 230 223 202
3 237 238 228
3 239 225 240
3 238 232 228
3 419 426 215
3 239 241 224
3 239 224 225
3 243 222 242
3 243 240 226
3 240 225 226
3 229 191 215
3 223 230 221
3 234 233 211
3 244 240 243
3 245 427 428
3 199 233 231
3 230 235 221
3 235 197 166
3 246 229 215
3 236 247 183
3 244 239 240
3 220 423 429
3 430 242 222
3 246 228 229
3 235 248 221
3 235 230 197
3 249 231 233
3 250 233 234
3 431 251 432
3 245 431 427
3 233 250 252
3 253 195 213
3 254 250 234
3 220 253 213
3 237 228 255
3 256 254 234
3 257 234 221
3 256 234 257
3 224 258 218
3 252 249 233
3 257 221 248
3 212 193 219
3 245 251 431
3 215 426 433
3 259 258 224
3 260 246 215
3 261 247 236
3 432 262 434
3 263 435 436
3 255 228 246
3 215 433 264
3 212 248 235
3 241 437 224
3 265 256 248
3 266 231 249
3 256 257 248
3 227 261 236
3 238 267 232
3 268 215 264
3 247 269 183
3 265 248 270
3 215 268 260
3 438 271 439
3 263 440 441
3 442 263 441
3 272 248 212
3 263 436 440
3 273 270 272
3 272 270 248
3 268 246 260
3 433 443 264
3 274 268 264
3 251 262 432
3 275 444 439
3 271 275 439
3 246 268 276
3 277 272 212
3 276 255 246
3 252 250 278
3 267 222 232
3 279 220 429
3 264 443 266
3 266 445 231
3 252 280 249
3 269 247 261
3 274 264 266
3 446 271 438
3 447 435 263
3 224 437 259
3 448 267 238
3 183 281 219
3 282 227 204
3 268 274 283
3 276 268 283
3 449 284 437
3 437 284 259
3 266 443 445
3 285 430 222
3 450 271 446
3 286 274 266
3 280 266 249
3 218 258 204
3 278 280 252
3 267 285 222
3 283 274 286
3 283 286 287
3 258 282 204
3 280 278 288
3 289 266 280
3 447 263 290
3 278 451 288
3 289 286 266
3 291 289 280
3 291 280 288
3 292 284 449
3 442 293 263
3 273 452 270
3 451 294 288
3 294 291 288
3 295 296 289
3 295 289 291
3 297 251 245
3 277 298 272
3 453 299 454
3 293 290 263
3 300 295 291
3 273 272 298
3 451 301 294
3 289 302 286
3 281 303 219
3 304 259 284
3 305 291 294
3 306 277 212
3 455 271 450
3 298 452 273
3 430 285 456
3 301 451 452
3 306 298 277
3 448 307 267
3 308 302 289
3 305 300 291
3 305 294 301
3 309 305 301
3 227 269 261
3 310 300 311
3 305 311 300
3 452 298 301
3 307 285 267
3 251 312 457
3 309 301 298
3 212 219 303
3 458 313 459
3 314 289 296
3 311 305 315
3 259 316 258
3 299 460 454
3 313 453 459
3 292 304 284
3 315 305 309
3 309 298 317
3 258 316 282
3 212 303 306
3 304 316 259
3 306 317 298
3 318 313 458
3 458 461 462
3 297 312 251
3 319 457 312
3 313 299 453
3 320 458 462
3 448 321 307
3 322 312 297
3 463 456 285
3 464 323 292
3 322 324 312
3 320 318 458
3 325 309 317
3 324 319 312
3 326 275 271
3 287 286 302
3 315 309 325
3 326 465 275
3 325 466 315
3 327 317 306
3 327 306 303
3 326 271 455
3 292 323 304
3 328 467 468
3 329 468 469
3 470 330 464
3 323 464 304
3 464 330 304
3 463 285 470
3 285 330 470
3 321 471 331
3 314 467 308
3 287 332 471
3 307 321 331
3 331 471 333
3 471 332 333
3 287 302 332
3 467 328 308
3 469 466 334
3 328 468 329
3 325 334 466
3 335 336 316
3 335 316 304
3 334 329 469
3 327 325 317
3 316 336 282
3 308 332 302
3 337 304 330
3 337 330 285
3 333 338 331
3 339 308 328
3 340 334 325
3 341 285 307
3 342 307 331
3 343 332 308
3 339 328 329
3 282 344 227
3 344 345 227
3 346 269 227
3 269 347 183
3 347 348 183
3 348 281 183
3 337 335 304
3 341 337 285
3 342 341 307
3 349 338 333
3 343 333 332
3 339 343 308
3 348 339 329
3 348 329 334
3 336 350 282
3 350 344 282
3 345 346 227
3 338 342 331
3 349 333 343
3 325 281 340
3 335 337 350
3 334 340 281
3 337 341 344
3 341 342 345
3 338 349 346
3 349 343 269
3 343 339 347
3 334 281 348
3 335 350 336
3 350 337 344
3 341 345 344
3 345 342 338
3 349 269 346
3 343 347 269
3 339 348 347
3 325 327 281
3 327 303 281
3 338 346 345
3 243 226 222
3 314 308 289
