ply
format ascii 1.0
comment INFO-3111 Flatenator generated
comment TextureFile Dungeons_Texture_01.png
element vertex 352
property float x
property float y
property float z
element face 450
property list uchar int vertex_indices
end_header
1.54343 4.4999 0.266512 
1.07594 4.57375 0.229701 
1.11223 4.33777 0.281475 
1.05536 4.03398 0.282586 
2.52734 3.91724 0.2759 
1.56348 3.95471 0.275143 
2.5139 3.43633 0.275776 
1.50367 3.44473 0.274644 
1.51671 3.93118 0.274362 
1.28785 3.4824 0.249989 
1.54746 3.49551 0.277111 
0.740723 3.95501 0.275529 
0.727013 3.47236 0.27443 
2.51253 2.79499 0.278796 
1.62008 2.81068 0.274564 
1.56097 2.53528 0.277063 
2.13606 2.33024 0.277531 
2.5275 2.33189 0.275261 
1.52279 2.33888 0.221622 
2.52383 1.68969 0.262533 
1.55666 1.67522 0.259942 
2.52502 1.21142 0.27611 
1.56109 1.19534 0.258914 
0.85656 1.13159 0.275947 
-0.007652 1.11601 0.277394 
0.844017 0.648925 0.274287 
-0.023827 0.627874 0.262383 
0.682014 5.05831 0.258909 
-0.080643 5.05872 0.258803 
0.56292 4.71804 0.259896 
2.30839 5.05406 0.258339 
1.56799 5.08131 0.257718 
1.55303 4.60022 0.258259 
0.676414 4.57446 0.223563 
2.03328 4.59137 0.246815 
2.51597 4.55928 0.258181 
1.51062 5.05879 0.258863 
0.732758 5.05727 0.258696 
0.758072 4.57517 0.259338 
1.09827 4.61727 0.260065 
1.52309 4.54466 0.212254 
2.50179 4.98361 0.236497 
-0.080338 4.57527 0.259688 
0.395454 4.562 0.222235 
1.31976 4.53719 0.208903 
-0.084358 4.55808 0.197927 
-0.106758 4.02028 0.258275 
0.334351 4.50028 0.258525 
2.45993 4.5454 0.198998 
1.87365 4.50049 0.247784 
2.43803 4.03587 0.260853 
1.00227 4.49909 0.258303 
0.399582 4.52525 0.256075 
1.00656 4.01379 0.224542 
1.91376 4.02045 0.258976 
0.399704 4.03401 0.260964 
0.739731 3.98905 0.212386 
0.346596 3.92884 0.25902 
0.666122 3.43868 0.260919 
1.5454 3.95004 0.210909 
0.273331 3.47939 0.253241 
0.4217 3.3859 0.209738 
1.91361 2.87947 0.259191 
1.91547 3.36568 0.255734 
0.88295 3.35583 0.258688 
2.45297 3.36582 0.255679 
2.43803 2.89425 0.260786 
0.374298 3.36632 0.254561 
-0.037071 2.87807 0.246272 
0.892433 2.89353 0.254932 
0.937592 2.87269 0.259439 
2.45905 2.85837 0.198547 
-0.057793 2.8141 0.260077 
-0.015396 2.33236 0.240574 
0.104736 2.33341 0.261431 
0.674774 2.78633 0.259298 
0.653625 2.30116 0.259069 
2.53256 2.81869 0.222594 
2.53735 2.31632 0.172771 
-0.003784 2.2513 0.259502 
-0.007263 1.76802 0.258965 
0.381317 2.25162 0.25821 
1.86415 2.24499 0.259229 
1.05561 2.23252 0.282248 
1.86702 1.75856 0.247153 
2.50017 2.24716 0.258577 
1.91993 2.25296 0.259137 
2.48743 1.76156 0.258654 
1.05648 1.75258 0.260486 
1.00118 2.25162 0.258231 
0.447113 2.25162 0.258231 
1.00223 1.77034 0.257613 
1.9077 1.78128 0.258575 
0.385849 1.75523 0.222212 
0.322189 1.68877 0.232627 
-0.034508 1.69061 0.258178 
0.503914 1.67169 0.260714 
0.723183 1.71114 0.21172 
0.681808 1.19867 0.258483 
1.51016 1.6845 0.258576 
0.732819 1.67171 0.259377 
1.51016 1.19868 0.258577 
0.732971 1.19862 0.258365 
-0.041451 1.17682 0.160252 
2.42463 1.18828 0.222376 
0.669327 1.14632 0.211729 
2.42331 1.10992 0.222903 
1.93062 1.09431 0.259568 
2.49342 0.614066 0.258287 
1.86587 1.0938 0.258471 
0.928635 1.12508 0.258492 
1.2821 0.629523 0.258817 
0.913483 0.639476 0.258369 
1.91431 0.614065 0.258285 
0.862312 1.12981 0.223065 
1.85789 0.610718 0.259469 
-0.033493 0.59637 0.134137 
1.06137 0.612761 0.211694 
1.51725 0.527487 0.254261 
0.740128 0.54967 0.258366 
0.728539 0.069935 0.260096 
0.682289 0.533157 0.259691 
-0.007774 0.533306 0.259581 
-0.008308 0.050009 0.258863 
2.527 0.532688 0.259648 
2.40435 0.066605 0.24809 
2.50823 0.066999 0.214602 
1.2136 0.053137 0.23461 
0.68248 0.050537 0.258793 
1.5046 0.039753 0.247062 
1.56286 0.53297 0.259578 
2.51514 5.07582 0.108394 
-0.052795 3.93433 0.247894 
2.42235 3.9475 0.210123 
-0.075966 3.45339 0.247753 
-0.056007 3.39227 0.145577 
1.24551 3.40097 0.205032 
1.54106 3.42889 0.212042 
0.685913 3.4275 0.21158 
-0.047302 3.35784 0.249392 
0.935768 2.8306 0.211814 
1.49235 2.83596 0.257589 
0.718628 2.79579 0.242678 
1.51105 2.35484 0.269209 
0.735847 2.31296 0.249045 
0.427437 2.27185 0.211995 
1.86081 2.31125 0.223679 
1.63973 2.29332 0.213356 
1.06152 1.73089 0.211688 
1.90161 1.75089 0.211746 
-0.01619 1.73804 0.160393 
2.49426 1.73526 0.183798 
0.931389 1.15202 0.211507 
1.57892 1.13201 0.212036 
1.87637 1.10536 0.220716 
0.110054 0.616053 0.211736 
1.55782 0.547478 0.222288 
1.52658 5.10206 0.085645 
-0.091187 5.0998 -0.086692 
-0.068733 2.85765 0.082918 
1.52074 2.84947 0.212444 
0.035873 2.8268 0.208215 
-0.090942 2.298 0.123013 
0.651581 2.26809 0.210001 
1.00632 2.26913 0.210052 
1.54359 1.71081 0.211852 
0.850731 0.613042 0.212022 
0.686249 0.547168 0.222352 
1.8648 0.572483 0.212013 
2.50241 0.587 0.158769 
-0.019325 0.008208 -0.086693 
0.695732 0.007645 0.085743 
0.694794 5.10123 0.08557 
0.707069 5.02035 0.211612 
1.52071 5.02187 0.211538 
2.4632 3.9805 0.122123 
-0.05542 3.97909 0.123511 
2.46098 3.38977 0.174099 
0.721619 2.82903 0.211465 
2.50849 1.13895 0.108634 
0.705894 0.090863 0.208913 
1.50696 0 0.084894 
-0.020302 2.27162 0.122459 
2.54491 0.007558 0.085282 
-0.094971 4.5794 -0.086692 
2.54456 0.572764 -0.086693 
-0.117409 3.97867 -0.086692 
2.46641 2.87232 -0.067802 
2.47081 4.51906 -0.08837 
2.55309 5.08046 -0.086692 
-0.045158 3.95883 -0.09314 
2.45348 3.95257 -0.104472 
-0.04586 2.87652 -0.081844 
1.53893 0.008835 -0.086693 
0.720398 5.10123 -0.086308 
2.4538 3.404 -0.104693 
-0.073967 3.42984 -0.094242 
2.54491 2.28346 -0.093896 
0.69619 0.00813 -0.08648 
-0.091713 2.2892 -0.080406 
2.55462 1.15698 -0.095076 
2.47169 1.73356 -0.100802 
-0.02137 1.15611 -0.08939 
0.017311 0.610875 -0.097463 
2.54491 0.007726 -0.079159 
-0.018265 2.25827 -0.086693 
-0.042824 1.73347 -0.086693 
2.52988 3.39245 -0.094308 
1.52817 5.10222 -0.086692 
2.45651 4.4841 -0.152651 
0.048897 5.07153 -0.15313 
2.45607 5.07122 -0.152651 
0.013374 4.17536 -0.08811 
0.032166 4.6409 -0.153047 
0.03257 3.85395 -0.104795 
0.032639 3.13188 -0.152778 
2.45622 2.48516 -0.152441 
0.032516 1.2526 -0.104205 
0.032166 1.97572 -0.153048 
2.45651 1.11347 -0.152652 
2.45383 0.569124 -0.103915 
0.031197 0.05623 -0.152825 
2.45603 0.056046 -0.152687 
1.84771 0.056265 -0.152761 
1.69598 5.071 -0.15276 
2.45651 3.54346 -0.152652 
0.031532 0.778308 -0.152705 
1.11223 4.33777 0.281475 
1.07594 4.57375 0.229701 
2.13606 2.33024 0.277531 
1.09827 4.61727 0.260065 
1.52309 4.54466 0.212254 
1.05536 4.03398 0.282586 
1.00656 4.01379 0.224542 
0.740723 3.95501 0.275529 
1.51671 3.93118 0.274362 
1.54746 3.49551 0.277111 
1.56348 3.95471 0.275143 
1.50367 3.44473 0.274644 
0.273331 3.47939 0.253241 
0.666122 3.43868 0.260919 
2.51253 2.79499 0.278796 
1.62008 2.81068 0.274564 
2.5275 2.33189 0.275261 
0.503914 1.67169 0.260714 
-0.034508 1.69061 0.258178 
1.56109 1.19534 0.258914 
2.52502 1.21142 0.27611 
-0.007652 1.11601 0.277394 
0.85656 1.13159 0.275947 
0.844017 0.648925 0.274287 
-0.023827 0.627874 0.262383 
1.2821 0.629523 0.258817 
0.913483 0.639476 0.258369 
2.527 0.532688 0.259648 
2.40435 0.066605 0.24809 
1.5046 0.039753 0.247062 
1.56799 5.08131 0.257718 
2.30839 5.05406 0.258339 
0.758072 4.57517 0.259338 
0.676414 4.57446 0.223563 
0.399582 4.52525 0.256075 
1.00227 4.49909 0.258303 
0.399704 4.03401 0.260964 
1.91376 4.02045 0.258976 
0.346596 3.92884 0.25902 
0.739731 3.98905 0.212386 
2.52734 3.91724 0.2759 
0.727013 3.47236 0.27443 
-0.052795 3.93433 0.247894 
-0.075966 3.45339 0.247753 
1.28785 3.4824 0.249989 
2.5139 3.43633 0.275776 
0.374298 3.36632 0.254561 
0.88295 3.35583 0.258688 
1.91547 3.36568 0.255734 
0.937592 2.87269 0.259439 
0.653625 2.30116 0.259069 
0.104736 2.33341 0.261431 
1.86415 2.24499 0.259229 
1.05561 2.23252 0.282248 
1.91993 2.25296 0.259137 
2.50017 2.24716 0.258577 
1.86702 1.75856 0.247153 
1.9077 1.78128 0.258575 
1.05648 1.75258 0.260486 
0.447113 2.25162 0.258231 
0.385849 1.75523 0.222212 
2.48743 1.76156 0.258654 
0.723183 1.71114 0.21172 
2.52383 1.68969 0.262533 
1.55666 1.67522 0.259942 
0.732971 1.19862 0.258365 
0.732819 1.67171 0.259377 
1.51016 1.19868 0.258577 
1.86587 1.0938 0.258471 
0.928635 1.12508 0.258492 
1.93062 1.09431 0.259568 
1.91431 0.614065 0.258285 
1.85789 0.610718 0.259469 
-0.007774 0.533306 0.259581 
0.682289 0.533157 0.259691 
0.740128 0.54967 0.258366 
1.51725 0.527487 0.254261 
1.5046 0.039753 0.247062 
1.56286 0.53297 0.259578 
0.732758 5.05727 0.258696 
1.51062 5.05879 0.258863 
-0.080643 5.05872 0.258803 
-0.080338 4.57527 0.259688 
0.395454 4.562 0.222235 
1.54343 4.4999 0.266512 
0.399704 4.03401 0.260964 
-0.047302 3.35784 0.249392 
-0.037071 2.87807 0.246272 
2.45297 3.36582 0.255679 
2.43803 2.89425 0.260786 
1.91361 2.87947 0.259191 
0.718628 2.79579 0.242678 
1.49235 2.83596 0.257589 
-0.057793 2.8141 0.260077 
0.674774 2.78633 0.259298 
1.51105 2.35484 0.269209 
-0.015396 2.33236 0.240574 
1.00118 2.25162 0.258231 
1.00223 1.77034 0.257613 
2.42331 1.10992 0.222903 
0.68248 0.050537 0.258793 
0.728539 0.069935 0.260096 
-0.008308 0.050009 0.258863 
0.682014 5.05831 0.258909 
1.55303 4.60022 0.258259 
-0.084358 4.55808 0.197927 
2.45993 4.5454 0.198998 
2.43803 4.03587 0.260853 
-0.106758 4.02028 0.258275 
0.892433 2.89353 0.254932 
0.735847 2.31296 0.249045 
-0.041451 1.17682 0.160252 
2.49342 0.614066 0.258287 
2.03328 4.59137 0.246815 
1.87365 4.50049 0.247784 
2.51597 4.55928 0.258181 
0.334351 4.50028 0.258525 
-0.003784 2.2513 0.259502 
0.381317 2.25162 0.25821 
-0.007263 1.76802 0.258965 
1.51016 1.6845 0.258576 
0.681808 1.19867 0.258483 
1.2136 0.053137 0.23461 
2.50179 4.98361 0.236497 
1.56097 2.53528 0.277063 
3 0 1 2
3 227 228 3
3 4 5 6
3 7 8 9
3 5 10 6
3 8 11 9
3 11 12 9
3 14 16 13
3 13 16 17
3 229 15 18
3 19 20 21
3 21 20 22
3 23 24 25
3 25 24 26
3 27 28 29
3 30 31 32
3 27 29 33
3 30 32 34
3 30 34 35
3 36 37 38
3 36 38 39
3 36 39 40
3 41 30 35
3 29 28 42
3 29 43 33
3 230 228 44
3 231 230 44
3 45 46 47
3 48 49 50
3 51 52 53
3 49 0 232
3 232 0 2
3 50 49 54
3 52 55 53
3 49 232 54
3 233 234 235
3 56 57 58
3 236 237 59
3 57 60 58
3 59 235 238
3 239 61 240
3 62 63 64
3 65 63 66
3 64 67 68
3 63 62 66
3 64 68 69
3 64 70 62
3 241 71 242
3 72 73 74
3 75 72 74
3 75 74 76
3 241 243 77
3 77 243 78
3 79 80 81
3 82 83 84
3 85 86 87
3 84 83 88
3 89 90 91
3 86 92 87
3 81 80 93
3 94 95 96
3 97 244 98
3 99 100 101
3 101 100 102
3 244 245 98
3 98 245 103
3 246 104 247
3 105 248 249
3 106 107 108
3 109 110 111
3 110 112 111
3 107 113 108
3 114 249 250
3 109 111 115
3 248 116 251
3 252 253 117
3 118 119 120
3 121 122 123
3 124 125 126
3 118 120 127
3 121 123 128
3 118 127 129
3 254 130 255
3 130 256 255
3 131 257 258
3 43 29 42
3 228 230 259
3 260 261 262
3 263 47 46
3 59 264 3
3 132 265 266
3 237 267 133
3 268 234 266
3 57 269 134
3 60 57 134
3 239 270 135
3 268 136 271
3 137 238 271
3 137 272 236
3 138 61 273
3 274 138 273
3 274 275 136
3 67 139 68
3 274 140 276
3 141 142 143
3 143 142 144
3 277 278 145
3 146 229 18
3 279 147 280
3 78 146 281
3 78 281 282
3 279 283 146
3 281 146 284
3 148 285 280
3 286 145 287
3 91 90 93
3 149 288 284
3 150 95 94
3 289 94 96
3 290 151 291
3 292 293 289
3 152 294 292
3 295 153 296
3 296 152 253
3 297 154 298
3 154 295 299
3 251 155 250
3 155 300 301
3 117 302 303
3 304 305 156
3 157 306 307
3 308 158 309
3 260 310 261
3 44 228 311
3 312 261 310
3 3 228 233
3 236 59 137
3 313 159 314
3 71 315 316
3 160 317 276
3 71 316 317
3 140 318 319
3 320 321 161
3 18 319 322
3 323 320 162
3 146 78 229
3 145 163 277
3 164 324 325
3 165 283 285
3 246 291 153
3 114 105 249
3 326 154 297
3 295 154 153
3 114 250 166
3 166 250 155
3 166 117 253
3 156 299 252
3 155 301 167
3 305 124 168
3 124 169 168
3 301 327 167
3 156 303 304
3 302 167 328
3 300 170 329
3 171 327 329
3 308 330 172
3 173 330 260
3 331 257 231
3 306 173 259
3 174 307 231
3 332 310 309
3 260 228 259
3 175 333 334
3 176 132 335
3 132 312 335
3 233 59 3
3 234 233 266
3 59 233 235
3 237 133 59
3 132 176 270
3 240 138 266
3 266 138 268
3 138 136 268
3 137 177 272
3 135 273 61
3 177 275 315
3 140 274 336
3 140 160 276
3 319 18 160
3 178 318 140
3 318 178 337
3 242 160 15
3 163 321 277
3 323 145 278
3 147 146 18
3 78 243 229
3 163 286 324
3 163 324 164
3 147 164 280
3 280 164 148
3 282 288 151
3 284 146 149
3 148 165 285
3 292 289 105
3 291 165 153
3 105 152 292
3 152 153 294
3 154 246 153
3 154 104 246
3 105 338 248
3 153 152 296
3 179 339 169
3 154 299 168
3 253 152 166
3 298 154 168
3 117 156 252
3 299 156 168
3 298 169 339
3 117 167 302
3 168 156 305
3 167 180 328
3 125 304 181
3 257 174 231
3 259 173 260
3 158 332 309
3 340 331 341
3 341 331 231
3 333 342 340
3 332 343 310
3 260 262 228
3 44 311 231
3 311 341 231
3 341 333 340
3 343 312 310
3 262 233 228
3 233 312 266
3 264 59 133
3 334 264 133
3 266 312 132
3 59 238 137
3 239 135 61
3 240 61 138
3 137 271 136
3 137 275 177
3 275 137 136
3 274 136 138
3 159 161 314
3 336 314 178
3 178 140 336
3 317 160 71
3 314 161 178
3 319 160 140
3 242 71 160
3 241 77 71
3 161 321 178
3 178 321 163
3 337 178 163
3 15 160 18
3 323 182 145
3 18 322 337
3 18 337 164
3 337 163 164
3 18 164 147
3 344 145 182
3 344 345 145
3 145 286 163
3 147 279 146
3 345 287 145
3 148 164 325
3 146 283 149
3 287 346 150
3 287 150 94
3 325 287 289
3 325 289 148
3 283 165 149
3 288 149 151
3 289 287 94
3 165 148 293
3 149 165 291
3 149 291 151
3 293 148 289
3 293 347 165
3 347 294 165
3 348 105 289
3 294 153 165
3 348 338 105
3 105 114 152
3 104 154 326
3 166 152 114
3 116 155 251
3 298 168 169
3 166 155 167
3 166 167 117
3 303 156 117
3 167 327 180
3 159 320 161
3 344 182 346
3 247 104 179
3 180 171 328
3 170 171 329
3 133 175 334
3 179 104 326
3 248 338 116
3 181 304 349
3 183 126 125
3 173 172 330
3 157 307 174
3 258 350 131
3 174 257 157
3 332 184 335
3 116 300 155
3 185 124 126
3 257 131 157
3 335 184 186
3 133 267 175
3 313 135 159
3 320 159 162
3 182 150 346
3 326 339 179
3 124 185 169
3 300 116 170
3 181 183 125
3 187 315 71
3 158 184 332
3 188 342 333
3 177 315 187
3 180 327 171
3 131 350 189
3 171 349 328
3 158 308 172
3 189 350 342
3 335 190 176
3 176 190 270
3 323 162 182
3 186 190 335
3 267 191 175
3 135 192 159
3 193 183 181
3 306 194 173
3 177 195 272
3 157 194 306
3 192 135 196
3 77 78 197
3 198 349 171
3 187 195 177
3 159 199 162
3 197 78 282
3 179 200 247
3 185 126 183
3 270 196 135
3 290 201 151
3 202 116 338
3 179 169 185
3 290 247 200
3 191 333 175
3 282 151 197
3 202 203 116
3 204 185 183
3 194 172 173
3 199 182 162
3 182 205 150
3 95 206 338
3 189 342 188
3 159 192 199
3 201 197 151
3 206 95 150
3 195 207 272
3 77 187 71
3 188 333 191
3 349 198 181
3 208 157 131
3 189 208 131
3 194 158 172
3 208 194 157
3 190 196 270
3 191 272 207
3 187 77 197
3 199 205 182
3 338 206 202
3 200 179 185
3 116 203 170
3 170 198 171
3 198 193 181
3 193 204 183
3 209 188 191
3 192 205 199
3 205 206 150
3 201 290 200
3 194 210 158
3 211 208 189
3 212 158 210
3 184 158 212
3 211 189 188
3 209 211 188
3 186 184 212
3 186 212 190
3 212 213 214
3 190 212 214
3 190 214 196
3 214 215 196
3 191 207 195
3 216 197 201
3 206 205 217
3 217 205 218
3 206 217 202
3 202 217 203
3 219 200 185
3 220 219 185
3 170 203 221
3 222 220 204
3 220 185 204
3 221 223 198
3 223 193 198
3 223 204 193
3 221 198 170
3 224 210 194
3 224 194 208
3 211 224 208
3 210 213 212
3 225 209 191
3 187 197 216
3 219 201 200
3 217 226 203
3 203 226 221
3 192 218 205
3 204 223 222
3 214 213 215
3 225 191 195
3 225 195 187
3 216 225 187
3 196 215 192
3 219 216 201
3 217 218 226
3 219 220 222
3 192 215 218
3 210 224 213
3 224 211 215
3 211 209 215
3 215 209 225
3 213 224 215
3 218 215 225
3 218 225 216
3 218 216 226
3 219 223 216
3 219 222 223
3 226 216 221
3 216 223 221
3 14 351 16
3 135 313 273
3 191 267 272
