ply
format ascii 1.0
comment INFO-3111 Flatenator generated
comment TextureFile Dungeons_Texture_01.png
element vertex 399
property float x
property float y
property float z
element face 452
property list uchar int vertex_indices
end_header
-0.655739 -0.290294 0.271397 
-0.395095 -0.285923 0.299631 
-0.285581 -0.26117 0.200088 
0.59435 -0.290463 0.237326 
0.05682 -0.244479 0.336536 
0.365825 -0.286329 0.26506 
0.120584 -0.290668 0.237548 
0.627353 -0.256738 0.062416 
-0.451132 -0.290697 0.018175 
-0.24859 -0.290189 0.017452 
0.595423 -0.272346 0.048799 
0.14365 -0.284603 0.000111 
-0.650086 -0.286464 0.000111 
-0.285635 -0.2478 0.000111 
0.451035 -0.276849 0.012672 
-0.173806 -0.222541 0.42224 
0.335424 -0.191558 0.003946 
-0.059276 -0.243667 5.01127 
0.590262 -0.21773 4.97775 
0.447395 -0.245394 5.06334 
0.523699 -0.248442 4.95449 
0.569994 -0.19711 4.60468 
-0.594093 -0.248035 4.56 
0.422702 -0.239473 4.54043 
-0.310385 -0.238893 1.25488 
-4.8e-05 -0.227318 1.28123 
0.17942 -0.234935 1.25399 
0.492215 -0.218575 1.27962 
0.145233 -0.238893 1.10332 
-0.398046 -0.238893 1.10221 
0.634053 -0.207035 0.321363 
-0.110292 -0.246041 5.06259 
-0.532648 -0.204867 1.0937 
-0.55567 -0.209135 5.10748 
0.532162 -0.186552 5.10958 
-0.598228 -0.250713 5.03891 
0.580074 -0.113109 1.25711 
-0.063266 -0.180486 1.06997 
0.554844 -0.196805 1.12688 
0.557544 -0.223793 0.418628 
0.494327 -0.16755 4.41454 
-0.495064 -0.169248 4.41276 
-0.450047 -0.148624 1.37638 
-0.580769 -0.151468 1.25572 
0.495803 -0.18079 1.07447 
-0.493883 -0.180423 0.873049 
-0.153591 -0.169276 0.843091 
0.093572 -0.180423 0.75244 
-0.461209 -0.161493 0.715869 
-0.501111 -0.185091 0.493716 
0.493594 -0.180423 0.528398 
-0.479958 -0.16989 4.14342 
0.091266 -0.173991 4.21546 
-0.334588 -0.173991 4.21546 
0.22237 -0.157123 4.15821 
0.575845 -0.151095 1.10365 
0.506329 -0.163014 5.12524 
-0.479323 0.098135 4.22051 
-0.393082 -0.130076 4.13731 
-0.594738 -0.147847 4.56239 
0.479864 -0.169853 4.14354 
0.142819 -0.104338 4.11669 
0.386191 -0.105521 4.11825 
0.385162 -0.104746 1.43841 
-0.496004 -0.095097 0.842758 
-0.084274 -0.071022 5.12748 
0.598776 0.059069 5.00838 
-0.38413 -0.103422 3.45107 
0.383587 -0.10319 3.58279 
0.28623 -0.102678 3.4813 
-0.382305 -0.087781 3.20073 
0.252279 -0.102987 3.20018 
0.371434 -0.067633 3.19606 
-0.168054 -0.103358 2.97591 
-0.341618 -0.089472 2.97552 
0.332669 -0.094586 2.97458 
-0.023516 -0.103421 2.68056 
0.168006 -0.103421 2.85158 
0.323769 -0.039358 2.87515 
-0.367744 -0.090318 2.41745 
-0.049393 -0.102511 2.40639 
0.384081 -0.103421 2.62954 
0.384027 -0.103388 2.4314 
-0.382699 -0.053242 2.1122 
0.384081 -0.103421 1.91801 
-0.286423 -0.103388 2.1495 
-0.312737 -0.103629 1.44074 
0.382944 -0.102881 1.67329 
-0.385508 -0.070344 1.44335 
-0.540815 -0.049689 5.12254 
-0.333256 -0.069363 3.27893 
0.383294 -0.102846 2.20669 
0.384081 -0.037601 1.83086 
-0.488669 -0.05304 0.528453 
0.647335 -0.034821 0.000111 
-0.569444 -0.03296 4.63686 
-0.483259 0.051316 4.45345 
0.374536 0.026326 3.42783 
-0.333987 -0.069868 3.36569 
0.037198 -0.054294 3.32534 
0.309941 -0.053583 3.3254 
0.332175 -0.068344 3.27816 
-0.372117 -0.052058 2.94084 
-0.382404 -0.053718 2.40583 
0.324798 -0.055883 2.29845 
-0.313183 -0.055443 2.3064 
-0.497174 -0.010922 1.06786 
0.556658 -0.032828 4.50397 
-0.385552 0.062218 4.11669 
0.321354 -0.036785 2.74726 
-0.377439 0.194943 3.42845 
-0.311805 0.353271 3.32607 
0.373554 -0.067534 3.00237 
-0.382699 0.002117 2.20891 
-0.061154 -0.069934 0.000111 
-0.580365 0.410188 1.10165 
0.497879 0.256095 1.06847 
0.494622 0.225277 4.41338 
-0.590991 0.212822 5.06287 
0.481885 0.021993 4.14359 
0.384081 0.160948 2.85275 
-0.496004 0.204593 1.06986 
0.495954 0.502283 0.530454 
-0.115365 0.159801 0.000111 
0.651906 0.300723 0.080869 
-0.647375 0.372607 0.000111 
0.383294 0.176862 3.20012 
-0.597932 0.122347 4.65859 
-0.580464 0.510549 1.25699 
0.384081 0.392312 2.65527 
0.589181 0.174867 0.005614 
-0.486747 0.181878 4.37541 
0.383053 0.37592 3.77493 
0.384081 0.332314 2.14955 
-0.54018 0.433378 5.12272 
0.476324 0.116083 5.12631 
-0.501363 0.467548 0.492994 
-0.595079 0.237537 4.56277 
-0.314606 0.384524 2.29839 
0.381478 0.292897 3.10052 
-0.41758 0.315789 0.005336 
0.647335 0.428982 0.000111 
0.583517 0.561468 4.55221 
-0.384075 0.425152 2.4314 
0.377238 0.309863 1.76961 
0.385753 0.293375 1.44308 
0.656137 -0.108098 0.269562 
-0.084321 0.25711 5.12748 
0.598877 0.445435 5.00847 
-0.487042 0.495377 4.37742 
0.421566 0.411943 4.13753 
-0.38413 0.276577 2.81429 
0.357909 0.353272 1.7964 
0.655984 0.217123 0.269618 
0.168452 0.392919 5.12748 
0.478542 0.501813 4.41504 
-0.387027 0.426847 4.11825 
-0.383288 0.424647 3.51782 
0.348268 0.385539 2.7542 
-0.383334 0.423564 2.20647 
-0.477597 0.49277 0.809688 
-0.38344 0.375722 1.57613 
-0.544947 0.520808 1.10715 
0.580128 0.560289 1.10193 
-0.471892 0.485656 5.12724 
0.540132 0.433378 5.12277 
9.6e-05 0.37514 3.32646 
0.385009 0.425965 1.43919 
0.311658 0.375548 3.3254 
-0.354409 0.404697 3.24836 
0.324308 0.38422 2.29511 
-0.49418 0.500389 1.07314 
0.04954 0.421397 3.4265 
0.384081 0.425188 3.45112 
-0.38413 0.425223 3.16194 
0.384081 0.425223 3.16194 
-0.28145 0.423632 2.75237 
0.366371 0.416421 2.19657 
-0.378118 0.42133 1.43263 
0.366514 0.410797 4.04021 
0.285739 0.426882 4.1173 
-0.217106 0.424206 3.82957 
0.369224 0.421329 3.67266 
-0.120285 0.416792 3.55483 
0.384081 0.425287 2.87793 
0.284843 0.418791 2.6296 
0.383338 0.423531 2.409 
0.35097 0.408126 1.91628 
-0.023856 0.425287 1.44135 
0.312555 0.425287 1.70008 
0.023369 0.425287 1.6729 
-0.329865 0.410594 1.63649 
-0.656133 0.486337 0.269951 
-0.140651 0.465681 4.14176 
-0.55405 0.555007 1.25327 
-0.476372 0.488403 0.551241 
0.648265 0.527778 0.300798 
-0.271762 0.488098 5.12748 
0.105773 0.54295 5.10814 
-0.480056 0.490739 4.1432 
-0.649443 0.608232 0.000333 
-0.587154 0.526524 5.05914 
-0.214199 0.49585 4.27643 
0.214008 0.486541 4.21835 
0.480016 0.4907 4.14331 
-0.032131 0.482169 5.10986 
-0.255726 0.506722 4.44455 
0.497475 0.502999 1.0688 
-0.3089 0.502283 1.06925 
-0.140703 0.508044 0.492493 
-0.518042 0.521721 0.446029 
-0.285832 0.554192 5.05667 
0.372417 0.532724 5.12291 
-0.452956 0.554969 1.10926 
0.581898 0.559539 0.382612 
0.055989 0.572984 5.03597 
-0.583612 0.559068 5.02949 
-0.594093 0.569563 4.55977 
0.580674 0.560593 1.2536 
0.64704 0.570001 0 
0.368043 0.568108 5.06273 
-0.056127 0.57281 4.90238 
-0.369757 0.57068 4.56283 
-0.224581 0.571358 4.90378 
0.035273 0.570478 4.56233 
0.483351 0.60742 0.301021 
-0.593209 0.607213 0.300687 
-0.47917 -0.16487 1.06443 
0.365825 -0.286329 0.26506 
0.120584 -0.290668 0.237548 
-0.395095 -0.285923 0.299631 
-0.451132 -0.290697 0.018175 
0.59435 -0.290463 0.237326 
-0.24859 -0.290189 0.017452 
0.451035 -0.276849 0.012672 
-0.173806 -0.222541 0.42224 
0.05682 -0.244479 0.336536 
0.627353 -0.256738 0.062416 
-0.650086 -0.286464 0.000111 
0.14365 -0.284603 0.000111 
-0.059276 -0.243667 5.01127 
0.447395 -0.245394 5.06334 
0.523699 -0.248442 4.95449 
0.422702 -0.239473 4.54043 
-0.598228 -0.250713 5.03891 
-0.110292 -0.246041 5.06259 
-0.594093 -0.248035 4.56 
-0.310385 -0.238893 1.25488 
-4.8e-05 -0.227318 1.28123 
-0.55567 -0.209135 5.10748 
-0.084274 -0.071022 5.12748 
-0.063266 -0.180486 1.06997 
0.495803 -0.18079 1.07447 
-0.153591 -0.169276 0.843091 
-0.493883 -0.180423 0.873049 
0.093572 -0.180423 0.75244 
-0.461209 -0.161493 0.715869 
-0.594738 -0.147847 4.56239 
0.494327 -0.16755 4.41454 
-0.495064 -0.169248 4.41276 
-0.334588 -0.173991 4.21546 
-0.479958 -0.16989 4.14342 
0.091266 -0.173991 4.21546 
0.479864 -0.169853 4.14354 
-0.450047 -0.148624 1.37638 
0.17942 -0.234935 1.25399 
0.492215 -0.218575 1.27962 
0.385162 -0.104746 1.43841 
0.506329 -0.163014 5.12524 
0.590262 -0.21773 4.97775 
0.569994 -0.19711 4.60468 
0.142819 -0.104338 4.11669 
-0.393082 -0.130076 4.13731 
0.386191 -0.105521 4.11825 
0.252279 -0.102987 3.20018 
0.332669 -0.094586 2.97458 
0.168006 -0.103421 2.85158 
-0.023516 -0.103421 2.68056 
-0.049393 -0.102511 2.40639 
0.384081 -0.103421 2.62954 
-0.312737 -0.103629 1.44074 
-0.483259 0.051316 4.45345 
0.383587 -0.10319 3.58279 
0.28623 -0.102678 3.4813 
-0.341618 -0.089472 2.97552 
-0.367744 -0.090318 2.41745 
-0.286423 -0.103388 2.1495 
-0.47917 -0.16487 1.06443 
-0.501111 -0.185091 0.493716 
0.494622 0.225277 4.41338 
0.481885 0.021993 4.14359 
-0.38413 -0.103422 3.45107 
-0.382305 -0.087781 3.20073 
0.384027 -0.103388 2.4314 
0.383294 -0.102846 2.20669 
0.647335 -0.034821 0.000111 
-0.569444 -0.03296 4.63686 
0.556658 -0.032828 4.50397 
0.598776 0.059069 5.00838 
-0.479323 0.098135 4.22051 
-0.385552 0.062218 4.11669 
0.373554 -0.067534 3.00237 
0.323769 -0.039358 2.87515 
0.321354 -0.036785 2.74726 
-0.540815 -0.049689 5.12254 
-0.590991 0.212822 5.06287 
-0.377439 0.194943 3.42845 
0.371434 -0.067633 3.19606 
0.384081 0.160948 2.85275 
0.374536 0.026326 3.42783 
0.383294 0.176862 3.20012 
-0.372117 -0.052058 2.94084 
-0.382404 -0.053718 2.40583 
-0.597932 0.122347 4.65859 
-0.580769 -0.151468 1.25572 
-0.385508 -0.070344 1.44335 
0.651906 0.300723 0.080869 
0.476324 0.116083 5.12631 
0.580074 -0.113109 1.25711 
-0.580464 0.510549 1.25699 
-0.486747 0.181878 4.37541 
-0.647375 0.372607 0.000111 
0.497879 0.256095 1.06847 
-0.488669 -0.05304 0.528453 
-0.496004 -0.095097 0.842758 
-0.471892 0.485656 5.12724 
-0.354409 0.404697 3.24836 
0.383338 0.423531 2.409 
-0.595079 0.237537 4.56277 
0.480016 0.4907 4.14331 
0.583517 0.561468 4.55221 
-0.382699 0.002117 2.20891 
-0.383334 0.423564 2.20647 
-0.382699 -0.053242 2.1122 
-0.487042 0.495377 4.37742 
0.384081 0.425188 3.45112 
-0.384075 0.425152 2.4314 
0.384081 0.332314 2.14955 
-0.496004 0.204593 1.06986 
0.478542 0.501813 4.41504 
-0.383288 0.424647 3.51782 
0.598877 0.445435 5.00847 
0.384081 0.425287 2.87793 
0.381478 0.292897 3.10052 
0.384081 0.392312 2.65527 
-0.38413 0.276577 2.81429 
0.357909 0.353272 1.7964 
0.540132 0.433378 5.12277 
-0.587154 0.526524 5.05914 
0.366514 0.410797 4.04021 
-0.480056 0.490739 4.1432 
-0.387027 0.426847 4.11825 
-0.649443 0.608232 0.000333 
0.383053 0.37592 3.77493 
0.384081 0.425223 3.16194 
0.385009 0.425965 1.43919 
0.580674 0.560593 1.2536 
-0.49418 0.500389 1.07314 
-0.38413 0.425223 3.16194 
0.647335 0.428982 0.000111 
0.285739 0.426882 4.1173 
0.369224 0.421329 3.67266 
0.04954 0.421397 3.4265 
-0.120285 0.416792 3.55483 
-0.28145 0.423632 2.75237 
0.284843 0.418791 2.6296 
0.366371 0.416421 2.19657 
0.35097 0.408126 1.91628 
0.312555 0.425287 1.70008 
-0.378118 0.42133 1.43263 
-0.656133 0.486337 0.269951 
-0.501363 0.467548 0.492994 
-0.477597 0.49277 0.809688 
0.648265 0.527778 0.300798 
0.497475 0.502999 1.0688 
0.214008 0.486541 4.21835 
-0.214199 0.49585 4.27643 
0.495954 0.502283 0.530454 
-0.271762 0.488098 5.12748 
-0.594093 0.569563 4.55977 
-0.255726 0.506722 4.44455 
-0.3089 0.502283 1.06925 
-0.476372 0.488403 0.551241 
-0.593209 0.607213 0.300687 
0.581898 0.559539 0.382612 
0.372417 0.532724 5.12291 
-0.55405 0.555007 1.25327 
0.105773 0.54295 5.10814 
-0.032131 0.482169 5.10986 
-0.583612 0.559068 5.02949 
-0.285832 0.554192 5.05667 
-0.224581 0.571358 4.90378 
-0.369757 0.57068 4.56283 
0.368043 0.568108 5.06273 
0.035273 0.570478 4.56233 
0.055989 0.572984 5.03597 
-0.056127 0.57281 4.90238 
0.483351 0.60742 0.301021 
0.64704 0.570001 0 
3 3 39 5
3 228 4 6
3 5 229 3
3 1 0 8
3 230 231 2
3 4 2 9
3 4 9 6
3 232 10 7
3 2 231 9
3 9 231 13
3 229 233 11
3 3 229 11
3 10 232 14
3 0 12 8
3 3 11 234
3 1 49 0
3 1 15 49
3 230 2 235
3 2 4 235
3 5 39 236
3 3 30 39
3 30 3 237
3 13 231 238
3 13 239 9
3 56 17 19
3 19 20 18
3 31 35 22
3 240 31 22
3 241 240 22
3 18 20 21
3 242 241 22
3 242 22 23
3 20 243 21
3 27 26 28
3 26 25 28
3 24 32 29
3 25 24 29
3 25 29 28
3 27 28 38
3 16 14 239
3 244 245 33
3 19 18 34
3 243 246 41
3 247 248 42
3 37 28 29
3 89 249 31
3 65 89 31
3 17 250 245
3 56 19 34
3 243 40 21
3 243 41 40
3 36 27 38
3 24 43 32
3 29 32 37
3 28 37 44
3 38 28 44
3 251 227 45
3 251 45 46
3 251 46 252
3 253 254 48
3 252 46 47
3 253 48 255
3 252 47 50
3 47 256 49
3 47 49 50
3 50 49 15
3 50 15 39
3 236 39 15
3 39 30 50
3 35 59 22
3 257 41 246
3 258 259 53
3 60 258 52
3 259 51 53
3 258 53 52
3 260 261 58
3 262 54 263
3 264 43 24
3 63 248 265
3 63 265 266
3 36 38 55
3 44 55 38
3 114 16 239
3 16 10 14
3 259 96 51
3 117 258 60
3 58 61 260
3 61 262 260
3 146 30 237
3 16 7 10
3 61 54 262
3 61 62 54
3 62 263 54
3 62 119 263
3 248 63 42
3 27 36 267
3 254 64 48
3 239 13 114
3 16 94 7
3 65 240 268
3 66 269 270
3 271 272 67
3 273 271 67
3 68 273 67
3 68 67 69
3 71 70 73
3 72 274 75
3 72 75 112
3 73 70 74
3 71 77 275
3 112 75 78
3 75 276 109
3 78 75 109
3 276 76 109
3 73 277 77
3 277 73 79
3 76 80 109
3 73 74 79
3 109 80 81
3 277 79 278
3 279 278 82
3 91 85 84
3 84 85 86
3 84 86 87
3 83 88 280
3 87 86 63
3 264 280 88
3 42 63 86
3 43 115 32
3 13 123 114
3 257 281 41
3 51 96 57
3 97 282 100
3 282 283 100
3 90 274 101
3 101 274 72
3 284 102 285
3 286 105 83
3 286 83 280
3 84 87 92
3 287 64 254
3 48 93 288
3 34 18 56
3 95 281 257
3 40 107 21
3 289 107 40
3 117 60 290
3 108 58 261
3 283 291 98
3 283 98 99
3 292 102 284
3 285 102 103
3 293 80 104
3 286 294 105
3 122 252 50
3 295 146 237
3 114 94 16
3 35 118 296
3 35 296 59
3 66 270 297
3 283 99 100
3 90 99 98
3 90 101 99
3 101 100 99
3 285 103 105
3 80 285 105
3 80 105 104
3 294 104 105
3 92 87 63
3 43 264 88
3 291 110 98
3 90 98 111
3 113 83 105
3 64 93 48
3 50 30 146
3 65 164 89
3 298 56 18
3 101 72 100
3 32 115 106
3 44 116 55
3 261 299 108
3 272 300 67
3 126 301 302
3 120 302 303
3 238 123 13
3 304 305 33
3 298 135 56
3 305 244 33
3 95 127 281
3 67 300 306
3 98 110 111
3 126 307 301
3 308 109 81
3 91 84 92
3 132 68 309
3 115 121 106
3 146 295 124
3 72 310 100
3 120 279 129
3 129 279 82
3 36 55 163
3 153 146 124
3 12 0 125
3 273 68 132
3 311 151 143
3 311 143 312
3 130 94 114
3 296 118 313
3 66 297 142
3 96 131 57
3 70 151 311
3 104 186 293
3 128 314 315
3 116 163 55
3 130 316 94
3 197 164 65
3 65 317 154
3 126 302 120
3 318 145 63
3 100 168 97
3 310 168 100
3 90 169 292
3 133 91 92
3 43 319 115
3 50 146 122
3 304 134 305
3 281 127 320
3 169 90 111
3 113 105 138
3 133 92 144
3 144 92 63
3 144 63 145
3 321 140 238
3 127 137 320
3 106 121 64
3 322 252 122
3 238 140 123
3 103 138 105
3 323 324 136
3 0 49 323
3 141 114 123
3 141 130 114
3 325 134 304
3 147 197 65
3 174 70 326
3 70 174 151
3 139 126 120
3 120 129 139
3 129 82 327
3 159 113 138
3 118 328 313
3 117 290 204
3 299 199 108
3 154 147 65
3 320 137 149
3 62 150 119
3 150 329 119
3 132 309 173
3 294 170 104
3 165 135 298
3 165 298 148
3 289 330 107
3 141 316 130
3 104 170 186
3 331 332 333
3 152 133 144
3 134 201 305
3 131 334 57
3 97 168 335
3 103 336 138
3 294 337 170
3 338 160 324
3 324 160 136
3 289 155 330
3 339 117 204
3 199 156 108
3 300 157 306
3 110 340 111
3 153 122 146
3 341 66 142
3 273 132 179
3 175 139 184
3 342 343 158
3 158 343 344
3 345 176 336
3 337 177 170
3 177 337 346
3 332 191 333
3 333 191 161
3 333 161 315
3 152 144 145
3 152 145 167
3 178 128 315
3 318 167 145
3 218 36 163
3 115 162 121
3 136 0 323
3 317 347 154
3 118 348 328
3 150 62 349
3 126 139 175
3 315 161 178
3 140 200 123
3 200 141 123
3 154 205 147
3 334 350 57
3 300 351 157
3 183 166 111
3 172 168 166
3 169 111 166
3 168 169 166
3 162 171 121
3 125 192 352
3 205 197 147
3 347 212 154
3 349 353 182
3 182 353 335
3 183 172 166
3 335 168 172
3 168 310 354
3 186 170 138
3 138 170 159
3 187 177 346
3 189 346 355
3 318 356 167
3 116 207 163
3 338 357 160
3 0 192 125
3 198 205 154
3 340 183 111
3 354 169 168
3 358 176 345
3 336 186 138
3 177 159 170
3 161 191 178
3 0 136 192
3 153 124 359
3 193 180 156
3 180 150 349
3 180 349 182
3 351 360 181
3 360 361 181
3 351 181 157
3 181 362 363
3 181 363 157
3 181 361 173
3 181 173 362
3 326 175 174
3 175 364 174
3 175 184 364
3 185 342 158
3 184 365 364
3 158 344 185
3 185 344 186
3 364 365 327
3 364 327 143
3 332 366 367
3 332 188 191
3 332 367 190
3 187 346 189
3 188 332 190
3 367 368 190
3 190 368 167
3 190 167 188
3 191 188 178
3 319 369 194
3 115 319 162
3 210 370 371
3 153 196 122
3 359 196 153
3 321 200 140
3 199 193 156
3 329 150 180
3 356 178 188
3 167 356 188
3 371 372 195
3 373 141 219
3 325 201 134
3 348 217 328
3 203 180 193
3 374 322 122
3 334 206 202
3 206 375 202
3 206 339 375
3 334 202 350
3 375 339 204
3 199 376 193
3 376 203 193
3 203 329 180
3 371 195 210
3 373 214 377
3 211 325 378
3 212 198 154
3 137 379 149
3 380 330 155
3 162 213 171
3 171 213 208
3 381 374 122
3 357 381 160
3 160 381 382
3 382 381 209
3 381 122 209
3 226 210 195
3 383 382 209
3 384 209 122
3 165 220 385
3 356 386 178
3 213 207 208
3 213 163 207
3 216 201 325
3 211 216 325
3 387 215 388
3 220 387 385
3 201 216 379
3 379 222 149
3 222 380 149
3 222 224 380
3 224 330 380
3 319 194 162
3 214 373 225
3 225 373 219
3 226 200 370
3 387 220 215
3 389 390 223
3 220 165 148
3 211 378 391
3 378 388 391
3 388 215 221
3 389 223 392
3 391 388 221
3 393 341 142
3 393 394 395
3 389 392 217
3 393 142 394
3 396 395 394
3 396 394 223
3 392 223 394
3 194 218 213
3 194 213 162
3 218 163 213
3 226 370 210
3 397 383 209
3 397 209 384
3 200 219 141
3 383 397 352
3 352 397 398
3 37 32 287
3 32 106 287
3 71 73 77
3 90 292 274
3 287 106 64
3 65 268 317
