ply
format ascii 1.0
comment INFO-3111 Flatenator generated
comment TextureFile Dungeons_Texture_01.png
element vertex 133
property float x
property float y
property float z
property float nx
property float ny
property float nz
property float texture_u
property float texture_v
element face 238
property list uchar int vertex_indices
end_header
0.213737 0.140457 0.335893 0.224064 0.408171 -0.884981 0.212182 0.304582 
0.240626 0.158312 0.444308 0.319803 0.946971 -0.0311946 0.212182 0.304582 
0.315086 0.099781 0.409613 0.802603 0.373805 -0.464862 0.212182 0.304582 
0.321086 0.090096 0.458423 0.937784 0.320679 0.133141 0.212182 0.304582 
0.311771 0.013638 0.407094 0.916067 -0.356973 -0.182734 0.212182 0.304582 
0.273182 -0.026937 0.37849 0.588517 -0.576686 -0.56664 0.212182 0.304582 
0.174967 -0.034215 0.338743 0.0805208 -0.646222 -0.75889 0.212182 0.304582 
0.120205 -0.021565 0.342238 -0.213939 -0.79084 -0.573413 0.212182 0.304582 
0.182617 -0.054713 0.426182 -0.0509801 -0.996752 -0.0623454 0.212182 0.304582 
0.095945 0.128818 0.33655 -0.539628 0.290446 -0.790217 0.212182 0.304582 
0.049132 0.148601 0.401863 -0.530765 0.787495 -0.313275 0.212182 0.304582 
0.2789 0.119896 0.520226 0.675163 0.572509 0.465175 0.212182 0.304582 
0.311468 0.019922 0.47682 0.888164 -0.211364 0.408032 0.212182 0.304582 
0.093144 -0.011327 0.339174 -0.457746 -0.247353 -0.853982 0.212182 0.304582 
0.271596 -0.018908 0.509019 0.507113 -0.834591 0.215162 0.212182 0.304582 
0.018905 0.004297 0.442109 -0.909896 -0.315959 -0.26881 0.212182 0.304582 
0.073033 -0.013559 0.367047 -0.516644 -0.788624 -0.333394 0.212182 0.304582 
0.044565 -0.021058 0.467992 -0.492849 -0.867835 -0.0629421 0.212182 0.304582 
0.234907 0.095813 0.582926 0.356518 0.258567 0.897796 0.212182 0.304582 
0.113951 -0.03829 0.52646 -0.0603549 -0.96312 0.262217 0.212182 0.304582 
0.146877 0.157907 0.547086 -0.0165876 0.887771 0.459986 0.212182 0.304582 
0.234876 -0.002399 0.582968 0.44973 -0.578801 0.680245 0.212182 0.304582 
0.061961 0.158277 0.444406 -0.275709 0.960712 0.0318804 0.212182 0.304582 
0.03731 -0.01564 0.447007 -0.584863 -0.800497 -0.130917 0.212182 0.304582 
0.019287 0.117286 0.511133 -0.806622 0.521285 0.27861 0.212182 0.304582 
0.100511 0.118134 0.571512 -0.397728 0.225324 0.889405 0.212182 0.304582 
0.015655 0.013454 0.509176 -0.857203 -0.192091 0.477812 0.212182 0.304582 
0.116657 -0.020867 0.573284 -0.2095 -0.457926 0.863952 0.212182 0.304582 
0.043591 -0.014989 0.528635 -0.646507 -0.645865 0.406062 0.212182 0.304582 
0.052468 -0.027934 0.493993 -0.395324 -0.91718 0.0500027 0.212182 0.304582 
-0.47642 0.140457 -0.373779 -0.676849 0.40817 0.612595 0.212182 0.304582 
-0.43874 0.158312 -0.478931 -0.283517 0.94697 -0.151217 0.212182 0.304582 
-0.519949 0.099781 -0.491301 -0.925714 0.373799 -0.0576901 0.212182 0.304582 
-0.4979 0.090096 -0.535259 -0.706928 0.320676 -0.630412 0.212182 0.304582 
-0.518584 0.013638 -0.487368 -0.863855 -0.356975 -0.35542 0.212182 0.304582 
-0.502307 -0.026937 -0.442175 -0.803876 -0.576686 0.145657 0.212182 0.304582 
-0.442566 -0.034215 -0.354671 -0.487493 -0.64622 0.587155 0.212182 0.304582 
-0.395041 -0.021565 -0.32724 -0.139595 -0.790838 0.595893 0.212182 0.304582 
-0.400491 -0.054713 -0.431701 0.00789707 -0.996752 0.0801472 0.212182 0.304582 
-0.377996 0.128818 -0.309064 0.0114196 0.290445 0.956824 0.212182 0.304582 
-0.302839 0.148601 -0.3375 0.26829 0.787493 0.554865 0.212182 0.304582 
-0.42854 0.119896 -0.563337 -0.304342 0.572509 -0.761321 0.212182 0.304582 
-0.479701 0.019922 -0.545246 -0.513322 -0.211363 -0.831761 0.212182 0.304582 
-0.374212 -0.011327 -0.309697 -0.0920821 -0.24732 0.964549 0.212182 0.304582 
-0.428669 -0.018908 -0.54996 -0.302958 -0.834591 -0.46008 0.212182 0.304582 
-0.255377 0.004297 -0.354258 0.608545 -0.315942 0.727911 0.212182 0.304582 
-0.342026 -0.013559 -0.321758 0.245387 -0.788609 0.56381 0.212182 0.304582 
-0.262398 -0.021058 -0.390022 0.375416 -0.867837 0.325455 0.212182 0.304582 
-0.357178 0.095813 -0.59116 0.200618 0.258573 -0.94493 0.212182 0.304582 
-0.287768 -0.03829 -0.477138 0.195523 -0.96312 -0.184853 0.212182 0.304582 
-0.303751 0.157907 -0.51255 0.268657 0.887774 -0.373739 0.212182 0.304582 
-0.357128 -0.002399 -0.591178 0.00248932 -0.578802 -0.815464 0.212182 0.304582 
-0.289948 0.158277 -0.380024 0.247189 0.960712 0.126216 0.212182 0.304582 
-0.267986 -0.01564 -0.368531 0.414357 -0.800495 0.433031 0.212182 0.304582 
-0.217453 0.117286 -0.411931 0.825862 0.521287 0.214968 0.212182 0.304582 
-0.251618 0.118134 -0.507197 0.82387 0.225328 -0.520062 0.212182 0.304582 
-0.215513 0.013454 -0.408289 0.978339 -0.192095 0.0771556 0.212182 0.304582 
-0.264078 -0.020867 -0.517618 0.653073 -0.457926 -0.603158 0.212182 0.304582 
-0.227989 -0.014989 -0.439966 0.763181 -0.64587 0.0201488 0.212182 0.304582 
-0.254572 -0.027934 -0.416046 0.356803 -0.917182 0.177396 0.212182 0.304582 
-0.052049 0.16087 0.039897 0.668438 0.563421 -0.485539 0.212182 0.304582 
-0.08673 0.177818 0.070905 0.194115 0.97393 -0.117384 0.212182 0.304582 
0.081845 0.122036 0.2755 0.891793 0.435722 0.121868 0.212182 0.304582 
0.028705 0.147735 0.305257 0.35574 0.716591 0.599956 0.212182 0.304582 
0.01841 -0.067346 0.162332 0.791964 -0.558012 -0.247821 0.212182 0.304582 
-0.106535 0.117563 -0.060018 0.379825 0.483096 -0.788892 0.212182 0.304582 
-0.105035 0.051675 -0.057773 0.666908 -0.000645998 -0.74514 0.212182 0.304582 
0.07896 0.022338 0.270628 0.897714 -0.356527 0.258841 0.212182 0.304582 
-0.107028 -0.008494 -0.059783 0.486802 -0.35706 -0.797203 0.212182 0.304582 
0.046974 0.010423 0.297002 0.572573 -0.290938 0.766496 0.212182 0.304582 
-0.055702 -0.065208 0.030749 0.386932 -0.761142 -0.520525 0.212182 0.304582 
-0.162346 -0.058613 0.002596 0.110502 -0.934898 -0.337276 0.212182 0.304582 
-0.100893 -0.079195 0.043679 0.0723679 -0.953162 -0.293676 0.212182 0.304582 
-0.196251 0.105872 -0.078074 -0.0956294 0.119235 -0.98825 0.212182 0.304582 
-0.291189 0.164356 -0.0212 -0.319923 0.749452 -0.57963 0.212182 0.304582 
-0.229944 -0.048512 -0.061952 -0.051974 -0.820164 -0.569763 0.212182 0.304582 
-0.17012 -0.059796 0.00668 0.0749001 -0.994929 -0.0671212 0.212182 0.304582 
-0.175315 -0.060262 0.011818 -0.0500727 -0.988339 -0.143799 0.212182 0.304582 
-0.125026 -0.103022 0.151224 -0.0243779 -0.999682 -0.00650507 0.212182 0.304582 
-0.055617 -0.05069 0.341486 0.398119 -0.652634 0.644647 0.212182 0.304582 
-0.041489 0.175161 0.269741 0.11043 0.983372 0.144167 0.212182 0.304582 
-0.226145 0.060609 0.414064 -0.212602 0.27233 0.938422 0.212182 0.304582 
-0.264224 0.177632 0.046374 -0.0656135 0.992352 -0.104562 0.212182 0.304582 
-0.32753 -0.04948 -0.000521 -0.51921 -0.603287 -0.605365 0.212182 0.304582 
-0.303225 0.178116 0.135707 -0.307057 0.949546 0.063859 0.212182 0.304582 
-0.327404 -0.057311 0.096847 -0.39211 -0.908712 -0.143152 0.212182 0.304582 
-0.223437 -0.026599 0.416967 -0.178329 -0.68675 0.70468 0.212182 0.304582 
-0.235306 0.176061 0.271977 -0.0878051 0.880283 0.466253 0.212182 0.304582 
-0.377807 -0.01717 0.039752 -0.84214 -0.350403 -0.4099 0.212182 0.304582 
-0.262966 0.122385 0.346912 -0.668769 0.535643 0.515592 0.212182 0.304582 
-0.399689 0.107368 0.090624 -0.915473 0.397805 -0.0604994 0.212182 0.304582 
-0.397368 0.002897 0.10808 -0.917654 -0.342791 0.20101 0.212182 0.304582 
-0.283361 -0.055077 0.310686 -0.662683 -0.635975 0.395458 0.212182 0.304582 
-0.33048 -0.06655 0.134771 -0.466974 -0.883664 -0.0327613 0.212182 0.304582 
0.311065 0.08013 0.414705 -0.146958 0.42845 0.891535 0.212182 0.304582 
0.27327 0.094271 0.334722 -0.231068 0.972028 -0.0420648 0.212182 0.304582 
0.220869 0.047916 0.373279 -0.929382 0.298793 0.216731 0.212182 0.304582 
0.258262 -0.052441 0.390906 -0.395681 -0.750881 0.528786 0.212182 0.304582 
0.404187 -0.040078 0.393342 0.433646 -0.590584 0.68056 0.212182 0.304582 
0.402423 0.070912 0.395816 0.568271 0.73891 0.362051 0.212182 0.304582 
0.256082 0.044774 0.226199 -0.523684 0.365265 -0.769634 0.212182 0.304582 
0.2561 -0.033007 0.226161 -0.69949 -0.499617 -0.510976 0.212182 0.304582 
0.44577 -0.027704 0.301834 0.963559 -0.258658 0.0681916 0.212182 0.304582 
0.413101 -0.042979 0.238503 0.343108 -0.661842 -0.666515 0.212182 0.304582 
0.362216 0.062451 0.214092 0.117627 0.731671 -0.671433 0.212182 0.304582 
0.434703 0.061779 0.2483 0.82009 0.385279 -0.423099 0.212182 0.304582 
0.076717 0.093851 -0.60194 -0.543498 0.810098 0.21989 0.212182 0.304582 
0.061559 0.066617 -0.682262 -0.63802 0.469352 -0.610442 0.212182 0.304582 
0.030447 -0.056648 -0.651868 -0.798293 -0.599172 -0.0610082 0.212182 0.304582 
0.127714 -0.040789 -0.509949 -0.379131 -0.183333 0.907 0.212182 0.304582 
0.177416 0.063922 -0.728826 0.340408 0.72251 -0.601749 0.212182 0.304582 
0.133112 0.086756 -0.549407 0.120295 0.515363 0.848487 0.212182 0.304582 
0.187395 -0.034247 -0.766612 -0.0144287 -0.201452 -0.979392 0.212182 0.304582 
0.282754 -0.044607 -0.607076 0.886456 -0.38765 0.252829 0.212182 0.304582 
0.247872 0.079096 -0.598116 0.517564 0.847468 0.118003 0.212182 0.304582 
-0.352979 0.064398 0.708263 -0.434829 0.847423 -0.304627 0.212182 0.304582 
-0.31258 0.045442 0.666381 0.13982 0.586224 -0.797992 0.212182 0.304582 
-0.349953 -0.043631 0.645833 -0.408149 -0.507014 -0.759179 0.212182 0.304582 
-0.403688 -0.030364 0.781441 -0.982249 -0.0238747 0.186054 0.212182 0.304582 
-0.240079 0.044326 0.71705 0.605123 0.794876 -0.0446999 0.212182 0.304582 
-0.362617 0.059567 0.761476 -0.578582 0.619429 0.530614 0.212182 0.304582 
-0.195059 -0.023444 0.701721 0.816233 0.0106698 -0.577624 0.212182 0.304582 
-0.26192 -0.032487 0.844372 0.296366 -0.216421 0.930231 0.212182 0.304582 
-0.288309 0.054715 0.808839 0.167625 0.8804 0.443618 0.212182 0.304582 
0.481433 0.061276 -0.409056 0.0430671 0.846755 -0.530237 0.212182 0.304582 
0.537962 0.042777 -0.394643 0.758137 0.591479 -0.274554 0.212182 0.304582 
0.538 -0.04638 -0.437114 0.461556 -0.504925 -0.729394 0.212182 0.304582 
0.393473 -0.034174 -0.416723 -0.647564 -0.0302706 -0.761409 0.212182 0.304582 
0.52982 0.041769 -0.306565 0.332243 0.798398 0.50217 0.212182 0.304582 
0.430461 0.056091 -0.391087 -0.752104 0.613259 -0.241356 0.212182 0.304582 
0.565934 -0.025667 -0.274899 0.905762 0.0183802 0.423389 0.212182 0.304582 
0.408961 -0.035882 -0.262385 -0.660006 -0.220061 0.718307 0.212182 0.304582 
0.426115 0.051375 -0.303069 -0.309228 0.878772 0.363507 0.212182 0.304582 
3 0 1 2
3 2 3 4
3 5 2 4
3 0 2 5
3 0 5 6
3 0 6 7
3 8 6 5
3 9 10 0
3 2 1 3
3 8 7 6
3 10 1 0
3 1 11 3
3 3 12 4
3 0 7 13
3 5 4 14
3 5 14 8
3 3 11 12
3 9 0 13
3 4 12 14
3 15 9 13
3 15 13 16
3 16 13 7
3 17 16 7
3 15 10 9
3 11 18 12
3 14 19 8
3 1 20 11
3 21 14 12
3 22 1 10
3 16 17 23
3 12 18 21
3 22 20 1
3 15 16 23
3 22 10 24
3 24 10 15
3 14 21 19
3 24 20 22
3 20 18 11
3 15 23 17
3 8 17 7
3 25 18 20
3 20 24 25
3 24 15 26
3 25 24 26
3 18 25 27
3 25 28 27
3 26 15 28
3 25 26 28
3 27 28 19
3 27 19 21
3 28 15 17
3 18 27 21
3 28 17 29
3 19 28 29
3 19 29 8
3 29 17 8
3 30 31 32
3 32 33 34
3 35 32 34
3 30 32 35
3 30 35 36
3 30 36 37
3 38 36 35
3 39 40 30
3 32 31 33
3 38 37 36
3 40 31 30
3 31 41 33
3 33 42 34
3 30 37 43
3 35 34 44
3 35 44 38
3 33 41 42
3 39 30 43
3 34 42 44
3 45 39 43
3 45 43 46
3 46 43 37
3 47 46 37
3 45 40 39
3 41 48 42
3 44 49 38
3 31 50 41
3 51 44 42
3 52 31 40
3 46 47 53
3 42 48 51
3 52 50 31
3 45 46 53
3 52 40 54
3 54 40 45
3 44 51 49
3 54 50 52
3 50 48 41
3 45 53 47
3 38 47 37
3 55 48 50
3 50 54 55
3 54 45 56
3 55 54 56
3 48 55 57
3 55 58 57
3 56 45 58
3 55 56 58
3 57 58 49
3 57 49 51
3 58 45 47
3 48 57 51
3 58 47 59
3 49 58 59
3 49 59 38
3 59 47 38
3 60 61 62
3 61 63 62
3 62 64 60
3 65 60 66
3 60 64 66
3 64 62 67
3 66 64 68
3 64 67 69
3 64 70 68
3 68 70 71
3 70 64 72
3 70 72 71
3 62 69 67
3 73 66 68
3 63 69 62
3 65 66 73
3 74 61 60
3 75 68 71
3 73 68 75
3 76 71 77
3 78 72 64
3 77 71 72
3 64 69 79
3 64 79 78
3 61 80 63
3 63 81 69
3 78 77 72
3 74 60 65
3 76 75 71
3 82 61 74
3 77 75 76
3 83 75 77
3 81 79 69
3 84 80 61
3 84 61 82
3 73 75 83
3 65 73 74
3 74 73 83
3 85 83 77
3 79 81 86
3 87 63 80
3 74 84 82
3 87 80 84
3 88 74 83
3 63 87 81
3 84 89 87
3 86 78 79
3 88 83 85
3 78 85 77
3 84 74 90
3 90 74 88
3 90 88 91
3 89 84 90
3 89 90 91
3 87 89 81
3 89 91 81
3 81 91 92
3 91 88 85
3 86 81 92
3 91 93 92
3 91 85 93
3 86 92 78
3 92 93 78
3 93 85 78
3 94 95 96
3 94 96 97
3 94 97 98
3 99 95 94
3 95 100 96
3 99 94 98
3 97 96 101
3 102 99 98
3 101 103 97
3 95 104 100
3 96 100 101
3 99 104 95
3 102 98 103
3 105 99 102
3 105 104 99
3 97 103 98
3 105 102 103
3 104 105 103
3 100 104 103
3 100 103 101
3 106 107 108
3 106 108 109
3 106 110 107
3 111 106 109
3 108 107 112
3 113 111 109
3 112 113 108
3 106 114 110
3 107 110 112
3 111 114 106
3 114 111 113
3 108 113 109
3 110 114 113
3 110 113 112
3 115 116 117
3 115 117 118
3 115 119 116
3 120 115 118
3 117 116 121
3 122 120 118
3 121 122 117
3 115 123 119
3 116 119 121
3 120 123 115
3 123 120 122
3 117 122 118
3 119 123 122
3 119 122 121
3 124 125 126
3 124 126 127
3 124 128 125
3 129 124 127
3 126 125 130
3 131 129 127
3 130 131 126
3 124 132 128
3 125 128 130
3 129 132 124
3 132 129 131
3 126 131 127
3 128 132 131
3 128 131 130
