ply
format ascii 1.0
comment INFO-3111 Flatenator generated
comment TextureFile Dungeons_Texture_01.png
element vertex 14
property float x
property float y
property float z
element face 24
property list uchar int vertex_indices
end_header
0.307379 -0.05029 -0.181581 
0.307379 -0.10058 -0.09079 
0.153688 -0.10058 -0.181581 
-0.307377 0.05029 -0.181581 
-0.307377 0.10058 -0.09079 
-0.153688 0.10058 -0.181581 
0.307379 0.05029 0.181581 
0.307379 0.10058 0.09079 
0.153688 0.10058 0.181581 
-0.307377 -0.10058 -0.181581 
-0.307377 -0.10058 0.181581 
-0.307377 0.10058 0.181581 
0.307379 0.10058 -0.181581 
0.307379 -0.10058 0.181581 
3 0 1 2
3 3 4 5
3 6 7 8
3 10 11 4
3 12 5 8
3 13 6 8
3 12 7 1
3 2 13 10
3 2 9 5
3 3 9 4
3 9 10 4
3 4 11 5
3 11 8 5
3 8 7 12
3 11 10 8
3 10 13 8
3 6 13 7
3 13 1 7
3 1 0 12
3 10 9 2
3 2 1 13
3 9 3 5
3 5 12 2
3 12 0 2
