ply
format ascii 1.0
comment VCGLIB generated
comment TextureFile Dungeons_Texture_01.png
element vertex 96
property float x
property float y
property float z
property float nx
property float ny
property float nz
property uchar red
property uchar green
property uchar blue
property uchar alpha
property float texture_u
property float texture_v
element face 168
property list uchar int vertex_indices
end_header
0.183207 0.16087 0.100393 0.4167068 0.5830335 0.6974435 120 116 110 255 0.212182 0.304582
0.145214 0.177818 0.067814 0.1138735 0.9731241 0.2001561 120 116 110 255 0.212182 0.304582
-0.170197 0.122036 0.270276 -0.1112553 0.4160824 0.9024953 120 116 110 255 0.212182 0.304582
-0.203423 0.147735 0.218153 -0.5546128 0.7540494 0.3518724 120 116 110 255 0.212182 0.304582
-0.000588 -0.067346 0.189599 0.2398421 -0.5631374 0.790792 120 116 110 255 0.212182 0.304582
0.332706 0.117563 0.030759 0.7030382 0.5446603 0.4572554 120 116 110 255 0.212182 0.304582
0.329302 0.051675 0.032614 0.6736856 -0.0009958338 0.7390174 120 116 110 255 0.212182 0.304582
-0.162869 0.022338 0.266641 -0.1854547 -0.3755183 0.9080708 120 116 110 255 0.212182 0.304582
0.332455 -0.008494 0.030271 0.719512 -0.3791209 0.5818676 120 116 110 255 0.212182 0.304582
-0.19478 0.010423 0.236318 -0.732622 -0.314299 0.6037228 120 116 110 255 0.212182 0.304582
0.196678 -0.065208 0.09542 0.4243614 -0.792414 0.4381752 120 116 110 255 0.212182 0.304582
0.25367 -0.058613 -0.02009 0.2597501 -0.9537406 0.1513563 120 116 110 255 0.212182 0.304582
0.185839 -0.079195 0.049557 0.2242734 -0.9690219 0.1034319 120 116 110 255 0.212182 0.304582
0.359709 0.105872 -0.043891 0.9898474 0.1395767 -0.02684255 120 116 110 255 0.212182 0.304582
0.284075 0.164356 -0.165327 0.4964741 0.7947049 -0.3492244 120 116 110 255 0.212182 0.304582
0.342506 -0.048512 -0.077279 0.5317283 -0.8467482 -0.01680771 120 116 110 255 0.212182 0.304582
0.249188 -0.059796 -0.027749 0.05952665 -0.9954378 0.07456668 120 116 110 255 0.212182 0.304582
0.242803 -0.060262 -0.032568 0.1055101 -0.9937494 -0.0364676 120 116 110 255 0.212182 0.304582
0.038408 -0.103022 0.037559 -0.002251481 -0.9996438 -0.02659339 120 116 110 255 0.212182 0.304582
-0.240679 -0.05069 0.134082 -0.6270061 -0.6965804 0.3487681 120 116 110 255 0.212182 0.304582
-0.142003 0.175161 0.140016 -0.07995564 0.9908317 0.1089019 120 116 110 255 0.212182 0.304582
-0.292912 0.060609 -0.022714 -0.9797615 0.1761382 -0.09509315 120 116 110 255 0.212182 0.304582
0.208648 0.177632 -0.121665 0.09124536 0.9948292 -0.04460097 120 116 110 255 0.212182 0.304582
0.260889 -0.04948 -0.200931 0.5327328 -0.6031575 -0.5936302 120 116 110 255 0.212182 0.304582
0.08927 0.178116 -0.151542 -0.06053479 0.9610695 -0.2695943 120 116 110 255 0.212182 0.304582
0.147901 -0.057311 -0.181763 0.06710861 -0.9200947 -0.3859044 120 116 110 255 0.212182 0.304582
-0.281951 -0.026599 0.010554 -0.6805355 -0.7209786 -0.1306195 120 116 110 255 0.212182 0.304582
-0.148482 0.176061 -0.023165 -0.3918378 0.9143311 -0.1022832 120 116 110 255 0.212182 0.304582
0.206972 -0.01717 -0.23648 0.3013143 -0.3517367 -0.8862793 120 116 110 255 0.212182 0.304582
-0.209149 0.122385 -0.103569 -0.4637215 0.6031535 -0.6489748 120 116 110 255 0.212182 0.304582
0.168432 0.107368 -0.258461 0.05965265 0.3728656 -0.9259659 120 116 110 255 0.212182 0.304582
0.143486 0.002897 -0.253856 -0.1340361 -0.3421915 -0.9300211 120 116 110 255 0.212182 0.304582
-0.217939 0.044975 -0.140102 -0.6042124 -0.01031074 -0.7967566 120 116 110 255 0.212182 0.304582
-0.154842 -0.055077 -0.129488 -0.4389021 -0.715232 -0.5438825 120 116 110 255 0.212182 0.304582
0.095026 -0.06655 -0.180286 0.005362083 -0.8947698 -0.4464955 120 116 110 255 0.212182 0.304582
-0.33567 0.153661 0.449915 0.8230025 0.484686 0.2962205 120 116 110 255 0.212182 0.304582
-0.479906 0.177149 0.477977 0.004535911 0.9531452 0.3024793 120 116 110 255 0.212182 0.304582
-0.439314 0.100153 0.578126 0.2680315 0.3570196 0.8948163 120 116 110 255 0.212182 0.304582
-0.395618 -0.066543 0.525158 0.5359222 -0.5766897 0.616617 120 116 110 255 0.212182 0.304582
-0.435783 -0.013167 0.573939 0.1534611 -0.419996 0.8944569 120 116 110 255 0.212182 0.304582
-0.336817 -0.076117 0.398789 0.7518695 -0.647128 0.1261651 120 116 110 255 0.212182 0.304582
-0.331898 -0.046008 0.291264 0.710121 -0.6006325 -0.3673807 120 116 110 255 0.212182 0.304582
-0.452204 -0.103082 0.402979 0.01769632 -0.9998206 -0.006763396 120 116 110 255 0.212182 0.304582
-0.328639 0.13835 0.295118 0.8166859 0.2904443 -0.4986645 120 116 110 255 0.212182 0.304582
-0.411308 0.164376 0.22924 0.2730909 0.8416818 -0.4658253 120 116 110 255 0.212182 0.304582
-0.582211 0.126615 0.523171 -0.4319496 0.602389 0.6712281 120 116 110 255 0.212182 0.304582
-0.527367 -0.0049 0.568867 -0.4060694 -0.1680423 0.8982592 120 116 110 255 0.212182 0.304582
-0.566997 -0.05598 0.514327 -0.242856 -0.8375384 0.4894388 120 116 110 255 0.212182 0.304582
-0.462157 -0.025455 0.186829 0.2995926 -0.2927299 -0.9080493 120 116 110 255 0.212182 0.304582
-0.661636 0.094933 0.461172 -0.9147928 0.2585695 0.3103159 120 116 110 255 0.212182 0.304582
-0.641044 -0.058558 0.306464 -0.6911578 -0.7000564 -0.1795046 120 116 110 255 0.212182 0.304582
-0.60865 0.176617 0.347922 -0.4295692 0.9020493 -0.04215903 120 116 110 255 0.212182 0.304582
-0.66169 -0.034263 0.461129 -0.7649528 -0.4298877 0.4796289 120 116 110 255 0.212182 0.304582
-0.532571 -0.067855 0.227448 -0.006680882 -0.9195851 -0.3928341 120 116 110 255 0.212182 0.304582
-0.552866 0.12318 0.182706 -0.337541 0.4251235 -0.8398429 120 116 110 255 0.212182 0.304582
-0.637634 0.124296 0.28537 -0.8760164 0.2737066 -0.3970895 120 116 110 255 0.212182 0.304582
-0.577487 -0.050826 0.213464 -0.4951969 -0.4274906 -0.7563279 120 116 110 255 0.212182 0.304582
0.311065 0.08013 0.414705 -0.1469581 0.4284497 0.8915347 120 116 110 255 0.212182 0.304582
0.27327 0.094271 0.334722 -0.2310688 0.9720276 -0.04206624 120 116 110 255 0.212182 0.304582
0.220869 0.047916 0.373279 -0.9293817 0.2987955 0.2167278 120 116 110 255 0.212182 0.304582
0.258262 -0.052441 0.390906 -0.3956805 -0.7508813 0.5287857 120 116 110 255 0.212182 0.304582
0.404186 -0.040078 0.393342 0.4336427 -0.5905852 0.6805608 120 116 110 255 0.212182 0.304582
0.402423 0.070912 0.395816 0.568271 0.7389086 0.3620528 120 116 110 255 0.212182 0.304582
0.256083 0.044774 0.226199 -0.5236822 0.3652659 -0.7696348 120 116 110 255 0.212182 0.304582
0.2561 -0.033007 0.226161 -0.6994903 -0.4996135 -0.5109792 120 116 110 255 0.212182 0.304582
0.44577 -0.027704 0.301834 0.963558 -0.2586611 0.06819454 120 116 110 255 0.212182 0.304582
0.413101 -0.042979 0.238503 0.3431072 -0.661843 -0.6665143 120 116 110 255 0.212182 0.304582
0.362216 0.062451 0.214092 0.1176258 0.7316705 -0.6714331 120 116 110 255 0.212182 0.304582
0.434703 0.061779 0.2483 0.8200901 0.385279 -0.4230987 120 116 110 255 0.212182 0.304582
0.048535 0.093851 -1.090539 -0.5435013 0.8100962 0.2198877 120 116 110 255 0.212182 0.304582
0.033377 0.066617 -1.17086 -0.6380229 0.4693478 -0.610442 120 116 110 255 0.212182 0.304582
0.002265 -0.056648 -1.140466 -0.7982931 -0.5991713 -0.06100819 120 116 110 255 0.212182 0.304582
0.099532 -0.040789 -0.998547 -0.3791375 -0.1833343 0.9069968 120 116 110 255 0.212182 0.304582
0.149234 0.063922 -1.217425 0.3404067 0.7225091 -0.6017507 120 116 110 255 0.212182 0.304582
0.104929 0.086756 -1.038005 0.1202904 0.5153615 0.8484885 120 116 110 255 0.212182 0.304582
0.159213 -0.034247 -1.25521 -0.01443238 -0.2014576 -0.9793909 120 116 110 255 0.212182 0.304582
0.254572 -0.044607 -1.095675 0.8864558 -0.3876517 0.2528285 120 116 110 255 0.212182 0.304582
0.21969 0.079096 -1.086714 0.5175644 0.847468 0.1180054 120 116 110 255 0.212182 0.304582
-1.305905 0.064398 0.517373 -0.4348289 0.8474239 -0.3046256 120 116 110 255 0.212182 0.304582
-1.265506 0.045442 0.47549 0.1398187 0.5862238 -0.7979927 120 116 110 255 0.212182 0.304582
-1.302879 -0.043631 0.454943 -0.4081502 -0.5070159 -0.759176 120 116 110 255 0.212182 0.304582
-1.356615 -0.030364 0.59055 -0.9822497 -0.02387154 0.1860532 120 116 110 255 0.212182 0.304582
-1.193006 0.044326 0.526159 0.6051216 0.7948773 -0.04469989 120 116 110 255 0.212182 0.304582
-1.315543 0.059567 0.570586 -0.5785769 0.6194314 0.5306162 120 116 110 255 0.212182 0.304582
-1.147985 -0.023444 0.510831 0.8162336 0.01067094 -0.5776235 120 116 110 255 0.212182 0.304582
-1.214846 -0.032487 0.653481 0.296369 -0.2164166 0.9302308 120 116 110 255 0.212182 0.304582
-1.241235 0.054715 0.617948 0.1676309 0.8804002 0.4436164 120 116 110 255 0.212182 0.304582
0.481433 0.061276 -0.409056 0.04306715 0.8467551 -0.5302368 120 116 110 255 0.212182 0.304582
0.537962 0.042777 -0.394643 0.7581372 0.5914795 -0.2745542 120 116 110 255 0.212182 0.304582
0.538 -0.04638 -0.437114 0.4615565 -0.5049254 -0.7293943 120 116 110 255 0.212182 0.304582
0.393473 -0.034174 -0.416723 -0.6475645 -0.0302706 -0.7614092 120 116 110 255 0.212182 0.304582
0.52982 0.041769 -0.306565 0.3322429 0.7983981 0.5021704 120 116 110 255 0.212182 0.304582
0.430461 0.056091 -0.391087 -0.7521039 0.6132595 -0.241356 120 116 110 255 0.212182 0.304582
0.565934 -0.025667 -0.274899 0.9057618 0.01838015 0.4233886 120 116 110 255 0.212182 0.304582
0.408961 -0.035882 -0.262385 -0.6600063 -0.2200613 0.7183069 120 116 110 255 0.212182 0.304582
0.426115 0.051375 -0.303069 -0.309228 0.8787721 0.3635074 120 116 110 255 0.212182 0.304582
3 0 1 2 
3 1 3 2 
3 2 4 0 
3 5 0 6 
3 0 4 6 
3 4 2 7 
3 6 4 8 
3 4 7 9 
3 4 10 8 
3 8 10 11 
3 10 4 12 
3 10 12 11 
3 2 9 7 
3 13 6 8 
3 3 9 2 
3 5 6 13 
3 14 1 0 
3 15 8 11 
3 13 8 15 
3 16 11 17 
3 18 12 4 
3 17 11 12 
3 4 9 19 
3 4 19 18 
3 1 20 3 
3 3 21 9 
3 18 17 12 
3 14 0 5 
3 16 15 11 
3 22 1 14 
3 17 15 16 
3 23 15 17 
3 21 19 9 
3 24 20 1 
3 24 1 22 
3 13 15 23 
3 5 13 14 
3 14 13 23 
3 25 23 17 
3 19 21 26 
3 27 3 20 
3 14 24 22 
3 27 20 24 
3 28 14 23 
3 3 27 21 
3 24 29 27 
3 26 18 19 
3 28 23 25 
3 18 25 17 
3 24 14 30 
3 30 14 28 
3 30 28 31 
3 29 24 30 
3 29 30 31 
3 27 29 21 
3 29 31 32 
3 33 32 31 
3 31 28 25 
3 26 21 33 
3 31 34 33 
3 31 25 34 
3 26 33 18 
3 33 34 18 
3 34 25 18 
3 35 36 37 
3 38 37 39 
3 35 37 38 
3 35 38 40 
3 35 40 41 
3 42 40 38 
3 43 44 35 
3 42 41 40 
3 44 36 35 
3 36 45 37 
3 37 46 39 
3 38 39 47 
3 38 47 42 
3 37 45 46 
3 43 35 41 
3 39 46 47 
3 48 43 41 
3 48 44 43 
3 45 49 46 
3 47 50 42 
3 36 51 45 
3 52 47 46 
3 46 49 52 
3 44 51 36 
3 48 41 53 
3 54 44 48 
3 47 52 50 
3 54 51 44 
3 51 49 45 
3 42 53 41 
3 55 49 51 
3 51 54 55 
3 54 48 56 
3 55 54 56 
3 49 55 50 
3 55 56 50 
3 56 48 53 
3 49 50 52 
3 50 56 53 
3 50 53 42 
3 57 58 59 
3 57 59 60 
3 57 60 61 
3 62 58 57 
3 58 63 59 
3 62 57 61 
3 60 59 64 
3 65 62 61 
3 64 66 60 
3 58 67 63 
3 59 63 64 
3 62 67 58 
3 65 61 66 
3 68 62 65 
3 68 67 62 
3 60 66 61 
3 68 65 66 
3 67 68 66 
3 63 67 66 
3 63 66 64 
3 69 70 71 
3 69 71 72 
3 69 73 70 
3 74 69 72 
3 71 70 75 
3 76 74 72 
3 75 76 71 
3 69 77 73 
3 70 73 75 
3 74 77 69 
3 77 74 76 
3 71 76 72 
3 73 77 76 
3 73 76 75 
3 78 79 80 
3 78 80 81 
3 78 82 79 
3 83 78 81 
3 80 79 84 
3 85 83 81 
3 84 85 80 
3 78 86 82 
3 79 82 84 
3 83 86 78 
3 86 83 85 
3 80 85 81 
3 82 86 85 
3 82 85 84 
3 87 88 89 
3 87 89 90 
3 87 91 88 
3 92 87 90 
3 89 88 93 
3 94 92 90 
3 93 94 89 
3 87 95 91 
3 88 91 93 
3 92 95 87 
3 95 92 94 
3 89 94 90 
3 91 95 94 
3 91 94 93 
3 21 32 33 
3 29 32 21 
