ply
format ascii 1.0
comment INFO-3111 Flatenator generated
comment TextureFile Dungeons_Texture_01.png
element vertex 327
property float x
property float y
property float z
property float nx
property float ny
property float nz
property uchar red
property uchar green
property uchar blue
property uchar alpha
property float texture_u
property float texture_v
element face 498
property list uchar int vertex_indices
end_header
1.09238 0.042619 4.99785 -0.00941537 0.735189 0.677797 97 95 95 255 0.20003 0.278154 
0.00415 0.030964 4.99605 -0.202965 0.867704 0.453756 97 95 95 255 0.20003 0.278154 
0.42832 -1e-06 5 -0.000549299 -0.780767 0.624823 97 95 95 255 0.20003 0.278154 
0 -1e-06 5 -0.844794 -0.319041 0.429577 97 95 95 255 0.20003 0.278154 
2.08848 0.042619 4.99784 -0.00018077 0.719299 0.694701 97 95 95 255 0.20003 0.278154 
1.36582 -1e-06 5 3.3951e-06 -0.525052 0.85107 97 95 95 255 0.20003 0.278154 
3.4752 0.041084 4.99724 0.000269941 0.803891 0.594776 97 95 95 255 0.20003 0.278154 
2.44004 0.042619 4.99784 0.000577684 0.83388 0.551946 97 95 95 255 0.20003 0.278154 
2.5377 -1e-06 5 0.000134619 -0.571213 0.820802 97 95 95 255 0.20003 0.278154 
4.17832 -1e-06 5 -3.20104e-06 -0.683075 0.730348 97 95 95 255 0.20003 0.278154 
4.74473 0.042004 4.9972 -0.00144079 0.720348 0.693612 97 95 95 255 0.20003 0.278154 
5 -1e-06 5 0.416622 -0.35663 0.836206 97 95 95 255 0.20003 0.278154 
4.99826 0.042544 4.99825 0.646209 0.6891 0.327956 97 95 95 255 0.20003 0.278154 
0.58469 0.029484 4.89402 0.0002532 0.99426 0.106986 97 95 95 255 0.20003 0.278154 
2.61689 0.045444 4.84205 0.000326144 0.939521 0.342492 97 95 95 255 0.20003 0.278154 
4.76355 0.045059 4.82368 0.16118 0.922772 0.350017 97 95 95 255 0.20003 0.278154 
1.11122 0.044519 4.84191 -0.016713 0.867042 0.497955 97 95 95 255 0.20003 0.278154 
3.90513 0.045444 4.84205 0.00239401 0.784527 0.62009 97 95 95 255 0.20003 0.278154 
-0.00058 0.042619 4.68613 -0.821189 0.570444 0.0155706 97 95 95 255 0.20003 0.278154 
5 -1e-06 3.39707 0.649088 -0.760707 0.00303228 97 95 95 255 0.20003 0.278154 
2.26442 0.045444 4.84205 0.00784256 0.901801 0.43208 97 95 95 255 0.20003 0.278154 
5 -1e-06 4.15879 0.933528 -0.358494 -0.00282211 97 95 95 255 0.20003 0.278154 
0.466919 0.045024 4.84191 0.00662966 0.885754 0.464108 97 95 95 255 0.20003 0.278154 
0 0 1.67832 -0.314938 -0.949112 -2.55969e-07 97 95 95 255 0.20003 0.278154 
0.175249 0.044329 4.84248 -0.213095 0.948891 0.232803 97 95 95 255 0.20003 0.278154 
3.45628 0.045439 4.84206 -0.000876948 0.85229 0.523068 97 95 95 255 0.20003 0.278154 
0.32716 0.098894 4.78664 -0.0386307 0.88237 0.468968 97 95 95 255 0.20003 0.278154 
0.183029 0.081779 4.78672 -0.703618 0.680844 0.203407 97 95 95 255 0.20003 0.278154 
0.80308 0.078949 4.8066 0.0152649 0.827058 0.56191 97 95 95 255 0.20003 0.278154 
0.981649 0.099769 4.76738 -0.0638836 0.745363 0.66359 97 95 95 255 0.20003 0.278154 
1.31959 0.098269 4.746 -0.00415933 0.999355 0.0356731 97 95 95 255 0.20003 0.278154 
1.21364 0.095219 4.81909 -0.0530783 0.763972 0.643062 97 95 95 255 0.20003 0.278154 
1.89101 0.098534 4.8052 0.0224449 0.771313 0.63606 97 95 95 255 0.20003 0.278154 
2.71169 0.082624 4.8096 -0.00377469 0.746239 0.665668 97 95 95 255 0.20003 0.278154 
2.13963 0.091044 4.78457 0.0261636 0.810029 0.585806 97 95 95 255 0.20003 0.278154 
4.33518 0.092434 4.81569 0.0151977 0.308859 0.950986 97 95 95 255 0.20003 0.278154 
3.87183 0.094944 4.82382 -0.0143372 0.606278 0.795124 97 95 95 255 0.20003 0.278154 
4.73279 0.089529 4.81354 0.825579 0.349378 0.443119 97 95 95 255 0.20003 0.278154 
3.33628 0.079104 4.81547 -0.0126093 0.744968 0.666981 97 95 95 255 0.20003 0.278154 
3.39036 0.100784 4.74793 -0.0151444 0.955504 0.294591 97 95 95 255 0.20003 0.278154 
0.57103 0.100744 4.74788 0.0306414 0.970504 0.239131 97 95 95 255 0.20003 0.278154 
0 -1e-06 4.21738 -0.891221 -0.45357 0.000167208 97 95 95 255 0.20003 0.278154 
0.17915 0.099864 4.51089 -0.932724 0.359265 -0.0309137 97 95 95 255 0.20003 0.278154 
1.10577 0.101034 4.65043 -0.00189181 0.999916 0.0128001 120 120 119 255 0.20003 0.302006 
2.01632 0.101034 4.64996 0.00109593 0.999653 0.0263133 120 120 119 255 0.20003 0.302006 
4.47755 0.100834 3.69159 0.0277702 0.99961 0.00287392 120 120 119 255 0.20003 0.302006 
4.54928 0.101034 4.16331 0.0262347 0.999652 -0.00266894 120 120 119 255 0.20003 0.302006 
0.83835 0.097314 4.57455 -0.0521194 0.997788 0.0412649 120 120 119 255 0.20003 0.302006 
0.176939 0.053894 4.61027 -0.801532 0.597582 -0.0210344 97 95 95 255 0.20003 0.278154 
4.99785 0.042619 4.3541 0.459444 0.888189 -0.00561695 97 95 95 255 0.20003 0.278154 
4.7464 0.053949 4.18787 0.80529 0.592839 0.00704949 97 95 95 255 0.20003 0.278154 
0.411589 0.084914 4.41203 0.0209042 0.998686 -0.0467956 120 120 119 255 0.20003 0.302006 
0.208719 0.085929 4.35648 0.0327621 0.996444 -0.0776244 120 120 119 255 0.20003 0.302006 
4.74469 0.099874 4.3007 -0.0278417 0.999604 -0.00409685 120 120 119 255 0.20003 0.302006 
-0.000221 0.042639 4.19785 -0.395636 0.918407 -2.3991e-05 97 95 95 255 0.20003 0.278154 
0.82053 0.101034 3.81489 -0.00776199 0.999771 -0.0199545 120 120 119 255 0.20003 0.302006 
0.2183 0.074519 4.24025 -0.0291864 0.999566 -0.00386696 120 120 119 255 0.20003 0.302006 
0.21464 0.100264 4.04539 -0.0768444 0.996228 -0.0403007 120 120 119 255 0.20003 0.302006 
1.8553 0.099169 4.02503 -0.00654628 0.999959 -0.00629736 120 120 119 255 0.20003 0.302006 
0.15621 0.045699 4.25693 -0.433808 0.899968 -0.0432211 97 95 95 255 0.20003 0.278154 
0.410179 0.101034 3.94652 -0.0444994 0.997009 -0.0631862 120 120 119 255 0.20003 0.302006 
4.74474 0.099964 3.77392 0.967821 0.251419 -0.0105227 97 95 95 255 0.20003 0.278154 
0.081619 0.038859 3.92293 -0.0354328 0.999371 0.0011058 97 95 95 255 0.20003 0.278154 
-0.000511 0.042589 4.00253 -0.700285 0.713846 0.00493287 97 95 95 255 0.20003 0.278154 
4.76335 0.045569 3.65286 0.547439 0.836805 -0.00824515 97 95 95 255 0.20003 0.278154 
4.60088 0.084934 3.7127 0.0322577 0.99942 -0.0108786 120 120 119 255 0.20003 0.302006 
0.232609 0.083909 3.98946 -0.806149 0.58919 -0.0545904 97 95 95 255 0.20003 0.278154 
0.1779 0.052134 3.90989 -0.531137 0.846573 0.0347463 97 95 95 255 0.20003 0.278154 
0 -1e-06 3.08457 -0.889746 -0.456455 1.17556e-05 97 95 95 255 0.20003 0.278154 
0.355539 0.101034 3.73253 0.00298771 0.999835 0.0179185 120 120 119 255 0.20003 0.302006 
4.9902 0.032734 3.59232 0.643776 0.765213 0.00058169 97 95 95 255 0.20003 0.278154 
0.213869 0.101034 3.82985 -0.723993 0.683606 0.0922917 97 95 95 255 0.20003 0.278154 
0.156219 0.045704 3.32039 -0.363709 0.931322 -0.0188561 97 95 95 255 0.20003 0.278154 
0.80286 0.092019 3.69189 -0.00550347 0.99994 -0.0095059 120 120 119 255 0.20003 0.302006 
4.74151 0.080704 3.57747 0.0373292 0.999171 -0.016244 120 120 119 255 0.20003 0.302006 
0.64212 0.101034 3.5784 0.0151688 0.999656 0.0213863 120 120 119 255 0.20003 0.302006 
1.03452 0.095849 3.48094 -0.00389175 0.99999 0.00221688 120 120 119 255 0.20003 0.302006 
0.19548 0.100994 3.3021 0.0262355 0.999607 -0.00984874 120 120 119 255 0.20003 0.302006 
1.30196 0.092914 3.51747 0.00966818 0.999922 0.00790427 120 120 119 255 0.20003 0.302006 
0.32744 0.10093 2.66 -0.0319927 0.999346 -0.016865 120 120 119 255 0.20003 0.302006 
4.53143 0.101034 3.49665 0.0501199 0.99848 0.0229175 120 120 119 255 0.20003 0.302006 
1.65922 0.091154 3.36349 0.00323337 0.999958 0.00860068 120 120 119 255 0.20003 0.302006 
4.19197 0.095419 3.32331 -0.0140166 0.999779 0.0156977 120 120 119 255 0.20003 0.302006 
0.220919 0.095129 3.07166 -0.0245946 0.999665 -0.00805888 120 120 119 255 0.20003 0.302006 
1.92688 0.095539 3.344 -0.0181834 0.999763 -0.0119778 120 120 119 255 0.20003 0.302006 
2.24785 0.098574 3.10723 -0.0150032 0.999471 -0.0288616 120 120 119 255 0.20003 0.302006 
1.837 0.091354 3.24582 0.00305492 0.999896 0.0141237 120 120 119 255 0.20003 0.302006 
4.74225 0.079989 3.1481 0.149707 0.988594 0.016444 120 120 119 255 0.20003 0.302006 
1.51583 0.101034 3.22329 0.00762285 0.999896 0.012262 120 120 119 255 0.20003 0.302006 
4.03787 0.101034 3.12898 -0.0263533 0.999145 0.0318411 120 120 119 255 0.20003 0.302006 
4.67164 0.098685 2.91283 0.103717 0.994531 0.0123247 120 120 119 255 0.20003 0.302006 
4.7632 0.04465 2.34443 0.545516 0.8381 -0.000154642 97 95 95 255 0.20003 0.278154 
4.99742 0.03988 2.9675 0.735159 0.677887 0.00327276 97 95 95 255 0.20003 0.278154 
5 0 2.30332 0.879543 -0.475819 0.000139213 97 95 95 255 0.20003 0.278154 
3.69296 0.096315 2.97381 -0.025242 0.999222 0.0302961 120 120 119 255 0.20003 0.302006 
4.56712 0.101035 1.82101 0.0166683 0.999857 -0.00298851 120 120 119 255 0.20003 0.302006 
4.88133 0.041275 2.69394 0.0142638 0.999882 0.00579469 97 95 95 255 0.20003 0.278154 
3.05115 0.101035 2.73913 -0.0184097 0.994912 -0.0990546 120 120 119 255 0.20003 0.302006 
3.58548 0.101034 3.05077 0.0223257 0.998937 -0.0403175 120 120 119 255 0.20003 0.302006 
2.23007 0.097675 2.93305 0.00439073 0.999945 0.00952421 120 120 119 255 0.20003 0.302006 
0.149399 0.03274 2.94715 -0.384603 0.923025 0.0103005 97 95 95 255 0.20003 0.278154 
2.01639 0.101035 2.8786 0.0122314 0.999734 0.0195761 120 120 119 255 0.20003 0.302006 
-0.00057 0.04262 2.90878 -0.437223 0.899346 -0.00345673 97 95 95 255 0.20003 0.278154 
0.22072 0.09296 2.69681 -0.554071 0.831402 0.0421434 97 95 95 255 0.20003 0.278154 
2.65769 0.09002 2.85534 -0.0169823 0.99827 -0.0562968 120 120 119 255 0.20003 0.302006 
4.74129 0.09456 2.36951 0.915778 0.401684 0.000653426 97 95 95 255 0.20003 0.278154 
2.67593 0.096695 2.69502 0.021712 0.999098 0.0364865 120 120 119 255 0.20003 0.302006 
3.10375 0.08421 2.63952 -0.0323 0.999474 0.0029217 120 120 119 255 0.20003 0.302006 
2.14054 0.101035 2.67657 0.00300833 0.999992 0.00261527 120 120 119 255 0.20003 0.302006 
0.50057 0.097045 2.4442 -0.0236469 0.999583 -0.016591 120 120 119 255 0.20003 0.302006 
3.19363 0.100425 2.6197 -0.0708476 0.996136 0.0518979 120 120 119 255 0.20003 0.302006 
0.05724 0.04518 2.61582 -0.0216245 0.999742 0.00691591 97 95 95 255 0.20003 0.278154 
-0.00057 0.04262 2.12753 -0.6171 0.786885 -0.000569436 97 95 95 255 0.20003 0.278154 
0.19146 0.089865 2.57961 -0.752631 0.658282 0.0145134 97 95 95 255 0.20003 0.278154 
0.17705 0.05374 2.32707 -0.557649 0.830076 -0.000644532 97 95 95 255 0.20003 0.278154 
3.08632 0.10092 2.18964 0.0407013 0.999143 0.00747749 120 120 119 255 0.20003 0.302006 
3.10385 0.094155 2.52186 -0.0201524 0.999063 0.0383009 120 120 119 255 0.20003 0.302006 
3.17505 0.09451 2.2509 0.0124993 0.999911 -0.00454618 120 120 119 255 0.20003 0.302006 
0.28516 0.100565 2.25159 -0.0285932 0.99957 0.00650678 120 120 119 255 0.20003 0.302006 
0.874029 0.098625 1.91693 -0.000287605 0.999996 0.00271448 120 120 119 255 0.20003 0.302006 
4.9798 0.045085 2.22519 0.429856 0.902892 0.00310189 97 95 95 255 0.20003 0.278154 
0.20882 0.09362 2.03567 -0.0923975 0.995712 -0.00456856 120 120 119 255 0.20003 0.302006 
0.15621 0.045705 2.01219 -0.423461 0.905906 0.00388619 97 95 95 255 0.20003 0.278154 
4.99784 0.04262 1.46348 0.482783 0.875669 -0.0111297 97 95 95 255 0.20003 0.278154 
3.19435 0.092125 1.93714 0.028042 0.999596 0.00459584 120 120 119 255 0.20003 0.302006 
5 0 1.60019 0.851113 -0.524982 0 97 95 95 255 0.20003 0.278154 
4.74151 0.088665 1.93645 0.903819 0.427691 -0.0138329 97 95 95 255 0.20003 0.278154 
3.15767 0.096855 1.66122 0.0239915 0.999702 0.00458397 120 120 119 255 0.20003 0.302006 
1.48065 0.10093 1.45101 0.00361141 0.997495 -0.0706479 120 120 119 255 0.20003 0.302006 
3.58539 0.0999 1.27205 -0.00190156 0.999971 0.0074223 120 120 119 255 0.20003 0.302006 
1.05246 0.09989 1.27202 -0.000432206 1 0.000952372 120 120 119 255 0.20003 0.302006 
4.74603 0.0518 1.27122 0.335198 0.868328 -0.365581 97 95 95 255 0.20003 0.278154 
1.23087 0.101035 1.35306 0.0160206 0.99883 -0.04562 120 120 119 255 0.20003 0.302006 
4.17832 0 0 0.00202375 -0.774684 -0.632345 97 95 95 255 0.20003 0.278154 
0.35454 0.099865 1.27187 -0.0588438 0.998249 -0.00602942 120 120 119 255 0.20003 0.302006 
3.05112 0.099885 1.27208 0.00227506 0.999985 0.00492514 120 120 119 255 0.20003 0.302006 
4.56712 0.099815 1.27154 0.05431 0.998517 -0.00382708 120 120 119 255 0.20003 0.302006 
3.30096 0.097095 1.48661 0.00512217 0.999924 0.0111868 120 120 119 255 0.20003 0.302006 
0.155849 0.04556 1.26856 -0.168778 0.958787 -0.228566 97 95 95 255 0.20003 0.278154 
0.1805 0.08259 1.32821 -0.102423 0.994676 -0.0114079 120 120 119 255 0.20003 0.302006 
2.24825 0.09508 1.28524 -0.0054764 0.999973 -0.00493707 120 120 119 255 0.20003 0.302006 
1.83751 0.09258 1.30482 -0.00835641 0.998452 -0.054979 120 120 119 255 0.20003 0.302006 
4.72555 0.08557 1.29324 0.0905061 0.995871 -0.00703762 120 120 119 255 0.20003 0.302006 
4.99784 0.04262 0.682228 0.545597 0.83789 -0.0162368 97 95 95 255 0.20003 0.278154 
1.65925 0.080405 1.27607 -0.0261154 0.989415 -0.142747 120 120 119 255 0.20003 0.302006 
4.78334 0.043215 1.22934 0.0289053 0.997107 -0.0703032 97 95 95 255 0.20003 0.278154 
2.01649 0.073845 1.2707 0.0031976 0.672042 -0.740506 97 95 95 255 0.20003 0.278154 
1.44515 0.078795 1.28102 0.0225329 0.990763 -0.133716 120 120 119 255 0.20003 0.302006 
1.28478 0.053845 1.26957 0.0343657 0.827644 -0.5602 97 95 95 255 0.20003 0.278154 
5 0 0 0.820193 -0.030385 -0.571279 97 95 95 255 0.20003 0.278154 
2.44358 0.053875 1.26948 -0.000265478 0.692167 -0.721737 97 95 95 255 0.20003 0.278154 
3.2802 0.045675 1.24983 0.00812385 0.893171 -0.449643 97 95 95 255 0.20003 0.278154 
3.90675 0.05388 1.2695 0.00205454 0.781043 -0.624475 97 95 95 255 0.20003 0.278154 
0.41003 0.05388 1.2695 -0.0153194 0.874649 -0.484514 97 95 95 255 0.20003 0.278154 
1.36581 0.034515 1.21117 0.0488743 0.972752 -0.226637 97 95 95 255 0.20003 0.278154 
1.93158 0.045675 1.24983 -0.000108805 0.952269 -0.305262 97 95 95 255 0.20003 0.278154 
3.45567 0.04143 1.21456 -0.00300322 0.998272 -0.0586893 97 95 95 255 0.20003 0.278154 
4.29538 0.04518 1.22906 0.00228994 0.997926 -0.0643257 97 95 95 255 0.20003 0.278154 
-0.00057 0.04262 0.877537 -0.615938 0.787794 0.000561079 97 95 95 255 0.20003 0.278154 
1.32676 0.04518 1.15098 0.0397617 0.998965 0.0220854 97 95 95 255 0.20003 0.278154 
3.51437 0.040135 1.06021 0.00594113 0.997745 0.0668595 97 95 95 255 0.20003 0.278154 
4.82262 0.045315 1.01324 0.136249 0.924942 0.354849 97 95 95 255 0.20003 0.278154 
0.506449 0.03876 1.08544 -0.0170528 0.998671 0.0486353 97 95 95 255 0.20003 0.278154 
1.77598 0.042675 1.11056 0.00120628 0.999973 0.00728008 97 95 95 255 0.20003 0.278154 
2.53773 0.045595 1.03275 -0.358648 0.926411 0.114607 97 95 95 255 0.20003 0.278154 
0.11574 0.04518 1.01318 -0.205915 0.865722 0.456207 97 95 95 255 0.20003 0.278154 
0.89603 0.04513 1.03219 -0.187477 0.972803 0.13604 97 95 95 255 0.20003 0.278154 
1.46357 0.045585 1.03226 0.0171796 0.941577 0.33636 97 95 95 255 0.20003 0.278154 
0.778379 0.0456 1.03276 0.326051 0.934386 0.143573 97 95 95 255 0.20003 0.278154 
4.02048 0.04536 1.03235 0.313563 0.92788 0.201783 97 95 95 255 0.20003 0.278154 
0.349039 0.053865 1.01151 0.00101456 0.641787 0.766882 97 95 95 255 0.20003 0.278154 
2.36162 0.044815 1.03121 0.410632 0.901594 0.136051 97 95 95 255 0.20003 0.278154 
1.7761 0.045305 1.03067 -0.0360858 0.721811 0.691149 97 95 95 255 0.20003 0.278154 
4.13965 0.04513 1.0318 -0.31766 0.930393 0.182922 97 95 95 255 0.20003 0.278154 
3.11724 0.05398 1.01187 0.00972153 0.783488 0.621331 97 95 95 255 0.20003 0.278154 
3.50935 0.05387 1.01169 -0.00533137 0.774248 0.63286 97 95 95 255 0.20003 0.278154 
4.09335 0.03884 0.916637 -0.00812417 0.999927 -0.00890785 97 95 95 255 0.20003 0.278154 
2.11089 0.099915 1.01043 0.0630315 0.717573 0.693626 97 95 95 255 0.20003 0.278154 
1.71923 0.09754 1.00278 -0.130933 0.661937 0.738035 97 95 95 255 0.20003 0.278154 
2.34575 0.08328 0.97657 0.298444 0.697313 0.651679 97 95 95 255 0.20003 0.278154 
4.68524 0.096095 0.994675 -0.0205388 0.293763 0.955657 97 95 95 255 0.20003 0.278154 
4.34735 0.100945 0.963177 -0.0436239 0.61423 0.787921 97 95 95 255 0.20003 0.278154 
0.33086 0.10014 1.01038 0.0176315 0.0396821 0.999057 97 95 95 255 0.20003 0.278154 
0.13059 0.100205 1.01044 -0.861962 0.242512 0.445208 97 95 95 255 0.20003 0.278154 
0.75651 0.092405 0.990917 0.403726 0.495467 0.769102 97 95 95 255 0.20003 0.278154 
1.55573 0.083365 0.953758 -0.0836361 0.718 0.691 97 95 95 255 0.20003 0.278154 
3.39137 0.08634 0.979126 0.00670292 0.880562 0.473883 97 95 95 255 0.20003 0.278154 
3.09076 0.09112 0.996605 0.0335639 0.663328 0.747575 97 95 95 255 0.20003 0.278154 
4.15901 0.09269 0.959106 -0.561871 0.752812 0.342893 97 95 95 255 0.20003 0.278154 
4.80407 0.10035 0.985737 0.87748 0.291989 0.380488 97 95 95 255 0.20003 0.278154 
1.02753 0.091145 0.990479 -0.028039 0.863312 0.503891 97 95 95 255 0.20003 0.278154 
0.957319 0.097975 0.95755 -0.2649 0.926584 0.266963 97 95 95 255 0.20003 0.278154 
1.34865 0.09895 0.954647 0.0353009 0.909362 0.414506 97 95 95 255 0.20003 0.278154 
2.55278 0.09096 0.999496 -0.36053 0.551978 0.75189 97 95 95 255 0.20003 0.278154 
3.7836 0.09353 0.995186 0.0106596 0.79819 0.602311 97 95 95 255 0.20003 0.278154 
3.48307 0.10102 0.884197 0.0012171 0.988074 0.153973 97 95 95 255 0.20003 0.278154 
4.01481 0.100395 0.886417 0.72039 0.657732 0.220059 97 95 95 255 0.20003 0.278154 
2.36322 0.10019 0.88826 0.559969 0.815867 0.144204 97 95 95 255 0.20003 0.278154 
1.52199 0.09748 0.725338 -0.00532993 0.999796 0.0194988 120 120 119 255 0.20003 0.302006 
2.53935 0.09994 0.866119 0.00209103 0.999726 0.0233287 120 120 119 255 0.20003 0.302006 
0 0 0 -0.808272 -0.428435 -0.403905 97 95 95 255 0.20003 0.278154 
4.14034 0.09959 0.486748 -0.0185852 0.999821 0.00367474 120 120 119 255 0.20003 0.302006 
4.01481 0.100265 0.489929 0.999948 0.00934706 -0.00410719 97 95 95 255 0.20003 0.278154 
4.80098 0.054365 0.260197 0.504583 0.69817 -0.507892 97 95 95 255 0.20003 0.278154 
4.01149 0.049145 0.2593 0.326284 0.864699 -0.381884 97 95 95 255 0.20003 0.278154 
4.80582 0.100185 0.250786 0.695934 -0.214283 -0.685389 97 95 95 255 0.20003 0.278154 
1.71821 0.099805 0.253857 -0.00207421 0.999994 0.00284386 120 120 119 255 0.20003 0.302006 
0.88821 0.100445 0.274307 0.00161599 0.999989 0.004303 120 120 119 255 0.20003 0.302006 
4.38927 0.101035 0.486755 -0.00720188 0.999841 -0.0163344 120 120 119 255 0.20003 0.302006 
0.129099 0.100155 0.250839 -0.00109162 0.999999 0.000309731 120 120 119 255 0.20003 0.302006 
4.13795 0.04575 0.41523 -0.70649 0.707722 -0.000345464 97 95 95 255 0.20003 0.278154 
0.76376 0.096235 0.259499 0.0150028 0.999882 0.00344952 120 120 119 255 0.20003 0.302006 
0.36972 0.10071 0.321449 0.00454061 0.999989 0.00108348 120 120 119 255 0.20003 0.302006 
0.11582 0.04518 0.252319 -0.425728 0.797199 -0.428053 97 95 95 255 0.20003 0.278154 
0.772299 0.05046 0.250317 0.184488 0.923324 -0.336805 97 95 95 255 0.20003 0.278154 
2.38057 0.04558 0.292236 0.270218 0.927615 -0.257899 97 95 95 255 0.20003 0.278154 
1.57968 0.09988 0.254967 0.000772991 0.999986 0.0051971 120 120 119 255 0.20003 0.302006 
0.87731 0.04234 0.233788 -0.141045 0.972769 -0.183922 97 95 95 255 0.20003 0.278154 
2.51926 0.045745 0.292217 -0.412859 0.827167 -0.381238 97 95 95 255 0.20003 0.278154 
-0.00099 0.042545 -0.000992 -0.224839 0.862294 -0.453757 97 95 95 255 0.20003 0.278154 
4.84047 0.038905 0.177227 0.0257169 0.999172 -0.031533 97 95 95 255 0.20003 0.278154 
4.9798 0.045085 0.291595 0.549244 0.835618 0.00861926 97 95 95 255 0.20003 0.278154 
2.5395 0.10012 0.252838 -0.754935 -0.148286 -0.638815 97 95 95 255 0.20003 0.278154 
2.36293 0.10028 0.252567 -0.000736476 1 0.000141918 120 120 119 255 0.20003 0.302006 
4.14038 0.09842 0.252338 0.0124994 0.999624 -0.0244222 120 120 119 255 0.20003 0.302006 
3.11581 0.08802 0.258186 -0.00551032 0.999895 0.0134352 120 120 119 255 0.20003 0.302006 
4.01467 0.100195 0.252945 0.702497 -0.130832 -0.699558 97 95 95 255 0.20003 0.278154 
4.13959 0.043755 0.233818 -0.152593 0.909923 -0.385689 97 95 95 255 0.20003 0.278154 
3.50808 0.10038 0.253418 -0.0151386 0.999343 0.0329208 120 120 119 255 0.20003 0.302006 
4.53515 0.08633 0.254257 -0.0106703 0.997505 -0.0697852 120 120 119 255 0.20003 0.302006 
0.48938 0.09019 0.260818 0.00519935 0.583194 -0.812316 97 95 95 255 0.20003 0.278154 
1.52198 0.058075 0.25605 -0.0124761 0.58741 -0.809194 97 95 95 255 0.20003 0.278154 
2.02986 0.045575 0.233696 0.02328 0.578222 -0.815548 97 95 95 255 0.20003 0.278154 
2.61052 0.062515 0.263405 -0.118027 0.336733 -0.934174 97 95 95 255 0.20003 0.278154 
3.10336 0.053345 0.249146 -2.03828e-05 0.743842 -0.668355 97 95 95 255 0.20003 0.278154 
2.57868 0.032915 0.203487 -0.0325174 0.986274 -0.161883 97 95 95 255 0.20003 0.278154 
1.97164 0.03434 0.187748 0.00585682 0.995741 -0.0920084 97 95 95 255 0.20003 0.278154 
3.43606 0.03593 0.195408 0.0100854 0.993329 -0.114872 97 95 95 255 0.20003 0.278154 
3.33847 0.03626 0.140549 0.0041953 0.999951 -0.0089115 97 95 95 255 0.20003 0.278154 
3.96279 0.03625 0.163857 -0.00528701 0.998415 -0.0560341 97 95 95 255 0.20003 0.278154 
4.99837 0.042595 -0.001102 0.28055 0.905702 -0.317797 97 95 95 255 0.20003 0.278154 
0.799419 0.04517 0.135345 0.0153856 0.999744 -0.0165662 97 95 95 255 0.20003 0.278154 
1.6002 0.04518 0.135345 0.00435905 0.998801 0.0487637 97 95 95 255 0.20003 0.278154 
2.44003 0.044545 0.076668 0.00335428 0.998813 0.0485992 97 95 95 255 0.20003 0.278154 
4.74473 0.04484 0.057716 -0.00886676 0.998667 -0.050842 97 95 95 255 0.20003 0.278154 
1.58067 0.04262 -0.000572 -6.83609e-05 0.788764 -0.614697 97 95 95 255 0.20003 0.278154 
2.90879 0.04262 -0.000572 0.00215745 0.835021 -0.550214 97 95 95 255 0.20003 0.278154 
3.49473 0.04262 -0.000572 0.00353371 0.733269 -0.679929 97 95 95 255 0.20003 0.278154 
4.60801 0.03452 0.008938 -0.0131996 0.721155 -0.692648 97 95 95 255 0.20003 0.278154 
0.74082 0 0 7.326e-05 -0.565271 -0.824906 97 95 95 255 0.20003 0.278154 
2.5377 0 0 0 -0.456771 -0.889584 97 95 95 255 0.20003 0.278154 
1.31959 0.098269 4.746 0.0036582 0.999926 0.0116261 120 120 119 255 0.20003 0.302006 
1.21364 0.095219 4.81909 0.00521836 0.999502 0.0311231 120 120 119 255 0.20003 0.302006 
2.13963 0.091044 4.78457 0.0228009 0.998323 0.0532022 120 120 119 255 0.20003 0.302006 
1.89101 0.098534 4.8052 0.00414725 0.999916 0.0122635 120 120 119 255 0.20003 0.302006 
3.39036 0.100784 4.74793 -0.000304029 0.99829 0.0584562 120 120 119 255 0.20003 0.302006 
2.71169 0.082624 4.8096 0.000210972 0.99352 0.113655 120 120 119 255 0.20003 0.302006 
3.87183 0.094944 4.82382 0.00799461 0.999923 0.00947869 120 120 119 255 0.20003 0.302006 
4.33518 0.092434 4.81569 -0.00512448 0.999944 0.00922294 120 120 119 255 0.20003 0.302006 
4.73279 0.089529 4.81354 -0.000361302 0.999842 0.0177929 120 120 119 255 0.20003 0.302006 
0.57103 0.100744 4.74788 0.0449817 0.997272 -0.0585316 120 120 119 255 0.20003 0.302006 
0.17915 0.099864 4.51089 0.0201368 0.999112 -0.0370074 120 120 119 255 0.20003 0.302006 
0.32716 0.098894 4.78664 -0.00647436 0.999955 0.00699269 120 120 119 255 0.20003 0.302006 
0.981649 0.099769 4.76738 -0.0337341 0.999022 0.0285858 120 120 119 255 0.20003 0.302006 
0.80308 0.078949 4.8066 -0.0130409 0.999863 0.0102411 120 120 119 255 0.20003 0.302006 
0.208719 0.085929 4.35648 -0.822294 0.559169 -0.105652 97 95 95 255 0.20003 0.278154 
4.74469 0.099874 4.3007 0.999893 0.00904672 0.0114626 97 95 95 255 0.20003 0.278154 
0.2183 0.074519 4.24025 -0.420564 0.90726 0.00206303 97 95 95 255 0.20003 0.278154 
0.21464 0.100264 4.04539 -0.845693 0.52454 -0.0982902 97 95 95 255 0.20003 0.278154 
4.74474 0.099964 3.77392 -0.0834926 0.995344 -0.0481654 120 120 119 255 0.20003 0.302006 
0.232609 0.083909 3.98946 -0.0652426 0.995429 -0.0697421 120 120 119 255 0.20003 0.302006 
0.213869 0.101034 3.82985 0.0338932 0.998207 0.0493388 120 120 119 255 0.20003 0.302006 
4.74151 0.080704 3.57747 0.875204 0.482914 -0.0284832 97 95 95 255 0.20003 0.278154 
0.19548 0.100994 3.3021 -0.809258 0.58717 -0.0182519 97 95 95 255 0.20003 0.278154 
4.74225 0.079989 3.1481 0.875622 0.482992 0.0021583 97 95 95 255 0.20003 0.278154 
0.220919 0.095129 3.07166 -0.714387 0.698501 -0.0418156 97 95 95 255 0.20003 0.278154 
0.22072 0.09296 2.69681 -0.0728792 0.996385 -0.0436506 120 120 119 255 0.20003 0.302006 
4.74129 0.09456 2.36951 0.10768 0.994185 0.0008526 120 120 119 255 0.20003 0.302006 
0.19146 0.089865 2.57961 -0.0475086 0.998859 0.00492857 120 120 119 255 0.20003 0.302006 
0.20882 0.09362 2.03567 -0.745881 0.666052 0.00604996 97 95 95 255 0.20003 0.278154 
4.74151 0.088665 1.93645 0.080795 0.996702 -0.00759345 120 120 119 255 0.20003 0.302006 
0.1805 0.08259 1.32821 -0.620491 0.769261 -0.152408 97 95 95 255 0.20003 0.278154 
4.72555 0.08557 1.29324 0.587372 0.660776 -0.467301 97 95 95 255 0.20003 0.278154 
1.83751 0.09258 1.30482 -0.0121332 0.848256 -0.529448 97 95 95 255 0.20003 0.278154 
2.24825 0.09508 1.28524 -0.0117258 0.518944 -0.854728 97 95 95 255 0.20003 0.278154 
1.44515 0.078795 1.28102 -0.0594623 0.706003 -0.705708 97 95 95 255 0.20003 0.278154 
1.23087 0.101035 1.35306 0.0414394 0.881039 -0.471226 97 95 95 255 0.20003 0.278154 
1.05246 0.09989 1.27202 0.102733 0.561991 -0.820739 97 95 95 255 0.20003 0.278154 
0.35454 0.099865 1.27187 -0.0631917 0.285361 -0.956335 97 95 95 255 0.20003 0.278154 
3.05112 0.099885 1.27208 -0.0122769 0.324374 -0.945849 97 95 95 255 0.20003 0.278154 
3.58539 0.0999 1.27205 0.00897285 0.227263 -0.973792 97 95 95 255 0.20003 0.278154 
4.56712 0.099815 1.27154 0.0568582 0.234672 -0.97041 97 95 95 255 0.20003 0.278154 
1.65925 0.080405 1.27607 -0.00876711 0.762483 -0.646949 97 95 95 255 0.20003 0.278154 
4.01481 0.100395 0.886417 0.00103991 0.999478 0.0323031 120 120 119 255 0.20003 0.302006 
3.48307 0.10102 0.884197 -0.000412029 0.999389 0.0349656 120 120 119 255 0.20003 0.302006 
3.7836 0.09353 0.995186 0.000901957 0.997891 0.0648996 120 120 119 255 0.20003 0.302006 
1.34865 0.09895 0.954647 0.0363509 0.999117 0.0210736 120 120 119 255 0.20003 0.302006 
0.957319 0.097975 0.95755 -0.000142195 0.999997 -0.00247745 120 120 119 255 0.20003 0.302006 
1.55573 0.083365 0.953758 -0.0170449 0.997793 0.0641753 120 120 119 255 0.20003 0.302006 
2.55278 0.09096 0.999496 6.42316e-05 0.997742 0.0671694 120 120 119 255 0.20003 0.302006 
3.09076 0.09112 0.996605 -0.00129084 0.997341 0.0728686 120 120 119 255 0.20003 0.302006 
4.34735 0.100945 0.963177 -0.0119111 0.999912 0.00581986 120 120 119 255 0.20003 0.302006 
4.15901 0.09269 0.959106 -0.044135 0.998892 0.0163359 120 120 119 255 0.20003 0.302006 
2.53935 0.09994 0.866119 -0.975098 0.213465 0.0601298 97 95 95 255 0.20003 0.278154 
1.71923 0.09754 1.00278 -0.0391569 0.998845 0.0278565 120 120 119 255 0.20003 0.302006 
4.01481 0.100265 0.489929 -0.00741233 0.999947 0.00719856 120 120 119 255 0.20003 0.302006 
4.14034 0.09959 0.486748 -0.984391 0.175353 0.0150491 97 95 95 255 0.20003 0.278154 
2.36322 0.10019 0.88826 -0.00215637 0.999996 0.00158556 120 120 119 255 0.20003 0.302006 
4.68524 0.096095 0.994675 -0.0096795 0.999835 0.0153647 120 120 119 255 0.20003 0.302006 
4.80407 0.10035 0.985737 -0.0158311 0.999769 0.0145328 120 120 119 255 0.20003 0.302006 
0.33086 0.10014 1.01038 0.00695578 0.999974 0.00187968 120 120 119 255 0.20003 0.302006 
0.13059 0.100205 1.01044 0.000324536 1 -6.64526e-05 120 120 119 255 0.20003 0.302006 
0.88821 0.100445 0.274307 -0.568377 0.547291 -0.614346 97 95 95 255 0.20003 0.278154 
0.75651 0.092405 0.990917 0.0184165 0.999816 0.00541799 120 120 119 255 0.20003 0.302006 
4.80582 0.100185 0.250786 -0.0251346 0.998533 -0.0479664 120 120 119 255 0.20003 0.302006 
0.76376 0.096235 0.259499 0.653327 0.630227 -0.419497 97 95 95 255 0.20003 0.278154 
0.129099 0.100155 0.250839 -0.489327 0.639122 -0.593365 97 95 95 255 0.20003 0.278154 
2.36293 0.10028 0.252567 0.766902 0.028896 -0.641114 97 95 95 255 0.20003 0.278154 
2.5395 0.10012 0.252838 0.0209882 0.99978 0.000298503 120 120 119 255 0.20003 0.302006 
4.01467 0.100195 0.252945 0.000364922 1 -0.000295587 120 120 119 255 0.20003 0.302006 
4.14038 0.09842 0.252338 -0.887456 0.171332 -0.427863 97 95 95 255 0.20003 0.278154 
0.36972 0.10071 0.321449 0.00402173 0.986578 -0.163243 97 95 95 255 0.20003 0.278154 
1.57968 0.09988 0.254967 -0.0264259 0.120122 -0.992407 97 95 95 255 0.20003 0.278154 
3.11581 0.08802 0.258186 -0.0136212 0.0874829 -0.996073 97 95 95 255 0.20003 0.278154 
3.50808 0.10038 0.253418 -0.00327984 0.0439932 -0.999026 97 95 95 255 0.20003 0.278154 
4.53515 0.08633 0.254257 0.0169471 0.0844212 -0.996286 97 95 95 255 0.20003 0.278154 
1.71821 0.099805 0.253857 -0.00479065 0.324158 -0.945991 97 95 95 255 0.20003 0.278154 
3 0 1 2
3 1 3 2
3 4 0 5
3 6 7 8
3 4 5 8
3 7 4 8
3 6 8 9
3 6 9 10
3 10 11 12
3 5 0 2
3 11 10 9
3 13 1 0
3 6 14 7
3 12 15 10
3 16 13 0
3 17 6 10
3 1 18 3
3 8 19 9
3 7 20 4
3 9 21 11
3 22 1 13
3 14 20 7
3 15 17 10
3 5 23 8
3 22 24 1
3 16 22 13
3 16 0 4
3 20 16 4
3 17 25 6
3 12 11 21
3 25 14 6
3 23 5 2
3 26 27 24
3 28 26 22
3 29 28 16
3 30 31 32
3 33 34 20
3 33 20 14
3 31 29 16
3 32 16 20
3 34 32 20
3 35 36 17
3 35 15 37
3 26 24 22
3 32 31 16
3 38 33 25
3 36 38 17
3 35 17 15
3 18 1 24
3 22 16 28
3 25 33 14
3 25 17 38
3 38 39 33
3 36 39 38
3 40 26 28
3 18 41 3
3 26 42 27
3 251 43 252
3 253 44 254
3 255 44 256
3 45 257 258
3 46 258 259
3 41 2 3
3 23 19 8
3 260 261 262
3 43 263 252
3 44 253 256
3 263 47 264
3 46 45 258
3 42 48 27
3 27 48 24
3 12 49 15
3 45 44 255
3 45 255 257
3 37 15 50
3 51 260 264
3 47 51 264
3 43 47 263
3 52 261 260
3 51 52 260
3 53 46 259
3 54 18 24
3 18 54 41
3 55 43 251
3 50 15 49
3 51 56 52
3 254 55 251
3 49 12 21
3 43 57 47
3 48 54 24
3 58 55 254
3 265 48 42
3 47 56 51
3 266 37 50
3 48 265 59
3 59 54 48
3 57 56 47
3 44 58 254
3 265 267 59
3 19 21 9
3 60 57 43
3 61 266 50
3 62 54 59
3 267 268 59
3 62 63 54
3 49 64 50
3 65 45 46
3 54 63 41
3 53 65 46
3 268 66 59
3 66 67 59
3 63 68 41
3 53 269 65
3 67 62 59
3 60 270 57
3 60 69 270
3 55 60 43
3 70 49 21
3 66 71 67
3 69 271 270
3 72 62 67
3 73 60 55
3 61 50 64
3 70 64 49
3 68 2 41
3 73 69 60
3 74 65 269
3 70 21 19
3 75 69 73
3 64 272 61
3 76 73 55
3 69 77 271
3 58 78 55
3 71 273 67
3 79 69 75
3 78 76 55
3 80 45 65
3 74 80 65
3 76 75 73
3 81 78 58
3 80 82 45
3 69 83 77
3 84 81 58
3 273 72 67
3 76 79 75
3 85 58 44
3 82 44 45
3 86 81 84
3 87 80 74
3 274 272 64
3 72 63 62
3 88 76 78
3 81 88 78
3 79 83 69
3 89 82 80
3 88 79 76
3 85 84 58
3 90 80 87
3 274 64 91
3 88 81 86
3 92 19 93
3 89 94 82
3 95 89 80
3 90 95 80
3 96 64 70
3 97 44 98
3 82 98 44
3 97 85 44
3 94 98 82
3 273 275 72
3 70 19 92
3 99 86 84
3 85 99 84
3 275 100 72
3 86 101 88
3 72 102 63
3 92 96 70
3 99 101 86
3 103 100 275
3 95 94 89
3 79 276 83
3 100 102 72
3 63 102 68
3 96 91 64
3 104 85 97
3 104 99 85
3 105 274 91
3 106 99 104
3 94 107 98
3 108 101 99
3 277 90 87
3 88 109 79
3 106 108 99
3 107 97 98
3 110 94 95
3 111 112 102
3 102 112 68
3 107 104 97
3 100 111 102
3 68 23 2
3 93 19 23
3 101 108 88
3 106 104 107
3 103 113 100
3 110 107 94
3 113 114 100
3 114 111 100
3 79 109 276
3 109 278 276
3 115 108 106
3 116 106 107
3 110 116 107
3 117 116 110
3 116 115 106
3 118 278 109
3 119 118 109
3 95 117 110
3 277 95 90
3 120 96 92
3 117 115 116
3 120 92 93
3 118 121 278
3 112 23 68
3 114 122 111
3 96 120 91
3 123 120 93
3 124 115 117
3 113 279 114
3 122 112 111
3 114 279 122
3 88 119 109
3 123 93 125
3 95 124 117
3 126 105 91
3 280 95 277
3 124 127 115
3 123 91 120
3 88 128 119
3 129 124 95
3 130 118 119
3 131 91 123
3 127 108 115
3 132 130 119
3 133 93 23
3 134 121 118
3 132 119 128
3 127 135 108
3 280 136 95
3 130 134 118
3 137 127 124
3 126 91 131
3 138 112 122
3 134 139 121
3 88 108 140
3 129 137 124
3 141 128 88
3 279 281 122
3 133 125 93
3 135 127 137
3 142 136 280
3 140 141 88
3 135 140 108
3 282 126 131
3 122 281 138
3 123 125 143
3 144 128 141
3 123 145 131
3 146 283 284
3 147 132 128
3 144 147 128
3 136 129 95
3 285 148 286
3 129 135 137
3 133 149 125
3 148 287 286
3 143 125 149
3 281 288 138
3 288 287 148
3 284 289 150
3 289 290 151
3 291 152 290
3 291 131 152
3 291 282 131
3 150 289 151
3 290 152 151
3 285 292 148
3 283 146 292
3 288 153 138
3 288 148 153
3 146 284 150
3 154 148 292
3 155 154 292
3 155 292 146
3 155 146 150
3 156 151 152
3 157 152 131
3 145 157 131
3 158 112 138
3 159 148 154
3 159 154 155
3 160 156 152
3 157 160 152
3 112 158 23
3 161 157 145
3 153 162 138
3 123 161 145
3 163 159 155
3 164 155 150
3 164 150 151
3 165 158 138
3 162 165 138
3 166 153 148
3 159 166 148
3 167 159 163
3 153 168 162
3 169 160 157
3 170 165 162
3 167 166 159
3 171 172 163
3 171 163 155
3 160 151 156
3 173 169 157
3 173 157 161
3 166 168 153
3 172 167 163
3 174 164 151
3 169 175 160
3 176 169 173
3 143 161 123
3 168 170 162
3 164 171 155
3 174 151 160
3 177 178 172
3 177 172 179
3 180 181 161
3 182 183 165
3 184 182 170
3 184 170 168
3 178 185 172
3 186 187 174
3 181 188 173
3 189 180 161
3 170 182 165
3 190 191 166
3 185 192 167
3 172 185 167
3 179 172 171
3 187 193 174
3 194 186 174
3 169 194 175
3 193 164 174
3 181 173 161
3 190 166 167
3 192 190 167
3 194 174 175
3 160 175 174
3 192 191 190
3 195 187 186
3 195 186 194
3 196 194 169
3 197 177 179
3 293 294 295
3 197 179 171
3 296 198 297
3 198 296 298
3 178 177 197
3 199 299 300
3 294 199 300
3 158 200 23
3 301 201 302
3 202 196 169
3 193 303 164
3 203 189 161
3 304 198 298
3 305 199 294
3 202 169 204
3 305 294 293
3 188 306 173
3 205 189 203
3 304 307 206
3 207 297 198
3 208 308 309
3 310 209 311
3 208 301 308
3 191 312 166
3 306 210 173
3 211 310 313
3 314 208 309
3 211 212 310
3 213 158 165
3 176 204 169
3 210 176 173
3 143 203 161
3 214 168 166
3 315 184 168
3 212 209 310
3 316 213 183
3 164 215 171
3 210 204 176
3 198 216 207
3 312 217 166
3 218 215 164
3 183 213 165
3 219 200 158
3 208 201 301
3 143 220 203
3 221 143 149
3 303 222 164
3 213 219 158
3 223 206 307
3 208 224 201
3 305 225 199
3 206 198 304
3 226 202 204
3 315 168 214
3 197 171 317
3 164 222 218
3 217 214 166
3 318 199 225
3 227 204 210
3 206 216 198
3 319 228 305
3 229 208 314
3 306 320 210
3 227 210 320
3 228 225 305
3 229 224 208
3 215 317 171
3 221 220 143
3 230 316 321
3 230 321 315
3 312 231 217
3 312 322 231
3 317 215 232
3 218 222 233
3 323 324 234
3 324 226 204
3 205 203 325
3 322 326 232
3 326 317 232
3 222 323 233
3 316 230 213
3 315 214 230
3 322 232 231
3 323 234 233
3 233 235 218
3 234 324 204
3 320 325 227
3 214 213 230
3 236 231 232
3 235 215 218
3 235 233 234
3 237 234 204
3 203 227 325
3 235 232 215
3 238 234 237
3 239 237 204
3 227 239 204
3 220 227 203
3 240 220 221
3 240 221 149
3 241 214 217
3 236 217 231
3 235 236 232
3 238 235 234
3 242 217 236
3 243 236 235
3 239 238 237
3 220 244 227
3 244 220 240
3 242 241 217
3 243 235 238
3 244 239 227
3 243 242 236
3 219 213 214
3 219 214 241
3 245 242 243
3 246 243 238
3 219 241 245
3 239 247 238
3 244 248 239
3 246 245 243
3 247 246 238
3 249 23 200
3 249 250 23
3 250 133 23
3 245 241 242
3 248 247 239
3 240 248 244
3 219 245 249
3 246 247 250
3 247 248 133
3 133 250 247
3 219 249 200
3 249 245 250
3 245 246 250
3 133 248 149
3 248 240 149
