ply
format ascii 1.0
comment INFO-3111 Flatenator generated
comment TextureFile Dungeons_Texture_01.png
element vertex 231
property float x
property float y
property float z
property float nx
property float ny
property float nz
property float texture_u
property float texture_v
element face 208
property list uchar int vertex_indices
end_header
2.64138 -0.16552 0.417651 0.15582 -0.010577 0.987729 0.037179 0.278335 
1.41663 -0.16552 0.417651 0.191965 0.00047926 0.981402 0.037179 0.278335 
3.95116 -0.16552 0.417651 -0.368405 0.00123354 0.929665 0.037179 0.278335 
0.595888 -0.16552 0.417651 0.392395 0.0192511 0.919595 0.037179 0.278335 
1.85287 -0.16552 0.417651 0.149134 -0.0163276 0.988682 0.037179 0.278335 
3.11462 -0.16552 0.417651 0.183687 -0.0285668 0.98257 0.037179 0.278335 
4.34385 -0.16552 0.417651 0.368447 0.0018068 0.929647 0.037179 0.278335 
0.534486 -0.16552 0.496251 0 0 1 0.036449 0.299488 
0.163732 -0.16552 0.496251 0 0 1 0.036449 0.299488 
1.79147 -0.16552 0.496251 0 -0.0725354 0.997366 0.036449 0.276557 
1.47803 -0.16552 0.496251 0.0149787 -0.0662295 0.997692 0.036449 0.276557 
3.05321 -0.16552 0.496251 0 -0.0700244 0.997545 0.036449 0.299488 
2.70279 -0.16552 0.496251 0.0136697 -0.0628692 0.997928 0.036449 0.299488 
4.28245 -0.16552 0.496251 0 -0.0110255 0.999939 0.036449 0.276557 
4.01257 -0.16552 0.496251 0.0015316 -0.0104961 0.999944 0.036449 0.276557 
4.40525 -0.16552 0.496251 -0.808601 -0.00708702 0.588314 0.037179 0.278335 
4.83627 -0.16552 0.496251 0.00216044 0.0138401 0.999902 0.036449 0.299488 
2.57998 -0.16552 0.496251 0 0 1 0.036449 0.276557 
1.91428 -0.16552 0.496251 -0.787871 -0.0198225 0.615522 0.037179 0.278335 
1.35523 -0.16552 0.496251 0 0.0270077 0.999635 0.036449 0.299488 
0.657293 -0.16552 0.496251 -0.826337 -0.0342224 0.562135 0.037179 0.278335 
3.88976 -0.16552 0.496251 0.788022 -0.00906119 0.61558 0.037179 0.278335 
3.17602 -0.16552 0.496251 -0.788029 0 0.615637 0.037179 0.278335 
4.83627 -1.83726 0.496251 0 -0.0169971 0.999856 0.036449 0.299488 
4.45825 -1.83726 0.496251 -0.00244687 -0.0157051 0.999874 0.036449 0.299488 
4.39685 -1.83726 0.417651 0.0193942 0.0111813 0.999749 0.037179 0.278335 
4.33545 -1.83726 0.553632 -0.01167 0.0809781 0.996647 0.036449 0.276557 
4.09728 -1.83726 0.553632 -0.799851 -0.0473108 0.598331 0.037179 0.278335 
3.99556 -1.83726 0.417651 -0.465974 -0.0292656 0.884314 0.037179 0.278335 
3.93415 -1.83726 0.444752 0.614301 0.0225198 0.788751 0.037179 0.278335 
3.16385 -1.83726 0.451181 -0.508084 0.00539733 0.861291 0.037179 0.278335 
3.02088 -1.83726 0.42837 0.476541 -0.00334718 0.879146 0.037179 0.278335 
2.9692 -1.83726 0.542328 0.0399707 0.193425 0.9803 0.036449 0.299488 
2.70631 -1.83726 0.553047 0.0619187 0.177751 0.982126 0.036449 0.299488 
2.61577 -1.83726 0.417651 0.144787 0.012687 0.989382 0.037179 0.278335 
2.55437 -1.83726 0.496251 0.787374 -0.0420081 0.615042 0.037179 0.278335 
1.9707 -1.83726 0.496251 -0.662784 -0.0277613 0.748296 0.037179 0.278335 
1.88196 -1.83726 0.417651 -0.38363 -0.0126707 0.9234 0.037179 0.278335 
1.75703 -1.83726 0.496251 -0.016775 0.0723383 0.997239 0.036449 0.276557 
1.45297 -1.83726 0.496251 -0.593571 0.0973812 0.798868 0.037179 0.278335 
1.39156 -1.83726 0.417651 0.433108 -0.0534455 0.899756 0.037179 0.278335 
1.33016 -1.83726 0.496251 0.0017042 -0.0370558 0.999312 0.036449 0.299488 
0.708307 -1.83726 0.496251 -0.734349 0.0129125 0.678649 0.037179 0.278335 
0.595888 -1.83726 0.417651 0.392065 -0.0401755 0.91906 0.037179 0.278335 
0.534486 -1.83726 0.478204 0.700111 -0.0764758 0.709927 0.037179 0.278335 
0.163732 -1.83726 0.478204 -0.0024507 -0.0268363 0.999637 0.036449 0.299488 
4.83627 -1.12153 0.508418 -0.000190972 -0.0062287 0.999981 0.036449 0.299488 
4.4166 -0.979036 0.508418 -0.000190972 0.00442285 0.99999 0.036449 0.299488 
4.3552 -0.979036 0.417651 -0.295033 -0.00234056 0.955484 0.037179 0.278335 
4.2938 -0.979036 0.487281 -0.00676441 0.0183308 0.999809 0.036449 0.276557 
4.00218 -1.06866 0.487281 -0.772505 -0.0223022 0.634618 0.037179 0.278335 
3.94078 -1.06866 0.417651 0.29673 -0.00448897 0.954951 0.037179 0.278335 
3.87938 -1.06866 0.496251 0.788061 0.00292823 0.61559 0.037179 0.278335 
3.17602 -1.12153 0.496251 -0.787966 -0.0126814 0.615588 0.037179 0.278335 
3.11462 -1.12153 0.417651 -0.199265 -0.00331916 0.97994 0.037179 0.278335 
2.96289 -1.12804 0.44057 -0.0018778 0.015611 0.999876 0.036449 0.299488 
2.71342 -1.15805 0.44057 0.0269709 0.0345101 0.99904 0.036449 0.299488 
2.65201 -1.15805 0.417651 0.271605 -0.00578573 0.962392 0.037179 0.278335 
2.59061 -1.15805 0.496251 0.787941 -0.0167903 0.615522 0.037179 0.278335 
1.93474 -0.978566 0.496251 -0.749018 -0.0185712 0.662289 0.037179 0.278335 
1.87333 -0.978566 0.417651 -0.246524 0.00132005 0.969136 0.037179 0.278335 
1.81193 -0.955667 0.438786 -0.00119995 -0.021835 0.999761 0.036449 0.276557 
1.52601 -1.09863 0.438786 -0.507357 0.00463881 0.861723 0.037179 0.278335 
1.4646 -1.12153 0.417651 0.0642424 0.0360266 0.997284 0.037179 0.278335 
1.39947 -1.12153 0.52208 0.819222 -0.0222723 0.573044 0.037179 0.278335 
0.708217 -1.20352 0.52208 -0.861746 -0.0252208 0.506713 0.037179 0.278335 
0.646812 -1.20352 0.417651 -0.379705 -0.0170163 0.924951 0.037179 0.278335 
0.585411 -1.20352 0.496251 -0.00163393 -0.0178923 0.999839 0.036449 0.299488 
0.163732 -1.12153 0.496251 -0.00163391 -0.00840281 0.999963 0.036449 0.299488 
3.03762 -0.802815 0.451515 0.0105008 -0.053447 0.998515 0.036449 0.299488 
3.00358 -1.43173 0.46091 0.559646 0.0150861 0.828595 0.037179 0.278335 
5 0 0.6067 0.707107 0.707107 0 0.037908 0.253536 
0 0 0.6067 0 0 1 0.037908 0.279064 
5 -2.00278 0.6067 0 0 1 0.037908 0.279064 
0 -2.00278 0.6067 -0.707107 -0.707107 0 0.037908 0.253536 
4.71463 -0.286192 0.6067 0 0 1 0.037908 0.279064 
0.278095 -0.270296 0.6067 0 0 1 0.037908 0.279064 
0.287106 -1.6972 0.6067 0 0 1 0.037908 0.279064 
4.72268 -1.71627 0.6067 -0.665098 0.682875 0.302202 0.037908 0.253536 
4.67143 -0.32939 0.414019 -0.667988 -0.684819 0.29123 0.037908 0.253536 
0.321297 -0.313496 0.414019 0.656774 -0.693886 0.295246 0.037908 0.253536 
0.330303 -1.654 0.414019 0.654489 0.697701 0.291304 0.037908 0.253536 
4.67948 -1.67308 0.414019 -0.666708 0.684836 0.294108 0.037908 0.253536 
5 0 0 0.707107 0.707107 0 0.037908 0.253536 
0 0 0 -0.707107 0.707107 0 0.037908 0.253536 
5 -2.00278 0 0.707107 -0.707107 0 0.037908 0.253536 
0 -2.00278 0 -0.707107 -0.707107 0 0.037908 0.253536 
0.253983 -0.758284 0.414019 0.973602 -0.0486591 0.223006 0.037908 0.253536 
0.210785 -0.739555 0.6067 0 0 1 0.037908 0.279064 
0 -0.639927 0.6067 0 0 1 0.037908 0.279064 
0 -0.648169 0 -1 0 0 0.037908 0.253536 
0 -1.301 0 -1 0 0 0.037908 0.253536 
0 -1.30799 0.6067 0 0 1 0.037908 0.279064 
0.210785 -1.22357 0.6067 0 0 1 0.037908 0.279064 
0.253983 -1.2077 0.414019 0.970996 0.0823285 0.224473 0.037908 0.253536 
4.74602 -1.24081 0.414019 -0.971666 0.0742539 0.224392 0.037908 0.253536 
4.78922 -1.25775 0.6067 0 0 1 0.037908 0.279064 
5 -1.34789 0.6067 0 0 1 0.037908 0.279064 
5 -1.34044 0 1 0 0 0.037908 0.253536 
5 -0.680576 0 1 0 0 0.037908 0.253536 
5 -0.67174 0.6067 1 0 0 0.037908 0.253536 
4.78922 -0.778576 0.6067 0 0 1 0.037908 0.279064 
4.74602 -0.79866 0.414019 -0.973353 -0.0510378 0.22356 0.037908 0.253536 
4.15405 -2.00278 0 0 -1 0 0.037908 0.253536 
4.16007 -2.00278 0.6067 0 0 1 0.037908 0.279064 
4.12 -1.83215 0.6067 0 0 1 0.037908 0.279064 
4.07375 -1.7488 0.414019 -0.0664115 0.945155 0.319798 0.037908 0.253536 
1.24174 -1.7488 0.414019 0.0336393 0.974682 0.221051 0.037908 0.253536 
1.2272 -1.79199 0.6067 0.0661542 0.971498 0.22763 0.037908 0.253536 
1.14986 -2.00278 0.6067 0 0 1 0.037908 0.279064 
1.15626 -2.00278 0 0 -1 0 0.037908 0.253536 
0.954239 -0.253986 0.414019 0.0591978 -0.919784 0.387933 0.037908 0.253536 
0.896095 -0.133812 0.6067 0 0 1 0.037908 0.279064 
0.822163 0 0.6067 0 0 1 0.037908 0.279064 
0.83136 0 0 0 1 0 0.037908 0.253536 
4.11024 -0.253986 0.414019 -0.0433358 -0.974275 0.221158 0.037908 0.253536 
4.12241 -0.210789 0.6067 -0.0842462 -0.969702 0.229307 0.037908 0.253536 
4.18712 0 0.6067 0 1 0 0.037908 0.253536 
4.18176 0 0 0 1 0 0.037908 0.253536 
0.63496 -0.237886 0.6067 0.164866 -0.920754 0.353596 0.037908 0.253536 
1.29402 -0.210789 0.6067 -0.0560575 -0.948585 0.311518 0.037908 0.253536 
4.42661 -1.75156 0.6067 0 0 1 0.037908 0.279064 
3.6965 -1.79199 0.6067 0 0 1 0.037908 0.279064 
0.993783 -1.83726 0.42894 0.324614 -0.0419228 0.944917 0.036449 0.276557 
1.01043 -1.16272 0.454769 -0.0600916 0.00721303 0.998167 0.036449 0.276557 
0.980623 -0.16552 0.42894 -0.389153 0.0139774 0.921067 0.036449 0.276557 
2.18226 -1.83726 0.42894 -0.276223 0.0211152 0.960862 0.036449 0.276557 
2.24935 -1.07527 0.42894 0.0835863 -0.0259978 0.996161 0.036449 0.276557 
2.21178 -0.165518 0.42894 0.444445 0.0230093 0.895511 0.036449 0.276557 
3.52318 -1.83726 0.380533 0.0152499 -0.0645293 0.997799 0.036449 0.276557 
3.5006 -1.09409 0.42894 0.177131 -0.0410562 0.98333 0.036449 0.276557 
3.50599 -0.165518 0.42894 -0.364447 0.00261435 0.93122 0.036449 0.276557 
0.910019 -0.165521 0.496251 0.502538 0.0386657 0.86369 0.036449 0.276557 
0.945916 -1.17449 0.52208 0.398563 -0.0052288 0.917126 0.036449 0.276557 
0.934099 -1.83726 0.496251 0.271807 -0.0429577 0.961393 0.036449 0.276557 
1.04335 -1.83726 0.496251 -0.793976 -0.00136449 0.607948 0.036449 0.276557 
1.064 -1.15295 0.52208 -0.772962 -0.00294391 0.634446 0.036449 0.276557 
1.03926 -0.16552 0.496251 -0.00122159 0.0265477 0.999647 0.036449 0.299488 
2.15741 -0.165518 0.496251 0 0 1 0.036449 0.299488 
2.20493 -1.04471 0.496251 0.813191 -0.00131232 0.581996 0.036449 0.276557 
2.12644 -1.83726 0.496251 0.79197 -0.074214 0.606032 0.036449 0.276557 
2.25766 -1.83726 0.496251 -0.235415 0.01826 0.971723 0.036449 0.276557 
2.31467 -1.10233 0.496251 -0.376437 0.0164538 0.926296 0.036449 0.276557 
2.2859 -0.165518 0.496251 -0.49724 -0.0178077 0.86743 0.036449 0.276557 
3.4503 -0.165518 0.496251 0.773913 -0.00398825 0.63328 0.036449 0.276557 
3.44609 -1.10008 0.496251 0.77769 -0.0141384 0.628489 0.036449 0.276557 
3.46109 -1.83726 0.448572 0.758608 -0.0231248 0.651137 0.036449 0.276557 
3.58747 -1.83726 0.44709 -0.401882 -0.0744219 0.912662 0.036449 0.276557 
3.55703 -1.08789 0.496251 -0.501583 -0.0282567 0.864648 0.036449 0.276557 
3.56364 -0.165518 0.496251 -0.275443 0.00197388 0.961315 0.036449 0.276557 
0.585411 -1.20352 0.496251 0.767712 -0.0156497 0.640604 0.037179 0.278335 
1.81193 -0.955667 0.438786 0.50288 0.008327 0.864316 0.037179 0.278335 
3.03762 -0.802815 0.451515 0.469878 -0.045711 0.881547 0.037179 0.278335 
2.71342 -1.15805 0.44057 -0.605301 0.0188928 0.795772 0.037179 0.278335 
4.2938 -0.979036 0.487281 0.805488 0.0319746 0.591749 0.037179 0.278335 
4.4166 -0.979036 0.508418 -0.814915 -0.03011 0.578798 0.037179 0.278335 
4.45825 -1.83726 0.496251 -0.787164 -0.046924 0.614956 0.037179 0.278335 
4.00218 -1.06866 0.487281 -0.00676507 0.0507094 0.99869 0.036449 0.276557 
3.00358 -1.43173 0.46091 0.0387124 0.140692 0.989296 0.036449 0.299488 
2.70631 -1.83726 0.553047 -0.827074 0.100243 0.553082 0.037179 0.278335 
1.52601 -1.09863 0.438786 -0.00119991 0.0283143 0.999598 0.036449 0.276557 
1.75703 -1.83726 0.496251 0.438148 0.0229088 0.898611 0.037179 0.278335 
2.96289 -1.12804 0.44057 0.148993 0.00872403 0.9888 0.037179 0.278335 
0.210785 -1.22357 0.6067 0.970025 0.0798068 0.229528 0.037908 0.253536 
3.6965 -1.79199 0.6067 0.0292518 0.96161 0.272855 0.037908 0.253536 
4.78922 -1.25775 0.6067 -0.970817 0.0720145 0.228752 0.037908 0.253536 
0.822163 0 0.6067 0 1 0 0.037908 0.253536 
0 0 0.6067 -0.707107 0.707107 0 0.037908 0.253536 
5 -1.34789 0.6067 1 0 0 0.037908 0.253536 
0 -1.30799 0.6067 -1 0 0 0.037908 0.253536 
4.16007 -2.00278 0.6067 0 -1 0 0.037908 0.253536 
0.210785 -0.739555 0.6067 0.968081 -0.094637 0.232084 0.037908 0.253536 
0.278095 -0.270296 0.6067 0.655687 -0.691939 0.302151 0.037908 0.253536 
0 -0.639927 0.6067 -1 0 0 0.037908 0.253536 
4.72268 -1.71627 0.6067 0 0 1 0.037908 0.279064 
5 -0.67174 0.6067 0 0 1 0.037908 0.279064 
4.78922 -0.778576 0.6067 -0.96735 -0.0995336 0.233081 0.037908 0.253536 
5 -2.00278 0.6067 0.707107 -0.707107 0 0.037908 0.253536 
4.42661 -1.75156 0.6067 -0.155896 0.93954 0.304896 0.037908 0.253536 
0.287106 -1.6972 0.6067 0.653077 0.694424 0.302103 0.037908 0.253536 
0 -2.00278 0.6067 0 0 1 0.037908 0.279064 
1.14986 -2.00278 0.6067 0 -1 0 0.037908 0.253536 
1.29402 -0.210789 0.6067 0 0 1 0.037908 0.279064 
4.71463 -0.286192 0.6067 -0.665731 -0.682255 0.302211 0.037908 0.253536 
4.18712 0 0.6067 0 0 1 0.037908 0.279064 
5 0 0.6067 0 0 1 0.037908 0.279064 
0.896095 -0.133812 0.6067 0.0714052 -0.836513 0.543275 0.037908 0.253536 
4.12 -1.83215 0.6067 -0.0718615 0.909026 0.410497 0.037908 0.253536 
0.657293 -0.16552 0.496251 -0.00150992 0.0251592 0.999682 0.036449 0.276557 
0.708217 -1.20352 0.52208 0.000582258 -0.0183494 0.999831 0.036449 0.276557 
1.064 -1.15295 0.52208 0.000321876 -0.0160151 0.999872 0.036449 0.299488 
1.39947 -1.12153 0.52208 0.000321875 0.00556966 0.999985 0.036449 0.299488 
1.93474 -0.978566 0.496251 0 0 1 0.036449 0.299488 
2.20493 -1.04471 0.496251 0 0 1 0.036449 0.299488 
1.9707 -1.83726 0.496251 0 0 1 0.036449 0.299488 
2.59061 -1.15805 0.496251 0 0 1 0.036449 0.276557 
3.44609 -1.10008 0.496251 0.00170717 -0.0214892 0.999768 0.036449 0.299488 
3.17602 -0.16552 0.496251 0 0 1 0.036449 0.299488 
3.17602 -1.12153 0.496251 0.00462823 -0.0424962 0.999086 0.036449 0.299488 
3.46109 -1.83726 0.448572 0.00693918 -0.0637152 0.997944 0.036449 0.299488 
3.87938 -1.06866 0.496251 0.00265756 -0.032938 0.999454 0.036449 0.276557 
3.88976 -0.16552 0.496251 0 0 1 0.036449 0.276557 
4.40525 -0.16552 0.496251 0 0.0149544 0.999888 0.036449 0.299488 
2.15741 -0.165518 0.496251 0.777246 0.0420117 0.627792 0.036449 0.276557 
0.534486 -0.16552 0.496251 0.787457 0.038633 0.615158 0.037179 0.278335 
1.79147 -0.16552 0.496251 0.787816 -0.0243626 0.615429 0.037179 0.278335 
1.47803 -0.16552 0.496251 -0.785618 -0.0781902 0.613751 0.037179 0.278335 
3.05321 -0.16552 0.496251 0.786511 -0.0623753 0.614418 0.037179 0.278335 
2.70279 -0.16552 0.496251 -0.787304 -0.0429382 0.615068 0.037179 0.278335 
4.28245 -0.16552 0.496251 0.788043 0.0042079 0.615605 0.037179 0.278335 
4.01257 -0.16552 0.496251 -0.788027 0.00294856 0.615633 0.037179 0.278335 
2.57998 -0.16552 0.496251 0.788017 0.0084405 0.615596 0.037179 0.278335 
1.35523 -0.16552 0.496251 0.786941 0.05303 0.614745 0.037179 0.278335 
4.33545 -1.83726 0.553632 0.908778 0.0758326 0.410331 0.037179 0.278335 
4.09728 -1.83726 0.553632 0 0.0860078 0.996294 0.036449 0.276557 
2.9692 -1.83726 0.542328 0.910715 0.00571471 0.412995 0.037179 0.278335 
1.33016 -1.83726 0.496251 0.784248 -0.0980536 0.612651 0.037179 0.278335 
0.534486 -1.83726 0.478204 0 -0.0284658 0.999595 0.036449 0.299488 
1.45297 -1.83726 0.496251 0 0.0775653 0.996987 0.036449 0.276557 
0.63496 -0.237886 0.6067 0 0 1 0.037908 0.279064 
1.2272 -1.79199 0.6067 0 0 1 0.037908 0.279064 
4.12241 -0.210789 0.6067 0 0 1 0.037908 0.279064 
1.03926 -0.16552 0.496251 -0.75404 -0.00171438 0.656826 0.036449 0.276557 
0.708307 -1.83726 0.496251 -3.77184e-07 -0.0407232 0.99917 0.036449 0.276557 
1.04335 -1.83726 0.496251 0 -0.0377178 0.999288 0.036449 0.299488 
1.91428 -0.16552 0.496251 0 0 1 0.036449 0.299488 
2.12644 -1.83726 0.496251 0 0 1 0.036449 0.299488 
2.55437 -1.83726 0.496251 0 0 1 0.036449 0.276557 
3.4503 -0.165518 0.496251 0 0 1 0.036449 0.299488 
3.16385 -1.83726 0.451181 0.0087592 -0.0629924 0.997976 0.036449 0.299488 
3.93415 -1.83726 0.444752 0.00672875 -0.0663752 0.997772 0.036449 0.276557 
3 16 47 46
3 128 139 127
3 124 132 133
3 130 144 145
3 7 68 67
3 10 61 9
3 56 55 69
3 14 49 13
3 3 150 66
3 4 151 60
3 62 1 63
3 5 152 54
3 153 0 57
3 6 154 48
3 50 2 51
3 15 48 155
3 0 58 57
3 18 60 59
3 1 64 63
3 20 66 65
3 21 51 2
3 22 54 53
3 46 24 23
3 155 25 156
3 154 25 48
3 157 26 49
3 50 28 27
3 29 51 52
3 146 130 145
3 30 54 31
3 70 31 54
3 33 32 158
3 153 34 159
3 58 34 57
3 140 127 139
3 59 37 36
3 39 63 40
3 64 40 63
3 133 123 124
3 42 66 43
3 150 43 66
3 45 67 68
3 160 38 61
3 161 60 151
3 152 162 54
3 162 70 54
3 113 72 76
3 88 92 93
3 104 105 122
3 97 101 96
3 119 80 111
3 87 163 94
3 107 164 106
3 165 102 95
3 166 84 167
3 99 168 98
3 169 90 91
3 170 110 103
3 171 80 172
3 89 76 72
3 173 84 90
3 169 86 74
3 92 77 93
3 163 81 94
3 165 82 78
3 97 174 73
3 168 85 98
3 100 83 71
3 175 75 101
3 176 79 102
3 170 85 177
3 104 73 121
3 178 82 106
3 108 81 179
3 109 77 180
3 181 86 110
3 115 120 111
3 113 112 182
3 114 117 118
3 116 79 183
3 184 75 185
3 117 83 118
3 111 120 186
3 111 186 119
3 106 164 187
3 106 187 178
3 124 135 136
3 136 125 124
3 126 142 127
3 143 127 142
3 130 147 148
3 148 131 130
3 133 188 189
3 189 134 133
3 190 41 191
3 137 191 19
3 138 192 193
3 194 193 192
3 141 195 142
3 17 142 195
3 196 197 198
3 198 199 196
3 147 200 148
3 149 200 201
3 16 202 47
3 128 203 139
3 124 125 132
3 130 131 144
3 7 8 68
3 10 160 61
3 69 11 12
3 12 56 69
3 14 157 49
3 3 204 150
3 4 205 151
3 62 206 1
3 5 207 152
3 153 208 0
3 6 209 154
3 50 210 2
3 15 6 48
3 0 211 58
3 18 4 60
3 1 212 64
3 20 3 66
3 21 52 51
3 22 5 54
3 46 47 24
3 155 48 25
3 154 213 25
3 157 214 26
3 50 51 28
3 29 28 51
3 146 129 130
3 30 53 54
3 70 215 31
3 55 56 158
3 56 33 158
3 153 57 34
3 58 35 34
3 140 126 127
3 59 60 37
3 39 62 63
3 64 216 40
3 133 134 123
3 42 65 66
3 150 44 43
3 45 217 67
3 160 218 38
3 161 37 60
3 76 219 113
3 219 112 113
3 88 89 92
3 122 220 109
3 109 104 122
3 97 175 101
3 119 172 80
3 87 171 163
3 107 108 164
3 165 176 102
3 166 114 84
3 99 100 168
3 169 173 90
3 170 181 110
3 171 87 80
3 89 88 76
3 173 167 84
3 169 91 86
3 92 180 77
3 163 179 81
3 165 95 82
3 97 96 174
3 168 177 85
3 100 99 83
3 175 185 75
3 176 183 79
3 170 103 85
3 174 121 73
3 121 105 104
3 178 78 82
3 108 107 81
3 109 220 77
3 181 74 86
3 115 116 120
3 182 221 184
3 184 113 182
3 114 166 117
3 116 115 79
3 184 221 75
3 117 71 83
3 124 123 135
3 136 222 125
3 126 141 142
3 143 128 127
3 130 129 147
3 148 149 131
3 133 132 188
3 189 223 134
3 190 224 41
3 137 190 191
3 138 225 192
3 194 226 193
3 141 227 195
3 17 143 142
3 196 228 197
3 198 229 199
3 147 230 200
3 149 148 200
