ply
format ascii 1.0
comment INFO-3111 Flatenator generated
comment TextureFile Dungeons_Texture_01.png
element vertex 16
property float x
property float y
property float z
property float nx
property float ny
property float nz
property float texture_u
property float texture_v
element face 28
property list uchar int vertex_indices
end_header
-0.201822 -0.019472 0.201822 -0.616474 -0.0614032 0.784978 0.211923 0.303946 
-0.201822 -0.201822 0.100911 -0.515953 -0.847031 0.127797 0.211923 0.303946 
-0.100912 -0.201822 0.201822 -0.293148 -0.607404 0.738325 0.211923 0.303946 
0.201822 -0.201822 0.100911 0.804488 -0.579605 0.129837 0.211923 0.303946 
0.201822 -0.100911 0.201822 0.698399 -0.156448 0.6984 0.211923 0.303946 
0.10091 -0.201822 0.201822 0.156447 -0.6984 0.6984 0.211923 0.303946 
-0.201822 0.100911 -0.201822 -0.804489 0.129836 -0.579604 0.211923 0.303946 
-0.201822 0.201822 -0.100911 -0.6984 0.698399 -0.156447 0.211923 0.303946 
-0.100912 0.201822 -0.201822 -0.156449 0.698399 -0.698399 0.211923 0.303946 
0.201822 0.201822 0.201822 0.408248 0.408248 0.816497 0.211923 0.303946 
-0.201822 0.201822 0.201822 -0.408248 0.816497 0.408248 0.211923 0.303946 
-0.201822 -0.201822 -0.201822 -0.408248 -0.408248 -0.816497 0.211923 0.303946 
0.201822 -0.201822 -0.201822 0.408248 -0.816497 -0.408248 0.211923 0.303946 
0.201822 0.201822 -0.01006 0.616667 0.785031 -0.0587154 0.211923 0.303946 
0.201822 0.100911 -0.201822 0.51783 0.128882 -0.84572 0.211923 0.303946 
0.10091 0.201822 -0.201822 0.295696 0.741891 -0.601798 0.211923 0.303946 
3 0 1 2
3 3 4 5
3 6 7 8
3 4 9 0
3 5 2 1
3 13 14 15
3 6 0 7
3 14 13 3
3 14 12 11
3 7 13 8
3 10 0 9
3 0 2 5
3 4 0 5
3 1 11 12
3 12 3 1
3 3 5 1
3 6 11 1
3 1 0 6
3 0 10 7
3 9 4 13
3 4 3 13
3 3 12 14
3 11 6 14
3 6 8 14
3 8 15 14
3 7 10 13
3 10 9 13
3 13 15 8
