ply
format ascii 1.0
comment VCGLIB generated
comment TextureFile Dungeons_Texture_01.png
element vertex 20
property float x
property float y
property float z
property float nx
property float ny
property float nz
property uchar red
property uchar green
property uchar blue
property uchar alpha
property float texture_u
property float texture_v
element face 36
property list uchar int vertex_indices
end_header
0.307379 -0.10058 0.09079 0.8650991 -0.4862754 0.1230443 120 116 110 255 0.211923 0.303946
0.307379 -0.05029 0.181581 0.6023315 -0.3972419 0.6923841 120 116 110 255 0.211923 0.303946
0.153688 -0.10058 0.181581 0.04666672 -0.6513656 0.7573277 120 116 110 255 0.211923 0.303946
-0.307381 0.10058 0.09079 -0.8650991 0.4862754 0.1230443 120 116 110 255 0.211923 0.303946
-0.307381 0.05029 0.181581 -0.6023315 0.3972419 0.6923841 120 116 110 255 0.211923 0.303946
-0.15369 0.10058 0.181581 -0.05311619 0.7413862 0.6689732 120 116 110 255 0.211923 0.303946
0.307379 0.05029 0.181581 0.6917855 0.2785418 0.6662187 120 116 110 255 0.211923 0.303946
0.307379 0.10058 -0.032031 0.8261006 0.5619615 0.04191534 120 116 110 255 0.211923 0.303946
0.153688 0.10058 0.181581 0.08234446 0.7943113 0.6019046 120 116 110 255 0.211923 0.303946
-0.307381 0.05029 -0.18158 -0.6447378 0.2642917 -0.7172608 120 116 110 255 0.211923 0.303946
-0.307381 0.10058 -0.074544 -0.5970302 0.7939352 -0.1149869 120 116 110 255 0.211923 0.303946
-0.05006 0.10058 -0.18158 -0.02641548 0.7417799 -0.670123 120 116 110 255 0.211923 0.303946
-0.307381 -0.10058 0.181581 -0.4850713 -0.7276069 0.4850713 120 116 110 255 0.211923 0.303946
0.307379 0.10058 -0.18158 0.5773503 0.5773503 -0.5773503 120 116 110 255 0.211923 0.303946
-0.307381 -0.10058 -0.090789 -0.9138962 -0.3935449 -0.09958034 120 116 110 255 0.211923 0.303946
-0.307381 -0.05029 -0.18158 -0.6023315 -0.3972419 -0.6923841 120 116 110 255 0.211923 0.303946
-0.15369 -0.10058 -0.18158 -0.0612903 -0.6327556 -0.7719222 120 116 110 255 0.211923 0.303946
0.307379 -0.05029 -0.18158 0.6286933 -0.2568105 -0.7340253 120 116 110 255 0.211923 0.303946
0.307379 -0.10058 -0.090789 0.5899678 -0.7963159 -0.1334876 120 116 110 255 0.211923 0.303946
-0.042452 -0.10058 -0.18158 0.0271427 -0.8414392 -0.5396696 120 116 110 255 0.211923 0.303946
3 0 1 2 
3 3 4 5 
3 6 7 8 
3 9 10 11 
3 8 5 2 
3 11 10 5 
3 14 15 16 
3 17 18 19 
3 10 9 14 
3 7 6 0 
3 2 12 19 
3 19 16 11 
3 4 12 5 
3 12 2 5 
3 2 1 6 
3 6 8 2 
3 10 3 5 
3 5 8 11 
3 8 7 11 
3 7 13 11 
3 9 15 14 
3 14 12 3 
3 12 4 3 
3 3 10 14 
3 6 1 0 
3 0 18 7 
3 18 17 7 
3 17 13 7 
3 12 14 16 
3 16 19 12 
3 19 18 2 
3 18 0 2 
3 15 9 16 
3 9 11 16 
3 11 13 17 
3 17 19 11 
