ply
format ascii 1.0
comment INFO-3111 Flatenator generated
comment TextureFile Dungeons_Texture_01.png
element vertex 87
property float x
property float y
property float z
property float nx
property float ny
property float nz
element face 100
property list uchar int vertex_indices
end_header
-0.504677 0.143011 0.265444 -0.801551 0.422733 0.422863 
-0.37788 0.137288 0.257994 0.0496507 0.978133 0.201965 
0.08675 0.121143 0.264132 -0.0866085 0.724334 0.683988 
0.379475 0.142936 0.265305 0.139249 0.656967 0.740948 
-0.132179 0.123479 0.258139 -0.00588035 0.933891 0.35751 
0.504692 0.081497 0.265402 0.78063 0.240479 0.576877 
-0.504692 0.006859 0.265438 -0.696228 0.0175546 0.717606 
-0.219818 0.070683 0.264668 -0.00865281 0.0626237 0.998 
-0.282337 0.037412 0.244154 0.204995 -0.928323 0.310151 
-0.219307 0.006201 0.193172 -0.246686 -0.934302 0.257345 
-0.197075 0.000388 0.263113 -0.572358 -0.811978 0.114449 
-0.363708 0.000419 0.265093 -0.00821749 0.0509471 0.998667 
0.504326 0.000271 0.265041 0.193359 -0.00987455 0.981078 
-0.102432 0.144694 0.215237 -0.0803356 0.873993 0.479253 
-0.205956 0.137909 0.212721 -0.00951594 0.973708 0.2276 
-0.504528 5e-06 0.119135 -0.368205 -0.921251 -0.125388 
0.158669 0.143133 0.265379 -0.00245983 0.693845 0.72012 
0.480572 0.120289 0.242832 0.290549 0.837141 0.463439 
-0.165604 0.145548 0.161915 -0.0113968 0.990112 0.139818 
-0.291775 0.002877 0.078665 0.0148758 -0.999126 0.0390742 
-0.504581 0.143685 -0.025454 -0.551831 0.833929 0.00672097 
0.493191 0.13165 0.105518 0.300078 0.948339 0.10299 
-0.504692 0.060511 0.067364 -0.999987 -0.00431079 -0.00272122 
0.433723 0.145548 0.150814 0.0494548 0.998686 0.0134072 
0.370632 0 -0.016586 0.0146134 -0.999272 -0.03524 
0.504433 7.4e-05 0.046753 0.652171 -0.678298 -0.338502 
0.481808 0.031248 0.001528 0.955039 -0.0165651 -0.296017 
-0.455257 0.001672 -0.006584 -0.312927 -0.949743 -0.00804645 
0.495651 0.125773 -0.008442 0.849708 0.382648 -0.362736 
-0.491123 0.01246 -0.071512 -0.644638 -0.751384 0.140942 
0.476871 0.010013 -0.037477 0.793226 -0.607519 -0.0413873 
0.46418 0.118797 -0.067763 0.872262 0.486982 -0.0447961 
0.504284 0.000175 -0.261952 -0.103122 -0.994669 0.000416688 
0.501877 0.002028 -0.059355 0.366114 -0.657568 0.658457 
0.504692 0.143685 -0.165905 0.766977 0.615304 0.182063 
-0.503399 0.080998 -0.173665 -0.999935 -0.00955221 -0.00617609 
-0.502087 0.002771 -0.207154 -0.771154 -0.629942 -0.0921705 
0.014717 0.001651 -0.196754 0.00236699 -0.994624 -0.103521 
-0.501614 0.089025 -0.229881 -0.848672 0.321135 -0.420272 
0.298702 0.145548 -0.207373 -0.00938957 0.999925 0.00787849 
0.347935 0.017604 -0.26543 -0.0332032 -0.987394 -0.154758 
-0.43314 0.142862 -0.216164 -0.00207703 0.999982 -0.00563445 
-0.464813 0.00043 -0.26129 -0.402308 -0.845333 -0.351512 
-0.048874 0.006089 -0.240344 0.0255764 -0.865905 -0.499554 
0.235844 0.138153 -0.233529 -0.0140056 0.999866 -0.00847943 
0.504692 0.143531 -0.263078 0.266374 0.799262 -0.538725 
-0.331905 0.110961 -0.263594 -0.0820294 0.737064 -0.670827 
0.172531 0.143536 -0.263125 0.0207694 0.71703 -0.696733 
0.150032 0.021363 -0.262989 -0.0145685 -0.854368 -0.519464 
-0.463867 0.090416 -0.262473 -0.452693 0.51881 -0.725193 
-0.188301 0.006896 -0.265436 0.0771694 -0.915687 -0.394415 
-0.09367 0.070677 -0.265446 0.000597445 0.0144868 -0.999895 
-0.37788 0.137288 0.257994 0.0151031 0.481823 0.876139 
0.08675 0.121143 0.264132 -0.0115295 0.0491849 0.998723 
-0.132179 0.123479 0.258139 -0.00973788 0.138629 0.990296 
-0.219818 0.070683 0.264668 -0.1389 -0.870443 0.472267 
-0.363708 0.000419 0.265093 0.176284 -0.982314 0.0631166 
-0.197075 0.000388 0.263113 -0.00275189 -0.0230054 0.999732 
-0.504692 0.006859 0.265438 -0.0454675 -0.997874 0.0466974 
0.158669 0.143133 0.265379 -0.162419 0.482383 0.860771 
-0.165604 0.145548 0.161915 -0.00556106 0.999963 0.00656236 
0.504326 0.000271 0.265041 -0.00436259 -0.999957 -0.00813741 
0.504433 7.4e-05 0.046753 0.998261 0.0585218 -0.00711703 
-0.102432 0.144694 0.215237 0.00080554 0.999801 0.0199575 
0.433723 0.145548 0.150814 0.552423 0.831658 -0.0563415 
0.480572 0.120289 0.242832 0.872926 0.338202 -0.351595 
0.504692 0.081497 0.265402 0.719067 0.692494 -0.0582652 
0.493191 0.13165 0.105518 0.995885 0.0899637 -0.0109137 
-0.504528 5e-06 0.119135 -0.999993 -0.00352885 -0.000955853 
0.495651 0.125773 -0.008442 0.736111 0.676316 -0.0271716 
-0.504692 0.060511 0.067364 -0.821472 -0.570089 -0.0135553 
0.298702 0.145548 -0.207373 0.405164 0.857955 -0.315841 
0.46418 0.118797 -0.067763 0.492069 0.773583 0.399295 
0.501877 0.002028 -0.059355 0.961358 0.15303 0.228851 
-0.502087 0.002771 -0.207154 -0.999881 -0.0139655 -0.00655092 
0.504284 0.000175 -0.261952 0.898412 -0.0096093 -0.439048 
-0.43314 0.142862 -0.216164 -0.431962 0.785568 -0.443049 
-0.503399 0.080998 -0.173665 -0.855685 0.511522 -0.0784148 
-0.504581 0.143685 -0.025454 -0.72355 0.633656 -0.27378 
0.172531 0.143536 -0.263125 -0.0495638 0.776557 -0.628095 
-0.331905 0.110961 -0.263594 -0.0056575 0.0170807 -0.999838 
0.150032 0.021363 -0.262989 -0.00140472 -0.000854387 -0.999999 
-0.463867 0.090416 -0.262473 -0.0119744 -0.00403463 -0.99992 
-0.188301 0.006896 -0.265436 -0.0100616 0.000341919 -0.999949 
0.347935 0.017604 -0.26543 0.00306297 0.00391355 -0.999988 
-0.464813 0.00043 -0.26129 -0.0146872 -0.0129893 -0.999808 
-0.09367 0.070677 -0.265446 0.0491532 -0.332013 -0.941993 
3 13 4 2
3 4 14 1
3 17 3 5
3 0 6 52
3 16 53 12
3 54 52 7
3 53 54 7
3 52 6 11
3 52 11 7
3 5 3 12
3 55 8 9
3 55 56 8
3 55 9 10
3 53 7 12
3 3 16 12
3 7 57 12
3 15 56 58
3 13 14 4
3 59 13 2
3 14 18 1
3 20 0 52
3 60 20 52
3 24 25 61
3 18 14 13
3 23 3 17
3 5 12 62
3 56 19 8
3 23 63 16
3 23 16 3
3 19 9 8
3 23 60 63
3 64 65 66
3 64 66 21
3 0 20 22
3 67 5 62
3 0 22 6
3 6 22 68
3 19 61 9
3 61 10 9
3 15 27 56
3 27 19 56
3 28 64 21
3 67 62 69
3 70 27 15
3 26 28 25
3 24 30 25
3 30 26 25
3 39 23 69
3 70 29 27
3 30 28 26
3 41 20 60
3 31 28 30
3 32 30 24
3 32 33 30
3 31 71 28
3 33 31 30
3 20 35 22
3 34 39 72
3 34 72 73
3 70 36 29
3 37 24 61
3 35 74 22
3 36 27 29
3 27 42 19
3 34 73 75
3 19 37 61
3 76 77 78
3 39 44 23
3 77 76 38
3 40 32 24
3 36 42 27
3 40 24 37
3 77 38 36
3 19 43 37
3 48 40 37
3 47 41 60
3 23 47 60
3 45 44 39
3 45 34 75
3 42 50 19
3 50 43 19
3 47 23 44
3 46 76 79
3 45 39 34
3 43 48 37
3 38 76 49
3 76 46 49
3 80 47 51
3 44 45 47
3 47 81 51
3 82 80 83
3 47 45 84
3 82 83 85
3 84 45 75
3 38 49 42
3 80 51 83
3 38 42 36
3 50 86 43
3 86 48 43
3 47 84 81
