ply
format ascii 1.0
comment INFO-3111 Flatenator generated
comment TextureFile Dungeons_Texture_01.png
element vertex 88
property float x
property float y
property float z
property float nx
property float ny
property float nz
property uchar red
property uchar green
property uchar blue
property uchar alpha
property float texture_u
property float texture_v
element face 100
property list uchar int vertex_indices
end_header
-0.543095 0.143574 0.247411 -0.687716 0.695697 0.207488 97 95 95 255 0.201528 0.277604 
-0.006138 0.143005 0.325087 0.170885 0.701712 0.691663 97 95 95 255 0.201528 0.277604 
0.063927 0.106629 0.303433 0.762111 0.259619 0.593114 97 95 95 255 0.201528 0.277604 
-0.473858 0.108323 0.325112 -0.236727 0.456648 0.857574 97 95 95 255 0.201528 0.277604 
-0.290657 0.033181 0.31898 0.0328857 0.0198168 0.999263 97 95 95 255 0.201528 0.277604 
-0.350037 0 0.324661 0.0183681 -0.70694 0.707035 97 95 95 255 0.201528 0.277604 
-0.543034 0 0.325006 -0.603969 -0.519446 0.604481 97 95 95 255 0.201528 0.277604 
-0.172821 0.000573 0.323956 -0.00923048 -0.709516 0.704629 97 95 95 255 0.201528 0.277604 
0.048939 0 0.324375 0.51465 -0.600562 0.611932 97 95 95 255 0.201528 0.277604 
0.074684 0.130009 0.256373 0.778948 0.619379 0.0980242 97 95 95 255 0.201528 0.277604 
-0.279556 0.143797 0.325846 -0.0155936 0.701003 0.712988 97 95 95 255 0.201528 0.277604 
-0.543221 0 0.196271 -0.697228 -0.710793 -0.0929875 97 95 95 255 0.201528 0.277604 
0.35442 0 0.237299 -0.0619904 -0.566092 0.822008 97 95 95 255 0.201528 0.277604 
0.06842 0.029151 0.175217 0.917703 -0.396645 0.0222353 97 95 95 255 0.201528 0.277604 
0.485176 0.062746 0.127339 0.610857 0.161643 0.775064 97 95 95 255 0.201528 0.277604 
-0.534367 0.145485 0.162969 -0.605266 0.782768 -0.144664 97 95 95 255 0.201528 0.277604 
0.356506 0.14463 0.228135 -0.0197724 0.628256 0.777755 97 95 95 255 0.201528 0.277604 
0.052197 0.102812 0.116775 -0.0231452 0.997174 -0.0714769 120 120 119 255 0.201528 0.302495 
0.448059 0.134835 0.100868 0.259339 0.898359 0.354533 97 95 95 255 0.201528 0.277604 
-0.504436 0.003249 0.079936 -0.450004 -0.887617 0.0981448 120 120 119 255 0.201528 0.304075 
0.045181 0.006249 0.058299 0.449189 -0.888545 0.0933667 97 95 95 255 0.201528 0.277604 
0.155548 0.071389 0.023316 -0.88526 0.0443893 0.462973 97 95 95 255 0.201528 0.277604 
0.092018 0.100736 -0.035477 0.809964 0.529814 0.251509 97 95 95 255 0.201528 0.277604 
-0.524876 0.087198 0.096405 -0.986863 0.157396 0.0364365 97 95 95 255 0.201528 0.277604 
-0.477287 0.136709 0.071076 -0.153302 0.983923 0.091622 97 95 95 255 0.201528 0.277604 
0.075695 0.000595 0.038983 0.551217 -0.592224 0.587733 97 95 95 255 0.201528 0.277604 
-0.543247 0.143308 0.038025 -0.676208 0.686158 0.268196 97 95 95 255 0.201528 0.277604 
-0.086823 0.145548 0.145465 0.110795 0.991885 -0.0623532 120 120 119 255 0.201528 0.302495 
-0.543285 0 0.029169 -0.68672 -0.703846 0.181702 97 95 95 255 0.201528 0.277604 
0.428474 0.000239 0.016481 0.0555502 -0.998084 -0.0272348 120 120 119 255 0.201528 0.304075 
0.209259 0.143961 -0.004957 -0.406365 0.905799 0.119982 97 95 95 255 0.201528 0.277604 
-0.543541 0.143207 -0.202532 -0.577865 0.575691 -0.578492 97 95 95 255 0.201528 0.277604 
-0.078777 0.135249 0.070168 0.166481 0.985947 -0.0138668 120 120 119 255 0.201528 0.302495 
0.04372 0.125178 0.016429 0.368271 0.926746 0.0742863 97 95 95 255 0.201528 0.277604 
-0.023212 0.145198 -0.003454 -0.0772528 0.996994 -0.00596129 97 95 95 255 0.201528 0.277604 
0.542053 0.144683 0.078247 0.752816 0.636811 0.166551 97 95 95 255 0.201528 0.277604 
0.290787 0 -0.173608 0.234378 -0.950462 -0.204178 120 120 119 255 0.201528 0.304075 
0.543537 0.00757 0.077643 0.831085 -0.552374 0.0646522 120 120 119 255 0.201528 0.304075 
0.124702 0.000451 -0.128578 -0.00246668 -0.983446 0.181183 120 120 119 255 0.201528 0.304075 
0.133671 0.107696 -0.135431 -0.0591594 0.824243 0.563137 97 95 95 255 0.201528 0.277604 
-0.543236 0 -0.202151 -0.573842 -0.582294 -0.575881 120 120 119 255 0.201528 0.304075 
0.283451 0.021958 -0.22381 0.73065 -0.381105 -0.566488 97 95 95 255 0.201528 0.277604 
0.394131 0.144083 -0.098452 0.529566 0.71168 -0.461597 120 120 119 255 0.201528 0.302495 
-0.215054 0.143552 -0.110173 0.0307181 0.952937 -0.301608 120 120 119 255 0.201528 0.302495 
0.063484 0.144407 -0.180455 -0.139226 0.835301 -0.531872 97 95 95 255 0.201528 0.277604 
-0.372807 0.143303 -0.202332 0.0889243 0.691289 -0.717086 120 120 119 255 0.201528 0.302495 
-0.289738 0.080796 -0.198258 0.175418 0.305526 -0.935886 97 95 95 255 0.201528 0.277604 
-0.204731 0.059815 -0.195239 0.0231684 0.377365 -0.925775 97 95 95 255 0.201528 0.277604 
0.094997 0 -0.158827 -0.195583 -0.883566 -0.42551 120 120 119 255 0.201528 0.304075 
-0.24699 0 -0.202256 0.0305547 -0.678752 -0.733731 120 120 119 255 0.201528 0.304075 
0.203934 0.14368 -0.325847 -0.00427744 0.546231 -0.837623 97 95 95 255 0.201528 0.277604 
0.197918 0.001476 -0.324786 -0.0711347 -0.563144 -0.823291 120 120 119 255 0.201528 0.304075 
-0.350037 0 0.324661 0.0183681 -0.70694 0.707035 120 120 119 255 0.201528 0.304075 
-0.543034 0 0.325006 -0.603969 -0.519446 0.604481 120 120 119 255 0.201528 0.304075 
-0.279556 0.143797 0.325846 -0.0155936 0.701003 0.712988 120 120 119 255 0.201528 0.302495 
-0.006138 0.143005 0.325087 0.170885 0.701712 0.691663 120 120 119 255 0.201528 0.302495 
0.074684 0.130009 0.256373 0.778948 0.619379 0.0980242 120 120 119 255 0.201528 0.302495 
-0.543221 0 0.196271 -0.697228 -0.710793 -0.0929875 120 120 119 255 0.201528 0.304075 
-0.477287 0.136709 0.071076 -0.153302 0.983923 0.091622 120 120 119 255 0.201528 0.302495 
-0.543095 0.143574 0.247411 -0.687716 0.695697 0.207488 120 120 119 255 0.201528 0.302495 
0.048939 0 0.324375 0.51465 -0.600562 0.611932 120 120 119 255 0.201528 0.304075 
-0.172821 0.000573 0.323956 -0.00923048 -0.709516 0.704629 120 120 119 255 0.201528 0.304075 
0.35442 0 0.237299 -0.0619904 -0.566092 0.822008 120 120 119 255 0.201528 0.304075 
0.543537 0.00757 0.077643 0.831085 -0.552374 0.0646522 97 95 95 255 0.201528 0.277604 
-0.504436 0.003249 0.079936 -0.450004 -0.887617 0.0981448 97 95 95 255 0.201528 0.277604 
0.052197 0.102812 0.116775 -0.0231452 0.997174 -0.0714769 97 95 95 255 0.201528 0.277604 
0.045181 0.006249 0.058299 0.449189 -0.888545 0.0933667 120 120 119 255 0.201528 0.304075 
0.209259 0.143961 -0.004957 -0.406365 0.905799 0.119982 120 120 119 255 0.201528 0.302495 
0.356506 0.14463 0.228135 -0.0197724 0.628256 0.777755 120 120 119 255 0.201528 0.302495 
0.448059 0.134835 0.100868 0.259339 0.898359 0.354533 120 120 119 255 0.201528 0.302495 
-0.078777 0.135249 0.070168 0.166481 0.985947 -0.0138668 97 95 95 255 0.201528 0.277604 
0.542053 0.144683 0.078247 0.752816 0.636811 0.166551 120 120 119 255 0.201528 0.302495 
0.155548 0.071389 0.023316 -0.88526 0.0443893 0.462973 120 120 119 255 0.201528 0.304075 
0.124702 0.000451 -0.128578 -0.00246668 -0.983446 0.181183 97 95 95 255 0.201528 0.277604 
-0.543247 0.143308 0.038025 -0.676208 0.686158 0.268196 120 120 119 255 0.201528 0.302495 
0.394131 0.144083 -0.098452 0.529566 0.71168 -0.461597 97 95 95 255 0.201528 0.277604 
-0.543541 0.143207 -0.202532 -0.577865 0.575691 -0.578492 120 120 119 255 0.201528 0.302495 
-0.543285 0 0.029169 -0.68672 -0.703846 0.181702 120 120 119 255 0.201528 0.304075 
0.133671 0.107696 -0.135431 -0.0591594 0.824243 0.563137 120 120 119 255 0.201528 0.302495 
0.063484 0.144407 -0.180455 -0.139226 0.835301 -0.531872 120 120 119 255 0.201528 0.302495 
-0.24699 0 -0.202256 0.0305547 -0.678752 -0.733731 97 95 95 255 0.201528 0.277604 
0.094997 0 -0.158827 -0.195583 -0.883566 -0.42551 97 95 95 255 0.201528 0.277604 
0.290787 0 -0.173608 0.234378 -0.950462 -0.204178 97 95 95 255 0.201528 0.277604 
-0.215054 0.143552 -0.110173 0.0307181 0.952937 -0.301608 97 95 95 255 0.201528 0.277604 
-0.543236 0 -0.202151 -0.573842 -0.582294 -0.575881 97 95 95 255 0.201528 0.277604 
-0.372807 0.143303 -0.202332 0.0889243 0.691289 -0.717086 97 95 95 255 0.201528 0.277604 
0.197918 0.001476 -0.324786 -0.0711347 -0.563144 -0.823291 97 95 95 255 0.201528 0.277604 
0.203934 0.14368 -0.325847 -0.00427744 0.546231 -0.837623 120 120 119 255 0.201528 0.302495 
3 3 0 6
3 10 3 6
3 10 6 5
3 1 8 2
3 10 5 4
3 10 4 7
3 10 7 8
3 10 8 1
3 19 52 53
3 9 1 2
3 9 2 8
3 10 0 3
3 27 54 55
3 5 7 4
3 6 0 11
3 27 55 56
3 12 14 16
3 57 19 53
3 9 8 13
3 24 15 0
3 58 59 54
3 17 27 56
3 0 15 11
3 49 60 61
3 29 37 62
3 16 14 18
3 14 12 63
3 49 61 52
3 12 16 21
3 15 23 11
3 11 23 64
3 20 13 8
3 24 23 15
3 16 30 21
3 65 9 22
3 22 9 13
3 14 35 18
3 49 66 60
3 22 13 20
3 32 27 17
3 42 67 68
3 69 42 68
3 35 14 63
3 22 20 25
3 33 70 65
3 24 26 23
3 23 28 64
3 19 49 52
3 38 29 62
3 71 42 69
3 33 65 22
3 23 26 28
3 62 72 38
3 34 70 33
3 49 38 66
3 73 25 20
3 58 43 74
3 27 58 54
3 26 31 28
3 75 35 63
3 22 25 73
3 43 76 74
3 38 36 29
3 22 34 33
3 36 37 29
3 21 30 39
3 39 22 73
3 39 34 22
3 21 39 73
3 32 43 27
3 48 36 38
3 41 75 63
3 40 19 77
3 39 44 34
3 42 78 67
3 79 43 32
3 80 81 73
3 44 70 34
3 82 41 63
3 75 44 39
3 50 75 41
3 45 76 43
3 48 51 36
3 47 83 44
3 31 84 28
3 46 85 83
3 47 46 83
3 40 49 19
3 86 41 82
3 31 85 84
3 44 80 47
3 47 80 46
3 44 81 80
3 85 46 84
3 46 80 84
3 42 87 79
3 41 86 50
3 44 50 81
3 81 50 86
3 27 43 58
