ply
format ascii 1.0
comment VCGLIB generated
comment TextureFile Dungeons_Texture_01.png
element vertex 95
property float x
property float y
property float z
property float nx
property float ny
property float nz
property uchar red
property uchar green
property uchar blue
property uchar alpha
property float texture_u
property float texture_v
element face 100
property list uchar int vertex_indices
end_header
0.504311 0.418547 0.260777 0.7214726 0.01652196 0.6922459 120 120 119 255 0.199346 0.301049
0.260384 0.462128 0.264658 0.005811867 0.7096602 0.7045202 120 120 119 255 0.199346 0.301049
0.34761 0.273758 0.265444 0.004733613 0.001096365 0.9999882 120 120 119 255 0.199346 0.301049
0.187263 0.462128 0.19854 -0.4908842 0.8700916 0.04442283 97 95 95 255 0.199346 0.280899
0.006214 0.398182 0.193992 0.01306498 0.716502 0.6974628 97 95 95 255 0.199346 0.280899
0.113583 0.217723 0.264721 -0.0006513552 -0.005655245 0.9999838 120 120 119 255 0.199346 0.301049
-0.085468 0.460392 0.262432 0.01085444 0.3035706 0.9527471 120 120 119 255 0.199346 0.301049
-0.25642 0.462128 0.264715 -0.04304837 0.9288679 0.3679012 120 120 119 255 0.199346 0.301049
-0.393353 0.406194 0.264557 0.01064429 -0.02127059 0.9997171 120 120 119 255 0.199346 0.301049
0.475861 0.228431 0.227869 0.6241517 -0.01675277 0.7811236 97 95 95 255 0.199346 0.280899
-0.504692 0.144418 0.263411 -0.5532311 -0.006867474 0.8329995 120 120 119 255 0.199346 0.301049
0.504326 -0 0.262268 0.6725715 0.1914557 0.7148373 97 95 95 255 0.199346 0.280899
0.113506 0.000547 0.263054 -0.69991 -0.5508871 0.4545871 97 95 95 255 0.199346 0.280899
0.021076 0.06205 0.195275 -0.1647677 -0.7962307 0.5821239 97 95 95 255 0.199346 0.280899
-0.504692 9.6e-05 0.260952 -0.577324 -0.5861971 0.5683924 120 120 119 255 0.199346 0.301049
-0.086334 0.000669 0.262199 4.65977e-05 -0.8349588 0.5503126 120 120 119 255 0.199346 0.301049
-0.096878 0.462128 -0.149878 -0.0005799899 0.9999914 0.004114976 120 120 119 255 0.199346 0.301049
0.504696 0.461656 0.230931 0.7604762 0.3650318 0.5370547 97 95 95 255 0.199346 0.280899
0.504658 0.199343 0.17419 0.8758089 -0.02266812 0.4821255 97 95 95 255 0.199346 0.280899
-0.464405 0.002612 0.082754 -0.06349488 -0.996547 -0.05350167 120 120 119 255 0.199346 0.301049
0.504288 9.6e-05 -0.118788 0.7062456 -0.707967 0.0001654557 120 120 119 255 0.199346 0.301049
-0.484394 0.447741 0.153405 -0.7074454 0.4471956 0.5472999 97 95 95 255 0.199346 0.280899
0.499012 0.459999 0.051257 0.7422652 0.5560323 -0.3739926 97 95 95 255 0.199346 0.280899
0.377853 0.462128 -0.074379 0.003677639 0.9999884 -0.003127462 120 120 119 255 0.199346 0.301049
-0.034649 0.000812 -0.033691 0.4269315 -0.9000259 -0.08765237 97 95 95 255 0.199346 0.280899
-0.504372 0.45701 0.082377 -0.5854192 0.8090147 0.05272268 120 120 119 255 0.199346 0.301049
0.05109 0.393983 0.036062 0.1424653 0.9848385 0.09897884 97 95 95 255 0.199346 0.280899
-0.504692 0.02888 0.100576 -1 0.0002570465 -6.538408e-05 120 120 119 255 0.199346 0.301049
0.142139 0.409135 0.041994 -0.3741053 0.9272212 0.01749902 97 95 95 255 0.199346 0.280899
0.209827 0 -0.265297 0.02244068 -0.4463295 -0.8945873 120 120 119 255 0.199346 0.301049
0.189419 0.461443 -0.066347 -0.5161676 0.8549888 0.05064781 97 95 95 255 0.199346 0.280899
0.46685 0.409586 -0.059826 0.6208852 0.7763962 -0.1082151 97 95 95 255 0.199346 0.280899
-0.504684 0.461544 -0.05791 -0.1057599 0.9914415 -0.076542 120 120 119 255 0.199346 0.301049
-0.459488 0.017992 -0.024343 -0.2343067 -0.9721627 -5.359105e-05 97 95 95 255 0.199346 0.280899
-0.17149 0 -0.265286 0.06223993 -0.8881394 -0.4553401 120 120 119 255 0.199346 0.301049
-0.504684 0.354071 -0.224364 -0.6700537 0.01669702 -0.7421249 97 95 95 255 0.199346 0.280899
0.104641 0.064604 -0.191422 0.1204383 -0.6712028 -0.7314242 97 95 95 255 0.199346 0.280899
-0.504578 0 -0.099071 0.1555762 -0.9776356 0.141509 97 95 95 255 0.199346 0.280899
0.504696 0.363569 -0.098878 0.7165692 0.6877979 -0.1160282 97 95 95 255 0.199346 0.280899
-0.338051 0.461236 -0.265335 -0.08508725 0.7862242 -0.6120554 120 120 119 255 0.199346 0.301049
0.103664 0.396388 -0.190744 -0.1329479 0.613014 -0.778806 97 95 95 255 0.199346 0.280899
-0.002792 0.461475 -0.26534 0.5466745 0.8061051 -0.226587 97 95 95 255 0.199346 0.280899
0.504448 0.113095 -0.22402 0.9999971 -0.002414768 -4.313502e-06 120 120 119 255 0.199346 0.301049
0.209499 0.461125 -0.265445 -0.6821697 0.504376 -0.5293858 97 95 95 255 0.199346 0.280899
0.504696 0.187765 -0.257599 0.7123474 -0.005417482 -0.7018061 120 120 119 255 0.199346 0.301049
-0.504494 0 -0.265205 -0.4075401 -0.4072734 -0.8173368 120 120 119 255 0.199346 0.301049
0.503052 0.461284 -0.265445 0.6721222 0.6814291 0.2896653 97 95 95 255 0.199346 0.280899
-0.432945 0.428873 -0.264356 -0.3145449 0.9146161 -0.2540449 120 120 119 255 0.199346 0.301049
0.025169 0.084581 -0.241618 0.4379871 -0.7110906 -0.550016 97 95 95 255 0.199346 0.280899
0.005859 0.247081 -0.264112 0.567818 -0.01113002 -0.8230789 97 95 95 255 0.199346 0.280899
-0.059669 0.025987 -0.252386 0.5746515 -0.8029668 -0.1581768 97 95 95 255 0.199346 0.280899
0.449352 0.079867 -0.259282 0.5455241 -0.5591053 -0.6243435 97 95 95 255 0.199346 0.280899
0.260384 0.462128 0.264658 -0.1887775 0.6008797 0.7767282 97 95 95 255 0.199346 0.280899
0.113583 0.217723 0.264721 -0.4993603 0.05269331 0.8647906 97 95 95 255 0.199346 0.280899
0.504311 0.418547 0.260777 0.6801405 0.0386377 0.7320629 97 95 95 255 0.199346 0.280899
0.34761 0.273758 0.265444 0.2784458 -0.008310337 0.960416 97 95 95 255 0.199346 0.280899
0.504326 -0 0.262268 0.4069734 -0.4154429 0.8134985 120 120 119 255 0.199346 0.301049
0.113506 0.000547 0.263054 0.0001902916 -0.8949823 0.4461017 120 120 119 255 0.199346 0.301049
-0.085468 0.460392 0.262432 0.6544625 0.6556352 0.3765917 97 95 95 255 0.199346 0.280899
-0.086334 0.000669 0.262199 0.6503668 -0.3201888 0.6888412 97 95 95 255 0.199346 0.280899
-0.504692 0.144418 0.263411 -0.8382715 0.2346026 0.4922017 97 95 95 255 0.199346 0.280899
-0.393353 0.406194 0.264557 -0.5269344 0.5587283 0.6404395 97 95 95 255 0.199346 0.280899
-0.25642 0.462128 0.264715 -0.3166994 0.7737675 0.5486213 97 95 95 255 0.199346 0.280899
0.499012 0.459999 0.051257 0.8896089 0.4566764 -0.006537942 120 120 119 255 0.199346 0.301049
0.504658 0.199343 0.17419 0.9999833 0.005737472 -0.000801887 120 120 119 255 0.199346 0.301049
0.504696 0.461656 0.230931 0.01503754 0.9998759 -0.004701636 120 120 119 255 0.199346 0.301049
-0.484394 0.447741 0.153405 -0.1433932 0.9753684 0.1676156 120 120 119 255 0.199346 0.301049
-0.504372 0.45701 0.082377 -0.9856765 0.08317076 0.1467126 97 95 95 255 0.199346 0.280899
-0.504692 9.6e-05 0.260952 -0.5842593 -0.7988034 -0.1433678 97 95 95 255 0.199346 0.280899
-0.504692 0.02888 0.100576 -0.3653547 -0.9294279 -0.05176606 97 95 95 255 0.199346 0.280899
-0.464405 0.002612 0.082754 -0.5840651 -0.7991028 -0.1424875 97 95 95 255 0.199346 0.280899
-0.096878 0.462128 -0.149878 0.327335 0.9411291 0.08442584 97 95 95 255 0.199346 0.280899
0.187263 0.462128 0.19854 -0.001873379 0.9999974 -0.001308254 120 120 119 255 0.199346 0.301049
0.377853 0.462128 -0.074379 0.517839 0.8497466 -0.09886162 97 95 95 255 0.199346 0.280899
0.189419 0.461443 -0.066347 -0.003733025 0.9999904 -0.002294452 120 120 119 255 0.199346 0.301049
-0.504684 0.461544 -0.05791 -0.9394072 0.2879908 -0.1859447 97 95 95 255 0.199346 0.280899
-0.504684 0.354071 -0.224364 -1 -5.853312e-05 -8.407087e-05 120 120 119 255 0.199346 0.301049
0.209827 0 -0.265297 -0.4963639 -0.6180857 -0.6095843 97 95 95 255 0.199346 0.280899
-0.459488 0.017992 -0.024343 -0.04816819 -0.9986945 0.01700056 120 120 119 255 0.199346 0.301049
-0.504578 0 -0.099071 -0.6926626 -0.7182936 0.06536662 120 120 119 255 0.199346 0.301049
0.504696 0.363569 -0.098878 0.9999198 0.01201961 0.004002524 120 120 119 255 0.199346 0.301049
-0.034649 0.000812 -0.033691 0.1234141 -0.989922 -0.06945007 120 120 119 255 0.199346 0.301049
0.209499 0.461125 -0.265445 0.007838415 0.700838 -0.7132774 120 120 119 255 0.199346 0.301049
0.503052 0.461284 -0.265445 0.5794032 0.5664778 -0.585999 120 120 119 255 0.199346 0.301049
-0.432945 0.428873 -0.264356 -0.4485231 -0.04702542 -0.8925332 97 95 95 255 0.199346 0.280899
-0.059669 0.025987 -0.252386 0.2306221 -0.6201434 -0.7498237 120 120 119 255 0.199346 0.301049
-0.002792 0.461475 -0.26534 -0.0005117124 0.7028638 -0.7113242 120 120 119 255 0.199346 0.301049
0.504288 9.6e-05 -0.118788 0.4816997 -0.667762 -0.5675027 97 95 95 255 0.199346 0.280899
0.005859 0.247081 -0.264112 0.04268184 -0.02953904 -0.998652 120 120 119 255 0.199346 0.301049
-0.338051 0.461236 -0.265335 -0.05875187 -0.2754822 -0.9595092 97 95 95 255 0.199346 0.280899
-0.504494 0 -0.265205 -0.302913 0.1090433 -0.9467594 97 95 95 255 0.199346 0.280899
0.504696 0.187765 -0.257599 0.6394778 -0.3170822 -0.7003763 97 95 95 255 0.199346 0.280899
0.504448 0.113095 -0.22402 0.6549709 -0.4178998 -0.6295816 97 95 95 255 0.199346 0.280899
0.449352 0.079867 -0.259282 0.02401219 0.003276904 -0.9997063 120 120 119 255 0.199346 0.301049
0.025169 0.084581 -0.241618 0.1385921 -0.04540549 -0.9893081 120 120 119 255 0.199346 0.301049
3 0 1 2 
3 3 4 52 
3 1 5 2 
3 6 7 8 
3 52 4 53 
3 54 55 9 
3 8 10 6 
3 9 55 11 
3 2 5 56 
3 12 53 13 
3 56 5 57 
3 10 14 15 
3 6 10 15 
3 16 7 6 
3 17 52 54 
3 58 59 4 
3 54 9 18 
3 18 9 11 
3 14 19 15 
3 20 56 57 
3 21 60 61 
3 62 21 61 
3 17 54 22 
3 63 0 64 
3 59 13 4 
3 53 4 13 
3 23 1 65 
3 59 24 13 
3 25 66 7 
3 16 25 7 
3 4 26 58 
3 10 27 14 
3 21 67 60 
3 65 63 23 
3 64 56 20 
3 4 3 28 
3 68 69 70 
3 26 71 58 
3 29 20 57 
3 30 28 3 
3 26 4 28 
3 23 72 1 
3 31 73 22 
3 23 74 72 
3 16 32 25 
3 10 25 27 
3 30 26 28 
3 70 69 33 
3 19 34 15 
3 67 75 35 
3 27 25 76 
3 13 77 12 
3 24 36 13 
3 78 34 19 
3 69 37 33 
3 38 31 22 
3 16 39 32 
3 76 79 27 
3 80 63 64 
3 26 40 41 
3 40 26 30 
3 26 41 71 
3 42 64 20 
3 43 40 30 
3 44 80 64 
3 76 45 79 
3 34 81 15 
3 46 73 31 
3 46 31 38 
3 82 74 23 
3 83 82 23 
3 34 78 79 
3 44 64 42 
3 39 47 32 
3 24 48 36 
3 75 84 35 
3 83 80 44 
3 36 40 77 
3 13 36 77 
3 40 36 49 
3 49 36 48 
3 50 48 24 
3 34 85 81 
3 86 39 16 
3 77 40 43 
3 77 51 87 
3 49 41 40 
3 45 34 79 
3 39 86 88 
3 44 82 83 
3 84 89 35 
3 82 44 29 
3 35 89 90 
3 39 88 45 
3 91 92 51 
3 93 29 44 
3 88 94 34 
3 94 85 34 
3 51 92 87 
3 45 88 34 
