ply
format ascii 1.0
comment INFO-3111 Flatenator generated
comment TextureFile Dungeons_Texture_01.png
element vertex 566
property float x
property float y
property float z
element face 892
property list uchar int vertex_indices
end_header
5 2e-06 5 
0 2e-06 5 
5 3e-06 0 
0 3e-06 0 
4.75354 2e-06 4.75354 
0.24646 2e-06 4.75354 
0.24646 3e-06 0.246468 
4.75354 3e-06 0.246468 
4.29591 2e-06 4.58562 
0.35157 -0.149818 4.40474 
0.782234 -0.149817 0.420364 
4.64431 -0.149817 0.631676 
3.95466 2e-06 3.95466 
0.957138 -0.149818 4.04285 
1.58349 3e-06 1.40147 
4.04286 -0.149817 0.957146 
1.04534 2e-06 3.95466 
3.85433 3e-06 1.05455 
5 2e-06 3.38152 
4.68896 2e-06 3.26428 
4.59175 -0.149818 3.23 
4.07083 -0.149818 3.13007 
3.76634 2e-06 3.21028 
1.09372 3e-06 3.01477 
0.389168 -0.149818 3.20798 
0.24646 2e-06 3.29461 
0 2e-06 3.38152 
0 3e-06 1.45282 
0.271103 3e-06 1.66296 
0.373718 -0.149817 1.41894 
0.824913 -0.149817 1.71101 
1.48321 3e-06 1.88601 
3.95466 3e-06 1.89069 
4.09609 -0.149817 1.83144 
4.6031 -0.149817 1.61907 
4.75354 3e-06 1.55605 
5 3e-06 1.45282 
2.38637 3e-06 0 
2.39757 3e-06 0.246468 
2.67352 -0.149817 0.536407 
2.39321 -0.149817 1.09602 
2.39854 3e-06 1.21333 
2.43388 2e-06 3.95466 
2.39414 -0.149818 4.08855 
2.57115 -0.149818 4.54791 
2.53307 2e-06 4.70738 
2.38637 2e-06 5 
0.286324 -0.061437 4.71368 
0.550148 -0.149818 4.64628 
0.957138 -0.149818 3.51907 
0.783585 -0.149818 3.09412 
0.880707 -0.149817 2.45798 
4.34131 -0.149817 0.34774 
4.72427 -0.045095 0.275726 
0.872269 -0.149817 1.28579 
1.62873 -0.149817 1.17078 
0.828957 -0.149817 1.02707 
2.2506 0.810279 2.00763 
2.54344 -0.149817 2.86002 
1.17862 -0.149817 2.98311 
1.76698 3e-06 1.95196 
2.43636 -0.149818 3.86519 
1.26045 -0.149818 3.73795 
2.54323 0.810279 0.921585 
1.67912 0.810279 1.2935 
4.053 0.810279 2.05928 
3.79358 0.810279 0.950951 
3.40002 -0.149818 3.33521 
3.58812 -0.149818 3.76403 
3.7754 -0.149818 4.06538 
3.96243 -0.149818 4.50325 
4.26448 2e-06 4.74337 
4.73612 2e-06 4.35202 
4.64421 -0.149818 4.14744 
4.03088 -0.149818 3.8258 
4.62323 2e-06 4.33133 
0.404724 -0.149817 0.816864 
3.95972 -0.149818 3.41449 
3.98312 -0.149817 2.58049 
1.54635 -0.149817 2.26894 
2.08065 -0.149817 2.33131 
1.64231 0.810279 1.80546 
3.63646 0.810279 2.83568 
2.82237 0.810279 2.61839 
2.20487 3e-06 2.124 
3.61188 3e-06 3.05962 
2.59654 3e-06 2.72358 
0.816277 -0.149817 2.06805 
0.439499 -0.149817 2.04745 
0.807465 3e-06 1.86536 
1.69375 -0.149817 0.40139 
3.60848 -0.149817 0.3582 
3.50499 0.202816 2.79306 
3.7744 0.250739 1.96675 
3.66553 0.250739 1.1777 
2.40117 0.250739 1.415 
1.86954 0.250739 1.45792 
1.78852 0.225936 1.79217 
2.29697 0.168521 1.98648 
2.73585 0.244854 2.52232 
3.84168 -0.149817 1.35902 
3.73433 3e-06 1.39196 
3.47725 0.250739 1.49735 
2.71534 0.250739 1.05287 
2.73505 3e-06 0.865623 
2.74641 -0.149817 0.749794 
3.42439 -0.101891 1.80653 
3.1361 -0.037529 1.87752 
3.30507 0.175342 1.49992 
3.41802 -0.066178 1.6983 
3.6615 -0.01257 1.66608 
2.94682 0.041115 2.00552 
3.58104 -0.140659 1.95513 
3.03889 0.263505 1.62594 
3.84682 0.050009 1.70419 
2.9995 -0.015301 2.24047 
3.93463 0.144895 1.68576 
3.28466 -0.103128 2.38249 
3.43668 -0.116698 2.39277 
3.2285 0.341893 1.4959 
2.88763 0.145046 2.20222 
3.71531 0.373056 1.48645 
3.88611 0.084929 2.09621 
2.93311 0.255724 2.27216 
3.70008 -0.020213 2.29519 
2.94148 0.112142 2.35275 
3.27417 0.165478 2.66836 
3.50887 0.130123 2.7477 
3.57874 -0.007838 2.62945 
2.97689 0.228665 2.41099 
3.6703 0.495317 1.61978 
3.71652 0.48957 1.73916 
3.35915 0.238184 2.7059 
4.06211 0.267432 2.11687 
3.99639 0.141157 2.29102 
3.99973 0.410057 1.75091 
4.04762 0.240944 2.33259 
3.98743 0.520513 1.90825 
3.87109 0.511891 1.70678 
4.0035 0.515739 1.99585 
4.0436 0.360731 2.17483 
4.00089 0.521307 1.99897 
4.00127 0.521279 2.00133 
3.99956 0.520706 2.01629 
4.00076 0.521343 2.0006 
4.00023 0.521169 2.00719 
3.99915 0.520755 2.01577 
3.99948 0.520891 2.01376 
3.6553 0.18461 2.73112 
4.00013 0.521183 2.00716 
3.76006 0.246331 2.66713 
3.99927 0.521504 1.99856 
3.99944 0.52084 2.01457 
3.87976 0.512379 1.87796 
3.99736 0.520272 2.02232 
3.81671 0.450376 2.51622 
3.34936 0.380612 2.61487 
3.71265 0.491778 2.53048 
2.95371 -0.0322 2.69368 
3.01645 -0.22655 2.77431 
2.87889 -0.231294 2.59763 
3.10646 -0.035986 2.79822 
3.13628 -0.372274 2.69153 
2.90721 -0.112005 2.43771 
3.12115 0.076355 2.57947 
3.13779 -0.302765 2.82474 
3.10581 0.070555 2.35991 
3.01027 -0.216052 2.31985 
3.25948 -0.159399 2.79638 
3.10325 -0.28854 2.34159 
3.38018 -0.301176 2.56576 
3.33744 0.01201 2.60728 
3.31791 -0.124035 2.24859 
3.32553 0.071599 2.3889 
3.40225 -0.026842 2.3267 
2.68542 -0.185157 1.76071 
2.88199 0.032099 1.64371 
2.44294 0.035894 1.54852 
2.44917 -0.047993 1.66463 
2.34888 -0.104837 1.46422 
2.685 -0.389226 1.66031 
3.03211 -0.192364 1.63919 
2.94834 -0.35888 1.64879 
2.44351 -0.389763 1.49631 
2.69569 -0.062328 1.31726 
2.47683 -0.155654 1.27496 
2.64233 -0.189792 1.21423 
2.95262 -0.521025 1.41638 
2.93979 -0.278423 1.31603 
2.72176 -0.559384 1.30397 
2.73974 -0.439477 1.20583 
2.6275 -0.487749 1.2268 
2.54733 -1.24791 1.99079 
2.42952 -1.23239 1.94296 
2.39704 -1.27662 1.90264 
2.51624 -1.06261 1.9191 
2.54548 -1.35265 1.92948 
2.38257 -1.16315 1.89629 
2.55632 -1.40643 1.8091 
2.66843 -1.34076 1.8556 
2.4687 -1.39163 1.75104 
2.35486 -1.17239 1.74923 
2.4494 -1.04944 1.74176 
2.71301 -1.20222 1.87566 
2.67286 -1.32136 1.72318 
2.62623 -1.09219 1.67516 
2.57378 -1.22572 1.59908 
2.40764 -1.25418 1.65498 
2.67248 -1.21442 1.65919 
3.00163 0.355839 3.32658 
2.18852 0.443118 2.99647 
3.22631 0.62247 3.23637 
2.2743 -0.034211 2.53381 
2.78705 0.644243 2.83179 
3.31745 0.441457 3.26721 
2.98882 -0.001799 2.90344 
1.9644 0.224774 2.7182 
2.84199 -0.068978 2.77553 
1.86451 0.608046 2.67439 
2.40659 0.643792 2.68565 
1.79464 0.409572 2.54943 
3.94387 0.499042 2.78264 
4.14503 0.608348 2.53198 
2.83373 0.66627 2.42831 
2.65488 -0.161282 2.34152 
3.83735 0.067054 2.39353 
3.06363 -0.206398 2.07259 
3.9985 0.134012 2.07573 
3.90779 0.61596 1.85851 
2.32576 0.652689 1.60788 
2.45898 -0.151252 1.6719 
1.67326 0.583618 1.6594 
2.66003 0.666772 1.63397 
2.62259 -0.042685 1.32543 
2.26906 0.398513 1.18152 
4.14683 0.335055 2.01872 
3.86793 0.25532 1.47962 
4.0335 0.471343 1.45528 
3.5461 0.625271 1.14823 
3.32013 0.19051 0.883499 
2.28401 0.57737 0.900017 
3.86533 0.515908 1.03801 
3.33026 0.373157 0.65966 
3.3661 0.592719 0.862816 
2.99549 0.128392 1.00662 
2.78352 0.520421 0.716385 
3.18419 0.434398 0.623146 
2.86181 0.03153 1.11971 
2.54839 0.101502 1.19689 
2.76128 0.284667 0.723251 
2.85488 0.070356 1.00205 
3.13908 0.096402 0.924858 
2.36091 0.156752 1.29648 
3.0477 -0.036381 1.24757 
2.4833 0.361677 0.835617 
3.3588 0.134303 0.92688 
2.43468 0.068147 1.51625 
3.45713 0.232727 0.900658 
2.7505 -0.036917 1.65812 
2.91577 -0.05167 1.6693 
2.68944 0.446899 0.694237 
2.3177 0.234795 1.46462 
3.21869 0.480779 0.683968 
3.40437 0.167534 1.34689 
2.3683 0.353218 1.53818 
3.20213 0.053226 1.56321 
2.3774 0.19712 1.62579 
2.73909 0.255104 1.96891 
2.99425 0.216668 2.05518 
3.07021 0.06668 1.92661 
2.41589 0.3238 1.6891 
3.16975 0.613697 0.828926 
3.22 0.60745 0.958702 
2.83147 0.334149 2.00973 
3.59573 0.365947 1.36935 
3.52427 0.228664 1.55867 
3.5279 0.521005 0.971481 
3.57997 0.33715 1.60387 
3.51453 0.64109 1.14254 
3.38804 0.631717 0.923508 
3.532 0.6359 1.23778 
3.5756 0.46738 1.43236 
3.52916 0.641954 1.24117 
3.52957 0.641922 1.24373 
3.52772 0.6413 1.26 
3.52902 0.641992 1.24294 
3.52844 0.641804 1.2501 
3.52727 0.641354 1.25943 
3.52763 0.641501 1.25726 
3.15343 0.275904 2.03714 
3.52834 0.641819 1.25007 
3.26733 0.343006 1.96757 
3.52741 0.642168 1.24072 
3.52759 0.641446 1.25813 
3.39748 0.632247 1.1096 
3.52532 0.640828 1.26655 
3.32893 0.564839 1.80351 
2.82083 0.488994 1.91076 
3.21581 0.609851 1.81902 
2.63896 0.605407 1.3987 
2.82383 0.609735 1.36658 
2.94313 0.638189 1.50865 
2.87755 0.662318 1.68286 
2.69267 0.657991 1.71498 
2.57338 0.629537 1.5729 
2.6236 -0.310744 1.34974 
2.75467 -0.307676 1.32697 
2.83926 -0.287501 1.42771 
2.79275 -0.270394 1.55122 
2.66167 -0.273462 1.57399 
2.5771 -0.293637 1.47325 
2.52768 -1.0562 1.59698 
2.61934 -1.05405 1.58106 
2.67849 -1.03994 1.6515 
2.64596 -1.02798 1.73787 
2.55431 -1.03013 1.75379 
2.49516 -1.04423 1.68335 
2.6726 -1.68758 1.4051 
2.72736 -1.6863 1.3956 
2.76269 -1.67787 1.43768 
2.74326 -1.67072 1.48928 
2.68851 -1.67201 1.49879 
2.65318 -1.68044 1.4567 
2.83592 -2.28496 1.46942 
2.54546 -1.1592 1.63962 
2.60979 -1.17444 1.69629 
2.56023 -1.47417 1.93435 
2.50382 -1.47549 1.94414 
2.56838 -1.51953 1.88663 
2.46742 -1.48418 1.90079 
2.52879 -1.51015 1.85176 
2.48743 -1.49154 1.84763 
2.50427 -2.04816 1.91744 
2.69545 0.564791 1.90475 
2.66454 0.667367 1.75501 
2.73569 0.617196 1.59276 
2.83775 0.46445 1.58026 
2.86865 0.361874 1.73002 
2.7975 0.412044 1.89226 
1.85616 0.196978 1.85577 
1.80782 0.231731 1.73958 
1.87375 0.203739 1.63043 
1.98801 0.140994 1.63747 
2.03635 0.10624 1.75365 
1.97042 0.134232 1.8628 
1.69825 -0.168657 1.64494 
1.66195 -0.172828 1.56129 
1.71606 -0.169722 1.48783 
1.80649 -0.162445 1.49804 
1.8428 -0.158273 1.5817 
1.78867 -0.16138 1.65514 
1.8587 -0.559023 1.62682 
1.82582 -0.557444 1.58334 
1.84636 -0.546641 1.53399 
1.89979 -0.537417 1.52811 
1.93268 -0.538995 1.57159 
1.91213 -0.549798 1.62094 
1.79917 -0.991688 1.66453 
3.17809 0.23348 2.58219 
3.08316 0.189621 2.73374 
2.89931 0.181369 2.72805 
2.81038 0.216978 2.57079 
2.9053 0.260836 2.41925 
3.08916 0.269089 2.42494 
3.38353 -0.550163 2.43297 
3.31622 -0.581258 2.54041 
3.18587 -0.587111 2.53638 
3.12282 -0.561863 2.42488 
3.19013 -0.530764 2.31743 
3.32048 -0.524916 2.32147 
3.41128 -0.831511 2.26652 
3.36422 -0.853257 2.34166 
3.27306 -0.857349 2.33884 
3.22898 -0.839691 2.26086 
3.27605 -0.817947 2.18573 
3.36719 -0.813855 2.18854 
3.49992 -1.15802 2.34345 
3.47179 -1.171 2.38833 
3.41734 -1.17345 2.38664 
3.39099 -1.1629 2.34006 
3.41912 -1.14991 2.29518 
3.47357 -1.14747 2.29687 
3.46748 -1.76698 2.30907 
3.3895 -0.934587 2.23238 
3.31078 -0.967417 2.23712 
3.25149 -0.966617 2.1122 
3.28046 -0.953235 2.06595 
3.2897 -1.01038 2.14151 
3.33656 -0.950718 2.06769 
3.33815 -0.990173 2.13859 
3.36369 -0.961583 2.11568 
3.47591 -1.26427 2.05138 
2.43765 0.165511 1.91265 
2.45847 0.172856 1.86326 
2.51205 0.176503 1.85675 
2.54482 0.172805 1.89964 
2.52401 0.165461 1.94904 
2.47043 0.161814 1.95554 
2.25689 -0.236431 1.84197 
2.27637 -0.244741 1.80785 
2.31559 -0.236698 1.80463 
2.33533 -0.220345 1.83556 
2.31585 -0.212035 1.86969 
2.27663 -0.220078 1.87289 
2.27541 -0.484456 1.7831 
2.28395 -0.486293 1.75528 
2.31214 -0.483249 1.74845 
2.33179 -0.47837 1.76945 
2.32324 -0.476534 1.79727 
2.29505 -0.479577 1.8041 
2.36713 -0.71763 1.84855 
2.36803 -0.717795 1.83169 
2.38245 -0.713573 1.82397 
2.39595 -0.709185 1.83311 
2.39504 -0.709019 1.84998 
2.38062 -0.713242 1.85769 
2.33113 -0.996277 1.86222 
3.11908 0.340338 1.16112 
3.19416 0.34752 1.16316 
3.22887 0.362408 1.22848 
3.18851 0.370114 1.29176 
3.11343 0.362932 1.28972 
3.07871 0.348044 1.2244 
3.09745 -0.257963 0.990585 
3.15092 -0.270341 1.00179 
3.17465 -0.251845 1.04904 
3.14491 -0.220971 1.0851 
3.09143 -0.208593 1.0739 
3.0677 -0.227089 1.02664 
3.16708 -0.60309 1.04627 
3.20744 -0.607883 1.04475 
3.23022 -0.598996 1.07726 
3.21263 -0.585316 1.11128 
3.17227 -0.580522 1.11281 
3.14949 -0.589409 1.08031 
3.11079 -0.895185 1.25111 
3.13325 -0.897651 1.24445 
3.15059 -0.890055 1.25845 
3.14548 -0.879993 1.27912 
3.12302 -0.877527 1.28578 
3.10568 -0.885123 1.27178 
3.05724 -1.28292 1.2776 
3.17513 0.576307 2.11714 
3.30957 0.646608 2.22149 
3.33553 0.583988 2.39268 
3.22706 0.451066 2.45953 
3.09263 0.380765 2.35519 
3.06667 0.443386 2.18399 
3.77484 0.066684 1.6452 
3.88774 0.07347 1.7104 
3.8924 0.040046 1.83651 
3.78416 -0.000163 1.89742 
3.67126 -0.006949 1.83223 
3.6666 0.026475 1.70612 
3.93445 -0.349721 1.71001 
4.01009 -0.373467 1.75527 
4.01072 -0.372957 1.84656 
3.93571 -0.3487 1.89258 
3.86007 -0.324954 1.84732 
3.85944 -0.325464 1.75603 
3.72791 -0.704452 1.80984 
3.77908 -0.715562 1.82509 
3.79393 -0.709467 1.87721 
3.75761 -0.692263 1.91408 
3.70645 -0.681153 1.89883 
3.6916 -0.687247 1.84671 
3.65166 -1.12913 1.73238 
3.0699 0.402125 1.94115 
3.1692 0.411623 1.94385 
3.2151 0.431311 2.03023 
3.16172 0.441502 2.11391 
3.06242 0.432005 2.11121 
3.01652 0.412316 2.02483 
3.03481 -0.369205 1.7146 
3.10885 -0.366916 1.7135 
3.14671 -0.362372 1.77702 
3.11054 -0.360116 1.84163 
3.03651 -0.362405 1.84273 
2.99863 -0.36695 1.77921 
3.07603 -0.640829 1.75471 
3.12941 -0.647169 1.75269 
3.15953 -0.635415 1.79569 
3.13628 -0.617323 1.84068 
3.0829 -0.610984 1.84271 
3.05277 -0.622737 1.79972 
2.9569 -0.908198 1.86345 
2.98659 -0.91146 1.85464 
3.00953 -0.901414 1.87315 
3.00277 -0.888107 1.90049 
2.97308 -0.884846 1.9093 
2.95014 -0.894892 1.89078 
2.98733 -1.21294 1.78563 
1.69375 -0.149817 0.40139 
0.782234 -0.149817 0.420364 
4.6031 -0.149817 1.61907 
4.59175 -0.149818 3.23 
1.62873 -0.149817 1.17078 
2.39321 -0.149817 1.09602 
4.09609 -0.149817 1.83144 
3.98312 -0.149817 2.58049 
4.64421 -0.149818 4.14744 
3.95972 -0.149818 3.41449 
4.03088 -0.149818 3.8258 
0.404724 -0.149817 0.816864 
2.54344 -0.149817 2.86002 
3.7754 -0.149818 4.06538 
2.39414 -0.149818 4.08855 
3.96243 -0.149818 4.50325 
2.57115 -0.149818 4.54791 
0.957138 -0.149818 4.04285 
0.550148 -0.149818 4.64628 
0.35157 -0.149818 4.40474 
0.389168 -0.149818 3.20798 
0.957138 -0.149818 3.51907 
0.783585 -0.149818 3.09412 
0.271103 3e-06 1.66296 
0.816277 -0.149817 2.06805 
0.807465 3e-06 1.86536 
4.64431 -0.149817 0.631676 
3.84168 -0.149817 1.35902 
4.04286 -0.149817 0.957146 
4.34131 -0.149817 0.34774 
0.828957 -0.149817 1.02707 
3.60848 -0.149817 0.3582 
2.74641 -0.149817 0.749794 
1.17862 -0.149817 2.98311 
1.26045 -0.149818 3.73795 
2.43636 -0.149818 3.86519 
3.40002 -0.149818 3.33521 
3.58812 -0.149818 3.76403 
3.96243 -0.149818 4.50325 
3.95466 2e-06 3.95466 
3.7754 -0.149818 4.06538 
4.29591 2e-06 4.58562 
4.62323 2e-06 4.33133 
4.03088 -0.149818 3.8258 
4.64421 -0.149818 4.14744 
0.824913 -0.149817 1.71101 
0.373718 -0.149817 1.41894 
0.872269 -0.149817 1.28579 
4.07083 -0.149818 3.13007 
2.08065 -0.149817 2.33131 
1.78852 0.225936 1.79217 
1.76698 3e-06 1.95196 
1.54635 -0.149817 2.26894 
1.54635 -0.149817 2.26894 
3.61188 3e-06 3.05962 
3.50499 0.202816 2.79306 
3.40002 -0.149818 3.33521 
0.439499 -0.149817 2.04745 
0.880707 -0.149817 2.45798 
0.816277 -0.149817 2.06805 
0.439499 -0.149817 2.04745 
0.824913 -0.149817 1.71101 
0.373718 -0.149817 1.41894 
2.67352 -0.149817 0.536407 
3.63646 0.810279 2.83568 
4.053 0.810279 2.05928 
3.79358 0.810279 0.950951 
2.54323 0.810279 0.921585 
1.67912 0.810279 1.2935 
1.64231 0.810279 1.80546 
2.2506 0.810279 2.00763 
1.64231 0.810279 1.80546 
2.82237 0.810279 2.61839 
3.63646 0.810279 2.83568 
3 59 80 58
3 45 46 5
3 5 46 1
3 3 37 6
3 6 37 38
3 35 36 19
3 19 36 18
3 48 47 9
3 38 90 6
3 6 90 10
3 35 19 34
3 34 19 20
3 23 50 51
3 39 40 492
3 40 55 492
3 492 55 493
3 493 55 56
3 494 495 33
3 33 495 78
3 495 21 78
3 42 43 16
3 16 43 13
3 14 496 41
3 41 496 497
3 498 499 32
3 32 499 22
3 19 18 72
3 72 18 0
3 20 19 73
3 73 19 72
3 500 74 495
3 74 77 495
3 77 21 495
3 22 501 12
3 12 501 502
3 58 61 59
3 59 61 62
3 1 26 5
3 5 26 25
3 28 27 6
3 6 27 3
3 29 28 76
3 76 28 6
3 56 503 493
3 31 30 14
3 14 30 54
3 15 100 17
3 17 100 101
3 2 36 7
3 7 36 35
3 38 37 7
3 7 37 2
3 52 53 11
3 104 105 17
3 17 105 15
3 65 57 66
3 66 57 63
3 86 504 84
3 68 61 67
3 67 61 58
3 12 69 42
3 42 69 43
3 70 44 505
3 505 44 506
3 71 45 507
3 507 45 508
3 0 46 71
3 71 46 45
3 5 25 47
3 47 25 9
3 25 24 9
3 49 50 23
3 506 44 509
3 509 44 510
3 5 47 45
3 47 48 45
3 508 45 48
3 511 512 509
3 509 512 513
3 512 514 513
3 87 88 89
3 89 88 515
3 31 516 517
3 13 49 16
3 16 49 23
3 518 519 520
3 520 521 518
3 38 7 91
3 7 53 91
3 91 53 52
3 7 35 53
3 53 35 11
3 35 34 11
3 522 496 14
3 54 522 14
3 521 520 523
3 39 523 524
3 524 523 520
3 510 511 509
3 31 79 23
3 23 79 525
3 16 526 42
3 42 526 527
3 16 23 526
3 526 23 525
3 31 97 60
3 14 41 96
3 96 41 95
3 103 104 94
3 94 104 17
3 17 101 94
3 94 101 102
3 85 22 528
3 12 42 529
3 529 42 527
3 12 529 22
3 22 529 528
3 8 530 531
3 531 530 532
3 533 71 507
3 0 71 4
3 72 0 4
3 75 4 533
3 531 534 8
3 535 536 531
3 531 536 534
3 73 72 75
3 75 72 4
3 4 71 533
3 76 6 10
3 537 538 539
3 503 56 538
3 538 56 539
3 22 540 501
3 22 499 540
3 79 31 60
3 541 84 504
3 31 14 97
3 97 14 96
3 63 57 64
3 64 57 81
3 65 83 57
3 22 92 32
3 32 92 93
3 542 98 543
3 543 98 84
3 98 99 84
3 84 99 86
3 92 22 85
3 544 80 59
3 84 541 543
3 543 541 545
3 82 83 65
3 546 86 547
3 547 86 99
3 504 86 548
3 548 86 546
3 23 51 31
3 31 51 516
3 512 549 514
3 514 549 550
3 550 549 551
3 24 25 552
3 552 25 28
3 25 26 28
3 28 26 27
3 89 515 553
3 553 515 554
3 31 517 30
3 90 38 555
3 555 38 91
3 92 556 93
3 93 556 557
3 94 102 558
3 559 103 558
3 558 103 94
3 96 95 560
3 560 95 559
3 97 96 561
3 561 96 560
3 98 542 562
3 562 542 563
3 564 99 562
3 562 99 98
3 99 564 547
3 547 564 565
3 518 494 519
3 519 494 33
3 101 100 32
3 32 100 498
3 102 101 93
3 93 101 32
3 558 102 557
3 557 102 93
3 95 103 559
3 104 103 41
3 41 103 95
3 41 497 104
3 104 497 105
3 40 39 524
3 107 109 106
3 106 109 112
3 107 108 109
3 108 110 109
3 110 112 109
3 106 117 107
3 106 118 117
3 111 108 107
3 112 110 114
3 114 124 112
3 110 116 114
3 114 122 124
3 118 106 112
3 110 108 121
3 110 121 116
3 108 111 113
3 117 115 107
3 107 115 111
3 119 108 113
3 112 124 118
3 134 122 114
3 113 123 119
3 113 111 120
3 108 119 121
3 116 133 114
3 133 134 114
3 116 121 135
3 111 115 120
3 123 113 120
3 120 115 125
3 115 126 125
3 115 117 126
3 124 122 134
3 117 118 127
3 118 124 128
3 124 134 128
3 127 118 128
3 129 120 125
3 130 121 119
3 127 126 117
3 138 121 130
3 135 133 116
3 133 136 134
3 123 131 119
3 131 130 119
3 123 120 129
3 138 135 121
3 129 125 126
3 148 127 128
3 133 135 137
3 132 129 126
3 136 150 134
3 134 150 128
3 150 148 128
3 137 135 138
3 126 127 132
3 130 131 138
3 140 136 133
3 156 131 123
3 139 133 137
3 138 153 137
3 139 140 133
3 138 131 153
3 139 137 151
3 139 151 141
3 139 154 140
3 123 129 132
3 148 132 127
3 141 142 139
3 143 139 142
3 143 154 139
3 151 149 144
3 151 144 141
3 141 144 145
3 141 145 142
3 142 145 146
3 142 146 143
3 143 146 154
3 157 132 148
3 144 149 145
3 145 149 147
3 154 146 147
3 145 147 146
3 149 152 147
3 147 152 154
3 136 155 150
3 153 151 137
3 140 155 136
3 151 152 149
3 140 154 155
3 156 123 132
3 151 153 154
3 151 154 152
3 155 148 150
3 155 157 148
3 154 153 131
3 156 132 157
3 155 154 157
3 157 154 131
3 131 156 157
3 158 160 159
3 160 158 163
3 159 160 162
3 160 169 162
3 167 160 163
3 160 167 169
3 161 158 159
3 158 164 163
3 164 158 161
3 165 159 162
3 161 159 168
3 170 165 162
3 163 164 166
3 159 165 168
3 161 168 171
3 172 169 167
3 162 169 170
3 164 161 171
3 166 167 163
3 170 168 165
3 166 172 167
3 166 174 172
3 171 168 170
3 169 172 174
3 171 173 164
3 173 166 164
3 173 174 166
3 169 174 170
3 171 170 174
3 171 174 173
3 177 175 176
3 178 175 177
3 175 181 176
3 177 176 184
3 175 178 180
3 178 177 179
3 181 175 182
3 178 183 180
3 187 181 182
3 175 180 182
3 181 184 176
3 177 185 179
3 178 179 183
3 184 185 177
3 181 188 184
3 181 187 188
3 186 185 184
3 187 182 180
3 184 188 186
3 185 183 179
3 187 189 188
3 183 189 180
3 180 189 187
3 188 189 190
3 186 188 190
3 185 191 183
3 191 189 183
3 186 190 185
3 191 185 190
3 189 191 190
3 192 193 196
3 196 193 194
3 193 192 195
3 195 192 203
3 192 196 203
3 193 195 197
3 202 197 195
3 193 197 194
3 203 196 199
3 196 198 199
3 196 194 198
3 205 195 203
3 197 202 201
3 194 197 201
3 200 198 194
3 203 208 205
3 204 199 198
3 199 204 203
3 202 195 205
3 194 207 200
3 203 204 208
3 202 207 201
3 206 202 205
3 201 207 194
3 206 204 198
3 206 207 202
3 200 206 198
3 205 208 206
3 208 204 206
3 206 200 207
3 209 214 211
3 211 210 209
3 209 210 215
3 215 210 212
3 214 209 221
3 214 221 211
3 210 211 213
3 213 211 222
3 219 210 213
3 221 222 211
3 215 212 217
3 209 215 221
3 212 210 216
3 210 219 218
3 229 218 219
3 210 220 216
3 210 218 220
3 226 215 217
3 216 220 212
3 219 213 223
3 235 221 225
3 221 215 225
3 221 235 222
3 215 226 225
3 229 219 223
3 217 212 224
3 224 226 217
3 228 223 222
3 218 229 231
3 222 223 213
3 227 225 226
3 235 228 222
3 235 225 227
3 226 224 230
3 220 218 231
3 230 224 212
3 223 232 229
3 235 241 228
3 231 212 220
3 236 227 226
3 227 237 235
3 232 223 238
3 212 234 230
3 227 236 237
3 235 237 241
3 233 226 230
3 230 234 233
3 228 238 223
3 229 240 231
3 243 232 238
3 228 241 238
3 231 234 212
3 243 229 232
3 239 236 226
3 243 240 229
3 233 239 226
3 240 234 231
3 238 241 243
3 244 239 233
3 237 236 242
3 241 237 242
3 236 239 242
3 241 242 243
3 245 234 240
3 244 233 234
3 243 245 240
3 239 244 246
3 239 246 242
3 242 246 243
3 244 234 245
3 246 245 243
3 244 245 246
3 248 250 247
3 247 250 253
3 248 249 250
3 249 251 250
3 251 253 250
3 247 258 248
3 247 259 258
3 252 249 248
3 253 251 255
3 255 265 253
3 251 257 255
3 255 263 265
3 259 247 253
3 251 249 262
3 251 262 257
3 249 252 254
3 258 256 248
3 248 256 252
3 260 249 254
3 253 265 259
3 275 263 255
3 254 264 260
3 254 252 261
3 249 260 262
3 257 274 255
3 274 275 255
3 257 262 276
3 252 256 261
3 264 254 261
3 261 256 266
3 256 267 266
3 256 258 267
3 265 263 275
3 258 259 268
3 259 265 269
3 265 275 269
3 268 259 269
3 270 261 266
3 271 262 260
3 268 267 258
3 279 262 271
3 276 274 257
3 274 277 275
3 264 272 260
3 272 271 260
3 264 261 270
3 279 276 262
3 270 266 267
3 289 268 269
3 274 276 278
3 273 270 267
3 277 291 275
3 275 291 269
3 291 289 269
3 278 276 279
3 267 268 273
3 271 272 279
3 281 277 274
3 297 272 264
3 280 274 278
3 279 294 278
3 280 281 274
3 279 272 294
3 280 278 292
3 280 292 282
3 280 295 281
3 264 270 273
3 289 273 268
3 282 283 280
3 284 280 283
3 284 295 280
3 292 290 285
3 292 285 282
3 282 285 286
3 282 286 283
3 283 286 287
3 283 287 284
3 284 287 295
3 298 273 289
3 285 290 286
3 286 290 288
3 295 287 288
3 286 288 287
3 290 293 288
3 288 293 295
3 277 296 291
3 294 292 278
3 281 296 277
3 292 293 290
3 281 295 296
3 297 264 273
3 292 294 295
3 292 295 293
3 296 289 291
3 296 298 289
3 295 294 272
3 297 273 298
3 296 295 298
3 298 295 272
3 272 297 298
3 300 306 299
3 299 306 305
3 301 307 300
3 300 307 306
3 302 308 301
3 301 308 307
3 302 303 308
3 308 303 309
3 303 304 309
3 309 304 310
3 304 299 310
3 310 299 305
3 306 312 305
3 305 312 311
3 307 313 306
3 306 313 312
3 307 308 313
3 313 308 314
3 308 309 314
3 314 309 315
3 309 310 315
3 315 310 316
3 305 311 310
3 310 311 316
3 311 312 317
3 317 312 318
3 313 319 312
3 312 319 318
3 314 320 313
3 313 320 319
3 317 318 323
3 318 319 323
3 319 320 323
3 320 321 323
3 321 322 323
3 322 317 323
3 311 317 324
3 324 317 322
3 325 324 321
3 321 324 322
3 314 325 320
3 320 325 321
3 314 315 326
3 326 315 327
3 314 326 325
3 325 326 328
3 316 329 315
3 315 329 327
3 324 325 330
3 330 325 328
3 311 331 316
3 316 331 329
3 311 324 331
3 331 324 330
3 326 327 332
3 328 326 332
3 327 329 332
3 330 328 332
3 329 331 332
3 331 330 332
3 333 334 339
3 339 334 340
3 335 341 334
3 334 341 340
3 336 342 335
3 335 342 341
3 337 343 336
3 336 343 342
3 337 338 343
3 343 338 344
3 338 333 344
3 344 333 339
3 339 340 345
3 345 340 346
3 340 341 346
3 346 341 347
3 342 348 341
3 341 348 347
3 343 349 342
3 342 349 348
3 344 350 343
3 343 350 349
3 344 339 350
3 350 339 345
3 346 352 345
3 345 352 351
3 346 347 352
3 352 347 353
3 347 348 353
3 353 348 354
3 348 349 354
3 354 349 355
3 350 356 349
3 349 356 355
3 345 351 350
3 350 351 356
3 351 352 357
3 352 353 357
3 353 354 357
3 354 355 357
3 355 356 357
3 356 351 357
3 359 365 358
3 358 365 364
3 360 366 359
3 359 366 365
3 361 367 360
3 360 367 366
3 361 362 367
3 367 362 368
3 362 363 368
3 368 363 369
3 363 358 369
3 369 358 364
3 365 371 364
3 364 371 370
3 366 372 365
3 365 372 371
3 366 367 372
3 372 367 373
3 367 368 373
3 373 368 374
3 368 369 374
3 374 369 375
3 364 370 369
3 369 370 375
3 370 371 376
3 376 371 377
3 372 378 371
3 371 378 377
3 373 379 372
3 372 379 378
3 376 377 382
3 377 378 382
3 378 379 382
3 379 380 382
3 380 381 382
3 381 376 382
3 370 376 383
3 383 376 381
3 384 383 380
3 380 383 381
3 373 384 379
3 379 384 380
3 373 374 385
3 385 374 386
3 373 385 384
3 384 385 387
3 375 388 374
3 374 388 386
3 383 384 389
3 389 384 387
3 370 390 375
3 375 390 388
3 370 383 390
3 390 383 389
3 385 386 391
3 387 385 391
3 386 388 391
3 389 387 391
3 388 390 391
3 390 389 391
3 393 399 392
3 392 399 398
3 394 400 393
3 393 400 399
3 395 401 394
3 394 401 400
3 395 396 401
3 401 396 402
3 396 397 402
3 402 397 403
3 397 392 403
3 403 392 398
3 398 399 404
3 404 399 405
3 400 406 399
3 399 406 405
3 401 407 400
3 400 407 406
3 402 408 401
3 401 408 407
3 402 403 408
3 408 403 409
3 403 398 409
3 409 398 404
3 405 411 404
3 404 411 410
3 405 406 411
3 411 406 412
3 406 407 412
3 412 407 413
3 407 408 413
3 413 408 414
3 409 415 408
3 408 415 414
3 404 410 409
3 409 410 415
3 410 411 416
3 411 412 416
3 412 413 416
3 413 414 416
3 414 415 416
3 415 410 416
3 418 424 417
3 417 424 423
3 419 425 418
3 418 425 424
3 420 426 419
3 419 426 425
3 420 421 426
3 426 421 427
3 421 422 427
3 427 422 428
3 422 417 428
3 428 417 423
3 423 424 429
3 429 424 430
3 425 431 424
3 424 431 430
3 426 432 425
3 425 432 431
3 427 433 426
3 426 433 432
3 427 428 433
3 433 428 434
3 428 423 434
3 434 423 429
3 430 436 429
3 429 436 435
3 430 431 436
3 436 431 437
3 431 432 437
3 437 432 438
3 432 433 438
3 438 433 439
3 434 440 433
3 433 440 439
3 429 435 434
3 434 435 440
3 435 436 441
3 436 437 441
3 437 438 441
3 438 439 441
3 439 440 441
3 440 435 441
3 442 443 448
3 448 443 449
3 444 450 443
3 443 450 449
3 445 451 444
3 444 451 450
3 446 452 445
3 445 452 451
3 446 447 452
3 452 447 453
3 447 442 453
3 453 442 448
3 448 449 454
3 454 449 455
3 449 450 455
3 455 450 456
3 451 457 450
3 450 457 456
3 452 458 451
3 451 458 457
3 453 459 452
3 452 459 458
3 453 448 459
3 459 448 454
3 455 461 454
3 454 461 460
3 455 456 461
3 461 456 462
3 456 457 462
3 462 457 463
3 457 458 463
3 463 458 464
3 459 465 458
3 458 465 464
3 454 460 459
3 459 460 465
3 460 461 466
3 461 462 466
3 462 463 466
3 463 464 466
3 464 465 466
3 465 460 466
3 468 474 467
3 467 474 473
3 469 475 468
3 468 475 474
3 470 476 469
3 469 476 475
3 470 471 476
3 476 471 477
3 471 472 477
3 477 472 478
3 472 467 478
3 478 467 473
3 473 474 479
3 479 474 480
3 475 481 474
3 474 481 480
3 476 482 475
3 475 482 481
3 477 483 476
3 476 483 482
3 478 484 477
3 477 484 483
3 478 473 484
3 484 473 479
3 480 486 479
3 479 486 485
3 481 487 480
3 480 487 486
3 481 482 487
3 487 482 488
3 482 483 488
3 488 483 489
3 483 484 489
3 489 484 490
3 479 485 484
3 484 485 490
3 485 486 491
3 486 487 491
3 487 488 491
3 488 489 491
3 489 490 491
3 490 485 491
