ply
format ascii 1.0
comment INFO-3111 Flatenator generated
comment TextureFile Dungeons_Texture_01.png
element vertex 88
property float x
property float y
property float z
property float nx
property float ny
property float nz
property uchar red
property uchar green
property uchar blue
property uchar alpha
property float texture_u
property float texture_v
element face 100
property list uchar int vertex_indices
end_header
0.345909 0.461873 0.215561 0.12191 0.972676 0.197582 120 120 119 255 0.199346 0.303024 
0.228695 0.460753 0.264652 0.0646567 0.553221 0.830522 120 120 119 255 0.199346 0.303024 
0.394958 0.364545 0.265295 0.166142 0.293413 0.941438 120 120 119 255 0.199346 0.303024 
0.448261 0.40493 0.188805 0.41492 0.61852 0.667288 97 95 95 255 0.199346 0.281689 
0.504509 0 0.265198 0.267501 -0.511294 0.816714 120 120 119 255 0.199346 0.303024 
0.503677 0.345412 0.222649 0.537097 0.499644 0.679619 97 95 95 255 0.199346 0.281689 
0.499607 0.208974 0.231153 0.438628 0.0990317 0.893196 97 95 95 255 0.199346 0.281689 
-0.504692 0.461034 0.265432 -0.420116 0.694728 0.583829 120 120 119 255 0.199346 0.303024 
-0.244461 0.05061 0.265444 0.0146189 0.00836892 0.999858 120 120 119 255 0.199346 0.303024 
-0.0779 0.07073 0.257353 0.00798067 0.0282827 0.999568 120 120 119 255 0.199346 0.303024 
-0.236168 0.026948 0.247744 0.278943 -0.804746 0.523999 97 95 95 255 0.199346 0.281689 
-0.095589 0 0.265278 0.00123553 -0.981087 0.193564 120 120 119 255 0.199346 0.303024 
-0.284851 0 0.265278 -0.00275585 -0.89517 0.445717 120 120 119 255 0.199346 0.303024 
-0.504509 0 0.265198 -0.802092 -0.26947 0.532949 120 120 119 255 0.199346 0.303024 
-0.172741 0.021305 0.220949 -0.225723 -0.759867 0.609632 97 95 95 255 0.199346 0.281689 
0.323318 0 0.045776 0.0330891 -0.999446 0.00346691 120 120 119 255 0.199346 0.303024 
0.079819 0.462128 0.099546 -0.011433 0.999488 -0.0299034 120 120 119 255 0.199346 0.303024 
0.488537 0.427817 0.14612 0.594588 0.559262 0.57766 97 95 95 255 0.199346 0.281689 
0.50457 0 0.06662 0.694512 -0.71903 -0.0254655 120 120 119 255 0.199346 0.303024 
-0.267155 0 0.04594 0.0151098 -0.982684 0.184671 97 95 95 255 0.199346 0.281689 
-0.118286 0.455147 0.109447 -0.00182808 0.999241 -0.0389192 120 120 119 255 0.199346 0.303024 
0.504696 0.461581 0.034565 0.63468 0.768039 0.085426 120 120 119 255 0.199346 0.303024 
-0.46526 0.462128 0.056335 -0.385435 0.920458 -0.0647815 120 120 119 255 0.199346 0.303024 
-0.504692 0.334938 0.119226 -0.995721 0.0699732 -0.060366 120 120 119 255 0.199346 0.303024 
-0.504692 0.281493 0.046791 -0.999995 -0.00322008 -0.000846732 120 120 119 255 0.199346 0.303024 
0.188301 0.462128 0.078836 0.000693097 0.999999 0.00106623 120 120 119 255 0.199346 0.303024 
0.105656 0.429335 -0.01491 -0.0491111 0.998178 -0.035058 97 95 95 255 0.199346 0.281689 
0.441242 0.010719 -0.059372 -0.0155918 -0.999854 0.00702054 120 120 119 255 0.199346 0.303024 
-0.445545 0.41705 -0.037663 -0.692844 0.70118 0.168268 97 95 95 255 0.199346 0.281689 
0.504311 0.248684 -0.165888 0.999962 -0.00683877 0.00535576 120 120 119 255 0.199346 0.303024 
-0.056023 0.431411 -0.030205 0.0473272 0.989832 0.134134 97 95 95 255 0.199346 0.281689 
0.323318 0.462128 -0.165911 0.0017261 0.999999 -0.00023392 120 120 119 255 0.199346 0.303024 
-0.307465 0.461364 -0.070392 0.00674741 0.999972 0.00333154 120 120 119 255 0.199346 0.303024 
-0.433632 0.001094 -0.227354 -0.00586809 -0.999983 0.00016579 120 120 119 255 0.199346 0.303024 
-0.504654 0.461725 -0.081567 -0.102842 0.624664 0.774092 97 95 95 255 0.199346 0.281689 
-0.014729 0.461141 -0.101444 0.0237987 0.934763 0.354474 97 95 95 255 0.199346 0.281689 
0.504406 0 -0.260901 0.326168 -0.909919 -0.256244 120 120 119 255 0.199346 0.303024 
-0.361786 0.000138 -0.261247 0.0228005 -0.854914 -0.518268 120 120 119 255 0.199346 0.303024 
0.079819 0 -0.261378 -0.0141047 -0.718808 -0.695066 120 120 119 255 0.199346 0.303024 
0.500999 0.002639 -0.133052 0.654779 -0.755797 0.00594742 120 120 119 255 0.199346 0.303024 
-0.502651 0.029894 -0.196483 -0.999978 -0.00633391 -0.00183904 120 120 119 255 0.199346 0.303024 
0.504696 0.461045 -0.26192 0.57977 0.578533 -0.573731 120 120 119 255 0.199346 0.303024 
0.142906 0.462128 -0.197412 -0.00927518 0.999885 -0.0120197 120 120 119 255 0.199346 0.303024 
-0.504692 0.461045 -0.26192 -0.213419 0.717744 -0.662794 120 120 119 255 0.199346 0.303024 
0.061691 0.458258 -0.242401 0.00498859 0.908825 -0.417148 120 120 119 255 0.199346 0.303024 
-0.158749 0.0073 -0.252502 0.0051203 -0.748088 -0.66358 120 120 119 255 0.199346 0.303024 
0.504696 0.30327 -0.263703 0.714056 0.00791106 -0.700044 120 120 119 255 0.199346 0.303024 
0.456413 0.218142 -0.26543 0.907944 -0.155495 -0.389178 97 95 95 255 0.199346 0.281689 
-0.504692 0.259944 -0.263703 -0.832331 0.00219031 -0.554276 120 120 119 255 0.199346 0.303024 
0.048279 0.364423 -0.265446 0.186683 0.433185 -0.88176 97 95 95 255 0.199346 0.281689 
-0.433712 0.039896 -0.265446 -0.524403 -0.506824 -0.684201 97 95 95 255 0.199346 0.281689 
0.016731 0.112294 -0.265446 0.00287761 -0.0447597 -0.998994 120 120 119 255 0.199346 0.303024 
0.345909 0.461873 0.215561 0.482696 0.545795 0.684918 97 95 95 255 0.199346 0.281689 
0.394958 0.364545 0.265295 0.455384 0.386749 0.801904 97 95 95 255 0.199346 0.281689 
0.504509 0 0.265198 0.501713 0.150545 0.851833 97 95 95 255 0.199346 0.281689 
-0.0779 0.07073 0.257353 -0.0602106 -0.448584 0.89171 97 95 95 255 0.199346 0.281689 
-0.244461 0.05061 0.265444 0.310718 -0.497116 0.810142 97 95 95 255 0.199346 0.281689 
-0.095589 0 0.265278 -0.537274 -0.393768 0.745844 97 95 95 255 0.199346 0.281689 
-0.284851 0 0.265278 0.551058 -0.703609 0.448631 97 95 95 255 0.199346 0.281689 
0.499607 0.208974 0.231153 0.999969 0.00253613 0.00747052 120 120 119 255 0.199346 0.303024 
0.488537 0.427817 0.14612 0.363765 0.875632 0.317717 120 120 119 255 0.199346 0.303024 
0.188301 0.462128 0.078836 -0.145937 0.966845 -0.209554 97 95 95 255 0.199346 0.281689 
0.079819 0.462128 0.099546 -0.0513303 0.956926 -0.285758 97 95 95 255 0.199346 0.281689 
0.504696 0.461581 0.034565 0.886061 0.392242 0.247067 97 95 95 255 0.199346 0.281689 
-0.118286 0.455147 0.109447 0.0381977 0.982225 -0.183777 97 95 95 255 0.199346 0.281689 
-0.504692 0.334938 0.119226 -0.945235 0.219728 -0.241352 97 95 95 255 0.199346 0.281689 
-0.504692 0.281493 0.046791 -0.72699 0.562526 0.393764 97 95 95 255 0.199346 0.281689 
0.503677 0.345412 0.222649 0.999842 -0.0168162 0.005818 120 120 119 255 0.199346 0.303024 
-0.46526 0.462128 0.056335 -0.735177 0.538109 -0.412253 97 95 95 255 0.199346 0.281689 
-0.267155 0 0.04594 -0.00555254 -0.999984 0.000659081 120 120 119 255 0.199346 0.303024 
-0.307465 0.461364 -0.070392 -0.0672539 0.983613 0.167281 97 95 95 255 0.199346 0.281689 
0.323318 0.462128 -0.165911 -0.0951476 0.992374 0.0783632 97 95 95 255 0.199346 0.281689 
-0.502651 0.029894 -0.196483 -0.588673 -0.631663 -0.504445 97 95 95 255 0.199346 0.281689 
-0.433632 0.001094 -0.227354 -0.441323 -0.763221 -0.471941 97 95 95 255 0.199346 0.281689 
-0.504509 0 0.265198 -0.407367 -0.911249 -0.0606431 97 95 95 255 0.199346 0.281689 
-0.014729 0.461141 -0.101444 -0.00581394 0.999913 -0.0118108 120 120 119 255 0.199346 0.303024 
-0.504654 0.461725 -0.081567 -0.894209 0.447647 -0.00159953 120 120 119 255 0.199346 0.303024 
0.504696 0.30327 -0.263703 0.842106 -0.472347 -0.26028 97 95 95 255 0.199346 0.281689 
0.504311 0.248684 -0.165888 0.907944 -0.155495 -0.389178 97 95 95 255 0.199346 0.281689 
0.142906 0.462128 -0.197412 0.186683 0.433185 -0.88176 97 95 95 255 0.199346 0.281689 
0.061691 0.458258 -0.242401 0.474098 0.145499 -0.868367 97 95 95 255 0.199346 0.281689 
0.504406 0 -0.260901 0.863607 0.180225 -0.470852 97 95 95 255 0.199346 0.281689 
-0.361786 0.000138 -0.261247 -0.32681 -0.662424 -0.674084 97 95 95 255 0.199346 0.281689 
0.048279 0.364423 -0.265446 0.00836936 0.0623064 -0.998022 120 120 119 255 0.199346 0.303024 
0.504696 0.461045 -0.26192 -0.131637 0.649157 -0.749177 97 95 95 255 0.199346 0.281689 
0.456413 0.218142 -0.26543 0.00591756 -0.0055232 -0.999967 120 120 119 255 0.199346 0.303024 
-0.433712 0.039896 -0.265446 0.00595395 -0.037044 -0.999296 120 120 119 255 0.199346 0.303024 
-0.504692 0.259944 -0.263703 -0.675538 -0.212313 -0.706096 97 95 95 255 0.199346 0.281689 
3 0 1 2
3 3 52 53
3 2 1 4
3 3 53 5
3 6 5 53
3 7 8 9
3 7 9 1
3 6 53 54
3 55 56 10
3 1 9 4
3 4 9 11
3 12 8 13
3 55 10 14
3 55 14 57
3 8 7 13
3 10 56 58
3 15 4 11
3 16 7 1
3 0 16 1
3 17 52 3
3 17 3 5
3 59 4 18
3 19 14 10
3 15 18 4
3 19 57 14
3 58 19 10
3 16 20 7
3 0 60 21
3 20 22 7
3 7 23 13
3 23 24 13
3 0 25 16
3 7 22 23
3 61 26 62
3 63 17 5
3 27 18 15
3 26 64 62
3 65 28 66
3 67 59 29
3 29 59 18
3 68 28 65
3 26 30 64
3 31 0 21
3 32 22 20
3 33 69 12
3 30 70 64
3 13 33 12
3 71 26 61
3 28 34 66
3 35 30 26
3 29 21 67
3 70 28 68
3 31 25 0
3 15 36 27
3 70 34 28
3 69 37 11
3 38 36 15
3 39 18 27
3 24 40 13
3 29 18 39
3 72 73 74
3 33 37 69
3 36 39 27
3 35 70 30
3 35 26 71
3 21 29 41
3 42 75 31
3 75 43 32
3 32 43 76
3 41 31 21
3 38 15 11
3 44 75 42
3 45 38 11
3 41 29 46
3 29 39 36
3 37 45 11
3 77 78 47
3 24 48 40
3 43 75 44
3 79 49 80
3 47 78 81
3 50 82 73
3 41 42 31
3 76 43 48
3 76 48 24
3 43 44 83
3 48 43 51
3 43 83 51
3 49 79 84
3 83 41 85
3 41 46 85
3 48 51 86
3 83 85 51
3 86 51 37
3 72 87 50
3 51 45 37
3 85 36 38
3 51 38 45
3 51 85 38
3 72 50 73
