ply
format ascii 1.0
comment INFO-3111 Flatenator generated
comment TextureFile Dungeons_Texture_01.png
element vertex 745
property float x
property float y
property float z
element face 918
property list uchar int vertex_indices
end_header
1.52697 5.07984 0.263219 
1.15886 5.06733 0.263909 
1.51898 4.78416 0.265054 
0.000496 5.06483 0.263799 
0.000496 4.58501 0.263799 
1.06994 5.06453 0.263475 
2.22842 5.04873 0.262002 
1.77429 4.82395 0.257005 
1.69319 4.58867 0.262811 
2.21045 4.56849 0.262963 
1.15153 4.60917 0.263131 
1.06994 4.58531 0.263471 
1.66705 4.51624 0.222585 
4.32281 4.51316 0.241502 
3.41677 4.56692 0.215398 
3.42143 4.04061 0.264875 
1.06122 3.96055 0.263921 
0.757816 3.97288 0.213109 
0.594112 3.94085 0.263139 
-0.007385 3.92123 0.263909 
0.009296 3.43934 0.262784 
5.04886 3.93032 0.262773 
3.98036 3.96167 0.263696 
5.03332 3.44547 0.262319 
3.91599 3.45849 0.264115 
3.9326 3.93981 0.263932 
3.21209 3.96057 0.264127 
1.07453 3.47797 0.261315 
3.5645 3.48075 0.263253 
3.96985 3.48026 0.262837 
5.04888 2.82322 0.262775 
3.98054 2.82322 0.262783 
3.98053 2.33825 0.262791 
5.04888 2.33825 0.262775 
5.04345 1.70182 0.262619 
4.71869 1.71427 0.2183 
4.5774 1.58228 0.254429 
5.04632 1.22055 0.263184 
3.9786 1.21218 0.25153 
3.00919 5.06421 0.250794 
2.28449 5.0671 0.249673 
3.00921 4.58563 0.250794 
3.99299 5.08623 0.250794 
4.30827 4.7245 0.250787 
5.05372 5.04573 0.250794 
3.92629 5.06343 0.250794 
3.47048 5.06371 0.250794 
3.7248 4.70453 0.250772 
3.93021 4.57961 0.222936 
-0.037006 4.55742 0.113477 
3.06616 5.06321 0.250794 
3.36037 4.58732 0.233655 
3.9263 4.5864 0.250794 
4.59184 4.5236 0.22331 
4.30435 4.59411 0.230401 
2.2832 4.58368 0.24233 
5.03612 4.5702 0.250794 
0.578583 4.54862 0.216088 
-0.010456 4.51398 0.250794 
0.506592 4.03787 0.249963 
4.96766 4.51437 0.250794 
4.36808 4.03762 0.25018 
0.593021 4.52342 0.250489 
0.965775 4.04271 0.250787 
2.20992 4.51495 0.250794 
1.72077 4.51446 0.250737 
2.02554 4.36387 0.250077 
4.21817 4.04632 0.243226 
2.06895 4.25603 0.206864 
2.50622 4.56719 0.214902 
-0.015907 4.02847 0.241784 
1.72066 4.03672 0.249639 
0.537193 4.01978 0.215962 
3.36295 4.51515 0.251275 
2.53238 4.51509 0.251374 
3.1729 4.03094 0.243741 
1.64953 4.02378 0.250588 
4.95885 3.95296 0.212922 
3.93682 3.9562 0.222741 
1.07383 3.99888 0.215848 
1.15332 3.46586 0.250794 
1.71491 3.95071 0.244439 
1.42346 3.46768 0.250794 
3.95251 3.46218 0.214921 
0.548943 3.44592 0.218923 
4.95763 3.41094 0.21399 
-0.053177 3.37343 0.250794 
0.521713 2.89451 0.250793 
1.34089 3.38707 0.250794 
0.580051 3.35183 0.250794 
1.11294 2.91447 0.250378 
4.36455 3.37888 0.222852 
3.6642 3.34946 0.250794 
4.3241 2.90027 0.250793 
4.96794 3.37437 0.250794 
4.369 2.8945 0.250793 
0.596207 2.87151 0.250793 
-0.053177 2.89544 0.250793 
4.95071 2.83475 0.223614 
0.01387 2.83392 0.264648 
-0.002781 2.35753 0.253765 
1.01421 2.80643 0.249367 
3.96053 2.2976 0 
4.97127 2.32356 0.213097 
4.37935 2.27957 0.250793 
5.0061 1.78453 0.250401 
0.504074 2.26742 0.250793 
-0.076492 2.24287 0.250793 
-0.056278 1.76591 0.250793 
0.524113 1.78619 0.250702 
4.31887 2.25068 0.253349 
4.03306 2.24873 0.265896 
4.03717 1.76621 0.251286 
4.3252 1.76986 0.223064 
1.06975 1.68506 0.253067 
0.001041 1.69924 0.252583 
1.07003 1.21989 0.250969 
3.97637 1.69559 0.250706 
0.000751 1.24153 0.253174 
0.528202 1.127 0.21545 
-0.030964 1.11593 0.25013 
-0.032822 0.6343 0.250793 
4.05349 1.1464 0.215904 
4.00279 0.657295 0.250793 
4.36617 1.14362 0.215298 
5.01167 1.11514 0.250793 
4.37201 1.11516 0.250793 
5.01166 0.638826 0.250793 
4.30541 0.627099 0.250793 
0.591869 1.1154 0.250793 
0.590202 0.635919 0.250793 
1.02327 1.11514 0.250774 
0.501427 0.638821 0.250793 
1.02328 0.638894 0.25071 
4.28282 0.552097 0.250793 
4.11582 0.217104 0.250786 
5.04837 0.551737 0.250793 
1.06135 0.559676 0.250027 
0.609676 0.54899 0.250793 
1.07341 0.082463 0.250793 
3.98108 0.551764 0.250793 
-0.007217 0.519772 0.250175 
0.009796 0.043596 0.250793 
4.03573 0.192132 0.233425 
3.99512 0.066771 0.244324 
5.0482 0.075667 0.250793 
1.14587 5.13251 0.132321 
2.24943 5.09347 0.122411 
3.97876 4.94417 0.222375 
1.14725 4.9455 0.22387 
2.21575 4.55987 0.223241 
0.094872 4.53923 0.213704 
1.13233 3.45801 0.215318 
-0.008568 3.39083 0.214475 
3.725 3.45253 0.212609 
0.008095 2.87706 0.215755 
0.866207 2.41013 0.245117 
1.08365 2.77032 0.214432 
1.06472 2.26978 0.242958 
0.581539 2.24592 0.243816 
0.530476 1.76928 0.215118 
1.07243 1.79107 0.244831 
-0.006519 1.7459 0.203506 
1.08934 5.10929 0.111699 
3.04929 5.10931 0.112531 
3.94133 5.10938 0.113675 
5.07892 5.09384 0.114018 
3.06093 4.96332 0.223191 
1.08669 4.58159 0.215318 
4.24192 3.97332 0.214265 
0.07058 3.94136 0.213216 
1.35282 3.41273 0.191297 
0.548023 2.87813 0.215317 
4.3298 2.89149 0.223366 
1.09312 2.84911 0.143799 
4.00211 2.31713 0.192669 
0.573811 2.26337 0.215317 
-0.099598 2.28413 0 
-0.075584 1.72376 0 
4.02243 1.76357 0.191448 
0.095562 1.13603 0.213539 
4.00597 1.16136 0.182251 
5.02706 1.15697 0.13353 
5.01745 0.603355 0.173271 
1.03421 0.595921 0.174149 
4.95451 0.573116 0.213734 
5.06883 0.593731 0 
5.06879 0.028967 0.113644 
1.0971 0.040518 0.113708 
1.07582 4.96551 0.223466 
4.97539 4.54688 0.194501 
3.16329 3.99164 0.113282 
0.988426 2.87383 0.213589 
5.01144 1.75037 0.182652 
0.965733 1.19228 0.213406 
0.590553 0.607421 0.21529 
3.96081 0.59523 0.102161 
0.094414 0.549483 0.21352 
-0.060402 0.590263 0.114601 
1.72983 3.98332 0.080659 
-0.028107 3.96448 0.121312 
-0.024616 2.83525 0 
0.076851 2.29413 0.113323 
1.08799 1.74032 0.12402 
3.5469 3.43941 1e-06 
5.06803 2.8648 0 
-0.016045 1.1782 0.131943 
1.04252 1.15724 0.133289 
4.98531 2.88332 0 
1.4475 3.42559 1e-06 
5.0329 2.24877 0 
3.96513 1.73615 0.107372 
-0.015339 5.1081 1e-06 
3.96174 4.90734 1e-06 
5.05174 3.40339 1e-06 
3.96155 2.81159 0 
-0.073601 3.41824 1e-06 
2.77698 4.32653 1e-06 
-0.053371 1.15714 0 
5.05474 4.52682 1e-06 
3.23519 3.9404 1e-06 
3.76667 3.42289 1e-06 
3.97129 5.13338 1e-06 
1.13521 4.99148 1e-06 
-0.035515 4.50419 1e-06 
4.98362 4.50679 1e-06 
3.73573 3.2135 1e-06 
3.96053 0.579181 0 
-0.007957 0 0 
2.29413 5.10938 1e-06 
1.08843 5.10613 1e-06 
1.33648 3.41865 1e-06 
4.98357 3.38559 1e-06 
-0.007652 2.33714 0 
-0.014244 1.73966 0 
3.99644 1.12678 0 
1.07971 0.592596 0 
3.9402 5.10868 1e-06 
5.02764 1.15879 0 
5.07891 5.09339 1e-06 
-0.033108 3.98603 1e-06 
5.06928 3.97127 1e-06 
3.99799 1.76086 0 
3.97918 2.29379 0 
0.237343 2.32822 0 
1.06627 2.35097 0 
5.07511 1.74144 0 
2.52689 4.57729 1e-06 
1.0887 1.1803 0 
5.02833 0.620588 0 
1.14252 5.12895 1e-06 
1.72419 3.96782 1e-06 
3.97061 1.73554 0 
-0.012199 0.571855 0 
5.06793 0.033766 0 
1.08599 2.83511 0 
1.09543 0.041262 0 
3.96661 0.026091 0 
1.06718 1.7654 0 
1.52697 5.07984 -0.263213 
1.51898 4.78416 -0.265048 
1.15886 5.06733 -0.263907 
0.000496 5.06483 -0.263797 
1.06994 5.06453 -0.263473 
0.000496 4.58501 -0.263797 
2.22842 5.04873 -0.262 
1.77429 4.82395 -0.256999 
2.21045 4.56849 -0.262961 
1.69319 4.58867 -0.262805 
1.15153 4.60917 -0.263129 
1.06994 4.58531 -0.263465 
1.66705 4.51624 -0.222583 
4.32281 4.51316 -0.2415 
3.42143 4.04061 -0.264873 
3.41677 4.56692 -0.215396 
1.06122 3.96055 -0.263915 
0.594112 3.94085 -0.263137 
0.757816 3.97288 -0.213107 
0.009296 3.43934 -0.262782 
-0.007385 3.92123 -0.263907 
5.04886 3.93032 -0.262771 
5.03332 3.44547 -0.262317 
3.98036 3.96167 -0.263694 
3.91599 3.45849 -0.264113 
3.21209 3.96057 -0.264121 
3.9326 3.93981 -0.263926 
1.07453 3.47797 -0.261313 
3.5645 3.48075 -0.263251 
3.96985 3.48026 -0.262835 
5.04888 2.82322 -0.262775 
3.98053 2.33825 -0.262791 
3.98054 2.82322 -0.262783 
5.04888 2.33825 -0.262775 
5.04345 1.70182 -0.262619 
4.5774 1.58228 -0.254429 
4.71869 1.71427 -0.218296 
5.04632 1.22055 -0.263184 
3.9786 1.21218 -0.25153 
3.00919 5.06421 -0.250789 
3.00921 4.58563 -0.250789 
2.28449 5.0671 -0.249667 
3.99299 5.08623 -0.250789 
5.05372 5.04573 -0.250789 
4.30827 4.7245 -0.250781 
3.92629 5.06343 -0.250789 
3.7248 4.70453 -0.25077 
3.47048 5.06371 -0.250789 
3.93021 4.57961 -0.222934 
-0.037006 4.55742 -0.113475 
3.06616 5.06321 -0.250789 
3.36037 4.58732 -0.233653 
3.9263 4.5864 -0.250789 
4.59184 4.5236 -0.223308 
4.30435 4.59411 -0.230399 
2.2832 4.58368 -0.242324 
5.03612 4.5702 -0.250789 
0.578583 4.54862 -0.216086 
0.506592 4.03787 -0.249961 
-0.010456 4.51398 -0.250789 
4.96766 4.51437 -0.250789 
4.36808 4.03762 -0.250178 
0.965775 4.04271 -0.250781 
0.593021 4.52342 -0.250483 
2.20992 4.51495 -0.250789 
2.02554 4.36387 -0.250071 
1.72077 4.51446 -0.250731 
4.21817 4.04632 -0.243224 
2.06895 4.25603 -0.206862 
2.50622 4.56719 -0.2149 
-0.015907 4.02847 -0.241782 
1.72066 4.03672 -0.249637 
0.537193 4.01978 -0.21596 
3.36295 4.51515 -0.251273 
3.1729 4.03094 -0.243739 
2.53238 4.51509 -0.251372 
1.64953 4.02378 -0.250586 
4.95885 3.95296 -0.21292 
3.93682 3.9562 -0.222739 
1.07383 3.99888 -0.215842 
1.71491 3.95071 -0.244437 
1.15332 3.46586 -0.250789 
1.42346 3.46768 -0.250789 
3.95251 3.46218 -0.214919 
0.548943 3.44592 -0.218921 
4.95763 3.41094 -0.213988 
0.521713 2.89451 -0.25079 
-0.053177 3.37343 -0.250789 
1.34089 3.38707 -0.250789 
1.11294 2.91447 -0.250374 
0.580051 3.35183 -0.250789 
4.36455 3.37888 -0.22285 
4.3241 2.90027 -0.25079 
3.6642 3.34946 -0.250789 
4.96794 3.37437 -0.250789 
4.369 2.8945 -0.25079 
0.596207 2.87151 -0.25079 
-0.053177 2.89544 -0.25079 
4.95071 2.83475 -0.223614 
0.01387 2.83392 -0.264648 
1.01421 2.80643 -0.249363 
-0.002781 2.35753 -0.253765 
4.97127 2.32356 -0.213093 
5.0061 1.78453 -0.250401 
4.37935 2.27957 -0.25079 
0.504074 2.26742 -0.25079 
0.524113 1.78619 -0.250702 
-0.056278 1.76591 -0.25079 
-0.076492 2.24287 -0.25079 
4.31887 2.25068 -0.253349 
4.03717 1.76621 -0.251286 
4.03306 2.24873 -0.265896 
4.3252 1.76986 -0.223064 
1.06975 1.68506 -0.253067 
1.07003 1.21989 -0.250969 
0.001041 1.69924 -0.252583 
3.97637 1.69559 -0.250706 
0.000751 1.24153 -0.253174 
0.528202 1.127 -0.215446 
-0.032822 0.6343 -0.25079 
-0.030964 1.11593 -0.250126 
4.05349 1.1464 -0.2159 
4.36617 1.14362 -0.215298 
4.00279 0.657295 -0.25079 
5.01167 1.11514 -0.25079 
5.01166 0.638826 -0.25079 
4.37201 1.11516 -0.25079 
4.30541 0.627099 -0.25079 
0.591869 1.1154 -0.25079 
1.02327 1.11514 -0.250774 
0.590202 0.635919 -0.25079 
0.501427 0.638821 -0.25079 
1.02328 0.638894 -0.25071 
4.28282 0.552097 -0.25079 
5.04837 0.551737 -0.25079 
4.11582 0.217104 -0.250782 
1.06135 0.559676 -0.250027 
1.07341 0.082463 -0.25079 
0.609676 0.54899 -0.25079 
3.98108 0.551764 -0.25079 
-0.007217 0.519772 -0.250172 
0.009796 0.043596 -0.25079 
3.99512 0.066771 -0.244324 
4.03573 0.192132 -0.233425 
5.0482 0.075667 -0.25079 
1.14587 5.13251 -0.132319 
2.24943 5.09347 -0.122409 
3.97876 4.94417 -0.222369 
1.14725 4.9455 -0.223868 
2.21575 4.55987 -0.223235 
0.094872 4.53923 -0.213702 
1.13233 3.45801 -0.215316 
-0.008568 3.39083 -0.214469 
3.725 3.45253 -0.212607 
0.008095 2.87706 -0.215755 
1.08365 2.77032 -0.214428 
0.866207 2.41013 -0.245117 
1.06472 2.26978 -0.242958 
0.530476 1.76928 -0.215118 
0.581539 2.24592 -0.243813 
1.07243 1.79107 -0.244827 
-0.006519 1.7459 -0.203506 
1.08934 5.10929 -0.111697 
3.04929 5.10931 -0.112525 
3.94133 5.10938 -0.113673 
5.07892 5.09384 -0.114016 
3.06093 4.96332 -0.223185 
1.08669 4.58159 -0.215316 
4.24192 3.97332 -0.214263 
0.07058 3.94136 -0.213214 
1.35282 3.41273 -0.191295 
0.548023 2.87813 -0.215317 
4.3298 2.89149 -0.223366 
1.09312 2.84911 -0.143799 
4.00211 2.31713 -0.192669 
0.573811 2.26337 -0.215317 
4.02243 1.76357 -0.191448 
0.095562 1.13603 -0.213539 
4.00597 1.16136 -0.182251 
5.02706 1.15697 -0.13353 
5.01745 0.603355 -0.173267 
1.03421 0.595921 -0.174145 
4.95451 0.573116 -0.213734 
5.06879 0.028967 -0.11364 
1.0971 0.040518 -0.113708 
1.07582 4.96551 -0.223464 
4.97539 4.54688 -0.194499 
3.16329 3.99164 -0.113276 
0.988426 2.87383 -0.213589 
5.01144 1.75037 -0.182648 
0.965733 1.19228 -0.213402 
0.590553 0.607421 -0.215286 
3.96081 0.59523 -0.102161 
0.094414 0.549483 -0.21352 
-0.060402 0.590263 -0.114601 
1.72983 3.98332 -0.080657 
-0.028107 3.96448 -0.12131 
0.076851 2.29413 -0.113323 
1.08799 1.74032 -0.12402 
-0.016045 1.1782 -0.131943 
1.04252 1.15724 -0.133289 
3.96513 1.73615 -0.107372 
1.51898 4.78416 0.265054 
1.15153 4.60917 0.263131 
1.69319 4.58867 0.262811 
0.594112 3.94085 0.263139 
1.06122 3.96055 0.263921 
5.04345 1.70182 0.262619 
4.5774 1.58228 0.254429 
0.000496 5.06483 0.263799 
0.000496 4.58501 0.263799 
3.00921 4.58563 0.250794 
4.30827 4.7245 0.250787 
3.93021 4.57961 0.222936 
4.59184 4.5236 0.22331 
1.66705 4.51624 0.222585 
2.20992 4.51495 0.250794 
2.02554 4.36387 0.250077 
0.965775 4.04271 0.250787 
0.537193 4.01978 0.215962 
3.21209 3.96057 0.264127 
3.9326 3.93981 0.263932 
3.98036 3.96167 0.263696 
5.04886 3.93032 0.262773 
4.95885 3.95296 0.212922 
3.96985 3.48026 0.262837 
1.07453 3.47797 0.261315 
0.009296 3.43934 0.262784 
5.03332 3.44547 0.262319 
0.548943 3.44592 0.218923 
4.36455 3.37888 0.222852 
3.98054 2.82322 0.262783 
3.98054 2.82322 0.262783 
3.98053 2.33825 0.262791 
4.71869 1.71427 0.2183 
4.3252 1.76986 0.223064 
4.11582 0.217104 0.250786 
3.99512 0.066771 0.244324 
1.15886 5.06733 0.263909 
1.52697 5.07984 0.263219 
2.22842 5.04873 0.262002 
3.99299 5.08623 0.250794 
2.28449 5.0671 0.249673 
2.2832 4.58368 0.24233 
1.06994 4.58531 0.263471 
2.21045 4.56849 0.262963 
4.32281 4.51316 0.241502 
4.96766 4.51437 0.250794 
1.15332 3.46586 0.250794 
1.07383 3.99888 0.215848 
-0.007385 3.92123 0.263909 
3.91599 3.45849 0.264115 
3.5645 3.48075 0.263253 
0.596207 2.87151 0.250793 
0.580051 3.35183 0.250794 
0.01387 2.83392 0.264648 
1.01421 2.80643 0.249367 
0.866207 2.41013 0.245117 
-0.002781 2.35753 0.253765 
1.06472 2.26978 0.242958 
0.001041 1.69924 0.252583 
0.000751 1.24153 0.253174 
1.06994 5.06453 0.263475 
3.00919 5.06421 0.250794 
3.06616 5.06321 0.250794 
3.47048 5.06371 0.250794 
5.05372 5.04573 0.250794 
3.00921 4.58563 0.250794 
3.92629 5.06343 0.250794 
3.9263 4.5864 0.250794 
0.578583 4.54862 0.216088 
3.41677 4.56692 0.215398 
3.36037 4.58732 0.233655 
0.593021 4.52342 0.250489 
0.506592 4.03787 0.249963 
1.72066 4.03672 0.249639 
-0.015907 4.02847 0.241784 
1.64953 4.02378 0.250588 
1.34089 3.38707 0.250794 
1.11294 2.91447 0.250378 
0.521713 2.89451 0.250793 
-0.053177 2.89544 0.250793 
5.04888 2.82322 0.262775 
4.37935 2.27957 0.250793 
5.04888 2.33825 0.262775 
4.97127 2.32356 0.213097 
4.03306 2.24873 0.265896 
4.31887 2.25068 0.253349 
0.504074 2.26742 0.250793 
0.524113 1.78619 0.250702 
-0.056278 1.76591 0.250793 
4.03717 1.76621 0.251286 
3.97637 1.69559 0.250706 
-0.030964 1.11593 0.25013 
0.528202 1.127 0.21545 
4.05349 1.1464 0.215904 
4.00279 0.657295 0.250793 
5.01167 1.11514 0.250793 
5.01166 0.638826 0.250793 
4.37201 1.11516 0.250793 
4.36617 1.14362 0.215298 
4.30541 0.627099 0.250793 
0.609676 0.54899 0.250793 
1.06135 0.559676 0.250027 
4.28282 0.552097 0.250793 
5.04837 0.551737 0.250793 
5.0482 0.075667 0.250793 
0.009796 0.043596 0.250793 
1.07341 0.082463 0.250793 
5.03612 4.5702 0.250794 
4.21817 4.04632 0.243226 
3.42143 4.04061 0.264875 
4.36808 4.03762 0.25018 
-0.053177 3.37343 0.250794 
4.36455 3.37888 0.222852 
4.96794 3.37437 0.250794 
4.3241 2.90027 0.250793 
4.369 2.8945 0.250793 
4.95071 2.83475 0.223614 
0.530476 1.76928 0.215118 
0.581539 2.24592 0.243816 
1.06975 1.68506 0.253067 
3.9786 1.21218 0.25153 
5.04632 1.22055 0.263184 
1.02327 1.11514 0.250774 
0.591869 1.1154 0.250793 
0.590202 0.635919 0.250793 
1.02328 0.638894 0.25071 
3.98108 0.551764 0.250793 
-0.007217 0.519772 0.250175 
3.36295 4.51515 0.251275 
-0.010456 4.51398 0.250794 
1.72077 4.51446 0.250737 
2.53238 4.51509 0.251374 
3.1729 4.03094 0.243741 
1.71491 3.95071 0.244439 
3.6642 3.34946 0.250794 
5.0061 1.78453 0.250401 
1.07243 1.79107 0.244831 
1.07003 1.21989 0.250969 
0.501427 0.638821 0.250793 
-0.032822 0.6343 0.250793 
1.42346 3.46768 0.250794 
1.51898 4.78416 -0.265048 
1.15153 4.60917 -0.263129 
1.69319 4.58867 -0.262805 
0.594112 3.94085 -0.263137 
1.06122 3.96055 -0.263915 
5.04345 1.70182 -0.262619 
4.5774 1.58228 -0.254429 
0.000496 5.06483 -0.263797 
0.000496 4.58501 -0.263797 
3.00921 4.58563 -0.250789 
3.93021 4.57961 -0.222934 
4.30827 4.7245 -0.250781 
4.59184 4.5236 -0.223308 
1.66705 4.51624 -0.222583 
2.20992 4.51495 -0.250789 
2.02554 4.36387 -0.250071 
0.965775 4.04271 -0.250781 
0.537193 4.01978 -0.21596 
3.9326 3.93981 -0.263926 
3.21209 3.96057 -0.264121 
3.98036 3.96167 -0.263694 
4.95885 3.95296 -0.21292 
5.04886 3.93032 -0.262771 
3.96985 3.48026 -0.262835 
0.009296 3.43934 -0.262782 
1.07453 3.47797 -0.261313 
5.03332 3.44547 -0.262317 
0.548943 3.44592 -0.218921 
4.36455 3.37888 -0.22285 
3.98054 2.82322 -0.262783 
3.98054 2.82322 -0.262783 
3.98053 2.33825 -0.262791 
4.71869 1.71427 -0.218296 
4.3252 1.76986 -0.223064 
4.11582 0.217104 -0.250782 
3.99512 0.066771 -0.244324 
1.15886 5.06733 -0.263907 
1.52697 5.07984 -0.263213 
2.22842 5.04873 -0.262 
3.99299 5.08623 -0.250789 
2.28449 5.0671 -0.249667 
2.2832 4.58368 -0.242324 
1.06994 4.58531 -0.263465 
2.21045 4.56849 -0.262961 
4.96766 4.51437 -0.250789 
4.32281 4.51316 -0.2415 
1.15332 3.46586 -0.250789 
1.07383 3.99888 -0.215842 
-0.007385 3.92123 -0.263907 
3.91599 3.45849 -0.264113 
3.5645 3.48075 -0.263251 
0.580051 3.35183 -0.250789 
0.596207 2.87151 -0.25079 
0.01387 2.83392 -0.264648 
1.01421 2.80643 -0.249363 
0.866207 2.41013 -0.245117 
-0.002781 2.35753 -0.253765 
1.06472 2.26978 -0.242958 
0.001041 1.69924 -0.252583 
0.000751 1.24153 -0.253174 
1.06994 5.06453 -0.263473 
3.00919 5.06421 -0.250789 
3.47048 5.06371 -0.250789 
3.06616 5.06321 -0.250789 
5.05372 5.04573 -0.250789 
3.00921 4.58563 -0.250789 
3.9263 4.5864 -0.250789 
3.92629 5.06343 -0.250789 
0.578583 4.54862 -0.216086 
3.41677 4.56692 -0.215396 
3.36037 4.58732 -0.233653 
0.593021 4.52342 -0.250483 
0.506592 4.03787 -0.249961 
1.72066 4.03672 -0.249637 
-0.015907 4.02847 -0.241782 
1.64953 4.02378 -0.250586 
1.34089 3.38707 -0.250789 
1.11294 2.91447 -0.250374 
-0.053177 2.89544 -0.25079 
0.521713 2.89451 -0.25079 
5.04888 2.82322 -0.262775 
5.04888 2.33825 -0.262775 
4.37935 2.27957 -0.25079 
4.97127 2.32356 -0.213093 
4.31887 2.25068 -0.253349 
4.03306 2.24873 -0.265896 
0.504074 2.26742 -0.25079 
-0.056278 1.76591 -0.25079 
-0.076492 2.24287 -0.25079 
4.03717 1.76621 -0.251286 
3.97637 1.69559 -0.250706 
0.528202 1.127 -0.215446 
-0.030964 1.11593 -0.250126 
4.05349 1.1464 -0.2159 
4.00279 0.657295 -0.25079 
5.01166 0.638826 -0.25079 
5.01167 1.11514 -0.25079 
4.37201 1.11516 -0.25079 
4.30541 0.627099 -0.25079 
4.36617 1.14362 -0.215298 
1.06135 0.559676 -0.250027 
0.609676 0.54899 -0.25079 
5.04837 0.551737 -0.25079 
4.28282 0.552097 -0.25079 
5.0482 0.075667 -0.25079 
0.009796 0.043596 -0.25079 
1.07341 0.082463 -0.25079 
5.03612 4.5702 -0.250789 
4.21817 4.04632 -0.243224 
3.42143 4.04061 -0.264873 
4.36808 4.03762 -0.250178 
-0.053177 3.37343 -0.250789 
4.96794 3.37437 -0.250789 
4.36455 3.37888 -0.22285 
4.3241 2.90027 -0.25079 
4.369 2.8945 -0.25079 
4.95071 2.83475 -0.223614 
0.530476 1.76928 -0.215118 
0.581539 2.24592 -0.243813 
1.06975 1.68506 -0.253067 
3.9786 1.21218 -0.25153 
5.04632 1.22055 -0.263184 
1.02327 1.11514 -0.250774 
0.591869 1.1154 -0.25079 
0.590202 0.635919 -0.25079 
1.02328 0.638894 -0.25071 
3.98108 0.551764 -0.25079 
-0.007217 0.519772 -0.250172 
3.36295 4.51515 -0.251273 
-0.010456 4.51398 -0.250789 
1.72077 4.51446 -0.250731 
2.53238 4.51509 -0.251372 
3.1729 4.03094 -0.243739 
1.71491 3.95071 -0.244437 
3.6642 3.34946 -0.250789 
5.0061 1.78453 -0.250401 
1.07243 1.79107 -0.244827 
1.07003 1.21989 -0.250969 
0.501427 0.638821 -0.25079 
-0.032822 0.6343 -0.25079 
1.42346 3.46768 -0.250789 
-0.076492 2.24287 0.250793 
0.524113 1.78619 -0.250702 
3 0 1 2
3 3 4 5
3 6 0 7
3 7 0 2
3 7 8 9
3 6 7 9
3 7 2 8
3 1 10 2
3 5 4 11
3 461 462 12
3 463 461 12
3 13 14 15
3 16 17 18
3 464 19 20
3 21 22 23
3 465 464 20
3 24 25 26
3 465 20 27
3 26 28 24
3 22 29 23
3 30 31 32
3 30 32 33
3 34 35 36
3 466 467 37
3 467 38 37
3 39 40 41
3 42 43 44
3 45 46 47
3 43 42 48
3 468 49 469
3 46 50 470
3 47 46 51
3 46 470 51
3 45 47 52
3 44 43 53
3 54 471 472
3 471 54 473
3 41 40 55
3 47 51 52
3 44 53 56
3 57 58 59
3 60 13 61
3 474 62 63
3 64 65 66
3 67 13 15
3 68 69 475
3 475 476 68
3 58 70 59
3 65 71 66
3 63 62 72
3 73 74 75
3 474 63 76
3 477 478 17
3 73 75 15
3 60 61 77
3 78 479 480
3 481 482 483
3 79 80 81
3 81 80 82
3 484 481 83
3 84 485 486
3 484 85 487
3 488 86 87
3 88 89 90
3 91 92 93
3 94 489 95
3 90 89 96
3 92 490 93
3 86 97 87
3 94 95 98
3 99 100 101
3 491 102 492
3 103 104 105
3 106 108 109
3 110 111 112
3 105 104 493
3 104 113 493
3 114 115 116
3 35 494 36
3 467 117 38
3 115 118 116
3 119 120 121
3 122 123 124
3 125 126 127
3 124 123 128
3 129 130 131
3 119 121 132
3 131 130 133
3 126 128 127
3 134 135 136
3 137 138 139
3 134 140 135
3 141 142 138
3 495 143 144
3 138 142 139
3 135 496 145
3 136 135 145
3 497 498 146
3 147 146 498
3 498 499 147
3 500 148 472
3 497 149 462
3 501 150 502
3 151 503 469
3 463 150 504
3 473 505 506
3 507 508 152
3 153 486 509
3 508 16 485
3 510 511 154
3 84 512 513
3 514 515 155
3 515 156 157
3 157 156 158
3 101 100 516
3 158 156 517
3 110 112 113
3 518 159 160
3 518 160 161
3 519 162 520
3 468 521 163
3 164 147 501
3 164 501 522
3 164 523 524
3 165 164 524
3 500 525 166
3 523 167 526
3 150 499 504
3 472 527 528
3 503 151 529
3 503 529 168
3 530 528 531
3 532 168 529
3 478 529 533
3 534 68 476
3 478 533 535
3 508 536 477
3 78 481 169
3 170 509 18
3 17 170 18
3 78 83 481
3 78 480 510
3 154 83 510
3 537 152 513
3 537 538 171
3 84 172 512
3 155 539 540
3 173 491 541
3 174 515 157
3 492 542 543
3 542 544 543
3 175 545 546
3 547 548 176
3 549 107 177
3 549 177 178
3 550 545 179
3 162 548 549
3 494 551 36
3 180 552 553
3 554 181 555
3 182 556 557
3 558 559 560
3 182 557 183
3 184 561 562
3 185 563 564
3 186 564 187
3 187 564 565
3 566 188 567
3 163 521 189
3 167 522 526
3 189 521 503
3 568 166 525
3 462 149 168
3 189 503 168
3 463 12 150
3 502 69 526
3 530 472 528
3 190 568 473
3 168 532 12
3 190 473 506
3 532 529 478
3 505 569 169
3 17 508 477
3 78 569 570
3 169 483 571
3 78 191 479
3 17 16 508
3 169 481 483
3 479 191 511
3 78 510 83
3 508 485 152
3 485 84 152
3 83 85 484
3 153 84 486
3 171 152 537
3 84 153 572
3 84 513 152
3 85 573 574
3 573 575 173
3 573 173 576
3 84 539 172
3 192 538 512
3 173 577 576
3 172 192 512
3 173 575 491
3 515 172 155
3 577 173 541
3 175 542 492
3 176 107 547
3 542 546 494
3 176 548 578
3 579 176 578
3 162 578 548
3 162 519 578
3 580 578 519
3 494 179 551
3 193 35 34
3 181 554 581
3 554 559 581
3 559 582 581
3 583 194 584
3 556 559 558
3 584 195 585
3 195 586 585
3 185 557 560
3 195 561 184
3 555 196 587
3 563 555 587
3 186 185 564
3 197 198 588
3 197 588 561
3 561 195 197
3 187 565 144
3 164 522 167
3 148 527 472
3 149 189 168
3 462 168 12
3 502 150 69
3 531 526 530
3 49 151 469
3 530 526 589
3 530 505 472
3 590 529 151
3 591 475 12
3 475 150 12
3 475 69 150
3 592 526 69
3 592 589 526
3 505 54 472
3 505 473 54
3 570 530 589
3 591 12 536
3 571 505 169
3 591 536 534
3 199 68 534
3 478 535 170
3 593 191 570
3 569 78 169
3 478 170 17
3 536 508 594
3 191 78 570
3 85 83 573
3 154 573 83
3 573 154 595
3 539 155 172
3 515 192 172
3 514 155 517
3 517 176 158
3 517 107 176
3 542 175 546
3 579 158 176
3 550 179 494
3 596 35 193
3 578 580 597
3 598 520 553
3 598 553 194
3 520 180 553
3 582 559 556
3 584 194 553
3 195 584 553
3 195 553 599
3 599 600 197
3 599 197 195
3 586 195 184
3 560 555 563
3 560 563 185
3 527 165 524
3 151 49 590
3 170 200 509
3 152 601 507
3 538 192 174
3 517 155 201
3 102 175 492
3 517 202 107
3 545 175 179
3 158 597 203
3 580 598 203
3 185 183 557
3 501 147 150
3 590 49 535
3 190 506 483
3 535 200 170
3 509 200 153
3 511 191 204
3 152 171 601
3 515 174 192
3 205 541 543
3 520 162 206
3 194 583 207
3 184 583 586
3 208 574 577
3 157 158 174
3 178 162 549
3 555 181 196
3 495 196 143
3 523 164 167
3 499 150 147
3 199 594 601
3 204 154 511
3 209 601 171
3 544 210 543
3 210 544 596
3 551 211 581
3 520 206 180
3 582 556 182
3 562 567 188
3 468 212 49
3 213 165 527
3 482 487 214
3 595 215 491
3 491 215 102
3 552 198 600
3 185 186 183
3 188 184 562
3 566 588 198
3 587 196 495
3 148 213 527
3 535 49 200
3 572 216 540
3 85 574 208
3 205 577 541
3 202 177 107
3 580 203 597
3 207 598 194
3 199 69 68
3 210 596 193
3 163 212 468
3 497 146 149
3 69 217 592
3 85 214 487
3 552 180 206
3 552 218 198
3 198 197 600
3 190 219 568
3 220 204 191
3 601 209 199
3 577 205 208
3 540 201 155
3 179 211 551
3 207 583 184
3 219 166 568
3 154 221 595
3 538 174 171
3 222 500 166
3 149 223 189
3 212 224 49
3 225 219 190
3 216 572 153
3 595 226 215
3 206 218 552
3 181 227 196
3 228 188 566
3 229 147 164
3 230 163 189
3 592 217 593
3 593 217 191
3 221 154 204
3 231 209 171
3 221 226 595
3 232 85 208
3 517 233 202
3 178 234 162
3 211 235 581
3 581 235 181
3 236 184 188
3 143 196 144
3 146 223 149
3 500 222 148
3 237 165 213
3 182 238 582
3 239 166 219
3 49 240 200
3 482 241 483
3 241 482 214
3 198 228 566
3 144 196 227
3 230 189 223
3 225 190 483
3 211 179 242
3 34 582 238
3 231 171 174
3 102 243 175
3 217 220 191
3 244 177 202
3 158 203 245
3 34 246 193
3 69 247 217
3 85 232 214
3 233 244 202
3 162 218 206
3 207 248 598
3 249 182 183
3 229 250 147
3 223 146 250
3 148 222 213
3 201 233 517
3 186 249 183
3 69 251 247
3 69 199 251
3 209 251 199
3 216 201 540
3 175 243 242
3 175 242 179
3 210 193 246
3 252 211 242
3 248 207 184
3 181 235 227
3 198 218 253
3 144 254 187
3 230 212 163
3 229 164 165
3 237 229 165
3 239 222 166
3 241 225 483
3 231 174 255
3 255 174 158
3 255 158 245
3 249 238 182
3 248 184 236
3 198 253 228
3 236 188 256
3 227 257 144
3 254 186 187
3 257 254 144
3 228 256 188
3 250 146 147
3 49 224 240
3 200 240 153
3 246 34 238
3 153 240 216
3 205 543 210
3 258 203 248
3 248 203 598
3 234 218 162
3 245 203 258
3 211 252 235
3 199 534 536
3 536 594 199
3 259 260 261
3 262 263 264
3 265 266 259
3 266 260 259
3 266 267 268
3 265 267 266
3 266 268 260
3 261 260 269
3 263 270 264
3 602 271 603
3 604 271 602
3 272 273 274
3 275 276 277
3 605 278 279
3 280 281 282
3 606 278 605
3 283 284 285
3 606 286 278
3 284 283 287
3 282 281 288
3 289 290 291
3 289 292 290
3 293 294 295
3 607 296 608
3 608 296 297
3 298 299 300
3 301 302 303
3 304 305 306
3 303 307 301
3 609 610 308
3 306 611 309
3 305 310 306
3 306 310 611
3 304 311 305
3 302 312 303
3 313 612 613
3 613 614 313
3 299 314 300
3 305 311 310
3 302 315 312
3 316 317 318
3 319 320 272
3 615 321 322
3 323 324 325
3 326 273 272
3 327 616 328
3 616 327 617
3 318 317 329
3 325 324 330
3 321 331 322
3 332 333 334
3 615 335 321
3 618 277 619
3 332 273 333
3 319 336 320
3 337 620 621
3 622 623 624
3 338 339 340
3 339 341 340
3 625 342 622
3 343 626 627
3 625 628 344
3 629 345 346
3 347 348 349
3 350 351 352
3 353 354 630
3 348 355 349
3 352 351 631
3 346 345 356
3 353 357 354
3 358 359 360
3 632 633 102
3 361 362 363
3 364 366 367
3 368 369 370
3 362 634 363
3 363 634 371
3 372 373 374
3 295 294 635
3 608 297 375
3 374 373 376
3 377 378 379
3 380 381 382
3 383 384 385
3 381 386 382
3 387 388 389
3 377 390 378
3 388 391 389
3 385 384 386
3 392 393 394
3 395 396 397
3 392 394 398
3 399 397 400
3 636 401 402
3 397 396 400
3 394 403 637
3 393 403 394
3 638 404 639
3 405 639 404
3 639 405 640
3 641 612 406
3 638 603 407
3 642 643 408
3 409 610 644
3 604 645 408
3 614 646 647
3 648 410 649
3 411 650 626
3 649 627 275
3 651 412 652
3 343 653 654
3 655 413 656
3 656 414 415
3 414 416 415
3 359 657 360
3 416 658 415
3 368 371 369
3 659 417 418
3 659 419 417
3 660 661 420
3 609 421 662
3 422 642 405
3 422 663 642
3 422 664 665
3 423 664 422
3 641 424 666
3 665 667 425
3 408 645 640
3 612 668 669
3 644 670 409
3 644 426 670
3 671 672 668
3 673 670 426
3 619 674 670
3 675 617 327
3 619 676 674
3 649 618 677
3 337 427 622
3 428 276 650
3 277 276 428
3 337 622 342
3 337 651 620
3 412 651 342
3 678 653 410
3 678 429 679
3 343 654 430
3 413 680 681
3 431 682 632
3 432 414 656
3 633 683 684
3 684 683 685
3 433 686 687
3 688 434 365
3 689 177 690
3 689 178 177
3 691 435 687
3 420 689 365
3 635 294 692
3 436 693 694
3 695 696 437
3 438 697 698
3 699 700 701
3 438 439 697
3 440 702 703
3 441 704 705
3 186 442 704
3 442 706 704
3 707 708 443
3 421 444 662
3 425 667 663
3 444 644 662
3 709 666 424
3 603 426 407
3 444 426 644
3 604 408 271
3 643 667 328
3 671 668 612
3 445 614 709
3 426 271 673
3 445 646 614
3 673 619 670
3 647 427 710
3 277 618 649
3 337 711 710
3 427 712 623
3 337 621 446
3 277 649 275
3 427 623 622
3 621 652 446
3 337 342 651
3 649 410 627
3 627 410 343
3 342 625 344
3 411 626 343
3 429 678 410
3 343 713 411
3 343 410 653
3 344 714 715
3 715 431 716
3 715 717 431
3 343 430 681
3 447 654 679
3 431 717 718
3 430 654 447
3 431 632 716
3 656 413 430
3 718 682 431
3 433 633 684
3 434 688 690
3 684 635 686
3 434 719 365
3 720 719 434
3 420 365 719
3 420 719 660
3 721 660 719
3 635 692 435
3 448 293 295
3 437 722 695
3 695 722 701
3 701 722 723
3 724 725 449
3 698 699 701
3 725 726 450
3 450 726 727
3 441 700 697
3 450 440 703
3 696 728 451
3 705 728 696
3 186 704 441
3 452 729 453
3 452 703 729
3 703 452 450
3 442 401 706
3 422 425 663
3 406 612 669
3 407 426 444
3 603 271 426
3 643 328 408
3 672 671 667
3 308 610 409
3 671 730 667
3 671 612 647
3 731 409 670
3 732 271 616
3 616 271 408
3 616 408 328
3 733 328 667
3 733 667 730
3 647 612 313
3 647 313 614
3 711 730 671
3 732 677 271
3 712 427 647
3 732 675 677
3 454 675 327
3 619 428 676
3 734 711 446
3 710 427 337
3 619 277 428
3 677 735 649
3 446 711 337
3 344 715 342
3 412 342 715
3 715 736 412
3 681 430 413
3 656 430 447
3 655 658 413
3 658 416 434
3 658 434 690
3 684 686 433
3 720 434 416
3 691 635 435
3 737 448 295
3 719 738 721
3 739 693 661
3 739 449 693
3 661 693 436
3 723 698 701
3 725 693 449
3 450 693 725
3 450 740 693
3 740 452 741
3 740 450 452
3 727 440 450
3 700 705 696
3 700 441 705
3 669 664 423
3 409 731 308
3 428 650 455
3 410 648 742
3 679 432 447
3 658 201 413
3 102 633 433
3 658 690 456
3 687 435 433
3 416 457 738
3 721 457 739
3 441 697 439
3 642 408 405
3 731 676 308
3 445 623 646
3 676 428 455
3 650 411 455
3 652 204 446
3 410 742 429
3 656 447 432
3 205 683 682
3 661 458 420
3 449 459 724
3 440 727 724
3 208 718 714
3 414 432 416
3 178 689 420
3 696 451 437
3 636 402 451
3 665 425 422
3 640 405 408
3 454 742 735
3 204 652 412
3 209 429 742
3 685 683 210
3 210 737 685
3 692 722 460
3 661 436 458
3 723 438 698
3 702 443 708
3 609 308 212
3 213 669 423
3 624 214 628
3 736 632 215
3 632 102 215
3 694 741 453
3 441 439 186
3 443 702 440
3 707 453 729
3 728 636 451
3 406 669 213
3 676 455 308
3 713 680 216
3 344 208 714
3 205 682 718
3 456 690 177
3 721 738 457
3 459 449 739
3 454 327 328
3 210 448 737
3 421 609 212
3 638 407 404
3 328 733 217
3 344 628 214
3 694 458 436
3 694 453 218
3 453 741 452
3 445 709 219
3 220 446 204
3 742 454 209
3 718 208 205
3 680 413 201
3 435 692 460
3 459 440 724
3 219 709 424
3 412 736 221
3 679 429 432
3 222 424 641
3 407 444 223
3 212 308 224
3 225 445 219
3 216 411 713
3 736 215 226
3 458 694 218
3 437 451 227
3 228 707 443
3 229 422 405
3 230 444 421
3 733 734 217
3 734 446 217
3 221 204 412
3 231 429 209
3 221 736 226
3 232 208 344
3 658 456 233
3 178 420 234
3 460 722 235
3 722 437 235
3 236 443 440
3 402 401 451
3 404 407 223
3 641 406 222
3 237 213 423
3 438 723 238
3 239 219 424
3 308 455 240
3 624 623 241
3 241 214 624
3 453 707 228
3 401 227 451
3 230 223 444
3 225 623 445
3 460 242 435
3 293 238 723
3 231 432 429
3 102 433 243
3 217 446 220
3 244 456 177
3 416 245 457
3 293 448 246
3 328 217 247
3 344 214 232
3 233 456 244
3 420 458 218
3 459 739 248
3 249 439 438
3 229 405 250
3 223 250 404
3 406 213 222
3 201 658 233
3 186 439 249
3 328 247 251
3 328 251 454
3 209 454 251
3 216 680 201
3 433 242 243
3 433 435 242
3 210 246 448
3 252 242 460
3 248 440 459
3 437 227 235
3 453 253 218
3 401 442 254
3 230 421 212
3 229 423 422
3 237 423 229
3 239 424 222
3 241 623 225
3 231 255 432
3 255 416 432
3 255 245 416
3 249 438 238
3 248 236 440
3 453 228 253
3 236 256 443
3 227 401 257
3 254 442 186
3 257 401 254
3 228 443 256
3 250 405 404
3 308 240 224
3 455 411 240
3 246 238 293
3 411 216 240
3 205 210 683
3 258 248 457
3 248 739 457
3 234 420 218
3 245 258 457
3 460 235 252
3 454 677 675
3 677 454 735
3 106 743 108
3 364 744 366
