ply
format ascii 1.0
comment INFO-3111 Flatenator generated
comment TextureFile Dungeons_Texture_01.png
element vertex 569
property float x
property float y
property float z
element face 688
property list uchar int vertex_indices
end_header
0.852684 5.02988 0.264745 
0.010666 5.02774 0.261716 
0.086411 4.54661 0.264714 
1.53355 5.02717 0.238908 
0.950653 5.05178 0.2641 
0.967751 4.58289 0.249154 
2.21406 5.01368 0.264875 
0.804184 4.59278 0.262963 
2.19663 4.53365 0.26489 
1.05432 3.92772 0.264688 
0.144424 3.89177 0.265378 
0.751068 3.43495 0.265317 
3.92163 3.91462 0.196389 
3.93736 3.44711 0.265012 
4.24205 3.91583 0.266385 
4.96718 3.89362 0.264844 
4.99676 3.41199 0.265836 
3.87337 3.90396 0.263913 
3.89153 3.42314 0.265847 
3.05138 3.92857 0.264459 
3.04086 3.50811 0.264318 
0.009415 3.88552 0.228883 
0.013138 3.40522 0.264554 
1.07917 3.4332 0.202283 
3.03287 3.4334 0.20321 
5.01086 2.78994 0.264996 
4.54918 2.78201 0.266628 
4.86346 2.30891 0.262421 
3.98375 2.39026 0.245621 
5.00825 2.32595 0.234829 
4.9464 1.68404 0.21904 
4.81702 1.66961 0.261505 
5.00841 1.18765 0.263939 
3.342 1.08072 0.265846 
2.49052 1.11058 0.264759 
2.64493 0.627896 0.251575 
2.49523 0.674229 0.257244 
3.31601 0.588356 0.200203 
1.47987 0.564509 0.260292 
1.39894 0.596794 0.236122 
1.36435 0.099033 0.272461 
1.69574 4.48586 0.19661 
4.28541 3.99819 0.238389 
3.13431 4.48776 0.271779 
3.43277 4.03634 0.263784 
3.3439 3.98265 0.196942 
3.04833 3.95401 0.196313 
0.019592 2.80596 0.26849 
0.024498 2.36898 0.247959 
1.02758 2.77097 0.245613 
3.9443 2.805 0.202515 
3.86822 2.80609 0.244282 
3.69096 2.35923 0.240196 
3.91085 2.37571 0.214611 
3.94831 1.60484 0.247078 
2.40631 0.627387 0.263523 
2.42238 1.09213 0.24987 
1.60412 0.652281 0.255775 
1.8609 0.019386 0.241352 
5.02048 5.0136 0.247212 
3.80312 5.05491 0.247651 
4.56449 4.54969 0.247464 
3.14764 4.54656 0.24035 
3.73968 5.02949 0.2478 
2.87741 5.02949 0.2478 
2.97142 4.60872 0.224919 
3.81023 4.55957 0.229665 
5.00324 4.53391 0.247651 
2.27826 5.02463 0.242097 
2.90303 4.57166 0.200826 
2.26994 4.5476 0.247922 
4.25557 4.54882 0.195943 
3.1115 4.50878 0.196683 
2.47305 4.49929 0.196401 
4.22523 4.46319 0.240911 
0.886253 4.50878 0.195291 
0.593643 4.4951 0.247922 
1.65104 4.46935 0.247922 
0.50563 4.47879 0.24767 
0.004257 4.48109 0.214078 
0.460701 4.00259 0.238889 
1.29207 3.99682 0.247582 
1.69568 3.98279 0.196778 
4.96976 4.47667 0.246862 
4.33682 4.47972 0.246743 
4.96927 3.99682 0.247922 
2.43207 4.47682 0.247003 
1.71056 4.47682 0.247003 
2.11654 3.99276 0.232411 
3.06945 4.47765 0.245763 
2.48611 4.47722 0.247991 
2.75947 4.03326 0.240438 
3.29999 3.99584 0.248231 
1.71133 3.99686 0.247922 
2.42949 3.99064 0.204721 
-0.004936 4.03882 0.217671 
0.568924 4.00712 0.19365 
4.89989 3.91275 0.203008 
1.39417 3.91283 0.247598 
1.13882 3.92469 0.202741 
1.1461 3.58664 0.247922 
1.6824 3.44178 0.229222 
1.72272 3.52552 0.241666 
2.99808 3.89906 0.252797 
2.4594 3.92726 0.240254 
2.97307 3.41617 0.24838 
5.06676 3.38631 -0.12567 
2.25795 3.46177 0.234315 
3.20232 3.3761 0.188554 
1.64914 3.41647 0.193105 
1.24178 3.32366 0.241956 
1.65153 2.87291 0.246952 
0.525536 3.36591 0.196832 
0.594421 2.83906 0.247921 
4.34274 3.3392 0.244504 
4.93271 2.8625 0.247272 
4.93237 3.34144 0.247922 
4.27582 3.34937 0.247884 
3.3868 3.31647 0.247705 
4.28051 2.86696 0.247875 
1.71084 3.34178 0.247827 
1.7105 2.86241 0.246822 
2.43182 3.34181 0.247861 
-0.055176 3.34143 0.247922 
0.522003 2.86252 0.247265 
0.521667 3.34143 0.247922 
4.32838 2.83946 0.196423 
2.49108 2.84462 0.233757 
3.40311 2.83408 0.247921 
0.573387 2.82822 0.196251 
2.20518 2.78993 0.247051 
1.14848 2.78939 0.245277 
2.13788 2.31114 0.24147 
1.3024 2.31461 0.248047 
3.02841 2.77802 0.225639 
2.26168 2.78425 0.247314 
2.94262 2.28761 0.247314 
2.28481 2.321 0.242622 
2.22504 2.3128 0.19545 
-0.087256 2.30198 -0.103024 
1.0258 2.29524 0.229839 
1.04982 2.27207 0.196346 
4.97488 2.23021 0.242428 
4.34476 2.27099 0.194386 
4.34376 2.05001 0.245041 
0.478111 2.19571 0.237175 
-0.051865 2.21074 0.237728 
0.094345 1.73795 0.245365 
2.43106 2.23019 0.246014 
1.71084 2.16491 0.247921 
1.71079 1.7541 0.247314 
3.31333 2.23322 0.247025 
2.49271 2.22442 0.241016 
3.34014 1.75005 0.24564 
4.76996 1.75623 0.247395 
0.524429 1.75614 0.247921 
3.39568 2.21319 0.269657 
3.40434 1.68268 0.195862 
3.39833 1.73538 0.247467 
2.48682 1.7804 0.247921 
3.94144 1.68625 0.193745 
1.06485 1.66409 0.250507 
0.020988 1.72493 0.210827 
0.99881 1.23202 0.246372 
2.2589 1.67553 0.196423 
1.14491 1.66455 0.247845 
2.09028 1.23146 0.244663 
3.00945 1.73218 0.189377 
3.05726 1.21522 0.238907 
3.09833 1.66407 0.247921 
3.87189 1.66666 0.243053 
0.00412 1.1862 0.249493 
5.03392 1.71193 0.072372 
2.23587 1.248 0.197823 
3.83184 1.18712 0.247227 
2.99064 1.65114 0.246815 
2.26949 1.66459 0.247387 
2.98283 1.18665 0.24651 
3.94305 1.1591 0.196785 
2.32635 1.24301 0.243423 
1.19528 1.23168 0.242695 
2.48518 1.13825 0.19463 
1.70294 1.13483 0.240829 
0.583626 1.10686 0.192936 
-0.035019 1.08603 0.247841 
0.492981 0.777006 0.241173 
0.586128 0.603593 0.247581 
1.18272 1.08628 0.247368 
1.5648 0.603705 0.247589 
4.9769 1.0798 0.242306 
4.29131 1.07897 0.247921 
4.97364 0.604755 0.247921 
4.45871 0.604113 0.247921 
-0.036514 0.602044 0.242702 
2.46348 0.58084 0.192894 
0.551826 0.718502 0.1833 
0.438011 0.543407 0.190456 
3.97836 0.591656 0.19669 
3.40125 1.10448 0.247665 
3.38646 0.626163 0.247658 
1.56618 0.578414 0.196423 
3.10457 0.524283 0.245014 
1.90042 0.520246 0.19659 
3.10383 0.041854 0.247921 
4.06529 0.517279 0.247921 
3.16615 0.541674 0.245575 
3.15462 0.055239 0.247738 
4.41061 0.520827 0.247414 
5.01077 0.042231 0.247921 
5.01131 0.525557 0.239925 
-0.001884 0.495423 0.247894 
1.29952 0.056095 0.247658 
1.93628 0.041864 0.247921 
4.15247 0.511754 0.192848 
4.11941 0.033576 0.247791 
0.008759 0.000578 0.185871 
0.227425 0.02329 0.247288 
2.22233 5.01327 0.195264 
2.28208 3.96139 0.196546 
3.30159 2.91151 0.239277 
3.39691 2.8207 0.20256 
1.72426 2.80079 0.200344 
0.044373 2.24162 0.19405 
2.95712 2.26896 0.205582 
1.64423 2.25703 0.197937 
4.99138 2.25772 0.132187 
0.535553 2.29327 0.191154 
0.583374 2.10656 0.24052 
1.63889 2.2497 0.234512 
4.28622 2.22296 0.255032 
4.30092 1.74257 0.195766 
0.594154 1.73267 0.241123 
1.70683 1.74203 0.202312 
0.619087 1.68255 0.195686 
3.03854 1.15648 0.192822 
1.14757 1.18201 0.202847 
1.29307 1.12104 0.188755 
0.925781 5.0993 0.049123 
0.935219 4.99903 0.20329 
2.19853 4.50888 0.196313 
0.004044 3.38697 0.170331 
3.92181 3.43406 0.196424 
3.12121 3.31838 0.243623 
1.0876 2.79743 0.194096 
2.25852 2.83911 0.196857 
3.38491 2.25509 0.191189 
1.14717 1.68195 0.195396 
3.10045 0.593776 0.19659 
3.1174 -0.001522 0.04108 
3.13643 0.013942 0.064236 
4.16122 -0.001522 0.064289 
0.225868 3.92122 0.193692 
2.47277 2.22445 0.196777 
3.88161 2.24234 0.20203 
3.35889 1.10103 0.196423 
0.586113 4.51978 0.196733 
-0.076965 2.81694 0.064224 
1.86356 -0.032288 0.049404 
2.23299 5.05563 0.080339 
4.97595 4.49886 0.164212 
5.03449 3.97959 -0.114107 
4.29257 3.35559 0.195466 
4.94081 3.36995 0.133447 
4.89983 1.17271 0.202461 
1.34972 0.078899 0.201977 
3.10969 0.078277 0.203094 
-0.083823 3.98231 -0.112796 
2.93461 3.32662 0.236505 
4.99715 1.14365 -0.036762 
1.86577 0.068399 0.194298 
1.3203 0.014197 0.071735 
-0.147892 2.24737 -0.112808 
-0.12338 1.66999 -0.112968 
5.03188 0.56613 0.064251 
5.0419 5.0569 0.064286 
2.89119 5.07061 0.072434 
0.894775 5.15129 -0.12567 
-0.127272 2.82351 -0.114062 
5.0819 2.83672 -0.125671 
3.81007 5.09661 -0.113212 
2.24361 5.01734 0.055055 
5.08366 2.25936 -0.120857 
-0.039455 1.09614 -0.12039 
4.94826 1.14329 -0.005985 
-0.015182 5.07172 0.073266 
-0.036801 0.515936 -0.112295 
2.9167 5.0712 0.064252 
-0.083823 4.55989 -0.112597 
1.84137 -0.019721 -0.149614 
5.03654 4.53518 -0.113889 
5.08292 0.525858 -0.113388 
5.08204 -0.052743 -0.112575 
-0.125373 3.4021 -0.113138 
-0.048632 1.70502 -0.114785 
4.99046 1.12709 -0.036388 
-0.107501 1.099 -0.112995 
0.680579 -0.052254 -0.112423 
5.08381 3.96497 -0.120766 
4.19578 -0.052743 -0.112575 
-0.053342 -0.079452 -0.112555 
2.25174 5.12266 -0.113243 
1.83718 -0.093305 -0.1448 
2.89731 5.09346 -0.151719 
5.09352 1.69301 -0.127146 
-0.06378 5.12192 -0.12567 
5.0947 1.11561 -0.126126 
3.13033 -0.052743 -0.112801 
5.09386 5.10754 -0.112562 
5.0345 1.70342 -0.113019 
-0.058245 0.013862 -0.112913 
-0.011581 3.50061 -0.154696 
3.77724 5.09357 -0.151672 
4.98285 2.84443 -0.120078 
4.98457 3.3482 -0.151797 
-0.039627 2.89297 -0.151809 
1.29672 -0.019825 -0.112423 
4.98451 5.09332 -0.151182 
-0.026433 2.20629 -0.154697 
4.97477 2.64432 -0.154697 
4.98441 0.931894 -0.15156 
4.25517 0.015463 -0.154697 
4.44995 -0.003455 -0.151836 
4.98456 -0.003934 -0.1517 
4.55995 5.09363 -0.151843 
-0.039556 0.702501 -0.151825 
0.499022 5.08438 -0.154587 
4.9844 4.15773 -0.151559 
-0.026449 3.24189 -0.154696 
-0.039627 3.13192 -0.151809 
-0.026059 1.36969 -0.154697 
2.48295 2.8142 -0.157573 
3.847 4.58635 -0.154696 
1.6182 2.30991 -0.154697 
4.43585 4.76562 -0.154696 
4.6213 4.75478 -0.154696 
4.54339 4.7058 -0.154696 
4.53328 4.69555 -0.154696 
4.54331 4.69501 -0.154696 
4.51314 4.64613 -0.154696 
3.27823 3.18163 -0.151119 
-0.026433 3.00291 -0.154697 
3.48336 2.63459 -0.154697 
0.509296 2.25481 -0.15467 
1.61094 0.285294 -0.154697 
1.33756 1.88392 -0.152868 
0.875673 1.6805 -0.151619 
3.92163 3.91462 0.196389 
3.87337 3.90396 0.263913 
3.89153 3.42314 0.265847 
3.04086 3.50811 0.264318 
2.19663 4.53365 0.26489 
0.967751 4.58289 0.249154 
4.28541 3.99819 0.238389 
3.43277 4.03634 0.263784 
3.05138 3.92857 0.264459 
1.47987 0.564509 0.260292 
1.36435 0.099033 0.272461 
3.81023 4.55957 0.229665 
2.87741 5.02949 0.2478 
4.56449 4.54969 0.247464 
3.81023 4.55957 0.229665 
3.14764 4.54656 0.24035 
2.90303 4.57166 0.200826 
2.26994 4.5476 0.247922 
3.13431 4.48776 0.271779 
1.65104 4.46935 0.247922 
0.593643 4.4951 0.247922 
4.22523 4.46319 0.240911 
4.28541 3.99819 0.238389 
2.42949 3.99064 0.204721 
4.24205 3.91583 0.266385 
4.96718 3.89362 0.264844 
4.99676 3.41199 0.265836 
1.72272 3.52552 0.241666 
1.6824 3.44178 0.229222 
1.1461 3.58664 0.247922 
1.07917 3.4332 0.202283 
0.013138 3.40522 0.264554 
0.751068 3.43495 0.265317 
4.27582 3.34937 0.247884 
4.28051 2.86696 0.247875 
4.32838 2.83946 0.196423 
3.9443 2.805 0.202515 
0.019592 2.80596 0.26849 
1.02758 2.77097 0.245613 
4.93271 2.8625 0.247272 
4.54918 2.78201 0.266628 
5.01086 2.78994 0.264996 
2.26168 2.78425 0.247314 
0.024498 2.36898 0.247959 
2.28481 2.321 0.242622 
2.20518 2.78993 0.247051 
2.13788 2.31114 0.24147 
3.39568 2.21319 0.269657 
3.39833 1.73538 0.247467 
4.9464 1.68404 0.21904 
2.48682 1.7804 0.247921 
3.09833 1.66407 0.247921 
3.05726 1.21522 0.238907 
4.9464 1.68404 0.21904 
5.00841 1.18765 0.263939 
2.2589 1.67553 0.196423 
2.09028 1.23146 0.244663 
3.87189 1.66666 0.243053 
3.83184 1.18712 0.247227 
2.26949 1.66459 0.247387 
2.32635 1.24301 0.243423 
3.94305 1.1591 0.196785 
2.49052 1.11058 0.264759 
3.342 1.08072 0.265846 
0.583626 1.10686 0.192936 
1.70294 1.13483 0.240829 
1.39894 0.596794 0.236122 
2.49523 0.674229 0.257244 
0.492981 0.777006 0.241173 
0.438011 0.543407 0.190456 
2.40631 0.627387 0.263523 
1.60412 0.652281 0.255775 
1.39894 0.596794 0.236122 
4.06529 0.517279 0.247921 
4.11941 0.033576 0.247791 
-0.001884 0.495423 0.247894 
4.15247 0.511754 0.192848 
4.11941 0.033576 0.247791 
0.227425 0.02329 0.247288 
2.21406 5.01368 0.264875 
2.87741 5.02949 0.2478 
2.97142 4.60872 0.224919 
0.50563 4.47879 0.24767 
0.460701 4.00259 0.238889 
0.568924 4.00712 0.19365 
1.71056 4.47682 0.247003 
1.71133 3.99686 0.247922 
2.99808 3.89906 0.252797 
2.42949 3.99064 0.204721 
2.4594 3.92726 0.240254 
2.25795 3.46177 0.234315 
3.3868 3.31647 0.247705 
3.3868 3.31647 0.247705 
3.30159 2.91151 0.239277 
2.49108 2.84462 0.233757 
1.14848 2.78939 0.245277 
1.0258 2.29524 0.229839 
1.04982 2.27207 0.196346 
1.3024 2.31461 0.248047 
4.34476 2.27099 0.194386 
4.86346 2.30891 0.262421 
3.98375 2.39026 0.245621 
2.95712 2.26896 0.205582 
2.49271 2.22442 0.241016 
3.31333 2.23322 0.247025 
1.63889 2.2497 0.234512 
0.583374 2.10656 0.24052 
3.34014 1.75005 0.24564 
2.48682 1.7804 0.247921 
0.020988 1.72493 0.210827 
1.06485 1.66409 0.250507 
2.99064 1.65114 0.246815 
3.94144 1.68625 0.193745 
0.99881 1.23202 0.246372 
0.583626 1.10686 0.192936 
0.00412 1.1862 0.249493 
1.18272 1.08628 0.247368 
2.42238 1.09213 0.24987 
1.90042 0.520246 0.19659 
3.10457 0.524283 0.245014 
1.53355 5.02717 0.238908 
0.950653 5.05178 0.2641 
2.43207 4.47682 0.247003 
2.48611 4.47722 0.247991 
3.06945 4.47765 0.245763 
0.009415 3.88552 0.228883 
-0.055176 3.34143 0.247922 
0.521667 3.34143 0.247922 
3.02841 2.77802 0.225639 
2.94262 2.28761 0.247314 
5.00825 2.32595 0.234829 
1.71084 2.16491 0.247921 
2.43106 2.23019 0.246014 
-0.051865 2.21074 0.237728 
0.478111 2.19571 0.237175 
0.594154 1.73267 0.241123 
0.524429 1.75614 0.247921 
0.094345 1.73795 0.245365 
1.70683 1.74203 0.202312 
1.71079 1.7541 0.247314 
1.14491 1.66455 0.247845 
2.98283 1.18665 0.24651 
3.40125 1.10448 0.247665 
4.29131 1.07897 0.247921 
3.31601 0.588356 0.200203 
3.38646 0.626163 0.247658 
1.70294 1.13483 0.240829 
2.64493 0.627896 0.251575 
3.97836 0.591656 0.19669 
1.90042 0.520246 0.19659 
3.16615 0.541674 0.245575 
3.15462 0.055239 0.247738 
3.10383 0.041854 0.247921 
1.93628 0.041864 0.247921 
5.01077 0.042231 0.247921 
0.010666 5.02774 0.261716 
0.004257 4.48109 0.214078 
0.086411 4.54661 0.264714 
0.804184 4.59278 0.262963 
3.29999 3.99584 0.248231 
1.69568 3.98279 0.196778 
-0.004936 4.03882 0.217671 
2.75947 4.03326 0.240438 
2.97307 3.41617 0.24838 
0.525536 3.36591 0.196832 
0.594421 2.83906 0.247921 
3.69096 2.35923 0.240196 
4.28622 2.22296 0.255032 
4.34376 2.05001 0.245041 
4.30092 1.74257 0.195766 
4.76996 1.75623 0.247395 
3.94831 1.60484 0.247078 
4.81702 1.66961 0.261505 
1.19528 1.23168 0.242695 
1.5648 0.603705 0.247589 
2.27826 5.02463 0.242097 
1.13882 3.92469 0.202741 
1.29207 3.99682 0.247582 
2.11654 3.99276 0.232411 
2.28208 3.96139 0.196546 
1.65153 2.87291 0.246952 
0.586128 0.603593 0.247581 
1.8609 0.019386 0.241352 
0.852684 5.02988 0.264745 
4.33682 4.47972 0.246743 
4.96976 4.47667 0.246862 
4.96927 3.99682 0.247922 
0.144424 3.89177 0.265378 
1.05432 3.92772 0.264688 
3.93736 3.44711 0.265012 
4.93237 3.34144 0.247922 
4.34274 3.3392 0.244504 
1.24178 3.32366 0.241956 
3.12121 3.31838 0.243623 
0.522003 2.86252 0.247265 
3.40311 2.83408 0.247921 
3.9443 2.805 0.202515 
3.86822 2.80609 0.244282 
3.91085 2.37571 0.214611 
4.97488 2.23021 0.242428 
4.97364 0.604755 0.247921 
4.41061 0.520827 0.247414 
5.01131 0.525557 0.239925 
1.29952 0.056095 0.247658 
5.00324 4.53391 0.247651 
2.25795 3.46177 0.234315 
1.64914 3.41647 0.193105 
1.71084 3.34178 0.247827 
1.7105 2.86241 0.246822 
4.45871 0.604113 0.247921 
3.80312 5.05491 0.247651 
3.73968 5.02949 0.2478 
1.39417 3.91283 0.247598 
2.28208 3.96139 0.196546 
2.43182 3.34181 0.247861 
-0.035019 1.08603 0.247841 
4.9769 1.0798 0.242306 
-0.036514 0.602044 0.242702 
5.02048 5.0136 0.247212 
-0.058245 0.013862 -0.112913 
-0.039556 0.702501 -0.151825 
0.680579 -0.052254 -0.112423 
2.93461 3.32662 0.236505 
3 0 1 2
3 3 4 5
3 3 5 6
3 0 2 7
3 6 5 8
3 9 10 11
3 12 13 14
3 15 14 16
3 346 17 18
3 347 19 20
3 14 13 16
3 21 22 10
3 347 20 348
3 9 11 23
3 18 349 24
3 10 22 11
3 25 26 27
3 27 26 28
3 25 27 29
3 30 31 32
3 33 34 35
3 35 34 36
3 37 33 35
3 38 39 40
3 41 350 351
3 42 43 44
3 352 353 346
3 45 354 17
3 354 46 349
3 47 48 49
3 26 50 28
3 51 52 53
3 31 54 32
3 55 56 57
3 355 356 58
3 59 60 61
3 62 63 64
3 64 65 62
3 60 66 61
3 59 61 67
3 63 62 357
3 68 69 358
3 69 68 70
3 359 360 71
3 361 72 360
3 73 362 363
3 72 364 74
3 75 76 77
3 78 79 80
3 365 366 81
3 82 365 81
3 83 84 85
3 367 43 42
3 86 87 88
3 89 90 91
3 89 91 92
3 87 93 88
3 86 88 94
3 85 84 368
3 90 369 91
3 80 79 95
3 81 366 96
3 97 370 371
3 98 99 100
3 98 100 101
3 102 98 101
3 103 104 105
3 371 372 106
3 107 373 374
3 375 376 374
3 18 24 108
3 377 376 378
3 109 110 111
3 110 112 113
3 114 115 116
3 111 110 113
3 117 118 119
3 120 121 122
3 123 47 124
3 125 123 124
3 126 379 380
3 122 121 127
3 114 381 115
3 119 118 382
3 382 118 128
3 383 384 129
3 385 386 387
3 130 131 132
3 131 133 132
3 134 135 136
3 137 388 138
3 383 139 389
3 136 135 390
3 138 391 392
3 48 140 49
3 133 131 141
3 142 143 144
3 145 146 147
3 148 149 150
3 151 152 153
3 142 144 154
3 145 147 155
3 156 157 158
3 152 159 153
3 393 394 160
3 142 154 395
3 148 150 396
3 161 162 163
3 164 165 166
3 167 168 169
3 170 397 398
3 162 171 163
3 399 400 172
3 401 402 173
3 174 170 398
3 175 176 177
3 178 403 404
3 405 173 179
3 404 168 178
3 176 406 177
3 166 165 180
3 32 54 407
3 408 409 181
3 56 182 57
3 183 184 185
3 410 186 187
3 411 187 188
3 189 190 191
3 191 190 192
3 187 186 412
3 185 184 193
3 188 187 412
3 413 408 194
3 195 414 196
3 197 198 199
3 185 193 415
3 190 198 192
3 416 417 200
3 198 197 192
3 201 202 203
3 204 205 206
3 207 208 209
3 418 210 211
3 202 212 203
3 213 419 214
3 204 206 420
3 421 215 216
3 207 422 423
3 207 423 208
3 211 210 424
3 217 425 350
3 426 362 427
3 72 361 427
3 353 364 45
3 428 429 430
3 431 41 432
3 433 434 435
3 218 436 104
3 105 104 436
3 219 437 127
3 438 439 220
3 439 440 220
3 221 441 391
3 51 134 52
3 384 442 443
3 139 222 389
3 134 223 52
3 224 444 443
3 224 392 444
3 445 446 447
3 445 225 446
3 448 449 450
3 443 226 227
3 443 227 228
3 229 393 230
3 451 452 231
3 451 231 232
3 230 393 160
3 453 454 167
3 233 455 456
3 405 457 167
3 168 167 234
3 458 403 178
3 173 405 401
3 235 456 459
3 460 459 461
3 236 235 462
3 463 416 194
3 464 465 194
3 466 237 467
3 467 238 75
3 239 431 468
3 72 73 469
3 72 469 470
3 46 434 433
3 346 45 17
3 377 471 240
3 18 108 241
3 240 472 473
3 241 438 379
3 437 242 127
3 243 441 221
3 440 388 474
3 388 244 138
3 226 442 389
3 475 137 448
3 446 225 476
3 224 477 478
3 479 480 222
3 245 450 453
3 227 226 481
3 226 480 482
3 483 479 455
3 477 484 485
3 401 454 485
3 484 486 401
3 403 157 169
3 458 157 403
3 167 457 234
3 486 246 235
3 234 457 487
3 235 460 462
3 178 488 489
3 488 490 491
3 492 200 417
3 493 413 194
3 194 247 493
3 196 421 39
3 213 494 419
3 495 355 58
3 496 247 497
3 248 498 499
3 249 214 497
3 250 500 214
3 501 502 503
3 467 75 351
3 504 75 238
3 71 74 352
3 45 470 505
3 41 506 432
3 429 507 251
3 505 508 46
3 433 509 46
3 107 24 509
3 376 377 510
3 243 511 129
3 226 443 442
3 245 512 448
3 448 252 449
3 245 448 450
3 253 156 513
3 514 515 516
3 515 399 516
3 458 517 518
3 517 458 178
3 486 235 519
3 181 487 179
3 254 234 409
3 414 195 460
3 200 492 520
3 200 39 38
3 490 247 496
3 363 521 239
3 239 350 41
3 76 255 430
3 364 72 45
3 522 506 523
3 506 524 432
3 434 525 435
3 472 256 383
3 526 511 221
3 384 243 129
3 244 388 440
3 243 384 443
3 459 460 235
3 527 195 196
3 257 528 40
3 466 425 258
3 258 425 217
3 529 504 238
3 427 362 72
3 502 255 503
3 255 504 503
3 71 530 531
3 77 506 41
3 73 468 434
3 469 73 434
3 259 532 260
3 430 522 523
3 353 45 346
3 46 45 505
3 352 97 532
3 251 533 534
3 522 251 534
3 251 471 533
3 349 46 24
3 346 18 241
3 372 535 241
3 510 377 240
3 261 262 372
3 536 261 537
3 510 538 376
3 539 438 108
3 510 473 540
3 438 220 541
3 220 542 541
3 220 474 543
3 543 542 220
3 542 544 447
3 243 443 441
3 544 542 543
3 222 226 389
3 544 445 447
3 545 225 445
3 253 245 156
3 449 252 454
3 252 478 454
3 245 157 156
3 445 513 515
3 226 233 481
3 224 228 484
3 477 224 484
3 234 178 168
3 178 263 400
3 409 234 181
3 492 236 462
3 408 181 194
3 527 460 195
3 490 254 409
3 194 181 463
3 200 194 416
3 39 527 196
3 520 39 200
3 247 490 493
3 39 264 40
3 200 38 464
3 494 490 496
3 419 494 496
3 546 547 548
3 39 549 264
3 498 265 465
3 247 265 497
3 467 237 238
3 217 350 239
3 75 41 351
3 239 73 363
3 71 259 359
3 550 359 259
3 255 76 75
3 71 72 74
3 255 502 428
3 239 41 431
3 73 239 468
3 259 71 531
3 430 255 428
3 530 71 352
3 45 46 354
3 370 97 346
3 98 102 551
3 251 266 471
3 535 346 241
3 24 46 509
3 522 534 376
3 376 552 374
3 261 372 241
3 510 240 473
3 552 376 538
3 261 241 379
3 539 108 24
3 267 539 24
3 261 379 126
3 261 126 537
3 553 221 554
3 510 540 129
3 243 221 511
3 221 244 554
3 244 440 554
3 542 126 380
3 511 510 129
3 448 474 475
3 244 391 138
3 245 544 512
3 224 138 392
3 252 224 478
3 480 226 222
3 445 515 514
3 246 484 481
3 484 401 485
3 455 482 483
3 246 233 456
3 484 246 486
3 167 401 405
3 173 181 179
3 263 268 400
3 178 254 488
3 488 254 490
3 490 494 491
3 247 194 465
3 555 213 547
3 546 555 547
3 269 464 528
3 216 270 549
3 556 557 360
3 521 217 239
3 504 255 75
3 362 73 72
3 72 71 360
3 77 41 75
3 470 45 72
3 259 531 532
3 429 251 430
3 524 506 525
3 434 524 525
3 508 434 46
3 522 430 251
3 525 506 558
3 352 346 97
3 522 558 506
3 98 551 559
3 375 522 376
3 374 552 107
3 24 107 560
3 107 552 553
3 241 108 438
3 107 553 560
3 261 536 262
3 24 560 267
3 552 526 221
3 553 552 221
3 540 383 129
3 385 126 386
3 126 542 386
3 391 244 221
3 220 440 474
3 137 138 252
3 448 137 252
3 544 245 253
3 224 443 228
3 445 544 253
3 224 252 138
3 513 445 253
3 245 453 157
3 233 226 482
3 479 271 272
3 172 545 399
3 458 158 157
3 399 515 518
3 482 455 233
3 454 401 167
3 453 167 157
3 481 233 246
3 515 458 518
3 169 157 167
3 456 235 246
3 519 235 236
3 519 236 492
3 402 519 492
3 402 492 463
3 487 181 234
3 178 234 254
3 173 402 463
3 263 178 489
3 181 173 463
3 460 461 561
3 489 562 263
3 555 494 213
3 563 421 196
3 194 200 464
3 546 548 273
3 464 269 499
3 247 465 265
3 479 272 455
3 269 528 257
3 274 556 564
3 260 532 97
3 262 536 385
3 275 521 426
3 276 529 238
3 564 550 274
3 256 277 383
3 497 265 249
3 278 385 387
3 557 556 279
3 225 545 172
3 172 400 268
3 273 548 500
3 280 217 521
3 471 266 240
3 281 387 476
3 225 281 476
3 222 271 479
3 502 266 507
3 383 277 139
3 461 282 561
3 283 263 562
3 562 546 273
3 251 507 266
3 270 264 549
3 529 284 501
3 278 387 281
3 455 282 461
3 563 561 285
3 264 257 40
3 286 426 557
3 262 106 372
3 563 285 421
3 264 270 257
3 258 237 466
3 266 502 287
3 371 260 97
3 269 288 499
3 265 498 248
3 215 270 216
3 288 248 499
3 550 259 289
3 276 284 529
3 501 284 502
3 279 556 274
3 258 217 280
3 562 273 290
3 291 273 500
3 250 291 500
3 292 472 240
3 472 277 256
3 455 293 282
3 290 294 562
3 561 295 285
3 296 270 215
3 237 276 238
3 272 293 455
3 294 283 562
3 297 371 106
3 283 268 263
3 214 298 250
3 299 296 215
3 298 214 249
3 297 260 371
3 521 300 280
3 270 301 257
3 302 275 426
3 303 172 268
3 502 284 304
3 303 268 305
3 269 257 301
3 139 271 222
3 306 298 249
3 276 237 258
3 300 521 275
3 307 274 550
3 268 294 305
3 306 248 288
3 274 307 279
3 280 300 258
3 304 287 502
3 308 225 172
3 421 309 215
3 215 309 299
3 286 302 426
3 266 310 240
3 303 308 172
3 265 306 249
3 292 240 310
3 295 561 282
3 298 291 250
3 289 259 260
3 300 276 258
3 311 302 286
3 311 286 557
3 472 292 277
3 312 262 385
3 265 248 306
3 302 300 275
3 311 557 279
3 313 262 312
3 139 277 314
3 290 273 291
3 307 550 289
3 262 313 106
3 278 312 385
3 281 225 308
3 305 294 290
3 421 285 309
3 288 269 301
3 315 270 296
3 315 301 270
3 276 304 284
3 316 307 289
3 266 287 310
3 277 292 314
3 314 317 139
3 318 281 308
3 271 139 293
3 271 293 272
3 305 290 319
3 295 282 285
3 319 290 291
3 298 306 320
3 296 299 309
3 321 291 298
3 321 322 291
3 307 323 279
3 307 316 323
3 139 317 293
3 282 324 285
3 285 324 309
3 322 319 291
3 325 304 276
3 316 289 326
3 260 297 313
3 313 297 106
3 310 327 292
3 292 327 328
3 312 278 318
3 318 278 281
3 308 303 305
3 305 319 308
3 326 289 260
3 326 260 313
3 292 328 314
3 313 312 318
3 321 298 320
3 323 311 279
3 293 329 282
3 276 330 325
3 276 300 330
3 302 311 331
3 325 332 310
3 325 330 332
3 300 302 330
3 311 333 331
3 311 323 333
3 323 334 333
3 323 326 334
3 323 316 326
3 304 325 287
3 302 331 330
3 287 325 310
3 333 334 335
3 333 335 336
3 335 337 336
3 335 334 337
3 336 337 338
3 337 334 338
3 334 326 338
3 336 338 333
3 338 331 333
3 330 331 339
3 326 313 338
3 327 310 332
3 331 338 339
3 328 327 340
3 339 338 341
3 328 340 314
3 332 340 327
3 330 339 341
3 338 313 341
3 314 340 342
3 330 341 343
3 332 330 343
3 314 342 317
3 341 313 318
3 340 332 342
3 332 343 344
3 342 332 345
3 345 332 344
3 341 318 308
3 341 308 319
3 317 342 329
3 293 317 329
3 345 344 324
3 344 343 324
3 342 345 324
3 320 341 319
3 329 342 282
3 282 342 324
3 320 319 321
3 341 320 343
3 321 319 322
3 288 343 306
3 324 315 296
3 565 566 567
3 324 343 315
3 343 288 301
3 343 320 306
3 343 301 315
3 568 122 127
3 242 568 127
3 268 283 294
