ply
format ascii 1.0
comment VCGLIB generated
comment TextureFile Dungeons_Texture_01.png
element vertex 21
property float x
property float y
property float z
property float nx
property float ny
property float nz
property uchar red
property uchar green
property uchar blue
property uchar alpha
property float texture_u
property float texture_v
element face 38
property list uchar int vertex_indices
end_header
0.307379 -0.10058 0.090789 0.8650991 -0.4862754 0.1230443 120 116 110 255 0.211923 0.303946
0.307379 -0.05029 0.18158 0.3366801 -0.2220429 0.9150648 120 116 110 255 0.211923 0.303946
0.153688 -0.10058 0.18158 0.06018057 -0.8399895 0.539255 120 116 110 255 0.211923 0.303946
0.307379 0.10058 -0.090791 0.751081 0.6515098 -0.1068283 120 116 110 255 0.211923 0.303946
0.307379 0.05029 -0.181581 0.6023307 0.3972406 -0.6923854 120 116 110 255 0.211923 0.303946
0.153688 0.10058 -0.181581 0.06129014 0.6327549 -0.7719228 120 116 110 255 0.211923 0.303946
-0.307377 0.10058 0.090789 -0.7510814 0.6515096 0.1068272 120 116 110 255 0.211923 0.303946
-0.307377 0.05029 0.18158 -0.6023327 0.3972412 0.6923834 120 116 110 255 0.211923 0.303946
-0.153688 0.10058 0.18158 -0.06129105 0.6327555 0.7719222 120 116 110 255 0.211923 0.303946
-0.307377 -0.10058 0.18158 -0.4850713 -0.4850713 0.7276069 120 116 110 255 0.211923 0.303946
0.106535 -0.01797 0.18158 -0.01458436 0.06997417 0.9974422 120 116 110 255 0.211923 0.303946
0.038864 0.10058 0.18158 0.2415938 0.7303451 0.6389276 120 116 110 255 0.211923 0.303946
-0.307377 -0.10058 -0.090791 -0.8650995 -0.4862745 -0.1230452 120 116 110 255 0.211923 0.303946
-0.307377 -0.05029 -0.181581 -0.6023319 -0.39724 -0.6923848 120 116 110 255 0.211923 0.303946
-0.153688 -0.10058 -0.181581 -0.0531167 -0.7413856 -0.6689739 120 116 110 255 0.211923 0.303946
0.307379 -0.10058 -0.181581 0.5773503 -0.5773503 -0.5773503 120 116 110 255 0.211923 0.303946
0.307379 0.10058 0.18158 0.6666667 0.6666667 0.3333333 120 116 110 255 0.211923 0.303946
0.094454 0.10058 0.00577 -0.01051471 0.9996729 0.02331426 120 116 110 255 0.211923 0.303946
-0.307377 0.10058 -0.181581 -0.5773503 0.5773503 -0.5773503 120 116 110 255 0.211923 0.303946
0.150938 0.10058 0.18158 -0.2474297 0.5698396 0.7836207 120 116 110 255 0.211923 0.303946
0.102421 0.084808 0.152391 -0.06352845 0.7809442 0.6213616 120 116 110 255 0.211923 0.303946
3 0 1 2 
3 3 4 5 
3 6 7 8 
3 10 11 8 
3 12 13 14 
3 3 16 0 
3 17 5 18 
3 15 14 5 
3 2 9 14 
3 6 18 12 
3 10 2 1 
3 17 16 3 
3 19 17 20 
3 20 10 19 
3 20 17 11 
3 11 10 20 
3 7 9 8 
3 9 2 10 
3 8 9 10 
3 16 1 0 
3 0 15 3 
3 15 4 3 
3 18 6 17 
3 6 8 17 
3 8 11 17 
3 13 18 14 
3 18 5 14 
3 5 4 15 
3 9 12 14 
3 14 15 2 
3 15 0 2 
3 18 13 12 
3 12 9 6 
3 9 7 6 
3 16 19 1 
3 19 10 1 
3 3 5 17 
3 17 19 16 
