ply
format ascii 1.0
comment INFO-3111 Flatenator generated
comment TextureFile Dungeons_Texture_01.png
element vertex 21
property float x
property float y
property float z
element face 38
property list uchar int vertex_indices
end_header
0.307379 -0.10058 0.090789 
0.307379 -0.05029 0.18158 
0.153688 -0.10058 0.18158 
0.307379 0.10058 -0.090791 
0.307379 0.05029 -0.181581 
0.153688 0.10058 -0.181581 
-0.307377 0.10058 0.090789 
-0.307377 0.05029 0.18158 
-0.153688 0.10058 0.18158 
-0.307377 -0.10058 0.18158 
0.106535 -0.01797 0.18158 
0.038864 0.10058 0.18158 
-0.307377 -0.10058 -0.090791 
-0.307377 -0.05029 -0.181581 
-0.153688 -0.10058 -0.181581 
0.307379 -0.10058 -0.181581 
0.307379 0.10058 0.18158 
0.094454 0.10058 0.00577 
-0.307377 0.10058 -0.181581 
0.150938 0.10058 0.18158 
0.102421 0.084808 0.152391 
3 0 1 2
3 3 4 5
3 6 7 8
3 10 11 8
3 12 13 14
3 3 16 0
3 17 5 18
3 15 14 5
3 2 9 14
3 6 18 12
3 10 2 1
3 17 16 3
3 19 17 20
3 20 10 19
3 20 17 11
3 11 10 20
3 7 9 8
3 9 2 10
3 8 9 10
3 16 1 0
3 0 15 3
3 15 4 3
3 18 6 17
3 6 8 17
3 8 11 17
3 13 18 14
3 18 5 14
3 5 4 15
3 9 12 14
3 14 15 2
3 15 0 2
3 18 13 12
3 12 9 6
3 9 7 6
3 16 19 1
3 19 10 1
3 3 5 17
3 17 19 16
