ply
format ascii 1.0
comment INFO-3111 Flatenator generated
comment TextureFile Dungeons_Texture_01.png
element vertex 419
property float x
property float y
property float z
property float nx
property float ny
property float nz
property float texture_u
property float texture_v
element face 498
property list uchar int vertex_indices
end_header
0.423328 5.02179 -0.555924 0.203132 0.620654 -0.757315 0.223097 0.29483 
0.53001 4.85813 -0.555875 0.918462 0.187464 -0.348261 0.223097 0.29483 
0.53001 4.58457 -0.55584 0.447224 -0.000203929 -0.894422 0.223097 0.29483 
0.025448 4.68551 -0.555592 -0.231581 -0.0268881 -0.972444 0.223097 0.29483 
-0.013264 5.01983 -0.555581 -0.852549 0.272854 -0.445769 0.223097 0.29483 
-0.009747 4.62117 -0.518525 -0.973815 -0.0295437 -0.225415 0.223097 0.29483 
0.009987 4.5825 -0.517163 -0.343527 -0.781791 -0.520377 0.199099 0.277996 
-0.012936 4.00858 -0.55523 -0.840911 0.0816472 -0.534979 0.223097 0.29483 
0.53001 3.99485 -0.555886 0.714975 -0.0229501 -0.698773 0.223097 0.29483 
0.376862 3.56573 -0.554208 -0.00207387 -0.0026709 -0.999994 0.223097 0.29483 
-0.013252 3.75708 -0.555654 -0.550994 -0.156341 -0.819734 0.223097 0.29483 
0.089767 3.60358 -0.554357 -0.401623 -0.276924 -0.872933 0.223097 0.29483 
0.53001 3.6022 -0.555875 0.723826 -1.92719e-05 -0.689983 0.223097 0.29483 
-0.012947 2.9904 -0.555239 -0.698234 0.000969698 -0.715869 0.223097 0.29483 
0.53001 2.97671 -0.555887 0.707062 0.00108857 -0.707151 0.223097 0.29483 
-0.013264 2.54292 -0.555536 -0.698113 0.000740728 -0.715987 0.223097 0.29483 
0.53001 2.54271 -0.555849 0.706903 -6.18794e-05 -0.70731 0.223097 0.29483 
0.53001 1.97426 -0.555849 0.446732 -0.000262085 -0.894668 0.223097 0.29483 
0.53001 1.54026 -0.555887 0.894611 7.20125e-05 -0.446846 0.223097 0.29483 
-0.012936 1.52653 -0.555231 -0.449111 -0.000588959 -0.893476 0.223097 0.29483 
-0.013264 1.97405 -0.555532 -0.895735 -0.00198587 -0.444583 0.223097 0.29483 
-0.013264 0.949754 -0.555414 -0.575287 -0.0835632 -0.813672 0.199079 0.303629 
0.53001 0.950066 -0.555841 0.706829 7.86086e-05 -0.707385 0.199079 0.303629 
0.53001 0.635216 -0.555876 0.684586 -0.0940228 -0.722843 0.199079 0.303629 
0.509007 0.530238 -0.524874 -0.0547815 -0.140169 -0.988611 0.199079 0.303629 
-0.001217 0.51598 -0.544401 -0.683796 -0.0374919 -0.72871 0.199079 0.303629 
0.479225 4.00858 -0.396153 0.511656 0.772021 -0.377083 0.199099 0.277996 
0.529835 1.97446 -0.360842 1 -0.000300904 0.000479904 0.223097 0.29483 
-0.013264 3.56038 -0.378537 -0.985096 -0.109307 -0.132805 0.223097 0.29483 
0.054935 2.54094 -0.37723 -0.309803 -0.749695 -0.58479 0.199099 0.277997 
-0.013264 1.97476 -0.378531 -0.235827 0.946087 -0.222046 0.199099 0.277997 
-0.012245 1.63864 -0.445585 -0.999998 -0.00194215 0.00073626 0.223097 0.29483 
0.054935 0.957682 -0.377302 -0.377602 0.714094 -0.589479 0.199099 0.277997 
0.477703 0.957722 -0.359865 0.951482 0.106949 -0.288519 0.199099 0.277997 
0.461079 4.57696 -0.377374 0.142908 -0.81609 -0.559977 0.199099 0.277996 
0.055477 4.53881 -0.357675 -0.770665 0.167316 -0.614883 0.199099 0.277996 
0.055817 3.03287 -0.356088 -0.642981 0.272996 -0.715576 0.199099 0.277997 
0.504055 3.5786 -0.114549 0.99971 -0.0229008 -0.00749849 0.223097 0.29483 
0.53001 2.54264 0.164366 0.999907 -0.0079461 0.0110425 0.223097 0.29483 
0.529667 0.508344 -0.360865 0.305115 -0.948555 -0.0845486 0.199099 0.277997 
0.477638 0.506884 -0.359831 0.481407 -0.820142 -0.309215 0.199099 0.277997 
0.004078 5.02629 0.028598 -0.369042 0.905678 -0.208699 0.223097 0.29483 
-0.012833 4.51767 -0.395539 -0.43979 -1.59632e-05 -0.898101 0.199079 0.303629 
0.529243 4.5176 -0.395539 0.719226 -0.000192621 -0.694777 0.199079 0.303629 
0.529125 4.07694 -0.395539 0.833415 0.0124666 -0.552507 0.199079 0.303629 
-0.012817 4.07687 -0.395539 -0.886106 -0.0147637 -0.463247 0.199079 0.303629 
0.055733 4.05805 -0.357434 -0.75113 -0.200036 -0.629119 0.199099 0.277996 
0.529259 3.50011 -0.395539 0.707818 -0.0665284 -0.703255 0.199079 0.303629 
0.309132 3.05425 -0.395539 0.0336006 -0.0674578 -0.997156 0.199079 0.303629 
-0.012829 3.50019 -0.395539 -0.715451 -0.0498276 -0.696884 0.199079 0.303629 
0.497902 3.10406 -0.357614 0.706106 -0.122685 -0.697397 0.199079 0.303629 
0.011028 3.05602 -0.358274 -0.722237 -0.0962567 -0.684915 0.199079 0.303629 
0.444523 2.48079 -0.39554 0.349341 -0.653881 -0.671119 0.199099 0.277997 
-0.012833 2.48197 -0.39554 -0.446699 -3.9861e-06 -0.894684 0.199079 0.303629 
0.376682 2.03448 -0.39554 0.0744553 -0.0113174 -0.99716 0.199079 0.303629 
0.529251 2.48192 -0.39554 0.344481 0.93811 -0.0358059 0.199099 0.277997 
0.53001 2.18753 -0.365896 0.747997 -0.0446807 -0.662197 0.199079 0.303629 
0.47863 2.04677 -0.362139 0.748796 -0.483436 -0.453424 0.199099 0.277997 
-0.012829 2.03372 -0.39554 -0.893396 -3.99758e-06 -0.449271 0.199079 0.303629 
-0.014153 1.52653 -0.004454 -0.889778 2.26179e-06 -0.456393 0.223097 0.29483 
0.477406 1.52412 -0.359739 0.466306 -0.843206 -0.26751 0.199099 0.277997 
0.055752 1.47639 -0.357389 -0.517545 0.543933 -0.660518 0.199099 0.277997 
0.343346 1.46472 -0.39554 0.0773951 0.0322313 -0.996479 0.223097 0.29483 
0.477882 1.46719 -0.363264 0.726782 0.131651 -0.674133 0.223097 0.29483 
0.529255 1.01831 -0.39554 0.719278 0.0710782 -0.691077 0.223097 0.29483 
-0.012817 1.46542 -0.39554 -0.885855 -0.0155433 -0.463703 0.223097 0.29483 
-0.012829 1.01825 -0.39554 -0.446702 1.19874e-05 -0.894683 0.223097 0.29483 
0.055614 0.466044 -0.357573 -0.597588 -0.331052 -0.73027 0.199099 0.277997 
-0.012817 0.441093 -0.39554 -0.705537 0.000236227 -0.708673 0.199079 0.303629 
0.529129 0.441004 -0.39554 0.557611 -0.0167263 -0.829934 0.199079 0.303629 
-0.012901 0.190212 -0.39554 -0.703022 -0.0123282 -0.711061 0.199079 0.303629 
0.376854 0 -0.38302 0.00771016 -0.0310375 -0.999488 0.199079 0.303629 
0.053623 0.002906 -0.341738 -0.455052 -0.738594 -0.497399 0.199099 0.277997 
0.529728 0 -0.383051 0.707097 -0.0190575 -0.70686 0.199079 0.303629 
0.007977 3.99789 -0.292336 -0.760975 0.647536 0.0401825 0.199099 0.277996 
0.304478 3.53119 -0.357156 0.23283 -0.59969 -0.765612 0.199099 0.277997 
0.055317 3.52833 -0.358045 -0.444776 0.594258 -0.670099 0.199099 0.277997 
0.457142 0.466118 -0.357996 0.377787 0.65087 -0.658518 0.199099 0.277997 
0.447048 3.01643 -0.350992 0.784738 -0.113837 -0.609285 0.199099 0.277997 
0.055637 2.02146 -0.357668 -0.238195 -0.773548 -0.587271 0.199099 0.277997 
0.53001 1.46557 -0.034357 0.999594 -0.00170691 -0.0284412 0.223097 0.29483 
0.529667 0 0.063227 0.999996 -0.00225072 0.00201059 0.199079 0.303629 
0.530006 3.05285 -0.187506 0.996928 -0.0317964 -0.0715748 0.199079 0.303629 
-0.013927 9.6e-05 -0.006723 -0.27224 -0.960175 -0.0628469 0.199099 0.277997 
0.455994 4.5397 -0.16652 0.944921 0.327004 0.0138467 0.199099 0.277996 
0.459885 3.55207 0.146094 0.991651 0.124952 -0.0318796 0.199099 0.277997 
-0.014645 3.05279 -0.007925 -0.885571 -0.0238484 -0.463891 0.199079 0.303629 
-0.01395 2.03367 -0.006693 -0.124595 -0.990667 -0.0552755 0.199099 0.277997 
0.53001 0.951997 0.085207 1 -0.000868157 0.000220144 0.199079 0.303629 
-0.014332 4.07093 -0.007855 -0.098511 -0.954662 -0.280919 0.199099 0.277996 
0.477852 0.449706 0.130064 0.887907 0.459833 -0.0132461 0.199099 0.277997 
0.529488 3.50024 -0.00879 0.999999 0.00133395 -0.000124562 0.199079 0.303629 
0.529507 2.9904 -0.244684 0.294369 0.955621 -0.0116374 0.199099 0.277997 
-0.01395 2.48198 -0.006697 -0.735093 0.0149025 -0.677802 0.199079 0.303629 
0.513561 5.02614 0.334567 0.673281 0.738872 0.0275823 0.223097 0.29483 
0.052361 4.05758 0.06824 -0.488609 -0.544227 -0.681967 0.199099 0.277996 
0.002468 3.89417 -0.027387 -0.948849 0.212612 -0.233411 0.223097 0.29483 
-0.014591 3.56042 -0.00467 -0.717188 0.0497783 -0.6951 0.223097 0.29483 
0.052273 3.55262 0.068114 -0.71557 -0.223729 -0.661744 0.199099 0.277997 
-0.027737 2.9904 0.010927 -0.270065 0.941992 -0.199288 0.199099 0.277997 
0.052296 2.02085 0.068213 -0.641651 -0.022582 -0.766664 0.199099 0.277997 
0.529495 1.52653 0.147455 0.103966 -0.994562 -0.0061684 0.199099 0.277997 
-0.014595 0.95148 -0.004671 -0.180906 0.971546 -0.152881 0.199099 0.277997 
0.529495 4.00858 0.147456 0.999379 -0.0225001 -0.0271136 0.223097 0.29483 
0.461571 2.54106 0.502787 0.356785 -0.706617 0.611062 0.199099 0.277997 
0.460007 1.47746 0.126692 0.894512 0.44703 -0.003533 0.199099 0.277997 
-0.014248 0.508344 -0.004496 -0.714759 -0.0134504 -0.699241 0.199079 0.303629 
0.052395 0.466966 0.068262 -0.418521 0.158336 -0.894299 0.199099 0.277997 
0.052387 0.994358 0.068262 -0.795854 -0.435134 -0.421041 0.199099 0.277997 
0.460407 4.54101 0.282786 0.973619 -0.227641 0.0156946 0.199099 0.277996 
-0.029289 4.51783 0.011024 -0.333033 0.807916 -0.48617 0.199099 0.277996 
0.478092 2.03298 0.479605 0.269969 -0.918904 0.287632 0.199099 0.277997 
0.477722 1.97676 -0.024237 0.794705 0.600718 0.0870746 0.199099 0.277997 
-0.030399 1.46568 0.010279 -0.0427821 0.953386 -0.298704 0.199099 0.277997 
-0.013939 1.01828 -0.006712 -0.891386 0.000356134 -0.453245 0.223097 0.29483 
0.517372 4.4987 -0.052506 0.518552 0.854956 0.0124022 0.199099 0.277996 
0.458965 3.00777 0.480688 0.6387 0.207277 0.741012 0.199099 0.277997 
0.031708 2.52529 0.079725 -0.682429 -0.290755 -0.670636 0.199099 0.277997 
-0.014534 0.44682 -0.008005 -0.21644 0.972376 -0.0873972 0.199099 0.277997 
0.52953 1.01818 -0.128405 0.674937 -0.736718 0.041318 0.199099 0.277997 
0.529465 4.58464 0.283301 0.999681 -0.00735211 0.0241512 0.223097 0.29483 
0.529369 2.48205 0.554224 0.831923 0.000314133 0.554892 0.199079 0.303629 
-0.013935 3.50013 -0.006715 -0.353647 0.910209 -0.21553 0.199099 0.277997 
0.53001 3.05255 0.554865 0.707135 0.00178542 0.707076 0.199079 0.303629 
0.052273 3.03074 0.06814 -0.444671 -0.541218 -0.713688 0.199099 0.277997 
0.529377 2.0337 -0.008768 0.323457 -0.943957 -0.0657297 0.199099 0.277997 
0.53001 1.97426 0.554865 0.894403 -0.00173214 0.447259 0.223097 0.29483 
0.052444 1.47673 0.068487 -0.622617 0.217993 -0.75155 0.199099 0.277997 
0.53001 0.441717 0.554865 0.918541 -0.0307375 0.394128 0.199079 0.303629 
0.029915 4.5746 0.064712 -0.470425 -0.675745 -0.567511 0.199099 0.277996 
-0.014591 4.58316 -0.00467 -0.147199 -0.988724 -0.027516 0.199099 0.277996 
-0.02808 1.97497 0.01029 -0.308205 0.906048 -0.289977 0.199099 0.277997 
-0.028088 2.54196 0.010271 -0.0932008 -0.986513 -0.134556 0.199099 0.277997 
0.499962 1.02884 0.18141 0.55578 -0.830105 0.0450967 0.199099 0.277997 
-0.464573 5.02106 0.049956 -0.393115 0.488225 -0.779164 0.223097 0.29483 
-0.530006 4.58467 0.011729 -0.868177 0.107866 -0.484389 0.223097 0.29483 
-0.305431 4.56241 0.08422 -0.685511 -0.224987 -0.692427 0.199099 0.277996 
-0.360542 4.42621 0.035304 -0.657305 0.475871 -0.584378 0.199099 0.277996 
-0.361858 4.07364 0.011603 -0.899529 0.0331171 -0.435604 0.199079 0.303629 
-0.050137 3.92858 0.026458 -0.23503 0.127745 -0.963557 0.223097 0.29483 
-0.530006 3.89647 0.011691 -0.84049 0.169826 -0.514525 0.223097 0.29483 
-0.530006 3.56096 0.011718 -0.44798 0.0363005 -0.893306 0.223097 0.29483 
-0.400822 4.00858 0.012084 -0.402581 0.466652 -0.787505 0.223097 0.29483 
-0.359657 3.50024 0.012225 -0.726182 0.00380313 -0.687492 0.199079 0.303629 
-0.361408 3.05328 0.011602 -0.727214 0.00234652 -0.686407 0.199079 0.303629 
-0.416897 2.98954 0.013586 -0.337608 0.0894031 -0.937032 0.223097 0.29483 
-0.530006 2.54282 0.011717 -0.509346 0.0531143 -0.858922 0.223097 0.29483 
-0.529572 2.89243 0.08581 -0.958742 0.0599478 -0.277886 0.223097 0.29483 
-0.359638 2.03361 0.012213 -0.700998 0.0353844 -0.712284 0.199079 0.303629 
-0.334274 2.46843 0.028608 -0.676838 0.0671231 -0.733066 0.199079 0.303629 
-0.303959 1.97641 0.063814 -0.158157 0.190329 -0.968897 0.223097 0.29483 
-0.529465 1.52653 0.012251 -0.618346 0.113491 -0.777668 0.223097 0.29483 
-0.522461 1.9441 0.087217 -0.744951 0.129967 -0.654337 0.223097 0.29483 
-0.361401 1.46517 0.011602 -0.708511 -0.00375273 -0.70569 0.223097 0.29483 
-0.359653 1.01819 0.012224 -0.730678 -0.0270504 -0.682186 0.223097 0.29483 
-0.530006 0.949964 0.011728 -0.335245 -0.00302525 -0.942126 0.199079 0.303629 
-0.439808 0.537752 0.012037 -0.349262 -0.158449 -0.923531 0.199079 0.303629 
-0.530006 0.73345 0.01169 -0.897107 -0.124069 -0.424035 0.199079 0.303629 
-0.361858 0.44431 0.011602 -0.485482 -0.0015687 -0.874245 0.199079 0.303629 
-0.361595 0.012806 0.011602 -0.899802 -0.00239731 -0.436292 0.199079 0.303629 
-0.303883 4.01031 0.063903 -0.455364 0.14503 -0.878414 0.199099 0.277996 
0.53001 3.56091 0.1986 0.999613 -0.0020393 -0.0277395 0.223097 0.29483 
-0.317394 2.48109 0.085119 -0.386049 0.859053 -0.336147 0.199099 0.277997 
-0.303867 1.52468 0.063921 -0.723423 -0.261659 -0.6389 0.199099 0.277997 
-0.319496 0.957705 0.086637 -0.736728 0.440942 -0.512642 0.199099 0.277997 
-0.319912 3.56006 0.111266 -0.739278 -0.649583 -0.177511 0.199099 0.277997 
-0.307934 2.53119 0.076525 -0.245593 -0.917215 -0.31369 0.199099 0.277997 
0.477844 0.507034 0.181589 0.561702 -0.827218 0.0141376 0.199099 0.277997 
-0.305405 3.00799 0.084146 -0.267329 0.887568 -0.375177 0.199099 0.277997 
-0.529533 2.9904 0.266661 -0.728376 0.602529 -0.326232 0.199079 0.303629 
-0.359589 2.48173 0.164389 -0.997698 0.0203689 -0.0646866 0.199079 0.303629 
0.53001 4.07623 0.554866 0.480894 -0.770909 0.41766 0.199099 0.277996 
0.477676 4.01067 0.479468 0.334343 0.907677 0.253647 0.199099 0.277996 
-0.527702 4.00491 0.419051 -0.860756 0.488133 0.144308 0.223097 0.29483 
-0.530006 2.54253 0.454206 -0.0236403 -0.999643 0.0124681 0.199099 0.277997 
-0.530006 1.97415 0.554754 -0.0551956 0.998409 -0.0115277 0.199099 0.277997 
-0.529747 0.508344 0.266665 -0.983491 -0.136146 -0.119204 0.199079 0.303629 
0.529552 0.508344 0.554411 0.894419 -0.00132554 0.447228 0.199079 0.303629 
-0.530006 5.01989 0.554748 -0.649377 0.703545 0.288675 0.223097 0.29483 
-0.530006 4.58467 0.554744 -0.447311 -4.12401e-06 0.894378 0.223097 0.29483 
0.494667 4.581 0.517734 0.415439 -0.888206 0.196213 0.199099 0.277996 
-0.361858 4.07364 0.55487 -0.631226 -0.36828 0.682586 0.199099 0.277996 
-0.530006 0.949964 0.554743 -0.832 -0.000824105 0.554776 0.199079 0.303629 
-0.304077 0.507438 0.502729 -0.299554 -0.857221 0.418856 0.199099 0.277997 
-0.361858 0.44431 0.554869 -0.555618 -0.00428989 0.831427 0.199079 0.303629 
-0.359715 0 0.554338 -0.0129251 -0.999884 -0.00807989 0.199099 0.277997 
-0.359715 4.51795 0.554339 -0.446699 0.850818 0.276711 0.199099 0.277996 
-0.303913 1.52465 0.502447 -0.233876 -0.825698 0.513347 0.199099 0.277997 
-0.303524 1.46692 0.503031 -0.522535 0.791249 0.31762 0.199099 0.277997 
0.455795 0.976714 0.14604 0.91512 0.403158 0.00448714 0.199099 0.277997 
0.527512 0.032571 0.41905 0.989266 -0.0514403 0.13677 0.199079 0.303629 
-0.400822 4.00858 0.554385 -0.218321 0.946205 0.238813 0.199099 0.277996 
0.529362 3.50024 0.554217 0.70716 0.00204696 0.70705 0.199079 0.303629 
0.529522 4.00858 0.453719 0.0546683 0.998077 0.0292122 0.199099 0.277996 
-0.305592 3.00803 0.481768 -0.690938 -0.0811036 0.71835 0.199099 0.277997 
0.529369 2.9904 0.554224 0.0810659 0.98423 0.157224 0.199099 0.277997 
-0.304108 2.54133 0.502867 -0.427679 -0.818876 0.382798 0.199099 0.277997 
-0.359638 2.03361 0.554258 -0.831398 -0.000955787 0.555677 0.199079 0.303629 
-0.530006 3.56096 0.554755 -0.706563 0.000270661 0.70765 0.223097 0.29483 
0.47823 3.55982 0.479636 0.34045 -0.898516 0.27706 0.199099 0.277997 
-0.35952 3.05352 0.434622 -0.751752 -0.593704 0.287027 0.199099 0.277997 
0.477585 1.52446 0.479433 0.452399 -0.781691 0.429294 0.199099 0.277997 
0.478203 1.46712 0.479647 0.371586 0.88322 0.286088 0.199099 0.277997 
0.53001 1.46591 0.554865 0.0141462 0.998244 0.0575223 0.199099 0.277997 
-0.361401 1.46517 0.554869 -0.0257972 0.998376 0.0507877 0.199099 0.277997 
-0.300659 0.981797 0.47603 -0.489419 0.575541 0.65515 0.199099 0.277997 
-0.529469 2.9904 0.554224 -0.0526332 0.995458 0.0793308 0.199099 0.277997 
-0.360733 2.48205 0.435503 -0.336493 0.902094 0.270184 0.199099 0.277997 
0.343288 0 0.554529 0.137848 -0.989998 0.030038 0.199099 0.277997 
-0.31913 1.97662 0.47962 -0.745422 0.38956 0.540914 0.199099 0.277997 
-0.319511 1.01787 0.482573 -0.498116 -0.638799 0.586359 0.199099 0.277997 
0.461414 1.01655 0.502523 0.402271 -0.752305 0.521743 0.199099 0.277997 
-0.305607 4.56238 0.481631 -0.386952 -0.682052 0.620543 0.199099 0.277996 
-0.303246 3.50251 0.502345 -0.387297 0.822754 0.416025 0.199099 0.277997 
-0.305061 3.55219 0.481116 -0.346409 -0.870513 0.349582 0.199099 0.277997 
0.529362 1.01818 0.554216 0.906823 -0.050646 0.418458 0.223097 0.29483 
0.461483 0.507182 0.502672 0.501674 -0.676227 0.539482 0.199099 0.277997 
0.461235 3.50244 0.502292 0.218053 0.83474 0.505631 0.199099 0.277997 
-0.4632 2.54338 0.553862 0.0292107 -0.887302 0.460263 0.199099 0.277997 
0.529362 1.52653 0.554216 0.425016 -0.0200188 0.904965 0.223097 0.29483 
-0.529461 1.52653 0.554216 -0.623012 -0.00169863 0.78221 0.223097 0.29483 
0.53001 0.950062 0.554865 0.275638 0.911098 0.30647 0.199099 0.277997 
-0.529659 0.508344 0.554411 -0.00201003 -0.99996 0.008756 0.199099 0.277997 
0.529995 4.9562 0.554748 0.742762 0.197482 0.639771 0.223097 0.29483 
0.53001 3.56085 0.554866 0.0130145 -0.999036 0.0419317 0.199099 0.277997 
0.514568 2.55023 0.533686 0.12779 -0.809971 0.572378 0.199099 0.277997 
0.53001 4.505 0.554866 0.39154 0.907916 0.149617 0.199099 0.277996 
0.456409 4.55225 0.469894 0.570748 -0.0535507 0.819377 0.199099 0.277996 
-0.359657 3.50024 0.554248 -0.773077 -0.0347015 0.633362 0.199079 0.303629 
-0.530006 3.85518 0.554782 -0.844145 0.175496 0.506577 0.223097 0.29483 
0.241028 1.97428 0.554869 0.103161 0.944966 0.31048 0.199099 0.277997 
0.49012 0.035351 0.555925 0.232511 -0.969029 0.0831996 0.199099 0.277997 
0.444473 4.00858 0.55432 0.417368 0.0808405 0.905135 0.223097 0.29483 
0.529369 2.03361 0.554224 0.00625835 -0.999972 0.0041407 0.199099 0.277997 
0.376717 5.02088 0.55487 0.0832116 0.658476 0.747988 0.223097 0.29483 
0.376862 4.58353 0.55487 0.0371049 -0.933312 0.357146 0.199099 0.277996 
0.12294 4.01069 0.502517 0.0566752 0.210116 0.976032 0.199099 0.277996 
0.068707 3.55207 0.484744 0.00374209 -0.529473 0.848319 0.199099 0.277997 
-0.068306 3.05246 0.554869 -0.0622051 -0.751043 0.657316 0.199099 0.277997 
0.027863 2.55095 0.526411 -0.0145432 -0.720149 0.693667 0.199099 0.277997 
0.071331 2.49478 0.489408 -0.0578898 0.216467 0.974572 0.199099 0.277997 
-0.068096 1.47746 0.484869 0.0207374 0.664107 0.74735 0.199099 0.277997 
0.068737 0.972597 0.485106 -0.0344159 0.505713 0.862015 0.199099 0.277997 
0.087914 0.467856 0.485174 9.60691e-05 0.501851 0.864954 0.199099 0.277997 
0.259602 2.54312 0.553957 -0.0110158 -0.739305 0.67328 0.199099 0.277997 
-0.359638 2.48205 0.554258 -0.0148026 0.995185 0.096892 0.199099 0.277997 
-0.093346 0.508344 0.55451 -0.000111114 -0.999808 0.0196023 0.199099 0.277997 
-0.318558 3.13468 0.546634 -0.503877 -0.434061 0.746792 0.199099 0.277997 
-0.013279 3.50024 0.554423 3.08713e-05 0.999076 0.0429767 0.199099 0.277997 
-0.031021 1.01818 0.554346 -0.00100285 -0.999757 0.0220302 0.199099 0.277997 
-0.190804 2.65969 0.554869 0.00649833 -0.0155659 0.999858 0.223097 0.29483 
0.025448 4.68551 -0.555592 -0.259357 -0.303158 -0.916967 0.199099 0.277996 
0.53001 4.58457 -0.55584 0.151431 -0.949167 -0.275953 0.199099 0.277996 
-0.009747 4.62117 -0.518525 -0.794388 -0.420797 -0.438039 0.199099 0.277996 
0.53001 3.99485 -0.555886 0.115579 0.992111 -0.0485493 0.199099 0.277996 
-0.012936 4.00858 -0.55523 -0.228592 0.968725 -0.0965255 0.199099 0.277996 
0.376862 3.56573 -0.554208 0.0481595 -0.995896 0.0766321 0.199099 0.277997 
-0.013264 3.56038 -0.378537 -0.0967745 -0.974977 -0.200138 0.199099 0.277997 
0.089767 3.60358 -0.554357 -0.124341 -0.944239 -0.304881 0.199099 0.277997 
-0.013264 2.54292 -0.555536 -0.0695046 -0.997435 -0.0171223 0.199099 0.277997 
0.53001 2.54271 -0.555849 0.154795 -0.975151 -0.158488 0.199099 0.277997 
0.53001 1.97426 -0.555849 0.000100068 0.999997 -0.0024908 0.199099 0.277997 
-0.013264 1.97405 -0.555532 -0.000383461 0.999992 -0.00397224 0.199099 0.277997 
0.53001 0.950066 -0.555841 0.0450156 0.998574 -0.0286808 0.199099 0.277997 
-0.013264 0.949754 -0.555414 -0.0537771 0.998268 -0.0238431 0.199099 0.277997 
-0.013264 1.97476 -0.378531 -0.99983 -0.0116252 -0.0142971 0.223097 0.29483 
0.53001 3.6022 -0.555875 0.153047 -0.988203 0.00561985 0.199099 0.277997 
0.53001 2.97671 -0.555887 0.140671 0.979307 -0.145494 0.199099 0.277997 
-0.012947 2.9904 -0.555239 -0.247062 0.96157 -0.119763 0.199099 0.277997 
0.509007 0.530238 -0.524874 0.324992 -0.92489 -0.19738 0.199099 0.277997 
0.53001 0.635216 -0.555876 0.959467 -0.236997 -0.1525 0.199099 0.277997 
0.53001 2.54264 0.164366 0.356811 -0.933735 0.028738 0.199099 0.277997 
0.444523 2.48079 -0.39554 0.0749537 -0.0449361 -0.996174 0.199079 0.303629 
0.376682 2.03448 -0.39554 0.163148 -0.876993 -0.451957 0.199099 0.277997 
0.53001 2.18753 -0.365896 0.726102 -0.281781 -0.627196 0.199099 0.277997 
0.529835 1.97446 -0.360842 0.24732 0.823801 -0.510083 0.199099 0.277997 
0.53001 1.54026 -0.555887 0.127479 -0.990712 -0.0473275 0.199099 0.277997 
-0.012936 1.52653 -0.555231 -0.46442 -0.878232 -0.114116 0.199099 0.277997 
-0.001217 0.51598 -0.544401 -0.306719 -0.938663 -0.157588 0.199099 0.277997 
-0.012901 0.190212 -0.39554 -0.614927 -0.411608 -0.672639 0.199099 0.277997 
0.376854 0 -0.38302 -0.0330227 -0.990168 -0.135931 0.199099 0.277997 
-0.012817 4.07687 -0.395539 -0.132413 -0.962456 -0.23695 0.199099 0.277996 
0.529125 4.07694 -0.395539 0.337996 -0.660486 -0.67046 0.199099 0.277996 
0.529259 3.50011 -0.395539 0.194113 0.911586 -0.362396 0.199099 0.277997 
-0.012829 3.50019 -0.395539 -0.204341 0.924284 -0.322402 0.199099 0.277997 
0.529129 0.441004 -0.39554 0.173699 0.966514 -0.188889 0.199099 0.277997 
-0.012817 0.441093 -0.39554 -0.117349 0.912661 -0.391508 0.199099 0.277997 
0.529243 4.5176 -0.395539 0.338818 0.853681 -0.395514 0.199099 0.277996 
-0.012833 4.51767 -0.395539 -0.150758 0.953675 -0.26034 0.199099 0.277996 
0.309132 3.05425 -0.395539 0.0358843 -0.472855 -0.880409 0.199099 0.277997 
0.497902 3.10406 -0.357614 0.594203 -0.397689 -0.699118 0.199099 0.277997 
0.011028 3.05602 -0.358274 -0.347324 -0.727789 -0.591345 0.199099 0.277997 
-0.012833 2.48197 -0.39554 -0.55239 0.732733 -0.397452 0.199099 0.277997 
-0.012829 2.03372 -0.39554 -0.0884519 -0.983411 -0.158365 0.199099 0.277997 
0.477882 1.46719 -0.363264 0.437319 0.786652 -0.43581 0.199099 0.277997 
0.343346 1.46472 -0.39554 0.0106415 0.975845 -0.218206 0.199099 0.277997 
-0.012817 1.46542 -0.39554 -0.0770036 0.986408 -0.145157 0.199099 0.277997 
0.529255 1.01831 -0.39554 0.323869 -0.596102 -0.734691 0.199099 0.277997 
-0.012829 1.01825 -0.39554 -0.423845 -0.823286 -0.377566 0.199099 0.277997 
0.530006 3.05285 -0.187506 0.644609 -0.74745 -0.160617 0.199099 0.277997 
0.529667 0.508344 -0.360865 0.999999 -0.00121788 0.000442424 0.199079 0.303629 
-0.014645 3.05279 -0.007925 -0.266026 -0.957975 -0.107304 0.199099 0.277997 
0.055477 4.53881 -0.357675 -0.997061 -0.0154273 0.0750435 0.223097 0.29483 
0.529507 2.9904 -0.244684 0.999998 0.00189033 0.000839527 0.223097 0.29483 
0.53001 0.951997 0.085207 0.251496 0.96783 -0.00734254 0.199099 0.277997 
0.504055 3.5786 -0.114549 0.245132 -0.96812 -0.0515227 0.199099 0.277997 
0.529495 1.52653 0.147455 1 -0.000783442 0.000289743 0.223097 0.29483 
-0.014153 1.52653 -0.004454 -0.547291 -0.827384 -0.126131 0.199099 0.277997 
-0.012245 1.63864 -0.445585 -0.999963 0.00832432 -0.00220952 0.199099 0.277997 
-0.014595 0.95148 -0.004671 -0.717421 -0.000836888 -0.696639 0.199079 0.303629 
-0.014248 0.508344 -0.004496 -0.426013 -0.889888 -0.163133 0.199099 0.277997 
-0.014591 3.56042 -0.00467 -0.0487387 -0.998392 -0.0289487 0.199099 0.277997 
0.529488 3.50024 -0.00879 0.596914 0.802305 -0.000240345 0.199099 0.277997 
-0.029289 4.51783 0.011024 -0.894539 0.00255921 -0.446983 0.199079 0.303629 
0.007977 3.99789 -0.292336 -0.961627 0.261679 0.0824461 0.223097 0.29483 
-0.01395 2.48198 -0.006697 -0.308772 0.927479 -0.210813 0.199099 0.277997 
0.529667 0 0.063227 -0.127714 -0.990846 0.0437343 0.199099 0.277997 
0.529728 0 -0.383051 0 -1 0 0.199099 0.277997 
0.529251 2.48192 -0.39554 0.707621 -0.0689876 -0.703216 0.199079 0.303629 
0.52953 1.01818 -0.128405 0.998815 -0.0110351 0.0473965 0.223097 0.29483 
-0.014534 0.44682 -0.008005 -0.898239 -0.00173644 -0.439504 0.199079 0.303629 
0.529465 4.58464 0.283301 0.533649 -0.845054 0.0331978 0.199099 0.277996 
-0.027737 2.9904 0.010927 -0.699539 0.00310881 -0.714588 0.223097 0.29483 
0.529377 2.0337 -0.008768 1 -0.000716438 0.000584737 0.199079 0.303629 
-0.014591 4.58316 -0.00467 -0.431961 0.0920398 -0.897184 0.223097 0.29483 
0.052361 4.05758 0.06824 -0.795047 0.468325 -0.385451 0.223097 0.29483 
0.53001 1.97426 0.554865 0.0228025 0.999737 0.00226062 0.199099 0.277997 
0.517372 4.4987 -0.052506 0.999726 0.0224383 0.00666468 0.199079 0.303629 
0.529369 2.48205 0.554224 0.216028 0.897525 0.384423 0.199099 0.277997 
-0.014332 4.07093 -0.007855 -0.495157 0.0318212 -0.868221 0.199079 0.303629 
-0.013935 3.50013 -0.006715 -0.48562 0.00261875 -0.874166 0.199079 0.303629 
-0.01395 2.03367 -0.006693 -0.725166 -6.14388e-06 -0.688574 0.199079 0.303629 
0.53001 1.46557 -0.034357 0.121415 0.992602 0.000464143 0.199099 0.277997 
-0.013927 9.6e-05 -0.006723 -0.484866 -0.00189846 -0.874587 0.199079 0.303629 
-0.028088 2.54196 0.010271 -0.698816 0.00159335 -0.7153 0.223097 0.29483 
-0.02808 1.97497 0.01029 -0.518036 0.0873831 -0.850884 0.223097 0.29483 
-0.030399 1.46568 0.010279 -0.459895 -0.000266997 -0.887973 0.223097 0.29483 
-0.360542 4.42621 0.035304 -0.496025 0.0479439 -0.866984 0.199079 0.303629 
-0.013939 1.01828 -0.006712 -0.104835 -0.932725 -0.345014 0.199099 0.277997 
0.53001 0.441717 0.554865 0.226878 0.921652 0.314775 0.199099 0.277997 
-0.530006 4.58467 0.011729 -0.0305329 -0.987786 -0.1528 0.199099 0.277996 
0.529495 4.00858 0.147456 0.0904651 0.995874 -0.00712341 0.199099 0.277996 
-0.050137 3.92858 0.026458 0.100374 0.654836 -0.749076 0.199099 0.277996 
-0.400822 4.00858 0.012084 0.0585511 0.987019 -0.14955 0.199099 0.277996 
-0.359657 3.50024 0.012225 -0.295362 0.913243 -0.280622 0.199099 0.277997 
-0.334274 2.46843 0.028608 -0.156967 0.972681 -0.171037 0.199099 0.277997 
-0.529465 1.52653 0.012251 -0.00583974 -0.999928 -0.0104742 0.199099 0.277997 
-0.530006 0.949964 0.011728 -0.0212448 0.998827 -0.0435157 0.199099 0.277997 
-0.439808 0.537752 0.012037 -0.220202 -0.852832 -0.473485 0.199099 0.277997 
-0.530006 3.56096 0.011718 -0.0114482 -0.999891 -0.00931956 0.199099 0.277997 
-0.530006 2.54282 0.011717 -0.0272556 -0.995975 -0.0853812 0.199099 0.277997 
-0.361401 1.46517 0.011602 -0.310858 0.913729 -0.26166 0.199099 0.277997 
-0.361858 4.07364 0.011603 -0.455874 -0.776537 -0.434935 0.199099 0.277996 
0.53001 3.56091 0.1986 0.103258 -0.994495 -0.017828 0.199099 0.277997 
-0.361408 3.05328 0.011602 -0.344656 -0.912493 -0.220382 0.199099 0.277997 
-0.416897 2.98954 0.013586 -0.0654448 0.985833 -0.154436 0.199099 0.277997 
-0.529572 2.89243 0.08581 -0.728376 0.602529 -0.326232 0.199079 0.303629 
-0.416897 2.98954 0.013586 -0.728376 0.602529 -0.326232 0.199079 0.303629 
-0.359653 1.01819 0.012224 -0.547059 -0.76929 -0.330029 0.199099 0.277997 
-0.359638 2.03361 0.012213 -0.427174 -0.857572 -0.286519 0.199099 0.277997 
-0.303959 1.97641 0.063814 -0.394378 0.671156 -0.627707 0.199099 0.277997 
-0.522461 1.9441 0.087217 -0.152834 0.986056 -0.0658432 0.199099 0.277997 
-0.361858 0.44431 0.011602 -0.668346 0.543205 -0.508175 0.199099 0.277997 
0.53001 3.05255 0.554865 0.336092 -0.925013 0.177182 0.199099 0.277997 
-0.529533 2.9904 0.266661 -0.102303 0.994307 -0.0297894 0.199099 0.277997 
-0.530006 2.54253 0.454206 -0.989223 -0.0308525 0.143133 0.223097 0.29483 
-0.530006 1.97415 0.554754 -0.672802 -0.0370765 0.738893 0.223097 0.29483 
-0.361595 0.012806 0.011602 -0.0377573 -0.999012 -0.0234412 0.199099 0.277997 
0.499962 1.02884 0.18141 0.997855 -0.0650615 0.00727316 0.223097 0.29483 
-0.529533 2.9904 0.266661 -1 0.00104179 -3.39873e-05 0.223097 0.29483 
-0.359589 2.48173 0.164389 -0.119305 0.990277 -0.0715386 0.199099 0.277997 
-0.359715 0 0.554338 -0.706007 -0.00425161 0.708192 0.199079 0.303629 
-0.530006 0.949964 0.554743 -0.0458677 0.984536 0.169069 0.199099 0.277997 
0.529552 0.508344 0.554411 0.0138021 -0.999874 0.00791171 0.199099 0.277997 
-0.527702 4.00491 0.419051 -0.0289277 0.999582 5.27358e-06 0.199099 0.277996 
0.527512 0.032571 0.41905 0.054024 -0.996721 0.0602392 0.199099 0.277997 
-0.530006 4.58467 0.554744 -0.0669713 -0.993025 0.0970378 0.199099 0.277996 
-0.359715 4.51795 0.554339 -0.8943 0.00433171 0.447448 0.199079 0.303629 
0.529362 3.50024 0.554217 0.184365 0.98081 0.0634115 0.199099 0.277997 
0.529369 2.9904 0.554224 0.703317 -0.0277276 0.710335 0.223097 0.29483 
-0.361401 1.46517 0.554869 -0.734282 -0.0949553 0.672171 0.223097 0.29483 
0.529522 4.00858 0.453719 0.972856 0.0520254 0.225488 0.223097 0.29483 
-0.529747 0.508344 0.266665 0.0404045 -0.998281 -0.0424568 0.199099 0.277997 
-0.359638 2.03361 0.554258 -0.297202 -0.922156 0.247586 0.199099 0.277997 
0.529362 1.01818 0.554216 0.0243557 -0.999703 -0.000377235 0.199099 0.277997 
0.53001 0.950062 0.554865 0.44723 -0.00121024 0.894418 0.199079 0.303629 
-0.529659 0.508344 0.554411 -0.707078 -0.00108722 0.707134 0.199079 0.303629 
0.53001 3.56085 0.554866 0.553302 0.0467435 0.831668 0.223097 0.29483 
0.53001 1.46591 0.554865 0.447298 -0.00181694 0.894383 0.223097 0.29483 
0.53001 4.505 0.554866 0.710623 0.0164706 0.70338 0.199079 0.303629 
0.53001 4.07623 0.554866 0.707438 0 0.706776 0.199079 0.303629 
-0.359657 3.50024 0.554248 -0.0201258 0.999559 0.0218466 0.199099 0.277997 
0.514568 2.55023 0.533686 0.699089 -0.0567646 0.712778 0.223097 0.29483 
0.494667 4.581 0.517734 0.753868 -0.134426 0.643128 0.223097 0.29483 
-0.400822 4.00858 0.554385 -0.169999 0.144834 0.974743 0.223097 0.29483 
-0.529469 2.9904 0.554224 -0.581452 -0.038433 0.812673 0.223097 0.29483 
-0.529461 1.52653 0.554216 -0.00830822 -0.999965 6.11867e-08 0.199099 0.277997 
-0.361858 0.44431 0.554869 -0.250086 0.858802 0.447119 0.199099 0.277997 
0.444473 4.00858 0.55432 0.0236773 0.998812 0.0425869 0.199099 0.277996 
-0.35952 3.05352 0.434622 -0.975445 -0.0572508 0.212673 0.199079 0.303629 
0.529369 2.03361 0.554224 0.707115 0 0.707098 0.199079 0.303629 
-0.319511 1.01787 0.482573 -0.751703 -0.173248 0.636339 0.223097 0.29483 
0.49012 0.035351 0.555925 0.387693 -0.0416503 0.920847 0.199079 0.303629 
-0.530006 3.56096 0.554755 -0.0135249 -0.996717 0.0798313 0.199099 0.277997 
-0.360733 2.48205 0.435503 -0.999995 -0.00177906 0.00250255 0.199079 0.303629 
0.529362 1.52653 0.554216 0.0202372 -0.999702 0.0136469 0.199099 0.277997 
-0.361858 4.07364 0.55487 -0.447412 0.00269239 0.894324 0.199079 0.303629 
-0.4632 2.54338 0.553862 -0.468799 -0.0702115 0.88051 0.223097 0.29483 
-0.318558 3.13468 0.546634 -0.555543 -0.0796978 0.82766 0.199079 0.303629 
-0.359638 2.48205 0.554258 -0.703826 0 0.710373 0.199079 0.303629 
0.376862 4.58353 0.55487 0.100077 -0.0409263 0.994138 0.223097 0.29483 
-0.013279 3.50024 0.554423 -3.96956e-05 0.00116716 0.999999 0.199079 0.303629 
-0.068306 3.05246 0.554869 -0.0139119 -0.00779723 0.999873 0.199079 0.303629 
-0.190804 2.65969 0.554869 0.00242932 -0.123839 0.992299 0.199099 0.277997 
0.241028 1.97428 0.554869 -0.020691 -0.0528793 0.998387 0.223097 0.29483 
-0.303913 1.52465 0.502447 0.0543789 -0.0530779 0.997109 0.223097 0.29483 
-0.031021 1.01818 0.554346 -0.0798674 -0.0603483 0.994977 0.223097 0.29483 
-0.093346 0.508344 0.55451 -6.10042e-05 -0.000807094 1 0.199079 0.303629 
0.343288 0 0.554529 -0.00350849 -0.00633336 0.999974 0.199079 0.303629 
3 0 1 2
3 0 2 3
3 4 0 3
3 5 4 3
3 251 252 6
3 253 251 6
3 7 8 9
3 7 9 10
3 10 9 11
3 8 12 9
3 13 14 15
3 15 14 16
3 17 18 19
3 20 17 19
3 21 22 23
3 21 23 24
3 21 24 25
3 26 254 255
3 17 27 18
3 28 7 10
3 10 11 28
3 256 257 258
3 29 259 260
3 30 261 262
3 20 19 31
3 32 263 264
3 34 6 252
3 265 20 31
3 253 6 35
3 266 257 256
3 36 267 268
3 8 37 12
3 14 38 16
3 269 270 39
3 39 40 269
3 4 41 0
3 34 35 6
3 42 43 44
3 45 42 44
3 46 26 255
3 47 48 49
3 48 47 50
3 51 49 48
3 271 52 260
3 52 29 260
3 53 272 54
3 272 56 54
3 273 274 57
3 53 54 58
3 275 261 30
3 265 31 59
3 276 60 277
3 61 277 60
3 62 63 64
3 65 62 66
3 66 62 64
3 40 67 269
3 67 278 269
3 68 69 70
3 70 69 71
3 279 280 72
3 69 73 71
3 46 281 282
3 74 46 255
3 266 75 257
3 76 283 284
3 77 285 286
3 34 287 35
3 287 288 35
3 46 282 26
3 257 75 76
3 283 76 75
3 289 290 78
3 289 78 36
3 291 289 36
3 267 36 78
3 29 52 292
3 273 57 79
3 79 293 273
3 57 275 79
3 275 30 79
3 61 60 294
3 295 61 294
3 295 296 61
3 64 63 80
3 297 33 32
3 298 297 32
3 40 77 67
3 286 67 77
3 69 81 73
3 82 50 47
3 279 72 83
3 252 84 34
3 34 84 287
3 75 85 283
3 86 49 51
3 290 299 78
3 79 87 293
3 23 88 300
3 46 89 281
3 36 301 291
3 90 285 77
3 91 82 47
3 78 92 267
3 93 53 58
3 22 88 23
3 41 94 0
3 0 94 1
3 4 5 302
3 74 95 46
3 96 28 97
3 76 98 257
3 99 36 268
3 303 38 14
3 30 100 79
3 101 60 276
3 33 304 263
3 102 32 264
3 7 28 96
3 8 103 37
3 305 75 266
3 305 85 75
3 271 104 52
3 27 306 18
3 307 308 277
3 60 105 294
3 309 21 106
3 106 21 25
3 107 310 67
3 310 278 67
3 98 311 257
3 312 283 85
3 61 307 277
3 102 108 32
3 252 109 84
3 110 35 288
3 55 52 104
3 111 112 57
3 275 57 112
3 113 61 296
3 114 65 66
3 84 115 287
3 42 45 313
3 314 7 96
3 78 116 92
3 29 292 117
3 315 117 292
3 77 40 90
3 118 67 286
3 119 33 297
3 67 118 107
3 316 280 317
3 1 94 120
3 318 121 56
3 80 319 64
3 320 68 70
3 280 83 72
3 252 321 109
3 46 95 89
3 122 76 284
3 91 123 82
3 36 124 301
3 274 125 57
3 27 126 306
3 32 108 298
3 13 15 322
3 125 111 57
3 127 307 61
3 69 128 81
3 1 120 2
3 129 130 35
3 99 124 36
3 56 121 323
3 4 302 41
3 41 302 324
3 314 96 325
3 117 259 29
3 30 131 100
3 112 326 275
3 327 44 43
3 117 132 259
3 328 55 104
3 79 100 87
3 113 127 61
3 313 45 329
3 330 49 86
3 331 93 58
3 332 294 105
3 333 320 70
3 322 15 334
3 335 265 59
3 336 65 114
3 133 33 119
3 41 324 134
3 134 324 135
3 110 129 35
3 136 110 137
3 313 329 337
3 337 329 138
3 325 96 139
3 140 139 141
3 140 142 139
3 96 97 139
3 139 97 141
3 98 76 122
3 143 330 144
3 330 86 144
3 145 322 146
3 145 146 147
3 146 322 334
3 93 331 148
3 149 93 148
3 150 151 152
3 150 335 151
3 151 335 59
3 153 336 154
3 336 114 154
3 108 338 298
3 155 156 157
3 155 309 106
3 155 106 156
3 339 285 90
3 158 320 333
3 158 333 159
3 129 340 130
3 129 136 340
3 26 341 254
3 160 342 343
3 103 161 37
3 98 122 344
3 345 162 315
3 163 346 307
3 164 102 347
3 107 348 310
3 160 95 342
3 165 349 311
3 117 166 132
3 166 350 132
3 163 113 351
3 164 108 102
3 39 167 40
3 136 129 110
3 89 160 352
3 305 353 85
3 165 311 98
3 124 354 301
3 168 99 355
3 356 169 357
3 170 149 148
3 127 113 163
3 108 164 338
3 164 358 338
3 282 171 26
3 89 95 160
3 172 341 26
3 173 142 140
3 165 98 344
3 354 124 168
3 99 168 124
3 166 174 350
3 166 117 162
3 315 162 117
3 359 87 100
3 359 100 360
3 131 360 100
3 175 360 361
3 163 307 127
3 176 157 156
3 88 177 300
3 348 107 362
3 118 362 107
3 178 134 135
3 178 135 179
3 321 180 109
3 115 84 109
3 160 181 352
3 363 78 299
3 364 168 355
3 365 147 146
3 366 152 151
3 182 157 176
3 183 348 362
3 158 159 184
3 83 185 367
3 178 41 134
3 137 186 136
3 187 346 163
3 351 188 163
3 319 80 368
3 189 304 33
3 128 190 81
3 369 147 365
3 370 162 345
3 184 159 371
3 185 83 280
3 133 189 33
3 182 155 157
3 191 160 343
3 91 192 123
3 372 164 347
3 373 167 39
3 172 193 341
3 374 191 343
3 168 194 354
3 116 195 92
3 196 174 166
3 196 166 162
3 170 148 197
3 375 280 316
3 136 376 340
3 377 337 138
3 171 172 26
3 140 141 198
3 353 199 85
3 85 378 312
3 194 200 354
3 303 379 38
3 60 201 105
3 163 188 187
3 202 203 332
3 202 332 105
3 204 188 351
3 380 153 154
3 372 205 164
3 206 168 364
3 207 162 370
3 208 185 280
3 103 381 161
3 360 209 359
3 175 209 360
3 164 205 210
3 210 358 164
3 183 382 348
3 133 211 189
3 167 90 40
3 375 208 280
3 212 376 136
3 213 165 344
3 162 207 196
3 209 383 359
3 80 215 368
3 167 216 90
3 217 378 85
3 363 116 78
3 218 174 196
3 126 219 306
3 220 366 151
3 101 201 60
3 105 201 202
3 384 211 133
3 221 304 189
3 88 385 177
3 222 382 183
3 94 223 120
3 224 199 353
3 214 349 165
3 271 225 104
3 182 176 386
3 226 115 109
3 226 109 227
3 186 212 136
3 161 381 387
3 199 217 85
3 228 143 144
3 80 388 215
3 373 216 167
3 109 180 227
3 44 389 390
3 229 173 140
3 391 213 344
3 379 392 38
3 230 112 111
3 231 208 375
3 120 223 393
3 181 160 191
3 394 173 229
3 381 232 387
3 395 369 365
3 233 111 125
3 187 396 346
3 211 221 189
3 90 216 339
3 397 183 362
3 234 94 41
3 178 234 41
3 180 235 227
3 235 212 227
3 186 227 212
3 327 389 44
3 171 181 236
3 171 236 172
3 398 193 172
3 236 398 172
3 191 236 181
3 229 140 198
3 217 199 237
3 213 217 237
3 213 237 214
3 228 144 399
3 116 238 194
3 195 116 194
3 239 240 104
3 239 196 240
3 104 240 328
3 240 196 207
3 121 400 323
3 111 383 209
3 209 230 111
3 201 241 202
3 201 187 241
3 241 187 188
3 380 154 401
3 211 210 242
3 210 205 242
3 211 242 221
3 216 183 243
3 216 243 339
3 128 402 190
3 235 376 212
3 186 226 227
3 403 214 237
3 214 403 349
3 206 194 168
3 244 239 104
3 207 245 240
3 404 170 197
3 405 187 201
3 241 203 202
3 204 241 188
3 372 242 205
3 246 183 216
3 234 223 94
3 377 138 406
3 224 237 199
3 247 200 194
3 363 238 116
3 407 395 365
3 225 244 104
3 239 218 196
3 233 383 111
3 326 112 230
3 405 201 101
3 204 203 241
3 372 221 242
3 397 243 183
3 191 398 236
3 248 378 217
3 248 217 213
3 391 248 213
3 228 399 408
3 206 195 194
3 245 328 240
3 409 404 197
3 175 230 209
3 384 249 211
3 249 210 211
3 373 246 216
3 246 222 183
3 397 339 243
3 234 178 179
3 223 234 410
3 223 410 393
3 234 179 410
3 389 377 406
3 389 406 390
3 394 229 198
3 232 394 387
3 394 198 387
3 224 403 237
3 192 411 123
3 411 412 123
3 412 411 228
3 228 408 412
3 247 194 238
3 379 395 250
3 395 407 250
3 379 250 392
3 225 413 244
3 218 239 413
3 244 413 239
3 121 409 197
3 121 197 400
3 126 414 219
3 414 366 415
3 366 220 415
3 219 414 415
3 215 388 416
3 388 380 416
3 380 401 416
3 385 182 417
3 385 417 177
3 417 182 386
3 184 418 402
3 184 402 128
3 184 371 418
3 32 33 263
3 272 318 56
3 213 214 165
