ply
format ascii 1.0
comment INFO-3111 Flatenator generated
comment TextureFile Dungeons_Texture_01.png
element vertex 20
property float x
property float y
property float z
element face 10
property list uchar int vertex_indices
end_header
-0.914698 -1.8294 0.914698 
0.914698 -1.8294 0.914698 
-0.914698 0 0.914698 
0.914698 0 0.914698 
-0.914698 0 0.914698 
0.914698 0 0.914698 
-0.914698 0 -0.914698 
0.914698 0 -0.914698 
-0.914698 0 -0.914698 
0.914698 0 -0.914698 
-0.914698 -1.8294 -0.914698 
0.914698 -1.8294 -0.914698 
0.914698 -1.8294 0.914698 
0.914698 -1.8294 -0.914698 
0.914698 0 0.914698 
0.914698 0 -0.914698 
-0.914698 -1.8294 -0.914698 
-0.914698 -1.8294 0.914698 
-0.914698 0 -0.914698 
-0.914698 0 0.914698 
3 0 1 2
3 2 1 3
3 4 5 6
3 6 5 7
3 8 9 10
3 10 9 11
3 12 13 14
3 14 13 15
3 16 17 18
3 18 17 19
