ply
format ascii 1.0
comment INFO-3111 Flatenator generated
comment TextureFile Dungeons_Texture_01.png
element vertex 327
property float x
property float y
property float z
element face 366
property list uchar int vertex_indices
end_header
27.2178 52.9905 19.8121 
19.7045 56.9651 27.2178 
20.8687 34.524 27.2178 
27.2178 34.524 20.8687 
27.2178 34.524 -20.8687 
20.8687 34.524 -27.2178 
20.0429 61.3645 -27.2178 
27.2178 55.1598 -19.8121 
-27.2178 34.524 20.8687 
-20.8687 34.524 27.2178 
-19.7045 53.2504 27.2178 
-27.2178 65.4044 19.2288 
-20.8687 34.524 -27.2178 
-27.2178 34.524 -20.8687 
-27.2178 61.3497 -19.2288 
-20.0429 69.3208 -27.2178 
27.2178 85.9251 27.2178 
20.8687 82.6838 27.2178 
27.2178 82.6838 20.8687 
27.2178 30.7207 27.2178 
27.2178 30.807 -27.2178 
27.2178 87.3753 -27.2178 
27.2178 82.6838 -20.8686 
20.8687 82.6839 -27.2178 
-27.2178 30.5729 27.2178 
-27.2178 87.7745 27.2178 
-27.2178 82.6838 20.8687 
-20.8687 82.6838 27.2178 
-27.2178 28.8898 -27.2178 
-27.2178 87.8662 -27.2178 
-20.8687 82.6839 -27.2178 
-27.2178 82.6838 -20.8686 
-12.1333 70.5985 30.9253 
11.8152 69.8692 30.9253 
-0.318067 82.0013 30.9253 
11.4232 42.4532 30.9253 
-10.7353 50.6291 30.9253 
-12.1333 23.2986 30.9253 
12.1333 23.2986 30.9253 
-15.1855 71.8628 27.2178 
0 87.0468 27.2178 
15.1855 71.8628 27.2178 
15.1855 47.1646 27.2178 
15.1855 23.2986 27.2178 
-15.1855 23.2986 27.2178 
-15.1855 47.1646 27.2178 
30.9253 70.5985 12.1333 
30.9253 70.5985 -12.1333 
30.9253 81.5834 1.41156 
30.9253 42.0645 -10.5653 
30.9253 37.0778 11.1692 
30.9253 23.2986 12.1333 
30.9253 23.2986 -12.1333 
27.2178 71.8628 15.1856 
27.2178 87.0468 1.4e-05 
27.2178 71.8628 -15.1855 
27.2178 39.2201 -15.1855 
27.2178 23.2986 -15.1855 
27.2178 23.2986 15.1855 
27.2178 39.2201 15.1855 
-30.9253 70.5985 -12.1333 
-30.9253 70.5985 12.1333 
-30.9253 82.132 1.01368 
-30.9253 53.8235 11.3866 
-30.9253 62.2048 -11.3866 
-30.9253 23.2986 -12.1333 
-30.9253 23.2986 12.1333 
-27.2178 71.8628 -15.1855 
-27.2178 87.0468 1.4e-05 
-27.2178 71.8628 15.1856 
-27.2178 62.4159 15.1856 
-27.2178 23.2986 15.1855 
-27.2178 23.2986 -15.1855 
-27.2178 62.4159 -15.1855 
11.6222 69.9968 -30.9253 
-12.1333 70.5985 -30.9253 
0 82.7305 -30.9253 
10.5755 35.6039 -30.9253 
-11.2517 60.6993 -30.9253 
15.1855 71.8628 -27.2178 
0 87.0468 -27.2178 
-15.1855 71.8628 -27.2178 
-15.1855 63.9785 -27.2178 
15.1855 35.0542 -27.2178 
-27.2178 23.2986 27.2178 
27.2178 23.2986 27.2178 
-30.9253 23.2986 30.9253 
30.9253 23.2986 30.9253 
-4.4319 17.0953 30.9253 
30.9253 17.0953 30.9253 
9.96286 11.1721 35.5307 
35.5307 12.8434 35.5307 
-35.5307 12.8434 25.5449 
-35.5307 6.23001 35.5307 
-31.72 12.8434 35.5307 
-35.5307 -6e-06 35.5307 
-35.5307 6e-06 -35.5307 
35.5307 6e-06 -35.5307 
35.5307 -6e-06 35.5307 
-35.5307 12.8434 -35.5307 
-13.3772 11.634 -35.5307 
-30.9253 17.0953 -30.9253 
-15.932 17.0953 -30.9253 
-30.9253 23.2986 -30.9253 
-27.2178 23.2986 -27.2178 
27.2178 23.2986 -27.2178 
30.9253 23.2986 -30.9253 
-8.31128 109.255 -27.2178 
8.31128 109.255 -27.2178 
8.31128 112.009 -30.9253 
-8.31128 111.302 -30.9253 
9.18716 105.803 -9.18714 
-9.18716 105.803 -9.18714 
-9.18716 105.803 9.18718 
9.18716 105.803 9.18718 
-10.6856 115.323 30.9253 
5.93428 123.342 30.9253 
-8.02734 126.091 30.9253 
-30.9253 126.091 30.9253 
8.31128 109.255 27.2178 
8.31128 112.076 30.9253 
-8.31128 111.953 30.9253 
-8.31128 109.255 27.2178 
30.9253 17.0953 -30.9253 
35.5307 12.8434 -19.3093 
32.5341 15.61 -32.5341 
35.5307 9.3532 -35.5307 
-30.9253 17.0953 30.9253 
-27.2178 109.255 9.12931 
-27.2178 109.255 -9.12927 
-30.9253 111.652 -9.12927 
-30.9253 111.967 9.12931 
30.9253 126.091 -30.9253 
30.9253 126.091 30.9253 
30.9253 115.845 11.7373 
30.9253 116.233 -11.7373 
27.2178 109.255 -9.12927 
30.9253 111.412 -9.12927 
30.9253 111.667 9.12931 
27.2178 109.255 9.12931 
10.6856 113.609 -27.2178 
27.2178 113.609 -27.2178 
27.2178 113.609 -11.7373 
27.2178 113.609 27.2178 
10.6856 113.609 27.2178 
-27.2178 113.609 -11.7373 
-27.2178 113.609 -27.2178 
30.9253 116.451 -30.9253 
30.9253 116.435 30.9253 
10.6856 116.227 30.9253 
-30.9253 115.937 -11.7373 
-30.9253 115.701 -30.9253 
-10.6856 116.535 -30.9253 
-10.6856 113.609 -27.2178 
-10.6856 113.609 27.2178 
-30.9253 116.369 30.9253 
-27.2178 113.609 27.2178 
-27.2178 113.609 11.7373 
-30.9253 115.669 11.7373 
27.2178 113.609 11.7373 
-30.9253 126.091 -14.187 
-30.9253 119.921 -30.9253 
10.6856 116.021 -30.9253 
-18.7075 126.091 -30.9253 
-18.9994 126.091 -18.9994 
18.9994 126.091 -18.9994 
-18.9994 126.091 18.9994 
6.64797 126.091 24.3378 
18.9994 126.091 18.9994 
15.1855 23.2986 -27.2178 
12.1333 23.2986 -30.9253 
-12.1333 23.2986 -30.9253 
-15.1855 23.2986 -27.2178 
29.0416 94.6942 -29.0416 
29.0416 93.9092 -9.79777 
27.2178 92.315 -6.34668 
27.2178 92.315 -27.2178 
9.79778 93.9092 29.0416 
6.45328 91.8882 27.2178 
27.2178 92.315 27.2178 
29.0416 93.9092 29.0416 
-29.0416 93.9092 -9.79777 
-29.0416 93.9092 -29.0416 
-27.2178 92.315 -27.2178 
-27.2178 92.315 -6.34668 
6.5392 92.315 -27.2178 
10.4385 94.0128 -29.0416 
29.0416 104.69 -29.0416 
29.0416 104.481 -17.0973 
29.0416 104.179 29.0416 
16.7749 104.69 29.0416 
-29.0416 104.69 -16.4544 
-29.0416 104.69 -29.0416 
16.7749 104.69 -29.0416 
15.867 106.391 -27.2178 
27.2178 106.391 -27.2178 
27.2178 106.391 -15.2786 
27.2178 106.391 27.2178 
15.867 106.391 27.2178 
-27.2178 106.391 -15.2786 
-27.2178 106.391 -27.2178 
-9.79778 93.9092 -29.0416 
-6.5392 92.315 -27.2178 
-16.7749 104.69 -29.0416 
-15.867 106.391 -27.2178 
-29.0416 104.69 29.0416 
-16.7749 104.69 29.0416 
-15.867 106.391 27.2178 
-27.2178 106.391 27.2178 
-29.0416 93.9092 29.0416 
-10.7176 94.3269 29.0416 
-27.2178 92.315 27.2178 
-6.5392 92.315 27.2178 
29.0416 94.5588 10.9951 
27.2178 92.315 6.34671 
-29.0416 93.9092 9.7978 
-27.2178 92.315 6.34671 
-29.0416 104.69 16.4544 
-27.2178 106.391 15.2787 
29.0416 104.69 16.4544 
27.2178 106.391 15.2787 
33.6671 12.8434 -35.5307 
24.7251 126.091 30.9253 
-0.318067 82.0013 30.9253 
11.4232 42.4532 30.9253 
-12.1333 23.2986 30.9253 
30.9253 81.5834 1.41156 
30.9253 23.2986 -12.1333 
30.9253 37.0778 11.1692 
-30.9253 82.132 1.01368 
-30.9253 53.8235 11.3866 
0 82.7305 -30.9253 
-12.1333 70.5985 -30.9253 
11.6222 69.9968 -30.9253 
27.2178 23.2986 27.2178 
-30.9253 23.2986 30.9253 
-30.9253 23.2986 -30.9253 
8.31128 109.255 -27.2178 
27.2178 23.2986 -27.2178 
30.9253 23.2986 30.9253 
30.9253 23.2986 -30.9253 
-27.2178 23.2986 27.2178 
27.2178 109.255 -9.12927 
8.31128 109.255 27.2178 
30.9253 116.233 -11.7373 
27.2178 113.609 -27.2178 
27.2178 113.609 27.2178 
-27.2178 113.609 -27.2178 
-27.2178 113.609 -11.7373 
-10.6856 115.323 30.9253 
-27.2178 113.609 27.2178 
-8.31128 109.255 27.2178 
-10.6856 113.609 27.2178 
-27.2178 109.255 9.12931 
27.2178 109.255 9.12931 
27.2178 113.609 11.7373 
-30.9253 115.937 -11.7373 
-30.9253 115.669 11.7373 
-8.31128 109.255 -27.2178 
10.6856 113.609 -27.2178 
-10.6856 113.609 -27.2178 
-30.9253 115.701 -30.9253 
-30.9253 111.967 9.12931 
-30.9253 116.369 30.9253 
10.6856 116.227 30.9253 
-8.31128 111.953 30.9253 
8.31128 112.076 30.9253 
30.9253 116.435 30.9253 
30.9253 115.845 11.7373 
30.9253 111.667 9.12931 
30.9253 111.412 -9.12927 
30.9253 116.451 -30.9253 
10.6856 116.021 -30.9253 
8.31128 112.009 -30.9253 
-10.6856 116.535 -30.9253 
18.9994 126.091 -18.9994 
-18.9994 126.091 18.9994 
18.9994 126.091 18.9994 
11.8152 69.8692 30.9253 
-10.7353 50.6291 30.9253 
-30.9253 70.5985 12.1333 
-30.9253 62.2048 -11.3866 
-30.9253 70.5985 -12.1333 
-11.2517 60.6993 -30.9253 
30.9253 42.0645 -10.5653 
30.9253 70.5985 12.1333 
29.0416 94.6942 -29.0416 
29.0416 93.9092 29.0416 
9.79778 93.9092 29.0416 
-29.0416 93.9092 -9.79777 
16.7749 104.69 -29.0416 
29.0416 104.69 -29.0416 
29.0416 104.481 -17.0973 
16.7749 104.69 29.0416 
-29.0416 104.69 -16.4544 
-29.0416 93.9092 -29.0416 
-29.0416 104.69 -29.0416 
-16.7749 104.69 -29.0416 
-16.7749 104.69 29.0416 
-29.0416 104.69 29.0416 
-29.0416 93.9092 29.0416 
-29.0416 93.9092 9.7978 
-29.0416 104.69 16.4544 
29.0416 104.69 16.4544 
29.0416 94.5588 10.9951 
-18.9994 126.091 -18.9994 
-12.1333 70.5985 30.9253 
12.1333 23.2986 30.9253 
30.9253 70.5985 -12.1333 
30.9253 23.2986 12.1333 
-30.9253 23.2986 12.1333 
-30.9253 23.2986 -12.1333 
10.5755 35.6039 -30.9253 
-27.2178 23.2986 -27.2178 
-27.2178 109.255 -9.12927 
27.2178 113.609 -11.7373 
10.6856 113.609 27.2178 
-27.2178 113.609 11.7373 
-30.9253 111.652 -9.12927 
-8.31128 111.302 -30.9253 
12.1333 23.2986 -30.9253 
-12.1333 23.2986 -30.9253 
29.0416 93.9092 -9.79777 
29.0416 104.179 29.0416 
10.4385 94.0128 -29.0416 
-9.79778 93.9092 -29.0416 
-10.7176 94.3269 29.0416 
3 0 2 3
3 5 7 4
3 8 10 11
3 12 14 15
3 16 17 18
3 19 3 2
3 20 5 4
3 21 22 23
3 24 9 8
3 25 26 27
3 28 13 12
3 29 30 31
3 32 33 34
3 35 37 38
3 39 223 40
3 223 41 40
3 224 43 42
3 225 45 44
3 46 47 48
3 50 52 49
3 53 226 54
3 226 55 54
3 56 227 57
3 58 228 59
3 60 61 62
3 63 65 66
3 67 229 68
3 229 69 68
3 230 71 70
3 72 64 73
3 74 75 76
3 74 78 75
3 79 231 80
3 231 81 80
3 232 82 81
3 83 233 79
3 25 17 16
3 10 2 1
3 24 2 9
3 24 85 19
3 86 234 84
3 88 87 235
3 90 89 88
3 92 93 94
3 96 98 95
3 96 100 97
3 101 100 99
3 101 103 102
3 236 105 106
3 28 5 20
3 12 6 5
3 23 29 21
3 21 107 108
3 237 110 109
3 112 114 111
3 115 117 118
3 119 121 122
3 21 18 22
3 0 4 7
3 19 4 3
3 19 238 20
3 239 105 234
3 89 240 87
3 123 124 125
3 124 97 126
3 92 96 95
3 235 101 127
3 84 236 86
3 241 28 104
3 8 28 24
3 8 14 13
3 26 29 31
3 25 129 29
3 130 128 131
3 133 135 132
3 137 139 136
3 141 108 140
3 141 242 21
3 143 243 16
3 146 129 145
3 244 245 147
3 149 246 148
3 150 247 248
3 152 247 151
3 249 156 154
3 250 251 252
3 250 253 25
3 158 156 155
3 134 246 159
3 143 254 255
3 16 251 25
3 160 256 257
3 242 16 21
3 153 110 258
3 259 109 162
3 121 154 122
3 120 144 149
3 157 131 128
3 248 130 150
3 138 159 139
3 137 142 244
3 107 146 260
3 261 256 161
3 256 262 257
3 118 257 263
3 263 115 118
3 264 265 266
3 264 267 133
3 268 133 267
3 135 269 270
3 132 135 271
3 271 272 132
3 273 274 272
3 163 165 132
3 161 160 163
3 166 167 168
3 132 168 133
3 275 112 111
3 276 112 164
3 276 114 113
3 275 114 277
3 278 42 41
3 36 33 32
3 279 39 45
3 280 70 69
3 281 61 60
3 73 282 67
3 170 83 169
3 77 171 78
3 283 172 82
3 55 284 56
3 46 49 47
3 59 285 53
3 174 176 173
3 177 179 180
3 181 183 184
3 176 186 173
3 188 286 187
3 287 190 288
3 191 182 289
3 286 193 187
3 290 195 291
3 292 195 196
3 293 197 198
3 294 200 192
3 201 183 295
3 203 182 296
3 297 200 204
3 206 208 205
3 209 298 299
3 211 210 300
3 213 179 214
3 215 211 300
3 209 217 301
3 302 208 218
3 219 197 189
3 303 287 304
3 177 198 178
3 210 207 206
3 194 186 185
3 218 215 302
3 220 213 214
3 196 174 292
3 204 201 297
3 199 181 184
3 18 1 0
3 27 1 17
3 11 27 26
3 11 31 14
3 15 31 30
3 15 23 6
3 6 22 7
3 18 7 22
3 126 221 125
3 124 126 125
3 94 127 92
3 90 98 91
3 92 101 99
3 245 162 147
3 238 28 20
3 163 272 274
3 161 274 261
3 160 166 305
3 163 160 305
3 117 116 167
3 222 264 133
3 167 116 222
3 168 222 133
3 117 166 118
3 264 116 115
3 102 240 123
3 221 123 125
3 97 221 126
3 100 123 221
3 89 124 123
3 98 124 91
3 235 127 88
3 94 88 127
3 95 90 94
3 94 93 95
3 95 93 92
3 0 1 2
3 5 6 7
3 8 9 10
3 12 13 14
3 35 36 37
3 39 306 223
3 223 278 41
3 224 307 43
3 225 279 45
3 50 51 52
3 53 285 226
3 226 308 55
3 56 284 227
3 58 309 228
3 63 281 65
3 67 282 229
3 229 280 69
3 230 310 71
3 72 311 64
3 74 77 78
3 79 233 231
3 231 232 81
3 232 283 82
3 83 312 233
3 25 27 17
3 10 9 2
3 24 19 2
3 24 241 85
3 86 239 234
3 88 89 87
3 90 91 89
3 96 97 98
3 96 99 100
3 101 102 100
3 236 313 105
3 28 12 5
3 12 15 6
3 23 30 29
3 21 29 107
3 237 258 110
3 112 113 114
3 115 116 117
3 119 120 121
3 21 16 18
3 0 3 4
3 19 20 4
3 19 85 238
3 239 106 105
3 89 123 240
3 92 99 96
3 235 103 101
3 84 313 236
3 241 24 28
3 8 13 28
3 8 11 14
3 26 25 29
3 25 253 129
3 130 314 128
3 133 268 135
3 137 138 139
3 141 21 108
3 141 315 242
3 143 316 243
3 146 29 129
3 244 142 245
3 149 144 246
3 150 151 247
3 152 153 247
3 249 155 156
3 250 25 251
3 250 317 253
3 158 157 156
3 134 148 246
3 143 16 254
3 16 243 251
3 257 118 160
3 160 161 256
3 242 254 16
3 153 152 110
3 259 237 109
3 121 249 154
3 120 119 144
3 157 158 131
3 248 314 130
3 138 134 159
3 137 136 142
3 107 29 146
3 256 318 262
3 264 115 265
3 135 268 269
3 273 319 274
3 163 305 165
3 132 165 168
3 275 164 112
3 276 113 112
3 276 277 114
3 275 111 114
3 278 224 42
3 36 35 33
3 279 306 39
3 280 230 70
3 281 63 61
3 73 64 282
3 170 312 83
3 77 320 171
3 283 321 172
3 55 308 284
3 46 50 49
3 59 228 285
3 174 175 176
3 177 178 179
3 181 295 183
3 176 185 186
3 188 322 286
3 287 323 190
3 191 296 182
3 286 324 193
3 290 194 195
3 292 291 195
3 293 189 197
3 294 199 200
3 201 202 183
3 203 325 182
3 297 192 200
3 206 207 208
3 209 326 298
3 211 212 210
3 213 180 179
3 215 216 211
3 209 299 217
3 302 205 208
3 219 220 197
3 303 323 287
3 177 293 198
3 210 212 207
3 194 290 186
3 218 216 215
3 220 219 213
3 196 175 174
3 204 202 201
3 199 294 181
3 18 17 1
3 27 10 1
3 11 10 27
3 11 26 31
3 15 14 31
3 15 30 23
3 6 23 22
3 18 0 7
3 92 127 101
3 245 259 162
3 238 104 28
3 274 161 163
3 163 132 272
3 160 118 166
3 222 116 264
3 168 167 222
3 117 167 166
3 102 103 240
3 97 100 221
3 100 102 123
3 89 91 124
3 98 97 124
3 94 90 88
3 95 98 90
