ply
format ascii 1.0
comment VCGLIB generated
comment TextureFile Dungeons_Texture_01.png
element vertex 89
property float x
property float y
property float z
property float nx
property float ny
property float nz
property uchar red
property uchar green
property uchar blue
property uchar alpha
property float texture_u
property float texture_v
element face 114
property list uchar int vertex_indices
end_header
-22.59344 0.853051 15.35795 -0.7163711 -0.3001464 -0.6298609 203 160 98 255 0.323824 0.383341
-22.59344 0.85305 22.53062 -0.487426 -0.7243589 0.4875655 203 160 98 255 0.323335 0.383126
-22.38558 7.301561 22.10727 -0.6197233 0.4831572 0.6184677 203 160 98 255 0.323304 0.382718
-22.59344 7.301563 15.35795 -0.6207708 0.5070834 -0.5979216 203 160 98 255 0.323821 0.382935
-15.35795 -0.941115 15.35795 0.5587545 -0.6117082 -0.5600058 203 160 98 255 0.324088 0.383055
-15.35795 0.85305 22.53062 0.6263118 -0.2920623 0.7227954 203 160 98 255 0.323616 0.382751
-15.35795 7.301561 22.53062 0.585947 0.5085135 0.630936 203 160 98 255 0.323601 0.38234
-20.52929 7.301563 15.35795 0.3377471 0.4125398 -0.8460129 203 160 98 255 0.323922 0.382793
-15.35795 7.301562 20.48846 0.8850472 0.372406 -0.279294 203 160 98 255 0.323774 0.382409
-20.39344 9.501562 17.55795 -0.2225278 0.9196094 -0.3237282 203 160 98 255 0.323827 0.382818
-20.39344 9.501562 20.33062 -0.2920414 0.905959 0.3065129 203 160 98 255 0.323304 0.382718
-17.55795 9.501562 20.33062 0.4051763 0.9115292 0.07033267 203 160 98 255 0.323682 0.382426
6.018047 6.242347 21.69588 -0.003343072 0.6915908 0.7222818 97 92 89 255 0.274948 0.348124
-2.150193 1.873975 21.69588 0.0009192054 -0.5716161 0.8205208 97 92 89 255 0.274925 0.348281
21.69588 1.350137 21.69588 0.3944737 -0.5801413 0.7126195 97 92 89 255 0.274997 0.348215
21.69588 6.766185 21.69588 0.6580683 0.6688632 0.3457863 97 92 89 255 0.274996 0.348092
-9.472562 -1.664993 9.472562 0.4267693 0.7973306 -0.4267692 97 92 89 255 0.275169 0.348332
9.472562 -1.664993 9.472562 -0.4137967 0.8865469 -0.2068982 97 92 89 255 0.275203 0.348277
9.472562 -1.664991 -0 -1.303779e-08 1.882894e-07 -1 97 92 89 255 0.275576 0.348371
-9.472562 -1.664991 -0 0.3153152 0.948987 2.051939e-07 97 92 89 255 0.275575 0.348334
21.69588 1.350141 0 0.8091619 -0.5875858 -1.120259e-07 97 92 89 255 0.275794 0.348219
21.69588 6.766188 1e-06 0.4082483 0.8164967 -0.4082482 97 92 89 255 0.275807 0.348084
-21.69588 1.350141 0 -0.6482143 -0.761458 -1.457305e-07 97 92 89 255 0.275861 0.34834
-21.69588 1.350137 21.69588 -0.7022969 -0.582259 0.4095772 97 92 89 255 0.274865 0.348334
-21.69588 6.766185 21.69588 -0.3263636 0.6651788 0.6715832 97 92 89 255 0.274863 0.34818
-21.69588 6.766188 1e-06 -0.7071068 0.7071068 9.980815e-08 97 92 89 255 0.275863 0.348184
-15.35795 -0.712635 15.35795 -0.1529179 -0.9711711 0.1828741 97 92 89 255 0.275021 0.348329
15.35795 -0.712635 15.35795 0.1540261 -0.9712034 0.1817691 97 92 89 255 0.275107 0.348244
-15.35795 -0.712632 -0 -0.8736928 -0.1914707 -0.4472136 203 160 98 255 0.323139 0.383198
15.35795 -0.712632 -0 0.8736928 -0.1914706 -0.4472136 203 160 98 255 0.323347 0.383179
14.23864 -5.820148 14.23864 0.6488164 -0.6512012 0.3936679 203 160 98 255 0.322677 0.383321
14.23864 -5.820146 -1e-06 0.6501802 -0.6786477 -0.3416182 203 160 98 255 0.323307 0.38333
-14.3933 -5.11441 14.3933 -0.5188603 -0.5944547 0.6143351 203 160 98 255 0.322424 0.383325
-14.23864 -5.820145 -1e-06 -0.7291059 -0.6008381 -0.3277165 203 160 98 255 0.323191 0.383324
11.93551 -10.05065 -2e-06 0.4853077 -0.8742173 0.01485118 97 92 89 255 0.275617 0.348432
12.12699 -9.528193 12.12699 0.4665482 -0.7460035 0.4751964 97 92 89 255 0.27516 0.348429
5.47805 -11.07325 5.478048 0.09182054 -0.9905834 0.1015561 97 92 89 255 0.275275 0.348452
5.47805 -11.07324 -2e-06 0.1564091 -0.9876924 -1.730803e-07 97 92 89 255 0.275492 0.348453
-11.93551 -10.05066 11.9355 -0.4330589 -0.8567451 0.2800857 97 92 89 255 0.275113 0.348518
-5.47805 -11.07325 5.478048 -0.1048443 -0.9931061 0.05242196 97 92 89 255 0.275261 0.348493
-11.93551 -10.05065 -2e-06 -0.4749168 -0.8800307 -1.445584e-07 97 92 89 255 0.275628 0.348522
-5.47805 -11.07324 -2e-06 -0.5846598 -0.3977095 -0.7071068 203 160 98 255 0.327094 0.381691
0 -19.12635 -3e-06 0 -0.9947751 -0.1020908 203 160 98 255 0.326885 0.382158
14.84868 6.766186 14.84868 -0.1487722 0.9519745 -0.2676035 97 92 89 255 0.275108 0.348104
14.84868 6.766188 1e-06 -0.4196155 0.5163985 -0.7464954 97 92 89 255 0.275661 0.348117
-14.84868 6.766186 14.84868 0.1658185 0.9756043 -0.1438769 97 92 89 255 0.275039 0.348164
-14.84868 6.766188 1e-06 0.6306304 0.7760833 1.190457e-07 97 92 89 255 0.275697 0.348167
-13.30768 -6.306722 -1e-06 -0.9389251 -0.3441215 -6.203936e-08 97 92 89 255 0.27566 0.348447
-13.30768 -6.306725 13.30768 -0.4013205 -0.4412591 0.8026409 97 92 89 255 0.275079 0.348444
13.30768 -6.306725 13.30768 0.2483005 -0.9095894 0.3331578 203 160 98 255 0.32269 0.383332
13.30768 -6.306722 -1e-06 0.9389251 -0.3441215 -7.150484e-08 97 92 89 255 0.275643 0.348357
15.35795 0.85305 22.59344 -0.6380309 -0.3097928 0.7049433 203 160 98 255 0.323824 0.383341
22.3607 0.533827 22.49609 0.4624746 -0.7538658 0.4666943 203 160 98 255 0.323335 0.383126
22.53062 7.301561 22.59344 0.6648261 0.3358848 0.6672239 203 160 98 255 0.323304 0.382718
15.35795 7.301561 22.59344 -0.4691086 0.5829333 0.6634199 203 160 98 255 0.323821 0.382935
15.35795 -0.941115 15.35795 -0.5665492 -0.6007283 -0.5640457 203 160 98 255 0.324088 0.383055
22.53062 0.853051 15.35795 0.7062824 -0.3134114 -0.6347744 203 160 98 255 0.323616 0.382751
22.53062 7.301563 15.35795 0.6634197 0.5829336 -0.4691085 203 160 98 255 0.323601 0.38234
15.35795 7.301562 20.5293 -0.8460131 0.4125397 -0.3377469 203 160 98 255 0.323922 0.382793
20.48846 7.301563 15.35795 -0.2792942 0.3724062 -0.8850471 203 160 98 255 0.323774 0.382409
17.55795 9.501562 20.39344 -0.4006178 0.9154128 0.03904741 203 160 98 255 0.323827 0.382818
20.33062 9.501562 20.39344 0.3274128 0.8863417 0.327413 203 160 98 255 0.323304 0.382718
20.33062 9.501562 17.55795 -0.1196607 0.8759778 -0.4672733 203 160 98 255 0.323682 0.382426
15.35795 -0.712635 15.35795 0.4290524 -0.2820821 0.8581047 203 160 98 255 0.322662 0.383207
-15.35795 -0.712635 15.35795 -0.6754123 -0.2960349 0.6754122 203 160 98 255 0.322385 0.383188
5.47805 -11.07324 -2e-06 0.5846598 -0.3977095 -0.7071068 203 160 98 255 0.326852 0.381759
5.47805 -11.07325 5.478048 0.509587 -0.6932839 0.5095868 203 160 98 255 0.326376 0.381596
-5.47805 -11.07325 5.478048 -0.509587 -0.6932839 0.5095868 203 160 98 255 0.327243 0.381582
-13.30768 -6.306725 13.30768 -0.4485772 -0.8459618 0.2883179 203 160 98 255 0.322457 0.383338
-13.30768 -6.306722 -1e-06 -0.3275387 -0.6266723 -0.7071069 203 160 98 255 0.323196 0.383328
-14.84868 6.766188 1e-06 2.132521e-08 1.49234e-07 -1 97 92 89 255 0.275002 0.34834
-21.69588 1.350141 0 2.128734e-08 1.577241e-07 -1 97 92 89 255 0.2749 0.3485
-21.69588 6.766188 1e-06 0 1.846365e-07 -1 97 92 89 255 0.274871 0.348383
-9.472562 -1.664991 -0 1.738372e-08 1.792402e-07 -1 97 92 89 255 0.275158 0.348494
-15.35795 -0.712632 -0 3.157528e-08 1.510319e-07 -1 97 92 89 255 0.275034 0.348508
15.35795 -0.712632 -0 -3.157527e-08 1.510319e-07 -1 97 92 89 255 0.275711 0.348306
21.69588 1.350141 0 -2.128734e-08 1.577241e-07 -1 97 92 89 255 0.275857 0.348207
-13.30768 -6.306722 -1e-06 1.513073e-08 2.228514e-07 -1 97 92 89 255 0.275106 0.34862
13.30768 -6.306722 -1e-06 -1.513073e-08 2.217233e-07 -1 97 92 89 255 0.275698 0.348458
5.47805 -11.07324 -2e-06 -2.245172e-08 2.466764e-07 -1 97 92 89 255 0.275543 0.348623
11.93551 -10.05065 -2e-06 -4.490344e-08 2.835563e-07 -1 97 92 89 255 0.27569 0.348558
-5.47805 -11.07324 -2e-06 1.496782e-08 2.343832e-07 -1 97 92 89 255 0.275297 0.348685
13.30768 -6.306722 -1e-06 0.3275382 -0.6266726 -0.7071069 203 160 98 255 0.323278 0.383343
-11.93551 -10.05065 -2e-06 4.490344e-08 2.835563e-07 -1 97 92 89 255 0.275156 0.348697
9.472562 -1.664991 -0 -0.4808089 0.8768254 1.908934e-07 97 92 89 255 0.275571 0.348279
-15.35795 -0.712632 -0 -0.309486 -0.950904 -1.863315e-07 97 92 89 255 0.275714 0.348333
-5.47805 -11.07324 -2e-06 -0.1564091 -0.9876924 -1.730803e-07 97 92 89 255 0.27549 0.348494
15.35795 -0.712632 -0 0.309486 -0.950904 -1.845243e-07 97 92 89 255 0.275677 0.348247
13.30768 -6.306725 13.30768 0.6277888 -0.4601766 0.6277887 97 92 89 255 0.275136 0.348354
3 0 2 3 
3 4 1 0 
3 5 2 1 
3 4 7 8 
3 4 5 1 
3 8 5 4 
3 0 7 4 
3 9 10 11 
3 6 8 11 
3 7 11 8 
3 7 3 9 
3 2 9 3 
3 2 11 10 
3 12 14 15 
3 17 19 16 
3 20 15 14 
3 23 25 22 
3 13 27 14 
3 22 26 23 
3 29 30 31 
3 63 32 30 
3 28 32 64 
3 34 36 37 
3 38 36 35 
3 40 39 38 
3 65 66 42 
3 66 67 42 
3 67 41 42 
3 43 12 15 
3 21 43 15 
3 25 45 46 
3 43 16 45 
3 44 17 43 
3 46 16 19 
3 27 20 14 
3 47 38 48 
3 35 48 38 
3 50 35 34 
3 49 31 30 
3 49 32 68 
3 68 33 69 
3 28 69 33 
3 42 41 65 
3 70 71 72 
3 73 74 70 
3 75 18 44 
3 44 76 75 
3 77 18 78 
3 78 18 75 
3 79 78 80 
3 81 78 79 
3 82 29 31 
3 73 77 74 
3 77 81 83 
3 51 53 54 
3 55 52 51 
3 56 53 52 
3 55 58 59 
3 55 56 52 
3 59 56 55 
3 51 58 55 
3 60 61 62 
3 57 59 62 
3 58 62 59 
3 58 54 60 
3 54 61 60 
3 57 61 53 
3 12 45 24 
3 13 24 23 
3 26 13 23 
3 0 1 2 
3 5 6 2 
3 8 6 5 
3 0 3 7 
3 7 9 11 
3 2 10 9 
3 2 6 11 
3 12 13 14 
3 17 84 19 
3 20 21 15 
3 23 24 25 
3 13 26 27 
3 22 85 26 
3 29 63 30 
3 63 64 32 
3 28 33 32 
3 34 35 36 
3 38 39 36 
3 40 86 39 
3 21 44 43 
3 25 24 45 
3 43 17 16 
3 44 84 17 
3 46 45 16 
3 27 87 20 
3 47 40 38 
3 35 88 48 
3 50 88 35 
3 49 82 31 
3 49 30 32 
3 68 32 33 
3 70 74 71 
3 44 21 76 
3 77 73 18 
3 81 77 78 
3 51 52 53 
3 56 57 53 
3 59 57 56 
3 51 54 58 
3 58 60 62 
3 54 53 61 
3 57 62 61 
3 12 43 45 
3 13 12 24 
