ply
format ascii 1.0
comment VCGLIB generated
comment TextureFile Dungeons_Texture_01.png
element vertex 327
property float x
property float y
property float z
property float nx
property float ny
property float nz
property uchar red
property uchar green
property uchar blue
property uchar alpha
property float texture_u
property float texture_v
element face 366
property list uchar int vertex_indices
end_header
27.21777 52.99051 19.81215 0.9232428 0.009344963 0.3841034 156 78 63 255 0.085903 0.820789
19.70454 56.96514 27.21778 0.3810108 -0.003725687 0.9245631 156 78 63 255 0.085881 0.820786
20.86865 34.52401 27.21778 0.3016832 0.1352115 0.9437718 156 78 63 255 0.085881 0.821189
27.21777 34.52401 20.86866 0.9129551 0.231855 0.335792 156 78 63 255 0.085903 0.821188
27.21777 34.52401 -20.86865 0.964565 0.1508195 -0.2164902 156 78 63 255 0.086046 0.821188
20.86865 34.52401 -27.21777 0.3581437 0.1574793 -0.9202898 156 78 63 255 0.08607 0.821189
20.04292 61.36453 -27.21776 0.3870211 -0.005811961 -0.9220526 156 78 63 255 0.08607 0.820787
27.21777 55.15976 -19.81214 0.9257302 0.00565634 -0.3781424 156 78 63 255 0.086047 0.820788
-27.21777 34.52401 20.86866 -0.943438 0.1337613 0.303369 156 78 63 255 0.085904 0.821199
-20.86865 34.52401 27.21778 -0.3376564 0.2286164 0.9130842 156 78 63 255 0.08588 0.821197
-19.70454 53.25043 27.21778 -0.3904404 0.009454678 0.9205797 156 78 63 255 0.08588 0.820775
-27.21777 65.40437 19.22878 -0.9272491 -0.0105567 0.3742962 156 78 63 255 0.085904 0.820773
-20.86865 34.52401 -27.21777 -0.3755934 0.1277214 -0.9179416 156 78 63 255 0.086078 0.821197
-27.21777 34.52401 -20.86865 -0.9162742 0.1873246 -0.3540494 156 78 63 255 0.086057 0.821198
-27.21777 61.34966 -19.22876 -0.9290394 0.001351659 -0.3699785 156 78 63 255 0.086057 0.820773
-20.04292 69.3208 -27.21776 -0.3947951 -0.01439635 -0.9186565 156 78 63 255 0.086079 0.820776
27.21777 85.9251 27.21779 0.7012167 -0.1288046 0.7012165 156 78 63 255 0.085881 0.820403
20.86865 82.68383 27.21779 0.2574623 -0.1936201 0.9466913 156 78 63 255 0.085881 0.820432
27.21777 82.68384 20.86867 0.9439306 -0.1409422 0.2985472 156 78 63 255 0.085902 0.820438
27.21777 30.72068 27.21778 0.8660656 0.1482623 0.4774397 156 78 63 255 0.085881 0.821205
27.21777 30.80699 -27.21777 0.6902683 0.2169319 -0.6902683 156 78 63 255 0.086068 0.821205
27.21777 87.37528 -27.21776 0.7029901 -0.107748 -0.7029903 156 78 63 255 0.086069 0.820404
27.21777 82.68384 -20.86864 0.8850086 -0.1682222 -0.4341211 156 78 63 255 0.086047 0.820437
20.86865 82.68385 -27.21776 0.2252557 -0.1329585 -0.9651849 156 78 63 255 0.08607 0.820435
-27.21777 30.57286 27.21778 -0.4783086 0.1455348 0.8660488 156 78 63 255 0.08588 0.821217
-27.21777 87.77449 27.21779 -0.7033684 -0.1026929 0.7033683 156 78 63 255 0.085881 0.820362
-27.21777 82.68384 20.86867 -0.9471577 -0.162872 0.2763425 156 78 63 255 0.085904 0.8204
-20.86865 82.68383 27.21779 -0.3720811 -0.1420158 0.9172716 156 78 63 255 0.08588 0.820403
-27.21777 28.88981 -27.21777 -0.7038181 0.09633357 -0.7038181 156 78 63 255 0.08608 0.821216
-27.21777 87.86619 -27.21776 -0.7034492 -0.1015782 -0.7034494 156 78 63 255 0.086081 0.820364
-20.86865 82.68385 -27.21776 -0.350541 -0.1973013 -0.9155289 156 78 63 255 0.086079 0.820406
-27.21777 82.68384 -20.86864 -0.9222375 -0.1399067 -0.3604222 156 78 63 255 0.086057 0.8204
-12.1333 70.59846 30.9253 -5.38351e-09 -1.767947e-07 1 156 78 63 255 0.048618 0.849959
11.81523 69.86921 30.9253 -2.061227e-08 -1.640002e-07 1 156 78 63 255 0.049197 0.850127
-0.318067 82.00126 30.92531 -4.937689e-09 -1.621539e-07 1 156 78 63 255 0.048971 0.84994
11.42318 42.45324 30.9253 -3.387187e-08 -1.581849e-07 1 156 78 63 255 0.049197 0.850127
-10.73526 50.62908 30.9253 -3.581498e-08 -1.556126e-07 1 156 78 63 255 0.048618 0.849959
-12.1333 23.2986 30.9253 -2.527291e-08 -1.680719e-07 1 156 78 63 255 0.048618 0.849959
12.1333 23.2986 30.9253 0 -1.991526e-07 1 156 78 63 255 0.049197 0.850127
-15.18555 71.86282 27.21778 -0.6524981 0.270097 0.7080212 145 145 145 255 0.048618 0.685951
0 87.04679 27.21779 -0.01794582 0.5927775 0.8051664 145 145 145 255 0.048971 0.685933
15.18555 71.86282 27.21778 0.5968413 0.3413693 0.7261181 145 145 145 255 0.049197 0.686119
15.18555 47.16457 27.21778 0.7169217 -0.003377219 0.6971455 145 145 145 255 0.049197 0.686119
15.18555 23.2986 27.21778 0.7378787 0.01432561 0.6747813 145 145 145 255 0.049197 0.686119
-15.18555 23.2986 27.21778 -0.7720329 -9.985154e-08 0.6355826 145 145 145 255 0.048618 0.685951
-15.18555 47.16457 27.21778 -0.6915576 0.011209 0.7222343 145 145 145 255 0.048618 0.685951
30.92529 70.59846 12.13331 1 0 0 156 78 63 255 0.048618 0.849959
30.92529 70.59846 -12.13329 1 0 0 156 78 63 255 0.049197 0.850127
30.92529 81.5834 1.411557 1 0 0 156 78 63 255 0.048971 0.84994
30.92529 42.06454 -10.56534 1 0 0 156 78 63 255 0.049197 0.850127
30.92529 37.07775 11.16919 1 0 0 156 78 63 255 0.048618 0.849959
30.92529 23.2986 12.1333 1 0 0 156 78 63 255 0.048618 0.849959
30.92529 23.2986 -12.1333 1 0 0 156 78 63 255 0.049197 0.850127
27.21777 71.86282 15.18556 0.6540704 0.3809755 0.6534902 145 145 145 255 0.048618 0.685951
27.21777 87.0468 1.4e-05 0.8158717 0.5732433 0.07579949 145 145 145 255 0.048971 0.685933
27.21777 71.86282 -15.18554 0.7436522 0.2632124 -0.6145735 145 145 145 255 0.049197 0.686119
27.21777 39.22015 -15.18554 0.7292385 0.01804325 -0.6840217 145 145 145 255 0.049197 0.686119
27.21777 23.29861 -15.18554 0.6355825 1.387306e-07 -0.772033 145 145 145 255 0.049197 0.686119
27.21777 23.2986 15.18555 0.6865743 0.0270426 0.7265565 145 145 145 255 0.048618 0.685951
27.21777 39.22014 15.18555 0.7013316 -0.006569082 0.7128049 145 145 145 255 0.048618 0.685951
-30.92529 70.59846 -12.13329 -1 0 0 156 78 63 255 0.048618 0.849959
-30.92529 70.59846 12.13331 -1 0 0 156 78 63 255 0.049197 0.850127
-30.92529 82.13204 1.013679 -1 0 0 156 78 63 255 0.048971 0.84994
-30.92529 53.82349 11.38664 -1 0 0 156 78 63 255 0.049197 0.850127
-30.92529 62.20478 -11.38662 -0.6891778 -0.01581335 -0.7244197 145 145 145 255 0.048618 0.685951
-30.92529 23.2986 -12.1333 -1 0 0 156 78 63 255 0.048618 0.849959
-30.92529 23.2986 12.1333 -1 0 0 156 78 63 255 0.049197 0.850127
-27.21777 71.86282 -15.18554 -0.7001827 0.3679249 -0.6118623 145 145 145 255 0.048618 0.685951
-27.21777 87.0468 1.4e-05 -0.7911783 0.6088198 0.05809846 145 145 145 255 0.048971 0.685933
-27.21777 71.86282 15.18556 -0.6494515 0.3823845 0.6572632 145 145 145 255 0.049197 0.686119
-27.21777 62.41592 15.18556 -0.6769264 -0.01091712 0.7359698 145 145 145 255 0.049197 0.686119
-27.21777 23.2986 15.18555 -0.6765972 0.009454906 0.7362926 145 145 145 255 0.049197 0.686119
-27.21777 23.29861 -15.18554 -0.6766074 0.007418699 -0.7363065 145 145 145 255 0.048618 0.685951
-27.21777 62.41592 -15.18554 -0.6891136 -0.02075808 -0.724356 145 145 145 255 0.048618 0.685951
11.6222 69.99679 -30.92528 8.244093e-09 1.707772e-07 -1 156 78 63 255 0.048618 0.849959
-12.1333 70.59847 -30.92528 4.38741e-09 1.732222e-07 -1 156 78 63 255 0.049197 0.850127
0 82.73052 -30.92528 3.883619e-09 1.533317e-07 -1 156 78 63 255 0.048971 0.84994
10.5755 35.6039 -30.92529 5.68674e-09 1.579523e-07 -1 156 78 63 255 0.048618 0.849959
-11.25166 60.69927 -30.92528 7.317139e-09 1.706557e-07 -1 156 78 63 255 0.049197 0.850127
15.18555 71.86283 -27.21776 0.613288 0.3490447 -0.7085518 145 145 145 255 0.048618 0.685951
0 87.04681 -27.21776 0 0.6515861 -0.7585747 145 145 145 255 0.048971 0.685933
-15.18555 71.86283 -27.21776 -0.6468707 0.3789595 -0.6617764 145 145 145 255 0.049197 0.686119
-15.18555 63.97852 -27.21776 -0.7246194 -0.02117516 -0.6888239 145 145 145 255 0.049197 0.686119
15.18555 35.05421 -27.21777 0.6902345 0.01526454 -0.7234247 145 145 145 255 0.048618 0.685951
-27.21777 23.2986 27.21778 1.49578e-08 1 2.798789e-07 145 145 145 255 0.08588 0.657237
27.21777 23.2986 27.21778 0.4472136 -2.321878e-07 0.8944272 156 78 63 255 0.085881 0.821231
-30.92529 23.29859 30.9253 -1.098087e-07 1 4.046454e-07 145 145 145 255 0.08588 0.657237
30.92529 23.29859 30.9253 0.4472136 -5.500249e-07 0.8944272 156 78 63 255 0.085881 0.821231
-4.431904 17.09529 30.92529 0.004675312 0.3576249 0.9338536 156 78 63 255 0.085882 0.82125
30.92529 17.09529 30.92529 0.6624339 0.5590574 0.4986344 156 78 63 255 0.085881 0.821242
9.962861 11.17212 35.53072 -0.003614564 0.3524074 0.9358397 156 78 63 255 0.085881 0.821255
35.53072 12.84335 35.53072 0.5900469 0.522508 0.6154917 156 78 63 255 0.085881 0.82125
-35.53072 12.84335 25.5449 -0.9223092 0.3743002 0.09615126 156 78 63 255 0.085895 0.821264
-35.53072 6.230006 35.53072 -0.7937206 0.2064247 0.5721858 156 78 63 255 0.08588 0.821277
-31.72002 12.84335 35.53072 -0.3248237 0.4737859 0.8185453 156 78 63 255 0.08588 0.821263
-35.53072 -6e-06 35.53072 -0.5345227 -0.2672613 0.8017836 156 78 63 255 0.08588 0.821289
-35.53072 6e-06 -35.53072 -0.5773503 -0.5773502 -0.5773504 156 78 63 255 0.08608 0.821288
35.53072 6e-06 -35.53072 0.5345221 -0.2672612 -0.801784 156 78 63 255 0.086068 0.821272
35.53072 -6e-06 35.53072 0.5773503 -0.5773504 0.5773502 156 78 63 255 0.085881 0.821273
-35.53072 12.84336 -35.53071 -0.5918233 0.5231723 -0.6132178 156 78 63 255 0.08608 0.821264
-13.37717 11.63396 -35.53072 0.003110867 0.4195973 -0.9077051 156 78 63 255 0.086076 0.821259
-30.92529 17.0953 -30.92529 -0.6625493 0.5648732 -0.4918809 156 78 63 255 0.08608 0.821256
-15.93203 17.0953 -30.92529 -2.074466e-08 0.2738057 -0.9617851 156 78 63 255 0.086077 0.821252
-30.92529 23.2986 -30.92529 -0.4472136 -1.375062e-07 -0.8944272 156 78 63 255 0.08608 0.821244
-27.21777 23.2986 -27.21777 -0.7071068 0 -0.7071068 156 78 63 255 0.08608 0.821244
27.21777 23.2986 -27.21777 1.121834e-08 1 3.385227e-07 145 145 145 255 0.086068 0.657223
30.92529 23.2986 -30.92529 -1.64713e-07 1 3.497411e-07 145 145 145 255 0.086068 0.657223
-8.311283 109.2554 -27.21776 -2.518054e-08 2.199494e-07 -1 156 78 63 255 0.086076 0.820319
8.311283 109.2554 -27.21776 1.688461e-08 2.76845e-07 -1 156 78 63 255 0.086072 0.820334
8.311283 112.0088 -30.92527 0.6176034 -0.6391583 -0.4583041 145 145 145 255 0.086073 0.656326
-8.311283 111.302 -30.92527 -0.486173 -0.7329695 -0.4758063 145 145 145 255 0.086076 0.656313
9.187161 105.8035 -9.187144 -0.397817 0.8267304 0.397817 145 145 145 255 0.086068 0.656327
-9.187161 105.8035 -9.187144 0.397817 0.8267304 0.397817 145 145 145 255 0.08608 0.656283
-9.187161 105.8035 9.187179 0.397817 0.8267305 -0.397817 145 145 145 255 0.08588 0.656281
9.187161 105.8035 9.187179 -0.397817 0.8267305 -0.397817 145 145 145 255 0.085881 0.656326
-10.68559 115.3225 30.92531 -6.47142e-09 -1.605924e-07 1 156 78 63 255 0.08588 0.820316
5.934283 123.3419 30.92531 0.01026316 0.4354169 0.9001704 156 78 63 255 0.085881 0.820319
-8.027341 126.0906 30.92531 0.04710869 0.7702913 0.6359497 156 78 63 255 0.08588 0.820305
-30.92529 126.0906 30.92531 -0.5773504 0.5773501 0.5773503 156 78 63 255 0.08588 0.820289
8.311283 109.2553 27.21779 0.3081378 -0.7619326 0.5696577 145 145 145 255 0.085881 0.656325
8.311283 112.0756 30.92531 0.6108864 -0.6346558 0.473318 145 145 145 255 0.085881 0.656324
-8.311283 111.9528 30.92531 -0.4544694 -0.7362164 0.5014411 145 145 145 255 0.08588 0.656312
-8.311283 109.2553 27.21779 -0.4695095 -0.7139566 0.5194486 145 145 145 255 0.08588 0.656311
30.92529 17.09531 -30.92529 0.4414704 0.6756081 -0.5904724 156 78 63 255 0.086068 0.821242
35.53072 12.84336 -19.30926 0.91111 0.4118704 -0.01553675 156 78 63 255 0.086026 0.821249
32.53411 15.60997 -32.53411 0.6886266 0.6810195 -0.2490097 156 78 63 255 0.086067 0.821244
35.53072 9.353202 -35.53072 0.8750671 0.2976663 -0.3816442 156 78 63 255 0.086068 0.821255
-30.92529 17.09529 30.92529 -0.6661128 0.5232791 0.5314817 156 78 63 255 0.085884 0.821256
-27.21777 109.2554 9.129308 -0.5458643 -0.7822081 0.3003042 145 145 145 255 0.085947 0.656296
-27.21777 109.2554 -9.129272 -1 0 0 156 78 63 255 0.086014 0.820304
-30.92529 111.6523 -9.129272 -0.4954225 -0.7404768 -0.4541482 145 145 145 255 0.086009 0.656297
-30.92529 111.9667 9.129308 -0.456061 -0.6718216 0.5836645 145 145 145 255 0.085951 0.656296
30.92529 126.0906 -30.92527 0.4850712 0.727607 -0.485071 156 78 63 255 0.086068 0.820335
30.92529 126.0906 30.92531 0.7276069 0.4850711 0.4850714 156 78 63 255 0.085881 0.820333
30.92529 115.8446 11.7373 0.5191448 -0.7978252 0.3065349 145 145 145 255 0.085939 0.656339
30.92529 116.2334 -11.73726 1 0 0 156 78 63 255 0.086011 0.820347
27.21777 109.2554 -9.129272 0.4453913 -0.7657727 -0.4639169 145 145 145 255 0.086006 0.656341
30.92529 111.4117 -9.129272 0.4688645 -0.7502623 -0.4661252 145 145 145 255 0.086002 0.656341
30.92529 111.667 9.129308 0.4294251 -0.6737552 0.6013719 145 145 145 255 0.085947 0.65634
27.21777 109.2554 9.129308 0.5038185 -0.8083115 0.3046302 145 145 145 255 0.085943 0.65634
10.68559 113.6093 -27.21775 0 4.380739e-07 -1 156 78 63 255 0.086072 0.820336
27.21777 113.6093 -27.21775 0.7071068 2.31998e-07 -0.7071068 156 78 63 255 0.086068 0.820348
27.21777 113.6093 -11.73726 0.4398407 -0.6540568 -0.6154267 145 145 145 255 0.086015 0.656341
27.21777 113.6093 27.21779 0.7071068 -2.279585e-07 0.7071068 156 78 63 255 0.085881 0.820347
10.68559 113.6093 27.21779 0.6095157 -0.6432711 0.4633498 145 145 145 255 0.085881 0.656327
-27.21777 113.6093 -11.73726 -1 0 0 156 78 63 255 0.086023 0.820304
-27.21777 113.6093 -27.21775 -0.7071068 2.072732e-07 -0.7071068 156 78 63 255 0.08608 0.820305
30.92529 116.4509 -30.92527 0.340518 -0.8791723 -0.333322 145 145 145 255 0.086068 0.656341
30.92529 116.4346 30.92531 0.3278948 -0.8802771 0.3429245 145 145 145 255 0.085881 0.65634
10.68559 116.2274 30.92531 0.3061029 -0.7712346 0.5581202 145 145 145 255 0.085881 0.656324
-30.92529 115.9374 -11.73726 -0.4960159 -0.8161946 -0.2963015 145 145 145 255 0.086018 0.656295
-30.92529 115.7007 -30.92527 -0.2504257 -0.9287148 -0.2734517 145 145 145 255 0.08608 0.656297
-10.68559 116.5347 -30.92527 -0.315826 -0.7730045 -0.5501981 145 145 145 255 0.086076 0.656309
-10.68559 113.6093 -27.21775 -0.6463966 -0.6185628 -0.446712 145 145 145 255 0.086077 0.65631
-10.68559 113.6093 27.21779 -0.5990077 -0.7090596 0.3720542 145 145 145 255 0.08588 0.656309
-30.92529 116.3687 30.92531 -0.3350755 -0.8849 0.3235373 145 145 145 255 0.08588 0.656296
-27.21777 113.6093 27.21779 -0.2960266 -0.9154596 0.2725839 145 145 145 255 0.08588 0.656296
-27.21777 113.6093 11.73729 -0.4190228 -0.6983668 0.5802618 145 145 145 255 0.085937 0.656296
-30.92529 115.6692 11.7373 -0.4983097 -0.8154523 0.2944912 145 145 145 255 0.085942 0.656295
27.21777 113.6093 11.73729 0.419861 -0.6822034 0.5985945 145 145 145 255 0.085934 0.65634
-30.92529 126.0906 -14.18704 -0.6639886 0.7452884 -0.06053422 156 78 63 255 0.086026 0.82029
-30.92529 119.921 -30.92527 -0.7020414 0.2451557 -0.668608 156 78 63 255 0.08608 0.820298
10.68559 116.0214 -30.92527 0.3080784 -0.7843944 -0.538343 145 145 145 255 0.086072 0.656325
-18.70753 126.0906 -30.92527 -0.08403251 0.7551815 -0.6501073 156 78 63 255 0.086089 0.820297
-18.99942 126.0906 -18.9994 0.5836341 0.5645729 0.5836341 145 145 145 255 0.08608 0.656283
18.99942 126.0906 -18.9994 -2.132448e-07 1 4.264897e-07 156 78 63 255 0.086068 0.820335
-18.99942 126.0906 18.99944 -8.717514e-08 1 3.132655e-07 156 78 63 255 0.08588 0.820289
6.647975 126.0906 24.33778 0.008792642 0.9876233 0.1565984 156 78 63 255 0.085881 0.820319
18.99942 126.0906 18.99944 -1.058535e-07 1 6.182005e-07 156 78 63 255 0.085881 0.820333
15.18555 23.29861 -27.21777 0.772033 1.013582e-07 -0.6355826 145 145 145 255 0.048618 0.685951
12.1333 23.29861 -30.92529 0.7052308 0.04013383 -0.7078409 145 145 145 255 0.048618 0.685951
-12.1333 23.29861 -30.92529 5.513793e-10 1.539847e-07 -1 156 78 63 255 0.049197 0.850127
-15.18555 23.29861 -27.21777 -0.7303668 0.009116665 -0.6829944 145 145 145 255 0.049197 0.686119
29.0416 94.69421 -29.04159 0.478343 -0.7350454 -0.4805166 145 145 145 255 0.086068 0.656368
29.0416 93.90924 -9.797766 0.9263668 -0.2125973 0.3108809 145 145 145 255 0.086006 0.656368
27.21777 92.31503 -6.346677 0.8986662 -0.2540601 0.3575647 145 145 145 255 0.086011 0.656368
27.21777 92.31504 -27.21776 0.4265357 -0.7933424 -0.4343675 145 145 145 255 0.086068 0.656368
9.797781 93.90923 29.04162 -0.395313 -0.2077987 0.8947331 145 145 145 255 0.085881 0.656353
6.453281 91.88818 27.21779 -0.3834659 -0.1824364 0.9053568 145 145 145 255 0.085881 0.656354
27.21777 92.31503 27.21779 0.4246586 -0.8144323 0.3954305 145 145 145 255 0.085881 0.656367
29.0416 93.90923 29.04162 0.3834965 -0.8505145 0.3599383 145 145 145 255 0.085881 0.656367
-29.0416 93.90924 -9.797766 -0.894366 -0.2524549 0.3692913 145 145 145 255 0.086014 0.656326
-29.0416 93.90925 -29.04159 -0.7071068 1.250964e-07 -0.7071068 156 78 63 255 0.08608 0.820334
-27.21777 92.31504 -27.21776 -0.3717688 -0.8506325 -0.3717691 145 145 145 255 0.08608 0.656327
-27.21777 92.31503 -6.346677 -0.8986662 -0.2540601 0.3575647 145 145 145 255 0.086018 0.656326
6.5392 92.31504 -27.21776 -0.3220488 -0.2432352 -0.9149433 145 145 145 255 0.086072 0.656356
10.43846 94.01276 -29.04159 -0.3540206 -0.1972282 -0.9142048 145 145 145 255 0.086072 0.656355
29.0416 104.6905 -29.04158 0.7071068 1.349195e-07 -0.7071068 156 78 63 255 0.086068 0.820362
29.0416 104.4811 -17.09728 1 0 0 156 78 63 255 0.086006 0.820362
29.0416 104.179 29.04162 0.4605542 0.7591586 0.4599654 145 145 145 255 0.085881 0.656354
16.7749 104.6905 29.04162 -3.872111e-09 -1.813186e-07 1 156 78 63 255 0.085881 0.820347
-29.0416 104.6905 -16.45441 -1 0 0 156 78 63 255 0.086014 0.820319
-29.0416 104.6905 -29.04158 -0.389133 0.8349559 -0.3891326 145 145 145 255 0.08608 0.656312
16.7749 104.6905 -29.04158 -3.344315e-09 1.867011e-07 -1 156 78 63 255 0.086072 0.820348
15.86697 106.3905 -27.21776 -0.4078168 0.5131041 -0.7552547 145 145 145 255 0.086071 0.656342
27.21777 106.3905 -27.21776 0.4057372 0.8274117 -0.3882877 145 145 145 255 0.086068 0.656355
27.21777 106.3905 -15.27863 0.7994332 0.479891 0.3614016 145 145 145 255 0.08602 0.656353
27.21777 106.3905 27.21779 0.4252511 0.7991061 0.4249599 145 145 145 255 0.085881 0.656354
15.86697 106.3905 27.21779 -0.4339966 0.5395498 0.7214797 145 145 145 255 0.085881 0.656341
-27.21777 106.3905 -15.27863 -0.7578477 0.5113323 0.4052236 145 145 145 255 0.086029 0.65631
-27.21777 106.3905 -27.21776 -0.389133 0.8349559 -0.3891326 145 145 145 255 0.08608 0.656312
-9.797781 93.90925 -29.04159 0.3952763 -0.2355541 -0.8878462 145 145 145 255 0.086076 0.65634
-6.5392 92.31504 -27.21776 0.3834686 -0.2372921 -0.8925493 145 145 145 255 0.086076 0.65634
-16.7749 104.6905 -29.04158 0 1.76913e-07 -1 156 78 63 255 0.086076 0.820333
-15.86697 106.3905 -27.21776 0.4245091 0.5358517 -0.7298322 145 145 145 255 0.086077 0.65632
-29.0416 104.6905 29.04162 -0.3891326 0.8349559 0.389133 145 145 145 255 0.08588 0.656311
-16.7749 104.6905 29.04162 0.2279815 0.6530395 0.7221938 145 145 145 255 0.08588 0.656325
-15.86697 106.3905 27.21779 0.4065229 0.5102795 0.7578615 145 145 145 255 0.08588 0.656318
-27.21777 106.3905 27.21779 -0.3891326 0.8349559 0.389133 145 145 145 255 0.08588 0.656311
-29.0416 93.90923 29.04162 -0.7071068 -1.267618e-07 0.7071068 156 78 63 255 0.08588 0.820333
-10.71764 94.32692 29.04162 0.3672258 -0.2216251 0.9033425 145 145 145 255 0.08588 0.656339
-27.21777 92.31503 27.21779 -0.3718476 -0.8362053 0.4031006 145 145 145 255 0.08588 0.656325
-6.5392 92.31503 27.21779 0.3079807 -0.202968 0.9294901 145 145 145 255 0.08588 0.656338
29.0416 94.55884 10.99507 0.9127854 -0.2253005 -0.3406794 145 145 145 255 0.085943 0.656368
27.21777 92.31503 6.346707 0.9414026 -0.1948337 -0.2753198 145 145 145 255 0.085939 0.656368
-29.0416 93.90924 9.797796 -0.8943661 -0.2524544 -0.3692915 145 145 145 255 0.085946 0.656326
-27.21777 92.31503 6.346707 -0.8986663 -0.2540596 -0.3575649 145 145 145 255 0.085942 0.656326
-29.0416 104.6905 16.45444 -1 0 0 156 78 63 255 0.085946 0.820318
-27.21777 106.3905 15.27866 -0.7578477 0.5113326 -0.4052233 145 145 145 255 0.085932 0.656309
29.0416 104.6905 16.45444 0.7647305 0.6089305 -0.2106917 145 145 145 255 0.085943 0.656354
27.21777 106.3905 15.27866 0.7865763 0.4824231 -0.3854422 145 145 145 255 0.085928 0.656352
33.66711 12.84336 -35.53071 0.211655 0.4761978 -0.8534857 156 78 63 255 0.086069 0.82125
24.72514 126.0906 30.92531 -0.03575305 0.7760136 0.629702 156 78 63 255 0.085881 0.820329
-0.318067 82.00126 30.92531 -0.0216824 0.6038731 0.7967855 145 145 145 255 0.048971 0.685933
11.42318 42.45324 30.9253 0.728196 0.006168048 0.6853413 145 145 145 255 0.049197 0.686119
-12.1333 23.2986 30.9253 -0.7161156 0.01681334 0.6977792 145 145 145 255 0.048618 0.685951
30.92529 81.5834 1.411557 0.7783885 0.6254148 0.0544767 145 145 145 255 0.048971 0.685933
30.92529 23.2986 -12.1333 0.7020532 0.02706199 -0.7116102 145 145 145 255 0.049197 0.686119
30.92529 37.07775 11.16919 0.7013314 0.01145201 0.7127433 145 145 145 255 0.048618 0.685951
-30.92529 82.13204 1.013679 -0.7700092 0.6367346 0.04068109 145 145 145 255 0.048971 0.685933
-30.92529 53.82349 11.38664 -0.676962 -0.004616947 0.7360036 145 145 145 255 0.049197 0.686119
0 82.73052 -30.92528 -0.01077498 0.6243753 -0.7810502 145 145 145 255 0.048971 0.685933
-12.1333 70.59847 -30.92528 -0.7073064 0.1681365 -0.6866205 145 145 145 255 0.049197 0.686119
11.6222 69.99679 -30.92528 0.6376577 0.1532761 -0.7549167 145 145 145 255 0.048618 0.685951
27.21777 23.2986 27.21778 1.247665e-07 1 3.896876e-07 145 145 145 255 0.085881 0.657223
-30.92529 23.29859 30.9253 -0.7071068 -3.261247e-07 0.7071068 156 78 63 255 0.08588 0.821244
-30.92529 23.2986 -30.92529 1.121835e-08 1 3.385227e-07 145 145 145 255 0.08608 0.657236
8.311283 109.2554 -27.21776 0.3193606 -0.7893505 -0.5243421 145 145 145 255 0.086072 0.656327
27.21777 23.2986 -27.21777 0.7071068 8.981289e-08 -0.7071068 156 78 63 255 0.086068 0.82123
30.92529 23.29859 30.9253 1.495779e-08 1 2.798789e-07 145 145 145 255 0.085881 0.657223
30.92529 23.2986 -30.92529 0.7071068 2.344109e-14 -0.7071068 156 78 63 255 0.086068 0.82123
-27.21777 23.2986 27.21778 -0.8944272 -1.172616e-07 0.4472136 156 78 63 255 0.08588 0.821244
27.21777 109.2554 -9.129272 1 0 0 156 78 63 255 0.086006 0.820348
8.311283 109.2553 27.21779 -1.776166e-08 -2.694242e-07 1 156 78 63 255 0.085881 0.820333
30.92529 116.2334 -11.73726 0.5579117 -0.7683964 -0.3135307 145 145 145 255 0.086011 0.656339
27.21777 113.6093 -27.21775 0.3276945 -0.8906378 -0.3152469 145 145 145 255 0.086068 0.656341
27.21777 113.6093 27.21779 0.3039997 -0.8944333 0.3279839 145 145 145 255 0.085881 0.65634
-27.21777 113.6093 -27.21775 -0.2710126 -0.9124819 -0.3064784 145 145 145 255 0.08608 0.656297
-27.21777 113.6093 -11.73726 -0.4275439 -0.6755441 -0.600705 145 145 145 255 0.086023 0.656297
-10.68559 115.3225 30.92531 -0.3045895 -0.8363713 0.4557503 145 145 145 255 0.08588 0.656308
-27.21777 113.6093 27.21779 -0.7071068 -2.331897e-07 0.7071068 156 78 63 255 0.08588 0.820303
-8.311283 109.2553 27.21779 1.100489e-08 -2.488746e-07 1 156 78 63 255 0.08588 0.820318
-10.68559 113.6093 27.21779 0 -4.380739e-07 1 156 78 63 255 0.08588 0.820316
-27.21777 109.2554 9.129308 -1 0 0 156 78 63 255 0.085947 0.820304
27.21777 109.2554 9.129308 1 0 0 156 78 63 255 0.085943 0.820348
27.21777 113.6093 11.73729 1 0 0 156 78 63 255 0.085934 0.820348
-30.92529 115.9374 -11.73726 -1 0 0 156 78 63 255 0.086018 0.820303
-30.92529 115.6692 11.7373 -1 0 0 156 78 63 255 0.085942 0.820302
-8.311283 109.2554 -27.21776 -0.4854321 -0.7654007 -0.4225132 145 145 145 255 0.086076 0.656312
10.68559 113.6093 -27.21775 0.6096391 -0.6573105 -0.4430384 145 145 145 255 0.086072 0.656329
-10.68559 113.6093 -27.21775 0 4.380739e-07 -1 156 78 63 255 0.086077 0.820317
-30.92529 115.7007 -30.92527 -0.7071068 0 -0.7071068 156 78 63 255 0.08608 0.820305
-30.92529 111.9667 9.129308 -1 0 0 156 78 63 255 0.085951 0.820304
-30.92529 116.3687 30.92531 -0.7071068 -1.387288e-07 0.7071068 156 78 63 255 0.08588 0.820303
10.68559 116.2274 30.92531 8.131225e-09 -1.493112e-07 1 156 78 63 255 0.085881 0.820332
-8.311283 111.9528 30.92531 0 0 1 156 78 63 255 0.08588 0.820319
8.311283 112.0756 30.92531 0 0 1 156 78 63 255 0.085881 0.820332
30.92529 116.4346 30.92531 0.7071068 -1.396756e-07 0.7071068 156 78 63 255 0.085881 0.820347
30.92529 115.8446 11.7373 1 0 0 156 78 63 255 0.085939 0.820346
30.92529 111.667 9.129308 1 0 0 156 78 63 255 0.085947 0.820348
30.92529 111.4117 -9.129272 1 0 0 156 78 63 255 0.086002 0.820348
30.92529 116.4509 -30.92527 0.7071068 1.399117e-07 -0.7071068 156 78 63 255 0.086068 0.820348
10.68559 116.0214 -30.92527 1.734158e-10 1.47749e-07 -1 156 78 63 255 0.086072 0.820333
8.311283 112.0088 -30.92527 0 0 -1 156 78 63 255 0.086073 0.820333
-10.68559 116.5347 -30.92527 8.748982e-09 8.718446e-08 -1 156 78 63 255 0.086076 0.820317
18.99942 126.0906 -18.9994 -0.5836341 0.5645729 0.5836342 145 145 145 255 0.086068 0.656327
-18.99942 126.0906 18.99944 0.583634 0.564573 -0.583634 145 145 145 255 0.08588 0.656281
18.99942 126.0906 18.99944 -0.583634 0.564573 -0.583634 145 145 145 255 0.085881 0.656326
11.81523 69.86921 30.9253 0.6705806 0.1671478 0.722761 145 145 145 255 0.049197 0.686119
-10.73526 50.62908 30.9253 -0.6949841 -0.007066566 0.7189904 145 145 145 255 0.048618 0.685951
-30.92529 70.59846 12.13331 -0.6769935 0.174006 0.7151235 145 145 145 255 0.049197 0.686119
-30.92529 62.20478 -11.38662 -1 0 0 156 78 63 255 0.048618 0.849959
-30.92529 70.59846 -12.13329 -0.6926019 0.1843583 -0.6973627 145 145 145 255 0.048618 0.685951
-11.25166 60.69927 -30.92528 -0.7246966 -0.01510109 -0.6889026 145 145 145 255 0.049197 0.686119
30.92529 42.06454 -10.56534 0.726815 0.003723795 -0.6868232 145 145 145 255 0.049197 0.686119
30.92529 70.59846 12.13331 0.6947422 0.1798931 0.6963991 145 145 145 255 0.048618 0.685951
29.0416 94.69421 -29.04159 0.7071068 1.320177e-07 -0.7071068 156 78 63 255 0.086068 0.820376
29.0416 93.90923 29.04162 0.7071068 -1.282116e-07 0.7071068 156 78 63 255 0.085881 0.820375
9.797781 93.90923 29.04162 0 -1.76913e-07 1 156 78 63 255 0.085881 0.820361
-29.0416 93.90924 -9.797766 -1 0 0 156 78 63 255 0.086014 0.820334
16.7749 104.6905 -29.04158 -0.2264708 0.6537076 -0.7220647 145 145 145 255 0.086072 0.65634
29.0416 104.6905 -29.04158 0.3946889 0.83493 -0.3835526 145 145 145 255 0.086068 0.656355
29.0416 104.4811 -17.09728 0.7761217 0.60729 0.169806 145 145 145 255 0.086006 0.656354
16.7749 104.6905 29.04162 -0.2082353 0.6287298 0.7492242 145 145 145 255 0.085881 0.656339
-29.0416 104.6905 -16.45441 -0.7353649 0.644866 0.2082942 145 145 145 255 0.086014 0.656311
-29.0416 93.90925 -29.04159 -0.3717688 -0.8506325 -0.3717691 145 145 145 255 0.08608 0.656327
-29.0416 104.6905 -29.04158 -0.7071068 1.250964e-07 -0.7071068 156 78 63 255 0.08608 0.820319
-16.7749 104.6905 -29.04158 0.2177119 0.6575411 -0.7212775 145 145 145 255 0.086076 0.656326
-16.7749 104.6905 29.04162 2.070013e-09 -1.792682e-07 1 156 78 63 255 0.08588 0.820332
-29.0416 104.6905 29.04162 -0.7071068 -1.250964e-07 0.7071068 156 78 63 255 0.08588 0.820318
-29.0416 93.90923 29.04162 -0.3642389 -0.8505846 0.3792571 145 145 145 255 0.08588 0.656325
-29.0416 93.90924 9.797796 -1 0 0 156 78 63 255 0.085946 0.820333
-29.0416 104.6905 16.45444 -0.7353646 0.6448664 -0.2082935 145 145 145 255 0.085946 0.656311
29.0416 104.6905 16.45444 1 0 0 156 78 63 255 0.085943 0.820361
29.0416 94.55884 10.99507 1 0 0 156 78 63 255 0.085943 0.820375
-18.99942 126.0906 -18.9994 8.690731e-08 1 4.286167e-07 156 78 63 255 0.08608 0.82029
-12.1333 70.59846 30.9253 -0.6976939 0.2661177 0.6651351 145 145 145 255 0.048618 0.685951
12.1333 23.2986 30.9253 0.7717169 0.0286097 0.6353225 145 145 145 255 0.049197 0.686119
30.92529 70.59846 -12.13329 0.6651489 0.3042838 -0.6819006 145 145 145 255 0.049197 0.686119
30.92529 23.2986 12.1333 0.6346573 0.05393968 0.770909 145 145 145 255 0.048618 0.685951
-30.92529 23.2986 12.1333 -0.6354693 0.01888113 0.7718953 145 145 145 255 0.049197 0.686119
-30.92529 23.2986 -12.1333 -0.6355128 0.01481494 -0.7719483 145 145 145 255 0.048618 0.685951
10.5755 35.6039 -30.92529 0.6286117 0.0304311 -0.7771238 145 145 145 255 0.048618 0.685951
-27.21777 23.2986 -27.21777 1.871497e-07 1 3.273043e-07 145 145 145 255 0.08608 0.657236
-27.21777 109.2554 -9.129272 -0.4826729 -0.7465748 -0.4578787 145 145 145 255 0.086014 0.656297
27.21777 113.6093 -11.73726 1 0 0 156 78 63 255 0.086015 0.820348
10.68559 113.6093 27.21779 0 -4.380739e-07 1 156 78 63 255 0.085881 0.820335
-27.21777 113.6093 11.73729 -1 0 0 156 78 63 255 0.085937 0.820304
-30.92529 111.6523 -9.129272 -1 0 0 156 78 63 255 0.086009 0.820304
-8.311283 111.302 -30.92527 0 0 -1 156 78 63 255 0.086076 0.82032
12.1333 23.29861 -30.92529 0 1.550023e-07 -1 156 78 63 255 0.048618 0.849959
-12.1333 23.29861 -30.92529 -0.7719051 0.01819612 -0.6354773 145 145 145 255 0.049197 0.686119
29.0416 93.90924 -9.797766 1 0 0 156 78 63 255 0.086006 0.820376
29.0416 104.179 29.04162 0.7071068 -1.313269e-07 0.7071068 156 78 63 255 0.085881 0.820361
10.43846 94.01276 -29.04159 -6.688629e-09 1.825973e-07 -1 156 78 63 255 0.086072 0.820362
-9.797781 93.90925 -29.04159 0 1.76913e-07 -1 156 78 63 255 0.086076 0.820348
-10.71764 94.32692 29.04162 4.140025e-09 -1.816234e-07 1 156 78 63 255 0.08588 0.820347
3 0 2 3 
3 5 7 4 
3 8 10 11 
3 12 14 15 
3 16 17 18 
3 19 3 2 
3 20 5 4 
3 21 22 23 
3 24 9 8 
3 25 26 27 
3 28 13 12 
3 29 30 31 
3 32 33 34 
3 35 37 38 
3 39 223 40 
3 223 41 40 
3 224 43 42 
3 225 45 44 
3 46 47 48 
3 50 52 49 
3 53 226 54 
3 226 55 54 
3 56 227 57 
3 58 228 59 
3 60 61 62 
3 63 65 66 
3 67 229 68 
3 229 69 68 
3 230 71 70 
3 72 64 73 
3 74 75 76 
3 74 78 75 
3 79 231 80 
3 231 81 80 
3 232 82 81 
3 83 233 79 
3 25 17 16 
3 10 2 1 
3 24 2 9 
3 24 85 19 
3 86 234 84 
3 88 87 235 
3 90 89 88 
3 92 93 94 
3 96 98 95 
3 96 100 97 
3 101 100 99 
3 101 103 102 
3 236 105 106 
3 28 5 20 
3 12 6 5 
3 23 29 21 
3 21 107 108 
3 237 110 109 
3 112 114 111 
3 115 117 118 
3 119 121 122 
3 21 18 22 
3 0 4 7 
3 19 4 3 
3 19 238 20 
3 239 105 234 
3 89 240 87 
3 123 124 125 
3 124 97 126 
3 92 96 95 
3 235 101 127 
3 84 236 86 
3 241 28 104 
3 8 28 24 
3 8 14 13 
3 26 29 31 
3 25 129 29 
3 130 128 131 
3 133 135 132 
3 137 139 136 
3 141 108 140 
3 141 242 21 
3 143 243 16 
3 146 129 145 
3 244 245 147 
3 149 246 148 
3 150 247 248 
3 152 247 151 
3 249 156 154 
3 250 251 252 
3 250 253 25 
3 158 156 155 
3 134 246 159 
3 143 254 255 
3 16 251 25 
3 160 256 257 
3 242 16 21 
3 153 110 258 
3 259 109 162 
3 121 154 122 
3 120 144 149 
3 157 131 128 
3 248 130 150 
3 138 159 139 
3 137 142 244 
3 107 146 260 
3 261 256 161 
3 256 262 257 
3 118 257 263 
3 263 115 118 
3 264 265 266 
3 264 267 133 
3 268 133 267 
3 135 269 270 
3 132 135 271 
3 271 272 132 
3 273 274 272 
3 163 165 132 
3 161 160 163 
3 166 167 168 
3 132 168 133 
3 275 112 111 
3 276 112 164 
3 276 114 113 
3 275 114 277 
3 278 42 41 
3 36 33 32 
3 279 39 45 
3 280 70 69 
3 281 61 60 
3 73 282 67 
3 170 83 169 
3 77 171 78 
3 283 172 82 
3 55 284 56 
3 46 49 47 
3 59 285 53 
3 174 176 173 
3 177 179 180 
3 181 183 184 
3 176 186 173 
3 188 286 187 
3 287 190 288 
3 191 182 289 
3 286 193 187 
3 290 195 291 
3 292 195 196 
3 293 197 198 
3 294 200 192 
3 201 183 295 
3 203 182 296 
3 297 200 204 
3 206 208 205 
3 209 298 299 
3 211 210 300 
3 213 179 214 
3 215 211 300 
3 209 217 301 
3 302 208 218 
3 219 197 189 
3 303 287 304 
3 177 198 178 
3 210 207 206 
3 194 186 185 
3 218 215 302 
3 220 213 214 
3 196 174 292 
3 204 201 297 
3 199 181 184 
3 18 1 0 
3 27 1 17 
3 11 27 26 
3 11 31 14 
3 15 31 30 
3 15 23 6 
3 6 22 7 
3 18 7 22 
3 126 221 125 
3 124 126 125 
3 94 127 92 
3 90 98 91 
3 92 101 99 
3 245 162 147 
3 238 28 20 
3 163 272 274 
3 161 274 261 
3 160 166 305 
3 163 160 305 
3 117 116 167 
3 222 264 133 
3 167 116 222 
3 168 222 133 
3 117 166 118 
3 264 116 115 
3 102 240 123 
3 221 123 125 
3 97 221 126 
3 100 123 221 
3 89 124 123 
3 98 124 91 
3 235 127 88 
3 94 88 127 
3 95 90 94 
3 94 93 95 
3 95 93 92 
3 0 1 2 
3 5 6 7 
3 8 9 10 
3 12 13 14 
3 35 36 37 
3 39 306 223 
3 223 278 41 
3 224 307 43 
3 225 279 45 
3 50 51 52 
3 53 285 226 
3 226 308 55 
3 56 284 227 
3 58 309 228 
3 63 281 65 
3 67 282 229 
3 229 280 69 
3 230 310 71 
3 72 311 64 
3 74 77 78 
3 79 233 231 
3 231 232 81 
3 232 283 82 
3 83 312 233 
3 25 27 17 
3 10 9 2 
3 24 19 2 
3 24 241 85 
3 86 239 234 
3 88 89 87 
3 90 91 89 
3 96 97 98 
3 96 99 100 
3 101 102 100 
3 236 313 105 
3 28 12 5 
3 12 15 6 
3 23 30 29 
3 21 29 107 
3 237 258 110 
3 112 113 114 
3 115 116 117 
3 119 120 121 
3 21 16 18 
3 0 3 4 
3 19 20 4 
3 19 85 238 
3 239 106 105 
3 89 123 240 
3 92 99 96 
3 235 103 101 
3 84 313 236 
3 241 24 28 
3 8 13 28 
3 8 11 14 
3 26 25 29 
3 25 253 129 
3 130 314 128 
3 133 268 135 
3 137 138 139 
3 141 21 108 
3 141 315 242 
3 143 316 243 
3 146 29 129 
3 244 142 245 
3 149 144 246 
3 150 151 247 
3 152 153 247 
3 249 155 156 
3 250 25 251 
3 250 317 253 
3 158 157 156 
3 134 148 246 
3 143 16 254 
3 16 243 251 
3 257 118 160 
3 160 161 256 
3 242 254 16 
3 153 152 110 
3 259 237 109 
3 121 249 154 
3 120 119 144 
3 157 158 131 
3 248 314 130 
3 138 134 159 
3 137 136 142 
3 107 29 146 
3 256 318 262 
3 264 115 265 
3 135 268 269 
3 273 319 274 
3 163 305 165 
3 132 165 168 
3 275 164 112 
3 276 113 112 
3 276 277 114 
3 275 111 114 
3 278 224 42 
3 36 35 33 
3 279 306 39 
3 280 230 70 
3 281 63 61 
3 73 64 282 
3 170 312 83 
3 77 320 171 
3 283 321 172 
3 55 308 284 
3 46 50 49 
3 59 228 285 
3 174 175 176 
3 177 178 179 
3 181 295 183 
3 176 185 186 
3 188 322 286 
3 287 323 190 
3 191 296 182 
3 286 324 193 
3 290 194 195 
3 292 291 195 
3 293 189 197 
3 294 199 200 
3 201 202 183 
3 203 325 182 
3 297 192 200 
3 206 207 208 
3 209 326 298 
3 211 212 210 
3 213 180 179 
3 215 216 211 
3 209 299 217 
3 302 205 208 
3 219 220 197 
3 303 323 287 
3 177 293 198 
3 210 212 207 
3 194 290 186 
3 218 216 215 
3 220 219 213 
3 196 175 174 
3 204 202 201 
3 199 294 181 
3 18 17 1 
3 27 10 1 
3 11 10 27 
3 11 26 31 
3 15 14 31 
3 15 30 23 
3 6 23 22 
3 18 0 7 
3 92 127 101 
3 245 259 162 
3 238 104 28 
3 274 161 163 
3 163 132 272 
3 160 118 166 
3 222 116 264 
3 168 167 222 
3 117 167 166 
3 102 103 240 
3 97 100 221 
3 100 102 123 
3 89 91 124 
3 98 97 124 
3 94 90 88 
3 95 98 90 
