ply
format ascii 1.0
comment INFO-3111 Flatenator generated
comment TextureFile Dungeons_Texture_01.png
element vertex 58
property float x
property float y
property float z
property float nx
property float ny
property float nz
property uchar red
property uchar green
property uchar blue
property uchar alpha
property float texture_u
property float texture_v
element face 104
property list uchar int vertex_indices
end_header
15.5439 8e-06 12.9068 0.643905 -0.763935 0.042306 42 44 47 255 0.08096 0.276285 
12.9068 7e-06 15.544 -0.189758 -0.62653 0.755944 42 44 47 255 0.081081 0.276277 
0 -11.4313 2.8297 0.0911294 -0.492837 0.865336 42 44 47 255 0.081148 0.275909 
2.82971 -11.4313 -2e-06 0.72476 -0.289095 -0.625417 42 44 47 255 0.081014 0.275917 
-2.82971 -11.4313 -2e-06 -0.667007 -0.210349 -0.714741 42 44 47 255 0.081171 0.275963 
-12.8749 7e-06 15.5758 0.173967 -0.639265 0.74905 42 44 47 255 0.081562 0.276434 
-15.5758 8e-06 12.8749 -0.642606 -0.764987 0.0430371 42 44 47 255 0.081591 0.276494 
8.69645 8e-06 11.8256 -0.761849 0.578572 0.291274 42 44 47 255 0.0811 0.276299 
0 -7.16991 3.35078 0.0971035 0.986995 0.128111 42 44 47 255 0.081158 0.275995 
3.35078 -7.16991 -1e-06 0.00687511 0.614648 -0.788772 42 44 47 255 0.081001 0.276005 
11.8428 9e-06 8.67919 0.533588 0.317315 -0.783961 42 44 47 255 0.080956 0.276309 
-9.15496 1.6e-05 12.429 0.778145 0.31157 0.545357 42 44 47 255 0.081507 0.276432 
-12.3774 1.7e-05 9.20655 -0.303717 0.585031 -0.751994 42 44 47 255 0.08154 0.276504 
-3.35078 -7.16991 -1e-06 -0.148225 0.65737 -0.738847 42 44 47 255 0.081185 0.27606 
0 -13.6517 2.8297 -0.196473 -0.118599 0.97331 42 44 47 255 0.081148 0.275909 
2.82971 -13.6517 -2e-06 0.916299 -0.0928995 -0.389572 42 44 47 255 0.081014 0.275917 
-2.82971 -13.6517 -2e-06 -0.90954 -0.138859 -0.391734 42 44 47 255 0.081171 0.275963 
0 -22.8112 -4e-06 0 -0.745483 0.666525 42 44 47 255 0.081092 0.27594 
13.3593 2.49867 19.0283 -0.118659 0.378271 0.918058 42 44 47 255 0.081136 0.276862 
13.3593 -0.114391 19.0283 0.341888 -0.378271 0.860246 42 44 47 255 0.081124 0.276884 
19.0283 -0.11439 13.3593 0.772664 -0.62935 -0.0831238 42 44 47 255 0.080984 0.277026 
19.0283 2.49867 13.3593 0.720095 0.62935 0.292201 42 44 47 255 0.080992 0.277007 
-19.0283 2.49867 13.3593 -0.772664 0.62935 -0.0831237 42 44 47 255 0.080961 0.27612 
-19.0283 -0.11439 13.3593 -0.720095 -0.62935 0.292201 42 44 47 255 0.080954 0.276155 
-13.3593 -0.114391 19.0283 0.118659 -0.378271 0.918058 42 44 47 255 0.081092 0.276274 
-13.3593 2.49867 19.0283 -0.341888 0.378271 0.860246 42 44 47 255 0.081102 0.27624 
-5.45386 -0.11439 14.3362 0.080985 -0.952023 0.295117 42 44 47 255 0.080989 0.276485 
5.45386 -0.11439 14.3362 -0.161646 -0.791763 0.589052 42 44 47 255 0.080995 0.276648 
5.45386 2.49867 14.3362 -0.0952395 0.932994 0.347062 42 44 47 255 0.081003 0.276621 
-5.45386 2.49867 14.3362 0.143109 0.841162 0.521503 42 44 47 255 0.080997 0.276455 
14.3362 -0.114389 4.91329 0.524905 -0.840223 -0.136013 42 44 47 255 0.080728 0.276905 
14.3362 2.49867 4.91329 0.765231 0.612458 -0.198286 42 44 47 255 0.08073 0.276883 
-14.3362 2.49867 4.91329 -0.524905 0.840223 -0.136013 42 44 47 255 0.080728 0.276216 
-14.3362 -0.114389 4.91329 -0.765231 -0.612458 -0.198286 42 44 47 255 0.080726 0.27625 
3.87962 2.49867 11.1192 -0.0769261 0.961214 -0.264858 42 44 47 255 0.080896 0.276619 
-4.06671 2.49867 10.9321 0.120444 0.958356 -0.258934 42 44 47 255 0.080888 0.276451 
11.1192 2.49867 3.87962 -0.169855 0.982559 -0.0756755 42 44 47 255 0.080728 0.276778 
-10.9321 2.49867 4.06671 0.169153 0.982388 -0.0793794 42 44 47 255 0.080732 0.27631 
3.87962 -0.11439 11.1192 0.0680587 -0.970524 0.231195 42 44 47 255 0.080891 0.276646 
11.1192 -0.114389 3.87962 0.148904 -0.986574 0.0670755 42 44 47 255 0.080726 0.276802 
-4.06671 -0.11439 10.9321 -0.106302 -0.968183 0.226544 42 44 47 255 0.080883 0.276481 
-10.9321 -0.114389 4.06671 -0.148241 -0.986454 0.0702297 42 44 47 255 0.08073 0.276343 
3.29605 -2.33861 3.28661 -0.321467 0.92507 -0.202249 42 44 47 255 0.08073 0.276626 
-3.13993 -2.33861 3.34121 0.230116 0.944644 -0.233867 42 44 47 255 0.080731 0.276462 
-3.14029 -4.18884 3.34121 -0.199915 -0.958502 0.203243 42 44 47 255 0.080729 0.276492 
3.29641 -4.18884 3.2866 0.279553 -0.943778 0.176445 42 44 47 255 0.080728 0.276653 
-3.21795 -2.33861 0 0.147347 0.517623 -0.842825 42 44 47 255 0.08064 0.27646 
-11.0257 2.49867 0 0.251427 0.64458 -0.722012 42 44 47 255 0.080643 0.276308 
3.21802 -2.33861 0 -0.106832 0.578153 -0.808905 42 44 47 255 0.080637 0.276623 
11.0257 2.49867 0 -0.300309 0.769894 -0.563097 42 44 47 255 0.080634 0.276775 
14.3362 2.49867 0 0.333333 0.666667 -0.666667 42 44 47 255 0.080635 0.276882 
14.3362 -0.114388 0 0.666667 -0.666667 -0.333333 42 44 47 255 0.080635 0.276904 
11.0257 -0.114388 0 0.186074 -0.557694 -0.808922 42 44 47 255 0.080634 0.276799 
3.2182 -4.18883 -1e-06 0.130382 -0.813499 -0.566763 42 44 47 255 0.080637 0.27665 
-3.21813 -4.18883 -1e-06 -0.129773 -0.529188 -0.838522 42 44 47 255 0.08064 0.276489 
-11.0257 -0.114388 0 -0.221689 -0.664442 -0.713702 42 44 47 255 0.080643 0.27634 
-14.3362 -0.114388 0 -0.333333 -0.666667 -0.666667 42 44 47 255 0.080642 0.27625 
-14.3362 2.49867 0 -0.666667 0.666667 -0.333333 42 44 47 255 0.080642 0.276216 
3 0 2 3
3 2 6 4
3 7 2 1
3 10 3 9
3 11 2 8
3 12 4 6
3 8 12 11
3 7 9 8
3 9 13 8
3 2 15 3
3 4 14 2
3 15 14 17
3 14 16 17
3 16 15 17
3 4 9 3
3 4 15 16
3 19 21 18
3 23 25 22
3 27 29 26
3 27 18 28
3 27 20 19
3 31 20 30
3 28 21 31
3 33 22 32
3 26 23 33
3 29 24 26
3 29 22 25
3 29 34 35
3 28 36 34
3 29 37 32
3 27 39 30
3 26 38 27
3 26 41 40
3 34 43 35
3 38 44 45
3 43 47 37
3 48 43 42
3 49 42 36
3 50 36 31
3 51 31 30
3 51 39 52
3 52 45 53
3 44 53 45
3 55 44 41
3 56 41 33
3 57 33 32
3 57 37 47
3 47 56 57
3 46 55 47
3 48 54 46
3 48 52 53
3 50 52 49
3 43 37 35
3 44 40 41
3 42 34 36
3 45 39 38
3 0 1 2
3 2 5 6
3 7 8 2
3 10 0 3
3 11 5 2
3 12 13 4
3 8 13 12
3 7 10 9
3 2 14 15
3 4 16 14
3 4 13 9
3 4 3 15
3 19 20 21
3 23 24 25
3 27 28 29
3 27 19 18
3 27 30 20
3 31 21 20
3 28 18 21
3 33 23 22
3 26 24 23
3 29 25 24
3 29 32 22
3 29 28 34
3 28 31 36
3 29 35 37
3 27 38 39
3 26 40 38
3 26 33 41
3 34 42 43
3 38 40 44
3 43 46 47
3 48 46 43
3 49 48 42
3 50 49 36
3 51 50 31
3 51 30 39
3 52 39 45
3 44 54 53
3 55 54 44
3 56 55 41
3 57 56 33
3 57 32 37
3 47 55 56
3 46 54 55
3 48 53 54
3 48 49 52
3 50 51 52
