ply
format ascii 1.0
comment INFO-3111 Flatenator generated
comment TextureFile Dungeons_Texture_01.png
element vertex 292
property float x
property float y
property float z
property float nx
property float ny
property float nz
property float texture_u
property float texture_v
element face 544
property list uchar int vertex_indices
end_header
0.049576 0.307698 -0.08236 0.454309 0.720006 -0.52459 0.112972 0.300672 
0.048097 0.278891 -0.079798 0.248205 -0.651933 -0.716504 0.112972 0.300672 
-0.046154 0.278891 -0.079798 -0.238599 -0.878797 -0.413264 0.112972 0.300672 
-0.047633 0.307698 -0.08236 -0.451301 0.430478 -0.781675 0.112972 0.300672 
-0.093279 0.278891 0.001826 -0.621065 -0.783759 1.07285e-08 0.112972 0.300672 
-0.096238 0.307698 0.001826 -0.411352 0.911476 7.10584e-09 0.112972 0.300672 
-0.046154 0.278891 0.08345 -0.248205 -0.651933 0.716504 0.112972 0.300672 
-0.047633 0.307698 0.086012 -0.454309 0.720006 0.52459 0.112972 0.300672 
0.048097 0.278891 0.08345 0.238599 -0.878797 0.413264 0.112972 0.300672 
0.049576 0.307698 0.086012 0.451301 0.430478 0.781675 0.112972 0.300672 
0.095222 0.278891 0.001826 0.621065 -0.783759 1.07285e-08 0.112972 0.300672 
0.098181 0.307698 0.001826 0.411352 0.911476 7.10584e-09 0.112972 0.300672 
0.040082 0.278891 -0.065915 -0.340963 -0.731423 0.590563 0.112972 0.300672 
0.079192 0.278891 0.001826 -0.681925 -0.731422 -2.35308e-08 0.112972 0.300672 
-0.038139 0.278891 -0.065915 0.450752 -0.725205 0.520482 0.112972 0.300672 
-0.077249 0.278891 0.001826 0.681925 -0.731422 -2.35308e-08 0.112972 0.300672 
-0.038139 0.278891 0.069567 0.340963 -0.731423 -0.590563 0.112972 0.300672 
0.040082 0.278891 0.069567 -0.450752 -0.725205 -0.520482 0.112972 0.300672 
0.04131 0.307698 -0.068042 -0.24057 0.876645 0.416677 0.112972 0.300672 
-0.039367 0.307698 -0.068042 0.173507 0.847953 0.50087 0.112972 0.300672 
-0.079705 0.307698 0.001826 0.833006 0.553264 -2.1558e-08 0.112972 0.300672 
-0.039367 0.307698 0.071694 0.24057 0.876645 -0.416677 0.112972 0.300672 
0.04131 0.307698 0.071694 -0.173507 0.847953 -0.50087 0.112972 0.300672 
0.081648 0.307698 0.001826 -0.833006 0.553264 -2.1558e-08 0.112972 0.300672 
0.043476 0.249107 -0.071794 0.427189 0.519639 -0.739922 0.112972 0.300672 
0.038061 0.224735 -0.062415 0.255562 -0.859509 -0.442643 0.112972 0.300672 
-0.036118 0.224735 -0.062415 -0.169555 -0.85538 -0.489466 0.112972 0.300672 
-0.041533 0.249107 -0.071794 -0.562038 0.512758 -0.648993 0.112972 0.300672 
-0.073208 0.224735 0.001826 -0.51112 -0.859509 9.42329e-09 0.112972 0.300672 
-0.084038 0.249107 0.001826 -0.85438 0.519649 9.46416e-09 0.112972 0.300672 
-0.036118 0.224735 0.066067 -0.204846 -0.77997 0.591342 0.112972 0.300672 
-0.041533 0.249107 0.075446 -0.46849 0.653276 0.594767 0.112972 0.300672 
0.038061 0.224735 0.066067 0.199347 -0.917085 0.345276 0.112972 0.300672 
0.043476 0.249107 0.075446 0.490606 0.360264 0.79342 0.112972 0.300672 
0.07515 0.224735 0.001826 0.511116 -0.859512 4.71161e-09 0.112972 0.300672 
0.085981 0.249107 0.001826 0.854389 0.519634 9.46435e-09 0.112972 0.300672 
0.031753 0.224735 -0.051489 -0.387101 -0.632944 0.670474 0.112972 0.300672 
0.062534 0.224735 0.001826 -0.911083 -0.373073 -0.175341 0.112972 0.300672 
-0.02981 0.224735 -0.051489 0.510498 -0.626034 0.589469 0.112972 0.300672 
-0.060591 0.224735 0.001826 0.911083 -0.373074 -0.175341 0.112972 0.300672 
-0.02981 0.224735 0.055141 0.209185 -0.769152 -0.60386 0.112972 0.300672 
0.031753 0.224735 0.055141 -0.286584 -0.81944 -0.496374 0.112972 0.300672 
0.037232 0.251683 -0.06098 -0.213487 0.904266 0.369765 0.112972 0.300672 
-0.035289 0.251683 -0.06098 0.141847 0.90123 0.409469 0.112972 0.300672 
-0.07155 0.251683 0.001826 0.318153 0.943657 0.0910495 0.112972 0.300672 
-0.035289 0.251683 0.064631 0.396272 0.813563 -0.42554 0.112972 0.300672 
0.037232 0.251683 0.064631 -0.285722 0.846783 -0.448689 0.112972 0.300672 
0.073493 0.251683 0.001826 -0.318153 0.943657 0.0910495 0.112972 0.300672 
0.036637 0.275224 -0.094235 -0.450632 -0.103844 -0.886649 0.111864 0.301226 
0.038173 0.313758 -0.096894 -0.341258 -0.357492 -0.869335 0.111864 0.301226 
0.064827 0.313758 -0.081506 0.915439 -0.379063 -0.135215 0.111864 0.301226 
0.063291 0.275224 -0.078846 0.913636 -0.150066 -0.377821 0.111864 0.301226 
0.054961 0.354023 -0.100158 0.188629 0.210969 -0.95912 0.111864 0.301226 
0.053448 0.358481 -0.097537 -0.405456 0.913603 -0.0305633 0.111864 0.301226 
0.057746 0.358481 -0.095056 0.530503 0.792702 -0.300315 0.111864 0.301226 
0.059259 0.354023 -0.097677 0.827295 0.263571 -0.496099 0.111864 0.301226 
0.03521 0.313758 -0.091763 -0.869346 -0.0804173 0.487618 0.111864 0.301226 
0.033675 0.279737 -0.089104 -0.992586 0.109862 0.0519939 0.111864 0.301226 
0.060328 0.279737 -0.073715 0.130461 0.15876 0.97866 0.111864 0.301226 
0.061864 0.313758 -0.076375 0.0142584 -0.0540315 0.998438 0.111864 0.301226 
0.023154 0.214148 -0.070882 -0.805153 0.592101 0.0338436 0.111864 0.301226 
0.025764 0.204599 -0.075401 -0.373296 -0.588418 -0.717226 0.111864 0.301226 
0.052418 0.204599 -0.060013 0.903563 -0.380225 0.197493 0.111864 0.301226 
0.049809 0.214148 -0.055494 0.62273 0.383114 0.682225 0.111864 0.301226 
-0.049809 0.214148 0.055493 -0.532882 0.341704 -0.774128 0.111864 0.301226 
-0.023154 0.214148 0.070882 0.835855 0.489053 0.249347 0.111864 0.301226 
-0.025764 0.204599 0.075401 0.20489 -0.683241 0.700858 0.111864 0.301226 
0.071233 0.319943 -0.079218 0.907992 -0.27086 -0.319665 0.111864 0.301226 
0.065447 0.33975 -0.08692 0.849878 -0.0337237 -0.5259 0.111864 0.301226 
0.063348 0.345934 -0.083284 0.418419 0.620337 0.663406 0.111864 0.301226 
0.068402 0.321764 -0.074315 0.353152 -0.0227071 0.93529 0.111864 0.301226 
0.040452 0.345934 -0.096503 -0.830612 0.556846 -0.00228401 0.111864 0.301226 
0.030157 0.321764 -0.096395 -0.986214 -0.0296919 0.162789 0.111864 0.301226 
0.042552 0.33975 -0.100139 -0.199881 0.102821 -0.97441 0.111864 0.301226 
0.032989 0.319943 -0.101299 0.123737 -0.250269 -0.960237 0.111864 0.301226 
-0.063291 0.275224 0.078846 -0.913621 -0.150073 0.377857 0.111864 0.301226 
-0.036637 0.275224 0.094235 0.450632 -0.103844 0.886649 0.111864 0.301226 
-0.038173 0.313758 0.096894 0.341258 -0.357492 0.869335 0.111864 0.301226 
-0.064827 0.313758 0.081506 -0.915434 -0.379061 0.135254 0.111864 0.301226 
-0.059259 0.354023 0.097677 -0.827295 0.263571 0.496099 0.111864 0.301226 
-0.054961 0.354023 0.100158 -0.188629 0.210969 0.95912 0.111864 0.301226 
-0.053448 0.358481 0.097537 0.405456 0.913603 0.0305633 0.111864 0.301226 
-0.057746 0.358481 0.095056 -0.530503 0.792702 0.300315 0.111864 0.301226 
-0.061864 0.313758 0.076375 0.103494 -0.0223438 -0.994379 0.111864 0.301226 
-0.03521 0.313758 0.091763 0.940717 -0.137784 -0.309946 0.111864 0.301226 
-0.033675 0.279737 0.089104 0.912785 0.158766 -0.37632 0.111864 0.301226 
-0.060329 0.279737 0.073715 -0.451256 0.109863 -0.885606 0.111864 0.301226 
-0.052418 0.204599 0.060013 -0.860943 -0.504255 -0.0671076 0.111864 0.301226 
-0.032989 0.319943 0.101299 -0.123737 -0.250269 0.960237 0.111864 0.301226 
-0.030157 0.321764 0.096395 0.949567 0.0176654 -0.313065 0.111864 0.301226 
-0.040452 0.345934 0.096503 0.777872 0.560091 0.284979 0.111864 0.301226 
-0.042552 0.33975 0.100139 0.199881 0.102821 0.97441 0.111864 0.301226 
-0.068402 0.321764 0.074314 -0.536328 -0.0834642 -0.839873 0.111864 0.301226 
-0.063348 0.345934 0.083284 -0.240109 0.583995 -0.775434 0.111864 0.301226 
-0.071233 0.319943 0.079218 -0.907979 -0.270861 0.319699 0.111864 0.301226 
-0.065447 0.33975 0.08692 -0.849874 -0.033725 0.525905 0.111864 0.301226 
0.063291 0.275224 0.078846 0.913621 -0.150073 0.377856 0.111864 0.301226 
0.064827 0.313758 0.081506 0.915439 -0.379054 0.135238 0.111864 0.301226 
0.038173 0.313758 0.096894 -0.341258 -0.357492 0.869335 0.111864 0.301226 
0.036637 0.275224 0.094235 -0.450632 -0.103844 0.886649 0.111864 0.301226 
0.059259 0.354023 0.097677 0.827295 0.263571 0.496099 0.111864 0.301226 
0.057746 0.358481 0.095056 0.530503 0.792702 0.300315 0.111864 0.301226 
0.053448 0.358481 0.097537 -0.405456 0.913603 0.0305633 0.111864 0.301226 
0.054961 0.354023 0.100158 0.188629 0.210969 0.95912 0.111864 0.301226 
0.061864 0.313758 0.076375 -0.103483 -0.0223173 -0.994381 0.111864 0.301226 
0.060329 0.279737 0.073715 0.451256 0.109863 -0.885606 0.111864 0.301226 
0.033675 0.279737 0.089104 -0.912785 0.158766 -0.37632 0.111864 0.301226 
0.03521 0.313758 0.091763 -0.940717 -0.137784 -0.309946 0.111864 0.301226 
0.049809 0.214148 0.055493 0.532882 0.341704 -0.774128 0.111864 0.301226 
0.052418 0.204599 0.060013 0.860943 -0.504255 -0.0671076 0.111864 0.301226 
0.025764 0.204599 0.075401 -0.20489 -0.683241 0.700858 0.111864 0.301226 
0.023154 0.214148 0.070882 -0.835855 0.489053 0.249347 0.111864 0.301226 
-0.023154 0.214148 -0.070882 0.805153 0.592101 0.0338436 0.111864 0.301226 
-0.049809 0.214148 -0.055494 -0.62273 0.383114 0.682225 0.111864 0.301226 
-0.052418 0.204599 -0.060013 -0.903563 -0.380224 0.197493 0.111864 0.301226 
0.032989 0.319943 0.101299 0.123737 -0.250269 0.960237 0.111864 0.301226 
0.042552 0.33975 0.100139 -0.199881 0.102821 0.97441 0.111864 0.301226 
0.040452 0.345934 0.096503 -0.830612 0.556846 0.00228396 0.111864 0.301226 
0.030157 0.321764 0.096395 -0.986214 -0.0296919 -0.162789 0.111864 0.301226 
0.063348 0.345934 0.083284 0.418419 0.620337 -0.663406 0.111864 0.301226 
0.068402 0.321764 0.074315 0.353152 -0.0227071 -0.93529 0.111864 0.301226 
0.065447 0.33975 0.08692 0.849878 -0.0337237 0.5259 0.111864 0.301226 
0.071233 0.319943 0.079218 0.907992 -0.27086 0.319665 0.111864 0.301226 
-0.036637 0.275224 -0.094235 0.450632 -0.103844 -0.886649 0.111864 0.301226 
-0.063291 0.275224 -0.078846 -0.913636 -0.150066 -0.377821 0.111864 0.301226 
-0.064827 0.313758 -0.081506 -0.915439 -0.379063 -0.135215 0.111864 0.301226 
-0.038173 0.313758 -0.096894 0.341258 -0.357492 -0.869335 0.111864 0.301226 
-0.054961 0.354023 -0.100158 -0.188629 0.210969 -0.95912 0.111864 0.301226 
-0.059259 0.354023 -0.097677 -0.827295 0.263571 -0.496099 0.111864 0.301226 
-0.057746 0.358481 -0.095056 -0.530503 0.792702 -0.300315 0.111864 0.301226 
-0.053448 0.358481 -0.097537 0.405456 0.913603 -0.0305633 0.111864 0.301226 
-0.03521 0.313758 -0.091763 0.869346 -0.0804173 0.487618 0.111864 0.301226 
-0.061864 0.313758 -0.076375 -0.0142584 -0.0540315 0.998438 0.111864 0.301226 
-0.060328 0.279737 -0.073715 -0.130461 0.15876 0.97866 0.111864 0.301226 
-0.033675 0.279737 -0.089104 0.992586 0.109862 0.0519939 0.111864 0.301226 
-0.025764 0.204599 -0.075401 0.373296 -0.588418 -0.717226 0.111864 0.301226 
-0.071233 0.319943 -0.079218 -0.907992 -0.27086 -0.319665 0.111864 0.301226 
-0.068402 0.321764 -0.074315 -0.353152 -0.0227071 0.93529 0.111864 0.301226 
-0.063348 0.345934 -0.083284 -0.418419 0.620337 0.663406 0.111864 0.301226 
-0.065447 0.33975 -0.08692 -0.849878 -0.0337237 -0.5259 0.111864 0.301226 
-0.030157 0.321764 -0.096395 0.986214 -0.0296919 0.162789 0.111864 0.301226 
-0.040452 0.345934 -0.096503 0.830612 0.556846 -0.00228399 0.111864 0.301226 
-0.032989 0.319943 -0.101299 -0.123737 -0.250269 -0.960237 0.111864 0.301226 
-0.042552 0.33975 -0.100139 0.199881 0.102821 -0.97441 0.111864 0.301226 
0.099928 0.275224 -0.015389 0.687316 -0.157873 -0.708994 0.111864 0.301226 
0.102999 0.313758 -0.015389 0.582213 -0.357471 -0.730235 0.111864 0.301226 
0.102999 0.313758 0.015389 0.574844 -0.37906 0.725167 0.111864 0.301226 
0.099928 0.275224 0.015389 0.697035 -0.107099 0.708994 0.111864 0.301226 
0.11422 0.354023 -0.002481 0.916291 0.116777 -0.383111 0.111864 0.301226 
0.111194 0.358481 -0.002481 0.525365 0.792671 -0.309297 0.111864 0.301226 
0.111194 0.358481 0.002481 -0.176236 0.913602 0.366432 0.111864 0.301226 
0.11422 0.354023 0.002481 0.863669 0.342285 0.370022 0.111864 0.301226 
0.097075 0.313758 -0.015389 -0.857533 -0.0540822 -0.511579 0.111864 0.301226 
0.094003 0.279737 -0.015389 -0.695804 0.114699 -0.709014 0.111864 0.301226 
0.094003 0.279737 0.015389 -0.685466 0.165635 0.709014 0.111864 0.301226 
0.097075 0.313758 0.015389 -0.856967 -0.0804093 0.509059 0.111864 0.301226 
0.072963 0.214148 -0.015389 -0.431889 0.592111 -0.68035 0.111864 0.301226 
0.078181 0.204599 -0.015389 0.245321 -0.588915 -0.770063 0.111864 0.301226 
0.078181 0.204599 0.015389 0.599165 -0.49796 0.626927 0.111864 0.301226 
0.072963 0.214148 0.015389 -0.220723 0.302606 0.927206 0.111864 0.301226 
-0.072963 0.214148 -0.015389 0.403991 0.341728 -0.848536 0.111864 0.301226 
-0.072963 0.214148 0.015389 0.244061 0.590913 0.768932 0.111864 0.301226 
-0.078181 0.204599 0.015389 -0.434481 -0.588399 0.681919 0.111864 0.301226 
0.104222 0.319943 0.02208 0.730824 -0.270904 0.626504 0.111864 0.301226 
0.107998 0.33975 0.013219 0.880379 -0.0337128 0.473071 0.111864 0.301226 
0.1038 0.345934 0.013219 -0.413324 0.556846 0.720476 0.111864 0.301226 
0.098559 0.321764 0.02208 -0.634109 -0.0297139 0.772673 0.111864 0.301226 
0.1038 0.345934 -0.013219 -0.365321 0.620349 -0.694051 0.111864 0.301226 
0.098559 0.321764 -0.02208 -0.63338 -0.0227119 -0.773508 0.111864 0.301226 
0.107998 0.33975 -0.013219 0.743895 0.102825 -0.660339 0.111864 0.301226 
0.104222 0.319943 -0.02208 0.89344 -0.250287 -0.372991 0.111864 0.301226 
-0.099928 0.275224 -0.015389 -0.687316 -0.157873 -0.708994 0.111864 0.301226 
-0.099928 0.275224 0.015389 -0.697035 -0.107099 0.708994 0.111864 0.301226 
-0.102999 0.313758 0.015389 -0.418461 -0.383971 0.823078 0.111864 0.301226 
-0.102999 0.313758 -0.015389 -0.688526 -0.347434 -0.63657 0.111864 0.301226 
-0.11422 0.354023 -0.002481 -0.843275 0.263563 -0.468426 0.111864 0.301226 
-0.11422 0.354023 0.002481 -0.924957 0.210941 0.316162 0.111864 0.301226 
-0.111194 0.358481 0.002481 0.176236 0.913602 0.366433 0.111864 0.301226 
-0.111194 0.358481 -0.002481 -0.525365 0.792671 -0.309297 0.111864 0.301226 
-0.097075 0.313758 -0.015389 0.857538 -0.0540988 -0.511568 0.111864 0.301226 
-0.097075 0.313758 0.015389 0.856967 -0.0804093 0.509059 0.111864 0.301226 
-0.094003 0.279737 0.015389 0.685466 0.165635 0.709014 0.111864 0.301226 
-0.094003 0.279737 -0.015389 0.695804 0.114699 -0.709014 0.111864 0.301226 
-0.078181 0.204599 -0.015389 -0.372335 -0.504237 -0.779174 0.111864 0.301226 
-0.104222 0.319943 0.02208 -0.89344 -0.250287 0.372991 0.111864 0.301226 
-0.098559 0.321764 0.02208 0.745918 0.0176582 0.665804 0.111864 0.301226 
-0.1038 0.345934 0.013219 0.142139 0.560086 0.816149 0.111864 0.301226 
-0.107998 0.33975 0.013219 -0.743895 0.102825 0.660339 0.111864 0.301226 
-0.098559 0.321764 -0.022081 0.459183 -0.0834514 -0.884413 0.111864 0.301226 
-0.1038 0.345934 -0.013219 0.551494 0.584005 -0.595644 0.111864 0.301226 
-0.104222 0.319943 -0.022081 -0.730836 -0.270914 -0.626486 0.111864 0.301226 
-0.107998 0.33975 -0.013219 -0.880384 -0.0337019 -0.473063 0.111864 0.301226 
0.014074 -0.266166 -0.022552 0.327129 0.0473646 -0.943792 0.039303 0.301708 
-0.014075 -0.266166 -0.022552 -0.498895 0.0599285 -0.864588 0.039303 0.301708 
-0.00886 -0.148626 -0.017414 -0.450994 0.0205823 -0.89229 0.039303 0.301708 
0.01179 -0.143205 -0.01717 0.534935 0.0129433 -0.844794 0.039303 0.301708 
-0.028149 -0.266166 0.001826 -0.999113 0.024778 0.0340537 0.039303 0.301708 
-0.028822 -0.079676 0.00641 -0.997968 -0.0142478 0.0621105 0.039303 0.301708 
-0.012905 -0.086641 0.01938 -0.200873 -0.0146788 0.979507 0.039303 0.301708 
-0.014075 0.089191 0.026203 -0.426708 -0.0230251 0.904096 0.039303 0.301708 
-0.028149 0.089191 0.001826 -0.999992 0.00398486 -1.82059e-05 0.039303 0.301708 
0.005607 -0.073291 0.012014 0.448533 -0.022579 0.893481 0.039303 0.301708 
0.007363 0.025603 0.024475 0.45143 -0.0802184 0.888693 0.039303 0.301708 
0.019739 -0.084806 0.003421 0.963777 -0.00860303 0.266571 0.039303 0.301708 
0.028148 -0.266166 0.001826 0.999199 0.0392546 -0.00774068 0.039303 0.301708 
-0.007606 -0.443867 -0.011348 -0.230785 -0.709148 -0.666218 0.111416 0.303488 
0.007606 -0.443867 -0.011348 0.461572 -0.709147 -0.532975 0.111416 0.303488 
0 -0.443867 0.001826 0 -1 0 0.111416 0.303488 
-0.015212 -0.443867 0.001826 -0.770329 -0.637647 -2.70675e-08 0.111416 0.303488 
-0.007606 -0.443867 0.015 -0.230785 -0.709148 0.666218 0.111416 0.303488 
0.007606 -0.443867 0.015 0.461572 -0.709147 0.532975 0.111416 0.303488 
0.015212 -0.443867 0.001826 0.576523 -0.817081 2.02576e-08 0.111416 0.303488 
0.03149 0.215526 -0.052717 0.348559 0.390141 -0.85223 0.111416 0.303488 
-0.031491 0.215526 -0.052717 -0.563777 0.390143 -0.727972 0.111416 0.303488 
0 0.258576 0.001826 2.2274e-06 1 0 0.111416 0.303488 
-0.062981 0.215526 0.001826 -0.912332 0.390142 0.124255 0.111416 0.303488 
-0.031491 0.215526 0.056369 -0.348558 0.390143 0.85223 0.111416 0.303488 
0.03149 0.215526 0.056369 0.563778 0.390141 0.727973 0.111416 0.303488 
0.06298 0.215526 0.001826 0.912333 0.390139 -0.124255 0.111416 0.303488 
0.014074 0.089191 -0.022552 0.248606 -0.925088 -0.287068 0.111416 0.303488 
-0.014075 0.089191 -0.022552 -0.186947 -0.927474 -0.323793 0.111416 0.303488 
-0.018901 0.093082 -0.030911 -0.322082 -0.474209 -0.819384 0.111416 0.303488 
0.0189 0.093082 -0.030911 0.456305 -0.591676 -0.664609 0.111416 0.303488 
-0.037801 0.093082 0.001826 -0.742687 -0.663364 -0.0914572 0.111416 0.303488 
-0.018901 0.093082 0.034562 -0.456309 -0.591677 0.664606 0.111416 0.303488 
0.014074 0.089191 0.026203 0.124309 -0.925082 0.358845 0.111416 0.303488 
0.0189 0.093082 0.034562 0.347405 -0.591679 0.727479 0.111416 0.303488 
0.028148 0.089191 0.001826 0.372904 -0.925089 0.0717753 0.111416 0.303488 
0.037801 0.093082 0.001826 0.803711 -0.591688 0.0628802 0.111416 0.303488 
-0.018901 0.124292 -0.030911 -0.474275 0.452725 -0.755052 0.111416 0.303488 
0.0189 0.124292 -0.030911 0.416745 0.452751 -0.788252 0.111416 0.303488 
-0.037801 0.124292 0.001826 -0.85535 0.51076 0.0866041 0.111416 0.303488 
-0.018901 0.124292 0.034562 -0.355902 0.361661 0.861705 0.111416 0.303488 
0.0189 0.124292 0.034562 0.502641 0.510816 0.697437 0.111416 0.303488 
0.037801 0.124292 0.001826 0.924183 0.361729 -0.122633 0.111416 0.303488 
-0.017252 0.126909 -0.028055 -0.585352 0.216889 -0.781231 0.111416 0.303488 
0.017251 0.126909 -0.028055 0.326956 -0.0471806 -0.943861 0.111416 0.303488 
-0.034504 0.126909 0.001826 -0.945668 -0.307773 -0.104824 0.111416 0.303488 
-0.017252 0.126909 0.031706 -0.559769 0.144646 0.815927 0.111416 0.303488 
0.017251 0.126909 0.031706 0.382039 -0.307811 0.871378 0.111416 0.303488 
0.034502 0.126909 0.001826 0.998845 -0.0480529 9.87914e-07 0.111416 0.303488 
-0.020342 0.13105 -0.033407 -0.29636 -0.690027 -0.660329 0.111416 0.303488 
0.020342 0.13105 -0.033407 0.413854 -0.701199 -0.580555 0.111416 0.303488 
-0.040684 0.13105 0.001826 -0.772224 -0.633427 0.0493981 0.111416 0.303488 
-0.020342 0.13105 0.037059 -0.295841 -0.701198 0.648691 0.111416 0.303488 
0.020342 0.13105 0.037059 0.348634 -0.663461 0.662023 0.111416 0.303488 
0.040684 0.13105 0.001826 0.805156 -0.593063 -5.64214e-09 0.111416 0.303488 
-0.029279 0.167858 -0.048886 -0.562992 0.187329 -0.804952 0.111416 0.303488 
0.029279 0.167858 -0.048886 0.565818 0.0153343 -0.824388 0.111416 0.303488 
-0.058558 0.167858 0.001826 -0.994756 0.102277 9.72172e-09 0.111416 0.303488 
-0.029279 0.167858 0.052538 -0.565817 0.0153299 0.824389 0.111416 0.303488 
0.029279 0.167858 0.052538 0.562993 0.187334 0.80495 0.111416 0.303488 
0.058558 0.167858 0.001826 0.994754 0.102295 0 0.111416 0.303488 
-0.02228 0.186537 -0.036763 -0.458019 -0.401108 -0.793304 0.111416 0.303488 
0.02228 0.186537 -0.036763 0.48311 -0.116109 -0.867827 0.111416 0.303488 
-0.044559 0.186537 0.001826 -0.982942 0.183915 0 0.111416 0.303488 
-0.02228 0.186537 0.040415 -0.407483 -0.243717 0.880091 0.111416 0.303488 
0.02228 0.186537 0.040415 0.564222 -0.292253 0.772167 0.111416 0.303488 
0.044558 0.186537 0.001826 0.98294 0.183924 0 0.111416 0.303488 
-0.031491 0.202745 -0.052717 -0.360732 -0.341221 -0.86801 0.111416 0.303488 
0.03149 0.202745 -0.052717 0.477074 -0.427365 -0.767958 0.111416 0.303488 
-0.062981 0.202745 0.001826 -0.871569 -0.48267 -0.086006 0.111416 0.303488 
-0.031491 0.202745 0.056369 -0.571357 -0.341221 0.746404 0.111416 0.303488 
0.03149 0.202745 0.056369 0.296876 -0.42122 0.856994 0.111416 0.303488 
0.06298 0.202745 0.001826 0.871573 -0.482663 0.0860057 0.111416 0.303488 
0.019179 -0.273107 -0.031393 0.405369 0.473258 -0.782114 0.111416 0.303488 
-0.01918 -0.273107 -0.031393 -0.39127 0.622611 -0.67769 0.111416 0.303488 
-0.038358 -0.273107 0.001826 -0.914129 0.401579 0.0557047 0.111416 0.303488 
-0.014075 -0.266166 0.026203 -0.281118 0.826986 0.486895 0.111416 0.303488 
-0.01918 -0.273107 0.035045 -0.351633 0.369804 0.86 0.111416 0.303488 
0.014074 -0.266166 0.026203 0.372649 0.822185 0.430284 0.111416 0.303488 
0.019179 -0.273107 0.035045 0.344979 0.564844 0.749627 0.111416 0.303488 
0.038357 -0.273107 0.001826 0.914129 0.401579 0.0557048 0.111416 0.303488 
0.017478 -0.360991 -0.028447 0.49702 -0.136179 -0.856987 0.111416 0.303488 
-0.017479 -0.360991 -0.028447 -0.564477 -0.121909 -0.816397 0.111416 0.303488 
-0.034957 -0.360991 0.001826 -0.990684 -0.136181 -8.6143e-09 0.111416 0.303488 
-0.017479 -0.360991 0.032099 -0.648773 -0.133773 0.749131 0.111416 0.303488 
0.017478 -0.360991 0.032099 0.42479 -0.121906 0.897047 0.111416 0.303488 
0.034956 -0.360991 0.001826 0.985722 -0.168382 5.73348e-09 0.111416 0.303488 
0.018183 -0.207194 0.017053 0.522223 0.0717817 0.849783 0.039303 0.301708 
-0.014075 0.089191 0.026203 -0.248618 -0.925082 0.287077 0.111416 0.303488 
-0.028149 0.089191 0.001826 -0.373892 -0.927472 4.23031e-06 0.111416 0.303488 
0.014074 -0.266166 -0.022552 0.186328 0.822168 -0.537887 0.111416 0.303488 
-0.014075 -0.266166 -0.022552 -0.281123 0.82697 -0.486919 0.111416 0.303488 
-0.028149 -0.266166 0.001826 -0.558984 0.822172 -0.107567 0.111416 0.303488 
0.028148 -0.266166 0.001826 0.558984 0.822172 -0.107567 0.111416 0.303488 
-0.014075 -0.266166 0.026203 -0.255599 0.083512 0.963169 0.039303 0.301708 
0.014074 -0.266166 0.026203 0.500485 0.0985816 0.860114 0.039303 0.301708 
0.028148 0.089191 0.001826 0.967994 -0.0705894 0.240842 0.039303 0.301708 
0.014074 0.089191 0.026203 0.497281 -0.0759686 0.864257 0.039303 0.301708 
-0.014075 0.089191 -0.022552 -0.472537 -0.0242268 -0.880978 0.039303 0.301708 
0.014074 0.089191 -0.022552 0.705764 -0.0335707 -0.707651 0.039303 0.301708 
3 1 3 0
3 3 4 5
3 4 7 5
3 6 9 7
3 9 10 11
3 10 0 11
3 12 10 13
3 2 12 14
3 4 14 15
3 16 4 15
3 8 16 17
3 10 17 13
3 0 19 18
3 19 5 20
3 5 21 20
3 7 22 21
3 22 11 23
3 11 18 23
3 23 12 13
3 19 12 18
3 20 14 19
3 20 16 15
3 22 16 21
3 23 17 22
3 24 26 27
3 27 28 29
3 28 31 29
3 30 33 31
3 33 34 35
3 34 24 35
3 36 34 37
3 26 36 38
3 28 38 39
3 40 28 39
3 32 40 41
3 34 41 37
3 24 43 42
3 27 44 43
3 44 31 45
3 31 46 45
3 33 47 46
3 47 24 42
3 47 36 37
3 43 36 42
3 44 38 43
3 45 39 44
3 46 40 45
3 46 37 41
3 49 51 48
3 52 54 55
3 56 58 59
3 50 58 51
3 57 49 48
3 60 48 61
3 61 51 62
3 51 63 62
3 60 58 57
3 60 65 63
3 62 65 66
3 68 70 67
3 70 71 72
3 72 73 74
3 52 68 73
3 55 69 68
3 69 53 71
3 71 52 73
3 72 49 56
3 74 50 49
3 50 70 59
3 59 72 56
3 68 74 73
3 75 77 78
3 80 82 79
3 83 85 86
3 85 77 76
3 86 78 83
3 64 75 86
3 66 75 87
3 65 76 66
3 85 64 86
3 66 61 62
3 61 64 60
3 89 91 88
3 89 93 90
3 92 95 93
3 95 80 79
3 90 80 91
3 93 81 90
3 93 79 82
3 78 92 83
3 78 88 94
3 77 89 88
3 83 89 84
3 95 88 91
3 96 98 99
3 101 103 100
3 104 106 107
3 98 106 99
3 105 97 96
3 108 96 109
3 96 110 109
3 99 111 110
3 108 106 105
3 111 112 113
3 111 114 110
3 116 118 115
3 117 120 118
3 120 121 122
3 121 103 116
3 103 117 116
3 102 119 117
3 119 100 121
3 120 97 104
3 97 115 98
3 98 118 107
3 118 104 107
3 121 115 122
3 124 126 123
3 127 129 130
3 131 133 134
3 133 125 124
3 134 126 131
3 112 123 134
3 135 124 123
3 113 124 114
3 133 112 134
3 110 135 109
3 135 108 109
3 137 139 136
3 137 141 138
3 140 143 141
3 139 127 143
3 138 128 139
3 138 130 129
3 141 127 130
3 126 140 131
3 125 142 126
3 125 137 136
3 132 140 137
3 142 139 143
3 145 147 144
3 149 151 148
3 153 155 152
3 146 154 147
3 153 145 144
3 156 144 157
3 144 158 157
3 147 159 158
3 156 154 153
3 156 161 159
3 159 162 158
3 164 166 163
3 165 168 166
3 168 169 170
3 148 164 169
3 151 165 164
3 150 167 165
3 167 148 169
3 168 145 152
3 170 146 145
3 146 166 155
3 166 152 155
3 164 170 169
3 172 174 171
3 176 178 175
3 180 182 179
3 181 173 172
3 182 174 179
3 160 171 182
3 162 171 183
3 161 172 162
3 181 160 182
3 162 157 158
3 157 160 156
3 185 187 184
3 185 189 186
3 188 191 189
3 191 176 175
3 186 176 187
3 189 177 186
3 189 175 178
3 174 188 179
3 174 184 190
3 173 185 184
3 179 185 180
3 191 184 187
3 192 194 195
3 196 194 193
3 197 199 200
3 198 201 202
3 201 203 202
3 204 195 203
3 205 206 207
3 208 205 207
3 209 208 207
3 210 209 207
3 211 210 207
3 206 211 207
3 212 213 214
3 213 215 214
3 215 216 214
3 216 217 214
3 217 218 214
3 218 212 214
3 220 222 219
3 220 223 221
3 280 223 281
3 225 224 280
3 227 226 225
3 219 228 227
3 221 230 222
3 223 229 221
3 224 231 223
3 226 232 224
3 228 233 226
3 222 234 228
3 229 236 230
3 231 235 229
3 231 238 237
3 233 238 232
3 233 240 239
3 230 240 234
3 236 241 242
3 237 241 235
3 238 243 237
3 239 244 238
3 240 245 239
3 240 242 246
3 241 248 242
3 243 247 241
3 243 250 249
3 245 250 244
3 246 251 245
3 246 248 252
3 247 254 248
3 247 255 253
3 250 255 249
3 251 256 250
3 251 258 257
3 248 258 252
3 253 260 254
3 253 261 259
3 256 261 255
3 256 263 262
3 257 264 263
3 254 264 258
3 259 212 260
3 261 213 259
3 262 215 261
3 263 216 262
3 264 217 263
3 260 218 264
3 282 266 283
3 284 266 267
3 268 267 269
3 268 271 270
3 270 272 285
3 285 265 282
3 265 274 266
3 267 274 275
3 267 276 269
3 269 277 271
3 272 277 278
3 272 273 265
3 273 205 274
3 274 208 275
3 276 208 209
3 277 209 210
3 278 210 211
3 278 206 273
3 202 199 198
3 286 279 198
3 204 279 287
3 202 288 289
3 198 279 201
3 279 203 201
3 197 290 194
3 195 290 291
3 203 291 288
3 196 198 197
3 1 2 3
3 3 2 4
3 4 6 7
3 6 8 9
3 9 8 10
3 10 1 0
3 12 1 10
3 2 1 12
3 4 2 14
3 16 6 4
3 8 6 16
3 10 8 17
3 0 3 19
3 19 3 5
3 5 7 21
3 7 9 22
3 22 9 11
3 11 0 18
3 23 18 12
3 19 14 12
3 20 15 14
3 20 21 16
3 22 17 16
3 23 13 17
3 24 25 26
3 27 26 28
3 28 30 31
3 30 32 33
3 33 32 34
3 34 25 24
3 36 25 34
3 26 25 36
3 28 26 38
3 40 30 28
3 32 30 40
3 34 32 41
3 24 27 43
3 27 29 44
3 44 29 31
3 31 33 46
3 33 35 47
3 47 35 24
3 47 42 36
3 43 38 36
3 44 39 38
3 45 40 39
3 46 41 40
3 46 47 37
3 49 50 51
3 52 53 54
3 56 57 58
3 50 59 58
3 57 56 49
3 60 57 48
3 61 48 51
3 51 58 63
3 60 63 58
3 60 64 65
3 62 63 65
3 68 69 70
3 70 69 71
3 72 71 73
3 52 55 68
3 55 54 69
3 69 54 53
3 71 53 52
3 72 74 49
3 74 67 50
3 50 67 70
3 59 70 72
3 68 67 74
3 75 76 77
3 80 81 82
3 83 84 85
3 85 84 77
3 86 75 78
3 64 87 75
3 66 76 75
3 65 85 76
3 85 65 64
3 66 87 61
3 61 87 64
3 89 90 91
3 89 92 93
3 92 94 95
3 95 91 80
3 90 81 80
3 93 82 81
3 93 95 79
3 78 94 92
3 78 77 88
3 77 84 89
3 83 92 89
3 95 94 88
3 96 97 98
3 101 102 103
3 104 105 106
3 98 107 106
3 105 104 97
3 108 105 96
3 96 99 110
3 99 106 111
3 108 111 106
3 111 108 112
3 111 113 114
3 116 117 118
3 117 119 120
3 120 119 121
3 121 100 103
3 103 102 117
3 102 101 119
3 119 101 100
3 120 122 97
3 97 122 115
3 98 115 118
3 118 120 104
3 121 116 115
3 124 125 126
3 127 128 129
3 131 132 133
3 133 132 125
3 134 123 126
3 112 135 123
3 135 114 124
3 113 133 124
3 133 113 112
3 110 114 135
3 135 112 108
3 137 138 139
3 137 140 141
3 140 142 143
3 139 128 127
3 138 129 128
3 138 141 130
3 141 143 127
3 126 142 140
3 125 136 142
3 125 132 137
3 132 131 140
3 142 136 139
3 145 146 147
3 149 150 151
3 153 154 155
3 146 155 154
3 153 152 145
3 156 153 144
3 144 147 158
3 147 154 159
3 156 159 154
3 156 160 161
3 159 161 162
3 164 165 166
3 165 167 168
3 168 167 169
3 148 151 164
3 151 150 165
3 150 149 167
3 167 149 148
3 168 170 145
3 170 163 146
3 146 163 166
3 166 168 152
3 164 163 170
3 172 173 174
3 176 177 178
3 180 181 182
3 181 180 173
3 182 171 174
3 160 183 171
3 162 172 171
3 161 181 172
3 181 161 160
3 162 183 157
3 157 183 160
3 185 186 187
3 185 188 189
3 188 190 191
3 191 187 176
3 186 177 176
3 189 178 177
3 189 191 175
3 174 190 188
3 174 173 184
3 173 180 185
3 179 188 185
3 191 190 184
3 192 193 194
3 196 197 194
3 197 198 199
3 204 192 195
3 220 221 222
3 220 281 223
3 280 224 223
3 225 226 224
3 227 228 226
3 219 222 228
3 221 229 230
3 223 231 229
3 224 232 231
3 226 233 232
3 228 234 233
3 222 230 234
3 229 235 236
3 231 237 235
3 231 232 238
3 233 239 238
3 233 234 240
3 230 236 240
3 236 235 241
3 237 243 241
3 238 244 243
3 239 245 244
3 240 246 245
3 240 236 242
3 241 247 248
3 243 249 247
3 243 244 250
3 245 251 250
3 246 252 251
3 246 242 248
3 247 253 254
3 247 249 255
3 250 256 255
3 251 257 256
3 251 252 258
3 248 254 258
3 253 259 260
3 253 255 261
3 256 262 261
3 256 257 263
3 257 258 264
3 254 260 264
3 259 213 212
3 261 215 213
3 262 216 215
3 263 217 216
3 264 218 217
3 260 212 218
3 282 265 266
3 284 283 266
3 268 284 267
3 268 269 271
3 270 271 272
3 285 272 265
3 265 273 274
3 267 266 274
3 267 275 276
3 269 276 277
3 272 271 277
3 272 278 273
3 273 206 205
3 274 205 208
3 276 275 208
3 277 276 209
3 278 277 210
3 278 211 206
3 202 289 199
3 286 287 279
3 204 203 279
3 202 203 288
3 197 200 290
3 195 194 290
3 203 195 291
3 196 286 198
