ply
format ascii 1.0
comment INFO-3111 Flatenator generated
comment TextureFile Dungeons_Texture_01.png
element vertex 89
property float x
property float y
property float z
property float nx
property float ny
property float nz
property float texture_u
property float texture_v
element face 114
property list uchar int vertex_indices
end_header
-22.5934 0.853051 15.358 -0.716371 -0.300146 -0.629861 0.323824 0.383341 
-22.5934 0.85305 22.5306 -0.487426 -0.724359 0.487565 0.323335 0.383126 
-22.3856 7.30156 22.1073 -0.619723 0.483157 0.618468 0.323304 0.382718 
-22.5934 7.30156 15.358 -0.620771 0.507083 -0.597922 0.323821 0.382935 
-15.358 -0.941115 15.358 0.558755 -0.611708 -0.560006 0.324088 0.383055 
-15.358 0.85305 22.5306 0.626312 -0.292062 0.722795 0.323616 0.382751 
-15.358 7.30156 22.5306 0.585947 0.508514 0.630936 0.323601 0.38234 
-20.5293 7.30156 15.358 0.337747 0.41254 -0.846013 0.323922 0.382793 
-15.358 7.30156 20.4885 0.885047 0.372406 -0.279294 0.323774 0.382409 
-20.3934 9.50156 17.5579 -0.222528 0.919609 -0.323728 0.323827 0.382818 
-20.3934 9.50156 20.3306 -0.292041 0.905959 0.306513 0.323304 0.382718 
-17.5579 9.50156 20.3306 0.405176 0.911529 0.0703327 0.323682 0.382426 
6.01805 6.24235 21.6959 -0.00334307 0.691591 0.722282 0.274948 0.348124 
-2.15019 1.87398 21.6959 0.000919205 -0.571616 0.820521 0.274925 0.348281 
21.6959 1.35014 21.6959 0.394474 -0.580141 0.712619 0.274997 0.348215 
21.6959 6.76618 21.6959 0.658068 0.668863 0.345786 0.274996 0.348092 
-9.47256 -1.66499 9.47256 0.426769 0.797331 -0.426769 0.275169 0.348332 
9.47256 -1.66499 9.47256 -0.413797 0.886547 -0.206898 0.275203 0.348277 
9.47256 -1.66499 0 -1.30378e-08 1.88289e-07 -1 0.275576 0.348371 
-9.47256 -1.66499 0 0.315315 0.948987 2.05194e-07 0.275575 0.348334 
21.6959 1.35014 0 0.809162 -0.587586 -1.12026e-07 0.275794 0.348219 
21.6959 6.76619 1e-06 0.408248 0.816497 -0.408248 0.275807 0.348084 
-21.6959 1.35014 0 -0.648214 -0.761458 -1.4573e-07 0.275861 0.34834 
-21.6959 1.35014 21.6959 -0.702297 -0.582259 0.409577 0.274865 0.348334 
-21.6959 6.76618 21.6959 -0.326364 0.665179 0.671583 0.274863 0.34818 
-21.6959 6.76619 1e-06 -0.707107 0.707107 9.98081e-08 0.275863 0.348184 
-15.358 -0.712635 15.358 -0.152918 -0.971171 0.182874 0.275021 0.348329 
15.358 -0.712635 15.358 0.154026 -0.971203 0.181769 0.275107 0.348244 
-15.358 -0.712632 0 -0.873693 -0.191471 -0.447214 0.323139 0.383198 
15.358 -0.712632 0 0.873693 -0.191471 -0.447214 0.323347 0.383179 
14.2386 -5.82015 14.2386 0.648816 -0.651201 0.393668 0.322677 0.383321 
14.2386 -5.82015 -1e-06 0.65018 -0.678648 -0.341618 0.323307 0.38333 
-14.3933 -5.11441 14.3933 -0.51886 -0.594455 0.614335 0.322424 0.383325 
-14.2386 -5.82015 -1e-06 -0.729106 -0.600838 -0.327716 0.323191 0.383324 
11.9355 -10.0506 -2e-06 0.485308 -0.874217 0.0148512 0.275617 0.348432 
12.127 -9.52819 12.127 0.466548 -0.746004 0.475196 0.27516 0.348429 
5.47805 -11.0732 5.47805 0.0918205 -0.990583 0.101556 0.275275 0.348452 
5.47805 -11.0732 -2e-06 0.156409 -0.987692 -1.7308e-07 0.275492 0.348453 
-11.9355 -10.0507 11.9355 -0.433059 -0.856745 0.280086 0.275113 0.348518 
-5.47805 -11.0732 5.47805 -0.104844 -0.993106 0.052422 0.275261 0.348493 
-11.9355 -10.0506 -2e-06 -0.474917 -0.880031 -1.44558e-07 0.275628 0.348522 
-5.47805 -11.0732 -2e-06 -0.58466 -0.397709 -0.707107 0.327094 0.381691 
0 -19.1264 -3e-06 0 -0.994775 -0.102091 0.326885 0.382158 
14.8487 6.76619 14.8487 -0.148772 0.951975 -0.267603 0.275108 0.348104 
14.8487 6.76619 1e-06 -0.419616 0.516398 -0.746495 0.275661 0.348117 
-14.8487 6.76619 14.8487 0.165818 0.975604 -0.143877 0.275039 0.348164 
-14.8487 6.76619 1e-06 0.63063 0.776083 1.19046e-07 0.275697 0.348167 
-13.3077 -6.30672 -1e-06 -0.938925 -0.344121 -6.20394e-08 0.27566 0.348447 
-13.3077 -6.30673 13.3077 -0.40132 -0.441259 0.802641 0.275079 0.348444 
13.3077 -6.30673 13.3077 0.2483 -0.909589 0.333158 0.32269 0.383332 
13.3077 -6.30672 -1e-06 0.938925 -0.344121 -7.15048e-08 0.275643 0.348357 
15.358 0.85305 22.5934 -0.638031 -0.309793 0.704943 0.323824 0.383341 
22.3607 0.533827 22.4961 0.462475 -0.753866 0.466694 0.323335 0.383126 
22.5306 7.30156 22.5934 0.664826 0.335885 0.667224 0.323304 0.382718 
15.358 7.30156 22.5934 -0.469109 0.582933 0.66342 0.323821 0.382935 
15.358 -0.941115 15.358 -0.566549 -0.600728 -0.564046 0.324088 0.383055 
22.5306 0.853051 15.358 0.706282 -0.313411 -0.634774 0.323616 0.382751 
22.5306 7.30156 15.358 0.66342 0.582934 -0.469108 0.323601 0.38234 
15.358 7.30156 20.5293 -0.846013 0.41254 -0.337747 0.323922 0.382793 
20.4885 7.30156 15.358 -0.279294 0.372406 -0.885047 0.323774 0.382409 
17.5579 9.50156 20.3934 -0.400618 0.915413 0.0390474 0.323827 0.382818 
20.3306 9.50156 20.3934 0.327413 0.886342 0.327413 0.323304 0.382718 
20.3306 9.50156 17.5579 -0.119661 0.875978 -0.467273 0.323682 0.382426 
15.358 -0.712635 15.358 0.429052 -0.282082 0.858105 0.322662 0.383207 
-15.358 -0.712635 15.358 -0.675412 -0.296035 0.675412 0.322385 0.383188 
5.47805 -11.0732 -2e-06 0.58466 -0.397709 -0.707107 0.326852 0.381759 
5.47805 -11.0732 5.47805 0.509587 -0.693284 0.509587 0.326376 0.381596 
-5.47805 -11.0732 5.47805 -0.509587 -0.693284 0.509587 0.327243 0.381582 
-13.3077 -6.30673 13.3077 -0.448577 -0.845962 0.288318 0.322457 0.383338 
-13.3077 -6.30672 -1e-06 -0.327539 -0.626672 -0.707107 0.323196 0.383328 
-14.8487 6.76619 1e-06 2.13252e-08 1.49234e-07 -1 0.275002 0.34834 
-21.6959 1.35014 0 2.12873e-08 1.57724e-07 -1 0.2749 0.3485 
-21.6959 6.76619 1e-06 0 1.84637e-07 -1 0.274871 0.348383 
-9.47256 -1.66499 0 1.73837e-08 1.7924e-07 -1 0.275158 0.348494 
-15.358 -0.712632 0 3.15753e-08 1.51032e-07 -1 0.275034 0.348508 
15.358 -0.712632 0 -3.15753e-08 1.51032e-07 -1 0.275711 0.348306 
21.6959 1.35014 0 -2.12873e-08 1.57724e-07 -1 0.275857 0.348207 
-13.3077 -6.30672 -1e-06 1.51307e-08 2.22851e-07 -1 0.275106 0.34862 
13.3077 -6.30672 -1e-06 -1.51307e-08 2.21723e-07 -1 0.275698 0.348458 
5.47805 -11.0732 -2e-06 -2.24517e-08 2.46676e-07 -1 0.275543 0.348623 
11.9355 -10.0506 -2e-06 -4.49034e-08 2.83556e-07 -1 0.27569 0.348558 
-5.47805 -11.0732 -2e-06 1.49678e-08 2.34383e-07 -1 0.275297 0.348685 
13.3077 -6.30672 -1e-06 0.327538 -0.626673 -0.707107 0.323278 0.383343 
-11.9355 -10.0506 -2e-06 4.49034e-08 2.83556e-07 -1 0.275156 0.348697 
9.47256 -1.66499 0 -0.480809 0.876825 1.90893e-07 0.275571 0.348279 
-15.358 -0.712632 0 -0.309486 -0.950904 -1.86332e-07 0.275714 0.348333 
-5.47805 -11.0732 -2e-06 -0.156409 -0.987692 -1.7308e-07 0.27549 0.348494 
15.358 -0.712632 0 0.309486 -0.950904 -1.84524e-07 0.275677 0.348247 
13.3077 -6.30673 13.3077 0.627789 -0.460177 0.627789 0.275136 0.348354 
3 0 2 3
3 4 1 0
3 5 2 1
3 4 7 8
3 4 5 1
3 8 5 4
3 0 7 4
3 9 10 11
3 6 8 11
3 7 11 8
3 7 3 9
3 2 9 3
3 2 11 10
3 12 14 15
3 17 19 16
3 20 15 14
3 23 25 22
3 13 27 14
3 22 26 23
3 29 30 31
3 63 32 30
3 28 32 64
3 34 36 37
3 38 36 35
3 40 39 38
3 65 66 42
3 66 67 42
3 67 41 42
3 43 12 15
3 21 43 15
3 25 45 46
3 43 16 45
3 44 17 43
3 46 16 19
3 27 20 14
3 47 38 48
3 35 48 38
3 50 35 34
3 49 31 30
3 49 32 68
3 68 33 69
3 28 69 33
3 42 41 65
3 70 71 72
3 73 74 70
3 75 18 44
3 44 76 75
3 77 18 78
3 78 18 75
3 79 78 80
3 81 78 79
3 82 29 31
3 73 77 74
3 77 81 83
3 51 53 54
3 55 52 51
3 56 53 52
3 55 58 59
3 55 56 52
3 59 56 55
3 51 58 55
3 60 61 62
3 57 59 62
3 58 62 59
3 58 54 60
3 54 61 60
3 57 61 53
3 12 45 24
3 13 24 23
3 26 13 23
3 0 1 2
3 5 6 2
3 8 6 5
3 0 3 7
3 7 9 11
3 2 10 9
3 2 6 11
3 12 13 14
3 17 84 19
3 20 21 15
3 23 24 25
3 13 26 27
3 22 85 26
3 29 63 30
3 63 64 32
3 28 33 32
3 34 35 36
3 38 39 36
3 40 86 39
3 21 44 43
3 25 24 45
3 43 17 16
3 44 84 17
3 46 45 16
3 27 87 20
3 47 40 38
3 35 88 48
3 50 88 35
3 49 82 31
3 49 30 32
3 68 32 33
3 70 74 71
3 44 21 76
3 77 73 18
3 81 77 78
3 51 52 53
3 56 57 53
3 59 57 56
3 51 54 58
3 58 60 62
3 54 53 61
3 57 62 61
3 12 43 45
3 13 12 24
