ply
format ascii 1.0
comment VCGLIB generated
comment TextureFile Dungeons_Texture_01.png
element vertex 58
property float x
property float y
property float z
property float nx
property float ny
property float nz
property uchar red
property uchar green
property uchar blue
property uchar alpha
property float texture_u
property float texture_v
element face 104
property list uchar int vertex_indices
end_header
15.54394 8e-06 12.90682 0.6439053 -0.7639347 0.04230599 42 44 47 255 0.08096 0.276285
12.90682 7e-06 15.54395 -0.1897583 -0.6265302 0.7559443 42 44 47 255 0.081081 0.276277
0 -11.43134 2.829703 0.09112936 -0.4928369 0.8653365 42 44 47 255 0.081148 0.275909
2.829706 -11.43134 -2e-06 0.7247602 -0.2890951 -0.6254172 42 44 47 255 0.081014 0.275917
-2.829706 -11.43134 -2e-06 -0.667007 -0.2103493 -0.7147411 42 44 47 255 0.081171 0.275963
-12.87494 7e-06 15.57582 0.1739675 -0.6392646 0.7490501 42 44 47 255 0.081562 0.276434
-15.57582 8e-06 12.87494 -0.6426063 -0.7649869 0.04303711 42 44 47 255 0.081591 0.276494
8.69645 8e-06 11.82557 -0.7618486 0.5785724 0.2912743 42 44 47 255 0.0811 0.276299
0 -7.169913 3.350775 0.09710354 0.9869947 0.1281109 42 44 47 255 0.081158 0.275995
3.350776 -7.169913 -1e-06 0.006875111 0.6146478 -0.7887717 42 44 47 255 0.081001 0.276005
11.84283 9e-06 8.679187 0.5335881 0.3173148 -0.7839611 42 44 47 255 0.080956 0.276309
-9.154959 1.6e-05 12.42898 0.778145 0.3115701 0.5453572 42 44 47 255 0.081507 0.276432
-12.37739 1.7e-05 9.206554 -0.3037175 0.585031 -0.7519936 42 44 47 255 0.08154 0.276504
-3.350776 -7.169913 -1e-06 -0.1482247 0.6573696 -0.7388468 42 44 47 255 0.081185 0.27606
0 -13.65173 2.829703 -0.1964727 -0.1185993 0.9733102 42 44 47 255 0.081148 0.275909
2.829706 -13.65173 -2e-06 0.9162987 -0.09289952 -0.3895721 42 44 47 255 0.081014 0.275917
-2.829706 -13.65173 -2e-06 -0.9095399 -0.1388588 -0.3917339 42 44 47 255 0.081171 0.275963
0 -22.81116 -4e-06 0 -0.7454825 0.6665252 42 44 47 255 0.081092 0.27594
13.35931 2.498666 19.02831 -0.118659 0.3782712 0.9180583 42 44 47 255 0.081136 0.276862
13.35931 -0.114391 19.02831 0.341888 -0.3782713 0.8602462 42 44 47 255 0.081124 0.276884
19.0283 -0.11439 13.35931 0.7726637 -0.6293499 -0.08312385 42 44 47 255 0.080984 0.277026
19.0283 2.498667 13.35931 0.7200952 0.6293499 0.2922013 42 44 47 255 0.080992 0.277007
-19.0283 2.498667 13.35931 -0.7726637 0.62935 -0.08312368 42 44 47 255 0.080961 0.27612
-19.0283 -0.11439 13.35931 -0.7200953 -0.62935 0.2922011 42 44 47 255 0.080954 0.276155
-13.35931 -0.114391 19.02831 0.118659 -0.3782713 0.9180582 42 44 47 255 0.081092 0.276274
-13.35931 2.498666 19.02831 -0.341888 0.3782712 0.8602462 42 44 47 255 0.081102 0.27624
-5.453858 -0.11439 14.3362 0.08098497 -0.9520227 0.2951173 42 44 47 255 0.080989 0.276485
5.453858 -0.11439 14.3362 -0.1616455 -0.7917629 0.5890521 42 44 47 255 0.080995 0.276648
5.453858 2.498667 14.3362 -0.09523953 0.9329937 0.3470623 42 44 47 255 0.081003 0.276621
-5.453858 2.498667 14.3362 0.143109 0.8411623 0.5215034 42 44 47 255 0.080997 0.276455
14.3362 -0.114389 4.913287 0.5249052 -0.8402231 -0.1360132 42 44 47 255 0.080728 0.276905
14.3362 2.498668 4.913288 0.7652308 0.6124579 -0.198286 42 44 47 255 0.08073 0.276883
-14.3362 2.498668 4.913288 -0.5249052 0.8402232 -0.136013 42 44 47 255 0.080728 0.276216
-14.3362 -0.114389 4.913287 -0.7652307 -0.6124578 -0.1982861 42 44 47 255 0.080726 0.27625
3.879617 2.498667 11.1192 -0.07692614 0.9612141 -0.2648581 42 44 47 255 0.080896 0.276619
-4.066705 2.498667 10.93211 0.1204441 0.9583562 -0.2589337 42 44 47 255 0.080888 0.276451
11.1192 2.498668 3.879617 -0.1698554 0.9825591 -0.07567553 42 44 47 255 0.080728 0.276778
-10.93211 2.498668 4.066706 0.1691526 0.9823881 -0.0793794 42 44 47 255 0.080732 0.27631
3.879617 -0.11439 11.1192 0.06805873 -0.970524 0.2311951 42 44 47 255 0.080891 0.276646
11.1192 -0.114389 3.879617 0.1489036 -0.9865742 0.06707549 42 44 47 255 0.080726 0.276802
-4.066705 -0.11439 10.93211 -0.1063023 -0.9681826 0.2265443 42 44 47 255 0.080883 0.276481
-10.93211 -0.114389 4.066705 -0.1482412 -0.9864544 0.07022973 42 44 47 255 0.08073 0.276343
3.296045 -2.338614 3.286608 -0.3214675 0.9250697 -0.2022493 42 44 47 255 0.08073 0.276626
-3.139928 -2.338614 3.341212 0.2301162 0.9446442 -0.2338673 42 44 47 255 0.080731 0.276462
-3.140293 -4.188835 3.341215 -0.1999148 -0.9585021 0.2032434 42 44 47 255 0.080729 0.276492
3.29641 -4.188835 3.286604 0.2795528 -0.9437782 0.1764452 42 44 47 255 0.080728 0.276653
-3.21795 -2.338613 -0 0.1473471 0.5176234 -0.8428255 42 44 47 255 0.08064 0.27646
-11.02565 2.498669 0 0.2514274 0.6445795 -0.7220122 42 44 47 255 0.080643 0.276308
3.218023 -2.338613 -0 -0.1068318 0.5781528 -0.8089045 42 44 47 255 0.080637 0.276623
11.02565 2.498669 0 -0.300309 0.7698936 -0.5630972 42 44 47 255 0.080634 0.276775
14.3362 2.498669 0 0.3333334 0.6666668 -0.6666666 42 44 47 255 0.080635 0.276882
14.3362 -0.114388 -0 0.6666666 -0.6666666 -0.3333335 42 44 47 255 0.080635 0.276904
11.02565 -0.114388 -0 0.1860736 -0.5576937 -0.8089218 42 44 47 255 0.080634 0.276799
3.218205 -4.188834 -1e-06 0.1303822 -0.8134986 -0.5667633 42 44 47 255 0.080637 0.27665
-3.218133 -4.188834 -1e-06 -0.1297731 -0.529188 -0.838522 42 44 47 255 0.08064 0.276489
-11.02565 -0.114388 -0 -0.2216893 -0.6644424 -0.7137018 42 44 47 255 0.080643 0.27634
-14.3362 -0.114388 -0 -0.3333333 -0.6666666 -0.6666667 42 44 47 255 0.080642 0.27625
-14.3362 2.498669 0 -0.6666667 0.6666667 -0.3333332 42 44 47 255 0.080642 0.276216
3 0 2 3 
3 2 6 4 
3 7 2 1 
3 10 3 9 
3 11 2 8 
3 12 4 6 
3 8 12 11 
3 7 9 8 
3 9 13 8 
3 2 15 3 
3 4 14 2 
3 15 14 17 
3 14 16 17 
3 16 15 17 
3 4 9 3 
3 4 15 16 
3 19 21 18 
3 23 25 22 
3 27 29 26 
3 27 18 28 
3 27 20 19 
3 31 20 30 
3 28 21 31 
3 33 22 32 
3 26 23 33 
3 29 24 26 
3 29 22 25 
3 29 34 35 
3 28 36 34 
3 29 37 32 
3 27 39 30 
3 26 38 27 
3 26 41 40 
3 34 43 35 
3 38 44 45 
3 43 47 37 
3 48 43 42 
3 49 42 36 
3 50 36 31 
3 51 31 30 
3 51 39 52 
3 52 45 53 
3 44 53 45 
3 55 44 41 
3 56 41 33 
3 57 33 32 
3 57 37 47 
3 47 56 57 
3 46 55 47 
3 48 54 46 
3 48 52 53 
3 50 52 49 
3 43 37 35 
3 44 40 41 
3 42 34 36 
3 45 39 38 
3 0 1 2 
3 2 5 6 
3 7 8 2 
3 10 0 3 
3 11 5 2 
3 12 13 4 
3 8 13 12 
3 7 10 9 
3 2 14 15 
3 4 16 14 
3 4 13 9 
3 4 3 15 
3 19 20 21 
3 23 24 25 
3 27 28 29 
3 27 19 18 
3 27 30 20 
3 31 21 20 
3 28 18 21 
3 33 23 22 
3 26 24 23 
3 29 25 24 
3 29 32 22 
3 29 28 34 
3 28 31 36 
3 29 35 37 
3 27 38 39 
3 26 40 38 
3 26 33 41 
3 34 42 43 
3 38 40 44 
3 43 46 47 
3 48 46 43 
3 49 48 42 
3 50 49 36 
3 51 50 31 
3 51 30 39 
3 52 39 45 
3 44 54 53 
3 55 54 44 
3 56 55 41 
3 57 56 33 
3 57 32 37 
3 47 55 56 
3 46 54 55 
3 48 53 54 
3 48 49 52 
3 50 51 52 
