ply
format ascii 1.0
comment VCGLIB generated
comment TextureFile Dungeons_Texture_01.png
element vertex 136
property float x
property float y
property float z
property float nx
property float ny
property float nz
property uchar red
property uchar green
property uchar blue
property uchar alpha
property float texture_u
property float texture_v
element face 248
property list uchar int vertex_indices
end_header
-1.911858 7.786401 31.57407 -0.6666668 -0.7440168 -0.04465873 42 44 47 255 0.079829 0.281151
1.911858 7.786401 31.57407 0.4082484 -0.7618018 0.5029824 42 44 47 255 0.079792 0.281112
1.911858 24.84301 41.42171 0.8008042 -0.352546 0.4841735 42 44 47 255 0.079785 0.280667
-1.911858 24.84301 41.42171 -0.7080946 -0.3848447 0.5920276 42 44 47 255 0.079824 0.280692
-1.911858 40.11922 53.82995 -0.4091197 -0.1966826 0.8910315 42 44 47 255 0.079736 0.280169
1.911858 40.11922 53.82995 0.4091196 0.38046 0.8293801 42 44 47 255 0.079698 0.28016
1.911858 41.29585 52.36233 0.6659365 0.6788983 -0.3092341 42 44 47 255 0.079762 0.280151
-1.911858 41.29585 52.36233 -0.6659365 0.7291288 0.1577968 42 44 47 255 0.079802 0.280159
-1.911858 25.78085 39.79732 -0.7080767 0.4151015 -0.5712427 42 44 47 255 0.079887 0.280687
1.911858 25.78085 39.79732 0.5557545 0.4527613 -0.6972404 42 44 47 255 0.079846 0.280662
1.911858 8.724242 29.94968 0.6666666 -0.4106832 -0.6220089 42 44 47 255 0.07985 0.281104
-1.911858 8.724242 29.94968 -0.4082482 0.05469513 -0.911231 42 44 47 255 0.07989 0.281142
-9.142282 40.87885 40.01931 0.5643385 -0.6544243 -0.5032405 42 44 47 255 0.080182 0.278844
-9.42249 43.44341 41.49996 0.5181542 0.6857892 0.5110865 42 44 47 255 0.080181 0.278728
-4.711248 39.36336 48.56683 0.4146338 0.8430632 -0.3425249 42 44 47 255 0.080304 0.278689
-4.571144 36.92013 46.87602 0.342435 -0.3344857 -0.877985 42 44 47 255 0.080304 0.278803
-4.57114 44.83758 33.16261 0.3953405 -0.87258 0.2868973 42 44 47 255 0.080277 0.278891
-4.711245 47.52347 34.43309 0.239512 0.5527754 0.7981688 42 44 47 255 0.080276 0.278772
4.571142 44.83758 33.16261 -0.5449872 -0.7944723 0.2679604 42 44 47 255 0.080501 0.278895
4.711247 47.52347 34.4331 -0.2492331 0.2016722 0.9472123 42 44 47 255 0.080502 0.278775
9.142282 40.87885 40.01931 -0.4103191 -0.7897649 -0.4559711 42 44 47 255 0.080619 0.27885
9.422489 43.44341 41.49996 -0.6237223 0.6769255 0.3908229 42 44 47 255 0.08062 0.278734
4.571139 36.92013 46.87602 -0.3953405 -0.1878302 -0.899125 42 44 47 255 0.080518 0.278806
4.711243 39.36336 48.56683 -0.2395116 0.9676222 0.07963382 42 44 47 255 0.080518 0.278692
-11.0561 40.87885 40.01931 -0.7401144 -0.4979548 -0.4519644 42 44 47 255 0.080182 0.278844
-5.528055 36.09142 48.31139 -0.3420888 -0.9358863 -0.08421537 42 44 47 255 0.080304 0.278803
-5.697488 38.50925 50.04618 -0.1896361 0.432164 0.8816306 42 44 47 255 0.080304 0.278689
-11.39497 43.44341 41.49996 -0.8243648 0.3912492 0.4090803 42 44 47 255 0.080181 0.278728
-5.528052 45.66629 31.72724 -0.2042979 -0.3817565 -0.9014014 42 44 47 255 0.080277 0.278891
-5.697485 48.37758 32.95374 -0.4566854 0.8841651 -0.09844085 42 44 47 255 0.080276 0.278772
5.528054 45.66629 31.72724 0.3420887 -0.5408763 -0.7683933 42 44 47 255 0.080501 0.278895
5.697487 48.37758 32.95374 0.1896365 0.9795964 -0.06655008 42 44 47 255 0.080502 0.278775
11.0561 40.87885 40.01931 0.7401143 -0.6403902 -0.2052594 42 44 47 255 0.080619 0.27885
11.39497 43.44341 41.49996 0.8243651 0.5498981 0.1342918 42 44 47 255 0.08062 0.278734
5.52805 36.09142 48.31139 0.2042983 -0.9715146 0.1200901 42 44 47 255 0.080518 0.278806
5.697484 38.50925 50.04618 0.4566857 0.3568291 0.8149301 42 44 47 255 0.080518 0.278692
-9.232435 13.35855 21.92282 -0.3333334 -0.244017 -0.9106836 42 44 47 255 0.079829 0.281151
-9.232435 11.44669 25.23426 -0.8164966 -0.5576776 0.1494294 42 44 47 255 0.079792 0.281112
-9.232435 28.5033 35.0819 -0.4446872 -0.4780926 0.7574173 42 44 47 255 0.079785 0.280667
-9.232435 30.41516 31.77047 -0.7965822 0.2457929 -0.5523067 42 44 47 255 0.079824 0.280692
-12.34017 47.24524 41.48732 -0.5280344 0.8490369 0.01778095 42 44 47 255 0.079736 0.280169
-12.34017 45.33339 44.79876 -0.8699972 0.03375635 0.4918999 42 44 47 255 0.079698 0.28016
-10.48087 45.58035 44.94135 0.4819176 0.2833201 0.8291473 42 44 47 255 0.079762 0.280151
-10.48087 47.49221 41.62991 0.3410467 0.8123714 -0.4730115 42 44 47 255 0.079802 0.280159
-7.356755 30.41516 31.77047 0.7966442 0.3549069 -0.4892844 42 44 47 255 0.079887 0.280687
-7.356755 28.5033 35.0819 0.703836 -0.3061129 0.6410224 42 44 47 255 0.079846 0.280662
-7.356755 11.44669 25.23426 0.5773502 -0.7886752 0.211325 42 44 47 255 0.07985 0.281104
-7.356755 13.35855 21.92282 0.5773504 -0.2113249 -0.7886751 42 44 47 255 0.07989 0.281142
1.911858 17.01884 15.58302 0.6666667 -0.4106837 -0.6220084 42 44 47 255 0.079829 0.281151
-1.911858 17.01884 15.58302 -0.6666667 0.04465823 -0.7440169 42 44 47 255 0.079792 0.281112
-1.911858 34.07545 25.43066 -0.7080946 0.2865302 -0.6453701 42 44 47 255 0.079785 0.280667
1.911858 34.07545 25.43066 0.7080945 0.3202887 -0.629299 42 44 47 255 0.079824 0.280692
1.911858 52.4594 32.45614 0.4091196 0.6733148 -0.6158477 42 44 47 255 0.079736 0.280169
-1.911858 52.4594 32.45614 -0.4091196 0.9084943 -0.08520212 42 44 47 255 0.079698 0.28016
-1.911858 51.77672 34.20893 -0.6659365 0.07164434 0.7425602 42 44 47 255 0.079762 0.280151
1.911858 51.77672 34.20893 0.6659365 0.5012204 0.5525456 42 44 47 255 0.079802 0.280159
1.911858 33.13761 27.05505 0.7080767 -0.2871602 0.6451097 42 44 47 255 0.079887 0.280687
-1.911858 33.13761 27.05505 -0.7080767 -0.3205993 0.6291611 42 44 47 255 0.079846 0.280662
-1.911858 16.081 17.20741 -0.4082482 -0.911231 -0.05469473 42 44 47 255 0.07985 0.281104
1.911858 16.081 17.20741 0.4082482 -0.7618018 0.5029826 42 44 47 255 0.07989 0.281142
-3.192004 1.478256 21.98134 -0.3061863 0.3535534 0.8838835 42 44 47 255 0.080304 0.278689
3.192002 1.478256 21.98134 0.5222329 0.6030226 0.6030229 42 44 47 255 0.080518 0.278692
6.384005 1.478257 16.45263 0.7765971 0.6065167 -0.1703951 42 44 47 255 0.08062 0.278734
-6.384005 1.478257 16.45263 -0.5393383 0.8363585 0.09807553 42 44 47 255 0.080181 0.278728
-6.384005 -1.357875 16.45263 -0.5354457 -0.8363584 -0.1174837 42 44 47 255 0.080182 0.278844
-3.192004 -1.357876 21.98134 -0.6123725 -0.3535534 0.7071067 42 44 47 255 0.080304 0.278803
-2.920014 -1.357874 10.92393 -0.5185013 -0.8419921 -0.1490161 42 44 47 255 0.080277 0.278891
-2.920014 1.478258 10.92393 -0.8526164 0.4615201 -0.2450397 42 44 47 255 0.080276 0.278772
2.920015 -1.357872 -2.880339 0.4082483 -0.8164966 -0.4082484 42 44 47 255 0.080501 0.278895
-2.920014 -1.357872 -2.880339 -0.6666667 -0.3333333 -0.6666667 42 44 47 255 0.080277 0.278891
-2.920014 1.478261 -2.880339 -0.4082483 0.8164967 -0.4082482 42 44 47 255 0.080276 0.278772
2.920015 1.478261 -2.880339 0.6666667 0.3333334 -0.6666666 42 44 47 255 0.080502 0.278775
6.384005 -1.357875 16.45263 0.7822427 -0.6065167 0.1422461 42 44 47 255 0.080619 0.27885
2.920015 -1.357874 10.92393 0.7576939 -0.615208 -0.2177594 42 44 47 255 0.080501 0.278895
2.920015 1.478258 10.92393 0.4162815 0.9013304 -0.1196381 42 44 47 255 0.080502 0.278775
3.192002 -1.357876 21.98134 0.2611165 -0.6030227 0.7537783 42 44 47 255 0.080518 0.278806
9.232435 11.44669 25.23426 0.3333333 -0.9106836 0.2440171 42 44 47 255 0.079829 0.281151
9.232435 13.35855 21.92282 0.8164967 -0.1494293 -0.5576774 42 44 47 255 0.079792 0.281112
9.232435 30.41516 31.77047 0.5955796 0.3456461 -0.7251301 42 44 47 255 0.079785 0.280667
9.232435 28.5033 35.0819 0.7051333 -0.3863254 0.5945922 42 44 47 255 0.079824 0.280692
12.34017 45.33339 44.79876 0.8699972 0.03375634 0.4918999 42 44 47 255 0.079736 0.280169
12.34017 47.24524 41.48732 0.5280345 0.8490368 0.01778095 42 44 47 255 0.079698 0.28016
10.48087 47.49221 41.62991 -0.6072537 0.7082397 -0.360055 42 44 47 255 0.079762 0.280151
10.48087 45.58035 44.94135 -0.2279085 0.2822063 0.9318892 42 44 47 255 0.079802 0.280159
7.356755 28.5033 35.0819 -0.7022614 -0.2900678 0.6501458 42 44 47 255 0.079887 0.280687
7.356755 30.41516 31.77047 -0.8302085 0.3155343 -0.4595562 42 44 47 255 0.079846 0.280662
7.356755 13.35855 21.92282 -0.3333334 -0.244017 -0.9106836 42 44 47 255 0.07985 0.281104
7.356755 11.44669 25.23426 -0.8164966 -0.5576776 0.1494294 42 44 47 255 0.07989 0.281142
-6.647332 26.49305 31.71366 0.5000001 -0.7499999 -0.4330129 42 44 47 255 0.080182 0.278844
-6.647332 29.05761 33.19431 0.755929 0.5669466 0.3273269 42 44 47 255 0.080181 0.278728
-3.323668 26.17923 38.17981 0.2165066 0.9620191 -0.1662653 42 44 47 255 0.080304 0.278689
-3.323668 23.61468 36.69915 0.3611577 -0.5138007 -0.7781864 42 44 47 255 0.080304 0.278803
-3.323666 29.37143 26.72816 0.3779644 -0.8942736 0.2396197 42 44 47 255 0.080277 0.278891
-3.323666 31.93599 28.20881 0.2499997 0.5334936 0.8080128 42 44 47 255 0.080276 0.278772
3.323667 29.37143 26.72816 -0.3273271 -0.938127 0.1130256 42 44 47 255 0.080501 0.278895
3.323668 31.93599 28.20881 -0.4330128 0.05801257 0.8995191 42 44 47 255 0.080502 0.278775
6.647332 26.49305 31.71366 -0.5417364 -0.7744437 -0.3267397 42 44 47 255 0.080619 0.27885
6.647332 29.05761 33.19431 -0.541736 0.774444 0.3267395 42 44 47 255 0.08062 0.278734
3.323665 23.61468 36.69915 -0.4330128 -0.05801191 -0.8995191 42 44 47 255 0.080518 0.278806
3.323665 26.17923 38.17981 -0.2499999 0.9665064 0.05801299 42 44 47 255 0.080518 0.278692
-8.494853 26.49305 31.71366 -0.6495191 -0.587019 -0.4832532 42 44 47 255 0.080182 0.278844
-4.247429 22.81467 38.0848 -0.522233 -0.8237443 0.2207217 42 44 47 255 0.080304 0.278803
-4.247429 25.37923 39.56544 -0.2165063 0.3370191 0.9162659 42 44 47 255 0.080304 0.278689
-8.494853 29.05761 33.19431 -0.6495187 0.5870193 0.4832533 42 44 47 255 0.080181 0.278728
-4.247427 30.17143 25.34252 -0.2165062 -0.3370187 -0.9162661 42 44 47 255 0.080277 0.278891
-4.247427 32.73599 26.82317 -0.4330126 0.8995191 -0.05801268 42 44 47 255 0.080276 0.278772
4.247428 30.17143 25.34252 0.1986798 -0.6226572 -0.7568516 42 44 47 255 0.080501 0.278895
4.247428 32.73599 26.82317 0.3273269 0.938127 -0.1130257 42 44 47 255 0.080502 0.278775
8.494853 26.49305 31.71366 0.8660254 -0.4330127 -0.2499999 42 44 47 255 0.080619 0.27885
8.494853 29.05761 33.19431 0.654654 0.6546534 0.3779645 42 44 47 255 0.08062 0.278734
4.247426 22.81467 38.0848 0.1805788 -0.9829581 0.03441824 42 44 47 255 0.080518 0.278806
4.247426 25.37923 39.56544 0.4330127 0.3995188 0.8080128 42 44 47 255 0.080518 0.278692
-1.704143 -25.98782 4.822083 -0.5222332 -0.8237443 0.2207214 42 44 47 255 0.080354 0.279625
1.704142 -25.98782 4.822083 0.2611164 -0.8991222 0.3512797 42 44 47 255 0.080457 0.279627
1.704142 12.17962 26.85808 0.5222329 -0.8237444 0.2207216 42 44 47 255 0.080458 0.278827
-1.704143 12.17962 26.85808 -0.2165065 -0.9620191 0.1662657 42 44 47 255 0.080353 0.278825
3.408284 -24.51199 2.265871 0.9185587 -0.3945746 -0.02368368 42 44 47 255 0.080504 0.279659
3.408284 13.65545 24.30187 0.5417363 -0.6701865 -0.5073184 42 44 47 255 0.080507 0.278849
1.704142 -23.03616 -0.290341 0.3611575 -0.5138005 -0.7781865 42 44 47 255 0.080447 0.279689
1.704142 15.13128 21.74566 0.2165063 -0.337019 -0.9162659 42 44 47 255 0.080449 0.27887
-1.704142 -23.03616 -0.290341 -0.3061862 0.1357557 -0.9422423 42 44 47 255 0.080342 0.279687
-1.704142 15.13128 21.74566 -0.5222329 -0.2207215 -0.8237444 42 44 47 255 0.08034 0.278869
-3.408284 -24.51199 2.265871 -0.7833495 -0.446855 -0.4320697 42 44 47 255 0.080297 0.279655
-3.408284 13.65545 24.30187 -0.5417365 -0.7744436 -0.3267396 42 44 47 255 0.080293 0.278846
-4.247429 13.24536 32.55995 -0.4803845 -0.1758329 0.8592517 42 44 47 255 0.080304 0.278689
4.247426 13.24536 32.55995 0.5222329 0.2207213 0.8237444 42 44 47 255 0.080518 0.278692
8.494853 16.92374 26.18881 0.7833495 0.5976108 0.1709533 42 44 47 255 0.08062 0.278734
-8.494853 16.92374 26.18881 -0.5417363 0.7744437 0.3267395 42 44 47 255 0.080181 0.278728
-8.494853 13.65545 24.30187 -0.7833495 -0.5976108 -0.1709532 42 44 47 255 0.080182 0.278844
-4.247429 9.977077 30.673 -0.2500001 -0.9665064 -0.05801273 42 44 47 255 0.080304 0.278803
-4.247427 17.33383 17.93073 -0.3273267 -0.3711802 -0.8689548 42 44 47 255 0.080277 0.278891
-4.247427 20.60212 19.81767 -0.4330125 0.8080129 -0.3995189 42 44 47 255 0.080276 0.278772
4.247428 17.33383 17.93073 0.4330128 -0.3995189 -0.8080128 42 44 47 255 0.080501 0.278895
4.247428 20.60212 19.81768 0.2611167 0.8991222 -0.3512796 42 44 47 255 0.080502 0.278775
8.494853 13.65545 24.30187 0.7833494 -0.597611 -0.1709531 42 44 47 255 0.080619 0.27885
4.247426 9.977077 30.673 0.1805788 -0.9829581 0.03441815 42 44 47 255 0.080518 0.278806
3 1 3 0 
3 5 7 4 
3 9 11 8 
3 10 0 11 
3 10 2 1 
3 0 8 11 
3 2 4 3 
3 2 6 5 
3 8 6 9 
3 3 7 8 
3 12 14 15 
3 16 13 12 
3 19 16 18 
3 21 18 20 
3 22 21 20 
3 14 22 15 
3 25 27 24 
3 24 29 28 
3 28 31 30 
3 30 33 32 
3 32 35 34 
3 34 26 25 
3 12 25 24 
3 26 13 27 
3 28 12 24 
3 13 29 27 
3 30 16 28 
3 17 31 29 
3 20 30 32 
3 31 21 33 
3 34 20 32 
3 21 35 33 
3 25 22 34 
3 23 26 35 
3 37 39 36 
3 40 42 43 
3 44 46 47 
3 46 36 47 
3 46 38 37 
3 36 44 47 
3 39 41 40 
3 38 42 41 
3 44 42 45 
3 39 43 44 
3 49 51 48 
3 53 55 52 
3 57 59 56 
3 58 48 59 
3 49 57 50 
3 48 56 59 
3 50 52 51 
3 50 54 53 
3 56 54 57 
3 51 55 56 
3 61 63 60 
3 65 63 64 
3 64 67 66 
3 69 71 68 
3 73 62 72 
3 72 61 75 
3 75 60 65 
3 75 64 72 
3 73 64 66 
3 63 74 67 
3 66 68 73 
3 67 69 66 
3 74 70 67 
3 73 71 74 
3 77 79 76 
3 81 83 80 
3 85 87 84 
3 86 76 87 
3 86 78 77 
3 76 84 87 
3 78 80 79 
3 78 82 81 
3 84 82 85 
3 79 83 84 
3 89 91 88 
3 92 89 88 
3 95 92 94 
3 96 95 94 
3 98 97 96 
3 90 98 91 
3 101 103 100 
3 100 105 104 
3 104 107 106 
3 108 107 109 
3 108 111 110 
3 110 102 101 
3 100 91 101 
3 90 103 102 
3 104 88 100 
3 89 105 103 
3 106 92 104 
3 93 107 105 
3 96 106 108 
3 107 97 109 
3 110 96 108 
3 97 111 109 
3 91 110 101 
3 99 102 111 
3 113 115 112 
3 116 114 113 
3 118 117 116 
3 120 119 118 
3 122 121 120 
3 112 123 122 
3 118 116 113 
3 125 127 124 
3 128 124 127 
3 130 127 131 
3 130 133 132 
3 132 126 134 
3 134 125 135 
3 135 124 129 
3 123 129 128 
3 123 130 121 
3 119 130 132 
3 117 132 134 
3 117 135 114 
3 115 135 129 
3 127 133 131 
3 1 2 3 
3 5 6 7 
3 9 10 11 
3 10 1 0 
3 10 9 2 
3 0 3 8 
3 2 5 4 
3 2 9 6 
3 8 7 6 
3 3 4 7 
3 12 13 14 
3 16 17 13 
3 19 17 16 
3 21 19 18 
3 22 23 21 
3 14 23 22 
3 25 26 27 
3 24 27 29 
3 28 29 31 
3 30 31 33 
3 32 33 35 
3 34 35 26 
3 12 15 25 
3 26 14 13 
3 28 16 12 
3 13 17 29 
3 30 18 16 
3 17 19 31 
3 20 18 30 
3 31 19 21 
3 34 22 20 
3 21 23 35 
3 25 15 22 
3 23 14 26 
3 37 38 39 
3 40 41 42 
3 44 45 46 
3 46 37 36 
3 46 45 38 
3 36 39 44 
3 39 38 41 
3 38 45 42 
3 44 43 42 
3 39 40 43 
3 49 50 51 
3 53 54 55 
3 57 58 59 
3 58 49 48 
3 49 58 57 
3 48 51 56 
3 50 53 52 
3 50 57 54 
3 56 55 54 
3 51 52 55 
3 61 62 63 
3 65 60 63 
3 64 63 67 
3 69 70 71 
3 73 74 62 
3 72 62 61 
3 75 61 60 
3 75 65 64 
3 73 72 64 
3 63 62 74 
3 66 69 68 
3 67 70 69 
3 74 71 70 
3 73 68 71 
3 77 78 79 
3 81 82 83 
3 85 86 87 
3 86 77 76 
3 86 85 78 
3 76 79 84 
3 78 81 80 
3 78 85 82 
3 84 83 82 
3 79 80 83 
3 89 90 91 
3 92 93 89 
3 95 93 92 
3 96 97 95 
3 98 99 97 
3 90 99 98 
3 101 102 103 
3 100 103 105 
3 104 105 107 
3 108 106 107 
3 108 109 111 
3 110 111 102 
3 100 88 91 
3 90 89 103 
3 104 92 88 
3 89 93 105 
3 106 94 92 
3 93 95 107 
3 96 94 106 
3 107 95 97 
3 110 98 96 
3 97 99 111 
3 91 98 110 
3 99 90 102 
3 113 114 115 
3 116 117 114 
3 118 119 117 
3 120 121 119 
3 122 123 121 
3 112 115 123 
3 113 112 118 
3 112 122 118 
3 122 120 118 
3 125 126 127 
3 128 129 124 
3 130 128 127 
3 130 131 133 
3 132 133 126 
3 134 126 125 
3 135 125 124 
3 123 115 129 
3 123 128 130 
3 119 121 130 
3 117 119 132 
3 117 134 135 
3 115 114 135 
3 127 126 133 
