ply
format ascii 1.0
comment INFO-3111 Flatenator generated
comment TextureFile Dungeons_Texture_01.png
element vertex 158
property float x
property float y
property float z
property float nx
property float ny
property float nz
property uchar red
property uchar green
property uchar blue
property uchar alpha
property float texture_u
property float texture_v
element face 266
property list uchar int vertex_indices
end_header
-1.43614 21.2059 30.1826 -0.931891 0 0.362738 60 45 35 255 0.024737 0.229499 
0 20.0025 30.1826 0 -0.608341 0.793676 60 45 35 255 0.024687 0.229531 
1.43614 21.2059 30.1826 0.931891 0 0.362738 60 45 35 255 0.024604 0.229032 
0 22.4093 30.1826 0 0.60834 0.793676 60 45 35 255 0.024649 0.228973 
1.43614 21.2059 25.9533 0.789077 0 -0.614294 60 45 35 255 0.025426 0.228905 
0 22.4093 25.9533 0 0.837551 -0.546359 60 45 35 255 0.025514 0.22884 
0 20.0025 25.9533 0 -0.837551 -0.546359 60 45 35 255 0.025511 0.229396 
-1.43614 21.2059 25.9533 -0.789077 0 -0.614294 60 45 35 255 0.025604 0.229357 
-1.43614 9.17453 24.4825 -0.931891 -0.177396 0.3164 60 45 35 255 0.024737 0.229499 
0 8.12487 23.894 0 -0.918776 0.39478 60 45 35 255 0.024687 0.229531 
1.43614 9.17453 24.4825 0.931891 -0.177396 0.3164 60 45 35 255 0.024604 0.229032 
0 10.2242 25.071 0 0.142482 0.989797 60 45 35 255 0.024649 0.228973 
1.43614 10.148 22.7462 1 0 -2.3201e-08 60 45 35 255 0.025426 0.228905 
0 11.1977 23.3347 0 0.872256 0.489049 60 45 35 255 0.025514 0.22884 
-1.43614 10.148 22.7462 -1 0 -2.3201e-08 60 45 35 255 0.025604 0.229357 
0 9.09834 22.1577 0 -0.872256 -0.489049 60 45 35 255 0.025511 0.229396 
-2.23767 6.47855 22.7316 -0.641585 -0.763503 0.0736958 42 44 47 255 0.080747 0.277391 
2.23767 6.47855 22.7316 0.641585 -0.615873 0.45724 42 44 47 255 0.080623 0.277368 
2.23767 12.952 26.3367 0.709609 -0.234771 0.664333 42 44 47 255 0.080508 0.277098 
-2.23767 12.952 26.3367 -0.709609 -0.290015 0.642142 42 44 47 255 0.080633 0.277113 
-2.23767 13.4184 24.9653 -0.709693 0.232868 -0.664913 42 44 47 255 0.080659 0.27709 
2.23767 13.4184 24.9653 0.709693 0.289084 -0.642469 42 44 47 255 0.080533 0.277075 
2.23767 6.94494 21.3601 0.435088 -0.612151 -0.66028 42 44 47 255 0.080646 0.277344 
-2.23767 6.94494 21.3601 -0.435088 0.0114616 -0.900315 42 44 47 255 0.080771 0.277367 
2.23767 19.3295 28.0045 0.557774 -0.0636951 0.827546 42 44 47 255 0.08045 0.276805 
-2.23767 19.3295 28.0045 -0.557774 -0.137683 0.818494 42 44 47 255 0.080577 0.276812 
2.23767 19.5492 26.5409 0.802276 0.096772 -0.589058 42 44 47 255 0.080479 0.276795 
-2.23767 19.5492 26.5409 -0.802276 0.0437708 -0.595347 42 44 47 255 0.080607 0.276801 
2.23767 26.3193 27.9185 0.760129 0.248218 0.600493 42 44 47 255 0.080451 0.276469 
-2.23767 26.3193 27.9185 -0.632204 0.209477 0.745947 42 44 47 255 0.08058 0.276465 
2.23767 26.3658 26.4363 0.534797 0.406855 -0.740581 42 44 47 255 0.080481 0.27647 
-2.23767 26.3658 26.4363 -0.641873 0.49294 -0.587375 42 44 47 255 0.08061 0.276466 
0 27.8499 27.9185 0 0.948377 0.317144 42 44 47 255 0.080514 0.276391 
0 27.8965 26.4363 0 0.867064 -0.498197 42 44 47 255 0.080545 0.276393 
-22.3689 6.7223 2e-06 -0.467847 -0.598282 -0.650521 42 44 47 255 0.079964 0.274658 
-18.0969 6.7223 13.1481 -0.622723 -0.683324 0.381164 42 44 47 255 0.079889 0.274762 
-21.2779 13.4825 15.4593 -0.63082 0.524706 0.57162 42 44 47 255 0.079956 0.274698 
-26.3009 13.4825 4e-06 -0.963822 0.0184757 -0.265906 42 44 47 255 0.08004 0.274579 
-6.91238 6.7223 21.2741 -0.242161 -0.752498 0.612459 42 44 47 255 0.079658 0.274834 
-8.12743 13.4825 25.0137 -0.174354 0.524706 0.833237 42 44 47 255 0.079681 0.274781 
6.91238 6.7223 21.2741 0.192105 -0.725282 0.661106 42 44 47 255 0.079368 0.274834 
8.12743 13.4825 25.0137 0.348709 0.524706 0.776586 42 44 47 255 0.079329 0.274781 
18.0968 6.7223 13.1481 0.544004 -0.725282 0.42193 42 44 47 255 0.07916 0.274761 
21.2779 13.4825 15.4593 0.738577 0.524706 0.423305 42 44 47 255 0.079082 0.274697 
22.3689 6.7223 0 0.583279 -0.506766 -0.634802 42 44 47 255 0.079119 0.274657 
26.3009 13.4825 2e-06 0.443383 0.807661 -0.388711 42 44 47 255 0.07904 0.274578 
-18.5879 13.4825 13.5049 0.308061 0.909491 -0.279151 42 44 47 255 0.0799 0.274682 
-22.9759 13.4825 3e-06 0.33996 0.748088 -0.569904 42 44 47 255 0.079977 0.274579 
-7.09996 13.4825 21.8514 0.101479 0.944541 -0.312321 42 44 47 255 0.079661 0.274752 
7.09996 13.4825 21.8514 -0.0851461 0.909491 -0.406912 42 44 47 255 0.079359 0.274752 
18.5879 13.4825 13.5049 -0.308061 0.909491 -0.279151 42 44 47 255 0.079144 0.274681 
22.9759 13.4825 2e-06 -0.403724 0.615592 -0.676797 42 44 47 255 0.079103 0.274578 
-13.7281 6.40748 9.97407 0.484165 0.826268 -0.287864 42 44 47 255 0.079786 0.274733 
-16.9689 6.40748 2e-06 0.246462 0.423974 -0.871495 42 44 47 255 0.079844 0.27466 
-5.24368 6.40748 16.1384 0.185244 0.800404 -0.570122 42 44 47 255 0.079622 0.274782 
5.24368 6.40748 16.1384 -0.222495 0.826268 -0.517472 42 44 47 255 0.079421 0.274782 
13.7281 6.40748 9.97407 -0.484165 0.826268 -0.287864 42 44 47 255 0.079274 0.274733 
16.9689 6.40748 1e-06 -0.246462 0.423974 -0.871495 42 44 47 255 0.079239 0.274659 
0 3.03902 -2e-06 -2.27694e-08 0.724157 -0.689636 42 44 47 255 0.079542 0.2747 
11.473 2.43952 8.33564 0.264623 -0.93658 0.229766 42 44 47 255 0.079308 0.274773 
14.1814 2.43952 -2e-06 0.274288 -0.691172 -0.668616 42 44 47 255 0.079276 0.274707 
4.38231 2.43952 13.4874 0.0790316 -0.93658 0.341426 42 44 47 255 0.079437 0.274817 
-4.38231 2.43952 13.4874 -0.0987856 -0.947527 0.304031 42 44 47 255 0.079613 0.274817 
-11.473 2.43952 8.33564 -0.298414 -0.929485 0.216811 42 44 47 255 0.079757 0.274773 
-14.1814 2.43952 -1e-06 -0.183701 -0.544489 -0.818405 42 44 47 255 0.079809 0.274707 
0 0 -2e-06 -5.03918e-09 -0.960576 -0.278016 42 44 47 255 0.079543 0.274735 
28.2615 21.2059 10.6928 0.340391 -1.83074e-07 0.940284 60 45 35 255 0.024737 0.229499 
28.7053 20.0025 9.32693 0.547007 -0.738311 0.394564 60 45 35 255 0.024687 0.229531 
29.1491 21.2059 7.96107 0.632954 1.08104e-07 -0.774189 60 45 35 255 0.024604 0.229032 
28.7053 22.4093 9.32693 0.547007 0.738311 0.394564 60 45 35 255 0.024649 0.228973 
25.1269 21.2059 6.65416 -0.340391 2.19689e-07 -0.940284 60 45 35 255 0.025426 0.228905 
24.6831 22.4093 8.02002 -0.547007 0.738311 -0.394564 60 45 35 255 0.025514 0.22884 
24.6831 20.0025 8.02002 -0.547007 -0.738311 -0.394564 60 45 35 255 0.025511 0.229396 
24.2393 21.2059 9.38587 -0.632954 -1.08104e-07 0.774189 60 45 35 255 0.025604 0.229357 
22.8404 9.17453 8.93136 0.0129443 -0.177397 0.984054 60 45 35 255 0.024737 0.229499 
22.7245 8.12487 7.38364 0.375459 -0.918775 0.121994 60 45 35 255 0.024687 0.229531 
23.728 9.17453 6.19965 0.464115 -0.502837 -0.729213 60 45 35 255 0.024604 0.229032 
23.8439 10.2242 7.74737 0.939838 0.329947 0.088541 60 45 35 255 0.024649 0.228973 
22.0767 10.148 5.66312 0.459052 0.322413 -0.827841 60 45 35 255 0.025426 0.228905 
22.1927 11.1977 7.21083 0.364838 0.840101 0.401402 60 45 35 255 0.025514 0.22884 
21.1891 10.148 8.39482 -0.309017 4.64021e-08 0.951056 60 45 35 255 0.025604 0.229357 
21.0732 9.09834 6.84711 -0.465114 -0.872256 -0.151125 60 45 35 255 0.025511 0.229396 
20.9276 6.47855 9.1526 -0.0370174 -0.568398 0.82192 42 44 47 255 0.080747 0.277391 
22.3105 6.47855 4.8963 0.454911 -0.782079 -0.42592 42 44 47 255 0.080623 0.277368 
25.7392 12.952 6.01035 0.851099 -0.234771 -0.469588 42 44 47 255 0.080508 0.277098 
24.3563 12.952 10.2667 0.391432 -0.290015 0.873311 42 44 47 255 0.080633 0.277113 
23.0519 13.4184 9.84285 -0.851677 0.232868 0.469489 42 44 47 255 0.080659 0.27709 
24.4349 13.4184 5.58654 -0.391718 0.289084 -0.873492 42 44 47 255 0.080533 0.277075 
21.0062 6.94494 4.47249 -0.509524 -0.283168 -0.812527 42 44 47 255 0.080646 0.277344 
19.6232 6.94494 8.7288 -0.939186 -0.334636 0.077123 42 44 47 255 0.080771 0.277367 
27.3253 19.3295 6.5257 0.959404 -0.0636949 -0.274749 42 44 47 255 0.08045 0.276805 
25.9423 19.3295 10.782 0.606072 -0.137683 0.783403 42 44 47 255 0.080577 0.276812 
25.9334 19.5492 6.07344 -0.31231 0.096772 -0.945038 42 44 47 255 0.080479 0.276795 
24.5504 19.5492 10.3298 -0.814125 0.0437706 0.579037 42 44 47 255 0.080607 0.276801 
27.2435 26.3193 6.49913 0.805995 0.248218 -0.537363 42 44 47 255 0.080451 0.276469 
25.8606 26.3193 10.7554 0.514076 0.209477 0.831772 42 44 47 255 0.08058 0.276465 
25.8339 26.3658 6.04113 -0.539073 0.406856 -0.737475 42 44 47 255 0.080481 0.27647 
24.451 26.3658 10.2974 -0.756976 0.492941 0.428949 42 44 47 255 0.08061 0.276466 
26.552 27.8499 8.62729 0.301622 0.948377 0.0980029 42 44 47 255 0.080514 0.276391 
25.1424 27.8965 8.16928 -0.473813 0.867064 -0.153951 42 44 47 255 0.080545 0.276393 
-31.1168 23.6935 7e-06 -0.871472 0.45816 -0.175002 42 44 47 255 0.08004 0.274579 
-25.174 23.6935 18.29 -0.431977 0.81251 0.391438 42 44 47 255 0.079956 0.274698 
-23.743 23.6935 17.2503 0.711804 0.571754 -0.407961 42 44 47 255 0.0799 0.274682 
-29.3479 23.6935 6e-06 0.297262 0.62512 -0.721706 42 44 47 255 0.079977 0.274579 
-9.61563 23.6935 29.5939 -0.168034 0.571754 0.803033 42 44 47 255 0.079681 0.274781 
-9.06901 23.6935 27.9115 0.238791 0.812511 -0.531794 42 44 47 255 0.079661 0.274752 
9.61563 23.6935 29.5939 0.238791 0.81251 0.531796 42 44 47 255 0.079329 0.274781 
9.06901 23.6935 27.9115 -0.168034 0.571754 -0.803033 42 44 47 255 0.079359 0.274752 
25.174 23.6935 18.29 0.599739 0.722607 0.343733 42 44 47 255 0.079082 0.274697 
23.743 23.6935 17.2503 -0.512238 0.722607 -0.464166 42 44 47 255 0.079144 0.274681 
31.1168 23.6935 5e-06 0.616224 0.647936 -0.447713 42 44 47 255 0.07904 0.274578 
29.3479 23.6935 5e-06 -0.5 0.525731 -0.688191 42 44 47 255 0.079103 0.274578 
-31.1168 18.6361 6e-06 -0.435737 -0.45816 -0.774741 42 44 47 255 0.08004 0.274579 
-25.174 18.6361 18.29 -0.599739 -0.722607 0.343732 42 44 47 255 0.079956 0.274698 
-23.743 18.6361 17.2503 0.512239 -0.722607 -0.464167 42 44 47 255 0.0799 0.274682 
-29.3479 18.6361 5e-06 0.594525 -0.62512 -0.505733 42 44 47 255 0.079977 0.274579 
-9.61563 18.6361 29.5939 -0.238791 -0.812511 0.531794 42 44 47 255 0.079681 0.274781 
-9.06901 18.6361 27.9115 0.168034 -0.571754 -0.803033 42 44 47 255 0.079661 0.274752 
9.61563 18.6361 29.5939 0.141579 -0.722607 0.676605 42 44 47 255 0.079329 0.274781 
9.06901 18.6361 27.9115 -0.283159 -0.722607 -0.630604 42 44 47 255 0.079359 0.274752 
25.174 18.6361 18.29 0.512238 -0.722607 0.464167 42 44 47 255 0.079082 0.274697 
23.743 18.6361 17.2503 -0.59974 -0.722607 -0.343733 42 44 47 255 0.079144 0.274681 
31.1168 18.6361 4e-06 0.744476 -0.391394 -0.540894 42 44 47 255 0.07904 0.274578 
29.3479 18.6361 4e-06 -0.369694 -0.777437 -0.50884 42 44 47 255 0.079103 0.274578 
-29.1491 21.2059 7.96107 -0.828067 3.66148e-08 -0.560629 60 45 35 255 0.024737 0.229499 
-28.7053 20.0025 9.32693 -0.519618 -0.837551 0.168834 60 45 35 255 0.024687 0.229531 
-28.2615 21.2059 10.6928 -0.340391 -2.19689e-07 0.940284 60 45 35 255 0.024604 0.229032 
-28.7053 22.4093 9.32693 -0.519618 0.837551 0.168834 60 45 35 255 0.024649 0.228973 
-24.2393 21.2059 9.38587 0.632954 -1.08104e-07 0.774189 60 45 35 255 0.025426 0.228905 
-24.6831 22.4093 8.02002 0.754831 0.608341 -0.245259 60 45 35 255 0.025514 0.22884 
-24.6831 20.0025 8.02002 0.754831 -0.608341 -0.24526 60 45 35 255 0.025511 0.229396 
-25.1269 21.2059 6.65416 0.0570136 1.72967e-07 -0.998373 60 45 35 255 0.025604 0.229357 
-23.728 9.17453 6.19965 -0.464115 -0.502837 -0.729213 60 45 35 255 0.024737 0.229499 
-22.7245 8.12487 7.38364 -0.125592 -0.958045 0.257638 60 45 35 255 0.024687 0.229531 
-22.8404 9.17453 8.93136 -0.256565 0.0779791 0.963376 60 45 35 255 0.024604 0.229032 
-23.8439 10.2242 7.74737 -0.939838 0.329947 0.088541 60 45 35 255 0.024649 0.228973 
-21.1891 10.148 8.39482 0.459052 -0.322414 0.827841 60 45 35 255 0.025426 0.228905 
-22.1927 11.1977 7.21083 -0.364837 0.840101 0.401402 60 45 35 255 0.025514 0.22884 
-22.0767 10.148 5.66312 -0.459052 0.322413 -0.827841 60 45 35 255 0.025604 0.229357 
-21.0732 9.09834 6.84711 0.364837 -0.840102 -0.401401 60 45 35 255 0.025511 0.229396 
-22.3105 6.47855 4.8963 -0.454911 -0.782079 -0.42592 42 44 47 255 0.080747 0.277391 
-20.9276 6.47855 9.1526 0.0370174 -0.568398 0.82192 42 44 47 255 0.080623 0.277368 
-24.3563 12.952 10.2667 -0.517624 -0.297328 0.802285 42 44 47 255 0.080508 0.277098 
-25.7392 12.952 6.01035 -0.744577 -0.205614 -0.635082 42 44 47 255 0.080633 0.277113 
-24.4349 13.4184 5.58654 0.391718 0.289084 -0.873492 42 44 47 255 0.080659 0.27709 
-23.0519 13.4184 9.84285 0.851677 0.232868 0.469489 42 44 47 255 0.080533 0.277075 
-19.6232 6.94494 8.7288 0.939186 -0.334636 0.077123 42 44 47 255 0.080646 0.277344 
-21.0062 6.94494 4.47249 0.509524 -0.283168 -0.812527 42 44 47 255 0.080771 0.277367 
-25.9423 19.3295 10.782 -0.445017 -0.0854801 0.891433 42 44 47 255 0.08045 0.276805 
-27.3253 19.3295 6.5257 -0.982019 -0.108418 -0.154546 42 44 47 255 0.080577 0.276812 
-24.5504 19.5492 10.3298 0.814125 0.0437706 0.579037 42 44 47 255 0.080479 0.276795 
-25.9334 19.5492 6.07344 0.31231 0.096772 -0.945038 42 44 47 255 0.080607 0.276801 
-25.8606 26.3193 10.7554 -0.514076 0.209477 0.831772 42 44 47 255 0.080451 0.276469 
-27.2435 26.3193 6.49913 -0.805995 0.248218 -0.537363 42 44 47 255 0.08058 0.276465 
-24.451 26.3658 10.2974 0.756976 0.492941 0.428949 42 44 47 255 0.080481 0.27647 
-25.8339 26.3658 6.04113 0.539073 0.406856 -0.737474 42 44 47 255 0.08061 0.276466 
-26.552 27.8499 8.62729 -0.301622 0.948377 0.0980029 42 44 47 255 0.080514 0.276391 
-25.1424 27.8965 8.16928 0.473813 0.867064 -0.153951 42 44 47 255 0.080545 0.276393 
3 1 3 0
3 2 5 3
3 5 6 7
3 6 0 7
3 6 2 1
3 0 5 7
3 9 11 8
3 10 13 11
3 15 8 14
3 15 10 9
3 8 13 14
3 17 19 16
3 21 23 20
3 22 16 23
3 17 21 18
3 16 20 23
3 18 25 19
3 18 26 24
3 20 26 21
3 19 27 20
3 24 29 25
3 26 28 24
3 27 30 26
3 27 29 31
3 29 28 32
3 30 32 28
3 30 31 33
3 31 32 33
3 35 37 34
3 38 36 35
3 40 39 38
3 42 41 40
3 44 43 42
3 36 47 37
3 39 46 36
3 41 48 39
3 43 49 41
3 45 50 43
3 47 52 53
3 46 54 52
3 49 54 48
3 50 55 49
3 51 56 50
3 53 52 58
3 52 54 58
3 54 55 58
3 55 56 58
3 56 57 58
3 42 60 44
3 40 59 42
3 38 61 40
3 38 63 62
3 34 63 35
3 60 59 65
3 59 61 65
3 61 62 65
3 62 63 65
3 63 64 65
3 64 58 65
3 58 60 65
3 44 51 45
3 60 57 44
3 34 47 53
3 53 64 34
3 67 69 66
3 68 71 69
3 71 72 73
3 73 67 66
3 72 68 67
3 73 69 71
3 75 77 74
3 77 78 79
3 81 74 80
3 81 76 75
3 74 79 80
3 83 85 82
3 87 89 86
3 89 83 82
3 83 87 84
3 82 86 89
3 84 91 85
3 84 92 90
3 86 92 87
3 85 93 86
3 90 95 91
3 92 94 90
3 93 96 92
3 93 95 97
3 95 94 98
3 96 98 94
3 96 97 99
3 97 98 99
3 101 103 100
3 101 105 102
3 106 105 104
3 106 109 107
3 108 111 109
3 113 100 112
3 115 102 114
3 116 101 113
3 114 105 117
3 118 104 116
3 117 107 119
3 120 106 118
3 119 109 121
3 122 108 120
3 121 111 123
3 120 123 122
3 118 121 120
3 116 119 118
3 116 114 117
3 113 115 114
3 103 112 100
3 122 111 110
3 125 127 124
3 127 128 129
3 129 130 131
3 131 125 124
3 125 128 126
3 131 127 129
3 133 135 132
3 134 137 135
3 139 132 138
3 133 136 134
3 138 135 137
3 140 142 143
3 144 146 147
3 146 140 147
3 141 145 142
3 140 144 147
3 142 149 143
3 142 150 148
3 145 151 150
3 143 151 144
3 149 152 153
3 150 152 148
3 150 155 154
3 151 153 155
3 153 152 156
3 154 156 152
3 154 155 157
3 155 156 157
3 1 2 3
3 2 4 5
3 5 4 6
3 6 1 0
3 6 4 2
3 0 3 5
3 9 10 11
3 10 12 13
3 15 9 8
3 15 12 10
3 8 11 13
3 17 18 19
3 21 22 23
3 22 17 16
3 17 22 21
3 16 19 20
3 18 24 25
3 18 21 26
3 20 27 26
3 19 25 27
3 24 28 29
3 26 30 28
3 27 31 30
3 27 25 29
3 30 33 32
3 31 29 32
3 35 36 37
3 38 39 36
3 40 41 39
3 42 43 41
3 44 45 43
3 36 46 47
3 39 48 46
3 41 49 48
3 43 50 49
3 45 51 50
3 47 46 52
3 46 48 54
3 49 55 54
3 50 56 55
3 51 57 56
3 42 59 60
3 40 61 59
3 38 62 61
3 38 35 63
3 34 64 63
3 64 53 58
3 58 57 60
3 44 57 51
3 34 37 47
3 67 68 69
3 68 70 71
3 71 70 72
3 73 72 67
3 72 70 68
3 73 66 69
3 75 76 77
3 77 76 78
3 81 75 74
3 81 78 76
3 74 77 79
3 83 84 85
3 87 88 89
3 89 88 83
3 83 88 87
3 82 85 86
3 84 90 91
3 84 87 92
3 86 93 92
3 85 91 93
3 90 94 95
3 92 96 94
3 93 97 96
3 93 91 95
3 96 99 98
3 97 95 98
3 101 102 103
3 101 104 105
3 106 107 105
3 106 108 109
3 108 110 111
3 113 101 100
3 115 103 102
3 116 104 101
3 114 102 105
3 118 106 104
3 117 105 107
3 120 108 106
3 119 107 109
3 122 110 108
3 121 109 111
3 120 121 123
3 118 119 121
3 116 117 119
3 116 113 114
3 113 112 115
3 103 115 112
3 122 123 111
3 125 126 127
3 127 126 128
3 129 128 130
3 131 130 125
3 125 130 128
3 131 124 127
3 133 134 135
3 134 136 137
3 139 133 132
3 133 139 136
3 138 132 135
3 140 141 142
3 144 145 146
3 146 141 140
3 141 146 145
3 140 143 144
3 142 148 149
3 142 145 150
3 145 144 151
3 143 149 151
3 149 148 152
3 150 154 152
3 150 151 155
3 151 149 153
3 154 157 156
3 155 153 156
