ply
format ascii 1.0
comment INFO-3111 Flatenator generated
comment TextureFile Dungeons_Texture_01.png
element vertex 103
property float x
property float y
property float z
element face 184
property list uchar int vertex_indices
end_header
31.0682 -1e-06 4.04412 
31.0682 1e-06 -4.04412 
31.0682 4.6222 -4.04412 
31.0682 4.6222 4.04412 
22.98 8.58926 -4.04412 
22.98 8.58926 4.04412 
18.6555 1e-06 -4.04412 
18.6555 -1e-06 4.04412 
21.6243 26.0664 4.04413 
21.6243 26.0664 -4.04411 
22.98 45.1693 -4.04411 
22.98 45.1693 4.04413 
18.6555 26.0664 -4.04411 
18.6555 47.5078 -4.04411 
18.6555 26.0664 4.04413 
18.6555 47.5078 4.04413 
27.1533 54.2506 -4.04411 
27.1533 54.2506 4.04413 
-12.0318 5e-06 -28.9279 
-19.0364 4e-06 -24.8838 
-19.0364 4.6222 -24.8838 
-12.0318 4.6222 -28.9279 
-14.9923 8.58927 -17.8792 
-7.9877 8.58927 -21.9233 
-12.8301 2e-06 -14.1341 
-5.82545 3e-06 -18.1782 
-7.30982 26.0664 -20.7492 
-14.3144 26.0664 -16.7051 
-14.9923 45.1693 -17.8792 
-7.9877 45.1693 -21.9233 
-12.8301 26.0664 -14.1341 
-12.8301 47.5078 -14.1341 
-5.82545 26.0664 -18.1782 
-5.82545 47.5078 -18.1782 
-17.079 54.2506 -21.4934 
-10.0744 54.2506 -25.5375 
-19.0364 -4e-06 24.8838 
-12.0318 -5e-06 28.9279 
-12.0318 4.62219 28.9279 
-19.0364 4.6222 24.8838 
-7.9877 8.58926 21.9233 
-14.9923 8.58926 17.8792 
-5.82545 -3e-06 18.1782 
-12.8301 -2e-06 14.1341 
-14.3145 26.0664 16.7051 
-7.30983 26.0664 20.7492 
-7.9877 45.1693 21.9233 
-14.9923 45.1693 17.8792 
-5.82546 26.0664 18.1782 
-5.82545 47.5078 18.1782 
-12.8301 26.0664 14.1341 
-12.8301 47.5078 14.1341 
-10.0744 54.2506 25.5375 
-17.079 54.2506 21.4934 
14.2863 4e-06 -24.7445 
-14.2863 4e-06 -24.7445 
-10 7.46899 -17.3205 
10 7.46899 -17.3205 
-28.5725 0 -3e-06 
-20 7.46899 -1e-06 
-14.2863 -4e-06 24.7445 
-10 7.46899 17.3205 
14.2863 -4e-06 24.7445 
10 7.46899 17.3205 
28.5725 0 1e-06 
20 7.46899 2e-06 
8.15493 7.46899 -14.1248 
-8.15493 7.46899 -14.1248 
-7.98114 4.63867 -13.8237 
7.98115 4.63867 -13.8237 
-16.3099 7.46899 -1e-06 
-15.9623 4.63866 -1e-06 
-8.15493 7.46899 14.1248 
-7.98115 4.63866 13.8237 
8.15493 7.46899 14.1248 
7.98114 4.63866 13.8237 
16.3099 7.46899 2e-06 
15.9623 4.63866 2e-06 
1e-06 0.985783 0 
15.1518 54.9767 26.2436 
-15.1518 54.9767 26.2436 
-10.2358 45.1693 17.7289 
10.2358 45.1693 17.7289 
-30.3035 54.9767 1.5e-05 
-20.4716 45.1693 9e-06 
-15.1518 54.9767 -26.2436 
-10.2358 45.1693 -17.7289 
15.1518 54.9767 -26.2436 
10.2358 45.1693 -17.7289 
30.3035 54.9767 3e-06 
20.4716 45.1693 5e-06 
13.2711 54.9767 22.9863 
9.28946 47.5078 16.0898 
-9.28945 47.5078 16.0898 
-13.2711 54.9767 22.9863 
-18.5789 47.5078 1e-05 
-26.5423 54.9767 1.2e-05 
-9.28945 47.5078 -16.0898 
-13.2711 54.9767 -22.9863 
9.28945 47.5078 -16.0898 
13.2711 54.9767 -22.9863 
18.5789 47.5078 7e-06 
26.5423 54.9767 8e-06 
3 1 3 0
3 3 4 5
3 1 4 2
3 7 1 0
3 5 0 3
3 9 11 8
3 12 10 9
3 14 13 12
3 14 11 15
3 5 9 8
3 4 12 9
3 7 12 6
3 5 14 7
3 10 17 11
3 10 13 16
3 15 11 17
3 19 21 18
3 20 23 21
3 19 22 20
3 25 19 18
3 23 18 21
3 27 29 26
3 30 28 27
3 30 33 31
3 32 29 33
3 22 26 23
3 22 30 27
3 24 32 30
3 23 32 25
3 28 35 29
3 28 31 34
3 33 29 35
3 37 39 36
3 39 40 41
3 37 40 38
3 43 37 36
3 41 36 39
3 45 47 44
3 48 46 45
3 50 49 48
3 50 47 51
3 40 44 41
3 40 48 45
3 43 48 42
3 41 50 43
3 46 53 47
3 46 49 52
3 51 47 53
3 55 57 54
3 58 56 55
3 60 59 58
3 62 61 60
3 62 65 63
3 64 57 65
3 64 60 55
3 67 69 66
3 67 71 68
3 70 73 71
3 72 75 73
3 76 75 74
3 66 77 76
3 69 68 78
3 68 71 78
3 71 73 78
3 73 75 78
3 75 77 78
3 77 69 78
3 56 66 57
3 59 67 56
3 61 70 59
3 63 72 61
3 65 74 63
3 65 66 76
3 80 82 79
3 83 81 80
3 85 84 83
3 87 86 85
3 89 88 87
3 89 82 90
3 92 94 91
3 93 96 94
3 96 97 98
3 98 99 100
3 100 101 102
3 102 92 91
3 94 79 91
3 92 81 93
3 96 80 94
3 93 84 95
3 98 83 96
3 97 84 86
3 100 85 98
3 99 86 88
3 102 87 100
3 99 90 101
3 102 79 89
3 101 82 92
3 1 2 3
3 3 2 4
3 1 6 4
3 7 6 1
3 5 7 0
3 9 10 11
3 12 13 10
3 14 15 13
3 14 8 11
3 5 4 9
3 4 6 12
3 7 14 12
3 5 8 14
3 10 16 17
3 19 20 21
3 20 22 23
3 19 24 22
3 25 24 19
3 23 25 18
3 27 28 29
3 30 31 28
3 30 32 33
3 32 26 29
3 22 27 26
3 22 24 30
3 24 25 32
3 23 26 32
3 28 34 35
3 37 38 39
3 39 38 40
3 37 42 40
3 43 42 37
3 41 43 36
3 45 46 47
3 48 49 46
3 50 51 49
3 50 44 47
3 40 45 44
3 40 42 48
3 43 50 48
3 41 44 50
3 46 52 53
3 55 56 57
3 58 59 56
3 60 61 59
3 62 63 61
3 62 64 65
3 64 54 57
3 55 54 64
3 64 62 60
3 60 58 55
3 67 68 69
3 67 70 71
3 70 72 73
3 72 74 75
3 76 77 75
3 66 69 77
3 56 67 66
3 59 70 67
3 61 72 70
3 63 74 72
3 65 76 74
3 65 57 66
3 80 81 82
3 83 84 81
3 85 86 84
3 87 88 86
3 89 90 88
3 89 79 82
3 92 93 94
3 93 95 96
3 96 95 97
3 98 97 99
3 100 99 101
3 102 101 92
3 94 80 79
3 92 82 81
3 96 83 80
3 93 81 84
3 98 85 83
3 97 95 84
3 100 87 85
3 99 97 86
3 102 89 87
3 99 88 90
3 102 91 79
3 101 90 82
