ply
format ascii 1.0
comment INFO-3111 Flatenator generated
comment TextureFile Dungeons_Texture_01.png
element vertex 376
property float x
property float y
property float z
property float nx
property float ny
property float nz
property float texture_u
property float texture_v
element face 674
property list uchar int vertex_indices
end_header
-0.010071 0.18067 0.299875 -0.408248 -0.816497 0.408248 0.112173 0.30139 
0.010071 0.18067 0.299875 0.408248 -0.408248 0.816497 0.112173 0.30139 
0.010071 0.210187 0.299875 0.666667 0.666667 0.333333 0.112173 0.30139 
-0.010071 0.210187 0.299875 -0.666667 0.333333 0.666667 0.112173 0.30139 
-0.02369 0.230145 0.109752 -0.398517 0.448097 0.800246 0.112173 0.30139 
0.02369 0.230145 0.109752 0.429746 0.69958 0.570883 0.112173 0.30139 
0.02369 0.230145 0.089073 0.894427 0.447214 0 0.112173 0.30139 
-0.02369 0.230145 0.089073 -0.707107 0.707107 0 0.112173 0.30139 
-0.02369 0.160712 0.089073 -0.707107 -0.707107 0 0.112173 0.30139 
0.02369 0.160712 0.089073 0.447214 -0.894427 0 0.112173 0.30139 
0.02369 0.160712 0.109752 0.569731 -0.320306 0.756842 0.112173 0.30139 
-0.02369 0.160712 0.109752 -0.615476 -0.500965 0.60846 0.112173 0.30139 
-0.010071 0.210187 0.11583 -0.449718 0.567714 0.689532 0.112173 0.30139 
0.010071 0.210187 0.11583 0.408075 0.355819 0.840754 0.112173 0.30139 
0.010071 0.18067 0.11583 0.631324 -0.60085 0.490315 0.112173 0.30139 
-0.010071 0.18067 0.11583 -0.596508 -0.39213 0.700294 0.112173 0.30139 
-0.093345 -0.155551 0.089073 -0.423435 0.230156 0.876203 0.113781 0.30139 
0.093344 -0.155551 0.089073 0.423436 0.230154 0.876203 0.113781 0.30139 
0.037949 -0.09539 0.089073 0.510404 0.124831 0.850826 0.113781 0.30139 
-0.037949 -0.09539 0.089073 -0.510403 0.124832 0.850827 0.113781 0.30139 
-0.066085 -0.077316 -0.182697 -0.547653 0.390732 -0.739868 0.21188 0.302998 
0.066084 -0.077316 -0.182697 0.64376 0.195367 -0.739868 0.21188 0.302998 
0.149658 -0.141703 -0.182697 0.664955 0.444287 -0.60037 0.21188 0.302998 
-0.149658 -0.141703 -0.182697 -0.540868 0.121429 -0.832296 0.21188 0.302998 
0.149658 -0.141703 0.064096 0.780299 0.175183 0.60037 0.21188 0.302998 
0.066084 -0.077316 0.064096 0.45865 0.327234 0.826171 0.21188 0.302998 
-0.149658 -0.141703 0.064096 -0.664957 0.444286 0.600369 0.21188 0.302998 
-0.066085 -0.077316 0.064096 -0.53914 0.163616 0.826171 0.21188 0.302998 
-0.079266 -0.345026 0.089073 -0.519561 -0.189667 0.833116 0.113781 0.30139 
0.079265 -0.345026 0.089073 0.432249 -0.157793 0.887841 0.113781 0.30139 
0.125887 -0.368384 0.064096 0.509593 -0.441042 0.738781 0.21188 0.302998 
0.125887 -0.368384 -0.182697 0.622172 -0.259046 -0.738781 0.21188 0.302998 
-0.125888 -0.368384 -0.182697 -0.610485 -0.528364 -0.590034 0.21188 0.302998 
-0.125888 -0.368384 0.064096 -0.622172 -0.259045 0.738781 0.21188 0.302998 
0.066084 0.10554 -0.182697 0.393727 -0.376672 -0.838509 0.21188 0.302998 
0.066084 0.10554 0.064096 0.614473 -0.226338 0.755774 0.21188 0.302998 
0.037949 0.122426 0.089073 0.336291 -0.193649 0.921634 0.113781 0.30139 
-0.037949 0.122426 0.089073 -0.336291 -0.193649 0.921633 0.113781 0.30139 
-0.066085 0.10554 0.064096 -0.473173 -0.452674 0.755774 0.21188 0.302998 
-0.066085 0.10554 -0.182697 -0.7437 -0.273937 -0.609811 0.21188 0.302998 
0.149658 0.146387 -0.182697 0.75882 -0.132326 -0.637716 0.21188 0.302998 
0.149658 0.146387 0.064096 0.589431 -0.495872 0.637716 0.21188 0.302998 
0.094232 0.154822 0.089073 0.363845 -0.29193 0.88453 0.113781 0.30139 
-0.094232 0.154822 0.089073 -0.363839 -0.291929 0.884533 0.113781 0.30139 
-0.149658 0.146387 0.064096 -0.758821 -0.132325 0.637716 0.21188 0.302998 
-0.149658 0.146387 -0.182697 -0.395598 -0.332803 -0.856005 0.21188 0.302998 
0.122927 0.253696 -0.182697 0.481672 0.481384 -0.732299 0.21188 0.302998 
0.122927 0.253696 0.064096 0.596128 0.329197 0.732299 0.21188 0.302998 
0.077401 0.237666 0.089073 0.506439 0.244063 0.827014 0.113781 0.30139 
-0.077401 0.237666 0.089073 -0.421814 0.203281 0.883601 0.113781 0.30139 
-0.122927 0.253696 0.064096 -0.481672 0.481384 0.732299 0.21188 0.302998 
-0.122927 0.253696 -0.182697 -0.711454 0.392883 -0.582646 0.21188 0.302998 
0 0.289178 0.089073 2.10025e-06 0.701382 0.712786 0.113781 0.30139 
0 0.324944 0.064096 0.104587 0.541347 0.834269 0.21188 0.302998 
0 0.324944 -0.182697 -0.177421 0.918335 -0.353812 0.21188 0.302998 
0 -0.448602 -0.182697 0.193793 -0.91236 -0.360616 0.21188 0.302998 
0 -0.448602 0.064096 -0.112816 -0.531137 0.839742 0.21188 0.302998 
0 -0.404627 0.089073 1.99675e-06 -0.705736 0.708475 0.113781 0.30139 
0.048367 -0.08964 0.064096 0 0 1 0.21188 0.302998 
0.109532 -0.152987 0.064096 0 0 1 0.21188 0.302998 
-0.109533 -0.152987 0.064096 0 0 1 0.21188 0.302998 
-0.048367 -0.08964 0.064096 0 0 1 0.21188 0.302998 
0.092135 -0.35539 0.064096 0 0 1 0.21188 0.302998 
-0.092136 -0.35539 0.064096 0 0 1 0.21188 0.302998 
0.048367 0.115905 0.064096 0 0 1 0.21188 0.302998 
-0.048367 0.115905 0.064096 0 0 1 0.21188 0.302998 
0.109532 0.151081 0.064096 0 0 1 0.21188 0.302998 
-0.109533 0.151081 0.064096 0 0 1 0.21188 0.302998 
0.089968 0.248562 0.064096 0 0 1 0.21188 0.302998 
-0.089969 0.248562 0.064096 0 0 1 0.21188 0.302998 
0 0.303808 0.064096 0 0 1 0.21188 0.302998 
0 -0.41772 0.064096 0 0 1 0.21188 0.302998 
0.050428 0.396764 0.306215 0.343983 0.908944 -0.235577 0.112972 0.300672 
0.048923 0.369529 0.296472 0.310249 -0.485692 -0.81722 0.112972 0.300672 
-0.046979 0.369529 0.296472 -0.171892 -0.563613 -0.807957 0.112972 0.300672 
-0.048485 0.396764 0.306215 -0.454677 0.873496 -0.17399 0.112972 0.300672 
-0.094931 0.334619 0.371832 -0.825304 -0.512383 -0.237354 0.112972 0.300672 
-0.097941 0.360759 0.383941 -0.687958 0.658526 0.305052 0.112972 0.300672 
-0.046979 0.29971 0.447193 -0.205366 -0.955751 0.210627 0.112972 0.300672 
-0.048485 0.324753 0.461667 -0.377758 0.55769 0.739108 0.112972 0.300672 
0.048923 0.29971 0.447193 0.19073 -0.97762 -0.0887774 0.112972 0.300672 
0.050428 0.324753 0.461667 0.397118 0.262212 0.879512 0.112972 0.300672 
0.096874 0.334619 0.371832 0.716338 -0.633119 -0.293291 0.112972 0.300672 
0.099885 0.360759 0.383941 0.687967 0.658518 0.305049 0.112972 0.300672 
0.044056 0.365985 0.304121 -0.376108 -0.925226 0.0500009 0.112972 0.300672 
0.08714 0.334619 0.371832 -0.519708 -0.775213 -0.359095 0.112972 0.300672 
-0.042112 0.365985 0.304121 0.272398 -0.833628 0.480484 0.112972 0.300672 
-0.085196 0.334619 0.371832 0.564163 -0.788316 -0.245516 0.112972 0.300672 
-0.042112 0.303253 0.439544 0.395216 -0.268099 -0.878594 0.112972 0.300672 
0.044056 0.303253 0.439544 -0.54482 -0.238666 -0.803872 0.112972 0.300672 
0.045408 0.39311 0.314104 -0.249316 0.285402 0.925412 0.112972 0.300672 
-0.043465 0.39311 0.314104 0.412998 0.503588 0.758836 0.112972 0.300672 
-0.087902 0.360759 0.383941 0.51831 0.812609 0.266499 0.112972 0.300672 
-0.043465 0.328408 0.453779 0.311954 0.93622 -0.161794 0.112972 0.300672 
0.045408 0.328408 0.453779 -0.206488 0.954596 -0.214731 0.112972 0.300672 
0.089845 0.360759 0.383941 -0.623947 0.709079 0.328478 0.112972 0.300672 
0.046044 0.340408 0.288477 0.341434 0.858626 -0.38234 0.112972 0.300672 
0.041225 0.314785 0.285807 0.30325 -0.500661 -0.810788 0.112972 0.300672 
-0.039282 0.314785 0.285807 -0.294359 -0.667618 -0.683841 0.112972 0.300672 
-0.044101 0.340408 0.288477 -0.35284 0.615415 -0.704818 0.112972 0.300672 
-0.079535 0.28548 0.34907 -0.632554 -0.74521 -0.211037 0.112972 0.300672 
-0.089174 0.307594 0.359313 -0.813316 0.562212 0.149781 0.112972 0.300672 
-0.039282 0.256175 0.412332 -0.174506 -0.979412 0.101486 0.112972 0.300672 
-0.044101 0.27478 0.43015 -0.504772 0.103099 0.857074 0.112972 0.300672 
0.041225 0.256175 0.412332 0.166238 -0.97678 -0.135148 0.112972 0.300672 
0.046044 0.27478 0.43015 0.495428 -0.23823 0.835343 0.112972 0.300672 
0.081479 0.28548 0.34907 0.632563 -0.745204 -0.211033 0.112972 0.300672 
0.091117 0.307594 0.359313 0.813311 0.562219 0.149783 0.112972 0.300672 
0.037139 0.311811 0.292228 -0.44496 -0.737789 0.50762 0.112972 0.300672 
0.073308 0.28548 0.34907 -0.62733 -0.647339 -0.432908 0.112972 0.300672 
-0.035196 0.311811 0.292228 0.607172 -0.633941 0.479021 0.112972 0.300672 
-0.071364 0.28548 0.34907 0.627336 -0.647334 -0.432907 0.112972 0.300672 
-0.035196 0.259149 0.405912 0.255134 -0.258854 -0.931612 0.112972 0.300672 
0.037139 0.259149 0.405912 -0.386921 -0.293002 -0.874324 0.112972 0.300672 
0.042601 0.340239 0.294972 -0.0374839 0.816807 0.575692 0.112972 0.300672 
-0.040658 0.340239 0.294972 0.0270715 0.777703 0.628049 0.112972 0.300672 
-0.082286 0.309932 0.360396 0.523939 0.70346 0.480242 0.112972 0.300672 
-0.040658 0.279625 0.425821 0.235835 0.960913 0.145011 0.112972 0.300672 
0.042601 0.279625 0.425821 -0.177289 0.977489 0.114385 0.112972 0.300672 
0.084229 0.309932 0.360396 -0.523949 0.703452 0.480244 0.112972 0.300672 
0.036637 0.371669 0.283129 -0.270362 0.255945 -0.928114 0.111864 0.301226 
0.038173 0.407751 0.296912 -0.20704 0.0691826 -0.975883 0.111864 0.301226 
0.064827 0.401283 0.310875 0.922034 -0.369065 -0.116812 0.111864 0.301226 
0.063292 0.365201 0.297092 0.962531 0.00753929 -0.271066 0.111864 0.301226 
0.054961 0.445659 0.310875 0.111327 0.702779 -0.702644 0.111864 0.301226 
0.053448 0.448602 0.315126 -0.251962 0.96435 -0.0809018 0.111864 0.301226 
0.057746 0.447559 0.317378 0.338905 0.854673 0.39329 0.111864 0.301226 
0.059259 0.444616 0.313126 0.789911 0.359053 -0.497114 0.111864 0.301226 
0.035211 0.405595 0.301568 -0.871793 -0.253686 0.419072 0.111864 0.301226 
0.033675 0.373607 0.289681 -0.912782 -0.0141263 0.408203 0.111864 0.301226 
0.060329 0.367139 0.303644 0.451201 -0.272564 0.84978 0.111864 0.301226 
0.061864 0.399126 0.315531 0.0123426 -0.491895 0.870567 0.111864 0.301226 
0.023155 0.306434 0.278646 -0.787947 0.608936 0.0913099 0.111864 0.301226 
0.025764 0.299669 0.270532 -0.544233 -0.28323 -0.789678 0.111864 0.301226 
0.052418 0.293201 0.284495 0.912207 -0.35325 -0.207587 0.111864 0.301226 
0.049809 0.299966 0.292609 0.421835 0.0353628 0.905983 0.111864 0.301226 
-0.049808 0.253315 0.393316 -0.532854 0.635463 -0.558796 0.111864 0.301226 
-0.023154 0.246847 0.407279 0.83585 0.338935 0.43183 0.111864 0.301226 
-0.025764 0.236283 0.407366 0.204893 -0.914542 0.348758 0.111864 0.301226 
0.071233 0.405934 0.31555 0.830039 -0.0304652 -0.556872 0.111864 0.301226 
0.065447 0.427144 0.316887 0.894584 0.228593 -0.384012 0.111864 0.301226 
0.063348 0.431226 0.322786 0.41728 0.203387 0.885727 0.111864 0.301226 
0.068402 0.405524 0.320765 0.352118 -0.420147 0.836355 0.111864 0.301226 
0.040453 0.436783 0.310792 -0.783732 0.575759 0.23295 0.111864 0.301226 
0.030158 0.414805 0.30073 -0.986558 -0.0886263 0.137293 0.111864 0.301226 
0.042552 0.4327 0.304893 -0.0702788 0.419922 -0.904835 0.111864 0.301226 
0.032989 0.415215 0.295515 0.0116457 0.170102 -0.985358 0.111864 0.301226 
-0.063291 0.298919 0.440178 -0.957668 -0.244429 0.152073 0.111864 0.301226 
-0.036637 0.292451 0.454141 0.265451 -0.499928 0.824384 0.111864 0.301226 
-0.038173 0.326297 0.472751 0.503503 -0.67373 0.5409 0.111864 0.301226 
-0.064826 0.332765 0.458788 -0.895554 -0.432079 0.106255 0.111864 0.301226 
-0.059258 0.362504 0.490385 -0.736348 -0.0787541 0.672004 0.111864 0.301226 
-0.054961 0.361461 0.492637 -0.0159855 -0.166165 0.985968 0.111864 0.301226 
-0.053448 0.366607 0.492132 0.00517077 0.4632 0.886239 0.111864 0.301226 
-0.057745 0.36765 0.48988 -0.229183 0.970149 0.0792832 0.111864 0.301226 
-0.061864 0.334922 0.454132 -0.201942 0.282515 -0.937766 0.111864 0.301226 
-0.03521 0.328454 0.468095 0.809418 0.226356 -0.541854 0.111864 0.301226 
-0.033674 0.298702 0.451382 0.956768 0.250783 -0.14732 0.111864 0.301226 
-0.060328 0.305171 0.437419 -0.26612 0.50636 -0.820231 0.111864 0.301226 
-0.052417 0.242751 0.393403 -0.860948 -0.429321 -0.272858 0.111864 0.301226 
-0.032989 0.330058 0.479347 -0.123731 -0.630682 0.766114 0.111864 0.301226 
-0.030157 0.333771 0.475662 0.986569 0.0473571 -0.156332 0.111864 0.301226 
-0.040452 0.355658 0.48592 0.78372 0.55002 0.288549 0.111864 0.301226 
-0.042551 0.348518 0.48662 0.0702161 -0.418701 0.905406 0.111864 0.301226 
-0.068401 0.343052 0.455627 -0.352082 0.366236 -0.861342 0.111864 0.301226 
-0.063347 0.361214 0.473925 -0.417279 0.807144 -0.417608 0.111864 0.301226 
-0.071233 0.339339 0.459312 -0.907984 -0.380151 0.176214 0.111864 0.301226 
-0.065446 0.354074 0.474625 -0.894586 -0.145078 0.422692 0.111864 0.301226 
0.063292 0.298919 0.440178 0.993178 -0.116522 0.00449002 0.111864 0.301226 
0.064827 0.332765 0.458788 0.923505 -0.382833 -0.0240245 0.111864 0.301226 
0.038173 0.326297 0.472751 -0.340605 -0.705575 0.621411 0.111864 0.301226 
0.036637 0.292451 0.454141 -0.129626 -0.548145 0.826277 0.111864 0.301226 
0.059259 0.362504 0.490385 0.736288 -0.0788003 0.672064 0.111864 0.301226 
0.057746 0.36765 0.489881 0.540548 0.754228 0.372758 0.111864 0.301226 
0.053448 0.366607 0.492132 -0.167439 0.729823 0.662814 0.111864 0.301226 
0.054961 0.361461 0.492637 0.0159318 -0.166155 0.985971 0.111864 0.301226 
0.061864 0.334922 0.454132 0.0142333 0.370594 -0.928686 0.111864 0.301226 
0.060329 0.305171 0.437419 0.266094 0.506366 -0.820236 0.111864 0.301226 
0.033675 0.298702 0.451382 -0.956751 0.250814 -0.147379 0.111864 0.301226 
0.035211 0.328454 0.468095 -0.869324 0.132002 -0.47629 0.111864 0.301226 
0.049809 0.253315 0.393316 0.421849 0.71393 -0.55888 0.111864 0.301226 
0.052418 0.242751 0.393403 0.912203 -0.386785 -0.135216 0.111864 0.301226 
0.025764 0.236283 0.407366 -0.393155 -0.893364 0.217555 0.111864 0.301226 
0.023155 0.246847 0.407279 -0.835853 0.338974 0.431795 0.111864 0.301226 
-0.023154 0.306434 0.278646 0.835852 0.548564 -0.0207244 0.111864 0.301226 
-0.049808 0.299966 0.292609 -0.421835 0.0353629 0.905983 0.111864 0.301226 
-0.052417 0.293201 0.284495 -0.912217 -0.353232 -0.207576 0.111864 0.301226 
0.032989 0.330058 0.479347 0.0116557 -0.641598 0.766953 0.111864 0.301226 
0.042552 0.348518 0.48662 -0.0702454 -0.418679 0.905414 0.111864 0.301226 
0.040453 0.355658 0.48592 -0.777898 0.388463 0.493935 0.111864 0.301226 
0.030158 0.333771 0.475662 -0.94955 0.147641 -0.276689 0.111864 0.301226 
0.063348 0.361214 0.473925 0.240107 0.855844 -0.458126 0.111864 0.301226 
0.068402 0.343052 0.455627 0.536353 0.277269 -0.79715 0.111864 0.301226 
0.065447 0.354074 0.474625 0.894581 -0.145106 0.422692 0.111864 0.301226 
0.071233 0.339339 0.459312 0.830046 -0.444432 0.336904 0.111864 0.301226 
-0.036637 0.371669 0.283129 0.270295 0.255943 -0.928135 0.111864 0.301226 
-0.063291 0.365201 0.297092 -0.962533 0.00753685 -0.271058 0.111864 0.301226 
-0.064826 0.401283 0.310875 -0.915428 -0.287094 -0.28208 0.111864 0.301226 
-0.038173 0.407751 0.296912 0.341219 0.0410369 -0.939088 0.111864 0.301226 
-0.054961 0.445659 0.310875 -0.0159498 0.644585 -0.764366 0.111864 0.301226 
-0.059258 0.444616 0.313126 -0.736303 0.461677 -0.494684 0.111864 0.301226 
-0.057745 0.447559 0.317378 -0.229188 0.687856 0.688714 0.111864 0.301226 
-0.053448 0.448602 0.315126 0.00518804 0.975504 -0.219922 0.111864 0.301226 
-0.03521 0.405595 0.301568 0.809417 -0.266928 0.523062 0.111864 0.301226 
-0.061864 0.399126 0.315531 -0.201954 -0.532603 0.821918 0.111864 0.301226 
-0.060328 0.367139 0.303644 -0.266105 -0.298225 0.916651 0.111864 0.301226 
-0.033674 0.373607 0.289681 0.95677 0.049802 0.286549 0.111864 0.301226 
-0.025764 0.299669 0.270532 0.393109 -0.41176 -0.822143 0.111864 0.301226 
-0.071233 0.405934 0.31555 -0.907978 -0.111452 -0.403924 0.111864 0.301226 
-0.068401 0.405524 0.320765 -0.352096 -0.420147 0.836364 0.111864 0.301226 
-0.063347 0.431226 0.322786 -0.41728 0.203387 0.885727 0.111864 0.301226 
-0.065446 0.427144 0.316887 -0.894588 0.228611 -0.383991 0.111864 0.301226 
-0.030157 0.414805 0.30073 0.986567 -0.0886221 0.137227 0.111864 0.301226 
-0.040452 0.436783 0.310792 0.783719 0.575784 0.232932 0.111864 0.301226 
-0.032989 0.415215 0.295515 -0.12372 0.176505 -0.976493 0.111864 0.301226 
-0.042551 0.4327 0.304893 0.0702496 0.419902 -0.904847 0.111864 0.301226 
0.099928 0.338528 0.354671 0.687328 0.154751 -0.709671 0.111864 0.301226 
0.103 0.373492 0.370868 0.582234 -0.0174291 -0.812834 0.111864 0.301226 
0.103 0.360556 0.398794 0.574875 -0.648735 0.498661 0.111864 0.301226 
0.099928 0.325592 0.382598 0.697043 -0.395192 0.598294 0.111864 0.301226 
0.11422 0.404603 0.399504 0.843232 0.436133 -0.314242 0.111864 0.301226 
0.111194 0.408647 0.401378 0.171463 0.97655 0.130196 0.111864 0.301226 
0.111194 0.406561 0.405881 0.288622 0.570807 0.768685 0.111864 0.301226 
0.11422 0.402517 0.404007 0.924939 0.0585646 0.375577 0.111864 0.301226 
0.097075 0.373492 0.370868 -0.856972 0.140979 -0.495706 0.111864 0.301226 
0.094004 0.342623 0.356568 -0.685466 0.448313 -0.573718 0.111864 0.301226 
0.094004 0.329687 0.384495 -0.695803 -0.193946 0.691552 0.111864 0.301226 
0.097075 0.360556 0.398794 -0.857541 -0.264117 0.441435 0.111864 0.301226 
0.072963 0.283109 0.328999 -0.201983 0.800409 -0.564401 0.111864 0.301226 
0.078182 0.274444 0.324986 0.299602 -0.389069 -0.871128 0.111864 0.301226 
0.078182 0.261508 0.352912 0.599173 -0.715347 0.359543 0.111864 0.301226 
0.072963 0.270172 0.356926 -0.403981 -0.046606 0.91358 0.111864 0.301226 
-0.072963 0.283109 0.328999 0.279429 0.717672 -0.63786 0.111864 0.301226 
-0.072963 0.270172 0.356926 0.431881 0.251284 0.866219 0.111864 0.301226 
-0.078181 0.261508 0.352912 -0.434484 -0.820531 0.37142 0.111864 0.301226 
0.104222 0.363355 0.407466 0.842055 -0.434436 0.3197 0.111864 0.301226 
0.107999 0.385053 0.407751 0.743861 -0.184235 0.642439 0.111864 0.301226 
0.1038 0.390664 0.41035 -0.365341 0.271175 0.8905 0.111864 0.301226 
0.098559 0.365007 0.408231 -0.633418 -0.345747 0.692272 0.111864 0.301226 
0.1038 0.401776 0.386361 -0.413358 0.808099 -0.419656 0.111864 0.301226 
0.098559 0.383569 0.368161 -0.634112 0.297792 -0.713598 0.111864 0.301226 
0.107999 0.396165 0.383762 0.880374 0.168272 -0.443425 0.111864 0.301226 
0.104222 0.381917 0.367396 0.84153 -0.0387949 -0.538816 0.111864 0.301226 
-0.099928 0.338528 0.354671 -0.687327 0.154752 -0.709671 0.111864 0.301226 
-0.099928 0.325592 0.382598 -0.697043 -0.395184 0.598298 0.111864 0.301226 
-0.102999 0.360556 0.398794 -0.574872 -0.648733 0.498667 0.111864 0.301226 
-0.102999 0.373492 0.370868 -0.582232 -0.0174178 -0.812836 0.111864 0.301226 
-0.11422 0.404603 0.399504 -0.843241 0.436105 -0.314257 0.111864 0.301226 
-0.11422 0.402517 0.404007 -0.924945 0.058535 0.375566 0.111864 0.301226 
-0.111194 0.406561 0.405881 -0.288622 0.570807 0.768685 0.111864 0.301226 
-0.111194 0.408647 0.401378 -0.171463 0.97655 0.130196 0.111864 0.301226 
-0.097075 0.373492 0.370868 0.856972 0.140994 -0.495701 0.111864 0.301226 
-0.097075 0.360556 0.398794 0.857541 -0.26411 0.441439 0.111864 0.301226 
-0.094003 0.329687 0.384495 0.695802 -0.193936 0.691555 0.111864 0.301226 
-0.094003 0.342623 0.356568 0.685466 0.448314 -0.573717 0.111864 0.301226 
-0.078181 0.274444 0.324986 -0.280765 0.0253743 -0.959441 0.111864 0.301226 
-0.104221 0.363355 0.407466 -0.842054 -0.434437 0.319701 0.111864 0.301226 
-0.098559 0.365007 0.408231 0.633415 -0.345752 0.692273 0.111864 0.301226 
-0.1038 0.390664 0.41035 0.365323 0.271165 0.89051 0.111864 0.301226 
-0.107998 0.385053 0.407751 -0.743878 -0.184261 0.642412 0.111864 0.301226 
-0.098559 0.383569 0.368161 0.634108 0.29779 -0.713602 0.111864 0.301226 
-0.1038 0.401776 0.386361 0.413341 0.8081 -0.419672 0.111864 0.301226 
-0.104221 0.381917 0.367396 -0.841529 -0.0387941 -0.538817 0.111864 0.301226 
-0.107998 0.396165 0.383762 -0.880378 0.168237 -0.443431 0.111864 0.301226 
0.011267 0.015111 0.202319 0.500008 0.363007 -0.786268 0.039303 0.301708 
-0.011267 0.015111 0.202319 -0.569484 0.340412 -0.748203 0.039303 0.301708 
-0.014074 0.172737 0.269977 -0.499729 0.33412 -0.799147 0.039303 0.301708 
0.014074 0.172737 0.269977 0.327164 0.367799 -0.870453 0.039303 0.301708 
-0.022534 0.006908 0.220026 -0.999999 -0.0010052 -0.000460498 0.039303 0.301708 
-0.028149 0.16249 0.292097 -0.999464 -0.0297009 -0.0137493 0.039303 0.301708 
-0.011267 -0.001294 0.237733 -0.569479 -0.342419 0.74729 0.039303 0.301708 
-0.014074 0.152244 0.314216 -0.327149 -0.426129 0.843438 0.039303 0.301708 
0.011267 -0.001294 0.237733 0.499973 -0.374559 0.780854 0.039303 0.301708 
0.014074 0.152244 0.314216 0.499732 -0.393514 0.771631 0.039303 0.301708 
0.022533 0.006908 0.220026 0.999955 0.00856224 0.00397405 0.039303 0.301708 
0.028148 0.16249 0.292097 0.999464 -0.0297004 -0.0137491 0.039303 0.301708 
-0.009268 -0.314445 0.053474 -0.374314 -0.329062 -0.866953 0.111416 0.303488 
0.009268 -0.314445 0.053474 0.448226 -0.443777 -0.775987 0.111416 0.303488 
0 -0.321193 0.068039 0 -0.907361 -0.420352 0.111416 0.303488 
-0.018535 -0.321193 0.068039 -0.672347 -0.715712 -0.188962 0.111416 0.303488 
-0.009268 -0.32794 0.082604 -0.279814 -0.955693 0.0914027 0.111416 0.303488 
0.009268 -0.32794 0.082604 0.224117 -0.933269 0.280678 0.111416 0.303488 
0.018535 -0.321193 0.068039 0.672347 -0.715712 -0.188962 0.111416 0.303488 
0.03149 0.300049 0.295708 0.472515 0.640697 -0.605175 0.111416 0.303488 
-0.03149 0.300049 0.295708 -0.563766 0.659994 -0.496564 0.111416 0.303488 
0 0.316186 0.363293 2.93611e-06 0.907375 0.420322 0.111416 0.303488 
-0.062981 0.277124 0.345199 -0.91233 0.30178 0.276737 0.111416 0.303488 
-0.03149 0.254198 0.394689 -0.34855 -0.00420535 0.937281 0.111416 0.303488 
0.03149 0.254198 0.394689 0.563773 0.0480228 0.824533 0.111416 0.303488 
0.06298 0.277124 0.345199 0.872635 0.443137 0.205276 0.111416 0.303488 
-0.0189 0.179781 0.264028 -0.265268 -0.209705 -0.941093 0.111416 0.303488 
0.018901 0.179781 0.264028 0.402652 -0.244793 -0.882013 0.111416 0.303488 
-0.037801 0.166021 0.293732 -0.858189 -0.447699 -0.251151 0.111416 0.303488 
-0.0189 0.152261 0.323437 -0.330476 -0.921513 0.203959 0.111416 0.303488 
0.018901 0.152261 0.323437 0.347412 -0.842649 0.411397 0.111416 0.303488 
0.037801 0.166021 0.293732 0.858183 -0.447711 -0.251151 0.111416 0.303488 
-0.0189 0.208101 0.277147 -0.474264 0.728224 -0.494736 0.111416 0.303488 
0.018901 0.208101 0.277147 0.476451 0.622069 -0.621309 0.111416 0.303488 
-0.037801 0.194341 0.306851 -0.809873 0.532268 0.246571 0.111416 0.303488 
-0.0189 0.180581 0.336555 -0.408035 0.00644777 0.912944 0.111416 0.303488 
0.018901 0.180581 0.336555 0.585765 0.120889 0.801415 0.111416 0.303488 
0.037801 0.194341 0.306851 0.841595 0.518726 0.15047 0.111416 0.303488 
-0.017252 0.209274 0.280838 -0.5569 0.118881 -0.822028 0.111416 0.303488 
0.017252 0.209274 0.280838 0.559755 0.474356 -0.679456 0.111416 0.303488 
-0.034503 0.196715 0.307951 -0.998847 -0.0435685 -0.0201639 0.111416 0.303488 
-0.017252 0.184155 0.335063 -0.556903 -0.550142 0.622256 0.111416 0.303488 
0.017252 0.184155 0.335063 0.3839 -0.180233 0.905614 0.111416 0.303488 
0.034503 0.196715 0.307951 0.980886 -0.122114 0.151496 0.111416 0.303488 
-0.020342 0.215281 0.277722 -0.40259 -0.245006 -0.881983 0.111416 0.303488 
0.020342 0.215281 0.277722 0.295841 -0.363564 -0.883345 0.111416 0.303488 
-0.040683 0.200472 0.309691 -0.720021 -0.65703 -0.22334 0.111416 0.303488 
-0.020342 0.185663 0.341661 -0.37401 -0.874499 0.308818 0.111416 0.303488 
0.020342 0.185663 0.341661 0.373991 -0.874511 0.308805 0.111416 0.303488 
0.040684 0.200472 0.309691 0.740333 -0.536228 -0.405421 0.111416 0.303488 
-0.029279 0.255187 0.279148 -0.577987 0.53015 -0.62038 0.111416 0.303488 
0.029279 0.255187 0.279148 0.497378 0.454901 -0.738702 0.111416 0.303488 
-0.058558 0.233871 0.325162 -0.992721 0.032616 -0.11594 0.111416 0.303488 
-0.029279 0.212555 0.371177 -0.56582 -0.332601 0.75447 0.111416 0.303488 
0.029279 0.212555 0.371178 0.391474 -0.175651 0.903269 0.111416 0.303488 
0.058558 0.233871 0.325163 0.977013 0.0121164 0.212834 0.111416 0.303488 
-0.022279 0.26704 0.297999 -0.325185 0.291097 -0.899732 0.111416 0.303488 
0.02228 0.26704 0.297999 0.564224 0.0593983 -0.823483 0.111416 0.303488 
-0.044559 0.25082 0.333014 -0.993236 -0.10536 -0.0488008 0.111416 0.303488 
-0.022279 0.2346 0.368028 -0.32519 -0.498057 0.80386 0.111416 0.303488 
0.02228 0.2346 0.368028 0.650389 -0.419128 0.633503 0.111416 0.303488 
0.044559 0.25082 0.333014 0.99032 0.111762 -0.0823158 0.111416 0.303488 
-0.03149 0.288452 0.290336 -0.426531 -0.052727 -0.902935 0.111416 0.303488 
0.03149 0.288452 0.290336 0.355598 -0.127101 -0.925956 0.111416 0.303488 
-0.062981 0.265527 0.339826 -0.932083 -0.258501 -0.253768 0.111416 0.303488 
-0.03149 0.242601 0.389317 -0.593739 -0.670381 0.445044 0.111416 0.303488 
0.03149 0.242601 0.389317 0.296876 -0.742415 0.60057 0.111416 0.303488 
0.06298 0.265527 0.339827 0.904001 -0.387931 -0.1797 0.111416 0.303488 
-0.014074 -0.149704 0.120612 -0.162834 0.984707 -0.0619446 0.111416 0.303488 
0.014074 -0.149704 0.120612 0.325704 0.945183 0.0233758 0.111416 0.303488 
0.023369 -0.152437 0.101603 0.28262 0.800699 -0.528211 0.111416 0.303488 
-0.02337 -0.152437 0.101603 -0.454067 0.826323 -0.333188 0.111416 0.303488 
-0.028149 -0.15995 0.142732 -0.49073 0.790603 0.366239 0.111416 0.303488 
-0.046738 -0.169451 0.138331 -0.908578 0.414618 0.05078 0.111416 0.303488 
-0.014074 -0.170197 0.164851 -0.162836 0.589499 0.791186 0.111416 0.303488 
-0.02337 -0.186464 0.175058 -0.565236 0.183435 0.804276 0.111416 0.303488 
0.014074 -0.170197 0.164851 0.245369 0.61197 0.751856 0.111416 0.303488 
0.023369 -0.186464 0.175058 0.429686 0.151173 0.890234 0.111416 0.303488 
0.028148 -0.159951 0.142732 0.488555 0.74758 0.449932 0.111416 0.303488 
0.046738 -0.169451 0.138331 0.847852 0.526355 0.0640161 0.111416 0.303488 
0.021297 -0.230488 0.069403 0.495547 0.208124 -0.843278 0.111416 0.303488 
-0.021297 -0.230488 0.069403 -0.495969 0.245918 -0.83279 0.111416 0.303488 
-0.042593 -0.245993 0.102874 -0.986189 -0.15145 -0.0670424 0.111416 0.303488 
-0.021297 -0.261498 0.136344 -0.418796 -0.538649 0.731073 0.111416 0.303488 
0.021297 -0.261498 0.136344 0.584408 -0.501962 0.637575 0.111416 0.303488 
0.042593 -0.245993 0.102874 0.986189 -0.15145 -0.0670388 0.111416 0.303488 
0.048367 -0.08964 0.064096 0.782187 0.431342 0.449585 0.113781 0.30139 
0.109532 -0.152987 0.064096 0.831805 0.168062 0.529015 0.113781 0.30139 
-0.048367 -0.08964 0.064096 -0.782185 0.431347 0.449585 0.113781 0.30139 
0.092135 -0.35539 0.064096 0.674801 -0.537347 0.505868 0.113781 0.30139 
-0.109533 -0.152987 0.064096 -0.831804 0.168064 0.529015 0.113781 0.30139 
0.048367 0.115905 0.064096 0.777551 -0.447789 0.441476 0.113781 0.30139 
-0.048367 0.115905 0.064096 -0.777548 -0.447788 0.44148 0.113781 0.30139 
-0.109533 0.151081 0.064096 -0.826839 -0.17315 0.535123 0.113781 0.30139 
0.109532 0.151081 0.064096 0.826855 -0.173148 0.535099 0.113781 0.30139 
-0.089969 0.248562 0.064096 -0.627967 0.57529 0.524117 0.113781 0.30139 
0.089968 0.248562 0.064096 0.627976 0.575293 0.524103 0.113781 0.30139 
0 0.303808 0.064096 2.31032e-06 0.862874 0.505418 0.113781 0.30139 
0 -0.41772 0.064096 2.43197e-06 -0.885689 0.46428 0.113781 0.30139 
-0.092136 -0.35539 0.064096 -0.674798 -0.53735 0.505868 0.113781 0.30139 
0.014074 0.172737 0.269977 0.186931 -0.705469 -0.683645 0.111416 0.303488 
-0.014074 0.172737 0.269977 -0.248617 -0.71872 -0.649332 0.111416 0.303488 
-0.028149 0.16249 0.292097 -0.372931 -0.869562 -0.323704 0.111416 0.303488 
0.014074 0.152244 0.314216 0.124297 -0.990228 -0.0632409 0.111416 0.303488 
-0.014074 0.152244 0.314216 -0.186937 -0.977667 -0.0960346 0.111416 0.303488 
0.028148 0.16249 0.292097 0.372902 -0.86957 -0.323716 0.111416 0.303488 
-0.028149 -0.15995 0.142732 -0.999534 0.0276905 0.0128322 0.039303 0.301708 
0.014074 -0.170197 0.164851 0.499772 -0.336148 0.798268 0.039303 0.301708 
-0.014074 -0.170197 0.164851 -0.499756 -0.336153 0.798276 0.039303 0.301708 
0.014074 -0.149704 0.120612 0.654375 0.344781 -0.672993 0.039303 0.301708 
0.028148 -0.159951 0.142732 0.999534 0.0276881 0.012839 0.039303 0.301708 
-0.014074 -0.149704 0.120612 -0.327175 0.424186 -0.844406 0.039303 0.301708 
3 1 3 0
3 5 7 4
3 9 11 8
3 10 6 5
3 11 7 8
3 13 4 12
3 13 10 5
3 10 15 11
3 11 12 4
3 2 12 3
3 14 2 1
3 14 0 15
3 15 3 12
3 17 19 16
3 21 23 20
3 22 25 24
3 26 20 23
3 29 16 28
3 31 24 30
3 23 31 32
3 33 23 32
3 21 35 25
3 18 37 19
3 27 39 20
3 34 20 39
3 34 41 35
3 36 43 37
3 38 45 39
3 45 34 39
3 40 47 41
3 42 49 43
3 44 51 45
3 46 45 51
3 49 48 52
3 50 54 51
3 54 46 51
3 46 53 47
3 56 32 55
3 57 29 28
3 55 30 56
3 32 31 55
3 25 59 24
3 27 60 61
3 30 59 62
3 33 60 26
3 25 64 58
3 27 65 38
3 35 66 64
3 38 67 44
3 47 66 41
3 50 67 69
3 53 68 47
3 53 69 70
3 56 62 71
3 56 63 33
3 350 17 351
3 352 16 19
3 351 29 353
3 354 28 16
3 355 18 350
3 356 19 37
3 355 42 36
3 356 43 357
3 358 48 42
3 357 49 359
3 360 52 48
3 359 52 361
3 353 57 362
3 363 57 28
3 72 74 75
3 75 76 77
3 76 79 77
3 78 81 79
3 81 82 83
3 82 72 83
3 84 82 85
3 74 84 86
3 87 74 86
3 78 87 88
3 80 88 89
3 85 80 89
3 72 91 90
3 75 92 91
3 92 79 93
3 79 94 93
3 81 95 94
3 95 72 90
3 95 84 85
3 90 86 84
3 91 87 86
3 92 88 87
3 94 88 93
3 95 89 94
3 97 99 96
3 98 101 99
3 100 103 101
3 102 105 103
3 105 106 107
3 107 97 96
3 97 109 108
3 98 108 110
3 111 98 110
3 102 111 112
3 104 112 113
3 109 104 113
3 96 115 114
3 115 101 116
3 101 117 116
3 103 118 117
3 118 107 119
3 107 114 119
3 119 108 109
3 115 108 114
3 116 110 115
3 117 111 116
3 118 112 117
3 118 109 113
3 121 123 120
3 124 126 127
3 129 131 128
3 122 130 123
3 129 121 120
3 132 120 133
3 120 134 133
3 123 135 134
3 129 135 130
3 132 137 135
3 134 137 138
3 140 142 139
3 141 144 142
3 144 145 146
3 145 127 140
3 127 141 140
3 126 143 141
3 143 124 145
3 144 121 128
3 121 139 122
3 122 142 131
3 142 128 131
3 140 146 145
3 148 150 147
3 151 153 154
3 156 158 155
3 157 149 148
3 158 150 155
3 136 147 158
3 138 147 159
3 137 148 138
3 157 136 158
3 138 133 134
3 133 136 132
3 161 163 160
3 161 165 162
3 164 167 165
3 163 151 167
3 162 152 163
3 162 154 153
3 165 151 154
3 150 164 155
3 150 160 166
3 149 161 160
3 156 164 161
3 167 160 163
3 169 171 168
3 172 174 175
3 177 179 176
3 170 178 171
3 177 169 168
3 180 168 181
3 181 171 182
3 171 183 182
3 180 178 177
3 183 184 185
3 183 186 182
3 188 190 187
3 190 191 192
3 192 193 194
3 172 188 193
3 175 189 188
3 174 191 189
3 191 172 193
3 192 169 176
3 194 170 169
3 170 190 179
3 190 176 179
3 193 187 194
3 196 198 195
3 200 202 199
3 203 205 206
3 205 197 196
3 206 198 203
3 184 195 206
3 186 195 207
3 185 196 186
3 206 185 184
3 182 207 181
3 181 184 180
3 209 211 208
3 212 210 209
3 212 215 213
3 215 200 199
3 210 200 211
3 213 201 210
3 213 199 202
3 198 212 203
3 197 214 198
3 197 209 208
3 203 209 204
3 214 211 215
3 217 219 216
3 221 223 220
3 224 226 227
3 218 226 219
3 225 217 216
3 228 216 229
3 216 230 229
3 219 231 230
3 225 231 226
3 228 233 231
3 231 234 230
3 236 238 235
3 238 239 240
3 240 241 242
3 241 223 236
3 223 237 236
3 237 221 239
3 239 220 241
3 240 217 224
3 242 218 217
3 218 238 227
3 227 240 224
3 241 235 242
3 244 246 243
3 248 250 247
3 251 253 254
3 253 245 244
3 254 246 251
3 232 243 254
3 234 243 255
3 233 244 234
3 254 233 232
3 234 229 230
3 255 228 229
3 257 259 256
3 257 261 258
3 260 263 261
3 263 248 247
3 258 248 259
3 258 250 249
3 261 247 250
3 246 260 251
3 245 262 246
3 245 257 256
3 252 260 257
3 263 256 259
3 265 267 264
3 265 269 266
3 270 269 268
3 272 271 270
3 272 275 273
3 264 275 274
3 276 277 278
3 279 276 278
3 280 279 278
3 281 280 278
3 282 281 278
3 277 282 278
3 283 284 285
3 284 286 285
3 286 287 285
3 287 288 285
3 288 289 285
3 289 283 285
3 364 290 291
3 365 292 290
3 366 293 292
3 367 293 368
3 369 294 367
3 364 295 369
3 290 297 291
3 292 296 290
3 292 299 298
3 294 299 293
3 295 300 294
3 295 297 301
3 296 303 297
3 298 302 296
3 298 305 304
3 299 306 305
3 300 307 306
3 301 303 307
3 302 309 303
3 302 310 308
3 305 310 304
3 305 312 311
3 307 312 306
3 303 313 307
3 308 315 309
3 308 316 314
3 310 317 316
3 312 317 311
3 312 319 318
3 313 315 319
3 315 320 321
3 314 322 320
3 317 322 316
3 318 323 317
3 319 324 318
3 315 325 319
3 320 327 321
3 322 326 320
3 322 329 328
3 323 330 329
3 324 331 330
3 321 331 325
3 326 283 327
3 328 284 326
3 329 286 328
3 330 287 329
3 331 288 330
3 331 283 289
3 332 334 335
3 336 335 337
3 336 339 338
3 338 341 340
3 342 341 343
3 333 343 334
3 334 345 335
3 337 345 346
3 339 346 347
3 341 347 348
3 341 349 343
3 343 344 334
3 344 276 345
3 346 276 279
3 347 279 280
3 347 281 348
3 348 282 349
3 349 277 344
3 370 270 268
3 371 270 372
3 371 274 272
3 373 274 374
3 375 264 373
3 370 265 375
3 1 2 3
3 5 6 7
3 9 10 11
3 10 9 6
3 11 4 7
3 13 5 4
3 13 14 10
3 10 14 15
3 11 15 12
3 2 13 12
3 14 13 2
3 14 1 0
3 15 0 3
3 17 18 19
3 21 22 23
3 22 21 25
3 26 27 20
3 29 17 16
3 31 22 24
3 23 22 31
3 33 26 23
3 21 34 35
3 18 36 37
3 27 38 39
3 34 21 20
3 34 40 41
3 36 42 43
3 38 44 45
3 45 40 34
3 40 46 47
3 42 48 49
3 44 50 51
3 46 40 45
3 50 53 54
3 46 54 53
3 56 33 32
3 55 31 30
3 25 58 59
3 27 26 60
3 30 24 59
3 33 63 60
3 25 35 64
3 27 61 65
3 35 41 66
3 38 65 67
3 47 68 66
3 50 44 67
3 53 70 68
3 53 50 69
3 56 30 62
3 56 71 63
3 350 18 17
3 352 354 16
3 351 17 29
3 354 363 28
3 355 36 18
3 356 352 19
3 355 358 42
3 356 37 43
3 358 360 48
3 357 43 49
3 360 361 52
3 359 49 52
3 353 29 57
3 363 362 57
3 72 73 74
3 75 74 76
3 76 78 79
3 78 80 81
3 81 80 82
3 82 73 72
3 84 73 82
3 74 73 84
3 87 76 74
3 78 76 87
3 80 78 88
3 85 82 80
3 72 75 91
3 75 77 92
3 92 77 79
3 79 81 94
3 81 83 95
3 95 83 72
3 95 90 84
3 90 91 86
3 91 92 87
3 92 93 88
3 94 89 88
3 95 85 89
3 97 98 99
3 98 100 101
3 100 102 103
3 102 104 105
3 105 104 106
3 107 106 97
3 97 106 109
3 98 97 108
3 111 100 98
3 102 100 111
3 104 102 112
3 109 106 104
3 96 99 115
3 115 99 101
3 101 103 117
3 103 105 118
3 118 105 107
3 107 96 114
3 119 114 108
3 115 110 108
3 116 111 110
3 117 112 111
3 118 113 112
3 118 119 109
3 121 122 123
3 124 125 126
3 129 130 131
3 122 131 130
3 129 128 121
3 132 129 120
3 120 123 134
3 123 130 135
3 129 132 135
3 132 136 137
3 134 135 137
3 140 141 142
3 141 143 144
3 144 143 145
3 145 124 127
3 127 126 141
3 126 125 143
3 143 125 124
3 144 146 121
3 121 146 139
3 122 139 142
3 142 144 128
3 140 139 146
3 148 149 150
3 151 152 153
3 156 157 158
3 157 156 149
3 158 147 150
3 136 159 147
3 138 148 147
3 137 157 148
3 157 137 136
3 138 159 133
3 133 159 136
3 161 162 163
3 161 164 165
3 164 166 167
3 163 152 151
3 162 153 152
3 162 165 154
3 165 167 151
3 150 166 164
3 150 149 160
3 149 156 161
3 156 155 164
3 167 166 160
3 169 170 171
3 172 173 174
3 177 178 179
3 170 179 178
3 177 176 169
3 180 177 168
3 181 168 171
3 171 178 183
3 180 183 178
3 183 180 184
3 183 185 186
3 188 189 190
3 190 189 191
3 192 191 193
3 172 175 188
3 175 174 189
3 174 173 191
3 191 173 172
3 192 194 169
3 194 187 170
3 170 187 190
3 190 192 176
3 193 188 187
3 196 197 198
3 200 201 202
3 203 204 205
3 205 204 197
3 206 195 198
3 184 207 195
3 186 196 195
3 185 205 196
3 206 205 185
3 182 186 207
3 181 207 184
3 209 210 211
3 212 213 210
3 212 214 215
3 215 211 200
3 210 201 200
3 213 202 201
3 213 215 199
3 198 214 212
3 197 208 214
3 197 204 209
3 203 212 209
3 214 208 211
3 217 218 219
3 221 222 223
3 224 225 226
3 218 227 226
3 225 224 217
3 228 225 216
3 216 219 230
3 219 226 231
3 225 228 231
3 228 232 233
3 231 233 234
3 236 237 238
3 238 237 239
3 240 239 241
3 241 220 223
3 223 222 237
3 237 222 221
3 239 221 220
3 240 242 217
3 242 235 218
3 218 235 238
3 227 238 240
3 241 236 235
3 244 245 246
3 248 249 250
3 251 252 253
3 253 252 245
3 254 243 246
3 232 255 243
3 234 244 243
3 233 253 244
3 254 253 233
3 234 255 229
3 255 232 228
3 257 258 259
3 257 260 261
3 260 262 263
3 263 259 248
3 258 249 248
3 258 261 250
3 261 263 247
3 246 262 260
3 245 256 262
3 245 252 257
3 252 251 260
3 263 262 256
3 265 266 267
3 265 268 269
3 270 271 269
3 272 273 271
3 272 274 275
3 264 267 275
3 364 365 290
3 365 366 292
3 366 368 293
3 367 294 293
3 369 295 294
3 364 291 295
3 290 296 297
3 292 298 296
3 292 293 299
3 294 300 299
3 295 301 300
3 295 291 297
3 296 302 303
3 298 304 302
3 298 299 305
3 299 300 306
3 300 301 307
3 301 297 303
3 302 308 309
3 302 304 310
3 305 311 310
3 305 306 312
3 307 313 312
3 303 309 313
3 308 314 315
3 308 310 316
3 310 311 317
3 312 318 317
3 312 313 319
3 313 309 315
3 315 314 320
3 314 316 322
3 317 323 322
3 318 324 323
3 319 325 324
3 315 321 325
3 320 326 327
3 322 328 326
3 322 323 329
3 323 324 330
3 324 325 331
3 321 327 331
3 326 284 283
3 328 286 284
3 329 287 286
3 330 288 287
3 331 289 288
3 331 327 283
3 332 333 334
3 336 332 335
3 336 337 339
3 338 339 341
3 342 340 341
3 333 342 343
3 334 344 345
3 337 335 345
3 339 337 346
3 341 339 347
3 341 348 349
3 343 349 344
3 344 277 276
3 346 345 276
3 347 346 279
3 347 280 281
3 348 281 282
3 349 282 277
3 370 372 270
3 371 272 270
3 371 374 274
3 373 264 274
3 375 265 264
3 370 268 265
