ply
format ascii 1.0
comment INFO-3111 Flatenator generated
comment TextureFile Dungeons_Texture_01.png
element vertex 573
property float x
property float y
property float z
element face 790
property list uchar int vertex_indices
end_header
1e-06 -24.4941 -2.18517 
-1.89243 -24.4941 -1.09262 
-3.34252 -22.7435 -1.92964 
1e-06 -22.7435 -3.85965 
-1.89243 -24.4941 1.09273 
-3.34252 -22.7435 1.93 
0 -24.4941 2.18522 
0 -22.7435 3.85964 
1.89243 -24.4941 1.09273 
3.34252 -22.7435 1.93 
1.89243 -24.4941 -1.09262 
3.34252 -22.7435 -1.92964 
0 -24.4941 -4e-06 
-2.41566 -16.2832 -1.39459 
-2.41566 -18.4599 -1.39459 
-2.41566 -18.4599 1.3947 
-2.41566 -16.2832 1.3947 
1e-06 -16.2832 -2.78935 
1e-06 -18.4599 -2.78935 
2.41566 -16.2832 -1.39459 
2.41566 -18.4599 -1.39459 
2.41566 -16.2832 1.3947 
2.41566 -18.4599 1.3947 
0 -16.2832 2.78947 
0 -18.4599 2.78947 
-3.34252 -20.2104 -1.92964 
-3.34252 -20.2104 1.93 
-1.89243 -18.4599 1.09273 
-1.89243 -18.4599 -1.09262 
1e-06 -20.2104 -3.85965 
1e-06 -18.4599 -2.18517 
3.34252 -20.2104 -1.92964 
1.89243 -18.4599 -1.09262 
3.34252 -20.2104 1.93 
1.89243 -18.4599 1.09273 
0 -20.2104 3.85964 
0 -18.4599 2.18522 
1.83147 -14.7692 1.05759 
1.89243 -15.8421 1.09273 
1.89243 -15.8421 -1.09262 
1.83147 -14.7692 -1.05741 
0 -14.7692 2.11482 
0 -15.8421 2.18522 
-1.83147 -14.7692 1.05759 
-1.89243 -15.8421 1.09273 
-1.83147 -14.7692 -1.05741 
-1.89243 -15.8421 -1.09262 
1e-06 -14.7692 -2.11476 
1e-06 -15.8421 -2.18517 
2.25408 13.3679 1.30139 
2.25408 11.5567 1.30139 
2.25408 11.5567 -1.30126 
2.25408 13.3679 -1.30126 
0 13.3679 2.60289 
0 11.5567 2.60289 
-2.25408 13.3679 1.30139 
-2.25408 11.5567 1.30139 
-2.25408 13.3679 -1.30126 
-2.25408 11.5567 -1.30126 
1e-06 13.3679 -2.60277 
1e-06 11.5567 -2.60277 
1.89243 11.1156 1.09274 
1.89243 11.1156 -1.09261 
0 11.1156 2.18523 
-1.89243 11.1156 1.09274 
-1.89243 11.1156 -1.09261 
1e-06 11.1156 -2.18516 
1.83147 10.1119 1.0576 
1.83147 10.1119 -1.05741 
0 10.1119 2.11483 
-1.83147 10.1119 1.0576 
-1.83147 10.1119 -1.05741 
0 10.1119 -2.11476 
2.10603 9.99579 1.21591 
2.10603 8.34769 1.21591 
2.10603 8.34769 -1.21584 
2.10603 9.99579 -1.21584 
0 9.99579 2.43206 
0 8.34769 2.43205 
-2.10603 9.99579 1.21591 
-2.10603 8.34769 1.21591 
-2.10603 9.99579 -1.21584 
-2.10603 8.34769 -1.21584 
0 9.99579 -2.43169 
0 8.34769 -2.43169 
1.83147 8.2316 1.0576 
1.83147 6.34038 1.0576 
1.83147 6.34038 -1.05741 
1.83147 8.2316 -1.05741 
0 8.2316 2.11483 
0 6.34038 2.11483 
-1.83147 8.2316 1.0576 
-1.83147 6.34038 1.0576 
-1.83147 8.2316 -1.05741 
-1.83147 6.34038 -1.05741 
0 8.2316 -2.11476 
0 6.34038 -2.11476 
2.10603 6.22426 1.21591 
2.10603 4.57632 1.21591 
2.10603 4.57632 -1.21584 
2.10603 6.22426 -1.21584 
0 6.22426 2.43205 
0 4.57632 2.43205 
-2.10603 6.22426 1.21591 
-2.10603 4.57632 1.21591 
-2.10603 6.22426 -1.21584 
-2.10603 4.57632 -1.21584 
0 6.22426 -2.43169 
0 4.57632 -2.43169 
1.83147 4.46023 1.0576 
1.83147 2.56904 1.05759 
1.83147 2.56904 -1.05741 
1.83147 4.46023 -1.05741 
0 4.46023 2.11483 
0 2.56904 2.11483 
-1.83147 4.46023 1.0576 
-1.83147 2.56904 1.05759 
-1.83147 4.46023 -1.05741 
-1.83147 2.56904 -1.05741 
0 4.46023 -2.11476 
0 2.56904 -2.11476 
2.10603 2.45295 1.2159 
2.10603 0.804855 1.2159 
2.10603 0.804855 -1.21584 
2.10603 2.45295 -1.21584 
0 2.45295 2.43205 
0 0.804855 2.43205 
-2.10603 2.45295 1.2159 
-2.10603 0.804855 1.2159 
-2.10603 2.45295 -1.21584 
-2.10603 0.804855 -1.21584 
0 2.45296 -2.43169 
0 0.804855 -2.43169 
1.83147 0.688736 1.05759 
1.83147 -1.20236 1.05759 
1.83147 -1.20236 -1.05741 
1.83147 0.688736 -1.05741 
0 0.688736 2.11482 
0 -1.20236 2.11482 
-1.83147 0.688736 1.05759 
-1.83147 -1.20236 1.05759 
-1.83147 0.688736 -1.05741 
-1.83147 -1.20236 -1.05741 
0 0.688736 -2.11476 
1e-06 -1.20236 -2.11476 
2.10603 -1.31845 1.2159 
2.10603 -3.68728 1.2159 
2.10603 -3.68728 -1.21584 
2.10603 -1.31845 -1.21584 
0 -1.31845 2.43205 
0 -3.68728 2.43205 
-2.10603 -1.31845 1.2159 
-2.10603 -3.68728 1.2159 
-2.10603 -1.31845 -1.21584 
-2.10603 -3.68728 -1.21584 
1e-06 -1.31845 -2.43169 
1e-06 -3.68728 -2.43169 
2.10603 -14.6531 -1.21585 
2.10603 -14.6531 1.2159 
0 -14.6531 2.43205 
-2.10603 -14.6531 1.2159 
-2.10603 -14.6531 -1.21585 
1e-06 -14.6531 -2.43169 
0 18.9354 5.76856 
-2.47694 19.6332 5.76856 
-2.47694 15.4562 2.0423 
0 15.4562 2.60514 
-2.47694 27.588 4e-06 
-2.47694 21.1216 5.76856 
0 21.8194 5.76856 
0 27.588 4e-06 
0 21.8194 -5.76843 
-2.47694 21.1216 -5.76843 
2.9339 18.0179 3e-06 
2.9339 19.9056 -1.90988 
2.9339 19.9056 1.91001 
2.9339 20.8492 -1.90988 
2.9339 20.8492 1.91001 
2.9339 22.7368 4e-06 
-2.9339 18.0179 3e-06 
-2.9339 19.9056 1.91001 
-2.9339 19.9056 -1.90988 
-2.9339 20.8492 -1.90988 
-2.9339 20.8492 1.91001 
-2.9339 22.7368 4e-06 
-1.97279 21.1216 15.2829 
-1.97279 19.6332 15.2829 
0 18.9354 15.2829 
0 21.8194 15.2829 
-1.97279 19.6332 -15.2827 
-1.97279 21.1216 -15.2827 
0 21.8194 -15.2827 
0 18.9354 -15.2827 
-1.97279 19.6332 12.1119 
-1.97279 21.1216 12.1119 
0 18.9354 12.1119 
2.47694 19.6332 5.76856 
2.47694 21.1216 5.76856 
1.97279 21.1216 12.1119 
1.97279 19.6332 12.1119 
0 21.8194 12.1119 
-2.47694 19.6332 -5.76843 
-1.97279 21.1216 -12.1117 
-1.97279 19.6332 -12.1117 
0 21.8194 -12.1117 
2.47694 21.1216 -5.76843 
2.47694 19.6332 -5.76843 
1.97279 19.6332 -12.1117 
1.97279 21.1216 -12.1117 
0 18.9354 -5.76843 
0 18.9354 -12.1117 
3.44931 21.1224 -3.01575 
3.44931 19.6324 -3.01575 
2.47694 27.588 4e-06 
3.44931 24.1029 4e-06 
3.44931 21.1224 3.01593 
3.44931 19.6324 3.01593 
2.47694 15.4562 2.0423 
3.11566 15.4562 3e-06 
3.44931 16.6519 3e-06 
-3.44931 19.6324 -3.01575 
-3.44931 21.1224 -3.01575 
-2.47694 15.4562 -2.04217 
-3.11566 15.4562 3e-06 
-3.44931 16.6519 3e-06 
-3.44931 21.1224 3.01593 
-3.44931 19.6324 3.01593 
-3.44931 24.1029 4e-06 
1.97279 21.1216 -15.2827 
1.97279 19.6332 -15.2827 
1.97279 19.6332 15.2829 
1.97279 21.1216 15.2829 
2.81381 18.9707 12.8256 
2.81381 21.7842 12.8256 
2.81381 21.7842 14.5694 
2.81381 18.9707 14.5694 
0 17.5894 14.5694 
0 17.5894 12.8256 
-2.81381 18.9707 12.8256 
-2.81381 18.9707 14.5694 
-2.81381 21.7842 12.8256 
-2.81381 21.7842 14.5694 
0 23.1653 12.8256 
0 23.1653 14.5694 
0 23.1653 -14.5693 
0 23.1653 -12.8252 
2.81381 21.7842 -12.8252 
2.81381 21.7842 -14.5693 
-2.81381 21.7842 -12.8252 
-2.81381 21.7842 -14.5693 
-2.81381 18.9707 -12.8252 
-2.81381 18.9707 -14.5693 
0 17.5894 -12.8252 
0 17.5894 -14.5693 
2.81381 18.9707 -12.8252 
2.81381 18.9707 -14.5693 
0 15.4562 -2.60501 
2.47694 15.4562 -2.04217 
0 15.2146 3.84202 
-3.22274 15.2146 1.97384 
-3.22274 13.8929 1.97384 
0 13.8929 3.84202 
-3.22274 15.2146 -1.97378 
0 15.2146 -3.84189 
0 13.8929 -3.84189 
-3.22274 13.8929 -1.97378 
3.22274 13.8929 1.97384 
3.22274 13.8929 -1.97378 
3.22274 15.2146 -1.97378 
3.22274 15.2146 1.97384 
-1.17311 21.3938 3.43828 
0 21.3938 5.8054 
0 45.3567 5.80541 
-1.17311 46.1004 3.43828 
0 103.77 1.7e-05 
-1.17311 95.4327 1.6e-05 
-1.17311 84.6747 3.43829 
0 86.7176 5.80541 
0 31.9438 -5.80527 
0 21.3938 -5.80527 
-1.17311 21.3938 -3.43797 
-0.564372 34.5895 -4.66633 
-1.17311 46.1004 -3.43796 
0 45.3567 -5.80527 
0 37.4947 -5.80527 
-1.17311 21.3938 1.71905 
-1.17311 46.1004 1.71905 
0 86.7176 -5.80526 
-1.17311 84.6747 -3.43796 
-1.17311 51.3958 4.42882 
-1.17311 51.3958 2.2146 
-1.17311 51.3958 -4.4288 
0 51.3958 -7.47805 
0 51.3958 7.47807 
-1.17311 57.0398 1.71906 
-1.17311 57.0398 3.43829 
-1.17311 65.2428 3.43829 
-1.17311 65.2428 1.71906 
0 65.2428 -5.80527 
-1.17311 65.2428 -3.43796 
0 57.514 5.80541 
0 65.2428 5.80541 
1.17311 46.1004 -1.71898 
1.17311 21.3938 -1.71898 
1.17311 21.3938 -3.43797 
1.17311 46.1004 -3.43796 
1.17311 51.3958 -2.2144 
1.17311 51.3958 -4.4288 
1.17311 65.2428 -1.71897 
1.17311 65.2428 -3.43796 
1.17311 84.6747 -3.43796 
1.17311 69.3608 1.1e-05 
1.17311 84.6747 3.43829 
-1.17311 57.0398 -3.43796 
0 57.514 -5.80527 
1.17311 57.0398 -1.71898 
1.17311 57.0398 -3.43796 
0.459282 34.5896 -4.87845 
1.17311 21.3938 3.43828 
1.17311 46.1004 3.43828 
1.17311 51.3958 4.42882 
1.17311 57.0398 3.43829 
0 77.9171 5.80541 
0.795001 74.6721 4.20103 
0 71.2229 5.80541 
1.17311 65.2428 3.43829 
1.17311 95.4327 1.6e-05 
1.17311 57.0398 1.71906 
1.17311 65.2428 1.71906 
1.17311 51.3958 2.2146 
1.17311 46.1004 1.71905 
1.17311 21.3938 1.71905 
-1.17311 57.0398 -1.71898 
-1.17311 65.2428 -1.71897 
-1.17311 51.3958 -2.2144 
-1.17311 46.1004 -1.71898 
-1.17311 21.3938 -1.71898 
-0.627984 74.6721 4.53826 
2.03682 57.0398 -1.71898 
2.03682 65.2428 -1.71897 
2.03682 65.2428 1.71906 
2.03682 57.0398 1.71906 
2.03682 51.3958 -2.2144 
2.03682 51.3958 2.2146 
2.03682 21.3938 -1.71898 
2.03682 46.1004 -1.71898 
2.03682 46.1004 1.71905 
2.03682 21.3938 1.71905 
-2.03682 69.3608 1.1e-05 
-2.03682 65.2428 -1.71897 
-2.03682 65.2428 1.71906 
-2.03682 57.0398 -1.71898 
-2.03682 51.3958 -2.2144 
-2.03682 51.3958 2.2146 
-2.03682 57.0398 1.71906 
-2.03682 46.1004 -1.71898 
-2.03682 46.1004 1.71905 
-2.03682 21.3938 -1.71898 
-2.03682 21.3938 1.71905 
-1.17311 69.3608 1.1e-05 
2.03682 69.3608 1.1e-05 
1.68111 -3.79291 -0.970354 
1.68108 -3.79291 0.970717 
1.68108 -5.20078 0.970717 
1.68111 -5.20078 -0.970354 
0 -3.79291 1.9415 
0 -5.20078 1.9415 
-1.68108 -3.79291 0.970717 
-1.68108 -5.20078 0.970717 
-1.68111 -3.79291 -0.970354 
-1.68111 -5.20078 -0.970354 
1e-06 -3.79291 -1.94101 
1e-06 -5.20078 -1.94101 
2.10603 -5.30632 -1.21584 
2.10603 -5.30632 1.2159 
2.10603 -8.30322 1.2159 
2.10603 -8.30322 -1.21584 
0 -5.30632 2.43205 
0 -8.30322 2.43205 
-2.10603 -5.30632 1.2159 
-2.10603 -8.30322 1.2159 
-2.10603 -5.30632 -1.21584 
-2.10603 -8.30322 -1.21584 
1e-06 -5.30632 -2.43169 
1e-06 -8.30322 -2.43169 
1.68111 -8.44475 -0.970354 
1.68108 -8.44475 0.970717 
1.68108 -10.3318 0.970716 
1.68111 -10.3318 -0.970355 
0 -8.44478 1.9415 
0 -10.3318 1.94149 
-1.68108 -8.44475 0.970717 
-1.68108 -10.3318 0.970716 
-1.68111 -8.44478 -0.970354 
-1.68111 -10.3318 -0.970355 
1e-06 -8.44478 -1.94101 
1e-06 -10.3318 -1.94101 
2.10603 -10.4733 -1.21585 
2.10603 -10.4733 1.2159 
0 -10.4733 2.43205 
-2.10603 -10.4733 1.2159 
-2.10603 -10.4733 -1.21585 
1e-06 -10.4733 -2.43169 
-1.89243 -15.8421 1.09273 
-1.89243 -15.8421 -1.09262 
1.89243 -15.8421 -1.09262 
1e-06 -15.8421 -2.18517 
1.89243 -15.8421 1.09273 
0 -15.8421 2.18522 
1.89243 11.1156 1.09274 
1.89243 11.1156 -1.09261 
0 11.1156 2.18523 
-1.89243 11.1156 1.09274 
-1.89243 11.1156 -1.09261 
1e-06 11.1156 -2.18516 
1.83147 8.2316 -1.05741 
1.83147 8.2316 1.0576 
1.83147 10.1119 -1.05741 
0 8.2316 2.11483 
1.83147 10.1119 1.0576 
-1.83147 8.2316 1.0576 
-1.83147 10.1119 1.0576 
-1.83147 8.2316 -1.05741 
-1.83147 10.1119 -1.05741 
0 8.2316 -2.11476 
0 10.1119 -2.11476 
1.83147 4.46023 -1.05741 
1.83147 4.46023 1.0576 
0 4.46023 2.11483 
1.83147 6.34038 1.0576 
-1.83147 4.46023 1.0576 
-1.83147 6.34038 1.0576 
0 6.34038 2.11483 
-1.83147 4.46023 -1.05741 
-1.83147 6.34038 -1.05741 
0 4.46023 -2.11476 
0 6.34038 -2.11476 
1.83147 0.688736 -1.05741 
1.83147 0.688736 1.05759 
0 0.688736 2.11482 
1.83147 2.56904 1.05759 
-1.83147 0.688736 1.05759 
-1.83147 2.56904 1.05759 
0 2.56904 2.11483 
-1.83147 0.688736 -1.05741 
-1.83147 2.56904 -1.05741 
0 0.688736 -2.11476 
0 2.56904 -2.11476 
1.83147 -14.7692 -1.05741 
1.83147 -14.7692 1.05759 
0 -14.7692 2.11482 
1.83147 -1.20236 1.05759 
-1.83147 -14.7692 1.05759 
-1.83147 -1.20236 1.05759 
0 -1.20236 2.11482 
-1.83147 -14.7692 -1.05741 
-1.83147 -1.20236 -1.05741 
1e-06 -14.7692 -2.11476 
1e-06 -1.20236 -2.11476 
3.44931 19.6324 -3.01575 
2.9339 18.0179 3e-06 
3.44931 16.6519 3e-06 
2.9339 20.8492 -1.90988 
2.9339 19.9056 -1.90988 
3.44931 21.1224 -3.01575 
2.9339 22.7368 4e-06 
3.44931 21.1224 3.01593 
3.44931 24.1029 4e-06 
3.44931 19.6324 3.01593 
2.9339 20.8492 1.91001 
2.9339 19.9056 1.91001 
-3.44931 19.6324 -3.01575 
-2.9339 20.8492 -1.90988 
-3.44931 21.1224 -3.01575 
-2.9339 18.0179 3e-06 
-2.9339 19.9056 -1.90988 
-3.44931 19.6324 3.01593 
-3.44931 16.6519 3e-06 
-2.9339 20.8492 1.91001 
-2.9339 19.9056 1.91001 
-3.44931 21.1224 3.01593 
-2.9339 22.7368 4e-06 
-3.44931 24.1029 4e-06 
-2.47694 15.4562 2.0423 
0 15.4562 2.60514 
-2.47694 15.4562 -2.04217 
2.47694 15.4562 -2.04217 
2.47694 15.4562 2.0423 
0 15.4562 -2.60501 
2.25408 13.3679 -1.30126 
2.25408 13.3679 1.30139 
1e-06 13.3679 -2.60277 
-2.25408 13.3679 -1.30126 
0 13.3679 2.60289 
-2.25408 13.3679 1.30139 
-1.17311 21.3938 3.43828 
-1.17311 46.1004 3.43828 
-1.17311 57.0398 3.43829 
1.17311 84.6747 -3.43796 
1.17311 51.3958 -4.4288 
1.17311 46.1004 -3.43796 
1.17311 84.6747 3.43829 
1.17311 65.2428 3.43829 
1.17311 57.0398 3.43829 
1.17311 51.3958 4.42882 
1.17311 46.1004 3.43828 
1.17311 21.3938 3.43828 
-1.17311 65.2428 -3.43796 
-1.17311 57.0398 -3.43796 
-1.17311 51.3958 -4.4288 
-1.17311 46.1004 -3.43796 
-1.17311 21.3938 -3.43797 
-1.17311 84.6747 -3.43796 
-1.17311 95.4327 1.6e-05 
-1.17311 65.2428 3.43829 
-1.17311 84.6747 3.43829 
1.17311 65.2428 -3.43796 
1.17311 95.4327 1.6e-05 
1.17311 65.2428 -1.71897 
1.17311 57.0398 -1.71898 
1.17311 57.0398 1.71906 
1.17311 51.3958 -2.2144 
1.17311 51.3958 2.2146 
1.17311 46.1004 -1.71898 
1.17311 21.3938 -1.71898 
1.17311 21.3938 1.71905 
1.17311 69.3608 1.1e-05 
-1.17311 69.3608 1.1e-05 
-1.17311 51.3958 -2.2144 
-1.17311 57.0398 -1.71898 
-1.17311 21.3938 -1.71898 
-1.17311 21.3938 1.71905 
-1.17311 46.1004 1.71905 
-1.17311 51.3958 2.2146 
-1.17311 57.0398 1.71906 
-1.17311 65.2428 1.71906 
1.68111 -3.79291 -0.970354 
1.68111 -5.20078 -0.970354 
1.68108 -5.20078 0.970717 
1.68108 -3.79291 0.970717 
0 -5.20078 1.9415 
-1.68108 -3.79291 0.970717 
0 -3.79291 1.9415 
-1.68108 -5.20078 0.970717 
-1.68111 -3.79291 -0.970354 
-1.68111 -5.20078 -0.970354 
1e-06 -3.79291 -1.94101 
1e-06 -5.20078 -1.94101 
1.68111 -8.44475 -0.970354 
1.68111 -10.3318 -0.970355 
1.68108 -10.3318 0.970716 
1.68108 -8.44475 0.970717 
0 -10.3318 1.94149 
-1.68108 -8.44475 0.970717 
0 -8.44478 1.9415 
-1.68108 -10.3318 0.970716 
-1.68111 -8.44478 -0.970354 
-1.68111 -10.3318 -0.970355 
1e-06 -8.44478 -1.94101 
1e-06 -10.3318 -1.94101 
0 10.1119 2.11483 
1.83147 6.34038 -1.05741 
1.83147 2.56904 -1.05741 
1.83147 -1.20236 -1.05741 
3.11566 15.4562 3e-06 
-3.11566 15.4562 3e-06 
-1.17311 51.3958 4.42882 
1.17311 21.3938 -3.43797 
1.17311 57.0398 -3.43796 
1.17311 65.2428 1.71906 
1.17311 46.1004 1.71905 
-1.17311 65.2428 -1.71897 
-1.17311 46.1004 -1.71898 
3 1 3 0
3 4 2 1
3 4 7 5
3 8 7 6
3 8 11 9
3 10 3 11
3 1 0 12
3 4 1 12
3 6 4 12
3 8 6 12
3 10 8 12
3 0 10 12
3 14 16 13
3 18 13 17
3 19 18 17
3 22 19 21
3 24 21 23
3 15 23 16
3 25 27 28
3 29 28 30
3 29 32 31
3 31 34 33
3 35 34 36
3 35 27 26
3 5 25 2
3 2 29 3
3 3 31 11
3 11 33 9
3 9 35 7
3 7 26 5
3 38 40 37
3 42 37 41
3 43 42 41
3 45 44 43
3 47 46 45
3 47 39 48
3 50 52 49
3 54 49 53
3 56 53 55
3 58 55 57
3 60 57 59
3 51 59 52
3 27 14 28
3 403 13 16
3 28 18 30
3 404 17 13
3 405 17 406
3 32 18 20
3 32 22 34
3 405 21 19
3 34 24 36
3 407 23 21
3 27 24 15
3 403 23 408
3 62 50 61
3 61 54 63
3 64 54 56
3 65 56 58
3 65 60 66
3 62 60 51
3 409 68 410
3 411 67 409
3 70 411 412
3 71 412 413
3 72 413 414
3 410 72 414
3 74 76 73
3 78 73 77
3 80 77 79
3 82 79 81
3 84 81 83
3 76 84 83
3 86 88 85
3 90 85 89
3 92 89 91
3 94 91 93
3 96 93 95
3 88 96 95
3 98 100 97
3 102 97 101
3 104 101 103
3 106 103 105
3 108 105 107
3 100 108 107
3 110 112 109
3 114 109 113
3 116 113 115
3 118 115 117
3 120 117 119
3 112 120 119
3 122 124 121
3 126 121 125
3 128 125 127
3 130 127 129
3 132 129 131
3 124 132 131
3 134 136 133
3 138 133 137
3 140 137 139
3 142 139 141
3 144 141 143
3 136 144 143
3 146 148 145
3 150 145 149
3 152 149 151
3 154 151 153
3 156 153 155
3 148 156 155
3 415 74 416
3 417 73 76
3 416 78 418
3 419 77 73
3 420 78 80
3 421 77 69
3 422 80 82
3 423 79 421
3 422 84 424
3 423 83 81
3 417 83 425
3 415 84 75
3 426 98 427
3 87 97 100
3 427 102 428
3 429 101 97
3 430 102 104
3 431 101 432
3 433 104 106
3 434 103 431
3 433 108 435
3 434 107 105
3 87 107 436
3 426 108 99
3 437 122 438
3 111 121 124
3 438 126 439
3 440 125 121
3 441 126 128
3 442 125 443
3 444 128 130
3 445 127 442
3 444 132 446
3 445 131 129
3 111 131 447
3 437 132 123
3 448 158 449
3 135 145 148
3 449 159 450
3 451 149 145
3 452 159 160
3 453 149 454
3 455 160 161
3 456 151 453
3 455 162 457
3 456 155 153
3 135 155 458
3 448 162 157
3 163 165 166
3 167 169 170
3 171 167 170
3 173 174 175
3 174 177 175
3 176 178 177
3 179 180 181
3 181 183 182
3 182 183 184
3 185 187 188
3 190 192 189
3 164 194 168
3 163 193 164
3 197 199 196
3 169 194 200
3 172 203 201
3 171 202 172
3 206 208 205
3 209 203 210
3 205 212 206
3 205 214 211
3 197 214 213
3 197 216 215
3 196 217 216
3 217 219 216
3 172 220 221
3 201 222 220
3 222 224 220
3 168 226 164
3 168 227 225
3 172 227 167
3 169 198 197
3 169 213 170
3 171 213 205
3 171 208 204
3 192 228 229
3 209 207 206
3 163 217 196
3 163 199 195
3 187 231 188
3 233 235 232
3 237 235 236
3 237 239 238
3 238 241 240
3 240 243 242
3 242 234 233
3 245 247 244
3 245 249 248
3 248 251 250
3 250 253 252
3 252 255 254
3 254 247 246
3 198 232 199
3 231 235 234
3 199 237 195
3 230 236 235
3 193 237 238
3 186 236 187
3 194 238 240
3 185 239 186
3 194 242 200
3 185 243 241
3 198 242 233
3 231 243 188
3 208 245 204
3 228 244 247
3 202 245 248
3 190 244 191
3 202 250 203
3 190 251 249
3 203 252 210
3 189 253 251
3 207 252 254
3 229 253 192
3 208 254 246
3 228 255 229
3 459 460 461
3 459 462 463
3 464 465 462
3 466 465 467
3 468 469 466
3 468 460 470
3 471 472 473
3 471 474 475
3 476 474 477
3 476 478 479
3 480 481 478
3 473 481 482
3 222 209 256
3 206 212 257
3 219 257 212
3 164 226 165
3 224 165 226
3 257 209 206
3 259 261 258
3 263 265 262
3 267 269 266
3 260 262 265
3 268 264 263
3 258 266 269
3 483 258 484
3 485 263 262
3 486 218 268
3 268 218 269
3 218 487 269
3 483 223 259
3 259 223 262
3 262 223 485
3 486 263 488
3 487 258 269
3 489 266 490
3 491 267 489
3 491 265 264
3 492 260 265
3 493 260 494
3 493 266 261
3 270 272 273
3 275 277 274
3 278 280 281
3 282 284 281
3 282 281 280
3 495 286 285
3 287 275 274
3 496 290 286
3 291 283 282
3 272 289 273
3 295 297 294
3 288 298 299
3 300 296 497
3 303 305 302
3 306 305 307
3 309 311 308
3 311 310 312
3 290 295 294
3 314 291 313
3 306 316 315
3 289 300 497
3 498 298 287
3 314 499 292
3 283 499 500
3 304 278 317
3 284 500 317
3 500 304 317
3 272 318 319
3 272 320 293
3 300 320 321
3 501 322 323
3 324 325 323
3 325 501 323
3 326 277 501
3 287 326 498
3 327 502 503
3 329 503 504
3 505 329 504
3 331 505 506
3 332 507 508
3 334 508 509
3 510 334 509
3 336 510 511
3 317 281 284
3 278 281 317
3 323 337 324
3 322 337 323
3 339 341 338
3 342 341 343
3 345 347 344
3 342 346 345
3 348 349 350
3 352 354 351
3 352 356 353
3 357 356 355
3 512 276 513
3 514 359 297
3 359 276 512
3 299 314 313
3 322 515 337
3 296 324 337
3 296 337 515
3 308 316 309
3 516 314 298
3 325 300 321
3 340 339 360
3 349 354 350
3 502 311 312
3 507 359 512
3 517 312 310
3 518 338 519
3 520 340 328
3 519 342 521
3 522 341 520
3 523 344 524
3 521 345 523
3 330 343 522
3 525 346 330
3 525 344 347
3 526 339 518
3 328 360 526
3 333 348 527
3 528 351 529
3 335 352 528
3 530 355 335
3 357 531 358
3 532 358 531
3 533 356 532
3 534 353 533
3 527 350 535
3 529 349 333
3 535 354 534
3 362 364 361
3 365 363 362
3 367 366 365
3 369 368 367
3 371 370 369
3 361 372 371
3 374 376 373
3 377 375 374
3 379 378 377
3 381 380 379
3 383 382 381
3 373 384 383
3 386 388 385
3 389 387 386
3 389 392 390
3 393 392 391
3 395 394 393
3 395 388 396
3 398 157 397
3 399 158 398
3 400 159 399
3 401 160 400
3 402 161 401
3 397 162 402
3 146 536 147
3 374 537 538
3 150 539 146
3 377 538 540
3 150 541 542
3 377 543 379
3 152 544 541
3 379 545 381
3 154 546 544
3 381 547 383
3 147 546 156
3 373 547 537
3 375 548 376
3 398 549 550
3 378 551 375
3 399 550 552
3 378 553 554
3 399 555 400
3 380 556 553
3 400 557 401
3 382 558 556
3 401 559 402
3 376 558 384
3 397 559 549
3 1 2 3
3 4 5 2
3 4 6 7
3 8 9 7
3 8 10 11
3 10 0 3
3 14 15 16
3 18 14 13
3 19 20 18
3 22 20 19
3 24 22 21
3 15 24 23
3 25 26 27
3 29 25 28
3 29 30 32
3 31 32 34
3 35 33 34
3 35 36 27
3 5 26 25
3 2 25 29
3 3 29 31
3 11 31 33
3 9 33 35
3 7 35 26
3 38 39 40
3 42 38 37
3 43 44 42
3 45 46 44
3 47 48 46
3 47 40 39
3 50 51 52
3 54 50 49
3 56 54 53
3 58 56 55
3 60 58 57
3 51 60 59
3 27 15 14
3 403 404 13
3 28 14 18
3 404 406 17
3 405 19 17
3 32 30 18
3 32 20 22
3 405 407 21
3 34 22 24
3 407 408 23
3 27 36 24
3 403 16 23
3 62 51 50
3 61 50 54
3 64 63 54
3 65 64 56
3 65 58 60
3 62 66 60
3 409 67 68
3 411 560 67
3 70 560 411
3 71 70 412
3 72 71 413
3 410 68 72
3 74 75 76
3 78 74 73
3 80 78 77
3 82 80 79
3 84 82 81
3 76 75 84
3 86 561 88
3 90 86 85
3 92 90 89
3 94 92 91
3 96 94 93
3 88 561 96
3 98 99 100
3 102 98 97
3 104 102 101
3 106 104 103
3 108 106 105
3 100 99 108
3 110 562 112
3 114 110 109
3 116 114 113
3 118 116 115
3 120 118 117
3 112 562 120
3 122 123 124
3 126 122 121
3 128 126 125
3 130 128 127
3 132 130 129
3 124 123 132
3 134 563 136
3 138 134 133
3 140 138 137
3 142 140 139
3 144 142 141
3 136 563 144
3 146 147 148
3 150 146 145
3 152 150 149
3 154 152 151
3 156 154 153
3 148 147 156
3 415 75 74
3 417 419 73
3 416 74 78
3 419 69 77
3 420 418 78
3 421 79 77
3 422 420 80
3 423 81 79
3 422 82 84
3 423 425 83
3 417 76 83
3 415 424 84
3 426 99 98
3 87 429 97
3 427 98 102
3 429 432 101
3 430 428 102
3 431 103 101
3 433 430 104
3 434 105 103
3 433 106 108
3 434 436 107
3 87 100 107
3 426 435 108
3 437 123 122
3 111 440 121
3 438 122 126
3 440 443 125
3 441 439 126
3 442 127 125
3 444 441 128
3 445 129 127
3 444 130 132
3 445 447 131
3 111 124 131
3 437 446 132
3 448 157 158
3 135 451 145
3 449 158 159
3 451 454 149
3 452 450 159
3 453 151 149
3 455 452 160
3 456 153 151
3 455 161 162
3 456 458 155
3 135 148 155
3 448 457 162
3 163 164 165
3 167 168 169
3 171 172 167
3 174 176 177
3 181 180 183
3 185 186 187
3 190 191 192
3 164 193 194
3 163 195 193
3 197 198 199
3 169 168 194
3 172 202 203
3 171 204 202
3 206 207 208
3 209 201 203
3 205 211 212
3 205 213 214
3 197 215 214
3 197 196 216
3 217 564 219
3 172 201 220
3 222 565 224
3 168 225 226
3 168 167 227
3 172 221 227
3 169 200 198
3 169 197 213
3 171 170 213
3 171 205 208
3 192 191 228
3 209 210 207
3 163 166 217
3 163 196 199
3 187 230 231
3 233 234 235
3 237 232 235
3 237 236 239
3 238 239 241
3 240 241 243
3 242 243 234
3 245 246 247
3 245 244 249
3 248 249 251
3 250 251 253
3 252 253 255
3 254 255 247
3 198 233 232
3 231 230 235
3 199 232 237
3 230 187 236
3 193 195 237
3 186 239 236
3 194 193 238
3 185 241 239
3 194 240 242
3 185 188 243
3 198 200 242
3 231 234 243
3 208 246 245
3 228 191 244
3 202 204 245
3 190 249 244
3 202 248 250
3 190 189 251
3 203 250 252
3 189 192 253
3 207 210 252
3 229 255 253
3 208 207 254
3 228 247 255
3 459 463 460
3 459 464 462
3 464 467 465
3 466 469 465
3 468 470 469
3 468 461 460
3 471 475 472
3 471 477 474
3 476 479 474
3 476 480 478
3 480 482 481
3 473 472 481
3 222 201 209
3 219 564 257
3 224 565 165
3 257 256 209
3 259 260 261
3 263 264 265
3 267 268 269
3 260 259 262
3 268 267 264
3 258 261 266
3 483 259 258
3 485 488 263
3 486 268 263
3 487 484 258
3 489 267 266
3 491 264 267
3 491 492 265
3 492 494 260
3 493 261 260
3 493 490 266
3 270 271 272
3 275 515 277
3 278 279 280
3 282 283 284
3 495 496 286
3 287 288 275
3 496 566 290
3 291 292 283
3 272 293 289
3 295 514 297
3 288 287 298
3 300 301 296
3 303 567 305
3 306 302 305
3 309 310 311
3 290 566 295
3 314 292 291
3 306 307 316
3 289 293 300
3 498 516 298
3 314 568 499
3 283 292 499
3 304 279 278
3 284 283 500
3 272 271 318
3 272 319 320
3 300 293 320
3 501 277 322
3 324 301 325
3 326 274 277
3 287 274 326
3 327 569 502
3 329 327 503
3 505 570 329
3 331 570 505
3 332 571 507
3 334 332 508
3 510 572 334
3 336 572 510
3 339 340 341
3 342 338 341
3 345 346 347
3 342 343 346
3 352 353 354
3 352 355 356
3 357 358 356
3 514 276 359
3 299 298 314
3 322 277 515
3 296 301 324
3 308 315 316
3 516 568 314
3 325 301 300
3 349 351 354
3 502 569 311
3 507 571 359
3 518 339 338
3 520 341 340
3 519 338 342
3 522 343 341
3 523 345 344
3 521 342 345
3 330 346 343
3 525 347 346
3 525 524 344
3 526 360 339
3 328 340 360
3 333 349 348
3 528 352 351
3 335 355 352
3 530 357 355
3 357 530 531
3 532 356 358
3 533 353 356
3 534 354 353
3 527 348 350
3 529 351 349
3 535 350 354
3 362 363 364
3 365 366 363
3 367 368 366
3 369 370 368
3 371 372 370
3 361 364 372
3 374 375 376
3 377 378 375
3 379 380 378
3 381 382 380
3 383 384 382
3 373 376 384
3 386 387 388
3 389 390 387
3 389 391 392
3 393 394 392
3 395 396 394
3 395 385 388
3 398 158 157
3 399 159 158
3 400 160 159
3 401 161 160
3 402 162 161
3 397 157 162
3 146 539 536
3 374 373 537
3 150 542 539
3 377 374 538
3 150 152 541
3 377 540 543
3 152 154 544
3 379 543 545
3 154 156 546
3 381 545 547
3 147 536 546
3 373 383 547
3 375 551 548
3 398 397 549
3 378 554 551
3 399 398 550
3 378 380 553
3 399 552 555
3 380 382 556
3 400 555 557
3 382 384 558
3 401 557 559
3 376 548 558
3 397 402 559
