ply
format ascii 1.0
comment INFO-3111 Flatenator generated
comment TextureFile Dungeons_Texture_01.png
element vertex 509
property float x
property float y
property float z
element face 770
property list uchar int vertex_indices
end_header
-1.02642 -18.799 -0.502252 
1.02638 -18.799 -0.502252 
1.02638 -14.4281 -3.00002 
-1.02642 -14.4281 -3.00002 
1.02638 -13.1519 -2.01466 
-1.02642 -13.1519 -2.01466 
-1.02642 -14.4263 2.99968 
1.02638 -14.4263 2.99968 
1.02638 -18.7991 0.503733 
-1.02642 -18.7991 0.503733 
-1.02642 -13.1519 2.08064 
1.02638 -13.1519 2.08064 
-1.02642 -21.5567 -1.05917 
-1.02642 -14.2466 -5.68827 
1.02638 -14.2466 -5.68827 
1.02638 -21.5567 -1.05917 
-1.02642 -10.9697 -2.01761 
1.02638 -10.9697 -2.01761 
-1.02642 -14.2459 5.68913 
-1.02642 -21.5567 1.06072 
1.02638 -21.5567 1.06072 
1.02638 -14.2459 5.68913 
1.02638 -10.9697 2.14888 
-1.02642 -10.9697 2.14888 
-1.13183 87.7601 2.26524 
-1.13183 92.1719 1.5e-05 
1.13179 92.1719 1.5e-05 
1.13179 87.7601 2.26524 
-1.13183 87.7601 -2.26521 
1.13179 87.7601 -2.26521 
-1.13183 82.7918 -0.738733 
1.13179 82.7918 -0.738733 
-1.13183 82.7918 0.738759 
1.13179 82.7918 0.738759 
-1.13183 38.8533 -0.715937 
1.13179 38.8533 -0.715937 
-1.13183 38.8533 0.715949 
1.13179 38.8533 0.715949 
-1.13183 35.019 -2.07028 
1.13179 35.019 -2.07028 
-1.13183 35.019 2.07029 
1.13179 35.019 2.07029 
-1.13183 87.664 5.93912 
-2.3e-05 87.664 8.68926 
-2.3e-05 103.89 1.7e-05 
-1.13183 99.7506 1.6e-05 
-2.3e-05 87.664 -8.68923 
-1.13183 87.664 -5.93909 
-2.3e-05 82.7918 -6.12471 
-1.13183 82.7918 -3.82742 
-1.13183 82.7918 3.82745 
-2.3e-05 82.7918 6.12473 
-2.3e-05 55.9077 -6.12471 
-1.13183 58.0467 -3.82743 
0.65627 58.1232 -4.79262 
-1.13183 39.7521 3.82744 
-2.3e-05 39.7521 6.12473 
-2.3e-05 44.5762 6.12473 
-0.394877 47.0929 5.32325 
-2.3e-05 78.1564 6.12473 
-0.534533 75.3746 5.03983 
-2.3e-05 72.5806 6.12473 
-2.3e-05 51.0267 6.12473 
-1.13183 39.7521 -3.82743 
-2.3e-05 39.7521 -6.12471 
-2.3e-05 35.9178 -8.14615 
-1.13183 35.9178 -5.9391 
-1.13183 35.9178 5.93911 
-2.3e-05 35.9178 8.14617 
1.13179 99.7506 1.6e-05 
1.13179 87.664 5.93912 
1.13179 87.664 -5.93909 
1.13179 82.7918 -3.82742 
1.13179 82.7918 3.82745 
1.13179 39.7521 -3.82743 
1.13179 39.7521 3.82744 
1.13179 35.9178 -5.9391 
1.13179 35.9178 5.93911 
0.524997 75.3543 5.05904 
0.546723 47.1556 5.01499 
-2.3e-05 59.8755 -6.12471 
1.13179 29.8328 -5.9391 
-2.3e-05 28.0943 -8.14615 
-1.13183 29.8328 5.93911 
-2.3e-05 28.0943 8.14616 
1.13179 33.0925 -2.07028 
-1.13183 33.0925 -2.07028 
-1.13183 33.0925 2.07029 
1.13179 33.0925 2.07029 
1.13179 29.8328 5.93911 
-1.13183 29.8328 -5.9391 
1.13179 26.4645 -3.96526 
-2.3e-05 24.726 -5.07274 
-1.13183 26.4645 3.96527 
-2.3e-05 24.726 5.07275 
1.13179 30.3916 -1.19615 
-1.13183 30.3916 -1.19615 
-1.13183 30.3916 1.19616 
1.13179 30.3916 1.19616 
1.13179 26.4645 3.96527 
-1.13183 26.4645 -3.96526 
-1.49419 28.7432 0.403847 
1.49415 28.7432 0.403847 
1.49415 23.1989 3.8571 
-1.49419 23.1989 3.8571 
1.49415 20.4272 1.31631 
-1.49419 20.4272 1.31631 
1.49415 23.1989 -3.85712 
-1.49419 23.1989 -3.85712 
-1.49419 20.4272 -1.31715 
1.49415 20.4272 -1.31715 
1.49415 28.7432 -0.403837 
-1.49419 28.7432 -0.403837 
-0.659788 31.9643 1.34372 
-0.659788 22.6972 7.21214 
0.659749 22.6972 7.21214 
0.659749 31.9643 1.34372 
-0.659788 16.7196 1.28816 
0.659749 16.7196 1.28816 
-0.659788 22.6963 -7.21127 
-0.659788 31.9643 -1.34371 
0.659749 31.9643 -1.34371 
0.659749 22.6963 -7.21127 
3.28625 23.4807 8.25294 
3.28625 22.5427 8.81964 
3.28625 22.5427 5.68271 
3.28627 25.4879 5.40406 
3.28625 30.7112 0.594978 
3.28625 28.3623 5.30352 
3.28625 33.4908 2.2049 
3.28625 15.0386 2.03446 
3.28625 18.4592 1.93934 
3.28625 18.4592 -1.94058 
3.28625 15.0386 -2.05191 
3.28625 17.1938 -3.99566 
3.28627 19.2596 -4.88499 
3.28625 22.5427 -8.81963 
3.28625 22.5427 -5.6827 
3.28625 20.3187 -6.81388 
-3.28629 22.5427 -5.6827 
-3.28629 22.5427 -8.81963 
-3.28629 15.0386 -2.05191 
-3.28629 18.4592 -1.94058 
-3.28629 30.7112 -0.594968 
-3.28629 33.4908 -2.20492 
3.28625 33.4908 -2.20492 
3.28625 30.7112 -0.594968 
-3.28629 30.7112 0.594978 
-3.28629 33.4908 2.2049 
0.659749 16.7186 -1.30475 
-0.659788 16.7186 -1.30475 
-3.28629 15.0386 2.03446 
-3.28629 18.4592 1.93934 
-3.28629 22.5427 5.68271 
-3.28629 22.5427 7.13723 
-2.36092 22.5427 8.81964 
-3.28629 24.3847 7.70671 
-3.28629 19.8983 6.4286 
-1.19463 22.5427 -8.81963 
-1.19463 15.0386 -2.05191 
-1.19463 33.4908 -2.20492 
-1.19463 33.4908 2.2049 
-1.19463 15.0386 2.03446 
1.19459 33.4908 2.2049 
1.19459 22.5427 8.81964 
2.03643 26.6417 6.34305 
1.19459 15.0386 2.03446 
1.19459 22.5427 -8.81963 
2.15834 18.7362 -5.38669 
1.19459 15.0386 -2.05191 
1.19459 33.4908 -2.20492 
-1.19463 22.5427 8.81964 
2.48047 13.2642 -2.2e-05 
2.48047 11.8642 -2.2e-05 
1.24029 11.8642 -2.14809 
1.24029 13.2642 -2.14809 
1.24027 13.2642 2.14826 
1.24027 11.8642 2.14826 
-1.2403 13.2642 2.14817 
-1.2403 11.8642 2.14817 
-2.48049 13.2642 9.8e-05 
-2.48049 11.8642 9.8e-05 
-1.24028 13.2642 -2.14819 
-1.24028 11.8642 -2.14819 
-1.04124 -8.91551 1.80362 
-2.08258 -8.91551 -2.5e-05 
-2.65831 -9.25647 7e-05 
-1.32918 -9.25647 2.30218 
-1.04128 -8.91551 -1.80353 
-1.32919 -9.25647 -2.30218 
1.04122 -8.91551 -1.80355 
1.32917 -9.25647 -2.30211 
2.08257 -8.91551 9.5e-05 
2.65829 -9.25647 -2e-06 
1.04124 -8.91551 1.80355 
1.32917 -9.25647 2.30225 
2.08257 11.5232 9.8e-05 
1.04122 11.5232 -1.80355 
1.04124 11.5232 1.80355 
-1.04124 11.5232 1.80362 
-2.08258 11.5232 -2.2e-05 
-1.04128 11.5232 -1.80352 
1.41558 13.8719 -2.60564 
2.96434 13.8719 0.076924 
-1.50731 13.8719 -2.6107 
-2.96436 13.8719 -0.076872 
-1.41559 13.8719 2.60567 
1.50732 13.8719 2.6108 
1.04122 -7.26779 -1.80355 
2.08257 -8.24583 9.5e-05 
-1.04128 -7.26779 -1.80353 
-2.08258 -8.24583 -2.5e-05 
-1.04124 -7.26779 1.80362 
1.04124 -7.26779 1.80355 
1.50732 18.4974 2.6108 
-1.41559 18.4974 2.60567 
-2.96436 18.4974 -0.076871 
-1.50731 18.4974 -2.6107 
1.41558 18.4974 -2.60564 
2.96434 18.4974 0.076925 
-1.32929 -16.0915 4.5e-05 
-2.65831 -14.9405 7e-05 
-1.32919 -14.9405 -2.30218 
-0.664661 -16.0915 -1.1512 
-0.664661 -16.0915 1.15122 
-1.32918 -14.9405 2.30218 
0.664646 -16.0915 1.15127 
1.32917 -14.9405 2.30225 
1.32917 -14.9405 -2.30211 
0.664646 -16.0915 -1.15115 
2.65829 -14.9405 -2e-06 
1.32928 -16.0915 2.1e-05 
-2.65831 -10.4364 7e-05 
-1.32918 -10.4364 2.30218 
-1.32919 -10.4364 -2.30218 
1.32917 -10.4364 -2.30211 
2.65829 -10.4364 -2e-06 
1.32917 -10.4364 2.30225 
-1.16303 -10.964 2.01444 
-2.32603 -10.964 4.6e-05 
-2.32603 -13.164 4.6e-05 
-1.16303 -13.164 2.01444 
-1.16304 -10.964 -2.01439 
-1.16304 -13.164 -2.01439 
1.16302 -10.964 -2.01434 
1.16302 -13.164 -2.01434 
2.32602 -10.964 2.2e-05 
2.32602 -13.164 2.2e-05 
1.16302 -10.964 2.01446 
1.16302 -13.164 2.01446 
-1.32918 -13.6916 2.30218 
-2.65831 -13.6916 7e-05 
-1.32919 -13.6916 -2.30218 
1.32917 -13.6916 -2.30211 
2.65829 -13.6916 -2e-06 
1.32917 -13.6916 2.30225 
2.08257 10.0533 9.8e-05 
1.04122 11.0313 -1.80355 
-1.04128 11.0313 -1.80352 
-2.08258 10.0533 -2.2e-05 
-1.04124 11.0313 1.80362 
1.04124 11.0313 1.80355 
2.6165 6.12038 0.000121 
1.30819 6.93331 -2.26594 
1.30819 10.4816 -2.26594 
2.6165 9.66869 0.000122 
-1.30826 6.93331 -2.26592 
-1.30826 10.4816 -2.26592 
-2.61652 6.12038 -2.3e-05 
-2.61652 9.66869 -2.2e-05 
-1.3082 6.93331 2.26604 
-1.3082 10.4816 2.26604 
1.30822 6.93331 2.26597 
1.30822 10.4816 2.26597 
2.08257 3.94642 9.7e-05 
1.04122 4.92448 -1.80355 
1.04122 6.49371 -1.80355 
2.08257 5.51566 9.7e-05 
-1.04128 4.92448 -1.80352 
-1.04128 6.49371 -1.80352 
-2.08258 3.94642 -2.3e-05 
-2.08258 5.51566 -2.3e-05 
-1.04124 4.92448 1.80362 
-1.04124 6.49371 1.80362 
1.04124 4.92448 1.80355 
1.04124 6.49371 1.80355 
2.6165 0.399668 0.00012 
1.30819 1.2126 -2.26595 
1.30819 4.51167 -2.26594 
2.6165 3.69874 0.000121 
-1.30826 1.2126 -2.26592 
-1.30826 4.51167 -2.26592 
-2.61652 0.399668 -2.4e-05 
-2.61652 3.69874 -2.3e-05 
-1.3082 1.2126 2.26604 
-1.3082 4.51167 2.26604 
1.30822 1.2126 2.26597 
1.30822 4.51167 2.26597 
2.08257 -1.15491 9.6e-05 
1.04122 -0.176876 -1.80355 
1.04122 0.909877 -1.80355 
2.08257 -0.068179 9.6e-05 
-1.04128 -0.176876 -1.80352 
-1.04128 0.909877 -1.80352 
-2.08258 -1.15491 -2.4e-05 
-2.08258 -0.068179 -2.4e-05 
-1.04124 -0.176876 1.80362 
-1.04124 0.909877 1.80362 
1.04124 -0.176876 1.80355 
1.04124 0.909877 1.80355 
2.6165 -3.96221 0.000119 
1.30819 -3.14928 -2.26595 
1.30819 -0.601899 -2.26595 
2.6165 -1.41483 0.00012 
-1.30826 -3.14928 -2.26592 
-1.30826 -0.601899 -2.26592 
-2.61652 -3.96221 -2.5e-05 
-2.61652 -1.41483 -2.4e-05 
-1.3082 -3.14928 2.26604 
-1.3082 -0.601899 2.26604 
1.30822 -3.14928 2.26597 
1.30822 -0.601899 2.26597 
2.08257 -5.50185 9.5e-05 
1.04122 -4.52378 -1.80355 
1.04122 -3.46423 -1.80355 
2.08257 -4.44229 9.5e-05 
-1.04128 -4.52378 -1.80353 
-1.04128 -3.46423 -1.80353 
-2.08258 -5.50185 -2.5e-05 
-2.08258 -4.44229 -2.5e-05 
-1.04124 -4.52378 1.80362 
-1.04124 -3.46423 1.80362 
1.04124 -4.52378 1.80355 
1.04124 -3.46423 1.80355 
2.6165 -7.82691 0.000119 
1.30819 -7.01399 -2.26597 
1.30819 -4.88766 -2.26597 
2.6165 -5.7006 0.000119 
-1.30826 -7.01398 -2.26592 
-1.30826 -4.88766 -2.26592 
-2.61652 -7.82691 -2.5e-05 
-2.61652 -5.7006 -2.5e-05 
-1.3082 -7.01399 2.26604 
-1.3082 -4.88766 2.26604 
1.30822 -7.01399 2.26597 
1.30822 -4.88766 2.26597 
-1.72948 35.7277 -5.12086 
-1.72948 35.192 -2.81531 
-1.72948 39.0264 -1.31513 
-1.72948 39.562 -3.16934 
-1.72948 82.7918 -3.17416 
-1.72948 82.7918 -1.33354 
-1.72948 87.6844 -5.16207 
-1.72948 87.7416 -2.97271 
-1.72948 98.1478 1.6e-05 
-1.72948 93.6314 1.5e-05 
-1.72948 87.6844 5.1621 
-1.72948 87.7416 2.97274 
-1.72948 82.7918 3.17418 
-1.72948 82.7918 1.33356 
-1.72948 39.562 3.16936 
-1.72948 39.0264 1.31514 
-1.72948 35.7277 5.12088 
-1.72948 35.192 2.81532 
1.72944 35.6834 4.93037 
1.72944 35.1776 2.753 
1.72944 39.0119 1.265 
1.72944 39.5177 3.01616 
1.72944 82.7918 3.02211 
1.72944 82.7918 1.28381 
1.72944 87.6891 4.98121 
1.72944 87.7432 2.91354 
1.72944 97.7746 1.6e-05 
1.72944 93.5093 1.5e-05 
1.72944 87.6891 -4.98118 
1.72944 87.7432 -2.91351 
1.72944 82.7918 -3.02209 
1.72944 82.7918 -1.28378 
1.72944 39.5177 -3.01615 
1.72944 39.0119 -1.26499 
1.72944 35.6834 -4.93036 
1.72944 35.1776 -2.75299 
-1.72948 30.5624 -5.12086 
-1.72948 32.3474 -2.81531 
-1.72948 32.3474 2.81532 
-1.72948 30.5624 5.12087 
1.72944 30.5624 4.93037 
1.72944 32.3474 2.753 
1.72944 32.3474 -2.75299 
1.72944 30.5624 -4.93036 
-1.72948 27.6131 -3.32034 
-1.72948 29.6466 -1.62663 
-1.72948 29.6466 1.62664 
-1.72948 27.6131 3.32035 
1.72944 27.6131 3.19684 
1.72944 29.6466 1.59063 
1.72944 29.6466 -1.59062 
1.72944 27.6131 -3.19683 
-1.13183 87.664 5.93912 
-1.13183 87.664 -5.93909 
-1.13183 99.7506 1.6e-05 
-1.13183 82.7918 -3.82742 
-1.13183 82.7918 3.82745 
-1.13183 39.7521 -3.82743 
-1.13183 58.0467 -3.82743 
-1.13183 39.7521 3.82744 
-1.13183 35.9178 5.93911 
1.13179 39.7521 3.82744 
1.13179 82.7918 3.82745 
1.13179 87.664 5.93912 
1.13179 99.7506 1.6e-05 
1.13179 87.664 -5.93909 
1.13179 82.7918 -3.82742 
1.13179 39.7521 -3.82743 
1.13179 35.9178 -5.9391 
1.13179 29.8328 -5.9391 
-1.13183 29.8328 5.93911 
-1.13183 35.9178 -5.9391 
-1.13183 29.8328 -5.9391 
1.13179 35.9178 5.93911 
1.13179 29.8328 5.93911 
-1.13183 26.4645 -3.96526 
1.13179 26.4645 3.96527 
-3.28629 22.5427 -5.6827 
-3.28629 18.4592 -1.94058 
-3.28629 30.7112 -0.594968 
3.28625 22.5427 5.68271 
3.28625 18.4592 1.93934 
3.28625 22.5427 -5.6827 
3.28625 30.7112 -0.594968 
3.28625 30.7112 0.594978 
3.28625 18.4592 -1.94058 
-1.19463 33.4908 2.2049 
1.19459 33.4908 2.2049 
1.19459 22.5427 8.81964 
-1.19463 15.0386 2.03446 
1.19459 15.0386 2.03446 
-1.19463 33.4908 -2.20492 
-1.19463 22.5427 -8.81963 
1.19459 33.4908 -2.20492 
1.19459 15.0386 -2.05191 
1.19459 22.5427 -8.81963 
-1.19463 15.0386 -2.05191 
1.24029 13.2642 -2.14809 
2.48047 13.2642 -2.2e-05 
-1.24028 13.2642 -2.14819 
-2.48049 13.2642 9.8e-05 
1.24027 13.2642 2.14826 
-1.2403 13.2642 2.14817 
1.50732 13.8719 2.6108 
-1.41559 13.8719 2.60567 
-2.96436 13.8719 -0.076872 
-1.50731 13.8719 -2.6107 
1.41558 13.8719 -2.60564 
2.96434 13.8719 0.076924 
1.04122 6.49371 -1.80355 
2.08257 5.51566 9.7e-05 
2.08257 10.0533 9.8e-05 
1.04122 11.0313 -1.80355 
-1.04128 11.0313 -1.80352 
-1.04128 6.49371 -1.80352 
-1.04124 6.49371 1.80362 
-2.08258 5.51566 -2.3e-05 
-1.04124 11.0313 1.80362 
1.04124 11.0313 1.80355 
1.04124 6.49371 1.80355 
1.04122 0.909877 -1.80355 
2.08257 -0.068179 9.6e-05 
2.08257 3.94642 9.7e-05 
1.04122 4.92448 -1.80355 
-1.04128 4.92448 -1.80352 
-1.04128 0.909877 -1.80352 
-2.08258 3.94642 -2.3e-05 
-1.04124 0.909877 1.80362 
-2.08258 -0.068179 -2.4e-05 
-1.04124 4.92448 1.80362 
1.04124 4.92448 1.80355 
1.04124 0.909877 1.80355 
1.04122 -3.46423 -1.80355 
2.08257 -4.44229 9.5e-05 
2.08257 -1.15491 9.6e-05 
1.04122 -0.176876 -1.80355 
-1.04128 -0.176876 -1.80352 
-1.04128 -3.46423 -1.80353 
-2.08258 -1.15491 -2.4e-05 
-1.04124 -3.46423 1.80362 
-2.08258 -4.44229 -2.5e-05 
-1.04124 -0.176876 1.80362 
1.04124 -0.176876 1.80355 
1.04124 -3.46423 1.80355 
1.04122 -7.26779 -1.80355 
2.08257 -8.24583 9.5e-05 
2.08257 -5.50185 9.5e-05 
1.04122 -4.52378 -1.80355 
-1.04128 -4.52378 -1.80353 
-1.04128 -7.26779 -1.80353 
-2.08258 -5.50185 -2.5e-05 
-1.04124 -7.26779 1.80362 
-2.08258 -8.24583 -2.5e-05 
-1.04124 -4.52378 1.80362 
1.04124 -4.52378 1.80355 
1.04124 -7.26779 1.80355 
-1.19463 22.5427 8.81964 
-3.28629 30.7112 0.594978 
-3.28629 22.5427 5.68271 
-3.28629 18.4592 1.93934 
1.13179 26.4645 -3.96526 
-1.13183 26.4645 3.96527 
-2.08258 10.0533 -2.2e-05 
3 1 3 0
3 4 3 2
3 7 9 6
3 8 0 9
3 6 11 7
3 13 15 12
3 13 17 14
3 19 21 18
3 12 20 19
3 22 18 21
3 0 13 12
3 14 1 15
3 13 5 16
3 18 9 19
3 8 21 20
3 9 12 19
3 15 8 20
3 21 11 22
3 10 18 23
3 4 14 17
3 10 4 11
3 10 16 5
3 11 17 22
3 23 17 16
3 25 27 24
3 28 26 25
3 30 29 28
3 24 33 32
3 34 31 30
3 32 37 36
3 38 35 34
3 36 41 40
3 43 45 42
3 45 46 47
3 47 48 49
3 51 42 50
3 52 53 54
3 55 57 58
3 59 50 60
3 50 55 60
3 60 58 61
3 58 62 61
3 64 66 63
3 67 56 55
3 70 26 69
3 398 25 24
3 71 26 29
3 399 25 400
3 72 29 31
3 401 28 399
3 73 27 70
3 402 24 32
3 74 31 35
3 34 30 403
3 404 30 401
3 75 33 73
3 405 32 36
3 74 39 76
3 403 38 34
3 75 41 37
3 405 40 406
3 56 77 407
3 408 59 78
3 57 407 79
3 407 408 79
3 79 78 62
3 78 61 62
3 51 409 43
3 43 410 44
3 46 410 411
3 48 411 412
3 413 52 54
3 80 412 54
3 412 413 54
3 64 414 65
3 65 81 82
3 68 83 84
3 76 85 415
3 38 85 39
3 406 87 416
3 41 87 40
3 68 89 77
3 65 90 66
3 86 417 418
3 88 419 420
3 82 91 92
3 84 93 94
3 95 415 85
3 86 95 85
3 97 416 87
3 88 97 87
3 84 99 89
3 82 100 90
3 96 418 421
3 98 420 422
3 102 104 101
3 105 104 103
3 108 110 107
3 107 112 108
3 111 101 112
3 114 116 113
3 114 118 115
3 120 122 119
3 113 121 120
3 123 125 126
3 125 127 126
3 128 127 129
3 124 131 125
3 132 134 135
3 136 137 138
3 137 135 138
3 140 142 139
3 139 144 140
3 145 137 136
3 143 148 144
3 129 146 145
3 149 119 122
3 132 130 133
3 105 109 106
3 117 149 118
3 151 142 141
3 101 153 147
3 154 155 156
3 106 153 104
3 157 155 154
3 159 140 158
3 109 423 424
3 112 423 108
3 158 144 160
3 101 425 112
3 160 148 161
3 109 152 106
3 162 141 159
3 102 426 103
3 163 165 129
3 164 123 165
3 165 128 129
3 166 124 164
3 105 426 427
3 110 428 107
3 167 138 168
3 134 169 168
3 169 167 168
3 111 428 429
3 170 136 167
3 102 429 430
3 163 145 170
3 110 427 431
3 169 130 166
3 432 114 113
3 433 115 434
3 435 114 171
3 436 115 118
3 437 119 438
3 439 122 121
3 432 120 437
3 433 121 116
3 440 122 441
3 442 119 150
3 435 150 117
3 436 149 440
3 173 175 172
3 177 172 176
3 179 176 178
3 181 178 180
3 183 180 182
3 174 182 175
3 184 186 187
3 185 189 186
3 190 189 188
3 192 191 190
3 192 195 193
3 184 195 194
3 196 174 173
3 196 177 198
3 199 177 179
3 200 179 181
3 200 183 201
3 197 183 174
3 443 203 444
3 445 202 443
3 445 205 204
3 446 206 205
3 447 206 448
3 447 203 207
3 190 209 192
3 188 208 190
3 188 211 210
3 184 211 185
3 194 212 184
3 194 209 213
3 449 215 450
3 451 217 452
3 453 219 454
3 450 216 451
3 452 218 453
3 454 214 449
3 221 223 220
3 221 224 225
3 225 226 227
3 223 228 229
3 228 231 229
3 230 226 231
3 232 187 186
3 234 186 189
3 191 234 189
3 236 191 193
3 237 193 195
3 233 195 187
3 220 223 224
3 224 229 231
3 231 226 224
3 239 241 238
3 242 240 239
3 244 243 242
3 246 245 244
3 248 247 246
3 238 249 248
3 251 225 250
3 252 221 251
3 253 222 252
3 254 228 253
3 255 230 254
3 250 227 255
3 233 239 238
3 250 240 251
3 232 242 239
3 251 243 252
3 235 242 234
3 253 243 245
3 236 244 235
3 254 245 247
3 236 248 246
3 254 249 255
3 233 248 237
3 250 249 241
3 257 196 256
3 257 201 197
3 258 200 201
3 200 260 199
3 260 198 199
3 261 196 198
3 263 265 262
3 263 267 264
3 266 269 267
3 270 269 268
3 272 271 270
3 272 265 273
3 275 277 274
3 278 276 275
3 278 281 279
3 282 281 280
3 284 283 282
3 284 277 285
3 287 289 286
3 290 288 287
3 290 293 291
3 294 293 292
3 296 295 294
3 296 289 297
3 299 301 298
3 302 300 299
3 302 305 303
3 306 305 304
3 308 307 306
3 308 301 309
3 311 313 310
3 314 312 311
3 314 317 315
3 318 317 316
3 320 319 318
3 320 313 321
3 323 325 322
3 326 324 323
3 326 329 327
3 330 329 328
3 332 331 330
3 332 325 333
3 335 337 334
3 338 336 335
3 338 341 339
3 342 341 340
3 344 343 342
3 344 337 345
3 455 262 456
3 457 264 458
3 455 266 263
3 458 267 459
3 460 268 266
3 259 267 269
3 461 268 462
3 259 271 463
3 461 272 270
3 463 273 464
3 465 262 272
3 457 273 265
3 466 286 467
3 468 288 469
3 466 290 287
3 469 291 470
3 471 292 290
3 472 291 293
3 473 292 474
3 472 295 475
3 473 296 294
3 475 297 476
3 477 286 296
3 468 297 289
3 478 310 479
3 480 312 481
3 478 314 311
3 481 315 482
3 483 316 314
3 484 315 317
3 485 316 486
3 484 319 487
3 485 320 318
3 487 321 488
3 489 310 320
3 480 321 313
3 490 334 491
3 492 336 493
3 490 338 335
3 493 339 494
3 495 340 338
3 496 339 341
3 497 340 498
3 496 343 499
3 497 344 342
3 499 345 500
3 501 334 344
3 492 345 337
3 347 349 346
3 349 351 350
3 350 353 352
3 352 355 354
3 356 355 357
3 358 357 359
3 360 359 361
3 360 363 362
3 365 367 364
3 367 369 368
3 368 371 370
3 370 373 372
3 374 373 375
3 376 375 377
3 378 377 379
3 378 381 380
3 346 383 347
3 362 384 385
3 364 387 365
3 380 388 389
3 382 391 383
3 385 392 393
3 386 395 387
3 389 396 397
3 348 381 379
3 383 381 347
3 391 388 383
3 390 389 397
3 382 380 389
3 349 380 346
3 349 376 378
3 350 374 376
3 352 372 374
3 356 372 354
3 358 370 356
3 360 368 358
3 360 364 367
3 385 364 362
3 393 386 385
3 392 387 395
3 384 365 387
3 361 365 363
3 361 369 366
3 359 371 369
3 357 373 371
3 353 373 355
3 351 375 353
3 348 377 351
3 52 63 53
3 49 80 53
3 53 80 54
3 59 60 78
3 60 61 78
3 79 58 57
3 62 58 79
3 138 135 168
3 135 134 168
3 162 155 151
3 155 157 151
3 502 161 155
3 156 161 148
3 156 503 504
3 154 156 504
3 505 157 504
3 154 504 157
3 165 126 128
3 123 126 165
3 1 2 3
3 4 5 3
3 7 8 9
3 8 1 0
3 6 10 11
3 13 14 15
3 13 16 17
3 19 20 21
3 12 15 20
3 22 23 18
3 0 3 13
3 14 2 1
3 13 3 5
3 18 6 9
3 8 7 21
3 9 0 12
3 15 1 8
3 21 7 11
3 10 6 18
3 4 2 14
3 10 5 4
3 10 23 16
3 11 4 17
3 23 22 17
3 25 26 27
3 28 29 26
3 30 31 29
3 24 27 33
3 34 35 31
3 32 33 37
3 38 39 35
3 36 37 41
3 43 44 45
3 45 44 46
3 47 46 48
3 51 43 42
3 55 56 57
3 59 51 50
3 60 55 58
3 64 65 66
3 67 68 56
3 70 27 26
3 398 400 25
3 71 69 26
3 399 28 25
3 72 71 29
3 401 30 28
3 73 33 27
3 402 398 24
3 74 72 31
3 404 403 30
3 75 37 33
3 405 402 32
3 74 35 39
3 403 417 38
3 75 419 41
3 405 36 40
3 56 68 77
3 408 51 59
3 57 56 407
3 79 408 78
3 51 408 409
3 43 409 410
3 46 44 410
3 48 46 411
3 413 64 52
3 80 48 412
3 64 413 414
3 65 414 81
3 68 67 83
3 76 39 85
3 38 86 85
3 406 40 87
3 41 88 87
3 68 84 89
3 65 82 90
3 86 38 417
3 88 41 419
3 82 81 91
3 84 83 93
3 95 506 415
3 86 96 95
3 97 507 416
3 88 98 97
3 84 94 99
3 82 92 100
3 96 86 418
3 98 88 420
3 102 103 104
3 105 106 104
3 108 109 110
3 107 111 112
3 111 102 101
3 114 115 116
3 114 117 118
3 120 121 122
3 113 116 121
3 123 124 125
3 128 126 127
3 124 130 131
3 132 133 134
3 137 132 135
3 140 141 142
3 139 143 144
3 145 146 137
3 143 503 148
3 129 127 146
3 149 150 119
3 132 131 130
3 105 110 109
3 117 150 149
3 151 505 142
3 101 104 153
3 106 152 153
3 159 141 140
3 109 108 423
3 112 425 423
3 158 140 144
3 101 147 425
3 160 144 148
3 109 424 152
3 162 151 141
3 102 430 426
3 163 164 165
3 164 124 123
3 166 130 124
3 105 103 426
3 110 431 428
3 167 136 138
3 134 133 169
3 111 107 428
3 170 145 136
3 102 111 429
3 163 129 145
3 110 105 427
3 169 133 130
3 432 171 114
3 433 116 115
3 435 117 114
3 436 434 115
3 437 120 119
3 439 441 122
3 432 113 120
3 433 439 121
3 440 149 122
3 442 438 119
3 435 442 150
3 436 118 149
3 173 174 175
3 177 173 172
3 179 177 176
3 181 179 178
3 183 181 180
3 174 183 182
3 184 185 186
3 185 188 189
3 190 191 189
3 192 193 191
3 192 194 195
3 184 187 195
3 196 197 174
3 196 173 177
3 199 198 177
3 200 199 179
3 200 181 183
3 197 201 183
3 443 202 203
3 445 204 202
3 445 446 205
3 446 448 206
3 447 207 206
3 447 444 203
3 190 208 209
3 188 210 208
3 188 185 211
3 184 212 211
3 194 213 212
3 194 192 209
3 449 214 215
3 451 216 217
3 453 218 219
3 450 215 216
3 452 217 218
3 454 219 214
3 221 222 223
3 221 220 224
3 225 224 226
3 223 222 228
3 228 230 231
3 230 227 226
3 232 233 187
3 234 232 186
3 191 235 234
3 236 235 191
3 237 236 193
3 233 237 195
3 224 223 229
3 239 240 241
3 242 243 240
3 244 245 243
3 246 247 245
3 248 249 247
3 238 241 249
3 251 221 225
3 252 222 221
3 253 228 222
3 254 230 228
3 255 227 230
3 250 225 227
3 233 232 239
3 250 241 240
3 232 234 242
3 251 240 243
3 235 244 242
3 253 252 243
3 236 246 244
3 254 253 245
3 236 237 248
3 254 247 249
3 233 238 248
3 250 255 249
3 257 197 196
3 257 258 201
3 258 508 200
3 200 508 260
3 260 261 198
3 261 256 196
3 263 264 265
3 263 266 267
3 266 268 269
3 270 271 269
3 272 273 271
3 272 262 265
3 275 276 277
3 278 279 276
3 278 280 281
3 282 283 281
3 284 285 283
3 284 274 277
3 287 288 289
3 290 291 288
3 290 292 293
3 294 295 293
3 296 297 295
3 296 286 289
3 299 300 301
3 302 303 300
3 302 304 305
3 306 307 305
3 308 309 307
3 308 298 301
3 311 312 313
3 314 315 312
3 314 316 317
3 318 319 317
3 320 321 319
3 320 310 313
3 323 324 325
3 326 327 324
3 326 328 329
3 330 331 329
3 332 333 331
3 332 322 325
3 335 336 337
3 338 339 336
3 338 340 341
3 342 343 341
3 344 345 343
3 344 334 337
3 455 263 262
3 457 265 264
3 455 460 266
3 458 264 267
3 460 462 268
3 259 459 267
3 461 270 268
3 259 269 271
3 461 465 272
3 463 271 273
3 465 456 262
3 457 464 273
3 466 287 286
3 468 289 288
3 466 471 290
3 469 288 291
3 471 474 292
3 472 470 291
3 473 294 292
3 472 293 295
3 473 477 296
3 475 295 297
3 477 467 286
3 468 476 297
3 478 311 310
3 480 313 312
3 478 483 314
3 481 312 315
3 483 486 316
3 484 482 315
3 485 318 316
3 484 317 319
3 485 489 320
3 487 319 321
3 489 479 310
3 480 488 321
3 490 335 334
3 492 337 336
3 490 495 338
3 493 336 339
3 495 498 340
3 496 494 339
3 497 342 340
3 496 341 343
3 497 501 344
3 499 343 345
3 501 491 334
3 492 500 345
3 347 348 349
3 349 348 351
3 350 351 353
3 352 353 355
3 356 354 355
3 358 356 357
3 360 358 359
3 360 361 363
3 365 366 367
3 367 366 369
3 368 369 371
3 370 371 373
3 374 372 373
3 376 374 375
3 378 376 377
3 378 379 381
3 346 382 383
3 362 363 384
3 364 386 387
3 380 381 388
3 382 390 391
3 385 384 392
3 386 394 395
3 389 388 396
3 348 347 381
3 383 388 381
3 391 396 388
3 390 382 389
3 382 346 380
3 349 378 380
3 349 350 376
3 350 352 374
3 352 354 372
3 356 370 372
3 358 368 370
3 360 367 368
3 360 362 364
3 385 386 364
3 393 394 386
3 392 384 387
3 384 363 365
3 361 366 365
3 361 359 369
3 359 357 371
3 357 355 373
3 353 375 373
3 351 377 375
3 348 379 377
3 52 64 63
3 49 48 80
3 162 502 155
3 156 155 161
3 156 148 503
3 505 151 157
