ply
format ascii 1.0
comment INFO-3111 Flatenator generated
comment TextureFile Dungeons_Texture_01.png
element vertex 323
property float x
property float y
property float z
property float nx
property float ny
property float nz
property uchar red
property uchar green
property uchar blue
property uchar alpha
property float texture_u
property float texture_v
element face 448
property list uchar int vertex_indices
end_header
0.030972 0.189235 -0.044544 0.468863 0.601237 -0.647055 79 79 78 255 0.296299 0.328975 
0.024772 0.149961 -0.041588 0.293877 -0.690421 -0.661026 79 79 78 255 0.296299 0.328975 
-0.030981 0.189235 -0.044544 -0.469379 0.359184 -0.806642 79 79 78 255 0.296299 0.328975 
-0.024781 0.149961 -0.041588 -0.277447 -0.830807 -0.482476 79 79 78 255 0.296299 0.328975 
-0.048844 0.192993 -0.004897 -0.59621 0.802829 1.96171e-08 79 79 78 255 0.296299 0.328975 
-0.045208 0.149961 -0.004897 -0.858484 -0.512841 -2.66116e-06 79 79 78 255 0.296299 0.328975 
-0.030981 0.189235 0.03475 -0.4689 0.601285 0.646985 79 79 78 255 0.296299 0.328975 
-0.024781 0.149961 0.031795 -0.293957 -0.690426 0.660985 79 79 78 255 0.296299 0.328975 
0.030972 0.189235 0.03475 0.469332 0.359162 0.806679 79 79 78 255 0.296299 0.328975 
0.024772 0.149961 0.031795 0.27738 -0.830805 0.482517 79 79 78 255 0.296299 0.328975 
0.048844 0.192993 -0.004897 0.59616 0.802865 1.63479e-08 79 79 78 255 0.296299 0.328975 
0.045208 0.149961 -0.004897 0.858468 -0.512867 -2.6645e-06 79 79 78 255 0.296299 0.328975 
-0.027659 0.093807 -0.004897 -0.983247 -9.99411e-05 -0.182277 122 102 74 255 0.244701 0.378875 
-0.01517 0.105211 0.017553 -0.506888 -6.86985e-05 0.862012 122 102 74 255 0.244701 0.378875 
-0.027664 0.145405 -0.004897 -0.983236 -0.000120599 0.182335 122 102 74 255 0.244701 0.378875 
-0.015177 0.145405 0.017553 -0.506911 -8.82873e-05 0.861998 122 102 74 255 0.244701 0.378875 
0.015161 0.145405 0.017553 0.331484 7.42186e-05 0.943461 122 102 74 255 0.244701 0.378875 
0.01517 0.105211 0.017553 0.663049 7.42215e-05 0.748576 122 102 74 255 0.244701 0.378875 
0.015161 0.145405 -0.027347 0.6629 -4.73543e-05 -0.748708 122 102 74 255 0.244701 0.378875 
0.015152 0.082413 -0.027347 0.331416 -4.73528e-05 -0.943485 122 102 74 255 0.244701 0.378875 
-0.015177 0.145405 -0.027347 -0.506906 -5.27287e-05 -0.862002 122 102 74 255 0.244701 0.378875 
-0.01517 0.082412 -0.027347 -0.5069 -5.63346e-05 -0.862005 122 102 74 255 0.244701 0.378875 
0.027664 0.145405 -0.004897 0.983221 7.33764e-05 0.182417 122 102 74 255 0.244701 0.378875 
0.027664 0.093807 -0.004897 0.983169 -4.68181e-05 -0.182698 122 102 74 255 0.244701 0.378875 
-0.026839 0.466785 0.026335 -0.776492 -0.217079 0.591555 97 95 95 255 0.286536 0.306458 
-0.020311 0.494923 0.018736 -0.669357 0.334451 0.663403 97 95 95 255 0.286536 0.306458 
-0.026839 0.466785 -0.03613 -0.541317 -0.291285 -0.788752 97 95 95 255 0.286536 0.306458 
-0.023256 0.495482 -0.031976 -0.71176 0.186492 -0.677214 120 120 119 255 0.286735 0.327577 
0 0.582419 -0.004897 -0.536037 0.818379 0.207172 120 120 119 255 0.286735 0.327577 
0.020701 0.493142 0.019215 0.832391 0.277177 0.479895 120 120 119 255 0.286735 0.327577 
0.019176 0.519798 -0.027227 0.421626 0.322437 -0.847506 120 120 119 255 0.286735 0.327577 
0.022972 0.493483 -0.031646 0.330361 0.186276 -0.925291 120 120 119 255 0.286735 0.327577 
0.026821 0.466785 0.026335 0.548121 -0.267096 0.792605 97 95 95 255 0.286536 0.306458 
-0.026839 0.408031 -0.03613 -0.548224 -0.0252124 -0.835952 79 79 78 255 0.296299 0.328975 
-0.039593 0.408031 -0.004971 -0.968123 0.250476 -0.000513044 79 79 78 255 0.296299 0.328975 
-0.016408 0.444911 -0.023981 -0.532631 0.47304 -0.70181 79 79 78 255 0.296299 0.328975 
-0.016408 0.444911 -0.004897 -0.846603 0.532225 0 79 79 78 255 0.296299 0.328975 
0.026821 0.390949 0.026335 0.630245 -0.114284 0.767939 79 79 78 255 0.296299 0.328975 
0.020098 0.431553 0.018507 0.560463 0.395619 0.727576 79 79 78 255 0.296299 0.328975 
-0.003832 0.408031 0.026335 -0.00345241 0.0430466 0.999067 79 79 78 255 0.296299 0.328975 
0.016391 0.444911 -0.023981 0.812219 0.463069 -0.354779 79 79 78 255 0.296299 0.328975 
0.026821 0.408031 -0.03613 0.561782 0.080084 -0.8234 79 79 78 255 0.296299 0.328975 
0.0193 0.369713 -0.029592 0.460724 -0.0736016 -0.884486 79 79 78 255 0.296299 0.328975 
-0.0193 0.369712 -0.029592 -0.642958 -0.0709433 -0.762609 79 79 78 255 0.296299 0.328975 
-0.030422 0.369713 -0.004897 -0.988159 -0.15343 -0.000258382 79 79 78 255 0.296299 0.328975 
-0.016408 0.444911 0.014186 -0.373637 -0.580153 0.723753 97 95 95 255 0.286536 0.306458 
0.016391 0.444911 0.014186 0.747291 -0.557315 0.361878 97 95 95 255 0.286536 0.306458 
0.026821 0.466785 -0.03613 0.884154 -0.192212 -0.425824 97 95 95 255 0.286536 0.306458 
-0.033321 -0.133708 -0.004822 -0.932137 -0.357364 0.0584096 112 50 44 255 0.265622 0.353182 
-0.018266 -0.126774 0.022146 -0.467292 -0.232579 0.852963 112 50 44 255 0.265622 0.353182 
-0.033321 -0.087492 -0.004822 -0.895034 0.441414 -0.0637804 112 50 44 255 0.265622 0.353188 
-0.018266 -0.080737 0.022146 -0.460506 0.567041 0.682934 112 50 44 255 0.265622 0.353188 
0.018257 -0.080727 0.022146 0.47502 0.440809 0.761606 112 50 44 255 0.265622 0.353188 
0.018257 -0.126774 0.022146 0.465597 -0.342158 0.816179 112 50 44 255 0.265622 0.353182 
0.033321 -0.087492 -0.004833 0.894961 0.441545 -0.0638878 112 50 44 255 0.265622 0.353188 
0.033321 -0.133708 -0.004833 0.932159 -0.357325 0.058296 112 50 44 255 0.265622 0.353182 
0.018257 -0.094295 -0.031939 0.451827 0.424042 -0.784883 112 50 44 255 0.265622 0.353188 
0.018257 -0.140671 -0.031939 0.497101 -0.354228 -0.792094 112 50 44 255 0.265622 0.353182 
-0.018266 -0.094295 -0.031939 -0.454218 0.287921 -0.843082 112 50 44 255 0.265622 0.353188 
-0.018266 -0.140671 -0.031939 -0.487524 -0.460192 -0.741986 112 50 44 255 0.265622 0.353182 
-0.022487 -0.782732 -0.023339 -0.572748 0.00395227 -0.819722 122 102 74 255 0.244701 0.378874 
-0.009887 -0.276508 -0.029702 -0.412493 0.00161469 -0.910959 122 102 74 255 0.244701 0.378874 
0.007453 -0.797212 -0.027003 0.231159 -0.0104419 -0.97286 122 102 74 255 0.244701 0.378874 
0.020339 -0.276508 -0.02722 0.600947 0.00263494 -0.799284 122 102 74 255 0.244701 0.378874 
-0.013552 -0.265145 0.015066 -0.457702 -0.0185659 0.888912 122 102 74 255 0.244701 0.378874 
-0.024179 -0.270819 -0.008328 -0.999705 -0.00907223 -0.0225453 122 102 74 255 0.244701 0.378874 
-0.015342 -0.653303 0.011042 -0.605598 0.00153057 0.795769 122 102 74 255 0.244701 0.378874 
-0.031251 -0.757571 -0.005498 -0.988738 0.0159278 -0.148807 122 102 74 255 0.244701 0.378874 
0.014602 -0.667785 0.007373 0.490745 -0.0213609 0.871041 122 102 74 255 0.244701 0.378874 
0.016678 -0.265144 0.017538 0.551946 -0.0019636 0.833878 122 102 74 255 0.244701 0.378874 
0.030971 -0.270819 -0.003826 0.998361 0.00642107 0.0568771 122 102 74 255 0.244701 0.378874 
0.023368 -0.78399 -0.012194 0.968867 -0.0177968 -0.246941 122 102 74 255 0.244701 0.378874 
-0.027664 -0.0557 -0.004897 -0.983225 0 -0.182397 86 40 35 255 0.26546 0.332783 
-0.027664 -0.0826 -0.004897 -0.983225 0 0.182397 86 40 35 255 0.26546 0.332783 
-0.01517 -0.064365 0.017553 -0.663131 0 0.748503 86 40 35 255 0.26546 0.332783 
-0.01517 -0.075816 0.017553 -0.331566 0 0.943432 86 40 35 255 0.26546 0.332783 
0.015161 -0.047034 -0.027347 0.506676 0 -0.862136 86 40 35 255 0.26546 0.332783 
0.015161 -0.089374 -0.027347 0.506676 0 -0.862136 86 40 35 255 0.26546 0.332783 
-0.01517 -0.047034 -0.027347 -0.331566 0 -0.943432 86 40 35 255 0.26546 0.332783 
-0.01517 -0.089374 -0.027347 -0.663131 0 -0.748503 86 40 35 255 0.26546 0.332783 
0.027664 -0.0557 -0.004897 0.983202 0 -0.182524 86 40 35 255 0.26546 0.332783 
0.027664 -0.0826 -0.004897 0.983202 0 0.182524 86 40 35 255 0.26546 0.332783 
0.015161 -0.064365 0.017553 0.506676 0 0.862136 86 40 35 255 0.26546 0.332783 
0.015161 -0.075816 0.017553 0.506676 0 0.862136 86 40 35 255 0.26546 0.332783 
-0.033321 -0.007404 -0.004822 -0.927721 0.364617 0.0799237 112 50 44 255 0.265622 0.353188 
-0.033321 -0.049612 -0.004822 -0.918496 -0.387075 -0.0808644 112 50 44 255 0.265622 0.353188 
-0.018266 -0.016201 0.022146 -0.457702 0.348047 0.818152 112 50 44 255 0.265622 0.353188 
-0.018266 -0.058259 0.022145 -0.500206 -0.385937 0.775143 112 50 44 255 0.265622 0.353188 
0.018257 0.00145 -0.031939 0.495536 0.470276 -0.730263 112 50 44 255 0.265622 0.353188 
0.018257 -0.040928 -0.031939 0.456455 -0.251689 -0.853406 112 50 44 255 0.265622 0.353188 
-0.018266 0.00145 -0.031939 -0.506383 0.361963 -0.782662 112 50 44 255 0.265622 0.353188 
-0.018266 -0.040928 -0.031939 -0.45484 -0.369948 -0.810098 112 50 44 255 0.265622 0.353188 
0.033321 -0.007395 -0.004833 0.927668 0.364767 0.0798596 112 50 44 255 0.265622 0.353188 
0.033321 -0.049612 -0.004833 0.918437 -0.387197 -0.0809412 112 50 44 255 0.265622 0.353188 
0.018257 -0.016201 0.022146 0.459289 0.236892 0.856117 112 50 44 255 0.265622 0.353188 
0.018257 -0.058259 0.022146 0.488165 -0.499733 0.715515 112 50 44 255 0.265622 0.353188 
-0.027664 -0.000715 -0.004897 -0.983225 0 -0.182397 86 40 35 255 0.26546 0.332783 
-0.01517 -0.00954 0.017553 -0.506808 0 0.862059 86 40 35 255 0.26546 0.332783 
-0.027664 0.031615 -0.004897 -0.983225 0 0.182397 86 40 35 255 0.26546 0.332783 
-0.01517 0.043036 0.017553 -0.506808 0 0.862059 86 40 35 255 0.26546 0.332783 
0.015161 0.020192 -0.027347 0.662967 0 -0.748649 86 40 35 255 0.26546 0.332783 
0.015161 0.008111 -0.027347 0.331484 0 -0.943461 86 40 35 255 0.26546 0.332783 
-0.01517 0.020192 -0.027347 -0.506808 0 -0.862059 86 40 35 255 0.26546 0.332783 
-0.01517 0.008111 -0.027347 -0.506808 0 -0.862059 86 40 35 255 0.26546 0.332783 
0.027664 0.031615 -0.004897 0.983202 0 0.182524 86 40 35 255 0.26546 0.332783 
0.027664 -0.000714 -0.004897 0.983202 0 -0.182524 86 40 35 255 0.26546 0.332783 
0.015161 0.043046 0.017553 0.331484 0 0.943461 86 40 35 255 0.26546 0.332783 
0.015161 -0.00954 0.017553 0.662967 0 0.748649 86 40 35 255 0.26546 0.332783 
-0.033321 0.038276 -0.004822 -0.92348 -0.36779 0.109159 112 50 44 255 0.265622 0.353188 
-0.018266 0.04967 0.022146 -0.449126 -0.238042 0.861175 112 50 44 255 0.265622 0.353188 
-0.033314 0.086789 -0.004822 -0.93016 0.352187 -0.103767 112 50 44 255 0.265622 0.353188 
-0.018266 0.098154 0.022146 -0.510294 0.45613 0.729072 112 50 44 255 0.265622 0.353188 
0.018257 0.075366 -0.031939 0.451798 0.334539 -0.82702 112 50 44 255 0.265622 0.353188 
0.018257 0.026816 -0.031939 0.519483 -0.366293 -0.771989 112 50 44 255 0.265622 0.353188 
-0.018266 0.075366 -0.031939 -0.453584 0.22806 -0.861539 112 50 44 255 0.265622 0.353188 
-0.018266 0.026816 -0.031939 -0.508142 -0.475778 -0.717933 112 50 44 255 0.265622 0.353188 
0.033321 0.086788 -0.004833 0.930061 0.352411 -0.103891 112 50 44 255 0.265622 0.353188 
0.033321 0.038267 -0.004833 0.923348 -0.368136 0.109105 112 50 44 255 0.265622 0.353188 
0.018257 0.098154 0.022146 0.520786 0.3507 0.778326 112 50 44 255 0.265622 0.353188 
0.018257 0.04967 0.022146 0.447428 -0.349536 0.823185 112 50 44 255 0.265622 0.353188 
-0.027664 -0.14053 -0.004897 -0.788952 -0.614454 0.000509173 112 50 44 255 0.265622 0.353182 
-0.01517 -0.133586 0.017553 -0.337037 -0.608619 0.718324 112 50 44 255 0.265622 0.353182 
0.015161 -0.133586 0.017553 0.446074 -0.607396 0.657334 112 50 44 255 0.265622 0.353182 
0.027664 -0.14053 -0.004897 0.788996 -0.614399 0.000459341 112 50 44 255 0.265622 0.353182 
0.015161 -0.147483 -0.027347 0.297152 -0.622888 -0.723679 112 50 44 255 0.265622 0.353182 
-0.01517 -0.147483 -0.027347 -0.453366 -0.630651 -0.629873 112 50 44 255 0.265622 0.353182 
-0.016905 0.52726 -0.007233 -0.943035 0.254871 -0.213838 120 120 119 255 0.286735 0.327577 
-0.013872 0.53714 -0.021042 -0.680913 -0.0201333 -0.732087 120 120 119 255 0.286735 0.327577 
-0.026839 0.408031 0.026335 -0.655704 0.0116875 0.754927 79 79 78 255 0.296299 0.328975 
-0.0193 0.369712 0.019799 -0.460688 -0.0736386 0.884502 79 79 78 255 0.296299 0.328975 
0.0193 0.369713 0.019799 0.513299 -0.14551 0.845784 79 79 78 255 0.296299 0.328975 
0.039576 0.408031 -0.001022 0.984451 0.165455 0.0590072 79 79 78 255 0.296299 0.328975 
0.030422 0.369713 -0.004897 0.982796 -0.184078 -0.0150695 79 79 78 255 0.296299 0.328975 
-0.020967 0.513994 -0.029295 -0.594437 0.424899 -0.68272 120 120 119 255 0.286735 0.327577 
-0.024027 0.192337 -0.035656 -0.251282 0.722919 -0.643619 79 79 78 255 0.296299 0.328975 
0.024027 0.192337 -0.035656 0.350364 0.755211 -0.553986 79 79 78 255 0.296299 0.328975 
-0.037899 0.195874 -0.004897 -0.89675 0.442538 -3.0231e-06 79 79 78 255 0.296299 0.328975 
-0.024027 0.192337 0.025862 -0.350345 0.75518 0.554041 79 79 78 255 0.296299 0.328975 
0.024027 0.192337 0.025862 0.251296 0.722943 0.643587 79 79 78 255 0.296299 0.328975 
0.03789 0.195874 -0.004897 0.896738 0.442562 -3.02318e-06 79 79 78 255 0.296299 0.328975 
0.012382 0.377891 0.138005 0.99513 0.0404053 0.0899081 97 95 95 255 0.285936 0.306458 
0.012382 0.336813 0.146199 0.998787 0.0097167 0.0482777 97 95 95 255 0.285936 0.306458 
0.012382 0.358841 0.078809 1 3.21271e-05 7.02995e-06 97 95 95 255 0.285936 0.306458 
0.012382 0.312286 0.088091 1 -3.72181e-05 -4.64286e-05 97 95 95 255 0.285936 0.306458 
0.012391 0.310717 0.151402 1 6.94106e-05 -0.00014044 97 95 95 255 0.285936 0.306458 
-0.012399 0.398849 0.049171 -0.903015 0.401979 -0.151579 97 95 95 255 0.285936 0.306458 
-0.012399 0.435606 0.095251 -0.447214 0.699222 -0.557754 97 95 95 255 0.285936 0.306458 
0.012382 0.398849 0.049171 0.724457 0.644987 -0.243214 97 95 95 255 0.285936 0.306458 
0.012382 0.435606 0.095251 0.707107 0.552783 -0.440943 97 95 95 255 0.285936 0.306458 
-0.012399 0.310717 0.151402 -0.995291 -0.010758 0.0963324 97 95 95 255 0.285936 0.306458 
-0.012399 0.350316 0.143506 -0.998775 0.00967462 0.048519 97 95 95 255 0.285936 0.306458 
-0.012399 0.312286 0.088091 -1 0 0 97 95 95 255 0.285936 0.306458 
-0.012399 0.358841 0.078809 -1 0 0 97 95 95 255 0.285936 0.306458 
-0.012399 0.377891 0.138005 -1 0 0 97 95 95 255 0.285936 0.306458 
0.012382 0.227803 0.043248 0.846364 -0.491466 -0.205253 97 95 95 255 0.285936 0.306458 
0.012391 0.188827 0.086703 0.824089 -0.490794 -0.282841 97 95 95 255 0.285936 0.306458 
-0.012399 0.227803 0.043248 -0.621983 -0.722597 -0.301647 97 95 95 255 0.285936 0.306458 
-0.012399 0.188827 0.086703 -0.707063 -0.526424 -0.472165 97 95 95 255 0.285936 0.306458 
0.012382 0.269639 0.140249 0.998775 -0.012883 0.0477758 97 95 95 255 0.285936 0.306458 
0.012373 0.266274 0.075601 1 9.86617e-05 -3.58328e-06 97 95 95 255 0.285936 0.306458 
0.012391 0.244327 0.133385 0.994927 -0.0533861 0.0852621 97 95 95 255 0.285936 0.306458 
0.012391 0.307946 -0.095119 0.862719 -0.331468 -0.381896 97 95 95 255 0.285936 0.306458 
0.012391 0.242771 -0.080629 0.662438 -0.525295 -0.53408 97 95 95 255 0.285936 0.306458 
-0.012399 0.307946 -0.095119 -0.648936 -0.498834 -0.574497 97 95 95 255 0.285936 0.306458 
-0.012408 0.242771 -0.080629 -0.870603 -0.345004 -0.350746 97 95 95 255 0.285936 0.306458 
-0.012408 0.244327 0.133385 -0.998776 -0.0129045 0.0477555 97 95 95 255 0.285936 0.306458 
-0.012399 0.266274 0.075601 -1 3.72138e-05 -3.0368e-05 97 95 95 255 0.285936 0.306458 
0.012382 0.40855 0.115294 0.998668 0.0307103 0.0414577 97 95 95 255 0.285936 0.306458 
0.005789 0.43951 0.158835 0.894305 0.276928 0.351467 120 120 119 255 0.285634 0.327596 
-0.012399 0.407668 0.115948 -1 0 0 97 95 95 255 0.285936 0.306458 
-0.008506 0.283668 0.164102 -0.980265 -0.0514659 0.190872 97 95 95 255 0.285936 0.306458 
-0.009694 0.31038 0.165184 -0.981288 -0.00639696 0.192441 97 95 95 255 0.285936 0.306458 
0 0.484639 0.108686 7.37344e-05 0.674911 -0.737899 120 120 119 255 0.285634 0.327596 
0 0.462289 0.157794 0.0547208 0.598574 0.799196 120 120 119 255 0.285634 0.327596 
-0.005328 0.442162 0.159658 -0.844692 0.317418 0.430977 120 120 119 255 0.285634 0.327596 
-0.009189 0.3985 0.141255 -0.97964 0.0497933 0.194487 120 120 119 255 0.285634 0.327596 
0 0.396933 0.197209 -0.034738 0.341316 0.939306 120 120 119 255 0.285634 0.327596 
0 0.437559 0.175293 -0.443986 0.678377 0.585389 120 120 119 255 0.285634 0.327596 
0.007521 0.385368 0.161269 0.980549 0.0804559 0.179027 97 95 95 255 0.285936 0.306458 
0.007619 0.235884 0.155624 0.980169 -0.0927884 0.175096 97 95 95 255 0.285936 0.306458 
0.004914 0.264046 0.177155 0.910032 -0.0780476 0.407125 120 120 119 255 0.285634 0.327596 
0.007681 0.19196 0.117794 0.977217 -0.137275 0.161873 97 95 95 255 0.285936 0.306458 
0.009978 0.224174 0.131246 0.977816 -0.135097 0.160076 97 95 95 255 0.285936 0.306458 
-9e-06 0.142042 0.080701 0.742186 -0.504815 -0.440819 120 120 119 255 0.285634 0.327596 
-1.8e-05 0.178543 0.153951 0.00184335 -0.69399 0.719983 120 120 119 255 0.285634 0.327596 
-0.004364 0.264851 0.18031 -0.873923 -0.117386 0.471676 120 120 119 255 0.285634 0.327596 
-9e-06 0.246597 0.19773 0.699397 0.232619 0.67582 120 120 119 255 0.285634 0.327596 
-9e-06 0.281041 0.207079 -0.433775 -0.548186 0.715074 120 120 119 255 0.285634 0.327596 
-9e-06 0.30915 0.214711 -0.0001054 0.0437004 0.999045 120 120 119 255 0.285634 0.327596 
0.012391 0.307824 -0.053836 1 3.15137e-05 3.66765e-05 97 95 95 255 0.285936 0.306458 
0.012382 0.349224 -0.069046 1 9.80432e-05 -1.05436e-05 97 95 95 255 0.285936 0.306458 
0.012382 0.329493 -0.152457 0.817177 -0.569687 -0.0876268 97 95 95 255 0.285936 0.306458 
-0.012399 0.307824 -0.053836 -1 1.6799e-05 5.51894e-05 97 95 95 255 0.285936 0.306458 
-0.012399 0.349224 -0.069046 -1 0 0 97 95 95 255 0.285936 0.306458 
-0.012399 0.329493 -0.152457 -0.892618 -0.449755 -0.0308903 97 95 95 255 0.285936 0.306458 
0.012391 0.245173 -0.057179 1 3.8959e-05 6.15888e-05 97 95 95 255 0.285936 0.306458 
-0.012399 0.245173 -0.057179 -1 0.00011874 0.000179741 97 95 95 255 0.285936 0.306458 
0.012391 0.232696 -0.038614 0.708357 -0.700936 -0.0831816 97 95 95 255 0.285936 0.306458 
-0.012399 0.232696 -0.038614 -0.708383 -0.694827 -0.124133 97 95 95 255 0.285936 0.306458 
0.012382 0.393335 -0.065934 0.894427 0.446701 -0.0213988 97 95 95 255 0.285936 0.306458 
0.012382 0.394018 -0.129392 1 0 0 97 95 95 255 0.285936 0.306458 
-0.012399 0.393335 -0.065934 -0.707107 0.706297 -0.0338345 97 95 95 255 0.285936 0.306458 
-0.012399 0.394018 -0.129392 -1 0 0 97 95 95 255 0.285936 0.306458 
-0.012399 0.352715 -0.185065 -1 -7.7994e-05 -5.55439e-05 97 95 95 255 0.285936 0.306458 
-0.012391 0.33989 -0.239072 -0.959762 -0.278802 -0.0335553 97 95 95 255 0.285936 0.306458 
0.012382 0.33989 -0.239072 0.959757 -0.27883 -0.0334699 97 95 95 255 0.285936 0.306458 
0.012382 0.352715 -0.185065 1 0 0 97 95 95 255 0.285936 0.306458 
-9e-06 0.316207 -0.204221 -5.3844e-05 -0.998271 0.0587832 97 95 95 255 0.285936 0.306458 
-9e-06 0.342793 -0.30155 -0.000302614 -0.288642 -0.957437 120 120 119 255 0.286185 0.327567 
0 0.366296 -0.20678 0.000210171 0.912885 -0.408216 120 120 119 255 0.286185 0.327567 
0 0.416278 -0.084121 0.000209385 0.954811 0.297213 120 120 119 255 0.286185 0.327567 
0 0.416278 -0.144055 0.000294626 0.951715 -0.306985 120 120 119 255 0.286185 0.327567 
-0.041722 0.371857 -0.004897 -0.439418 0.898283 6.81802e-09 79 79 78 255 0.296299 0.328975 
-0.041722 0.291857 -0.004897 -0.890453 -0.455076 1.03622e-08 79 79 78 255 0.296299 0.328975 
-0.02189 0.358573 0.063437 -0.549776 0.280971 0.786639 79 79 78 255 0.296299 0.328975 
-0.02189 0.305141 0.063437 -0.349901 -0.715277 0.604937 79 79 78 255 0.296299 0.328975 
0.041704 0.371857 -0.004897 0.890401 0.455178 -2.07233e-08 79 79 78 255 0.296299 0.328975 
0.021872 0.358573 0.063437 0.349878 0.715306 0.604915 79 79 78 255 0.296299 0.328975 
0.041713 0.291856 -0.004897 0.439436 -0.898274 -1.36367e-08 79 79 78 255 0.296299 0.328975 
0.021881 0.305141 0.063437 0.549785 -0.280898 0.786659 79 79 78 255 0.296299 0.328975 
0.021881 0.305141 -0.073231 0.691791 -0.353452 -0.62968 79 79 78 255 0.296299 0.328975 
-0.02189 0.305141 -0.073231 -0.278937 -0.570211 -0.772692 79 79 78 255 0.296299 0.328975 
0.021872 0.358573 -0.073231 0.278923 0.570243 -0.772674 79 79 78 255 0.296299 0.328975 
-0.02189 0.358573 -0.073231 -0.691771 0.35354 -0.629652 79 79 78 255 0.296299 0.328975 
-0.025413 -0.836935 -0.004952 -0.182164 -0.204837 0.961695 92 78 58 255 0.243593 0.351077 
0.017533 -0.864865 -0.010214 0.101033 -0.328082 0.939231 92 78 58 255 0.243593 0.351077 
0.01064 -0.74202 0.005155 0.361075 -0.0812356 0.928992 92 78 58 255 0.243593 0.351077 
-0.012905 -0.72671 0.008053 -0.178059 -0.0593236 0.98223 92 78 58 255 0.243593 0.351077 
-0.018524 -0.863534 -0.01898 -0.222057 -0.499127 0.837594 92 78 58 255 0.243593 0.351077 
0.005017 -0.878842 -0.021859 0.315551 -0.0690546 -0.946392 122 102 74 255 0.243121 0.377966 
-0.026839 0.466785 -0.03613 -0.711682 0.186884 -0.677188 120 120 119 255 0.286735 0.327577 
-0.020311 0.494923 0.018736 -0.919161 0.220321 0.326499 120 120 119 255 0.286735 0.327577 
0.020701 0.493142 0.019215 0.67202 0.302078 0.67612 97 95 95 255 0.286536 0.306458 
-0.016408 0.444911 -0.023981 -0.747274 -0.557339 -0.361876 97 95 95 255 0.286536 0.306458 
-0.016408 0.444911 -0.004897 -0.902623 -0.430431 0 97 95 95 255 0.286536 0.306458 
0.016391 0.444911 -0.023981 0.373646 -0.580142 -0.723757 97 95 95 255 0.286536 0.306458 
-0.01517 -0.075816 0.017553 -0.407554 0.74685 0.525466 112 50 44 255 0.265622 0.353188 
-0.027664 -0.0826 -0.004897 -0.686935 0.725252 -0.0461404 112 50 44 255 0.265622 0.353188 
0.015161 -0.075816 0.017553 0.267666 0.742506 0.614035 112 50 44 255 0.265622 0.353188 
0.027664 -0.0826 -0.004897 0.686567 0.725594 -0.0462384 112 50 44 255 0.265622 0.353188 
0.015161 -0.089374 -0.027347 0.367636 0.718312 -0.590654 112 50 44 255 0.265622 0.353188 
-0.01517 -0.089374 -0.027347 -0.277294 0.719775 -0.636422 112 50 44 255 0.265622 0.353188 
-0.027664 -0.0557 -0.004897 -0.761607 -0.645821 -0.0535643 112 50 44 255 0.265622 0.353188 
-0.01517 -0.064365 0.017553 -0.297898 -0.66566 0.684217 112 50 44 255 0.265622 0.353188 
-0.027664 -0.000715 -0.004897 -0.787211 0.615304 0.0412223 112 50 44 255 0.265622 0.353188 
-0.01517 -0.00954 0.017553 -0.422384 0.609364 0.67102 112 50 44 255 0.265622 0.353188 
0.015161 -0.047034 -0.027347 0.304864 -0.640553 -0.704805 112 50 44 255 0.265622 0.353188 
-0.01517 -0.047034 -0.027347 -0.404454 -0.638693 -0.65459 112 50 44 255 0.265622 0.353188 
-0.01517 0.008111 -0.027347 -0.305208 0.63258 -0.711823 112 50 44 255 0.265622 0.353188 
0.015161 0.008111 -0.027347 0.466058 0.638699 -0.612252 112 50 44 255 0.265622 0.353188 
0.027664 -0.000714 -0.004897 0.787039 0.615526 0.0412012 112 50 44 255 0.265622 0.353188 
0.027664 -0.0557 -0.004897 0.761459 -0.646007 -0.0534351 112 50 44 255 0.265622 0.353188 
0.015161 -0.064365 0.017553 0.45452 -0.67106 0.585739 112 50 44 255 0.265622 0.353188 
0.015161 -0.00954 0.017553 0.318835 0.610515 0.724994 112 50 44 255 0.265622 0.353188 
-0.027664 0.031615 -0.004897 -0.789362 -0.60686 0.0928862 112 50 44 255 0.265622 0.353188 
-0.01517 0.043036 0.017553 -0.298002 -0.604119 0.739077 112 50 44 255 0.265622 0.353188 
-0.01517 0.105211 0.017553 -0.491761 0.616164 0.615234 112 50 44 255 0.265622 0.353188 
-0.027659 0.093807 -0.004897 -0.80615 0.586145 -0.0809691 112 50 44 255 0.265622 0.353188 
0.015161 0.020192 -0.027347 0.317226 -0.635964 -0.703504 112 50 44 255 0.265622 0.353188 
-0.01517 0.020192 -0.027347 -0.48565 -0.639866 -0.595579 112 50 44 255 0.265622 0.353188 
-0.01517 0.082412 -0.027347 -0.311816 0.581906 -0.751103 112 50 44 255 0.265622 0.353188 
0.015152 0.082413 -0.027347 0.412692 0.580219 -0.702162 112 50 44 255 0.265622 0.353188 
0.027664 0.093807 -0.004897 0.806142 0.586183 -0.080772 112 50 44 255 0.265622 0.353188 
0.027664 0.031615 -0.004897 0.78919 -0.607075 0.092943 112 50 44 255 0.265622 0.353188 
0.015161 0.043046 0.017553 0.39506 -0.602645 0.693359 112 50 44 255 0.265622 0.353188 
0.01517 0.105211 0.017553 0.32122 0.61127 0.723302 112 50 44 255 0.265622 0.353188 
0.022972 0.493483 -0.031646 0.707759 0.215056 -0.672925 97 95 95 255 0.286536 0.306458 
-0.016408 0.444911 0.014186 -0.420357 0.449549 0.788166 79 79 78 255 0.296299 0.328975 
0.016391 0.444911 0.014186 0.654939 0.390945 0.646698 79 79 78 255 0.296299 0.328975 
0.015161 -0.133586 0.017553 0.304637 -0.00380906 0.952461 122 102 74 255 0.244701 0.378874 
-0.01517 -0.133586 0.017553 -0.504344 -0.0225209 0.863209 122 102 74 255 0.244701 0.378874 
-0.027664 -0.14053 -0.004897 -0.98696 -0.0245494 0.159084 122 102 74 255 0.244701 0.378874 
-0.01517 -0.147483 -0.027347 -0.643156 -0.00621185 -0.76571 122 102 74 255 0.244701 0.378874 
0.015161 -0.147483 -0.027347 0.538589 0.0216062 -0.842292 122 102 74 255 0.244701 0.378874 
0.027664 -0.14053 -0.004897 0.978239 0.0204022 0.206474 122 102 74 255 0.244701 0.378874 
0.015161 0.145405 -0.027347 0.0838217 -0.964123 -0.251874 79 79 78 255 0.296299 0.328975 
-0.015177 0.145405 -0.027347 -0.126011 -0.966367 -0.224181 79 79 78 255 0.296299 0.328975 
-0.015177 0.145405 0.017553 -0.0838978 -0.964124 0.251846 79 79 78 255 0.296299 0.328975 
-0.027664 0.145405 -0.004897 -0.251478 -0.967863 -1.94474e-06 79 79 78 255 0.296299 0.328975 
0.015161 0.145405 0.017553 0.125889 -0.96638 0.22419 79 79 78 255 0.296299 0.328975 
0.027664 0.145405 -0.004897 0.251363 -0.967893 -1.95604e-06 79 79 78 255 0.296299 0.328975 
0.012382 0.40855 0.115294 0.992284 0.0551123 0.111064 120 120 119 255 0.285634 0.327596 
0.012382 0.435606 0.095251 0.940849 0.258408 -0.219156 120 120 119 255 0.285634 0.327596 
-0.012399 0.435606 0.095251 -0.93933 0.263196 -0.219971 120 120 119 255 0.285634 0.327596 
-0.012399 0.407668 0.115948 -0.991512 0.0525529 0.118925 120 120 119 255 0.285634 0.327596 
-0.012399 0.377891 0.138005 -0.98042 0.0825754 0.178769 120 120 119 255 0.285634 0.327596 
0.007521 0.385368 0.161269 0.984742 0.0385528 0.169696 120 120 119 255 0.285634 0.327596 
0.007619 0.235884 0.155624 0.977751 -0.0933956 0.187829 120 120 119 255 0.285634 0.327596 
0.012382 0.269639 0.140249 0.980317 -0.0517332 0.190529 120 120 119 255 0.285634 0.327596 
-0.012399 0.188827 0.086703 -0.932039 -0.133583 -0.336837 120 120 119 255 0.285634 0.327596 
0.012391 0.188827 0.086703 0.750468 -0.115422 -0.65075 120 120 119 255 0.285634 0.327596 
-0.012408 0.244327 0.133385 -0.976826 -0.100377 0.189036 120 120 119 255 0.285634 0.327596 
-0.009694 0.31038 0.165184 -0.981267 -0.0216339 0.191435 120 120 119 255 0.285634 0.327596 
-0.008506 0.283668 0.164102 -0.980306 -0.0514924 0.190653 120 120 119 255 0.285634 0.327596 
-0.012399 0.350316 0.143506 -0.980477 0.0384113 0.192847 120 120 119 255 0.285634 0.327596 
-0.012399 0.377891 0.138005 -0.977509 0.12553 0.169465 97 95 95 255 0.285936 0.306764 
-0.009189 0.3985 0.141255 -0.977509 0.12553 0.169465 97 95 95 255 0.285936 0.306764 
-0.012399 0.407668 0.115948 -0.977509 0.12553 0.169465 97 95 95 255 0.285936 0.306764 
0.012382 0.336813 0.146199 0.980466 0.0384871 0.192886 120 120 119 255 0.285634 0.327596 
0.012391 0.310717 0.151402 0.981082 -0.0292027 0.191376 120 120 119 255 0.285634 0.327596 
0.007681 0.19196 0.117794 0.965083 -0.215318 0.149171 120 120 119 255 0.285634 0.327596 
0.009978 0.224174 0.131246 0.978017 -0.135293 0.158675 120 120 119 255 0.285634 0.327596 
0.012382 0.33989 -0.239072 0.966613 0.182732 -0.179633 120 120 119 255 0.286185 0.327567 
-9e-06 0.316207 -0.204221 -0.000180724 -0.964659 -0.263502 120 120 119 255 0.286185 0.327567 
-0.012391 0.33989 -0.239072 -0.966555 0.183038 -0.179637 120 120 119 255 0.286185 0.327567 
0.012382 0.352715 -0.185065 0.863401 0.461605 -0.203618 120 120 119 255 0.286185 0.327567 
-0.012399 0.352715 -0.185065 -0.863121 0.462013 -0.203879 120 120 119 255 0.286185 0.327567 
-0.012399 0.393335 -0.065934 -0.544247 0.681712 0.488942 120 120 119 255 0.286185 0.327567 
0.012382 0.393335 -0.065934 0.544484 0.681481 0.488999 120 120 119 255 0.286185 0.327567 
0.012382 0.394018 -0.129392 0.896933 0.421123 -0.134783 120 120 119 255 0.286185 0.327567 
-0.012399 0.394018 -0.129392 -0.896693 0.421586 -0.134935 120 120 119 255 0.286185 0.327567 
0.023368 -0.78399 -0.012194 0.74498 -0.0490787 0.665279 92 78 58 255 0.243593 0.351077 
0.014602 -0.667785 0.007373 0.330198 -0.0464206 0.94277 92 78 58 255 0.243593 0.351077 
-0.031251 -0.757571 -0.005498 -0.545076 -0.0436032 0.837252 92 78 58 255 0.243593 0.351077 
-0.015342 -0.653303 0.011042 -0.228293 -0.0471753 0.972449 92 78 58 255 0.243593 0.351077 
0.007453 -0.797212 -0.027003 0.314628 -0.0706905 -0.946579 122 102 74 255 0.243121 0.377966 
-0.018524 -0.863534 -0.01898 -0.473509 -0.0692569 -0.878062 122 102 74 255 0.243121 0.377966 
-0.022487 -0.782732 -0.023339 -0.766116 -0.0742927 -0.638394 122 102 74 255 0.243121 0.377966 
0.017533 -0.864865 -0.010214 0.713611 -0.0667335 -0.697357 122 102 74 255 0.243121 0.377966 
-0.025413 -0.836935 -0.004952 -0.934977 -0.0676449 -0.348197 122 102 74 255 0.243121 0.377966 
-0.031251 -0.757571 -0.005498 -0.931258 -0.0709618 -0.357383 122 102 74 255 0.243121 0.377966 
0.005017 -0.878842 -0.021859 -0.222066 -0.499035 0.837646 92 78 58 255 0.243593 0.351077 
0.023368 -0.78399 -0.012194 0.709465 -0.068359 -0.701418 122 102 74 255 0.243121 0.377966 
3 0 1 2
3 2 1 3
3 4 5 6
3 6 5 7
3 6 7 8
3 8 7 9
3 10 8 11
3 11 8 9
3 12 13 14
3 14 13 15
3 15 13 16
3 16 13 17
3 3 5 2
3 2 5 4
3 10 11 0
3 0 11 1
3 18 19 20
3 20 19 21
3 22 23 18
3 18 23 19
3 24 25 26
3 230 231 27
3 28 29 30
3 30 29 31
3 32 232 24
3 24 232 25
3 33 34 35
3 35 34 36
3 37 38 39
3 40 41 35
3 35 41 33
3 41 42 33
3 33 42 43
3 43 44 33
3 33 44 34
3 24 45 32
3 32 45 46
3 26 233 24
3 233 234 24
3 234 45 24
3 47 235 26
3 26 235 233
3 235 47 46
3 46 47 32
3 48 49 50
3 50 49 51
3 51 49 52
3 52 49 53
3 54 55 56
3 56 55 57
3 56 57 58
3 58 57 59
3 60 61 62
3 62 61 63
3 64 65 66
3 66 65 67
3 66 68 64
3 64 68 69
3 70 71 63
3 63 71 62
3 72 73 74
3 74 73 75
3 76 77 78
3 78 77 79
3 76 80 77
3 77 80 81
3 74 75 82
3 82 75 83
3 84 85 86
3 86 85 87
3 88 89 90
3 90 89 91
3 88 92 89
3 89 92 93
3 86 87 94
3 94 87 95
3 96 97 98
3 98 97 99
3 100 101 102
3 102 101 103
3 104 105 100
3 100 105 101
3 99 97 106
3 106 97 107
3 108 109 110
3 110 109 111
3 112 113 114
3 114 113 115
3 116 117 112
3 112 117 113
3 111 109 118
3 118 109 119
3 120 121 48
3 48 121 49
3 236 237 51
3 51 237 50
3 49 121 53
3 53 121 122
3 52 238 51
3 51 238 236
3 239 54 240
3 240 54 56
3 55 123 57
3 57 123 124
3 57 124 59
3 59 124 125
3 58 241 56
3 56 241 240
3 85 242 87
3 87 242 243
3 244 84 245
3 245 84 86
3 89 246 91
3 91 246 247
3 90 248 88
3 88 248 249
3 249 250 88
3 88 250 92
3 251 246 93
3 93 246 89
3 87 243 95
3 95 243 252
3 94 253 86
3 86 253 245
3 254 255 108
3 108 255 109
3 256 257 111
3 111 257 110
3 113 258 115
3 115 258 259
3 114 260 112
3 112 260 261
3 262 116 261
3 261 116 112
3 117 263 113
3 113 263 258
3 109 255 119
3 119 255 264
3 118 265 111
3 111 265 256
3 21 12 20
3 20 12 14
3 257 260 110
3 110 260 114
3 115 108 114
3 114 108 110
3 259 254 115
3 115 254 108
3 103 96 102
3 102 96 98
3 84 244 90
3 90 244 248
3 85 84 91
3 91 84 90
3 242 85 247
3 247 85 91
3 73 72 79
3 79 72 78
3 237 241 50
3 50 241 58
3 59 48 58
3 58 48 50
3 125 120 59
3 59 120 48
3 60 67 61
3 61 67 65
3 16 17 22
3 22 17 23
3 116 262 118
3 118 262 265
3 117 116 119
3 119 116 118
3 263 117 264
3 264 117 119
3 105 104 107
3 107 104 106
3 250 253 92
3 92 253 94
3 92 94 93
3 93 94 95
3 252 251 95
3 95 251 93
3 80 82 81
3 81 82 83
3 54 239 52
3 52 239 238
3 55 54 53
3 53 54 52
3 123 55 122
3 122 55 53
3 69 68 70
3 70 68 71
3 126 127 30
3 30 127 28
3 47 26 266
3 31 230 27
3 128 39 267
3 39 38 267
3 267 38 268
3 128 129 39
3 129 130 39
3 37 39 130
3 131 37 132
3 132 37 130
3 41 40 131
3 131 40 38
3 38 40 268
3 27 231 133
3 133 231 126
3 28 126 231
3 28 127 126
3 266 232 47
3 47 232 32
3 27 133 31
3 31 133 30
3 69 269 64
3 64 269 270
3 65 64 271
3 271 64 270
3 61 65 272
3 272 65 271
3 63 61 273
3 273 61 272
3 274 70 273
3 273 70 63
3 70 274 69
3 69 274 269
3 1 275 3
3 3 275 276
3 2 134 0
3 0 134 135
3 136 4 137
3 137 4 6
3 277 7 278
3 278 7 5
3 7 277 9
3 9 277 279
3 8 138 6
3 6 138 137
3 139 138 10
3 10 138 8
3 279 280 9
3 9 280 11
3 276 278 3
3 3 278 5
3 136 134 4
3 4 134 2
3 139 10 135
3 135 10 0
3 275 1 280
3 280 1 11
3 28 231 29
3 126 30 133
3 137 138 129
3 129 138 130
3 137 129 136
3 136 129 44
3 134 136 43
3 43 136 44
3 135 134 42
3 42 134 43
3 135 42 139
3 139 42 132
3 138 139 130
3 130 139 132
3 131 38 37
3 34 44 128
3 128 44 129
3 36 34 267
3 267 34 128
3 42 41 132
3 132 41 131
3 140 141 142
3 142 141 143
3 141 144 143
3 145 146 147
3 147 146 148
3 149 150 151
3 151 150 152
3 150 153 152
3 154 155 156
3 156 155 157
3 144 158 143
3 143 158 159
3 158 160 159
3 161 162 163
3 163 162 164
3 165 149 166
3 166 149 151
3 159 160 154
3 154 160 155
3 157 165 156
3 156 165 166
3 147 148 167
3 281 282 168
3 147 167 142
3 142 167 140
3 153 169 152
3 152 169 145
3 169 146 145
3 165 170 149
3 149 170 171
3 171 150 149
3 172 283 173
3 173 283 174
3 283 284 174
3 174 284 175
3 285 176 175
3 176 177 175
3 175 177 174
3 172 282 283
3 140 167 178
3 286 281 168
3 178 141 140
3 160 158 179
3 287 288 180
3 181 155 182
3 182 155 160
3 179 182 160
3 183 289 290
3 291 289 184
3 184 289 183
3 168 174 177
3 173 174 168
3 180 185 186
3 187 185 180
3 188 292 187
3 187 292 293
3 187 293 185
3 185 293 291
3 291 184 185
3 185 184 186
3 188 176 294
3 294 176 285
3 294 292 188
3 295 296 297
3 172 173 282
3 282 173 168
3 177 176 168
3 168 176 286
3 176 188 298
3 298 188 299
3 298 286 176
3 184 287 186
3 186 287 180
3 188 187 299
3 299 187 180
3 288 299 180
3 183 300 184
3 300 301 184
3 184 301 287
3 189 161 190
3 190 161 191
3 192 193 163
3 163 193 194
3 195 162 189
3 189 162 161
3 196 192 164
3 164 192 163
3 195 197 162
3 197 198 162
3 162 198 164
3 198 196 164
3 199 190 200
3 200 190 191
3 201 202 193
3 193 202 194
3 161 163 191
3 191 163 194
3 203 194 202
3 204 194 203
3 205 206 191
3 191 206 200
3 196 198 166
3 156 166 198
3 151 192 166
3 166 192 196
3 151 152 192
3 192 152 193
3 152 145 193
3 193 145 201
3 145 147 201
3 201 147 199
3 142 190 147
3 147 190 199
3 143 189 142
3 142 189 190
3 143 159 189
3 189 159 195
3 195 159 197
3 159 154 197
3 154 156 197
3 197 156 198
3 191 207 205
3 302 303 208
3 191 194 207
3 194 204 207
3 303 304 208
3 305 302 209
3 209 302 208
3 306 209 304
3 304 209 208
3 307 308 210
3 308 309 210
3 210 309 211
3 307 210 310
3 310 210 211
3 305 209 309
3 309 209 211
3 306 310 209
3 209 310 211
3 183 290 300
3 212 213 214
3 214 213 215
3 216 212 217
3 217 212 214
3 218 216 219
3 219 216 217
3 213 218 215
3 215 218 219
3 215 219 214
3 214 219 217
3 220 221 222
3 222 221 223
3 223 212 222
3 222 212 216
3 221 213 223
3 223 213 212
3 220 218 221
3 221 218 213
3 222 216 220
3 220 216 218
3 224 226 227
3 228 225 224
3 311 226 225
3 312 227 226
3 313 227 314
3 315 316 317
3 315 318 229
3 317 319 320
3 224 225 226
3 228 321 225
3 311 312 226
3 312 314 227
3 313 224 227
3 315 229 316
3 315 322 318
3 317 316 319
