ply
format ascii 1.0
comment INFO-3111 Flatenator generated
comment TextureFile Dungeons_Texture_01.png
element vertex 521
property float x
property float y
property float z
element face 712
property list uchar int vertex_indices
end_header
0 26.5228 -4.92356 
1.32532 27.6611 -2.40637 
1.32532 20.0884 -2.40637 
0 20.0884 -4.92357 
1.32532 27.6611 5e-06 
1.32532 20.0884 3e-06 
-1.32532 35.0886 6e-06 
-1.32532 35.1122 -5.91792 
-1.32532 31.2314 -4.08901 
-1.32532 31.2728 -1.76242 
-1.32532 27.6611 5e-06 
-1.32532 27.6611 -2.40637 
-1.32532 29.6257 -3.33225 
-1.32532 27.6611 2.40637 
-1.32532 35.1122 5.91793 
0 26.5228 4.92356 
1.32532 27.6611 2.40637 
1.32532 35.1122 5.91793 
0 34.1657 8.53798 
1.32532 35.0886 6e-06 
0 34.1657 -8.53797 
1.32532 35.1122 -5.91792 
-1.32532 20.0884 -2.40637 
-0.318848 29.267 -5.48338 
-1.32532 103.643 1.7e-05 
-1.32532 103.643 -5.91791 
-1.32532 77.9483 2.83375 
-1.32532 77.4987 5.91793 
-1.32532 103.643 5.91794 
-1.32532 75.8478 5.91793 
1.32532 103.643 5.91794 
0 105.386 8.538 
0 98.6714 8.538 
0.699951 95.9305 7.15408 
0 37.5812 8.53798 
0.94104 39.2141 6.67759 
1.32532 76.5669 5.91793 
0 40.7435 8.53798 
0.367188 76.8469 7.81205 
0 92.9204 8.53799 
1.32532 78.6432 5.91794 
1.32532 103.643 1.7e-05 
1.32532 78.5289 2.84456 
0 85.9525 -8.53796 
0 105.386 -8.53796 
1.32532 103.643 -5.91791 
0.794678 83.3962 -6.96691 
0 80.7319 -8.53797 
-0.609375 96.0005 7.33325 
-0.732056 39.2789 7.09066 
-0.442627 75.7922 7.66294 
-0.839844 83.369 -6.87752 
-1.32532 113.675 2.7e-05 
1.32532 113.675 1.1e-05 
0 120.367 2e-05 
-1.32532 20.0884 3e-06 
-1.32532 20.0884 2.40637 
0 20.0884 4.92356 
1.32532 20.0884 2.40637 
1.00391 -16.3608 3.56908 
-1.00391 -16.3608 3.56908 
-1.00391 -13.8878 -2e-06 
1.00391 -13.8878 -2e-06 
-1.00391 -16.3608 -3.56909 
1.00391 -16.3608 -3.56909 
1.00391 -13.346 3.56908 
1.00391 -10.8729 -2e-06 
-1.00391 -10.8729 -2e-06 
-1.00391 -13.346 3.56908 
1.00391 -13.346 -3.56909 
-1.00391 -13.346 -3.56909 
1.02356 -14.9265 -1.77284 
-1.02356 -14.9265 -1.77284 
-1.02356 -10.5578 -1.77284 
1.02356 -10.5578 -1.77284 
0 -14.9265 -2e-06 
-2.04712 -14.9265 -2e-06 
-1.02356 -14.9265 1.77284 
1.02356 -14.9265 1.77284 
2.04712 -14.9265 -2e-06 
1.354 14.2247 -2.34519 
-1.354 14.2247 -2.34519 
0 14.2247 2e-06 
-2.70801 14.2247 2e-06 
-1.354 14.2247 2.34519 
1.354 14.2247 2.34519 
2.70801 14.2247 2e-06 
1.354 9.928 -2.34519 
-1.354 9.928 -2.34519 
-2.70801 9.928 2e-06 
-1.354 9.928 2.34519 
1.354 9.928 2.34519 
2.70801 9.928 2e-06 
1.02356 8.99416 -1.77284 
-1.02356 8.99416 -1.77284 
-2.04712 8.99416 1e-06 
-1.02356 8.99416 1.77284 
1.02356 8.99416 1.77284 
2.04712 8.99416 1e-06 
-2.04712 -10.5578 -2e-06 
-1.02356 -10.5578 1.77284 
1.02356 -10.5578 1.77284 
2.04712 -10.5578 -2e-06 
-1.3457 8.51816 -2.33093 
-2.69153 8.51816 1e-06 
-1.3457 8.51816 2.33093 
1.3457 8.51816 2.33093 
2.69153 8.51816 1e-06 
1.3457 8.51816 -2.33092 
-2.69153 -9.72404 -2e-06 
-1.3457 -9.72404 -2.33094 
-1.3457 -9.72404 2.33092 
1.3457 -9.72404 2.33092 
2.69153 -9.72404 -2e-06 
1.3457 -9.72404 -2.33093 
-1.38061 7.14658 -2.39136 
-2.76135 7.14658 1e-06 
-1.38061 7.14657 2.39137 
1.38061 7.14657 2.39137 
2.76135 7.14658 1e-06 
1.38061 7.14658 -2.39136 
-2.79126 5.97053 1e-06 
-1.39563 5.97053 -2.41727 
-1.39563 2.9909 -2.41727 
-2.79126 2.9909 0 
-1.39563 5.97053 2.41727 
-1.39563 2.9909 2.41727 
1.39563 5.97053 2.41727 
1.39563 2.9909 2.41727 
2.79126 5.97053 1e-06 
2.79126 2.9909 0 
1.39563 5.97053 -2.41727 
1.39563 2.9909 -2.41727 
-2.79126 1.81457 0 
-1.39563 1.81457 -2.41727 
-1.39563 -1.05584 -2.41727 
-2.79126 -1.05584 0 
-1.39563 1.81457 2.41727 
-1.39563 -1.05584 2.41727 
1.39563 1.81457 2.41727 
1.39563 -1.05584 2.41727 
2.79126 1.81457 0 
2.79126 -1.05584 0 
1.39563 1.81457 -2.41727 
1.39563 -1.05584 -2.41727 
-2.79126 -2.23217 0 
-1.39563 -2.23217 -2.41727 
-1.39563 -5.70407 -2.41727 
-2.79126 -5.70407 -1e-06 
-1.39563 -2.23217 2.41727 
-1.39563 -5.70407 2.41727 
1.39563 -2.23217 2.41727 
1.39563 -5.70407 2.41727 
2.79126 -2.23217 0 
2.79126 -5.70407 -1e-06 
1.39563 -2.23217 -2.41727 
1.39563 -5.70407 -2.41727 
-2.77417 -6.88031 -1e-06 
-1.38708 -6.88031 -2.40247 
-1.38708 -6.88031 2.40247 
1.38708 -6.88031 2.40247 
2.77417 -6.88031 -1e-06 
1.38708 -6.88031 -2.40247 
-1.02905 6.54025 -1.78228 
-2.05798 6.54025 1e-06 
-1.02905 6.54025 1.78227 
1.02905 6.54025 1.78227 
2.05798 6.54025 1e-06 
1.02905 6.54025 -1.78228 
-1.03259 2.40273 -1.7886 
-2.06531 2.40273 0 
-1.03259 2.40273 1.7886 
1.03259 2.40273 1.7886 
2.06531 2.40273 0 
1.03259 2.40273 -1.7886 
-1.03259 -1.644 -1.7886 
-2.06531 -1.644 0 
-1.03259 -1.644 1.7886 
1.03259 -1.644 1.7886 
2.06531 -1.644 0 
1.03259 -1.644 -1.7886 
-1.02844 -6.28165 -1.78126 
-2.05676 -6.28165 -1e-06 
-1.02844 -6.28165 1.78125 
1.02844 -6.28166 1.78125 
2.05676 -6.28166 -1e-06 
1.02844 -6.28165 -1.78125 
-2.30652 34.5018 1.73594 
2.30652 34.5018 1.73594 
2.30652 104.466 1.73595 
-2.30652 104.466 1.73595 
2.30652 108.215 1.8e-05 
-2.30652 108.215 1.8e-05 
2.30652 44.8519 -1.73592 
2.30652 34.5018 -1.73592 
-2.30652 34.5018 -1.73592 
1.46838 45.2714 -1.73592 
-2.30652 104.466 -1.73591 
2.30652 104.466 -1.73591 
2.30652 46.4893 -1.73592 
2.30652 45.8303 0.708686 
-2.30652 31.0377 5e-06 
2.30652 31.0377 5e-06 
2.75989 15.5758 -5.50225 
2.75989 12.3991 2e-06 
-2.75989 12.3991 2e-06 
-2.75989 15.5758 -5.50225 
2.75989 15.5758 5.50225 
-2.75989 15.5758 5.50225 
2.75989 21.9293 5.50225 
-1.13135 18.1734 5.50225 
-2.75989 21.9293 5.50225 
-2.75989 19.0806 5.50225 
-2.75989 17.734 5.50225 
2.75989 25.106 4e-06 
-2.75989 25.106 4e-06 
1.33533 21.9293 -5.50225 
2.75989 22.4452 -4.6087 
2.75989 20.8676 -5.50225 
2.91968 17.6573 -1.89704 
2.91968 19.8478 -1.89704 
2.91968 18.7525 3e-06 
2.91968 16.562 3e-06 
2.91968 17.6573 1.89704 
2.91968 19.8478 1.89704 
2.91968 20.943 3e-06 
-2.91968 19.8478 -1.89704 
-2.91968 17.6573 -1.89704 
-2.91968 18.7525 3e-06 
-2.91968 16.562 3e-06 
-2.91968 17.6573 1.89704 
-2.91968 19.8478 1.89704 
-2.91968 20.943 3e-06 
3.30408 21.0756 -4.02368 
2.65979 20.5424 -3.10006 
2.65979 16.9627 -3.10006 
3.30408 16.4294 -4.02369 
3.30408 23.3987 4e-06 
2.65979 22.3322 4e-06 
2.65979 15.1729 2e-06 
3.30408 14.1064 2e-06 
2.65979 16.9627 3.10006 
3.30408 16.4294 4.02369 
2.65979 20.5424 3.10006 
3.30408 21.0756 4.02369 
-3.30408 21.0756 -4.02368 
-2.65979 20.5424 -3.10006 
-2.65979 22.3322 4e-06 
-3.30408 23.3987 4e-06 
-3.30408 16.4294 -4.02369 
-2.65979 16.9627 -3.10006 
-3.30408 14.1064 2e-06 
-2.65979 15.1729 2e-06 
-3.30408 16.4294 4.02369 
-2.65979 16.9627 3.10006 
-3.30408 18.328 4.02369 
-2.65979 20.5424 3.10006 
-3.30408 21.0756 4.02369 
3.15906 21.303 -4.41762 
-2.75989 21.9293 -5.50225 
1.67542 20.5424 -3.10006 
1.67542 16.9627 -3.10006 
1.67542 15.1729 2e-06 
1.67542 16.9627 3.10006 
1.67542 20.5424 3.10006 
1.67542 22.3322 4e-06 
-1.67542 16.9627 -3.10006 
-1.67542 20.5424 -3.10006 
-1.67542 15.1729 2e-06 
-1.67542 16.9627 3.10006 
-1.67542 20.5424 3.10006 
-1.67542 22.3322 4e-06 
1.51257 26.6845 -6.1493 
-1.51257 26.6845 -6.1493 
-1.51257 16.2172 -6.1493 
1.51257 16.2172 -6.1493 
-1.51257 12.5323 2e-06 
1.51257 12.5323 2e-06 
-1.51257 16.2172 6.14931 
1.51257 16.2172 6.14931 
-1.51257 26.6845 6.14931 
1.51257 26.6845 6.14931 
1.51257 33.9617 -9.56364 
-1.51257 33.9617 -9.56364 
-1.51257 33.9617 9.56365 
1.51257 33.9617 9.56365 
0.395508 14.5017 -8.31901 
0.395508 9.59587 2e-06 
-0.395508 9.59587 2e-06 
-0.395508 14.5017 -8.31901 
0.395508 14.5017 8.319 
-0.395508 14.5017 8.319 
0.395508 25.3084 8.319 
-0.395508 25.3084 8.319 
0.395508 25.3084 -8.319 
-0.395508 25.3084 -8.319 
-0.395508 32.2415 -11.4524 
0.395508 32.2415 -11.4524 
0.395508 27.4509 9.28731 
-0.395508 26.9878 9.07799 
1.17334 27.8623 7.52938 
0.395508 17.4851 -8.31901 
-0.395508 16.7253 -8.31901 
-1.21228 17.4656 -6.73263 
-0.395508 18.1502 -8.31901 
0.395508 32.2415 11.4524 
0.395508 26.098 8.67587 
-0.395508 32.2415 11.4524 
2.16785 -15.3646 -4.32193 
2.16785 -20.3552 -4.32193 
-2.16785 -20.3552 -4.32193 
-2.16785 -15.3646 -4.32193 
2.16785 -22.8504 -4e-06 
-2.16785 -22.8504 -4e-06 
2.16785 -20.3552 4.32193 
-2.16785 -20.3552 4.32193 
2.16785 -15.3646 4.32193 
-2.16785 -15.3646 4.32193 
2.16785 -12.8694 -2e-06 
-2.16785 -12.8694 -2e-06 
2.29333 -18.7202 -1.4901 
2.29333 -16.9996 -1.4901 
2.29333 -17.8599 -3e-06 
2.29333 -19.5805 -3e-06 
2.29333 -18.7202 1.49009 
2.29333 -16.9996 1.49009 
2.29333 -16.1393 -3e-06 
-2.29333 -16.9996 -1.4901 
-2.29333 -18.7202 -1.4901 
-2.29333 -17.8599 -3e-06 
-2.29333 -19.5805 -3e-06 
-2.29333 -18.7202 1.49009 
-2.29333 -16.9996 1.49009 
-2.29333 -16.1393 -3e-06 
2.59534 -16.0352 -3.16055 
2.08923 -16.454 -2.43505 
2.08923 -19.2658 -2.43505 
2.59534 -19.6846 -3.16055 
2.59534 -14.2104 -2e-06 
2.08923 -15.0482 -2e-06 
2.08923 -20.6716 -3e-06 
2.59534 -21.5094 -4e-06 
2.08923 -19.2658 2.43504 
2.59534 -19.6846 3.16054 
2.08923 -16.454 2.43504 
2.59534 -16.0352 3.16054 
-2.59534 -16.0352 -3.16055 
-2.08923 -16.454 -2.43505 
-2.08923 -15.0482 -2e-06 
-2.59534 -14.2104 -2e-06 
-2.59534 -19.6846 -3.16055 
-2.08923 -19.2658 -2.43505 
-2.59534 -21.5094 -4e-06 
-2.08923 -20.6716 -3e-06 
-2.59534 -19.6846 3.16054 
-2.08923 -19.2658 2.43504 
-2.59534 -16.0352 3.16054 
-2.08923 -16.454 2.43504 
1.31604 -16.454 -2.43505 
1.31604 -19.2658 -2.43505 
1.31604 -20.6716 -3e-06 
1.31604 -19.2658 2.43504 
1.31604 -16.454 2.43504 
1.31604 -15.0482 -2e-06 
-1.31604 -19.2658 -2.43505 
-1.31604 -16.454 -2.43505 
-1.31604 -20.6716 -3e-06 
-1.31604 -19.2658 2.43504 
-1.31604 -16.454 2.43504 
-1.31604 -15.0482 -2e-06 
0.759277 77.5191 5.63933 
-0.755981 76.7167 5.59529 
-0.709351 30.3412 -3.66947 
1.32532 20.0884 -2.40637 
1.32532 35.1122 5.91793 
1.32532 27.6611 -2.40637 
-1.32532 27.6611 2.40637 
-1.32532 27.6611 -2.40637 
-1.32532 35.1122 -5.91792 
-1.32532 35.1122 5.91793 
1.32532 103.643 5.91794 
1.32532 76.5669 5.91793 
1.32532 35.1122 -5.91792 
-1.32532 103.643 5.91794 
-1.32532 75.8478 5.91793 
-1.32532 103.643 -5.91791 
1.32532 113.675 1.1e-05 
1.32532 103.643 -5.91791 
-1.32532 113.675 2.7e-05 
-1.32532 20.0884 -2.40637 
1.32532 20.0884 2.40637 
-1.32532 20.0884 2.40637 
-1.02356 8.99416 -1.77284 
-2.04712 8.99416 1e-06 
-1.02356 8.99416 1.77284 
1.02356 8.99416 1.77284 
2.04712 8.99416 1e-06 
1.02356 8.99416 -1.77284 
-1.02356 -10.5578 -1.77284 
-1.02356 -10.5578 1.77284 
-2.04712 -10.5578 -2e-06 
1.02356 -10.5578 1.77284 
1.02356 -10.5578 -1.77284 
2.04712 -10.5578 -2e-06 
-2.69153 8.51816 1e-06 
-1.3457 8.51816 -2.33093 
-1.3457 8.51816 2.33093 
1.3457 8.51816 2.33093 
2.69153 8.51816 1e-06 
1.3457 8.51816 -2.33092 
-2.69153 -9.72404 -2e-06 
-1.3457 -9.72404 2.33092 
1.3457 -9.72404 2.33092 
2.69153 -9.72404 -2e-06 
1.3457 -9.72404 -2.33093 
-1.38061 7.14658 -2.39136 
-2.79126 5.97053 1e-06 
-1.38061 7.14657 2.39137 
1.38061 7.14657 2.39137 
1.39563 5.97053 2.41727 
2.79126 5.97053 1e-06 
1.38061 7.14658 -2.39136 
-1.39563 5.97053 -2.41727 
1.39563 5.97053 -2.41727 
-1.39563 2.9909 -2.41727 
-2.79126 2.9909 0 
-1.39563 1.81457 -2.41727 
-1.39563 2.9909 2.41727 
-1.39563 1.81457 2.41727 
1.39563 2.9909 2.41727 
2.79126 2.9909 0 
1.39563 1.81457 2.41727 
1.39563 2.9909 -2.41727 
1.39563 1.81457 -2.41727 
-1.39563 -1.05584 -2.41727 
-2.79126 -1.05584 0 
-1.39563 -2.23217 -2.41727 
-1.39563 -1.05584 2.41727 
-1.39563 -2.23217 2.41727 
1.39563 -1.05584 2.41727 
2.79126 -1.05584 0 
1.39563 -2.23217 2.41727 
1.39563 -1.05584 -2.41727 
1.39563 -2.23217 -2.41727 
-2.79126 -5.70407 -1e-06 
-1.39563 -5.70407 -2.41727 
-2.77417 -6.88031 -1e-06 
-1.39563 -5.70407 2.41727 
1.39563 -5.70407 2.41727 
-1.38708 -6.88031 2.40247 
2.79126 -5.70407 -1e-06 
2.77417 -6.88031 -1e-06 
1.39563 -5.70407 -2.41727 
1.38708 -6.88031 -2.40247 
-1.38708 -6.88031 -2.40247 
3.30408 14.1064 2e-06 
3.30408 16.4294 4.02369 
3.30408 21.0756 4.02369 
3.30408 23.3987 4e-06 
-3.30408 21.0756 -4.02368 
-3.30408 16.4294 -4.02369 
-3.30408 18.328 4.02369 
-3.30408 21.0756 4.02369 
-3.30408 23.3987 4e-06 
1.67542 16.9627 -3.10006 
1.67542 15.1729 2e-06 
1.67542 16.9627 3.10006 
1.67542 20.5424 3.10006 
1.67542 22.3322 4e-06 
1.67542 20.5424 -3.10006 
-1.67542 16.9627 -3.10006 
-1.67542 20.5424 -3.10006 
-1.67542 15.1729 2e-06 
-1.67542 16.9627 3.10006 
-1.67542 22.3322 4e-06 
-1.67542 20.5424 3.10006 
2.59534 -19.6846 -3.16055 
2.59534 -21.5094 -4e-06 
2.59534 -19.6846 3.16054 
2.59534 -16.0352 3.16054 
2.59534 -14.2104 -2e-06 
2.59534 -16.0352 -3.16055 
-2.59534 -16.0352 -3.16055 
-2.59534 -19.6846 -3.16055 
-2.59534 -21.5094 -4e-06 
-2.59534 -16.0352 3.16054 
-2.59534 -14.2104 -2e-06 
1.31604 -19.2658 -2.43505 
1.31604 -20.6716 -3e-06 
1.31604 -19.2658 2.43504 
1.31604 -16.454 2.43504 
1.31604 -15.0482 -2e-06 
1.31604 -16.454 -2.43505 
-1.31604 -19.2658 -2.43505 
-1.31604 -16.454 -2.43505 
-1.31604 -20.6716 -3e-06 
-1.31604 -19.2658 2.43504 
-1.31604 -16.454 2.43504 
-1.31604 -15.0482 -2e-06 
0.759277 77.5191 5.63933 
1.32532 78.6432 5.91794 
-0.755981 76.7167 5.59529 
-1.32532 77.4987 5.91793 
3.30408 16.4294 -4.02369 
3.30408 21.0756 -4.02368 
-0.709351 30.3412 -3.66947 
-1.32532 29.6257 -3.33225 
-1.32532 31.2314 -4.08901 
-3.30408 16.4294 4.02369 
1.32532 27.6611 2.40637 
-2.76135 7.14658 1e-06 
2.76135 7.14658 1e-06 
-1.3457 -9.72404 -2.33094 
-1.39563 5.97053 2.41727 
-2.79126 1.81457 0 
2.79126 1.81457 0 
-2.79126 -2.23217 0 
2.79126 -2.23217 0 
1.38708 -6.88031 2.40247 
-3.30408 14.1064 2e-06 
-2.59534 -19.6846 3.16054 
3 0 2 3
3 4 373 1
3 7 9 6
3 6 9 10
3 11 9 12
3 13 6 10
3 15 17 18
3 16 19 374
3 0 21 375
3 1 19 4
3 15 14 376
3 0 22 377
3 377 23 0
3 0 23 20
3 20 8 378
3 7 24 25
3 26 28 24
3 24 6 26
3 29 6 379
3 30 32 33
3 34 17 35
3 17 36 35
3 37 36 38
3 37 38 39
3 39 40 33
3 30 33 40
3 19 42 374
3 380 42 41
3 374 42 381
3 43 45 46
3 21 47 46
3 45 21 46
3 382 41 19
3 32 383 48
3 14 34 49
3 14 49 384
3 384 37 50
3 37 39 50
3 27 39 48
3 383 27 48
3 385 43 51
3 47 378 51
3 385 51 378
3 25 24 52
3 24 28 52
3 31 53 54
3 380 41 386
3 44 53 45
3 41 387 386
3 31 388 383
3 44 388 54
3 55 11 389
3 56 10 55
3 58 15 57
3 5 16 390
3 391 15 376
3 60 62 59
3 61 64 62
3 66 68 65
3 69 67 66
3 65 62 66
3 61 68 67
3 60 65 68
3 62 69 66
3 64 70 69
3 70 61 67
3 72 74 71
3 72 71 75
3 76 72 75
3 77 76 75
3 78 77 75
3 79 78 75
3 71 79 75
3 80 81 82
3 81 83 82
3 83 84 82
3 84 85 82
3 85 86 82
3 86 80 82
3 88 80 87
3 89 81 88
3 90 83 89
3 91 84 90
3 92 85 91
3 87 86 92
3 93 88 87
3 95 88 94
3 95 90 89
3 96 91 90
3 98 91 97
3 98 87 92
3 73 76 99
3 99 77 100
3 100 78 101
3 101 79 102
3 102 71 74
3 392 104 393
3 394 104 105
3 394 106 395
3 395 107 396
3 397 107 108
3 397 103 392
3 398 109 110
3 399 109 400
3 401 111 399
3 401 113 112
3 402 113 403
3 398 114 402
3 115 404 405
3 404 117 406
3 117 407 406
3 118 408 407
3 408 120 409
3 115 409 120
3 122 124 121
3 121 126 125
3 125 128 127
3 127 130 129
3 129 132 131
3 123 131 132
3 134 136 133
3 133 138 137
3 137 140 139
3 139 142 141
3 141 144 143
3 135 143 144
3 146 148 145
3 145 150 149
3 149 152 151
3 151 154 153
3 153 156 155
3 147 155 156
3 158 410 157
3 159 410 411
3 159 412 160
3 160 413 161
3 162 413 414
3 414 158 162
3 163 116 415
3 163 416 164
3 116 165 417
3 416 165 164
3 165 418 417
3 165 419 166
3 166 119 418
3 166 420 167
3 119 168 421
3 420 168 167
3 422 168 423
3 415 168 163
3 424 170 425
3 426 170 169
3 170 427 425
3 170 428 171
3 171 429 427
3 428 172 171
3 429 173 430
3 431 173 172
3 173 432 430
3 173 433 174
3 169 433 426
3 169 432 174
3 434 176 435
3 436 176 175
3 176 437 435
3 176 438 177
3 437 178 439
3 438 178 177
3 439 179 440
3 441 179 178
3 179 442 440
3 179 443 180
3 175 443 436
3 175 442 180
3 181 444 445
3 181 446 182
3 444 183 447
3 446 183 182
3 183 448 447
3 449 184 183
3 184 450 448
3 184 451 185
3 450 186 452
3 451 186 185
3 181 453 454
3 181 452 186
3 188 190 187
3 189 192 190
3 193 195 196
3 197 196 195
3 198 199 196
3 191 189 198
3 197 190 192
3 191 197 192
3 189 200 198
3 188 193 200
3 200 199 198
3 187 197 195
3 187 202 188
3 194 201 195
3 194 188 202
3 187 195 201
3 204 206 203
3 207 205 204
3 207 210 208
3 211 210 209
3 210 213 208
3 214 211 209
3 216 217 218
3 219 220 221
3 222 219 221
3 223 222 221
3 224 223 221
3 225 224 221
3 220 225 221
3 226 227 228
3 227 229 228
3 229 230 228
3 230 231 228
3 231 232 228
3 232 226 228
3 234 236 233
3 233 238 234
3 235 240 236
3 239 242 240
3 242 243 244
3 244 238 237
3 245 247 248
3 245 250 246
3 249 252 250
3 252 253 254
3 253 255 254
3 256 255 257
3 257 247 256
3 258 218 217
3 203 455 204
3 207 455 456
3 209 456 457
3 209 458 214
3 206 459 259
3 206 251 460
3 208 251 205
3 210 461 213
3 215 462 211
3 259 463 215
3 234 261 235
3 235 262 239
3 239 263 241
3 241 264 243
3 243 265 238
3 238 260 234
3 250 267 246
3 252 266 250
3 254 268 252
3 256 269 254
3 247 270 256
3 246 271 247
3 464 220 219
3 465 219 222
3 465 223 466
3 466 224 467
3 468 224 225
3 468 220 469
3 470 226 471
3 472 227 470
3 472 230 229
3 473 231 230
3 474 231 475
3 474 226 232
3 273 275 272
3 274 277 275
3 276 279 277
3 278 281 279
3 282 273 272
3 284 281 280
3 287 289 286
3 290 288 287
3 292 291 290
3 295 297 294
3 298 299 300
3 286 301 275
3 294 275 301
3 302 274 303
3 274 273 303
3 303 295 304
3 286 277 287
3 276 289 288
3 277 290 287
3 291 276 288
3 279 292 290
3 293 278 291
3 273 296 295
3 283 297 296
3 297 272 294
3 285 300 281
3 306 281 300
3 305 298 300
3 305 284 307
3 284 299 307
3 293 299 280
3 309 311 308
3 312 310 309
3 314 313 312
3 316 315 314
3 318 317 316
3 308 319 318
3 320 321 322
3 323 320 322
3 324 323 322
3 325 324 322
3 326 325 322
3 321 326 322
3 327 328 329
3 328 330 329
3 330 331 329
3 331 332 329
3 332 333 329
3 333 327 329
3 334 336 337
3 335 338 339
3 336 341 337
3 340 343 341
3 342 345 343
3 344 338 345
3 347 349 346
3 346 351 347
3 350 353 351
3 352 355 353
3 355 356 357
3 357 349 348
3 308 476 309
3 312 476 477
3 312 478 314
3 314 479 316
3 316 480 318
3 318 481 308
3 310 482 311
3 313 483 310
3 313 354 484
3 317 354 315
3 319 485 317
3 311 486 319
3 335 359 336
3 336 360 340
3 340 361 342
3 342 362 344
3 344 363 339
3 339 358 335
3 351 365 347
3 353 364 351
3 355 366 353
3 357 367 355
3 348 368 357
3 347 369 348
3 487 321 320
3 488 320 323
3 488 324 489
3 489 325 490
3 490 326 491
3 492 326 321
3 493 327 494
3 495 328 493
3 495 331 330
3 496 332 331
3 497 333 332
3 494 333 498
3 43 46 51
3 46 47 51
3 298 307 299
3 293 306 299
3 299 306 300
3 37 49 35
3 49 34 35
3 33 48 39
3 32 48 33
3 370 38 36
3 381 42 499
3 499 42 500
3 40 38 370
3 193 196 200
3 196 199 200
3 371 26 29
3 384 50 501
3 501 50 27
3 502 26 371
3 503 218 258
3 258 504 503
3 218 206 216
3 216 206 259
3 215 217 216
3 216 259 215
3 217 458 258
3 258 458 504
3 12 9 372
3 505 23 506
3 372 9 507
3 8 23 505
3 213 508 208
3 212 462 461
3 212 461 210
3 301 303 304
3 294 304 295
3 302 286 289
3 302 303 301
3 0 375 2
3 4 5 373
3 7 507 9
3 11 10 9
3 13 379 6
3 15 509 17
3 16 4 19
3 0 20 21
3 1 382 19
3 15 18 14
3 0 3 22
3 377 506 23
3 20 23 8
3 7 6 24
3 26 502 28
3 29 26 6
3 30 31 32
3 34 18 17
3 37 35 36
3 39 38 40
3 19 41 42
3 380 500 42
3 43 44 45
3 21 20 47
3 382 387 41
3 32 31 383
3 14 18 34
3 384 49 37
3 27 50 39
3 385 44 43
3 47 20 378
3 31 30 53
3 44 54 53
3 31 54 388
3 44 385 388
3 55 10 11
3 56 13 10
3 58 509 15
3 5 4 16
3 391 57 15
3 60 61 62
3 61 63 64
3 66 67 68
3 69 70 67
3 65 59 62
3 61 60 68
3 60 59 65
3 62 64 69
3 64 63 70
3 70 63 61
3 72 73 74
3 88 81 80
3 89 83 81
3 90 84 83
3 91 85 84
3 92 86 85
3 87 80 86
3 93 94 88
3 95 89 88
3 95 96 90
3 96 97 91
3 98 92 91
3 98 93 87
3 73 72 76
3 99 76 77
3 100 77 78
3 101 78 79
3 102 79 71
3 392 103 104
3 394 393 104
3 394 105 106
3 395 106 107
3 397 396 107
3 397 108 103
3 398 400 109
3 399 111 109
3 401 112 111
3 401 403 113
3 402 114 113
3 398 110 114
3 115 510 404
3 404 510 117
3 117 118 407
3 118 511 408
3 408 511 120
3 115 405 409
3 122 123 124
3 121 124 126
3 125 126 128
3 127 128 130
3 129 130 132
3 123 122 131
3 134 135 136
3 133 136 138
3 137 138 140
3 139 140 142
3 141 142 144
3 135 134 143
3 146 147 148
3 145 148 150
3 149 150 152
3 151 152 154
3 153 154 156
3 147 146 155
3 158 512 410
3 159 157 410
3 159 411 412
3 160 412 413
3 162 161 413
3 414 512 158
3 163 164 116
3 163 422 416
3 116 164 165
3 416 513 165
3 165 166 418
3 165 513 419
3 166 167 119
3 166 419 420
3 119 167 168
3 420 423 168
3 422 163 168
3 415 421 168
3 424 169 170
3 426 514 170
3 170 171 427
3 170 514 428
3 171 172 429
3 428 431 172
3 429 172 173
3 431 515 173
3 173 174 432
3 173 515 433
3 169 174 433
3 169 424 432
3 434 175 176
3 436 516 176
3 176 177 437
3 176 516 438
3 437 177 178
3 438 441 178
3 439 178 179
3 441 517 179
3 179 180 442
3 179 517 443
3 175 180 443
3 175 434 442
3 181 182 444
3 181 454 446
3 444 182 183
3 446 449 183
3 183 184 448
3 449 518 184
3 184 185 450
3 184 518 451
3 450 185 186
3 451 453 186
3 181 186 453
3 181 445 452
3 188 189 190
3 189 191 192
3 193 194 195
3 197 198 196
3 191 198 197
3 189 188 200
3 188 194 193
3 187 190 197
3 187 201 202
3 194 202 201
3 204 205 206
3 207 208 205
3 207 209 210
3 211 212 210
3 214 215 211
3 234 235 236
3 233 237 238
3 235 239 240
3 239 241 242
3 242 241 243
3 244 243 238
3 245 246 247
3 245 249 250
3 249 519 252
3 252 519 253
3 256 254 255
3 257 248 247
3 203 503 455
3 207 204 455
3 209 207 456
3 209 457 458
3 206 460 459
3 206 205 251
3 208 508 251
3 215 463 462
3 259 459 463
3 234 260 261
3 235 261 262
3 239 262 263
3 241 263 264
3 243 264 265
3 238 265 260
3 250 266 267
3 252 268 266
3 254 269 268
3 256 270 269
3 247 271 270
3 246 267 271
3 464 469 220
3 465 464 219
3 465 222 223
3 466 223 224
3 468 467 224
3 468 225 220
3 470 227 226
3 472 229 227
3 472 473 230
3 473 475 231
3 474 232 231
3 474 471 226
3 273 274 275
3 274 276 277
3 276 278 279
3 278 280 281
3 282 283 273
3 284 285 281
3 287 288 289
3 290 291 288
3 292 293 291
3 295 296 297
3 294 272 275
3 302 289 274
3 303 273 295
3 286 275 277
3 276 274 289
3 277 279 290
3 291 278 276
3 279 281 292
3 293 280 278
3 273 283 296
3 283 282 297
3 297 282 272
3 285 305 300
3 306 292 281
3 305 285 284
3 284 280 299
3 309 310 311
3 312 313 310
3 314 315 313
3 316 317 315
3 318 319 317
3 308 311 319
3 334 335 336
3 335 334 338
3 336 340 341
3 340 342 343
3 342 344 345
3 344 339 338
3 347 348 349
3 346 350 351
3 350 352 353
3 352 520 355
3 355 520 356
3 357 356 349
3 308 481 476
3 312 309 476
3 312 477 478
3 314 478 479
3 316 479 480
3 318 480 481
3 310 483 482
3 313 484 483
3 313 315 354
3 317 485 354
3 319 486 485
3 311 482 486
3 335 358 359
3 336 359 360
3 340 360 361
3 342 361 362
3 344 362 363
3 339 363 358
3 351 364 365
3 353 366 364
3 355 367 366
3 357 368 367
3 348 369 368
3 347 365 369
3 487 492 321
3 488 487 320
3 488 323 324
3 489 324 325
3 490 325 326
3 492 491 326
3 493 328 327
3 495 330 328
3 495 496 331
3 496 497 332
3 497 498 333
3 494 327 333
3 298 305 307
3 293 292 306
3 503 203 218
3 218 203 206
3 215 214 217
3 217 214 458
3 213 461 508
3 212 211 462
3 294 301 304
3 302 301 286
