ply
format ascii 1.0
comment VCGLIB generated
element vertex 8
property float x
property float y
property float z
property float nx
property float ny
property float nz
property uchar red
property uchar green
property uchar blue
property uchar alpha
property float texture_u
property float texture_v
element face 4
property list uchar int vertex_indices
end_header
3.924497e-15 -1.795962 0.5 1 2.40154e-15 7.771562e-16 255 255 255 255 0.000000 0.000000
4.701653e-15 -1.795962 -0.5 1 2.40154e-15 7.771561e-16 255 255 255 255 1.000000 0.000000
-3.924497e-15 1.795962 -0.5 1 2.40154e-15 7.77156e-16 255 255 255 255 1.000000 1.000000
-4.701653e-15 1.795962 0.5 1 2.40154e-15 7.77156e-16 255 255 255 255 0.000000 1.000000
-0.5 -1.795962 -2.833544e-15 0 -1.57773e-15 1 255 255 255 255 0.000000 0.000000
0.5 -1.795962 -2.833544e-15 0 -1.57773e-15 1 255 255 255 255 1.000000 0.000000
0.5 1.795962 2.833544e-15 0 -1.57773e-15 1 255 255 255 255 1.000000 1.000000
-0.5 1.795962 2.833544e-15 0 -1.57773e-15 1 255 255 255 255 0.000000 1.000000
3 0 1 2 
3 0 2 3 
3 4 5 6 
3 4 6 7 
