ply
format ascii 1.0
comment VCGLIB generated
element vertex 185
property float x
property float y
property float z
property float nx
property float ny
property float nz
property uchar red
property uchar green
property uchar blue
property uchar alpha
property float texture_u
property float texture_v
element face 366
property list uchar int vertex_indices
end_header
-168.432 -80.61318 138.6367 -0.2002861 -0.9746104 0.1001002 192 192 192 255 0.068816 0.125621
200.4814 -83.62102 241.8223 0.1316541 -0.9825316 0.1315253 192 192 192 255 0.068552 0.125609
118.6718 189.8057 -163.3579 0.05888043 0.9017888 -0.4281474 192 192 192 255 0.068638 0.125578
-277.1768 -98.54527 -186.5423 0.0781647 -0.9968435 -0.01390321 192 192 192 255 0.068844 0.125596
177.4716 -62.83566 -178.8371 0.2984342 -0.9512737 -0.07755901 192 192 192 255 0.068596 0.125585
21.88705 193.2094 32.40466 -0.3803991 0.8830633 0.274765 192 192 192 255 0.068700 0.125588
-54.98906 199.498 -43.43198 -0.2214994 0.9546493 0.198954 192 192 192 255 0.068736 0.125581
-164.4967 -14.3503 242.8591 -0.4420648 0.8071024 0.3913622 192 192 192 255 0.068786 0.125621
290.0512 30.59916 216.9682 0.7429059 0.4580381 0.4881516 192 192 192 255 0.068493 0.125600
144.0003 9.977661 -315.4377 0.2320101 0.6356794 -0.736263 192 192 192 255 0.068630 0.125577
-363.0938 -29.64358 -185.2448 -0.8091002 0.5873227 0.02022168 192 192 192 255 0.068902 0.125595
181.2254 112.2763 -137.0322 0.6218005 0.5452343 -0.5622134 192 192 192 255 0.068597 0.125581
72.63313 -32.94536 338.2914 -0.05731952 -0.2992858 0.9524403 192 192 192 255 0.068608 0.125615
-185.8962 -34.92289 231.3944 -0.8663923 -0.2764007 0.4158931 192 192 192 255 0.068804 0.125623
264.3767 -17.30801 276.804 0.7090633 -0.1392239 0.6912641 192 192 192 255 0.068494 0.125603
301.1255 -23.33919 -35.99086 0.8929061 -0.389066 -0.2265974 192 192 192 255 0.068530 0.125586
-174.0701 -74.6758 -315.6341 -0.1995108 -0.1059646 -0.9741494 192 192 192 255 0.068797 0.125585
-249.952 -63.51235 25.74245 -0.7947401 -0.3452054 0.4992208 192 192 192 255 0.068879 0.125615
260.3234 109.6414 60.48477 0.9384116 0.3283249 -0.1076409 192 192 192 255 0.068546 0.125591
-6.145677 59.62128 144.8503 -0.4176776 0.5865398 0.6939139 192 192 192 255 0.068699 0.125607
158.5908 43.60804 -239.4501 0.3851556 0.7636102 -0.5182227 192 192 192 255 0.068611 0.125578
-194.6482 -19.60812 -292.7882 -0.2604887 0.5246418 -0.8104917 192 192 192 255 0.068792 0.125584
244.8549 -66.63839 12.91428 0.2421681 -0.9609601 -0.1338292 192 192 192 255 0.068554 0.125595
46.71235 -82.25227 -33.53783 0.05106176 -0.9985304 -0.01816219 192 192 192 255 0.068669 0.125598
-46.85719 -92.83506 -229.8985 0.0404756 -0.9989648 0.02076178 192 192 192 255 0.068718 0.125588
-4.656034 -96.20454 240.3612 0.03191584 -0.9969656 0.07099968 192 192 192 255 0.068687 0.125619
-216.1254 -96.63337 -9.845916 0.04675597 -0.9973111 0.05643143 192 192 192 255 0.068848 0.125612
-256.0523 -29.81216 -66.33657 -0.6670873 0.5927966 0.451206 192 192 192 255 0.068854 0.125600
289.6711 73.43459 -27.24651 0.7375445 0.6406651 -0.2134864 192 192 192 255 0.068530 0.125586
-255.1929 -37.00883 -11.8404 -0.2652797 0.9603032 0.08628187 192 192 192 255 0.068876 0.125608
-127.2081 176.3001 -32.25222 -0.2119822 0.9438142 0.2535318 192 192 192 255 0.068767 0.125585
-148.4562 -67.99246 263.4067 -0.4345816 -0.7016979 0.5645874 192 192 192 255 0.068771 0.125624
-306.5418 -69.70314 -266.2357 -0.4294603 -0.02172855 -0.9028243 192 192 192 255 0.068867 0.125591
114.1767 204.9853 32.8442 0.3669558 0.9235684 0.1111983 192 192 192 255 0.068633 0.125589
76.16675 222.3268 -12.78688 0.7192051 0.4627236 -0.5182961 192 192 192 255 0.068652 0.125585
-167.7654 106.9251 -136.6897 -0.381701 0.8672699 -0.3196048 192 192 192 255 0.068771 0.125583
-196.2214 135.1615 -113.226 -0.5263686 0.3741194 -0.7635252 192 192 192 255 0.068794 0.125584
-122.7359 152.9043 -138.375 0.03200747 0.1366283 -0.9901052 192 192 192 255 0.068746 0.125581
4.717121 223.6619 -102.3716 -0.09206466 0.9379514 -0.3343219 192 192 192 255 0.068690 0.125580
-133.1869 167.3109 -129.6854 -0.2662017 0.7847154 -0.5597844 192 192 192 255 0.068755 0.125581
-209.8191 66.13139 -44.99906 -0.7447593 0.4367234 0.5045853 192 192 192 255 0.068819 0.125594
-217.5947 114.9697 -83.89383 -0.8878917 0.3640482 0.281278 192 192 192 255 0.068812 0.125587
-165.9913 130.8389 -20.54904 -0.6887218 0.3918527 0.6100112 192 192 192 255 0.068794 0.125592
23.3006 180.0765 104.4364 -0.4539354 0.8499821 0.2673445 192 192 192 255 0.068683 0.125594
14.11158 204.5525 -21.13378 -0.3377042 0.9098387 0.2411419 192 192 192 255 0.068702 0.125584
-28.56659 208.7858 -79.76819 -0.2417057 0.9699987 -0.02609514 192 192 192 255 0.068708 0.125581
-145.7995 171.0012 -17.30962 -0.4599963 0.5680971 0.6823995 192 192 192 255 0.068779 0.125588
-180.1611 173.2277 -91.59626 -0.3725968 0.9279918 0.001697677 192 192 192 255 0.068781 0.125582
-78.76077 195.467 -71.48493 -0.226686 0.9737212 -0.02192151 192 192 192 255 0.068746 0.125582
-187.5684 173.0116 -66.44781 -0.7009968 0.5922055 0.3973616 192 192 192 255 0.068787 0.125585
-50.18616 -90.55606 283.0551 -0.1715676 -0.9540929 0.2455023 192 192 192 255 0.068703 0.125622
-153.1608 -74.41919 230.5917 -0.3228507 -0.9316046 0.1669742 192 192 192 255 0.068783 0.125624
-184.5068 -70.03086 185.4516 -0.6180897 -0.7367202 0.2742419 192 192 192 255 0.068815 0.125623
74.09659 -78.84676 285.4838 0.0879822 -0.8815624 0.4637961 192 192 192 255 0.068623 0.125616
-23.49253 -80.16104 305.015 0.08456729 -0.8514754 0.5175308 192 192 192 255 0.068679 0.125621
-41.74876 -66.2831 315.9 -0.256811 -0.4375533 0.8617397 192 192 192 255 0.068687 0.125621
-155.5102 -51.21251 269.2948 -0.5321923 0.1593616 0.8314898 192 192 192 255 0.068774 0.125623
92.82109 1.185443 337.7829 -0.01717439 0.4857551 0.8739263 192 192 192 255 0.068591 0.125612
193.7863 -30.87669 322.9491 0.2669896 -0.2189752 0.9384916 192 192 192 255 0.068529 0.125608
193.1255 -50.90801 308.3594 0.1756015 -0.7631605 0.6218923 192 192 192 255 0.068535 0.125609
216.5034 -15.70916 311.7719 0.3725197 0.5551505 0.7436646 192 192 192 255 0.068516 0.125606
279.1434 -69.16361 121.6056 0.4003597 -0.9126381 0.08248471 192 192 192 255 0.068524 0.125600
293.3579 -45.98686 215.4722 0.6364421 -0.7174955 0.2830933 192 192 192 255 0.068493 0.125602
255.2528 -44.95668 -48.77645 0.456211 -0.8693206 -0.1901401 192 192 192 255 0.068549 0.125590
295.8344 -56.38095 69.4642 0.4843801 -0.8598933 -0.1611198 192 192 192 255 0.068518 0.125596
314.412 -43.23439 127.7483 0.8874101 -0.4603676 0.02377133 192 192 192 255 0.068498 0.125598
296.2188 -24.99647 225.0535 0.94919 0.007602829 0.3146118 192 192 192 255 0.068487 0.125601
309.5216 17.08773 -29.33154 0.983885 0.09472352 -0.1516505 192 192 192 255 0.068524 0.125586
289.8481 33.19309 -73.84608 0.9012559 0.2347278 -0.3641988 192 192 192 255 0.068536 0.125584
228.104 -17.65077 -220.9382 0.8779426 -0.2780872 -0.3897235 192 192 192 255 0.068574 0.125581
220.0775 -33.33613 -204.6722 0.5371127 -0.8234037 -0.1830749 192 192 192 255 0.068576 0.125582
184.2209 -54.21429 -247.4567 0.5572824 -0.7832716 -0.2755394 192 192 192 255 0.068600 0.125582
213.2226 -6.420257 -252.1584 0.7634652 0.4101091 -0.4989303 192 192 192 255 0.068586 0.125579
173.8194 -22.64932 -308.6075 0.6921288 -0.3990969 -0.601398 192 192 192 255 0.068613 0.125578
-328.1119 -56.97258 -251.2851 -0.4692283 0.5517029 -0.6895279 192 192 192 255 0.068879 0.125591
-363.1098 -55.89137 -213.8907 -0.8177676 -0.2995152 -0.4914742 192 192 192 255 0.068900 0.125594
-299.6934 -99.33178 -252.9836 -0.1180041 -0.9279378 -0.3535625 192 192 192 255 0.068861 0.125592
-156.6405 -86.87855 -258.7516 -0.01430248 -0.9965333 -0.08195604 192 192 192 255 0.068779 0.125589
-45.66237 -100.5607 -314.0355 -0.02876758 -0.9681888 -0.2485616 192 192 192 255 0.068729 0.125584
-27.12602 -65.26643 -334.9273 0.04457873 -0.5238132 -0.8506659 192 192 192 255 0.068722 0.125582
-6.527044 -86.397 -297.0107 0.162736 -0.9686386 -0.1877666 192 192 192 255 0.068706 0.125584
117.251 -60.33237 -321.0862 0.2027081 -0.795822 -0.5705935 192 192 192 255 0.068644 0.125580
125.7162 -41.59835 -334.4225 0.1843309 0.008828797 -0.9828246 192 192 192 255 0.068642 0.125578
132.7254 -66.97974 -283.477 0.2491869 -0.9556606 -0.1569036 192 192 192 255 0.068631 0.125581
-293.5925 -100.3082 -91.00011 -0.02173906 -0.9996139 -0.01730509 192 192 192 255 0.068874 0.125605
-360.2247 -84.36161 -163.335 -0.5119597 -0.8579448 -0.04275481 192 192 192 255 0.068903 0.125600
-218.9001 -85.39601 31.64333 -0.3820702 -0.8760841 0.2941071 192 192 192 255 0.068858 0.125616
-286.6417 -107.535 -58.72445 -0.2182197 -0.9350694 0.2793303 192 192 192 255 0.068882 0.125609
-333.2572 -103.2288 -100.7243 -0.6406627 -0.6724667 0.3705941 192 192 192 255 0.068901 0.125605
-368.7687 -69.12411 -171.2116 -0.9621335 0.01844677 0.2719538 192 192 192 255 0.068908 0.125598
-259.5248 -54.23234 13.90476 -0.8667071 -0.03508942 0.4975817 192 192 192 255 0.068884 0.125613
-242.0634 -40.25958 41.12284 -0.726351 0.6315078 0.2713155 192 192 192 255 0.068874 0.125614
-209.8349 -53.64975 146.8814 -0.9185661 -0.2324133 0.3197191 192 192 192 255 0.068840 0.125621
-204.3505 -65.89653 140.2858 -0.5381156 -0.8137319 0.219709 192 192 192 255 0.068838 0.125621
-202.9538 -39.43821 173.3147 -0.6848103 0.7134723 0.148298 192 192 192 255 0.068829 0.125621
-273.3931 37.28643 -225.5753 -0.5141893 0.4570152 -0.725773 192 192 192 255 0.068820 0.125586
-29.27935 141.3457 -236.413 -0.1061166 0.6968985 -0.7092756 192 192 192 255 0.068698 0.125579
-112.9183 84.61393 -246.181 -0.2387258 0.4212022 -0.874985 192 192 192 255 0.068745 0.125582
87.65869 159.8422 -218.3857 0.2590289 0.4318222 -0.863964 192 192 192 255 0.068646 0.125579
247.8423 150.9682 153.7896 0.8890599 0.2689756 0.3704385 192 192 192 255 0.068547 0.125594
252.8964 203.7904 69.08665 0.6882399 0.7159064 0.1174897 192 192 192 255 0.068563 0.125588
230.7905 217.3888 -43.21053 0.7064176 0.6161723 -0.34829 192 192 192 255 0.068575 0.125583
175.8962 189.2363 -128.487 0.7414647 0.3302176 -0.5841118 192 192 192 255 0.068606 0.125579
203.0275 144.2302 -93.24453 0.9042657 0.03797374 -0.4252783 192 192 192 255 0.068583 0.125582
84.60388 64.24759 209.2531 -0.2945199 0.8484648 0.4397335 192 192 192 255 0.068634 0.125606
-104.6519 52.01973 90.90278 -0.5635562 0.4802079 0.6721643 192 192 192 255 0.068774 0.125606
-12.8532 107.235 125.6516 -0.3826064 0.3349873 0.8610435 192 192 192 255 0.068720 0.125602
98.6059 114.7621 163.4947 -0.3567284 0.527788 0.7708338 192 192 192 255 0.068629 0.125601
186.7237 145.702 194.4024 -0.2774124 0.5301222 0.8012571 192 192 192 255 0.068571 0.125597
187.5723 83.24943 215.922 0.07342733 0.7368919 0.6720111 192 192 192 255 0.068566 0.125601
-281.1952 34.2238 -129.8136 -0.9763193 0.02641289 0.2147164 192 192 192 255 0.068851 0.125591
-249.9657 41.53802 -75.28986 -0.8335948 0.222474 0.5055938 192 192 192 255 0.068844 0.125594
-231.429 0.293625 -39.97956 -0.8470407 0.06529167 0.5275027 192 192 192 255 0.068844 0.125600
-200.7039 42.29826 3.248917 -0.7277624 0.4036379 0.5544713 192 192 192 255 0.068816 0.125603
-162.8657 -22.20093 83.29469 -0.607746 0.7040284 0.3674082 192 192 192 255 0.068812 0.125610
264.4716 56.14525 210.9889 0.3818519 0.7538636 0.5346764 192 192 192 255 0.068513 0.125601
156.132 50.40699 285.0711 0.1436189 0.7938128 0.590961 192 192 192 255 0.068565 0.125606
-139.2037 -4.49734 208.0393 -0.2446079 0.9666092 0.0763789 192 192 192 255 0.068790 0.125617
50.32892 26.88787 299.881 -0.2770798 0.8826561 0.3796644 192 192 192 255 0.068629 0.125612
-72.36893 13.51691 147.3106 -0.4639561 0.8436459 0.2701966 192 192 192 255 0.068748 0.125610
123.5648 43.64594 -270.6086 0.1755324 0.7860469 -0.5927215 192 192 192 255 0.068636 0.125578
81.53788 85.88471 -226.1649 0.4372597 0.4111055 -0.7998725 192 192 192 255 0.068659 0.125581
-27.43251 33.09025 -288.8256 -0.07038457 0.5058402 -0.859751 192 192 192 255 0.068712 0.125581
-335.7839 -24.2406 -201.054 -0.2926764 0.9545676 -0.05604783 192 192 192 255 0.068882 0.125592
-277.4544 -6.494707 -238.19 -0.4789084 0.6001961 -0.6406336 192 192 192 255 0.068832 0.125588
167.1656 -69.38564 -77.10316 0.1465236 -0.988985 -0.02096399 192 192 192 255 0.068597 0.125591
213.725 -59.78048 -73.56604 0.2607299 -0.9588277 -0.1125588 192 192 192 255 0.068570 0.125590
152.1329 -73.97547 -35.57727 0.09195936 -0.9943882 -0.05230312 192 192 192 255 0.068607 0.125595
-165.1982 -93.36057 -203.3616 0.02392476 -0.9996566 -0.01068846 192 192 192 255 0.068778 0.125592
9.475705 -86.22688 -136.7083 0.06523477 -0.997704 0.01820109 192 192 192 255 0.068681 0.125592
-121.6242 -90.33129 46.19519 0.03374091 -0.9994146 -0.005665448 192 192 192 255 0.068794 0.125613
95.73581 -89.1655 242.4336 0.05763869 -0.9974458 0.04218732 192 192 192 255 0.068622 0.125614
4.79335 -90.23912 117.9962 0.04193331 -0.9982654 -0.0413262 192 192 192 255 0.068708 0.125613
-25.91415 -93.11282 156.4073 -0.02840306 -0.9994492 -0.01716538 192 192 192 255 0.068721 0.125616
-136.9834 -86.89037 69.10317 -0.0714969 -0.9968692 0.03376503 192 192 192 255 0.068808 0.125616
-185.8256 -89.37207 53.84656 -0.06423505 -0.9890001 0.1332392 192 192 192 255 0.068836 0.125617
288.2868 66.17859 168.4526 0.6660193 0.6891693 0.2854189 192 192 192 255 0.068508 0.125598
238.6384 115.7533 -25.92783 0.7268092 0.6259586 -0.2827089 192 192 192 255 0.068565 0.125586
257.6139 106.4209 136.0278 0.7983862 0.4074925 0.4433164 192 192 192 255 0.068549 0.125595
-340.0512 -21.40222 -165.2097 -0.3506415 0.9120597 0.2125973 192 192 192 255 0.068887 0.125594
-210.0014 -28.32522 -8.233301 -0.6376416 0.679693 0.3625335 192 192 192 255 0.068839 0.125604
-273.2182 -10.96017 -113.643 -0.7307339 0.658412 0.180338 192 192 192 255 0.068849 0.125595
154.8862 196.1907 105.0069 -0.3526089 0.8109383 0.4669541 192 192 192 255 0.068603 0.125596
105.1342 167.2411 129.1074 -0.2211952 0.6458226 0.7307433 192 192 192 255 0.068645 0.125599
65.62796 199.8706 -142.1734 -0.07507498 0.9288806 -0.3626909 192 192 192 255 0.068643 0.125579
172.353 217.5527 -31.31149 -0.01694679 0.9978648 0.06307722 192 192 192 255 0.068589 0.125583
9.756899 194.8841 -107.0861 -0.2890608 0.9313783 -0.2213105 192 192 192 255 0.068680 0.125582
-270.418 63.32562 -199.2097 -0.4113776 0.8545436 -0.317055 192 192 192 255 0.068828 0.125586
-119.3158 72.47528 63.86546 -0.6674085 0.3224775 0.6712482 192 192 192 255 0.068784 0.125603
-234.4612 81.09927 -114.8516 -0.6547279 0.7546841 -0.04222985 192 192 192 255 0.068818 0.125587
-27.97338 140.3315 115.8619 -0.3733343 0.3570261 0.8562441 192 192 192 255 0.068714 0.125598
-104.8965 126.5712 62.25749 -0.5369613 0.7102185 0.4552608 192 192 192 255 0.068770 0.125597
-2.295677 31.30873 191.9351 -0.3399509 0.8896142 0.3049919 192 192 192 255 0.068693 0.125609
62.46636 -83.10537 -216.2397 0.1337683 -0.9907221 -0.02399739 192 192 192 255 0.068660 0.125586
244.4986 -75.4474 115.0761 0.1060009 -0.9928095 -0.05561517 192 192 192 255 0.068550 0.125602
-128.0603 -91.01356 -128.3809 0.0434651 -0.9990164 0.008778182 192 192 192 255 0.068757 0.125596
-251.3608 -96.0462 -83.29509 0.06999074 -0.9974139 -0.01633598 192 192 192 255 0.068848 0.125605
99.50179 -87.47192 165.6853 0.0626138 -0.9972027 -0.04082113 192 192 192 255 0.068640 0.125611
-85.1646 -91.15862 201.5422 -0.1177506 -0.9924806 0.03342229 192 192 192 255 0.068748 0.125621
232.3024 76.00543 -142.1099 0.633926 0.6206467 -0.4614494 192 192 192 255 0.068569 0.125581
-199.9428 -27.22156 75.44535 -0.3596654 0.9327785 0.02377411 192 192 192 255 0.068841 0.125613
209.8151 187.5717 156.1645 0.04800728 0.8617799 0.5050057 192 192 192 255 0.068557 0.125594
149.1197 225.9907 43.61118 -0.3909893 0.8786802 0.2739497 192 192 192 255 0.068611 0.125589
-115.1938 117.0274 -228.4751 -0.358288 0.8811404 -0.3085797 192 192 192 255 0.068742 0.125581
-278.8857 56.00456 -146.613 -0.842501 0.5040136 0.1901642 192 192 192 255 0.068846 0.125588
92.00866 218.4895 104.3506 -0.144281 0.8462323 0.5129074 192 192 192 255 0.068647 0.125592
95.0217 230.3488 42.89231 -0.1160882 0.9872672 0.1087521 192 192 192 255 0.068652 0.125588
-64.86914 161.5168 24.5499 -0.395062 0.7852279 0.4768051 192 192 192 255 0.068740 0.125592
-179.0639 169.0513 -112.7981 -0.3660051 0.8523947 -0.3734483 192 192 192 255 0.068784 0.125584
-84.32306 172.6124 3.48081 -0.3439487 0.6500783 0.6775674 192 192 192 255 0.068749 0.125588
-79.97674 -50.01089 302.0795 -0.3273446 0.3349724 0.8835378 192 192 192 255 0.068716 0.125621
-47.66081 -7.886235 288.8915 -0.2958817 0.7884446 0.5392674 192 192 192 255 0.068697 0.125617
234.1502 -64.2545 274.0758 0.4609457 -0.815567 0.3498278 192 192 192 255 0.068517 0.125607
320.1808 -8.259278 118.7969 0.9968539 0.05339979 0.05857176 192 192 192 255 0.068496 0.125596
312.7572 47.44598 83.68755 0.9415576 0.3368489 0.001480019 192 192 192 255 0.068507 0.125592
23.26484 -42.41618 -337.0219 -0.08965005 0.3493075 -0.9327096 192 192 192 255 0.068696 0.125580
-329.6125 -107.7288 -214.5247 -0.3144249 -0.9446625 -0.09354026 192 192 192 255 0.068878 0.125596
-334.8114 -83.32212 -98.58274 -0.847137 0.1877198 0.4971119 192 192 192 255 0.068904 0.125604
-312.0016 -49.08517 -81.32059 -0.6791416 0.5987933 0.4245154 192 192 192 255 0.068894 0.125603
144.8457 177.2159 -170.7042 0.6555261 0.163785 -0.7371974 192 192 192 255 0.068609 0.125580
209.1525 112.5572 200.6729 0.6243982 0.1808125 0.7598907 192 192 192 255 0.068559 0.125599
156.3703 241.2244 -27.52579 -0.3197314 0.9302123 0.1802139 192 192 192 255 0.068589 0.125583
66.44967 220.7845 -111.5183 -0.3547766 0.9349414 0.004275226 192 192 192 255 0.068643 0.125579
197.1589 211.3998 121.9092 -0.2859899 0.8775472 0.3848647 192 192 192 255 0.068557 0.125594
15.08501 195.9865 -141.9014 -0.2925994 0.8941886 -0.3388398 192 192 192 255 0.068664 0.125580
3 8 115 116 
3 57 116 118 
3 109 104 116 
3 116 104 118 
3 109 116 115 
3 57 118 171 
3 118 152 171 
3 171 152 117 
3 7 171 117 
3 118 104 152 
3 152 119 117 
3 117 119 114 
3 120 11 20 
3 122 121 120 
3 120 121 11 
3 9 122 120 
3 9 120 20 
3 124 122 21 
3 10 123 124 
3 22 127 126 
3 126 127 125 
3 129 125 127 
3 4 126 125 
3 4 125 153 
3 129 153 125 
3 24 153 129 
3 1 157 154 
3 23 127 157 
3 157 127 154 
3 22 154 127 
3 129 127 23 
3 3 128 155 
3 24 129 128 
3 128 129 155 
3 23 155 129 
3 3 155 156 
3 23 130 155 
3 155 130 156 
3 26 156 130 
3 23 132 130 
3 133 130 132 
3 1 131 157 
3 25 132 131 
3 131 132 157 
3 23 157 132 
3 25 133 132 
3 26 130 135 
3 135 130 134 
3 133 134 130 
3 0 135 134 
3 0 134 158 
3 133 158 134 
3 25 158 133 
3 9 20 159 
3 68 159 28 
3 18 28 137 
3 11 137 28 
3 28 159 11 
3 20 11 159 
3 68 28 174 
3 18 174 28 
3 174 18 136 
3 8 174 136 
3 8 136 115 
3 18 138 136 
3 115 136 109 
3 109 136 138 
3 7 117 160 
3 91 160 29 
3 27 29 140 
3 114 140 29 
3 29 160 114 
3 117 114 160 
3 91 29 178 
3 27 178 29 
3 178 27 139 
3 10 178 139 
3 10 139 123 
3 27 141 139 
3 123 139 124 
3 124 139 141 
3 161 142 143 
3 106 148 105 
3 2 144 101 
3 101 144 145 
3 146 162 181 
3 146 181 182 
3 100 145 161 
3 162 183 181 
3 162 142 183 
3 146 33 162 
3 143 142 162 
3 143 162 33 
3 97 163 96 
3 96 144 2 
3 96 163 144 
3 97 147 163 
3 184 163 146 
3 35 146 163 
3 147 35 163 
3 35 147 149 
3 149 147 164 
3 148 40 113 
3 111 113 164 
3 40 164 113 
3 40 149 164 
3 106 143 150 
3 143 165 150 
3 148 106 150 
3 150 165 43 
3 150 151 148 
3 43 151 150 
3 165 143 33 
3 146 34 33 
3 34 166 33 
3 165 33 166 
3 38 34 146 
3 166 34 38 
3 41 36 149 
3 149 36 35 
3 35 37 146 
3 37 38 146 
3 35 36 37 
3 37 39 38 
3 41 149 40 
3 42 41 40 
3 42 40 148 
3 42 148 151 
3 5 43 165 
3 5 151 43 
3 151 5 167 
3 167 42 151 
3 166 44 165 
3 5 165 44 
3 38 44 166 
3 44 38 45 
3 37 36 39 
3 168 36 41 
3 45 38 39 
3 168 45 39 
3 169 167 5 
3 169 42 167 
3 46 42 169 
3 47 48 168 
3 48 45 168 
3 47 6 48 
3 45 48 6 
3 41 42 49 
3 168 41 47 
3 47 41 49 
3 42 46 49 
3 46 169 30 
3 5 30 169 
3 30 5 44 
3 45 6 44 
3 6 47 30 
3 49 46 30 
3 30 47 49 
3 6 30 44 
3 25 50 158 
3 51 50 31 
3 0 158 51 
3 51 158 50 
3 0 51 52 
3 52 51 13 
3 13 51 31 
3 1 53 131 
3 54 53 12 
3 131 53 25 
3 25 53 54 
3 25 54 50 
3 12 55 54 
3 31 50 55 
3 55 50 54 
3 31 56 13 
3 13 56 7 
3 7 56 170 
3 55 170 31 
3 31 170 56 
3 12 170 55 
3 7 170 171 
3 12 171 170 
3 57 171 12 
3 58 57 12 
3 58 59 14 
3 14 59 172 
3 172 59 1 
3 1 59 53 
3 53 59 12 
3 58 12 59 
3 60 57 58 
3 8 116 60 
3 60 116 57 
3 8 60 14 
3 14 60 58 
3 22 64 154 
3 154 64 61 
3 65 61 64 
3 1 154 61 
3 61 172 1 
3 65 62 61 
3 61 62 172 
3 14 172 62 
3 4 63 126 
3 15 64 63 
3 126 63 22 
3 22 63 64 
3 65 64 15 
3 62 66 14 
3 65 66 62 
3 14 66 8 
3 8 66 173 
3 65 173 66 
3 15 173 65 
3 8 173 174 
3 67 174 15 
3 15 174 173 
3 68 174 67 
3 69 68 15 
3 15 68 67 
3 73 69 71 
3 71 69 70 
3 71 70 4 
3 4 70 63 
3 63 70 15 
3 69 15 70 
3 72 68 69 
3 9 159 72 
3 72 159 68 
3 9 72 73 
3 73 72 69 
3 74 21 32 
3 10 124 74 
3 74 124 21 
3 10 74 75 
3 75 74 32 
3 9 175 122 
3 21 122 16 
3 16 122 175 
3 32 21 16 
3 32 76 75 
3 75 76 176 
3 176 76 3 
3 3 76 77 
3 77 76 16 
3 32 16 76 
3 3 77 128 
3 78 77 16 
3 128 77 24 
3 24 77 78 
3 24 78 80 
3 16 79 78 
3 81 80 79 
3 79 80 78 
3 81 82 73 
3 73 82 9 
3 9 82 175 
3 79 175 81 
3 81 175 82 
3 16 175 79 
3 24 80 153 
3 83 80 81 
3 4 153 83 
3 83 153 80 
3 4 83 71 
3 71 83 73 
3 73 83 81 
3 26 87 156 
3 156 87 84 
3 88 84 87 
3 3 156 84 
3 84 176 3 
3 88 85 84 
3 84 85 176 
3 75 176 85 
3 0 86 135 
3 17 87 86 
3 135 86 26 
3 26 86 87 
3 88 87 17 
3 85 89 75 
3 88 89 85 
3 75 89 10 
3 10 89 177 
3 88 177 89 
3 17 177 88 
3 10 177 178 
3 90 178 17 
3 17 178 177 
3 91 178 90 
3 92 91 17 
3 17 91 90 
3 13 92 52 
3 52 92 93 
3 52 93 0 
3 0 93 86 
3 86 93 17 
3 92 17 93 
3 94 91 92 
3 7 160 94 
3 94 160 91 
3 7 94 13 
3 13 94 92 
3 147 95 164 
3 164 95 124 
3 97 95 147 
3 124 95 97 
3 124 97 122 
3 97 96 122 
3 179 98 2 
3 2 98 96 
3 96 98 122 
3 11 121 179 
3 122 98 121 
3 121 98 179 
3 109 138 180 
3 18 99 138 
3 138 99 180 
3 11 103 137 
3 18 137 103 
3 180 99 161 
3 161 99 100 
3 18 100 99 
3 101 100 18 
3 145 100 101 
3 101 103 102 
3 179 102 11 
3 11 102 103 
3 18 103 101 
3 2 101 102 
3 2 102 179 
3 152 105 119 
3 119 105 114 
3 104 19 152 
3 19 105 152 
3 19 106 105 
3 107 106 19 
3 143 106 107 
3 107 109 108 
3 180 108 109 
3 19 104 107 
3 107 104 109 
3 161 143 108 
3 108 143 107 
3 161 108 180 
3 27 110 141 
3 141 110 124 
3 27 140 112 
3 112 140 114 
3 124 110 164 
3 164 110 111 
3 112 111 27 
3 27 111 110 
3 113 111 112 
3 105 113 114 
3 112 114 113 
3 105 148 113 
3 145 144 182 
3 145 182 181 
3 182 184 146 
3 161 145 181 
3 161 181 183 
3 142 161 183 
3 144 184 182 
3 144 163 184 
3 39 36 168 
