ply
format ascii 1.0
comment VCGLIB generated
element vertex 214
property float x
property float y
property float z
property float nx
property float ny
property float nz
property uchar red
property uchar green
property uchar blue
property uchar alpha
property float texture_u
property float texture_v
element face 418
property list uchar int vertex_indices
end_header
310.9927 -61.86895 -114.1802 0.9720724 -0.2319424 0.03575138 192 192 192 255 0.068389 0.125515
-214.8158 175.2648 -115.8989 -0.594099 0.6556174 -0.4660604 192 192 192 255 0.068819 0.125489
-171.393 155.8912 148.168 -0.1378039 0.8043357 0.5779743 192 192 192 255 0.068790 0.125515
190.624 95.01151 -126.9993 0.2291593 0.9732816 0.01445687 192 192 192 255 0.068510 0.125498
-81.87061 -66.28281 94.66968 -0.07370593 -0.9744122 0.21234 192 192 192 255 0.068693 0.125528
-214.8868 -41.33503 -86.85474 -0.478849 -0.7532057 -0.4509821 192 192 192 255 0.068816 0.125501
-190.1909 159.2466 -156.6208 -0.6447985 0.006489822 -0.7643251 192 192 192 255 0.068789 0.125488
275.4728 -77.15575 4.192383 -0.1212532 -0.9920188 -0.03458857 192 192 192 255 0.068417 0.125526
302.2536 12.18754 -173.4858 0.8858502 0.1414791 -0.4418746 192 192 192 255 0.068396 0.125504
237.1046 96.1183 -203.1709 0.1994082 0.8635815 -0.4631019 192 192 192 255 0.068455 0.125493
11.48981 -57.18078 168.1594 -0.2861412 -0.9202145 0.2670738 192 192 192 255 0.068607 0.125534
-106.8317 -62.53619 95.3623 -0.09265295 -0.8976055 0.4309523 192 192 192 255 0.068714 0.125529
-119.9586 -33.2344 136.5818 -0.2118889 -0.6018002 0.7700258 192 192 192 255 0.068723 0.125534
99.67621 -68.18472 -163.8992 -0.2196395 -0.7288365 -0.6485029 192 192 192 255 0.068533 0.125501
297.2409 -50.44826 -176.2571 0.7198371 -0.2927191 -0.6294045 192 192 192 255 0.068401 0.125507
-245.2773 182.0472 -66.50659 -0.5427806 0.7549653 -0.36799 192 192 192 255 0.068839 0.125493
215.9502 59.89556 188.5251 0.7492612 0.39509 0.5315182 192 192 192 255 0.068465 0.125529
206.4839 108.2893 -36.42017 0.561177 0.8273233 0.02483184 192 192 192 255 0.068507 0.125504
36.49579 171.4254 98.28467 0.4336286 0.4482137 0.7817101 192 192 192 255 0.068643 0.125515
-73.81909 152.1196 -166.7922 -0.001109927 0.6783574 -0.7347313 192 192 192 255 0.068697 0.125488
165.5634 156.1289 -37.87329 0.7850326 0.6078569 -0.119306 192 192 192 255 0.068516 0.125500
-74.36615 231.1344 50.27515 0.1372901 0.8608072 0.4900637 192 192 192 255 0.068751 0.125502
-131.8668 247.018 -12.5686 -0.3238277 0.9334971 0.1540091 192 192 192 255 0.068781 0.125496
36.71088 65.41094 244.2366 -0.2395344 0.09687815 0.9660424 192 192 192 255 0.068591 0.125533
-313.8875 135.4803 20.12402 -0.8774359 0.1600969 -0.4521895 192 192 192 255 0.068876 0.125504
-271.8807 -49.29941 33.18433 -0.3763585 -0.9260678 0.02743725 192 192 192 255 0.068868 0.125518
-126.3426 148.604 -187.6914 -0.2420124 0.218178 -0.945425 192 192 192 255 0.068729 0.125486
-78.7265 72.53294 188.7456 -0.368431 -0.2218138 0.9028052 192 192 192 255 0.068694 0.125531
271.0687 -76.38931 99.76855 0.5026909 -0.852236 0.1448991 192 192 192 255 0.068418 0.125534
258.5743 91.79221 -195.9954 0.5015922 0.7353164 -0.4557577 192 192 192 255 0.068430 0.125495
270.6663 68.98082 27.29126 0.6459443 0.7390507 0.1912072 192 192 192 255 0.068425 0.125515
177.2213 102.6123 -195.9299 0.0347231 0.8486797 -0.5277662 192 192 192 255 0.068501 0.125491
-67.88989 235.6376 -126.9595 0.1920849 0.8421729 -0.5038335 192 192 192 255 0.068719 0.125489
-220.2589 184.7002 -61.13501 -0.5428022 0.7950037 -0.2708045 192 192 192 255 0.068814 0.125493
95.30951 126.2627 100.6226 0.4740492 0.5508538 0.6869043 192 192 192 255 0.068574 0.125515
-56.59839 147.4543 183.8506 0.2406688 0.5771064 0.7804017 192 192 192 255 0.068697 0.125516
-210.3253 211.6077 -64.58325 -0.8995963 0.2833141 -0.3323548 192 192 192 255 0.068815 0.125493
-180.2719 -57.47711 106.7698 -0.188155 -0.79059 0.5827223 192 192 192 255 0.068803 0.125531
-286.6877 174.6644 109.6357 -0.3985314 0.7432883 0.5373037 192 192 192 255 0.068880 0.125513
-237.0013 147.2252 152.4834 -0.440253 0.1652928 0.8825279 192 192 192 255 0.068855 0.125523
-261.4356 1.030822 109.2854 -0.6687796 -0.2869271 0.6858621 192 192 192 255 0.068857 0.125527
-245.95 -0.956073 114.825 -0.3166497 -0.3270504 0.8903769 192 192 192 255 0.068847 0.125529
-77.67926 -23.15413 -157.7568 -0.06841901 -0.2811224 -0.9572299 192 192 192 255 0.068666 0.125496
-99.87491 -36.63778 -151.9104 -0.1626278 -0.61783 -0.7693103 192 192 192 255 0.068689 0.125497
-53.51465 -48.31741 -147.7498 -0.08715358 -0.8236159 -0.5604117 192 192 192 255 0.068657 0.125498
-176.5664 -34.89843 -124.301 -0.3484338 -0.6953256 -0.6285828 192 192 192 255 0.068762 0.125499
-206.8679 -17.33677 -112.4878 -0.644258 -0.329274 -0.6902972 192 192 192 255 0.068797 0.125498
-134.3725 -23.8554 -150.1079 -0.2811548 -0.3844039 -0.8793097 192 192 192 255 0.068713 0.125496
21.80975 -47.98813 -25.41626 -0.003932544 -0.9995663 -0.02918547 192 192 192 255 0.068606 0.125514
-2.949951 -51.62912 -83.8374 -0.06257294 -0.9947098 0.08146805 192 192 192 255 0.068597 0.125508
47.19879 -67.59966 -145.9014 -0.1737664 -0.9570683 -0.2320035 192 192 192 255 0.068577 0.125501
185.9531 -54.48997 -124.7947 -0.01509322 -0.986602 0.1624459 192 192 192 255 0.068481 0.125510
106.5468 -71.91442 -137.3794 0.004952776 -0.9888048 0.1491323 192 192 192 255 0.068531 0.125505
143.2821 -75.50375 -165.3772 -0.02473647 -0.9990642 -0.03547914 192 192 192 255 0.068505 0.125504
202.7723 -69.77556 -204.2283 -0.133205 -0.7589678 -0.6373574 192 192 192 255 0.068464 0.125501
301.1304 23.34488 -91.0083 0.9442558 0.323048 0.06341165 192 192 192 255 0.068387 0.125511
294.5179 43.30237 -173.8416 0.8768789 0.3197587 -0.3589399 192 192 192 255 0.068398 0.125503
269.8424 88.3587 -182.7725 0.6442887 0.7394857 -0.1950719 192 192 192 255 0.068418 0.125498
300.8915 -19.10868 -178.0999 0.7750794 -0.04654475 -0.6301473 192 192 192 255 0.068398 0.125505
240.9938 57.59162 -217.0854 0.3478318 0.1053079 -0.9316241 192 192 192 255 0.068440 0.125495
306.1091 -71.5545 -129.644 0.6059679 -0.7862676 -0.1207735 192 192 192 255 0.068395 0.125514
307.7005 -57.56796 -149.959 0.8771958 -0.364275 -0.3127798 192 192 192 255 0.068393 0.125511
284.1428 -64.35387 -179.1926 0.4966747 -0.6423976 -0.5836435 192 192 192 255 0.068411 0.125507
6.672974 280.5829 -60.00195 0.6203031 0.7204273 -0.3101751 192 192 192 255 0.068656 0.125488
-39.19604 292.9305 -78.24146 0.2532837 0.6525437 -0.7141667 192 192 192 255 0.068716 0.125486
19.04462 266.262 -50.09351 0.7736284 0.5943194 -0.2197356 192 192 192 255 0.068642 0.125491
-57.1601 309.2221 -69.45264 0.05642987 0.8425538 -0.535648 192 192 192 255 0.068740 0.125486
-295.8577 64.76259 -9.415771 -0.8404647 -0.09820065 -0.5328938 192 192 192 255 0.068865 0.125505
-189.4648 172.3862 -155.3289 -0.4378938 0.6589285 -0.6116064 192 192 192 255 0.068790 0.125486
-300.2963 183.6647 79.95996 -0.4082573 0.8732351 0.2660573 192 192 192 255 0.068882 0.125508
-222.4707 176.3995 99.61548 -0.2199316 0.9013629 0.3730618 192 192 192 255 0.068824 0.125508
274.8888 77.74162 -66.65063 0.6950484 0.7176845 0.04285625 192 192 192 255 0.068423 0.125507
-2.619019 92.09158 224.4412 -0.1580787 0.4800887 0.8628592 192 192 192 255 0.068634 0.125530
17.14142 91.46372 224.271 0.1278544 0.8810641 0.4553892 192 192 192 255 0.068619 0.125528
73.93213 94.75711 146.4048 0.3457329 0.8373468 0.4234609 192 192 192 255 0.068593 0.125518
216.5245 70.70058 154.1326 0.3911798 0.9017729 0.1838042 192 192 192 255 0.068470 0.125525
272.5549 11.82867 85.72632 0.8798719 0.3201076 0.3512216 192 192 192 255 0.068418 0.125523
271.2414 40.05517 57.05371 0.8670799 0.3633316 0.3408266 192 192 192 255 0.068421 0.125520
285.0359 43.76207 24.52979 0.8962898 0.382834 0.2238364 192 192 192 255 0.068410 0.125517
-165.6965 177.2198 -130.9111 -0.2955351 0.7293823 -0.6169769 192 192 192 255 0.068778 0.125489
-98.85077 150.8661 -189.9167 0.06038859 0.5591751 -0.8268473 192 192 192 255 0.068711 0.125485
36.69 132.6944 -162.9294 0.2238521 0.4826561 -0.8467191 192 192 192 255 0.068621 0.125490
229.6023 88.78181 -86.20728 0.2689399 0.963137 -0.006206054 192 192 192 255 0.068496 0.125503
225.092 80.75487 13.42212 0.3856902 0.9083998 0.1614094 192 192 192 255 0.068504 0.125509
153.4468 120.4882 45.29443 0.6618376 0.624582 0.41457 192 192 192 255 0.068527 0.125509
176.1528 121.5734 -38.57129 0.6885342 0.7248034 -0.02409649 192 192 192 255 0.068507 0.125502
-120.1487 138.0618 176.9592 -0.1855618 0.4432452 0.8769838 192 192 192 255 0.068749 0.125517
-76.38617 204.545 145.8096 0.0340038 0.7370971 0.6749308 192 192 192 255 0.068737 0.125512
-148.0938 195.1378 116.8391 -0.3445373 0.6488003 0.6784926 192 192 192 255 0.068803 0.125512
64.59833 119.0253 135.2524 0.4104267 0.6978394 0.587001 192 192 192 255 0.068603 0.125517
186.9333 105.3134 36.32031 0.5910786 0.6747825 0.4419217 192 192 192 255 0.068524 0.125509
137.2113 135.5729 -101.0269 0.6615544 0.5710918 -0.4860041 192 192 192 255 0.068535 0.125494
38.22278 203.8475 -150.5256 0.3364136 0.6704329 -0.6613212 192 192 192 255 0.068643 0.125487
-2.682068 183.1862 -161.2529 0.09519746 0.3016016 -0.9486696 192 192 192 255 0.068668 0.125488
35.2652 155.275 -164.7549 0.2006156 0.1686272 -0.9650483 192 192 192 255 0.068631 0.125489
-158.6828 238.1366 53.90356 -0.4100539 0.8747564 0.2581804 192 192 192 255 0.068819 0.125504
-99.78259 239.6712 36.37378 -0.1294044 0.8857259 0.4458073 192 192 192 255 0.068772 0.125500
-147.0872 232.9734 89.34814 -0.3390478 0.830582 0.441792 192 192 192 255 0.068810 0.125509
-29.95636 192.1611 136.3442 0.4284569 0.6487946 0.6288803 192 192 192 255 0.068691 0.125513
88.55695 182.2631 43.97754 0.4491785 0.8372214 0.3119279 192 192 192 255 0.068622 0.125503
17.03058 198.0938 70.67041 0.3034272 0.826243 0.4746099 192 192 192 255 0.068671 0.125505
158.8703 159.468 -0.246826 0.7356209 0.6493918 0.1927495 192 192 192 255 0.068527 0.125504
51.58362 204.7206 -70.60352 0.572567 0.7901471 -0.2187113 192 192 192 255 0.068641 0.125493
-125.3603 242.2843 -150.699 -0.1637529 0.4733726 -0.8655076 192 192 192 255 0.068757 0.125487
-112.3699 251.8615 -110.1465 -0.09354033 0.9465533 -0.3086861 192 192 192 255 0.068757 0.125489
-170.0071 252.0574 -116.7661 -0.5356038 0.702969 -0.467935 192 192 192 255 0.068795 0.125488
-122.2482 249.2088 -62.64648 -0.4155842 0.9082993 -0.04777281 192 192 192 255 0.068773 0.125491
-79.41992 303.717 -27.10034 -0.3762891 0.8684861 0.322705 192 192 192 255 0.068772 0.125492
-32.38184 216.9913 57.56958 0.1479805 0.8066136 0.5722556 192 192 192 255 0.068712 0.125503
-90.06268 263.6372 19.46777 -0.3488777 0.6880729 0.6362704 192 192 192 255 0.068766 0.125498
28.30902 257.2561 -10.19629 0.6976693 0.7041239 0.1321636 192 192 192 255 0.068621 0.125499
14.46637 260.3027 7.714844 0.492975 0.7127735 0.4989285 192 192 192 255 0.068647 0.125501
2.813599 219.6808 -109.9036 0.4153994 0.8170444 -0.3998522 192 192 192 255 0.068675 0.125490
-70.93481 303.2646 -67.87866 -0.4325379 0.6873894 -0.5834438 192 192 192 255 0.068757 0.125487
85.86481 140.5955 -148.5605 0.4647411 0.1628486 -0.8703425 192 192 192 255 0.068598 0.125488
127.9929 173.6075 -100.2791 0.6535785 0.6315196 -0.4171549 192 192 192 255 0.068560 0.125492
-200.6703 248.2255 -67.93555 -0.6778792 0.7172557 -0.1613201 192 192 192 255 0.068817 0.125492
-207.4453 210.5691 -4.886719 -0.7040842 0.6881779 0.1751474 192 192 192 255 0.068827 0.125498
-19.47357 4.824208 -164.3135 -0.07267825 -0.1798257 -0.98101 192 192 192 255 0.068610 0.125496
166.4854 -34.43851 -207.9446 -0.2674097 -0.2158406 -0.9390979 192 192 192 255 0.068481 0.125496
-75.25342 81.73929 -182.4956 -0.07672573 -0.1925587 -0.9782814 192 192 192 255 0.068662 0.125492
-106.4742 28.53966 -164.7561 -0.1945626 -0.1884679 -0.9626138 192 192 192 255 0.068689 0.125494
-288.3877 -35.34024 8.06958 -0.8278712 -0.5081866 -0.2374357 192 192 192 255 0.068876 0.125512
165.0178 117.875 -104.8289 0.5784238 0.7088159 -0.4037401 192 192 192 255 0.068519 0.125496
-84.77625 170.619 162.1819 -0.03451224 0.6619189 0.7487805 192 192 192 255 0.068738 0.125514
-167.1469 202.5195 94.18433 -0.4335681 0.7857448 0.4411618 192 192 192 255 0.068817 0.125509
1.242554 144.6334 114.167 0.5498134 0.471077 0.6897766 192 192 192 255 0.068655 0.125516
70.14984 163.9666 -149.0854 0.4563032 0.3179276 -0.8310893 192 192 192 255 0.068604 0.125488
-56.7287 174.795 -169.7183 -0.06489477 0.3299507 -0.941765 192 192 192 255 0.068700 0.125488
-163.1117 211.6097 -126.5237 -0.6080046 0.07406261 -0.7904715 192 192 192 255 0.068786 0.125488
-16.78949 -25.55833 196.3848 -0.437911 -0.2279857 0.8696301 192 192 192 255 0.068620 0.125538
66.64728 117.7668 -174.4197 0.003707577 0.4179987 -0.9084401 192 192 192 255 0.068585 0.125490
-36.1109 125.1348 -188.9268 0.07452291 0.09003488 -0.9931465 192 192 192 255 0.068652 0.125488
163.3351 -53.58727 -35.47534 -0.09118403 -0.9947866 -0.04566413 192 192 192 255 0.068504 0.125517
117.8761 -54.16482 -51.84497 -0.002543177 -0.9924055 0.1229831 192 192 192 255 0.068532 0.125514
14.8075 -65.11491 130.6052 -0.07833944 -0.9961798 0.03858617 192 192 192 255 0.068610 0.125529
-120.0509 -51.59274 -81.97583 -0.03915824 -0.9932838 -0.1088756 192 192 192 255 0.068732 0.125506
293.6732 21.50817 21.26001 0.9489867 0.2647888 0.171205 192 192 192 255 0.068402 0.125519
300.7497 -41.85721 35.78906 0.9764442 -0.1301514 0.1720966 192 192 192 255 0.068393 0.125524
305.249 11.2309 -124.7336 0.9820406 0.1885072 0.007826797 192 192 192 255 0.068389 0.125509
305.9728 -52.72724 -44.82617 0.9828411 -0.1594258 0.0927726 192 192 192 255 0.068390 0.125519
-324.4335 141.7384 48.72803 -0.9803333 0.1069946 -0.165828 192 192 192 255 0.068884 0.125508
-312.9425 60.14864 21.97754 -0.9471022 -0.139548 -0.2890047 192 192 192 255 0.068880 0.125508
-295.0838 185.2231 43.4519 -0.3261406 0.938064 -0.1169116 192 192 192 255 0.068876 0.125504
-322.9951 158.1734 75.07007 -0.9195199 0.2111457 0.3315127 192 192 192 255 0.068888 0.125511
-288.9565 164.4048 114.4622 -0.6512745 0.2070048 0.7300621 192 192 192 255 0.068882 0.125516
-274.9124 41.07148 102.1848 -0.8300337 -0.2063186 0.5181474 192 192 192 255 0.068871 0.125522
-286.639 -39.469 26.69824 -0.803135 -0.5834939 0.1204536 192 192 192 255 0.068877 0.125515
-277.0817 -43.43839 3.959717 -0.4806541 -0.8309825 -0.2800711 192 192 192 255 0.068868 0.125513
-284.2975 -25.18612 -8.678711 -0.8082118 -0.3271004 -0.4896927 192 192 192 255 0.068870 0.125510
-187.7816 -48.99218 -75.8042 -0.1004053 -0.9623274 -0.252675 192 192 192 255 0.068794 0.125505
-135.6228 -65.22522 78.41699 -0.04596825 -0.9974719 0.05419194 192 192 192 255 0.068751 0.125527
-133.9315 52.48471 -162.0911 -0.3023326 -0.1689181 -0.9381161 192 192 192 255 0.068726 0.125493
-171.5536 -9.195039 133.7744 -0.2598345 -0.3452905 0.9018096 192 192 192 255 0.068785 0.125531
-155.5959 109.1359 177.3123 -0.317875 -0.1831017 0.9302846 192 192 192 255 0.068782 0.125529
-20.43427 82.18557 220.0168 -0.3864822 -0.03919477 0.9214637 192 192 192 255 0.068644 0.125530
-90.0434 116.2672 191.9934 -0.2317062 0.1594108 0.9596356 192 192 192 255 0.068715 0.125525
98.54236 52.02499 245.2209 0.1694315 0.09497931 0.9809546 192 192 192 255 0.068544 0.125533
124.4726 -29.74858 240.9319 0.215593 -0.05281113 0.9750542 192 192 192 255 0.068513 0.125538
200.5404 -5.631309 205.7485 0.6262438 -0.05169063 0.7779118 192 192 192 255 0.068447 0.125534
203.5561 53.82814 203.0593 0.620313 0.2244339 0.7515592 192 192 192 255 0.068462 0.125531
124.3442 -61.19869 235.842 0.02856055 -0.3569991 0.933668 192 192 192 255 0.068515 0.125541
224.2045 62.36365 -217.6726 -0.08403274 0.1483913 -0.985352 192 192 192 255 0.068453 0.125494
231.7286 -73.06827 77.32446 -0.082455 -0.9947065 -0.06132167 192 192 192 255 0.068452 0.125531
287.2952 -78.21739 8.667725 0.4934732 -0.8672602 0.06590903 192 192 192 255 0.068408 0.125527
265.7399 -71.16682 -179.584 0.1513781 -0.9375932 -0.3130555 192 192 192 255 0.068424 0.125508
-27.77802 283.5619 9 0.166034 0.8085874 0.5644637 192 192 192 255 0.068706 0.125500
273.1205 -68.7974 108.0366 0.8267669 -0.3612343 0.4312381 192 192 192 255 0.068415 0.125533
281.4442 -35.85443 103.4102 0.9005697 0.02922448 0.4337281 192 192 192 255 0.068406 0.125527
149.7051 -78.02412 225.5881 0.2861308 -0.6589509 0.6956385 192 192 192 255 0.068498 0.125542
222.959 -77.91921 174.3787 0.531884 -0.7054251 0.4684814 192 192 192 255 0.068447 0.125539
115.1945 -82.16689 220.6892 -0.06885471 -0.8877546 0.4551383 192 192 192 255 0.068520 0.125542
85.50775 -78.97471 212.0139 -0.3099525 -0.9323932 0.1859366 192 192 192 255 0.068541 0.125541
90.34332 -74.37009 222.9229 -0.2904898 -0.6035744 0.742505 192 192 192 255 0.068538 0.125542
116.9789 -78.74625 192.4214 -0.08867349 -0.9887546 -0.1204213 192 192 192 255 0.068527 0.125537
-37.32709 -59.72736 132.5361 -0.2105619 -0.8966026 0.3895735 192 192 192 255 0.068649 0.125531
-59.36945 -25.03516 174.0554 -0.4174214 -0.5289369 0.7389082 192 192 192 255 0.068658 0.125537
-263.9713 -46.74591 68.66431 -0.5980719 -0.7285188 0.3340215 192 192 192 255 0.068866 0.125523
-256.8435 -38.64314 92.15674 -0.5792481 -0.5719254 0.5808383 192 192 192 255 0.068859 0.125527
-158.0476 -49.29675 119.6594 -0.1193544 -0.6598494 0.7418581 192 192 192 255 0.068769 0.125533
95.39722 -29.14227 243.0371 -0.1308173 -0.2086907 0.969193 192 192 192 255 0.068534 0.125538
26.01105 -47.76287 211.8613 -0.4285068 -0.549835 0.7169822 192 192 192 255 0.068587 0.125539
-84.39594 -65.36185 66.59497 0.02205984 -0.996978 -0.07448667 192 192 192 255 0.068697 0.125524
296.7241 12.45232 -14.98462 0.9935429 0.09438451 0.06296125 192 192 192 255 0.068394 0.125516
308.8075 -27.74868 -147.6616 0.9931169 0.0371236 -0.1110891 192 192 192 255 0.068391 0.125509
-314.4442 174.0529 55.86353 -0.7784634 0.6113825 -0.1421483 192 192 192 255 0.068884 0.125507
-316.0505 66.58919 48.66504 -0.9378068 -0.2140847 0.2732876 192 192 192 255 0.068885 0.125511
-194.6006 18.75152 -134.1816 -0.5621516 -0.1703949 -0.8092906 192 192 192 255 0.068790 0.125494
-176.5179 135.9277 174.0149 -0.2352866 0.1744275 0.9561461 192 192 192 255 0.068814 0.125525
75.95282 71.41712 246.5618 0.07149499 0.4567869 0.8866985 192 192 192 255 0.068565 0.125532
143.0784 3.065979 236.4993 0.3413426 -0.007515344 0.9399089 192 192 192 255 0.068502 0.125536
52.23157 2.083417 -174.0327 -0.1714124 -0.05571541 -0.9836227 192 192 192 255 0.068556 0.125494
233.3795 84.69057 -211.6519 0.1360804 0.405471 -0.9039222 192 192 192 255 0.068453 0.125493
-184.7687 -61.8574 91.67651 -0.1397827 -0.9757687 0.1683341 192 192 192 255 0.068809 0.125529
-212.0128 150.5968 161.6272 -0.2224116 0.4854322 0.845511 192 192 192 255 0.068839 0.125522
5.20459 276.4783 -9.290527 0.5025353 0.8289222 0.2456547 192 192 192 255 0.068643 0.125498
-206.1247 95.14252 -132.124 -0.7708499 -0.04459532 -0.6354539 192 192 192 255 0.068802 0.125492
-234.7934 184.403 16.021 -0.3245694 0.9440944 0.05779802 192 192 192 255 0.068831 0.125500
160.4525 73.71201 219.9316 0.3363142 0.6893182 0.6416643 192 192 192 255 0.068508 0.125530
174.0745 100.5591 -113.9321 0.4363879 0.8657889 -0.2448986 192 192 192 255 0.068520 0.125498
-204.3326 197.7342 89.84082 -0.4365718 0.8304548 0.346049 192 192 192 255 0.068821 0.125507
-59.81421 123.4289 194.7605 0.02507938 0.5006898 0.8652634 192 192 192 255 0.068691 0.125517
122.4714 158.1172 67.82617 0.577665 0.5786065 0.5757757 192 192 192 255 0.068564 0.125511
-71.55896 312.3713 -51.91309 -0.2625316 0.9635936 -0.05064198 192 192 192 255 0.068760 0.125488
80.47833 188.6549 -24.40356 0.5744483 0.8181682 -0.02469782 192 192 192 255 0.068617 0.125498
54.41602 -31.7387 -172.6953 -0.329278 -0.4002845 -0.8551891 192 192 192 255 0.068557 0.125497
225.0317 -53.71238 -217.6638 0.1366187 -0.3816254 -0.9141648 192 192 192 255 0.068449 0.125499
79.72748 100.7408 -178.5764 -0.1080594 0.07213193 -0.9915242 192 192 192 255 0.068562 0.125490
-232.7936 9.069994 -88.89233 -0.7825376 -0.1372531 -0.6072861 192 192 192 255 0.068822 0.125500
-56.90698 161.0569 164.4836 0.33374 0.6486897 0.6839732 192 192 192 255 0.068704 0.125515
-99.23883 159.4833 176.679 -0.1485915 0.5738421 0.8053731 192 192 192 255 0.068740 0.125515
-194.6006 18.75152 -134.1816 -0.5621516 -0.1703949 -0.8092906 192 192 192 255 0.068778 0.125496
-133.9315 52.48471 -162.0911 -0.3023326 -0.1689181 -0.9381161 192 192 192 255 0.068720 0.125494
-206.8679 -17.33677 -112.4878 -0.644258 -0.329274 -0.6902972 192 192 192 255 0.068803 0.125498
3 23 72 155 
3 23 155 176 
3 23 130 180 
3 180 130 181 
3 23 176 130 
3 80 131 132 
3 80 132 120 
3 118 120 132 
3 132 131 207 
3 48 134 133 
3 48 133 135 
3 163 135 133 
3 135 4 182 
3 48 182 136 
3 48 135 182 
3 168 137 76 
3 168 138 137 
3 137 138 183 
3 183 139 55 
3 137 183 55 
3 56 139 8 
3 55 139 56 
3 8 139 184 
3 183 140 139 
3 139 140 184 
3 0 184 140 
3 138 140 183 
3 138 164 140 
3 0 140 164 
3 122 186 142 
3 142 186 141 
3 144 141 186 
3 142 141 24 
3 24 141 185 
3 144 185 141 
3 38 69 145 
3 145 69 144 
3 143 185 69 
3 69 185 144 
3 144 146 145 
3 177 146 144 
3 147 186 122 
3 144 186 177 
3 177 186 147 
3 5 148 149 
3 151 150 136 
3 193 150 151 
3 25 150 193 
3 5 150 25 
3 5 25 148 
3 4 151 182 
3 151 136 182 
3 80 26 68 
3 6 68 26 
3 152 6 26 
3 152 187 6 
3 120 152 26 
3 80 120 26 
3 166 203 107 
3 41 153 188 
3 153 154 188 
3 27 155 156 
3 27 156 154 
3 154 156 188 
3 156 155 72 
3 73 72 189 
3 23 189 72 
3 23 157 189 
3 23 180 157 
3 157 180 190 
3 198 190 160 
3 189 157 198 
3 198 157 190 
3 190 180 158 
3 159 160 190 
3 169 158 161 
3 161 158 180 
3 190 158 159 
3 159 158 169 
3 206 162 59 
3 119 162 206 
3 162 192 59 
3 162 191 207 
3 119 191 162 
3 207 192 162 
3 131 192 207 
3 131 31 192 
3 9 192 31 
3 7 164 163 
3 163 164 28 
3 164 7 60 
3 165 60 7 
3 164 60 0 
3 51 165 7 
3 51 7 133 
3 133 7 163 
3 51 133 134 
3 109 166 107 
3 203 166 195 
3 166 111 195 
3 110 195 111 
3 164 167 28 
3 159 167 168 
3 28 167 170 
3 167 159 170 
3 167 138 168 
3 167 164 138 
3 159 169 170 
3 174 135 163 
3 28 170 163 
3 171 163 170 
3 174 163 171 
3 171 172 174 
3 170 169 171 
3 181 176 10 
3 181 10 173 
3 172 173 10 
3 10 174 172 
3 175 4 135 
3 175 135 10 
3 10 135 174 
3 4 175 176 
3 176 175 10 
3 178 177 193 
3 25 193 177 
3 178 41 40 
3 37 178 193 
3 37 41 178 
3 179 41 37 
3 176 11 4 
3 4 11 151 
3 176 12 11 
3 11 37 151 
3 151 37 193 
3 11 179 37 
3 12 179 11 
3 178 146 177 
3 145 40 39 
3 145 146 40 
3 146 178 40 
3 194 41 188 
3 39 41 194 
3 39 40 41 
3 43 42 44 
3 47 42 43 
3 150 5 136 
3 44 136 5 
3 5 46 45 
3 47 45 211 
3 211 45 46 
3 44 5 43 
3 47 43 45 
3 45 43 5 
3 136 49 48 
3 49 52 134 
3 49 134 48 
3 136 44 49 
3 50 52 49 
3 44 50 49 
3 13 50 42 
3 44 42 50 
3 13 42 118 
3 52 53 51 
3 51 134 52 
3 53 165 51 
3 53 54 165 
3 53 13 54 
3 50 53 52 
3 13 53 50 
3 55 56 57 
3 29 57 56 
3 29 56 8 
3 57 29 9 
3 9 29 192 
3 59 192 29 
3 8 58 59 
3 29 8 59 
3 14 61 60 
3 0 60 61 
3 60 62 14 
3 60 165 62 
3 8 184 58 
3 58 184 61 
3 0 61 184 
3 58 61 14 
3 59 58 14 
3 59 14 206 
3 112 64 63 
3 110 65 195 
3 63 195 65 
3 66 63 64 
3 203 63 66 
3 203 66 113 
3 195 63 203 
3 187 196 6 
3 122 142 149 
3 24 67 142 
3 149 142 208 
3 208 142 67 
3 67 24 196 
3 196 24 1 
3 196 208 67 
3 6 1 68 
3 196 1 6 
3 24 185 15 
3 1 24 15 
3 69 197 143 
3 143 197 15 
3 69 38 70 
3 69 70 197 
3 137 57 78 
3 78 57 71 
3 30 78 71 
3 75 71 83 
3 30 71 75 
3 137 55 57 
3 3 82 57 
3 83 71 82 
3 57 82 71 
3 156 72 201 
3 86 156 201 
3 188 156 86 
3 194 188 86 
3 194 86 2 
3 145 39 194 
3 38 145 194 
3 38 194 70 
3 2 70 194 
3 198 74 73 
3 73 189 198 
3 201 73 74 
3 201 72 73 
3 16 198 160 
3 16 75 198 
3 75 83 74 
3 75 74 198 
3 16 160 76 
3 76 160 168 
3 159 168 160 
3 30 75 16 
3 30 16 77 
3 16 76 77 
3 76 137 77 
3 77 137 78 
3 30 77 78 
3 9 3 57 
3 3 31 199 
3 31 81 199 
3 9 31 3 
3 31 131 81 
3 19 80 79 
3 81 80 19 
3 131 80 81 
3 80 68 79 
3 79 68 1 
3 185 143 15 
3 79 1 33 
3 15 33 1 
3 33 15 197 
3 3 199 82 
3 17 82 199 
3 17 83 82 
3 85 20 101 
3 85 101 84 
3 35 210 201 
3 210 86 201 
3 97 88 87 
3 87 88 124 
3 2 86 210 
3 210 200 2 
3 200 70 2 
3 89 201 74 
3 89 35 201 
3 18 34 202 
3 83 90 74 
3 202 84 101 
3 115 20 91 
3 85 91 20 
3 115 127 92 
3 81 94 114 
3 92 93 103 
3 129 128 79 
3 79 128 19 
3 81 19 94 
3 19 128 94 
3 103 129 105 
3 116 117 95 
3 97 96 95 
3 96 22 95 
3 20 204 101 
3 101 204 99 
3 87 21 97 
3 100 108 98 
3 98 108 87 
3 87 108 21 
3 97 21 96 
3 99 98 18 
3 99 100 98 
3 18 202 99 
3 101 99 202 
3 115 204 20 
3 204 115 102 
3 102 115 92 
3 112 102 92 
3 103 105 104 
3 92 32 112 
3 92 103 32 
3 32 103 104 
3 22 106 116 
3 95 22 116 
3 105 116 104 
3 116 106 104 
3 106 203 113 
3 106 22 203 
3 107 203 22 
3 22 109 107 
3 110 204 65 
3 21 108 109 
3 109 108 166 
3 21 109 96 
3 96 109 22 
3 108 100 166 
3 111 100 99 
3 166 100 111 
3 99 110 111 
3 65 204 102 
3 102 112 65 
3 65 112 63 
3 32 104 64 
3 104 113 64 
3 64 113 66 
3 112 32 64 
3 106 113 104 
3 123 199 114 
3 197 117 36 
3 197 36 33 
3 129 116 105 
3 129 36 116 
3 70 200 117 
3 70 117 197 
3 204 110 99 
3 153 41 179 
3 179 12 153 
3 155 27 176 
3 12 176 27 
3 27 154 153 
3 27 153 12 
3 181 130 176 
3 181 173 161 
3 169 161 173 
3 181 161 180 
3 171 173 172 
3 169 173 171 
3 206 14 62 
3 62 165 206 
3 54 206 165 
3 191 205 118 
3 118 205 13 
3 205 191 119 
3 13 206 54 
3 205 119 13 
3 13 119 206 
3 191 132 207 
3 191 118 132 
3 118 42 120 
3 47 121 42 
3 121 120 42 
3 211 212 47 
3 120 121 212 
3 47 212 121 
3 187 208 196 
3 149 208 213 
3 187 213 208 
3 149 213 5 
3 148 147 122 
3 148 25 147 
3 147 25 177 
3 122 149 148 
3 125 97 95 
3 91 85 17 
3 84 90 85 
3 85 90 17 
3 87 209 98 
3 87 124 209 
3 97 125 88 
3 34 18 126 
3 209 126 18 
3 209 18 98 
3 202 34 84 
3 91 17 123 
3 129 93 128 
3 103 93 129 
3 92 127 93 
3 115 91 127 
3 116 36 117 
3 95 117 125 
3 210 35 124 
3 124 35 209 
3 88 210 124 
3 210 88 200 
3 200 88 125 
3 126 89 34 
3 35 89 209 
3 209 89 126 
3 90 84 34 
3 90 34 89 
3 114 94 127 
3 94 93 127 
3 94 128 93 
3 123 114 91 
3 91 114 127 
3 200 125 117 
3 123 17 199 
3 90 83 17 
3 90 89 74 
3 199 81 114 
3 36 129 33 
3 33 129 79 
