ply
format ascii 1.0
comment VCGLIB generated
element vertex 229
property float x
property float y
property float z
property float nx
property float ny
property float nz
property uchar red
property uchar green
property uchar blue
property uchar alpha
property float texture_u
property float texture_v
element face 448
property list uchar int vertex_indices
end_header
579.6848 -27.50597 -53.46436 0.9970013 0.05412322 0.05530883 192 192 192 255 0.068389 0.125515
-184.9374 300.5584 -70.20654 -0.696371 0.6015339 -0.391439 192 192 192 255 0.068757 0.125487
-236.719 126.0054 117.3369 -0.2374304 0.6343278 0.7357005 192 192 192 255 0.068790 0.125515
4.28009 260.0689 -14.82373 0.5985636 0.7554306 0.266545 192 192 192 255 0.068621 0.125499
-254.1261 -17.42185 108.8682 -0.5869149 -0.3584304 0.725988 192 192 192 255 0.068857 0.125527
153.382 101.8445 -184.3186 0.06143259 0.2613955 -0.9632749 192 192 192 255 0.068562 0.125490
-206.8178 -53.64797 -114.4922 -0.4065461 -0.8266576 -0.3890471 192 192 192 255 0.068816 0.125501
-97.19073 117.8855 -209.0232 0.03043967 0.5793017 -0.8145447 192 192 192 255 0.068711 0.125485
-225.0869 129.7749 -188.7197 -0.3835535 0.1926538 -0.9032006 192 192 192 255 0.068786 0.125487
546.249 -52.16644 24.67505 0.2294539 -0.97307 -0.02204227 192 192 192 255 0.068417 0.125526
514.2333 43.73935 -104.4927 0.5313951 0.8169746 -0.2239909 192 192 192 255 0.068396 0.125504
198.2818 -42.38391 -188.2068 0.05819191 -0.3243379 -0.9441497 192 192 192 255 0.068557 0.125497
142.7278 -82.49559 106.8875 -0.06969704 -0.9484264 0.3092404 192 192 192 255 0.068607 0.125534
16.97314 -97.43452 66.66846 0.01060013 -0.9825144 0.1858845 192 192 192 255 0.068693 0.125528
256.2905 -69.78597 -166.5552 0.09355005 -0.7983652 -0.5948625 192 192 192 255 0.068533 0.125501
565.6918 -20.89304 -113.3845 0.8125383 0.1089669 -0.5726323 192 192 192 255 0.068401 0.125507
299.462 80.75571 138.8186 0.2317552 0.7752764 0.587568 192 192 192 255 0.068465 0.125529
-199.6867 240.9326 62.35156 -0.7640883 0.413459 0.4951977 192 192 192 255 0.068812 0.125509
156.4791 126.7972 -126.1851 0.2149986 0.7904103 -0.5736089 192 192 192 255 0.068565 0.125494
-56.73071 245.5515 39.45557 0.6130463 0.6345797 0.4706197 192 192 192 255 0.068712 0.125503
-3.397461 234.7178 14.62329 0.349595 0.4906389 0.7981583 192 192 192 255 0.068649 0.125504
125.6309 46.82489 171.3335 -0.1238933 0.1317957 0.9835041 192 192 192 255 0.068591 0.125533
-345.9086 96.35262 -28.42725 -0.9371387 -0.2286785 -0.2635856 192 192 192 255 0.068876 0.125504
-274.2266 -53.06745 24.73071 -0.4368883 -0.8935421 0.1034955 192 192 192 255 0.068868 0.125518
-14.20734 35.63758 149.1008 -0.06190777 -0.1308906 0.989462 192 192 192 255 0.068694 0.125531
-349.1819 112.7103 32.39795 -0.9584643 -0.05297544 0.2802497 192 192 192 255 0.068888 0.125511
520.6185 -49.17122 89.81372 0.6433829 -0.6150782 0.455782 192 192 192 255 0.068418 0.125534
-275.3556 113.1273 132.7595 -0.5146922 0.3453963 0.7847251 192 192 192 255 0.068854 0.125522
339.1404 123.5864 -150.4124 0.3030375 0.8925797 -0.3338709 192 192 192 255 0.068430 0.125495
82.9726 203.7124 37.02417 0.3099597 0.6602647 0.6840875 192 192 192 255 0.068583 0.125513
84.12842 219.3275 -107.9695 0.3768826 0.7587994 -0.531209 192 192 192 255 0.068579 0.125490
-303.0035 148.666 -25.03662 -0.7306129 0.6809523 0.05008972 192 192 192 255 0.068830 0.125500
105.1005 154.4827 49.37207 0.3023758 0.6416876 0.7048445 192 192 192 255 0.068576 0.125515
-124.2638 168.6649 121.5496 -0.02911642 0.5908206 0.8062775 192 192 192 255 0.068737 0.125514
145.505 173.0745 -90.31982 0.4160678 0.6334489 -0.6524034 192 192 192 255 0.068535 0.125494
-119.8297 153.5724 139.2747 0.008116131 0.4505081 0.8927355 192 192 192 255 0.068728 0.125515
-129.6599 -79.79681 117.3762 -0.1632451 -0.768834 0.6182599 192 192 192 255 0.068803 0.125531
-229.1566 -22.53683 117.5049 -0.295638 -0.374643 0.8787724 192 192 192 255 0.068847 0.125529
25.37311 -52.21028 -194.48 -0.004051044 -0.3140333 -0.9494033 192 192 192 255 0.068666 0.125496
-13.53479 -64.07734 -187.5718 -0.1159648 -0.7351076 -0.6679589 192 192 192 255 0.068689 0.125497
58.3335 -73.31403 -183.1479 0.02714138 -0.7989269 -0.6008154 192 192 192 255 0.068657 0.125498
-146.3665 -54.70087 -156.0664 -0.2521127 -0.812265 -0.5259894 192 192 192 255 0.068762 0.125499
-193.3227 -34.90366 -146.5095 -0.5333916 -0.4810093 -0.6957898 192 192 192 255 0.068797 0.125498
-73.60297 -50.86072 -185.5156 -0.1880827 -0.5070077 -0.8411707 192 192 192 255 0.068713 0.125496
132.1253 -78.23799 -63.17212 0.0543543 -0.995864 -0.07280499 192 192 192 255 0.068606 0.125514
108.3463 -78.38517 -113.9448 -0.002472515 -0.9999317 -0.01142565 192 192 192 255 0.068597 0.125508
187.061 -78.96916 -166.2903 0.04980594 -0.8813786 -0.4697778 192 192 192 255 0.068577 0.125501
408.1662 -52.42311 -104.8013 0.08150873 -0.9917963 0.09847102 192 192 192 255 0.068481 0.125510
260.3845 -75.85999 -139.3472 0.08693412 -0.995524 -0.03707304 192 192 192 255 0.068531 0.125505
454.3574 -53.54415 -167.8459 0.1228929 -0.8185864 -0.5610825 192 192 192 255 0.068464 0.125501
481.2612 56.40276 -27.98535 0.4716285 0.8817659 -0.007454763 192 192 192 255 0.068387 0.125511
451.2718 73.08418 -106.731 0.4346062 0.900618 -0.002193348 192 192 192 255 0.068398 0.125503
346.9592 123.8882 -129.3215 0.3014455 0.9509936 -0.06886069 192 192 192 255 0.068418 0.125498
551.5527 11.35967 -110.6196 0.6666639 0.5493907 -0.5037153 192 192 192 255 0.068398 0.125505
369.8887 77.94652 -178.1973 0.3488523 0.4421586 -0.8263159 192 192 192 255 0.068440 0.125495
576.7836 -38.88925 -70.31738 0.7672734 -0.632511 -0.1059316 192 192 192 255 0.068395 0.125514
576.6459 -24.44696 -86.0166 0.9649578 0.05957388 -0.2555532 192 192 192 255 0.068393 0.125511
557.2508 -36.28033 -120.4448 0.7083502 -0.3790171 -0.5954713 192 192 192 255 0.068411 0.125507
-67.69592 284.525 -90.04956 0.3921864 0.7016808 -0.5948395 192 192 192 255 0.068681 0.125487
-30.07556 281.7245 -72.95483 0.5465641 0.6422001 -0.5374447 192 192 192 255 0.068656 0.125488
-201.8623 62.021 -172.511 -0.5695821 -0.2953641 -0.7670309 192 192 192 255 0.068802 0.125492
-248.3879 69.35014 -127.186 -0.673122 -0.3421048 -0.6556456 192 192 192 255 0.068833 0.125498
-300.6798 82.68457 -79.68774 -0.7118326 -0.3918509 -0.5828784 192 192 192 255 0.068855 0.125501
-249.8644 138.0604 -174.179 -0.5332009 0.3920604 -0.749657 192 192 192 255 0.068801 0.125487
-333.9676 135.6513 -79.46655 -0.8664758 0.3378235 -0.3675527 192 192 192 255 0.068855 0.125496
351.725 120.2629 -40.43677 0.3087138 0.9480743 0.07649202 192 192 192 255 0.068423 0.125507
-36.89648 93.54887 140.8801 0.1541231 0.4198632 0.8944054 192 192 192 255 0.068691 0.125517
-135.2856 105.827 141.5186 -0.01154668 0.3722103 0.9280766 192 192 192 255 0.068746 0.125516
-256.0485 113.6021 141.6978 -0.2536426 0.4438601 0.8594496 192 192 192 255 0.068839 0.125522
234.6392 81.49979 152.2949 0.068028 0.7408117 0.6682591 192 192 192 255 0.068508 0.125530
79.26862 73.79299 144.8428 0.03738164 0.8778663 0.4774445 192 192 192 255 0.068619 0.125528
260.7889 127.7654 0.117432 0.1695783 0.9475631 0.270864 192 192 192 255 0.068504 0.125509
357.4153 107.0964 27.66455 0.2716831 0.9241003 0.2687506 192 192 192 255 0.068425 0.125515
411.1458 67.95634 59.90967 0.3335939 0.8175352 0.4694159 192 192 192 255 0.068421 0.125520
434.2299 73.69071 38.16528 0.329868 0.894474 0.3018335 192 192 192 255 0.068410 0.125517
231.589 135.6076 -97.03711 0.06784927 0.9844527 -0.162017 192 192 192 255 0.068510 0.125498
-339.8109 139.9232 -40.72974 -0.6934025 0.7169459 -0.07198211 192 192 192 255 0.068863 0.125499
-312.5559 142.3887 -107.1309 -0.5574977 0.702989 -0.4415913 192 192 192 255 0.068839 0.125493
197.0135 142.276 -90.13013 0.4105009 0.6818613 -0.6054371 192 192 192 255 0.068520 0.125497
267.76 134.5171 -58.75488 0.1469667 0.9890413 0.01407691 192 192 192 255 0.068496 0.125503
250.5103 138.243 -37.4668 0.4854335 0.874046 0.01994919 192 192 192 255 0.068505 0.125503
-181.0588 239.5237 75.29028 -0.4122228 0.4334903 0.801348 192 192 192 255 0.068797 0.125510
-60.66553 145.377 134.1831 0.2179206 0.5604268 0.7990197 192 192 192 255 0.068697 0.125516
41.73096 201.5284 51.15869 0.2755137 0.6340281 0.7225652 192 192 192 255 0.068624 0.125514
235.567 135.4189 0.697754 0.4643127 0.6914759 0.5534211 192 192 192 255 0.068515 0.125508
130.4784 213.3371 -76.12646 0.464902 0.7976435 -0.3842278 192 192 192 255 0.068530 0.125495
134.7039 193.7705 -89.19678 0.5845397 0.4271721 -0.6898097 192 192 192 255 0.068536 0.125494
154.2315 212.0463 -43.67773 0.5818158 0.8075281 -0.09689621 192 192 192 255 0.068513 0.125500
35.5603 223.7905 -132.6555 0.311658 0.7074629 -0.634323 192 192 192 255 0.068618 0.125488
82.91016 187.2843 -120.9729 0.4423438 0.1344642 -0.8867082 192 192 192 255 0.068584 0.125489
60.32886 114.6516 -162.3499 0.1831788 0.8019152 -0.568663 192 192 192 255 0.068624 0.125490
-118.5689 199.5451 -139.0876 -0.07893099 0.4812934 -0.8729986 192 192 192 255 0.068728 0.125487
-231.4276 149.9923 -148.9353 -0.2790439 0.6771123 -0.6809211 192 192 192 255 0.068777 0.125489
-76.33105 127.4079 -171.3499 0.04677001 0.6676666 -0.7429899 192 192 192 255 0.068697 0.125488
-157.8257 258.5888 -111.1638 -0.5850134 0.3297469 -0.7409632 192 192 192 255 0.068770 0.125488
-163.2786 258.8615 64.41431 -0.3291062 0.6455389 0.6891797 192 192 192 255 0.068772 0.125500
33.03705 234.3051 -36.26587 0.4024176 0.9140143 -0.05136194 192 192 192 255 0.068617 0.125498
-91.19067 216.8515 113.6475 0.02081213 0.5584409 0.8292832 192 192 192 255 0.068737 0.125512
-45.24823 218.3164 90.79688 0.3928245 0.7783511 0.4897535 192 192 192 255 0.068689 0.125513
-35.27173 230.6865 26.87646 0.4315287 0.6871015 0.5845293 192 192 192 255 0.068671 0.125505
1.895691 238.5307 -68.52759 0.3576416 0.8485448 -0.3899541 192 192 192 255 0.068641 0.125493
-113.4717 244.9181 -139.7134 -0.09276237 0.2946016 -0.9511073 192 192 192 255 0.068712 0.125488
-50.75037 239.5631 -96.58081 0.3640404 0.7654725 -0.5305906 192 192 192 255 0.068675 0.125490
-81.76617 265.0927 50.31934 0.5018042 0.4543785 0.736025 192 192 192 255 0.068730 0.125501
-140.1003 279.8924 62.49194 -0.1753899 0.5941591 0.7849925 192 192 192 255 0.068766 0.125498
-44.72516 247.0858 23.24487 0.4877549 0.2557257 0.8346853 192 192 192 255 0.068680 0.125503
-121.8152 292.6625 -120.7212 -0.04419148 0.6956365 -0.7170334 192 192 192 255 0.068716 0.125486
-293.0441 196.401 -69.15723 -0.7403167 0.6280643 -0.2397215 192 192 192 255 0.068820 0.125495
-200.2204 238.954 -60.28979 -0.8727296 0.4238822 -0.2422126 192 192 192 255 0.068818 0.125492
-111.5225 -42.85184 136.9124 -0.1032861 -0.2804062 0.9543083 192 192 192 255 0.068785 0.125531
372.6378 -23.41211 -184.1389 0.05140028 -0.1905863 -0.9803239 192 192 192 255 0.068481 0.125496
-2.687805 47.79193 -211.5435 -0.02513112 -0.1079173 -0.9938422 192 192 192 255 0.068662 0.125492
-204.4652 195.2104 63.88721 -0.5511434 0.7344937 0.3959293 192 192 192 255 0.068816 0.125509
184.6386 169.832 -88.11108 0.3770782 0.7577559 -0.532558 192 192 192 255 0.068519 0.125496
186.9966 173.5208 -41.81128 0.3426913 0.9394413 0.003579219 192 192 192 255 0.068507 0.125501
-67.23218 205.6789 117.4475 0.2784129 0.3002499 0.9123247 192 192 192 255 0.068711 0.125514
-218.9612 172.6195 116.0054 -0.1913417 0.5272843 0.8278645 192 192 192 255 0.068781 0.125514
-241.3506 177.4463 105.1133 -0.433239 0.5984013 0.6739584 192 192 192 255 0.068793 0.125513
14.71857 153.9393 81.29858 0.3263902 0.6246755 0.7094012 192 192 192 255 0.068652 0.125516
-19.05786 206.7469 82.50586 0.4768546 0.6432291 0.5990543 192 192 192 255 0.068666 0.125514
60.15955 159.0382 -157.4326 0.2625021 0.4898904 -0.8313243 192 192 192 255 0.068615 0.125489
28.1795 176.1006 -146.0793 0.2250337 0.5071292 -0.8319735 192 192 192 255 0.068631 0.125488
-22.74011 180.7198 -148.0574 0.0385145 0.4861421 -0.8730307 192 192 192 255 0.068664 0.125488
-95.33014 177.6632 -162.4597 -0.004776213 0.479846 -0.8773397 192 192 192 255 0.068703 0.125488
-141.671 207.8982 -130.9336 -0.1382023 0.5337182 -0.8342932 192 192 192 255 0.068766 0.125487
-229.8467 198.2157 -141.3386 -0.3711396 0.6325986 -0.6797606 192 192 192 255 0.068781 0.125488
94.19989 138.371 77.23804 0.2964708 0.6067237 0.7375578 192 192 192 255 0.068603 0.125517
-216.6248 208.1654 -34.09814 -0.5936717 0.8042735 0.02641998 192 192 192 255 0.068827 0.125497
152.2004 144.5243 -118.8333 0.3982654 0.5361429 -0.7442684 192 192 192 255 0.068561 0.125494
58.80157 67.76942 154.1743 -0.02044452 0.5435892 0.8391024 192 192 192 255 0.068634 0.125530
167.6186 -65.3811 156.0073 -0.1686341 -0.645075 0.745279 192 192 192 255 0.068587 0.125539
62.42188 -57.73899 146.5891 -0.0969189 -0.5670362 0.8179712 192 192 192 255 0.068658 0.125537
10.79956 108.7328 -198.6743 0.1178159 0.663519 -0.7388248 192 192 192 255 0.068652 0.125487
-15.40308 84.61817 -213.5833 0.04271571 0.1516437 -0.9875118 192 192 192 255 0.068670 0.125489
339.6183 -62.09911 -49.45361 0.083563 -0.9923897 -0.09044237 192 192 192 255 0.068504 0.125517
254.7515 -68.38773 -70.94507 0.08050412 -0.9962066 0.0330383 192 192 192 255 0.068532 0.125514
140.7879 -91.52594 64.3457 0.04327637 -0.9986809 0.02763314 192 192 192 255 0.068610 0.125529
-88.54315 -75.37638 -104.6545 -0.1067868 -0.977227 -0.1833682 192 192 192 255 0.068732 0.125506
484.1988 53.46766 46.21265 0.398844 0.8468319 0.3518511 192 192 192 255 0.068402 0.125519
561.4349 -8.167015 58.03589 0.8768114 0.2665616 0.4001834 192 192 192 255 0.068393 0.125524
498.7338 44.84787 -55.33496 0.5455812 0.8366827 0.04799141 192 192 192 255 0.068389 0.125509
572.2473 -18.05343 3.277344 0.9565723 0.2618742 0.1280292 192 192 192 255 0.068390 0.125519
-337.4439 63.76239 0.575684 -0.9296584 -0.3615978 0.07058643 192 192 192 255 0.068884 0.125509
-352.1365 125.9038 9.436768 -0.9146408 0.3987745 0.0664157 192 192 192 255 0.068884 0.125507
-314.1998 100.6056 89.29614 -0.7890173 -0.1784662 0.5878789 192 192 192 255 0.068878 0.125519
-278.9687 -36.36296 56.29077 -0.7600573 -0.5290725 0.3773531 192 192 192 255 0.068875 0.125520
-290.5781 -43.41566 13.46509 -0.7582883 -0.6395644 0.126318 192 192 192 255 0.068877 0.125515
-283.1435 -46.97633 -11.80493 -0.453782 -0.8698826 -0.193355 192 192 192 255 0.068868 0.125513
-293.8807 -39.5638 -9.863281 -0.7916989 -0.5786071 -0.1960273 192 192 192 255 0.068876 0.125512
-174.7361 -63.964 -97.10962 -0.1756949 -0.9699539 -0.1682879 192 192 192 255 0.068794 0.125505
-75.57806 -92.01969 73.55273 -0.09291393 -0.9937297 0.06219493 192 192 192 255 0.068751 0.125527
-160.9389 126.9911 -204.946 -0.07554662 0.5139315 -0.8544983 192 192 192 255 0.068744 0.125485
-180.8593 53.46571 -181.146 -0.3295247 -0.2169714 -0.9188781 192 192 192 255 0.068787 0.125491
-78.39655 16.42707 -197.1672 -0.1515916 -0.1702171 -0.9736766 192 192 192 255 0.068726 0.125493
-143.3656 308.1122 -50.18579 0.05015667 0.991436 -0.1205781 192 192 192 255 0.068760 0.125488
-137.3098 304.386 -88.26709 -0.09709362 0.9246313 -0.3682795 192 192 192 255 0.068740 0.125486
-182.1039 90.2547 157.3425 -0.08194216 0.2123321 0.973756 192 192 192 255 0.068798 0.125527
-152.3298 71.66829 156.8582 -0.01613528 -0.0796742 0.9966904 192 192 192 255 0.068782 0.125529
49.53052 53.35794 157.7146 -0.1120527 0.08843797 0.9897591 192 192 192 255 0.068644 0.125530
-63.81824 81.4226 150.8093 0.05933923 0.2965227 0.9531806 192 192 192 255 0.068715 0.125525
157.0851 60.51255 168.7034 -0.03367265 0.5164794 0.8556374 192 192 192 255 0.068565 0.125532
190.6 44.90076 172.7661 0.05166075 0.2587426 0.9645638 192 192 192 255 0.068544 0.125533
268.8666 -29.70277 179.4207 0.1390775 0.02616505 0.9899358 192 192 192 255 0.068513 0.125538
351.2685 5.492784 153.4253 0.2782941 0.2394791 0.9301624 192 192 192 255 0.068447 0.125534
291.2823 66.04366 150.2771 0.2202101 0.4115969 0.8843617 192 192 192 255 0.068462 0.125531
291.705 -59.83115 173.2581 0.05644644 -0.3903852 0.9189196 192 192 192 255 0.068515 0.125541
340.5449 82.9217 -183.2312 0.1211665 0.1988125 -0.9725185 192 192 192 255 0.068453 0.125494
189.5571 -9.575607 -191.2737 0.06588812 -0.01059354 -0.9977708 192 192 192 255 0.068556 0.125494
309.2391 124.7955 -166.6724 0.1148868 0.867192 -0.48454 192 192 192 255 0.068455 0.125493
502.4446 -62.28634 59.32983 0.2025196 -0.9788663 0.02839941 192 192 192 255 0.068452 0.125531
557.7195 -48.12642 33.45728 0.6982681 -0.6784713 0.2282507 192 192 192 255 0.068408 0.125527
542.1984 -46.3442 -126.1299 0.4024925 -0.8077855 -0.4306768 192 192 192 255 0.068424 0.125508
-86.05338 309.7398 32.05029 0.3576084 0.8390634 0.4099865 192 192 192 255 0.068747 0.125498
-46.86316 272.6206 23.91626 0.5604939 0.4980915 0.6616278 192 192 192 255 0.068683 0.125502
-92.73755 307.7543 -4.822266 0.2680477 0.9613204 -0.06335334 192 192 192 255 0.068729 0.125497
-10.70807 267.0709 -5.416992 0.5373836 0.7501354 0.3853776 192 192 192 255 0.068634 0.125500
518.6403 -41.20774 95.53369 0.6264488 -0.1719908 0.7602507 192 192 192 255 0.068415 0.125533
527.8477 -6.189554 96.52197 0.5702074 0.293188 0.767401 192 192 192 255 0.068406 0.125527
350.404 -70.68765 163.2021 0.2350276 -0.5579415 0.7959042 192 192 192 255 0.068498 0.125542
475.1531 -58.74095 129.3767 0.4657795 -0.4329016 0.7717809 192 192 192 255 0.068447 0.125539
298.3353 -81.17243 154.5481 0.05217233 -0.913843 0.4027021 192 192 192 255 0.068520 0.125542
253.3898 -78.4161 157.3059 -0.08391505 -0.752229 0.6535364 192 192 192 255 0.068538 0.125542
249.3969 -84.77452 143.8362 -0.03673561 -0.9699271 0.2406077 192 192 192 255 0.068541 0.125541
85.11108 -89.58165 87.20825 0.004753334 -0.942304 0.3347246 192 192 192 255 0.068649 0.125531
-239.6395 -56.63213 88.33691 -0.4049475 -0.8132456 0.4179106 192 192 192 255 0.068859 0.125526
-73.38019 -74.04716 129.186 -0.006409773 -0.6591337 0.7519985 192 192 192 255 0.068758 0.125533
231.9387 -34.41846 181.8323 -0.06700995 -0.1979379 0.9779214 192 192 192 255 0.068534 0.125538
120.1516 111.993 -180.9675 0.02334053 0.7891337 -0.6137778 192 192 192 255 0.068585 0.125490
4.559265 -96.70489 37.28906 -0.01675892 -0.9967534 -0.0787521 192 192 192 255 0.068697 0.125524
503.3332 46.09456 24.45532 0.5534748 0.8299813 0.06925804 192 192 192 255 0.068394 0.125516
560.433 5.663763 -78.18164 0.7470647 0.6646619 0.01090545 192 192 192 255 0.068391 0.125509
-243.9601 -33.13886 -97.57642 -0.6795019 -0.4917232 -0.5445048 192 192 192 255 0.068834 0.125503
-173.1301 -6.310058 -173.3354 -0.4023562 -0.2917466 -0.867752 192 192 192 255 0.068790 0.125494
259.3263 5.041149 175.9346 0.1360914 0.2084415 0.9685202 192 192 192 255 0.068502 0.125536
319.6038 110.1641 -177.2932 0.1948721 0.5121997 -0.8364666 192 192 192 255 0.068453 0.125493
-241.6934 -48.98892 96.57129 -0.2747071 -0.6727834 0.6869487 192 192 192 255 0.068859 0.125527
-26.56616 -67.71107 131.2063 0.00864992 -0.6001787 0.7998192 192 192 192 255 0.068723 0.125534
-143.8203 -81.55284 102.5627 -0.2081364 -0.9631707 0.1702393 192 192 192 255 0.068809 0.125529
-320.4477 133.0195 -102.833 -0.7966254 -0.06294511 -0.6011872 192 192 192 255 0.068846 0.125494
-328.5655 129.9555 72.78345 -0.6869465 0.5528761 0.4716278 192 192 192 255 0.068880 0.125513
-286.9241 142.3246 64.81592 -0.6038089 0.6607618 0.4458799 192 192 192 255 0.068822 0.125509
123.2305 95.21288 83.4375 0.1858315 0.7632692 0.6187785 192 192 192 255 0.068593 0.125518
-186.1067 194.4119 84.16016 -0.3389493 0.6313003 0.6975482 192 192 192 255 0.068802 0.125512
-284.1922 186.1436 57.08496 -0.6796272 0.6344675 0.368182 192 192 192 255 0.068820 0.125507
161.2135 165.6346 11.02588 0.2984099 0.8187495 0.4905107 192 192 192 255 0.068529 0.125510
-119.2687 230.0647 98.58325 -0.1854761 0.5610824 0.8067126 192 192 192 255 0.068760 0.125511
-96.27765 255.2881 71.80396 0.3127154 0.6902779 0.6524765 192 192 192 255 0.068751 0.125502
141.6166 213.5782 -17.10645 0.4531469 0.8228745 0.3428343 192 192 192 255 0.068527 0.125504
-190.0562 268.9105 25.88306 -0.8062488 0.517995 0.2857343 192 192 192 255 0.068781 0.125496
-189.7847 257.5981 -64.96753 -0.9121172 0.264769 -0.3129532 192 192 192 255 0.068790 0.125490
-185.6282 311.4147 -18.01758 -0.6463937 0.7576576 0.09016784 192 192 192 255 0.068772 0.125492
-6.102539 269.9329 -40.17358 0.5493351 0.8353356 -0.02110684 192 192 192 255 0.068626 0.125494
33.03821 229.2766 5.839355 0.2847337 0.8812417 0.3772795 192 192 192 255 0.068622 0.125503
5.28949 256.883 -47.34937 0.6740907 0.6424754 -0.3644547 192 192 192 255 0.068634 0.125494
-50.07819 259.7519 -87.72803 0.490399 0.2874685 -0.8227215 192 192 192 255 0.068674 0.125489
-298.3233 193.8242 -33.81812 -0.7655501 0.643137 0.0175516 192 192 192 255 0.068828 0.125498
479.3234 -35.14378 -175.6074 0.3917319 -0.1734894 -0.9035749 192 192 192 255 0.068449 0.125499
28.26276 68.25104 -209.9626 0.1246431 0.1290697 -0.9837708 192 192 192 255 0.068646 0.125491
-211.1632 203.0882 16.46606 -0.7055538 0.6889199 0.1660824 192 192 192 255 0.068825 0.125503
3.052185 225.5143 -144.1858 0.1484195 0.5971143 -0.7883059 192 192 192 255 0.068643 0.125487
-176.7664 211.8466 -118.459 -0.3559941 0.7550057 -0.5506674 192 192 192 255 0.068791 0.125488
-210.2194 209.3951 -73.19238 -0.5151368 0.8289222 -0.2179959 192 192 192 255 0.068817 0.125493
204.5215 165.4489 8.541748 0.3646572 0.760612 0.5371171 192 192 192 255 0.068523 0.125509
3.186584 164.5613 -163.834 0.0941114 0.4470043 -0.8895674 192 192 192 255 0.068652 0.125489
225.1505 170.7809 -32.54785 0.5372453 0.843393 -0.007468109 192 192 192 255 0.068507 0.125504
-287.4429 152.554 -93.72485 -0.6171819 0.6877395 -0.3822316 192 192 192 255 0.068812 0.125493
-173.1301 -6.310058 -173.3354 -0.4023562 -0.2917466 -0.867752 192 192 192 255 0.068778 0.125496
-78.39655 16.42707 -197.1672 -0.1515916 -0.1702171 -0.9736766 192 192 192 255 0.068720 0.125494
-193.3227 -34.90366 -146.5095 -0.5333916 -0.4810093 -0.6957898 192 192 192 255 0.068803 0.125498
3 21 129 158 
3 21 158 131 
3 21 130 186 
3 21 131 130 
3 7 132 133 
3 111 133 217 
3 217 133 132 
3 5 217 187 
3 132 187 217 
3 44 135 134 
3 44 134 136 
3 169 136 134 
3 136 13 188 
3 44 188 137 
3 44 136 188 
3 177 138 73 
3 177 139 138 
3 138 139 189 
3 189 140 50 
3 138 189 50 
3 51 140 10 
3 50 140 51 
3 10 140 190 
3 189 141 140 
3 140 141 190 
3 0 190 141 
3 139 141 189 
3 139 170 141 
3 0 141 170 
3 148 142 22 
3 143 142 25 
3 22 142 143 
3 22 143 64 
3 76 143 199 
3 143 25 199 
3 25 144 199 
3 25 145 144 
3 146 25 148 
3 148 25 142 
3 145 25 146 
3 6 147 191 
3 147 148 191 
3 150 149 137 
3 197 149 150 
3 23 149 197 
3 6 149 23 
3 6 23 147 
3 146 23 184 
3 145 146 184 
3 13 150 188 
3 150 137 188 
3 151 133 153 
3 151 7 133 
3 63 151 8 
3 8 151 152 
3 153 152 151 
3 152 153 192 
3 153 133 111 
3 210 154 1 
3 1 154 155 
3 174 154 210 
3 172 210 104 
3 174 210 172 
3 109 156 37 
3 109 157 156 
3 131 158 24 
3 24 158 159 
3 24 159 157 
3 156 157 159 
3 70 66 129 
3 159 158 66 
3 66 158 129 
3 160 129 21 
3 160 70 129 
3 21 161 160 
3 21 186 161 
3 161 186 193 
3 69 193 164 
3 160 161 69 
3 69 161 193 
3 193 186 162 
3 163 164 193 
3 178 162 165 
3 165 162 186 
3 193 162 163 
3 163 162 178 
3 216 166 54 
3 110 166 216 
3 166 194 54 
3 166 167 5 
3 110 167 166 
3 5 194 166 
3 9 170 169 
3 169 170 26 
3 170 9 55 
3 171 55 9 
3 170 55 0 
3 47 171 9 
3 47 9 134 
3 134 9 169 
3 47 134 135 
3 173 174 172 
3 173 175 174 
3 170 176 26 
3 163 176 177 
3 26 176 179 
3 176 163 179 
3 176 139 177 
3 176 170 139 
3 163 178 179 
3 182 136 169 
3 26 179 169 
3 180 169 179 
3 182 169 180 
3 179 178 180 
3 130 131 12 
3 130 12 181 
3 182 181 12 
3 183 13 136 
3 183 136 12 
3 12 136 182 
3 13 183 131 
3 131 183 12 
3 145 184 195 
3 23 197 184 
3 195 37 4 
3 184 37 195 
3 184 197 36 
3 184 36 37 
3 109 37 36 
3 131 196 13 
3 36 185 109 
3 13 36 150 
3 150 36 197 
3 196 185 13 
3 13 185 36 
3 144 27 199 
3 4 27 144 
3 144 145 4 
3 4 145 195 
3 37 68 27 
3 37 156 68 
3 27 4 37 
3 39 38 40 
3 43 38 39 
3 149 6 137 
3 40 137 6 
3 6 42 41 
3 43 41 226 
3 226 41 42 
3 40 6 39 
3 43 39 41 
3 41 39 6 
3 137 45 44 
3 45 48 135 
3 45 135 44 
3 137 40 45 
3 46 48 45 
3 40 46 45 
3 14 46 38 
3 40 38 46 
3 14 38 11 
3 47 135 48 
3 48 171 47 
3 48 49 171 
3 48 14 49 
3 14 48 46 
3 50 51 52 
3 28 52 51 
3 28 51 10 
3 52 28 168 
3 168 28 194 
3 54 194 28 
3 10 53 54 
3 28 10 54 
3 15 56 55 
3 0 55 56 
3 55 57 15 
3 55 171 57 
3 10 190 53 
3 53 190 56 
3 0 56 190 
3 53 56 15 
3 54 53 15 
3 54 15 216 
3 214 58 59 
3 3 211 175 
3 211 59 175 
3 174 175 59 
3 155 58 106 
3 154 58 155 
3 174 59 154 
3 58 154 59 
3 192 60 152 
3 8 152 63 
3 152 60 63 
3 148 22 191 
3 191 22 62 
3 61 62 198 
3 22 198 62 
3 191 62 61 
3 198 63 61 
3 61 63 60 
3 22 64 198 
3 76 199 200 
3 31 76 200 
3 138 52 74 
3 74 52 65 
3 72 74 65 
3 72 65 71 
3 138 50 52 
3 75 79 52 
3 71 65 79 
3 52 79 65 
3 67 159 66 
3 67 156 159 
3 67 68 156 
3 68 67 2 
3 27 68 199 
3 199 68 200 
3 200 68 2 
3 69 201 70 
3 69 70 160 
3 201 66 70 
3 16 69 164 
3 69 71 201 
3 16 164 177 
3 163 177 164 
3 73 16 177 
3 71 69 72 
3 16 72 69 
3 72 16 73 
3 73 138 74 
3 72 73 74 
3 168 75 52 
3 18 187 90 
3 18 75 187 
3 187 75 168 
3 5 187 194 
3 168 194 187 
3 93 187 132 
3 90 187 93 
3 93 7 92 
3 151 92 7 
3 132 7 93 
3 92 151 63 
3 198 64 77 
3 77 64 76 
3 143 76 64 
3 92 63 225 
3 77 225 63 
3 76 225 77 
3 198 77 63 
3 31 225 76 
3 78 80 75 
3 75 80 79 
3 87 114 86 
3 86 114 34 
3 79 80 71 
3 71 80 84 
3 204 114 207 
3 87 207 114 
3 82 35 66 
3 67 66 35 
3 81 202 205 
3 33 205 202 
3 2 67 116 
3 35 116 67 
3 200 2 117 
3 200 117 203 
3 126 82 201 
3 201 82 66 
3 29 83 32 
3 201 84 222 
3 201 222 126 
3 29 204 207 
3 30 85 86 
3 87 86 85 
3 121 88 89 
3 88 30 89 
3 121 89 34 
3 18 90 120 
3 219 122 91 
3 219 91 101 
3 94 101 91 
3 125 123 92 
3 93 92 123 
3 90 93 223 
3 90 223 120 
3 220 94 124 
3 209 94 220 
3 108 127 17 
3 17 95 208 
3 81 95 17 
3 85 96 87 
3 87 96 207 
3 97 206 205 
3 206 95 205 
3 81 205 95 
3 19 97 98 
3 19 206 97 
3 83 99 119 
3 119 99 98 
3 29 99 83 
3 19 98 99 
3 29 207 212 
3 20 99 212 
3 212 99 29 
3 212 207 96 
3 30 96 85 
3 96 30 100 
3 88 102 100 
3 100 30 88 
3 88 101 102 
3 219 101 88 
3 108 208 209 
3 17 208 108 
3 209 208 1 
3 1 208 210 
3 208 104 210 
3 96 213 3 
3 3 213 211 
3 59 211 213 
3 206 103 104 
3 104 103 172 
3 173 172 103 
3 206 104 95 
3 95 104 208 
3 19 103 206 
3 99 105 19 
3 19 105 103 
3 103 105 173 
3 3 20 212 
3 173 105 20 
3 20 105 99 
3 175 173 20 
3 3 175 20 
3 96 100 213 
3 100 214 213 
3 213 214 59 
3 100 102 214 
3 102 106 214 
3 214 106 58 
3 101 94 106 
3 1 155 94 
3 106 94 155 
3 101 106 102 
3 209 1 94 
3 201 71 84 
3 78 18 128 
3 30 86 89 
3 34 89 86 
3 75 18 78 
3 31 215 225 
3 107 225 215 
3 220 108 209 
3 221 108 220 
3 200 203 31 
3 203 215 31 
3 3 212 96 
3 196 109 185 
3 196 131 24 
3 24 157 109 
3 24 109 196 
3 130 181 165 
3 178 165 181 
3 130 165 186 
3 180 181 182 
3 178 181 180 
3 216 15 57 
3 57 171 216 
3 49 216 171 
3 11 167 110 
3 14 216 49 
3 11 110 14 
3 14 110 216 
3 11 111 167 
3 167 111 217 
3 5 167 217 
3 11 38 111 
3 43 111 38 
3 226 227 43 
3 43 227 111 
3 61 60 191 
3 191 60 228 
3 192 228 60 
3 191 228 6 
3 147 146 148 
3 147 23 146 
3 112 17 218 
3 114 113 34 
3 224 113 114 
3 204 222 114 
3 114 222 224 
3 98 97 115 
3 97 33 115 
3 97 205 33 
3 202 81 112 
3 17 112 81 
3 116 202 117 
3 32 83 118 
3 33 118 115 
3 98 115 119 
3 119 115 118 
3 83 119 118 
3 29 32 204 
3 34 120 121 
3 219 88 121 
3 223 91 122 
3 91 123 124 
3 223 123 91 
3 91 124 94 
3 121 122 219 
3 125 220 124 
3 34 128 120 
3 221 127 108 
3 220 125 221 
3 221 125 107 
3 17 127 218 
3 218 203 112 
3 35 82 33 
3 35 33 116 
3 202 116 33 
3 203 117 112 
3 112 117 202 
3 118 126 32 
3 126 118 82 
3 33 82 118 
3 126 222 204 
3 204 32 126 
3 125 124 123 
3 122 121 223 
3 223 121 120 
3 34 113 128 
3 215 127 107 
3 127 221 107 
3 203 218 215 
3 218 127 215 
3 78 113 80 
3 80 113 224 
3 80 224 84 
3 84 224 222 
3 2 116 117 
3 128 113 78 
3 223 93 123 
3 120 128 18 
3 125 225 107 
3 92 225 125 
