ply
format ascii 1.0
comment VCGLIB generated
element vertex 30
property float x
property float y
property float z
property float nx
property float ny
property float nz
property uchar red
property uchar green
property uchar blue
property uchar alpha
property float texture_u
property float texture_v
element face 56
property list uchar int vertex_indices
end_header
-12.08903 -9.769114 40.80891 -0.495693 -0.7059772 0.5058504 192 192 192 255 0.060998 0.122767
11.48781 -8.407531 38.72243 0.2141125 -0.9599674 0.1806061 192 192 192 255 0.060574 0.122670
-12.08903 6.014842 40.80891 0.1053499 0.8698471 0.4819414 192 192 192 255 0.061004 0.122580
11.48781 8.407531 38.72243 0.3842596 0.9160985 0.1144912 192 192 192 255 0.060563 0.122434
-20.62904 7.280686 -30.44604 -0.3134764 0.8998877 -0.3032075 192 192 192 255 0.061216 0.121830
35.17392 0.284932 -38.3979 0.2959858 0.9546629 0.0317982 192 192 192 255 0.060647 0.121810
-21.96113 -11.03496 -34.54714 -0.009676599 -0.9966076 -0.08172949 192 192 192 255 0.061203 0.122055
35.74343 -7.317554 -39.25935 0.1481163 -0.9889615 -0.004093376 192 192 192 255 0.060665 0.121913
-37.74854 9.02634 -3.218537 -0.2197832 0.9704831 -0.09928697 192 192 192 255 0.061292 0.122150
36.15569 2.091161 5.858231 0.3868783 0.9152613 0.1123473 192 192 192 255 0.060371 0.122169
34.45855 -9.196986 7.007904 0.2149567 -0.9602965 0.1778321 192 192 192 255 0.060397 0.122319
-37.74854 -12.78061 -3.218536 -0.02272321 -0.9996988 -0.009274655 192 192 192 255 0.061271 0.122414
9.255441 13.76497 2.554395 0.08036101 0.9967654 0.0009412598 192 192 192 255 0.060699 0.122046
16.16718 -13.90971 3.403284 0.04618097 -0.9986721 0.0228362 192 192 192 255 0.060623 0.122378
-45.23207 -3.254899 -3.218536 -0.7460212 0.4468599 -0.4937293 192 192 192 255 0.061371 0.122316
-35.80433 7.097321 18.26572 -0.1142431 0.9885768 0.09830745 192 192 192 255 0.061107 0.122425
-39.32428 -7.178483 16.58212 -0.516886 -0.7031599 0.4882572 192 192 192 255 0.061146 0.122588
-37.67813 -11.24839 12.46471 -0.135034 -0.9734914 0.1846084 192 192 192 255 0.061132 0.122594
-9.245499 10.2717 -19.9876 -0.04361649 0.9860973 -0.1603429 192 192 192 255 0.060978 0.121930
7.042814 3.905523 -53.07597 -0.05709191 0.9741787 -0.2184409 192 192 192 255 0.060944 0.121821
6.933463 -9.168554 -52.54103 0.005098919 -0.9950303 -0.09944231 192 192 192 255 0.060938 0.121985
-6.469265 -12.3323 -20.02235 0.004658783 -0.9966724 -0.08137926 192 192 192 255 0.060941 0.122201
11.81791 6.784745 -22.06779 0.2083595 0.9700374 -0.124955 192 192 192 255 0.060672 0.121924
29.67594 1.130762 -15.92559 0.2950007 0.9548874 0.03412677 192 192 192 255 0.060511 0.121986
30.5628 -8.123846 -16.72846 0.1549156 -0.9879242 -0.002637826 192 192 192 255 0.060544 0.122096
14.27349 -10.49987 -20.90629 0.1091031 -0.9905517 -0.08309034 192 192 192 255 0.060644 0.122141
-43.45741 7.097321 36.71345 -0.5450301 0.6998067 0.4617497 192 192 192 255 0.061107 0.122425
-46.0508 -7.178483 35.78461 -0.9732531 -0.221142 0.06224679 192 192 192 255 0.061146 0.122588
-22.97387 -9.769114 47.30576 -0.1621413 -0.6035774 0.7806436 192 192 192 255 0.060998 0.122767
-22.97387 6.014842 47.30576 0.2096312 0.3504193 0.9128314 192 192 192 255 0.061004 0.122580
3 0 1 3 
3 0 3 2 
3 8 18 4 
3 6 21 11 
3 6 11 14 
3 6 14 4 
3 2 3 12 
3 2 12 15 
3 1 13 10 
3 0 16 17 
3 12 3 9 
3 4 18 19 
3 1 10 9 
3 1 9 3 
3 5 23 24 
3 5 24 7 
3 4 19 20 
3 4 20 6 
3 17 13 1 
3 17 1 0 
3 24 25 7 
3 6 20 21 
3 26 27 28 
3 26 28 29 
3 4 14 8 
3 5 22 23 
3 15 12 8 
3 8 14 16 
3 8 16 15 
3 17 16 14 
3 17 14 11 
3 11 13 17 
3 8 12 18 
3 19 18 22 
3 19 22 5 
3 20 19 5 
3 20 5 7 
3 21 20 7 
3 21 7 25 
3 11 21 13 
3 22 18 12 
3 23 22 12 
3 23 12 9 
3 24 23 9 
3 24 9 10 
3 13 25 24 
3 13 24 10 
3 21 25 13 
3 15 16 27 
3 15 27 26 
3 16 0 28 
3 16 28 27 
3 0 2 29 
3 0 29 28 
3 2 15 26 
3 2 26 29 
