ply
format ascii 1.0
comment VCGLIB generated
element vertex 15
property float x
property float y
property float z
property float nx
property float ny
property float nz
property uchar red
property uchar green
property uchar blue
property uchar alpha
property float texture_u
property float texture_v
element face 26
property list uchar int vertex_indices
end_header
-17.96017 -9.769114 31.1528 -0.815011 -0.4877764 0.3127799 192 192 192 255 0.060998 0.122767
8.769592 -9.769114 29.56002 0.2840606 -0.940459 0.1866725 192 192 192 255 0.060574 0.122670
-17.96017 6.014841 31.1528 -0.3807887 0.7289054 0.5689437 192 192 192 255 0.061004 0.122580
8.769592 9.769114 29.56002 0.4830656 0.869838 0.1001474 192 192 192 255 0.060563 0.122434
-19.15055 7.280686 -29.99222 -0.09695791 0.9596682 -0.2638864 192 192 192 255 0.061216 0.121830
18.67193 0.207318 -31.58169 0.2993947 0.915804 -0.2677048 192 192 192 255 0.060647 0.121810
-19.15055 -11.03496 -29.99222 0.04036715 -0.9909654 -0.1278987 192 192 192 255 0.061203 0.122055
17.37637 -7.23994 -30.70404 0.1708427 -0.9705416 -0.1698878 192 192 192 255 0.060665 0.121913
-28.81657 9.02634 -2.456974 -0.356662 0.916336 -0.1819905 192 192 192 255 0.061292 0.122150
27.60062 2.091161 4.47207 0.4998977 0.864407 -0.05387767 192 192 192 255 0.060371 0.122169
26.30505 -9.196986 5.34971 0.3213288 -0.9469495 0.00587063 192 192 192 255 0.060397 0.122319
-28.81657 -12.78061 -2.456973 -0.2419617 -0.9699229 0.02653706 192 192 192 255 0.061271 0.122414
7.06544 13.76497 1.94998 0.2238075 0.9602218 -0.1669857 192 192 192 255 0.060699 0.122046
12.34174 -13.90971 2.598007 0.1183382 -0.9887452 -0.09153728 192 192 192 255 0.060623 0.122378
-34.52937 -3.254899 -2.456973 -0.9985272 -0.05269229 -0.01291806 192 192 192 255 0.061371 0.122316
3 0 1 3 
3 0 3 2 
3 8 12 4 
3 6 13 11 
3 6 11 14 
3 6 14 4 
3 2 3 12 
3 2 12 8 
3 1 13 10 
3 0 14 11 
3 12 3 9 
3 4 12 5 
3 1 10 9 
3 1 9 3 
3 5 9 10 
3 5 10 7 
3 4 5 7 
3 4 7 6 
3 11 13 1 
3 11 1 0 
3 13 7 10 
3 6 7 13 
3 8 14 0 
3 8 0 2 
3 4 14 8 
3 5 12 9 
