ply
format ascii 1.0
comment VCGLIB generated
element vertex 35
property float x
property float y
property float z
property float nx
property float ny
property float nz
property uchar red
property uchar green
property uchar blue
property uchar alpha
property float texture_u
property float texture_v
element face 66
property list uchar int vertex_indices
end_header
63.59349 -9.183225 -7.31464 0.3127383 -0.9379798 -0.1496288 192 192 192 255 0.060998 0.122767
60.49785 -8.407531 32.79306 0.273029 -0.9528541 0.1323793 192 192 192 255 0.060574 0.122670
56.1709 5.746322 -10.98368 0.4211221 0.9067165 0.02283471 192 192 192 255 0.061004 0.122580
60.49785 8.407531 32.79306 0.6819969 0.7223202 0.1146027 192 192 192 255 0.060563 0.122434
-63.45376 7.280686 -8.160451 -0.2744729 0.9418582 -0.1938242 192 192 192 255 0.061216 0.121830
-37.95809 0.284932 31.76339 -0.2666565 0.9119478 0.3118422 192 192 192 255 0.060647 0.121810
-69.44738 -11.03496 -8.499602 -0.1129592 -0.9934881 -0.01488698 192 192 192 255 0.061203 0.122055
-38.92937 -7.317554 32.81434 -0.1386302 -0.9791703 0.1483481 192 192 192 255 0.060665 0.121913
-17.13636 9.02634 -48.76091 -0.09157512 0.9723566 -0.2147946 192 192 192 255 0.061292 0.122150
30.35005 2.091161 61.83134 0.3442098 0.361163 0.8666492 192 192 192 255 0.060371 0.122169
31.32889 -9.196986 59.19064 0.2292048 -0.9467863 0.2259665 192 192 192 255 0.060397 0.122319
-25.94066 -12.78061 -55.89263 -0.07349204 -0.9962512 -0.04563311 192 192 192 255 0.061271 0.122414
26.53111 12.61125 8.014677 0.03611743 0.9986638 -0.03696249 192 192 192 255 0.060699 0.122046
31.19392 -18.56798 19.82817 0.06553946 -0.9977022 0.01717045 192 192 192 255 0.060623 0.122378
-19.67129 -3.254899 -58.64869 -0.543224 0.5899136 -0.5974191 192 192 192 255 0.061371 0.122316
14.44233 7.242166 -47.25139 0.0613089 0.991909 -0.1111652 192 192 192 255 0.061107 0.122425
14.04731 -6.988994 -52.88503 0.6180623 -0.3685091 -0.6944062 192 192 192 255 0.061146 0.122588
9.679572 -16.67195 -51.63982 0.1378046 -0.9820043 -0.1291412 192 192 192 255 0.061132 0.122594
-22.56531 13.75398 -14.21994 -0.05941932 0.998019 -0.02067214 192 192 192 255 0.060978 0.121930
-69.34341 3.905523 27.69461 -0.1466741 0.9867201 0.06978597 192 192 192 255 0.060944 0.121821
-68.65752 -9.168554 27.36479 -0.1123275 -0.9921349 0.05523504 192 192 192 255 0.060938 0.121985
-21.37112 -16.45954 -9.300829 -0.08354738 -0.9964701 0.008200921 192 192 192 255 0.060941 0.122201
-16.78616 9.093164 23.94285 -0.1189017 0.9737721 0.1939855 192 192 192 255 0.060672 0.121924
-1.284408 1.130762 60.81723 -0.2659287 0.9123516 0.3112821 192 192 192 255 0.060511 0.121986
-2.069033 -8.123846 62.2672 -0.1392877 -0.9787214 0.1506761 192 192 192 255 0.060544 0.122096
-23.41871 -10.49987 26.10251 -0.1295707 -0.9794726 0.1544175 192 192 192 255 0.060644 0.122141
42.6917 6.930871 -48.53492 0.3792534 0.7494044 -0.5427338 192 192 192 255 0.061107 0.122425
43.97833 -7.012033 -54.62414 0.2395156 0.0154238 -0.9707701 192 192 192 255 0.061146 0.122588
69.9296 -9.500596 -23.50657 0.8490648 -0.3674205 -0.3795936 192 192 192 255 0.060998 0.122767
62.507 5.428954 -27.17561 0.7312058 0.6821226 0.006847419 192 192 192 255 0.061004 0.122580
26.24694 8.828032 53.92081 0.0738986 0.9552891 0.2862898 192 192 192 255 0.060371 0.122169
23.89048 18.90561 20.71367 0.07398845 0.956371 0.282631 192 192 192 255 0.060699 0.122046
44.8494 12.7255 36.00297 0.075199 0.9556254 0.2848252 192 192 192 255 0.060563 0.122434
6.727145 8.235419 53.29507 -0.2103554 0.8945287 0.3944224 192 192 192 255 0.060511 0.121986
-2.838087 13.14856 30.54202 -0.2620375 0.9649385 -0.01517471 192 192 192 255 0.060672 0.121924
3 0 2 3 
3 0 3 1 
3 8 4 18 
3 6 11 21 
3 6 4 14 
3 6 14 11 
3 2 15 12 
3 2 12 3 
3 1 10 13 
3 0 17 16 
3 31 30 32 
3 4 19 18 
3 1 3 9 
3 1 9 10 
3 5 7 24 
3 5 24 23 
3 4 6 20 
3 4 20 19 
3 17 0 13 
3 24 7 25 
3 6 21 20 
3 26 29 28 
3 26 28 27 
3 4 8 14 
3 5 23 22 
3 15 8 12 
3 8 15 16 
3 8 16 14 
3 17 11 14 
3 17 14 16 
3 11 17 13 
3 8 18 12 
3 19 5 22 
3 19 22 18 
3 20 7 5 
3 20 5 19 
3 21 25 7 
3 21 7 20 
3 11 13 21 
3 22 12 18 
3 33 30 31 
3 33 31 34 
3 24 10 9 
3 24 9 23 
3 13 10 24 
3 13 24 25 
3 21 13 25 
3 15 26 27 
3 15 27 16 
3 16 27 28 
3 16 28 0 
3 0 28 29 
3 0 29 2 
3 2 29 26 
3 2 26 15 
3 13 0 1 
3 9 3 32 
3 9 32 30 
3 3 12 31 
3 3 31 32 
3 23 9 30 
3 23 30 33 
3 12 22 34 
3 12 34 31 
3 22 23 33 
3 22 33 34 
