ply
format ascii 1.0
comment VCGLIB generated
element vertex 15
property float x
property float y
property float z
property float nx
property float ny
property float nz
property uchar red
property uchar green
property uchar blue
property uchar alpha
property float texture_u
property float texture_v
element face 26
property list uchar int vertex_indices
end_header
-8.297118 6.948746 27.90648 -0.4162528 0.901124 0.1212816 192 192 192 255 0.060998 0.122767
-7.680668 -1.532036 29.97593 -0.2749195 -0.9196361 0.2805152 192 192 192 255 0.060574 0.122670
16.98294 5.670724 22.10648 0.7489639 0.5167086 0.4148076 192 192 192 255 0.061004 0.122580
17.27765 -1.532036 23.67091 0.2957386 -0.9510358 0.08983116 192 192 192 255 0.060563 0.122434
12.43843 5.266839 -18.59208 0.3191786 0.7657251 -0.5583816 192 192 192 255 0.061216 0.121830
3.18234 -6.162863 -20.36208 0.4292555 -0.8290656 -0.3583154 192 192 192 255 0.060647 0.121810
-14.74345 2.125004 -21.06894 -0.5372125 0.7228913 -0.4345468 192 192 192 255 0.061203 0.122055
-11.50816 -6.36696 -21.57752 -0.6343729 -0.6997934 -0.3284207 192 192 192 255 0.060665 0.121913
17.20089 9.907763 -2.456974 0.4165981 0.8345603 -0.360493 192 192 192 255 0.061292 0.122150
0.689457 -8.807939 -0.11658 0.2738113 -0.9616876 0.01357726 192 192 192 255 0.060371 0.122169
-14.06641 -8.49863 0.492841 -0.310564 -0.9440242 0.111213 192 192 192 255 0.060397 0.122319
-6.127455 11.87194 -2.456974 -0.2573242 0.9451656 -0.2011123 192 192 192 255 0.061321 0.122365
20.77748 -3.155577 -6.14024 0.5243382 -0.8280087 -0.1986735 192 192 192 255 0.060699 0.122046
-26.1855 -4.243359 2.598007 -0.665596 -0.7360008 -0.1236316 192 192 192 255 0.060623 0.122378
-24.49714 2.53954 4.057601 -0.5492367 0.8319284 -0.07895814 192 192 192 255 0.060925 0.122395
3 0 1 3 
3 0 3 2 
3 8 12 4 
3 6 13 14 
3 6 11 4 
3 2 3 12 
3 2 12 8 
3 1 13 10 
3 12 3 9 
3 4 12 5 
3 1 10 9 
3 1 9 3 
3 5 9 10 
3 5 10 7 
3 4 5 7 
3 4 7 6 
3 0 14 13 
3 0 13 1 
3 13 7 10 
3 6 7 13 
3 8 11 0 
3 8 0 2 
3 4 11 8 
3 5 12 9 
3 11 14 0 
3 6 14 11 
