ply
format ascii 1.0
comment VCGLIB generated
comment TextureFile Dungeons_2_Texture_01_A.png
element vertex 38
property float x
property float y
property float z
property float nx
property float ny
property float nz
property uchar red
property uchar green
property uchar blue
property uchar alpha
property float texture_u
property float texture_v
element face 64
property list uchar int vertex_indices
end_header
125.0029 3e-06 125 6.4021e-05 -0.9999999 0.000319985 192 192 192 255 0.158506 0.869284
0 -0 125 -3.19865e-05 -1 3.19865e-05 192 192 192 255 0.109555 0.829699
0 12.5 125 -0.002045769 0.9999958 0.002045769 192 192 192 255 0.109529 0.833413
31.25098 12.5 125 -0.002047858 0.9999932 0.003071787 192 192 192 255 0.122638 0.843944
31.25098 25 125 -0.4082483 0.8164966 0.4082483 192 192 192 255 0.122804 0.847850
62.50195 25 125 -0.4343586 0.308763 0.8461667 192 192 192 255 0.135606 0.858063
62.50195 37.5 125 -0.001235265 0.9999986 0.001140853 192 192 192 255 0.135960 0.862158
93.75195 37.5 125 -0.002525282 0.9999841 0.005050565 192 192 192 255 0.148458 0.872056
93.75195 50 125 -0.4082483 0.8164966 0.4082483 192 192 192 255 0.148998 0.876337
125.0029 50 125 0.6666667 0.3333333 0.6666667 192 192 192 255 0.161198 0.885928
65.45898 37.5 58.63086 -0.00202557 0.9999955 0.002228446 192 192 192 255 0.111065 0.885050
31.25098 12.5 93.74902 -0.001098956 0.9999989 0.001014682 192 192 192 255 0.110463 0.854803
31.25098 25 93.74902 -0.001810846 0.999997 0.001671981 192 192 192 255 0.110451 0.858787
62.50195 25 62.49805 -0.0007764576 0.9999994 0.0008542787 192 192 192 255 0.111328 0.878719
93.75195 37.5 31.24805 -0.001103169 0.9999988 0.00110303 192 192 192 255 0.112153 0.901529
93.75195 50 31.24805 -0.4850713 0.7276069 0.4850713 192 192 192 255 0.112164 0.905966
125.0029 3e-06 -0.00293 6.4009e-05 -1 -6.4009e-05 192 192 192 255 0.112859 0.905961
125.0029 50 -0.00293 0.3015113 0.904534 -0.3015113 192 192 192 255 0.112940 0.923309
0 3e-06 -0.00293 -0.000319985 -0.9999999 -6.4021e-05 192 192 192 255 0.064389 0.871933
0 12.5 93.74902 -0.781507 0.564644 0.2653756 192 192 192 255 0.097389 0.844690
0 25 93.74902 -0.001981854 0.999987 0.00470167 192 192 192 255 0.097185 0.848603
0 25 62.49805 -0.009303199 0.9999459 0.00466703 192 192 192 255 0.085364 0.859509
0 37.5 62.49805 -0.3794191 0.8406126 0.3865379 192 192 192 255 0.084986 0.863614
0 37.5 31.24805 -0.9428091 0.2357023 0.2357023 192 192 192 255 0.073477 0.874157
0 50 31.24805 -0.4082483 0.4082483 0.8164966 192 192 192 255 0.072929 0.878450
0 50 -0.00293 -0.004626601 0.9999786 -0.004626601 192 192 192 255 0.061725 0.888638
16.38574 12.5 93.74902 0.003243899 0.3318403 0.94333 192 192 192 255 0.104305 0.850040
13.47852 25 91.26562 1.614958e-05 0.999989 0.004696318 192 192 192 255 0.102010 0.853911
82.73047 50 31.24805 -0.1341051 0.8020471 0.5820107 192 192 192 255 0.107772 0.902886
25.16504 50 31.24805 0.2444053 0.699295 0.6717533 192 192 192 255 0.083891 0.886138
60.68457 37.5 31.24805 0 0.8851255 0.4653524 192 192 192 255 0.098988 0.892212
47.46777 50 23.10449 0 0.7803942 0.625288 192 192 192 255 0.090350 0.895308
62.50195 25 100.4082 -0.002423372 0.9999971 -4.086148e-05 192 192 192 255 0.125823 0.866386
67.53613 37.5 99.7207 -0.003666937 0.9999933 -0.0002173293 192 192 192 255 0.127801 0.872334
82.73047 50 31.24805 -0.1341051 0.8020471 0.5820107 192 192 192 255 0.147622 0.640124
47.46777 50 23.10449 0 0.7803942 0.625288 192 192 192 255 0.130201 0.632546
60.68457 37.5 31.24805 0 0.8851255 0.4653524 192 192 192 255 0.138838 0.629451
25.16504 50 31.24805 0.2444053 0.699295 0.6717533 192 192 192 255 0.123742 0.623377
3 0 3 2 
3 0 2 1 
3 3 0 5 
3 3 5 4 
3 5 0 7 
3 5 7 6 
3 7 0 9 
3 7 9 8 
3 7 14 10 
3 7 10 33 
3 6 7 33 
3 11 2 3 
3 12 11 3 
3 12 3 4 
3 13 12 32 
3 32 12 4 
3 32 4 5 
3 10 13 32 
3 10 32 33 
3 15 14 7 
3 15 7 8 
3 1 16 0 
3 17 15 8 
3 17 8 9 
3 16 17 9 
3 16 9 0 
3 18 1 2 
3 18 2 19 
3 19 20 21 
3 19 21 18 
3 21 22 23 
3 21 23 18 
3 23 24 25 
3 23 25 18 
3 14 30 10 
3 22 10 30 
3 22 30 23 
3 11 26 19 
3 11 19 2 
3 26 27 20 
3 26 20 19 
3 12 13 21 
3 12 21 27 
3 21 20 27 
3 10 22 21 
3 10 21 13 
3 1 18 16 
3 15 17 25 
3 15 25 28 
3 28 25 31 
3 29 31 25 
3 29 25 24 
3 16 18 25 
3 16 25 17 
3 12 27 26 
3 12 26 11 
3 30 29 24 
3 30 24 23 
3 15 28 30 
3 15 30 14 
3 34 35 36 
3 33 32 5 
3 33 5 6 
3 36 35 37 
