ply
format ascii 1.0
comment VCGLIB generated
comment TextureFile Dungeons_2_Texture_01_A.png
element vertex 144
property float x
property float y
property float z
property float nx
property float ny
property float nz
property uchar red
property uchar green
property uchar blue
property uchar alpha
property float texture_u
property float texture_v
element face 188
property list uchar int vertex_indices
end_header
0.00293 50 0 7.007802e-12 0.7476336 -0.6641116 192 192 192 255 0.023392 0.859830
-31.24805 50 0 -0.001002688 0.2028053 -0.9792186 192 192 192 255 0.017437 0.854174
-31.24805 37.5 0 -0.0006399943 0.001279989 -0.999999 192 192 192 255 0.018070 0.853462
-62.49805 37.5 0 -0.001023993 0.0005119964 -0.9999993 192 192 192 255 0.012116 0.847803
-62.49805 25 0 -0.0006399842 0.001279969 -0.999999 192 192 192 255 0.012782 0.847134
-93.74902 25 0 -0.001023974 0.0005119869 -0.9999993 192 192 192 255 0.006829 0.841472
-93.74902 12.5 0 -0.0008518602 0.00170372 -0.9999982 192 192 192 255 0.007527 0.840847
-125 12.5 0 -0.8164966 0.4082483 -0.4082483 192 192 192 255 0.001576 0.835182
-93.74902 25 38.83301 -0.5448774 0.7747348 0.3207721 192 192 192 255 0.013597 0.834580
-31.24805 50 12.94434 -0.0004062789 0.9999999 0.0002388664 192 192 192 255 0.019716 0.851885
-31.24805 37.5 12.94434 -0.623512 0.765124 0.1606799 192 192 192 255 0.020334 0.851187
-62.49805 37.5 25.88867 -0.4820091 0.8526745 0.2015276 192 192 192 255 0.016651 0.843216
-62.49805 25 25.88867 -0.6872011 0.2389351 0.6860501 192 192 192 255 0.017288 0.842576
-93.74902 12.5 38.83301 -0.0001927432 1 5.016415e-05 192 192 192 255 0.014253 0.833996
-125 12.5 51.77832 -0.4845114 0.8514526 0.2006916 192 192 192 255 0.010555 0.825975
0.00293 -4e-06 0 -5.909582e-09 -0.99985 -0.01731919 192 192 192 255 0.025715 0.856901
-125 0 0 -0.4082483 -0.4082483 -0.8164966 192 192 192 255 0.002305 0.834599
-125 0 51.77832 -0.7075866 -0.0009361928 0.706626 192 192 192 255 0.011229 0.825448
500 50 499.9971 0.6613351 0.7500905 0 192 192 192 255 0.205993 0.862310
500 50 531.248 0.9792155 0.20282 0.001002685 192 192 192 255 0.212090 0.856827
500 37.5 531.248 0.999999 0.001279989 0.0006399943 192 192 192 255 0.211458 0.856099
500 37.5 562.498 0.9999993 0.0005119964 0.001023993 192 192 192 255 0.217552 0.850613
500 25 562.498 0.999999 0.001279969 0.0006399842 192 192 192 255 0.216886 0.849927
500 25 593.749 0.9999993 0.0005119869 0.001023974 192 192 192 255 0.222978 0.844440
500 12.5 593.749 0.9999982 0.00170372 0.0008518602 192 192 192 255 0.222280 0.843796
500 12.5 625 0.4082483 0.4082483 0.8164966 192 192 192 255 0.228369 0.838307
461.166 25 593.749 -0.1557897 0.9173819 0.3662511 192 192 192 255 0.216434 0.837376
487.0547 50 531.248 -0.0001592109 1 0.0003894921 192 192 192 255 0.209885 0.854480
487.0547 37.5 531.248 -0.001902475 0.9999874 0.004654196 192 192 192 255 0.209266 0.853766
474.1113 37.5 562.498 -0.2005116 0.8526431 0.4824883 192 192 192 255 0.213166 0.845912
474.1113 25 562.498 -0.336412 0.4811765 0.8095037 192 192 192 255 0.212527 0.845255
461.166 12.5 593.749 -0.327242 0.5486835 0.7693238 192 192 192 255 0.215775 0.836775
448.2217 12.5 625 -0.1604818 0.9078208 0.3874365 192 192 192 255 0.219689 0.828872
500 -4e-06 499.9971 0.01732214 -0.99985 5.909582e-09 192 192 192 255 0.203674 0.859323
500 0 625 0.8164966 -0.4082483 0.4082483 192 192 192 255 0.227638 0.837705
448.2217 0 625 -0.3365574 -0.4759633 0.8125196 192 192 192 255 0.219010 0.828328
500 -4e-06 0 4.000047e-06 -1 -8.000094e-06 192 192 192 255 0.113573 0.940603
500 50 0 0.000168301 1 -8.415052e-05 192 192 192 255 0.113546 0.945458
250.002 50 249.998 0 1 0 192 192 192 255 0.114760 0.861071
152.4502 50 186.8945 -0.0004551225 0.9999998 0.0004548443 192 192 192 255 0.085398 0.854528
150.8682 37.5 195.418 -0.001989617 0.999996 0.002015029 192 192 192 255 0.086850 0.852031
205.5098 37.5 289.5703 -0.4578941 0.7628642 0.456477 192 192 192 255 0.114074 0.845331
205.8066 25 294.1934 -0.1486585 0.9776509 0.1486587 192 192 192 255 0.114984 0.843916
341.3438 25 463.6162 -0.0002868573 0.9999999 0.0002781079 192 192 192 255 0.170722 0.838603
335.6465 12.5 464.7998 -0.0001497802 1 0.0001486667 192 192 192 255 0.169598 0.836753
161.6113 12.5 338.3887 -0.588349 0.5547002 0.5883477 192 192 192 255 0.115210 0.827425
161.6113 0 338.3887 -0.01660684 -0.9997242 0.01660689 192 192 192 255 0.115207 0.826889
240.373 50 238.8838 0.0005445245 0.9999959 -0.002818687 192 192 192 255 0.110969 0.861284
380.3744 50 20.41056 -5.784844e-05 1 0.0001044758 192 192 192 255 0.096414 0.922456
29.34863 50 31.13281 0.000549556 0.9999999 2.386326e-06 192 192 192 255 0.034440 0.859662
479.2314 50 120.0004 -0.0001891215 1 6.825785e-05 192 192 192 255 0.131334 0.922792
468.0293 50 471.7461 -1.961852e-05 0.9999998 -0.0006231322 192 192 192 255 0.195053 0.861501
260.9961 50 259.5068 0.0004232907 0.9999999 -6.942746e-05 192 192 192 255 0.118499 0.861386
240.373 46.28747 229.9111 3.629989e-05 1 -0.0001879035 192 192 192 255 0.109323 0.862625
375.1623 46.28747 32.23252 -2.106589e-05 1 9.499514e-05 192 192 192 255 0.097621 0.919329
47.03125 46.28747 40.10547 2.281968e-05 1 9.90858e-08 192 192 192 255 0.039507 0.861051
468.6392 46.28747 121.8702 -0.1666153 0.9841866 0.0601349 192 192 192 255 0.129821 0.920386
460.6631 46.28747 457.0947 -9.128399e-07 1 -2.899403e-05 192 192 192 255 0.190812 0.862511
268.3623 46.28747 259.5068 0.1910466 0.9810807 -0.03133517 192 192 192 255 0.119811 0.862483
265.1602 46.28747 210.7754 -7.615842e-05 1 -8.958546e-05 192 192 192 255 0.110261 0.870375
268.7812 50 220.7266 -0.08612356 0.9911203 -0.1013075 192 192 192 255 0.112731 0.869538
340.4443 50 159.5557 0 1 0 192 192 192 255 0.114306 0.892604
348.9717 50 161.4961 0.1468564 0.9785439 0.1445168 192 192 192 255 0.116164 0.893755
353.8359 46.28747 171.8467 0.1521644 0.9775397 0.1458156 192 192 192 255 0.118897 0.892573
396.8145 46.28747 391.4912 0.01781127 0.9996904 -0.01737406 192 192 192 255 0.167238 0.862502
429.5674 50 432.3174 0.2225842 0.9385805 -0.2636719 192 192 192 255 0.180832 0.861480
355.2656 50 356.1465 0.08281492 0.9949201 -0.05723491 192 192 192 255 0.153358 0.861438
377.5332 50 388.4121 0.06048745 0.9964236 -0.05900316 192 192 192 255 0.163386 0.859797
194.6133 46.28747 36.56445 0.0004488573 0.9997925 0.02036621 192 192 192 255 0.066150 0.887769
156.8916 50 28.32324 0.05335974 0.9791694 0.1959081 192 192 192 255 0.057695 0.882844
258.417 50 26.08691 -0.01432155 0.9978066 0.06462852 192 192 192 255 0.075755 0.900849
207.0098 50 14.64746 0.00212631 0.9953277 0.09653173 192 192 192 255 0.064438 0.893901
157.2197 46.28747 148.2783 0.009970439 0.999899 -0.01012758 192 192 192 255 0.079312 0.861949
178.1631 50 177.6387 0.1488534 0.9623387 -0.2274796 192 192 192 255 0.088423 0.860806
120.5986 50 120.9668 0.1725198 0.9800673 -0.09851469 192 192 192 255 0.067550 0.860364
137.8838 50 151.3135 0.03982221 0.9983878 -0.04044941 192 192 192 255 0.076235 0.858157
466.0186 46.28747 232.0107 -0.02529108 0.99968 -0.000562035 192 192 192 255 0.149394 0.901813
474.2939 50 189.3555 -0.131719 0.9911359 0.01731304 192 192 192 255 0.143060 0.910598
471.7656 50 303.3301 -0.1480732 0.9881908 -0.0394133 192 192 192 255 0.163677 0.891130
483.5088 50 259.3203 -0.1374585 0.9905028 -0.003049269 192 192 192 255 0.157506 0.900554
6.020508 37.5 93.30078 -0.2449014 0.9194338 0.3076766 192 192 192 255 0.041581 0.843758
110.4297 37.5 196.0254 -0.4099433 0.8711541 0.2702538 192 192 192 255 0.079539 0.844581
83.29492 37.5 154.7754 -0.2926089 0.9088063 0.2974074 192 192 192 255 0.067048 0.846945
62.49902 29.39566 149.3643 -0.5792333 0.5695679 0.5831649 192 192 192 255 0.062430 0.843695
376.377 37.5 463.1895 -0.2960348 0.8617464 0.4120152 192 192 192 255 0.177118 0.845701
452.7793 37.5 540.8223 -0.5689906 0.7856048 0.243053 192 192 192 255 0.205298 0.845866
423.0117 25 511.3984 -0.1086415 0.9883142 0.1069218 192 192 192 255 0.193961 0.845000
438.8486 37.5 508.0596 -0.3750827 0.8503237 0.3691377 192 192 192 255 0.196550 0.849125
61.50879 12.5 238.2871 -0.4138936 0.7336996 0.5388664 192 192 192 255 0.078678 0.826919
145.583 12.5 322.3604 -0.4513043 0.8404338 0.2999926 192 192 192 255 0.109362 0.827344
119.1738 12.5 282.5342 -0.04110999 0.9983085 0.04111047 192 192 192 255 0.097267 0.829602
104.7168 5.115607 281.4941 -0.6605629 0.3568028 0.6605667 192 192 192 255 0.094527 0.826821
434.4928 46.28747 89.12622 0.01067956 0.9752692 0.2207625 192 192 192 255 0.118063 0.920000
437.474 50 77.01965 4.362285e-06 1 9.017499e-05 192 192 192 255 0.116422 0.922799
421.5866 50 63.32563 -0.0001330394 1 -5.513864e-05 192 192 192 255 0.111222 0.922369
409.3264 46.28747 64.99334 -7.613168e-05 1 1.803758e-05 192 192 192 255 0.109394 0.919716
265.1602 46.28747 210.7754 -7.615842e-05 1 -8.958546e-05 192 192 192 255 0.119737 0.642303
268.7812 50 220.7266 -0.08612356 0.9911203 -0.1013075 192 192 192 255 0.121974 0.641985
421.5866 50 63.32563 -0.0001330394 1 -5.513864e-05 192 192 192 255 0.123408 0.680192
409.3264 46.28747 64.99334 -7.613168e-05 1 1.803758e-05 192 192 192 255 0.121833 0.679916
194.6133 46.28747 36.56445 0.0004488573 0.9997925 0.02036621 192 192 192 255 0.078883 0.656199
156.8916 50 28.32324 0.05335974 0.9791694 0.1959081 192 192 192 255 0.070354 0.652753
29.34863 50 31.13281 0.000549556 0.9999999 2.386326e-06 192 192 192 255 0.045876 0.634533
47.03125 46.28747 40.10547 2.281968e-05 1 9.90858e-08 192 192 192 255 0.050964 0.635253
157.2197 46.28747 148.2783 0.009970439 0.999899 -0.01012758 192 192 192 255 0.089394 0.635756
178.1631 50 177.6387 0.1488534 0.9623387 -0.2274796 192 192 192 255 0.098011 0.635156
240.373 50 238.8838 0.0005445245 0.9999959 -0.002818687 192 192 192 255 0.119778 0.635415
240.373 46.28747 229.9111 3.629989e-05 1 -0.0001879035 192 192 192 255 0.118358 0.636134
466.0186 46.28747 232.0107 -0.02529108 0.99968 -0.000562035 192 192 192 255 0.158540 0.666615
474.2939 50 189.3555 -0.131719 0.9911359 0.01731304 192 192 192 255 0.152846 0.673686
479.2314 50 120.0004 -0.0001891215 1 6.825785e-05 192 192 192 255 0.136343 0.686926
468.6392 46.28747 121.8702 -0.1666153 0.9841866 0.0601349 192 192 192 255 0.135740 0.685036
434.4928 46.28747 89.12622 0.01067956 0.9752692 0.2207625 192 192 192 255 0.129963 0.680292
437.474 50 77.01965 4.362285e-06 1 9.017499e-05 192 192 192 255 0.128220 0.680632
348.9717 50 161.4961 0.1468564 0.9785439 0.1445168 192 192 192 255 0.126656 0.660927
353.8359 46.28747 171.8467 0.1521644 0.9775397 0.1458156 192 192 192 255 0.129262 0.659653
396.8145 46.28747 391.4912 0.01781127 0.9996904 -0.01737406 192 192 192 255 0.174186 0.635720
429.5674 50 432.3174 0.2225842 0.9385805 -0.2636719 192 192 192 255 0.187174 0.635192
468.0293 50 471.7461 -1.961852e-05 0.9999998 -0.0006231322 192 192 192 255 0.200899 0.635132
460.6631 46.28747 457.0947 -9.128399e-07 1 -2.899403e-05 192 192 192 255 0.196927 0.635600
260.9961 50 259.5068 0.0004232907 0.9999999 -6.942746e-05 192 192 192 255 0.127044 0.635456
268.3623 46.28747 259.5068 0.1910466 0.9810807 -0.03133517 192 192 192 255 0.128457 0.635963
355.2656 50 356.1465 0.08281492 0.9949201 -0.05723491 192 192 192 255 0.160665 0.635309
377.5332 50 388.4121 0.06048745 0.9964236 -0.05900316 192 192 192 255 0.170285 0.633938
375.1623 46.28747 32.23252 -2.106589e-05 1 9.499514e-05 192 192 192 255 0.116373 0.684324
380.3744 50 20.41056 -5.784844e-05 1 0.0001044758 192 192 192 255 0.115618 0.686445
258.417 50 26.08691 -0.01432155 0.9978066 0.06462852 192 192 192 255 0.088945 0.666591
207.0098 50 14.64746 0.00212631 0.9953277 0.09653173 192 192 192 255 0.077699 0.661305
120.5986 50 120.9668 0.1725198 0.9800673 -0.09851469 192 192 192 255 0.077855 0.634915
137.8838 50 151.3135 0.03982221 0.9983878 -0.04044941 192 192 192 255 0.086050 0.633098
471.7656 50 303.3301 -0.1480732 0.9881908 -0.0394133 192 192 192 255 0.171587 0.658650
483.5088 50 259.3203 -0.1374585 0.9905028 -0.003049269 192 192 192 255 0.166061 0.665949
62.49902 29.39566 149.3643 -0.5792333 0.5695679 0.5831649 192 192 192 255 0.071848 0.619398
83.29492 37.5 154.7754 -0.2926089 0.9088063 0.2974074 192 192 192 255 0.076469 0.622835
6.020508 37.5 93.30078 -0.2449014 0.9194338 0.3076766 192 192 192 255 0.051401 0.620375
110.4297 37.5 196.0254 -0.4099433 0.8711541 0.2702538 192 192 192 255 0.088425 0.620835
452.7793 37.5 540.8223 -0.5689906 0.7856048 0.243053 192 192 192 255 0.210984 0.621181
438.8486 37.5 508.0596 -0.3750827 0.8503237 0.3691377 192 192 192 255 0.202507 0.623889
423.0117 25 511.3984 -0.1086415 0.9883142 0.1069218 192 192 192 255 0.200270 0.619293
376.377 37.5 463.1895 -0.2960348 0.8617464 0.4120152 192 192 192 255 0.183517 0.621203
104.7168 5.115607 281.4941 -0.6605629 0.3568028 0.6605667 192 192 192 255 0.102435 0.602795
119.1738 12.5 282.5342 -0.04110999 0.9983085 0.04111047 192 192 192 255 0.105175 0.605848
61.50879 12.5 238.2871 -0.4138936 0.7336996 0.5388664 192 192 192 255 0.086673 0.603709
145.583 12.5 322.3604 -0.4513043 0.8404338 0.2999926 192 192 192 255 0.116930 0.603887
3 8 12 4 
3 8 4 5 
3 9 0 1 
3 10 9 1 
3 10 1 2 
3 11 10 2 
3 11 2 3 
3 12 11 3 
3 12 3 4 
3 13 8 5 
3 13 5 6 
3 14 13 6 
3 14 6 7 
3 42 43 86 
3 86 43 26 
3 86 26 30 
3 38 39 27 
3 38 27 52 
3 18 51 27 
3 27 51 65 
3 27 65 67 
3 66 52 67 
3 52 27 67 
3 28 27 39 
3 28 39 40 
3 28 40 41 
3 28 41 84 
3 84 87 28 
3 28 87 85 
3 28 85 29 
3 30 29 85 
3 30 85 86 
3 31 26 43 
3 31 43 44 
3 32 31 44 
3 32 44 45 
3 0 15 1 
3 1 15 2 
3 2 15 3 
3 3 15 4 
3 4 15 5 
3 5 15 6 
3 6 15 16 
3 6 16 7 
3 7 16 17 
3 7 17 14 
3 35 32 45 
3 35 45 46 
3 26 23 22 
3 26 22 30 
3 27 19 18 
3 28 20 19 
3 28 19 27 
3 29 21 20 
3 29 20 28 
3 30 22 21 
3 30 21 29 
3 31 24 23 
3 31 23 26 
3 32 25 24 
3 32 24 31 
3 18 19 33 
3 19 20 33 
3 20 21 33 
3 21 22 33 
3 22 23 33 
3 23 24 33 
3 24 25 34 
3 24 34 33 
3 25 32 35 
3 25 35 34 
3 17 16 15 
3 17 15 46 
3 15 33 46 
3 33 34 35 
3 33 35 46 
3 0 37 36 
3 0 36 15 
3 15 36 33 
3 33 36 37 
3 33 37 18 
3 55 72 68 
3 95 54 59 
3 59 54 68 
3 59 68 72 
3 53 59 72 
3 38 47 39 
3 39 47 73 
3 39 73 75 
3 39 75 9 
3 9 75 74 
3 9 74 49 
3 0 9 49 
3 40 39 9 
3 40 9 10 
3 81 41 40 
3 81 40 82 
3 10 11 80 
3 10 80 40 
3 80 82 40 
3 80 11 12 
3 80 12 83 
3 42 41 81 
3 42 81 83 
3 42 83 12 
3 43 42 12 
3 43 12 8 
3 44 43 8 
3 44 8 13 
3 13 14 88 
3 13 88 90 
3 89 45 44 
3 89 44 90 
3 44 13 90 
3 46 45 89 
3 46 89 91 
3 88 14 17 
3 88 17 91 
3 46 91 17 
3 57 76 64 
3 58 64 76 
3 58 76 63 
3 63 76 56 
3 63 56 92 
3 60 61 37 
3 60 37 94 
3 48 37 0 
3 48 0 71 
3 0 49 69 
3 0 69 71 
3 70 48 71 
3 18 37 50 
3 18 50 79 
3 78 51 18 
3 78 18 79 
3 77 79 50 
3 93 37 61 
3 93 61 62 
3 96 97 98 
3 96 98 99 
3 100 101 102 
3 100 102 103 
3 104 105 106 
3 104 106 107 
3 108 109 110 
3 108 110 111 
3 112 113 114 
3 112 114 115 
3 116 117 118 
3 116 118 119 
3 106 97 96 
3 106 96 107 
3 38 61 60 
3 38 60 47 
3 62 61 38 
3 62 38 52 
3 115 114 120 
3 115 120 121 
3 120 122 116 
3 120 116 121 
3 116 123 117 
3 122 123 116 
3 124 125 126 
3 124 126 100 
3 126 127 100 
3 100 127 101 
3 102 128 104 
3 102 104 103 
3 104 129 105 
3 128 129 104 
3 118 130 108 
3 118 108 119 
3 108 131 109 
3 130 131 108 
3 132 133 134 
3 135 133 132 
3 136 137 138 
3 86 84 41 
3 86 41 42 
3 138 137 139 
3 140 141 142 
3 143 141 140 
3 110 113 112 
3 110 112 111 
3 37 93 50 
3 94 37 48 
3 99 98 125 
3 99 125 124 
