ply
format ascii 1.0
comment VCGLIB generated
comment TextureFile Dungeons_2_Texture_01_A.png
element vertex 51
property float x
property float y
property float z
property float nx
property float ny
property float nz
property uchar red
property uchar green
property uchar blue
property uchar alpha
property float texture_u
property float texture_v
element face 98
property list uchar int vertex_indices
end_header
-158.7441 255.3123 200.4523 -0.1936819 0.9585211 0.2091046 192 192 192 255 0.068666 0.124701
158.7441 255.5606 195.8297 0.2204738 0.7299873 0.6469234 192 192 192 255 0.068461 0.124629
-158.7441 357.7997 -224.9902 -1 8.637092e-05 -4.423568e-05 192 192 192 255 0.068767 0.124506
158.7441 357.7997 -194.7091 0.6037617 -0.03011044 -0.796596 192 192 192 255 0.068567 0.124459
-158.7441 357.7997 -67.28723 -0.9921108 0.01616182 0.1243177 192 192 192 255 0.068736 0.124553
-158.7441 285.6982 88.85664 -0.9269577 0.05751142 0.3707316 192 192 192 255 0.068695 0.124644
158.7441 285.6982 88.85664 0.5695583 0.1183722 0.8133827 192 192 192 255 0.068492 0.124579
-139.3863 95.57156 199.4129 -0.6079668 -0.2005753 0.7682096 192 192 192 255 0.068640 0.124768
158.7441 110.9814 211.4347 0.8938865 -0.327334 0.3062995 192 192 192 255 0.068452 0.124679
158.7441 104.6362 101.1506 0.9997122 0.02028444 0.01280866 192 192 192 255 0.068483 0.124644
158.7441 113.3455 -67.28723 0.997157 -0.00781713 -0.07494478 192 192 192 255 0.068514 0.124596
139.7507 113.4714 -199.8191 0.9298446 -0.02085502 -0.367361 192 192 192 255 0.068567 0.124552
-158.7441 134.2398 -224.9902 -1 -4.269938e-05 -2.233416e-05 192 192 192 255 0.068756 0.124582
-158.7441 122.5359 -60.87748 -0.999979 0.004087695 0.005046607 192 192 192 255 0.068727 0.124634
-158.7441 110.9814 101.1506 -0.9993851 0.02540342 0.02417037 192 192 192 255 0.068680 0.124710
-151.7475 306.5522 -55.17046 -0.9526417 0.1931541 0.2348732 192 192 192 255 0.068723 0.124584
158.7441 322.7594 -52.23718 0.9999999 0.0003971191 -2.557529e-05 192 192 192 255 0.068531 0.124517
158.7441 285.5142 35.03783 1 0 0 192 192 192 255 0.068506 0.124562
-158.7441 286.5542 33.11363 -1 0.0001684332 0.0001962845 192 192 192 255 0.068707 0.124625
-158.7441 330.125 19.42794 -0.9999999 0.0004034497 0.0002124875 192 192 192 255 0.068715 0.124596
158.7441 328.707 22.05291 0.5463735 0.6840375 0.4832895 192 192 192 255 0.068512 0.124535
137.5877 233.2832 99.37514 0.6511683 0.6425753 0.4038278 192 192 192 255 0.068499 0.124614
-146.2654 244.4473 99.40059 -0.8608233 0.3695757 0.3498529 192 192 192 255 0.068680 0.124668
-67.82887 285.9889 34.15794 -0.3833374 0.8747399 0.2964499 192 192 192 255 0.068647 0.124607
-63.71435 285.6292 60.11406 -0.1795528 0.8581015 0.4810641 192 192 192 255 0.068638 0.124615
-56.73534 300.3804 28.28454 -0.2013063 0.6359524 0.7450104 192 192 192 255 0.068643 0.124595
158.7441 303.3748 28.23071 0.9999884 0.00387199 0.002862338 192 192 192 255 0.068509 0.124551
158.7441 285.6069 53.64069 1 0.0002483521 9.245027e-05 192 192 192 255 0.068501 0.124568
158.7441 302.721 45.50934 0.3789345 0.6669647 0.6415347 192 192 192 255 0.068505 0.124556
-52.17606 302.7435 51.98173 -0.3791285 0.8892445 0.2559411 192 192 192 255 0.068634 0.124600
-40.44771 323.2361 -53.12 0.9205299 0.221118 0.3220738 192 192 192 255 0.068653 0.124553
-43.65704 357.7997 -67.28723 0.918447 0.2089273 0.3358641 192 192 192 255 0.068661 0.124531
158.7441 357.7997 -99.86451 0.5411187 0.6873505 0.4844997 192 192 192 255 0.068545 0.124484
158.7441 318.404 -88.51898 0.9936998 -0.01148018 -0.111485 192 192 192 255 0.068539 0.124509
-31.1822 357.8 -99.95259 0.9145804 0.2024409 0.3500864 192 192 192 255 0.068661 0.124519
-30.27309 325.6906 -83.99134 0.9182975 0.2090366 0.3362044 192 192 192 255 0.068654 0.124541
158.7441 259.0273 131.2957 0.4999959 0.4817804 -0.7196469 192 192 192 255 0.068479 0.124607
5.791678 260.7412 99.38884 0.1736801 0.8338005 0.5240344 192 192 192 255 0.068582 0.124627
-116.1843 323.4174 -53.45571 -0.3202015 0.6023839 0.7311666 192 192 192 255 0.068702 0.124568
-158.7441 324.7438 -40.10279 -0.9882908 0.04630119 -0.1453874 192 192 192 255 0.068727 0.124580
-158.7441 259.8394 116.1732 -0.642281 0.2641962 -0.7194967 192 192 192 255 0.068686 0.124668
-95.16106 260.7407 99.39667 -0.2252506 0.7078665 0.6694679 192 192 192 255 0.068647 0.124648
118.7863 357.7997 -224.9902 0.6036724 -0.03019021 -0.7966606 192 192 192 255 0.068598 0.124457
-66.716 253.9939 224.9941 -0.1308383 0.2487216 0.9596974 192 192 192 255 0.068597 0.124690
158.7441 211.6162 -2.805062 1 0 0 192 192 192 255 0.068511 0.124590
-158.7441 248.1414 -100.5545 -1 0 0 192 192 192 255 0.068731 0.124602
158.7441 303.8707 -7.975733 1 0 0 192 192 192 255 0.068518 0.124540
-158.7441 168.6462 203.0587 -0.6093508 -0.1993418 0.7674337 192 192 192 255 0.068656 0.124750
-158.7441 95.91869 184.1446 -0.6096871 -0.2005557 0.7668501 192 192 192 255 0.068656 0.124766
78.09755 253.9939 224.9941 0.2197208 0.7297189 0.6474822 192 192 192 255 0.068503 0.124657
158.7441 232.84 221.4443 0.220164 0.7293591 0.647737 192 192 192 255 0.068453 0.124650
3 4 31 34 
3 4 34 2 
3 2 42 11 
3 2 11 12 
3 32 33 11 
3 32 11 3 
3 2 45 4 
3 15 38 4 
3 16 10 33 
3 4 13 15 
3 40 41 22 
3 8 9 36 
3 8 36 1 
3 8 1 50 
3 22 14 40 
3 18 14 5 
3 5 24 23 
3 5 23 18 
3 6 9 27 
3 19 20 16 
3 19 16 30 
3 39 13 19 
3 19 13 14 
3 19 14 18 
3 18 23 25 
3 18 25 19 
3 21 9 6 
3 22 41 5 
3 5 14 22 
3 5 6 27 
3 5 27 24 
3 19 25 26 
3 19 26 20 
3 26 46 16 
3 26 16 20 
3 27 9 17 
3 29 28 26 
3 29 26 25 
3 24 27 28 
3 24 28 29 
3 27 17 26 
3 27 26 28 
3 23 24 29 
3 23 29 25 
3 2 34 32 
3 2 32 3 
3 2 3 42 
3 19 30 38 
3 19 38 39 
3 11 33 10 
3 31 30 35 
3 30 16 33 
3 30 33 35 
3 32 34 35 
3 32 35 33 
3 34 31 35 
3 36 9 21 
3 37 36 21 
3 6 37 21 
3 39 38 15 
3 15 13 39 
3 4 38 30 
3 4 30 31 
3 47 48 7 
3 0 43 49 
3 0 49 1 
3 0 1 36 
3 0 36 37 
3 0 37 41 
3 0 41 40 
3 5 41 37 
3 5 37 6 
3 11 42 3 
3 17 9 44 
3 12 45 2 
3 13 45 12 
3 10 44 9 
3 46 44 10 
3 46 10 16 
3 17 46 26 
3 17 44 46 
3 4 45 13 
3 40 14 48 
3 40 48 47 
3 40 47 0 
3 7 8 50 
3 7 50 49 
3 7 49 43 
3 47 7 43 
3 47 43 0 
3 49 50 1 
3 9 8 7 
3 9 7 48 
3 9 48 14 
3 10 13 12 
3 10 12 11 
3 9 14 13 
3 9 13 10 
