ply
format ascii 1.0
comment VCGLIB generated
comment TextureFile Dungeons_2_Texture_01_A.png
element vertex 97
property float x
property float y
property float z
property float nx
property float ny
property float nz
property uchar red
property uchar green
property uchar blue
property uchar alpha
property float texture_u
property float texture_v
element face 190
property list uchar int vertex_indices
end_header
-140.5918 -284.1542 220.2461 -0.276882 -0.2254424 0.9340836 192 192 192 255 0.068625 0.124961
140.5898 -284.1542 220.2461 0.8020861 -0.4512087 0.3912398 192 192 192 255 0.068483 0.124900
-140.5918 236.5104 220.2461 -0.9996483 -0.02651918 0.0001353497 192 192 192 255 0.068646 0.124681
142.1442 236.5104 204.0247 0.1040314 0.8393539 0.5335378 192 192 192 255 0.068491 0.124622
-140.5918 340.5399 -204.9927 -0.1195562 0.494831 -0.8607256 192 192 192 255 0.068766 0.124504
140.5898 340.5399 -220.2441 3.586169e-05 0.5760666 -0.8174028 192 192 192 255 0.068619 0.124457
-140.5918 -284.1542 -220.2441 -0.8269218 -0.4402118 -0.3498771 192 192 192 255 0.068734 0.124819
140.5898 -284.1542 -220.2441 0.397469 -0.234663 -0.887103 192 192 192 255 0.068601 0.124769
-140.5918 263.2982 88.73073 -0.3288487 0.3542759 0.8754125 192 192 192 255 0.068685 0.124626
140.5898 263.2982 88.73073 0.0005655606 0.9999998 0.0002071711 192 192 192 255 0.068529 0.124575
140.5898 -284.1542 88.73073 0.718977 -0.6950307 -0.002112647 192 192 192 255 0.068520 0.124859
-140.5918 -284.1542 101.6859 -0.7182931 -0.60601 0.3417703 192 192 192 255 0.068657 0.124920
-140.5918 -284.1542 -38.90277 -0.6718585 -0.6833677 -0.2856829 192 192 192 255 0.068692 0.124874
140.5898 -284.1542 -121.8959 0.6455721 -0.7143068 0.2701899 192 192 192 255 0.068576 0.124796
140.5898 314.7724 -32.60136 0.7806963 0.5113627 0.3591956 192 192 192 255 0.068566 0.124516
-140.5918 314.7724 -32.60136 -0.4387889 0.6568141 0.613237 192 192 192 255 0.068720 0.124564
137.4909 134.8767 144.4784 0.981598 0.1098354 -0.1562106 192 192 192 255 0.068511 0.124657
140.5898 263.2982 131.2599 0.0002270874 0.9999999 0.000517756 192 192 192 255 0.068516 0.124587
-140.5918 263.2982 135.3473 -0.3635617 0.8674224 0.3397077 192 192 192 255 0.068672 0.124640
-137.4929 143.8973 86.77414 -0.8902441 0.003898895 0.455467 192 192 192 255 0.068678 0.124687
-137.8457 203.336 -26.78542 -0.9994217 -0.01051108 -0.03233747 192 192 192 255 0.068712 0.124623
-140.5918 290.0249 -23.57892 -0.4337637 0.2334369 0.8702622 192 192 192 255 0.068717 0.124579
140.5898 290.0249 -24.25624 0.006626545 0.1283815 0.9917027 192 192 192 255 0.068563 0.124531
137.4909 208.5068 -64.07124 0.9902397 0.1379137 0.02012983 192 192 192 255 0.068574 0.124563
140.5898 314.7724 -85.24724 0.9995612 -0.02953107 -0.002335092 192 192 192 255 0.068581 0.124503
-140.5918 314.7724 -86.19177 -0.9996545 -0.02613232 -0.00282107 192 192 192 255 0.068734 0.124549
-137.4929 210.8771 -215.3894 -0.999652 -0.02619568 -0.003111866 192 192 192 255 0.068759 0.124567
140.5898 340.5399 -88.3999 0.6538138 0.3943444 0.6457709 192 192 192 255 0.068582 0.124489
137.4909 207.1176 -215.3894 0.6794776 0.1370253 -0.7207873 192 192 192 255 0.068615 0.124526
140.5898 290.0249 79.90209 0.6149318 0.5465131 0.5684913 192 192 192 255 0.068532 0.124559
-140.5918 290.0249 76.98727 -0.1803455 0.9656546 0.1870477 192 192 192 255 0.068689 0.124608
-137.4929 121.435 215.3913 -0.9996368 -0.02694319 0.0005570096 192 192 192 255 0.068641 0.124740
-140.5918 236.5104 141.6145 -1 -0.0001683432 -2.650517e-05 192 192 192 255 0.068669 0.124656
140.5898 236.5104 144.7935 0.1949482 0.182649 0.9636568 192 192 192 255 0.068511 0.124605
137.4909 116.1526 215.3913 0.7790618 -0.05325466 0.6246813 192 192 192 255 0.068489 0.124688
-140.5918 249.98 138.4638 -0.9999142 0.00841193 0.01004974 192 192 192 255 0.068670 0.124648
16.08259 236.5104 142.7635 0.9220141 0.137218 0.3620237 192 192 192 255 0.068579 0.124627
-140.5918 236.5104 156.122 -0.9996569 -0.02619116 0.0002573385 192 192 192 255 0.068665 0.124661
15.61805 250.0816 139.5835 0.9169379 0.1292955 0.3775018 192 192 192 255 0.068581 0.124619
10.21603 236.5104 158.5621 0.03825415 0.9991639 0.01443479 192 192 192 255 0.068578 0.124633
-140.5918 246.7981 154.2564 -0.9999729 0.006240368 0.003896811 192 192 192 255 0.068665 0.124655
9.700523 246.7981 155.4055 0.9218478 0.1364328 0.3627434 192 192 192 255 0.068579 0.124626
140.5898 290.0249 28.97104 0.316925 0.9160289 -0.245865 192 192 192 255 0.068547 0.124545
-17.03715 291.6314 -23.45951 0.04518261 0.3051927 0.9512181 192 192 192 255 0.068647 0.124557
139.8156 269.6728 -21.61939 0.8791528 0.0354548 0.4752193 192 192 192 255 0.068562 0.124543
140.1214 268.9039 -1.953655 0.771998 0.6332857 -0.05448219 192 192 192 255 0.068556 0.124548
-3.34196 290.0249 -5.624097 0.2113495 0.9744883 -0.07552523 192 192 192 255 0.068635 0.124560
22.74888 283.6105 -15.15844 0.2117952 0.9743419 -0.07616215 192 192 192 255 0.068623 0.124557
-66.81182 263.2982 88.73073 -0.01839777 0.9998308 9.408645e-05 192 192 192 255 0.068643 0.124612
-140.5918 263.2982 108.2359 -0.4546049 0.5203442 -0.7228944 192 192 192 255 0.068679 0.124632
-131.789 253.7791 95.88369 -0.6650182 0.7468271 0 192 192 192 255 0.068677 0.124632
-138.9257 199.0838 87.67854 -0.9915136 0.130001 0.0008611263 192 192 192 255 0.068681 0.124659
-140.5918 332.1007 -87.42308 -0.6476711 0.666319 0.3695148 192 192 192 255 0.068736 0.124539
22.73712 340.5399 -88.31671 -0.4790645 0.8264568 0.2957471 192 192 192 255 0.068645 0.124508
-140.5918 340.5399 -122.5497 -0.5685011 0.8151099 0.1113659 192 192 192 255 0.068745 0.124525
9.204617 330.6976 -87.02765 -0.5113861 0.7589688 0.4030517 192 192 192 255 0.068652 0.124515
5.01393 340.5399 -121.3712 -0.01551227 0.9998447 0.008362445 192 192 192 255 0.068664 0.124502
-140.5918 333.1972 -105.7107 -0.5643412 0.7894858 0.2413114 192 192 192 255 0.068740 0.124534
0.221497 332.3772 -102.099 -0.4787688 0.8268706 0.2950685 192 192 192 255 0.068661 0.124512
48.08704 236.5104 143.2852 0.2274139 0.97315 -0.0355266 192 192 192 255 0.068562 0.124621
145.1079 236.5104 173.1049 0.3120728 0.8392031 -0.4453637 192 192 192 255 0.068500 0.124612
129.1586 217.8144 150.6447 0.7461878 0.6549993 -0.1190792 192 192 192 255 0.068515 0.124618
-84.27235 290.7572 -23.52509 -0.1811488 0.9819727 -0.05398939 192 192 192 255 0.068685 0.124569
-149.1241 290.0249 4.657055 -0.6126258 0.4005675 -0.6813481 192 192 192 255 0.068714 0.124589
-130.3836 282.6277 -16.50818 -0.8217736 0.5128592 -0.2483218 192 192 192 255 0.068709 0.124583
-161.4276 179.106 -12.63513 -0.999516 -0.02817232 -0.01320105 192 192 192 255 0.068720 0.124644
-163.7895 -244.5353 -20.65529 -0.9643769 -0.137567 -0.225948 192 192 192 255 0.068701 0.124867
-163.8522 -244.5351 85.04071 -0.9307689 -0.2701753 0.246322 192 192 192 255 0.068675 0.124902
-161.0983 128.9052 72.73935 -0.999513 -0.02859747 -0.01248364 192 192 192 255 0.068695 0.124695
-162.2352 173.0849 62.81643 -0.9995189 -0.02837985 -0.01251023 192 192 192 255 0.068700 0.124670
161.1846 165.79 -76.06331 0.9785564 0.1529303 0.1379845 192 192 192 255 0.068564 0.124577
161.1846 174.523 -194.5736 0.9422635 0.3289462 -0.06272092 192 192 192 255 0.068597 0.124543
163.8013 -241.5384 -133.6648 0.9630429 -0.1409524 0.2295229 192 192 192 255 0.068569 0.124771
163.8013 -241.5384 -207.9643 0.9341732 -0.2348216 -0.2686619 192 192 192 255 0.068588 0.124751
161.1846 191.6173 -104.7348 0.8455325 0.5337263 0.01452612 192 192 192 255 0.068573 0.124557
-30.21095 340.5399 -220.2441 -0.01218486 0.5683112 -0.8227235 192 192 192 255 0.068709 0.124483
-139.9998 315.7523 -219.3163 -0.1192014 0.4943324 -0.8610613 192 192 192 255 0.068767 0.124513
58.70684 236.5104 220.2461 0.1807889 0.3186842 0.93046 192 192 192 255 0.068532 0.124642
139.5314 195.4593 218.59 0.1810618 0.3184102 0.9305007 192 192 192 255 0.068488 0.124648
-122.9666 -75.68146 208.4361 -0.5716369 -0.006086186 0.8204842 192 192 192 255 0.068626 0.124859
102.6306 -87.96414 199.4919 0.7887809 -0.0009937913 0.6146737 192 192 192 255 0.068509 0.124814
-139.302 -82.59456 87.18621 -0.9034103 0.0134941 0.4285649 192 192 192 255 0.068668 0.124825
128.0707 -72.41152 -74.81046 0.9214692 -0.03721131 0.3866651 192 192 192 255 0.068574 0.124721
139.1472 -62.89532 114.6764 0.999395 0.01031187 0.03321628 192 192 192 255 0.068516 0.124770
-139.6117 -90.02316 -37.785 -0.9396708 0.02878746 -0.3408667 192 192 192 255 0.068699 0.124789
-104.6397 -123.9368 -200.2593 -0.8614252 0.02145023 -0.5074313 192 192 192 255 0.068719 0.124750
128.1138 -80.55338 -208.5878 0.1595448 0.03408593 -0.9866021 192 192 192 255 0.068609 0.124688
-163.0349 -91.02155 -22.07844 -0.792738 0.01561171 -0.6093625 192 192 192 255 0.068708 0.124799
-162.8271 -84.67782 72.97621 -0.8693721 0.02416809 0.4935667 192 192 192 255 0.068684 0.124826
151.5174 -71.50256 -85.16209 0.811972 -0.07389919 0.5789995 192 192 192 255 0.068566 0.124713
151.5742 -78.21174 -195.4222 0.819576 0.03717829 -0.5717629 192 192 192 255 0.068594 0.124687
133.1434 22.48272 208.5829 0.7912271 -0.2638492 0.5516733 192 192 192 255 0.068493 0.124733
130.9227 -79.04617 163.183 0.7890165 -0.0009775807 0.6143712 192 192 192 255 0.068506 0.124793
133.0239 -188.0931 208.395 0.7240122 0.2759296 0.632194 192 192 192 255 0.068491 0.124856
-130.609 -24.04686 -204.6041 -0.8432841 -0.2400088 -0.480903 192 192 192 255 0.068741 0.124682
-129.1468 -121.479 -158.5239 -0.8616454 0.02147517 -0.5070564 192 192 192 255 0.068722 0.124765
-132.9572 -205.3526 -208.2854 -0.8055526 0.3287371 -0.4929676 192 192 192 255 0.068732 0.124788
3 31 34 78 
3 31 78 77 
3 31 77 2 
3 21 62 43 
3 21 43 15 
3 4 75 76 
3 12 13 10 
3 12 10 11 
3 14 22 44 
3 14 44 24 
3 20 21 15 
3 20 15 25 
3 35 38 17 
3 35 17 18 
3 17 33 16 
3 17 16 9 
3 11 10 1 
3 11 1 0 
3 31 19 81 
3 31 81 79 
3 6 7 13 
3 6 13 12 
3 15 14 24 
3 15 24 25 
3 48 17 9 
3 65 87 88 
3 65 88 68 
3 8 48 9 
3 8 9 29 
3 8 29 30 
3 28 5 27 
3 28 27 24 
3 6 12 84 
3 6 84 95 
3 6 95 96 
3 30 46 43 
3 30 43 62 
3 30 62 63 
3 2 77 3 
3 2 3 39 
3 2 39 37 
3 0 1 93 
3 0 93 80 
3 0 80 79 
3 26 28 86 
3 26 86 85 
3 26 85 94 
3 24 23 28 
3 60 16 61 
3 49 51 19 
3 49 19 32 
3 49 32 35 
3 49 35 18 
3 37 31 2 
3 63 20 51 
3 63 51 8 
3 63 8 30 
3 26 20 25 
3 1 10 83 
3 1 83 92 
3 1 92 93 
3 23 16 83 
3 23 83 82 
3 71 74 70 
3 40 41 38 
3 40 38 35 
3 37 39 41 
3 37 41 40 
3 36 38 41 
3 35 32 40 
3 39 36 41 
3 32 37 40 
3 59 60 61 
3 17 38 36 
3 17 36 59 
3 17 59 33 
3 32 19 31 
3 32 31 37 
3 43 46 47 
3 23 44 9 
3 9 44 45 
3 9 45 29 
3 29 45 42 
3 23 9 16 
3 24 44 23 
3 30 29 42 
3 30 42 46 
3 47 46 42 
3 47 42 45 
3 43 47 45 
3 43 45 44 
3 43 44 22 
3 15 43 22 
3 15 22 14 
3 50 48 8 
3 8 51 50 
3 50 51 49 
3 49 48 50 
3 18 17 48 
3 18 48 49 
3 55 24 27 
3 55 27 53 
3 54 56 75 
3 54 75 4 
3 26 57 54 
3 26 54 4 
3 26 4 76 
3 52 57 26 
3 52 26 25 
3 5 56 53 
3 5 53 27 
3 25 24 55 
3 25 55 52 
3 53 56 58 
3 56 54 57 
3 56 57 58 
3 52 55 58 
3 52 58 57 
3 55 53 58 
3 39 3 60 
3 34 16 60 
3 34 60 3 
3 34 3 78 
3 61 16 33 
3 59 61 33 
3 39 60 59 
3 39 59 36 
3 64 62 21 
3 21 20 64 
3 64 20 63 
3 63 62 64 
3 65 68 69 
3 20 84 87 
3 20 87 65 
3 12 11 67 
3 12 67 66 
3 11 81 88 
3 11 88 67 
3 19 51 69 
3 19 69 68 
3 51 20 65 
3 51 65 69 
3 28 23 74 
3 23 82 89 
3 23 89 70 
3 13 7 73 
3 13 73 72 
3 7 86 90 
3 7 90 73 
3 74 23 70 
3 71 70 89 
3 71 89 90 
3 28 74 71 
3 76 75 28 
3 76 28 26 
3 77 78 3 
3 75 56 5 
3 28 75 5 
3 79 81 11 
3 79 11 0 
3 88 87 66 
3 88 66 67 
3 94 95 84 
3 94 84 20 
3 94 20 26 
3 79 80 91 
3 79 91 34 
3 79 34 31 
3 96 85 86 
3 96 86 7 
3 96 7 6 
3 91 92 83 
3 91 83 16 
3 91 16 34 
3 82 83 10 
3 82 10 13 
3 87 84 12 
3 87 12 66 
3 88 81 19 
3 88 19 68 
3 89 82 13 
3 89 13 72 
3 90 86 28 
3 90 28 71 
3 90 89 72 
3 90 72 73 
3 80 92 91 
3 93 92 80 
3 85 95 94 
3 96 95 85 
