ply
format ascii 1.0
comment VCGLIB generated
comment TextureFile Dungeons_2_Texture_01_A.png
element vertex 90
property float x
property float y
property float z
property float nx
property float ny
property float nz
property uchar red
property uchar green
property uchar blue
property uchar alpha
property float texture_u
property float texture_v
element face 176
property list uchar int vertex_indices
end_header
-138.9278 -266.8779 203.9454 -0.3184535 -0.2620939 0.9109853 192 192 192 255 0.068605 0.124961
7.529578 -266.8779 203.9454 0.227177 -0.9423438 0.2457208 192 192 192 255 0.068518 0.124925
-158.7441 255.3123 200.4523 -0.1930437 0.958572 0.2094609 192 192 192 255 0.068666 0.124701
158.7422 255.5605 195.8297 0.220479 0.7299867 0.6469224 192 192 192 255 0.068461 0.124629
-158.7441 357.7998 -224.9902 -1 0.0001237861 -6.437252e-05 192 192 192 255 0.068767 0.124506
158.7422 357.7998 -194.7091 0.6035493 -0.04163955 -0.7962376 192 192 192 255 0.068567 0.124459
-128.9178 -266.8779 -203.9415 -0.5336974 -0.7367429 -0.4151832 192 192 192 255 0.068684 0.124811
79.16733 -266.8779 -203.9415 0.4527828 -0.7428629 -0.4930947 192 192 192 255 0.068571 0.124770
-158.7441 357.7998 -67.28723 -0.9926267 0.0187868 0.119747 192 192 192 255 0.068736 0.124553
128.9158 -266.8779 -60.99101 0.0001732528 -1 -6.828114e-05 192 192 192 255 0.068513 0.124805
-128.9178 -266.8779 -84.55509 -0.2136812 -0.1716331 0.9617081 192 192 192 255 0.068661 0.124852
-158.7441 285.6982 88.85664 -0.8829262 0.08653444 0.4614686 192 192 192 255 0.068695 0.124644
158.7422 285.6982 88.85664 0.4812057 0.1384162 0.8656108 192 192 192 255 0.068492 0.124579
128.9158 -266.8779 91.68813 0.08842897 -0.9914896 0.09554406 192 192 192 255 0.068477 0.124856
-128.9178 -266.8779 91.68813 -0.693834 -0.7201331 -0.001632892 192 192 192 255 0.068624 0.124915
-139.3863 123.5148 199.4129 -0.6182559 -0.00540186 0.7859583 192 192 192 255 0.068640 0.124768
158.7422 173.1803 211.4347 0.8314764 -0.05797097 0.5525273 192 192 192 255 0.068452 0.124679
158.7422 152.7298 101.1506 0.9886051 0.1065056 0.1063795 192 192 192 255 0.068481 0.124653
158.7422 180.7998 -67.28723 0.9919629 0.03118574 -0.1226262 192 192 192 255 0.068525 0.124587
139.7507 181.2054 -199.8191 0.9247685 -0.03038197 -0.3793155 192 192 192 255 0.068567 0.124552
-158.7441 248.1414 -224.9902 -0.9999999 1.495566e-05 -0.0004000966 192 192 192 255 0.068755 0.124564
-158.7441 210.42 -60.87748 -0.9970781 0.05379787 0.05423271 192 192 192 255 0.068719 0.124635
-158.7441 173.1803 101.1506 -0.9983555 0.04161492 0.03942758 192 192 192 255 0.068680 0.124710
-151.7475 306.5522 -55.17046 -0.8765416 0.3057267 0.3717608 192 192 192 255 0.068723 0.124584
158.7422 322.7594 -52.23718 0.9999998 0.0005881349 -3.787724e-05 192 192 192 255 0.068531 0.124517
158.7422 285.5142 35.03783 1 0 0 192 192 192 255 0.068506 0.124562
-158.7441 286.5542 33.11363 -0.9999999 0.000261683 0.0003049538 192 192 192 255 0.068707 0.124625
-158.7441 330.125 19.42794 -0.9999997 0.0007186793 0.0003785112 192 192 192 255 0.068715 0.124596
158.7422 328.707 22.05291 0.5463734 0.6840375 0.4832895 192 192 192 255 0.068512 0.124535
137.5877 233.2832 99.37514 0.5092838 0.7286537 0.4579234 192 192 192 255 0.068499 0.124614
-146.2654 244.4473 99.40059 -0.7003344 0.5183858 0.4907218 192 192 192 255 0.068680 0.124668
-67.82887 285.9888 34.15794 -0.3833452 0.8747305 0.2964678 192 192 192 255 0.068647 0.124607
-63.71435 285.6292 60.11406 -0.1795562 0.8580959 0.4810728 192 192 192 255 0.068638 0.124615
-56.7373 300.3804 28.28454 -0.2013091 0.6359437 0.7450169 192 192 192 255 0.068643 0.124595
158.7422 303.3748 28.23071 0.9999884 0.003871985 0.00286234 192 192 192 255 0.068509 0.124551
158.7422 285.6069 53.64069 1 0.0003381056 0.0001258615 192 192 192 255 0.068501 0.124568
158.7422 302.721 45.50934 0.3789343 0.6669644 0.6415351 192 192 192 255 0.068505 0.124556
-52.17606 302.7434 51.98173 -0.3791364 0.8892357 0.25596 192 192 192 255 0.068634 0.124600
-40.44771 323.2362 -53.12 0.920553 0.2210987 0.3220212 192 192 192 255 0.068653 0.124553
-43.65704 357.7998 -67.28723 0.918464 0.2088905 0.3358403 192 192 192 255 0.068661 0.124531
158.7422 357.7998 -99.86451 0.5457389 0.6831089 0.4853158 192 192 192 255 0.068545 0.124484
158.7422 318.404 -88.51898 0.9936355 -0.01708828 -0.1113402 192 192 192 255 0.068539 0.124509
-31.1822 357.8 -99.95259 0.9145907 0.2023872 0.3500903 192 192 192 255 0.068661 0.124519
-30.27504 325.6906 -83.99134 0.9183146 0.2089999 0.3361806 192 192 192 255 0.068654 0.124541
158.7422 259.0273 131.2957 0.4051293 0.5618329 -0.7212587 192 192 192 255 0.068479 0.124607
5.789725 260.7412 99.38884 0.1736778 0.8338011 0.5240342 192 192 192 255 0.068582 0.124627
-116.1843 323.4174 -53.45571 -0.3202012 0.6023834 0.7311673 192 192 192 255 0.068702 0.124568
-158.7441 324.7437 -40.10279 -0.979197 0.08227963 -0.1854811 192 192 192 255 0.068727 0.124580
-158.7441 259.8394 116.1732 -0.5425628 0.3785401 -0.7498887 192 192 192 255 0.068686 0.124668
-95.16106 260.7407 99.39667 -0.2252508 0.7078664 0.6694679 192 192 192 255 0.068647 0.124648
118.7863 357.7998 -224.9902 0.6034253 -0.04175095 -0.7963259 192 192 192 255 0.068598 0.124457
-66.716 253.9939 224.9941 -0.1281653 0.2356406 0.963352 192 192 192 255 0.068597 0.124690
-132.3034 -125.7072 195.2581 -0.4814112 -0.033531 0.8758533 192 192 192 255 0.068614 0.124890
134.6526 -21.22109 194.9469 0.6686829 -0.03482442 0.7427318 192 192 192 255 0.068461 0.124777
-140.0485 -64.96866 -84.46309 -0.9948338 -0.04332883 0.09180623 192 192 192 255 0.068685 0.124761
-143.7163 -48.54615 96.38412 -0.9983773 -0.05486286 -0.01526139 192 192 192 255 0.068650 0.124818
144.9899 -98.20054 96.78931 0.9256759 -0.07436215 0.3709373 192 192 192 255 0.068476 0.124778
140.4816 -67.17682 -30.40938 0.9438455 -0.04195504 -0.3277127 192 192 192 255 0.068511 0.124722
118.2906 -88.84544 -178.4199 0.551731 -0.02333782 -0.8336955 192 192 192 255 0.068556 0.124691
-138.6496 -23.69571 -197.8127 -0.2636977 -0.02017815 -0.9643943 192 192 192 255 0.068710 0.124704
177.3359 144.6758 42.11214 0.9435434 0.2562507 0.2099082 192 192 192 255 0.068485 0.124635
177.6004 160.7612 -27.12278 0.9309362 0.3631606 -0.03837026 192 192 192 255 0.068503 0.124605
165.8721 -85.62014 72.1721 0.9484267 -0.07266431 0.3085558 192 192 192 255 0.068471 0.124759
162.0103 -64.17697 -15.50908 0.9119233 -0.03476657 -0.4088852 192 192 192 255 0.068496 0.124721
151.4066 -240.5929 69.08028 0.9390149 -0.2144356 0.2688277 192 192 192 255 0.068472 0.124832
152.5449 -240.6757 -36.22014 0.8977089 -0.3786016 -0.2253433 192 192 192 255 0.068496 0.124797
-151.8572 -234.8235 -184.9099 -0.9213247 -0.1556952 -0.356258 192 192 192 255 0.068696 0.124808
-151.1813 -234.7907 -109.8975 -0.9307986 -0.3419325 0.1292137 192 192 192 255 0.068681 0.124833
-161.9731 -61.33464 -107.5593 -0.7225779 0.03457828 0.6904241 192 192 192 255 0.068703 0.124757
-160.241 -26.14511 -180.5066 -0.9032769 -0.07653473 -0.4221768 192 192 192 255 0.068720 0.124715
-176.4464 202.2581 -90.34042 -0.8294332 0.4046204 0.3851273 192 192 192 255 0.068735 0.124633
-177.3046 202.202 -199.0948 -0.9574093 0.06940947 -0.2802673 192 192 192 255 0.068757 0.124600
158.7422 211.6162 -2.805062 0.9834218 0.178252 0.03328362 192 192 192 255 0.068511 0.124590
-158.7441 248.1414 -100.5545 -0.9996744 0.01849649 0.01757568 192 192 192 255 0.068731 0.124602
173.8288 62.72203 74.00822 0.9541229 0.07221025 0.2905774 192 192 192 255 0.068474 0.124686
158.7422 303.8707 -7.975733 1 0 0 192 192 192 255 0.068518 0.124540
130.2893 40.57351 -203.3934 0.5209763 -0.2079958 -0.8278415 192 192 192 255 0.068563 0.124621
83.82262 -83.89881 -201.3557 0.5513595 -0.02334031 -0.8339413 192 192 192 255 0.068580 0.124688
121.061 -190.7007 -203.0274 0.5627609 0.2084615 -0.7999024 192 192 192 255 0.068553 0.124729
-158.7441 168.6462 203.0587 -0.5992778 -0.3155188 0.7357405 192 192 192 255 0.068656 0.124750
-158.7441 124.6337 184.1446 -0.6201637 -0.005209127 0.7844551 192 192 192 255 0.068656 0.124766
-153.1895 60.40477 206.727 -0.5970363 0.2194137 0.7716251 192 192 192 255 0.068641 0.124807
78.09755 253.9939 224.9941 0.2197302 0.7297093 0.6474897 192 192 192 255 0.068503 0.124657
158.7422 232.84 221.4443 0.2201806 0.7293437 0.6477486 192 192 192 255 0.068453 0.124650
129.5977 -237.724 202.8786 0.2273312 -0.942281 0.2458193 192 192 192 255 0.068450 0.124883
-22.73176 -266.8779 -60.99101 -0.1405799 -0.9900694 0 192 192 192 255 0.068596 0.124837
-128.9178 -266.8779 -32.74073 -0.2312914 -0.4382325 -0.8685946 192 192 192 255 0.068650 0.124870
-133.5045 -187.6869 -71.4547 -0.970944 -0.2265686 0.07703575 192 192 192 255 0.068667 0.124822
126.8409 -266.8779 -160.098 0.4535594 -0.7428668 -0.4923747 192 192 192 255 0.068536 0.124774
124.1841 -239.6299 -203.6136 0.4533427 -0.7423833 -0.4933026 192 192 192 255 0.068549 0.124749
3 8 39 42 
3 8 42 4 
3 4 50 19 
3 4 19 20 
3 85 7 88 
3 85 88 9 
3 40 41 19 
3 40 19 5 
3 4 73 8 
3 23 46 8 
3 24 18 41 
3 8 21 23 
3 48 49 30 
3 16 17 44 
3 16 44 3 
3 16 3 83 
3 14 13 1 
3 14 1 0 
3 30 22 48 
3 0 1 84 
3 0 84 53 
3 0 53 52 
3 84 13 56 
3 84 56 53 
3 61 60 74 
3 61 74 62 
3 61 62 63 
3 19 18 57 
3 19 57 58 
3 19 58 76 
3 20 19 76 
3 20 76 77 
3 20 77 59 
3 66 67 68 
3 66 68 69 
3 22 21 54 
3 22 54 55 
3 15 80 81 
3 26 22 11 
3 11 32 31 
3 11 31 26 
3 12 17 35 
3 27 28 24 
3 27 24 38 
3 47 21 27 
3 27 21 22 
3 27 22 26 
3 26 31 33 
3 26 33 27 
3 29 17 12 
3 30 49 11 
3 11 22 30 
3 11 12 35 
3 11 35 32 
3 27 33 34 
3 27 34 28 
3 34 75 24 
3 34 24 28 
3 35 17 25 
3 37 36 34 
3 37 34 33 
3 32 35 36 
3 32 36 37 
3 35 25 34 
3 35 34 36 
3 31 32 37 
3 31 37 33 
3 4 42 40 
3 4 40 5 
3 4 5 50 
3 27 38 46 
3 27 46 47 
3 19 41 18 
3 39 38 43 
3 38 24 41 
3 38 41 43 
3 40 42 43 
3 40 43 41 
3 42 39 43 
3 44 17 29 
3 45 44 29 
3 12 45 29 
3 47 46 23 
3 23 21 47 
3 8 46 38 
3 8 38 39 
3 79 80 15 
3 2 51 82 
3 2 82 3 
3 2 3 44 
3 2 44 45 
3 2 45 49 
3 2 49 48 
3 11 49 45 
3 11 45 12 
3 19 50 5 
3 53 56 17 
3 53 17 16 
3 63 62 64 
3 63 64 65 
3 78 58 57 
3 78 57 9 
3 78 9 88 
3 78 88 89 
3 59 77 78 
3 59 78 89 
3 59 89 7 
3 59 7 6 
3 69 68 70 
3 69 70 71 
3 85 87 10 
3 52 55 14 
3 52 14 0 
3 18 72 61 
3 17 56 62 
3 17 62 74 
3 57 18 61 
3 57 61 63 
3 56 13 64 
3 56 64 62 
3 13 9 65 
3 13 65 64 
3 9 57 63 
3 9 63 65 
3 6 10 67 
3 6 67 66 
3 10 87 68 
3 10 68 67 
3 59 6 66 
3 59 66 69 
3 54 21 70 
3 54 70 68 
3 21 73 70 
3 20 59 69 
3 20 69 71 
3 25 17 72 
3 60 72 17 
3 20 73 4 
3 70 73 20 
3 70 20 71 
3 17 74 60 
3 61 72 60 
3 75 72 18 
3 75 18 24 
3 25 75 34 
3 25 72 75 
3 8 73 21 
3 77 76 58 
3 78 77 58 
3 48 22 80 
3 48 80 79 
3 48 79 2 
3 81 80 22 
3 81 22 55 
3 81 55 52 
3 52 53 16 
3 52 16 15 
3 52 15 81 
3 15 16 83 
3 15 83 82 
3 15 82 51 
3 79 15 51 
3 79 51 2 
3 82 83 3 
3 1 13 84 
3 86 85 13 
3 86 13 14 
3 55 54 87 
3 86 87 85 
3 55 87 86 
3 55 86 14 
3 13 85 9 
3 89 88 7 
3 6 7 85 
3 6 85 10 
3 68 87 54 
