ply
format ascii 1.0
comment VCGLIB generated
comment TextureFile Dungeons_2_Texture_01_A.png
element vertex 30
property float x
property float y
property float z
property float nx
property float ny
property float nz
property uchar red
property uchar green
property uchar blue
property uchar alpha
property float texture_u
property float texture_v
element face 56
property list uchar int vertex_indices
end_header
88.39062 3e-06 36.60938 0.0006555173 -0.9999997 0.0004369832 192 192 192 255 0.174601 0.884256
0 -0 125 -2.261782e-05 -1 5.460424e-05 192 192 192 255 0.119056 0.768758
0 12.5 125 -0.0007240348 0.9999982 0.001747974 192 192 192 255 0.118670 0.777534
22.09766 12.5 102.9023 0.001747885 0.9999603 0.008739426 192 192 192 255 0.134251 0.809605
22.09766 25 102.9023 0 0.8164966 0.5773503 192 192 192 255 0.134151 0.818986
44.19531 25 80.80469 0.3086067 0.2182179 0.9258201 192 192 192 255 0.148959 0.849141
44.19531 37.5 80.80469 9.733398e-08 0.8164966 0.5773503 192 192 192 255 0.149126 0.859085
66.29297 37.5 58.70703 0.2812443 0.2438502 0.9281372 192 192 192 255 0.163203 0.887430
66.29297 50 58.70703 -0.0001888814 0.999997 0.002456651 192 192 192 255 0.163621 0.897895
88.39062 50 36.60938 0.00533623 0.9999858 0 192 192 192 255 0.177004 0.924528
38.83301 37.5 31.24805 -0.0009486183 0.9999956 0.002821717 192 192 192 255 0.118390 0.900693
12.94434 12.5 93.74902 -0.0008739865 0.9999974 0.00210999 192 192 192 255 0.118824 0.814655
12.94434 25 93.74902 -0.003470123 0.9999589 0.008377618 192 192 192 255 0.118442 0.824075
25.88867 25 62.49805 -0.2298313 0.8571599 0.4609279 192 192 192 255 0.118602 0.858593
25.88867 37.5 62.49805 -0.002634226 0.9999826 0.005283002 192 192 192 255 0.118224 0.868595
38.83301 50 31.24805 -0.2502089 0.6192884 0.7442294 192 192 192 255 0.118016 0.911220
51.77832 50 -0.00293 0.2006898 0.8514549 -0.4845082 192 192 192 255 0.118187 0.941071
51.77832 3e-06 -0.00293 0.0001092579 -1 -0.000263772 192 192 192 255 0.119547 0.900548
0 3e-06 -0.00293 -0.0007725057 -0.9999997 -0.0001545251 192 192 192 255 0.064280 0.882944
0 12.5 93.74902 -0.007415845 0.9999603 0.004943897 192 192 192 255 0.103347 0.809204
0 25 93.74902 -0.002472031 0.9999939 0.002472031 192 192 192 255 0.102678 0.818582
0 25 62.49805 -0.009471828 0.9999523 0.002400835 192 192 192 255 0.088128 0.848387
0 37.5 62.49805 -0.002021428 0.9999815 0.005744157 192 192 192 255 0.087194 0.858326
0 37.5 31.24805 -0.01173587 0.9999139 0.005867933 192 192 192 255 0.073378 0.886365
0 50 31.24805 -0.4082483 0.8164966 0.4082483 192 192 192 255 0.072195 0.896825
0 50 -0.00293 -0.6666667 0.3333333 -0.6666667 192 192 192 255 0.059074 0.923193
54.33984 37.5 42.92871 -0.003159281 0.9999892 0.003424012 192 192 192 255 0.141622 0.896508
56.43652 50 44.66797 -0.004191726 0.9999843 0.003736981 192 192 192 255 0.144952 0.906308
12.95215 25 62.49805 0.009610234 0.554346 0.8322309 192 192 192 255 0.103465 0.853524
10.8418 37.5 58.65723 6.637863e-05 0.9999835 0.005748298 192 192 192 255 0.098487 0.866169
3 0 3 2 
3 0 2 1 
3 3 0 5 
3 3 5 4 
3 5 0 7 
3 5 7 6 
3 7 0 9 
3 7 9 8 
3 10 14 26 
3 26 14 6 
3 26 6 7 
3 11 2 3 
3 12 11 3 
3 12 3 4 
3 13 12 4 
3 13 4 5 
3 14 13 5 
3 14 5 6 
3 15 10 26 
3 15 26 27 
3 9 16 15 
3 9 15 27 
3 27 8 9 
3 1 17 0 
3 17 16 9 
3 17 9 0 
3 18 1 2 
3 18 2 19 
3 19 20 21 
3 19 21 18 
3 21 22 23 
3 21 23 18 
3 23 24 25 
3 23 25 18 
3 14 10 23 
3 14 23 29 
3 23 22 29 
3 11 19 2 
3 12 20 19 
3 12 19 11 
3 12 13 28 
3 12 28 21 
3 21 20 12 
3 28 29 22 
3 28 22 21 
3 15 24 23 
3 15 23 10 
3 16 25 24 
3 16 24 15 
3 1 18 17 
3 17 18 25 
3 17 25 16 
3 27 26 7 
3 27 7 8 
3 14 29 28 
3 14 28 13 
