ply
format ascii 1.0
comment VCGLIB generated
comment TextureFile Dungeons_2_Texture_01_A.png
element vertex 43
property float x
property float y
property float z
property float nx
property float ny
property float nz
property uchar red
property uchar green
property uchar blue
property uchar alpha
property float texture_u
property float texture_v
element face 60
property list uchar int vertex_indices
end_header
-0.001465 -6e-06 -0.004395 -0.0001600055 -1 -0.0001600056 192 192 192 255 0.097202 0.960450
0 -9e-06 124.9971 -6.399925e-05 -1 6.39751e-05 192 192 192 255 0.082150 0.921472
0 12.49999 124.9971 -0.6666648 0.3333442 0.6666632 192 192 192 255 0.080534 0.924773
0 12.49999 93.74609 -0.7923001 0.5499497 0.264227 192 192 192 255 0.084934 0.935307
0 24.99999 93.74609 -0.3916249 0.4598536 0.7969722 192 192 192 255 0.083376 0.938723
0 24.99999 62.49512 -0.006982277 0.003479248 0.9999696 192 192 192 255 0.087635 0.948731
0 37.49999 62.49512 -0.4082524 0.8164953 0.4082467 192 192 192 255 0.086133 0.952254
0 37.49999 31.24512 -0.00514137 0.999986 0.00128859 192 192 192 255 0.090258 0.961762
0 49.99999 31.24512 -0.001054538 0.9999971 0.002158114 192 192 192 255 0.088808 0.965385
-0.001465 49.99999 -0.004395 -0.001063427 0.9999989 -0.001063427 192 192 192 255 0.092684 0.974435
62.49951 37.49999 62.49658 0.5773457 0.5773594 0.5773457 192 192 192 255 0.112783 0.951061
31.24951 37.49999 31.24658 0.002591187 0.9999932 0.002633049 192 192 192 255 0.103404 0.961182
111.5574 12.49999 124.9984 0.2000443 0.9684436 0.1486588 192 192 192 255 0.128732 0.922475
125.0015 -9e-06 124.9985 0.001477238 -0.9999985 0.0009382592 192 192 192 255 0.136430 0.918854
93.75049 12.49999 93.74756 0.002488927 0.9999939 0.002478969 192 192 192 255 0.125098 0.933423
62.49951 24.99999 62.49658 0.001719345 0.003485228 0.9999925 192 192 192 255 0.114228 0.947523
92.38377 24.99999 91.87276 0.2308355 0.9454393 0.2299119 192 192 192 255 0.123308 0.937482
29.64017 49.99999 30.53764 0.0005365724 0.9999998 0.0005452411 192 192 192 255 0.101260 0.965053
125 -9e-06 -0.00293 6.39751e-05 -1 -6.399926e-05 192 192 192 255 0.009412 0.856277
125 12.49999 -0.00293 0.5773472 0.5773551 -0.5773486 192 192 192 255 0.007797 0.859577
93.74902 12.49999 -0.00293 0.3001478 0.3171993 -0.8996088 192 192 192 255 0.012196 0.870111
93.74902 24.99999 -0.00293 0.8025441 0.4462176 -0.3959961 192 192 192 255 0.010639 0.873527
62.49805 24.99999 -0.00293 0.4082483 0.4082598 -0.8164908 192 192 192 255 0.014898 0.883535
62.49805 37.49999 -0.00293 0.4082467 0.8164953 -0.4082524 192 192 192 255 0.013396 0.887059
31.24805 37.49999 -0.00293 0.2356578 0.2515629 -0.9387127 192 192 192 255 0.017520 0.896567
31.24805 49.99999 -0.00293 0.002090228 0.9999973 -0.0009933145 192 192 192 255 0.016071 0.900190
125.0015 2.032277 124.9985 0.627521 0.6749206 0.3882003 192 192 192 255 0.063369 0.854204
125.0012 12.49999 103.2666 0.2386931 0.9632483 0.1232002 192 192 192 255 0.052422 0.857449
7.844315 37.49999 62.4953 0.1288348 0.8170621 0.5619708 192 192 192 255 0.089478 0.952105
50.95879 37.49999 62.49631 -0.1383581 0.9303806 0.3394834 192 192 192 255 0.107863 0.951281
35.41171 37.49999 56.03784 -3.186994e-06 0.990858 0.1349091 192 192 192 255 0.102051 0.953546
28.83936 34.16472 62.4958 -2.189168e-05 0.3608668 0.9326174 192 192 192 255 0.098816 0.950760
-0.001465 -6e-06 -0.004395 -0.0001600055 -1 -0.0001600056 192 192 192 255 0.024465 0.895254
-0.001465 49.99999 -0.004395 -0.001063427 0.9999989 -0.001063427 192 192 192 255 0.019946 0.909239
31.24951 37.49999 31.24658 0.002591187 0.9999932 0.002633049 192 192 192 255 0.030667 0.895986
62.49951 37.49999 62.49658 0.5773457 0.5773594 0.5773457 192 192 192 255 0.040046 0.885865
62.49951 24.99999 62.49658 0.001719345 0.003485228 0.9999925 192 192 192 255 0.041491 0.882328
125.0015 -9e-06 124.9985 0.001477238 -0.9999985 0.0009382592 192 192 192 255 0.063693 0.853658
92.38377 24.99999 91.87276 0.2308355 0.9454393 0.2299119 192 192 192 255 0.050287 0.872134
29.64017 49.99999 30.53764 0.0005365724 0.9999998 0.0005452411 192 192 192 255 0.029010 0.900101
93.75049 12.49999 93.74756 0.002488927 0.9999939 0.002478969 192 192 192 255 0.052361 0.868227
111.5574 12.49999 124.9984 0.2000443 0.9684436 0.1486588 192 192 192 255 0.063559 0.861553
125.0015 2.032277 124.9985 0.627521 0.6749206 0.3882003 192 192 192 255 0.136100 0.919401
3 0 1 2 
3 0 2 3 
3 3 4 5 
3 3 5 0 
3 5 6 7 
3 5 7 0 
3 7 8 9 
3 7 9 0 
3 11 30 29 
3 11 29 10 
3 31 15 10 
3 31 10 29 
3 13 12 2 
3 13 2 1 
3 16 15 5 
3 16 5 4 
3 11 17 8 
3 11 8 7 
3 0 13 1 
3 17 9 8 
3 14 16 4 
3 14 4 3 
3 32 20 19 
3 32 19 18 
3 20 32 22 
3 20 22 21 
3 22 32 24 
3 22 24 23 
3 24 32 33 
3 24 33 25 
3 23 24 34 
3 23 34 35 
3 22 23 35 
3 22 35 36 
3 37 18 19 
3 37 19 27 
3 38 21 22 
3 38 22 36 
3 34 24 25 
3 34 25 39 
3 32 18 37 
3 39 25 33 
3 40 20 21 
3 40 21 38 
3 12 14 3 
3 12 3 2 
3 26 27 41 
3 40 27 19 
3 40 19 20 
3 41 27 40 
3 37 27 26 
3 13 42 12 
3 30 31 29 
3 6 28 30 
3 6 30 7 
3 28 31 30 
3 5 31 28 
3 5 28 6 
3 5 15 31 
3 7 30 11 
