ply
format ascii 1.0
comment VCGLIB generated
comment TextureFile Dungeons_2_Texture_01_A.png
element vertex 128
property float x
property float y
property float z
property float nx
property float ny
property float nz
property uchar red
property uchar green
property uchar blue
property uchar alpha
property float texture_u
property float texture_v
element face 170
property list uchar int vertex_indices
end_header
0 -9e-06 125 -0.3225915 -0.8899702 0.3223165 192 192 192 255 0.033583 0.824391
0 12.49999 125 -0.7020252 0.1214148 0.7017258 192 192 192 255 0.032730 0.825630
38.83398 37.49999 31.24805 -0.1604815 0.9078208 0.3874367 192 192 192 255 0.022609 0.857568
12.94434 12.49999 93.74902 -0.7009438 0.1621311 0.6945439 192 192 192 255 0.029908 0.835501
12.94434 24.99999 93.74902 -0.1676517 0.745635 0.6449198 192 192 192 255 0.029025 0.836833
25.88867 24.99999 62.49805 -0.1849522 0.8633565 0.4694766 192 192 192 255 0.026250 0.846560
25.88867 37.5 62.49805 -0.3103869 0.5318939 0.7878762 192 192 192 255 0.025337 0.847985
38.83398 49.99999 31.24805 -0.001768817 0.9999893 0.004270303 192 192 192 255 0.021668 0.859084
51.77832 49.99999 -0.00293 1.395772e-09 0.9999999 -0.0004270411 192 192 192 255 0.018985 0.868525
51.77832 -6e-06 -0.00293 6.320768e-11 -1 -1.928928e-05 192 192 192 255 0.022708 0.862363
0 -6e-06 -0.00293 -0.0006180047 -0.9999998 -0.0001545252 192 192 192 255 0.009577 0.852001
0 12.49999 93.74902 -0.009887582 0.9999389 0.004943791 192 192 192 255 0.026542 0.832745
0 24.99999 93.74902 -0.4082483 0.8164966 0.4082483 192 192 192 255 0.025627 0.834057
0 24.99999 62.49805 -0.8728716 0.2182179 0.4364358 192 192 192 255 0.019490 0.841111
0 37.49999 62.49805 -0.4082483 0.8164966 0.4082482 192 192 192 255 0.018513 0.842497
0 37.49999 31.24805 -0.8728716 0.2182179 0.4364358 192 192 192 255 0.012428 0.849490
0 49.99999 31.24805 -0.4082483 0.8164966 0.4082483 192 192 192 255 0.011389 0.850950
0 49.99999 -0.00293 -0.6666667 0.3333333 -0.6666667 192 192 192 255 0.005355 0.857881
500.0029 -6e-06 500 0.0001545252 -0.9999998 0.0006180047 192 192 192 255 0.232462 0.846143
375 -9e-06 500 -0.0002184061 -0.9999998 0.0005273371 192 192 192 255 0.205863 0.819724
375 12.49999 500 -0.001743672 0.9999896 0.004209597 192 192 192 255 0.206508 0.820929
406.251 12.49999 500 -0.004943791 0.9999389 0.009887582 192 192 192 255 0.213360 0.827730
406.251 24.99999 500 -0.4082483 0.8164966 0.4082483 192 192 192 255 0.214071 0.829005
437.502 24.99999 500 -0.4364358 0.2182179 0.8728716 192 192 192 255 0.220874 0.835754
437.502 37.49999 500 -0.4082482 0.8164966 0.4082483 192 192 192 255 0.221652 0.837102
468.752 37.49999 500 -0.4364358 0.2182179 0.8728716 192 192 192 255 0.228406 0.843798
468.752 49.99999 500 -0.4082483 0.8164966 0.4082483 192 192 192 255 0.229251 0.845217
500.0029 49.99999 500 0.6666667 0.3333333 0.6666667 192 192 192 255 0.235956 0.851860
468.752 37.49999 461.166 -0.0004109707 1 0.00017018 192 192 192 255 0.218823 0.852446
406.251 12.49999 487.0557 -0.004161261 0.9999899 0.001676828 192 192 192 255 0.210201 0.830677
406.251 24.99999 487.0557 -0.7682373 0.5603374 0.30957 192 192 192 255 0.210883 0.831974
437.502 24.99999 474.1113 -0.3752969 0.9143007 0.1523364 192 192 192 255 0.214521 0.841584
437.502 37.5 474.1113 -0.0008208216 0.9999996 0.0003331275 192 192 192 255 0.215239 0.842973
468.752 49.99999 461.166 -0.7172792 0.6302677 0.2971082 192 192 192 255 0.219576 0.853926
500.0029 49.99999 448.2217 0.6 0.8 -2.614499e-06 192 192 192 255 0.223107 0.863262
500.0029 -6e-06 448.2217 1.446722e-05 -1 -3.160064e-11 192 192 192 255 0.220083 0.857239
500 -6e-06 0 9.955103e-06 -1 -4.9776e-06 192 192 192 255 0.124629 0.942791
500 49.99999 0 0.0001115638 1 -0.0002231255 192 192 192 255 0.124405 0.950844
253.793 49.99999 246.207 -0.0006843236 0.9999995 0.0006843212 192 192 192 255 0.120330 0.856512
253.793 37.49999 246.207 -0.4999987 0.7071092 0.4999979 192 192 192 255 0.120429 0.855014
127.0225 37.5 155.0146 -0.3582532 0.8590559 0.3656194 192 192 192 255 0.070002 0.848679
127.1006 24.99999 160.6592 -0.0005073427 0.9999998 0.0005177744 192 192 192 255 0.071717 0.846018
329.7832 24.99999 405.1035 -0.0002540339 0.9999999 0.0002541429 192 192 192 255 0.174077 0.834172
323.0127 12.49999 406.8262 -0.7102233 0.02832028 0.7034067 192 192 192 255 0.172585 0.831020
187.5 12.49999 312.5 -0.7071063 0.001206067 0.7071063 192 192 192 255 0.119394 0.823285
266.3115 49.99999 214.7324 0.03752092 0.9648611 -0.2600679 192 192 192 255 0.116418 0.865970
68.3457 49.99999 21.61035 0.0001428256 1 -4.633424e-05 192 192 192 255 0.027469 0.867246
404.2354 49.99999 16.93162 -0.04610458 0.9978445 0.04669886 192 192 192 255 0.106962 0.931493
284.7998 49.99999 233.2207 0.0004100588 0.9999999 7.079812e-05 192 192 192 255 0.124837 0.865753
450.7908 49.99999 64.41325 -5.407628e-05 1 0.000221664 192 192 192 255 0.126747 0.930855
477.5713 49.99999 431.1865 -0.0001852389 0.9999999 -0.0003036931 192 192 192 255 0.214141 0.862353
266.2822 46.28747 207.4023 0.02787376 0.9807633 -0.1932008 192 192 192 255 0.112229 0.606486
83.25586 46.28747 28.85449 3.339005e-05 1 -1.084911e-05 192 192 192 255 0.030892 0.606075
425.8037 46.28748 51.81095 -0.2523279 0.933539 0.2546284 192 192 192 255 0.114928 0.674068
291.7197 46.28747 233.2793 0.1958996 0.9800405 0.03382276 192 192 192 255 0.123764 0.606318
448.8794 46.28747 75.41052 0.1285334 0.9489994 0.2878877 192 192 192 255 0.125016 0.674022
470.8389 46.28747 417.2256 -1.013547e-05 1 -1.661678e-05 192 192 192 255 0.205471 0.604768
416.9521 49.99999 409.3662 -0.5454417 0.7763566 0.3158541 192 192 192 255 0.195606 0.854551
324.0967 49.99999 316.5107 -0.1271391 0.9738422 0.1883272 192 192 192 255 0.152724 0.855668
374.8281 37.49999 367.2432 -0.184429 0.9653869 0.184429 192 192 192 255 0.175760 0.853570
388.29 49.99999 359.8291 -0.45654 0.7636376 0.45654 192 192 192 255 0.177437 0.859497
327.1377 49.99999 190.6914 0.1305952 0.9869789 0.0939018 192 192 192 255 0.125467 0.883235
395.4424 49.99999 122.0791 0.07065057 0.9921454 0.1032282 192 192 192 255 0.123013 0.650567
367.6777 46.28747 156.9785 0.1890586 0.963761 0.1882066 192 192 192 255 0.124343 0.637603
358.1289 49.99999 147.5459 0.09882759 0.9902291 0.09838451 192 192 192 255 0.123368 0.898004
398.833 49.99999 358.4795 0.1242241 0.9847056 -0.1221609 192 192 192 255 0.179487 0.861971
402.8047 46.28747 347.3584 6.629904e-05 1 -6.519793e-05 192 192 192 255 0.174415 0.605357
188.8213 49.99999 139.1387 0.1293996 0.9684485 -0.2129867 192 192 192 255 0.081569 0.866470
135.2881 49.99999 86.91406 0.06567218 0.9974045 -0.02952067 192 192 192 255 0.057517 0.866815
162.9209 46.28747 106.5703 0.0145562 0.9997827 -0.01492095 192 192 192 255 0.066301 0.606254
147.4102 49.99999 114.0205 0.08613212 0.9923639 -0.08829033 192 192 192 255 0.066091 0.863430
472.6338 46.28747 150.0957 -0.02675466 0.999642 -0.0004286933 192 192 192 255 0.145992 0.659546
479.1631 49.99999 194.2373 -0.06509995 0.9978062 -0.01203506 192 192 192 255 0.160148 0.911358
481.1539 49.99999 99.2225 -0.05676195 0.9983807 0.003754447 192 192 192 255 0.140462 0.929726
487.8955 49.99999 147.126 -0.07021964 0.9975305 -0.001471289 192 192 192 255 0.151940 0.921956
211.6934 24.99999 289.0576 -0.0904043 0.994228 0.05777391 192 192 192 255 0.119913 0.835166
130.4297 24.99999 209.2012 -0.05774666 0.994112 0.09168751 192 192 192 255 0.082710 0.835848
181.0664 24.99999 241.0029 -0.04923367 0.9975299 0.05010126 192 192 192 255 0.101989 0.839478
165.7871 19.22793 247.8145 -0.6309271 0.4556389 0.6279525 192 192 192 255 0.099856 0.834063
355.3818 49.99999 144.6182 0 1 0 192 192 192 255 0.122125 0.898070
414.3418 49.99999 78.5332 -0.09925647 0.9903627 -0.09659153 192 192 192 255 0.121630 0.921774
405.8203 46.28747 72.85645 -0.1705313 0.9712769 -0.1659527 192 192 192 255 0.114932 0.661762
242.4486 49.99999 14.43121 1.192501e-06 1 0.0001976565 192 192 192 255 0.069267 0.902728
243.8906 46.28747 32.23143 6.074537e-07 1 6.605172e-05 192 192 192 255 0.068083 0.638144
403.2913 46.28747 28.78742 -0.2703246 0.9253328 0.2658644 192 192 192 255 0.104560 0.669598
438.2094 49.99999 49.74051 -0.02912938 0.9991283 0.02990395 192 192 192 255 0.121025 0.931367
472.9697 46.28747 100.0479 -0.4113489 0.9114769 -0.001459249 192 192 192 255 0.135456 0.669250
266.3115 49.99999 214.7324 0.03752092 0.9648611 -0.2600679 192 192 192 255 0.113782 0.605354
414.3418 49.99999 78.5332 -0.09925647 0.9903627 -0.09659153 192 192 192 255 0.117960 0.662806
404.2354 49.99999 16.93162 -0.04610458 0.9978445 0.04669886 192 192 192 255 0.108639 0.676400
284.7998 49.99999 233.2207 0.0004100588 0.9999999 7.079812e-05 192 192 192 255 0.122122 0.605300
398.833 49.99999 358.4795 0.1242241 0.9847056 -0.1221609 192 192 192 255 0.176152 0.602571
481.1539 49.99999 99.2225 -0.05676195 0.9983807 0.003754447 192 192 192 255 0.138423 0.669695
450.7908 49.99999 64.41325 -5.407628e-05 1 0.000221664 192 192 192 255 0.123523 0.676500
416.9521 49.99999 409.3662 -0.5454417 0.7763566 0.3158541 192 192 192 255 0.191956 0.595486
388.29 49.99999 359.8291 -0.45654 0.7636376 0.45654 192 192 192 255 0.174114 0.600059
374.8281 37.49999 367.2432 -0.184429 0.9653869 0.184429 192 192 192 255 0.172594 0.594276
324.0967 49.99999 316.5107 -0.1271391 0.9738422 0.1883272 192 192 192 255 0.149759 0.595764
358.1289 49.99999 147.5459 0.09882759 0.9902291 0.09838451 192 192 192 255 0.120128 0.638079
327.1377 49.99999 190.6914 0.1305952 0.9869789 0.0939018 192 192 192 255 0.122470 0.622986
477.5713 49.99999 431.1865 -0.0001852389 0.9999999 -0.0003036931 192 192 192 255 0.210339 0.603625
188.8213 49.99999 139.1387 0.1293996 0.9684485 -0.2129867 192 192 192 255 0.079240 0.605180
68.3457 49.99999 21.61035 0.0001428256 1 -4.633424e-05 192 192 192 255 0.025518 0.604908
135.2881 49.99999 86.91406 0.06567218 0.9974045 -0.02952067 192 192 192 255 0.055371 0.605059
147.4102 49.99999 114.0205 0.08613212 0.9923639 -0.08829033 192 192 192 255 0.064013 0.601829
479.1631 49.99999 194.2373 -0.06509995 0.9978062 -0.01203506 192 192 192 255 0.156998 0.652630
487.8955 49.99999 147.126 -0.07021964 0.9975305 -0.001471289 192 192 192 255 0.148671 0.663574
165.7871 19.22793 247.8145 -0.6309271 0.4556389 0.6279525 192 192 192 255 0.098212 0.573682
181.0664 24.99999 241.0029 -0.04923367 0.9975299 0.05010126 192 192 192 255 0.100170 0.579005
130.4297 24.99999 209.2012 -0.05774666 0.994112 0.09168751 192 192 192 255 0.081313 0.575051
211.6934 24.99999 289.0576 -0.0904043 0.994228 0.05777391 192 192 192 255 0.117880 0.575112
438.2094 49.99999 49.74051 -0.02912938 0.9991283 0.02990395 192 192 192 255 0.117486 0.669961
242.4486 49.99999 14.43121 1.192501e-06 1 0.0001976565 192 192 192 255 0.066821 0.640433
83.25586 46.28747 28.85449 3.339005e-05 1 -1.084911e-05 192 192 192 255 0.032976 0.868248
162.9209 46.28747 106.5703 0.0145562 0.9997827 -0.01492095 192 192 192 255 0.068591 0.867737
243.8906 46.28747 32.23143 6.074537e-07 1 6.605172e-05 192 192 192 255 0.073276 0.898930
266.2822 46.28747 207.4023 0.02787376 0.9807633 -0.1932008 192 192 192 255 0.114862 0.867075
405.8203 46.28747 72.85645 -0.1705313 0.9712769 -0.1659527 192 192 192 255 0.118612 0.920755
425.8037 46.28748 51.81095 -0.2523279 0.933539 0.2546284 192 192 192 255 0.118753 0.928231
403.2913 46.28747 28.78742 -0.2703246 0.9253328 0.2658644 192 192 192 255 0.109170 0.928553
395.4424 49.99999 122.0791 0.07065057 0.9921454 0.1032282 192 192 192 255 0.126431 0.909996
470.8389 46.28747 417.2256 -1.013547e-05 1 -1.661678e-05 192 192 192 255 0.209111 0.863541
472.6338 46.28747 150.0957 -0.02675466 0.999642 -0.0004286933 192 192 192 255 0.149242 0.918091
402.8047 46.28747 347.3584 6.629904e-05 1 -6.519793e-05 192 192 192 255 0.177660 0.864737
291.7197 46.28747 233.2793 0.1958996 0.9800405 0.03382276 192 192 192 255 0.126493 0.866683
367.6777 46.28747 156.9785 0.1890586 0.963761 0.1882066 192 192 192 255 0.127542 0.897395
472.9697 46.28747 100.0479 -0.4113489 0.9114769 -0.001459249 192 192 192 255 0.138854 0.927557
448.8794 46.28747 75.41052 0.1285334 0.9489994 0.2878877 192 192 192 255 0.128583 0.927901
3 39 40 32 
3 39 32 59 
3 28 59 32 
3 29 43 44 
3 29 44 20 
3 30 42 43 
3 30 43 29 
3 31 41 42 
3 31 42 30 
3 32 40 41 
3 32 41 31 
3 33 57 59 
3 33 59 28 
3 60 65 48 
3 60 48 58 
3 38 58 48 
3 19 0 9 
3 19 9 35 
3 11 10 0 
3 11 0 1 
3 19 18 21 
3 19 21 20 
3 19 20 44 
3 19 44 0 
3 44 1 0 
3 11 12 13 
3 11 13 10 
3 13 14 15 
3 13 15 10 
3 15 16 17 
3 15 17 10 
3 2 15 14 
3 2 14 6 
3 3 11 1 
3 4 12 11 
3 4 11 3 
3 5 13 12 
3 5 12 4 
3 6 14 13 
3 6 13 5 
3 7 16 15 
3 7 15 2 
3 8 17 16 
3 8 16 7 
3 0 10 9 
3 9 10 17 
3 9 17 8 
3 21 18 23 
3 21 23 22 
3 23 18 25 
3 23 25 24 
3 25 18 27 
3 25 27 26 
3 28 32 24 
3 28 24 25 
3 29 20 21 
3 30 29 21 
3 30 21 22 
3 31 30 22 
3 31 22 23 
3 32 31 23 
3 32 23 24 
3 33 28 25 
3 33 25 26 
3 34 33 26 
3 34 26 27 
3 19 35 18 
3 35 34 27 
3 35 27 18 
3 35 9 36 
3 9 8 37 
3 9 37 36 
3 34 35 36 
3 34 36 37 
3 8 7 46 
3 46 7 38 
3 46 38 70 
3 38 45 67 
3 38 67 70 
3 70 68 46 
3 39 38 7 
3 39 7 2 
3 40 39 2 
3 40 2 6 
3 41 40 6 
3 41 6 5 
3 41 5 4 
3 41 4 76 
3 76 77 41 
3 41 77 42 
3 42 77 75 
3 43 42 75 
3 43 75 78 
3 76 4 3 
3 76 3 78 
3 43 78 3 
3 44 43 3 
3 44 3 1 
3 38 79 80 
3 38 80 45 
3 47 37 8 
3 47 8 82 
3 8 46 82 
3 79 38 48 
3 79 48 64 
3 64 48 61 
3 50 34 37 
3 50 37 74 
3 49 73 37 
3 73 74 37 
3 74 72 50 
3 87 88 81 
3 87 81 51 
3 89 84 53 
3 90 91 66 
3 90 66 54 
3 86 92 93 
3 86 93 55 
3 94 95 96 
3 59 58 38 
3 59 38 39 
3 96 95 97 
3 62 98 63 
3 63 99 90 
3 63 90 54 
3 33 34 50 
3 33 50 57 
3 65 60 57 
3 65 57 50 
3 66 91 100 
3 66 100 56 
3 69 101 87 
3 69 87 51 
3 102 103 69 
3 102 69 52 
3 69 104 101 
3 103 104 69 
3 100 105 71 
3 100 71 56 
3 105 106 71 
3 71 106 92 
3 107 108 109 
3 110 108 107 
3 63 98 99 
3 85 37 47 
3 53 111 89 
3 83 112 102 
3 83 102 52 
3 84 89 112 
3 84 112 83 
3 113 114 115 
3 115 114 116 
3 115 116 117 
3 117 118 119 
3 117 119 115 
3 81 88 111 
3 81 111 53 
3 80 79 37 
3 80 37 85 
3 49 37 79 
3 49 79 64 
3 49 64 120 
3 55 93 62 
3 55 62 63 
3 121 122 123 
3 124 123 122 
3 124 122 125 
3 126 127 125 
3 126 125 122 
3 71 92 86 
