ply
format ascii 1.0
comment VCGLIB generated
comment TextureFile Dungeons_2_Texture_01_A.png
element vertex 40
property float x
property float y
property float z
property float nx
property float ny
property float nz
property uchar red
property uchar green
property uchar blue
property uchar alpha
property float texture_u
property float texture_v
element face 60
property list uchar int vertex_indices
end_header
0 -6e-06 -0.00293 -0.9128709 -0.3651484 -0.1825742 192 192 192 255 0.025360 0.895167
0 -9e-06 125 -0.4278913 -0.7969422 0.4263711 192 192 192 255 0.009412 0.856277
0 12.49999 125 -0.6419822 0.4226596 0.6397014 192 192 192 255 0.007797 0.859577
0 12.49999 93.74902 -0.8017837 0.5345225 0.2672613 192 192 192 255 0.012196 0.870111
0 24.99999 93.74902 -0.3333333 0.6666667 0.6666667 192 192 192 255 0.010639 0.873527
0 24.99999 62.49805 -0.8728716 0.4364358 0.2182179 192 192 192 255 0.014898 0.883535
0 37.49999 62.49805 -0.2182179 0.8728717 0.4364356 192 192 192 255 0.013396 0.887059
0 37.49999 31.24805 -0.9365357 0.2620654 0.2328578 192 192 192 255 0.017520 0.896567
0 49.99999 31.24805 -0.3137056 0.7098002 0.630692 192 192 192 255 0.016071 0.900190
0 49.99999 -0.00293 -0.6666667 0.3333333 -0.6666667 192 192 192 255 0.020068 0.909223
500 37.5 62.49805 0.3333334 0.6666669 0.6666665 192 192 192 255 0.226900 0.877535
500 12.49999 125 0.3839806 0.5099015 0.7697788 192 192 192 255 0.227931 0.849011
500 -9e-06 125 0.5517622 -0.787865 0.2735458 192 192 192 255 0.226872 0.845752
500 12.49999 93.74902 0.8728716 0.4364358 0.2182179 192 192 192 255 0.226370 0.860112
500 24.99999 93.74902 0.4082483 0.4082483 0.8164966 192 192 192 255 0.227407 0.863496
500 24.99999 62.49805 0.5494423 0.8241634 0.1373606 192 192 192 255 0.225884 0.874035
500 37.49999 31.24805 0.6751837 0.7028368 0.2239364 192 192 192 255 0.225413 0.887540
500 49.99999 31.24805 0.6478524 0.4019805 0.6470695 192 192 192 255 0.226407 0.891149
500 -6e-06 -0.00293 0.9128709 -0.1825742 -0.3651484 192 192 192 255 0.221276 0.886635
500 49.99999 -0.00293 0.3015113 0.904534 -0.3015113 192 192 192 255 0.224956 0.900648
86.8916 37.49999 62.49805 0.07501204 0.2924173 0.9533443 192 192 192 255 0.049715 0.885439
204.1074 37.49999 62.49805 -0.07775293 0.4285819 0.9001511 192 192 192 255 0.099223 0.883230
135.4131 24.99999 62.49805 0 0.3603222 0.9328279 192 192 192 255 0.070982 0.881010
148.2354 37.49999 57.66504 0 0.3628362 0.9318529 192 192 192 255 0.075949 0.885813
432.8535 24.99999 93.74902 -0.1727566 0.5060637 0.8450176 192 192 192 255 0.197630 0.864874
340.3154 24.99999 93.74902 0.0611188 0.2777689 0.9587017 192 192 192 255 0.156937 0.866757
396.6807 12.49999 93.74902 -6.182687e-09 0.3394453 0.9406258 192 192 192 255 0.181198 0.862221
410.8984 24.99999 89.24414 -6.201592e-09 0.3404832 0.9402506 192 192 192 255 0.187873 0.866863
231.0635 -9e-06 125 0.0005512549 -0.09702306 0.995282 192 192 192 255 0.108486 0.851482
233.5732 12.49999 121.1104 0.0002309626 0.9089068 0.4169993 192 192 192 255 0.109391 0.856087
242.5107 37.49999 31.24805 0.0001641065 0.5279086 0.8493012 192 192 192 255 0.117048 0.892245
241.124 49.99999 28.2959 0.0001283679 0.7474279 0.664343 192 192 192 255 0.116310 0.896783
204.1074 37.49999 62.49805 -0.07775293 0.4285819 0.9001511 192 192 192 255 0.100569 0.614121
148.2354 37.49999 57.66504 0 0.3628362 0.9318529 192 192 192 255 0.077294 0.616703
135.4131 24.99999 62.49805 0 0.3603222 0.9328279 192 192 192 255 0.072328 0.611900
86.8916 37.49999 62.49805 0.07501204 0.2924173 0.9533443 192 192 192 255 0.051060 0.616329
432.8535 24.99999 93.74902 -0.1727566 0.5060637 0.8450176 192 192 192 255 0.198976 0.595764
410.8984 24.99999 89.24414 -6.201592e-09 0.3404832 0.9402506 192 192 192 255 0.189219 0.597754
396.6807 12.49999 93.74902 -6.182687e-09 0.3394453 0.9406258 192 192 192 255 0.182543 0.593111
340.3154 24.99999 93.74902 0.0611188 0.2777689 0.9587017 192 192 192 255 0.158283 0.597647
3 0 1 2 
3 0 2 3 
3 3 4 5 
3 3 5 0 
3 5 6 7 
3 5 7 0 
3 7 8 9 
3 7 9 0 
3 21 10 23 
3 23 10 16 
3 23 16 6 
3 6 16 30 
3 6 30 7 
3 23 6 20 
3 28 29 2 
3 28 2 1 
3 29 26 3 
3 29 3 2 
3 14 24 26 
3 14 26 13 
3 15 22 5 
3 15 5 4 
3 15 4 25 
3 15 25 27 
3 15 27 24 
3 15 24 14 
3 10 21 22 
3 10 22 15 
3 30 31 8 
3 30 8 7 
3 12 28 1 
3 12 1 0 
3 12 0 18 
3 19 9 8 
3 19 8 31 
3 19 31 17 
3 18 0 9 
3 18 9 19 
3 16 10 15 
3 16 15 18 
3 15 14 13 
3 15 13 18 
3 13 11 12 
3 13 12 18 
3 18 19 17 
3 18 17 16 
3 32 33 34 
3 22 20 6 
3 22 6 5 
3 34 33 35 
3 36 37 38 
3 26 25 4 
3 26 4 3 
3 11 29 28 
3 11 28 12 
3 13 26 29 
3 13 29 11 
3 17 31 30 
3 17 30 16 
3 38 37 39 
