ply
format ascii 1.0
comment VCGLIB generated
comment TextureFile Dungeons_2_Texture_01_A.png
element vertex 77
property float x
property float y
property float z
property float nx
property float ny
property float nz
property uchar red
property uchar green
property uchar blue
property uchar alpha
property float texture_u
property float texture_v
element face 150
property list uchar int vertex_indices
end_header
-140.5918 236.5104 220.2456 -0.9997144 -0.02390005 0.0001220082 192 192 192 255 0.068646 0.124681
142.1445 236.5104 204.0249 0.104029 0.8393571 0.5335332 192 192 192 255 0.068491 0.124622
-140.5918 340.5399 -204.9917 -0.1195617 0.4948477 -0.8607153 192 192 192 255 0.068766 0.124504
140.5894 340.5399 -220.2441 4.418691e-05 0.709906 -0.7042965 192 192 192 255 0.068619 0.124457
-140.5918 263.2982 88.73047 -0.3288727 0.3543084 0.8753904 192 192 192 255 0.068685 0.124626
140.5894 263.2982 88.73047 0.9527602 0.3032285 -0.01733808 192 192 192 255 0.068529 0.124575
140.5894 314.7725 -32.60107 0.7806906 0.5113703 0.3591973 192 192 192 255 0.068566 0.124516
-140.5918 314.7725 -32.60107 -0.4387911 0.6568118 0.6132378 192 192 192 255 0.068720 0.124564
138.3188 99.25396 152.5913 0.9985633 -0.036193 -0.03951371 192 192 192 255 0.068514 0.124713
140.5894 263.2982 131.2603 0.0002271438 0.9999998 0.0005188993 192 192 192 255 0.068516 0.124587
-140.5918 263.2982 135.3472 -0.3635604 0.8674248 0.3397031 192 192 192 255 0.068672 0.124640
-137.4929 143.8973 86.77441 -0.9995005 0.03040108 0.008630015 192 192 192 255 0.068678 0.124687
-137.845 203.336 -26.78467 -0.9994223 -0.01051959 -0.03231916 192 192 192 255 0.068712 0.124623
-140.5918 290.0249 -23.5791 -0.4337826 0.2334565 0.8702475 192 192 192 255 0.068717 0.124579
140.5894 290.0249 -24.25537 0.006621029 0.1283524 0.9917066 192 192 192 255 0.068563 0.124531
137.4905 248.6425 -64.07129 0.9997262 0.0131483 -0.01935678 192 192 192 255 0.068574 0.124563
140.5894 314.7725 -85.24707 0.9987962 -0.04866324 -0.006185799 192 192 192 255 0.068581 0.124503
-140.5918 314.7725 -86.19238 -0.9996544 -0.02613685 -0.00281719 192 192 192 255 0.068734 0.124549
-137.4929 210.8771 -215.3896 -0.9906188 -0.09090376 -0.1020338 192 192 192 255 0.068750 0.124625
140.5894 340.5399 -88.3999 0.6552365 0.3908624 0.6464455 192 192 192 255 0.068582 0.124489
137.4905 247.2533 -215.3896 0.6822332 0.1903916 -0.7059101 192 192 192 255 0.068615 0.124526
140.5894 290.0249 79.90186 0.6128533 0.5532395 0.5642135 192 192 192 255 0.068532 0.124559
-140.5918 290.0249 76.9873 -0.1803464 0.9656547 0.1870458 192 192 192 255 0.068689 0.124608
-137.4929 108.8198 215.3911 -0.999989 0.002072321 0.004204547 192 192 192 255 0.068633 0.124799
-140.5918 236.5104 141.6143 -1 -0.0001589667 -3.902933e-05 192 192 192 255 0.068669 0.124656
140.5894 236.5104 144.7935 0.1866113 0.1879754 0.9642829 192 192 192 255 0.068511 0.124605
135.3174 101.1426 211.9868 0.7532369 -0.5501227 0.3605542 192 192 192 255 0.068503 0.124778
-140.5918 249.98 138.4639 -0.9999142 0.008412178 0.01004975 192 192 192 255 0.068670 0.124648
16.08301 236.5104 142.7637 0.9220303 0.1372032 0.3619883 192 192 192 255 0.068579 0.124627
-140.5918 236.5104 156.1226 -0.9997203 -0.02365126 0.0002321218 192 192 192 255 0.068665 0.124661
15.61792 250.0816 139.584 0.9169589 0.1293099 0.3774459 192 192 192 255 0.068581 0.124619
10.21655 236.5104 158.5625 0.0382548 0.9991637 0.01443454 192 192 192 255 0.068578 0.124633
-140.5918 246.798 154.2563 -0.9999729 0.006240357 0.003896737 192 192 192 255 0.068665 0.124655
9.70166 246.798 155.4058 0.9218639 0.1364183 0.3627081 192 192 192 255 0.068579 0.124626
140.5894 290.0249 28.97119 0.3158924 0.9163709 -0.2459195 192 192 192 255 0.068547 0.124545
-17.0376 291.6314 -23.45947 0.04517776 0.3051677 0.9512264 192 192 192 255 0.068647 0.124557
139.8157 269.6728 -21.61914 0.7231014 0.05186418 0.688792 192 192 192 255 0.068562 0.124543
140.1213 268.9039 -1.953613 0.8565366 0.5134656 -0.0519438 192 192 192 255 0.068556 0.124548
-3.342041 290.0249 -5.624023 0.2113491 0.9744879 -0.0755308 192 192 192 255 0.068635 0.124560
22.74878 283.6105 -15.1582 0.2117948 0.9743416 -0.0761677 192 192 192 255 0.068623 0.124557
-66.81152 263.2982 88.73047 -0.01839813 0.9998308 9.409122e-05 192 192 192 255 0.068643 0.124612
-140.5918 263.2982 108.2363 -0.4546015 0.5203348 -0.7229033 192 192 192 255 0.068679 0.124632
-131.7888 253.7791 95.88428 -0.6650189 0.7468266 6.481067e-08 192 192 192 255 0.068677 0.124632
-138.9253 199.0838 87.67871 -0.9915625 0.1296278 0.0006968501 192 192 192 255 0.068681 0.124659
-140.5918 332.1007 -87.42334 -0.6476696 0.6663209 0.369514 192 192 192 255 0.068736 0.124539
22.73706 340.5399 -88.31641 -0.4790743 0.8264495 0.2957516 192 192 192 255 0.068645 0.124508
-140.5918 340.5399 -122.5493 -0.5685012 0.8151109 0.1113581 192 192 192 255 0.068745 0.124525
9.204834 330.6976 -87.02832 -0.5114023 0.7589442 0.4030775 192 192 192 255 0.068652 0.124515
5.013916 340.5399 -121.3716 -0.01551276 0.9998447 0.008362522 192 192 192 255 0.068664 0.124502
-140.5918 333.1972 -105.7109 -0.5643411 0.7894858 0.2413117 192 192 192 255 0.068740 0.124534
0.221924 332.3772 -102.0986 -0.4787787 0.8268633 0.295073 192 192 192 255 0.068661 0.124512
48.08789 236.5104 143.2852 0.2274132 0.9731499 -0.03553249 192 192 192 255 0.068562 0.124621
145.1082 236.5104 173.105 0.411323 0.7690741 -0.4892224 192 192 192 255 0.068500 0.124612
129.1599 217.8144 150.6455 0.8323152 0.5381481 -0.1328457 192 192 192 255 0.068515 0.124618
-84.27124 290.7572 -23.5249 -0.1811437 0.9819741 -0.05397994 192 192 192 255 0.068685 0.124569
-149.1228 290.0249 4.656738 -0.6126321 0.4005693 -0.6813415 192 192 192 255 0.068714 0.124589
-130.3835 282.6277 -16.50781 -0.8217807 0.5128642 -0.2482878 192 192 192 255 0.068709 0.124583
-153.0232 179.106 -12.63477 -0.9995151 -0.02822166 -0.01315968 192 192 192 255 0.068720 0.124644
-152.6953 128.9051 72.73975 -0.999513 -0.02856252 -0.01257012 192 192 192 255 0.068695 0.124695
-153.8311 173.0848 62.81689 -0.9995167 -0.02841401 -0.01260945 192 192 192 255 0.068700 0.124670
161.1848 205.9257 -76.06348 0.9785576 0.1529229 0.1379846 192 192 192 255 0.068564 0.124577
161.1843 214.6588 -194.5732 0.9422688 0.3289295 -0.06272833 192 192 192 255 0.068597 0.124543
161.1848 231.753 -104.7349 0.845528 0.5337335 0.01452483 192 192 192 255 0.068573 0.124557
-30.20996 340.5399 -220.2441 -0.01472042 0.6865315 -0.7269511 192 192 192 255 0.068709 0.124483
-139.9995 315.7523 -219.3159 -0.1192043 0.4943475 -0.8610522 192 192 192 255 0.068767 0.124513
58.7063 236.5104 220.2456 0.1807799 0.3186822 0.9304625 192 192 192 255 0.068532 0.124642
139.5322 195.4593 218.5898 0.1810583 0.3184026 0.930504 192 192 192 255 0.068488 0.124648
-139.3022 84.32703 87.18652 -0.999517 0.02991064 0.008433606 192 192 192 255 0.068668 0.124825
128.0708 88.59191 -66.8252 0.7069421 -0.6846938 -0.1772774 192 192 192 255 0.068574 0.124721
-139.6113 81.34103 -37.78369 0.002249507 -0.9751103 -0.2217092 192 192 192 255 0.068699 0.124789
-104.6399 108.3924 -200.2598 -0.8148844 -0.3317491 -0.4752958 192 192 192 255 0.068719 0.124750
128.1143 93.89282 -208.5879 0.1841428 -0.5996572 -0.7787828 192 192 192 255 0.068609 0.124688
-154.6309 89.62789 -22.07812 -0.8872947 -0.2131578 -0.4089889 192 192 192 255 0.068708 0.124799
-154.4243 92.18661 72.97559 -0.8868793 -0.3397784 0.3130428 192 192 192 255 0.068684 0.124826
151.5186 97.73039 -77.17773 0.8080668 -0.3303852 0.4877228 192 192 192 255 0.068566 0.124713
151.574 94.7454 -195.4219 0.6800776 -0.5787798 -0.4500094 192 192 192 255 0.068594 0.124687
-129.147 108.8198 -158.5244 -0.1188591 -0.9537178 -0.2762154 192 192 192 255 0.068722 0.124765
3 23 26 66 
3 23 66 65 
3 23 65 0 
3 13 54 35 
3 13 35 7 
3 2 63 64 
3 6 14 36 
3 6 36 16 
3 12 13 7 
3 12 7 17 
3 27 30 9 
3 27 9 10 
3 9 25 8 
3 9 8 5 
3 23 11 67 
3 7 6 16 
3 7 16 17 
3 40 9 5 
3 57 72 73 
3 57 73 58 
3 4 40 5 
3 4 5 21 
3 4 21 22 
3 20 3 19 
3 20 19 16 
3 22 38 35 
3 22 35 54 
3 22 54 55 
3 0 65 1 
3 0 1 31 
3 0 31 29 
3 18 20 71 
3 18 71 70 
3 16 15 20 
3 52 8 53 
3 41 43 11 
3 41 11 24 
3 41 24 27 
3 41 27 10 
3 29 23 0 
3 55 12 43 
3 55 43 4 
3 55 4 22 
3 18 12 17 
3 15 8 68 
3 61 62 60 
3 32 33 30 
3 32 30 27 
3 29 31 33 
3 29 33 32 
3 28 30 33 
3 27 24 32 
3 31 28 33 
3 24 29 32 
3 51 52 53 
3 9 30 28 
3 9 28 51 
3 9 51 25 
3 24 11 23 
3 24 23 29 
3 35 38 39 
3 37 5 15 
3 37 15 36 
3 16 36 15 
3 22 21 34 
3 22 34 38 
3 39 38 34 
3 39 34 37 
3 35 39 37 
3 35 37 36 
3 35 36 14 
3 7 35 14 
3 7 14 6 
3 42 40 4 
3 4 43 42 
3 42 43 41 
3 41 40 42 
3 10 9 40 
3 10 40 41 
3 47 16 19 
3 47 19 45 
3 46 48 63 
3 46 63 2 
3 18 49 46 
3 18 46 2 
3 18 2 64 
3 44 49 18 
3 44 18 17 
3 3 48 45 
3 3 45 19 
3 17 16 47 
3 17 47 44 
3 45 48 50 
3 48 46 49 
3 48 49 50 
3 44 47 50 
3 44 50 49 
3 47 45 50 
3 31 1 52 
3 26 8 52 
3 26 52 1 
3 26 1 66 
3 53 8 25 
3 51 53 25 
3 31 52 51 
3 31 51 28 
3 56 54 13 
3 13 12 56 
3 56 12 55 
3 55 54 56 
3 57 58 59 
3 12 69 72 
3 12 72 57 
3 11 43 59 
3 11 59 58 
3 43 12 57 
3 43 57 59 
3 20 15 62 
3 15 68 74 
3 15 74 60 
3 62 15 60 
3 61 60 74 
3 61 74 75 
3 20 62 61 
3 64 63 20 
3 64 20 18 
3 65 66 1 
3 63 48 3 
3 20 63 3 
3 18 76 69 
3 18 69 12 
3 73 67 11 
3 73 11 58 
3 75 71 20 
3 75 20 61 
3 70 76 18 
3 26 23 67 
3 26 67 8 
3 68 69 76 
3 69 67 73 
3 69 73 72 
3 68 71 75 
3 68 75 74 
3 68 76 70 
3 68 70 71 
3 8 67 69 
3 8 69 68 
3 21 5 37 
3 21 37 34 
3 15 5 8 
