ply
format ascii 1.0
comment VCGLIB generated
comment TextureFile Dungeons_2_Texture_01_A.png
element vertex 109
property float x
property float y
property float z
property float nx
property float ny
property float nz
property uchar red
property uchar green
property uchar blue
property uchar alpha
property float texture_u
property float texture_v
element face 144
property list uchar int vertex_indices
end_header
0.00293 50 0 0 0.2526419 -0.9675599 192 192 192 255 0.029071 0.784422
-31.24805 50 0 -0.001002688 0.2028053 -0.9792186 192 192 192 255 0.023049 0.779137
-31.24805 37.5 0 -0.0006399943 0.001279989 -0.999999 192 192 192 255 0.023566 0.777407
-62.49805 37.5 0 -0.001023993 0.0005119964 -0.9999993 192 192 192 255 0.017511 0.772079
-62.49805 25 0 -0.0006399842 0.001279969 -0.999999 192 192 192 255 0.018061 0.770392
-93.74902 25 0 -0.001023974 0.0005119869 -0.9999993 192 192 192 255 0.011972 0.765021
-93.74902 12.5 0 -0.0008518602 0.00170372 -0.9999982 192 192 192 255 0.012555 0.763376
-125 12.5 0 -0.8164966 0.4082483 -0.4082483 192 192 192 255 0.006432 0.757962
-93.74902 25 38.83301 -9.833579e-05 1 5.756795e-05 192 192 192 255 0.018160 0.758256
-31.24805 50 12.94434 -0.005953193 0.9999762 0.003487294 192 192 192 255 0.025129 0.776929
-31.24805 37.5 12.94434 -0.0001826419 1 4.770672e-05 192 192 192 255 0.025635 0.775208
-62.49805 37.5 25.88867 -0.5885101 0.7313066 0.3447412 192 192 192 255 0.021654 0.767616
-62.49805 25 25.88867 -0.7871217 0.5815225 0.2055992 192 192 192 255 0.022182 0.765947
-93.74902 12.5 38.83301 -0.5545719 0.8194308 0.1448562 192 192 192 255 0.018711 0.756639
-125 12.5 51.77832 -0.4845082 0.8514549 0.2006898 192 192 192 255 0.014648 0.748847
0.00293 -4e-06 0 -8.075144e-10 -0.9997389 -0.02284841 192 192 192 255 0.030952 0.777541
-125 0 0 -0.0001545332 -0.9999999 -0.0003090024 192 192 192 255 0.007049 0.756359
-125 0 51.77832 -0.4041063 -0.8207321 0.4038527 192 192 192 255 0.015222 0.747282
500 50 499.9971 0.9998823 0.01534087 0 192 192 192 255 0.205086 0.784422
500 50 531.248 0.9792155 0.20282 0.001002685 192 192 192 255 0.211199 0.779137
500 37.5 531.248 0.999999 0.001279989 0.0006399943 192 192 192 255 0.210591 0.777407
500 37.5 562.498 0.9999993 0.0005119964 0.001023993 192 192 192 255 0.216739 0.772079
500 25 562.498 0.999999 0.001279969 0.0006399842 192 192 192 255 0.216097 0.770392
500 25 593.749 0.9999993 0.0005119869 0.001023974 192 192 192 255 0.222278 0.765021
500 12.5 593.749 0.9999982 0.00170372 0.0008518602 192 192 192 255 0.221604 0.763376
500 12.5 625 0.4082483 0.4082483 0.8164966 192 192 192 255 0.227819 0.757962
461.166 25 593.749 -2.874322e-05 1 6.951423e-05 192 192 192 255 0.216205 0.758256
487.0547 50 531.248 -8.380241e-05 1 0.0002023166 192 192 192 255 0.209157 0.776928
487.0547 37.5 531.248 -9.541363e-05 1 0.0002303486 192 192 192 255 0.208560 0.775208
474.1113 37.5 562.498 -0.2006898 0.8514549 0.4845082 192 192 192 255 0.212672 0.767616
474.1113 25 562.498 -5.757268e-05 1 0.0001391148 192 192 192 255 0.212052 0.765947
461.166 12.5 593.749 -0.2274585 0.8041865 0.5491327 192 192 192 255 0.215562 0.756639
448.2217 12.5 625 -0.2006898 0.8514549 0.4845082 192 192 192 255 0.219757 0.748847
500 -4e-06 499.9971 0.1194654 -0.9928384 8.018562e-10 192 192 192 255 0.202852 0.777541
500 0 625 0.0003090024 -0.9999999 0.0001545332 192 192 192 255 0.227111 0.756359
448.2217 0 625 -0.4036899 -0.8208923 0.4039435 192 192 192 255 0.219090 0.747282
500 -4e-06 0 0.09951219 -0.9950364 -7.960384e-06 192 192 192 255 0.116267 0.853147
500 50 0 0.1622214 0.9733285 -0.1622214 192 192 192 255 0.116414 0.861072
487.9805 50 12.01953 -0.08684572 0.9936693 0.07126898 192 192 192 255 0.116443 0.857696
488.4102 50 479.6875 -0.0003492439 0.9999999 -0.0001358811 192 192 192 255 0.199320 0.785885
21.74121 50 13.01855 0.05638649 0.998402 0.003748585 192 192 192 255 0.035314 0.785885
474.1465 46.28747 25.4248 -1.10544e-05 1 9.104948e-06 192 192 192 255 0.116400 0.853466
478.6436 46.28747 451.8496 0.06505816 0.9910886 -0.1162364 192 192 192 255 0.192332 0.788572
50.45801 46.28747 25.74609 0.07558443 0.9971268 0.005024857 192 192 192 255 0.042876 0.788226
240.8379 50 8.901367 -0.01064706 0.9931909 0.1160108 192 192 192 255 0.073974 0.820105
236.2273 46.28747 26.70434 -8.247334e-06 1 0.0002224186 192 192 192 255 0.076337 0.817917
425.3242 50 416.6016 0.01989782 0.9992983 -0.03173506 192 192 192 255 0.177149 0.785885
332.0137 50 323.291 0.09265603 0.9922553 -0.08273025 192 192 192 255 0.144356 0.785885
370.6885 50 382.4404 0.01214895 0.9998524 -0.01214895 192 192 192 255 0.161938 0.782419
389.5518 48.46292 369.3027 0.07642324 0.9941425 -0.07642139 192 192 192 255 0.180715 0.606286
488.0371 50 73.53027 -0.1597795 0.9868881 0.02285863 192 192 192 255 0.127344 0.848251
488.1543 50 201.7383 -0.1327555 0.9905255 -0.03514597 192 192 192 255 0.159225 0.657985
500 50 157.082 -0.1486555 0.9888891 0.0001364507 192 192 192 255 0.144271 0.836991
475.4121 46.28747 145.3965 -0.01628802 0.9998674 1.514422e-05 192 192 192 255 0.137763 0.835208
200.0352 50 191.3125 0.09121699 0.989823 -0.1092236 192 192 192 255 0.097973 0.785885
64.11914 50 55.39648 0.1578534 0.9855914 -0.06076218 192 192 192 255 0.050207 0.785885
165.4334 46.28747 128.7101 0.06640655 0.9932086 -0.09553403 192 192 192 255 0.080218 0.788312
91.6084 46.28748 66.69629 0.15747 0.9856345 -0.0610566 192 192 192 255 0.057239 0.788259
135.7383 50 146.6396 0.01578902 0.9996173 -0.02271825 192 192 192 255 0.079022 0.782571
73.55469 50 80.00391 0.08433336 0.9959109 -0.03239366 192 192 192 255 0.056230 0.783327
161.7178 37.5 250.1045 -0.481709 0.6324714 0.6065776 192 192 192 255 0.101469 0.767616
265.1855 37.5 353.5723 -0.6020862 0.6989982 0.3858677 192 192 192 255 0.138300 0.767616
224.9033 25 313.29 -0.5302402 0.661582 0.5302402 192 192 192 255 0.124233 0.766782
237.4541 37.5 310.2383 -0.07821046 0.9938643 0.07821045 192 192 192 255 0.125673 0.770296
320.5557 12.5 497.334 -0.6520526 0.3059996 0.6936797 192 192 192 255 0.174076 0.748847
412.8574 12.5 589.6357 -0.3387451 0.9227234 0.1839383 192 192 192 255 0.207103 0.748847
387.5615 12.5 542.8789 -0.2939965 0.9094681 0.2939965 192 192 192 255 0.193916 0.752630
371.5371 5.551987 548.3154 -0.6639921 0.3438445 0.6639921 192 192 192 255 0.192462 0.748412
-82.33594 12.5 94.44238 -0.2411909 0.8725035 0.424929 192 192 192 255 0.029914 0.748847
-8.319336 12.5 168.459 -0.702326 0.2424067 0.669311 192 192 192 255 0.056399 0.748847
-41.28809 12.5 117.6416 -0.3082146 0.9000042 0.3082146 192 192 192 255 0.041586 0.751993
-53.3125 6.364441 123.4658 -0.6614993 0.3533236 0.6614993 192 192 192 255 0.040575 0.748463
292.6682 50 14.37751 -0.005056267 0.9954152 0.09551448 192 192 192 255 0.081812 0.827043
280.4139 46.28747 36.60328 -1.540051e-06 1 2.91303e-05 192 192 192 255 0.084646 0.825290
488.4102 50 479.6875 -0.0003492439 0.9999999 -0.0001358811 192 192 192 255 0.231552 0.605384
475.4121 46.28747 145.3965 -0.01628802 0.9998674 1.514422e-05 192 192 192 255 0.142864 0.665113
478.6436 46.28747 451.8496 0.06505816 0.9910886 -0.1162364 192 192 192 255 0.221758 0.608480
487.9805 50 12.01953 -0.08684572 0.9936693 0.07126898 192 192 192 255 0.114523 0.690495
292.6682 50 14.37751 -0.005056267 0.9954152 0.09551448 192 192 192 255 0.068934 0.653848
280.4139 46.28747 36.60328 -1.540051e-06 1 2.91303e-05 192 192 192 255 0.074151 0.652919
474.1465 46.28747 25.4248 -1.10544e-05 1 9.104948e-06 192 192 192 255 0.114625 0.685385
21.74121 50 13.01855 0.05638649 0.998402 0.003748585 192 192 192 255 0.005194 0.599956
64.11914 50 55.39648 0.1578534 0.9855914 -0.06076218 192 192 192 255 0.025862 0.600452
91.6084 46.28748 66.69629 0.15747 0.9856345 -0.0610566 192 192 192 255 0.035561 0.603642
50.45801 46.28747 25.74609 0.07558443 0.9971268 0.005024857 192 192 192 255 0.015646 0.603124
236.2273 46.28747 26.70434 -8.247334e-06 1 0.0002224186 192 192 192 255 0.063560 0.644424
240.8379 50 8.901367 -0.01064706 0.9931909 0.1160108 192 192 192 255 0.058615 0.645553
370.6885 50 382.4404 0.01214895 0.9998524 -0.01214895 192 192 192 255 0.180135 0.599870
425.3242 50 416.6016 0.01989782 0.9992983 -0.03173506 192 192 192 255 0.201111 0.604654
332.0137 50 323.291 0.09265603 0.9922553 -0.08273025 192 192 192 255 0.155995 0.603572
488.1543 50 201.7383 -0.1327555 0.9905255 -0.03514597 192 192 192 255 0.150064 0.828565
500 50 157.082 -0.1486555 0.9888891 0.0001364507 192 192 192 255 0.150881 0.668063
488.0371 50 73.53027 -0.1597795 0.9868881 0.02285863 192 192 192 255 0.128636 0.680231
73.55469 50 80.00391 0.08433336 0.9959109 -0.03239366 192 192 192 255 0.034000 0.597466
165.4334 46.28747 128.7101 0.06640655 0.9932086 -0.09553403 192 192 192 255 0.067373 0.604468
200.0352 50 191.3125 0.09121699 0.989823 -0.1092236 192 192 192 255 0.091997 0.602038
135.7383 50 146.6396 0.01578902 0.9996173 -0.02271825 192 192 192 255 0.065452 0.597286
265.1855 37.5 353.5723 -0.6020862 0.6989982 0.3858677 192 192 192 255 0.148448 0.580599
237.4541 37.5 310.2383 -0.07821046 0.9938643 0.07821045 192 192 192 255 0.130762 0.583539
224.9033 25 313.29 -0.5302402 0.661582 0.5302402 192 192 192 255 0.128481 0.578029
161.7178 37.5 250.1045 -0.481709 0.6324714 0.6065776 192 192 192 255 0.097454 0.579345
371.5371 5.551987 548.3154 -0.6639921 0.3438445 0.6639921 192 192 192 255 0.143806 0.622187
387.5615 12.5 542.8789 -0.2939965 0.9094681 0.2939965 192 192 192 255 0.146094 0.628104
320.5557 12.5 497.334 -0.6520526 0.3059996 0.6936797 192 192 192 255 0.119016 0.622642
412.8574 12.5 589.6357 -0.3387451 0.9227234 0.1839383 192 192 192 255 0.164625 0.623792
-53.3125 6.364441 123.4658 -0.6614993 0.3533236 0.6614993 192 192 192 255 0.112971 0.638125
-41.28809 12.5 117.6416 -0.3082146 0.9000042 0.3082146 192 192 192 255 0.114486 0.643124
-82.33594 12.5 94.44238 -0.2411909 0.8725035 0.424929 192 192 192 255 0.098159 0.638711
-8.319336 12.5 168.459 -0.702326 0.2424067 0.669311 192 192 192 255 0.135133 0.639644
3 8 12 4 
3 8 4 5 
3 9 0 1 
3 10 9 1 
3 10 1 2 
3 11 10 2 
3 11 2 3 
3 12 11 3 
3 12 3 4 
3 13 8 5 
3 13 5 6 
3 14 13 6 
3 14 6 7 
3 26 30 8 
3 8 30 62 
3 8 62 12 
3 0 9 27 
3 0 27 59 
3 27 18 39 
3 27 39 48 
3 59 55 40 
3 59 40 0 
3 46 48 39 
3 48 47 54 
3 48 54 58 
3 59 27 58 
3 27 48 58 
3 28 27 9 
3 28 9 10 
3 61 29 28 
3 61 28 63 
3 10 11 60 
3 10 60 63 
3 28 10 63 
3 30 29 61 
3 30 61 62 
3 31 26 8 
3 31 8 13 
3 65 32 31 
3 65 31 66 
3 13 14 68 
3 13 68 70 
3 70 66 31 
3 70 31 13 
3 0 15 1 
3 1 15 2 
3 2 15 3 
3 3 15 4 
3 4 15 5 
3 5 15 6 
3 6 15 16 
3 6 16 7 
3 7 16 17 
3 7 17 14 
3 35 32 65 
3 35 65 67 
3 68 14 17 
3 68 17 71 
3 35 67 17 
3 17 67 64 
3 17 64 71 
3 64 69 71 
3 26 23 22 
3 26 22 30 
3 27 19 18 
3 28 20 19 
3 28 19 27 
3 29 21 20 
3 29 20 28 
3 30 22 21 
3 30 21 29 
3 31 24 23 
3 31 23 26 
3 32 25 24 
3 32 24 31 
3 18 19 33 
3 19 20 33 
3 20 21 33 
3 21 22 33 
3 22 23 33 
3 23 24 33 
3 24 25 34 
3 24 34 33 
3 25 32 35 
3 25 35 34 
3 16 15 17 
3 35 17 15 
3 35 15 33 
3 34 35 33 
3 0 37 36 
3 0 36 15 
3 15 36 33 
3 33 36 18 
3 52 18 36 
3 52 36 37 
3 56 42 53 
3 56 53 45 
3 45 43 57 
3 45 57 56 
3 45 53 73 
3 53 41 73 
3 50 52 37 
3 50 37 38 
3 37 0 40 
3 37 40 44 
3 37 44 72 
3 37 72 38 
3 74 51 75 
3 74 75 76 
3 77 78 79 
3 77 79 80 
3 81 82 83 
3 81 83 84 
3 85 86 81 
3 85 81 84 
3 49 87 88 
3 89 87 49 
3 18 52 90 
3 18 90 39 
3 75 91 92 
3 75 92 77 
3 75 77 80 
3 51 91 75 
3 82 93 83 
3 76 94 95 
3 76 95 49 
3 88 74 76 
3 88 76 49 
3 95 89 49 
3 94 96 95 
3 83 93 96 
3 83 96 94 
3 97 98 99 
3 62 60 11 
3 62 11 12 
3 99 98 100 
3 101 102 103 
3 104 102 101 
3 105 106 107 
3 108 106 105 
3 79 78 86 
3 79 86 85 
3 64 66 70 
3 64 70 69 
