ply
format ascii 1.0
comment VCGLIB generated
comment TextureFile Dungeons_2_Texture_01_A.png
element vertex 62
property float x
property float y
property float z
property float nx
property float ny
property float nz
property uchar red
property uchar green
property uchar blue
property uchar alpha
property float texture_u
property float texture_v
element face 120
property list uchar int vertex_indices
end_header
6.1e-05 125.1085 -218.7554 -0.5773503 0.5773503 0.5773503 192 192 192 255 0.056854 0.751219
6.1e-05 125.1085 -250.0061 -0.5773503 0.5773503 -0.5773503 192 192 192 255 0.045422 0.751219
6.1e-05 109.4699 -218.7554 -0.8017837 0.2672613 0.5345225 192 192 192 255 0.059715 0.751219
6.1e-05 109.4699 -187.5046 -0.0008780519 0.9999996 0.0004390259 192 192 192 255 0.071147 0.751219
6.1e-05 93.83138 -187.5046 -0.2012619 0.000333945 0.9795374 192 192 192 255 0.074008 0.751219
6.1e-05 93.83138 -156.2538 -0.9999958 0.002046164 0.002046164 192 192 192 255 0.085439 0.751219
6.1e-05 78.19282 -156.2538 -0.9999983 0.00166063 0.0008303152 192 192 192 255 0.088300 0.751219
6.1e-05 78.19282 -125.0031 -0.9999896 0.002046153 0.004092307 192 192 192 255 0.099732 0.751219
6.1e-05 62.55425 -125.0031 -0.9999996 0.0005899434 0.0005899434 192 192 192 255 0.102593 0.751219
6.1e-05 62.55425 -93.75229 -0.7649174 0.6441265 0.001565153 192 192 192 255 0.114024 0.751219
6.1e-05 46.91568 -93.75229 -0.2774371 0.0003275377 0.9607438 192 192 192 255 0.116885 0.751219
6.1e-05 46.91568 -62.50152 -0.9999958 0.002046165 0.002046165 192 192 192 255 0.128317 0.751219
6.1e-05 31.27712 -62.50152 -0.9999996 0.0004151581 0.0008303163 192 192 192 255 0.131178 0.751219
6.1e-05 31.27712 -31.25075 -0.3978445 0.001629088 0.9174514 192 192 192 255 0.142610 0.751219
6.1e-05 15.63856 -31.25075 -0.8182697 0.5748344 0.0003397116 192 192 192 255 0.145470 0.751219
6.1e-05 15.63856 2e-06 -0.9999993 0.0008303163 0.0008303163 192 192 192 255 0.156902 0.751219
6.1e-05 -22.90001 2e-06 -0.8332914 -0.0002824558 0.552834 192 192 192 255 0.163952 0.751219
500.0001 125.1085 -218.7554 0.5773512 0.5773494 0.5773503 192 192 192 255 0.056854 0.985778
499.9999 125.1085 -250.0061 0.5773506 0.5773488 -0.5773515 192 192 192 255 0.045422 0.985778
499.9999 109.4699 -218.7554 0.6882471 0.6882479 0.2294143 192 192 192 255 0.059715 0.985778
500.0001 109.4699 -187.5046 0.408248 0.8164974 0.4082471 192 192 192 255 0.071147 0.985778
500.0001 93.83138 -187.5046 0.2014221 0.000166968 0.9795046 192 192 192 255 0.074008 0.985778
499.9999 93.83138 -156.2538 0.9999832 0.004100084 0.004096184 192 192 192 255 0.085439 0.985778
500.0001 78.19282 -156.2538 0.9999996 0.0008303165 0.0004151582 192 192 192 255 0.088300 0.985778
499.9999 78.19282 -125.0031 0.9999895 0.004100109 0.002050058 192 192 192 255 0.099732 0.985778
500.0001 62.55425 -125.0031 0.9999983 0.0005876894 0.001770109 192 192 192 255 0.102593 0.985778
500 62.55425 -93.75229 0.9999896 0.004084498 0.002047128 192 192 192 255 0.114024 0.985778
499.9999 46.91568 -93.75229 0.2774372 0.0001622067 0.9607438 192 192 192 255 0.116885 0.985778
500.0001 46.91569 -62.50153 0.9999833 0.004084473 0.004087395 192 192 192 255 0.128317 0.985778
499.9999 31.27712 -62.50153 0.7306051 0.6828002 0.0003007318 192 192 192 255 0.131178 0.985778
499.9999 31.27712 -31.25076 0.9999895 0.004100109 0.002047128 192 192 192 255 0.142610 0.985778
500 15.63856 -31.25076 0.9999986 0.0004127823 0.001658282 192 192 192 255 0.145470 0.985778
500.0001 15.63856 0 0.9999973 0.001657462 0.001659652 192 192 192 255 0.156902 0.985778
499.9999 -22.90001 0 0.9999998 -0.0006824275 3.684284e-05 192 192 192 255 0.163952 0.985778
499.9999 102.2085 -250.0061 0.9999983 -0.0006283838 -0.001707909 192 192 192 255 0.049612 0.985778
6.1e-05 102.2085 -250.0061 -0.9999984 -0.001246128 -0.001320314 192 192 192 255 0.049612 0.751219
95.77655 62.55425 -125.0031 0 0.9814581 0.1916767 192 192 192 255 0.102593 0.796150
416.2911 109.4699 -187.5046 -0.09235269 0.8233922 0.5599074 192 192 192 255 0.071147 0.946509
365.3895 78.19282 -125.0031 -0.0895578 0.9676666 0.2357983 192 192 192 255 0.099732 0.922630
177.4202 62.55425 -93.75229 -0.009602819 0.9921305 0.1248397 192 192 192 255 0.114024 0.834450
442.8337 31.27712 -31.25076 -0.1146796 0.8861108 0.4490616 192 192 192 255 0.142610 0.958961
200.2971 15.63856 0 -0.02731623 0.7717956 0.6352837 192 192 192 255 0.156902 0.845182
291.2911 109.4699 -187.5046 0.01019181 0.9946696 0.1026096 192 192 192 255 0.071147 0.887869
369.4365 109.4699 -195.3173 0 0.9889184 0.14846 192 192 192 255 0.068289 0.924529
381.5617 105.5603 -187.5046 0 0.1518854 0.9883981 192 192 192 255 0.071862 0.930217
124.5574 78.19282 -125.0031 0.05102353 0.3158276 0.9474437 192 192 192 255 0.099732 0.809651
52.42017 62.55425 -93.75229 0.04028422 0.9911993 0.1260998 192 192 192 255 0.114024 0.775810
144.8163 78.19282 -132.8157 0 0.8955141 0.4450333 192 192 192 255 0.096874 0.819155
148.5015 74.28317 -125.0031 0 0.5949825 0.8037387 192 192 192 255 0.100447 0.820884
76.36431 62.55425 -101.565 0 0.9922689 0.1241065 192 192 192 255 0.111166 0.787043
96.19739 58.64461 -93.75229 0 0.1518853 0.9883981 192 192 192 255 0.114740 0.796347
261.85 78.19282 -125.0031 0.0523085 0.8252383 0.5623573 192 192 192 255 0.099732 0.874058
198.001 78.19282 -125.0031 -0.06911108 0.877269 0.4749976 192 192 192 255 0.099732 0.844105
345.3309 78.19282 -132.8157 0 0.8953748 0.4453135 192 192 192 255 0.096874 0.913220
323.274 74.28317 -125.0031 0 0.8929467 0.4501625 192 192 192 255 0.100447 0.902873
287.7525 31.27712 -31.25076 0.008468294 0.8942997 0.4473884 192 192 192 255 0.142610 0.886209
412.7524 31.27712 -39.06345 0 0.9850058 0.1725214 192 192 192 255 0.139752 0.944849
412.7525 27.36748 -31.25076 1.80381e-08 0.5729154 0.8196145 192 192 192 255 0.143325 0.944849
75.29706 15.63856 0 0.2794533 0.5928743 0.7552522 192 192 192 255 0.156902 0.786542
96.2041 15.63856 -7.812691 0 0.8619954 0.5069161 192 192 192 255 0.154044 0.796350
95.48145 6.003915 0 0.0533216 0.2644389 0.9629273 192 192 192 255 0.158665 0.796011
126.2443 5.365522 0 -0.02338125 0.2543655 0.9668255 192 192 192 255 0.158782 0.810443
3 2 19 17 
3 2 17 0 
3 43 42 44 
3 6 23 22 
3 6 22 5 
3 53 51 54 
3 49 50 39 
3 12 29 28 
3 12 28 11 
3 56 57 40 
3 59 61 41 
3 17 18 1 
3 17 1 0 
3 22 21 4 
3 22 4 5 
3 28 27 10 
3 28 10 11 
3 1 18 34 
3 1 34 35 
3 33 16 35 
3 33 35 34 
3 26 27 25 
3 28 29 27 
3 30 31 29 
3 32 33 31 
3 34 18 17 
3 34 17 19 
3 19 20 21 
3 19 21 34 
3 22 23 21 
3 25 23 24 
3 15 14 16 
3 8 35 16 
3 8 16 10 
3 12 16 14 
3 13 12 14 
3 11 10 12 
3 9 8 10 
3 7 6 8 
3 35 8 6 
3 5 4 6 
3 35 4 3 
3 35 3 2 
3 1 35 2 
3 1 2 0 
3 33 27 29 
3 23 34 21 
3 33 29 31 
3 25 34 23 
3 33 34 25 
3 33 25 27 
3 12 10 16 
3 35 6 4 
3 48 47 45 
3 19 2 3 
3 19 3 43 
3 42 43 3 
3 21 44 4 
3 4 44 42 
3 4 42 3 
3 37 44 21 
3 37 21 20 
3 20 19 43 
3 20 43 37 
3 45 47 6 
3 45 6 7 
3 7 8 36 
3 7 36 45 
3 48 45 36 
3 36 8 9 
3 36 9 49 
3 46 49 9 
3 10 50 46 
3 10 46 9 
3 10 27 50 
3 39 50 27 
3 39 27 26 
3 26 25 36 
3 26 36 39 
3 49 39 36 
3 53 23 6 
3 53 6 47 
3 51 53 47 
3 51 47 52 
3 36 25 54 
3 36 54 51 
3 36 51 52 
3 36 52 48 
3 38 54 25 
3 38 25 24 
3 24 23 53 
3 24 53 38 
3 29 12 13 
3 29 13 55 
3 55 56 29 
3 13 14 31 
3 13 31 57 
3 57 55 13 
3 40 57 31 
3 40 31 30 
3 30 29 56 
3 30 56 40 
3 58 59 14 
3 58 14 15 
3 16 60 58 
3 16 58 15 
3 16 33 32 
3 16 32 41 
3 16 41 61 
3 32 31 14 
3 32 14 41 
3 14 59 41 
3 53 54 38 
3 43 44 37 
3 52 47 48 
3 49 46 50 
3 56 55 57 
3 59 58 60 
3 59 60 61 
3 16 61 60 
