ply
format ascii 1.0
comment VCGLIB generated
comment TextureFile Dungeons_2_Texture_01_A.png
element vertex 102
property float x
property float y
property float z
property float nx
property float ny
property float nz
property uchar red
property uchar green
property uchar blue
property uchar alpha
property float texture_u
property float texture_v
element face 144
property list uchar int vertex_indices
end_header
0 -9e-06 125 -0.3225915 -0.8899702 0.3223165 192 192 192 255 0.030603 0.802579
0 12.49999 125 -0.7020252 0.1214148 0.7017258 192 192 192 255 0.029939 0.804512
38.83398 37.49999 31.24805 -0.1467665 0.9188613 0.3662697 192 192 192 255 0.020269 0.835021
12.94434 12.49999 93.74902 -0.6809022 0.2394019 0.6921408 192 192 192 255 0.027126 0.813492
12.94434 24.99999 93.74902 -0.0005276497 0.9999978 0.002045791 192 192 192 255 0.026444 0.815486
25.88867 24.99999 62.49805 -0.0005162401 0.9999991 0.001284483 192 192 192 255 0.023682 0.824306
25.88867 37.5 62.49805 -0.315017 0.5351704 0.7838093 192 192 192 255 0.022981 0.826358
38.83398 49.99999 31.24805 -0.0002928193 0.9999997 0.0007307581 192 192 192 255 0.019550 0.837131
51.77832 49.99999 -0.00293 8.337651e-10 1 -0.0002550932 192 192 192 255 0.016887 0.845639
51.77832 -6e-06 -0.00293 6.320768e-11 -1 -1.928928e-05 192 192 192 255 0.019745 0.837234
0 -6e-06 -0.00293 -0.0006180047 -0.9999998 -0.0001545252 192 192 192 255 0.006631 0.827681
0 12.49999 93.74902 -0.009887582 0.9999389 0.004943791 192 192 192 255 0.023773 0.810959
0 24.99999 93.74902 -0.4082483 0.8164966 0.4082483 192 192 192 255 0.023067 0.812943
0 24.99999 62.49805 -0.8728716 0.2182179 0.4364358 192 192 192 255 0.016964 0.819315
0 37.49999 62.49805 -0.4082483 0.8164966 0.4082482 192 192 192 255 0.016216 0.821348
0 37.49999 31.24805 -0.8728716 0.2182179 0.4364358 192 192 192 255 0.010176 0.827645
0 49.99999 31.24805 -0.4082483 0.8164966 0.4082483 192 192 192 255 0.009386 0.829728
0 49.99999 -0.00293 -0.6666667 0.3333333 -0.6666667 192 192 192 255 0.003408 0.835950
500.0029 -6e-06 500 0.0001545252 -0.9999998 0.0006180047 192 192 192 255 0.228880 0.823666
375 -9e-06 500 -0.0002184061 -0.9999998 0.0005273371 192 192 192 255 0.202406 0.799379
375 12.49999 500 -0.001743672 0.9999896 0.004209597 192 192 192 255 0.202835 0.801300
406.251 12.49999 500 -0.004943791 0.9999389 0.009887582 192 192 192 255 0.209642 0.807533
406.251 24.99999 500 -0.4082483 0.8164966 0.4082483 192 192 192 255 0.210117 0.809503
437.502 24.99999 500 -0.4364358 0.2182179 0.8728716 192 192 192 255 0.216861 0.815666
437.502 37.49999 500 -0.4082482 0.8164966 0.4082483 192 192 192 255 0.217382 0.817686
468.752 37.49999 500 -0.4364358 0.2182179 0.8728716 192 192 192 255 0.224063 0.823781
468.752 49.99999 500 -0.4082483 0.8164966 0.4082483 192 192 192 255 0.224629 0.825849
500.0029 49.99999 500 0.6666667 0.3333333 0.6666667 192 192 192 255 0.231248 0.831876
468.752 37.49999 461.166 -0.7073898 0.002348526 0.7068198 192 192 192 255 0.214590 0.831544
406.251 12.49999 487.0557 -0.004235839 0.9999897 0.001657101 192 192 192 255 0.206503 0.810196
406.251 24.99999 487.0557 -0.7901676 0.5292252 0.3091212 192 192 192 255 0.206957 0.812177
437.502 24.99999 474.1113 -0.3737246 0.9148877 0.1526781 192 192 192 255 0.210565 0.820917
437.502 37.5 474.1113 -0.7821544 0.5349135 0.3195342 192 192 192 255 0.211042 0.822957
468.752 49.99999 461.166 -0.7759918 0.5978595 0.2009996 192 192 192 255 0.215091 0.833641
500.0029 49.99999 448.2217 0.0004110759 0.9999999 -1.791263e-09 192 192 192 255 0.218581 0.842078
500.0029 -6e-06 448.2217 1.446722e-05 -1 -3.160064e-11 192 192 192 255 0.216551 0.833722
500 -6e-06 0 9.955103e-06 -1 -4.9776e-06 192 192 192 255 0.121429 0.911306
500 49.99999 0 0.0001577254 0.9999999 -0.0003154476 192 192 192 255 0.121124 0.920568
272.754 49.99999 230.7869 0 1 0 192 192 192 255 0.117505 0.843862
253.5146 49.99999 237.0547 -0.3227473 0.8904599 0.3208045 192 192 192 255 0.115047 0.837144
253.793 37.49999 246.207 -0.7071101 0.001878104 0.707101 192 192 192 255 0.117217 0.833286
114.8799 37.5 145.8506 -0.2915435 0.909984 0.2948418 192 192 192 255 0.062348 0.826757
114.9248 24.99999 151.7617 -0.454415 0.7630959 0.459556 192 192 192 255 0.064020 0.823530
310.8965 24.99999 381.9551 -0.3597873 0.8640803 0.3520206 192 192 192 255 0.160802 0.814979
304.6855 12.49999 380.999 -0.7016315 0.001560478 0.7125384 192 192 192 255 0.159012 0.811968
187.5 12.49999 312.5 -0.7071063 0.001206067 0.7071063 192 192 192 255 0.116219 0.802909
279.8139 49.99999 222.4216 0.1376925 0.9809636 -0.136935 192 192 192 255 0.115421 0.846077
86.48828 49.99999 17.66113 0.09940073 0.9937829 0.05015104 192 192 192 255 0.029135 0.848639
482.582 49.99999 16.26562 -0.1353958 0.9816486 0.134291 192 192 192 255 0.120641 0.915332
481.2109 49.99999 412.3838 -0.1107612 0.9931756 -0.03652732 192 192 192 255 0.206025 0.845528
289.4082 46.28747 209.4326 0.08267862 0.9931785 -0.08222377 192 192 192 255 0.117529 0.848536
105.252 46.28747 25.27539 1.70989e-05 1 8.626976e-06 192 192 192 255 0.035524 0.849975
473.5625 46.28747 25.27734 -0.0804223 0.9935641 0.07976609 192 192 192 255 0.120529 0.911799
473.5654 46.28747 393.5889 -0.0030643 0.996177 -0.08730518 192 192 192 255 0.199837 0.847091
481.6875 49.99999 274.6162 -0.2192964 0.9747279 -0.04259816 192 192 192 255 0.174498 0.871302
482.0527 49.99999 169.2656 -0.1592165 0.9865527 0.03693189 192 192 192 255 0.151754 0.889896
473.5645 46.28747 231.6582 -0.1883245 0.9821067 -0.0006513752 192 192 192 255 0.163274 0.876923
493.0146 49.99999 216.417 -0.07533207 0.9971585 -0.0002611644 192 192 192 255 0.164155 0.883555
421.2051 49.99999 411.6592 -0.3095222 0.9345878 0.175333 192 192 192 255 0.192915 0.834418
332.6826 49.99999 319.4873 -0.2675282 0.8953721 0.3560022 192 192 192 255 0.151742 0.835859
396.0107 49.99999 367.0234 -0.09936614 0.9904641 0.09543188 192 192 192 255 0.176887 0.838458
377.4316 43.33487 369.8457 -0.570182 0.5984962 0.5627565 192 192 192 255 0.173283 0.833262
120.9072 24.99999 198.1807 -0.5037463 0.7836233 0.3635578 192 192 192 255 0.075109 0.815302
43.22656 24.99999 123.041 -0.1431001 0.9677854 0.2071563 192 192 192 255 0.040092 0.815434
90.02148 24.99999 155.3174 -0.4445068 0.76892 0.4595388 192 192 192 255 0.058521 0.817999
80.16016 16.51906 159.9307 -0.6427416 0.3940843 0.6569481 192 192 192 255 0.057312 0.813779
212.4473 49.99999 147.2881 0.1194484 0.9803547 -0.1569608 192 192 192 255 0.086190 0.846945
136.4756 49.99999 69.10449 0.1458079 0.9858944 -0.08217307 192 192 192 255 0.060065 0.626199
156.5332 49.99999 104.752 0.04247084 0.998245 -0.04126929 192 192 192 255 0.063861 0.844810
177.5918 46.28747 97.61523 0.01555586 0.9997647 -0.01511597 192 192 192 255 0.067701 0.849411
263.2549 49.99999 17.03809 0.02973768 0.9818065 0.187541 192 192 192 255 0.072000 0.879880
377.6299 49.99999 16.63574 -0.0394716 0.9753119 0.2172756 192 192 192 255 0.097953 0.898795
333.6729 46.28747 25.27637 8.039204e-05 0.9997377 0.02290252 192 192 192 255 0.089881 0.889508
325.5117 49.99999 7.148438 0.0002818169 0.9967858 0.0801124 192 192 192 255 0.084399 0.891950
86.48828 49.99999 17.66113 0.09940073 0.9937829 0.05015104 192 192 192 255 0.037452 0.626871
177.5918 46.28747 97.61523 0.01555586 0.9997647 -0.01511597 192 192 192 255 0.076017 0.627643
105.252 46.28747 25.27539 1.70989e-05 1 8.626976e-06 192 192 192 255 0.043841 0.628208
279.8139 49.99999 222.4216 0.1376925 0.9809636 -0.136935 192 192 192 255 0.123737 0.624309
481.2109 49.99999 412.3838 -0.1107612 0.9931756 -0.03652732 192 192 192 255 0.214341 0.623760
473.5654 46.28747 393.5889 -0.0030643 0.996177 -0.08730518 192 192 192 255 0.208153 0.625324
289.4082 46.28747 209.4326 0.08267862 0.9931785 -0.08222377 192 192 192 255 0.125845 0.626768
473.5645 46.28747 231.6582 -0.1883245 0.9821067 -0.0006513752 192 192 192 255 0.171591 0.655155
482.0527 49.99999 169.2656 -0.1592165 0.9865527 0.03693189 192 192 192 255 0.160070 0.668128
482.582 49.99999 16.26562 -0.1353958 0.9816486 0.134291 192 192 192 255 0.128958 0.693564
473.5625 46.28747 25.27734 -0.0804223 0.9935641 0.07976609 192 192 192 255 0.128846 0.690031
481.6875 49.99999 274.6162 -0.2192964 0.9747279 -0.04259816 192 192 192 255 0.182814 0.649534
493.0146 49.99999 216.417 -0.07533207 0.9971585 -0.0002611644 192 192 192 255 0.172471 0.661787
377.4316 43.33487 369.8457 -0.570182 0.5984962 0.5627565 192 192 192 255 0.181599 0.611494
396.0107 49.99999 367.0234 -0.09936614 0.9904641 0.09543188 192 192 192 255 0.185204 0.616690
332.6826 49.99999 319.4873 -0.2675282 0.8953721 0.3560022 192 192 192 255 0.160058 0.614091
421.2051 49.99999 411.6592 -0.3095222 0.9345878 0.175333 192 192 192 255 0.201231 0.612650
120.9072 24.99999 198.1807 -0.5037463 0.7836233 0.3635578 192 192 192 255 0.083426 0.593534
90.02148 24.99999 155.3174 -0.4445068 0.76892 0.4595388 192 192 192 255 0.066837 0.596231
80.16016 16.51906 159.9307 -0.6427416 0.3940843 0.6569481 192 192 192 255 0.065628 0.592011
43.22656 24.99999 123.041 -0.1431001 0.9677854 0.2071563 192 192 192 255 0.048408 0.593666
136.4756 49.99999 69.10449 0.1458079 0.9858944 -0.08217307 192 192 192 255 0.051748 0.847967
212.4473 49.99999 147.2881 0.1194484 0.9803547 -0.1569608 192 192 192 255 0.094506 0.625177
156.5332 49.99999 104.752 0.04247084 0.998245 -0.04126929 192 192 192 255 0.072178 0.623042
333.6729 46.28747 25.27637 8.039204e-05 0.9997377 0.02290252 192 192 192 255 0.098197 0.667740
263.2549 49.99999 17.03809 0.02973768 0.9818065 0.187541 192 192 192 255 0.080316 0.658112
377.6299 49.99999 16.63574 -0.0394716 0.9753119 0.2172756 192 192 192 255 0.106269 0.677028
325.5117 49.99999 7.148438 0.0002818169 0.9967858 0.0801124 192 192 192 255 0.092716 0.670182
3 28 40 41 
3 28 41 32 
3 29 44 45 
3 29 45 20 
3 30 43 44 
3 30 44 29 
3 31 42 43 
3 31 43 30 
3 32 41 42 
3 32 42 31 
3 59 39 40 
3 59 40 61 
3 28 33 58 
3 28 58 61 
3 28 61 40 
3 38 39 59 
3 38 59 60 
3 58 33 34 
3 58 34 60 
3 34 38 60 
3 19 0 9 
3 19 9 35 
3 11 10 0 
3 11 0 1 
3 19 18 21 
3 19 21 20 
3 19 20 45 
3 19 45 0 
3 45 1 0 
3 11 12 13 
3 11 13 10 
3 13 14 15 
3 13 15 10 
3 15 16 17 
3 15 17 10 
3 2 15 14 
3 2 14 6 
3 3 11 1 
3 4 12 11 
3 4 11 3 
3 5 13 12 
3 5 12 4 
3 6 14 13 
3 6 13 5 
3 7 16 15 
3 7 15 2 
3 8 17 16 
3 8 16 7 
3 0 10 9 
3 9 10 17 
3 9 17 8 
3 21 18 23 
3 21 23 22 
3 23 18 25 
3 23 25 24 
3 25 18 27 
3 25 27 26 
3 28 32 24 
3 28 24 25 
3 29 20 21 
3 30 29 21 
3 30 21 22 
3 31 30 22 
3 31 22 23 
3 32 31 23 
3 32 23 24 
3 33 28 25 
3 33 25 26 
3 34 33 26 
3 34 26 27 
3 19 35 18 
3 35 34 27 
3 35 27 18 
3 35 9 36 
3 9 8 37 
3 9 37 36 
3 51 69 72 
3 50 52 72 
3 50 72 69 
3 34 35 36 
3 34 36 37 
3 39 38 68 
3 39 68 7 
3 68 8 7 
3 40 39 7 
3 40 7 2 
3 41 40 2 
3 41 2 6 
3 42 41 6 
3 42 6 5 
3 62 43 42 
3 62 42 64 
3 64 42 5 
3 64 5 63 
3 5 4 63 
3 44 43 62 
3 44 62 65 
3 63 4 3 
3 63 3 65 
3 3 44 65 
3 45 44 3 
3 45 3 1 
3 52 50 53 
3 52 53 56 
3 66 68 38 
3 66 38 46 
3 71 48 37 
3 71 37 73 
3 8 47 70 
3 8 70 73 
3 37 8 73 
3 38 34 49 
3 38 49 46 
3 37 48 55 
3 37 55 57 
3 54 49 34 
3 54 34 57 
3 37 57 34 
3 74 67 75 
3 74 75 76 
3 77 78 79 
3 77 79 80 
3 81 82 83 
3 81 83 84 
3 78 85 81 
3 78 81 79 
3 81 86 82 
3 85 86 81 
3 87 88 89 
3 90 88 87 
3 91 92 93 
3 93 92 94 
3 8 68 95 
3 8 95 47 
3 75 96 77 
3 75 77 80 
3 75 67 97 
3 98 99 74 
3 98 74 76 
3 83 100 98 
3 83 98 84 
3 100 101 98 
3 98 101 99 
3 75 97 96 
