ply
format ascii 1.0
comment VCGLIB generated
comment TextureFile Dungeons_2_Texture_01_A.png
element vertex 132
property float x
property float y
property float z
property float nx
property float ny
property float nz
property uchar red
property uchar green
property uchar blue
property uchar alpha
property float texture_u
property float texture_v
element face 240
property list uchar int vertex_indices
end_header
-55.84276 71.99291 -104.9656 -0.902319 -0.07872589 -0.4238192 192 192 192 255 0.038613 0.279086
-58.9514 -6.125931 16.68015 -0.1501698 -0.8468242 -0.5102333 192 192 192 255 0.037999 0.278122
-55.84276 75.57905 -102.6183 -0.362457 0.9319731 0.007147999 192 192 192 255 0.038618 0.279078
-58.43536 -2.827469 18.85543 -0.4017443 0.502579 0.7655168 192 192 192 255 0.037997 0.278109
-46.25947 74.01926 -103.3021 0.5119484 0.7956633 0.3237727 192 192 192 255 0.038690 0.279033
-49.20879 -2.976097 19.082 0.9996751 -0.01835571 0.01768454 192 192 192 255 0.038055 0.278086
-46.61618 71.84429 -104.7371 0.2419617 -0.2233125 -0.9442384 192 192 192 255 0.038686 0.279040
-49.20879 -6.241425 16.947 0.4182899 -0.8964713 0.1461946 192 192 192 255 0.038057 0.278100
-56.40733 41.47029 -58.27559 -0.1042017 -0.8395311 -0.5332258 192 192 192 255 0.038358 0.278686
-56.28758 48.26183 -63.98485 -0.6036335 0.6718463 0.4292426 192 192 192 255 0.038396 0.278734
-48.67096 25.83051 -27.36655 0.1498199 0.8179831 0.5553898 192 192 192 255 0.038393 0.278588
-48.85068 15.64389 -18.80098 0.6483648 -0.5194516 -0.5565906 192 192 192 255 0.038347 0.278534
-46.79591 69.19272 -91.22269 -0.03917389 0.8389365 0.5428176 192 192 192 255 0.038647 0.278966
-50.91355 76.16578 -102.0608 0.458315 0.8274937 0.3243478 192 192 192 255 0.038657 0.279053
-56.12991 55.40815 -72.57359 -0.6215885 0.6096711 0.4918627 192 192 192 255 0.038426 0.278779
-54.39493 48.73801 -62.37827 -0.139524 0.8214489 0.552951 192 192 192 255 0.038401 0.278707
-56.3829 45.58579 -57.55991 -0.5801054 0.7472639 0.324152 192 192 192 255 0.038366 0.278685
-53.78888 -6.732841 16.46423 -0.1168915 -0.8347592 -0.5380645 192 192 192 255 0.038028 0.278112
-58.67114 1.151131 5.646223 -0.1038334 -0.8382117 -0.5353689 192 192 192 255 0.038043 0.278192
-48.7764 19.87469 -22.35865 0.9888334 -0.1302377 -0.07243371 192 192 192 255 0.038359 0.278549
-48.69112 21.82534 -28.2502 0.6704764 -0.7015714 -0.2413689 192 192 192 255 0.038385 0.278591
-50.64757 18.50539 -23.17598 -0.06270154 -0.8425035 -0.5350294 192 192 192 255 0.038349 0.278568
58.18977 73.70425 -99.37094 0.948841 0.283271 -0.139493 192 192 192 255 0.038613 0.279086
53.81241 -5.971176 21.15856 0.3134273 0.6792538 0.6636095 192 192 192 255 0.037999 0.278122
57.71192 71.15229 -101.0528 0.4265594 -0.4136651 -0.8043185 192 192 192 255 0.038618 0.279078
53.02748 -8.35083 19.52836 0.2812655 -0.9494651 -0.1393048 192 192 192 255 0.037997 0.278109
48.76401 71.924 -101.7463 -0.3532281 -0.7174982 -0.6003551 192 192 192 255 0.038690 0.279033
44.54672 -7.383789 19.01495 -0.9940965 0.1010546 0.03949808 192 192 192 255 0.038055 0.278086
49.39212 73.48435 -100.6728 -0.1943439 0.9674413 -0.1621353 192 192 192 255 0.038686 0.279040
44.70961 -5.101959 20.50804 -0.5324333 0.2251811 0.8159708 192 192 192 255 0.038057 0.278100
55.50227 42.9785 -52.97757 -0.1642844 0.8368771 0.5221564 192 192 192 255 0.038358 0.278686
55.62961 45.90054 -61.2112 0.5716667 -0.6948123 -0.4363864 192 192 192 255 0.038396 0.278734
46.82663 21.81882 -27.0284 -0.1402949 -0.8256172 -0.5465105 192 192 192 255 0.038393 0.278588
46.63844 17.43604 -14.67774 -0.6131675 0.7394755 0.2778519 192 192 192 255 0.038347 0.278534
48.5904 63.94192 -91.69151 0.02609176 -0.832973 -0.5526981 192 192 192 255 0.038647 0.278966
52.92339 70.56077 -102.0603 -0.2772599 -0.7298759 -0.6248266 192 192 192 255 0.038657 0.279053
55.86478 51.11056 -71.056 0.577047 -0.7262986 -0.3735064 192 192 192 255 0.038426 0.278779
53.77692 44.50662 -61.13557 0.1012137 -0.8349028 -0.5410113 192 192 192 255 0.038401 0.278707
55.41111 41.29327 -56.05673 0.5767655 -0.6338223 -0.5153745 192 192 192 255 0.038366 0.278685
49.12544 -4.402618 21.54213 0.282067 0.7105148 0.6446759 192 192 192 255 0.038028 0.278112
54.24512 2.771957 11.08827 -0.1137876 0.8327858 0.5417751 192 192 192 255 0.038043 0.278192
46.71674 19.25633 -19.8065 -0.9608074 0.2510314 0.1176114 192 192 192 255 0.038359 0.278549
46.92384 23.61429 -24.11724 -0.6435027 0.5671641 0.5140325 192 192 192 255 0.038385 0.278591
48.51476 20.23453 -18.78849 -0.1928687 0.832506 0.5193607 192 192 192 255 0.038349 0.278568
-67.63119 6.817546 10.86595 -0.2708802 -0.2665135 0.9249835 192 192 192 255 0.038613 0.279086
63.857 9.177719 12.22258 0.2529008 -0.9414385 0.2230131 192 192 192 255 0.037999 0.278122
-67.63119 12.85945 10.86506 -0.4258659 0.839707 0.3369427 192 192 192 255 0.038618 0.279078
63.85709 12.85944 10.86506 0.3542475 0.8681952 0.3474852 192 192 192 255 0.037997 0.278109
-67.63 10.4916 -14.2456 -0.2222082 0.9279094 -0.2993453 192 192 192 255 0.038690 0.279033
63.85716 12.85944 -13.31462 -0.01166207 -0.03851498 -0.99919 192 192 192 255 0.038055 0.278086
-67.63112 6.817546 -13.31373 -0.6582035 -0.7215242 -0.2148743 192 192 192 255 0.038686 0.279040
63.85716 6.817535 -13.31373 0.5975027 -0.7015612 -0.388333 192 192 192 255 0.038057 0.278100
1.113831 7.377518 9.522771 -0.01009351 -0.9999295 -0.00626323 192 192 192 255 0.038358 0.278686
-17.22015 10.65904 9.522495 0.0001507235 0.9457282 0.3249589 192 192 192 255 0.038396 0.278734
11.40351 12.29947 -12.0105 0.004627177 0.992992 -0.118091 192 192 192 255 0.038393 0.278588
20.51093 7.377525 -12.01043 -0.41084 -0.8258435 -0.3862551 192 192 192 255 0.038347 0.278534
-58.51003 12.85945 -13.31462 -0.01219093 0.9998319 -0.01369813 192 192 192 255 0.038647 0.278966
-67.63081 13.98175 -2.050207 -0.2288039 0.9366913 -0.2650624 192 192 192 255 0.038657 0.279053
-41.16937 12.29948 9.522699 0.06440507 0.9351658 0.3483059 192 192 192 255 0.038426 0.278779
-15.00323 12.29947 4.526606 0.006829833 0.9983836 0.05642325 192 192 192 255 0.038401 0.278707
-2.458435 12.29948 9.522699 -0.103229 0.9474031 0.3029376 192 192 192 255 0.038366 0.278685
63.85725 6.188248 -1.309446 0.2362407 -0.9492332 0.2077177 192 192 192 255 0.038028 0.278112
54.41193 6.817551 11.97338 0.02038958 -0.9995891 0.02014465 192 192 192 255 0.038043 0.278192
16.72773 9.421753 -12.00974 -0.0208063 -0.2605912 -0.965225 192 192 192 255 0.038359 0.278549
12.44257 7.377525 -12.01043 0.3735246 -0.8350164 -0.4040138 192 192 192 255 0.038385 0.278591
16.81609 7.377533 -7.111994 -0.009621118 -0.9996124 -0.0261259 192 192 192 255 0.038349 0.278568
-67.68227 45.51106 -61.70323 -0.343758 0.2914023 -0.8927011 192 192 192 255 0.038613 0.279086
68.24304 41.5484 -73.43391 0.2372425 0.9333743 -0.2693109 192 192 192 255 0.037999 0.278122
-67.78773 39.46978 -61.70296 -0.4684384 -0.8227177 -0.3220267 192 192 192 255 0.038618 0.279078
68.22461 37.8665 -72.27937 0.3229987 -0.8701629 -0.3721403 192 192 192 255 0.037997 0.278109
-66.89074 41.8273 -40.30267 -0.1976088 -0.9143898 0.3533301 192 192 192 255 0.038690 0.279033
69.04928 37.8568 -51.67395 0.06981064 -0.1352198 0.9883532 192 192 192 255 0.038055 0.278086
-66.85955 45.50136 -41.09782 -0.6386155 0.7303081 0.2425293 192 192 192 255 0.038686 0.279040
69.15475 43.89809 -51.67422 0.6479983 0.666576 0.368476 192 192 192 255 0.038057 0.278100
-11.16264 44.2848 -64.95157 0.004917126 0.9999369 0.01010353 192 192 192 255 0.038358 0.278686
-17.50066 41.07764 -64.46317 -0.04159049 -0.9156477 -0.3998243 192 192 192 255 0.038396 0.278734
18.29206 39.05683 -48.5654 0.002992688 -0.9922652 0.1241005 192 192 192 255 0.038393 0.278588
41.73557 43.86723 -49.29767 -0.1581919 0.8759488 0.455729 192 192 192 255 0.038347 0.278534
-57.53026 39.34887 -41.83205 -0.02115501 -0.9996827 0.0136708 192 192 192 255 0.038647 0.278966
-67.36683 38.34241 -50.69668 -0.2079858 -0.9257066 0.3159262 192 192 192 255 0.038657 0.279053
-25.73437 39.5341 -63.82392 0.1321446 -0.8970907 -0.4216232 192 192 192 255 0.038426 0.278779
-16.59954 39.42643 -60.26312 -0.006840507 -0.9994127 -0.03357767 192 192 192 255 0.038401 0.278707
-12.47263 39.37778 -64.85509 -0.2981354 -0.8729751 -0.3860439 192 192 192 255 0.038366 0.278685
68.75697 44.5321 -61.90397 0.2201632 0.9425889 -0.2511063 192 192 192 255 0.038028 0.278112
58.52162 44.02341 -72.46362 0.02466368 0.9995991 -0.013905 192 192 192 255 0.038043 0.278192
31.99967 41.86933 -48.99313 0.0523194 0.3056776 0.9506965 192 192 192 255 0.038359 0.278549
21.15492 43.96561 -48.64995 0.1807297 0.8759427 0.447282 192 192 192 255 0.038385 0.278591
31.8973 43.91425 -53.17477 0.006183945 0.998928 0.04587676 192 192 192 255 0.038349 0.278568
-67.77945 21.22103 -17.47975 -0.3011603 -0.2874834 0.9092062 192 192 192 255 0.038613 0.279086
63.66696 23.58119 -12.40633 0.1035337 -0.9695426 0.2219639 192 192 192 255 0.037999 0.278122
-67.77945 27.26294 -17.48064 -0.4395973 0.8360505 0.3282892 192 192 192 255 0.038618 0.279078
63.68437 27.26292 -13.75994 0.3391672 0.8719645 0.3530492 192 192 192 255 0.037997 0.278109
-67.43932 24.89509 -42.5874 -0.2141039 0.9288637 -0.3022776 192 192 192 255 0.038690 0.279033
64.01184 27.26292 -37.93572 0.01475451 -0.0236391 -0.9996117 192 192 192 255 0.038055 0.278086
-67.45198 21.22104 -41.65553 -0.6534465 -0.7227984 -0.2248782 192 192 192 255 0.038686 0.279040
64.01184 21.22102 -37.93678 0.6377644 -0.6784416 -0.3646553 192 192 192 255 0.038057 0.278100
14.90495 21.78101 -17.27801 -0.01979197 -0.9997789 -0.007111483 192 192 192 255 0.038358 0.278686
-0.024849 25.06255 -17.45016 -0.004269084 0.9446528 0.3280442 192 192 192 255 0.038396 0.278734
7.278687 26.70295 -38.11597 0.008927647 0.9865963 -0.1629356 192 192 192 255 0.038393 0.278588
38.95269 21.78101 -37.86004 -0.1350159 -0.9090737 -0.3941519 192 192 192 255 0.038347 0.278534
-58.33303 27.26294 -41.39666 -0.01329872 0.9995782 -0.02581648 192 192 192 255 0.038647 0.278966
-67.60381 28.38524 -30.39396 -0.2213961 0.9375445 -0.2683174 192 192 192 255 0.038657 0.279053
-19.52702 26.70296 -17.67457 0.07398036 0.9327745 0.3527869 192 192 192 255 0.038426 0.278779
1.947685 26.70296 -22.42457 0.006957345 0.9989479 0.04533016 192 192 192 255 0.038401 0.278707
11.997 26.70296 -17.31129 -0.1304642 0.9439855 0.3031017 192 192 192 255 0.038366 0.278685
63.85017 20.59172 -25.93445 0.09724664 -0.9717155 0.2152029 192 192 192 255 0.038028 0.278112
40.60432 21.22104 -12.92116 0.02761308 -0.9960609 0.08426327 192 192 192 255 0.038043 0.278192
25.79797 23.82523 -37.96677 0.004214589 -0.5218992 -0.8529968 192 192 192 255 0.038359 0.278549
10.89188 21.78101 -38.0866 0.1263646 -0.9090248 -0.397122 192 192 192 255 0.038385 0.278591
25.86919 21.78101 -33.06707 -0.01403086 -0.9942325 -0.1063248 192 192 192 255 0.038349 0.278568
-67.3521 69.55568 -102.6349 -0.2374704 0.4120651 -0.8796648 192 192 192 255 0.038613 0.279086
64.10468 66.73159 -98.56863 0.2614885 0.9612762 -0.08701576 192 192 192 255 0.037999 0.278122
-67.35007 63.57028 -103.46 -0.4164975 -0.7865403 -0.4559433 192 192 192 255 0.038618 0.279078
64.07916 62.89942 -97.72863 0.371619 -0.8101839 -0.4533226 192 192 192 255 0.037997 0.278109
-67.87718 62.49101 -78.27141 -0.2340912 -0.9581297 0.16489 192 192 192 255 0.038690 0.279033
63.57018 59.60164 -73.78635 -0.04148536 0.0417146 0.9982679 192 192 192 255 0.038055 0.278086
-67.85912 66.25794 -78.69263 -0.6659009 0.6847244 0.29619 192 192 192 255 0.038686 0.279040
63.56816 65.58706 -72.96317 0.5766343 0.6537408 0.4900163 192 192 192 255 0.038057 0.278100
-12.80154 68.53922 -99.00321 -0.009172851 0.9894227 0.1447708 192 192 192 255 0.038358 0.278686
-18.8685 65.31937 -99.715 0.0165734 -0.8797307 -0.4751835 192 192 192 255 0.038396 0.278734
-4.189278 60.60177 -77.28646 0.000519612 -0.9970973 0.07613601 192 192 192 255 0.038393 0.278588
21.26377 65.43123 -76.21944 -0.179079 0.8471092 0.5003366 192 192 192 255 0.038347 0.278534
-58.7409 60.22599 -79.11967 -0.01452426 -0.9934612 -0.1132429 192 192 192 255 0.038647 0.278966
-67.61945 60.69687 -90.82297 -0.2391551 -0.9622787 0.12971 192 192 192 255 0.038657 0.279053
-26.79509 63.73475 -100.2847 0.2022414 -0.8533442 -0.4805227 192 192 192 255 0.038426 0.278779
-18.23916 63.00912 -94.95944 0.01208046 -0.9863731 -0.1640802 192 192 192 255 0.038401 0.278707
-13.98083 63.66933 -99.72512 -0.2583388 -0.8395903 -0.4778589 192 192 192 255 0.038366 0.278685
63.81954 67.8476 -84.76277 0.2441711 0.9671158 -0.07118721 192 192 192 255 0.038028 0.278112
54.65752 69.08402 -98.41325 0.01575466 0.9921253 0.124255 192 192 192 255 0.038043 0.278192
10.6919 63.42542 -76.66284 -0.03886911 0.3855042 0.9218871 192 192 192 255 0.038359 0.278549
-1.290825 65.47239 -76.57115 0.1426534 0.8356388 0.5304319 192 192 192 255 0.038385 0.278591
11.22009 66.1181 -81.22857 -0.009040844 0.9834455 0.1809786 192 192 192 255 0.038349 0.278568
3 0 8 9 
3 0 9 14 
3 0 14 2 
3 12 15 10 
3 4 12 10 
3 4 10 19 
3 4 19 20 
3 4 20 6 
3 6 20 21 
3 6 21 8 
3 6 8 0 
3 6 0 2 
3 6 2 13 
3 6 13 4 
3 16 9 8 
3 16 8 18 
3 16 18 1 
3 16 1 3 
3 10 15 16 
3 10 16 3 
3 10 3 5 
3 11 19 5 
3 11 5 7 
3 8 21 18 
3 13 12 4 
3 15 14 9 
3 16 15 9 
3 1 17 7 
3 1 7 5 
3 1 5 3 
3 18 17 1 
3 21 19 11 
3 21 20 19 
3 2 14 15 
3 2 15 12 
3 2 12 13 
3 5 19 10 
3 18 21 11 
3 18 11 7 
3 18 7 17 
3 22 30 31 
3 22 31 36 
3 22 36 24 
3 34 37 32 
3 26 34 32 
3 26 32 41 
3 26 41 42 
3 26 42 28 
3 28 42 43 
3 28 43 30 
3 28 30 22 
3 28 22 24 
3 28 24 35 
3 28 35 26 
3 38 31 30 
3 38 30 40 
3 38 40 23 
3 38 23 25 
3 32 37 38 
3 32 38 25 
3 32 25 27 
3 33 41 27 
3 33 27 29 
3 30 43 40 
3 35 34 26 
3 37 36 31 
3 38 37 31 
3 23 39 29 
3 23 29 27 
3 23 27 25 
3 40 39 23 
3 43 41 33 
3 43 42 41 
3 24 36 37 
3 24 37 34 
3 24 34 35 
3 27 41 32 
3 40 43 33 
3 40 33 29 
3 40 29 39 
3 44 52 53 
3 44 53 58 
3 44 58 46 
3 56 59 54 
3 48 56 54 
3 48 54 63 
3 48 63 64 
3 48 64 50 
3 50 64 65 
3 50 65 52 
3 50 52 44 
3 50 44 46 
3 50 46 57 
3 50 57 48 
3 60 53 52 
3 60 52 62 
3 60 62 45 
3 60 45 47 
3 54 59 60 
3 54 60 47 
3 54 47 49 
3 55 63 49 
3 55 49 51 
3 52 65 62 
3 57 56 48 
3 59 58 53 
3 60 59 53 
3 45 61 51 
3 45 51 49 
3 45 49 47 
3 62 61 45 
3 65 63 55 
3 65 64 63 
3 46 58 59 
3 46 59 56 
3 46 56 57 
3 49 63 54 
3 62 65 55 
3 62 55 51 
3 62 51 61 
3 66 74 75 
3 66 75 80 
3 66 80 68 
3 78 81 76 
3 70 78 76 
3 70 76 85 
3 70 85 86 
3 70 86 72 
3 72 86 87 
3 72 87 74 
3 72 74 66 
3 72 66 68 
3 72 68 79 
3 72 79 70 
3 82 75 74 
3 82 74 84 
3 82 84 67 
3 82 67 69 
3 76 81 82 
3 76 82 69 
3 76 69 71 
3 77 85 71 
3 77 71 73 
3 74 87 84 
3 79 78 70 
3 81 80 75 
3 82 81 75 
3 67 83 73 
3 67 73 71 
3 67 71 69 
3 84 83 67 
3 87 85 77 
3 87 86 85 
3 68 80 81 
3 68 81 78 
3 68 78 79 
3 71 85 76 
3 84 87 77 
3 84 77 73 
3 84 73 83 
3 88 96 97 
3 88 97 102 
3 88 102 90 
3 100 103 98 
3 92 100 98 
3 92 98 107 
3 92 107 108 
3 92 108 94 
3 94 108 109 
3 94 109 96 
3 94 96 88 
3 94 88 90 
3 94 90 101 
3 94 101 92 
3 104 97 96 
3 104 96 106 
3 104 106 89 
3 104 89 91 
3 98 103 104 
3 98 104 91 
3 98 91 93 
3 99 107 93 
3 99 93 95 
3 96 109 106 
3 101 100 92 
3 103 102 97 
3 104 103 97 
3 89 105 95 
3 89 95 93 
3 89 93 91 
3 106 105 89 
3 109 107 99 
3 109 108 107 
3 90 102 103 
3 90 103 100 
3 90 100 101 
3 93 107 98 
3 106 109 99 
3 106 99 95 
3 106 95 105 
3 110 118 119 
3 110 119 124 
3 110 124 112 
3 122 125 120 
3 114 122 120 
3 114 120 129 
3 114 129 130 
3 114 130 116 
3 116 130 131 
3 116 131 118 
3 116 118 110 
3 116 110 112 
3 116 112 123 
3 116 123 114 
3 126 119 118 
3 126 118 128 
3 126 128 111 
3 126 111 113 
3 120 125 126 
3 120 126 113 
3 120 113 115 
3 121 129 115 
3 121 115 117 
3 118 131 128 
3 123 122 114 
3 125 124 119 
3 126 125 119 
3 111 127 117 
3 111 117 115 
3 111 115 113 
3 128 127 111 
3 131 129 121 
3 131 130 129 
3 112 124 125 
3 112 125 122 
3 112 122 123 
3 115 129 120 
3 128 131 121 
3 128 121 117 
3 128 117 127 
