ply
format ascii 1.0
comment VCGLIB generated
comment TextureFile Dungeons_2_Texture_01_A.png
element vertex 114
property float x
property float y
property float z
property float nx
property float ny
property float nz
property uchar red
property uchar green
property uchar blue
property uchar alpha
property float texture_u
property float texture_v
element face 164
property list uchar int vertex_indices
end_header
124.653 20.11401 -5.378052 0 0.8891132 0.4576873 192 192 192 255 0.865875 0.353741
124.653 13.15045 -3.029663 0 -0.1878091 0.9822056 192 192 192 255 0.865875 0.353741
212.8351 20.11401 -5.378052 0.3713764 0.6087185 0.7011001 192 192 192 255 0.865875 0.396373
212.8351 13.15045 -3.029663 0.7211372 -0.6058922 0.3359401 192 192 192 255 0.865875 0.396373
124.653 60.36166 -96.32104 0 -0.7490059 -0.6625633 192 192 192 255 0.991396 0.487823
212.8351 60.36166 -96.32104 0.7795324 -0.561473 -0.2776285 192 192 192 255 0.991149 0.487803
212.8351 66.92404 -93.01324 0.6952097 0.5383916 0.4762542 192 192 192 255 0.820541 0.396373
124.653 66.92404 -93.01324 0 0.7490072 0.662562 192 192 192 255 0.820541 0.353741
124.653 115.5076 -215.1639 0 0.9277997 -0.3730788 192 192 192 255 0.865875 0.353741
124.653 108.9452 -218.4717 0 -0.05212663 -0.9986405 192 192 192 255 0.865875 0.353741
212.8351 115.5076 -215.1639 0.2878954 0.833397 -0.4717687 192 192 192 255 0.865875 0.396373
212.8351 108.9452 -218.4717 0.7318862 -0.5651848 -0.380669 192 192 192 255 0.865875 0.396373
36.47083 20.11401 -5.378052 -0.2948696 0.7781789 0.5545174 192 192 192 255 0.865875 0.396373
36.47083 13.15045 -3.029663 -0.7211372 -0.6058922 0.3359401 192 192 192 255 0.865875 0.396373
36.47083 60.36166 -96.32104 -0.7795324 -0.3440647 -0.5234013 192 192 192 255 0.820541 0.396373
36.47083 66.92404 -93.01324 -0.6952097 0.5383916 0.4762542 192 192 192 255 0.820541 0.396373
36.47083 115.5076 -215.1639 -0.3643588 0.6913726 -0.6238964 192 192 192 255 0.865875 0.396373
36.47083 108.9452 -218.4717 -0.7318862 -0.5651848 -0.380669 192 192 192 255 0.865875 0.396373
124.653 106.7163 -188.2836 0 -0.7799041 -0.6258991 192 192 192 255 0.991546 0.487741
212.8351 106.7163 -188.2836 0.8955212 -0.3089761 -0.3202741 192 192 192 255 0.991324 0.487725
212.8351 113.2787 -184.9758 0.7893351 0.2822836 0.5452211 192 192 192 255 0.854814 0.396373
124.653 113.2787 -184.9758 0 0.6943009 0.7196849 192 192 192 255 0.854814 0.353741
36.47083 113.2787 -184.9758 -0.8637663 0.4388712 0.2475881 192 192 192 255 0.854814 0.396373
36.47083 106.7163 -188.2836 -0.6507702 -0.3490918 -0.6742648 192 192 192 255 0.854814 0.396373
212.8351 97.86783 -154.4023 0.7826504 0.3197105 0.5340821 192 192 192 255 0.843419 0.396373
212.8351 91.30545 -157.7101 0.7826503 -0.5504715 -0.2905851 192 192 192 255 0.991266 0.487751
124.653 91.30545 -157.7101 0 -0.7258343 -0.6878697 192 192 192 255 0.991496 0.487768
36.47083 91.30545 -157.7101 -0.7826503 -0.3197105 -0.5340822 192 192 192 255 0.991739 0.487786
36.47083 97.86783 -154.4023 -0.7826504 0.5504716 0.2905847 192 192 192 255 0.843419 0.396373
124.653 97.86783 -154.4023 0 0.7258345 0.6878694 192 192 192 255 0.843419 0.353741
212.8351 82.01074 -122.9435 0.7846123 0.3036495 0.5405373 192 192 192 255 0.831695 0.396373
212.8351 75.44836 -126.2513 0.7846122 -0.5430703 -0.299096 192 192 192 255 0.831695 0.396373
124.653 75.44836 -126.2513 0 -0.7100719 -0.7041292 192 192 192 255 0.991445 0.487796
36.47083 75.44836 -126.2513 -0.7846122 -0.3036495 -0.5405375 192 192 192 255 0.991697 0.487816
36.47083 82.01074 -122.9435 -0.7846123 0.5430704 0.2990955 192 192 192 255 0.831695 0.396373
124.653 82.01074 -122.9435 0 0.7100723 0.7041289 192 192 192 255 0.831695 0.353741
124.653 44.177 -64.2124 0 -0.722185 -0.6917 192 192 192 255 0.991298 0.487876
36.47083 44.177 -64.2124 -0.7855767 -0.311069 -0.5348883 192 192 192 255 0.991577 0.487901
36.47083 50.73938 -60.9046 -0.7855768 0.547799 0.2877246 192 192 192 255 0.835948 0.396373
124.653 50.73938 -60.9046 0 0.7221853 0.6916997 192 192 192 255 0.835948 0.353741
212.8351 50.73938 -60.9046 0.7855768 0.3110689 0.5348881 192 192 192 255 0.835948 0.396373
212.8351 44.177 -64.2124 0.7855766 -0.5477989 -0.287725 192 192 192 255 0.991037 0.487853
124.653 28.18533 -32.48669 0 -0.6941974 -0.7197847 192 192 192 255 0.991202 0.487929
36.47083 28.18533 -32.48669 -0.791644 -0.2776457 -0.5442543 192 192 192 255 0.991497 0.487958
36.47083 34.74771 -29.17889 -0.7916441 0.5338528 0.2971545 192 192 192 255 0.851171 0.396373
124.653 34.74771 -29.17889 0 0.6941978 0.7197844 192 192 192 255 0.851171 0.353741
212.8351 34.74771 -29.17889 0.7916441 0.2776456 0.5442542 192 192 192 255 0.851171 0.396373
212.8351 28.18533 -32.48669 0.791644 -0.5338528 -0.297155 192 192 192 255 0.851171 0.396373
124.653 13.38104 -32.08563 0 -0.8028421 -0.5961916 192 192 192 255 0.991160 0.487952
36.47083 13.38104 -32.08563 -0.9016686 -0.3086861 -0.3028311 192 192 192 255 0.991462 0.487982
36.47083 19.94339 -28.77783 -0.7995264 0.2809363 0.530879 192 192 192 255 0.857857 0.396373
124.653 19.94339 -28.77783 0 0.7191554 0.6948493 192 192 192 255 0.857857 0.353741
212.8351 19.94339 -28.77783 0.871231 0.4415023 0.2145516 192 192 192 255 0.857857 0.396373
212.8351 13.38104 -32.08563 0.6615394 -0.3486744 -0.6639216 192 192 192 255 0.857857 0.396373
36.47083 36.673 -59.5675 -0.7843428 0.3104058 0.5370798 192 192 192 255 0.842771 0.396373
36.47083 30.11066 -62.87531 -0.7843426 -0.5465895 -0.2933369 192 192 192 255 0.991541 0.487927
124.653 30.11066 -62.87531 0 -0.7181554 -0.6958827 192 192 192 255 0.991255 0.487900
212.8351 30.11066 -62.87531 0.7843426 -0.3104059 -0.5370799 192 192 192 255 0.842771 0.396373
212.8351 36.673 -59.5675 0.7843428 0.5465896 0.2933365 192 192 192 255 0.842771 0.396373
124.653 36.673 -59.5675 0 0.7181557 0.6958824 192 192 192 255 0.842771 0.353741
212.8351 52.27472 -90.60095 0.7784244 0.5604172 0.2828214 192 192 192 255 0.828094 0.396373
124.653 52.27472 -90.60095 0 0.6643566 0.7474158 192 192 192 255 0.828094 0.353741
36.47083 52.27472 -90.60095 -0.8874955 0.3435043 0.3071752 192 192 192 255 0.828094 0.396373
36.47083 45.71237 -93.90881 -0.7784248 -0.5604164 -0.2828221 192 192 192 255 0.991618 0.487872
124.653 45.71237 -93.90881 0 -0.7454239 -0.6665908 192 192 192 255 0.991348 0.487849
212.8351 45.71237 -93.90881 0.7784247 -0.3434464 -0.5254518 192 192 192 255 0.991094 0.487827
212.8351 68.10144 -121.8011 0.8946245 0.3223705 0.3093936 192 192 192 255 0.827419 0.396373
212.8351 61.53906 -125.1089 0.7881082 -0.3054933 -0.5343775 192 192 192 255 0.827419 0.396373
124.6531 61.53906 -125.1089 0 -0.7214791 -0.6924362 192 192 192 255 0.991426 0.487806
36.47083 61.53906 -125.1089 -0.7881083 -0.5464716 -0.2832918 192 192 192 255 0.991682 0.487827
36.47083 68.10144 -121.8011 -0.7881082 0.3054933 0.5343775 192 192 192 255 0.827419 0.396373
124.653 68.10144 -121.8011 0 0.8025615 0.5965694 192 192 192 255 0.827419 0.353741
212.8351 77.65118 -156.1481 0.7812553 -0.3189084 -0.5365982 192 192 192 255 0.839495 0.396373
212.8351 84.21353 -152.8403 0.7812554 0.549026 0.2970026 192 192 192 255 0.839495 0.396373
124.6531 84.21353 -152.8403 0 0.7212281 0.6926978 192 192 192 255 0.839495 0.353741
36.47083 84.21353 -152.8403 -0.7812554 0.3189083 0.536598 192 192 192 255 0.839495 0.396373
36.47083 77.65118 -156.1481 -0.7812553 -0.5490258 -0.2970031 192 192 192 255 0.991725 0.487796
124.6531 77.65118 -156.1481 0 -0.7212278 -0.6926981 192 192 192 255 0.991479 0.487777
124.653 93.11725 -187.7694 0 -0.6991407 -0.7149841 192 192 192 255 0.991522 0.487754
212.8351 93.11725 -187.7694 0.7908068 -0.2830456 -0.5426877 192 192 192 255 0.991296 0.487737
212.8351 99.6796 -184.4615 0.7908064 0.5362109 0.2951325 192 192 192 255 0.849398 0.396373
124.653 99.6796 -184.4615 0 0.6991426 0.7149822 192 192 192 255 0.849398 0.353741
36.47083 99.6796 -184.4615 -0.7908064 0.2830479 0.5426871 192 192 192 255 0.849398 0.396373
36.47083 93.11725 -187.7694 -0.7908068 -0.5362099 -0.2951332 192 192 192 255 0.991761 0.487771
212.8351 44.177 -64.2124 0.7855766 -0.5477989 -0.287725 192 192 192 255 0.835948 0.396373
212.8351 45.71237 -93.90881 0.7784247 -0.3434464 -0.5254518 192 192 192 255 0.828094 0.396373
212.8351 93.11725 -187.7694 0.7908068 -0.2830456 -0.5426877 192 192 192 255 0.849398 0.396373
212.8351 91.30545 -157.7101 0.7826503 -0.5504715 -0.2905851 192 192 192 255 0.843419 0.396373
36.47083 44.177 -64.2124 -0.7855767 -0.311069 -0.5348883 192 192 192 255 0.835948 0.396373
36.47083 45.71237 -93.90881 -0.7784248 -0.5604164 -0.2828221 192 192 192 255 0.828094 0.396373
36.47083 93.11725 -187.7694 -0.7908068 -0.5362099 -0.2951332 192 192 192 255 0.849398 0.396373
36.47083 91.30545 -157.7101 -0.7826503 -0.3197105 -0.5340822 192 192 192 255 0.843419 0.396373
212.8351 108.9452 -218.4717 0.7318862 -0.5651848 -0.380669 192 192 192 255 0.991380 0.487700
124.653 108.9452 -218.4717 0 -0.05212663 -0.9986405 192 192 192 255 0.991594 0.487714
212.8351 106.7163 -188.2836 0.8955212 -0.3089761 -0.3202741 192 192 192 255 0.854814 0.396373
36.47083 108.9452 -218.4717 -0.7318862 -0.5651848 -0.380669 192 192 192 255 0.991820 0.487729
36.47083 106.7163 -188.2836 -0.6507702 -0.3490918 -0.6742648 192 192 192 255 0.991780 0.487757
212.8351 77.65118 -156.1481 0.7812553 -0.3189084 -0.5365982 192 192 192 255 0.991246 0.487760
212.8351 75.44836 -126.2513 0.7846122 -0.5430703 -0.299096 192 192 192 255 0.991206 0.487777
36.47083 77.65118 -156.1481 -0.7812553 -0.5490258 -0.2970031 192 192 192 255 0.839495 0.396373
36.47083 75.44836 -126.2513 -0.7846122 -0.3036495 -0.5405375 192 192 192 255 0.831695 0.396373
212.8351 61.53906 -125.1089 0.7881082 -0.3054933 -0.5343775 192 192 192 255 0.991184 0.487787
36.47083 61.53906 -125.1089 -0.7881083 -0.5464716 -0.2832918 192 192 192 255 0.827419 0.396373
36.47083 28.18533 -32.48669 -0.791644 -0.2776457 -0.5442543 192 192 192 255 0.851171 0.396373
36.47083 30.11066 -62.87531 -0.7843426 -0.5465895 -0.2933369 192 192 192 255 0.842771 0.396373
212.8351 28.18533 -32.48669 0.791644 -0.5338528 -0.297155 192 192 192 255 0.990927 0.487902
212.8351 30.11066 -62.87531 0.7843426 -0.3104059 -0.5370799 192 192 192 255 0.990988 0.487875
36.47083 13.38104 -32.08563 -0.9016686 -0.3086861 -0.3028311 192 192 192 255 0.857857 0.396373
212.8351 13.38104 -32.08563 0.6615394 -0.3486744 -0.6639216 192 192 192 255 0.990878 0.487924
36.47083 13.15045 -3.029663 -0.7211372 -0.6058922 0.3359401 192 192 192 255 0.991421 0.488012
124.653 13.15045 -3.029663 0 -0.1878091 0.9822056 192 192 192 255 0.991109 0.487980
212.8351 13.15045 -3.029663 0.7211372 -0.6058922 0.3359401 192 192 192 255 0.990820 0.487950
36.47083 60.36166 -96.32104 -0.7795324 -0.3440647 -0.5234013 192 192 192 255 0.991657 0.487844
212.8351 60.36166 -96.32104 0.7795324 -0.561473 -0.2776285 192 192 192 255 0.820541 0.396373
3 60 61 39 
3 60 39 40 
3 2 0 1 
3 2 1 3 
3 41 36 64 
3 41 64 65 
3 40 84 85 
3 40 85 60 
3 29 24 80 
3 29 80 81 
3 10 11 9 
3 10 9 8 
3 78 79 25 
3 78 25 26 
3 86 80 24 
3 86 24 87 
3 61 62 38 
3 61 38 39 
3 12 13 1 
3 12 1 0 
3 36 37 63 
3 36 63 64 
3 88 38 62 
3 88 62 89 
3 28 29 81 
3 28 81 82 
3 16 8 9 
3 16 9 17 
3 83 78 26 
3 83 26 27 
3 82 90 91 
3 82 91 28 
3 92 19 18 
3 92 18 93 
3 11 10 20 
3 11 20 94 
3 21 20 10 
3 21 10 8 
3 22 21 8 
3 22 8 16 
3 17 23 22 
3 17 22 16 
3 95 93 18 
3 95 18 96 
3 72 73 30 
3 72 30 31 
3 77 97 98 
3 77 98 32 
3 76 77 32 
3 76 32 33 
3 75 99 100 
3 75 100 34 
3 34 35 74 
3 34 74 75 
3 35 30 73 
3 35 73 74 
3 31 30 66 
3 31 66 67 
3 32 98 101 
3 32 101 68 
3 33 32 68 
3 33 68 69 
3 34 100 102 
3 34 102 70 
3 70 71 35 
3 70 35 34 
3 71 66 30 
3 71 30 35 
3 42 43 55 
3 42 55 56 
3 103 44 54 
3 103 54 104 
3 59 54 44 
3 59 44 45 
3 58 59 45 
3 58 45 46 
3 46 47 57 
3 46 57 58 
3 105 42 56 
3 105 56 106 
3 48 49 43 
3 48 43 42 
3 107 50 44 
3 107 44 103 
3 45 44 50 
3 45 50 51 
3 46 45 51 
3 46 51 52 
3 52 53 47 
3 52 47 46 
3 108 48 42 
3 108 42 105 
3 109 49 48 
3 109 48 110 
3 13 12 50 
3 13 50 107 
3 51 50 12 
3 51 12 0 
3 52 51 0 
3 52 0 2 
3 3 53 52 
3 3 52 2 
3 111 110 48 
3 111 48 108 
3 104 54 38 
3 104 38 88 
3 56 55 37 
3 56 37 36 
3 106 56 36 
3 106 36 41 
3 58 57 84 
3 58 84 40 
3 40 39 59 
3 40 59 58 
3 39 38 54 
3 39 54 59 
3 6 7 61 
3 6 61 60 
3 15 62 61 
3 15 61 7 
3 89 62 15 
3 89 15 14 
3 64 63 112 
3 64 112 4 
3 65 64 4 
3 65 4 5 
3 60 85 113 
3 60 113 6 
3 67 66 6 
3 67 6 113 
3 68 101 5 
3 68 5 4 
3 69 68 4 
3 69 4 112 
3 70 102 14 
3 70 14 15 
3 15 7 71 
3 15 71 70 
3 6 66 71 
3 6 71 7 
3 87 24 73 
3 87 73 72 
3 74 73 24 
3 74 24 29 
3 75 74 29 
3 75 29 28 
3 28 91 99 
3 28 99 75 
3 27 26 77 
3 27 77 76 
3 26 25 97 
3 26 97 77 
3 18 19 79 
3 18 79 78 
3 94 20 80 
3 94 80 86 
3 81 80 20 
3 81 20 21 
3 82 81 21 
3 82 21 22 
3 22 23 90 
3 22 90 82 
3 96 18 78 
3 96 78 83 
