ply
format ascii 1.0
comment VCGLIB generated
comment TextureFile Dungeons_2_Texture_01_A.png
element vertex 220
property float x
property float y
property float z
property float nx
property float ny
property float nz
property uchar red
property uchar green
property uchar blue
property uchar alpha
property float texture_u
property float texture_v
element face 400
property list uchar int vertex_indices
end_header
50.36383 149.2249 -217.1144 0.2741737 -0.2748624 -0.9215636 192 192 192 255 0.038613 0.279086
-46.63824 151.5851 -218.47 -0.3339286 -0.9160277 -0.2222276 192 192 192 255 0.037999 0.278122
50.36383 155.2668 -217.1144 0.3978792 0.8506859 -0.3435487 192 192 192 255 0.038618 0.279078
-46.63823 155.2668 -217.1144 -0.3469043 0.8706921 -0.3486441 192 192 192 255 0.037997 0.278109
50.36383 152.899 -192.0019 0.2940539 0.906137 0.3040527 192 192 192 255 0.038690 0.279033
-46.63823 155.2668 -192.9346 0.01592685 -0.03585296 0.9992301 192 192 192 255 0.038055 0.278086
50.36383 149.2249 -192.9346 0.6566306 -0.7226373 0.2159438 192 192 192 255 0.038686 0.279040
-46.63823 149.2249 -192.9346 -0.5755387 -0.7143877 0.398002 192 192 192 255 0.038057 0.278100
-9.925079 149.7849 -215.7717 0.01873952 -0.9998175 -0.003709608 192 192 192 255 0.038358 0.278686
1.941742 153.0664 -215.7717 1.226482e-05 0.9432663 -0.3320374 192 192 192 255 0.038396 0.278734
-7.941772 154.7068 -194.2379 -0.006371363 0.9918172 0.1275074 192 192 192 255 0.038393 0.278588
-14.66028 149.7849 -194.2379 0.508409 -0.7743499 0.3766995 192 192 192 255 0.038347 0.278534
43.6347 155.2668 -192.9346 0.01659743 0.9996492 0.0206421 192 192 192 255 0.038647 0.278966
50.36383 156.3891 -204.198 0.3020347 0.9175364 0.2586543 192 192 192 255 0.038657 0.279053
17.44489 154.7068 -215.7717 -0.0982988 0.9303375 -0.353284 192 192 192 255 0.038426 0.278779
0.507416 154.7068 -210.7755 -0.009620489 0.9988839 -0.04624319 192 192 192 255 0.038401 0.278707
-7.613281 154.7068 -215.7717 0.1559898 0.9350197 -0.3184422 192 192 192 255 0.038366 0.278685
-46.63824 148.5956 -204.9385 -0.3119101 -0.9282869 -0.2024736 192 192 192 255 0.038028 0.278112
-39.67053 149.2249 -218.2217 -0.03581155 -0.9987085 -0.0360418 192 192 192 255 0.038043 0.278192
-11.87 151.8291 -194.2379 0.02798323 -0.2593924 0.9653665 192 192 192 255 0.038359 0.278549
-8.709167 149.7849 -194.2379 -0.4683243 -0.7893825 0.3969229 192 192 192 255 0.038385 0.278591
-11.93532 149.7849 -199.1359 0.01750294 -0.9995345 0.02498703 192 192 192 255 0.038349 0.278568
50.40198 117.7798 -148.2214 0.3563484 0.2880936 0.8888295 192 192 192 255 0.038613 0.279086
-49.87492 113.8172 -136.4894 -0.3135914 0.9107603 0.2686564 192 192 192 255 0.037999 0.278122
50.47803 111.7386 -148.2214 0.4453261 -0.8313901 0.332378 192 192 192 255 0.038618 0.279078
-49.86079 110.1353 -137.6446 -0.3133846 -0.8746231 0.3698982 192 192 192 255 0.037997 0.278109
49.81778 114.0961 -169.6213 0.2612778 -0.8965755 -0.3576119 192 192 192 255 0.038690 0.279033
-50.46753 110.1256 -158.2496 -0.06706302 -0.1913007 -0.9792378 192 192 192 255 0.038055 0.278086
49.7933 117.7701 -168.8264 0.6299975 0.7384923 -0.2402756 192 192 192 255 0.038686 0.279040
-50.54553 116.1669 -158.2496 -0.6375262 0.6684922 -0.3829865 192 192 192 255 0.038057 0.278100
8.705109 116.5536 -144.9733 -0.006988886 0.9999036 -0.01200446 192 192 192 255 0.038358 0.278686
13.38101 113.3464 -145.4617 0.05757968 -0.908607 0.4136641 192 192 192 255 0.038396 0.278734
0.722977 111.3256 -161.3584 -0.005596904 -0.9693643 -0.2455638 192 192 192 255 0.038393 0.278588
-28.56522 116.136 -160.6259 0.1291026 0.8812814 -0.4546159 192 192 192 255 0.038347 0.278534
42.91238 111.6176 -168.0928 0.03955181 -0.9990005 -0.02082712 192 192 192 255 0.038647 0.278966
50.16904 110.6112 -159.2282 0.2755401 -0.9101678 -0.3093095 192 192 192 255 0.038657 0.279053
19.4559 111.8029 -146.0997 -0.1740408 -0.8860069 0.4297693 192 192 192 255 0.038426 0.278779
12.71602 111.6952 -149.6602 0.01296093 -0.9988755 0.04560554 192 192 192 255 0.038401 0.278707
9.670776 111.6466 -145.0684 0.3785375 -0.8340411 0.4013539 192 192 192 255 0.038366 0.278685
-50.25316 116.8009 -148.0204 -0.2913511 0.9246188 0.245346 192 192 192 255 0.038028 0.278112
-42.70212 116.2922 -137.4609 -0.03516511 0.9992942 0.01321227 192 192 192 255 0.038043 0.278192
-16.40186 114.1381 -160.9301 -0.04858588 0.3299317 -0.9427537 192 192 192 255 0.038359 0.278549
-2.85202 116.2344 -161.2748 -0.1485696 0.8825517 -0.4461275 192 192 192 255 0.038385 0.278591
-16.27397 116.183 -156.7493 -0.008448382 0.9973795 -0.07185248 192 192 192 255 0.038349 0.278568
50.36353 136.8123 -196.2155 0.344803 -0.2546753 -0.9034663 192 192 192 255 0.038613 0.279086
-45.98497 121.7679 -201.2905 0.03453387 -0.9739687 -0.2240367 192 192 192 255 0.037999 0.278122
49.77539 142.8011 -196.2155 0.2707795 0.8962454 -0.3513158 192 192 192 255 0.038618 0.279078
-46.35727 125.4149 -199.9352 -0.4783659 0.8079711 -0.3440186 192 192 192 255 0.037997 0.278109
49.7572 140.4091 -171.1077 0.1200947 0.9424393 0.3120667 192 192 192 255 0.038690 0.279033
-46.59601 125.3716 -175.7601 -0.01585114 -0.02377961 0.9995916 192 192 192 255 0.038055 0.278086
50.12479 136.769 -172.0403 0.7482664 -0.6277995 0.214395 192 192 192 255 0.038686 0.279040
-46.00789 119.3827 -175.7601 -0.5261968 -0.7587333 0.3839802 192 192 192 255 0.038057 0.278100
0.847504 128.4216 -196.4177 0.1935111 -0.9810006 0.01383199 192 192 192 255 0.038358 0.278686
13.22844 133.9715 -196.246 -0.16334 0.9302221 -0.3286442 192 192 192 255 0.038396 0.278734
-5.055695 132.3197 -175.5792 -0.1872405 0.971455 0.1456578 192 192 192 255 0.038393 0.278588
-27.7377 123.2518 -175.8368 0.3334247 -0.8588043 0.3889513 192 192 192 255 0.038347 0.278534
42.86789 141.5519 -172.2983 -0.1613848 0.9867479 0.01684466 192 192 192 255 0.038647 0.278966
49.53754 143.8904 -183.3015 0.1276421 0.9553278 0.2665638 192 192 192 255 0.038657 0.279053
29.66031 138.5983 -196.0216 -0.2490713 0.9029356 -0.3502441 192 192 192 255 0.038426 0.278779
11.39114 135.2941 -191.2715 -0.1863047 0.9808983 -0.05593852 192 192 192 255 0.038401 0.278707
2.841766 133.7479 -196.3843 -0.01929198 0.9502409 -0.310918 192 192 192 255 0.038366 0.278685
-45.82599 118.7805 -187.7616 0.04371919 -0.9756719 -0.2148327 192 192 192 255 0.038028 0.278112
-28.89047 122.4783 -200.775 0.1516053 -0.9870195 -0.05299319 192 192 192 255 0.038043 0.278192
-18.31738 127.018 -175.7298 0.08739786 -0.5159926 0.8521228 192 192 192 255 0.038359 0.278549
-7.216797 126.9631 -175.6086 -0.006227531 -0.9157152 0.4017798 192 192 192 255 0.038385 0.278591
-18.17026 124.9823 -180.6293 0.18961 -0.9786593 0.07920921 192 192 192 255 0.038349 0.278568
50.15762 99.88727 -115.6189 0.2145691 0.4152608 0.8840354 192 192 192 255 0.038613 0.279086
-46.82112 97.06317 -119.6856 -0.3450466 0.9342909 0.08968516 192 192 192 255 0.037999 0.278122
50.15506 93.90186 -114.7946 0.3774664 -0.8012924 0.4641656 192 192 192 255 0.038618 0.279078
-46.80199 93.23099 -120.5256 -0.3719408 -0.809142 0.4549169 192 192 192 255 0.037997 0.278109
50.54498 92.82259 -139.9838 0.3097814 -0.935074 -0.1722562 192 192 192 255 0.038690 0.279033
-46.42683 89.93324 -144.4681 0.05759496 0.1265468 -0.9902872 192 192 192 255 0.038055 0.278086
50.53281 96.58952 -139.5615 0.6655619 0.6836513 -0.2994132 192 192 192 255 0.038686 0.279040
-46.42426 95.91865 -145.2924 -0.5398937 0.6807264 -0.4951024 192 192 192 255 0.038057 0.278100
9.913086 98.8708 -119.252 0.01242613 0.9889073 -0.1480135 192 192 192 255 0.038358 0.278686
14.3909 95.65094 -118.5396 -0.02336479 -0.8727256 0.4876517 192 192 192 255 0.038396 0.278734
1.066772 90.93335 -140.9678 -0.0006500958 -0.9982625 -0.05892 192 192 192 255 0.038393 0.278588
-23.31702 95.76281 -142.0363 0.1884516 0.8456989 -0.4992789 192 192 192 255 0.038347 0.278534
43.8053 90.55757 -139.1346 0.01854839 -0.9930879 0.1158985 192 192 192 255 0.038647 0.278966
50.35562 91.02845 -127.4312 0.3152227 -0.9406295 -0.1259001 192 192 192 255 0.038657 0.279053
20.23804 94.06633 -117.9701 -0.2678277 -0.8338073 0.4827355 192 192 192 255 0.038426 0.278779
13.92508 93.34071 -123.295 -0.01562158 -0.9862492 0.1645253 192 192 192 255 0.038401 0.278707
10.78471 94.00092 -118.5289 0.3260969 -0.8072284 0.4919787 192 192 192 255 0.038366 0.278685
-46.61172 98.17919 -133.4922 -0.3218605 0.944277 0.06889676 192 192 192 255 0.038028 0.278112
-39.85156 99.41561 -119.8417 -0.02131459 0.9916177 -0.127436 192 192 192 255 0.038043 0.278192
-13.18925 93.757 -141.5925 0.04741118 0.4933248 -0.8685521 192 192 192 255 0.038359 0.278549
-1.710419 95.80397 -141.6846 -0.1483703 0.8346146 -0.5304761 192 192 192 255 0.038385 0.278591
-13.69521 96.44968 -137.0253 0.01197606 0.9809951 -0.193663 192 192 192 255 0.038349 0.278568
41.66568 -6.684631 16.15472 0.9001905 -0.4279979 0.08046685 192 192 192 255 0.038613 0.279086
43.96075 165.1044 -229.3624 0.1743779 -0.8539973 -0.4901848 192 192 192 255 0.037999 0.278122
41.66568 -3.168835 18.6051 0.3683375 0.3417563 0.8645983 192 192 192 255 0.038618 0.279078
43.57825 168.3661 -227.1312 0.6545348 0.7424729 0.1425417 192 192 192 255 0.037997 0.278109
34.59656 -4.179783 17.11835 -0.6088634 0.6082155 0.5092734 192 192 192 255 0.038690 0.279033
36.7713 168.7195 -227.6382 -0.9999138 0.009201036 -0.009377903 192 192 192 255 0.038055 0.278086
34.86069 -6.331444 15.64795 -0.2821677 -0.9475867 0.1498698 192 192 192 255 0.038686 0.279040
36.7713 165.5181 -229.8693 -0.4490079 -0.2536271 -0.8567761 192 192 192 255 0.038057 0.278100
42.08334 65.92204 -87.98761 0.2625183 -0.784997 -0.5611273 192 192 192 255 0.038358 0.278686
41.9949 56.96284 -70.66077 0.6926728 0.5898929 0.415007 192 192 192 255 0.038396 0.278734
36.37708 113.8699 -150.0776 -0.1133373 0.8193325 0.5620045 192 192 192 255 0.038393 0.278588
36.50781 127.3077 -176.0662 -0.7455384 -0.5900241 -0.3099101 192 192 192 255 0.038347 0.278534
34.99167 14.52622 -5.218384 0.05421729 0.8178986 0.5728022 192 192 192 255 0.038647 0.278966
38.02982 -2.326996 18.78946 -0.5829093 0.618313 0.5271678 192 192 192 255 0.038657 0.279053
41.87955 43.56802 -49.20587 0.7167468 0.5893715 0.3727133 192 192 192 255 0.038426 0.278779
40.59894 59.42198 -71.95374 0.1879164 0.8090128 0.5569432 192 192 192 255 0.038401 0.278707
42.06589 66.91434 -82.70404 0.631017 0.5995542 0.4922929 192 192 192 255 0.038366 0.278685
40.15073 164.7887 -230.004 0.1425671 -0.879182 -0.4546578 192 192 192 255 0.038028 0.278112
43.754 159.5368 -218.1638 0.2563709 -0.7914518 -0.5548676 192 192 192 255 0.038043 0.278192
36.45276 121.7267 -165.2726 -0.9910421 -0.1071053 -0.07977523 192 192 192 255 0.038359 0.278549
36.39172 112.6154 -154.985 -0.7651786 -0.4825365 -0.4262163 192 192 192 255 0.038385 0.278591
37.83328 120.5064 -166.3073 0.2065255 -0.7961327 -0.5687882 192 192 192 255 0.038349 0.278568
-42.45746 1.876419 11.73273 -0.9461988 -0.004996778 0.3235473 192 192 192 255 0.038613 0.279086
-39.22882 171.9908 -234.7271 -0.3498308 0.8954972 0.2751423 192 192 192 255 0.037999 0.278122
-42.10495 -0.644676 10.00458 -0.540785 -0.8384316 -0.06770647 192 192 192 255 0.038618 0.279078
-38.64981 169.546 -236.2623 -0.2004758 -0.5108523 -0.8359662 192 192 192 255 0.037997 0.278109
-35.5027 -1.732216 12.02991 0.4138776 -0.7735019 -0.4800001 192 192 192 255 0.038690 0.279033
-32.39392 168.7283 -234.1672 0.9933314 0.0905242 0.07140177 192 192 192 255 0.038055 0.278086
-35.96831 -0.12196 13.03064 0.08254744 0.2211595 0.9717379 192 192 192 255 0.038686 0.279040
-32.51317 170.9676 -232.6099 0.6503667 0.7559509 -0.07457538 192 192 192 255 0.038057 0.278100
-40.47452 74.03252 -92.34418 0.1871189 0.8017911 0.567554 192 192 192 255 0.038358 0.278686
-40.56924 61.29079 -77.67029 -0.6611715 -0.6123242 -0.4334874 192 192 192 255 0.038396 0.278734
-34.07416 114.4933 -156.5201 0.1337297 -0.8144203 -0.5646557 192 192 192 255 0.038393 0.278588
-33.93597 133.6046 -178.5295 0.7061446 0.5353473 0.4634254 192 192 192 255 0.038347 0.278534
-35.37689 13.94199 -12.51321 -0.03645647 -0.8215095 -0.5690283 192 192 192 255 0.038647 0.278966
-38.57358 -2.180519 10.37692 0.3688558 -0.7940526 -0.4831417 192 192 192 255 0.038657 0.279053
-40.74283 46.01308 -57.55103 -0.6748672 -0.5853083 -0.449409 192 192 192 255 0.038426 0.278779
-39.20163 61.44482 -79.85797 -0.1365416 -0.8116445 -0.5679697 192 192 192 255 0.038401 0.278707
-40.40872 69.33846 -91.02466 -0.6366363 -0.6544164 -0.4079625 192 192 192 255 0.038366 0.278685
-35.77127 172.5404 -232.8528 -0.3046858 0.8902444 0.3385728 192 192 192 255 0.038028 0.278112
-39.54626 168.293 -225.8041 0.1669662 0.8102677 0.5617728 192 192 192 255 0.038043 0.278192
-33.99298 125.6672 -169.3884 0.9662029 0.202189 0.1599117 192 192 192 255 0.038359 0.278549
-34.147 118.9255 -157.4637 0.7398803 0.5791685 0.3422589 192 192 192 255 0.038385 0.278591
-35.32111 127.2093 -169.1937 0.2246229 0.795306 0.5630568 192 192 192 255 0.038349 0.278568
50.36383 77.14941 -118.3169 0.2741736 -0.2748624 -0.9215636 192 192 192 255 0.038613 0.279086
-46.63824 79.50959 -119.6725 -0.3339294 -0.9160275 -0.2222271 192 192 192 255 0.037999 0.278122
50.36383 83.19132 -118.3169 0.3978807 0.8506856 -0.3435477 192 192 192 255 0.038618 0.279078
-46.63823 83.19132 -118.3169 -0.346904 0.8706922 -0.3486442 192 192 192 255 0.037997 0.278109
50.36383 80.82347 -93.20435 0.2940531 0.9061379 0.3040508 192 192 192 255 0.038690 0.279033
-46.63823 83.19132 -94.13715 0.0159268 -0.03585304 0.9992301 192 192 192 255 0.038055 0.278086
50.36383 77.14941 -94.13715 0.656629 -0.7226391 0.2159424 192 192 192 255 0.038686 0.279040
-46.63823 77.14941 -94.13715 -0.5755382 -0.7143878 0.3980024 192 192 192 255 0.038057 0.278100
-9.925079 77.7094 -116.9742 0.01874003 -0.9998175 -0.003709547 192 192 192 255 0.038358 0.278686
1.941742 80.99092 -116.9742 1.226484e-05 0.9432676 -0.3320335 192 192 192 255 0.038396 0.278734
-7.941772 82.63134 -95.44043 -0.006371666 0.9918172 0.127507 192 192 192 255 0.038393 0.278588
-14.66028 77.7094 -95.44043 0.5084067 -0.774352 0.3766985 192 192 192 255 0.038347 0.278534
43.6347 83.19132 -94.13715 0.0165972 0.9996492 0.0206419 192 192 192 255 0.038647 0.278966
50.36383 84.31362 -105.4005 0.3020338 0.9175372 0.2586527 192 192 192 255 0.038657 0.279053
17.44489 82.63135 -116.9742 -0.09829806 0.930339 -0.3532802 192 192 192 255 0.038426 0.278779
0.507416 82.63134 -111.978 -0.009620738 0.9988839 -0.04624274 192 192 192 255 0.038401 0.278707
-7.613281 82.63135 -116.9742 0.1559886 0.9350209 -0.318439 192 192 192 255 0.038366 0.278685
-46.63824 76.52013 -106.1409 -0.311911 -0.9282867 -0.2024732 192 192 192 255 0.038028 0.278112
-39.67053 77.14941 -119.4242 -0.03581151 -0.9987084 -0.03604181 192 192 192 255 0.038043 0.278192
-11.87 79.75362 -95.44043 0.02798266 -0.2593932 0.9653664 192 192 192 255 0.038359 0.278549
-8.709167 77.7094 -95.44043 -0.4683242 -0.7893838 0.3969202 192 192 192 255 0.038385 0.278591
-11.93532 77.7094 -100.3384 0.01750328 -0.9995345 0.02498692 192 192 192 255 0.038349 0.278568
50.40198 46.98071 -42.07965 0.3563475 0.2880915 0.8888305 192 192 192 255 0.038613 0.279086
-49.87492 43.01804 -30.34772 -0.3135916 0.9107603 0.2686558 192 192 192 255 0.037999 0.278122
50.47803 40.93943 -42.07965 0.445325 -0.8313906 0.3323783 192 192 192 255 0.038618 0.279078
-49.86079 39.33615 -31.50287 -0.313385 -0.874623 0.369898 192 192 192 255 0.037997 0.278109
49.81778 43.29695 -63.47955 0.2612763 -0.8965759 -0.3576122 192 192 192 255 0.038690 0.279033
-50.46753 39.32644 -52.10791 -0.06706368 -0.1912831 -0.9792412 192 192 192 255 0.038055 0.278086
49.7933 46.97101 -62.68469 0.6299976 0.7384923 -0.2402755 192 192 192 255 0.038686 0.279040
-50.54553 45.36773 -52.10791 -0.6375257 0.6684929 -0.3829859 192 192 192 255 0.038057 0.278100
8.705109 45.75445 -38.83151 -0.006989003 0.9999035 -0.01200424 192 192 192 255 0.038358 0.278686
13.38101 42.54729 -39.31995 0.0575807 -0.9086071 0.4136638 192 192 192 255 0.038396 0.278734
0.722977 40.52648 -55.21667 -0.005596982 -0.9693639 -0.245565 192 192 192 255 0.038393 0.278588
-28.56522 45.33688 -54.48407 0.1291026 0.8812815 -0.4546158 192 192 192 255 0.038347 0.278534
42.91238 40.81852 -61.95111 0.03955169 -0.9990005 -0.02082719 192 192 192 255 0.038647 0.278966
50.16904 39.81206 -53.08649 0.2755387 -0.9101681 -0.3093096 192 192 192 255 0.038657 0.279053
19.4559 41.00375 -39.95795 -0.1740419 -0.8860067 0.4297693 192 192 192 255 0.038426 0.278779
12.71602 40.89608 -43.51843 0.01296108 -0.9988755 0.04560546 192 192 192 255 0.038401 0.278707
9.670776 40.84743 -38.92667 0.3785402 -0.8340405 0.4013526 192 192 192 255 0.038366 0.278685
-50.25316 46.00177 -41.87872 -0.2913513 0.9246189 0.2453454 192 192 192 255 0.038028 0.278112
-42.70212 45.49306 -31.31912 -0.03516527 0.9992942 0.01321244 192 192 192 255 0.038043 0.278192
-16.40186 43.33898 -54.78833 -0.04858665 0.3299437 -0.9427495 192 192 192 255 0.038359 0.278549
-2.85202 45.43526 -55.13312 -0.1485719 0.8825514 -0.4461273 192 192 192 255 0.038385 0.278591
-16.27397 45.3839 -50.60748 -0.008448658 0.9973795 -0.07185239 192 192 192 255 0.038349 0.278568
50.47308 58.74497 -83.15704 0.2969558 -0.2899555 -0.9098039 192 192 192 255 0.038613 0.279086
-46.49715 61.10515 -88.23212 -0.139736 -0.9647289 -0.2230965 192 192 192 255 0.037999 0.278122
50.47308 64.78687 -83.15704 0.4062207 0.8482556 -0.3397752 192 192 192 255 0.038618 0.279078
-46.51158 64.78687 -86.87677 -0.336154 0.8734108 -0.3523552 192 192 192 255 0.037997 0.278109
50.22079 62.41903 -58.04932 0.2835703 0.9083767 0.3073103 192 192 192 255 0.038690 0.279033
-46.7532 64.78687 -62.70166 -0.01991115 -0.02198201 0.9995601 192 192 192 255 0.038055 0.278086
50.23148 58.74497 -58.98187 0.6506081 -0.7260891 0.2224943 192 192 192 255 0.038686 0.279040
-46.7532 58.74497 -62.70166 -0.6294301 -0.6833268 0.3699762 192 192 192 255 0.038057 0.278100
0.571762 59.30495 -83.35931 0.01608526 -0.9997734 0.01394185 192 192 192 255 0.038358 0.278686
13.38495 62.58647 -83.18756 0.004888923 0.9437284 -0.3306854 192 192 192 255 0.038396 0.278734
-4.89798 64.2269 -62.52075 -0.01153767 0.9890912 0.1468521 192 192 192 255 0.038393 0.278588
-28.26697 59.30495 -62.77838 0.1797716 -0.900439 0.3960958 192 192 192 255 0.038347 0.278534
43.50409 64.78687 -59.23987 0.01700626 0.9997118 0.01694927 192 192 192 255 0.038647 0.278966
50.34305 65.90918 -70.2431 0.292767 0.9195327 0.2621969 192 192 192 255 0.038657 0.279053
30.12369 64.2269 -82.9632 -0.08609127 0.9310142 -0.3546842 192 192 192 255 0.038426 0.278779
11.69366 64.2269 -78.21307 -0.008903042 0.9983696 -0.05638238 192 192 192 255 0.038401 0.278707
3.066986 64.2269 -83.32587 0.1504275 0.9389991 -0.3092769 192 192 192 255 0.038366 0.278685
-46.63358 58.11568 -74.70319 -0.1310871 -0.9679812 -0.2140759 192 192 192 255 0.038028 0.278112
-29.48488 58.74497 -87.71661 -0.02679875 -0.9982209 -0.05326271 192 192 192 255 0.038043 0.278192
-18.56036 61.34917 -62.67139 -0.005879271 -0.5208777 0.8536111 192 192 192 255 0.038359 0.278549
-7.564026 59.30495 -62.55017 -0.1692113 -0.9011469 0.3991264 192 192 192 255 0.038385 0.278591
-18.61389 59.30495 -67.57086 0.01260522 -0.9967268 0.07985527 192 192 192 255 0.038349 0.278568
50.15762 26.5804 -4.556824 0.214569 0.4152613 0.8840352 192 192 192 255 0.038613 0.279086
-46.82112 23.75631 -8.623474 -0.3450461 0.9342911 0.08968474 192 192 192 255 0.037999 0.278122
50.15506 20.59499 -3.732513 0.3774652 -0.8012922 0.4641668 192 192 192 255 0.038618 0.279078
-46.80199 19.92412 -9.46344 -0.3719407 -0.8091419 0.454917 192 192 192 255 0.037997 0.278109
50.54498 19.51573 -28.92172 0.3097818 -0.9350739 -0.172256 192 192 192 255 0.038690 0.279033
-46.42683 16.62637 -33.40601 0.05759494 0.1265469 -0.9902872 192 192 192 255 0.038055 0.278086
50.53281 23.28265 -28.49936 0.665562 0.6836513 -0.2994132 192 192 192 255 0.038686 0.279040
-46.42426 22.61178 -34.23029 -0.5398936 0.6807258 -0.4951035 192 192 192 255 0.038057 0.278100
9.913086 25.56394 -8.189819 0.01242605 0.9889073 -0.1480136 192 192 192 255 0.038358 0.278686
14.3909 22.34408 -7.477509 -0.02336258 -0.8727238 0.487655 192 192 192 255 0.038396 0.278734
1.066772 17.62648 -29.9057 -0.0006498966 -0.9982625 -0.05891998 192 192 192 255 0.038393 0.278588
-23.31702 22.45594 -30.97415 0.188453 0.8456987 -0.4992787 192 192 192 255 0.038347 0.278534
43.8053 17.25071 -28.07257 0.01854869 -0.9930879 0.1158982 192 192 192 255 0.038647 0.278966
50.35562 17.72158 -16.36908 0.3152232 -0.9406293 -0.1259001 192 192 192 255 0.038657 0.279053
20.23804 20.75946 -6.90802 -0.2678267 -0.8338057 0.482739 192 192 192 255 0.038426 0.278779
13.92508 20.03384 -12.23291 -0.01562123 -0.9862492 0.1645251 192 192 192 255 0.038401 0.278707
10.78471 20.69405 -7.466797 0.3260992 -0.8072262 0.4919809 192 192 192 255 0.038366 0.278685
-46.61172 24.87232 -22.43008 -0.32186 0.9442772 0.06889636 192 192 192 255 0.038028 0.278112
-39.85156 26.10874 -8.779602 -0.02131467 0.9916177 -0.1274361 192 192 192 255 0.038043 0.278192
-13.18925 20.45013 -30.5304 0.04741067 0.4933249 -0.8685521 192 192 192 255 0.038359 0.278549
-1.710419 22.49711 -30.6225 -0.1483734 0.8346139 -0.5304761 192 192 192 255 0.038385 0.278591
-13.69521 23.14281 -25.96313 0.01197587 0.980995 -0.1936631 192 192 192 255 0.038349 0.278568
3 0 8 9 
3 0 9 14 
3 0 14 2 
3 12 15 10 
3 4 12 10 
3 4 10 19 
3 4 19 20 
3 4 20 6 
3 6 20 21 
3 6 21 8 
3 6 8 0 
3 6 0 2 
3 6 2 13 
3 6 13 4 
3 16 9 8 
3 16 8 18 
3 16 18 1 
3 16 1 3 
3 10 15 16 
3 10 16 3 
3 10 3 5 
3 11 19 5 
3 11 5 7 
3 8 21 18 
3 13 12 4 
3 15 14 9 
3 16 15 9 
3 1 17 7 
3 1 7 5 
3 1 5 3 
3 18 17 1 
3 21 19 11 
3 21 20 19 
3 2 14 15 
3 2 15 12 
3 2 12 13 
3 5 19 10 
3 18 21 11 
3 18 11 7 
3 18 7 17 
3 22 30 31 
3 22 31 36 
3 22 36 24 
3 34 37 32 
3 26 34 32 
3 26 32 41 
3 26 41 42 
3 26 42 28 
3 28 42 43 
3 28 43 30 
3 28 30 22 
3 28 22 24 
3 28 24 35 
3 28 35 26 
3 38 31 30 
3 38 30 40 
3 38 40 23 
3 38 23 25 
3 32 37 38 
3 32 38 25 
3 32 25 27 
3 33 41 27 
3 33 27 29 
3 30 43 40 
3 35 34 26 
3 37 36 31 
3 38 37 31 
3 23 39 29 
3 23 29 27 
3 23 27 25 
3 40 39 23 
3 43 41 33 
3 43 42 41 
3 24 36 37 
3 24 37 34 
3 24 34 35 
3 27 41 32 
3 40 43 33 
3 40 33 29 
3 40 29 39 
3 44 52 53 
3 44 53 58 
3 44 58 46 
3 56 59 54 
3 48 56 54 
3 48 54 63 
3 48 63 64 
3 48 64 50 
3 50 64 65 
3 50 65 52 
3 50 52 44 
3 50 44 46 
3 50 46 57 
3 50 57 48 
3 60 53 52 
3 60 52 62 
3 60 62 45 
3 60 45 47 
3 54 59 60 
3 54 60 47 
3 54 47 49 
3 55 63 49 
3 55 49 51 
3 52 65 62 
3 57 56 48 
3 59 58 53 
3 60 59 53 
3 45 61 51 
3 45 51 49 
3 45 49 47 
3 62 61 45 
3 65 63 55 
3 65 64 63 
3 46 58 59 
3 46 59 56 
3 46 56 57 
3 49 63 54 
3 62 65 55 
3 62 55 51 
3 62 51 61 
3 66 74 75 
3 66 75 80 
3 66 80 68 
3 78 81 76 
3 70 78 76 
3 70 76 85 
3 70 85 86 
3 70 86 72 
3 72 86 87 
3 72 87 74 
3 72 74 66 
3 72 66 68 
3 72 68 79 
3 72 79 70 
3 82 75 74 
3 82 74 84 
3 82 84 67 
3 82 67 69 
3 76 81 82 
3 76 82 69 
3 76 69 71 
3 77 85 71 
3 77 71 73 
3 74 87 84 
3 79 78 70 
3 81 80 75 
3 82 81 75 
3 67 83 73 
3 67 73 71 
3 67 71 69 
3 84 83 67 
3 87 85 77 
3 87 86 85 
3 68 80 81 
3 68 81 78 
3 68 78 79 
3 71 85 76 
3 84 87 77 
3 84 77 73 
3 84 73 83 
3 88 96 97 
3 88 97 102 
3 88 102 90 
3 100 103 98 
3 92 100 98 
3 92 98 107 
3 92 107 108 
3 92 108 94 
3 94 108 109 
3 94 109 96 
3 94 96 88 
3 94 88 90 
3 94 90 101 
3 94 101 92 
3 97 96 104 
3 104 96 106 
3 104 106 91 
3 91 106 89 
3 98 103 104 
3 98 104 91 
3 98 91 93 
3 99 107 93 
3 99 93 95 
3 96 109 106 
3 101 100 92 
3 103 102 97 
3 104 103 97 
3 89 105 95 
3 89 95 93 
3 89 93 91 
3 106 105 89 
3 109 107 99 
3 109 108 107 
3 90 102 103 
3 90 103 100 
3 90 100 101 
3 93 107 98 
3 106 109 99 
3 106 99 95 
3 106 95 105 
3 110 118 119 
3 110 119 124 
3 110 124 112 
3 122 125 120 
3 114 122 120 
3 114 120 129 
3 114 129 130 
3 114 130 116 
3 116 130 131 
3 116 131 118 
3 116 118 110 
3 116 110 112 
3 116 112 123 
3 116 123 114 
3 126 119 118 
3 126 118 128 
3 126 128 111 
3 126 111 113 
3 120 125 126 
3 120 126 113 
3 120 113 115 
3 121 129 115 
3 121 115 117 
3 118 131 128 
3 123 122 114 
3 125 124 119 
3 126 125 119 
3 111 127 117 
3 111 117 115 
3 111 115 113 
3 128 127 111 
3 131 129 121 
3 131 130 129 
3 112 124 125 
3 112 125 122 
3 112 122 123 
3 115 129 120 
3 128 131 121 
3 128 121 117 
3 128 117 127 
3 132 140 141 
3 132 141 146 
3 132 146 134 
3 144 147 142 
3 136 144 142 
3 136 142 151 
3 136 151 152 
3 136 152 138 
3 138 152 153 
3 138 153 140 
3 138 140 132 
3 138 132 134 
3 138 134 145 
3 138 145 136 
3 148 141 140 
3 148 140 150 
3 148 150 133 
3 148 133 135 
3 142 147 148 
3 142 148 135 
3 142 135 137 
3 143 151 137 
3 143 137 139 
3 140 153 150 
3 145 144 136 
3 147 146 141 
3 148 147 141 
3 133 149 139 
3 133 139 137 
3 133 137 135 
3 150 149 133 
3 153 151 143 
3 153 152 151 
3 134 146 147 
3 134 147 144 
3 134 144 145 
3 137 151 142 
3 150 153 143 
3 150 143 139 
3 150 139 149 
3 154 162 163 
3 154 163 168 
3 154 168 156 
3 166 169 164 
3 158 166 164 
3 158 164 173 
3 158 173 174 
3 158 174 160 
3 160 174 175 
3 160 175 162 
3 160 162 154 
3 160 154 156 
3 160 156 167 
3 160 167 158 
3 170 163 162 
3 170 162 172 
3 170 172 155 
3 170 155 157 
3 164 169 170 
3 164 170 157 
3 164 157 159 
3 165 173 159 
3 165 159 161 
3 162 175 172 
3 167 166 158 
3 169 168 163 
3 170 169 163 
3 155 171 161 
3 155 161 159 
3 155 159 157 
3 172 171 155 
3 175 173 165 
3 175 174 173 
3 156 168 169 
3 156 169 166 
3 156 166 167 
3 159 173 164 
3 172 175 165 
3 172 165 161 
3 172 161 171 
3 176 184 185 
3 176 185 190 
3 176 190 178 
3 188 191 186 
3 180 188 186 
3 180 186 195 
3 180 195 196 
3 180 196 182 
3 182 196 197 
3 182 197 184 
3 182 184 176 
3 182 176 178 
3 182 178 189 
3 182 189 180 
3 192 185 184 
3 192 184 194 
3 192 194 177 
3 192 177 179 
3 186 191 192 
3 186 192 179 
3 186 179 181 
3 187 195 181 
3 187 181 183 
3 184 197 194 
3 189 188 180 
3 191 190 185 
3 192 191 185 
3 177 193 183 
3 177 183 181 
3 177 181 179 
3 194 193 177 
3 197 195 187 
3 197 196 195 
3 178 190 191 
3 178 191 188 
3 178 188 189 
3 181 195 186 
3 194 197 187 
3 194 187 183 
3 194 183 193 
3 198 206 207 
3 198 207 212 
3 198 212 200 
3 210 213 208 
3 202 210 208 
3 202 208 217 
3 202 217 218 
3 202 218 204 
3 204 218 219 
3 204 219 206 
3 204 206 198 
3 204 198 200 
3 204 200 211 
3 204 211 202 
3 214 207 206 
3 214 206 216 
3 214 216 199 
3 214 199 201 
3 208 213 214 
3 208 214 201 
3 208 201 203 
3 209 217 203 
3 209 203 205 
3 206 219 216 
3 211 210 202 
3 213 212 207 
3 214 213 207 
3 199 215 205 
3 199 205 203 
3 199 203 201 
3 216 215 199 
3 219 217 209 
3 219 218 217 
3 200 212 213 
3 200 213 210 
3 200 210 211 
3 203 217 208 
3 216 219 209 
3 216 209 205 
3 216 205 215 
