ply
format ascii 1.0
comment VCGLIB generated
comment TextureFile Dungeons_2_Texture_01_A.png
element vertex 226
property float x
property float y
property float z
property float nx
property float ny
property float nz
property uchar red
property uchar green
property uchar blue
property uchar alpha
property float texture_u
property float texture_v
element face 332
property list uchar int vertex_indices
end_header
127.017 36.37468 -37.77545 0 0.8947545 0.4465584 192 192 192 255 0.875673 0.358514
127.017 30.60431 -35.11005 0 -0.08971918 0.9959671 192 192 192 255 0.875673 0.358514
224.3791 36.37468 -37.77545 0.3581337 0.6582953 0.6621085 192 192 192 255 0.875673 0.406345
224.3791 30.60431 -35.11005 0.7445555 -0.5881166 0.3158418 192 192 192 255 0.875673 0.406345
127.017 140.099 -250.484 0 -0.7137533 -0.7003973 192 192 192 255 0.873556 0.400013
224.3791 140.099 -250.484 0.7959399 -0.5399053 -0.2738285 192 192 192 255 0.767272 0.406345
224.3791 145.781 -247.6351 0.7189333 0.4961149 0.4868314 192 192 192 255 0.767272 0.406345
127.017 145.781 -247.6351 0 0.7137533 0.7003972 192 192 192 255 0.767272 0.358514
127.017 239.8135 -464.4939 0 0.9118291 -0.4105701 192 192 192 255 0.875673 0.358514
127.017 234.1315 -467.3427 0 -0.05745804 -0.9983479 192 192 192 255 0.875673 0.358514
224.3791 239.8135 -464.4939 0.2827809 0.8190106 -0.4992561 192 192 192 255 0.875673 0.406345
224.3791 234.1315 -467.3427 0.7429214 -0.5763868 -0.3403618 192 192 192 255 0.875673 0.406345
29.65491 36.37468 -37.77545 -0.2817923 0.7996081 0.5303019 192 192 192 255 0.875673 0.406345
29.65491 30.60431 -35.11005 -0.7445555 -0.5881166 0.3158418 192 192 192 255 0.875673 0.406345
29.65491 140.099 -250.484 -0.7959399 -0.2839771 -0.534637 192 192 192 255 0.873680 0.400026
29.65491 145.781 -247.6351 -0.7189333 0.4961149 0.4868314 192 192 192 255 0.767272 0.406345
29.65491 239.8135 -464.4939 -0.3591473 0.6810635 -0.6380954 192 192 192 255 0.875673 0.406345
29.65491 234.1315 -467.3427 -0.7429214 -0.5763868 -0.3403618 192 192 192 255 0.875673 0.406345
127.017 46.35696 -63.51532 0 -0.717448 -0.6966121 192 192 192 255 0.873439 0.400095
29.65491 46.35696 -63.51532 -0.7944757 -0.289721 -0.5337322 192 192 192 255 0.873584 0.400114
29.65491 52.039 -60.66647 -0.7944756 0.5420371 0.2738696 192 192 192 255 0.859976 0.406345
127.017 52.039 -60.66647 0 0.7174487 0.6966113 192 192 192 255 0.859976 0.358514
224.3791 52.039 -60.66647 0.7944755 0.289722 0.533732 192 192 192 255 0.859976 0.406345
224.3791 46.35696 -63.51532 0.7944757 -0.5420367 -0.2738697 192 192 192 255 0.859976 0.406345
127.017 31.42778 -62.81165 0 -0.7989874 -0.6013477 192 192 192 255 0.873432 0.400100
29.65491 31.42778 -62.81165 -0.8982888 -0.3133951 -0.3079946 192 192 192 255 0.873578 0.400119
29.65491 37.1098 -59.96277 -0.7927597 0.2889924 0.5366709 192 192 192 255 0.865434 0.406345
127.017 37.1098 -59.96277 0 0.7120324 0.7021466 192 192 192 255 0.865434 0.358514
224.3791 37.1098 -59.96277 0.8662851 0.4431021 0.2306744 192 192 192 255 0.865434 0.406345
224.3791 31.42778 -62.81165 0.6555804 -0.3585114 -0.6645931 192 192 192 255 0.865434 0.406345
224.3791 67.49503 -91.49353 0.7976368 0.2768105 0.5358652 192 192 192 255 0.844128 0.406345
127.017 67.49503 -91.49353 0 0.7087834 0.7054261 192 192 192 255 0.844128 0.358514
29.65491 67.49503 -91.49353 -0.7976368 0.5371734 0.2742631 192 192 192 255 0.844128 0.406345
29.65491 61.81299 -94.34238 -0.7976367 -0.2768105 -0.5358653 192 192 192 255 0.873600 0.400099
127.017 61.81299 -94.34238 0 -0.7087833 -0.7054263 192 192 192 255 0.873459 0.400081
224.3791 61.81299 -94.34238 0.7976367 -0.5371734 -0.2742634 192 192 192 255 0.873327 0.400064
224.3791 83.39922 -123.2145 0.7947937 0.3065263 0.5237792 192 192 192 255 0.827820 0.406345
127.017 83.39922 -123.2145 0 0.7400297 0.6725743 192 192 192 255 0.827820 0.358514
29.65491 83.39922 -123.2145 -0.7947937 0.5506041 0.2552218 192 192 192 255 0.827820 0.406345
29.65491 77.71718 -126.0633 -0.7947941 -0.3065245 -0.5237796 192 192 192 255 0.827820 0.406345
127.017 77.71718 -126.0633 0 -0.7400284 -0.6725757 192 192 192 255 0.873480 0.400067
224.3791 77.71718 -126.0633 0.7947941 -0.5506033 -0.255222 192 192 192 255 0.873351 0.400051
224.3791 99.21129 -154.7517 0.7961782 0.2935082 0.5291061 192 192 192 255 0.811606 0.406345
127.017 99.21129 -154.7517 0 0.7268036 0.6868454 192 192 192 255 0.811606 0.358514
29.65491 99.21129 -154.7517 -0.7961782 0.5448407 0.2631519 192 192 192 255 0.811606 0.406345
29.65491 93.52925 -157.6005 -0.7961782 -0.2935082 -0.5291061 192 192 192 255 0.811606 0.406345
127.017 93.52925 -157.6005 0 -0.7268036 -0.6868454 192 192 192 255 0.873500 0.400052
224.3791 93.52925 -157.6005 0.7961782 -0.5448407 -0.2631519 192 192 192 255 0.873374 0.400038
224.3791 114.1954 -184.6376 0.8091241 0.2455987 0.5338535 192 192 192 255 0.796241 0.406345
127.017 114.1954 -184.6376 0 0.6978589 0.7162353 192 192 192 255 0.796241 0.358514
29.65491 114.1954 -184.6376 -0.8091241 0.5272911 0.2593884 192 192 192 255 0.796241 0.406345
29.65491 108.5134 -187.4864 -0.8091242 -0.2455975 -0.5338538 192 192 192 255 0.796241 0.406345
127.017 108.5134 -187.4864 0 -0.6978578 -0.7162364 192 192 192 255 0.873519 0.400039
224.3791 108.5134 -187.4864 0.8091242 -0.5272906 -0.259389 192 192 192 255 0.873397 0.400025
224.3791 129.7544 -215.6701 0.8044686 0.2504781 0.538601 192 192 192 255 0.780287 0.406345
127.017 129.7544 -215.6701 0 0.6918989 0.7219945 192 192 192 255 0.780287 0.358514
29.65491 129.7544 -215.6701 -0.8044686 0.5274548 0.2731698 192 192 192 255 0.780287 0.406345
29.65491 124.0724 -218.5189 -0.8044686 -0.2504781 -0.5386009 192 192 192 255 0.780287 0.406345
127.017 124.0724 -218.5189 0 -0.6918989 -0.7219945 192 192 192 255 0.873539 0.400025
224.3791 124.0724 -218.5189 0.8044686 -0.5274548 -0.2731698 192 192 192 255 0.873420 0.400012
127.017 156.2785 -282.7541 0 -0.7396151 -0.67303 192 192 192 255 0.873573 0.400001
224.3791 156.2785 -282.7541 0.7914504 -0.5521738 -0.2621266 192 192 192 255 0.873459 0.399989
224.379 161.9605 -279.9052 0.791446 0.3129095 0.5250723 192 192 192 255 0.787281 0.406345
127.017 161.9605 -279.9052 0 0.7396145 0.6730307 192 192 192 255 0.787281 0.358514
29.65491 161.9605 -279.9052 -0.7914482 0.5521759 0.2621289 192 192 192 255 0.787281 0.406345
29.65491 156.2785 -282.7541 -0.791448 -0.312905 -0.525072 192 192 192 255 0.873694 0.400013
127.017 171.6938 -313.5001 0 -0.7354676 -0.67756 192 192 192 255 0.873587 0.399991
224.3791 171.6938 -313.5001 0.7942976 -0.5491242 -0.2599115 192 192 192 255 0.873475 0.399980
224.379 177.3759 -310.6512 0.7942905 0.3039855 0.5260186 192 192 192 255 0.803088 0.406345
127.017 177.3759 -310.6512 0 0.7354676 0.67756 192 192 192 255 0.803088 0.358514
29.65491 177.3759 -310.6512 -0.7942939 0.5491254 0.2599202 192 192 192 255 0.803088 0.406345
29.65491 171.6938 -313.5001 -0.7942939 -0.3039808 -0.5260161 192 192 192 255 0.803088 0.406345
127.017 187.1837 -344.3946 0 -0.7154524 -0.6986615 192 192 192 255 0.873601 0.399982
224.3791 187.1837 -344.3946 0.7976084 -0.5397705 -0.2692 192 192 192 255 0.873491 0.399971
224.379 192.8658 -341.5457 0.797603 0.281951 0.5332291 192 192 192 255 0.818971 0.406345
127.017 192.8658 -341.5457 0 0.7154524 0.6986615 192 192 192 255 0.818971 0.358514
29.65491 192.8658 -341.5457 -0.7976057 0.5397696 0.2692099 192 192 192 255 0.818971 0.406345
29.65491 187.1837 -344.3946 -0.7976057 -0.2819504 -0.5332252 192 192 192 255 0.818971 0.406345
127.017 202.511 -374.9648 0 -0.6994877 -0.7146446 192 192 192 255 0.873614 0.399972
224.3791 202.511 -374.9648 0.8012013 -0.5319048 -0.274142 192 192 192 255 0.873507 0.399962
224.3791 208.193 -372.116 0.8012033 0.2626745 0.5376574 192 192 192 255 0.834687 0.406345
127.017 208.193 -372.116 0 0.6994871 0.7146453 192 192 192 255 0.834687 0.358514
29.65491 208.193 -372.116 -0.8012024 0.5319039 0.2741404 192 192 192 255 0.834687 0.406345
29.65491 202.511 -374.9648 -0.8012022 -0.2626767 -0.5376579 192 192 192 255 0.834687 0.406345
127.017 218.7194 -407.2927 0 -0.7225903 -0.6912766 192 192 192 255 0.873629 0.399962
224.3791 218.7194 -407.2927 0.7936885 -0.5444257 -0.2714026 192 192 192 255 0.873523 0.399952
224.3791 224.4015 -404.4438 0.7936891 0.2952387 0.5318757 192 192 192 255 0.851307 0.406345
127.017 224.4015 -404.4438 0 0.7225894 0.6912774 192 192 192 255 0.851307 0.358514
29.65491 224.4015 -404.4438 -0.793689 0.5444256 0.2714013 192 192 192 255 0.851307 0.406345
29.65491 218.7194 -407.2927 -0.7936888 -0.2952384 -0.5318763 192 192 192 255 0.851307 0.406345
127.017 233.813 -438.8353 0 -0.8158385 -0.5782799 192 192 192 255 0.873643 0.399952
224.3791 233.813 -438.8353 0.8961322 -0.3263276 -0.3007616 192 192 192 255 0.873540 0.399943
224.3791 239.495 -435.9865 0.7901694 0.31211 0.5274654 192 192 192 255 0.867742 0.406345
127.017 239.495 -435.9865 0 0.7353187 0.6777216 192 192 192 255 0.867742 0.358514
29.65491 239.495 -435.9865 -0.8643817 0.4521565 0.2199973 192 192 192 255 0.867742 0.406345
29.65491 233.813 -438.8353 -0.6518239 -0.3861968 -0.6526696 192 192 192 255 0.867742 0.406345
224.3791 224.8169 -434.6227 0.7898863 0.5509017 0.2694198 192 192 192 255 0.862695 0.406345
224.3791 219.1349 -437.4715 0.7898892 -0.3119889 -0.5279565 192 192 192 255 0.873535 0.399946
127.017 219.1349 -437.4715 0 -0.7344394 -0.6786743 192 192 192 255 0.873639 0.399955
29.65491 219.1349 -437.4715 -0.7898878 -0.5509016 -0.2694155 192 192 192 255 0.862695 0.406345
29.65491 224.8169 -434.6227 -0.7898878 0.3119901 0.5279578 192 192 192 255 0.862695 0.406345
127.017 224.8169 -434.6227 0 0.7344393 0.6786745 192 192 192 255 0.862695 0.358514
224.3791 208.6095 -403.526 0.7937461 0.5444672 0.2711505 192 192 192 255 0.844454 0.406345
224.3791 202.9274 -406.3748 0.7937441 -0.2952624 -0.5317804 192 192 192 255 0.873516 0.399956
127.017 202.9274 -406.3748 0 -0.7227654 -0.6910934 192 192 192 255 0.873623 0.399966
29.65491 202.9274 -406.3748 -0.793745 -0.5444682 -0.2711519 192 192 192 255 0.844454 0.406345
29.65491 208.6095 -403.526 -0.7937452 0.2952602 0.5317801 192 192 192 255 0.844454 0.406345
127.017 208.6095 -403.526 0 0.7227648 0.6910941 192 192 192 255 0.844454 0.358514
224.3791 193.0657 -372.2397 0.8019749 0.5324525 0.2707964 192 192 192 255 0.827746 0.406345
224.3791 187.3836 -375.0885 0.8019742 -0.2629467 -0.5363734 192 192 192 255 0.873500 0.399966
127.017 187.3836 -375.0885 0 -0.7018945 -0.712281 192 192 192 255 0.873608 0.399976
29.65491 187.3836 -375.0885 -0.8019744 -0.5324526 -0.2707979 192 192 192 255 0.827746 0.406345
29.65491 193.0657 -372.2397 -0.8019746 0.2629467 0.5363728 192 192 192 255 0.827746 0.406345
127.017 193.0657 -372.2397 0 0.7018937 0.7122818 192 192 192 255 0.827746 0.358514
224.379 177.1394 -341.0697 0.7992173 0.5408587 0.262152 192 192 192 255 0.812635 0.406345
224.3791 171.4573 -343.9186 0.7992245 -0.2825143 -0.5304958 192 192 192 255 0.873484 0.399975
127.017 171.4573 -343.9186 0 -0.7204253 -0.6935326 192 192 192 255 0.873595 0.399986
29.65491 171.4573 -343.9186 -0.7992209 -0.540858 -0.2621424 192 192 192 255 0.812634 0.406345
29.65491 177.1394 -341.0697 -0.7992209 0.282519 0.5304987 192 192 192 255 0.812635 0.406345
127.017 177.1394 -341.0697 0 0.7204254 0.6935325 192 192 192 255 0.812635 0.358514
224.379 161.9301 -309.5039 0.793542 0.5486248 0.2632528 192 192 192 255 0.797561 0.406345
224.3791 156.248 -312.3528 0.7935491 -0.3036975 -0.5273023 192 192 192 255 0.873469 0.399983
127.017 156.248 -312.3528 0 -0.733178 -0.6800368 192 192 192 255 0.873582 0.399995
29.65491 156.248 -312.3528 -0.7935456 -0.5486237 -0.2632442 192 192 192 255 0.797561 0.406345
29.65491 161.9301 -309.5039 -0.7935455 0.3037022 0.5273048 192 192 192 255 0.797561 0.406345
127.017 161.9301 -309.5039 0 0.733178 0.6800368 192 192 192 255 0.797561 0.358514
224.3791 146.285 -278.4405 0.895676 0.3262965 0.3021511 192 192 192 255 0.779615 0.406345
224.3791 140.603 -281.2893 0.7895498 -0.3121187 -0.5283872 192 192 192 255 0.873451 0.399994
127.017 140.603 -281.2893 0 -0.733736 -0.6794347 192 192 192 255 0.873566 0.400006
29.65491 140.603 -281.2893 -0.7895491 -0.5507812 -0.2706518 192 192 192 255 0.873689 0.400018
29.65491 146.285 -278.4405 -0.7895492 0.3121182 0.5283884 192 192 192 255 0.779615 0.406345
127.017 146.285 -278.4405 0 0.8140663 0.580772 192 192 192 255 0.779615 0.358514
224.3791 130.0566 -247.0807 0.7966952 0.5404641 0.2705094 192 192 192 255 0.771587 0.406345
127.017 130.0566 -247.0807 0 0.6150622 0.7884786 192 192 192 255 0.771587 0.358514
29.65491 130.0566 -247.0807 -0.9008682 0.3108577 0.3029916 192 192 192 255 0.771587 0.406345
29.65491 124.3746 -249.9295 -0.7966952 -0.5404641 -0.2705094 192 192 192 255 0.771587 0.406345
127.017 124.3746 -249.9295 0 -0.7161092 -0.6979882 192 192 192 255 0.873550 0.400017
224.3791 124.3746 -249.9295 0.7966952 -0.2842698 -0.5333549 192 192 192 255 0.873432 0.400005
29.65491 107.9251 -219.0511 -0.807755 -0.5295409 -0.2590719 192 192 192 255 0.785795 0.406345
29.65491 113.6072 -216.2022 -0.8077551 0.2514671 0.5331941 192 192 192 255 0.785795 0.406345
127.017 113.6072 -216.2022 0 0.7020292 0.7121482 192 192 192 255 0.785795 0.358514
224.3791 113.6072 -216.2022 0.8077551 0.529541 0.2590715 192 192 192 255 0.785795 0.406345
224.3791 107.9251 -219.0511 0.807755 -0.2514671 -0.5331943 192 192 192 255 0.873412 0.400016
127.017 107.9251 -219.0511 0 -0.7020288 -0.7121486 192 192 192 255 0.873532 0.400030
29.65491 93.42169 -188.1603 -0.8073537 -0.5262269 -0.2669556 192 192 192 255 0.803782 0.406345
29.65491 99.10373 -185.3115 -0.8073534 0.2451063 0.5367526 192 192 192 255 0.803782 0.406345
127.017 99.10373 -185.3115 0 0.6924261 0.7214888 192 192 192 255 0.803782 0.358514
224.3791 99.10373 -185.3115 0.8073534 0.5262274 0.2669556 192 192 192 255 0.803782 0.406345
224.3791 93.42169 -188.1603 0.8073537 -0.2451052 -0.5367528 192 192 192 255 0.873386 0.400031
127.017 93.42169 -188.1603 0 -0.6924253 -0.7214896 192 192 192 255 0.873510 0.400045
29.65491 77.20248 -156.7344 -0.7976682 -0.5457888 -0.2565935 192 192 192 255 0.816738 0.406345
29.65491 82.88452 -153.8856 -0.7976682 0.2940217 0.5265709 192 192 192 255 0.816738 0.406345
127.017 82.88452 -153.8856 0 0.7313414 0.6820116 192 192 192 255 0.816738 0.358514
224.3791 82.88452 -153.8856 0.7976682 0.5457888 0.2565935 192 192 192 255 0.816738 0.406345
224.3791 77.20248 -156.7344 0.7976682 -0.2940217 -0.5265709 192 192 192 255 0.873367 0.400042
127.017 77.20248 -156.7344 0 -0.7313414 -0.6820116 192 192 192 255 0.873493 0.400057
29.65491 62.29729 -124.8481 -0.7911869 -0.5481122 -0.2712864 192 192 192 255 0.834102 0.406345
29.65491 67.97931 -121.9991 -0.7911865 0.3051391 0.5300133 192 192 192 255 0.834102 0.406345
127.017 67.97931 -121.9991 0 0.7289507 0.6845663 192 192 192 255 0.834102 0.358514
224.3791 67.97931 -121.9991 0.7911866 0.548113 0.271286 192 192 192 255 0.834102 0.406345
224.3791 62.29729 -124.8481 0.7911869 -0.3051372 -0.5300138 192 192 192 255 0.873342 0.400056
127.017 62.29729 -124.8481 0 -0.7289491 -0.6845679 192 192 192 255 0.873472 0.400072
127.017 46.89513 -94.0347 0 -0.7081631 -0.7060488 192 192 192 255 0.873452 0.400086
29.65491 46.89513 -94.0347 -0.7974388 -0.5370244 -0.2751294 192 192 192 255 0.873594 0.400104
29.65491 52.57716 -91.18585 -0.7974388 0.276734 0.5361993 192 192 192 255 0.849861 0.406345
127.017 52.57716 -91.18585 0 0.7081631 0.7060488 192 192 192 255 0.849861 0.358514
224.3791 52.57716 -91.18585 0.7974388 0.5370244 0.2751294 192 192 192 255 0.849861 0.406345
224.3791 46.89513 -94.0347 0.7974388 -0.276734 -0.5361993 192 192 192 255 0.873319 0.400069
224.3791 46.89513 -94.0347 0.7974388 -0.276734 -0.5361993 192 192 192 255 0.849861 0.406345
224.3791 61.81299 -94.34238 0.7976367 -0.5371734 -0.2742634 192 192 192 255 0.844128 0.406345
224.3791 156.2785 -282.7541 0.7914504 -0.5521738 -0.2621266 192 192 192 255 0.787281 0.406345
224.3791 140.603 -281.2893 0.7895498 -0.3121187 -0.5283872 192 192 192 255 0.779615 0.406345
29.65491 46.89513 -94.0347 -0.7974388 -0.5370244 -0.2751294 192 192 192 255 0.849861 0.406345
29.65491 61.81299 -94.34238 -0.7976367 -0.2768105 -0.5358653 192 192 192 255 0.844128 0.406345
29.65491 156.2785 -282.7541 -0.791448 -0.312905 -0.525072 192 192 192 255 0.787281 0.406345
29.65491 140.603 -281.2893 -0.7895491 -0.5507812 -0.2706518 192 192 192 255 0.779615 0.406345
29.65491 31.42778 -62.81165 -0.8982888 -0.3133951 -0.3079946 192 192 192 255 0.865434 0.406345
29.65491 46.35696 -63.51532 -0.7944757 -0.289721 -0.5337322 192 192 192 255 0.859976 0.406345
224.3791 31.42778 -62.81165 0.6555804 -0.3585114 -0.6645931 192 192 192 255 0.873296 0.400082
224.3791 46.35696 -63.51532 0.7944757 -0.5420367 -0.2738697 192 192 192 255 0.873304 0.400078
29.65491 30.60431 -35.11005 -0.7445555 -0.5881166 0.3158418 192 192 192 255 0.873567 0.400128
127.017 30.60431 -35.11005 0 -0.08971918 0.9959671 192 192 192 255 0.873419 0.400109
224.3791 30.60431 -35.11005 0.7445555 -0.5881166 0.3158418 192 192 192 255 0.873282 0.400091
29.65491 62.29729 -124.8481 -0.7911869 -0.5481122 -0.2712864 192 192 192 255 0.873611 0.400089
29.65491 77.71718 -126.0633 -0.7947941 -0.3065245 -0.5237796 192 192 192 255 0.873617 0.400083
224.3791 62.29729 -124.8481 0.7911869 -0.3051372 -0.5300138 192 192 192 255 0.834102 0.406345
224.3791 77.71718 -126.0633 0.7947941 -0.5506033 -0.255222 192 192 192 255 0.827820 0.406345
29.65491 77.20248 -156.7344 -0.7976682 -0.5457888 -0.2565935 192 192 192 255 0.873629 0.400073
29.65491 93.52925 -157.6005 -0.7961782 -0.2935082 -0.5291061 192 192 192 255 0.873634 0.400068
224.3791 77.20248 -156.7344 0.7976682 -0.2940217 -0.5265709 192 192 192 255 0.816738 0.406345
224.3791 93.52925 -157.6005 0.7961782 -0.5448407 -0.2631519 192 192 192 255 0.811606 0.406345
29.65491 93.42169 -188.1603 -0.8073537 -0.5262269 -0.2669556 192 192 192 255 0.873642 0.400061
29.65491 108.5134 -187.4864 -0.8091242 -0.2455975 -0.5338538 192 192 192 255 0.873650 0.400054
224.3791 93.42169 -188.1603 0.8073537 -0.2451052 -0.5367528 192 192 192 255 0.803782 0.406345
224.3791 108.5134 -187.4864 0.8091242 -0.5272906 -0.259389 192 192 192 255 0.796241 0.406345
29.65491 107.9251 -219.0511 -0.807755 -0.5295409 -0.2590719 192 192 192 255 0.873661 0.400044
29.65491 124.0724 -218.5189 -0.8044686 -0.2504781 -0.5386009 192 192 192 255 0.873667 0.400039
224.3791 107.9251 -219.0511 0.807755 -0.2514671 -0.5331943 192 192 192 255 0.785795 0.406345
224.3791 124.0724 -218.5189 0.8044686 -0.5274548 -0.2731698 192 192 192 255 0.780287 0.406345
29.65491 124.3746 -249.9295 -0.7966952 -0.5404641 -0.2705094 192 192 192 255 0.873676 0.400030
224.3791 124.3746 -249.9295 0.7966952 -0.2842698 -0.5333549 192 192 192 255 0.771587 0.406345
224.3791 171.6938 -313.5001 0.7942976 -0.5491242 -0.2599115 192 192 192 255 0.803088 0.406345
224.3791 156.248 -312.3528 0.7935491 -0.3036975 -0.5273023 192 192 192 255 0.797561 0.406345
29.65491 171.6938 -313.5001 -0.7942939 -0.3039808 -0.5260161 192 192 192 255 0.873706 0.400003
29.65491 156.248 -312.3528 -0.7935456 -0.5486237 -0.2632442 192 192 192 255 0.873702 0.400007
224.3791 187.1837 -344.3946 0.7976084 -0.5397705 -0.2692 192 192 192 255 0.818971 0.406345
224.3791 171.4573 -343.9186 0.7992245 -0.2825143 -0.5304958 192 192 192 255 0.812634 0.406345
29.65491 187.1837 -344.3946 -0.7976057 -0.2819504 -0.5332252 192 192 192 255 0.873717 0.399993
29.65491 171.4573 -343.9186 -0.7992209 -0.540858 -0.2621424 192 192 192 255 0.873712 0.399997
224.3791 202.511 -374.9648 0.8012013 -0.5319048 -0.274142 192 192 192 255 0.834687 0.406345
224.3791 187.3836 -375.0885 0.8019742 -0.2629467 -0.5363734 192 192 192 255 0.827746 0.406345
29.65491 202.511 -374.9648 -0.8012022 -0.2626767 -0.5376579 192 192 192 255 0.873728 0.399983
29.65491 187.3836 -375.0885 -0.8019744 -0.5324526 -0.2707979 192 192 192 255 0.873723 0.399987
224.3791 218.7194 -407.2927 0.7936885 -0.5444257 -0.2714026 192 192 192 255 0.851307 0.406345
224.3791 202.9274 -406.3748 0.7937441 -0.2952624 -0.5317804 192 192 192 255 0.844454 0.406345
29.65491 218.7194 -407.2927 -0.7936888 -0.2952384 -0.5318763 192 192 192 255 0.873740 0.399972
29.65491 202.9274 -406.3748 -0.793745 -0.5444682 -0.2711519 192 192 192 255 0.873735 0.399977
224.3791 233.813 -438.8353 0.8961322 -0.3263276 -0.3007616 192 192 192 255 0.867742 0.406345
224.3791 219.1349 -437.4715 0.7898892 -0.3119889 -0.5279565 192 192 192 255 0.862695 0.406345
29.65491 233.813 -438.8353 -0.6518239 -0.3861968 -0.6526696 192 192 192 255 0.873751 0.399962
29.65491 219.1349 -437.4715 -0.7898878 -0.5509016 -0.2694155 192 192 192 255 0.873748 0.399965
224.3791 234.1315 -467.3427 0.7429214 -0.5763868 -0.3403618 192 192 192 255 0.873548 0.399938
127.017 234.1315 -467.3427 0 -0.05745804 -0.9983479 192 192 192 255 0.873650 0.399947
29.65491 234.1315 -467.3427 -0.7429214 -0.5763868 -0.3403618 192 192 192 255 0.873757 0.399956
224.3791 140.099 -250.484 0.7959399 -0.5399053 -0.2738285 192 192 192 255 0.873438 0.400001
29.65491 140.099 -250.484 -0.7959399 -0.2839771 -0.534637 192 192 192 255 0.767272 0.406345
3 30 31 165 
3 30 165 166 
3 2 0 1 
3 2 1 3 
3 167 162 34 
3 167 34 35 
3 166 168 169 
3 166 169 30 
3 131 126 62 
3 131 62 63 
3 10 11 9 
3 10 9 8 
3 60 61 127 
3 60 127 128 
3 170 62 126 
3 170 126 171 
3 31 32 164 
3 31 164 165 
3 12 13 1 
3 12 1 0 
3 162 163 33 
3 162 33 34 
3 172 164 32 
3 172 32 173 
3 130 131 63 
3 130 63 64 
3 16 8 9 
3 16 9 17 
3 65 60 128 
3 65 128 129 
3 64 174 175 
3 64 175 130 
3 24 25 19 
3 24 19 18 
3 176 26 20 
3 176 20 177 
3 21 20 26 
3 21 26 27 
3 22 21 27 
3 22 27 28 
3 28 29 23 
3 28 23 22 
3 178 24 18 
3 178 18 179 
3 180 25 24 
3 180 24 181 
3 13 12 26 
3 13 26 176 
3 27 26 12 
3 27 12 0 
3 28 27 0 
3 28 0 2 
3 3 29 28 
3 3 28 2 
3 182 181 24 
3 182 24 178 
3 36 37 158 
3 36 158 159 
3 37 38 157 
3 37 157 158 
3 156 157 38 
3 156 38 39 
3 161 183 184 
3 161 184 40 
3 160 161 40 
3 160 40 41 
3 159 185 186 
3 159 186 36 
3 42 43 152 
3 42 152 153 
3 43 44 151 
3 43 151 152 
3 150 151 44 
3 150 44 45 
3 155 187 188 
3 155 188 46 
3 154 155 46 
3 154 46 47 
3 153 189 190 
3 153 190 42 
3 48 49 146 
3 48 146 147 
3 49 50 145 
3 49 145 146 
3 144 145 50 
3 144 50 51 
3 149 191 192 
3 149 192 52 
3 148 149 52 
3 148 52 53 
3 147 193 194 
3 147 194 48 
3 54 55 140 
3 54 140 141 
3 55 56 139 
3 55 139 140 
3 138 139 56 
3 138 56 57 
3 143 195 196 
3 143 196 58 
3 142 143 58 
3 142 58 59 
3 141 197 198 
3 141 198 54 
3 132 133 55 
3 132 55 54 
3 133 134 56 
3 133 56 55 
3 57 56 134 
3 57 134 135 
3 58 196 199 
3 58 199 136 
3 59 58 136 
3 59 136 137 
3 54 198 200 
3 54 200 132 
3 66 67 121 
3 66 121 122 
3 201 68 120 
3 201 120 202 
3 125 120 68 
3 125 68 69 
3 124 125 69 
3 124 69 70 
3 70 71 123 
3 70 123 124 
3 203 66 122 
3 203 122 204 
3 72 73 115 
3 72 115 116 
3 205 74 114 
3 205 114 206 
3 119 114 74 
3 119 74 75 
3 118 119 75 
3 118 75 76 
3 76 77 117 
3 76 117 118 
3 207 72 116 
3 207 116 208 
3 78 79 109 
3 78 109 110 
3 209 80 108 
3 209 108 210 
3 113 108 80 
3 113 80 81 
3 112 113 81 
3 112 81 82 
3 82 83 111 
3 82 111 112 
3 211 78 110 
3 211 110 212 
3 84 85 103 
3 84 103 104 
3 213 86 102 
3 213 102 214 
3 107 102 86 
3 107 86 87 
3 106 107 87 
3 106 87 88 
3 88 89 105 
3 88 105 106 
3 215 84 104 
3 215 104 216 
3 90 91 97 
3 90 97 98 
3 217 92 96 
3 217 96 218 
3 101 96 92 
3 101 92 93 
3 100 101 93 
3 100 93 94 
3 94 95 99 
3 94 99 100 
3 219 90 98 
3 219 98 220 
3 221 91 90 
3 221 90 222 
3 11 10 92 
3 11 92 217 
3 93 92 10 
3 93 10 8 
3 94 93 8 
3 94 8 16 
3 17 95 94 
3 17 94 16 
3 223 222 90 
3 223 90 219 
3 218 96 86 
3 218 86 213 
3 98 97 85 
3 98 85 84 
3 220 98 84 
3 220 84 215 
3 100 99 89 
3 100 89 88 
3 88 87 101 
3 88 101 100 
3 87 86 96 
3 87 96 101 
3 214 102 80 
3 214 80 209 
3 104 103 79 
3 104 79 78 
3 216 104 78 
3 216 78 211 
3 106 105 83 
3 106 83 82 
3 82 81 107 
3 82 107 106 
3 81 80 102 
3 81 102 107 
3 210 108 74 
3 210 74 205 
3 110 109 73 
3 110 73 72 
3 212 110 72 
3 212 72 207 
3 112 111 77 
3 112 77 76 
3 76 75 113 
3 76 113 112 
3 75 74 108 
3 75 108 113 
3 206 114 68 
3 206 68 201 
3 116 115 67 
3 116 67 66 
3 208 116 66 
3 208 66 203 
3 118 117 71 
3 118 71 70 
3 70 69 119 
3 70 119 118 
3 69 68 114 
3 69 114 119 
3 202 120 62 
3 202 62 170 
3 122 121 61 
3 122 61 60 
3 204 122 60 
3 204 60 65 
3 124 123 174 
3 124 174 64 
3 64 63 125 
3 64 125 124 
3 63 62 120 
3 63 120 125 
3 171 126 6 
3 171 6 5 
3 128 127 224 
3 128 224 4 
3 129 128 4 
3 129 4 14 
3 130 175 225 
3 130 225 15 
3 15 7 131 
3 15 131 130 
3 6 126 131 
3 6 131 7 
3 6 7 133 
3 6 133 132 
3 15 134 133 
3 15 133 7 
3 135 134 15 
3 135 15 225 
3 136 199 14 
3 136 14 4 
3 137 136 4 
3 137 4 224 
3 132 200 5 
3 132 5 6 
3 51 50 139 
3 51 139 138 
3 140 139 50 
3 140 50 49 
3 141 140 49 
3 141 49 48 
3 48 194 197 
3 48 197 141 
3 53 52 143 
3 53 143 142 
3 52 192 195 
3 52 195 143 
3 45 44 145 
3 45 145 144 
3 146 145 44 
3 146 44 43 
3 147 146 43 
3 147 43 42 
3 42 190 193 
3 42 193 147 
3 47 46 149 
3 47 149 148 
3 46 188 191 
3 46 191 149 
3 39 38 151 
3 39 151 150 
3 152 151 38 
3 152 38 37 
3 153 152 37 
3 153 37 36 
3 36 186 189 
3 36 189 153 
3 41 40 155 
3 41 155 154 
3 40 184 187 
3 40 187 155 
3 173 32 157 
3 173 157 156 
3 158 157 32 
3 158 32 31 
3 159 158 31 
3 159 31 30 
3 30 169 185 
3 30 185 159 
3 35 34 161 
3 35 161 160 
3 34 33 183 
3 34 183 161 
3 18 19 163 
3 18 163 162 
3 177 20 164 
3 177 164 172 
3 165 164 20 
3 165 20 21 
3 166 165 21 
3 166 21 22 
3 22 23 168 
3 22 168 166 
3 179 18 162 
3 179 162 167 
