ply
format ascii 1.0
comment INFO-3111 Flatenator generated
comment TextureFile Dungeons_Texture_01.png
element vertex 406
property float x
property float y
property float z
property float nx
property float ny
property float nz
element face 500
property list uchar int vertex_indices
end_header
0.440556 5.04218 0.405296 0.749281 0.000148201 0.662253 
0.020477 5.03986 0.40494 -0.0010005 -0.000147116 1 
0.440643 4.60221 0.405296 0.801659 0.0916716 0.590711 
-0.031956 5.0422 0.405296 0.0240247 -0.0225018 0.999458 
-0.449486 5.02012 0.405296 -0.895265 -0.00579917 0.445496 
-0.444824 4.60139 0.405296 -0.430004 -0.0253472 0.902471 
0.020477 4.60458 0.404812 -0.00115356 -0.000294065 0.999999 
-0.032887 4.58289 0.331937 0.112824 -0.102815 0.988281 
-0.117573 4.59897 0.389437 0.20224 -0.869289 0.451039 
-0.032185 4.04845 0.332356 0.0646867 0.0972038 0.99316 
-0.447048 4.01173 0.405296 -0.645187 -0.00450847 0.764012 
-0.444012 3.57726 0.405296 -0.689045 0.0695079 0.721377 
-0.030571 3.67551 0.405134 -0.0450439 0.191154 0.980526 
0.440273 4.02523 0.405245 0.70473 -0.0446427 0.708069 
0.020477 4.02501 0.404978 -0.000635872 -0.000283862 1 
0.020439 3.57763 0.404851 0.0474335 -0.0453698 0.997844 
0.427067 3.62419 0.370001 0.701542 -0.0852773 0.707507 
-0.011978 3.55433 0.331588 0.013226 -0.198072 0.980098 
-0.032238 3.00282 0.405183 -0.0294455 0.0273174 0.999193 
-0.397682 2.97641 0.385049 -0.555324 0.100685 0.825517 
-0.444016 2.55486 0.405295 -0.627454 0.0553109 0.776687 
-0.032207 2.55503 0.405295 -9.84833e-08 0.000250176 1 
0.440258 3.00282 0.405231 0.883211 -0.0165863 0.468682 
0.020477 3.0026 0.404978 -0.000800007 -8.87067e-06 1 
0.4217 2.55461 0.405295 0.435663 -0.0180718 0.899929 
0.020477 2.55522 0.404895 -0.000997252 -0.000185525 1 
0.08704 1.96294 0.385103 -0.112295 0.719357 0.685503 
-0.010315 1.97751 0.332915 0.117978 0.166235 0.979003 
0.030136 1.8826 0.393307 -0.588186 0.125085 0.798994 
0.440269 1.98063 0.405295 0.539907 -0.00468164 0.841712 
0.020477 1.53307 0.404974 -0.0303229 0.0277249 0.999156 
0.397736 1.53289 0.405295 0.416871 -0.0396003 0.908103 
-0.032188 1.98063 0.405259 0.0633605 -0.0584185 0.996279 
-0.444012 1.98084 0.405295 -0.707071 -0.00270856 0.707137 
-0.442493 1.53287 0.405098 -0.685791 -0.0454772 0.726376 
-0.03022 1.52938 0.351892 0.126166 -0.115966 0.985208 
0.44112 1.53287 0.354617 0.973196 -0.024648 0.228653 
0.44062 0.955881 0.405295 0.894105 -0.00207135 0.447852 
0.03302 0.956319 0.405295 -0.00039576 -0.000361552 1 
0.440311 0.510492 0.405295 0.44693 -0.000633739 0.894569 
0.020477 0.510879 0.404963 -0.000791521 -0.000723104 1 
-0.065197 0.929118 0.390474 0.0417819 0.0385446 0.998383 
-0.444653 0.956549 0.405295 -0.827977 0.0207032 0.560381 
-0.032166 0.510455 0.405255 0.0208166 0.0191587 0.9996 
-0.442554 0.510455 0.405187 -0.707322 -0.00349931 0.706882 
0.017017 4.97554 0.316663 -0.782282 0.478293 0.399087 
0.450489 4.53671 0.394024 0.455438 0.000220214 0.890267 
-0.450489 4.53671 0.394024 -0.892922 0.00308481 0.450201 
-0.450459 4.09347 0.394149 -0.705472 -0.00257456 0.708733 
0.450459 4.09347 0.394149 0.949304 0.0301817 0.312909 
0.168381 3.5144 0.391476 -0.00419366 0.0117329 0.999922 
-0.283764 3.5144 0.391477 -0.125542 0.0525476 0.990696 
-0.450607 3.06544 0.394148 -0.237939 -0.0323039 0.970743 
0.450306 3.51478 0.393835 0.705039 0.0089914 0.709112 
0.45108 3.22736 0.394149 0.584178 -0.255302 0.770427 
-0.451199 3.45969 0.353816 -0.918598 0.0401119 0.393153 
0.367695 3.068 0.351144 0.451862 -0.445073 0.77313 
0.450302 2.49236 0.393828 0.725009 0.0532637 0.686676 
-0.450302 2.49236 0.393828 -0.253677 -0.0216815 0.967046 
0.057068 2.0421 0.393826 -0.0201642 -0.0227226 0.999538 
-0.451015 2.13972 0.394148 -0.877311 0.0109678 0.479796 
-0.366013 2.0457 0.368398 0.116789 -0.0344704 0.992558 
0.450302 2.04206 0.393828 0.70712 0 0.707093 
-0.332779 1.99541 0.330773 -0.439831 0.499148 0.746593 
0.141296 1.47171 0.394142 0.0163126 0.00724305 0.999841 
-0.450607 1.47179 0.394148 -0.446865 -0.00125276 0.894601 
0.057034 1.02241 0.393499 -0.000507534 -0.00105041 0.999999 
0.452087 1.47272 0.37821 0.576515 -0.036529 0.81627 
0.310848 1.11304 0.394148 0.107686 -0.0137566 0.99409 
0.419025 1.05291 0.359539 0.45105 -0.0750756 0.889335 
0.352428 1.03169 0.361855 0.309123 -0.690935 0.653492 
-0.450306 1.02241 0.393834 -0.894265 -0.00125378 0.447536 
0.368134 0.387309 0.390261 0.350509 0.730541 0.58605 
0.332832 0.455289 0.3295 0.492272 0.677157 0.546925 
0.1684 0.44414 0.390064 0.0526848 0.944402 0.324544 
-0.08353 0.1472 0.394148 0.00295305 0.00750588 0.999968 
0.452141 0.365844 0.357602 0.831958 0.0512493 0.552467 
0.450489 0 0.394027 0.778963 0.0299696 0.626353 
-0.450462 0.44324 0.394148 -0.705594 0.00296942 0.70861 
-0.450485 0 0.394027 0.0369775 -0.943672 0.328811 
-0.085117 0.036473 0.380212 0.00329354 -0.652754 0.757563 
0.168484 0.010535 0.387489 -0.0681329 -0.713594 0.697238 
-0.353531 4.5969 0.330473 -0.260761 -0.905693 0.334251 
-0.331837 4.02588 0.35402 -0.398043 0.840379 0.367866 
0.441132 3.00282 0.050661 0.994159 -0.063668 -0.0871413 
0.442009 2.69276 0.15087 0.989247 -0.0615728 -0.132665 
0.351284 2.03996 0.330513 0.278293 -0.876645 0.392487 
-0.029083 1.76529 0.353487 0.885377 -0.0182803 0.464514 
-0.03212 1.48276 0.3323 0.078309 0.418703 0.904741 
-0.333992 0.993629 0.330898 -0.583328 -0.0947865 0.806687 
0.033096 0.969675 0.332026 -0.301858 -0.0157572 0.953223 
0.141296 0 0.242758 -0.00752801 -0.992875 0.118924 
-0.445629 5.04322 -0.405297 -0.0251797 0.999583 0.0141066 
0.033642 5.04716 0.012658 -0.456504 0.889685 0.00803335 
-0.333824 4.5591 0.330769 -0.608948 0.502728 0.613552 
0.333969 4.04633 0.330817 0.586976 0.444984 0.676349 
-0.311661 3.55594 0.332654 -0.386932 -0.632608 0.670888 
0.336029 3.51524 0.35223 0.716293 0.183541 0.673229 
-0.366016 3.50782 0.33004 -0.344561 0.884551 0.314401 
0.452141 3.06452 0.195152 0.990773 -0.103629 0.0873514 
-0.351639 3.06272 -0.086411 -0.300672 -0.82878 -0.471932 
-0.332874 3.02077 0.330954 -0.506217 0.551294 0.663188 
-0.029789 3.00438 0.35221 0.0415241 0.765751 0.641796 
-0.444546 3.00282 0.278638 -0.988724 0.0413901 0.143919 
-0.032494 2.52931 0.332161 0.131727 -0.240141 0.961759 
0.333488 2.50766 0.330569 0.637394 -0.195916 0.745216 
-0.442871 2.45484 -0.042498 -0.9649 0.0694221 -0.253276 
-0.450645 2.04206 0.277406 -0.656658 -0.717204 0.233279 
0.355705 1.98379 0.330582 0.332336 0.883315 0.330616 
-0.010269 1.52537 0.332901 0.0267906 -0.280775 0.9594 
-0.333229 1.48214 0.330304 -0.656098 0.247224 0.713033 
0.452141 1.25246 0.354815 0.957797 -0.030858 0.285785 
-0.450932 1.47202 -0.139685 -0.707299 -0.00154496 -0.706913 
0.355751 0.961165 0.330574 0.744435 0.591294 0.310143 
0.008705 0.455733 0.331645 0.117497 -0.094451 0.988572 
0.452141 0.445571 0.244068 0.999992 -0.00317188 -0.00223676 
-0.450886 0 0.109978 -0.999992 -0.0021555 -0.00338959 
0.351311 4.53869 0.330526 0.831735 0.14815 0.53504 
-0.452141 4.28882 0.195061 -0.999999 -5.91693e-05 0.0012098 
-0.333588 4.07033 0.33058 -0.800144 -0.435993 0.411921 
0.44043 3.57704 0.226878 0.999272 -0.0139338 0.0355057 
-0.336174 2.49262 0.352371 -0.863263 0.456486 0.215399 
-0.333042 0.456128 0.33015 -0.662253 0.447692 0.600827 
0.35564 4.59635 -0.088139 0.508014 -0.543882 -0.667918 
-0.450882 4.09313 -0.139684 -0.706514 -0.00205339 -0.707696 
-0.450287 3.51478 -0.139033 -0.170788 0.984796 -0.031766 
-0.450932 3.06521 -0.139684 -0.706979 0.000480475 -0.707234 
0.440475 1.98111 -0.102428 0.999018 0.0396804 -0.0196984 
-0.450279 2.04206 -0.139023 -0.444239 -0.873766 -0.197951 
-0.450287 1.02241 -0.139034 -0.307873 -0.916114 -0.256805 
0.354893 0.508142 -0.087791 0.410722 -0.655101 -0.634153 
0.425148 4.53671 -0.139401 0.890448 0.0437637 -0.452976 
-0.324169 3.5357 0.104347 -0.993243 -0.115991 0.0038494 
0.334301 2.50779 -0.087134 0.537163 0.265621 -0.800563 
0.333931 1.48233 -0.086838 0.545393 0.715599 -0.436424 
0.355434 3.00368 -0.088069 0.428799 0.860313 -0.275668 
-0.354717 0.960862 -0.088225 -0.459895 0.477668 -0.748552 
0.440643 4.60221 -0.405297 0.0207429 -0.999677 -0.0146841 
-0.336227 4.08609 -0.103578 -0.392584 -0.884804 -0.250997 
0.335526 3.57482 -0.101228 0.256023 -0.93263 -0.254269 
0.450287 3.51478 -0.139033 0.00203898 0.999998 -0.000474082 
0.335281 1.53171 -0.100744 0.243031 -0.835501 -0.492822 
0.45047 0 -0.139223 0.893742 -0.00254907 -0.448573 
0.393265 5.02123 0.025844 0.072067 0.997392 -0.00407372 
-0.015301 4.96372 -0.024741 0.128476 0.99154 0.0185075 
-0.336018 4.53751 -0.103289 -0.35455 0.882971 -0.307665 
0.351753 4.08506 -0.086448 0.428021 -0.84509 -0.320346 
-0.332748 3.00295 -0.101213 -0.333712 0.892091 -0.304647 
0.366455 2.56301 0.012445 0.858026 -0.511217 -0.0494787 
0.450287 1.02241 -0.139034 0.388193 -0.92082 0.037373 
-0.450886 0.443582 -0.139685 -0.0571963 0.991037 -0.120725 
-0.333706 0.456287 -0.086596 -0.384102 0.523987 -0.760199 
0.450886 0.443582 -0.139685 0.178351 0.945697 -0.27175 
-0.354519 4.59659 -0.088103 -0.445769 -0.778613 -0.441647 
-0.354134 4.02619 -0.087957 -0.51228 0.732124 -0.448959 
0.440273 4.02523 -0.405246 0.0207862 0.999645 -0.016695 
-0.332672 2.55195 -0.10107 -0.416407 -0.866044 -0.276718 
-0.33374 1.99541 -0.086842 -0.510934 0.318742 -0.798342 
-0.353668 0.508507 -0.087687 -0.396686 -0.87024 -0.292101 
0.442013 4.89987 0.012658 0.979656 0.176523 0.0954622 
0.335461 4.02582 -0.101104 0.218511 0.824105 -0.522592 
-0.349255 2.48795 -0.130078 -0.368105 0.749327 -0.550461 
0.335808 1.02077 -0.102998 0.562011 -0.650903 -0.510361 
0.440311 0.510492 -0.405298 0.70706 -0.00152929 -0.707152 
-0.268406 0.000491 -0.138503 -0.187431 -0.972379 -0.1391 
0.268459 3.51478 -0.139275 0.274251 0.691883 -0.667895 
0.40435 2.69597 0.075241 0.975415 -0.131113 -0.177129 
0.335808 0.960758 -0.101827 0.57808 0.790025 -0.204163 
-0.444016 2.55486 -0.405298 -0.706513 0.00121338 -0.707699 
0.450279 2.04206 -0.139023 0.00714579 -0.999514 -0.030342 
0.450932 1.47202 -0.139685 0.0304671 0.990194 -0.136338 
0.451241 4.26927 -0.139684 0.557804 0.0271488 -0.829529 
-0.45047 4.53671 -0.139218 -0.706403 0.0034305 -0.707801 
-0.444824 4.60139 -0.405297 -0.699129 -0.0515238 -0.713137 
-0.336159 3.51517 -0.103492 -0.512051 0.848765 -0.131915 
0.368629 3.06447 -0.086739 0.216756 -0.8671 -0.448503 
-0.442478 3.00282 -0.405108 -0.705917 0.00272411 -0.708289 
0.33596 2.04113 -0.10323 0.552046 -0.424072 -0.71792 
-0.353798 1.53135 -0.087776 -0.313224 -0.920302 -0.234383 
-0.333965 1.48232 -0.086823 -0.385725 0.502053 -0.774054 
0.440254 1.53287 -0.405232 0.00498183 -0.999979 -0.00416039 
-0.031887 5.04221 -0.405297 0.920536 0.387025 -0.0531579 
-0.444012 1.98084 -0.405298 -0.065421 0.997593 -0.0229825 
0.440273 2.55507 -0.405298 0.910582 -0.0502789 -0.410258 
0.375744 2.55676 -0.124671 -0.675211 0.713854 0.185748 
0.440556 5.04218 -0.405297 0.708062 0.132119 -0.693681 
0.450932 3.06521 -0.139684 0.00253582 -0.999947 -0.00997653 
0.440258 3.00282 -0.405233 0.00291708 0.999994 -0.00188014 
0.392231 2.5634 -0.089375 0.726546 -0.677142 -0.116658 
0.450882 4.09313 -0.139684 0.038806 -0.981888 -0.185445 
-0.333885 3.55703 -0.087138 -0.422296 -0.864129 -0.273766 
-0.442253 0.510681 -0.240655 -0.208832 -0.970652 -0.119267 
-0.448715 0.127772 -0.137356 -0.446345 -0.00478943 -0.894848 
0.451241 3.30362 -0.139684 0.371291 0.001729 -0.928515 
0.03476 4.59686 -0.101911 -0.0945096 -0.901216 -0.42294 
-0.030674 4.53756 -0.103296 -0.0113767 0.605868 -0.795484 
-0.162285 4.06881 -0.092064 -0.0137435 -0.52463 -0.851219 
-0.442509 4.02523 -0.405109 0.0446384 0.993976 -0.100098 
0.017887 4.02651 -0.100285 0.0417489 0.824488 -0.564337 
-0.032906 3.55535 -0.091848 -0.0675713 -0.179146 -0.981499 
-0.032028 3.00336 -0.100944 0.00569218 0.835571 -0.549354 
0.018284 2.55324 -0.100346 0.0313235 -0.660814 -0.749896 
0.028664 2.04002 -0.105206 0.00951729 -0.74292 -0.669313 
0.018047 1.9801 -0.100607 0.0470537 0.658194 -0.751377 
-0.032154 1.53004 -0.100389 -0.100275 -0.823002 -0.559117 
-0.054276 1.48288 -0.091991 -0.00168878 0.551882 -0.833921 
0.098907 1.02241 -0.139318 -0.0190927 -0.617503 -0.786337 
-0.052383 0.960759 -0.102283 0.205271 0.743856 -0.636036 
-0.028313 0.931619 -0.101372 0.225695 0.32349 -0.918921 
0.018002 0.506677 -0.100012 -0.00629281 -0.816367 -0.5775 
-0.162308 0.456934 -0.0917 -0.0139895 0.555302 -0.831531 
-0.444057 3.576 -0.316641 -0.0941718 -0.980342 -0.173384 
0.020477 3.57765 -0.404868 0.0191455 -0.81326 -0.581586 
-0.183701 3.06682 -0.139678 0.00195817 -0.99883 -0.048327 
-0.183685 2.04435 -0.139309 0.0260548 -0.885868 -0.463205 
-0.032173 1.98065 -0.405298 0.612672 0.753739 -0.23772 
0.441315 1.81945 -0.405298 0.697734 0.15901 -0.698487 
0.440269 3.57747 -0.405297 0.0114325 -0.999923 -0.00478343 
-0.032169 2.55505 -0.405298 0.00139592 -0.999972 -0.00741018 
-0.182343 1.53288 -0.405298 0.154945 -0.945368 -0.28683 
-0.451557 0.622485 -0.378957 -0.939642 0.00428812 -0.342132 
-0.029228 3.98992 -0.101009 -0.865195 0.499619 0.0426548 
0.020477 4.02496 -0.404942 -0.390139 0.873102 -0.292377 
0.020477 0.953479 -0.404802 0.199589 0.885842 -0.418865 
-0.032177 3.57745 -0.405297 -0.0230322 -0.920186 -0.390804 
0.020477 1.98045 -0.404867 -0.527391 0.725692 -0.441848 
-0.015228 1.58197 -0.379491 -0.153681 -0.496739 -0.854185 
0.020477 1.53312 -0.404944 -0.614802 -0.665462 -0.423295 
-0.44207 1.53336 -0.316354 -0.0126546 -0.999912 -0.00391878 
-0.029816 4.99692 -0.392282 0.835692 0.320546 -0.445947 
0.441364 0.777771 -0.405298 0.800438 0.470425 -0.371482 
-0.028034 0.543383 -0.101796 0.00837704 -0.999964 -0.000971069 
0.020477 0.510938 -0.404938 -0.203829 -0.929076 -0.308662 
0.425114 1.96843 -0.309978 0.208501 0.975142 -0.0750016 
0.336025 1.98021 -0.404522 0.105274 0.993664 -0.0393658 
-0.421261 0.958566 -0.405298 -0.00972997 0.999911 -0.00907257 
-0.032154 0.510455 -0.405288 0.21413 -0.855794 -0.470919 
0.020477 5.03982 -0.404874 -0.563138 0.641005 -0.521526 
0.411041 0.930906 -0.36439 0.580681 0.708625 -0.400825 
-0.0298 4.6425 -0.392337 0.120169 -0.821191 -0.557858 
0.020477 4.60462 -0.404777 -0.379829 -0.625814 -0.681239 
0.020477 3.00257 -0.404958 -2.82625e-05 0.999997 -0.00261951 
-0.030666 3.93591 -0.405297 -0.0173804 0.27388 -0.961607 
-0.015663 1.93944 -0.377846 0.513938 0.369396 -0.774218 
-0.376633 3.87027 -0.405297 -0.31888 -0.0592923 -0.945939 
-0.398415 0.541815 -0.403306 -0.516817 -0.804304 -0.29325 
-0.029655 4.87925 -0.392126 0.585358 7.36237e-05 -0.810775 
-0.375237 3.60857 -0.39812 -0.0903896 -0.89611 -0.43453 
-0.030674 1.6225 -0.405298 0.716999 -0.158382 -0.678843 
-0.447186 1.70402 -0.405298 -0.32146 -0.10932 -0.940592 
-0.030678 4.85525 -0.405297 0.995204 0.0026887 -0.0977806 
-0.030632 4.74006 -0.405297 0.997319 -7.6083e-05 -0.0731751 
-0.031956 5.0422 0.405296 0.718461 0.624784 0.305709 
-0.117573 4.59897 0.389437 0.0480234 -0.0449793 0.997833 
-0.030571 3.67551 0.405134 0.695832 -0.291572 0.656356 
-0.444012 3.57726 0.405296 -0.144249 -0.955856 0.255992 
0.08704 1.96294 0.385103 -0.0597454 0.0553237 0.996679 
0.020477 1.53307 0.404974 -0.423885 -0.477981 0.769321 
0.020477 5.03986 0.40494 -0.876732 0.480843 0.0114094 
0.020477 4.60458 0.404812 -0.652239 -0.528718 0.543178 
-0.444012 1.98084 0.405295 -0.0872435 0.994084 0.064702 
-0.032188 1.98063 0.405259 0.709837 0.678035 0.190787 
0.310848 1.11304 0.394148 0.120787 -0.31232 0.942267 
0.057034 1.02241 0.393499 0.0700077 -0.638406 0.766509 
0.419025 1.05291 0.359539 0.621596 -0.620803 0.477727 
0.368134 0.387309 0.390261 0.131015 0.0380094 0.990651 
0.1684 0.44414 0.390064 0.00447235 0.00995834 0.999941 
-0.08353 0.1472 0.394148 -0.00596539 -0.115886 0.993245 
0.450489 0 0.394027 -0.0279377 -0.889305 0.456461 
-0.444824 4.60139 0.405296 -0.0354489 -0.999203 0.0183312 
-0.447048 4.01173 0.405296 -0.0846408 0.99517 0.0497224 
-0.032185 4.04845 0.332356 -0.243039 0.180387 0.953096 
0.057068 2.0421 0.393826 0.0105842 -0.807849 0.589294 
-0.366013 2.0457 0.368398 -0.410141 -0.854333 0.319215 
0.450302 2.04206 0.393828 0.0105591 -0.999805 0.0166626 
-0.03022 1.52938 0.351892 0.569435 -0.359692 0.739165 
-0.450607 1.47179 0.394148 -0.0302881 0.993398 0.110644 
0.141296 1.47171 0.394142 0.00262483 0.985649 0.168788 
-0.065197 0.929118 0.390474 0.461568 0.501297 0.731885 
-0.444653 0.956549 0.405295 -0.109414 0.979137 0.171227 
0.44062 0.955881 0.405295 0.221186 0.975048 0.0189029 
0.03302 0.956319 0.405295 -0.696606 0.70595 0.127963 
0.020477 0.510879 0.404963 -0.88873 -0.323007 0.32531 
-0.449486 5.02012 0.405296 -0.0527762 0.998209 0.0281883 
0.440556 5.04218 0.405296 0.0343401 0.999147 -0.0229134 
-0.450489 4.53671 0.394024 -0.074837 0.992433 0.0973498 
0.450489 4.53671 0.394024 0.0230765 0.961331 0.274426 
0.450459 4.09347 0.394149 0.173656 -0.96647 0.189157 
-0.450459 4.09347 0.394149 -0.0727658 -0.955602 0.285535 
0.427067 3.62419 0.370001 0.475305 -0.513689 0.714289 
0.020439 3.57763 0.404851 -0.552559 -0.387663 0.737832 
-0.451199 3.45969 0.353816 -0.422208 0.871104 0.250834 
-0.283764 3.5144 0.391477 -0.192452 0.96918 0.153793 
0.168381 3.5144 0.391476 -0.00312877 0.962885 0.269893 
0.450306 3.51478 0.393835 0.00130629 0.99997 0.00760912 
-0.450607 3.06544 0.394148 -0.136181 -0.971116 0.19593 
0.367695 3.068 0.351144 0.51474 0.216107 0.829663 
-0.397682 2.97641 0.385049 -0.201634 0.861962 0.46515 
-0.032238 3.00282 0.405183 0.714354 0.659997 0.2326 
0.020477 3.0026 0.404978 -0.525431 0.493035 0.693426 
0.440258 3.00282 0.405231 0.285707 0.923184 0.257105 
-0.032207 2.55503 0.405295 0.707719 -0.667367 0.231852 
-0.444016 2.55486 0.405295 -0.127421 -0.943609 0.305559 
0.4217 2.55461 0.405295 0.565404 -0.816069 0.119787 
0.020477 2.55522 0.404895 -0.34913 -0.717182 0.603124 
-0.451015 2.13972 0.394148 -0.879474 -0.366413 0.303753 
0.440269 1.98063 0.405295 -0.00962604 0.998538 0.0531812 
-0.442493 1.53287 0.405098 -0.149858 -0.968046 0.201072 
0.397736 1.53289 0.405295 0.504139 -0.624085 0.59696 
0.452087 1.47272 0.37821 0.280855 0.892528 0.352867 
-0.450306 1.02241 0.393834 -0.10571 -0.935113 0.338215 
-0.032166 0.510455 0.405255 0.372769 -0.637481 0.674286 
0.440311 0.510492 0.405295 0.143972 -0.942961 0.300162 
-0.450485 0 0.394027 -0.706685 -0.000156509 0.707528 
0.440643 4.60221 0.405296 0.2593 -0.943585 0.205938 
0.020477 4.02501 0.404978 -0.337556 0.804484 0.488734 
0.440273 4.02523 0.405245 0.0983891 0.985425 0.138774 
-0.450302 2.49236 0.393828 -0.109647 0.988136 0.107541 
0.450302 2.49236 0.393828 -0.197356 0.968411 0.152415 
-0.442554 0.510455 0.405187 -0.184964 -0.96597 0.180806 
-0.450462 0.44324 0.394148 -0.0547672 0.99352 0.0995928 
-0.450932 3.06521 -0.139684 -0.00966071 -0.999541 -0.0287315 
-0.444546 3.00282 0.278638 -0.153606 0.982284 0.107348 
0.452141 0.365844 0.357602 0.396982 0.751125 0.527462 
0.452141 0.445571 0.244068 0.324316 0.868548 0.374758 
0.440475 1.98111 -0.102428 0.147737 0.969008 -0.197983 
0.44043 3.57704 0.226878 0.404863 -0.912643 0.0562953 
-0.450279 2.04206 -0.139023 -0.707119 0.0882567 -0.701565 
-0.450932 1.47202 -0.139685 -0.0454858 0.993866 -0.100803 
0.44112 1.53287 0.354617 0.00651939 -0.999978 0.00103423 
0.393265 5.02123 0.025844 0.967367 0.238082 0.0867033 
0.425148 4.53671 -0.139401 0.187973 0.960475 -0.205313 
-0.450882 4.09313 -0.139684 -0.0584391 -0.992743 -0.105098 
0.442009 2.69276 0.15087 0.928141 -0.220625 -0.299797 
-0.450287 1.02241 -0.139034 -0.707276 -0.0020382 -0.706935 
0.452141 1.25246 0.354815 0.984249 -0.16164 0.0716017 
0.440643 4.60221 -0.405297 0.893701 -0.00196952 -0.448659 
0.45047 0 -0.139223 -0.000228056 -1 -0.000385313 
0.440273 4.02523 -0.405246 0.706753 0.000102543 -0.70746 
-0.450886 0 0.109978 -0.283095 -0.935875 -0.209749 
0.441132 3.00282 0.050661 0.0100301 0.99995 2.66961e-06 
0.40435 2.69597 0.075241 0.970119 -0.241437 -0.0240095 
-0.450886 0.443582 -0.139685 -0.89233 -0.00619857 -0.451342 
0.450287 3.51478 -0.139033 0.894623 0.00522845 -0.446791 
-0.442871 2.45484 -0.042498 -0.402163 0.911591 -0.0852499 
0.450886 0.443582 -0.139685 0.314541 -0.00182922 -0.949242 
-0.445629 5.04322 -0.405297 -0.315768 -0.000575313 -0.948836 
0.452141 3.06452 0.195152 -0.00944744 -0.999951 0.00295533 
0.440311 0.510492 -0.405298 0.0103343 -0.999924 -0.00671812 
0.450279 2.04206 -0.139023 0.43893 0.0690477 -0.895864 
-0.442478 3.00282 -0.405108 -0.000672769 1 -0.000819498 
0.440254 1.53287 -0.405232 0.895008 -0.00163479 -0.446046 
0.450932 1.47202 -0.139685 0.706309 -0.00113748 -0.707902 
-0.450287 3.51478 -0.139033 -0.447167 0.00202479 -0.894448 
-0.444016 2.55486 -0.405298 -0.0128564 -0.999906 -0.00487198 
-0.45047 4.53671 -0.139218 -0.00239067 0.999883 -0.015139 
0.440258 3.00282 -0.405233 0.446636 0.000453973 -0.894716 
0.440273 2.55507 -0.405298 0.393276 -0.916679 0.0709446 
0.375744 2.55676 -0.124671 0.367654 0.0790786 -0.926594 
0.450287 1.02241 -0.139034 0.7063 -0.00203821 -0.707909 
0.450882 4.09313 -0.139684 0.707386 -0.00144177 -0.706826 
0.450932 3.06521 -0.139684 0.705824 -0.000914781 -0.708386 
-0.448715 0.127772 -0.137356 -0.532137 -0.750301 -0.392274 
-0.444012 1.98084 -0.405298 -0.955846 0.00114233 -0.293865 
-0.442509 4.02523 -0.405109 -0.638838 -0.0466707 -0.767924 
-0.349255 2.48795 -0.130078 -0.172536 0.0906129 -0.980827 
-0.442253 0.510681 -0.240655 -0.99956 -0.026009 0.0142389 
0.268459 3.51478 -0.139275 0.000497102 0.00236729 -0.999997 
-0.183701 3.06682 -0.139678 6.76654e-06 -4.35027e-05 -1 
0.334301 2.50779 -0.087134 -0.304304 0.0302976 -0.952093 
-0.183685 2.04435 -0.139309 -0.000360261 0.0206706 -0.999786 
0.098907 1.02241 -0.139318 9.70404e-05 -0.00123801 -0.999999 
-0.268406 0.000491 -0.138503 -0.00242205 0.00126422 -0.999996 
0.440556 5.04218 -0.405297 0.0321041 0.999297 0.0193468 
-0.444057 3.576 -0.316641 -0.813025 -0.0722249 -0.577732 
0.441364 0.777771 -0.405298 0.707316 -0.00278655 -0.706892 
0.440269 3.57747 -0.405297 0.706655 7.43223e-05 -0.707558 
0.425114 1.96843 -0.309978 0.879129 0.320991 -0.352275 
-0.444824 4.60139 -0.405297 0.0166069 -0.997794 -0.0642774 
-0.421261 0.958566 -0.405298 -0.445453 0.0166545 -0.89515 
-0.44207 1.53336 -0.316354 -0.932642 -0.180303 -0.312523 
-0.451557 0.622485 -0.378957 -0.833954 -0.45523 -0.311907 
0.336025 1.98021 -0.404522 0.24977 0.166211 -0.953933 
-0.030678 4.85525 -0.405297 0 0 -1 
-0.030632 4.74006 -0.405297 0.0146725 -0.0438262 -0.998932 
-0.031887 5.04221 -0.405297 0 0 -1 
0.020477 5.03982 -0.404874 -0.00100573 -0.000222903 -1 
0.020477 4.60462 -0.404777 -0.00112169 -0.000111574 -0.999999 
-0.0298 4.6425 -0.392337 0.0439234 -0.131197 -0.990383 
-0.030666 3.93591 -0.405297 -0.000456123 1.92262e-06 -1 
-0.032177 3.57745 -0.405297 -0.00741635 -0.00854446 -0.999936 
0.020477 4.02496 -0.404942 -0.000724016 -0.000165432 -1 
0.020477 3.57765 -0.404868 -0.000872955 -2.57373e-05 -1 
-0.375237 3.60857 -0.39812 -0.428594 -0.027053 -0.903092 
0.020477 3.00257 -0.404958 -0.000110563 0.0006732 -1 
-0.032169 2.55505 -0.405298 -0.000218639 0.000580585 -1 
-0.032173 1.98065 -0.405298 0 0 -1 
0.020477 1.53312 -0.404944 -0.000815506 0.000967482 -0.999999 
0.020477 1.98045 -0.404867 0.00109344 0.000172154 -0.999999 
-0.030674 1.6225 -0.405298 0 0 -1 
-0.182343 1.53288 -0.405298 -0.151078 -0.233793 -0.960477 
0.020477 0.953479 -0.404802 0.00113392 0.000962333 -0.999999 
-0.032154 0.510455 -0.405288 -0.00235706 -0.00206898 -0.999995 
-0.398415 0.541815 -0.403306 -0.235496 -0.0175544 -0.971717 
0.020477 0.953479 -0.404802 -0.00101682 0.000155996 -1 
0.020477 0.510938 -0.404938 -0.000857113 0.000307356 -1 
3 0 1 2
3 3 4 5
3 1 6 2
3 7 252 8
3 3 5 253
3 9 10 11
3 9 11 12
3 13 14 15
3 13 15 16
3 254 255 17
3 18 19 20
3 18 20 21
3 22 23 24
3 23 25 24
3 26 27 28
3 29 256 30
3 26 28 257
3 29 30 31
3 32 33 34
3 32 34 35
3 29 31 36
3 37 38 39
3 38 40 39
3 41 42 43
3 42 44 43
3 258 45 259
3 46 47 48
3 46 48 49
3 50 51 52
3 53 50 52
3 53 52 54
3 51 55 52
3 54 52 56
3 57 58 59
3 58 60 61
3 58 61 59
3 57 59 62
3 63 260 261
3 64 65 66
3 67 64 68
3 67 68 69
3 68 64 66
3 262 263 70
3 264 262 70
3 66 65 71
3 72 73 74
3 265 266 75
3 76 265 77
3 75 77 265
3 78 75 266
3 267 79 80
3 267 80 81
3 268 267 81
3 82 8 269
3 83 270 271
3 84 22 85
3 63 272 273
3 86 274 272
3 27 261 87
3 87 261 275
3 88 276 277
3 278 89 279
3 280 90 281
3 281 90 282
3 91 268 81
3 92 283 252
3 93 258 284
3 45 252 7
3 94 285 286
3 95 287 288
3 96 17 255
3 97 289 290
3 98 291 292
3 293 98 292
3 97 293 294
3 99 53 54
3 100 101 295
3 101 296 295
3 101 297 298
3 102 101 298
3 296 299 300
3 19 103 20
3 104 102 298
3 104 298 301
3 302 104 301
3 105 303 304
3 58 106 60
3 107 273 305
3 27 63 261
3 306 108 26
3 257 28 109
3 110 275 307
3 109 308 257
3 88 110 276
3 309 88 277
3 111 67 69
3 65 112 71
3 89 90 310
3 113 90 280
3 311 114 278
3 282 90 114
3 114 312 282
3 73 114 74
3 76 77 115
3 78 116 313
3 80 91 81
3 259 45 7
3 8 82 7
3 7 117 259
3 314 259 117
3 82 94 7
3 94 286 7
3 286 117 7
3 47 118 48
3 288 119 271
3 95 288 271
3 119 83 271
3 315 95 271
3 316 95 315
3 290 315 271
3 120 13 16
3 254 17 271
3 290 271 17
3 97 290 17
3 96 98 17
3 293 17 98
3 293 97 17
3 296 101 102
3 299 296 102
3 299 102 104
3 304 299 104
3 85 22 24
3 104 302 121
3 105 304 104
3 121 317 104
3 317 105 104
3 317 318 105
3 272 63 27
3 86 272 27
3 86 27 108
3 26 108 27
3 87 109 27
3 28 27 109
3 87 275 109
3 275 110 88
3 109 275 88
3 308 109 88
3 308 88 309
3 263 310 90
3 70 263 90
3 70 90 113
3 278 90 89
3 278 114 90
3 311 319 122
3 311 122 114
3 312 114 73
3 320 74 122
3 74 114 122
3 91 80 79
3 123 314 117
3 118 124 48
3 98 125 291
3 99 54 56
3 55 126 52
3 321 100 295
3 101 322 297
3 127 29 36
3 72 323 324
3 305 128 107
3 325 108 306
3 324 73 72
3 326 289 97
3 310 129 89
3 73 130 312
3 131 46 49
3 132 96 255
3 133 105 318
3 308 309 134
3 300 135 296
3 106 327 60
3 110 328 276
3 136 279 89
3 123 137 314
3 288 138 119
3 97 139 326
3 140 97 294
3 141 329 308
3 115 77 142
3 143 93 284
3 252 45 144
3 330 0 2
3 94 145 285
3 331 117 286
3 332 138 288
3 146 287 95
3 100 147 101
3 148 333 303
3 148 303 105
3 112 334 71
3 70 149 264
3 150 320 122
3 151 150 122
3 152 73 324
3 82 153 94
3 119 154 83
3 155 95 316
3 98 96 132
3 302 156 121
3 273 157 63
3 134 141 308
3 149 335 264
3 129 136 89
3 319 158 122
3 330 2 159
3 159 2 336
3 119 138 154
3 79 337 91
3 154 270 83
3 155 160 95
3 338 13 120
3 161 317 121
3 162 149 70
3 37 39 163
3 339 164 79
3 164 337 79
3 140 165 97
3 113 162 70
3 160 146 95
3 340 135 300
3 84 85 166
3 341 333 148
3 148 105 133
3 280 167 113
3 342 116 78
3 103 168 20
3 86 169 274
3 309 170 134
3 131 49 171
3 47 172 118
3 343 53 99
3 101 147 322
3 161 344 317
3 161 121 156
3 345 115 142
3 258 93 45
3 4 346 173
3 4 173 5
3 145 94 153
3 174 125 98
3 174 98 132
3 175 347 296
3 103 176 168
3 177 169 86
3 307 178 110
3 110 178 179
3 180 329 141
3 179 328 110
3 130 348 312
3 331 123 117
3 165 139 97
3 57 62 349
3 337 268 91
3 181 252 144
3 45 93 144
3 135 175 296
3 147 350 322
3 108 177 86
3 157 182 260
3 157 260 63
3 127 36 351
3 352 67 111
3 55 353 126
3 183 84 166
3 354 156 302
3 184 133 318
3 325 177 108
3 130 73 152
3 330 159 185
3 145 355 285
3 172 124 118
3 186 347 175
3 187 135 340
3 183 356 84
3 188 341 148
3 146 189 287
3 255 190 132
3 190 174 132
3 357 341 188
3 358 57 349
3 352 111 359
3 191 158 319
3 116 342 192
3 269 153 82
3 171 49 360
3 343 99 193
3 361 193 99
3 188 148 133
3 128 273 107
3 128 157 273
3 162 113 167
3 122 158 151
3 194 195 153
3 194 123 195
3 195 145 153
3 138 196 154
3 154 197 270
3 198 154 196
3 160 198 196
3 160 196 146
3 190 199 174
3 165 199 139
3 100 175 200
3 200 147 100
3 135 200 175
3 201 188 133
3 161 156 201
3 133 161 201
3 157 202 203
3 202 177 203
3 325 203 177
3 178 204 179
3 204 141 205
3 141 134 205
3 179 204 205
3 134 170 205
3 129 206 136
3 206 207 136
3 206 208 207
3 206 162 208
3 162 167 208
3 158 209 151
3 209 130 210
3 130 152 210
3 151 209 210
3 362 164 339
3 137 123 194
3 355 145 195
3 331 355 195
3 331 195 123
3 332 196 138
3 196 189 146
3 211 190 255
3 212 139 199
3 199 125 174
3 213 175 100
3 157 214 202
3 215 182 157
3 215 157 203
3 33 363 34
3 216 127 351
3 180 141 204
3 328 179 205
3 191 209 158
3 210 150 151
3 181 92 252
3 332 189 196
3 198 197 154
3 10 364 11
3 212 217 139
3 125 199 165
3 321 213 100
3 213 186 175
3 218 201 156
3 365 327 106
3 214 157 128
3 214 169 202
3 169 177 202
3 219 204 178
3 328 205 170
3 220 366 42
3 42 366 44
3 348 130 209
3 152 150 210
3 172 171 124
3 171 360 124
3 221 198 222
3 353 367 193
3 367 343 193
3 353 193 126
3 193 368 126
3 368 193 361
3 365 369 349
3 369 358 349
3 365 370 327
3 365 349 370
3 112 352 371
3 112 371 334
3 206 149 162
3 371 352 359
3 167 223 208
3 342 345 192
3 192 345 372
3 372 345 142
3 159 336 185
3 224 199 190
3 200 350 147
3 218 357 201
3 325 225 203
3 373 93 143
3 199 224 212
3 217 326 139
3 357 188 201
3 204 226 227
3 228 178 307
3 181 144 229
3 364 374 11
3 207 208 223
3 167 280 230
3 375 37 163
3 231 232 209
3 160 222 198
3 233 234 325
3 219 226 204
3 136 235 279
3 236 231 209
3 93 237 144
3 229 144 237
3 338 120 376
3 228 219 178
3 227 180 204
3 238 167 230
3 194 239 240
3 187 241 200
3 135 187 200
3 242 198 221
3 211 224 190
3 234 225 325
3 215 203 243
3 377 127 216
3 240 137 194
3 354 218 156
3 242 197 198
3 191 236 209
3 378 153 269
3 200 241 350
3 42 379 220
3 237 93 373
3 242 221 222
3 364 244 374
3 243 203 225
3 34 363 380
3 207 235 136
3 223 167 238
3 191 381 245
3 231 236 232
3 245 236 191
3 232 348 209
3 246 229 237
3 246 237 240
3 239 246 240
3 378 194 153
3 378 239 194
3 155 222 160
3 242 222 212
3 224 242 212
3 247 224 211
3 382 377 216
3 248 243 226
3 226 243 225
3 226 225 227
3 363 249 380
3 223 235 207
3 236 223 232
3 181 229 250
3 250 229 246
3 250 246 251
3 251 246 239
3 215 243 248
3 346 383 384
3 346 385 383
3 346 384 173
3 386 185 387
3 384 388 173
3 387 185 336
3 364 389 390
3 364 390 244
3 391 338 392
3 374 244 393
3 392 338 376
3 244 390 393
3 176 394 168
3 394 395 168
3 394 356 395
3 395 356 183
3 363 396 249
3 382 216 397
3 398 382 397
3 396 399 249
3 397 216 351
3 249 399 400
3 248 226 219
3 249 400 380
3 379 401 402
3 402 403 379
3 238 230 223
3 404 375 163
3 404 163 405
3 379 403 220
3 78 313 75
3 172 131 171
