ply
format ascii 1.0
comment VCGLIB generated
comment TextureFile Dungeons_Texture_01.png
element vertex 117
property float x
property float y
property float z
property float nx
property float ny
property float nz
property uchar red
property uchar green
property uchar blue
property uchar alpha
property float texture_u
property float texture_v
element face 128
property list uchar int vertex_indices
end_header
4.921295 -0 0.078705 -0.2056179 -0.9567865 0.2056236 120 120 119 255 0.19968 0.305125
3.941771 1.439219 1.058229 -0.3628259 -0.8583193 0.3628296 120 120 119 255 0.19968 0.305125
3.878807 1.468929 0.969811 -0.7515176 -0.593501 -0.288059 120 120 119 255 0.19968 0.305125
4.745338 0.182224 0.102692 -0.8208905 -0.5452872 -0.1697078 120 120 119 255 0.19968 0.305125
2.5 2.001526 2.351347 -7.781979e-08 -0.9539545 -0.2999516 120 120 119 255 0.19968 0.305125
2.5 1.989431 2.5 2.058183e-09 -1 -2.305165e-07 120 120 119 255 0.19968 0.305125
2.5 1.611129 0.883966 -0.07561669 -0.9160332 0.3939103 97 95 95 255 0.20021 0.279913
3.892178 1.556886 0.880871 -0.2209136 -0.8694252 0.4419244 97 95 95 255 0.20021 0.279913
2.5 2.10553 2.286012 -0.03598246 -0.9424722 0.3323423 97 95 95 255 0.20021 0.279913
3.802589 1.043996 -0.027893 -0.2610785 -0.8566878 0.4448866 97 95 95 255 0.20021 0.279913
2.5 1.258394 -0.046586 -0.1570218 -0.9234757 0.3500527 97 95 95 255 0.20021 0.279913
4.782787 0.24936 -0.013827 -0.5673578 -0.6919433 0.4464524 97 95 95 255 0.20021 0.279913
5.010557 0.064708 -0.01056 -0.3987884 -0.505448 -0.7651733 120 120 119 255 0.19968 0.305125
2.5 2.180989 2.5 -1 0 0 120 120 119 255 0.19968 0.305125
0.078705 -0 0.078705 0.2056181 -0.9567864 0.2056234 120 120 119 255 0.19968 0.305125
1.058229 1.439219 1.058229 0.3628258 -0.8583193 0.3628297 120 120 119 255 0.19968 0.305125
0.969809 1.468929 1.121193 -0.2880686 -0.5934939 0.7515194 120 120 119 255 0.19968 0.305125
0.102695 0.182224 0.254658 -0.1697037 -0.5452849 0.8208929 120 120 119 255 0.19968 0.305125
2.351349 2.001526 2.5 -0.2999503 -0.9539549 -6.744373e-07 120 120 119 255 0.19968 0.305125
0.88397 1.611129 2.5 0.3939099 -0.9160334 0.07561678 97 95 95 255 0.20021 0.279913
0.880875 1.556886 1.107821 0.4419242 -0.8694251 0.220914 97 95 95 255 0.20021 0.279913
2.286013 2.10553 2.5 0.332343 -0.942472 0.03598243 97 95 95 255 0.20021 0.279913
-0.027891 1.043996 1.197411 0.4448858 -0.856688 0.261079 97 95 95 255 0.20021 0.279913
-0.046585 1.258394 2.5 0.3500517 -0.923476 0.1570221 97 95 95 255 0.20021 0.279913
-0.013824 0.24936 0.217215 0.4464518 -0.6919428 0.5673589 97 95 95 255 0.20021 0.279913
-0.010559 0.064708 -0.010556 -0.7651755 -0.5054433 0.3987901 120 120 119 255 0.19968 0.305125
2.5 2.180989 2.5 0 0 1 120 120 119 255 0.19968 0.305125
0.078705 -1e-06 4.921295 0.2056172 -0.9567869 -0.2056221 120 120 119 255 0.19968 0.305125
1.058229 1.439218 3.94177 0.3628254 -0.8583193 -0.3628303 120 120 119 255 0.19968 0.305125
1.121193 1.468928 4.03019 0.7515178 -0.5935006 0.2880592 120 120 119 255 0.19968 0.305125
0.254662 0.182223 4.897308 0.8208907 -0.5452865 0.1697088 120 120 119 255 0.19968 0.305125
2.5 2.001526 2.648653 0 -0.9539546 0.2999509 120 120 119 255 0.19968 0.305125
2.5 1.611128 4.116035 0.07561661 -0.916033 -0.3939107 97 95 95 255 0.20021 0.279913
1.107822 1.556885 4.11913 0.2209135 -0.8694249 -0.4419248 97 95 95 255 0.20021 0.279913
2.5 2.10553 2.713988 0.03598235 -0.9424721 -0.3323427 97 95 95 255 0.20021 0.279913
1.197411 1.043995 5.027893 0.2610784 -0.8566877 -0.4448869 97 95 95 255 0.20021 0.279913
2.5 1.258393 5.046586 0.1570218 -0.9234756 -0.3500529 97 95 95 255 0.20021 0.279913
0.217213 0.249359 5.013827 0.5673577 -0.6919431 -0.4464527 97 95 95 255 0.20021 0.279913
-0.010557 0.064707 5.010559 0.3987845 -0.5054458 0.7651768 120 120 119 255 0.19968 0.305125
2.5 2.180989 2.5 1 0 0 120 120 119 255 0.19968 0.305125
4.921295 -1e-06 4.921295 -0.205617 -0.9567869 -0.2056222 120 120 119 255 0.19968 0.305125
3.941771 1.439218 3.94177 -0.3628256 -0.8583192 -0.3628302 120 120 119 255 0.19968 0.305125
4.030191 1.468928 3.878807 0.2880696 -0.5934928 -0.75152 120 120 119 255 0.19968 0.305125
4.897305 0.182223 4.745342 0.1697045 -0.5452845 -0.8208929 120 120 119 255 0.19968 0.305125
2.648651 2.001526 2.5 0.2999503 -0.9539549 -6.484975e-07 120 120 119 255 0.19968 0.305125
4.11603 1.611129 2.5 -0.3939099 -0.9160333 -0.07561753 97 95 95 255 0.20021 0.279913
4.119125 1.556885 3.892179 -0.4419243 -0.869425 -0.2209143 97 95 95 255 0.20021 0.279913
2.713987 2.10553 2.5 -0.3323429 -0.942472 -0.03598316 97 95 95 255 0.20021 0.279913
5.027891 1.043995 3.802588 -0.4448859 -0.8566878 -0.2610793 97 95 95 255 0.20021 0.279913
5.046585 1.258394 2.5 -0.3500517 -0.9234759 -0.1570229 97 95 95 255 0.20021 0.279913
5.013824 0.249359 4.782785 -0.4464523 -0.6919428 -0.5673584 97 95 95 255 0.20021 0.279913
5.010559 0.064707 5.010556 0.7651759 -0.505443 -0.3987897 120 120 119 255 0.19968 0.305125
2.5 2.180989 2.5 0 0 -1 120 120 119 255 0.19968 0.305125
0.254662 0.182224 0.102692 0.8208906 -0.545287 -0.1697082 120 120 119 255 0.19968 0.305125
1.121193 1.468929 0.969811 0.7515176 -0.593501 -0.288059 120 120 119 255 0.19968 0.305125
2.5 1.611129 0.883966 0.07561669 -0.9160332 0.3939103 97 95 95 255 0.20021 0.279913
2.5 2.10553 2.286012 0.03598246 -0.9424722 0.3323423 97 95 95 255 0.20021 0.279913
1.107822 1.556886 0.880871 0.2209136 -0.8694252 0.4419244 97 95 95 255 0.20021 0.279913
1.197411 1.043996 -0.027893 0.2610785 -0.8566878 0.4448865 97 95 95 255 0.20021 0.279913
2.5 1.258394 -0.046586 0.1570218 -0.9234757 0.3500527 97 95 95 255 0.20021 0.279913
0.217213 0.24936 -0.013827 0.5673578 -0.6919433 0.4464523 97 95 95 255 0.20021 0.279913
-0.010557 0.064708 -0.01056 0.3987887 -0.5054477 -0.7651733 120 120 119 255 0.19968 0.305125
2.5 2.180989 2.5 1 0 0 120 120 119 255 0.19968 0.305125
0.102695 0.182223 4.745342 -0.1697047 -0.5452845 -0.8208929 120 120 119 255 0.19968 0.305125
0.969809 1.468928 3.878807 -0.2880696 -0.5934928 -0.7515199 120 120 119 255 0.19968 0.305125
0.88397 1.611129 2.5 0.3939099 -0.9160333 -0.07561748 97 95 95 255 0.20021 0.279913
2.286013 2.10553 2.5 0.332343 -0.942472 -0.03598307 97 95 95 255 0.20021 0.279913
0.880875 1.556885 3.892179 0.4419244 -0.869425 -0.2209142 97 95 95 255 0.20021 0.279913
-0.027891 1.043995 3.802588 0.444886 -0.8566878 -0.2610793 97 95 95 255 0.20021 0.279913
-0.046585 1.258394 2.5 0.3500517 -0.9234759 -0.1570229 97 95 95 255 0.20021 0.279913
-0.013824 0.249359 4.782785 0.4464524 -0.6919428 -0.5673583 97 95 95 255 0.20021 0.279913
-0.010559 0.064707 5.010556 -0.7651756 -0.5054435 -0.3987898 120 120 119 255 0.19968 0.305125
2.5 2.180989 2.5 0 0 -1 120 120 119 255 0.19968 0.305125
4.745338 0.182223 4.897308 -0.8208906 -0.5452868 0.1697085 120 120 119 255 0.19968 0.305125
3.878807 1.468928 4.03019 -0.7515178 -0.5935007 0.2880591 120 120 119 255 0.19968 0.305125
2.5 1.611128 4.116035 -0.07561662 -0.9160331 -0.3939106 97 95 95 255 0.20021 0.279913
2.5 2.10553 2.713988 -0.03598235 -0.9424721 -0.3323427 97 95 95 255 0.20021 0.279913
3.892178 1.556885 4.11913 -0.2209135 -0.8694249 -0.4419248 97 95 95 255 0.20021 0.279913
3.802589 1.043995 5.027893 -0.2610784 -0.8566876 -0.4448869 97 95 95 255 0.20021 0.279913
2.5 1.258393 5.046586 -0.1570218 -0.9234756 -0.3500529 97 95 95 255 0.20021 0.279913
4.782787 0.249359 5.013827 -0.5673577 -0.691943 -0.4464528 97 95 95 255 0.20021 0.279913
5.010557 0.064707 5.010559 -0.3987842 -0.5054461 0.7651768 120 120 119 255 0.19968 0.305125
2.5 2.180989 2.5 -1 0 0 120 120 119 255 0.19968 0.305125
4.897305 0.182224 0.254658 0.1697036 -0.5452848 0.820893 120 120 119 255 0.19968 0.305125
4.030191 1.468929 1.121193 0.2880687 -0.5934938 0.7515195 120 120 119 255 0.19968 0.305125
4.11603 1.611129 2.5 -0.3939099 -0.9160334 0.07561686 97 95 95 255 0.20021 0.279913
2.713987 2.10553 2.5 -0.3323429 -0.942472 0.03598252 97 95 95 255 0.20021 0.279913
4.119125 1.556886 1.107821 -0.4419241 -0.8694252 0.2209141 97 95 95 255 0.20021 0.279913
5.027891 1.043996 1.197411 -0.4448857 -0.856688 0.2610791 97 95 95 255 0.20021 0.279913
5.046585 1.258394 2.5 -0.3500517 -0.923476 0.1570221 97 95 95 255 0.20021 0.279913
5.013824 0.24936 0.217215 -0.4464517 -0.6919428 0.567359 97 95 95 255 0.20021 0.279913
5.010559 0.064708 -0.010556 0.7651758 -0.5054429 0.3987901 120 120 119 255 0.19968 0.305125
2.5 2.180989 2.5 0 0 1 120 120 119 255 0.19968 0.305125
3.892178 1.556886 0.880871 -0.8150336 -0.3402999 -0.4689524 120 120 119 255 0.19968 0.305125
4.782787 0.24936 -0.013827 -0.6551967 -0.4631685 -0.5968184 120 120 119 255 0.19968 0.305125
2.5 2.10553 2.286012 -0.870517 -0.2863299 -0.4002692 120 120 119 255 0.19968 0.305125
0.880875 1.556886 1.107821 -0.468956 -0.3402924 0.8150346 120 120 119 255 0.19968 0.305125
-0.013824 0.24936 0.217215 -0.5968013 -0.463175 0.6552076 120 120 119 255 0.19968 0.305125
2.286013 2.10553 2.5 -0.4002737 -0.2863211 0.8705177 120 120 119 255 0.19968 0.305125
1.107822 1.556885 4.11913 0.8150334 -0.3402994 0.4689529 120 120 119 255 0.19968 0.305125
0.217213 0.249359 5.013827 0.6551958 -0.4631674 0.5968204 120 120 119 255 0.19968 0.305125
2.5 2.10553 2.713988 0.8705171 -0.2863296 0.4002689 120 120 119 255 0.19968 0.305125
4.119125 1.556885 3.892179 0.4689561 -0.3402919 -0.8150347 120 120 119 255 0.19968 0.305125
5.013824 0.249359 4.782785 0.5968019 -0.4631746 -0.6552073 120 120 119 255 0.19968 0.305125
2.713987 2.10553 2.5 0.4002737 -0.286321 -0.8705178 120 120 119 255 0.19968 0.305125
1.107822 1.556886 0.880871 0.8150334 -0.3402993 -0.468953 120 120 119 255 0.19968 0.305125
0.217213 0.24936 -0.013827 0.6551967 -0.4631681 -0.5968188 120 120 119 255 0.19968 0.305125
2.5 2.10553 2.286012 0.8705171 -0.2863296 -0.4002693 120 120 119 255 0.19968 0.305125
0.880875 1.556885 3.892179 -0.4689561 -0.3402921 -0.8150347 120 120 119 255 0.19968 0.305125
-0.013824 0.249359 4.782785 -0.5968019 -0.4631749 -0.6552073 120 120 119 255 0.19968 0.305125
2.286013 2.10553 2.5 -0.4002737 -0.2863211 -0.8705178 120 120 119 255 0.19968 0.305125
3.892178 1.556885 4.11913 -0.8150336 -0.3402999 0.4689524 120 120 119 255 0.19968 0.305125
4.782787 0.249359 5.013827 -0.6551957 -0.4631679 0.5968201 120 120 119 255 0.19968 0.305125
2.5 2.10553 2.713988 -0.8705172 -0.2863298 0.4002689 120 120 119 255 0.19968 0.305125
4.119125 1.556886 1.107821 0.4689562 -0.3402919 0.8150347 120 120 119 255 0.19968 0.305125
5.013824 0.24936 0.217215 0.5968015 -0.4631746 0.6552078 120 120 119 255 0.19968 0.305125
2.713987 2.10553 2.5 0.4002739 -0.2863209 0.8705177 120 120 119 255 0.19968 0.305125
3 1 3 0 
3 4 1 5 
3 6 7 8 
3 9 6 10 
3 11 7 9 
3 93 3 2 
3 94 0 3 
3 95 2 4 
3 13 4 5 
3 15 17 14 
3 18 15 5 
3 19 20 21 
3 22 19 23 
3 24 20 22 
3 96 17 16 
3 97 14 17 
3 98 16 18 
3 26 18 5 
3 28 30 27 
3 31 28 5 
3 32 33 34 
3 35 32 36 
3 37 33 35 
3 99 30 29 
3 100 27 30 
3 101 29 31 
3 39 31 5 
3 41 43 40 
3 44 41 5 
3 45 46 47 
3 48 45 49 
3 50 46 48 
3 102 43 42 
3 103 40 43 
3 104 42 44 
3 52 44 5 
3 53 15 14 
3 4 15 54 
3 55 56 57 
3 58 55 57 
3 60 58 57 
3 105 53 106 
3 106 14 61 
3 107 54 105 
3 62 4 107 
3 63 28 27 
3 18 28 64 
3 65 66 67 
3 68 65 67 
3 70 68 67 
3 108 63 109 
3 109 27 71 
3 110 64 108 
3 72 18 110 
3 73 41 40 
3 31 41 74 
3 75 76 77 
3 78 75 77 
3 80 78 77 
3 111 73 112 
3 112 40 81 
3 113 74 111 
3 82 31 113 
3 83 1 0 
3 44 1 84 
3 85 86 87 
3 88 85 87 
3 90 88 87 
3 114 83 115 
3 115 0 91 
3 116 84 114 
3 92 44 116 
3 1 2 3 
3 4 2 1 
3 9 7 6 
3 93 94 3 
3 94 12 0 
3 95 93 2 
3 13 95 4 
3 15 16 17 
3 18 16 15 
3 22 20 19 
3 96 97 17 
3 97 25 14 
3 98 96 16 
3 26 98 18 
3 28 29 30 
3 31 29 28 
3 35 33 32 
3 99 100 30 
3 100 38 27 
3 101 99 29 
3 39 101 31 
3 41 42 43 
3 44 42 41 
3 48 46 45 
3 102 103 43 
3 103 51 40 
3 104 102 42 
3 52 104 44 
3 53 54 15 
3 4 5 15 
3 58 59 55 
3 105 54 53 
3 106 53 14 
3 107 4 54 
3 62 5 4 
3 63 64 28 
3 18 5 28 
3 68 69 65 
3 108 64 63 
3 109 63 27 
3 110 18 64 
3 72 5 18 
3 73 74 41 
3 31 5 41 
3 78 79 75 
3 111 74 73 
3 112 73 40 
3 113 31 74 
3 82 5 31 
3 83 84 1 
3 44 5 1 
3 88 89 85 
3 114 84 83 
3 115 83 0 
3 116 44 84 
3 92 5 44 
