ply
format ascii 1.0
comment INFO-3111 Flatenator generated
comment TextureFile Dungeons_Texture_01.png
element vertex 265
property float x
property float y
property float z
element face 390
property list uchar int vertex_indices
end_header
4.99784 0.042764 4.99794 
4.08051 0.034159 4.99231 
4.35395 0.000234 5 
1.40822 0.036479 4.99507 
1.26801 0.000234 5 
2.08832 0.000234 5 
3.10395 0.044874 4.97973 
2.61567 0.042814 4.9977 
3.35785 0.000234 5 
5 -1e-06 5 
0.954939 0.019669 4.9927 
0.68207 0.032654 4.98558 
0.01272 0.034669 4.99049 
0.603949 0.000234 5 
0 -1e-06 5 
0.7404 0.033294 4.91162 
0 -1e-06 3.0845 
4.52973 -0.000611 3.92435 
4.8778 0.030159 4.84186 
4.76189 0.045504 4.84111 
1.4827 0.045519 4.84109 
3.27958 0.045519 4.84109 
2.49848 0.040204 4.87268 
3.72972 0.045519 4.84109 
0 -1e-06 4.76419 
0.140419 0.050474 4.82081 
2.87917 0.098839 4.78045 
2.40779 0.100399 4.76527 
2.13549 0.071689 4.79017 
3.4701 0.100689 4.74788 
4.18506 0.069349 4.81096 
4.62406 0.089484 4.6862 
0.33753 0.100009 4.81947 
0.139299 0.100064 4.81947 
0.61215 0.072174 4.81725 
0.992119 0.093159 4.80496 
1.86268 0.092144 4.76596 
0 -1e-06 4.45169 
0.16379 0.084234 4.70816 
0.429399 0.095074 4.60112 
0.93725 0.096759 4.566 
1.75383 0.081939 3.83912 
4.37348 -0.000611 3.29935 
4.73491 0.083039 4.58431 
4.78271 0.050709 4.38522 
5 -1e-06 4.11966 
0.0107 0.035594 4.29583 
4.69323 0.100019 4.22099 
0.14543 0.069429 4.47618 
0.285149 0.093544 4.45726 
0.16699 0.083829 4.23786 
0.211079 0.100734 4.00265 
4.99761 0.042814 3.47513 
4.80077 0.040814 3.61062 
0.137089 0.054484 3.98439 
4.42205 0.100804 3.27577 
3.40541 0.095554 4.36607 
4.76692 0.077749 3.87512 
4.74457 -0.000611 3.82669 
5 -1e-06 3.61185 
-0.00065 0.042814 3.86575 
0.144569 0.095209 3.36944 
1.93207 -0.00061 1.50247 
2.67019 0.080539 2.06221 
4.76056 0.066599 3.4399 
4.60785 -0.000611 3.72904 
4.62738 -0.000611 3.74857 
0.265419 0.100805 3.00318 
0.11698 0.04554 2.71329 
4.62738 -0.000611 3.72904 
4.52973 -0.000611 3.61185 
4.58266 0.080939 3.4404 
0.008459 0.030895 2.63534 
4.87096 0.033794 3.47513 
4.74414 0.100804 3.13361 
4.99761 0.042815 3.00638 
0.15815 0.08565 3.02171 
4.74457 -0.000611 3.20169 
4.87489 0.031669 3.10445 
4.60785 -0.000611 3.10404 
4.62738 -0.000611 3.12357 
4.74988 0.089605 2.48208 
5 0 2.53763 
3.60529 0.100685 2.40354 
4.62738 -0.000611 3.10404 
4.52973 -0.00061 2.98685 
3.42344 0.100805 2.54884 
4.93987 0.04495 2.5181 
4.80025 0.04417 2.5173 
4.74457 -0.00061 2.57669 
0 0 2.40091 
4.98139 0.033305 2.47904 
4.37348 -0.00061 2.67435 
3.49633 0.08619 2.40471 
3.76801 -0.00061 2.12747 
4.58546 0.100805 2.02182 
4.60785 -0.00061 2.47904 
4.62738 -0.00061 2.49857 
0.283569 0.100805 2.1491 
0.11734 0.045355 2.22474 
0.1588 0.07732 2.00375 
4.62738 -0.00061 2.47904 
4.77176 0.088865 1.96738 
4.52973 -0.00061 2.36185 
4.98707 0.03719 2.04935 
0.009359 0.037475 2.02982 
0.404533 0.128659 1.87673 
4.74457 -0.00061 1.95169 
4.37348 -0.00061 2.04935 
5 0 1.50247 
0 0 1.8931 
0.163229 0.08147 1.87743 
0.0145 0.0295 1.81475 
4.60785 -0.00061 1.85404 
4.62738 -0.00061 1.87357 
4.62738 -0.00061 1.85404 
4.52973 -0.00061 1.73685 
0 0 0.799347 
0.081079 0.03302 1.61987 
4.65869 0.085495 1.00523 
0.00639 0.036945 1.5806 
0.244549 0.100435 1.66957 
4.80228 0.04545 1.09263 
0.169857 0.09023 1.35905 
2.71503 0.073648 1.18593 
4.74457 -0.00061 1.32669 
2.90864 -0.00061 1.42435 
3.2016 -0.00061 1.22904 
4.37348 -0.00061 1.42435 
4.78328 0.100045 0.967777 
0.13702 0.05455 1.03726 
4.99761 0.042815 0.896999 
2.85004 -0.00061 1.18997 
2.98676 -0.00061 1.30716 
3.00629 -0.00061 1.30716 
3.38747 0.100805 0.459 
3.00629 -0.00061 1.28763 
4.60785 -0.00061 1.22904 
4.62738 -0.00061 1.24857 
-0.00065 0.042815 0.584499 
4.62738 -0.00061 1.22904 
4.52973 -0.00061 1.11185 
2.0073 0.09416 0.42329 
3.16936 0.100805 0.440868 
2.94184 0.100805 0.331818 
0.16947 0.07506 0.65934 
0.82807 0.100805 0.313698 
2.09871 0.09656 0.313709 
5 0 0 
0.065119 0.03991 0.486839 
0.230268 0.0965 0.658939 
4.77781 0.038265 0.185078 
4.99761 0.042815 0.271999 
4.692 0.096825 0.252758 
0 0 0 
0.139309 0.10001 0.404518 
0.11751 0.04528 0.212708 
3.95282 0.096845 0.178188 
0.290783 0.087295 0.336891 
1.30022 0.09086 0.172318 
3.22223 0.061045 0.219028 
2.00797 0.08253 0.210659 
3.09911 0.08796 0.217293 
3.44674 0.08398 0.221458 
3.72483 0.100775 0.22295 
1.6988 0.1001 0.206757 
2.02564 0.095365 0.194038 
2.28364 -0.000175 0 
3.06488 -0.000175 0 
4.04145 -0.000175 0 
0.79311 0.072475 0.20546 
0.519539 0.091025 0.217678 
0.19368 0.04535 0.15535 
2.20567 0.046245 0.19487 
3.8419 0.049935 0.172729 
1.28613 0.03538 0.159508 
2.63435 0.035315 0.159698 
3.11585 0.044155 0.18018 
4.71078 0.056775 0.18882 
3.67149 0.03953 0.143539 
0.09614 0.04425 0.077679 
1.87503 0.036475 0.152828 
4.08052 0.03692 0.129898 
1.58096 0.0206 0.123707 
2.51839 0.02385 0.096748 
4.70511 0.0285 0.096497 
1.18989 0.042845 -0.000622 
3.70942 0.042815 -0.000572 
0.66341 0.038385 0.035347 
1.75629 0.032645 0.02351 
2.69379 0.042815 -0.000561 
4.99798 0.04283 -0.000942 
1.87348 -0.000175 0 
2.18598 0.0421 0.000359 
0.77973 -0.000175 0 
1.20942 -0.000175 0 
1.42426 -0.000175 0 
4.62406 0.089484 4.6862 
3.4701 0.100689 4.74788 
4.18506 0.069349 4.81096 
0.61215 0.072174 4.81725 
0.33753 0.100009 4.81947 
0.992119 0.093159 4.80496 
1.86268 0.092144 4.76596 
2.40779 0.100399 4.76527 
2.87917 0.098839 4.78045 
3.4701 0.100689 4.74788 
0.992119 0.093159 4.80496 
0.16379 0.084234 4.70816 
0.93725 0.096759 4.566 
4.62406 0.089484 4.6862 
4.69323 0.100019 4.22099 
0.14543 0.069429 4.47618 
0.16699 0.083829 4.23786 
0.285149 0.093544 4.45726 
0.16699 0.083829 4.23786 
0.211079 0.100734 4.00265 
4.76692 0.077749 3.87512 
4.42205 0.100804 3.27577 
4.69323 0.100019 4.22099 
0.144569 0.095209 3.36944 
0.211079 0.100734 4.00265 
4.76056 0.066599 3.4399 
4.58266 0.080939 3.4404 
4.76692 0.077749 3.87512 
0.265419 0.100805 3.00318 
4.74414 0.100804 3.13361 
0.15815 0.08565 3.02171 
4.74414 0.100804 3.13361 
4.74988 0.089605 2.48208 
4.58546 0.100805 2.02182 
0.283569 0.100805 2.1491 
0.1588 0.07732 2.00375 
4.77176 0.088865 1.96738 
4.74988 0.089605 2.48208 
4.80025 0.04417 2.5173 
0.1588 0.07732 2.00375 
0.163229 0.08147 1.87743 
4.77176 0.088865 1.96738 
4.77176 0.088865 1.96738 
4.65869 0.085495 1.00523 
4.77176 0.088865 1.96738 
4.78328 0.100045 0.967777 
0.169857 0.09023 1.35905 
0.16947 0.07506 0.65934 
0.169857 0.09023 1.35905 
0.230268 0.0965 0.658939 
4.692 0.096825 0.252758 
4.692 0.096825 0.252758 
0.290783 0.087295 0.336891 
0.139309 0.10001 0.404518 
0.290783 0.087295 0.336891 
0.82807 0.100805 0.313698 
1.30022 0.09086 0.172318 
0.79311 0.072475 0.20546 
0.519539 0.091025 0.217678 
2.02564 0.095365 0.194038 
3.09911 0.08796 0.217293 
3.44674 0.08398 0.221458 
3.72483 0.100775 0.22295 
1.30022 0.09086 0.172318 
1.6988 0.1001 0.206757 
2.00797 0.08253 0.210659 
3.22223 0.061045 0.219028 
3.95282 0.096845 0.178188 
3 0 1 2
3 3 4 5
3 6 7 8
3 1 6 8
3 1 8 2
3 9 0 2
3 3 10 4
3 7 3 5
3 11 12 13
3 10 11 13
3 10 13 4
3 7 5 8
3 12 14 13
3 15 12 11
3 15 11 10
3 16 4 13
3 5 17 8
3 17 2 8
3 18 19 0
3 17 9 2
3 15 10 3
3 20 3 7
3 6 21 7
3 1 21 6
3 22 20 7
3 23 21 1
3 12 24 14
3 4 16 5
3 20 15 3
3 21 22 7
3 24 13 14
3 16 17 5
3 25 12 15
3 19 1 0
3 19 23 1
3 26 27 28
3 29 23 30
3 19 31 30
3 32 33 25
3 34 32 25
3 35 34 20
3 36 35 20
3 21 26 28
3 36 20 28
3 25 15 34
3 15 20 34
3 22 28 20
3 22 21 28
3 23 19 30
3 24 12 25
3 23 26 21
3 24 37 13
3 37 16 13
3 38 33 32
3 27 36 28
3 29 26 23
3 197 198 199
3 200 39 201
3 40 202 203
3 41 204 205
3 206 41 205
3 33 38 25
3 207 39 200
3 39 208 201
3 41 203 204
3 42 17 16
3 207 209 39
3 43 19 44
3 17 45 9
3 43 31 19
3 25 46 24
3 47 206 210
3 38 48 25
3 43 211 31
3 18 44 19
3 46 37 24
3 212 208 39
3 209 49 39
3 49 212 39
3 44 211 43
3 41 40 203
3 49 50 212
3 46 25 48
3 46 48 213
3 40 51 214
3 52 18 0
3 45 0 9
3 53 44 18
3 54 46 213
3 51 215 214
3 52 53 18
3 55 56 206
3 47 55 206
3 57 211 44
3 53 57 44
3 52 0 45
3 216 54 213
3 17 58 45
3 58 59 45
3 41 51 40
3 56 41 206
3 217 218 219
3 54 60 46
3 46 60 37
3 52 45 59
3 216 61 54
3 62 42 16
3 63 41 56
3 64 57 53
3 65 66 17
3 66 58 17
3 67 220 221
3 61 68 54
3 65 69 66
3 69 58 66
3 60 54 68
3 70 69 65
3 70 58 69
3 60 16 37
3 70 17 42
3 70 65 17
3 71 218 217
3 222 223 224
3 60 72 16
3 70 59 58
3 60 68 72
3 73 53 52
3 73 64 53
3 41 225 51
3 222 74 223
3 226 218 71
3 52 75 73
3 67 76 220
3 61 227 68
3 77 59 70
3 75 78 73
3 78 64 73
3 42 77 70
3 64 78 228
3 79 80 42
3 80 77 42
3 218 226 81
3 78 229 228
3 77 82 59
3 83 56 55
3 79 84 80
3 84 77 80
3 85 84 79
3 85 77 84
3 75 52 59
3 85 79 42
3 75 59 82
3 83 86 56
3 85 82 77
3 87 88 78
3 75 87 78
3 86 63 56
3 88 229 78
3 85 89 82
3 72 90 16
3 91 75 82
3 42 92 85
3 93 86 83
3 94 92 42
3 91 87 75
3 55 95 83
3 230 218 81
3 92 89 85
3 96 97 92
3 97 89 92
3 41 98 225
3 99 72 68
3 99 68 227
3 100 76 67
3 96 101 97
3 101 89 97
3 102 230 81
3 94 96 92
3 103 101 96
3 103 89 101
3 231 100 67
3 104 91 82
3 103 96 94
3 99 227 232
3 104 87 91
3 93 63 86
3 104 88 87
3 62 94 42
3 103 82 89
3 72 105 90
3 105 72 99
3 63 106 41
3 83 63 93
3 103 107 82
3 233 234 235
3 108 103 94
3 106 98 41
3 107 109 82
3 105 110 90
3 104 82 109
3 106 236 98
3 232 111 99
3 105 99 111
3 90 62 16
3 106 237 236
3 112 105 111
3 105 112 110
3 110 62 90
3 108 107 103
3 95 63 83
3 113 114 108
3 114 107 108
3 113 115 114
3 115 107 114
3 94 113 108
3 116 115 113
3 116 107 115
3 117 62 110
3 116 113 94
3 118 112 111
3 119 95 238
3 118 120 112
3 121 237 106
3 116 109 107
3 88 122 239
3 112 120 110
3 121 123 237
3 124 63 95
3 104 122 88
3 120 117 110
3 116 125 109
3 126 127 94
3 128 116 94
3 62 126 94
3 129 240 241
3 130 120 118
3 127 128 94
3 131 122 104
3 131 104 109
3 132 133 126
3 130 118 111
3 132 126 62
3 242 239 122
3 243 130 111
3 133 134 126
3 134 127 126
3 128 125 116
3 106 123 121
3 119 135 95
3 132 136 133
3 136 134 133
3 136 127 134
3 132 127 136
3 137 138 128
3 138 125 128
3 120 139 117
3 137 140 138
3 140 125 138
3 139 120 130
3 127 137 128
3 141 140 137
3 141 125 140
3 141 137 127
3 142 63 124
3 135 124 95
3 143 144 124
3 243 145 130
3 141 109 125
3 146 123 106
3 142 106 63
3 147 142 124
3 148 131 109
3 149 139 130
3 150 244 245
3 146 246 123
3 141 148 109
3 124 135 143
3 144 147 124
3 149 130 145
3 151 122 131
3 152 131 148
3 127 148 141
3 153 135 119
3 139 154 117
3 247 240 129
3 242 122 151
3 152 151 131
3 248 242 151
3 150 155 244
3 149 145 156
3 153 157 135
3 158 155 150
3 142 159 106
3 160 143 135
3 147 161 142
3 162 144 143
3 162 147 144
3 163 160 135
3 164 163 135
3 156 139 149
3 249 156 250
3 146 251 246
3 159 146 106
3 165 159 142
3 161 165 142
3 147 166 161
3 250 156 145
3 167 168 132
3 168 169 132
3 170 171 252
3 162 166 147
3 160 162 143
3 171 158 252
3 170 252 253
3 157 164 135
3 254 172 255
3 256 257 173
3 258 259 174
3 156 249 172
3 260 261 175
3 261 262 175
3 256 173 262
3 257 176 173
3 257 263 177
3 264 174 259
3 264 178 174
3 264 248 178
3 248 151 178
3 172 249 255
3 254 175 172
3 254 260 175
3 258 179 263
3 258 174 179
3 156 180 139
3 181 175 262
3 181 262 173
3 177 176 257
3 179 177 263
3 178 182 174
3 172 180 156
3 183 175 181
3 184 181 173
3 184 173 176
3 182 179 174
3 185 182 178
3 151 185 178
3 180 154 139
3 183 186 175
3 177 184 176
3 187 177 179
3 185 151 152
3 175 188 172
3 189 183 181
3 187 190 177
3 187 179 182
3 191 185 152
3 188 180 172
3 189 186 183
3 192 189 181
3 193 192 181
3 193 181 184
3 190 184 177
3 191 187 182
3 191 182 185
3 167 192 193
3 190 193 184
3 194 117 154
3 194 195 117
3 195 62 117
3 195 196 62
3 196 192 62
3 192 132 62
3 192 167 132
3 169 127 132
3 169 148 127
3 188 154 180
3 186 188 175
3 191 152 148
3 186 189 192
3 188 186 194
3 186 195 194
3 186 196 195
3 186 192 196
3 193 190 167
3 167 190 168
3 190 187 168
3 187 169 168
3 187 191 169
3 188 194 154
3 191 148 169
