ply
format ascii 1.0
comment INFO-3111 Flatenator generated
comment TextureFile Dungeons_Texture_01.png
element vertex 85
property float x
property float y
property float z
element face 100
property list uchar int vertex_indices
end_header
0.022007 0.144237 0.262927 
0.044041 0.107319 0.248455 
0.350136 0 0.262084 
-0.065731 0.049888 0.265444 
0.000526 0.061705 0.252734 
-0.350777 0.060612 0.264579 
0.011105 0.00198 0.214616 
0.054897 0.007024 0.265444 
-0.340717 0.002994 0.25703 
-0.093407 0.001683 0.259207 
0.350777 0.143908 0.263336 
0.066154 0.13054 0.230688 
0.122032 0.126574 0.24692 
0.142609 0.143759 0.262913 
-0.350651 0.14394 0.263362 
-0.350777 0.038612 0.115123 
0.05489 0.142984 0.082355 
0.142616 0.145538 0.112387 
-0.324905 0.005872 -0.01622 
-0.306782 0.000451 0.112372 
-0.345261 0.030314 0.049774 
0.35043 0.143382 0.008149 
-0.219212 0 -0.033623 
0.348202 0.081789 -0.107835 
0.350719 0.111927 -0.048807 
-0.35022 0.143297 -0.098687 
-0.306919 0.145548 -0.132281 
-0.350224 5e-06 -0.066361 
0.349529 0.029661 -0.164937 
-0.350719 0.112177 -0.107829 
0.344204 0.119769 -0.190485 
-0.350231 1.1e-05 -0.215015 
-0.321594 0.134071 -0.199213 
0.318035 0.145548 0.007995 
0.219296 0.000568 -0.259845 
0.305939 0.14437 -0.224471 
-0.186195 0.143632 -0.223451 
-0.331512 0.064864 -0.250197 
0.32999 0.005282 -0.247299 
0.27412 0.144513 -0.246854 
-0.31776 0.114083 -0.238279 
0.334312 0.060235 -0.260461 
-0.098991 0.144311 -0.246578 
0.320892 0.106443 -0.257626 
0.011036 0.143324 -0.265261 
-0.13139 0.112023 -0.264138 
0.208191 0.112363 -0.265445 
-0.219212 0.081736 -0.265439 
-0.316647 0.039519 -0.261638 
-0.109356 0 -0.265303 
0.252159 0.03146 -0.258235 
-0.283817 0.006158 -0.252285 
0.022007 0.144237 0.262927 
0.142609 0.143759 0.262913 
0.054897 0.007024 0.265444 
-0.065731 0.049888 0.265444 
-0.093407 0.001683 0.259207 
-0.340717 0.002994 0.25703 
0.350136 0 0.262084 
0.142616 0.145538 0.112387 
-0.350777 0.038612 0.115123 
0.05489 0.142984 0.082355 
-0.345261 0.030314 0.049774 
0.318035 0.145548 0.007995 
0.35043 0.143382 0.008149 
-0.109356 0 -0.265303 
0.350719 0.111927 -0.048807 
-0.350224 5e-06 -0.066361 
0.344204 0.119769 -0.190485 
-0.350231 1.1e-05 -0.215015 
0.219296 0.000568 -0.259845 
0.349529 0.029661 -0.164937 
0.305939 0.14437 -0.224471 
0.334312 0.060235 -0.260461 
-0.321594 0.134071 -0.199213 
-0.31776 0.114083 -0.238279 
-0.331512 0.064864 -0.250197 
0.27412 0.144513 -0.246854 
0.320892 0.106443 -0.257626 
-0.098991 0.144311 -0.246578 
0.011036 0.143324 -0.265261 
-0.13139 0.112023 -0.264138 
-0.316647 0.039519 -0.261638 
-0.219212 0.081736 -0.265439 
0.252159 0.03146 -0.258235 
3 11 0 1
3 14 5 3
3 52 14 3
3 12 11 1
3 10 13 2
3 0 4 1
3 53 12 7
3 12 1 7
3 2 13 54
3 0 55 4
3 1 4 7
3 4 55 6
3 5 8 9
3 3 5 9
3 7 4 6
3 22 56 57
3 56 6 55
3 6 58 7
3 6 49 58
3 16 0 11
3 22 6 56
3 12 16 11
3 17 12 53
3 10 59 13
3 5 15 8
3 49 6 22
3 60 18 57
3 18 19 57
3 17 16 12
3 14 15 5
3 57 19 22
3 26 14 52
3 61 26 52
3 33 59 10
3 21 10 2
3 14 20 15
3 60 62 18
3 33 61 59
3 14 25 20
3 18 22 19
3 26 25 14
3 33 26 61
3 21 33 10
3 24 63 64
3 34 2 65
3 66 21 2
3 23 66 2
3 27 22 18
3 25 67 20
3 62 27 18
3 23 2 28
3 30 63 24
3 68 66 23
3 32 25 26
3 25 32 29
3 25 29 67
3 67 29 31
3 27 69 22
3 70 71 58
3 35 39 33
3 68 23 28
3 38 71 70
3 30 72 63
3 36 32 26
3 29 37 31
3 68 28 41
3 29 32 37
3 73 71 38
3 40 32 36
3 42 36 26
3 42 26 33
3 74 75 76
3 69 49 22
3 43 77 72
3 43 72 30
3 78 68 41
3 44 42 33
3 39 44 33
3 49 69 51
3 36 42 45
3 44 39 46
3 40 36 45
3 79 80 49
3 44 46 65
3 39 78 46
3 40 47 48
3 45 47 40
3 79 49 81
3 75 82 76
3 46 78 41
3 81 49 83
3 46 41 50
3 76 82 69
3 82 83 51
3 65 46 34
3 84 73 38
3 82 51 69
3 83 49 51
3 46 50 34
3 84 38 70
