ply
format ascii 1.0
comment INFO-3111 Flatenator generated
comment TextureFile Dungeons_Texture_01.png
element vertex 96
property float x
property float y
property float z
element face 168
property list uchar int vertex_indices
end_header
0.183207 0.16087 0.100393 
0.145214 0.177818 0.067814 
-0.170197 0.122036 0.270276 
-0.203423 0.147735 0.218153 
-0.000588 -0.067346 0.189599 
0.332706 0.117563 0.030759 
0.329302 0.051675 0.032614 
-0.162869 0.022338 0.266641 
0.332455 -0.008494 0.030271 
-0.19478 0.010423 0.236318 
0.196678 -0.065208 0.09542 
0.25367 -0.058613 -0.02009 
0.185839 -0.079195 0.049557 
0.359709 0.105872 -0.043891 
0.284075 0.164356 -0.165327 
0.342506 -0.048512 -0.077279 
0.249188 -0.059796 -0.027749 
0.242803 -0.060262 -0.032568 
0.038408 -0.103022 0.037559 
-0.240679 -0.05069 0.134082 
-0.142003 0.175161 0.140016 
-0.292912 0.060609 -0.022714 
0.208648 0.177632 -0.121665 
0.260889 -0.04948 -0.200931 
0.08927 0.178116 -0.151542 
0.147901 -0.057311 -0.181763 
-0.281951 -0.026599 0.010554 
-0.148482 0.176061 -0.023165 
0.206972 -0.01717 -0.23648 
-0.209149 0.122385 -0.103569 
0.168432 0.107368 -0.258461 
0.143486 0.002897 -0.253856 
-0.217939 0.044975 -0.140102 
-0.154842 -0.055077 -0.129488 
0.095026 -0.06655 -0.180286 
-0.33567 0.153661 0.449915 
-0.479906 0.177149 0.477977 
-0.439314 0.100153 0.578126 
-0.395618 -0.066543 0.525158 
-0.435783 -0.013167 0.573939 
-0.336817 -0.076117 0.398789 
-0.331898 -0.046008 0.291264 
-0.452204 -0.103082 0.402979 
-0.328639 0.13835 0.295118 
-0.411308 0.164376 0.22924 
-0.582211 0.126615 0.523171 
-0.527367 -0.0049 0.568867 
-0.566997 -0.05598 0.514327 
-0.462157 -0.025455 0.186829 
-0.661636 0.094933 0.461172 
-0.641044 -0.058558 0.306464 
-0.60865 0.176617 0.347922 
-0.66169 -0.034263 0.461129 
-0.532571 -0.067855 0.227448 
-0.552866 0.12318 0.182706 
-0.637634 0.124296 0.28537 
-0.577487 -0.050826 0.213464 
0.311065 0.08013 0.414705 
0.27327 0.094271 0.334722 
0.220869 0.047916 0.373279 
0.258262 -0.052441 0.390906 
0.404186 -0.040078 0.393342 
0.402423 0.070912 0.395816 
0.256083 0.044774 0.226199 
0.2561 -0.033007 0.226161 
0.44577 -0.027704 0.301834 
0.413101 -0.042979 0.238503 
0.362216 0.062451 0.214092 
0.434703 0.061779 0.2483 
0.048535 0.093851 -1.09054 
0.033377 0.066617 -1.17086 
0.002265 -0.056648 -1.14047 
0.099532 -0.040789 -0.998547 
0.149234 0.063922 -1.21742 
0.104929 0.086756 -1.038 
0.159213 -0.034247 -1.25521 
0.254572 -0.044607 -1.09567 
0.21969 0.079096 -1.08671 
-1.3059 0.064398 0.517373 
-1.26551 0.045442 0.47549 
-1.30288 -0.043631 0.454943 
-1.35661 -0.030364 0.59055 
-1.19301 0.044326 0.526159 
-1.31554 0.059567 0.570586 
-1.14798 -0.023444 0.510831 
-1.21485 -0.032487 0.653481 
-1.24124 0.054715 0.617948 
0.481433 0.061276 -0.409056 
0.537962 0.042777 -0.394643 
0.538 -0.04638 -0.437114 
0.393473 -0.034174 -0.416723 
0.52982 0.041769 -0.306565 
0.430461 0.056091 -0.391087 
0.565934 -0.025667 -0.274899 
0.408961 -0.035882 -0.262385 
0.426115 0.051375 -0.303069 
3 0 1 2
3 1 3 2
3 2 4 0
3 5 0 6
3 0 4 6
3 4 2 7
3 6 4 8
3 4 7 9
3 4 10 8
3 8 10 11
3 10 4 12
3 10 12 11
3 2 9 7
3 13 6 8
3 3 9 2
3 5 6 13
3 14 1 0
3 15 8 11
3 13 8 15
3 16 11 17
3 18 12 4
3 17 11 12
3 4 9 19
3 4 19 18
3 1 20 3
3 3 21 9
3 18 17 12
3 14 0 5
3 16 15 11
3 22 1 14
3 17 15 16
3 23 15 17
3 21 19 9
3 24 20 1
3 24 1 22
3 13 15 23
3 5 13 14
3 14 13 23
3 25 23 17
3 19 21 26
3 27 3 20
3 14 24 22
3 27 20 24
3 28 14 23
3 3 27 21
3 24 29 27
3 26 18 19
3 28 23 25
3 18 25 17
3 24 14 30
3 30 14 28
3 30 28 31
3 29 24 30
3 29 30 31
3 27 29 21
3 29 31 32
3 33 32 31
3 31 28 25
3 26 21 33
3 31 34 33
3 31 25 34
3 26 33 18
3 33 34 18
3 34 25 18
3 35 36 37
3 38 37 39
3 35 37 38
3 35 38 40
3 35 40 41
3 42 40 38
3 43 44 35
3 42 41 40
3 44 36 35
3 36 45 37
3 37 46 39
3 38 39 47
3 38 47 42
3 37 45 46
3 43 35 41
3 39 46 47
3 48 43 41
3 48 44 43
3 45 49 46
3 47 50 42
3 36 51 45
3 52 47 46
3 46 49 52
3 44 51 36
3 48 41 53
3 54 44 48
3 47 52 50
3 54 51 44
3 51 49 45
3 42 53 41
3 55 49 51
3 51 54 55
3 54 48 56
3 55 54 56
3 49 55 50
3 55 56 50
3 56 48 53
3 49 50 52
3 50 56 53
3 50 53 42
3 57 58 59
3 57 59 60
3 57 60 61
3 62 58 57
3 58 63 59
3 62 57 61
3 60 59 64
3 65 62 61
3 64 66 60
3 58 67 63
3 59 63 64
3 62 67 58
3 65 61 66
3 68 62 65
3 68 67 62
3 60 66 61
3 68 65 66
3 67 68 66
3 63 67 66
3 63 66 64
3 69 70 71
3 69 71 72
3 69 73 70
3 74 69 72
3 71 70 75
3 76 74 72
3 75 76 71
3 69 77 73
3 70 73 75
3 74 77 69
3 77 74 76
3 71 76 72
3 73 77 76
3 73 76 75
3 78 79 80
3 78 80 81
3 78 82 79
3 83 78 81
3 80 79 84
3 85 83 81
3 84 85 80
3 78 86 82
3 79 82 84
3 83 86 78
3 86 83 85
3 80 85 81
3 82 86 85
3 82 85 84
3 87 88 89
3 87 89 90
3 87 91 88
3 92 87 90
3 89 88 93
3 94 92 90
3 93 94 89
3 87 95 91
3 88 91 93
3 92 95 87
3 95 92 94
3 89 94 90
3 91 95 94
3 91 94 93
3 21 32 33
3 29 32 21
