ply
format ascii 1.0
comment INFO-3111 Flatenator generated
comment TextureFile Dungeons_Texture_01.png
element vertex 88
property float x
property float y
property float z
element face 100
property list uchar int vertex_indices
end_header
-0.543095 0.143574 0.247411 
-0.006138 0.143005 0.325087 
0.063927 0.106629 0.303433 
-0.473858 0.108323 0.325112 
-0.290657 0.033181 0.31898 
-0.350037 0 0.324661 
-0.543034 0 0.325006 
-0.172821 0.000573 0.323956 
0.048939 0 0.324375 
0.074684 0.130009 0.256373 
-0.279556 0.143797 0.325846 
-0.543221 0 0.196271 
0.35442 0 0.237299 
0.06842 0.029151 0.175217 
0.485176 0.062746 0.127339 
-0.534367 0.145485 0.162969 
0.356506 0.14463 0.228135 
0.052197 0.102812 0.116775 
0.448059 0.134835 0.100868 
-0.504436 0.003249 0.079936 
0.045181 0.006249 0.058299 
0.155548 0.071389 0.023316 
0.092018 0.100736 -0.035477 
-0.524876 0.087198 0.096405 
-0.477287 0.136709 0.071076 
0.075695 0.000595 0.038983 
-0.543247 0.143308 0.038025 
-0.086823 0.145548 0.145465 
-0.543285 0 0.029169 
0.428474 0.000239 0.016481 
0.209259 0.143961 -0.004957 
-0.543541 0.143207 -0.202532 
-0.078777 0.135249 0.070168 
0.04372 0.125178 0.016429 
-0.023212 0.145198 -0.003454 
0.542053 0.144683 0.078247 
0.290787 0 -0.173608 
0.543537 0.00757 0.077643 
0.124702 0.000451 -0.128578 
0.133671 0.107696 -0.135431 
-0.543236 0 -0.202151 
0.283451 0.021958 -0.22381 
0.394131 0.144083 -0.098452 
-0.215054 0.143552 -0.110173 
0.063484 0.144407 -0.180455 
-0.372807 0.143303 -0.202332 
-0.289738 0.080796 -0.198258 
-0.204731 0.059815 -0.195239 
0.094997 0 -0.158827 
-0.24699 0 -0.202256 
0.203934 0.14368 -0.325847 
0.197918 0.001476 -0.324786 
-0.350037 0 0.324661 
-0.543034 0 0.325006 
-0.279556 0.143797 0.325846 
-0.006138 0.143005 0.325087 
0.074684 0.130009 0.256373 
-0.543221 0 0.196271 
-0.477287 0.136709 0.071076 
-0.543095 0.143574 0.247411 
0.048939 0 0.324375 
-0.172821 0.000573 0.323956 
0.35442 0 0.237299 
0.543537 0.00757 0.077643 
-0.504436 0.003249 0.079936 
0.052197 0.102812 0.116775 
0.045181 0.006249 0.058299 
0.209259 0.143961 -0.004957 
0.356506 0.14463 0.228135 
0.448059 0.134835 0.100868 
-0.078777 0.135249 0.070168 
0.542053 0.144683 0.078247 
0.155548 0.071389 0.023316 
0.124702 0.000451 -0.128578 
-0.543247 0.143308 0.038025 
0.394131 0.144083 -0.098452 
-0.543541 0.143207 -0.202532 
-0.543285 0 0.029169 
0.133671 0.107696 -0.135431 
0.063484 0.144407 -0.180455 
-0.24699 0 -0.202256 
0.094997 0 -0.158827 
0.290787 0 -0.173608 
-0.215054 0.143552 -0.110173 
-0.543236 0 -0.202151 
-0.372807 0.143303 -0.202332 
0.197918 0.001476 -0.324786 
0.203934 0.14368 -0.325847 
3 3 0 6
3 10 3 6
3 10 6 5
3 1 8 2
3 10 5 4
3 10 4 7
3 10 7 8
3 10 8 1
3 19 52 53
3 9 1 2
3 9 2 8
3 10 0 3
3 27 54 55
3 5 7 4
3 6 0 11
3 27 55 56
3 12 14 16
3 57 19 53
3 9 8 13
3 24 15 0
3 58 59 54
3 17 27 56
3 0 15 11
3 49 60 61
3 29 37 62
3 16 14 18
3 14 12 63
3 49 61 52
3 12 16 21
3 15 23 11
3 11 23 64
3 20 13 8
3 24 23 15
3 16 30 21
3 65 9 22
3 22 9 13
3 14 35 18
3 49 66 60
3 22 13 20
3 32 27 17
3 42 67 68
3 69 42 68
3 35 14 63
3 22 20 25
3 33 70 65
3 24 26 23
3 23 28 64
3 19 49 52
3 38 29 62
3 71 42 69
3 33 65 22
3 23 26 28
3 62 72 38
3 34 70 33
3 49 38 66
3 73 25 20
3 58 43 74
3 27 58 54
3 26 31 28
3 75 35 63
3 22 25 73
3 43 76 74
3 38 36 29
3 22 34 33
3 36 37 29
3 21 30 39
3 39 22 73
3 39 34 22
3 21 39 73
3 32 43 27
3 48 36 38
3 41 75 63
3 40 19 77
3 39 44 34
3 42 78 67
3 79 43 32
3 80 81 73
3 44 70 34
3 82 41 63
3 75 44 39
3 50 75 41
3 45 76 43
3 48 51 36
3 47 83 44
3 31 84 28
3 46 85 83
3 47 46 83
3 40 49 19
3 86 41 82
3 31 85 84
3 44 80 47
3 47 80 46
3 44 81 80
3 85 46 84
3 46 80 84
3 42 87 79
3 41 86 50
3 44 50 81
3 81 50 86
3 27 43 58
