ply
format ascii 1.0
comment VCGLIB generated
comment TextureFile Dungeons_Texture_01.png
element vertex 406
property float x
property float y
property float z
property float nx
property float ny
property float nz
property uchar red
property uchar green
property uchar blue
property uchar alpha
property float texture_u
property float texture_v
element face 500
property list uchar int vertex_indices
end_header
0.440556 5.042181 0.405296 0.7492805 0.0001482005 0.6622528 120 120 119 255 0.199071 0.300447
0.020477 5.039858 0.40494 -0.001000496 -0.0001471164 0.9999995 120 120 119 255 0.199071 0.300447
0.440643 4.602206 0.405296 0.8016592 0.09167159 0.5907105 120 120 119 255 0.199071 0.300447
-0.031956 5.0422 0.405296 0.02402472 -0.02250184 0.9994581 106 103 98 255 0.222743 0.29497
-0.449486 5.020125 0.405296 -0.8952651 -0.005799168 0.4454961 106 103 98 255 0.222743 0.29497
-0.444824 4.60139 0.405296 -0.4300037 -0.02534723 0.9024712 106 103 98 255 0.222743 0.29497
0.020477 4.604577 0.404812 -0.00115356 -0.0002940651 0.9999993 120 120 119 255 0.199071 0.300447
-0.032887 4.582892 0.331937 0.1128241 -0.1028153 0.9882812 97 95 95 255 0.199094 0.278274
-0.117573 4.598968 0.389437 0.2022398 -0.8692886 0.4510393 97 95 95 255 0.199094 0.278274
-0.032185 4.048449 0.332356 0.06468669 0.09720381 0.9931601 120 120 119 255 0.199071 0.300447
-0.447048 4.011732 0.405296 -0.6451867 -0.004508468 0.7640117 120 120 119 255 0.199071 0.300447
-0.444012 3.57726 0.405296 -0.6890455 0.06950789 0.7213772 120 120 119 255 0.199071 0.300447
-0.030571 3.675515 0.405134 -0.04504393 0.1911544 0.9805259 120 120 119 255 0.199071 0.300447
0.440273 4.025231 0.405245 0.7047303 -0.0446427 0.7080694 120 120 119 255 0.199071 0.300447
0.020477 4.025011 0.404978 -0.000635872 -0.0002838619 0.9999998 120 120 119 255 0.199071 0.300447
0.020439 3.577634 0.404851 0.04743351 -0.04536978 0.9978435 120 120 119 255 0.199071 0.300447
0.427067 3.624187 0.370001 0.701542 -0.08527732 0.7075074 120 120 119 255 0.199071 0.300447
-0.011978 3.554328 0.331588 0.01322605 -0.1980724 0.9800982 97 95 95 255 0.199094 0.278274
-0.032238 3.002818 0.405183 -0.02944547 0.02731738 0.9991931 120 120 119 255 0.199071 0.300447
-0.397682 2.976415 0.385049 -0.555324 0.1006849 0.8255167 120 120 119 255 0.199071 0.300447
-0.444016 2.554864 0.405295 -0.6274539 0.05531095 0.7766867 120 120 119 255 0.199071 0.300447
-0.032207 2.555026 0.405295 -9.848328e-08 0.0002501762 1 120 120 119 255 0.199071 0.300447
0.440258 3.002818 0.405231 0.8832111 -0.0165863 0.4686823 120 120 119 255 0.199071 0.300447
0.020477 3.002602 0.404978 -0.000800007 -8.870674e-06 0.9999997 120 120 119 255 0.199071 0.300447
0.4217 2.554612 0.405295 0.4356629 -0.01807181 0.8999285 120 120 119 255 0.199071 0.300447
0.020477 2.555225 0.404895 -0.0009972516 -0.0001855245 0.9999995 120 120 119 255 0.199071 0.300447
0.08704 1.962937 0.385103 -0.1122945 0.7193575 0.6855032 97 95 95 255 0.199094 0.278274
-0.010315 1.977509 0.332915 0.1179776 0.1662346 0.9790033 97 95 95 255 0.199094 0.278274
0.030136 1.8826 0.393307 -0.5881862 0.125085 0.7989936 97 95 95 255 0.199094 0.278274
0.440269 1.98063 0.405295 0.5399066 -0.004681635 0.8417119 120 120 119 255 0.199071 0.300447
0.020477 1.533069 0.404974 -0.0303229 0.02772489 0.9991556 120 120 119 255 0.199071 0.300447
0.397736 1.532886 0.405295 0.4168713 -0.03960026 0.9081025 120 120 119 255 0.199071 0.300447
-0.032188 1.980629 0.405259 0.06336046 -0.05841853 0.9962795 106 103 98 255 0.222743 0.29497
-0.444012 1.98084 0.405295 -0.7070714 -0.002708562 0.707137 106 103 98 255 0.222743 0.29497
-0.442493 1.532868 0.405098 -0.6857911 -0.04547723 0.7263762 106 103 98 255 0.222743 0.29497
-0.03022 1.529384 0.351892 0.1261662 -0.1159665 0.9852076 106 103 98 255 0.222743 0.29497
0.44112 1.532868 0.354617 0.9731959 -0.02464802 0.2286532 120 120 119 255 0.199071 0.300447
0.44062 0.955881 0.405295 0.8941053 -0.002071353 0.4478521 106 103 98 255 0.222743 0.29497
0.03302 0.956319 0.405295 -0.0003957604 -0.0003615521 0.9999999 106 103 98 255 0.222743 0.29497
0.440311 0.510492 0.405295 0.4469303 -0.0006337385 0.8945686 106 103 98 255 0.222743 0.29497
0.020477 0.510879 0.404963 -0.0007915207 -0.0007231041 0.9999995 106 103 98 255 0.222743 0.29497
-0.065197 0.929118 0.390474 0.04178185 0.03854459 0.998383 120 120 119 255 0.199071 0.300447
-0.444653 0.956549 0.405295 -0.8279765 0.02070322 0.5603806 120 120 119 255 0.199071 0.300447
-0.032166 0.510455 0.405255 0.02081661 0.01915868 0.9995998 120 120 119 255 0.199071 0.300447
-0.442554 0.510455 0.405187 -0.7073225 -0.003499309 0.7068824 120 120 119 255 0.199071 0.300447
0.017017 4.97554 0.316663 -0.7822825 0.4782928 0.3990865 97 95 95 255 0.199094 0.278274
0.450489 4.536709 0.394024 0.4554382 0.0002202138 0.8902674 106 103 98 255 0.222743 0.29497
-0.450489 4.536709 0.394024 -0.8929219 0.003084814 0.4502011 106 103 98 255 0.222743 0.29497
-0.450459 4.09347 0.394149 -0.7054716 -0.002574563 0.7087335 106 103 98 255 0.222743 0.29497
0.450459 4.09347 0.394149 0.9493036 0.03018173 0.3129086 106 103 98 255 0.222743 0.29497
0.168381 3.514398 0.391476 -0.004193657 0.01173295 0.9999224 106 103 98 255 0.222743 0.29497
-0.283764 3.514402 0.391477 -0.1255417 0.05254765 0.9906958 106 103 98 255 0.222743 0.29497
-0.450607 3.06544 0.394148 -0.2379394 -0.03230391 0.9707427 106 103 98 255 0.222743 0.29497
0.450306 3.514775 0.393835 0.7050389 0.0089914 0.7091117 106 103 98 255 0.222743 0.29497
0.45108 3.227364 0.394149 0.5841781 -0.2553017 0.7704265 106 103 98 255 0.222743 0.29497
-0.451199 3.459685 0.353816 -0.9185978 0.0401119 0.3931527 106 103 98 255 0.222743 0.29497
0.367695 3.068004 0.351144 0.4518622 -0.4450735 0.7731301 106 103 98 255 0.222743 0.29497
0.450302 2.492363 0.393828 0.7250094 0.0532637 0.6866763 120 120 119 255 0.199071 0.300447
-0.450302 2.492363 0.393828 -0.253677 -0.0216815 0.967046 120 120 119 255 0.199071 0.300447
0.057068 2.042098 0.393826 -0.02016424 -0.02272262 0.9995384 120 120 119 255 0.199071 0.300447
-0.451015 2.139725 0.394148 -0.8773113 0.01096784 0.4797964 120 120 119 255 0.199071 0.300447
-0.366013 2.045698 0.368398 0.1167888 -0.03447044 0.9925584 120 120 119 255 0.199071 0.300447
0.450302 2.042059 0.393828 0.7071203 0 0.7070934 120 120 119 255 0.199071 0.300447
-0.332779 1.995411 0.330773 -0.4398306 0.4991475 0.7465928 97 95 95 255 0.199094 0.278274
0.141296 1.47171 0.394142 0.01631265 0.007243053 0.9998407 120 120 119 255 0.199071 0.300447
-0.450607 1.471792 0.394148 -0.4468647 -0.001252757 0.8946007 120 120 119 255 0.199071 0.300447
0.057034 1.022413 0.393499 -0.000507534 -0.001050406 0.9999993 120 120 119 255 0.199071 0.300447
0.452087 1.472716 0.37821 0.5765151 -0.03652897 0.8162695 120 120 119 255 0.199071 0.300447
0.310848 1.113038 0.394148 0.1076857 -0.01375663 0.9940898 120 120 119 255 0.199071 0.300447
0.419025 1.052907 0.359539 0.4510503 -0.07507557 0.8893353 120 120 119 255 0.199071 0.300447
0.352428 1.031691 0.361855 0.3091234 -0.6909346 0.6534923 97 95 95 255 0.199094 0.278274
-0.450306 1.022413 0.393834 -0.8942648 -0.001253783 0.4475364 120 120 119 255 0.199071 0.300447
0.368134 0.387309 0.390261 0.3505086 0.7305406 0.5860497 97 95 95 255 0.199094 0.278274
0.332832 0.455289 0.3295 0.4922717 0.6771573 0.5469246 97 95 95 255 0.199094 0.278274
0.1684 0.44414 0.390064 0.05268481 0.9444022 0.3245442 97 95 95 255 0.199094 0.278274
-0.08353 0.1472 0.394148 0.002953053 0.007505877 0.9999675 120 120 119 255 0.199071 0.300447
0.452141 0.365844 0.357602 0.8319576 0.05124929 0.5524673 120 120 119 255 0.199071 0.300447
0.450489 -0 0.394027 0.7789631 0.02996965 0.6263532 120 120 119 255 0.199071 0.300447
-0.450462 0.44324 0.394148 -0.7055945 0.002969423 0.7086096 120 120 119 255 0.199071 0.300447
-0.450485 -0 0.394027 0.03697747 -0.9436715 0.3288112 97 95 95 255 0.199094 0.278274
-0.085117 0.036473 0.380212 0.003293542 -0.6527537 0.7575631 97 95 95 255 0.199094 0.278274
0.168484 0.010535 0.387489 -0.06813291 -0.7135945 0.697238 97 95 95 255 0.199094 0.278274
-0.353531 4.5969 0.330473 -0.2607611 -0.9056929 0.3342513 97 95 95 255 0.199094 0.278274
-0.331837 4.025876 0.35402 -0.398043 0.8403785 0.3678665 97 95 95 255 0.199094 0.278274
0.441132 3.002818 0.050661 0.9941593 -0.06366801 -0.08714129 120 120 119 255 0.199071 0.300447
0.442009 2.692762 0.15087 0.9892466 -0.06157283 -0.1326647 120 120 119 255 0.199071 0.300447
0.351284 2.039958 0.330513 0.2782932 -0.8766454 0.3924867 97 95 95 255 0.199094 0.278274
-0.029083 1.765294 0.353487 0.8853773 -0.01828035 0.4645137 97 95 95 255 0.199094 0.278274
-0.03212 1.482762 0.3323 0.07830904 0.418703 0.9047406 97 95 95 255 0.199094 0.278274
-0.333992 0.993629 0.330898 -0.5833281 -0.09478646 0.8066869 97 95 95 255 0.199094 0.278274
0.033096 0.969675 0.332026 -0.3018577 -0.0157572 0.9532228 97 95 95 255 0.199094 0.278274
0.141296 -0 0.242758 -0.007528007 -0.9928748 0.118924 97 95 95 255 0.199094 0.278274
-0.445629 5.043219 -0.405297 -0.02517969 0.9995834 0.01410663 97 95 95 255 0.199094 0.278274
0.033642 5.047162 0.012658 -0.4565044 0.8896849 0.008033354 97 95 95 255 0.199094 0.278274
-0.333824 4.559105 0.330769 -0.6089484 0.5027283 0.6135522 97 95 95 255 0.199094 0.278274
0.333969 4.046326 0.330817 0.5869757 0.4449843 0.6763494 97 95 95 255 0.199094 0.278274
-0.311661 3.555943 0.332654 -0.3869323 -0.6326078 0.6708881 97 95 95 255 0.199094 0.278274
0.336029 3.515241 0.35223 0.7162929 0.183541 0.673229 97 95 95 255 0.199094 0.278274
-0.366016 3.507818 0.33004 -0.3445611 0.8845505 0.3144009 97 95 95 255 0.199094 0.278274
0.452141 3.064516 0.195152 0.9907728 -0.1036294 0.08735135 106 103 98 255 0.222743 0.29497
-0.351639 3.062718 -0.086411 -0.3006724 -0.8287801 -0.471932 97 95 95 255 0.199094 0.278274
-0.332874 3.020767 0.330954 -0.5062172 0.5512944 0.6631883 97 95 95 255 0.199094 0.278274
-0.029789 3.00438 0.35221 0.04152414 0.7657508 0.6417955 97 95 95 255 0.199094 0.278274
-0.444546 3.002818 0.278638 -0.9887236 0.04139012 0.1439186 120 120 119 255 0.199071 0.300447
-0.032494 2.529314 0.332161 0.1317273 -0.2401408 0.961759 97 95 95 255 0.199094 0.278274
0.333488 2.507663 0.330569 0.6373938 -0.1959156 0.7452157 97 95 95 255 0.199094 0.278274
-0.442871 2.454837 -0.042498 -0.9648998 0.06942215 -0.2532765 120 120 119 255 0.199071 0.300447
-0.450645 2.042059 0.277406 -0.6566576 -0.717204 0.2332791 97 95 95 255 0.199094 0.278274
0.355705 1.983794 0.330582 0.3323364 0.8833151 0.330616 97 95 95 255 0.199094 0.278274
-0.010269 1.525368 0.332901 0.02679064 -0.2807754 0.9593995 97 95 95 255 0.199094 0.278274
-0.333229 1.482145 0.330304 -0.6560981 0.247224 0.7130328 97 95 95 255 0.199094 0.278274
0.452141 1.252462 0.354815 0.9577966 -0.03085804 0.2857855 120 120 119 255 0.199071 0.300447
-0.450932 1.472023 -0.139685 -0.7072986 -0.001544965 -0.7069132 120 120 119 255 0.199071 0.300447
0.355751 0.961165 0.330574 0.7444347 0.5912939 0.3101429 97 95 95 255 0.199094 0.278274
0.008705 0.455733 0.331645 0.1174968 -0.09445103 0.9885715 97 95 95 255 0.199094 0.278274
0.452141 0.445571 0.244068 0.9999925 -0.003171883 -0.00223676 120 120 119 255 0.199071 0.300447
-0.450886 -0 0.109978 -0.999992 -0.002155502 -0.003389593 120 120 119 255 0.199071 0.300447
0.351311 4.53869 0.330526 0.8317354 0.1481499 0.5350401 97 95 95 255 0.199094 0.278274
-0.452141 4.28882 0.195061 -0.9999993 -5.916932e-05 0.001209799 106 103 98 255 0.222743 0.29497
-0.333588 4.070334 0.33058 -0.8001444 -0.4359934 0.4119207 97 95 95 255 0.199094 0.278274
0.44043 3.577036 0.226878 0.9992723 -0.01393382 0.03550572 120 120 119 255 0.199071 0.300447
-0.336174 2.492625 0.352371 -0.8632635 0.4564859 0.215399 97 95 95 255 0.199094 0.278274
-0.333042 0.456128 0.33015 -0.6622534 0.4476915 0.6008267 97 95 95 255 0.199094 0.278274
0.35564 4.596347 -0.088139 0.5080138 -0.5438821 -0.6679179 97 95 95 255 0.199094 0.278274
-0.450882 4.093127 -0.139684 -0.7065145 -0.002053394 -0.7076957 106 103 98 255 0.222743 0.29497
-0.450287 3.514775 -0.139033 -0.1707884 0.9847956 -0.03176603 97 95 95 255 0.199094 0.278274
-0.450932 3.065209 -0.139684 -0.706979 0.000480475 -0.7072344 106 103 98 255 0.222743 0.29497
0.440475 1.981112 -0.102428 0.9990183 0.03968035 -0.01969842 120 120 119 255 0.199071 0.300447
-0.450279 2.042059 -0.139023 -0.4442386 -0.8737662 -0.1979512 97 95 95 255 0.199094 0.278274
-0.450287 1.022413 -0.139034 -0.3078729 -0.9161144 -0.2568048 97 95 95 255 0.199094 0.278274
0.354893 0.508142 -0.087791 0.4107221 -0.6551009 -0.6341531 97 95 95 255 0.199094 0.278274
0.425148 4.536709 -0.139401 0.8904479 0.0437637 -0.4529761 106 103 98 255 0.222743 0.29497
-0.324169 3.535695 0.104347 -0.9932428 -0.1159911 0.003849404 97 95 95 255 0.199094 0.278274
0.334301 2.50779 -0.087134 0.5371631 0.2656212 -0.8005631 97 95 95 255 0.199094 0.278274
0.333931 1.482331 -0.086838 0.5453925 0.7155985 -0.436424 97 95 95 255 0.199094 0.278274
0.355434 3.003678 -0.088069 0.4287994 0.8603128 -0.2756684 97 95 95 255 0.199094 0.278274
-0.354717 0.960862 -0.088225 -0.4598948 0.4776678 -0.7485521 97 95 95 255 0.199094 0.278274
0.440643 4.602206 -0.405297 0.02074293 -0.9996771 -0.01468414 97 95 95 255 0.199094 0.278274
-0.336227 4.086091 -0.103578 -0.3925844 -0.8848039 -0.2509973 97 95 95 255 0.199094 0.278274
0.335526 3.574817 -0.101228 0.2560234 -0.9326303 -0.2542691 97 95 95 255 0.199094 0.278274
0.450287 3.514775 -0.139033 0.002038981 0.9999978 -0.000474082 97 95 95 255 0.199094 0.278274
0.335281 1.531707 -0.100744 0.2430308 -0.8355011 -0.4928225 97 95 95 255 0.199094 0.278274
0.45047 0 -0.139223 0.8937424 -0.002549066 -0.4485735 120 120 119 255 0.199071 0.300447
0.393265 5.021231 0.025844 0.07206701 0.9973915 -0.00407372 97 95 95 255 0.199094 0.278274
-0.015301 4.963717 -0.024741 0.128476 0.9915399 0.0185075 97 95 95 255 0.199094 0.278274
-0.336018 4.53751 -0.103289 -0.35455 0.8829705 -0.3076645 97 95 95 255 0.199094 0.278274
0.351753 4.085061 -0.086448 0.428021 -0.8450897 -0.3203459 97 95 95 255 0.199094 0.278274
-0.332748 3.002949 -0.101213 -0.3337118 0.8920912 -0.3046473 97 95 95 255 0.199094 0.278274
0.366455 2.563015 0.012445 0.8580263 -0.5112171 -0.04947873 97 95 95 255 0.199094 0.278274
0.450287 1.022413 -0.139034 0.388193 -0.92082 0.03737303 97 95 95 255 0.199094 0.278274
-0.450886 0.443582 -0.139685 -0.0571963 0.9910369 -0.1207249 97 95 95 255 0.199094 0.278274
-0.333706 0.456287 -0.086596 -0.3841025 0.5239868 -0.7601995 97 95 95 255 0.199094 0.278274
0.450886 0.443582 -0.139685 0.1783509 0.945697 -0.2717503 97 95 95 255 0.199094 0.278274
-0.354519 4.596587 -0.088103 -0.4457685 -0.7786132 -0.4416469 97 95 95 255 0.199094 0.278274
-0.354134 4.026194 -0.087957 -0.5122795 0.7321241 -0.4489589 97 95 95 255 0.199094 0.278274
0.440273 4.025231 -0.405246 0.0207862 0.9996446 -0.01669496 97 95 95 255 0.199094 0.278274
-0.332672 2.55195 -0.10107 -0.4164072 -0.8660442 -0.2767177 97 95 95 255 0.199094 0.278274
-0.33374 1.995408 -0.086842 -0.5109341 0.3187423 -0.7983419 97 95 95 255 0.199094 0.278274
-0.353668 0.508507 -0.087687 -0.3966864 -0.8702396 -0.2921008 97 95 95 255 0.199094 0.278274
0.442013 4.899874 0.012658 0.9796563 0.1765234 0.09546216 120 120 119 255 0.199071 0.300447
0.335461 4.025816 -0.101104 0.2185114 0.8241054 -0.5225925 97 95 95 255 0.199094 0.278274
-0.349255 2.487947 -0.130078 -0.3681048 0.7493271 -0.5504615 97 95 95 255 0.199094 0.278274
0.335808 1.020775 -0.102998 0.5620111 -0.6509034 -0.5103611 97 95 95 255 0.199094 0.278274
0.440311 0.510492 -0.405298 0.7070602 -0.001529286 -0.7071517 106 103 98 255 0.222743 0.29497
-0.268406 0.000491 -0.138503 -0.1874315 -0.9723788 -0.1391002 97 95 95 255 0.199094 0.278274
0.268459 3.514775 -0.139275 0.2742507 0.6918834 -0.6678953 97 95 95 255 0.199094 0.278274
0.40435 2.695973 0.075241 0.9754151 -0.1311135 -0.1771288 120 120 119 255 0.199071 0.300447
0.335808 0.960758 -0.101827 0.5780805 0.7900255 -0.2041631 97 95 95 255 0.199094 0.278274
-0.444016 2.554864 -0.405298 -0.7065126 0.001213375 -0.7076995 120 120 119 255 0.199071 0.300447
0.450279 2.042059 -0.139023 0.007145788 -0.999514 -0.03034198 97 95 95 255 0.199094 0.278274
0.450932 1.472023 -0.139685 0.03046707 0.9901939 -0.1363375 97 95 95 255 0.199094 0.278274
0.451241 4.269265 -0.139684 0.5578036 0.02714876 -0.8295289 106 103 98 255 0.222743 0.29497
-0.45047 4.536709 -0.139218 -0.7064033 0.003430502 -0.7078013 106 103 98 255 0.222743 0.29497
-0.444824 4.601389 -0.405297 -0.6991288 -0.05152384 -0.7131369 106 103 98 255 0.222743 0.29497
-0.336159 3.515173 -0.103492 -0.5120507 0.8487654 -0.1319146 97 95 95 255 0.199094 0.278274
0.368629 3.064472 -0.086739 0.2167565 -0.8670996 -0.448503 97 95 95 255 0.199094 0.278274
-0.442478 3.002818 -0.405108 -0.7059172 0.002724105 -0.7082891 120 120 119 255 0.199071 0.300447
0.33596 2.04113 -0.10323 0.5520455 -0.4240719 -0.7179198 97 95 95 255 0.199094 0.278274
-0.353798 1.531345 -0.087776 -0.3132235 -0.9203019 -0.2343833 97 95 95 255 0.199094 0.278274
-0.333965 1.482317 -0.086823 -0.3857253 0.502053 -0.7740535 97 95 95 255 0.199094 0.278274
0.440254 1.532868 -0.405232 0.004981832 -0.999979 -0.004160393 97 95 95 255 0.199094 0.278274
-0.031887 5.042209 -0.405297 0.9205357 0.387025 -0.05315788 97 95 95 255 0.199094 0.278274
-0.444012 1.98084 -0.405298 -0.06542098 0.997593 -0.02298253 97 95 95 255 0.199094 0.278274
0.440273 2.555072 -0.405298 0.9105824 -0.05027892 -0.4102582 120 120 119 255 0.199071 0.300447
0.375744 2.556757 -0.124671 -0.6752112 0.713854 0.1857483 97 95 95 255 0.199094 0.278274
0.440556 5.042181 -0.405297 0.7080615 0.1321191 -0.6936812 120 120 119 255 0.199071 0.300447
0.450932 3.065209 -0.139684 0.002535816 -0.999947 -0.009976532 97 95 95 255 0.199094 0.278274
0.440258 3.002818 -0.405233 0.002917081 0.999994 -0.001880137 97 95 95 255 0.199094 0.278274
0.392231 2.563399 -0.089375 0.726546 -0.6771424 -0.1166583 97 95 95 255 0.199094 0.278274
0.450882 4.093127 -0.139684 0.03880598 -0.9818881 -0.1854451 97 95 95 255 0.199094 0.278274
-0.333885 3.557033 -0.087138 -0.4222955 -0.8641291 -0.2737655 97 95 95 255 0.199094 0.278274
-0.442253 0.510681 -0.240655 -0.2088323 -0.9706516 -0.1192666 97 95 95 255 0.199094 0.278274
-0.448715 0.127772 -0.137356 -0.4463453 -0.004789426 -0.894848 120 120 119 255 0.199071 0.300447
0.451241 3.303619 -0.139684 0.3712909 0.001729002 -0.928515 106 103 98 255 0.222743 0.29497
0.03476 4.596862 -0.101911 -0.09450962 -0.9012158 -0.4229398 97 95 95 255 0.199094 0.278274
-0.030674 4.537561 -0.103296 -0.01137674 0.6058675 -0.7954843 97 95 95 255 0.199094 0.278274
-0.162285 4.068811 -0.092064 -0.01374352 -0.5246298 -0.8512195 97 95 95 255 0.199094 0.278274
-0.442509 4.025231 -0.405109 0.04463841 0.9939757 -0.1000985 97 95 95 255 0.199094 0.278274
0.017887 4.026508 -0.100285 0.0417489 0.8244879 -0.5643374 97 95 95 255 0.199094 0.278274
-0.032906 3.555354 -0.091848 -0.06757133 -0.1791456 -0.9814994 97 95 95 255 0.199094 0.278274
-0.032028 3.003363 -0.100944 0.005692179 0.8355706 -0.5493536 97 95 95 255 0.199094 0.278274
0.018284 2.55324 -0.100346 0.03132351 -0.6608136 -0.7498962 97 95 95 255 0.199094 0.278274
0.028664 2.040023 -0.105206 0.009517287 -0.7429197 -0.669313 97 95 95 255 0.199094 0.278274
0.018047 1.980095 -0.100607 0.0470537 0.6581941 -0.7513765 97 95 95 255 0.199094 0.278274
-0.032154 1.530041 -0.100389 -0.1002751 -0.8230023 -0.5591173 97 95 95 255 0.199094 0.278274
-0.054276 1.48288 -0.091991 -0.00168878 0.5518816 -0.8339208 97 95 95 255 0.199094 0.278274
0.098907 1.022413 -0.139318 -0.01909274 -0.6175027 -0.786337 97 95 95 255 0.199094 0.278274
-0.052383 0.960759 -0.102283 0.2052714 0.7438565 -0.6360355 97 95 95 255 0.199094 0.278274
-0.028313 0.931619 -0.101372 0.2256947 0.3234897 -0.9189213 97 95 95 255 0.199094 0.278274
0.018002 0.506677 -0.100012 -0.006292808 -0.8163666 -0.5774998 97 95 95 255 0.199094 0.278274
-0.162308 0.456934 -0.0917 -0.0139895 0.5553022 -0.831531 97 95 95 255 0.199094 0.278274
-0.444057 3.576001 -0.316641 -0.0941718 -0.9803417 -0.1733837 97 95 95 255 0.199094 0.278274
0.020477 3.577652 -0.404868 0.01914552 -0.8132599 -0.5815856 97 95 95 255 0.199094 0.278274
-0.183701 3.066817 -0.139678 0.001958174 -0.9988297 -0.04832695 97 95 95 255 0.199094 0.278274
-0.183685 2.044352 -0.139309 0.02605478 -0.8858683 -0.4632048 97 95 95 255 0.199094 0.278274
-0.032173 1.980655 -0.405298 0.6126719 0.7537391 -0.2377195 97 95 95 255 0.199094 0.278274
0.441315 1.819452 -0.405298 0.6977338 0.1590101 -0.6984866 120 120 119 255 0.199071 0.300447
0.440269 3.577469 -0.405297 0.01143248 -0.9999232 -0.004783428 97 95 95 255 0.199094 0.278274
-0.032169 2.55505 -0.405298 0.001395924 -0.9999716 -0.007410185 97 95 95 255 0.199094 0.278274
-0.182343 1.532877 -0.405298 0.1549455 -0.9453678 -0.2868304 97 95 95 255 0.199094 0.278274
-0.451557 0.622485 -0.378957 -0.939642 0.004288115 -0.3421324 120 120 119 255 0.199071 0.300447
-0.029228 3.989922 -0.101009 -0.8651946 0.4996189 0.0426548 97 95 95 255 0.199094 0.278274
0.020477 4.024961 -0.404942 -0.3901391 0.8731021 -0.2923771 97 95 95 255 0.199094 0.278274
0.020477 0.953479 -0.404802 0.1995891 0.8858424 -0.4188646 97 95 95 255 0.199094 0.278274
-0.032177 3.577445 -0.405297 -0.02303219 -0.9201859 -0.3908036 97 95 95 255 0.199094 0.278274
0.020477 1.980447 -0.404867 -0.5273914 0.725692 -0.4418479 97 95 95 255 0.199094 0.278274
-0.015228 1.581975 -0.379491 -0.1536811 -0.496739 -0.8541853 97 95 95 255 0.199094 0.278274
0.020477 1.533121 -0.404944 -0.6148025 -0.6654617 -0.423295 97 95 95 255 0.199094 0.278274
-0.44207 1.533358 -0.316354 -0.01265456 -0.9999123 -0.003918783 97 95 95 255 0.199094 0.278274
-0.029816 4.996921 -0.392282 0.8356924 0.3205464 -0.4459465 97 95 95 255 0.199094 0.278274
0.441364 0.777771 -0.405298 0.8004379 0.4704253 -0.3714825 97 95 95 255 0.199094 0.278274
-0.028034 0.543383 -0.101796 0.00837704 -0.9999645 -0.0009710686 97 95 95 255 0.199094 0.278274
0.020477 0.510938 -0.404938 -0.2038289 -0.9290757 -0.3086618 97 95 95 255 0.199094 0.278274
0.425114 1.968433 -0.309978 0.2085008 0.9751422 -0.0750016 97 95 95 255 0.199094 0.278274
0.336025 1.98021 -0.404522 0.1052737 0.9936638 -0.0393658 97 95 95 255 0.199094 0.278274
-0.421261 0.958566 -0.405298 -0.009729975 0.9999115 -0.009072575 97 95 95 255 0.199094 0.278274
-0.032154 0.510455 -0.405288 0.2141297 -0.8557941 -0.4709193 97 95 95 255 0.199094 0.278274
0.020477 5.039818 -0.404874 -0.5631376 0.6410045 -0.521526 97 95 95 255 0.199094 0.278274
0.411041 0.930906 -0.36439 0.5806811 0.7086247 -0.400825 97 95 95 255 0.199094 0.278274
-0.0298 4.642502 -0.392337 0.120169 -0.8211908 -0.5578576 97 95 95 255 0.199094 0.278274
0.020477 4.604621 -0.404777 -0.3798287 -0.6258144 -0.6812391 97 95 95 255 0.199094 0.278274
0.020477 3.002568 -0.404958 -2.82625e-05 0.9999966 -0.002619513 97 95 95 255 0.199094 0.278274
-0.030666 3.935909 -0.405297 -0.01738039 0.2738803 -0.9616067 97 95 95 255 0.199094 0.278274
-0.015663 1.939444 -0.377846 0.5139384 0.3693956 -0.7742185 97 95 95 255 0.199094 0.278274
-0.376633 3.870271 -0.405297 -0.31888 -0.05929229 -0.9459387 120 120 119 255 0.199071 0.300447
-0.398415 0.541815 -0.403306 -0.5168172 -0.8043037 -0.2932501 97 95 95 255 0.199094 0.278274
-0.029655 4.879246 -0.392126 0.5853576 7.362368e-05 -0.8107753 97 95 95 255 0.199094 0.278274
-0.375237 3.608569 -0.39812 -0.09038959 -0.8961099 -0.4345305 97 95 95 255 0.199094 0.278274
-0.030674 1.622501 -0.405298 0.7169987 -0.1583824 -0.6788431 97 95 95 255 0.199094 0.278274
-0.447186 1.70402 -0.405298 -0.3214601 -0.1093203 -0.9405916 106 103 98 255 0.222743 0.29497
-0.030678 4.855249 -0.405297 0.9952044 0.002688704 -0.09778064 97 95 95 255 0.199094 0.278274
-0.030632 4.740056 -0.405297 0.9973191 -7.608302e-05 -0.07317515 97 95 95 255 0.199094 0.278274
-0.031956 5.0422 0.405296 0.7184614 0.6247842 0.3057088 97 95 95 255 0.199094 0.278274
-0.117573 4.598968 0.389437 0.0480234 -0.04497928 0.997833 106 103 98 255 0.222743 0.29497
-0.030571 3.675515 0.405134 0.6958321 -0.2915722 0.6563562 97 95 95 255 0.199094 0.278274
-0.444012 3.57726 0.405296 -0.1442489 -0.9558558 0.255992 97 95 95 255 0.199094 0.278274
0.08704 1.962937 0.385103 -0.05974544 0.05532368 0.9966794 120 120 119 255 0.199071 0.300447
0.020477 1.533069 0.404974 -0.4238852 -0.4779813 0.7693213 97 95 95 255 0.199094 0.278274
0.020477 5.039858 0.40494 -0.8767323 0.4808434 0.01140936 97 95 95 255 0.199094 0.278274
0.020477 4.604577 0.404812 -0.6522391 -0.5287176 0.5431777 97 95 95 255 0.199094 0.278274
-0.444012 1.98084 0.405295 -0.08724355 0.9940836 0.06470198 97 95 95 255 0.199094 0.278274
-0.032188 1.980629 0.405259 0.7098369 0.6780354 0.1907869 97 95 95 255 0.199094 0.278274
0.310848 1.113038 0.394148 0.1207869 -0.3123201 0.9422668 97 95 95 255 0.199094 0.278274
0.057034 1.022413 0.393499 0.07000775 -0.6384063 0.7665092 97 95 95 255 0.199094 0.278274
0.419025 1.052907 0.359539 0.6215957 -0.6208026 0.4777268 97 95 95 255 0.199094 0.278274
0.368134 0.387309 0.390261 0.1310155 0.03800936 0.9906514 120 120 119 255 0.199071 0.300447
0.1684 0.44414 0.390064 0.004472349 0.009958337 0.9999405 120 120 119 255 0.199071 0.300447
-0.08353 0.1472 0.394148 -0.005965395 -0.1158855 0.9932446 97 95 95 255 0.199094 0.278274
0.450489 -0 0.394027 -0.0279377 -0.8893047 0.4564611 97 95 95 255 0.199094 0.278274
-0.444824 4.60139 0.405296 -0.03544895 -0.9992033 0.01833117 97 95 95 255 0.199094 0.278274
-0.447048 4.011732 0.405296 -0.08464076 0.9951702 0.04972244 97 95 95 255 0.199094 0.278274
-0.032185 4.048449 0.332356 -0.2430392 0.1803875 0.9530962 97 95 95 255 0.199094 0.278274
0.057068 2.042098 0.393826 0.01058424 -0.8078491 0.5892944 97 95 95 255 0.199094 0.278274
-0.366013 2.045698 0.368398 -0.4101413 -0.8543334 0.3192154 97 95 95 255 0.199094 0.278274
0.450302 2.042059 0.393828 0.0105591 -0.9998054 0.01666263 97 95 95 255 0.199094 0.278274
-0.03022 1.529384 0.351892 0.5694352 -0.3596919 0.7391652 97 95 95 255 0.199094 0.278274
-0.450607 1.471792 0.394148 -0.03028807 0.9933985 0.1106436 97 95 95 255 0.199094 0.278274
0.141296 1.47171 0.394142 0.002624825 0.9856488 0.1687885 97 95 95 255 0.199094 0.278274
-0.065197 0.929118 0.390474 0.4615679 0.5012975 0.7318851 97 95 95 255 0.199094 0.278274
-0.444653 0.956549 0.405295 -0.1094143 0.9791372 0.1712274 97 95 95 255 0.199094 0.278274
0.44062 0.955881 0.405295 0.2211864 0.9750484 0.01890293 97 95 95 255 0.199094 0.278274
0.03302 0.956319 0.405295 -0.6966062 0.7059499 0.1279633 97 95 95 255 0.199094 0.278274
0.020477 0.510879 0.404963 -0.8887295 -0.3230069 0.3253098 97 95 95 255 0.199094 0.278274
-0.449486 5.020125 0.405296 -0.05277615 0.9982085 0.02818831 97 95 95 255 0.199094 0.278274
0.440556 5.042181 0.405296 0.03434007 0.9991475 -0.02291337 97 95 95 255 0.199094 0.278274
-0.450489 4.536709 0.394024 -0.07483704 0.9924326 0.09734984 97 95 95 255 0.199094 0.278274
0.450489 4.536709 0.394024 0.02307649 0.9613312 0.2744264 97 95 95 255 0.199094 0.278274
0.450459 4.09347 0.394149 0.1736558 -0.9664695 0.1891573 97 95 95 255 0.199094 0.278274
-0.450459 4.09347 0.394149 -0.07276579 -0.9556018 0.2855352 97 95 95 255 0.199094 0.278274
0.427067 3.624187 0.370001 0.475305 -0.5136893 0.7142889 97 95 95 255 0.199094 0.278274
0.020439 3.577634 0.404851 -0.5525588 -0.3876629 0.7378322 97 95 95 255 0.199094 0.278274
-0.451199 3.459685 0.353816 -0.422208 0.8711043 0.2508341 97 95 95 255 0.199094 0.278274
-0.283764 3.514402 0.391477 -0.1924524 0.96918 0.1537931 97 95 95 255 0.199094 0.278274
0.168381 3.514398 0.391476 -0.003128769 0.9628854 0.2698925 97 95 95 255 0.199094 0.278274
0.450306 3.514775 0.393835 0.001306288 0.9999702 0.007609118 97 95 95 255 0.199094 0.278274
-0.450607 3.06544 0.394148 -0.136181 -0.9711159 0.1959303 97 95 95 255 0.199094 0.278274
0.367695 3.068004 0.351144 0.5147398 0.2161067 0.8296632 97 95 95 255 0.199094 0.278274
-0.397682 2.976415 0.385049 -0.2016345 0.8619624 0.4651497 97 95 95 255 0.199094 0.278274
-0.032238 3.002818 0.405183 0.7143542 0.6599967 0.2325996 97 95 95 255 0.199094 0.278274
0.020477 3.002602 0.404978 -0.5254308 0.4930347 0.6934258 97 95 95 255 0.199094 0.278274
0.440258 3.002818 0.405231 0.2857067 0.923184 0.2571051 97 95 95 255 0.199094 0.278274
-0.032207 2.555026 0.405295 0.7077187 -0.6673672 0.2318517 97 95 95 255 0.199094 0.278274
-0.444016 2.554864 0.405295 -0.1274207 -0.9436088 0.3055594 97 95 95 255 0.199094 0.278274
0.4217 2.554612 0.405295 0.5654042 -0.8160693 0.1197873 97 95 95 255 0.199094 0.278274
0.020477 2.555225 0.404895 -0.34913 -0.7171818 0.6031239 97 95 95 255 0.199094 0.278274
-0.451015 2.139725 0.394148 -0.8794744 -0.3664134 0.3037531 97 95 95 255 0.199094 0.278274
0.440269 1.98063 0.405295 -0.009626045 0.9985385 0.05318118 97 95 95 255 0.199094 0.278274
-0.442493 1.532868 0.405098 -0.1498576 -0.9680458 0.2010724 97 95 95 255 0.199094 0.278274
0.397736 1.532886 0.405295 0.5041391 -0.6240852 0.5969602 97 95 95 255 0.199094 0.278274
0.452087 1.472716 0.37821 0.2808554 0.8925275 0.3528669 97 95 95 255 0.199094 0.278274
-0.450306 1.022413 0.393834 -0.1057098 -0.9351129 0.3382149 97 95 95 255 0.199094 0.278274
-0.032166 0.510455 0.405255 0.3727693 -0.6374808 0.6742857 97 95 95 255 0.199094 0.278274
0.440311 0.510492 0.405295 0.1439715 -0.9429606 0.3001624 97 95 95 255 0.199094 0.278274
-0.450485 -0 0.394027 -0.7066854 -0.0001565092 0.7075279 120 120 119 255 0.199071 0.300447
0.440643 4.602206 0.405296 0.2593004 -0.9435851 0.2059382 97 95 95 255 0.199094 0.278274
0.020477 4.025011 0.404978 -0.3375562 0.8044841 0.4887342 97 95 95 255 0.199094 0.278274
0.440273 4.025231 0.405245 0.09838908 0.9854245 0.1387737 97 95 95 255 0.199094 0.278274
-0.450302 2.492363 0.393828 -0.1096469 0.9881359 0.1075406 97 95 95 255 0.199094 0.278274
0.450302 2.492363 0.393828 -0.1973563 0.9684111 0.1524152 97 95 95 255 0.199094 0.278274
-0.442554 0.510455 0.405187 -0.184964 -0.9659697 0.1808061 97 95 95 255 0.199094 0.278274
-0.450462 0.44324 0.394148 -0.05476715 0.9935199 0.09959279 97 95 95 255 0.199094 0.278274
-0.450932 3.065209 -0.139684 -0.009660707 -0.9995405 -0.02873148 97 95 95 255 0.199094 0.278274
-0.444546 3.002818 0.278638 -0.1536057 0.9822839 0.107348 97 95 95 255 0.199094 0.278274
0.452141 0.365844 0.357602 0.3969823 0.7511248 0.5274625 97 95 95 255 0.199094 0.278274
0.452141 0.445571 0.244068 0.3243161 0.8685479 0.3747582 97 95 95 255 0.199094 0.278274
0.440475 1.981112 -0.102428 0.1477374 0.9690078 -0.1979834 97 95 95 255 0.199094 0.278274
0.44043 3.577036 0.226878 0.4048631 -0.9126427 0.05629532 97 95 95 255 0.199094 0.278274
-0.450279 2.042059 -0.139023 -0.7071187 0.08825671 -0.7015653 120 120 119 255 0.199071 0.300447
-0.450932 1.472023 -0.139685 -0.0454858 0.9938661 -0.1008027 97 95 95 255 0.199094 0.278274
0.44112 1.532868 0.354617 0.006519391 -0.9999782 0.001034231 97 95 95 255 0.199094 0.278274
0.393265 5.021231 0.025844 0.9673673 0.2380821 0.08670326 120 120 119 255 0.199071 0.300447
0.425148 4.536709 -0.139401 0.1879733 0.9604751 -0.2053132 97 95 95 255 0.199094 0.278274
-0.450882 4.093127 -0.139684 -0.05843909 -0.9927434 -0.1050981 97 95 95 255 0.199094 0.278274
0.442009 2.692762 0.15087 0.9281414 -0.220625 -0.299797 97 95 95 255 0.199094 0.278274
-0.450287 1.022413 -0.139034 -0.7072755 -0.002038202 -0.706935 120 120 119 255 0.199071 0.300447
0.452141 1.252462 0.354815 0.9842488 -0.1616402 0.07160165 97 95 95 255 0.199094 0.278274
0.440643 4.602206 -0.405297 0.8937008 -0.001969519 -0.4486591 120 120 119 255 0.199071 0.300447
0.45047 0 -0.139223 -0.000228056 -0.9999999 -0.0003853131 97 95 95 255 0.199094 0.278274
0.440273 4.025231 -0.405246 0.7067531 0.0001025427 -0.7074603 120 120 119 255 0.199071 0.300447
-0.450886 -0 0.109978 -0.2830949 -0.9358754 -0.2097491 97 95 95 255 0.199094 0.278274
0.441132 3.002818 0.050661 0.01003013 0.9999497 2.669612e-06 97 95 95 255 0.199094 0.278274
0.40435 2.695973 0.075241 0.9701195 -0.2414367 -0.02400949 97 95 95 255 0.199094 0.278274
-0.450886 0.443582 -0.139685 -0.8923295 -0.006198568 -0.4513421 120 120 119 255 0.199071 0.300447
0.450287 3.514775 -0.139033 0.8946229 0.005228447 -0.4467915 106 103 98 255 0.222743 0.29497
-0.442871 2.454837 -0.042498 -0.4021627 0.9115908 -0.08524986 97 95 95 255 0.199094 0.278274
0.450886 0.443582 -0.139685 0.3145415 -0.001829223 -0.949242 120 120 119 255 0.199071 0.300447
-0.445629 5.043219 -0.405297 -0.3157683 -0.0005753126 -0.9488362 106 103 98 255 0.222743 0.29497
0.452141 3.064516 0.195152 -0.009447444 -0.999951 0.002955328 97 95 95 255 0.199094 0.278274
0.440311 0.510492 -0.405298 0.0103343 -0.9999241 -0.006718116 97 95 95 255 0.199094 0.278274
0.450279 2.042059 -0.139023 0.4389299 0.06904774 -0.8958644 120 120 119 255 0.199071 0.300447
-0.442478 3.002818 -0.405108 -0.0006727689 0.9999995 -0.0008194984 97 95 95 255 0.199094 0.278274
0.440254 1.532868 -0.405232 0.8950084 -0.001634789 -0.4460462 120 120 119 255 0.199071 0.300447
0.450932 1.472023 -0.139685 0.7063093 -0.001137484 -0.7079024 120 120 119 255 0.199071 0.300447
-0.450287 3.514775 -0.139033 -0.4471674 0.002024786 -0.894448 106 103 98 255 0.222743 0.29497
-0.444016 2.554864 -0.405298 -0.01285641 -0.9999055 -0.004871979 97 95 95 255 0.199094 0.278274
-0.45047 4.536709 -0.139218 -0.002390674 0.9998826 -0.01513903 97 95 95 255 0.199094 0.278274
0.440258 3.002818 -0.405233 0.4466358 0.0004539733 -0.8947158 120 120 119 255 0.199071 0.300447
0.440273 2.555072 -0.405298 0.3932764 -0.9166791 0.07094461 97 95 95 255 0.199094 0.278274
0.375744 2.556757 -0.124671 0.3676543 0.07907863 -0.9265943 120 120 119 255 0.199071 0.300447
0.450287 1.022413 -0.139034 0.7063004 -0.002038214 -0.7079094 120 120 119 255 0.199071 0.300447
0.450882 4.093127 -0.139684 0.7073859 -0.001441768 -0.7068262 106 103 98 255 0.222743 0.29497
0.450932 3.065209 -0.139684 0.7058242 -0.0009147812 -0.7083865 106 103 98 255 0.222743 0.29497
-0.448715 0.127772 -0.137356 -0.5321366 -0.750301 -0.3922742 97 95 95 255 0.199094 0.278274
-0.444012 1.98084 -0.405298 -0.9558464 0.001142332 -0.2938646 106 103 98 255 0.222743 0.29497
-0.442509 4.025231 -0.405109 -0.638838 -0.04667067 -0.7679244 120 120 119 255 0.199071 0.300447
-0.349255 2.487947 -0.130078 -0.1725358 0.09061292 -0.9808266 120 120 119 255 0.199071 0.300447
-0.442253 0.510681 -0.240655 -0.9995603 -0.02600895 0.01423888 120 120 119 255 0.199071 0.300447
0.268459 3.514775 -0.139275 0.0004971015 0.002367286 -0.9999971 106 103 98 255 0.222743 0.29497
-0.183701 3.066817 -0.139678 6.76654e-06 -4.350273e-05 -1 106 103 98 255 0.222743 0.29497
0.334301 2.50779 -0.087134 -0.3043044 0.03029762 -0.9520929 120 120 119 255 0.199071 0.300447
-0.183685 2.044352 -0.139309 -0.0003602611 0.02067062 -0.9997863 120 120 119 255 0.199071 0.300447
0.098907 1.022413 -0.139318 9.704041e-05 -0.001238005 -0.9999992 120 120 119 255 0.199071 0.300447
-0.268406 0.000491 -0.138503 -0.002422055 0.00126422 -0.9999963 120 120 119 255 0.199071 0.300447
0.440556 5.042181 -0.405297 0.03210413 0.9992973 0.01934677 97 95 95 255 0.199094 0.278274
-0.444057 3.576001 -0.316641 -0.8130247 -0.07222491 -0.5777322 120 120 119 255 0.199071 0.300447
0.441364 0.777771 -0.405298 0.7073159 -0.002786551 -0.7068922 106 103 98 255 0.222743 0.29497
0.440269 3.577469 -0.405297 0.7066553 7.432234e-05 -0.707558 120 120 119 255 0.199071 0.300447
0.425114 1.968433 -0.309978 0.8791285 0.3209913 -0.3522751 120 120 119 255 0.199071 0.300447
-0.444824 4.601389 -0.405297 0.01660688 -0.9977939 -0.06427737 97 95 95 255 0.199094 0.278274
-0.421261 0.958566 -0.405298 -0.4454535 0.01665449 -0.8951502 120 120 119 255 0.199071 0.300447
-0.44207 1.533358 -0.316354 -0.9326417 -0.1803032 -0.3125226 106 103 98 255 0.222743 0.29497
-0.451557 0.622485 -0.378957 -0.8339544 -0.4552297 -0.3119072 97 95 95 255 0.199094 0.278274
0.336025 1.98021 -0.404522 0.2497699 0.1662106 -0.9539335 120 120 119 255 0.199071 0.300447
-0.030678 4.855249 -0.405297 0 0 -1 106 103 98 255 0.222743 0.29497
-0.030632 4.740056 -0.405297 0.01467253 -0.04382615 -0.9989315 106 103 98 255 0.222743 0.29497
-0.031887 5.042209 -0.405297 0 0 -1 106 103 98 255 0.222743 0.29497
0.020477 5.039818 -0.404874 -0.001005733 -0.0002229026 -0.9999995 120 120 119 255 0.199071 0.300447
0.020477 4.604621 -0.404777 -0.001121694 -0.0001115737 -0.9999994 120 120 119 255 0.199071 0.300447
-0.0298 4.642502 -0.392337 0.04392342 -0.1311971 -0.9903828 106 103 98 255 0.222743 0.29497
-0.030666 3.935909 -0.405297 -0.0004561231 1.922616e-06 -0.9999999 120 120 119 255 0.199071 0.300447
-0.032177 3.577445 -0.405297 -0.007416348 -0.008544457 -0.999936 120 120 119 255 0.199071 0.300447
0.020477 4.024961 -0.404942 -0.0007240159 -0.0001654318 -0.9999998 120 120 119 255 0.199071 0.300447
0.020477 3.577652 -0.404868 -0.0008729555 -2.573734e-05 -0.9999996 120 120 119 255 0.199071 0.300447
-0.375237 3.608569 -0.39812 -0.428594 -0.02705302 -0.9030921 120 120 119 255 0.199071 0.300447
0.020477 3.002568 -0.404958 -0.0001105627 0.0006731998 -0.9999998 120 120 119 255 0.199071 0.300447
-0.032169 2.55505 -0.405298 -0.0002186395 0.0005805847 -0.9999998 120 120 119 255 0.199071 0.300447
-0.032173 1.980655 -0.405298 0 0 -1 106 103 98 255 0.222743 0.29497
0.020477 1.533121 -0.404944 -0.0008155064 0.000967482 -0.9999992 120 120 119 255 0.199071 0.300447
0.020477 1.980447 -0.404867 0.001093438 0.0001721544 -0.9999994 120 120 119 255 0.199071 0.300447
-0.030674 1.622501 -0.405298 0 0 -1 106 103 98 255 0.222743 0.29497
-0.182343 1.532877 -0.405298 -0.1510784 -0.233793 -0.9604771 106 103 98 255 0.222743 0.29497
0.020477 0.953479 -0.404802 0.001133919 0.0009623327 -0.9999989 120 120 119 255 0.199071 0.300447
-0.032154 0.510455 -0.405288 -0.002357056 -0.002068975 -0.9999951 120 120 119 255 0.199071 0.300447
-0.398415 0.541815 -0.403306 -0.2354963 -0.01755436 -0.9717167 120 120 119 255 0.199071 0.300447
0.020477 0.953479 -0.404802 -0.00101682 0.0001559957 -0.9999995 106 103 98 255 0.222743 0.29497
0.020477 0.510938 -0.404938 -0.0008571126 0.0003073562 -0.9999996 106 103 98 255 0.222743 0.29497
3 0 1 2 
3 3 4 5 
3 1 6 2 
3 7 252 8 
3 3 5 253 
3 9 10 11 
3 9 11 12 
3 13 14 15 
3 13 15 16 
3 254 255 17 
3 18 19 20 
3 18 20 21 
3 22 23 24 
3 23 25 24 
3 26 27 28 
3 29 256 30 
3 26 28 257 
3 29 30 31 
3 32 33 34 
3 32 34 35 
3 29 31 36 
3 37 38 39 
3 38 40 39 
3 41 42 43 
3 42 44 43 
3 258 45 259 
3 46 47 48 
3 46 48 49 
3 50 51 52 
3 53 50 52 
3 53 52 54 
3 51 55 52 
3 54 52 56 
3 57 58 59 
3 58 60 61 
3 58 61 59 
3 57 59 62 
3 63 260 261 
3 64 65 66 
3 67 64 68 
3 67 68 69 
3 68 64 66 
3 262 263 70 
3 264 262 70 
3 66 65 71 
3 72 73 74 
3 265 266 75 
3 76 265 77 
3 75 77 265 
3 78 75 266 
3 267 79 80 
3 267 80 81 
3 268 267 81 
3 82 8 269 
3 83 270 271 
3 84 22 85 
3 63 272 273 
3 86 274 272 
3 27 261 87 
3 87 261 275 
3 88 276 277 
3 278 89 279 
3 280 90 281 
3 281 90 282 
3 91 268 81 
3 92 283 252 
3 93 258 284 
3 45 252 7 
3 94 285 286 
3 95 287 288 
3 96 17 255 
3 97 289 290 
3 98 291 292 
3 293 98 292 
3 97 293 294 
3 99 53 54 
3 100 101 295 
3 101 296 295 
3 101 297 298 
3 102 101 298 
3 296 299 300 
3 19 103 20 
3 104 102 298 
3 104 298 301 
3 302 104 301 
3 105 303 304 
3 58 106 60 
3 107 273 305 
3 27 63 261 
3 306 108 26 
3 257 28 109 
3 110 275 307 
3 109 308 257 
3 88 110 276 
3 309 88 277 
3 111 67 69 
3 65 112 71 
3 89 90 310 
3 113 90 280 
3 311 114 278 
3 282 90 114 
3 114 312 282 
3 73 114 74 
3 76 77 115 
3 78 116 313 
3 80 91 81 
3 259 45 7 
3 8 82 7 
3 7 117 259 
3 314 259 117 
3 82 94 7 
3 94 286 7 
3 286 117 7 
3 47 118 48 
3 288 119 271 
3 95 288 271 
3 119 83 271 
3 315 95 271 
3 316 95 315 
3 290 315 271 
3 120 13 16 
3 254 17 271 
3 290 271 17 
3 97 290 17 
3 96 98 17 
3 293 17 98 
3 293 97 17 
3 296 101 102 
3 299 296 102 
3 299 102 104 
3 304 299 104 
3 85 22 24 
3 104 302 121 
3 105 304 104 
3 121 317 104 
3 317 105 104 
3 317 318 105 
3 272 63 27 
3 86 272 27 
3 86 27 108 
3 26 108 27 
3 87 109 27 
3 28 27 109 
3 87 275 109 
3 275 110 88 
3 109 275 88 
3 308 109 88 
3 308 88 309 
3 263 310 90 
3 70 263 90 
3 70 90 113 
3 278 90 89 
3 278 114 90 
3 311 319 122 
3 311 122 114 
3 312 114 73 
3 320 74 122 
3 74 114 122 
3 91 80 79 
3 123 314 117 
3 118 124 48 
3 98 125 291 
3 99 54 56 
3 55 126 52 
3 321 100 295 
3 101 322 297 
3 127 29 36 
3 72 323 324 
3 305 128 107 
3 325 108 306 
3 324 73 72 
3 326 289 97 
3 310 129 89 
3 73 130 312 
3 131 46 49 
3 132 96 255 
3 133 105 318 
3 308 309 134 
3 300 135 296 
3 106 327 60 
3 110 328 276 
3 136 279 89 
3 123 137 314 
3 288 138 119 
3 97 139 326 
3 140 97 294 
3 141 329 308 
3 115 77 142 
3 143 93 284 
3 252 45 144 
3 330 0 2 
3 94 145 285 
3 331 117 286 
3 332 138 288 
3 146 287 95 
3 100 147 101 
3 148 333 303 
3 148 303 105 
3 112 334 71 
3 70 149 264 
3 150 320 122 
3 151 150 122 
3 152 73 324 
3 82 153 94 
3 119 154 83 
3 155 95 316 
3 98 96 132 
3 302 156 121 
3 273 157 63 
3 134 141 308 
3 149 335 264 
3 129 136 89 
3 319 158 122 
3 330 2 159 
3 159 2 336 
3 119 138 154 
3 79 337 91 
3 154 270 83 
3 155 160 95 
3 338 13 120 
3 161 317 121 
3 162 149 70 
3 37 39 163 
3 339 164 79 
3 164 337 79 
3 140 165 97 
3 113 162 70 
3 160 146 95 
3 340 135 300 
3 84 85 166 
3 341 333 148 
3 148 105 133 
3 280 167 113 
3 342 116 78 
3 103 168 20 
3 86 169 274 
3 309 170 134 
3 131 49 171 
3 47 172 118 
3 343 53 99 
3 101 147 322 
3 161 344 317 
3 161 121 156 
3 345 115 142 
3 258 93 45 
3 4 346 173 
3 4 173 5 
3 145 94 153 
3 174 125 98 
3 174 98 132 
3 175 347 296 
3 103 176 168 
3 177 169 86 
3 307 178 110 
3 110 178 179 
3 180 329 141 
3 179 328 110 
3 130 348 312 
3 331 123 117 
3 165 139 97 
3 57 62 349 
3 337 268 91 
3 181 252 144 
3 45 93 144 
3 135 175 296 
3 147 350 322 
3 108 177 86 
3 157 182 260 
3 157 260 63 
3 127 36 351 
3 352 67 111 
3 55 353 126 
3 183 84 166 
3 354 156 302 
3 184 133 318 
3 325 177 108 
3 130 73 152 
3 330 159 185 
3 145 355 285 
3 172 124 118 
3 186 347 175 
3 187 135 340 
3 183 356 84 
3 188 341 148 
3 146 189 287 
3 255 190 132 
3 190 174 132 
3 357 341 188 
3 358 57 349 
3 352 111 359 
3 191 158 319 
3 116 342 192 
3 269 153 82 
3 171 49 360 
3 343 99 193 
3 361 193 99 
3 188 148 133 
3 128 273 107 
3 128 157 273 
3 162 113 167 
3 122 158 151 
3 194 195 153 
3 194 123 195 
3 195 145 153 
3 138 196 154 
3 154 197 270 
3 198 154 196 
3 160 198 196 
3 160 196 146 
3 190 199 174 
3 165 199 139 
3 100 175 200 
3 200 147 100 
3 135 200 175 
3 201 188 133 
3 161 156 201 
3 133 161 201 
3 157 202 203 
3 202 177 203 
3 325 203 177 
3 178 204 179 
3 204 141 205 
3 141 134 205 
3 179 204 205 
3 134 170 205 
3 129 206 136 
3 206 207 136 
3 206 208 207 
3 206 162 208 
3 162 167 208 
3 158 209 151 
3 209 130 210 
3 130 152 210 
3 151 209 210 
3 362 164 339 
3 137 123 194 
3 355 145 195 
3 331 355 195 
3 331 195 123 
3 332 196 138 
3 196 189 146 
3 211 190 255 
3 212 139 199 
3 199 125 174 
3 213 175 100 
3 157 214 202 
3 215 182 157 
3 215 157 203 
3 33 363 34 
3 216 127 351 
3 180 141 204 
3 328 179 205 
3 191 209 158 
3 210 150 151 
3 181 92 252 
3 332 189 196 
3 198 197 154 
3 10 364 11 
3 212 217 139 
3 125 199 165 
3 321 213 100 
3 213 186 175 
3 218 201 156 
3 365 327 106 
3 214 157 128 
3 214 169 202 
3 169 177 202 
3 219 204 178 
3 328 205 170 
3 220 366 42 
3 42 366 44 
3 348 130 209 
3 152 150 210 
3 172 171 124 
3 171 360 124 
3 221 198 222 
3 353 367 193 
3 367 343 193 
3 353 193 126 
3 193 368 126 
3 368 193 361 
3 365 369 349 
3 369 358 349 
3 365 370 327 
3 365 349 370 
3 112 352 371 
3 112 371 334 
3 206 149 162 
3 371 352 359 
3 167 223 208 
3 342 345 192 
3 192 345 372 
3 372 345 142 
3 159 336 185 
3 224 199 190 
3 200 350 147 
3 218 357 201 
3 325 225 203 
3 373 93 143 
3 199 224 212 
3 217 326 139 
3 357 188 201 
3 204 226 227 
3 228 178 307 
3 181 144 229 
3 364 374 11 
3 207 208 223 
3 167 280 230 
3 375 37 163 
3 231 232 209 
3 160 222 198 
3 233 234 325 
3 219 226 204 
3 136 235 279 
3 236 231 209 
3 93 237 144 
3 229 144 237 
3 338 120 376 
3 228 219 178 
3 227 180 204 
3 238 167 230 
3 194 239 240 
3 187 241 200 
3 135 187 200 
3 242 198 221 
3 211 224 190 
3 234 225 325 
3 215 203 243 
3 377 127 216 
3 240 137 194 
3 354 218 156 
3 242 197 198 
3 191 236 209 
3 378 153 269 
3 200 241 350 
3 42 379 220 
3 237 93 373 
3 242 221 222 
3 364 244 374 
3 243 203 225 
3 34 363 380 
3 207 235 136 
3 223 167 238 
3 191 381 245 
3 231 236 232 
3 245 236 191 
3 232 348 209 
3 246 229 237 
3 246 237 240 
3 239 246 240 
3 378 194 153 
3 378 239 194 
3 155 222 160 
3 242 222 212 
3 224 242 212 
3 247 224 211 
3 382 377 216 
3 248 243 226 
3 226 243 225 
3 226 225 227 
3 363 249 380 
3 223 235 207 
3 236 223 232 
3 181 229 250 
3 250 229 246 
3 250 246 251 
3 251 246 239 
3 215 243 248 
3 346 383 384 
3 346 385 383 
3 346 384 173 
3 386 185 387 
3 384 388 173 
3 387 185 336 
3 364 389 390 
3 364 390 244 
3 391 338 392 
3 374 244 393 
3 392 338 376 
3 244 390 393 
3 176 394 168 
3 394 395 168 
3 394 356 395 
3 395 356 183 
3 363 396 249 
3 382 216 397 
3 398 382 397 
3 396 399 249 
3 397 216 351 
3 249 399 400 
3 248 226 219 
3 249 400 380 
3 379 401 402 
3 402 403 379 
3 238 230 223 
3 404 375 163 
3 404 163 405 
3 379 403 220 
3 78 313 75 
3 172 131 171 
