ply
format ascii 1.0
comment VCGLIB generated
comment TextureFile Dungeons_Texture_01.png
element vertex 98
property float x
property float y
property float z
property float nx
property float ny
property float nz
property uchar red
property uchar green
property uchar blue
property uchar alpha
property float texture_u
property float texture_v
element face 100
property list uchar int vertex_indices
end_header
0.071259 0.438458 0.128567 0.6603212 0.3670038 0.6551978 97 92 89 255 0.211594 0.280109
0.040997 0.435621 0.142195 0.5007998 0.1660237 0.8494915 97 92 89 255 0.211594 0.280109
0.074478 0.399978 0.129423 0.5539854 0.2769604 0.7851071 97 92 89 255 0.211594 0.280109
-0.12138 0.435451 0.141905 -0.6817548 0.4713344 0.5595125 120 116 110 255 0.211594 0.299863
-0.119801 0.356805 0.141638 -0.4201213 -0.06034496 0.9054593 120 116 110 255 0.211594 0.299863
0.069717 0.364278 0.145819 -0.07946163 -0.09677794 0.992129 120 116 110 255 0.211594 0.299863
-0.091553 0.439836 0.011826 -0.01966435 0.9997979 -0.004182887 120 116 110 255 0.211594 0.299863
0.126511 0.364296 0.118755 0.7044796 0.3055856 0.640567 97 92 89 255 0.211594 0.280109
0.111439 0.323025 0.149992 0.6963279 0.2538261 0.6713418 97 92 89 255 0.211594 0.280109
-0.090942 0.235067 0.127161 -0.004508875 -0.2000954 0.9797661 120 116 110 255 0.211594 0.299863
0.12294 0.226376 0.126482 -0.1214463 -0.2311165 0.9653165 120 116 110 255 0.211594 0.299863
-0.126404 0.25007 0.098917 -0.996963 0.000354285 0.07787682 120 116 110 255 0.211594 0.299863
0.120277 0.413276 0.075876 0.635516 0.6210381 0.4587278 97 92 89 255 0.211594 0.280109
0.126602 0.217558 0.109428 0.9725398 -0.03964953 0.2293344 97 92 89 255 0.211594 0.280109
-0.124039 0.417284 0.034401 -0.7167624 0.6799154 -0.154812 97 92 89 255 0.211594 0.280109
-0.126587 0.384698 -0.007559 -0.9998127 0.01933915 -0.0007161253 120 116 110 255 0.211594 0.299863
-0.126587 0.194783 0.04664 -0.771944 -0.08383058 0.6301388 97 92 89 255 0.211594 0.280109
-0.090912 0.144343 0.103302 -0.6890712 0.04857228 0.723064 97 92 89 255 0.211594 0.280109
0.123585 0.102817 0.090153 0.4497727 -0.2465436 0.8584409 120 116 110 255 0.211594 0.299863
0.088619 0.435775 0.069723 0.5368873 0.8150323 0.2178863 97 92 89 255 0.211594 0.280109
-0.121857 0.135132 0.084213 -0.6130718 0.03409188 0.7892913 97 92 89 255 0.211594 0.280109
-0.111313 0.040629 0.073446 -0.6470535 -0.1034028 0.7554002 97 92 89 255 0.211594 0.280109
0.12352 0.439878 0.000809 0.5406369 0.8408366 0.02656284 120 116 110 255 0.211594 0.299863
-0.126598 0.039912 0.057482 -0.7183984 -0.07735918 0.6913171 97 92 89 255 0.211594 0.280109
-0.006756 0.0275 0.06975 0.002664241 -0.3004573 0.9537916 120 116 110 255 0.211594 0.299863
0.124901 -0 0.059563 0.5306095 -0.6773604 0.5095454 120 116 110 255 0.211594 0.299863
-0.124783 -0 0.059563 -0.2960198 -0.7842195 0.5453184 120 116 110 255 0.211594 0.299863
-0.006935 -0 0.059574 0.1617454 -0.802876 0.5737844 97 92 89 255 0.211594 0.280109
0.049809 0.007751 0.054424 0.008551954 -0.8688435 0.495013 97 92 89 255 0.211594 0.280109
0.015877 0.002028 0.013748 0.01110509 -0.9914221 0.1302265 97 92 89 255 0.211594 0.280109
0.124413 0 -0.175972 0.7051042 -0.709095 0.003542629 120 116 110 255 0.211594 0.299863
-0.090481 0.435525 -0.047089 -0.7307575 0.6824313 0.01676272 97 92 89 255 0.211594 0.280109
-0.126495 0.006461 -0.038052 -0.9976549 0.06425717 -0.02357509 120 116 110 255 0.211594 0.299863
0.119415 0.422083 -0.159247 0.9984398 0.05398624 -0.01426328 120 116 110 255 0.211594 0.299863
-0.016415 0 -0.091396 0.006807782 -0.9999765 0.0008223617 120 116 110 255 0.211594 0.299863
-0.101147 0.001784 -0.1104 -0.02042367 -0.9997876 -0.002793225 120 116 110 255 0.211594 0.299863
-0.123512 0.439894 -0.105736 -0.585828 0.7141443 0.3831496 97 92 89 255 0.211594 0.280109
0.107986 0.432611 -0.160177 0.5185172 0.7674242 -0.3770944 97 92 89 255 0.211594 0.280109
0.126472 0.3568 -0.175658 0.9994674 0.03249155 -0.003037957 120 116 110 255 0.211594 0.299863
0.028282 0.439432 -0.188033 0.006605552 0.921899 -0.3873742 120 116 110 255 0.211594 0.299863
-0.116219 0.020529 -0.163109 -0.9979252 0.03998275 -0.05046649 120 116 110 255 0.211594 0.299863
-0.126534 0.136863 -0.177733 -0.9994362 -0.0238067 -0.02367719 120 116 110 255 0.211594 0.299863
0.123489 0.103099 -0.186997 0.7108369 0.0008995646 -0.7033563 120 116 110 255 0.211594 0.299863
0.111862 0 -0.187501 0.006966854 -0.7071531 -0.7070262 120 116 110 255 0.211594 0.299863
-0.121029 0.055722 -0.186706 -0.8141288 -0.2278586 -0.5341113 97 92 89 255 0.211594 0.280109
-0.047852 0 -0.187518 -0.03574231 -0.5424088 -0.839354 120 116 110 255 0.211594 0.299863
-0.123444 0.439438 -0.18798 -0.806492 0.4227089 -0.4133858 120 116 110 255 0.211594 0.299863
-0.123234 0.274384 -0.187209 -0.5453638 0.001057241 -0.8381988 120 116 110 255 0.211594 0.299863
0.090527 0.424626 -0.186451 0.5035126 0.4815025 -0.7173775 97 92 89 255 0.211594 0.280109
-0.111729 0.206202 -0.188033 0.001117282 -0.003810832 -0.9999921 120 116 110 255 0.211594 0.299863
0.059372 0.185583 -0.188033 -0.01108025 0.007447164 -0.9999109 120 116 110 255 0.211594 0.299863
-0.006268 0.103099 -0.185899 -0.0241396 0.01010345 -0.9996576 120 116 110 255 0.211594 0.299863
0.040997 0.435621 0.142195 -0.002037103 0.6512931 0.7588236 120 116 110 255 0.211594 0.299863
0.071259 0.438458 0.128567 0.006387727 0.9978222 0.06565168 120 116 110 255 0.211594 0.299863
0.069717 0.364278 0.145819 0.4598542 0.3614355 0.8111095 97 92 89 255 0.211594 0.280109
0.12294 0.226376 0.126482 0.9536375 -0.02620406 0.2998148 97 92 89 255 0.211594 0.280109
0.111439 0.323025 0.149992 -0.3476324 -0.2604703 0.9007258 120 116 110 255 0.211594 0.299863
-0.090942 0.235067 0.127161 -0.7543868 -0.3002025 0.5837629 97 92 89 255 0.211594 0.280109
-0.119801 0.356805 0.141638 -0.6650414 -0.241684 0.7066178 97 92 89 255 0.211594 0.280109
-0.126404 0.25007 0.098917 -0.6691597 -0.3843236 0.6360194 97 92 89 255 0.211594 0.280109
-0.12138 0.435451 0.141905 -0.6195036 0.7763938 -0.1158792 97 92 89 255 0.211594 0.280109
-0.091553 0.439836 0.011826 -0.6104257 0.7866451 -0.09257503 97 92 89 255 0.211594 0.280109
0.123585 0.102817 0.090153 0.9680099 -0.06611326 0.2420452 97 92 89 255 0.211594 0.280109
-0.124039 0.417284 0.034401 -0.9981425 0.05912318 0.01469686 120 116 110 255 0.211594 0.299863
-0.090912 0.144343 0.103302 0.005228063 -0.2675368 0.9635335 120 116 110 255 0.211594 0.299863
0.088619 0.435775 0.069723 0.01845103 0.9997491 0.01270542 120 116 110 255 0.211594 0.299863
0.120277 0.413276 0.075876 0.9650788 0.2309934 0.1235514 120 116 110 255 0.211594 0.299863
0.126511 0.364296 0.118755 0.9960604 0.08540089 0.02388215 120 116 110 255 0.211594 0.299863
-0.126587 0.194783 0.04664 -0.9988461 0.003593433 0.047892 120 116 110 255 0.211594 0.299863
-0.111313 0.040629 0.073446 -0.003810608 -0.2989819 0.9542512 120 116 110 255 0.211594 0.299863
-0.006756 0.0275 0.06975 0.004554666 -0.6049036 0.7962857 97 92 89 255 0.211594 0.280109
0.124901 -0 0.059563 -0.1214742 -0.9016274 0.4151048 97 92 89 255 0.211594 0.280109
0.12352 0.439878 0.000809 0.6100798 0.7851059 0.1068239 97 92 89 255 0.211594 0.280109
-0.124783 -0 0.059563 -0.6823292 -0.6052368 0.4100188 97 92 89 255 0.211594 0.280109
-0.006935 -0 0.059574 0.03114489 -0.9286617 0.3696181 120 116 110 255 0.211594 0.299863
0.126602 0.217558 0.109428 0.9999671 -0.007999143 -0.001359651 120 116 110 255 0.211594 0.299863
-0.126598 0.039912 0.057482 -0.9999298 0.007466344 0.009204284 120 116 110 255 0.211594 0.299863
-0.121857 0.135132 0.084213 -0.9900531 0.009895464 0.1403462 120 116 110 255 0.211594 0.299863
-0.126587 0.384698 -0.007559 -0.7897952 0.6101171 0.06309309 97 92 89 255 0.211594 0.280109
0.015877 0.002028 0.013748 0.02330719 -0.9997212 0.003796073 120 116 110 255 0.211594 0.299863
-0.126495 0.006461 -0.038052 -0.4437854 -0.8907693 -0.09790102 97 92 89 255 0.211594 0.280109
-0.101147 0.001784 -0.1104 -0.4142767 -0.899313 -0.1400395 97 92 89 255 0.211594 0.280109
0.119415 0.422083 -0.159247 0.6838593 0.5502085 -0.4791733 97 92 89 255 0.211594 0.280109
-0.090481 0.435525 -0.047089 -0.04419212 0.9989774 -0.009545559 120 116 110 255 0.211594 0.299863
-0.116219 0.020529 -0.163109 -0.670646 -0.683048 -0.2892742 97 92 89 255 0.211594 0.280109
-0.123512 0.439894 -0.105736 -0.4256617 0.9046246 0.02159443 120 116 110 255 0.211594 0.299863
0.107986 0.432611 -0.160177 0.1041634 0.993045 -0.05487763 120 116 110 255 0.211594 0.299863
-0.126534 0.136863 -0.177733 -0.7947227 -0.03703105 -0.605842 97 92 89 255 0.211594 0.280109
-0.047852 0 -0.187518 -0.4077466 -0.7647952 -0.4988296 97 92 89 255 0.211594 0.280109
0.028282 0.439432 -0.188033 0.2205253 0.8827736 -0.4148245 97 92 89 255 0.211594 0.280109
0.123489 0.103099 -0.186997 0.5236596 -0.01776909 -0.8517423 97 92 89 255 0.211594 0.280109
0.124413 0 -0.175972 0.6747065 -0.07249942 -0.7345168 97 92 89 255 0.211594 0.280109
0.111862 0 -0.187501 0.6747065 -0.07249942 -0.7345168 97 92 89 255 0.211594 0.280109
0.090527 0.424626 -0.186451 0.009342116 -0.0003800589 -0.9999563 120 116 110 255 0.211594 0.299863
0.126472 0.3568 -0.175658 0.5276232 0.1464675 -0.8367562 97 92 89 255 0.211594 0.280109
-0.123234 0.274384 -0.187209 -0.3868353 -0.05414911 -0.9205577 97 92 89 255 0.211594 0.280109
-0.111729 0.206202 -0.188033 -0.5405554 -0.009547227 -0.8412542 97 92 89 255 0.211594 0.280109
-0.121029 0.055722 -0.186706 0.005805354 0.002970995 -0.9999788 120 116 110 255 0.211594 0.299863
3 0 1 2 
3 3 4 5 
3 52 3 5 
3 53 3 52 
3 1 54 2 
3 6 3 53 
3 2 54 7 
3 7 54 8 
3 5 4 9 
3 5 9 10 
3 7 8 55 
3 56 5 10 
3 3 11 4 
3 57 58 59 
3 12 0 2 
3 12 2 7 
3 13 7 55 
3 60 61 14 
3 3 15 11 
3 57 16 17 
3 10 9 18 
3 59 16 57 
3 13 55 62 
3 12 19 0 
3 63 15 3 
3 17 20 21 
3 9 64 18 
3 65 6 53 
3 22 66 67 
3 11 15 68 
3 20 23 21 
3 18 64 24 
3 18 24 25 
3 69 26 24 
3 64 69 24 
3 70 27 28 
3 71 70 28 
3 19 12 72 
3 21 23 73 
3 24 26 74 
3 28 27 29 
3 17 16 20 
3 75 18 30 
3 30 18 25 
3 29 71 28 
3 68 76 77 
3 14 31 78 
3 15 76 68 
3 61 31 14 
3 76 32 26 
3 22 6 65 
3 33 22 67 
3 26 34 74 
3 35 34 26 
3 34 79 74 
3 80 81 73 
3 79 30 25 
3 31 36 78 
3 37 72 82 
3 33 67 38 
3 38 67 75 
3 22 39 6 
3 6 39 83 
3 76 40 32 
3 80 84 81 
3 39 85 83 
3 86 39 22 
3 41 40 76 
3 34 30 79 
3 75 30 42 
3 43 30 34 
3 87 44 84 
3 35 45 34 
3 85 46 15 
3 84 88 81 
3 42 38 75 
3 15 41 76 
3 46 85 39 
3 48 89 37 
3 15 46 47 
3 82 48 37 
3 90 91 92 
3 45 43 34 
3 93 47 39 
3 48 82 94 
3 46 39 47 
3 47 93 49 
3 48 94 90 
3 95 96 87 
3 49 93 50 
3 49 50 51 
3 93 42 50 
3 87 96 44 
3 51 50 45 
3 49 51 97 
3 45 50 43 
3 50 42 43 
3 97 51 45 
3 44 88 84 
3 15 47 41 
