ply
format ascii 1.0
comment INFO-3111 Flatenator generated
comment TextureFile Dungeons_Texture_01.png
element vertex 316
property float x
property float y
property float z
element face 290
property list uchar int vertex_indices
end_header
4.94586 -0.00158 4.94588 
0.054136 -0.00158 4.94588 
4.94586 -0.001579 0.054146 
0.054136 -0.001579 0.054146 
2.62634 -0.00158 4.94588 
2.62634 -0.001579 0.054146 
1.44003 -0.00158 4.94588 
1.44003 -0.001579 0.054146 
3.94919 -0.00158 4.94588 
3.94919 -0.001579 0.054146 
0.570216 -0.00158 4.94588 
0.570216 -0.001579 0.054146 
1.88853 -0.00158 4.94588 
1.88853 -0.001579 0.054146 
3.11147 -0.00158 4.94588 
3.11147 -0.001579 0.054146 
4.3344 -0.00158 4.94588 
4.3344 -0.001579 0.054146 
0.509129 -0.084128 4.94588 
0.509129 -0.084127 0.054146 
0.115227 -0.084128 4.94588 
0.115227 -0.084127 0.054146 
1.82745 -0.084128 4.94588 
1.82745 -0.084127 0.054146 
1.50112 -0.084128 4.94588 
1.50112 -0.084127 0.054146 
3.05038 -0.084128 4.94588 
3.05038 -0.084127 0.054146 
2.68744 -0.084128 4.94588 
2.68744 -0.084127 0.054146 
4.27331 -0.084128 4.94588 
4.27331 -0.084127 0.054146 
4.01028 -0.084128 4.94588 
4.01028 -0.084127 0.054146 
4.88478 -0.084128 4.94588 
4.39549 -0.084128 4.94588 
4.39549 -0.084127 0.054146 
4.88478 -0.084127 0.054146 
2.56526 -0.084128 4.94588 
2.56526 -0.084127 0.054146 
1.94963 -0.084128 4.94588 
1.94963 -0.084127 0.054146 
1.37895 -0.084128 4.94588 
1.37895 -0.084127 0.054146 
0.631307 -0.084128 4.94588 
0.631307 -0.084127 0.054146 
3.8881 -0.084128 4.94588 
3.8881 -0.084127 0.054146 
3.17256 -0.084128 4.94588 
3.17256 -0.084127 0.054146 
4.94586 -0.00158 3.60909 
4.88478 -0.084128 3.60909 
4.44822 -0.084128 3.64901 
4.38713 -0.00158 3.64901 
4.32605 -0.144392 3.64901 
4.12253 -0.144392 3.71822 
3.99335 -0.00158 3.73813 
3.93227 -0.030042 3.73813 
3.16045 -0.036794 3.55604 
3.01821 -0.012837 3.55604 
2.96679 -0.13252 3.55604 
2.70898 -0.143778 3.41469 
2.6189 -0.00158 3.41469 
2.55781 -0.084128 3.41469 
1.9157 -0.084128 3.60909 
1.82742 -0.00158 3.60909 
1.69873 -0.084128 3.65054 
1.47619 -0.084128 3.60909 
1.4151 -0.00158 3.60909 
1.35401 -0.084128 3.60909 
0.68206 -0.084128 3.90632 
0.570216 -0.00158 3.90632 
0.509129 -0.065174 3.90632 
0.115227 -0.065174 3.60909 
0.054136 -0.00158 3.60909 
4.94586 -0.001579 1.77374 
4.88478 -0.096906 1.77374 
4.40678 -0.096906 1.3071 
4.34569 -0.001579 1.3071 
4.28461 -0.074707 1.3071 
3.99994 -0.074707 1.60061 
3.93885 -0.001579 1.60061 
3.87777 -0.084127 1.60061 
3.17256 -0.084127 1.77374 
3.11147 -0.001579 1.77374 
2.97866 -0.025649 1.79506 
2.7745 -0.025649 1.89334 
2.71341 -0.001579 1.89334 
2.65233 -0.084127 1.89334 
2.01832 -0.084127 1.30557 
1.95723 -0.001579 1.30557 
1.89614 -0.023775 1.23057 
1.57977 -0.023775 1.69875 
1.51868 -0.001579 1.77374 
1.38738 -0.111254 1.77374 
0.68197 -0.111254 2.04225 
0.62088 -0.001579 2.04225 
0.559793 -0.084127 2.04225 
0.115227 -0.084127 1.77374 
0.054136 -0.001579 1.77374 
1.75229 -0.084128 3.98699 
1.76693 -0.069916 3.09254 
3.05038 -0.037144 1.43572 
3.03367 -0.047011 2.13002 
4.04367 -0.1297 4.03254 
4.04686 -0.134698 3.44081 
5 -0.192679 5 
0 -0.192679 5 
5 -0.192678 1e-05 
0 -0.192678 1e-05 
4.71463 -0.192679 4.71382 
0.278095 -0.192679 4.72971 
0.287106 -0.192678 0.305597 
4.72268 -0.192678 0.286518 
4.67143 1e-06 4.67062 
0.321297 1e-06 4.68651 
0.330303 2e-06 0.348795 
4.67948 2e-06 0.329716 
5 1e-06 5.00001 
0 1e-06 5.00001 
5 2e-06 1e-05 
0 2e-06 1e-05 
0.253983 1e-06 4.24173 
0.210785 -0.192679 4.26046 
0 -0.192679 4.36008 
0 1e-06 4.35184 
0 2e-06 0.701787 
0 -0.192678 0.694803 
0.210785 -0.192678 0.779224 
0.253983 2e-06 0.795094 
4.74602 2e-06 0.761985 
4.78922 -0.192678 0.74504 
5 -0.192678 0.6549 
5 2e-06 0.662357 
5 1e-06 4.31943 
5 -0.192679 4.32827 
4.78922 -0.192679 4.22143 
4.74602 1e-06 4.20135 
4.15405 2e-06 1e-05 
4.16007 -0.192678 1e-05 
4.12 -0.192678 0.10774 
4.07375 2e-06 0.253997 
1.24174 2e-06 0.253997 
1.2272 -0.192678 0.210799 
1.14986 -0.192678 1e-05 
1.15626 2e-06 1e-05 
0.954239 1e-06 4.74602 
0.896095 -0.192679 4.8662 
0.822163 -0.192679 5 
0.83136 1e-06 5.00001 
4.11024 1e-06 4.74602 
4.12241 -0.192679 4.78922 
4.18712 -0.192679 5 
4.18176 1e-06 5.00001 
0.63496 -0.192679 4.76212 
1.29402 -0.192679 4.78922 
4.42661 -0.192678 0.251229 
3.6965 -0.192678 0.210799 
2.26926 -0.001579 0.054146 
2.34806 -0.001579 1.62885 
2.25294 -0.00158 3.50217 
2.26926 -0.00158 4.94588 
2.21842 -0.084128 4.94588 
2.20684 -0.084128 3.52237 
2.29531 -0.084127 1.56778 
2.21842 -0.084127 0.054146 
2.32014 -0.084127 0.054146 
2.40085 -0.084127 1.68997 
2.29908 -0.084128 3.48195 
2.32014 -0.084128 4.94588 
0.995363 -0.001579 0.054146 
0.983068 -0.001579 1.92045 
1.02798 -0.00158 3.61672 
0.995363 -0.00158 4.94588 
0.946435 -0.084128 4.94588 
0.98662 -0.084128 3.64645 
0.938362 -0.111254 1.9473 
0.946435 -0.084127 0.054146 
1.06933 -0.084127 0.054146 
1.05065 -0.111254 1.87985 
1.09051 -0.084128 3.57179 
1.06933 -0.084128 4.94588 
3.53666 -0.001579 0.054146 
3.53143 -0.001579 1.68612 
3.55303 -0.00158 3.64819 
3.53666 -0.00158 4.94588 
3.49353 -0.084128 4.94588 
3.50495 -0.033972 3.63214 
3.48922 -0.084127 1.70138 
3.49353 -0.084127 0.054146 
3.58089 -0.084127 0.054146 
3.57473 -0.084127 1.67047 
3.60235 -0.032767 3.66465 
3.58089 -0.084128 4.94588 
0.509129 -0.084127 0.054146 
0.115227 -0.084127 0.054146 
0.115227 -0.084127 1.77374 
1.89614 -0.023775 1.23057 
1.82745 -0.084127 0.054146 
1.50112 -0.084127 0.054146 
3.05038 -0.037144 1.43572 
2.68744 -0.084127 0.054146 
2.7745 -0.025649 1.89334 
4.28461 -0.074707 1.3071 
4.27331 -0.084127 0.054146 
4.01028 -0.084127 0.054146 
4.40678 -0.096906 1.3071 
4.88478 -0.084127 0.054146 
4.88478 -0.084128 4.94588 
4.88478 -0.084128 3.60909 
4.27331 -0.084128 4.94588 
4.01028 -0.084128 4.94588 
2.96679 -0.13252 3.55604 
2.68744 -0.084128 4.94588 
0.509129 -0.065174 3.90632 
0.115227 -0.065174 3.60909 
0.115227 -0.084128 4.94588 
4.88478 -0.096906 1.77374 
4.44822 -0.084128 3.64901 
4.04686 -0.134698 3.44081 
2.70898 -0.143778 3.41469 
0.559793 -0.084127 2.04225 
1.69873 -0.084128 3.65054 
1.82745 -0.084128 4.94588 
1.50112 -0.084128 4.94588 
1.47619 -0.084128 3.60909 
2.97866 -0.025649 1.79506 
4.12253 -0.144392 3.71822 
0.210785 -0.192678 0.779224 
3.6965 -0.192678 0.210799 
4.78922 -0.192678 0.74504 
0 -0.192679 5 
5 -0.192678 0.6549 
0 -0.192678 0.694803 
0.210785 -0.192679 4.26046 
0.278095 -0.192679 4.72971 
0 -0.192679 4.36008 
4.72268 -0.192678 0.286518 
5 -0.192679 4.32827 
4.78922 -0.192679 4.22143 
5 -0.192678 1e-05 
0.287106 -0.192678 0.305597 
0 -0.192678 1e-05 
1.14986 -0.192678 1e-05 
1.29402 -0.192679 4.78922 
4.18712 -0.192679 5 
4.71463 -0.192679 4.71382 
5 -0.192679 5 
0.896095 -0.192679 4.8662 
4.12 -0.192678 0.10774 
1.9157 -0.084128 3.60909 
2.21842 -0.084128 4.94588 
1.94963 -0.084128 4.94588 
2.29531 -0.084127 1.56778 
2.01832 -0.084127 1.30557 
2.21842 -0.084127 0.054146 
1.94963 -0.084127 0.054146 
2.56526 -0.084127 0.054146 
2.40085 -0.084127 1.68997 
2.32014 -0.084127 0.054146 
2.29908 -0.084128 3.48195 
2.65233 -0.084127 1.89334 
2.55781 -0.084128 3.41469 
2.56526 -0.084128 4.94588 
2.32014 -0.084128 4.94588 
0.68206 -0.084128 3.90632 
0.946435 -0.084128 4.94588 
0.631307 -0.084128 4.94588 
0.68197 -0.111254 2.04225 
0.98662 -0.084128 3.64645 
0.938362 -0.111254 1.9473 
0.631307 -0.084127 0.054146 
0.946435 -0.084127 0.054146 
1.38738 -0.111254 1.77374 
1.06933 -0.084127 0.054146 
1.37895 -0.084127 0.054146 
1.05065 -0.111254 1.87985 
1.35401 -0.084128 3.60909 
1.09051 -0.084128 3.57179 
1.06933 -0.084128 4.94588 
1.37895 -0.084128 4.94588 
3.50495 -0.033972 3.63214 
3.17256 -0.084128 4.94588 
3.16045 -0.036794 3.55604 
3.17256 -0.084127 1.77374 
3.17256 -0.084127 0.054146 
3.49353 -0.084127 0.054146 
3.87777 -0.084127 1.60061 
3.58089 -0.084127 0.054146 
3.8881 -0.084127 0.054146 
3.60235 -0.032767 3.66465 
3.93227 -0.030042 3.73813 
3.58089 -0.084128 4.94588 
3.8881 -0.084128 4.94588 
4.39549 -0.084127 0.054146 
3.48922 -0.084127 1.70138 
1.57977 -0.023775 1.69875 
3.05038 -0.084127 0.054146 
3.99994 -0.074707 1.60061 
4.39549 -0.084128 4.94588 
4.04367 -0.1297 4.03254 
4.32605 -0.144392 3.64901 
3.05038 -0.084128 4.94588 
0.509129 -0.084128 4.94588 
3.03367 -0.047011 2.13002 
1.75229 -0.084128 3.98699 
1.76693 -0.069916 3.09254 
0.63496 -0.192679 4.76212 
0.822163 -0.192679 5 
1.2272 -0.192678 0.210799 
4.16007 -0.192678 1e-05 
4.42661 -0.192678 0.251229 
4.12241 -0.192679 4.78922 
2.20684 -0.084128 3.52237 
3.49353 -0.084128 4.94588 
3.57473 -0.084127 1.67047 
3 77 37 76
3 158 164 165
3 171 177 170
3 183 189 182
3 19 98 21
3 91 25 23
3 102 86 29
3 79 33 31
3 11 97 194
3 99 195 196
3 13 197 198
3 92 7 199
3 15 200 27
3 87 201 202
3 17 203 204
3 80 9 205
3 78 36 206
3 75 207 2
3 5 88 39
3 90 41 89
3 7 94 43
3 96 45 95
3 81 47 9
3 84 49 83
3 50 34 51
3 208 52 209
3 53 35 16
3 54 16 30
3 55 210 32
3 8 104 211
3 57 8 46
3 186 184 185
3 14 58 48
3 59 26 60
3 212 28 61
3 62 213 4
3 62 38 63
3 163 161 162
3 12 64 40
3 66 65 100
3 6 67 24
3 68 42 69
3 175 173 174
3 71 44 10
3 72 10 18
3 214 20 73
3 1 215 216
3 75 51 217
3 52 76 209
3 53 206 218
3 203 53 54
3 79 55 105
3 219 81 80
3 81 57 82
3 187 183 184
3 58 84 83
3 103 59 60
3 85 212 61
3 220 87 202
3 88 62 63
3 163 159 160
3 64 90 89
3 101 65 66
3 67 93 92
3 94 68 69
3 176 172 175
3 70 96 95
3 97 71 72
3 221 73 98
3 215 99 196
3 100 12 22
3 222 223 224
3 91 222 225
3 90 101 197
3 200 84 226
3 226 84 103
3 227 56 219
3 104 56 227
3 147 107 111
3 123 127 128
3 144 140 157
3 132 136 131
3 154 115 146
3 122 228 129
3 142 229 141
3 230 137 130
3 148 119 231
3 134 232 133
3 233 125 126
3 139 145 138
3 234 115 235
3 124 111 107
3 236 119 125
3 233 121 109
3 127 112 128
3 228 116 129
3 230 117 113
3 132 237 108
3 232 120 133
3 135 118 106
3 238 110 136
3 239 114 137
3 139 120 240
3 140 108 237
3 156 117 141
3 143 116 241
3 144 112 242
3 243 121 145
3 150 155 146
3 152 147 244
3 149 245 153
3 151 114 246
3 152 110 247
3 245 118 153
3 146 155 248
3 146 248 154
3 141 229 249
3 141 249 156
3 166 159 158
3 160 167 168
3 160 169 161
3 250 251 252
3 253 250 254
3 255 254 256
3 257 258 259
3 260 261 262
3 260 263 264
3 179 170 178
3 171 180 172
3 172 181 173
3 265 266 267
3 268 269 265
3 270 271 272
3 273 274 275
3 276 277 278
3 279 277 280
3 191 182 190
3 184 191 192
3 185 192 193
3 281 282 283
3 284 281 283
3 188 285 286
3 287 288 289
3 290 287 291
3 292 291 293
3 77 294 37
3 158 159 164
3 171 176 177
3 183 295 189
3 19 221 98
3 91 296 25
3 29 297 102
3 102 85 86
3 79 298 33
3 11 96 97
3 99 3 195
3 13 90 197
3 92 93 7
3 15 84 200
3 87 5 201
3 17 78 203
3 80 81 9
3 78 17 36
3 75 217 207
3 5 87 88
3 90 13 41
3 7 93 94
3 96 11 45
3 81 82 47
3 84 15 49
3 50 0 34
3 208 299 52
3 53 218 35
3 54 53 16
3 32 300 55
3 55 301 210
3 8 56 104
3 57 56 8
3 186 187 184
3 14 59 58
3 59 14 26
3 212 302 28
3 62 220 213
3 62 4 38
3 163 160 161
3 12 65 64
3 6 68 67
3 68 6 42
3 175 172 173
3 71 70 44
3 72 71 10
3 214 303 20
3 1 74 215
3 75 50 51
3 52 77 76
3 53 78 206
3 203 78 53
3 105 298 79
3 79 301 55
3 219 56 81
3 81 56 57
3 187 295 183
3 58 59 84
3 103 84 59
3 61 86 85
3 85 304 212
3 220 62 87
3 88 87 62
3 163 164 159
3 64 65 90
3 67 68 93
3 94 93 68
3 176 171 172
3 70 71 96
3 97 96 71
3 221 214 73
3 215 74 99
3 100 65 12
3 224 225 222
3 222 305 223
3 225 296 91
3 91 306 222
3 90 65 101
3 111 307 147
3 147 308 107
3 123 124 127
3 157 309 144
3 144 310 140
3 132 238 136
3 154 235 115
3 122 234 228
3 142 143 229
3 230 239 137
3 148 149 119
3 134 135 232
3 233 236 125
3 139 243 145
3 234 122 115
3 124 123 111
3 236 231 119
3 233 126 121
3 127 242 112
3 228 241 116
3 230 130 117
3 132 131 237
3 232 240 120
3 135 134 118
3 238 247 110
3 239 246 114
3 139 138 120
3 237 311 140
3 140 310 108
3 156 113 117
3 143 142 116
3 144 309 112
3 243 109 121
3 150 151 155
3 244 312 152
3 152 308 147
3 149 148 245
3 151 150 114
3 152 312 110
3 245 106 118
3 166 167 159
3 160 159 167
3 160 168 169
3 250 313 251
3 253 313 250
3 255 253 254
3 257 261 258
3 260 258 261
3 260 262 263
3 179 171 170
3 171 179 180
3 172 180 181
3 265 269 266
3 268 270 269
3 270 268 271
3 273 276 274
3 276 273 277
3 279 278 277
3 191 183 182
3 184 183 191
3 185 184 192
3 281 314 282
3 284 188 281
3 188 284 285
3 287 315 288
3 290 315 287
3 292 290 291
