ply
format ascii 1.0
comment INFO-3111 Flatenator generated
comment TextureFile Dungeons_Texture_01.png
element vertex 316
property float x
property float y
property float z
property float nx
property float ny
property float nz
property uchar red
property uchar green
property uchar blue
property uchar alpha
property float texture_u
property float texture_v
element face 290
property list uchar int vertex_indices
end_header
4.94586 -0.00158 4.94588 0.803834 -0.594853 0 95 84 71 255 0.037179 0.278335 
0.054136 -0.00158 4.94588 -0.764048 -0.645145 -0.0042259 95 84 71 255 0.037179 0.278335 
4.94586 -0.001579 0.054146 0.803834 -0.594853 0 95 84 71 255 0.037179 0.278335 
0.054136 -0.001579 0.054146 -0.803816 -0.594877 0 95 84 71 255 0.037179 0.278335 
2.62634 -0.00158 4.94588 1.67834e-05 -1 -8.18034e-08 95 84 71 255 0.037179 0.278335 
2.62634 -0.001579 0.054146 0.410624 -0.911597 -0.0194396 95 84 71 255 0.037179 0.278335 
1.44003 -0.00158 4.94588 -0.410673 -0.91175 0.0076612 95 84 71 255 0.037179 0.278335 
1.44003 -0.001579 0.054146 0.108588 -0.994025 0.011102 95 84 71 255 0.037179 0.278335 
3.94919 -0.00158 4.94588 -0.18661 -0.982418 -0.00564013 95 84 71 255 0.037179 0.278335 
3.94919 -0.001579 0.054146 -0.38658 -0.922256 -0.000757879 95 84 71 255 0.037179 0.278335 
0.570216 -0.00158 4.94588 0.357735 -0.933808 -0.00537987 95 84 71 255 0.037179 0.278335 
0.570216 -0.001579 0.054146 0.410678 -0.91172 -0.0104656 95 84 71 255 0.037179 0.278335 
1.88853 -0.00158 4.94588 -0.00680609 -0.999854 -0.0156596 95 84 71 255 0.037179 0.278335 
1.88853 -0.001579 0.054146 0.169009 -0.985608 0.00359673 95 84 71 255 0.037179 0.278335 
3.11147 -0.00158 4.94588 -0.0765146 -0.996872 -0.0197956 95 84 71 255 0.037179 0.278335 
3.11147 -0.001579 0.054146 0.237868 -0.97125 0.00956438 95 84 71 255 0.037179 0.278335 
4.3344 -0.00158 4.94588 0.501655 -0.86434 0.0354804 95 84 71 255 0.037179 0.278335 
4.3344 -0.001579 0.054146 0.386629 -0.922235 -0.00123222 95 84 71 255 0.037179 0.278335 
0.509129 -0.084128 4.94588 0.803788 -0.594817 -0.0108452 123 106 90 255 0.037179 0.278335 
0.509129 -0.084127 0.054146 0 -1 0 123 106 90 255 0.036449 0.299488 
0.115227 -0.084128 4.94588 0.0053487 -0.999854 -0.0162034 123 106 90 255 0.036449 0.299488 
0.115227 -0.084127 0.054146 0 -1 0 95 84 71 255 0.036449 0.299488 
1.82745 -0.084128 4.94588 0.802245 -0.593675 -0.0628798 123 106 90 255 0.037179 0.278335 
1.82745 -0.084127 0.054146 0 -0.998687 0.0512336 95 84 71 255 0.036449 0.299488 
1.50112 -0.084128 4.94588 -0.803726 -0.59481 0.0149937 123 106 90 255 0.037179 0.278335 
1.50112 -0.084127 0.054146 0.0253198 -0.998766 0.042736 123 106 90 255 0.036449 0.299488 
3.05038 -0.084128 4.94588 0.866225 -0.497572 -0.0455728 123 106 90 255 0.037179 0.278335 
3.05038 -0.084127 0.054146 0.803671 -0.59473 0.0202249 123 106 90 255 0.037179 0.278335 
2.68744 -0.084128 4.94588 0.0110584 -0.999254 0.0370152 95 84 71 255 0.038169 0.303526 
2.68744 -0.084127 0.054146 0.00513126 -0.999454 0.0326403 95 84 71 255 0.038169 0.303526 
4.27331 -0.084128 4.94588 0.802378 -0.593771 0.0602192 123 106 90 255 0.037179 0.278335 
4.27331 -0.084127 0.054146 0 -0.999972 0.00751801 95 84 71 255 0.038169 0.303526 
4.01028 -0.084128 4.94588 0.00734935 -0.998737 0.0496986 123 106 90 255 0.038169 0.303526 
4.01028 -0.084127 0.054146 0.00316197 -0.999972 0.00682571 123 106 90 255 0.038169 0.303526 
4.88478 -0.084128 4.94588 0.803834 -0.594853 0 95 84 71 255 0.037179 0.278335 
4.39549 -0.084128 4.94588 -0.803389 -0.594558 -0.0326656 95 84 71 255 0.037179 0.278335 
4.39549 -0.084127 0.054146 -0.823335 -0.567536 0.00466499 95 84 71 255 0.037179 0.278335 
4.88478 -0.084127 0.054146 0.00362721 -0.999955 -0.00881485 95 84 71 255 0.038169 0.277155 
2.56526 -0.084128 4.94588 0.803838 -0.594835 -0.00390901 95 84 71 255 0.037179 0.278335 
2.56526 -0.084127 0.054146 0.803254 -0.594421 -0.0380272 95 84 71 255 0.037179 0.278335 
1.94963 -0.084128 4.94588 -0.803649 -0.594754 0.0203927 123 106 90 255 0.037179 0.278335 
1.94963 -0.084127 0.054146 -0.803037 -0.594296 0.04408 95 84 71 255 0.037179 0.278335 
1.37895 -0.084128 4.94588 0.803745 -0.594786 -0.0149917 95 84 71 255 0.037179 0.278335 
1.37895 -0.084127 0.054146 0.803764 -0.5948 -0.0133258 95 84 71 255 0.037179 0.278335 
0.631307 -0.084128 4.94588 -0.706595 -0.707466 -0.0146537 95 84 71 255 0.037179 0.278335 
0.631307 -0.084127 0.054146 -0.840326 -0.541779 0.018088 95 84 71 255 0.037179 0.278335 
3.8881 -0.084128 4.94588 0.803831 -0.594851 0.00275637 95 84 71 255 0.037179 0.278335 
3.8881 -0.084127 0.054146 0.803832 -0.594832 0.00537044 95 84 71 255 0.037179 0.278335 
3.17256 -0.084128 4.94588 -0.803745 -0.594826 -0.0132565 123 106 90 255 0.037179 0.278335 
3.17256 -0.084127 0.054146 -0.803815 -0.594879 0 123 106 90 255 0.037179 0.278335 
4.94586 -0.00158 3.60909 0.803834 -0.594853 -1.08037e-07 95 84 71 255 0.037179 0.278335 
4.88478 -0.084128 3.60909 0.816952 -0.576705 0.00125264 95 84 71 255 0.037179 0.278335 
4.44822 -0.084128 3.64901 -0.00119587 -0.999994 0.00312851 95 84 71 255 0.038169 0.277155 
4.38713 -0.00158 3.64901 -0.170005 -0.985395 -0.00976061 95 84 71 255 0.037179 0.278335 
4.32605 -0.144392 3.64901 0.886021 -0.463056 0.0233624 123 106 90 255 0.037179 0.278335 
4.12253 -0.144392 3.71822 0.000577143 -0.999849 0.0173775 123 106 90 255 0.038169 0.303526 
3.99335 -0.00158 3.73813 -0.520366 -0.85394 0.00240476 95 84 71 255 0.037179 0.278335 
3.93227 -0.030042 3.73813 0.632583 -0.774492 0.000512689 95 84 71 255 0.037179 0.278335 
3.16045 -0.036794 3.55604 -0.522931 -0.852375 0.000348118 95 84 71 255 0.037179 0.278335 
3.01821 -0.012837 3.55604 0.571205 -0.820768 -0.00811717 95 84 71 255 0.037179 0.278335 
2.96679 -0.13252 3.55604 0.918752 -0.394682 -0.0110341 123 106 90 255 0.037179 0.278335 
2.70898 -0.143778 3.41469 0.0201783 -0.999242 -0.0332965 95 84 71 255 0.038169 0.303526 
2.6189 -0.00158 3.41469 0.175631 -0.984373 0.0127601 95 84 71 255 0.037179 0.278335 
2.55781 -0.084128 3.41469 0.803641 -0.59467 0.0229927 95 84 71 255 0.037179 0.278335 
1.9157 -0.084128 3.60909 -0.746471 -0.665394 -0.00568659 123 106 90 255 0.037179 0.278335 
1.82742 -0.00158 3.60909 0.203912 -0.978953 -0.00840254 95 84 71 255 0.037179 0.278335 
1.69873 -0.084128 3.65054 0.535639 -0.844247 -0.0183771 123 106 90 255 0.037179 0.278335 
1.47619 -0.084128 3.60909 -0.720298 -0.693459 -0.0168771 123 106 90 255 0.037179 0.278335 
1.4151 -0.00158 3.60909 0.360379 -0.932806 -0.000188249 95 84 71 255 0.037179 0.278335 
1.35401 -0.084128 3.60909 0.803828 -0.594847 0.00420498 95 84 71 255 0.037179 0.278335 
0.68206 -0.084128 3.90632 -0.701173 -0.712874 -0.0129267 95 84 71 255 0.037179 0.278335 
0.570216 -0.00158 3.90632 0.0607409 -0.998153 0.000801415 95 84 71 255 0.037179 0.278335 
0.509129 -0.065174 3.90632 0.750092 -0.661312 0.00527362 123 106 90 255 0.037179 0.278335 
0.115227 -0.065174 3.60909 -0.00101902 -0.999997 0.00203744 95 84 71 255 0.036449 0.299488 
0.054136 -0.00158 3.60909 -0.721156 -0.692772 -1.87734e-07 95 84 71 255 0.037179 0.278335 
4.94586 -0.001579 1.77374 0.823361 -0.567518 -6.3413e-05 95 84 71 255 0.037179 0.278335 
4.88478 -0.096906 1.77374 0.000823673 -0.999998 0.00169437 95 84 71 255 0.038169 0.277155 
4.40678 -0.096906 1.3071 0.000611476 -0.999992 -0.00402601 95 84 71 255 0.038169 0.277155 
4.34569 -0.001579 1.3071 -0.306756 -0.951787 0.00119986 95 84 71 255 0.037179 0.278335 
4.28461 -0.074707 1.3071 -0.0108455 -0.99982 -0.0155485 123 106 90 255 0.038169 0.303526 
3.99994 -0.074707 1.60061 -0.779864 -0.625943 -0.00273796 123 106 90 255 0.037179 0.278335 
3.93885 -0.001579 1.60061 0.0885594 -0.996068 0.00254875 95 84 71 255 0.037179 0.278335 
3.87777 -0.084127 1.60061 0.803853 -0.594828 -3.69743e-05 95 84 71 255 0.037179 0.278335 
3.17256 -0.084127 1.77374 -0.803805 -0.594871 0.00516882 123 106 90 255 0.037179 0.278335 
3.11147 -0.001579 1.77374 -0.174147 -0.98472 9.32128e-05 95 84 71 255 0.037179 0.278335 
2.97866 -0.025649 1.79506 0.00933719 -0.99911 -0.0411303 123 106 90 255 0.038169 0.303526 
2.7745 -0.025649 1.89334 -0.0035851 -0.999985 -0.00411765 123 106 90 255 0.038169 0.303526 
2.71341 -0.001579 1.89334 -0.181902 -0.983264 -0.0102113 95 84 71 255 0.037179 0.278335 
2.65233 -0.084127 1.89334 0.803826 -0.594835 0.00593076 95 84 71 255 0.037179 0.278335 
2.01832 -0.084127 1.30557 -0.803814 -0.594866 0.00415102 123 106 90 255 0.037179 0.278335 
1.95723 -0.001579 1.30557 -0.325288 -0.945601 0.00520782 95 84 71 255 0.037179 0.278335 
1.89614 -0.023775 1.23057 0.0035021 -0.999994 0.000546783 123 106 90 255 0.036449 0.299488 
1.57977 -0.023775 1.69875 -0.526849 -0.849916 0.00852268 123 106 90 255 0.037179 0.278335 
1.51868 -0.001579 1.77374 -0.0605022 -0.997997 -0.0185035 95 84 71 255 0.037179 0.278335 
1.38738 -0.111254 1.77374 0.727602 -0.685986 0.00426229 95 84 71 255 0.037179 0.278335 
0.68197 -0.111254 2.04225 -0.873561 -0.486582 0.0113721 95 84 71 255 0.037179 0.278335 
0.62088 -0.001579 2.04225 -0.396239 -0.918118 0.00733277 95 84 71 255 0.037179 0.278335 
0.559793 -0.084127 2.04225 0.78438 -0.620278 0.00188253 123 106 90 255 0.037179 0.278335 
0.115227 -0.084127 1.77374 -0.00207891 -0.999992 0.00344201 123 106 90 255 0.036449 0.299488 
0.054136 -0.001579 1.77374 -0.784358 -0.620306 0.00153802 95 84 71 255 0.037179 0.278335 
1.75229 -0.084128 3.98699 0.67084 -0.739219 -0.0593984 123 106 90 255 0.037179 0.278335 
1.76693 -0.069916 3.09254 0.503339 -0.863665 0.0270632 95 84 71 255 0.037179 0.278335 
3.05038 -0.037144 1.43572 0.00909503 -0.999396 0.033548 95 84 71 255 0.038169 0.303526 
3.03367 -0.047011 2.13002 0.607661 -0.794032 -0.016131 123 106 90 255 0.037179 0.278335 
4.04367 -0.1297 4.03254 -0.823678 -0.563493 -0.0634783 95 84 71 255 0.037179 0.278335 
4.04686 -0.134698 3.44081 -0.0252426 -0.999204 -0.030906 95 84 71 255 0.038169 0.303526 
5 -0.192679 5 0.707107 -3.67484e-05 0.707107 72 64 55 255 0.037908 0.253536 
0 -0.192679 5 0 -1 0 72 64 55 255 0.037908 0.279064 
5 -0.192678 1e-05 0 -1 0 95 84 71 255 0.037908 0.279064 
0 -0.192678 1e-05 -0.707107 0 -0.707107 72 64 55 255 0.037908 0.253536 
4.71463 -0.192679 4.71382 0 -1 0 95 84 71 255 0.037908 0.279064 
0.278095 -0.192679 4.72971 0 -1 0 95 84 71 255 0.037908 0.279064 
0.287106 -0.192678 0.305597 0 -1 0 95 84 71 255 0.037908 0.279064 
4.72268 -0.192678 0.286518 -0.665099 -0.302206 0.682872 72 64 55 255 0.037908 0.253536 
4.67143 1e-06 4.67062 -0.667988 -0.291232 -0.684818 72 64 55 255 0.037908 0.253536 
0.321297 1e-06 4.68651 0.656774 -0.295242 -0.693888 72 64 55 255 0.037908 0.253536 
0.330303 2e-06 0.348795 0.654489 -0.291306 0.6977 72 64 55 255 0.037908 0.253536 
4.67948 2e-06 0.329716 -0.666708 -0.294114 0.684834 72 64 55 255 0.037908 0.253536 
5 1e-06 5.00001 0.707107 -3.67484e-05 0.707107 72 64 55 255 0.037908 0.253536 
0 1e-06 5.00001 -0.707107 -3.67484e-05 0.707107 72 64 55 255 0.037908 0.253536 
5 2e-06 1e-05 0.707107 0 -0.707107 72 64 55 255 0.037908 0.253536 
0 2e-06 1e-05 -0.707107 0 -0.707107 72 64 55 255 0.037908 0.253536 
0.253983 1e-06 4.24173 0.973602 -0.223007 -0.0486591 72 64 55 255 0.037908 0.253536 
0.210785 -0.192679 4.26046 -4.6279e-09 -1 -1.86392e-07 95 84 71 255 0.037908 0.279064 
0 -0.192679 4.36008 -4.29149e-08 -1 -9.0796e-08 72 64 55 255 0.037908 0.279064 
0 1e-06 4.35184 -1 0 0 72 64 55 255 0.037908 0.253536 
0 2e-06 0.701787 -1 0 0 72 64 55 255 0.037908 0.253536 
0 -0.192678 0.694803 -3.47093e-09 -1 -1.39794e-07 95 84 71 255 0.037908 0.279064 
0.210785 -0.192678 0.779224 5.74305e-08 -1 -1.43394e-07 72 64 55 255 0.037908 0.279064 
0.253983 2e-06 0.795094 0.970996 -0.224474 0.0823284 72 64 55 255 0.037908 0.253536 
4.74602 2e-06 0.761985 -0.971666 -0.224393 0.074254 72 64 55 255 0.037908 0.253536 
4.78922 -0.192678 0.74504 -6.14075e-08 -1 -1.43594e-07 95 84 71 255 0.037908 0.279064 
5 -0.192678 0.6549 3.73593e-09 -1 -1.39744e-07 72 64 55 255 0.037908 0.279064 
5 2e-06 0.662357 1 0 0 72 64 55 255 0.037908 0.253536 
5 1e-06 4.31943 1 0 0 72 64 55 255 0.037908 0.253536 
5 -0.192679 4.32827 1 0 0 95 84 71 255 0.037908 0.253536 
4.78922 -0.192679 4.22143 4.98124e-09 -1 -1.86325e-07 72 64 55 255 0.037908 0.279064 
4.74602 1e-06 4.20135 -0.973353 -0.223561 -0.0510379 72 64 55 255 0.037908 0.253536 
4.15405 2e-06 1e-05 0 0 -1 72 64 55 255 0.037908 0.253536 
4.16007 -0.192678 1e-05 0 0 -1 95 84 71 255 0.037908 0.253536 
4.12 -0.192678 0.10774 0 -1 0 95 84 71 255 0.037908 0.279064 
4.07375 2e-06 0.253997 -0.0673052 -0.426983 0.901751 72 64 55 255 0.037908 0.253536 
1.24174 2e-06 0.253997 0.0336389 -0.221057 0.974681 72 64 55 255 0.037908 0.253536 
1.2272 -0.192678 0.210799 0.0661542 -0.227633 0.971497 95 84 71 255 0.037908 0.253536 
1.14986 -0.192678 1e-05 0 -1 0 72 64 55 255 0.037908 0.279064 
1.15626 2e-06 1e-05 0 0 -1 72 64 55 255 0.037908 0.253536 
0.954239 1e-06 4.74602 0.0591985 -0.387934 -0.919784 72 64 55 255 0.037908 0.253536 
0.896095 -0.192679 4.8662 0 -1 0 95 84 71 255 0.037908 0.279064 
0.822163 -0.192679 5 0 -5.197e-05 1 72 64 55 255 0.037908 0.253536 
0.83136 1e-06 5.00001 0 -5.197e-05 1 72 64 55 255 0.037908 0.253536 
4.11024 1e-06 4.74602 -0.0433359 -0.221162 -0.974274 72 64 55 255 0.037908 0.253536 
4.12241 -0.192679 4.78922 -0.0842466 -0.22931 -0.969701 95 84 71 255 0.037908 0.253536 
4.18712 -0.192679 5 0 -1 0 72 64 55 255 0.037908 0.279064 
4.18176 1e-06 5.00001 0 -5.197e-05 1 72 64 55 255 0.037908 0.253536 
0.63496 -0.192679 4.76212 0.164867 -0.353593 -0.920756 72 64 55 255 0.037908 0.253536 
1.29402 -0.192679 4.78922 -0.056057 -0.311521 -0.948584 95 84 71 255 0.037908 0.253536 
4.42661 -0.192678 0.251229 -0.195001 -0.376165 0.905801 72 64 55 255 0.037908 0.253536 
3.6965 -0.192678 0.210799 0 -1 0 72 64 55 255 0.037908 0.279064 
2.26926 -0.001579 0.054146 0.480152 -0.876846 -0.024389 95 84 71 255 0.038227 0.278965 
2.34806 -0.001579 1.62885 0.00904877 -0.999621 0.0260023 95 84 71 255 0.038227 0.278965 
2.25294 -0.00158 3.50217 -0.485577 -0.874135 -0.0101237 95 84 71 255 0.038227 0.278965 
2.26926 -0.00158 4.94588 0.493172 -0.869923 -0.00405033 95 84 71 255 0.038227 0.278965 
2.21842 -0.084128 4.94588 0.851447 -0.524394 -0.00692866 123 106 90 255 0.038227 0.278965 
2.20684 -0.084128 3.52237 0.858196 -0.513062 0.016333 123 106 90 255 0.038227 0.278965 
2.29531 -0.084127 1.56778 0.846093 -0.53279 -0.016186 123 106 90 255 0.038227 0.278965 
2.21842 -0.084127 0.054146 0.850672 -0.523917 -0.0432134 123 106 90 255 0.038227 0.278965 
2.32014 -0.084127 0.054146 -0.853075 -0.520064 0.0423888 95 84 71 255 0.038227 0.278965 
2.40085 -0.084127 1.68997 -0.854697 -0.518863 -0.0165599 95 84 71 255 0.038227 0.278965 
2.29908 -0.084128 3.48195 -0.874688 -0.484329 -0.0186431 95 84 71 255 0.038227 0.278965 
2.32014 -0.084128 4.94588 -0.861561 -0.507532 0.0110828 95 84 71 255 0.038227 0.278965 
0.995363 -0.001579 0.054146 -0.397545 -0.917534 -0.00943322 95 84 71 255 0.038227 0.278965 
0.983068 -0.001579 1.92045 0.0746531 -0.997177 0.0079982 95 84 71 255 0.038227 0.278965 
1.02798 -0.00158 3.61672 0.118205 -0.992944 -0.00949773 95 84 71 255 0.038227 0.278965 
0.995363 -0.00158 4.94588 0.530225 -0.847708 0.0158877 95 84 71 255 0.038227 0.278965 
0.946435 -0.084128 4.94588 0.859938 -0.509704 0.0265937 95 84 71 255 0.038227 0.278965 
0.98662 -0.084128 3.64645 0.883426 -0.468461 0.010183 95 84 71 255 0.038227 0.278965 
0.938362 -0.111254 1.9473 0.914307 -0.404756 -0.0146781 95 84 71 255 0.038227 0.278965 
0.946435 -0.084127 0.054146 0.895508 -0.445041 0.00210689 95 84 71 255 0.038227 0.278965 
1.06933 -0.084127 0.054146 -0.744637 -0.66724 -0.0175325 95 84 71 255 0.038227 0.278965 
1.05065 -0.111254 1.87985 -0.817316 -0.576186 0.00177844 95 84 71 255 0.038227 0.278965 
1.09051 -0.084128 3.57179 -0.813522 -0.581403 0.0123747 95 84 71 255 0.038227 0.278965 
1.06933 -0.084128 4.94588 -0.77321 -0.633965 -0.0153176 95 84 71 255 0.038227 0.278965 
3.53666 -0.001579 0.054146 -0.532755 -0.846267 -0.00203122 95 84 71 255 0.038227 0.278965 
3.53143 -0.001579 1.68612 0.421889 -0.906642 0.00303005 95 84 71 255 0.038227 0.278965 
3.55303 -0.00158 3.64819 0.0121888 -0.999923 0.00247852 95 84 71 255 0.038227 0.278965 
3.53666 -0.00158 4.94588 -0.283964 -0.958706 -0.0157258 95 84 71 255 0.038227 0.278965 
3.49353 -0.084128 4.94588 0.74781 -0.663866 -0.00794248 123 106 90 255 0.038227 0.278965 
3.50495 -0.033972 3.63214 0.691002 -0.722788 -0.00967001 123 106 90 255 0.038227 0.278965 
3.48922 -0.084127 1.70138 0.00197441 -0.999961 0.00864046 123 106 90 255 0.036449 0.299488 
3.49353 -0.084127 0.054146 0.888421 -0.459023 0.00258654 95 84 71 255 0.038227 0.278965 
3.58089 -0.084127 0.054146 -0.881453 -0.47226 -0.00336037 95 84 71 255 0.038227 0.278965 
3.57473 -0.084127 1.67047 -0.818327 -0.574692 0.00837533 95 84 71 255 0.038227 0.278965 
3.60235 -0.032767 3.66465 -0.671305 -0.741171 -0.00386589 95 84 71 255 0.038227 0.278965 
3.58089 -0.084128 4.94588 -0.880958 -0.471995 -0.0336754 95 84 71 255 0.038227 0.278965 
0.509129 -0.084127 0.054146 0.803666 -0.594728 -0.0204803 123 106 90 255 0.037179 0.278335 
0.115227 -0.084127 0.054146 -0.803816 -0.594877 0 95 84 71 255 0.037179 0.278335 
0.115227 -0.084127 1.77374 -0.803813 -0.594875 0.00307149 123 106 90 255 0.037179 0.278335 
1.89614 -0.023775 1.23057 0.521546 -0.853133 -0.0124409 123 106 90 255 0.037179 0.278335 
1.82745 -0.084127 0.054146 0.803727 -0.594772 -0.0164181 95 84 71 255 0.037179 0.278335 
1.50112 -0.084127 0.054146 -0.802361 -0.5938 0.0601603 123 106 90 255 0.037179 0.278335 
3.05038 -0.037144 1.43572 0.522521 -0.852056 0.0311706 95 84 71 255 0.037179 0.278335 
2.68744 -0.084127 0.054146 -0.608217 -0.792542 0.0441626 95 84 71 255 0.037179 0.278335 
2.7745 -0.025649 1.89334 -0.366504 -0.930192 -0.0204504 123 106 90 255 0.037179 0.278335 
4.28461 -0.074707 1.3071 0.820399 -0.571646 -0.0129008 123 106 90 255 0.037179 0.278335 
4.27331 -0.084127 0.054146 0.803833 -0.594848 -0.00277339 95 84 71 255 0.037179 0.278335 
4.01028 -0.084127 0.054146 -0.803816 -0.594875 -0.00174769 123 106 90 255 0.037179 0.278335 
4.40678 -0.096906 1.3071 -0.829598 -0.558243 0.0114882 95 84 71 255 0.037179 0.278335 
4.88478 -0.084127 0.054146 0.82336 -0.567516 -0.0020059 95 84 71 255 0.037179 0.278335 
4.88478 -0.084128 4.94588 0 -1 0 95 84 71 255 0.038169 0.277155 
4.88478 -0.084128 3.60909 0.000318288 -0.999994 0.00348101 95 84 71 255 0.038169 0.277155 
4.27331 -0.084128 4.94588 0.00800231 -0.998813 0.0480475 123 106 90 255 0.038169 0.303526 
4.01028 -0.084128 4.94588 -0.803818 -0.594876 0.000288671 123 106 90 255 0.037179 0.278335 
2.96679 -0.13252 3.55604 0.0201342 -0.999729 -0.0116589 123 106 90 255 0.038169 0.303526 
2.68744 -0.084128 4.94588 -0.824815 -0.565366 0.00644094 95 84 71 255 0.037179 0.278335 
0.509129 -0.065174 3.90632 0.00106007 -0.999971 -0.00748209 123 106 90 255 0.036449 0.299488 
0.115227 -0.065174 3.60909 -0.764055 -0.645151 -0.000574131 95 84 71 255 0.037179 0.278335 
0.115227 -0.084128 4.94588 -0.803788 -0.594856 -0.00843436 123 106 90 255 0.037179 0.278335 
4.88478 -0.096906 1.77374 0.841959 -0.539541 -0.000126593 95 84 71 255 0.037179 0.278335 
4.44822 -0.084128 3.64901 -0.803798 -0.594854 -0.00760154 95 84 71 255 0.037179 0.278335 
4.04686 -0.134698 3.44081 -0.808517 -0.584806 0.065591 95 84 71 255 0.037179 0.278335 
2.70898 -0.143778 3.41469 -0.716271 -0.696321 -0.0457424 95 84 71 255 0.037179 0.278335 
0.559793 -0.084127 2.04225 -0.00458474 -0.999967 0.00676288 123 106 90 255 0.036449 0.299488 
1.69873 -0.084128 3.65054 0.00352107 -0.999947 -0.00968606 123 106 90 255 0.036449 0.299488 
1.82745 -0.084128 4.94588 0 -1 0 123 106 90 255 0.036449 0.299488 
1.50112 -0.084128 4.94588 0 -1 0 123 106 90 255 0.036449 0.299488 
1.47619 -0.084128 3.60909 -0.0153935 -0.999689 -0.0196226 123 106 90 255 0.036449 0.299488 
2.97866 -0.025649 1.79506 0.176722 -0.984207 -0.0103109 123 106 90 255 0.037179 0.278335 
4.12253 -0.144392 3.71822 -0.741026 -0.671425 0.00829858 123 106 90 255 0.037179 0.278335 
0.210785 -0.192678 0.779224 0.970025 -0.229529 0.0798068 72 64 55 255 0.037908 0.253536 
3.6965 -0.192678 0.210799 0.0665437 -0.340555 0.937867 72 64 55 255 0.037908 0.253536 
4.78922 -0.192678 0.74504 -0.970817 -0.228754 0.0720146 95 84 71 255 0.037908 0.253536 
0 -0.192679 5 -0.707107 -3.67484e-05 0.707107 72 64 55 255 0.037908 0.253536 
5 -0.192678 0.6549 1 0 0 72 64 55 255 0.037908 0.253536 
0 -0.192678 0.694803 -1 0 0 95 84 71 255 0.037908 0.253536 
0.210785 -0.192679 4.26046 0.968081 -0.232084 -0.0946371 95 84 71 255 0.037908 0.253536 
0.278095 -0.192679 4.72971 0.655688 -0.302146 -0.69194 95 84 71 255 0.037908 0.253536 
0 -0.192679 4.36008 -1 0 0 72 64 55 255 0.037908 0.253536 
4.72268 -0.192678 0.286518 0 -1 0 72 64 55 255 0.037908 0.279064 
5 -0.192679 4.32827 4.59196e-08 -1 -9.0596e-08 95 84 71 255 0.037908 0.279064 
4.78922 -0.192679 4.22143 -0.96735 -0.233082 -0.0995336 72 64 55 255 0.037908 0.253536 
5 -0.192678 1e-05 0.707107 0 -0.707107 95 84 71 255 0.037908 0.253536 
0.287106 -0.192678 0.305597 0.653078 -0.302101 0.694424 95 84 71 255 0.037908 0.253536 
0 -0.192678 1e-05 0 -1 0 72 64 55 255 0.037908 0.279064 
1.14986 -0.192678 1e-05 0 0 -1 72 64 55 255 0.037908 0.253536 
1.29402 -0.192679 4.78922 0 -1 0 95 84 71 255 0.037908 0.279064 
4.18712 -0.192679 5 0 -5.197e-05 1 72 64 55 255 0.037908 0.253536 
4.71463 -0.192679 4.71382 -0.665731 -0.302213 -0.682254 95 84 71 255 0.037908 0.253536 
5 -0.192679 5 0 -1 0 72 64 55 255 0.037908 0.279064 
0.896095 -0.192679 4.8662 0.071407 -0.543278 -0.836511 95 84 71 255 0.037908 0.253536 
4.12 -0.192678 0.10774 -0.0712699 -0.61387 0.786183 95 84 71 255 0.037908 0.253536 
1.9157 -0.084128 3.60909 5.98599e-08 -1 -2.33411e-07 123 106 90 255 0.036449 0.299488 
2.21842 -0.084128 4.94588 0 -1 0 123 106 90 255 0.036449 0.299488 
1.94963 -0.084128 4.94588 0 -1 0 123 106 90 255 0.036449 0.299488 
2.29531 -0.084127 1.56778 7.98132e-08 -1 -3.11215e-07 123 106 90 255 0.036449 0.299488 
2.01832 -0.084127 1.30557 1.31225e-07 -1 -1.38625e-07 123 106 90 255 0.036449 0.299488 
2.21842 -0.084127 0.054146 0 -1 0 123 106 90 255 0.036449 0.299488 
1.94963 -0.084127 0.054146 0 -1 0 95 84 71 255 0.036449 0.299488 
2.56526 -0.084127 0.054146 0 -1 0 95 84 71 255 0.036449 0.27713 
2.40085 -0.084127 1.68997 1.4359e-07 -1 -1.77557e-07 95 84 71 255 0.036449 0.27713 
2.32014 -0.084127 0.054146 0 -1 0 95 84 71 255 0.036449 0.27713 
2.29908 -0.084128 3.48195 6.43404e-08 -1 -2.99922e-07 95 84 71 255 0.036449 0.27713 
2.65233 -0.084127 1.89334 8.57873e-08 -1 -3.99895e-07 95 84 71 255 0.036449 0.27713 
2.55781 -0.084128 3.41469 -8.67038e-08 -1 -3.33508e-07 95 84 71 255 0.036449 0.27713 
2.56526 -0.084128 4.94588 0 -1 0 95 84 71 255 0.036449 0.27713 
2.32014 -0.084128 4.94588 0 -1 0 95 84 71 255 0.036449 0.27713 
0.68206 -0.084128 3.90632 0.00413817 -0.99998 0.00484978 95 84 71 255 0.038169 0.281168 
0.946435 -0.084128 4.94588 0 -1 0 95 84 71 255 0.038169 0.281168 
0.631307 -0.084128 4.94588 0 -1 0 95 84 71 255 0.038169 0.281168 
0.68197 -0.111254 2.04225 0.00442002 -0.999974 0.00561036 95 84 71 255 0.038169 0.281168 
0.98662 -0.084128 3.64645 0.00608819 -0.99993 0.0101153 95 84 71 255 0.038169 0.281168 
0.938362 -0.111254 1.9473 0.000281528 -0.999992 -0.00401617 95 84 71 255 0.038169 0.281168 
0.631307 -0.084127 0.054146 -0.00250268 -0.9999 -0.0139217 95 84 71 255 0.038169 0.281168 
0.946435 -0.084127 0.054146 0 -0.999897 -0.0143276 95 84 71 255 0.038169 0.281168 
1.38738 -0.111254 1.77374 -4.36124e-06 -0.999986 -0.00527217 95 84 71 255 0.038169 0.281168 
1.06933 -0.084127 0.054146 -0.0023485 -0.99988 -0.015339 95 84 71 255 0.038169 0.281168 
1.37895 -0.084127 0.054146 0 -0.999876 -0.0157733 95 84 71 255 0.038169 0.281168 
1.05065 -0.111254 1.87985 -0.000763358 -0.999986 0.00534809 95 84 71 255 0.038169 0.281168 
1.35401 -0.084128 3.60909 0.00060181 -0.99997 0.00773703 95 84 71 255 0.038169 0.281168 
1.09051 -0.084128 3.57179 -0.00113841 -0.999967 0.00804227 95 84 71 255 0.038169 0.281168 
1.06933 -0.084128 4.94588 0 -1 0 95 84 71 255 0.038169 0.281168 
1.37895 -0.084128 4.94588 0 -1 0 95 84 71 255 0.038169 0.281168 
3.50495 -0.033972 3.63214 0.00599749 -0.99997 -0.00496192 123 106 90 255 0.036449 0.299488 
3.17256 -0.084128 4.94588 0.00786763 -0.999315 -0.0361615 123 106 90 255 0.036449 0.299488 
3.16045 -0.036794 3.55604 0.00903191 -0.999952 -0.00380511 95 84 71 255 0.036449 0.299488 
3.17256 -0.084127 1.77374 0.00274791 -0.999843 0.0174957 123 106 90 255 0.036449 0.299488 
3.17256 -0.084127 0.054146 0 -1 0 123 106 90 255 0.036449 0.299488 
3.49353 -0.084127 0.054146 0 -1 0 95 84 71 255 0.036449 0.299488 
3.87777 -0.084127 1.60061 0.00213887 -0.999917 0.0127239 95 84 71 255 0.036449 0.27713 
3.58089 -0.084127 0.054146 0 -1 0 95 84 71 255 0.036449 0.27713 
3.8881 -0.084127 0.054146 0 -1 0 95 84 71 255 0.036449 0.27713 
3.60235 -0.032767 3.66465 0.00855846 -0.999956 0.00371113 95 84 71 255 0.036449 0.27713 
3.93227 -0.030042 3.73813 0.00658564 -0.999783 -0.0197686 95 84 71 255 0.036449 0.27713 
3.58089 -0.084128 4.94588 0.00855434 -0.99907 -0.0422523 95 84 71 255 0.036449 0.27713 
3.8881 -0.084128 4.94588 0 -0.998999 -0.0447379 95 84 71 255 0.036449 0.27713 
4.39549 -0.084127 0.054146 0 -0.999948 -0.0101986 95 84 71 255 0.038169 0.277155 
3.48922 -0.084127 1.70138 0.890579 -0.454816 0.00344423 123 106 90 255 0.038227 0.278965 
1.57977 -0.023775 1.69875 -5.67941e-05 -1 -3.83734e-05 123 106 90 255 0.036449 0.299488 
3.05038 -0.084127 0.054146 0 -0.999422 0.0339872 123 106 90 255 0.038169 0.303526 
3.99994 -0.074707 1.60061 -0.0132019 -0.999831 -0.0128041 123 106 90 255 0.038169 0.303526 
4.39549 -0.084128 4.94588 0 -1 0 95 84 71 255 0.038169 0.277155 
4.04367 -0.1297 4.03254 0.0146983 -0.998623 0.0503649 95 84 71 255 0.038169 0.303526 
4.32605 -0.144392 3.64901 0.00297782 -0.999957 0.00875669 123 106 90 255 0.038169 0.303526 
3.05038 -0.084128 4.94588 0 -0.999394 0.0347973 123 106 90 255 0.038169 0.303526 
0.509129 -0.084128 4.94588 0 -0.999834 -0.0182298 123 106 90 255 0.036449 0.299488 
3.03367 -0.047011 2.13002 -0.0180179 -0.997994 -0.0606883 123 106 90 255 0.038169 0.303526 
1.75229 -0.084128 3.98699 0 -1 0 123 106 90 255 0.036449 0.299488 
1.76693 -0.069916 3.09254 0.0130303 -0.99963 -0.0238675 95 84 71 255 0.036449 0.299488 
0.63496 -0.192679 4.76212 0 -1 0 72 64 55 255 0.037908 0.279064 
0.822163 -0.192679 5 0 -1 0 72 64 55 255 0.037908 0.279064 
1.2272 -0.192678 0.210799 0 -1 0 95 84 71 255 0.037908 0.279064 
4.16007 -0.192678 1e-05 0 -1 0 95 84 71 255 0.037908 0.279064 
4.42661 -0.192678 0.251229 0 -1 0 72 64 55 255 0.037908 0.279064 
4.12241 -0.192679 4.78922 0 -1 0 95 84 71 255 0.037908 0.279064 
2.20684 -0.084128 3.52237 -7.71179e-08 -1 -2.58884e-07 123 106 90 255 0.036449 0.299488 
3.49353 -0.084128 4.94588 0 -0.999272 -0.0381504 123 106 90 255 0.036449 0.299488 
3.57473 -0.084127 1.67047 0.00295848 -0.999913 0.0128331 95 84 71 255 0.036449 0.27713 
3 77 37 76
3 158 164 165
3 171 177 170
3 183 189 182
3 19 98 21
3 91 25 23
3 102 86 29
3 79 33 31
3 11 97 194
3 99 195 196
3 13 197 198
3 92 7 199
3 15 200 27
3 87 201 202
3 17 203 204
3 80 9 205
3 78 36 206
3 75 207 2
3 5 88 39
3 90 41 89
3 7 94 43
3 96 45 95
3 81 47 9
3 84 49 83
3 50 34 51
3 208 52 209
3 53 35 16
3 54 16 30
3 55 210 32
3 8 104 211
3 57 8 46
3 186 184 185
3 14 58 48
3 59 26 60
3 212 28 61
3 62 213 4
3 62 38 63
3 163 161 162
3 12 64 40
3 66 65 100
3 6 67 24
3 68 42 69
3 175 173 174
3 71 44 10
3 72 10 18
3 214 20 73
3 1 215 216
3 75 51 217
3 52 76 209
3 53 206 218
3 203 53 54
3 79 55 105
3 219 81 80
3 81 57 82
3 187 183 184
3 58 84 83
3 103 59 60
3 85 212 61
3 220 87 202
3 88 62 63
3 163 159 160
3 64 90 89
3 101 65 66
3 67 93 92
3 94 68 69
3 176 172 175
3 70 96 95
3 97 71 72
3 221 73 98
3 215 99 196
3 100 12 22
3 222 223 224
3 91 222 225
3 90 101 197
3 200 84 226
3 226 84 103
3 227 56 219
3 104 56 227
3 147 107 111
3 123 127 128
3 144 140 157
3 132 136 131
3 154 115 146
3 122 228 129
3 142 229 141
3 230 137 130
3 148 119 231
3 134 232 133
3 233 125 126
3 139 145 138
3 234 115 235
3 124 111 107
3 236 119 125
3 233 121 109
3 127 112 128
3 228 116 129
3 230 117 113
3 132 237 108
3 232 120 133
3 135 118 106
3 238 110 136
3 239 114 137
3 139 120 240
3 140 108 237
3 156 117 141
3 143 116 241
3 144 112 242
3 243 121 145
3 150 155 146
3 152 147 244
3 149 245 153
3 151 114 246
3 152 110 247
3 245 118 153
3 146 155 248
3 146 248 154
3 141 229 249
3 141 249 156
3 166 159 158
3 160 167 168
3 160 169 161
3 250 251 252
3 253 250 254
3 255 254 256
3 257 258 259
3 260 261 262
3 260 263 264
3 179 170 178
3 171 180 172
3 172 181 173
3 265 266 267
3 268 269 265
3 270 271 272
3 273 274 275
3 276 277 278
3 279 277 280
3 191 182 190
3 184 191 192
3 185 192 193
3 281 282 283
3 284 281 283
3 188 285 286
3 287 288 289
3 290 287 291
3 292 291 293
3 77 294 37
3 158 159 164
3 171 176 177
3 183 295 189
3 19 221 98
3 91 296 25
3 29 297 102
3 102 85 86
3 79 298 33
3 11 96 97
3 99 3 195
3 13 90 197
3 92 93 7
3 15 84 200
3 87 5 201
3 17 78 203
3 80 81 9
3 78 17 36
3 75 217 207
3 5 87 88
3 90 13 41
3 7 93 94
3 96 11 45
3 81 82 47
3 84 15 49
3 50 0 34
3 208 299 52
3 53 218 35
3 54 53 16
3 32 300 55
3 55 301 210
3 8 56 104
3 57 56 8
3 186 187 184
3 14 59 58
3 59 14 26
3 212 302 28
3 62 220 213
3 62 4 38
3 163 160 161
3 12 65 64
3 6 68 67
3 68 6 42
3 175 172 173
3 71 70 44
3 72 71 10
3 214 303 20
3 1 74 215
3 75 50 51
3 52 77 76
3 53 78 206
3 203 78 53
3 105 298 79
3 79 301 55
3 219 56 81
3 81 56 57
3 187 295 183
3 58 59 84
3 103 84 59
3 61 86 85
3 85 304 212
3 220 62 87
3 88 87 62
3 163 164 159
3 64 65 90
3 67 68 93
3 94 93 68
3 176 171 172
3 70 71 96
3 97 96 71
3 221 214 73
3 215 74 99
3 100 65 12
3 224 225 222
3 222 305 223
3 225 296 91
3 91 306 222
3 90 65 101
3 111 307 147
3 147 308 107
3 123 124 127
3 157 309 144
3 144 310 140
3 132 238 136
3 154 235 115
3 122 234 228
3 142 143 229
3 230 239 137
3 148 149 119
3 134 135 232
3 233 236 125
3 139 243 145
3 234 122 115
3 124 123 111
3 236 231 119
3 233 126 121
3 127 242 112
3 228 241 116
3 230 130 117
3 132 131 237
3 232 240 120
3 135 134 118
3 238 247 110
3 239 246 114
3 139 138 120
3 237 311 140
3 140 310 108
3 156 113 117
3 143 142 116
3 144 309 112
3 243 109 121
3 150 151 155
3 244 312 152
3 152 308 147
3 149 148 245
3 151 150 114
3 152 312 110
3 245 106 118
3 166 167 159
3 160 159 167
3 160 168 169
3 250 313 251
3 253 313 250
3 255 253 254
3 257 261 258
3 260 258 261
3 260 262 263
3 179 171 170
3 171 179 180
3 172 180 181
3 265 269 266
3 268 270 269
3 270 268 271
3 273 276 274
3 276 273 277
3 279 278 277
3 191 183 182
3 184 183 191
3 185 184 192
3 281 314 282
3 284 188 281
3 188 284 285
3 287 315 288
3 290 315 287
3 292 290 291
