ply
format ascii 1.0
comment INFO-3111 Flatenator generated
comment TextureFile Dungeons_Texture_01.png
element vertex 636
property float x
property float y
property float z
element face 782
property list uchar int vertex_indices
end_header
3.39977 4.54272 0.217959 
3.40552 4.02271 0.263949 
3.63213 4.37816 0.259048 
-0.009727 5.03743 0.258616 
-0.009727 4.56062 0.258616 
1.05755 5.03712 0.258411 
1.14653 5.06164 0.257564 
1.12868 4.58556 0.25534 
1.59545 5.0236 0.227298 
1.41309 4.57609 0.258258 
2.21341 5.02127 0.257327 
1.05754 4.56093 0.258411 
2.19543 4.54447 0.257964 
3.66025 4.51088 0.223235 
1.04886 3.94225 0.258739 
-0.017668 3.90325 0.258712 
-1.3e-05 3.42447 0.257815 
3.19481 3.94176 0.25962 
3.44142 3.7426 0.257926 
3.91363 3.92116 0.259456 
3.5464 3.46592 0.258914 
3.95031 3.46478 0.256625 
5.01142 3.43089 0.257968 
5.02747 3.91201 0.257808 
3.45813 3.55882 0.189563 
1.07206 3.45007 0.221801 
3.96125 3.94328 0.258639 
0.578136 2.85904 0.227289 
-0.002398 2.86606 0.217428 
0.40066 2.78259 0.255339 
-0.01115 2.35333 0.254763 
5.02749 2.81402 0.257807 
3.96145 2.81402 0.257811 
5.01226 2.34565 0.260267 
3.96144 2.33257 0.257822 
4.29497 2.27017 0.226458 
4.61044 2.31687 0.219534 
4.01456 2.24577 0.258829 
4.34407 1.80306 0.24745 
5.02226 1.70202 0.257143 
4.59146 1.69876 0.254744 
5.02545 1.22358 0.258677 
4.47599 1.2234 0.252623 
5.03597 5.02149 0.247626 
3.96941 5.10568 0.140079 
3.95417 4.58568 0.247859 
3.04884 5.03607 0.247947 
3.47826 4.56028 0.248447 
3.90766 5.03619 0.247958 
2.993 5.03719 0.248447 
2.26946 5.03927 0.247329 
2.26944 4.55876 0.24731 
3.90766 4.56185 0.247947 
2.99296 4.5609 0.24842 
3.93039 4.55827 0.218642 
5.01529 4.54551 0.248385 
2.21767 4.5193 0.218726 
1.07418 4.55748 0.218726 
0.582733 4.50997 0.246009 
0.92535 4.3357 0.228919 
1.14642 4.49511 0.247851 
2.4685 4.52122 0.217258 
3.06787 4.08463 0.249412 
3.34533 4.49185 0.248694 
4.94693 4.49163 0.248385 
4.28112 4.48162 0.244487 
4.6414 4.16122 0.247386 
0.501163 4.50032 0.224834 
-0.020918 4.49115 0.248447 
0.495424 4.01845 0.247344 
4.34813 4.0182 0.24752 
0.771078 4.14213 0.248447 
1.64761 4.47971 0.248111 
0.569893 4.02944 0.246528 
1.70671 4.49142 0.247607 
1.76051 4.01866 0.248447 
2.44168 4.49178 0.247989 
1.28711 4.01813 0.248157 
3.34578 4.01731 0.247966 
1.63788 3.99015 0.214721 
4.53716 3.98302 0.21878 
-0.020914 4.17629 0.248447 
0.105604 4.00824 0.23117 
4.93741 3.93423 0.216113 
5.04326 3.94311 0.1659 
1.05765 3.95708 0.223792 
1.13764 3.92297 0.247409 
1.14072 3.46434 0.248366 
1.43845 3.45751 0.246123 
1.70114 3.93245 0.242003 
1.34216 3.39818 0.103763 
4.28582 3.40303 0.218886 
0.51091 3.3608 0.248447 
-0.066149 3.36264 0.247466 
-0.066149 2.88224 0.247465 
4.94715 3.36082 0.248447 
4.3746 3.43971 0.224223 
4.34864 2.88406 0.248446 
3.64517 3.33616 0.248447 
1.32838 3.37351 0.248447 
0.568253 3.33863 0.247836 
1.10043 2.90427 0.247831 
0.511063 3.00361 0.248446 
4.9478 2.86874 0.216581 
4.39038 2.82603 0.224161 
1.06896 2.79457 0.246664 
1.05334 2.323 0.238829 
4.34321 2.22417 0.216272 
4.99778 2.25579 0.248365 
4.98482 1.78344 0.24766 
0.49332 2.263 0.248446 
-0.086733 2.23858 0.248415 
-0.066378 1.7653 0.248156 
0.512878 1.78524 0.248228 
-0.009243 1.69947 0.248728 
0.825912 1.30583 0.250463 
1.05751 1.69945 0.24872 
1.05763 1.22328 0.247961 
3.95663 1.68349 0.248373 
3.95418 1.32707 0.198561 
3.95956 1.21575 0.248373 
-0.009531 1.24501 0.249521 
4.35161 1.12036 0.248373 
3.99457 1.14676 0.233664 
3.98014 0.657138 0.233568 
1.0109 1.11985 0.248262 
0.580124 1.12035 0.248396 
1.01118 0.645691 0.246668 
4.28604 0.635193 0.248446 
0.562025 1.13234 0.216852 
0.000235 1.12033 0.248442 
0.496454 0.629614 0.224596 
0.575775 0.642171 0.247328 
-0.04401 0.641326 0.248446 
4.99083 1.12035 0.248377 
4.30467 0.612398 0.218706 
4.93505 0.582534 0.217043 
1.04838 0.57722 0.240519 
1.06242 0.109229 0.2484 
-0.017872 0.537917 0.24124 
3.96157 0.561697 0.247999 
3.96082 0.085979 0.246767 
5.0278 0.547734 0.248381 
0.534403 0.075871 0.247728 
-0.00065 0.056479 0.247801 
0.165697 0.059094 0.220854 
5.02808 0.086012 0.246737 
3.03234 5.08114 0.131228 
5.056 5.06381 0.141192 
2.21687 4.93734 0.223514 
0.504246 3.9579 0.219195 
1.041 3.37748 0.216704 
0.498795 2.26836 0.224783 
1.0593 1.78984 0.242769 
0.581551 1.70833 0.224783 
4.0573 1.7048 0.22455 
0.061398 1.7492 0.216417 
4.99065 1.7505 0.19079 
0.929766 1.20995 0.224726 
-0.06625 1.15725 0.148314 
5.06081 0.028741 0.055683 
1.07648 5.0803 0.139411 
3.92233 5.08114 0.131614 
2.23447 5.06584 0.139415 
1.13405 4.91854 0.223922 
5.03471 4.50711 0.147525 
-0.020617 4.536 0.198508 
0.560595 4.54836 0.230739 
4.54958 4.53985 0.218398 
0.5672 4.52487 0.219241 
1.72652 4.54675 0.216712 
3.958 3.9823 0.218959 
3.39693 3.9792 0.218711 
0.562782 3.34583 0.225471 
3.60402 3.34416 0.113223 
1.0781 2.83897 0.163935 
3.93778 1.76696 0.106462 
4.92945 1.20778 0.225256 
1.03284 0.669152 0.121782 
4.95313 4.53919 0.225299 
3.14579 3.97284 0.133403 
1.71498 3.95978 0.120051 
-0.01889 3.37733 0.216445 
3.52871 3.42583 0.138454 
3.70587 3.43874 0.215926 
0.089821 2.25583 0.224527 
1.08518 1.7673 0.114542 
3.95843 0.039692 0.131346 
3.91387 2.36336 0.120329 
3.97878 2.26448 0.12253 
-0.046223 3.96747 0.132846 
-0.088749 2.84548 0.147863 
-0.026155 1.18226 0.148561 
5.03847 1.14497 0.004808 
3.9448 0.600475 0.147661 
-0.038391 0.574544 0.131773 
-0.018625 0.014023 0.131624 
1.08445 0.053963 0.131594 
1.12661 5.10858 0.0557 
2.48584 4.49822 0.11457 
1.44462 3.40292 0.08147 
3.95729 1.12634 0.11392 
1.07886 1.18137 0.08779 
5.08688 0.590479 -0.113784 
3.93579 4.93167 0.088553 
3.89142 2.86556 0.112959 
1.08034 4.95448 0.09722 
2.25367 4.35967 0.114547 
-0.057782 2.32825 0.064492 
-0.020773 1.70382 0.114176 
4.96087 4.00557 0.122169 
1.59582 5.08945 0.131362 
3.06414 4.01775 0.114238 
5.05969 2.2914 0.048046 
-0.169121 1.69442 -0.113807 
3.70507 3.41204 0.087817 
-0.026886 5.08114 0.131164 
-0.026395 3.42101 0.06359 
1.0737 2.25856 0.114492 
5.06886 1.17482 0.055996 
3.91274 0.486913 0.113867 
1.15936 0.645658 0.113325 
1.07461 0.125417 0.087947 
2.19409 0.066949 0.110388 
1.81877 4.00074 0.087985 
3.05785 3.94431 0.122737 
3.06755 3.48079 0.125415 
5.04221 3.39702 -0.114826 
1.13301 2.88698 0.120493 
3.40214 2.24166 0.127787 
3.35035 1.72537 0.080988 
2.02667 0.825069 0.111731 
1.68295 0.689762 0.119513 
1.64898 0.628232 0.085226 
2.4223 1.14286 0.113359 
2.20374 0.671626 0.120485 
2.41791 0.580661 0.080858 
2.48996 1.14442 0.122873 
2.47395 0.666722 0.123156 
3.39459 0.667593 0.113573 
3.3483 1.1078 0.12311 
2.4323 4.01808 0.112559 
2.48663 4.01748 0.112346 
3.00171 3.91621 0.115096 
2.28021 3.95682 0.106177 
2.97777 3.43951 0.112907 
2.20356 3.90272 0.113574 
2.20106 3.45012 0.111953 
3.02501 3.46222 0.080668 
1.50661 3.45041 0.112746 
2.43252 3.31831 0.11262 
1.70754 3.36112 0.113032 
1.70746 2.88369 0.113077 
3.3499 3.38478 0.080668 
3.40854 2.86022 0.112482 
1.65014 2.90129 0.112459 
1.63413 3.37463 0.113135 
2.43202 2.88181 0.1117 
2.98811 2.81424 0.080667 
2.26185 2.82496 0.113001 
2.96172 2.30978 0.11231 
2.20077 2.81419 0.110929 
1.13855 2.81386 0.111883 
2.20238 2.34563 0.112684 
2.75911 2.3207 0.112741 
3.14538 2.32658 0.110025 
1.13856 2.33273 0.111879 
3.3692 2.2999 0.081007 
2.48958 2.26022 0.113207 
1.70891 2.26022 0.113203 
1.70868 1.78256 0.113573 
3.34526 2.26029 0.112997 
3.02359 2.10318 0.113573 
2.4319 1.77998 0.112436 
2.48943 1.78258 0.113573 
2.86131 1.77782 0.088743 
2.20103 1.69947 0.111948 
1.13774 1.69901 0.113104 
2.20253 1.22263 0.113153 
2.2904 1.69851 0.113573 
2.26871 1.22353 0.112787 
2.99257 1.69895 0.113356 
3.04884 1.69862 0.11302 
3.94063 1.21093 0.080679 
1.13751 1.22375 0.111738 
3.04501 1.19221 0.080908 
3.04866 1.22373 0.111719 
3.35398 1.11181 0.087835 
3.93124 0.646529 0.11389 
1.1097 1.1105 0.113562 
1.71956 1.16741 0.110044 
1.67332 1.20909 0.088339 
3.04484 0.602828 0.081388 
2.21048 0.53957 0.104555 
3.06185 0.570895 0.113058 
3.04551 0.096018 0.113379 
2.99257 0.561693 0.113359 
2.26941 0.085233 0.112669 
3.10454 3.99973 0.088267 
2.25643 3.37805 0.080684 
2.48309 3.37312 0.073131 
3.33642 3.36184 0.112254 
2.48196 3.30302 0.106319 
3.34868 2.88843 0.110289 
2.47016 2.84116 0.080656 
2.24095 2.83971 0.080664 
-0.174202 2.86689 -0.104029 
-0.049637 2.82774 0.022193 
3.02444 2.26979 0.088358 
2.21409 2.32369 0.087679 
1.69352 2.2803 0.080667 
1.64883 1.78938 0.105585 
1.65256 1.76477 0.080889 
2.46963 1.76709 0.081347 
2.26207 1.74674 0.081194 
3.0258 1.72657 0.080667 
2.26461 1.20943 0.088015 
2.4709 1.17051 0.080667 
3.96559 0.032624 0.04741 
2.47001 3.99956 0.081267 
1.61572 3.42521 0.080878 
3.37147 2.88783 0.081297 
1.65547 2.88588 0.088072 
3.92039 2.27886 0.081144 
1.13759 1.72575 0.080648 
3.31918 0.579739 0.087297 
-0.077253 1.15249 -0.019641 
5.06675 1.73492 0.013559 
-0.09841 0.577608 -0.005229 
4.39011 5.17624 -0.113574 
-0.168517 3.43219 -0.113731 
3.04501 5.0771 0.029857 
5.11685 4.5656 -0.113322 
5.07939 1.80191 -0.114977 
2.19151 -0.035822 -0.010755 
-0.133801 2.32617 -0.110968 
5.09437 2.23412 -0.113673 
3.96866 5.12622 -0.122498 
2.25302 0.012685 -0.122735 
2.27246 5.16307 -0.11331 
4.00005 5.18542 -0.113987 
5.04299 4.54661 -0.113688 
3.02468 -0.041508 -0.104245 
-0.081726 1.73202 -0.122081 
1.54702 5.1735 -0.122226 
-0.078863 2.84967 -0.122436 
-0.080027 0.01202 -0.122235 
1.05321 -0.002517 -0.113536 
0.710191 5.16108 -0.122482 
1.07786 5.12768 -0.131603 
5.02617 5.12521 -0.122439 
-0.100639 3.44573 -0.114208 
-0.083683 5.13221 -0.163247 
5.02757 3.98785 -0.1308 
-0.19398 2.27101 -0.113307 
5.14315 1.13426 -0.116162 
-0.148073 1.11764 -0.113874 
3.96362 -0.049497 -0.113894 
5.02725 2.86821 -0.130675 
5.13068 -0.036497 -0.114197 
-0.079227 0.510559 -0.122869 
3.47379 -0.036349 -0.113866 
2.17379 -0.082628 -0.121652 
2.55052 5.12648 -0.122939 
-0.127766 4.01322 -0.11509 
-0.079032 4.54676 -0.122911 
2.43844 5.13252 -0.163385 
3.57163 5.11412 -0.163605 
5.02898 3.49128 -0.163156 
5.02562 2.23074 -0.122716 
5.02658 1.70966 -0.130793 
-0.083589 1.16844 -0.163153 
5.02521 1.12827 -0.131238 
3.09208 0.007907 -0.163307 
3.98834 0.011824 -0.122735 
4.56548 0.012073 -0.122838 
5.029 5.13217 -0.163231 
-0.083567 3.65147 -0.163152 
5.02898 4.05196 -0.163156 
5.02898 3.01069 -0.163157 
-0.083597 2.00948 -0.163153 
5.02897 0.008153 -0.163248 
2.01319 0.00792 -0.163307 
1.15405 5.13223 -0.163156 
5.02898 1.48884 -0.163157 
5.02898 0.928162 -0.163157 
-0.083585 0.008188 -0.163232 
5.02931 3.79106 -0.163298 
4.81037 4.37244 -0.163621 
5.01089 3.61149 -0.163601 
4.99026 3.25103 -0.163621 
2.9623 2.94731 -0.163618 
4.07452 2.1196 -0.163618 
3.95031 3.46478 0.256625 
3.5464 3.46592 0.258914 
3.44142 3.7426 0.257926 
0.40066 2.78259 0.255339 
-0.002398 2.86606 0.217428 
5.01226 2.34565 0.260267 
3.96144 2.33257 0.257822 
4.29497 2.27017 0.226458 
3.47826 4.56028 0.248447 
3.90766 4.56185 0.247947 
2.21341 5.02127 0.257327 
2.19543 4.54447 0.257964 
1.07418 4.55748 0.218726 
0.92535 4.3357 0.228919 
3.63213 4.37816 0.259048 
1.14642 4.49511 0.247851 
0.771078 4.14213 0.248447 
0.569893 4.02944 0.246528 
4.6414 4.16122 0.247386 
4.34813 4.0182 0.24752 
-0.020914 4.17629 0.248447 
0.495424 4.01845 0.247344 
3.40552 4.02271 0.263949 
1.76051 4.01866 0.248447 
1.70671 4.49142 0.247607 
1.63788 3.99015 0.214721 
5.02747 3.91201 0.257808 
5.01142 3.43089 0.257968 
1.04886 3.94225 0.258739 
1.07206 3.45007 0.221801 
1.43845 3.45751 0.246123 
3.95031 3.46478 0.256625 
4.28582 3.40303 0.218886 
0.578136 2.85904 0.227289 
0.511063 3.00361 0.248446 
-0.066149 2.88224 0.247465 
3.96145 2.81402 0.257811 
5.02749 2.81402 0.257807 
4.61044 2.31687 0.219534 
4.34321 2.22417 0.216272 
3.95663 1.68349 0.248373 
3.95956 1.21575 0.248373 
0.534403 0.075871 0.247728 
-0.00065 0.056479 0.247801 
2.993 5.03719 0.248447 
2.99296 4.5609 0.24842 
5.03597 5.02149 0.247626 
5.01529 4.54551 0.248385 
4.28112 4.48162 0.244487 
3.96125 3.94328 0.258639 
1.13764 3.92297 0.247409 
1.32838 3.37351 0.248447 
0.568253 3.33863 0.247836 
1.06896 2.79457 0.246664 
1.05334 2.323 0.238829 
-0.066378 1.7653 0.248156 
0.512878 1.78524 0.248228 
4.59146 1.69876 0.254744 
4.0573 1.7048 0.22455 
5.02226 1.70202 0.257143 
0.825912 1.30583 0.250463 
-0.009531 1.24501 0.249521 
1.05763 1.22328 0.247961 
-0.04401 0.641326 0.248446 
0.000235 1.12033 0.248442 
3.96157 0.561697 0.247999 
5.0278 0.547734 0.248381 
5.02808 0.086012 0.246737 
-0.009727 5.03743 0.258616 
1.05755 5.03712 0.258411 
3.90766 5.03619 0.247958 
3.04884 5.03607 0.247947 
3.96941 5.10568 0.140079 
1.12868 4.58556 0.25534 
1.05754 4.56093 0.258411 
1.41309 4.57609 0.258258 
-0.009727 4.56062 0.258616 
3.95417 4.58568 0.247859 
0.582733 4.50997 0.246009 
2.4685 4.52122 0.217258 
3.34533 4.49185 0.248694 
0.501163 4.50032 0.224834 
1.28711 4.01813 0.248157 
-0.017668 3.90325 0.258712 
4.93741 3.93423 0.216113 
3.91363 3.92116 0.259456 
3.64517 3.33616 0.248447 
1.10043 2.90427 0.247831 
0.498795 2.26836 0.224783 
0.49332 2.263 0.248446 
4.99778 2.25579 0.248365 
4.98482 1.78344 0.24766 
4.34407 1.80306 0.24745 
1.0109 1.11985 0.248262 
0.562025 1.13234 0.216852 
0.580124 1.12035 0.248396 
4.35161 1.12036 0.248373 
4.99083 1.12035 0.248377 
0.496454 0.629614 0.224596 
1.04838 0.57722 0.240519 
1.14653 5.06164 0.257564 
2.26944 4.55876 0.24731 
2.44168 4.49178 0.247989 
3.06787 4.08463 0.249412 
3.34578 4.01731 0.247966 
1.70114 3.93245 0.242003 
3.19481 3.94176 0.25962 
-1.3e-05 3.42447 0.257815 
4.3746 3.43971 0.224223 
-0.066149 3.36264 0.247466 
0.51091 3.3608 0.248447 
4.9478 2.86874 0.216581 
1.05334 2.323 0.238829 
-0.086733 2.23858 0.248415 
1.0593 1.78984 0.242769 
0.581551 1.70833 0.224783 
-0.009243 1.69947 0.248728 
1.05751 1.69945 0.24872 
3.99457 1.14676 0.233664 
4.47599 1.2234 0.252623 
5.02545 1.22358 0.258677 
0.575775 0.642171 0.247328 
4.28604 0.635193 0.248446 
3.98014 0.657138 0.233568 
1.01118 0.645691 0.246668 
4.93505 0.582534 0.217043 
3.96082 0.085979 0.246767 
1.59545 5.0236 0.227298 
2.26946 5.03927 0.247329 
1.64761 4.47971 0.248111 
4.94693 4.49163 0.248385 
-0.020918 4.49115 0.248447 
4.94715 3.36082 0.248447 
4.34864 2.88406 0.248446 
-0.01115 2.35333 0.254763 
-0.017872 0.537917 0.24124 
4.01456 2.24577 0.258829 
1.06242 0.109229 0.2484 
3.52871 3.42583 0.138454 
3.14579 3.97284 0.133403 
3.06755 3.48079 0.125415 
3.97878 2.26448 0.12253 
3.93778 1.76696 0.106462 
2.48584 4.49822 0.11457 
2.25367 4.35967 0.114547 
3.06414 4.01775 0.114238 
1.81877 4.00074 0.087985 
1.71498 3.95978 0.120051 
1.50661 3.45041 0.112746 
3.60402 3.34416 0.113223 
1.34216 3.39818 0.103763 
3.89142 2.86556 0.112959 
2.20238 2.34563 0.112684 
3.91387 2.36336 0.120329 
3.40214 2.24166 0.127787 
3.93778 1.76696 0.106462 
2.48996 1.14442 0.122873 
3.3483 1.1078 0.12311 
3.95729 1.12634 0.11392 
3.35398 1.11181 0.087835 
1.15936 0.645658 0.113325 
1.68295 0.689762 0.119513 
2.02667 0.825069 0.111731 
3.93124 0.646529 0.11389 
1.1097 1.1105 0.113562 
1.64898 0.628232 0.085226 
3.39459 0.667593 0.113573 
2.47395 0.666722 0.123156 
3.91274 0.486913 0.113867 
1.07461 0.125417 0.087947 
2.21048 0.53957 0.104555 
3.95843 0.039692 0.131346 
2.48663 4.01748 0.112346 
2.97777 3.43951 0.112907 
2.25643 3.37805 0.080684 
3.33642 3.36184 0.112254 
2.48196 3.30302 0.106319 
2.43202 2.88181 0.1117 
1.70746 2.88369 0.113077 
1.13855 2.81386 0.111883 
2.98811 2.81424 0.080667 
3.14538 2.32658 0.110025 
2.98811 2.81424 0.080667 
2.75911 2.3207 0.112741 
2.20238 2.34563 0.112684 
1.13856 2.33273 0.111879 
2.96172 2.30978 0.11231 
2.48958 2.26022 0.113207 
3.34526 2.26029 0.112997 
1.69352 2.2803 0.080667 
1.0737 2.25856 0.114492 
1.70891 2.26022 0.113203 
1.70868 1.78256 0.113573 
1.08518 1.7673 0.114542 
2.4319 1.77998 0.112436 
2.2904 1.69851 0.113573 
2.99257 1.69895 0.113356 
2.26871 1.22353 0.112787 
3.94063 1.21093 0.080679 
3.04866 1.22373 0.111719 
3.04501 1.19221 0.080908 
2.20253 1.22263 0.113153 
1.13751 1.22375 0.111738 
1.67332 1.20909 0.088339 
1.71956 1.16741 0.110044 
2.4223 1.14286 0.113359 
2.21048 0.53957 0.104555 
3.06185 0.570895 0.113058 
3.04551 0.096018 0.113379 
2.28021 3.95682 0.106177 
3.00171 3.91621 0.115096 
1.63413 3.37463 0.113135 
2.43252 3.31831 0.11262 
3.3499 3.38478 0.080668 
3.40854 2.86022 0.112482 
1.65014 2.90129 0.112459 
3.34868 2.88843 0.110289 
2.47016 2.84116 0.080656 
1.64883 1.78938 0.105585 
3.35035 1.72537 0.080988 
2.48943 1.78258 0.113573 
3.04884 1.69862 0.11302 
1.13774 1.69901 0.113104 
2.20106 3.45012 0.111953 
1.70754 3.36112 0.113032 
2.26185 2.82496 0.113001 
2.20103 1.69947 0.111948 
2.41791 0.580661 0.080858 
1.64898 0.628232 0.085226 
2.99257 0.561693 0.113359 
2.4323 4.01808 0.112559 
2.20356 3.90272 0.113574 
2.20077 2.81419 0.110929 
2.86131 1.77782 0.088743 
2.20374 0.671626 0.120485 
2.19409 0.066949 0.110388 
2.26941 0.085233 0.112669 
-0.083567 3.65147 -0.163152 
2.9623 2.94731 -0.163618 
-0.083597 2.00948 -0.163153 
1.14072 3.46434 0.248366 
4.30467 0.612398 0.218706 
1.13301 2.88698 0.120493 
3 0 1 2
3 3 4 5
3 6 7 8
3 8 7 9
3 8 9 10
3 11 5 4
3 10 9 12
3 13 0 2
3 14 15 16
3 17 18 19
3 19 18 20
3 19 20 21
3 22 23 393
3 394 395 24
3 14 16 25
3 23 26 393
3 27 28 29
3 396 397 30
3 31 32 33
3 33 32 34
3 398 399 35
3 398 35 36
3 400 37 38
3 39 40 41
3 41 40 42
3 43 44 45
3 46 47 48
3 49 50 51
3 48 47 52
3 53 49 51
3 401 13 402
3 54 402 13
3 47 46 53
3 43 45 55
3 403 404 56
3 57 58 59
3 60 405 406
3 61 62 63
3 64 65 66
3 67 68 69
3 65 407 70
3 408 71 72
3 59 58 73
3 74 75 76
3 66 65 70
3 60 406 409
3 406 410 409
3 72 71 77
3 78 63 62
3 72 77 79
3 411 412 80
3 69 68 81
3 413 82 414
3 71 73 77
3 407 415 70
3 64 66 83
3 416 417 418
3 419 420 84
3 85 421 422
3 86 88 89
3 90 423 87
3 91 424 394
3 92 93 94
3 95 96 97
3 425 98 32
3 99 100 101
3 425 32 97
3 92 94 102
3 101 100 426
3 427 428 27
3 95 97 103
3 104 429 430
3 27 29 105
3 30 106 396
3 35 107 36
3 108 431 109
3 431 432 109
3 432 38 109
3 110 111 112
3 113 110 112
3 114 115 116
3 117 116 115
3 118 42 40
3 433 119 120
3 114 121 115
3 118 434 42
3 122 123 124
3 125 126 127
3 122 124 128
3 129 130 131
3 126 132 127
3 131 130 133
3 122 136 134
3 137 131 138
3 131 139 138
3 140 141 142
3 139 143 138
3 143 139 144
3 435 436 145
3 142 141 146
3 147 437 438
3 439 440 148
3 403 56 149
3 54 2 441
3 414 82 150
3 80 442 419
3 87 443 422
3 444 151 445
3 446 396 106
3 447 152 153
3 153 152 154
3 38 37 155
3 448 156 449
3 450 451 433
3 157 450 452
3 453 454 158
3 455 453 158
3 456 457 159
3 135 458 459
3 160 459 460
3 461 462 161
3 463 162 464
3 148 465 439
3 163 403 149
3 466 164 405
3 464 147 438
3 165 148 440
3 462 467 405
3 405 468 466
3 469 166 167
3 467 469 167
3 467 167 405
3 405 404 468
3 438 0 401
3 0 13 401
3 168 440 470
3 169 471 167
3 170 56 404
3 438 472 473
3 54 13 2
3 474 414 150
3 170 418 417
3 410 85 475
3 171 1 172
3 171 412 1
3 150 476 421
3 419 477 80
3 478 424 171
3 151 173 445
3 445 173 27
3 174 429 479
3 27 175 480
3 27 105 175
3 481 482 449
3 157 483 484
3 485 157 484
3 451 176 433
3 486 487 488
3 177 489 490
3 178 491 492
3 493 164 466
3 463 402 54
3 470 54 168
3 170 404 405
3 438 494 472
3 179 440 168
3 167 471 405
3 56 170 417
3 56 417 495
3 472 56 495
3 169 410 471
3 1 0 172
3 496 180 497
3 80 171 442
3 85 150 421
3 418 443 498
3 181 418 498
3 171 172 499
3 171 499 478
3 84 477 419
3 500 476 182
3 442 171 424
3 424 91 501
3 500 182 422
3 183 184 394
3 184 91 394
3 501 420 424
3 182 502 503
3 173 182 503
3 173 503 427
3 504 104 430
3 175 105 505
3 481 185 482
3 185 506 482
3 505 507 186
3 508 156 509
3 508 509 510
3 157 451 450
3 511 512 120
3 177 513 512
3 488 487 514
3 489 515 135
3 515 516 135
3 491 517 514
3 518 135 459
3 187 460 519
3 187 160 460
3 163 520 403
3 164 462 405
3 54 470 463
3 56 521 149
3 521 56 494
3 170 405 522
3 168 54 441
3 167 166 474
3 167 474 169
3 522 405 60
3 0 438 473
3 168 523 179
3 524 474 166
3 56 472 494
3 441 523 168
3 474 150 169
3 169 150 410
3 0 473 172
3 170 522 418
3 473 497 172
3 85 410 150
3 412 171 80
3 150 82 476
3 475 85 443
3 475 443 418
3 411 80 477
3 443 85 422
3 394 24 183
3 87 422 151
3 422 182 173
3 420 501 525
3 422 173 151
3 91 184 479
3 173 427 27
3 91 526 501
3 428 28 27
3 526 429 104
3 504 526 104
3 188 189 429
3 398 36 483
3 527 185 481
3 505 527 481
3 508 481 449
3 35 485 107
3 485 451 157
3 449 156 508
3 507 508 510
3 158 454 487
3 487 454 457
3 512 511 489
3 177 512 489
3 487 486 158
3 514 487 491
3 491 456 528
3 524 166 413
3 190 82 413
3 418 181 416
3 172 180 499
3 191 28 428
3 189 35 399
3 529 35 189
3 510 186 507
3 509 156 454
3 186 510 455
3 454 192 457
3 193 177 490
3 178 517 491
3 516 194 135
3 456 195 528
3 135 194 458
3 196 435 145
3 196 197 435
3 493 198 164
3 440 179 165
3 199 496 472
3 497 180 172
3 200 181 498
3 444 90 151
3 429 189 399
3 119 201 120
3 201 511 120
3 486 202 158
3 193 490 203
3 197 492 530
3 196 145 436
3 437 163 521
3 463 470 204
3 190 182 476
3 87 151 90
3 428 502 191
3 205 429 174
3 202 486 178
3 436 528 195
3 197 530 435
3 161 462 206
3 163 149 521
3 495 207 472
3 499 180 395
3 527 208 185
3 156 209 454
3 433 176 119
3 455 158 202
3 516 511 194
3 162 147 464
3 523 477 210
3 395 180 24
3 444 480 90
3 529 176 451
3 448 209 156
3 192 159 457
3 211 493 520
3 496 199 212
3 496 212 180
3 190 476 82
3 483 213 398
3 506 214 448
3 203 490 518
3 458 194 187
3 458 187 519
3 416 207 495
3 477 84 210
3 183 215 184
3 479 184 215
3 214 209 448
3 176 201 119
3 203 518 459
3 211 198 493
3 161 216 461
3 163 211 520
3 147 163 437
3 465 204 470
3 164 206 462
3 166 190 413
3 523 210 179
3 190 217 182
3 217 502 182
3 430 398 213
3 175 505 218
3 529 189 176
3 513 177 193
3 178 486 517
3 436 195 196
3 198 206 164
3 461 216 469
3 216 166 469
3 28 208 527
3 208 506 185
3 178 492 197
3 180 183 24
3 215 174 479
3 454 209 192
3 202 186 455
3 219 452 513
3 187 194 220
3 221 222 223
3 463 204 162
3 472 207 199
3 416 224 207
3 181 224 416
3 180 225 226
3 531 532 533
3 525 227 420
3 90 480 228
3 175 228 480
3 429 205 188
3 534 229 535
3 218 505 186
3 229 230 535
3 193 219 513
3 201 194 511
3 159 195 456
3 231 232 233
3 234 235 236
3 237 238 239
3 240 237 239
3 536 537 241
3 536 242 538
3 537 539 241
3 243 244 245
3 246 540 247
3 226 225 248
3 247 540 249
3 181 200 541
3 248 215 226
3 215 183 226
3 250 251 252
3 253 254 542
3 543 255 256
3 250 252 257
3 542 254 544
3 258 259 260
3 261 262 263
3 259 545 264
3 544 265 546
3 262 266 263
3 260 259 264
3 189 267 547
3 268 269 270
3 271 268 272
3 268 270 273
3 271 272 230
3 272 268 274
3 272 274 275
3 272 275 230
3 276 277 278
3 279 280 281
3 548 282 283
3 278 277 284
3 281 280 285
3 282 286 283
3 287 549 550
3 551 552 239
3 551 239 288
3 202 178 289
3 178 553 289
3 290 554 555
3 290 555 234
3 194 201 556
3 291 557 221
3 234 555 235
3 291 221 558
3 292 559 560
3 223 293 221
3 561 294 295
3 296 297 295
3 178 197 562
3 296 563 297
3 564 561 295
3 565 298 212
3 245 244 299
3 566 567 300
3 227 525 504
3 301 300 302
3 568 569 303
3 303 569 304
3 305 570 571
3 306 307 191
3 307 28 191
3 175 572 228
3 254 573 265
3 254 265 544
3 574 575 308
3 309 576 577
3 267 188 574
3 578 310 577
3 576 308 579
3 308 580 581
3 582 583 311
3 584 310 585
3 311 583 586
3 312 587 585
3 313 588 589
3 590 588 314
3 176 591 201
3 592 315 593
3 594 595 596
3 591 592 593
3 316 597 598
3 287 317 549
3 550 559 287
3 233 553 599
3 600 292 601
3 318 187 601
3 199 319 565
3 298 180 212
3 602 603 319
3 200 604 320
3 300 567 605
3 606 321 607
3 322 604 608
3 609 610 575
3 572 175 218
3 189 188 323
3 308 267 574
3 309 584 580
3 312 310 611
3 547 267 612
3 580 313 613
3 611 186 312
3 324 186 202
3 313 314 588
3 614 315 592
3 615 324 595
3 314 316 590
3 597 596 232
3 232 596 233
3 194 556 220
3 600 220 325
3 556 325 220
3 319 298 565
3 298 225 180
3 603 298 319
3 298 603 248
3 225 298 248
3 248 603 566
3 320 616 541
3 617 605 567
3 302 300 610
3 301 609 606
3 609 321 606
3 300 605 610
3 617 322 571
3 610 605 570
3 320 604 322
3 608 228 572
3 571 322 305
3 570 305 610
3 575 321 609
3 610 305 618
3 28 307 208
3 610 618 575
3 618 305 577
3 575 579 308
3 310 309 577
3 576 309 308
3 309 310 584
3 267 308 581
3 323 267 189
3 310 312 585
3 267 581 612
3 324 312 186
3 312 324 615
3 312 615 619
3 612 614 176
3 192 209 326
3 595 324 289
3 596 597 316
3 317 316 598
3 317 598 620
3 549 317 560
3 235 555 621
3 292 325 559
3 620 233 599
3 292 620 622
3 292 622 601
3 553 178 562
3 199 623 319
3 623 224 602
3 623 602 319
3 181 624 224
3 624 602 224
3 624 616 602
3 616 567 602
3 215 248 606
3 320 541 200
3 616 320 617
3 616 617 567
3 566 300 606
3 248 566 606
3 300 301 606
3 215 606 174
3 617 320 322
3 608 572 322
3 572 625 322
3 625 305 322
3 575 607 321
3 625 577 305
3 572 218 578
3 309 580 308
3 323 188 267
3 578 218 310
3 580 587 313
3 587 312 314
3 587 314 313
3 613 313 315
3 626 613 315
3 626 315 612
3 452 327 157
3 314 312 619
3 313 589 315
3 614 612 315
3 619 594 314
3 589 593 315
3 594 316 314
3 324 202 289
3 594 596 316
3 590 316 317
3 590 317 593
3 593 287 591
3 595 289 596
3 317 287 593
3 201 591 287
3 317 620 560
3 159 328 195
3 620 627 233
3 560 620 292
3 600 325 292
3 559 325 556
3 599 622 620
3 628 629 599
3 318 160 187
3 148 329 465
3 502 330 191
3 327 452 219
3 331 163 147
3 332 165 179
3 217 330 502
3 483 157 333
3 628 562 334
3 331 147 162
3 335 506 208
3 483 336 213
3 162 204 337
3 465 337 204
3 333 157 327
3 628 338 629
3 338 628 334
3 339 163 331
3 191 330 306
3 329 340 465
3 148 165 332
3 341 179 210
3 195 328 196
3 629 342 601
3 342 318 601
3 179 341 332
3 336 483 333
3 214 343 209
3 339 344 211
3 465 340 337
3 306 345 307
3 333 327 219
3 209 343 326
3 328 346 196
3 347 334 562
3 348 216 161
3 339 211 163
3 198 349 206
3 350 329 148
3 190 351 217
3 208 307 335
3 216 352 166
3 84 353 210
3 335 354 506
3 193 355 219
3 159 356 328
3 326 159 192
3 357 160 318
3 344 198 211
3 562 197 347
3 349 161 206
3 84 420 227
3 217 351 330
3 430 358 504
3 357 359 160
3 328 360 346
3 359 459 160
3 361 357 318
3 84 227 353
3 358 430 213
3 326 356 159
3 338 334 362
3 363 339 331
3 337 363 331
3 337 331 162
3 307 345 335
3 356 360 328
3 196 347 197
3 344 349 198
3 166 364 190
3 341 210 353
3 227 504 358
3 506 354 214
3 355 193 203
3 361 318 342
3 346 347 196
3 362 334 347
3 352 216 348
3 349 348 161
3 350 148 332
3 166 352 365
3 166 365 364
3 333 219 355
3 203 459 359
3 338 342 629
3 340 329 337
3 363 366 339
3 367 363 337
3 350 332 341
3 190 364 351
3 330 351 345
3 358 368 227
3 330 345 306
3 358 213 336
3 354 335 343
3 369 336 333
3 369 333 370
3 354 343 214
3 326 343 356
3 356 371 360
3 372 355 203
3 373 361 342
3 373 374 361
3 374 375 357
3 338 373 342
3 374 357 361
3 375 359 357
3 366 344 339
3 376 337 329
3 350 376 329
3 365 377 364
3 378 341 353
3 353 227 368
3 379 368 358
3 345 380 335
3 369 358 336
3 335 380 343
3 370 333 372
3 333 355 372
3 343 371 356
3 203 359 381
3 374 381 375
3 381 359 375
3 347 382 362
3 348 349 383
3 349 344 383
3 367 337 376
3 350 341 378
3 351 364 377
3 351 377 345
3 384 369 370
3 370 372 385
3 386 346 360
3 372 203 385
3 385 203 381
3 386 347 346
3 386 382 347
3 382 338 362
3 383 352 348
3 352 377 365
3 387 378 353
3 387 353 368
3 345 377 380
3 379 358 369
3 379 369 384
3 343 380 371
3 360 371 386
3 382 373 338
3 373 381 374
3 383 344 366
3 366 363 367
3 376 350 378
3 384 370 385
3 352 383 377
3 376 388 367
3 388 376 378
3 388 378 387
3 388 387 389
3 377 383 366
3 388 389 367
3 387 368 389
3 389 368 390
3 390 368 379
3 389 390 367
3 366 367 391
3 377 366 391
3 630 631 632
3 390 379 392
3 392 379 384
3 390 392 367
3 392 391 367
3 391 392 373
3 380 391 371
3 373 382 391
3 392 384 385
3 373 392 385
3 371 391 386
3 391 382 386
3 385 381 373
3 498 423 200
3 200 423 90
3 86 633 88
3 122 634 136
3 543 635 255
3 200 90 604
