ply
format ascii 1.0
comment INFO-3111 Flatenator generated
comment TextureFile Dungeons_Texture_01.png
element vertex 54
property float x
property float y
property float z
element face 104
property list uchar int vertex_indices
end_header
0 -0.201822 0 
0.169054 -0.201822 0.085383 
0.161499 -0.201822 0.16221 
0.081148 -0.201822 0.166552 
0.169319 -0.114131 0.201116 
0.163002 0.158822 0.201822 
0 0.163704 0.201822 
0 0 0.201822 
-0.201822 0.162214 0.161912 
-0.201822 0.159368 -0.11571 
-0.201822 0 0 
-0.201822 0.092739 0.180955 
0.201818 0 0 
0.201818 0.180956 0 
0.201818 0.154493 0.169432 
0.201818 0 0.180955 
0.180956 0.201822 0.180955 
0.180956 0.201822 0 
0 0.201822 0 
-0.058468 0.201822 0.161552 
0.180956 0.180956 -0.201821 
0.170975 0.116557 -0.201821 
0 0 -0.201821 
0.000563 0.166088 -0.201821 
-0.180956 -0.201822 0.180955 
-0.201822 -0.180956 0.180955 
-0.201822 -0.161853 0.094913 
-0.164732 -0.201822 0.089715 
0.096874 -0.168759 0.201822 
0.180956 -0.180956 0.201822 
-0.171751 0.116174 0.201822 
-0.180956 0.180956 0.201822 
0.201818 -0.180956 0.180955 
0.201818 -0.154328 0.087344 
-0.180956 0.201822 0.180955 
-0.180956 0.201822 -0.080774 
-0.201822 0.180956 -0.180955 
-0.180956 0.180956 -0.201821 
-0.180956 -0.072939 -0.201821 
-0.201822 -0.100223 -0.168447 
0.0993 0.201822 -0.156612 
0.180956 0.201822 -0.180955 
0.201818 0.180956 -0.180955 
0.201818 0.007032 -0.157717 
0 -0.201822 -0.180955 
-0.028217 -0.163123 -0.201821 
0.159979 -0.156681 -0.201821 
0.180956 -0.201822 -0.180955 
-0.180956 -0.180956 0.201822 
-0.180956 0.201822 -0.180955 
-0.180956 -0.201822 -0.180955 
-0.201822 -0.180956 -0.180955 
-0.180956 -0.180956 -0.201821 
0.201818 -0.180956 -0.180955 
3 1 3 0
3 5 7 4
3 8 10 11
3 12 14 15
3 16 18 19
3 21 23 20
3 24 26 27
3 28 2 29
3 30 8 11
3 2 33 32
3 15 5 4
3 8 35 9
3 6 16 19
3 14 17 16
3 36 38 39
3 40 20 23
3 42 21 20
3 44 46 47
3 25 24 48
3 2 32 29
3 34 8 31
3 14 16 5
3 37 36 49
3 42 20 41
3 50 51 52
3 53 47 46
3 19 35 34
3 31 19 34
3 6 30 7
3 48 3 28
3 27 3 24
3 50 45 44
3 22 37 23
3 49 23 37
3 17 40 18
3 18 49 35
3 9 49 36
3 9 39 10
3 27 51 50
3 50 0 27
3 47 0 44
3 1 53 33
3 43 13 12
3 13 41 17
3 33 15 32
3 53 12 33
3 43 46 21
3 22 46 45
3 38 45 52
3 39 52 51
3 26 39 51
3 11 26 25
3 48 11 25
3 7 48 28
3 4 28 29
3 32 4 29
3 1 2 3
3 5 6 7
3 8 9 10
3 12 13 14
3 16 17 18
3 21 22 23
3 24 25 26
3 28 3 2
3 30 31 8
3 2 1 33
3 15 14 5
3 8 34 35
3 6 5 16
3 14 13 17
3 36 37 38
3 40 41 20
3 42 43 21
3 44 45 46
3 19 18 35
3 31 6 19
3 6 31 30
3 48 24 3
3 27 0 3
3 50 52 45
3 22 38 37
3 49 40 23
3 17 41 40
3 18 40 49
3 9 35 49
3 9 36 39
3 27 26 51
3 50 44 0
3 47 1 0
3 1 47 53
3 43 42 13
3 13 42 41
3 33 12 15
3 53 43 12
3 43 53 46
3 22 21 46
3 38 22 45
3 39 38 52
3 26 10 39
3 11 10 26
3 48 30 11
3 7 30 48
3 4 7 28
3 32 15 4
