ply
format ascii 1.0
comment INFO-3111 Flatenator generated
comment TextureFile Dungeons_Texture_01.png
element vertex 98
property float x
property float y
property float z
element face 100
property list uchar int vertex_indices
end_header
0.071259 0.438458 0.128567 
0.040997 0.435621 0.142195 
0.074478 0.399978 0.129423 
-0.12138 0.435451 0.141905 
-0.119801 0.356805 0.141638 
0.069717 0.364278 0.145819 
-0.091553 0.439836 0.011826 
0.126511 0.364296 0.118755 
0.111439 0.323025 0.149992 
-0.090942 0.235067 0.127161 
0.12294 0.226376 0.126482 
-0.126404 0.25007 0.098917 
0.120277 0.413276 0.075876 
0.126602 0.217558 0.109428 
-0.124039 0.417284 0.034401 
-0.126587 0.384698 -0.007559 
-0.126587 0.194783 0.04664 
-0.090912 0.144343 0.103302 
0.123585 0.102817 0.090153 
0.088619 0.435775 0.069723 
-0.121857 0.135132 0.084213 
-0.111313 0.040629 0.073446 
0.12352 0.439878 0.000809 
-0.126598 0.039912 0.057482 
-0.006756 0.0275 0.06975 
0.124901 0 0.059563 
-0.124783 0 0.059563 
-0.006935 0 0.059574 
0.049809 0.007751 0.054424 
0.015877 0.002028 0.013748 
0.124413 0 -0.175972 
-0.090481 0.435525 -0.047089 
-0.126495 0.006461 -0.038052 
0.119415 0.422083 -0.159247 
-0.016415 0 -0.091396 
-0.101147 0.001784 -0.1104 
-0.123512 0.439894 -0.105736 
0.107986 0.432611 -0.160177 
0.126472 0.3568 -0.175658 
0.028282 0.439432 -0.188033 
-0.116219 0.020529 -0.163109 
-0.126534 0.136863 -0.177733 
0.123489 0.103099 -0.186997 
0.111862 0 -0.187501 
-0.121029 0.055722 -0.186706 
-0.047852 0 -0.187518 
-0.123444 0.439438 -0.18798 
-0.123234 0.274384 -0.187209 
0.090527 0.424626 -0.186451 
-0.111729 0.206202 -0.188033 
0.059372 0.185583 -0.188033 
-0.006268 0.103099 -0.185899 
0.040997 0.435621 0.142195 
0.071259 0.438458 0.128567 
0.069717 0.364278 0.145819 
0.12294 0.226376 0.126482 
0.111439 0.323025 0.149992 
-0.090942 0.235067 0.127161 
-0.119801 0.356805 0.141638 
-0.126404 0.25007 0.098917 
-0.12138 0.435451 0.141905 
-0.091553 0.439836 0.011826 
0.123585 0.102817 0.090153 
-0.124039 0.417284 0.034401 
-0.090912 0.144343 0.103302 
0.088619 0.435775 0.069723 
0.120277 0.413276 0.075876 
0.126511 0.364296 0.118755 
-0.126587 0.194783 0.04664 
-0.111313 0.040629 0.073446 
-0.006756 0.0275 0.06975 
0.124901 0 0.059563 
0.12352 0.439878 0.000809 
-0.124783 0 0.059563 
-0.006935 0 0.059574 
0.126602 0.217558 0.109428 
-0.126598 0.039912 0.057482 
-0.121857 0.135132 0.084213 
-0.126587 0.384698 -0.007559 
0.015877 0.002028 0.013748 
-0.126495 0.006461 -0.038052 
-0.101147 0.001784 -0.1104 
0.119415 0.422083 -0.159247 
-0.090481 0.435525 -0.047089 
-0.116219 0.020529 -0.163109 
-0.123512 0.439894 -0.105736 
0.107986 0.432611 -0.160177 
-0.126534 0.136863 -0.177733 
-0.047852 0 -0.187518 
0.028282 0.439432 -0.188033 
0.123489 0.103099 -0.186997 
0.124413 0 -0.175972 
0.111862 0 -0.187501 
0.090527 0.424626 -0.186451 
0.126472 0.3568 -0.175658 
-0.123234 0.274384 -0.187209 
-0.111729 0.206202 -0.188033 
-0.121029 0.055722 -0.186706 
3 0 1 2
3 3 4 5
3 52 3 5
3 53 3 52
3 1 54 2
3 6 3 53
3 2 54 7
3 7 54 8
3 5 4 9
3 5 9 10
3 7 8 55
3 56 5 10
3 3 11 4
3 57 58 59
3 12 0 2
3 12 2 7
3 13 7 55
3 60 61 14
3 3 15 11
3 57 16 17
3 10 9 18
3 59 16 57
3 13 55 62
3 12 19 0
3 63 15 3
3 17 20 21
3 9 64 18
3 65 6 53
3 22 66 67
3 11 15 68
3 20 23 21
3 18 64 24
3 18 24 25
3 69 26 24
3 64 69 24
3 70 27 28
3 71 70 28
3 19 12 72
3 21 23 73
3 24 26 74
3 28 27 29
3 17 16 20
3 75 18 30
3 30 18 25
3 29 71 28
3 68 76 77
3 14 31 78
3 15 76 68
3 61 31 14
3 76 32 26
3 22 6 65
3 33 22 67
3 26 34 74
3 35 34 26
3 34 79 74
3 80 81 73
3 79 30 25
3 31 36 78
3 37 72 82
3 33 67 38
3 38 67 75
3 22 39 6
3 6 39 83
3 76 40 32
3 80 84 81
3 39 85 83
3 86 39 22
3 41 40 76
3 34 30 79
3 75 30 42
3 43 30 34
3 87 44 84
3 35 45 34
3 85 46 15
3 84 88 81
3 42 38 75
3 15 41 76
3 46 85 39
3 48 89 37
3 15 46 47
3 82 48 37
3 90 91 92
3 45 43 34
3 93 47 39
3 48 82 94
3 46 39 47
3 47 93 49
3 48 94 90
3 95 96 87
3 49 93 50
3 49 50 51
3 93 42 50
3 87 96 44
3 51 50 45
3 49 51 97
3 45 50 43
3 50 42 43
3 97 51 45
3 44 88 84
3 15 47 41
