ply
format ascii 1.0
comment VCGLIB generated
comment TextureFile Dungeons_Texture_01.png
element vertex 186
property float x
property float y
property float z
property float nx
property float ny
property float nz
property uchar red
property uchar green
property uchar blue
property uchar alpha
property float texture_u
property float texture_v
element face 214
property list uchar int vertex_indices
end_header
1.543874 1.504319 0.150511 -0.197678 -0.2005783 0.9595269 106 103 98 255 0.223676 0.294369
3.255671 1.450679 0.150511 0.1241489 -0.1699166 0.977607 97 95 95 255 0.200041 0.278032
2.710375 2.373173 0.128465 0.1774069 -0.2252519 0.9580128 106 103 98 255 0.223676 0.294369
1.449808 2.445486 0.128465 -0.3389464 -0.3672979 0.8661453 106 103 98 255 0.223676 0.294369
3.559188 4.871531 2.554469 0.3237312 -0.8769921 0.3550817 106 103 98 255 0.223676 0.294369
3.554461 4.849483 3.65317 0.1979998 -0.9513324 0.2361412 97 95 95 255 0.200041 0.278032
1.439441 4.849483 3.692265 -0.1874901 -0.9382333 0.2908021 106 103 98 255 0.223676 0.294369
1.423612 4.8623 3.030764 -0.3290006 -0.9169635 -0.2256915 106 103 98 255 0.223676 0.294369
2.11517 4.871531 2.554469 -0.1605925 -0.9422514 0.293892 106 103 98 255 0.223676 0.294369
2.286519 4.254341 1.971656 -0.300776 -0.7021139 0.6454223 106 103 98 255 0.223676 0.294369
3.534536 4.250121 1.967435 0.3077915 -0.6613511 0.6840169 106 103 98 255 0.223676 0.294369
0 0 -4e-06 0 0 1 97 95 95 255 0.200041 0.278032
5 0 -4e-06 0 0 1 97 95 95 255 0.200041 0.278032
4.817299 0.132463 -4e-06 0.1099866 -0.1081237 0.9880345 97 95 95 255 0.200041 0.278032
0.213177 0.161493 -4e-06 -0.1102233 -0.1155737 0.9871644 97 95 95 255 0.200041 0.278032
5 2.5 -4e-06 -1.779397e-07 -0.3826839 0.9238794 97 95 95 255 0.200041 0.278032
4.786819 2.5 -4e-06 0.4585677 -0.3386514 0.8216026 97 95 95 255 0.200041 0.278032
4.810196 0.684173 -4e-06 0.0786221 -0.1108873 0.9907182 97 95 95 255 0.200041 0.278032
0 2.5 -4e-06 0 -0.3826846 0.9238791 97 95 95 255 0.200041 0.278032
0.138424 2.5 -4e-06 -0.2247931 -0.3867618 0.894362 97 95 95 255 0.200041 0.278032
4.999998 5 2.499999 5.465271e-07 -0.9238793 0.3826841 97 95 95 255 0.200041 0.278032
4.999998 4.999999 4.999999 1.874941e-07 -1 -1.963156e-07 97 95 95 255 0.200041 0.278032
4.786819 4.999999 4.796399 0.1577565 -0.9737992 0.1637931 97 95 95 255 0.200041 0.278032
4.786818 5 2.499999 0.4584438 -0.8214605 0.3391637 97 95 95 255 0.200041 0.278032
0 4.999999 4.999999 -1.814857e-07 -1 -2.061887e-07 97 95 95 255 0.200041 0.278032
0.277094 4.999999 4.756103 -0.1340733 -0.9792901 0.1517078 97 95 95 255 0.200041 0.278032
0 5 2.499999 -1.413752e-08 -0.9238794 0.3826839 97 95 95 255 0.200041 0.278032
0.213179 5 2.499999 -0.4562572 -0.8225265 0.3395284 97 95 95 255 0.200041 0.278032
0 4.370338 1.870339 2.265414e-06 -0.7071067 0.7071069 97 95 95 255 0.200041 0.278032
0.248787 4.369878 1.869878 -0.3232305 -0.6788775 0.659278 97 95 95 255 0.200041 0.278032
5 3.576357 1.076356 -3.116022e-06 -0.707108 0.7071057 97 95 95 255 0.200041 0.278032
4.786819 3.56515 1.065148 0.2777188 -0.6664544 0.6918893 97 95 95 255 0.200041 0.278032
4.661808 0.268682 0.149815 0.3156643 -0.1993036 0.9277037 97 95 95 255 0.200041 0.278032
0.670776 0.406365 0.149815 -0.03008444 -0.2629818 0.9643316 97 95 95 255 0.200041 0.278032
0.234333 0.180809 0.040741 -0.4617949 -0.5464612 0.69866 97 95 95 255 0.200041 0.278032
4.682299 0.966762 0.14155 0.2532394 -0.1930659 0.9479427 97 95 95 255 0.200729 0.279229
4.760864 2.482327 0.042664 0.7722567 -0.2350534 0.5902283 97 95 95 255 0.200041 0.278032
4.70903 2.155016 0.130768 0.4852519 0.02975063 0.8738682 97 95 95 255 0.200041 0.278032
0.432808 0.618039 0.147717 -0.2414595 -0.0512938 0.9690543 97 95 95 255 0.200041 0.278032
0.290966 1.655659 0.135716 -0.4031004 0.002140695 0.9151533 97 95 95 255 0.200041 0.278032
4.746445 4.92224 4.748105 0.500454 -0.7315456 0.4630193 97 95 95 255 0.200041 0.278032
4.492342 4.85018 4.703349 0.04372954 -0.8747392 0.4826169 97 95 95 255 0.200041 0.278032
4.709032 4.852747 4.451778 0.51477 -0.8568801 0.02772135 97 95 95 255 0.200041 0.278032
4.70903 4.288874 1.96972 0.5000765 -0.6318662 0.5921729 97 95 95 255 0.200041 0.278032
4.786819 4.358997 1.858998 0.4697974 -0.644801 0.602928 97 95 95 255 0.200041 0.278032
4.709032 4.87212 2.552966 0.5691754 -0.7617714 0.3094249 97 95 95 255 0.200041 0.278032
2.081127 0.931736 0.149815 0.02766733 0.1567425 0.9872519 120 120 119 255 0.197903 0.304397
3.937767 1.486614 0.146513 -0.486886 -0.09407276 0.868385 97 95 95 255 0.200041 0.278032
4.595818 2.447031 0.127876 0.1969056 -0.3477394 0.9166818 120 120 119 255 0.197903 0.304397
3.937767 2.50448 0.127876 -0.5198174 -0.3757739 0.7671922 120 120 119 255 0.197903 0.304397
0.527795 2.362113 0.127876 -0.1328403 -0.2894504 0.9479304 120 120 119 255 0.197903 0.304397
1.150116 1.106296 0.149815 0.1416497 0.1567271 0.9774314 120 120 119 255 0.197903 0.304397
1.062229 2.447031 0.127876 0.4118209 -0.3476578 0.8423406 120 120 119 255 0.197903 0.304397
0.407021 4.872121 2.552966 -0.1466385 -0.9180219 0.3684195 97 95 95 255 0.200041 0.278032
0.290966 4.870306 2.730767 -0.5092376 -0.8601163 -0.02961413 97 95 95 255 0.200041 0.278032
0.251785 4.936532 2.526286 -0.7621608 -0.6011369 0.2403025 97 95 95 255 0.200041 0.278032
0.290966 4.713775 2.39462 -0.5174802 -0.6068459 0.6032847 97 95 95 255 0.200041 0.278032
4.70903 2.740068 0.420914 0.4752065 -0.6299719 0.6142591 120 120 119 255 0.197903 0.304397
4.570862 3.511295 1.19214 0.2565339 -0.6754248 0.6913695 120 120 119 255 0.197903 0.304397
3.937767 3.482951 1.163796 -0.4191054 -0.6568595 0.6268065 120 120 119 255 0.197903 0.304397
1.267662 1.231205 -0.016209 0.2798257 0.2806214 0.9181226 97 95 95 255 0.200041 0.278032
2.264107 1.123543 0.060394 -0.007430745 0.600307 0.7997351 97 95 95 255 0.200041 0.278032
3.847599 1.163582 -0.016209 0.00753311 0.3181154 0.9480221 97 95 95 255 0.200041 0.278032
3.847599 2.504612 -0.01384 -0.1790577 -0.3527152 0.9184391 97 95 95 255 0.200041 0.278032
1.223309 2.504612 -0.01384 0.08356018 -0.3841614 0.9194769 97 95 95 255 0.200041 0.278032
3.937769 4.87212 2.552966 -0.4296084 -0.8278853 0.3606144 97 95 95 255 0.200041 0.278032
3.937769 4.850181 3.94974 -0.174231 -0.9685569 -0.177598 120 120 119 255 0.197903 0.304397
3.847599 5.016201 3.875028 -0.3289883 -0.866649 -0.3750816 97 95 95 255 0.200041 0.278032
3.787632 5.013834 2.495366 -0.08677371 -0.9187891 0.3850933 97 95 95 255 0.200041 0.278032
1.217606 4.850181 3.986505 -0.007732617 -0.8832992 -0.468746 97 95 95 255 0.200041 0.278032
1.128443 4.972095 3.894877 0.4707875 -0.7446526 -0.4731296 97 95 95 255 0.200041 0.278032
1.152397 5.016201 3.875028 0.3405775 -0.885751 -0.3153603 97 95 95 255 0.200041 0.278032
1.062229 4.852466 3.566104 0.4910336 -0.8708507 0.02247476 97 95 95 255 0.200041 0.278032
1.166746 5.014853 3.089632 0.2551274 -0.9655621 -0.05098858 97 95 95 255 0.200041 0.278032
1.062229 4.87212 2.552966 0.5024388 -0.7992271 0.3298353 97 95 95 255 0.200041 0.278032
1.062229 4.298062 1.97891 0.4349757 -0.6296527 0.6436875 120 120 119 255 0.197903 0.304397
1.171774 4.375202 1.85674 0.1649466 -0.6892931 0.7054557 97 95 95 255 0.200041 0.278032
1.177603 5.013834 2.495366 0.1439671 -0.9138761 0.3796104 97 95 95 255 0.200041 0.278032
3.823074 3.530794 1.012338 -0.1388063 -0.7069548 0.6935039 97 95 95 255 0.200041 0.278032
0.354881 4.85018 4.619428 -0.4241518 -0.8505218 0.3109791 97 95 95 255 0.200041 0.278032
0.434805 4.299341 1.980187 -0.2642577 -0.696218 0.6674192 97 95 95 255 0.200041 0.278032
0.895172 4.850181 4.019185 0.05809905 -0.9970693 -0.04977353 120 120 119 255 0.197903 0.304397
1.692295 1.076801 0.149815 0.02869533 0.4284719 0.9030994 97 95 95 255 0.200041 0.278032
2.85667 1.076801 0.149815 -0.005168564 0.5180256 0.8553496 97 95 95 255 0.200041 0.278032
3.801595 1.076801 0.149815 0.1422454 0.5292324 0.8364684 97 95 95 255 0.200041 0.278032
2.677508 3.34385 1.061171 -0.1898338 -0.7584473 0.6234748 106 103 98 255 0.223676 0.294369
3.588342 3.412906 1.130227 0.3073771 -0.6710307 0.6747127 106 103 98 255 0.223676 0.294369
0 3.313523 0.813523 4.298802e-06 -0.7071077 0.7071059 97 95 95 255 0.200041 0.278032
0.163006 3.322092 0.822091 -0.3791956 -0.6477051 0.6608245 97 95 95 255 0.200041 0.278032
5 4.358492 1.858491 6.646861e-06 -0.7071067 0.7071068 97 95 95 255 0.200041 0.278032
3.86619 4.290151 1.970996 -0.4593751 -0.6212425 0.6348483 120 120 119 255 0.197903 0.304397
1.134983 3.307397 0.988244 0.4197184 -0.6381444 0.6454519 97 95 95 255 0.200041 0.278032
1.262634 3.371112 0.852655 0.07198644 -0.7147388 0.695677 97 95 95 255 0.200041 0.278032
3.757664 4.36801 1.849546 -0.1139016 -0.694891 0.7100373 97 95 95 255 0.200041 0.278032
0.290966 3.279053 0.959897 -0.3928219 -0.6397332 0.6606303 97 95 95 255 0.200041 0.278032
3.608513 2.445486 0.128465 0.1612885 -0.4710739 0.8672228 106 103 98 255 0.223676 0.294369
0.290966 2.873811 0.554655 -0.3684756 -0.6500786 0.6645477 97 95 95 255 0.200041 0.278032
1.40742 4.257314 1.974629 -0.308259 -0.6693049 0.6760232 97 95 95 255 0.200041 0.278032
1.412214 4.871531 2.554469 -0.09357294 -0.8195141 0.5653679 97 95 95 255 0.200041 0.278032
1.48216 3.253223 0.970544 -0.3107225 -0.6818475 0.6622201 97 95 95 255 0.200041 0.278032
1.418448 5.01233 2.815009 0.009299103 -0.9995182 -0.02961282 97 95 95 255 0.200041 0.278032
1.74707 5.017378 2.554469 -0.0764279 -0.9715607 0.2241178 97 95 95 255 0.199511 0.279839
1.816144 4.255931 1.973247 0.3180023 -0.6288952 0.7094826 106 103 98 255 0.223676 0.294369
3.156063 2.445486 -0.02235 0.03164041 -0.3479703 0.9369715 97 95 95 255 0.199511 0.279839
3.534381 1.891212 -0.010067 -0.0640391 -0.01582834 0.9978219 97 95 95 255 0.199511 0.279839
2.234442 3.46818 0.946737 0.06393856 -0.6909731 0.7200473 97 95 95 255 0.199511 0.279839
2.044674 4.41308 1.891632 -0.02462363 -0.712791 0.7009442 97 95 95 255 0.199511 0.279839
2.043177 3.36956 0.975298 0.3307837 -0.5853156 0.740262 97 95 95 255 0.199511 0.279839
1.854384 3.627741 1.345059 0.2397946 -0.6726658 0.7000137 97 95 95 255 0.199511 0.279839
1.758021 3.274138 0.991459 0.08803267 -0.6927164 0.7158172 97 95 95 255 0.199511 0.279839
2.117329 3.040338 0.747706 0.1674546 -0.6007455 0.7817057 97 95 95 255 0.199511 0.279839
4.021513 1.091878 -0.015275 0.09074873 0.07660972 0.9929228 97 95 95 255 0.200041 0.278032
4.670338 0.609404 -0.017143 0.1143081 0.04426284 0.9924588 97 95 95 255 0.200041 0.278032
4.815085 0.304413 -4e-06 0.3090015 0.08364046 0.9473766 97 95 95 255 0.200041 0.278032
0.670776 0.406365 0.149815 -0.03008444 -0.2629818 0.9643316 120 120 119 255 0.197903 0.304397
4.661808 0.268682 0.149815 0.3156643 -0.1993036 0.9277037 120 120 119 255 0.197903 0.304397
4.70903 2.155016 0.130768 0.4852519 0.02975063 0.8738682 120 120 119 255 0.197903 0.304397
0.290966 1.655659 0.135716 -0.4031004 0.002140695 0.9151533 120 120 119 255 0.197903 0.304397
1.062229 2.447031 0.127876 0.4118209 -0.3476578 0.8423406 97 95 95 255 0.200041 0.278032
3.937767 2.50448 0.127876 -0.5198174 -0.3757739 0.7671922 97 95 95 255 0.200041 0.278032
0.290966 4.713775 2.39462 -0.5174802 -0.6068459 0.6032847 120 120 119 255 0.197903 0.304397
1.062229 4.87212 2.552966 0.5024388 -0.7992271 0.3298353 120 120 119 255 0.197903 0.304397
1.062229 4.852466 3.566104 0.4910336 -0.8708507 0.02247476 120 120 119 255 0.197903 0.304397
0.290966 4.870306 2.730767 -0.5092376 -0.8601163 -0.02961413 120 120 119 255 0.197903 0.304397
0.895172 4.850181 4.019185 0.05809905 -0.9970693 -0.04977353 97 95 95 255 0.200041 0.278032
0.354881 4.85018 4.619428 -0.4241518 -0.8505217 0.3109791 120 120 119 255 0.197903 0.304397
1.217606 4.850181 3.986505 -0.007732617 -0.8832992 -0.468746 120 120 119 255 0.197903 0.304397
4.709032 4.87212 2.552966 0.5691754 -0.7617714 0.3094249 120 120 119 255 0.197903 0.304397
3.937769 4.87212 2.552966 -0.4296084 -0.8278853 0.3606144 120 120 119 255 0.197903 0.304397
4.70903 2.740068 0.420914 0.4752065 -0.6299719 0.6142591 97 95 95 255 0.200041 0.278032
4.595818 2.447031 0.127876 0.1969056 -0.3477394 0.9166818 97 95 95 255 0.200041 0.278032
2.081127 0.931736 0.149815 0.02766733 0.1567425 0.9872519 97 95 95 255 0.200041 0.278032
1.150116 1.106296 0.149815 0.1416497 0.1567271 0.9774314 97 95 95 255 0.200041 0.278032
2.85667 1.076801 0.149815 -0.005168564 0.5180256 0.8553496 120 120 119 255 0.197903 0.304397
1.692295 1.076801 0.149815 0.02869533 0.4284719 0.9030994 120 120 119 255 0.197903 0.304397
4.709032 4.852747 4.451778 0.51477 -0.8568801 0.02772135 120 120 119 255 0.197903 0.304397
4.492342 4.85018 4.703349 0.04372954 -0.8747392 0.4826169 120 120 119 255 0.197903 0.304397
4.70903 4.288874 1.96972 0.5000765 -0.6318662 0.5921729 120 120 119 255 0.197903 0.304397
0.434805 4.299341 1.980187 -0.2642577 -0.696218 0.6674192 120 120 119 255 0.197903 0.304397
1.134983 3.307397 0.988244 0.4197184 -0.6381444 0.6454519 120 120 119 255 0.197903 0.304397
3.937767 3.482951 1.163796 -0.4191054 -0.6568595 0.6268065 97 95 95 255 0.200041 0.278032
0.290966 2.873811 0.554655 -0.3684756 -0.6500786 0.6645477 120 120 119 255 0.197903 0.304397
1.543874 1.504319 0.150511 -0.197678 -0.2005783 0.9595269 97 95 95 255 0.200041 0.278032
3.608513 2.445486 0.128465 0.1612885 -0.4710739 0.8672228 97 95 95 255 0.200041 0.278032
1.449808 2.445486 0.128465 -0.3389464 -0.3672979 0.8661453 97 95 95 255 0.200041 0.278032
3.559188 4.871531 2.554469 0.3237312 -0.8769921 0.3550817 97 95 95 255 0.200041 0.278032
1.439441 4.849483 3.692265 -0.1874901 -0.9382333 0.2908021 97 95 95 255 0.200041 0.278032
1.423612 4.8623 3.030764 -0.3290006 -0.9169635 -0.2256915 97 95 95 255 0.200041 0.278032
3.534536 4.250121 1.967435 0.3077915 -0.6613511 0.6840169 97 95 95 255 0.200041 0.278032
3.588342 3.412906 1.130227 0.3073771 -0.6710307 0.6747127 97 95 95 255 0.200041 0.278032
1.423612 4.8623 3.030764 -0.3290006 -0.9169635 -0.2256915 97 95 95 255 0.199511 0.279839
2.11517 4.871531 2.554469 -0.1605925 -0.9422514 0.293892 97 95 95 255 0.199511 0.279839
1.412214 4.871531 2.554469 -0.09357294 -0.8195141 0.5653679 106 103 98 255 0.223676 0.294369
1.40742 4.257314 1.974629 -0.308259 -0.6693049 0.6760232 106 103 98 255 0.223676 0.294369
3.608513 2.445486 0.128465 0.1612885 -0.4710739 0.8672228 97 95 95 255 0.199511 0.279839
2.677508 3.34385 1.061171 -0.1898338 -0.7584473 0.6234748 97 95 95 255 0.199511 0.279839
2.286519 4.254341 1.971656 -0.300776 -0.7021139 0.6454223 97 95 95 255 0.199511 0.279839
1.418448 5.01233 2.815009 0.009299103 -0.9995182 -0.02961282 97 95 95 255 0.199511 0.279839
1.412214 4.871531 2.554469 -0.09357294 -0.8195141 0.5653679 97 95 95 255 0.199511 0.279839
1.816144 4.255931 1.973247 0.3180023 -0.6288952 0.7094826 97 95 95 255 0.199511 0.279839
2.710375 2.373173 0.128465 0.1774069 -0.2252519 0.9580128 97 95 95 255 0.199511 0.279839
3.534381 1.891212 -0.010067 -0.0640391 -0.01582834 0.9978219 97 95 95 255 0.200041 0.278032
1.854384 3.627741 1.345059 0.2397946 -0.6726658 0.7000137 106 103 98 255 0.223676 0.294369
1.48216 3.253223 0.970544 -0.3107225 -0.6818475 0.6622201 106 103 98 255 0.223676 0.294369
2.117329 3.040338 0.747706 0.1674546 -0.6007455 0.7817057 106 103 98 255 0.223676 0.294369
4.021513 1.091878 -0.015275 0.09074873 0.07660972 0.9929228 97 95 95 255 0.200729 0.279229
3.937767 1.486614 0.146513 -0.486886 -0.09407276 0.868385 97 95 95 255 0.200729 0.279229
4.682299 0.966762 0.14155 0.2532394 -0.1930659 0.9479427 97 95 95 255 0.200041 0.278032
4.661808 0.268682 0.149815 0.3156643 -0.1993036 0.9277037 97 95 95 255 0.200729 0.279229
3.801595 1.076801 0.149815 0.1422454 0.5292324 0.8364684 97 95 95 255 0.200729 0.279229
0.527795 2.362113 0.127876 -0.1328403 -0.2894504 0.9479304 97 95 95 255 0.200041 0.278032
4.570862 3.511295 1.19214 0.2565339 -0.6754248 0.6913695 97 95 95 255 0.200041 0.278032
3.255671 1.450679 0.150511 0.1241489 -0.1699166 0.977607 106 103 98 255 0.223676 0.294369
3.554461 4.849483 3.65317 0.1979998 -0.9513324 0.2361412 106 103 98 255 0.223676 0.294369
3.937767 1.486614 0.146513 -0.486886 -0.09407276 0.868385 120 120 119 255 0.197903 0.304397
4.682299 0.966762 0.14155 0.2532394 -0.1930659 0.9479427 120 120 119 255 0.197903 0.304397
0.432808 0.618039 0.147717 -0.2414595 -0.0512938 0.9690543 120 120 119 255 0.197903 0.304397
3.937769 4.850181 3.94974 -0.174231 -0.9685569 -0.177598 97 95 95 255 0.200041 0.278032
1.062229 4.298062 1.97891 0.4349757 -0.6296527 0.6436875 97 95 95 255 0.200041 0.278032
0.407021 4.872121 2.552966 -0.1466385 -0.9180219 0.3684195 120 120 119 255 0.197903 0.304397
3.801595 1.076801 0.149815 0.1422454 0.5292324 0.8364684 120 120 119 255 0.197903 0.304397
3.86619 4.290151 1.970996 -0.4593751 -0.6212425 0.6348483 97 95 95 255 0.200041 0.278032
0.290966 3.279053 0.959897 -0.3928219 -0.6397332 0.6606303 120 120 119 255 0.197903 0.304397
3.255671 1.450679 0.150511 0.1241489 -0.1699166 0.977607 97 95 95 255 0.199511 0.279839
1.758021 3.274138 0.991459 0.08803267 -0.6927164 0.7158172 106 103 98 255 0.223676 0.294369
4.670338 0.609404 -0.017143 0.1143081 0.04426284 0.9924588 97 95 95 255 0.200729 0.279229
3 0 2 3 
3 6 7 8 
3 4 9 10 
3 11 13 14 
3 15 17 12 
3 18 14 19 
3 20 22 23 
3 21 25 22 
3 26 25 24 
3 28 27 26 
3 15 31 16 
3 13 32 33 
3 16 36 37 
3 14 38 39 
3 40 41 42 
3 44 45 43 
3 46 114 115 
3 49 116 48 
3 117 51 52 
3 53 54 55 
3 55 56 53 
3 57 59 49 
3 60 61 62 
3 47 63 62 
3 118 60 64 
3 65 67 68 
3 69 71 67 
3 72 71 70 
3 74 76 77 
3 119 78 63 
3 27 55 54 
3 29 80 56 
3 120 75 121 
3 122 81 123 
3 124 72 70 
3 69 124 70 
3 25 79 41 
3 125 81 126 
3 127 66 128 
3 22 40 42 
3 36 129 130 
3 37 36 130 
3 34 33 38 
3 82 131 61 
3 82 60 132 
3 62 83 84 
3 115 133 46 
3 114 134 51 
3 135 136 66 
3 61 131 83 
3 10 85 86 
3 28 88 29 
3 44 20 23 
3 137 128 90 
3 76 91 92 
3 93 65 68 
3 29 94 80 
3 138 139 75 
3 30 44 31 
3 58 90 59 
3 140 93 78 
3 86 85 95 
3 87 19 88 
3 92 118 64 
3 88 96 94 
3 141 50 52 
3 60 1 142 
3 62 63 143 
3 64 142 144 
3 68 5 145 
3 67 146 5 
3 71 147 146 
3 76 98 77 
3 93 145 148 
3 92 97 76 
3 93 149 78 
3 92 144 99 
3 78 143 63 
3 73 147 71 
3 150 101 151 
3 102 152 153 
3 103 104 154 
3 155 103 154 
3 156 105 155 
3 151 106 156 
3 73 74 77 
3 98 73 77 
3 100 73 98 
3 101 157 158 
3 101 159 106 
3 107 108 109 
3 110 107 109 
3 160 104 103 
3 62 161 1 
3 62 143 161 
3 162 153 163 
3 164 163 3 
3 105 107 110 
3 106 159 108 
3 62 111 47 
3 165 35 166 
3 112 17 167 
3 12 17 113 
3 84 111 62 
3 168 165 169 
3 113 32 13 
3 12 113 13 
3 19 39 170 
3 96 19 170 
3 31 171 129 
3 171 44 43 
3 0 172 2 
3 8 4 173 
3 173 6 8 
3 4 8 9 
3 11 12 13 
3 15 16 17 
3 18 11 14 
3 20 21 22 
3 21 24 25 
3 26 27 25 
3 28 29 27 
3 15 30 31 
3 34 14 33 
3 14 13 33 
3 37 167 17 
3 17 16 37 
3 39 19 14 
3 14 34 38 
3 44 23 45 
3 49 174 116 
3 174 175 116 
3 52 50 117 
3 117 176 51 
3 49 48 57 
3 57 58 59 
3 47 119 63 
3 118 132 60 
3 65 177 67 
3 67 177 69 
3 69 70 71 
3 72 73 71 
3 74 178 76 
3 119 140 78 
3 79 25 54 
3 25 27 54 
3 55 27 56 
3 27 29 56 
3 121 179 120 
3 120 138 75 
3 81 125 123 
3 123 179 121 
3 121 122 123 
3 40 22 41 
3 22 25 41 
3 126 66 136 
3 136 125 126 
3 127 135 66 
3 45 23 42 
3 23 22 42 
3 82 61 60 
3 62 61 83 
3 115 180 133 
3 51 176 114 
3 114 46 134 
3 10 9 85 
3 28 87 88 
3 44 89 20 
3 137 127 128 
3 76 178 91 
3 93 181 65 
3 29 88 94 
3 138 182 139 
3 30 89 44 
3 58 137 90 
3 140 181 93 
3 87 18 19 
3 92 91 118 
3 88 19 96 
3 52 139 141 
3 139 182 141 
3 60 62 1 
3 64 60 142 
3 68 67 5 
3 67 71 146 
3 76 97 98 
3 93 68 145 
3 92 99 97 
3 93 148 149 
3 92 64 144 
3 78 149 143 
3 73 100 147 
3 150 157 101 
3 155 105 103 
3 156 106 105 
3 151 101 106 
3 73 72 74 
3 101 158 159 
3 160 183 104 
3 163 184 162 
3 162 102 153 
3 3 2 164 
3 164 184 163 
3 160 103 110 
3 103 105 110 
3 107 105 108 
3 105 106 108 
3 165 185 35 
3 112 113 17 
3 168 185 165 
3 113 112 32 
3 36 16 129 
3 16 31 129 
3 171 31 44 
