ply
format ascii 1.0
comment INFO-3111 Flatenator generated
comment TextureFile Dungeons_Texture_01.png
element vertex 406
property float x
property float y
property float z
element face 500
property list uchar int vertex_indices
end_header
0.440556 5.04218 0.405296 
0.020477 5.03986 0.40494 
0.440643 4.60221 0.405296 
-0.031956 5.0422 0.405296 
-0.449486 5.02012 0.405296 
-0.444824 4.60139 0.405296 
0.020477 4.60458 0.404812 
-0.032887 4.58289 0.331937 
-0.117573 4.59897 0.389437 
-0.032185 4.04845 0.332356 
-0.447048 4.01173 0.405296 
-0.444012 3.57726 0.405296 
-0.030571 3.67551 0.405134 
0.440273 4.02523 0.405245 
0.020477 4.02501 0.404978 
0.020439 3.57763 0.404851 
0.427067 3.62419 0.370001 
-0.011978 3.55433 0.331588 
-0.032238 3.00282 0.405183 
-0.397682 2.97641 0.385049 
-0.444016 2.55486 0.405295 
-0.032207 2.55503 0.405295 
0.440258 3.00282 0.405231 
0.020477 3.0026 0.404978 
0.4217 2.55461 0.405295 
0.020477 2.55522 0.404895 
0.08704 1.96294 0.385103 
-0.010315 1.97751 0.332915 
0.030136 1.8826 0.393307 
0.440269 1.98063 0.405295 
0.020477 1.53307 0.404974 
0.397736 1.53289 0.405295 
-0.032188 1.98063 0.405259 
-0.444012 1.98084 0.405295 
-0.442493 1.53287 0.405098 
-0.03022 1.52938 0.351892 
0.44112 1.53287 0.354617 
0.44062 0.955881 0.405295 
0.03302 0.956319 0.405295 
0.440311 0.510492 0.405295 
0.020477 0.510879 0.404963 
-0.065197 0.929118 0.390474 
-0.444653 0.956549 0.405295 
-0.032166 0.510455 0.405255 
-0.442554 0.510455 0.405187 
0.017017 4.97554 0.316663 
0.450489 4.53671 0.394024 
-0.450489 4.53671 0.394024 
-0.450459 4.09347 0.394149 
0.450459 4.09347 0.394149 
0.168381 3.5144 0.391476 
-0.283764 3.5144 0.391477 
-0.450607 3.06544 0.394148 
0.450306 3.51478 0.393835 
0.45108 3.22736 0.394149 
-0.451199 3.45969 0.353816 
0.367695 3.068 0.351144 
0.450302 2.49236 0.393828 
-0.450302 2.49236 0.393828 
0.057068 2.0421 0.393826 
-0.451015 2.13972 0.394148 
-0.366013 2.0457 0.368398 
0.450302 2.04206 0.393828 
-0.332779 1.99541 0.330773 
0.141296 1.47171 0.394142 
-0.450607 1.47179 0.394148 
0.057034 1.02241 0.393499 
0.452087 1.47272 0.37821 
0.310848 1.11304 0.394148 
0.419025 1.05291 0.359539 
0.352428 1.03169 0.361855 
-0.450306 1.02241 0.393834 
0.368134 0.387309 0.390261 
0.332832 0.455289 0.3295 
0.1684 0.44414 0.390064 
-0.08353 0.1472 0.394148 
0.452141 0.365844 0.357602 
0.450489 0 0.394027 
-0.450462 0.44324 0.394148 
-0.450485 0 0.394027 
-0.085117 0.036473 0.380212 
0.168484 0.010535 0.387489 
-0.353531 4.5969 0.330473 
-0.331837 4.02588 0.35402 
0.441132 3.00282 0.050661 
0.442009 2.69276 0.15087 
0.351284 2.03996 0.330513 
-0.029083 1.76529 0.353487 
-0.03212 1.48276 0.3323 
-0.333992 0.993629 0.330898 
0.033096 0.969675 0.332026 
0.141296 0 0.242758 
-0.445629 5.04322 -0.405297 
0.033642 5.04716 0.012658 
-0.333824 4.5591 0.330769 
0.333969 4.04633 0.330817 
-0.311661 3.55594 0.332654 
0.336029 3.51524 0.35223 
-0.366016 3.50782 0.33004 
0.452141 3.06452 0.195152 
-0.351639 3.06272 -0.086411 
-0.332874 3.02077 0.330954 
-0.029789 3.00438 0.35221 
-0.444546 3.00282 0.278638 
-0.032494 2.52931 0.332161 
0.333488 2.50766 0.330569 
-0.442871 2.45484 -0.042498 
-0.450645 2.04206 0.277406 
0.355705 1.98379 0.330582 
-0.010269 1.52537 0.332901 
-0.333229 1.48214 0.330304 
0.452141 1.25246 0.354815 
-0.450932 1.47202 -0.139685 
0.355751 0.961165 0.330574 
0.008705 0.455733 0.331645 
0.452141 0.445571 0.244068 
-0.450886 0 0.109978 
0.351311 4.53869 0.330526 
-0.452141 4.28882 0.195061 
-0.333588 4.07033 0.33058 
0.44043 3.57704 0.226878 
-0.336174 2.49262 0.352371 
-0.333042 0.456128 0.33015 
0.35564 4.59635 -0.088139 
-0.450882 4.09313 -0.139684 
-0.450287 3.51478 -0.139033 
-0.450932 3.06521 -0.139684 
0.440475 1.98111 -0.102428 
-0.450279 2.04206 -0.139023 
-0.450287 1.02241 -0.139034 
0.354893 0.508142 -0.087791 
0.425148 4.53671 -0.139401 
-0.324169 3.5357 0.104347 
0.334301 2.50779 -0.087134 
0.333931 1.48233 -0.086838 
0.355434 3.00368 -0.088069 
-0.354717 0.960862 -0.088225 
0.440643 4.60221 -0.405297 
-0.336227 4.08609 -0.103578 
0.335526 3.57482 -0.101228 
0.450287 3.51478 -0.139033 
0.335281 1.53171 -0.100744 
0.45047 0 -0.139223 
0.393265 5.02123 0.025844 
-0.015301 4.96372 -0.024741 
-0.336018 4.53751 -0.103289 
0.351753 4.08506 -0.086448 
-0.332748 3.00295 -0.101213 
0.366455 2.56301 0.012445 
0.450287 1.02241 -0.139034 
-0.450886 0.443582 -0.139685 
-0.333706 0.456287 -0.086596 
0.450886 0.443582 -0.139685 
-0.354519 4.59659 -0.088103 
-0.354134 4.02619 -0.087957 
0.440273 4.02523 -0.405246 
-0.332672 2.55195 -0.10107 
-0.33374 1.99541 -0.086842 
-0.353668 0.508507 -0.087687 
0.442013 4.89987 0.012658 
0.335461 4.02582 -0.101104 
-0.349255 2.48795 -0.130078 
0.335808 1.02077 -0.102998 
0.440311 0.510492 -0.405298 
-0.268406 0.000491 -0.138503 
0.268459 3.51478 -0.139275 
0.40435 2.69597 0.075241 
0.335808 0.960758 -0.101827 
-0.444016 2.55486 -0.405298 
0.450279 2.04206 -0.139023 
0.450932 1.47202 -0.139685 
0.451241 4.26927 -0.139684 
-0.45047 4.53671 -0.139218 
-0.444824 4.60139 -0.405297 
-0.336159 3.51517 -0.103492 
0.368629 3.06447 -0.086739 
-0.442478 3.00282 -0.405108 
0.33596 2.04113 -0.10323 
-0.353798 1.53135 -0.087776 
-0.333965 1.48232 -0.086823 
0.440254 1.53287 -0.405232 
-0.031887 5.04221 -0.405297 
-0.444012 1.98084 -0.405298 
0.440273 2.55507 -0.405298 
0.375744 2.55676 -0.124671 
0.440556 5.04218 -0.405297 
0.450932 3.06521 -0.139684 
0.440258 3.00282 -0.405233 
0.392231 2.5634 -0.089375 
0.450882 4.09313 -0.139684 
-0.333885 3.55703 -0.087138 
-0.442253 0.510681 -0.240655 
-0.448715 0.127772 -0.137356 
0.451241 3.30362 -0.139684 
0.03476 4.59686 -0.101911 
-0.030674 4.53756 -0.103296 
-0.162285 4.06881 -0.092064 
-0.442509 4.02523 -0.405109 
0.017887 4.02651 -0.100285 
-0.032906 3.55535 -0.091848 
-0.032028 3.00336 -0.100944 
0.018284 2.55324 -0.100346 
0.028664 2.04002 -0.105206 
0.018047 1.9801 -0.100607 
-0.032154 1.53004 -0.100389 
-0.054276 1.48288 -0.091991 
0.098907 1.02241 -0.139318 
-0.052383 0.960759 -0.102283 
-0.028313 0.931619 -0.101372 
0.018002 0.506677 -0.100012 
-0.162308 0.456934 -0.0917 
-0.444057 3.576 -0.316641 
0.020477 3.57765 -0.404868 
-0.183701 3.06682 -0.139678 
-0.183685 2.04435 -0.139309 
-0.032173 1.98065 -0.405298 
0.441315 1.81945 -0.405298 
0.440269 3.57747 -0.405297 
-0.032169 2.55505 -0.405298 
-0.182343 1.53288 -0.405298 
-0.451557 0.622485 -0.378957 
-0.029228 3.98992 -0.101009 
0.020477 4.02496 -0.404942 
0.020477 0.953479 -0.404802 
-0.032177 3.57745 -0.405297 
0.020477 1.98045 -0.404867 
-0.015228 1.58197 -0.379491 
0.020477 1.53312 -0.404944 
-0.44207 1.53336 -0.316354 
-0.029816 4.99692 -0.392282 
0.441364 0.777771 -0.405298 
-0.028034 0.543383 -0.101796 
0.020477 0.510938 -0.404938 
0.425114 1.96843 -0.309978 
0.336025 1.98021 -0.404522 
-0.421261 0.958566 -0.405298 
-0.032154 0.510455 -0.405288 
0.020477 5.03982 -0.404874 
0.411041 0.930906 -0.36439 
-0.0298 4.6425 -0.392337 
0.020477 4.60462 -0.404777 
0.020477 3.00257 -0.404958 
-0.030666 3.93591 -0.405297 
-0.015663 1.93944 -0.377846 
-0.376633 3.87027 -0.405297 
-0.398415 0.541815 -0.403306 
-0.029655 4.87925 -0.392126 
-0.375237 3.60857 -0.39812 
-0.030674 1.6225 -0.405298 
-0.447186 1.70402 -0.405298 
-0.030678 4.85525 -0.405297 
-0.030632 4.74006 -0.405297 
-0.031956 5.0422 0.405296 
-0.117573 4.59897 0.389437 
-0.030571 3.67551 0.405134 
-0.444012 3.57726 0.405296 
0.08704 1.96294 0.385103 
0.020477 1.53307 0.404974 
0.020477 5.03986 0.40494 
0.020477 4.60458 0.404812 
-0.444012 1.98084 0.405295 
-0.032188 1.98063 0.405259 
0.310848 1.11304 0.394148 
0.057034 1.02241 0.393499 
0.419025 1.05291 0.359539 
0.368134 0.387309 0.390261 
0.1684 0.44414 0.390064 
-0.08353 0.1472 0.394148 
0.450489 0 0.394027 
-0.444824 4.60139 0.405296 
-0.447048 4.01173 0.405296 
-0.032185 4.04845 0.332356 
0.057068 2.0421 0.393826 
-0.366013 2.0457 0.368398 
0.450302 2.04206 0.393828 
-0.03022 1.52938 0.351892 
-0.450607 1.47179 0.394148 
0.141296 1.47171 0.394142 
-0.065197 0.929118 0.390474 
-0.444653 0.956549 0.405295 
0.44062 0.955881 0.405295 
0.03302 0.956319 0.405295 
0.020477 0.510879 0.404963 
-0.449486 5.02012 0.405296 
0.440556 5.04218 0.405296 
-0.450489 4.53671 0.394024 
0.450489 4.53671 0.394024 
0.450459 4.09347 0.394149 
-0.450459 4.09347 0.394149 
0.427067 3.62419 0.370001 
0.020439 3.57763 0.404851 
-0.451199 3.45969 0.353816 
-0.283764 3.5144 0.391477 
0.168381 3.5144 0.391476 
0.450306 3.51478 0.393835 
-0.450607 3.06544 0.394148 
0.367695 3.068 0.351144 
-0.397682 2.97641 0.385049 
-0.032238 3.00282 0.405183 
0.020477 3.0026 0.404978 
0.440258 3.00282 0.405231 
-0.032207 2.55503 0.405295 
-0.444016 2.55486 0.405295 
0.4217 2.55461 0.405295 
0.020477 2.55522 0.404895 
-0.451015 2.13972 0.394148 
0.440269 1.98063 0.405295 
-0.442493 1.53287 0.405098 
0.397736 1.53289 0.405295 
0.452087 1.47272 0.37821 
-0.450306 1.02241 0.393834 
-0.032166 0.510455 0.405255 
0.440311 0.510492 0.405295 
-0.450485 0 0.394027 
0.440643 4.60221 0.405296 
0.020477 4.02501 0.404978 
0.440273 4.02523 0.405245 
-0.450302 2.49236 0.393828 
0.450302 2.49236 0.393828 
-0.442554 0.510455 0.405187 
-0.450462 0.44324 0.394148 
-0.450932 3.06521 -0.139684 
-0.444546 3.00282 0.278638 
0.452141 0.365844 0.357602 
0.452141 0.445571 0.244068 
0.440475 1.98111 -0.102428 
0.44043 3.57704 0.226878 
-0.450279 2.04206 -0.139023 
-0.450932 1.47202 -0.139685 
0.44112 1.53287 0.354617 
0.393265 5.02123 0.025844 
0.425148 4.53671 -0.139401 
-0.450882 4.09313 -0.139684 
0.442009 2.69276 0.15087 
-0.450287 1.02241 -0.139034 
0.452141 1.25246 0.354815 
0.440643 4.60221 -0.405297 
0.45047 0 -0.139223 
0.440273 4.02523 -0.405246 
-0.450886 0 0.109978 
0.441132 3.00282 0.050661 
0.40435 2.69597 0.075241 
-0.450886 0.443582 -0.139685 
0.450287 3.51478 -0.139033 
-0.442871 2.45484 -0.042498 
0.450886 0.443582 -0.139685 
-0.445629 5.04322 -0.405297 
0.452141 3.06452 0.195152 
0.440311 0.510492 -0.405298 
0.450279 2.04206 -0.139023 
-0.442478 3.00282 -0.405108 
0.440254 1.53287 -0.405232 
0.450932 1.47202 -0.139685 
-0.450287 3.51478 -0.139033 
-0.444016 2.55486 -0.405298 
-0.45047 4.53671 -0.139218 
0.440258 3.00282 -0.405233 
0.440273 2.55507 -0.405298 
0.375744 2.55676 -0.124671 
0.450287 1.02241 -0.139034 
0.450882 4.09313 -0.139684 
0.450932 3.06521 -0.139684 
-0.448715 0.127772 -0.137356 
-0.444012 1.98084 -0.405298 
-0.442509 4.02523 -0.405109 
-0.349255 2.48795 -0.130078 
-0.442253 0.510681 -0.240655 
0.268459 3.51478 -0.139275 
-0.183701 3.06682 -0.139678 
0.334301 2.50779 -0.087134 
-0.183685 2.04435 -0.139309 
0.098907 1.02241 -0.139318 
-0.268406 0.000491 -0.138503 
0.440556 5.04218 -0.405297 
-0.444057 3.576 -0.316641 
0.441364 0.777771 -0.405298 
0.440269 3.57747 -0.405297 
0.425114 1.96843 -0.309978 
-0.444824 4.60139 -0.405297 
-0.421261 0.958566 -0.405298 
-0.44207 1.53336 -0.316354 
-0.451557 0.622485 -0.378957 
0.336025 1.98021 -0.404522 
-0.030678 4.85525 -0.405297 
-0.030632 4.74006 -0.405297 
-0.031887 5.04221 -0.405297 
0.020477 5.03982 -0.404874 
0.020477 4.60462 -0.404777 
-0.0298 4.6425 -0.392337 
-0.030666 3.93591 -0.405297 
-0.032177 3.57745 -0.405297 
0.020477 4.02496 -0.404942 
0.020477 3.57765 -0.404868 
-0.375237 3.60857 -0.39812 
0.020477 3.00257 -0.404958 
-0.032169 2.55505 -0.405298 
-0.032173 1.98065 -0.405298 
0.020477 1.53312 -0.404944 
0.020477 1.98045 -0.404867 
-0.030674 1.6225 -0.405298 
-0.182343 1.53288 -0.405298 
0.020477 0.953479 -0.404802 
-0.032154 0.510455 -0.405288 
-0.398415 0.541815 -0.403306 
0.020477 0.953479 -0.404802 
0.020477 0.510938 -0.404938 
3 0 1 2
3 3 4 5
3 1 6 2
3 7 252 8
3 3 5 253
3 9 10 11
3 9 11 12
3 13 14 15
3 13 15 16
3 254 255 17
3 18 19 20
3 18 20 21
3 22 23 24
3 23 25 24
3 26 27 28
3 29 256 30
3 26 28 257
3 29 30 31
3 32 33 34
3 32 34 35
3 29 31 36
3 37 38 39
3 38 40 39
3 41 42 43
3 42 44 43
3 258 45 259
3 46 47 48
3 46 48 49
3 50 51 52
3 53 50 52
3 53 52 54
3 51 55 52
3 54 52 56
3 57 58 59
3 58 60 61
3 58 61 59
3 57 59 62
3 63 260 261
3 64 65 66
3 67 64 68
3 67 68 69
3 68 64 66
3 262 263 70
3 264 262 70
3 66 65 71
3 72 73 74
3 265 266 75
3 76 265 77
3 75 77 265
3 78 75 266
3 267 79 80
3 267 80 81
3 268 267 81
3 82 8 269
3 83 270 271
3 84 22 85
3 63 272 273
3 86 274 272
3 27 261 87
3 87 261 275
3 88 276 277
3 278 89 279
3 280 90 281
3 281 90 282
3 91 268 81
3 92 283 252
3 93 258 284
3 45 252 7
3 94 285 286
3 95 287 288
3 96 17 255
3 97 289 290
3 98 291 292
3 293 98 292
3 97 293 294
3 99 53 54
3 100 101 295
3 101 296 295
3 101 297 298
3 102 101 298
3 296 299 300
3 19 103 20
3 104 102 298
3 104 298 301
3 302 104 301
3 105 303 304
3 58 106 60
3 107 273 305
3 27 63 261
3 306 108 26
3 257 28 109
3 110 275 307
3 109 308 257
3 88 110 276
3 309 88 277
3 111 67 69
3 65 112 71
3 89 90 310
3 113 90 280
3 311 114 278
3 282 90 114
3 114 312 282
3 73 114 74
3 76 77 115
3 78 116 313
3 80 91 81
3 259 45 7
3 8 82 7
3 7 117 259
3 314 259 117
3 82 94 7
3 94 286 7
3 286 117 7
3 47 118 48
3 288 119 271
3 95 288 271
3 119 83 271
3 315 95 271
3 316 95 315
3 290 315 271
3 120 13 16
3 254 17 271
3 290 271 17
3 97 290 17
3 96 98 17
3 293 17 98
3 293 97 17
3 296 101 102
3 299 296 102
3 299 102 104
3 304 299 104
3 85 22 24
3 104 302 121
3 105 304 104
3 121 317 104
3 317 105 104
3 317 318 105
3 272 63 27
3 86 272 27
3 86 27 108
3 26 108 27
3 87 109 27
3 28 27 109
3 87 275 109
3 275 110 88
3 109 275 88
3 308 109 88
3 308 88 309
3 263 310 90
3 70 263 90
3 70 90 113
3 278 90 89
3 278 114 90
3 311 319 122
3 311 122 114
3 312 114 73
3 320 74 122
3 74 114 122
3 91 80 79
3 123 314 117
3 118 124 48
3 98 125 291
3 99 54 56
3 55 126 52
3 321 100 295
3 101 322 297
3 127 29 36
3 72 323 324
3 305 128 107
3 325 108 306
3 324 73 72
3 326 289 97
3 310 129 89
3 73 130 312
3 131 46 49
3 132 96 255
3 133 105 318
3 308 309 134
3 300 135 296
3 106 327 60
3 110 328 276
3 136 279 89
3 123 137 314
3 288 138 119
3 97 139 326
3 140 97 294
3 141 329 308
3 115 77 142
3 143 93 284
3 252 45 144
3 330 0 2
3 94 145 285
3 331 117 286
3 332 138 288
3 146 287 95
3 100 147 101
3 148 333 303
3 148 303 105
3 112 334 71
3 70 149 264
3 150 320 122
3 151 150 122
3 152 73 324
3 82 153 94
3 119 154 83
3 155 95 316
3 98 96 132
3 302 156 121
3 273 157 63
3 134 141 308
3 149 335 264
3 129 136 89
3 319 158 122
3 330 2 159
3 159 2 336
3 119 138 154
3 79 337 91
3 154 270 83
3 155 160 95
3 338 13 120
3 161 317 121
3 162 149 70
3 37 39 163
3 339 164 79
3 164 337 79
3 140 165 97
3 113 162 70
3 160 146 95
3 340 135 300
3 84 85 166
3 341 333 148
3 148 105 133
3 280 167 113
3 342 116 78
3 103 168 20
3 86 169 274
3 309 170 134
3 131 49 171
3 47 172 118
3 343 53 99
3 101 147 322
3 161 344 317
3 161 121 156
3 345 115 142
3 258 93 45
3 4 346 173
3 4 173 5
3 145 94 153
3 174 125 98
3 174 98 132
3 175 347 296
3 103 176 168
3 177 169 86
3 307 178 110
3 110 178 179
3 180 329 141
3 179 328 110
3 130 348 312
3 331 123 117
3 165 139 97
3 57 62 349
3 337 268 91
3 181 252 144
3 45 93 144
3 135 175 296
3 147 350 322
3 108 177 86
3 157 182 260
3 157 260 63
3 127 36 351
3 352 67 111
3 55 353 126
3 183 84 166
3 354 156 302
3 184 133 318
3 325 177 108
3 130 73 152
3 330 159 185
3 145 355 285
3 172 124 118
3 186 347 175
3 187 135 340
3 183 356 84
3 188 341 148
3 146 189 287
3 255 190 132
3 190 174 132
3 357 341 188
3 358 57 349
3 352 111 359
3 191 158 319
3 116 342 192
3 269 153 82
3 171 49 360
3 343 99 193
3 361 193 99
3 188 148 133
3 128 273 107
3 128 157 273
3 162 113 167
3 122 158 151
3 194 195 153
3 194 123 195
3 195 145 153
3 138 196 154
3 154 197 270
3 198 154 196
3 160 198 196
3 160 196 146
3 190 199 174
3 165 199 139
3 100 175 200
3 200 147 100
3 135 200 175
3 201 188 133
3 161 156 201
3 133 161 201
3 157 202 203
3 202 177 203
3 325 203 177
3 178 204 179
3 204 141 205
3 141 134 205
3 179 204 205
3 134 170 205
3 129 206 136
3 206 207 136
3 206 208 207
3 206 162 208
3 162 167 208
3 158 209 151
3 209 130 210
3 130 152 210
3 151 209 210
3 362 164 339
3 137 123 194
3 355 145 195
3 331 355 195
3 331 195 123
3 332 196 138
3 196 189 146
3 211 190 255
3 212 139 199
3 199 125 174
3 213 175 100
3 157 214 202
3 215 182 157
3 215 157 203
3 33 363 34
3 216 127 351
3 180 141 204
3 328 179 205
3 191 209 158
3 210 150 151
3 181 92 252
3 332 189 196
3 198 197 154
3 10 364 11
3 212 217 139
3 125 199 165
3 321 213 100
3 213 186 175
3 218 201 156
3 365 327 106
3 214 157 128
3 214 169 202
3 169 177 202
3 219 204 178
3 328 205 170
3 220 366 42
3 42 366 44
3 348 130 209
3 152 150 210
3 172 171 124
3 171 360 124
3 221 198 222
3 353 367 193
3 367 343 193
3 353 193 126
3 193 368 126
3 368 193 361
3 365 369 349
3 369 358 349
3 365 370 327
3 365 349 370
3 112 352 371
3 112 371 334
3 206 149 162
3 371 352 359
3 167 223 208
3 342 345 192
3 192 345 372
3 372 345 142
3 159 336 185
3 224 199 190
3 200 350 147
3 218 357 201
3 325 225 203
3 373 93 143
3 199 224 212
3 217 326 139
3 357 188 201
3 204 226 227
3 228 178 307
3 181 144 229
3 364 374 11
3 207 208 223
3 167 280 230
3 375 37 163
3 231 232 209
3 160 222 198
3 233 234 325
3 219 226 204
3 136 235 279
3 236 231 209
3 93 237 144
3 229 144 237
3 338 120 376
3 228 219 178
3 227 180 204
3 238 167 230
3 194 239 240
3 187 241 200
3 135 187 200
3 242 198 221
3 211 224 190
3 234 225 325
3 215 203 243
3 377 127 216
3 240 137 194
3 354 218 156
3 242 197 198
3 191 236 209
3 378 153 269
3 200 241 350
3 42 379 220
3 237 93 373
3 242 221 222
3 364 244 374
3 243 203 225
3 34 363 380
3 207 235 136
3 223 167 238
3 191 381 245
3 231 236 232
3 245 236 191
3 232 348 209
3 246 229 237
3 246 237 240
3 239 246 240
3 378 194 153
3 378 239 194
3 155 222 160
3 242 222 212
3 224 242 212
3 247 224 211
3 382 377 216
3 248 243 226
3 226 243 225
3 226 225 227
3 363 249 380
3 223 235 207
3 236 223 232
3 181 229 250
3 250 229 246
3 250 246 251
3 251 246 239
3 215 243 248
3 346 383 384
3 346 385 383
3 346 384 173
3 386 185 387
3 384 388 173
3 387 185 336
3 364 389 390
3 364 390 244
3 391 338 392
3 374 244 393
3 392 338 376
3 244 390 393
3 176 394 168
3 394 395 168
3 394 356 395
3 395 356 183
3 363 396 249
3 382 216 397
3 398 382 397
3 396 399 249
3 397 216 351
3 249 399 400
3 248 226 219
3 249 400 380
3 379 401 402
3 402 403 379
3 238 230 223
3 404 375 163
3 404 163 405
3 379 403 220
3 78 313 75
3 172 131 171
