ply
format ascii 1.0
comment VCGLIB generated
comment TextureFile Dungeons_Texture_01.png
element vertex 26
property float x
property float y
property float z
property float nx
property float ny
property float nz
property uchar red
property uchar green
property uchar blue
property uchar alpha
property float texture_u
property float texture_v
element face 48
property list uchar int vertex_indices
end_header
-0.302093 -0.065036 -0.201823 -0.4082527 -0.4082263 -0.8165054 120 116 110 255 0.211923 0.303946
0 -0.065036 -0.201823 0 -0.8 -0.6 120 116 110 255 0.211923 0.303946
0 -0.065036 0.201821 -9.135581e-07 -0.5546952 0.8320536 120 116 110 255 0.211923 0.303946
-0.302093 -0.065036 0.201821 -0.5773583 -0.5773369 0.5773557 120 116 110 255 0.211923 0.303946
-0.276397 0.065037 0.10091 -0.7175333 0.6965036 0.005343283 120 116 110 255 0.211923 0.303946
-0.302093 0.032518 0.201821 -0.6253603 0.5318249 0.5710402 120 116 110 255 0.211923 0.303946
-0.09558 0.065037 0.201821 0.01914466 0.7329129 0.6800531 120 116 110 255 0.211923 0.303946
0.30209 -0.065036 -0.201823 0.8164966 -0.4082483 -0.4082483 120 116 110 255 0.211923 0.303946
0.30209 -0.065036 0.201821 0.4082483 -0.8164966 0.4082483 120 116 110 255 0.211923 0.303946
0.226566 0.065037 0.201821 0.0600142 0.7216372 0.6896652 120 116 110 255 0.211923 0.303946
0.30209 0.032518 0.201821 0.6631104 0.4234346 0.6172422 120 116 110 255 0.211923 0.303946
0.30209 0.065037 0.10091 0.842057 0.5390574 0.01890076 120 116 110 255 0.211923 0.303946
0 0.012237 0.20182 0.01983895 0.1279922 0.9915768 120 116 110 255 0.211923 0.303946
-0.302093 0.012496 0.201821 -0.7169587 0.1098438 0.6884074 120 116 110 255 0.211923 0.303946
-0.302093 0.032518 -0.201823 -0.6378542 0.5263797 -0.5621978 120 116 110 255 0.211923 0.303946
-0.276397 0.065037 -0.100912 -0.4228936 0.9061754 -0.002681032 120 116 110 255 0.211923 0.303946
-0.130935 0.065037 -0.201823 -0.009441091 0.7176959 -0.6962927 120 116 110 255 0.211923 0.303946
0 0.065037 0.17566 0.02205883 0.9576057 0.2872362 120 116 110 255 0.211923 0.303946
0.30209 0.011979 0.201821 0.7839552 0.00157033 0.6208155 120 116 110 255 0.211923 0.303946
0.226566 0.065037 -0.201823 0.0828342 0.5951077 -0.7993656 120 116 110 255 0.211923 0.303946
0.275093 0.065037 0.000861 0.5375394 0.8425736 -0.03348266 120 116 110 255 0.211923 0.303946
0.30209 0.032518 -0.201823 0.7219498 0.4766498 -0.5015908 120 116 110 255 0.211923 0.303946
0 0.065037 -0.182547 0.01388516 0.8917977 -0.4522213 120 116 110 255 0.211923 0.303946
0 0.012237 -0.201823 0.008306395 0.09876329 -0.9950764 120 116 110 255 0.211923 0.303946
-0.302088 0.012496 -0.201823 -0.8550713 0.1576052 -0.4939774 120 116 110 255 0.211923 0.303946
0.30209 0.011979 -0.201823 0.5949236 0.09359665 -0.7983143 120 116 110 255 0.211923 0.303946
3 1 3 0 
3 4 5 6 
3 1 8 2 
3 9 10 11 
3 3 12 13 
3 14 15 16 
3 18 10 9 
3 19 20 21 
3 16 15 17 
3 16 23 24 
3 3 24 0 
3 9 11 20 
3 7 18 8 
3 19 25 23 
3 12 17 6 
3 18 2 8 
3 23 0 24 
3 4 15 24 
3 20 11 18 
3 25 1 23 
3 1 2 3 
3 1 7 8 
3 3 2 12 
3 9 17 12 
3 12 18 9 
3 15 4 6 
3 6 17 15 
3 17 22 16 
3 24 14 16 
3 16 22 23 
3 3 13 24 
3 19 22 20 
3 22 17 20 
3 17 9 20 
3 7 25 18 
3 23 22 19 
3 19 21 25 
3 5 13 6 
3 13 12 6 
3 18 12 2 
3 23 1 0 
3 14 24 15 
3 24 13 4 
3 13 5 4 
3 10 18 11 
3 18 25 20 
3 25 21 20 
3 25 7 1 
