ply
format ascii 1.0
comment VCGLIB generated
comment TextureFile Dungeons_Texture_01.png
element vertex 321
property float x
property float y
property float z
property float nx
property float ny
property float nz
property uchar red
property uchar green
property uchar blue
property uchar alpha
property float texture_u
property float texture_v
element face 400
property list uchar int vertex_indices
end_header
0.41053 5.025967 0.416276 0.9010351 0.326953 0.285022 120 120 119 255 0.199079 0.303629
-0.414886 5.025967 0.416463 -0.5077833 0.6980327 0.5048826 120 120 119 255 0.199079 0.303629
0.413548 4.711116 0.416486 0.5847829 -0.08980229 0.8062038 120 120 119 255 0.199079 0.303629
-0.025936 4.577526 0.416448 -0.00310262 -0.005177212 0.9999818 120 120 119 255 0.199079 0.303629
-0.414906 4.770628 0.415917 -0.457332 -0.1438238 0.8775889 120 120 119 255 0.199079 0.303629
-0.414913 4.577537 0.308522 -0.9671351 -0.1340868 0.2160334 120 120 119 255 0.199079 0.303629
-0.228867 4.581098 0.41446 -0.2367755 -0.2396525 0.9415434 120 120 119 255 0.199079 0.303629
0.333225 4.577581 0.416383 0.357439 -0.215705 0.9086852 120 120 119 255 0.199079 0.303629
0.410568 4.577715 0.339391 0.9045969 -0.2282599 0.3600025 120 120 119 255 0.199079 0.303629
0.328091 4.507212 0.408196 0.2508876 0.07408087 0.9651774 120 120 119 255 0.199079 0.303629
-0.12833 4.512035 0.400388 -0.428363 0.03756152 0.9028257 120 120 119 255 0.199079 0.303629
-0.043068 4.069885 0.416513 0.01795235 0.03384937 0.9992657 120 120 119 255 0.199079 0.303629
-0.12833 4.194407 0.416268 -0.888611 0.02197354 0.458135 120 120 119 255 0.199079 0.303629
0.41301 4.511165 0.318677 0.9245583 0.08610092 0.3711854 120 120 119 255 0.199079 0.303629
0.414932 4.0701 0.4162 0.8485212 0.05410228 0.5263885 120 120 119 255 0.199079 0.303629
-0.12801 4.070427 0.365518 -0.2841311 -0.8674704 0.4083682 97 95 95 255 0.199079 0.278837
0.010593 3.997915 0.403375 -0.01392442 0.6790659 0.7339453 97 95 95 255 0.199079 0.278837
-0.414886 4.008258 0.416463 0.0176551 0.9418197 0.3356546 97 95 95 255 0.199079 0.278837
0.286404 3.930223 0.416524 0.002554033 0.2007006 0.9796493 97 95 95 255 0.199079 0.278837
0.413269 3.994501 0.416524 0.2659241 0.6566478 0.7057607 97 95 95 255 0.199079 0.278837
-0.103737 3.560479 0.415734 -0.02671775 -0.04569912 0.9985979 106 103 98 255 0.223267 0.294642
0.410522 3.559817 0.416272 0.4462253 -0.003543333 0.8949137 106 103 98 255 0.223267 0.294642
-0.414944 3.752919 0.41652 -0.5394294 -0.1207496 0.8333279 106 103 98 255 0.223267 0.294642
-0.245987 3.56634 0.405057 -0.241604 -0.2759413 0.9303139 106 103 98 255 0.223267 0.294642
0.326656 3.233413 0.411431 0.1056058 -0.03570204 0.993767 106 103 98 255 0.223267 0.294642
0.414932 3.493447 0.416257 0.69432 -0.0609325 0.7170823 106 103 98 255 0.223267 0.294642
-0.12833 3.493446 0.416257 -0.5507797 0.0001356771 0.8346507 106 103 98 255 0.223267 0.294642
0.382877 3.079938 0.388761 0.5268987 -0.09002401 0.845147 106 103 98 255 0.223267 0.294642
0.251522 3.052296 0.416524 0.08040499 -0.01491394 0.9966507 106 103 98 255 0.223267 0.294642
-0.12833 3.052391 0.416203 -0.7074055 -8.654e-05 0.7068079 106 103 98 255 0.223267 0.294642
0.289162 2.990073 0.416439 0.01192179 -0.01146246 0.9998633 120 120 119 255 0.199079 0.303629
-0.414886 2.990073 0.416462 -0.2939105 -0.0065236 0.9558107 120 120 119 255 0.199079 0.303629
-0.025944 2.653704 0.41634 0.06868518 -0.1544151 0.9856157 120 120 119 255 0.199079 0.303629
-0.362854 2.695434 0.41143 0.01653792 0.006274295 0.9998436 120 120 119 255 0.199079 0.303629
0.407608 2.97333 0.413239 0.8318987 -0.009537931 0.5548456 120 120 119 255 0.199079 0.303629
-0.414883 2.541632 0.416451 -0.6930643 0.002020876 0.7208729 120 120 119 255 0.199079 0.303629
-0.125778 2.541632 0.416447 0.2075811 -0.1723936 0.9629074 120 120 119 255 0.199079 0.303629
0.410522 2.541633 0.416267 0.4197749 -0.2221798 0.8800144 120 120 119 255 0.199079 0.303629
-0.058487 2.524752 0.340733 0.2461956 -0.5357096 0.8077146 120 120 119 255 0.199079 0.303629
-0.043434 2.48923 0.345943 -0.3468768 0.7635902 0.544616 97 95 95 255 0.199079 0.278837
-0.12833 2.475264 0.416256 -0.1067575 0.9921618 0.0649451 97 95 95 255 0.199079 0.278837
0.414932 2.475265 0.416256 0.4149058 0.8934307 0.1721476 97 95 95 255 0.199079 0.278837
-0.12833 2.158514 0.416267 -0.698408 -0.03165536 0.7149995 106 103 98 255 0.223267 0.294642
-0.026253 2.03376 0.399899 0.007320198 -0.04432578 0.9989904 106 103 98 255 0.223267 0.294642
0.414932 2.034207 0.416199 0.8911756 -5.864063e-05 0.4536587 106 103 98 255 0.223267 0.294642
-0.123161 2.037779 0.345474 -0.6399327 -0.6694998 0.3771688 97 95 95 255 0.199079 0.278837
-0.414944 1.971096 0.416512 -0.7071174 0 0.7070962 120 120 119 255 0.199079 0.303629
-0.414944 1.526358 0.416512 -0.7095206 -0.009363916 0.7046225 120 120 119 255 0.199079 0.303629
-0.04847 1.972789 0.416523 -1.443473e-05 -4.672052e-07 1 120 120 119 255 0.199079 0.303629
0.411247 1.97249 0.416523 0.7057459 0.008593753 0.7084129 120 120 119 255 0.199079 0.303629
-0.025936 1.63841 0.416523 0.0140913 -0.04423799 0.9989216 120 120 119 255 0.199079 0.303629
0.413609 1.778514 0.416523 0.5590828 -0.1723782 0.8109946 120 120 119 255 0.199079 0.303629
0.028927 1.530751 0.399788 0.08689897 -0.2008286 0.9757646 120 120 119 255 0.199079 0.303629
0.34481 1.476776 0.341293 0.6117675 -0.3198685 0.723481 120 120 119 255 0.199079 0.303629
0.414932 1.41646 0.416359 0.9025378 0.03068303 0.4295162 106 103 98 255 0.223267 0.294642
-0.12833 1.459831 0.416256 -0.4472903 -0.0002336866 0.8943889 106 103 98 255 0.223267 0.294642
0.414932 1.018778 0.416199 0.4471369 -0.0002337066 0.8944655 106 103 98 255 0.223267 0.294642
-0.12833 1.018777 0.416203 -0.8944265 -5.375893e-05 0.4472149 106 103 98 255 0.223267 0.294642
0.108719 1.025995 0.371456 0.01628767 -0.958438 0.2848354 97 95 95 255 0.199079 0.278837
-0.285275 0.955901 0.416523 0.0001953724 -0.001190902 0.9999993 106 103 98 255 0.223267 0.294642
-0.414833 0.780968 0.41634 -0.7070937 -0.0001622002 0.7071198 106 103 98 255 0.223267 0.294642
0.411201 0.955121 0.416386 0.447061 -0.0002225638 0.8945035 106 103 98 255 0.223267 0.294642
-0.414944 0.508174 0.416512 -0.4470169 -5.514517e-05 0.8945255 106 103 98 255 0.223267 0.294642
-0.003887 0.508021 0.416191 7.665216e-05 -0.0005073003 0.9999999 106 103 98 255 0.223267 0.294642
0.41066 0.508018 0.416451 0.7062016 -0.0007515858 0.7080105 106 103 98 255 0.223267 0.294642
0.414932 0.441647 0.416256 0.8943729 -7.705093e-05 0.4473222 120 120 119 255 0.199079 0.303629
0.175819 0.4431 0.415958 -0.0001101969 0.0001759453 1 120 120 119 255 0.199079 0.303629
0.414917 0.1398 0.416271 0.4467087 0.0003473824 0.8946794 120 120 119 255 0.199079 0.303629
-0.042938 0.44257 0.416229 0.0007785708 -0.0002092885 0.9999997 120 120 119 255 0.199079 0.303629
-0.12833 0.441646 0.416256 -0.7069945 -8.501338e-05 0.7072191 120 120 119 255 0.199079 0.303629
-0.12833 0.000591 0.416203 -0.5544635 9.928328e-05 0.832208 120 120 119 255 0.199079 0.303629
0.311745 0.001191 0.4156 0.3222996 -0.6895923 0.6485255 97 95 95 255 0.199079 0.278837
0.342537 4.534708 0.336831 0.6399084 0.4513792 0.6219116 97 95 95 255 0.199079 0.278837
0.345943 3.512361 0.342496 0.6749632 0.5090038 0.5341721 97 95 95 255 0.199079 0.278837
-0.048885 2.990527 0.364025 -0.5664203 0.7866582 0.2456361 97 95 95 255 0.199079 0.278837
-0.063248 1.524522 0.363083 -0.2946691 -0.8440105 0.4481254 97 95 95 255 0.199079 0.278837
0.34742 1.016399 0.363811 0.2990223 -0.8504191 0.4328661 97 95 95 255 0.199079 0.278837
-0.103867 0.508018 0.364494 -0.1510031 -0.9847839 0.08601627 97 95 95 255 0.199079 0.278837
0.414856 -0 0.246922 0.2684776 -0.9485332 0.1679424 97 95 95 255 0.199079 0.278837
0.353855 3.03015 0.347116 0.8085907 -0.1311498 0.5735685 97 95 95 255 0.199079 0.278837
0.34758 2.032763 0.364197 0.2712651 -0.9043438 0.329511 97 95 95 255 0.199079 0.278837
-0.087482 1.466742 0.345936 -0.5921289 0.7545095 0.2830173 97 95 95 255 0.199079 0.278837
0.407646 1.466258 0.339176 0.1678703 0.9496079 0.2646969 97 95 95 255 0.199079 0.278837
-0.059608 0.995345 0.342857 -0.4854991 0.1459671 0.8619654 97 95 95 255 0.199079 0.278837
-0.414913 0.954732 0.23827 -0.6951693 0.5143273 0.5022023 120 120 119 255 0.199079 0.303629
-0.05965 0.489694 0.34164 -0.6442156 -0.508284 0.5715187 97 95 95 255 0.199079 0.278837
0.347504 0.44907 0.363991 0.5455052 0.7146784 0.4377887 97 95 95 255 0.199079 0.278837
-0.063351 4.010194 0.363244 -0.4692151 0.7473659 0.4704056 97 95 95 255 0.199079 0.278837
0.345943 4.057701 0.342603 0.6459432 0.1693155 0.744372 97 95 95 255 0.199079 0.278837
0.410732 4.008258 -0.181167 0.1558252 0.9871697 -0.03484883 97 95 95 255 0.199079 0.278837
-0.412804 3.561785 0.32377 -0.8319268 -0.2497604 0.4954974 106 103 98 255 0.223267 0.294642
-0.043575 3.0294 0.346829 -0.4740975 -0.4910162 0.7308452 97 95 95 255 0.199079 0.278837
0.344826 2.524629 0.340702 0.4420471 -0.4770637 0.7596083 97 95 95 255 0.199079 0.278837
-0.054173 2.007495 0.337677 -0.6385781 -0.5520411 0.5361612 97 95 95 255 0.199079 0.278837
-0.414944 1.972482 -0.412796 -0.006233254 0.9999802 0.000941328 97 95 95 255 0.199079 0.278837
0.348705 1.975943 0.363243 0.5237128 0.7648921 0.3750535 97 95 95 255 0.199079 0.278837
0.34893 0.957077 0.363529 0.4882703 0.8460202 0.2141078 97 95 95 255 0.199079 0.278837
-0.059093 4.522573 0.34224 -0.8057291 0.4850412 0.3399054 97 95 95 255 0.199079 0.278837
-0.043533 3.513731 0.34657 -0.4938116 0.7198967 0.4877489 97 95 95 255 0.199079 0.278837
0.414932 2.475263 -0.126484 0.7067175 -0.002201273 -0.7074925 106 103 98 255 0.223267 0.294642
0.364677 1.524275 0.324028 0.7118411 -0.357043 0.6048161 120 120 119 255 0.199079 0.303629
0.406162 1.529166 0.306374 0.9319988 -0.1593264 0.3255662 120 120 119 255 0.199079 0.303629
0.412788 4.577526 -0.156638 0.9999359 -0.009776575 0.005722582 120 120 119 255 0.199079 0.303629
0.414932 4.511156 -0.126483 0.8807845 -0.05056323 -0.47081 120 120 119 255 0.199079 0.303629
-0.059299 4.057679 -0.0535 -0.5945134 -0.4506566 -0.6659298 97 95 95 255 0.199079 0.278837
0.414932 3.051761 0.246979 0.9963701 -0.03046471 0.0794896 106 103 98 255 0.223267 0.294642
-0.059265 3.029568 0.144104 -0.7966712 -0.6040178 0.02185411 97 95 95 255 0.199079 0.278837
-0.057934 2.486278 -0.052216 -0.5771934 0.6147708 -0.5374985 97 95 95 255 0.199079 0.278837
-0.059498 0.465767 -0.053707 -0.568621 0.6873869 -0.4518511 97 95 95 255 0.199079 0.278837
0.414932 3.493445 -0.126483 0.08701821 0.9934582 -0.07394995 97 95 95 255 0.199079 0.278837
0.414932 2.034402 -0.031189 0.3328581 -0.9247445 -0.1845346 97 95 95 255 0.199079 0.278837
0.34576 4.522583 -0.053283 0.4692931 0.8089553 -0.3540556 97 95 95 255 0.199079 0.278837
-0.414692 3.559817 -0.412082 -0.8325001 -0.005295749 -0.5539995 106 103 98 255 0.223267 0.294642
-0.080059 3.55753 0.08254 -0.5898185 -0.8070139 -0.02903036 97 95 95 255 0.199079 0.278837
0.39994 2.551296 0.026524 0.3030219 -0.9515451 -0.05234181 97 95 95 255 0.199079 0.278837
0.412788 3.559817 -0.156634 0.9977999 -0.0336343 -0.05713289 106 103 98 255 0.223267 0.294642
0.348732 2.541011 -0.072964 0.4889063 -0.8246837 -0.284372 97 95 95 255 0.199079 0.278837
0.348579 1.976242 -0.072689 0.2798147 0.927506 -0.2478634 97 95 95 255 0.199079 0.278837
0.348354 4.575181 -0.072284 0.3546278 -0.8383175 -0.4140808 97 95 95 255 0.199079 0.278837
0.414932 4.851198 0.079251 0.9922128 0.1243629 -0.006896795 120 120 119 255 0.199079 0.303629
-0.05909 4.522593 -0.053267 -0.3342273 0.7428633 -0.5800398 97 95 95 255 0.199079 0.278837
0.344685 4.013396 -0.071052 0.2056769 0.8872278 -0.4129454 97 95 95 255 0.199079 0.278837
0.342724 4.058324 -0.052401 0.3812846 -0.849237 -0.3652652 97 95 95 255 0.199079 0.278837
-0.060966 3.500395 -0.074553 -0.657124 0.6746082 -0.3362914 97 95 95 255 0.199079 0.278837
0.345722 3.536344 -0.052821 0.6309707 -0.6865973 -0.3611929 97 95 95 255 0.199079 0.278837
0.330215 3.029446 -0.057095 0.4145852 -0.5930785 -0.6902007 97 95 95 255 0.199079 0.278837
0.34597 2.021056 -0.053467 0.5771671 -0.6088122 -0.5442663 97 95 95 255 0.199079 0.278837
-0.082382 1.526203 -0.090912 -0.3883434 -0.8969755 -0.211245 97 95 95 255 0.199079 0.278837
0.414932 1.018779 -0.126427 0.8582649 0.0469071 -0.5110588 106 103 98 255 0.223267 0.294642
-0.063648 0.957101 -0.072933 -0.2235916 0.9097497 -0.3498033 97 95 95 255 0.199079 0.278837
0.363842 0.508018 -0.051498 0.5339507 -0.6491642 -0.5417402 97 95 95 255 0.199079 0.278837
-0.12833 4.511156 -0.126475 -0.8319716 -0.0006776176 -0.5548178 120 120 119 255 0.199079 0.303629
0.4133 4.071392 0.009336 0.2420822 -0.9674503 -0.0737306 97 95 95 255 0.199079 0.278837
-0.082382 4.008258 -0.090911 -0.2171389 0.9590246 -0.181996 97 95 95 255 0.199079 0.278837
-0.12833 2.034207 -0.126419 -0.4669802 -0.8824819 -0.05617091 97 95 95 255 0.199079 0.278837
-0.059601 0.995336 -0.05373 -0.419309 -0.8172529 -0.3953197 97 95 95 255 0.199079 0.278837
0.411263 0.954778 -0.259201 0.2136261 0.9738658 -0.07713141 97 95 95 255 0.199079 0.278837
0.412067 0.508018 -0.312386 0.9651101 -0.08189961 -0.2487067 106 103 98 255 0.223267 0.294642
0.400124 5.016596 0.160089 0.7110732 0.6842878 -0.1616329 120 120 119 255 0.199079 0.303629
-0.082386 4.577526 -0.090911 -0.3686721 -0.9147348 -0.1653516 97 95 95 255 0.199079 0.278837
0.344616 2.486266 -0.052235 0.5057499 0.66532 -0.5491506 97 95 95 255 0.199079 0.278837
-0.059315 2.02104 -0.053474 -0.3433149 -0.8338653 -0.4322079 97 95 95 255 0.199079 0.278837
-0.078262 1.974644 -0.051373 -0.4334347 0.8077022 -0.3996893 97 95 95 255 0.199079 0.278837
-0.063595 0.506905 -0.072842 -0.2028619 -0.9689336 -0.1414735 97 95 95 255 0.199079 0.278837
-0.08017 2.991647 0.125904 -0.2397866 0.9707588 0.01139419 97 95 95 255 0.199079 0.278837
-0.082375 2.541632 -0.090908 -0.2336472 -0.9485834 -0.2135382 97 95 95 255 0.199079 0.278837
0.380898 4.970108 0.051198 0.8546289 0.5179533 -0.03652249 120 120 119 255 0.199079 0.303629
-0.12833 3.493446 -0.126475 -0.1052331 0.9929826 -0.05395852 97 95 95 255 0.199079 0.278837
-0.12833 3.052392 -0.126419 -0.707112 -8.978952e-05 -0.7071015 106 103 98 255 0.223267 0.294642
0.348701 2.991071 -0.072868 0.3538297 0.8715395 -0.3394457 97 95 95 255 0.199079 0.278837
-0.12833 2.475264 -0.126484 -0.8944272 -6.592129e-05 -0.4472136 106 103 98 255 0.223267 0.294642
-0.12833 1.459832 -0.126476 -0.08875869 0.9950593 -0.04448564 97 95 95 255 0.199079 0.278837
0.414303 1.459548 0.009247 0.9855844 0.05105576 -0.1612973 106 103 98 255 0.223267 0.294642
-0.414875 0.508018 -0.412224 -0.8322734 -0.002832458 -0.5543582 106 103 98 255 0.223267 0.294642
0.414932 0.441645 -0.126484 0.2575215 0.9305195 -0.2604154 97 95 95 255 0.199079 0.278837
0.310539 5.021899 -0.075602 0.3394591 0.9406117 0.004158088 120 120 119 255 0.199079 0.303629
0.414932 3.052393 -0.126427 0.08565777 -0.9752615 -0.2037834 97 95 95 255 0.199079 0.278837
0.348759 0.957219 -0.07296 0.2283688 0.9467131 -0.2271166 97 95 95 255 0.199079 0.278837
0.34758 3.500392 -0.07455 0.2874827 0.8182472 -0.4978205 97 95 95 255 0.199079 0.278837
-0.059132 3.007383 -0.052715 -0.7251031 0.6036789 -0.3313567 97 95 95 255 0.199079 0.278837
-0.060978 1.466633 -0.074657 -0.3569334 0.6284972 -0.6910787 97 95 95 255 0.199079 0.278837
0.372162 1.463768 -0.10643 0.5892454 0.7490654 -0.3028049 97 95 95 255 0.199079 0.278837
-0.12833 1.018777 -0.126419 -0.707112 -9.140168e-05 -0.7071015 106 103 98 255 0.223267 0.294642
-0.12833 0.441647 -0.126476 -0.1698355 0.9721361 -0.1615772 97 95 95 255 0.199079 0.278837
-0.059349 3.536377 -0.05276 -0.3847423 -0.5974822 -0.7035541 97 95 95 255 0.199079 0.278837
-0.082378 2.990073 -0.090908 -0.07957456 0.9857369 -0.1482924 97 95 95 255 0.199079 0.278837
0.41077 2.990073 -0.259197 0.9789736 0.07866394 -0.1882095 120 120 119 255 0.199079 0.303629
0.414932 2.793798 -0.02718 0.9987401 -0.04935574 -0.00907373 120 120 119 255 0.199079 0.303629
0.414932 0.000593 -0.126427 -0.0007897174 -0.9999994 -0.0007943228 97 95 95 255 0.199079 0.278837
-0.4147 4.008258 -0.412082 -0.7081116 -1.261192e-05 -0.7061006 106 103 98 255 0.223267 0.294642
-0.208004 0.956463 -0.414753 -0.007848862 0.972691 -0.2319712 97 95 95 255 0.199079 0.278837
0.376099 2.55199 -0.076576 0.3642497 -0.9290848 -0.06421482 97 95 95 255 0.199079 0.278837
0.414299 1.974644 -0.415867 0.832405 -0.006047639 -0.5541347 120 120 119 255 0.199079 0.303629
0.3302 0.992938 -0.05714 0.7002887 -0.1720258 -0.6928225 97 95 95 255 0.199079 0.278837
0.412697 4.989512 -0.091517 0.8956623 0.4313608 0.1082444 120 120 119 255 0.199079 0.303629
0.348473 1.524459 -0.072445 0.3297329 -0.7402337 -0.585944 97 95 95 255 0.199079 0.278837
-0.12833 4.0701 -0.126418 -0.7073074 -9.137615e-05 -0.7069061 120 120 119 255 0.199079 0.303629
-0.05957 3.03152 -0.053703 -0.3213907 -0.7014655 -0.6361243 97 95 95 255 0.199079 0.278837
-0.414944 4.892322 -0.415175 -0.7021084 0.01350907 -0.7119419 120 120 119 255 0.199079 0.303629
0.173607 3.008841 -0.056915 -0.0142712 0.4649945 -0.8851986 97 95 95 255 0.199079 0.278837
0.412926 2.158514 -0.12542 0.70618 -0.006850617 -0.7079993 106 103 98 255 0.223267 0.294642
-0.12833 0.000591 -0.126419 -0.707112 -9.140146e-05 -0.7071015 120 120 119 255 0.199079 0.303629
0.32935 4.07037 -0.12638 0.3157296 -0.06147731 -0.9468555 120 120 119 255 0.199079 0.303629
0.348251 2.034151 -0.12674 0.2751579 -0.9169766 -0.2888634 97 95 95 255 0.199079 0.278837
-0.403172 1.526203 -0.412113 -9.231819e-05 -1 9.220005e-05 97 95 95 255 0.199079 0.278837
0.413193 1.526203 -0.414753 0.01582483 -0.9998747 -0.0004034322 97 95 95 255 0.199079 0.278837
0.414932 0.837922 -0.416512 0.5818399 -0.1243668 -0.8037383 106 103 98 255 0.223267 0.294642
0.413055 2.541632 -0.414619 0.7380447 0.05877956 -0.6721867 120 120 119 255 0.199079 0.303629
-0.4147 2.990073 -0.412083 -0.705014 -0.007954547 -0.7091488 120 120 119 255 0.199079 0.303629
0.414932 4.591094 -0.416491 0.7088324 0.004250422 -0.7053642 120 120 119 255 0.199079 0.303629
0.414677 2.57605 -0.287498 0.9940274 -0.08418466 0.06944406 120 120 119 255 0.199079 0.303629
0.413059 5.025967 -0.414622 0.3528118 0.7868404 -0.5063655 120 120 119 255 0.199079 0.303629
0.413059 4.008258 -0.414622 0.6599113 -0.04662273 -0.7498956 106 103 98 255 0.223267 0.294642
0.129227 0.942248 -0.416519 0.04834438 0.6957514 -0.7166539 97 95 95 255 0.199079 0.278837
-0.414944 0.941069 -0.414955 -0.7066132 -0.004574895 -0.7075852 106 103 98 255 0.223267 0.294642
0.399799 0.936353 -0.394314 0.5098106 0.6492213 -0.564451 97 95 95 255 0.199079 0.278837
0.350071 3.559817 -0.41159 0.6116869 -0.09123063 -0.785822 106 103 98 255 0.223267 0.294642
0.15604 0.508018 -0.414433 0.0005105555 -0.9999956 -0.002929986 97 95 95 255 0.199079 0.278837
0.311195 2.975892 -0.416519 -0.002908737 0.9988897 -0.04701916 97 95 95 255 0.199079 0.278837
-0.402885 5.011787 -0.416518 -0.5581916 0.6017573 -0.5712357 120 120 119 255 0.199079 0.303629
-0.402885 4.59172 -0.416518 -0.700431 -0.02491184 -0.7132851 120 120 119 255 0.199079 0.303629
-0.402885 2.555827 -0.416519 -0.7007796 -0.01178045 -0.7132806 120 120 119 255 0.199079 0.303629
-0.12833 4.194407 0.416268 -0.4870912 -0.3319283 0.8078154 97 95 95 255 0.199079 0.278837
-0.043068 4.069885 0.416513 -0.2992196 -0.8189385 0.4897013 97 95 95 255 0.199079 0.278837
0.286404 3.930223 0.416524 -2.153764e-05 -0.001073809 0.9999995 106 103 98 255 0.223267 0.294642
0.413269 3.994501 0.416524 0.8944827 -0.001138186 0.4471011 106 103 98 255 0.223267 0.294642
-0.414886 4.008258 0.416463 -0.8945367 0.0001934526 0.4469944 106 103 98 255 0.223267 0.294642
-0.12833 2.475264 0.416256 -0.7071068 2.454962e-05 0.7071068 106 103 98 255 0.223267 0.294642
0.414932 2.475265 0.416256 0.3208205 -0.02796586 0.946727 106 103 98 255 0.223267 0.294642
-0.026253 2.03376 0.399899 -0.1954793 -0.8723797 0.4480419 97 95 95 255 0.199079 0.278837
-0.12833 2.158514 0.416267 -0.8410742 -0.2999482 0.4501393 97 95 95 255 0.199079 0.278837
-0.025936 1.63841 0.416523 0.03863677 -0.1342315 0.9901965 97 95 95 255 0.199079 0.278837
-0.414944 1.526358 0.416512 0.01429575 -0.9414682 0.3367984 97 95 95 255 0.199079 0.278837
0.028927 1.530751 0.399788 -0.01354799 -0.8069503 0.5904641 97 95 95 255 0.199079 0.278837
0.414932 1.018778 0.416199 -0.0006057731 -0.9997523 -0.0222484 97 95 95 255 0.199079 0.278837
-0.12833 1.018777 0.416203 -0.1417114 -0.9881249 0.05938904 97 95 95 255 0.199079 0.278837
0.414917 0.1398 0.416271 0.4230007 -0.3189615 0.8481356 97 95 95 255 0.199079 0.278837
-0.12833 0.000591 0.416203 0.0003700308 -0.9482708 0.3174625 97 95 95 255 0.199079 0.278837
-0.12833 4.512035 0.400388 -0.0851697 0.9881201 0.1279247 97 95 95 255 0.199079 0.278837
0.328091 4.507212 0.408196 0.1963206 0.9009904 0.386878 97 95 95 255 0.199079 0.278837
0.41301 4.511165 0.318677 0.2926105 0.947716 0.1273322 97 95 95 255 0.199079 0.278837
-0.12833 3.493446 0.416257 -0.07652926 0.9805128 0.1809361 97 95 95 255 0.199079 0.278837
0.414932 3.493447 0.416257 0.1344328 0.9828425 0.1262874 97 95 95 255 0.199079 0.278837
-0.414886 2.990073 0.416462 -0.002865835 0.9999947 0.001571871 97 95 95 255 0.199079 0.278837
0.289162 2.990073 0.416439 -0.003180643 0.8402748 0.5421513 97 95 95 255 0.199079 0.278837
0.34481 1.476776 0.341293 0.3269963 0.7222121 0.6094942 97 95 95 255 0.199079 0.278837
-0.12833 1.459831 0.416256 -0.04345096 0.9711791 0.2343571 97 95 95 255 0.199079 0.278837
0.414932 1.41646 0.416359 0.1111712 0.8228336 0.5573024 97 95 95 255 0.199079 0.278837
-0.003887 0.508021 0.416191 -0.06417922 -0.9766606 0.204976 97 95 95 255 0.199079 0.278837
-0.414944 0.508174 0.416512 -0.001266215 -0.9999985 0.001167377 97 95 95 255 0.199079 0.278837
0.251522 3.052296 0.416524 0.09834581 -0.8951943 0.43469 97 95 95 255 0.199079 0.278837
0.382877 3.079938 0.388761 0.5141162 -0.7064978 0.4863594 97 95 95 255 0.199079 0.278837
0.414932 2.034207 0.416199 0.01088109 -0.9998474 0.01367288 97 95 95 255 0.199079 0.278837
-0.285275 0.955901 0.416523 -0.07123238 0.9884846 0.1335073 97 95 95 255 0.199079 0.278837
0.411201 0.955121 0.416386 0.0447142 0.9896038 0.136693 97 95 95 255 0.199079 0.278837
-0.285275 0.955901 0.416523 -0.6951693 0.5143273 0.5022023 120 120 119 255 0.199079 0.303629
-0.414833 0.780968 0.41634 -0.6951693 0.5143273 0.5022023 120 120 119 255 0.199079 0.303629
0.41066 0.508018 0.416451 0.1757609 -0.9442688 0.2783246 97 95 95 255 0.199079 0.278837
0.175819 0.4431 0.415958 0.02652941 0.9381973 0.3450827 97 95 95 255 0.199079 0.278837
0.414932 0.441647 0.416256 0.05784934 0.9960854 0.06683799 97 95 95 255 0.199079 0.278837
0.410568 4.577715 0.339391 0.2197817 -0.9414584 0.2556407 97 95 95 255 0.199079 0.278837
0.333225 4.577581 0.416383 0.0001523914 -0.9999987 -0.001587238 97 95 95 255 0.199079 0.278837
-0.025936 4.577526 0.416448 -0.175489 -0.8965878 0.4066126 97 95 95 255 0.199079 0.278837
0.414932 4.0701 0.4162 0.05502165 -0.9969094 0.05607502 97 95 95 255 0.199079 0.278837
-0.12833 3.052391 0.416203 -0.1910947 -0.9750429 0.1130226 97 95 95 255 0.199079 0.278837
0.407608 2.97333 0.413239 0.3666269 0.9083741 0.2011003 97 95 95 255 0.199079 0.278837
-0.058487 2.524752 0.340733 -0.4416818 -0.8302056 0.3401118 97 95 95 255 0.199079 0.278837
0.410522 2.541633 0.416267 0.1446036 -0.9848323 0.09589079 97 95 95 255 0.199079 0.278837
-0.414944 1.971096 0.416512 -0.004619723 0.999988 0.001671165 97 95 95 255 0.199079 0.278837
-0.04847 1.972789 0.416523 -0.2389054 0.9620584 0.1317877 97 95 95 255 0.199079 0.278837
0.411247 1.97249 0.416523 0.03127003 0.9992588 0.02245219 97 95 95 255 0.199079 0.278837
-0.412804 3.561785 0.32377 -0.023545 -0.9980133 0.05843939 97 95 95 255 0.199079 0.278837
-0.103737 3.560479 0.415734 -0.3215542 -0.9135458 0.2490724 97 95 95 255 0.199079 0.278837
-0.245987 3.56634 0.405057 -0.05287599 -0.9850901 0.1637123 97 95 95 255 0.199079 0.278837
0.410522 3.559817 0.416272 0.3442422 -0.9217793 0.1783826 97 95 95 255 0.199079 0.278837
-0.042938 0.44257 0.416229 -0.5042807 0.8039147 0.315313 97 95 95 255 0.199079 0.278837
0.414932 3.051761 0.246979 0.4421307 -0.8920268 0.09385347 97 95 95 255 0.199079 0.278837
-0.12833 0.441646 0.416256 -0.1730965 0.9845829 0.02518184 97 95 95 255 0.199079 0.278837
0.414932 3.493445 -0.126483 0.7071016 -8.979084e-05 -0.707112 106 103 98 255 0.223267 0.294642
-0.414944 1.972482 -0.412796 -0.8921087 -0.01247637 -0.4516487 120 120 119 255 0.199079 0.303629
0.414856 -0 0.246922 1 -7.396423e-05 -3.850336e-05 120 120 119 255 0.199079 0.303629
0.410732 4.008258 -0.181167 0.9999845 0.004743986 0.002911426 106 103 98 255 0.223267 0.294642
0.39994 2.551296 0.026524 0.9960483 -0.05248064 -0.07164865 120 120 119 255 0.199079 0.303629
-0.414913 4.577537 0.308522 -0.01408661 -0.9997853 0.01519658 97 95 95 255 0.199079 0.278837
-0.228867 4.581098 0.41446 -0.01820296 -0.9976863 0.06550404 97 95 95 255 0.199079 0.278837
0.412788 4.577526 -0.156638 0.00677842 -0.9995187 -0.03027306 97 95 95 255 0.199079 0.278837
0.412788 3.559817 -0.156634 0.09153269 -0.9926379 -0.07932088 97 95 95 255 0.199079 0.278837
0.414932 1.018779 -0.126427 0.08912047 -0.9829714 -0.160701 97 95 95 255 0.199079 0.278837
0.414932 4.511156 -0.126483 0.05488079 0.9931442 -0.1032127 97 95 95 255 0.199079 0.278837
-0.414692 3.559817 -0.412082 -0.04303817 -0.9990397 0.008211371 97 95 95 255 0.199079 0.278837
0.411263 0.954778 -0.259201 0.9999267 0.0003587501 0.01210252 106 103 98 255 0.223267 0.294642
-0.414883 2.541632 0.416451 -0.0273501 -0.998105 0.0551207 97 95 95 255 0.199079 0.278837
-0.125778 2.541632 0.416447 3.005855e-06 -0.976037 0.2176049 97 95 95 255 0.199079 0.278837
0.414932 2.475263 -0.126484 0.05180065 0.9938125 -0.09825244 97 95 95 255 0.199079 0.278837
0.414932 2.034402 -0.031189 0.9998842 -0.003215451 -0.01487557 106 103 98 255 0.223267 0.294642
0.407646 1.466258 0.339176 0.9993843 0.03176734 -0.01489185 106 103 98 255 0.223267 0.294642
-0.414913 0.954732 0.23827 -0.02931391 0.9995454 -0.007051125 97 95 95 255 0.199079 0.278837
0.412067 0.508018 -0.312386 0.001204606 -0.999999 -0.0007055555 97 95 95 255 0.199079 0.278837
-0.12801 4.070427 0.365518 -0.9999995 -0.001041643 -0.0002826875 120 120 119 255 0.199079 0.303629
-0.12833 3.493446 -0.126475 -0.707112 -8.980125e-05 -0.7071016 106 103 98 255 0.223267 0.294642
-0.12833 1.459832 -0.126476 -0.7002522 0.0173331 -0.7136852 106 103 98 255 0.223267 0.294642
-0.414913 0.954732 0.23827 -1 -0.0002321604 0.0001010176 106 103 98 255 0.223267 0.294642
0.414932 0.441645 -0.126484 0.8944623 -0.0001347869 -0.4471434 120 120 119 255 0.199079 0.303629
0.4133 4.071392 0.009336 0.9583029 -0.08756457 -0.2720076 120 120 119 255 0.199079 0.303629
0.414303 1.459548 0.009247 0.158379 0.987213 -0.01807424 97 95 95 255 0.199079 0.278837
-0.12833 3.052392 -0.126419 -0.2021912 -0.9745557 -0.09674722 97 95 95 255 0.199079 0.278837
0.364677 1.524275 0.324028 0.8957929 -0.4443306 0.01120012 97 95 95 255 0.199079 0.278837
-0.12833 1.018777 -0.126419 -0.1655621 -0.9735554 -0.1574133 97 95 95 255 0.199079 0.278837
-0.12833 0.441647 -0.126476 -0.707112 -9.140188e-05 -0.7071015 120 120 119 255 0.199079 0.303629
0.41077 2.990073 -0.259197 0.02152142 0.9996012 -0.01828162 97 95 95 255 0.199079 0.278837
0.406162 1.529166 0.306374 0.0831329 -0.9965385 -0.0002776176 97 95 95 255 0.199079 0.278837
-0.12833 4.511156 -0.126475 -0.08114061 0.9936078 -0.07848398 97 95 95 255 0.199079 0.278837
-0.12833 4.0701 -0.126418 -0.05880239 -0.9921141 -0.110688 97 95 95 255 0.199079 0.278837
0.376099 2.55199 -0.076576 0.9878387 -0.1514919 -0.03499914 120 120 119 255 0.199079 0.303629
-0.12833 2.475264 -0.126484 -0.07773019 0.9942415 -0.07376887 97 95 95 255 0.199079 0.278837
0.414932 0.000593 -0.126427 0.4472395 -0.0001156144 -0.8944142 120 120 119 255 0.199079 0.303629
0.414932 3.052393 -0.126427 0.7071016 -8.977912e-05 -0.707112 106 103 98 255 0.223267 0.294642
-0.12833 2.034207 -0.126419 -0.4474546 0.0002391031 -0.8943067 106 103 98 255 0.223267 0.294642
0.32935 4.07037 -0.12638 0.180531 -0.9650854 -0.1897858 97 95 95 255 0.199079 0.278837
0.414299 1.974644 -0.415867 0.01063634 0.9999413 -0.002080086 97 95 95 255 0.199079 0.278837
0.372162 1.463768 -0.10643 0.5873263 0.09258268 -0.8040375 106 103 98 255 0.223267 0.294642
-0.4147 4.008258 -0.412082 -0.0003672937 0.9999774 -0.006712977 97 95 95 255 0.199079 0.278837
0.412926 2.158514 -0.12542 0.7563727 -0.3877603 -0.5268229 97 95 95 255 0.199079 0.278837
-0.12833 0.000591 -0.126419 3.681386e-06 -1 0 97 95 95 255 0.199079 0.278837
0.348251 2.034151 -0.12674 0.0132595 -0.001424112 -0.9999111 106 103 98 255 0.223267 0.294642
0.413193 1.526203 -0.414753 0.709406 -0.003500495 -0.7047915 120 120 119 255 0.199079 0.303629
-0.414875 0.508018 -0.412224 -0.001681306 -0.9999974 -0.001539226 97 95 95 255 0.199079 0.278837
0.413059 4.008258 -0.414622 0 1 0 97 95 95 255 0.199079 0.278837
0.414677 2.57605 -0.287498 0.6077943 -0.792012 0.05747217 97 95 95 255 0.199079 0.278837
0.413055 2.541632 -0.414619 0.4389889 -0.894832 0.0810219 97 95 95 255 0.199079 0.278837
0.414932 0.837922 -0.416512 0.4476925 0.1650504 -0.878823 97 95 95 255 0.199079 0.278837
-0.414944 0.941069 -0.414955 -0.07414725 0.9970294 -0.02085056 97 95 95 255 0.199079 0.278837
-0.402885 4.59172 -0.416518 -0.009959351 -0.9992701 -0.03688022 97 95 95 255 0.199079 0.278837
0.414932 4.591094 -0.416491 -0.0007627954 -0.998639 -0.05214908 97 95 95 255 0.199079 0.278837
0.350071 3.559817 -0.41159 0 -1 0 97 95 95 255 0.199079 0.278837
-0.4147 2.990073 -0.412083 0.009703658 0.9999025 -0.01004044 97 95 95 255 0.199079 0.278837
0.311195 2.975892 -0.416519 0.4660098 0.1054637 -0.8784716 120 120 119 255 0.199079 0.303629
-0.402885 2.555827 -0.416519 -0.01452479 -0.9996492 -0.02215152 97 95 95 255 0.199079 0.278837
-0.403172 1.526203 -0.412113 -0.4469575 -0.0135409 -0.8944528 120 120 119 255 0.199079 0.303629
-0.208004 0.956463 -0.414753 -0.00197474 -0.004571865 -0.9999876 106 103 98 255 0.223267 0.294642
0.15604 0.508018 -0.414433 0.118803 -0.09965758 -0.987904 106 103 98 255 0.223267 0.294642
3 0 1 2 
3 1 3 2 
3 1 4 3 
3 4 5 6 
3 4 6 3 
3 2 3 7 
3 2 7 8 
3 9 10 11 
3 11 10 12 
3 13 9 14 
3 9 11 14 
3 202 15 203 
3 16 17 18 
3 19 16 18 
3 204 20 21 
3 205 204 21 
3 204 206 22 
3 204 22 20 
3 20 22 23 
3 24 25 26 
3 25 24 27 
3 24 26 28 
3 24 28 27 
3 26 29 28 
3 30 31 32 
3 31 33 32 
3 34 30 32 
3 33 35 36 
3 37 34 32 
3 32 33 36 
3 32 36 38 
3 32 38 37 
3 39 40 41 
3 207 42 208 
3 208 42 43 
3 208 43 44 
3 209 210 45 
3 46 47 48 
3 48 51 49 
3 50 48 47 
3 51 50 52 
3 211 212 213 
3 53 51 52 
3 54 55 56 
3 55 57 56 
3 214 215 58 
3 59 60 61 
3 60 62 61 
3 61 63 64 
3 63 61 62 
3 65 66 67 
3 68 69 70 
3 66 68 70 
3 67 66 70 
3 216 217 71 
3 1 5 4 
3 72 218 219 
3 220 72 219 
3 73 221 222 
3 74 223 224 
3 75 213 212 
3 225 226 227 
3 76 214 58 
3 77 228 229 
3 217 78 71 
3 230 79 231 
3 209 80 232 
3 225 81 226 
3 82 225 227 
3 83 233 234 
3 235 84 236 
3 85 237 228 
3 86 238 239 
3 240 241 242 
3 15 243 203 
3 87 17 16 
3 88 87 16 
3 88 16 19 
3 89 88 19 
3 90 23 22 
3 91 230 244 
3 91 79 230 
3 79 224 245 
3 246 92 247 
3 45 93 209 
3 93 80 209 
3 94 248 249 
3 95 249 250 
3 96 83 234 
3 77 85 228 
3 242 97 72 
3 240 242 72 
3 218 72 97 
3 243 15 88 
3 15 87 88 
3 251 252 253 
3 254 252 73 
3 73 252 98 
3 221 73 98 
3 74 224 91 
3 224 79 91 
3 33 31 35 
3 92 246 39 
3 92 39 41 
3 208 44 99 
3 249 95 93 
3 95 80 93 
3 213 75 225 
3 100 51 53 
3 100 101 51 
3 225 75 81 
3 58 215 83 
3 76 58 83 
3 76 83 96 
3 237 85 86 
3 255 238 85 
3 238 86 85 
3 216 71 78 
3 102 2 8 
3 103 13 14 
3 15 104 87 
3 25 27 105 
3 79 256 231 
3 91 106 74 
3 246 107 39 
3 40 39 107 
3 108 257 255 
3 108 255 85 
3 109 73 222 
3 258 25 105 
3 80 110 232 
3 46 259 47 
3 65 67 260 
3 220 111 72 
3 22 112 90 
3 251 113 252 
3 92 114 247 
3 206 112 22 
3 261 205 115 
3 115 205 21 
3 34 37 262 
3 116 92 41 
3 117 95 250 
3 0 2 102 
3 263 242 264 
3 72 118 240 
3 0 102 119 
3 72 111 118 
3 118 265 240 
3 218 97 120 
3 121 122 88 
3 89 121 88 
3 113 123 252 
3 254 73 124 
3 124 266 254 
3 252 123 98 
3 79 125 256 
3 126 80 95 
3 117 126 95 
3 212 127 75 
3 127 81 75 
3 128 54 56 
3 76 267 214 
3 83 129 233 
3 237 86 130 
3 220 268 111 
3 10 131 12 
3 122 132 88 
3 132 243 88 
3 133 17 87 
3 133 87 104 
3 269 113 251 
3 45 134 93 
3 215 135 83 
3 136 96 234 
3 270 61 137 
3 138 0 119 
3 139 242 263 
3 242 139 97 
3 271 246 272 
3 116 41 140 
3 273 140 41 
3 99 44 274 
3 134 141 93 
3 142 249 93 
3 77 143 85 
3 144 223 74 
3 271 145 246 
3 116 114 92 
3 142 94 249 
3 275 54 128 
3 129 276 233 
3 229 143 77 
3 138 1 0 
3 139 120 97 
3 210 134 45 
3 61 64 137 
3 277 237 130 
3 138 119 146 
3 12 131 278 
3 98 147 221 
3 26 279 148 
3 245 149 79 
3 207 150 42 
3 81 151 226 
3 152 275 128 
3 55 280 57 
3 60 281 153 
3 60 153 62 
3 154 86 239 
3 282 65 260 
3 155 1 138 
3 103 14 283 
3 26 148 29 
3 244 106 91 
3 125 156 256 
3 125 79 149 
3 284 225 82 
3 136 157 96 
3 124 73 158 
3 109 158 73 
3 285 106 244 
3 106 159 74 
3 144 74 159 
3 141 142 93 
3 127 160 81 
3 286 225 161 
3 284 161 225 
3 280 162 57 
3 287 135 215 
3 135 129 83 
3 163 257 108 
3 69 288 70 
3 269 164 113 
3 113 164 123 
3 165 223 144 
3 166 34 167 
3 262 167 34 
3 246 145 107 
3 85 143 108 
3 217 168 78 
3 146 155 138 
3 206 169 112 
3 165 144 159 
3 289 149 245 
3 170 276 129 
3 123 147 98 
3 116 171 114 
3 172 51 101 
3 157 173 96 
3 174 146 119 
3 175 290 286 
3 120 291 218 
3 131 176 278 
3 292 104 15 
3 106 177 159 
3 126 110 80 
3 49 51 172 
3 76 173 267 
3 1 178 5 
3 174 119 102 
3 106 285 177 
3 167 262 293 
3 107 294 40 
3 175 286 161 
3 160 151 81 
3 96 173 76 
3 130 86 154 
3 295 282 260 
3 139 118 120 
3 118 111 120 
3 104 122 121 
3 133 104 121 
3 124 158 164 
3 158 123 164 
3 258 105 296 
3 177 156 125 
3 177 179 159 
3 177 125 179 
3 125 149 179 
3 165 159 179 
3 165 179 149 
3 145 116 107 
3 116 140 107 
3 273 107 140 
3 99 274 180 
3 297 42 150 
3 141 126 142 
3 126 117 142 
3 127 175 160 
3 160 175 161 
3 287 267 135 
3 267 173 135 
3 135 173 129 
3 157 129 173 
3 143 130 108 
3 130 154 108 
3 288 181 70 
3 174 155 146 
3 103 283 182 
3 298 132 122 
3 109 123 158 
3 141 183 126 
3 183 110 126 
3 250 299 117 
3 128 300 152 
3 265 118 139 
3 292 122 104 
3 292 298 122 
3 301 133 121 
3 89 301 121 
3 269 266 164 
3 266 124 164 
3 109 147 123 
3 273 294 107 
3 302 110 183 
3 299 142 117 
3 185 127 184 
3 185 290 175 
3 151 160 161 
3 170 129 157 
3 136 170 157 
3 186 270 137 
3 143 277 130 
3 303 168 217 
3 268 291 120 
3 268 120 111 
3 285 156 177 
3 187 166 167 
3 31 188 35 
3 134 183 141 
3 154 163 108 
3 174 102 189 
3 131 103 182 
3 131 182 176 
3 279 258 148 
3 148 258 296 
3 289 165 149 
3 190 167 293 
3 297 150 99 
3 99 180 304 
3 99 304 297 
3 172 101 305 
3 212 184 127 
3 280 300 128 
3 280 128 162 
3 306 143 229 
3 282 295 288 
3 288 295 181 
3 187 167 190 
3 191 1 155 
3 192 261 115 
3 174 191 155 
3 191 174 189 
3 307 301 89 
3 308 171 116 
3 309 308 116 
3 136 193 170 
3 281 194 153 
3 195 136 310 
3 192 115 196 
3 143 197 277 
3 198 165 289 
3 299 94 142 
3 170 311 276 
3 195 193 136 
3 191 199 1 
3 1 199 178 
3 5 178 200 
3 312 139 263 
3 312 265 139 
3 312 313 265 
3 301 17 133 
3 269 314 266 
3 315 223 165 
3 198 315 165 
3 316 166 187 
3 188 201 35 
3 317 145 271 
3 317 116 145 
3 317 309 116 
3 47 259 318 
3 197 143 306 
3 199 191 178 
3 191 189 178 
3 178 189 200 
3 169 192 112 
3 192 196 112 
3 188 316 187 
3 188 187 201 
3 259 172 318 
3 172 305 318 
3 319 153 194 
3 193 195 310 
3 153 319 320 
3 193 310 170 
3 319 186 320 
3 186 137 320 
3 48 50 51 
3 185 175 127 
