ply
format ascii 1.0
comment INFO-3111 Flatenator generated
comment TextureFile Dungeons_Texture_01.png
element vertex 14
property float x
property float y
property float z
property float nx
property float ny
property float nz
property uchar red
property uchar green
property uchar blue
property uchar alpha
property float texture_u
property float texture_v
element face 24
property list uchar int vertex_indices
end_header
0.307379 0.05029 0.181581 0.591401 0.501594 0.631386 120 116 110 255 0.211923 0.303946 
0.307379 0.10058 -0.043025 0.725942 0.685934 0.0500317 120 116 110 255 0.211923 0.303946 
-0.041401 0.10058 0.181581 0.0235418 0.839117 0.543441 120 116 110 255 0.211923 0.303946 
0.307379 0.10058 -0.09079 0.767719 0.621209 -0.157187 120 116 110 255 0.211923 0.303946 
0.307379 0.05029 -0.181581 0.602332 0.397242 -0.692384 120 116 110 255 0.211923 0.303946 
0.153688 0.10058 -0.181581 0.0531162 0.741386 -0.668973 120 116 110 255 0.211923 0.303946 
-0.307377 -0.10058 -0.181581 -0.534522 -0.267261 -0.801784 120 116 110 255 0.211923 0.303946 
0.307379 -0.10058 -0.181581 0.727607 -0.485071 -0.485071 120 116 110 255 0.211923 0.303946 
0.307379 -0.10058 0.181581 0.666667 -0.333333 0.666667 120 116 110 255 0.211923 0.303946 
-0.307377 -0.10058 0.181581 -0.57735 -0.57735 0.57735 120 116 110 255 0.211923 0.303946 
-0.307377 0.05029 -0.181581 -0.631235 0.380288 -0.675961 120 116 110 255 0.211923 0.303946 
-0.307377 0.10058 -0.09079 -0.761904 0.639487 -0.102756 120 116 110 255 0.211923 0.303946 
-0.192112 0.10058 -0.181581 -0.0950275 0.750809 -0.653648 120 116 110 255 0.211923 0.303946 
-0.307377 0.10058 0.181581 -0.57735 0.57735 0.57735 120 116 110 255 0.211923 0.303946 
3 0 1 2
3 3 4 5
3 7 9 6
3 10 11 12
3 8 0 2
3 3 1 7
3 12 11 2
3 6 5 7
3 9 13 11
3 7 8 9
3 13 9 2
3 9 8 2
3 0 8 1
3 8 7 1
3 7 4 3
3 11 13 2
3 2 1 5
3 1 3 5
3 5 12 2
3 6 10 12
3 12 5 6
3 5 4 7
3 10 6 11
3 6 9 11
