ply
format ascii 1.0
comment INFO-3111 Flatenator generated
comment TextureFile Dungeons_Texture_01.png
element vertex 482
property float x
property float y
property float z
element face 698
property list uchar int vertex_indices
end_header
0.000523 0.036695 0.000509 
0 0 0 
0 0 0.664061 
0.000893 0.03668 2.61719 
0.000843 0.036715 1.81641 
0 0 1.97266 
0 -1e-06 3.22266 
0 0.029344 3.1836 
0 -1e-06 3.45703 
0.003273 0.017899 3.90625 
0.016003 0.026864 4.9359 
0 -1e-06 4.31641 
0.003242 0.036635 0.78125 
0 0 1.07422 
0 -1e-06 5 
0.061623 0.039155 2.34603 
0.085083 0.048349 4.25281 
0.081932 0.0385 0.70372 
0.093201 0.046455 2.54373 
0.108402 0.051799 4.07573 
0.08551 0.047904 4.81943 
0.800793 0 0 
1.09375 -0.006746 4.27735 
0.093952 0.04799 1.71029 
0.103653 0.084219 4.28068 
0.172813 0.094444 4.25446 
0.112312 0.087115 2.35172 
0.117615 0.08821 1.53105 
0.132042 0.091719 3.46872 
0.114494 0.082385 3.02254 
0.09391 0.047979 3.69638 
0.113453 0.072644 4.06816 
0.169582 0.094669 4.84148 
0.138962 0.094635 0.26025 
0.162323 0.092895 0.09367 
0.097824 0.058285 0.4067 
0.138855 0.094675 0.698009 
0.14518 0.09421 0.86937 
0.045914 0.03437 0.059879 
0.144932 0.0934 2.59151 
0.234833 0.027459 4.14352 
0.567635 0.03938 2.52083 
0.234383 0.036684 4.99914 
0.224682 0.094585 1.53105 
0.224663 0.094639 4.08236 
0.182495 0.06839 0.03178 
0.171005 0.046259 4.2097 
0.244644 0.04801 0.820459 
0.275223 0.038825 2.36328 
0.778393 0.09467 0.697939 
0.242992 0.092734 3.46872 
0.243294 0.09467 2.36006 
0.376713 0.09466 0.822319 
0.285622 0.094115 2.5445 
0.742752 0.038934 4.92109 
0.458275 0.044179 4.08124 
0.774231 0.094245 1.12196 
0.653671 0.094639 4.08236 
0.769112 0.094669 4.21218 
0.424881 0.094374 4.85308 
0.567635 0.03752 0.00223 
0.518005 0.09467 2.31278 
0.576744 0.093715 2.54475 
0.766754 0.085845 0.050159 
2.77344 -0.006746 4.70703 
0.781002 0.03807 0.70285 
0.767685 0.093094 4.85156 
0.787685 0.039914 4.06117 
0.779625 0.088085 0.82122 
0.779701 0.03823 2.36268 
0.779663 0.08781 2.02476 
0.781033 0.039004 4.2205 
0.722664 0.036714 4.99919 
0.761433 0.07597 2.34569 
0.773651 0.094045 2.72279 
0.763794 0.038795 2.52077 
0.74572 0.07233 2.56804 
0.840923 0.032505 0.79952 
1.19141 -1e-06 5 
0.769112 0.077864 4.03274 
0.774162 0.094244 3.34841 
0.771683 0.06445 2.16961 
0.922302 0.02436 0.01663 
0.781223 0.03855 0.04096 
0.806236 0.035695 1.07395 
0.770554 0.048184 4.75461 
0.780483 0.035645 1.99222 
0.754433 0.047335 2.74014 
0.781181 0.038489 3.37936 
0.984997 0.037304 3.97763 
0.830864 0.02094 2.67687 
0.850861 0.030199 3.30054 
0.880932 0.039499 4.5129 
0.900185 0.036005 0.723869 
0.849182 0.01834 2.04991 
0.911198 0.046005 2.54862 
0.906395 0.047669 4.22176 
0.967823 0.03953 1.44355 
1.0944 0.039389 4.2006 
0.916702 0.048094 4.86108 
0.909542 0.047714 3.48139 
0.914379 0.04685 0.912636 
1.13794 0.082675 1.38537 
1.03301 0.077375 1.27822 
1.06699 0.094735 2.86614 
1.0667 0.09525 2.12554 
1.06698 0.093979 3.77383 
0.909775 0.09467 0.206949 
0.959633 0.088605 0.076321 
1.02377 0.079105 1.93577 
1.07534 0.078389 3.9352 
0.910423 0.094455 0.718719 
0.910095 0.094299 4.83885 
0.9104 0.094464 4.22671 
0.949558 0.079955 0.957504 
1.1255 0.094404 4.2268 
1.17517 0.039079 4.06045 
1.34916 0.056904 4.2627 
1.07752 0.02646 0.713739 
1.16677 0.097905 1.70873 
2.84425 0.094579 3.8282 
1.10857 0.08572 0.961836 
1.18388 0.088855 1.21582 
1.58332 0.094645 0.224831 
1.1919 0.039254 4.92118 
1.46443 0.026949 4.98324 
2.28516 0 0 
1.39693 0.074594 4.04622 
1.21178 0.046185 0.90494 
1.24587 0.094669 4.5593 
1.40601 0.034665 0.01351 
1.37252 0.03886 0.755852 
1.28375 0.063099 4.3475 
1.07797 0.094669 4.87042 
1.5372 0.098275 1.18159 
1.70363 0.076795 0.04068 
1.34121 0.074959 4.88391 
1.98338 0.094744 3.78832 
1.46775 0.02792 0.902941 
1.53722 0.09607 1.02551 
1.5232 0.028969 4.07759 
1.55725 0.094669 4.63923 
1.43833 0.094669 4.34567 
1.55725 0.087719 4.2232 
1.57263 0.078994 4.84213 
2.18299 0.06519 0.04418 
1.7858 0.074435 0.707449 
1.64245 0.039234 4.9212 
1.58374 0.048364 4.22155 
1.69922 -1e-06 5 
1.93043 0.087399 3.90853 
1.63342 0.045035 0.954765 
1.71948 0.038815 0.722691 
1.70364 0.09467 0.63423 
1.90821 0.09556 1.02504 
2.44624 0.094434 4.22661 
2.2768 0.038464 4.04904 
1.75043 0.077105 0.48315 
1.87008 0.093939 4.90563 
1.875 0.036689 4.99914 
1.82122 0.077145 0.66482 
1.91876 0.08782 0.039209 
2.48067 0.031479 4.15696 
2.63672 -1e-06 5 
1.88311 0.09467 0.399189 
2.08952 0.036675 0.000509 
2.064 0.09431 0.71784 
2.15955 0.080689 4.88595 
2.44696 0.094675 0.29846 
2.4468 0.094324 4.85275 
2.22122 0.081894 4.02222 
2.3933 0.083395 0.096849 
2.7055 0.09503 1.02595 
2.44619 0.094455 0.71839 
2.44614 0.044345 0.04381 
2.98708 0.096005 1.37207 
2.53885 0.02457 0.02109 
2.44927 0.04802 0.721149 
2.46094 0.036679 4.99914 
2.58022 0.046905 0.316219 
2.57829 0.038815 0.732433 
2.73595 0.039535 0.963766 
2.55934 0.039144 4.21942 
2.637 0.026984 4.99588 
2.60841 0.047704 4.89373 
2.68002 0.084745 0.110889 
3.07722 0.039094 4.03179 
2.71485 0 0 
2.58131 0.09467 0.31979 
2.60116 0.081104 4.87967 
2.58191 0.094459 4.22666 
2.58191 0.09446 0.718689 
2.65788 0.062715 0.049231 
2.89192 0.067654 3.9223 
2.82122 0.038825 0.787354 
3.01277 0.094485 0.578381 
2.94182 0.08713 0.280809 
2.92775 0.08398 0.745716 
2.79295 0.039259 4.92119 
3.27783 0.06128 0.05018 
4.57031 -0.006745 1.15235 
2.88057 0.079155 0.104139 
3.03615 0.048129 4.22177 
2.86109 0.07992 1.04998 
3.09747 0.094359 4.87023 
3.37891 -1e-06 5 
2.92452 0.048135 0.969999 
2.94212 0.07503 1.04585 
3.11051 0.09443 0.263599 
3.15187 0.02864 0.871964 
3.18548 0.072825 0.738735 
3.02067 0.094845 1.02595 
3.06631 0.026089 4.97875 
3.3876 0.076179 4.05101 
3.8086 0 0 
3.26788 0.067845 1.43381 
3.27695 0.09467 0.63427 
3.14207 0.036235 0.786064 
3.39768 0.087319 4.84686 
4.02345 -1e-06 5 
3.23433 0.09556 1.61903 
3.67162 0.039079 4.06228 
3.37644 0.09513 1.46176 
3.42334 0.094214 4.22647 
3.28763 0.07682 0.923704 
3.5563 0.039234 4.92121 
3.39852 0.033484 4.99627 
3.72164 0.09485 2.44962 
3.69907 0.088385 0.093719 
3.40424 0.095305 1.76263 
3.52002 0.064794 4.23091 
3.8325 0.048465 0.038189 
3.52319 0.064845 1.7025 
3.53469 0.038815 0.819929 
3.79165 0.039414 4.20062 
3.63852 0.094309 4.22729 
3.51957 0.090639 4.8604 
3.54878 0.094225 1.02542 
3.81092 0.09486 1.30503 
3.68605 0.094245 0.71685 
4.11905 0.09466 0.22871 
3.62495 0.089335 1.70678 
3.78187 0.090884 3.85129 
4.04754 0.094669 4.79495 
3.96591 0.03858 0.996048 
4.01624 0.043224 3.96678 
4.04754 0.09467 0.675301 
3.98439 0.024379 4.9787 
3.99132 0.024759 4.08814 
3.86815 0.090385 1.21535 
4.12242 0.038814 4.21967 
3.73875 0.081415 1.04312 
3.87959 0.08445 1.90328 
4.11845 0.094319 4.90525 
4.11837 0.094459 4.22666 
4.09747 0.086115 0.716137 
4.06372 0.038115 0.782503 
3.78008 0.08785 2.07983 
4.57031 -0.006745 3.02735 
3.76209 0.088834 3.22362 
3.82782 0.09201 2.16932 
4.21861 0.036655 0.000441 
4.1019 0.08065 0.06706 
3.93244 0.080495 1.03153 
4.11827 0.034944 4.91755 
4.12226 0.038815 0.039419 
3.89525 0.088644 3.4364 
3.95281 0.077549 3.86817 
3.8813 0.087145 1.56633 
4.01935 0.03621 2.0156 
3.93037 0.07585 2.84132 
3.93699 0.087295 2.61869 
4.00973 0.038985 2.18451 
3.92017 0.074744 3.20268 
3.96703 0.03898 2.79892 
4.01065 0.038934 3.60286 
4.07662 0.016379 3.34813 
4.18841 0.02723 1.15194 
4.11161 0.02474 2.02472 
4.26538 0.04826 1.66448 
4.26969 0.039304 4.09217 
4.24018 0.039459 4.82681 
4.45313 -1e-06 5 
4.25946 0.03857 2.36412 
4.26724 0.04615 0.17716 
4.24456 0.03927 0.833258 
4.2459 0.036625 2.54199 
4.25662 0.043444 3.32601 
4.26508 0.047524 4.2083 
4.25501 0.043585 0.706413 
4.21368 0.047349 3.94158 
4.26662 0.04569 1.22654 
4.2685 0.09467 0.697939 
4.34324 0.08034 0.05806 
4.26797 0.094395 2.35957 
4.26796 0.0944 0.822849 
4.27083 0.082634 3.36145 
4.28677 0.07964 2.60533 
4.27479 0.080284 3.78192 
4.28898 0.069709 4.06105 
4.3281 0.093609 4.86326 
4.26817 0.094674 4.82152 
4.26851 0.094669 4.21218 
4.35563 0.057749 4.88826 
4.32867 0.093149 3.14285 
4.39854 0.094285 2.54365 
4.4417 0.09467 0.17672 
4.87101 0.093815 1.25541 
4.50225 0.093574 3.93764 
4.93952 0.04332 0.736301 
5 0 0 
4.47457 0.026264 4.16755 
4.88155 0.03587 0.79991 
4.96041 0.03848 2.36266 
4.95671 0.03199 2.50499 
4.62891 0.033704 4.98428 
4.89191 0.094589 3.74592 
4.8191 0.094669 4.84148 
4.89591 0.087885 0.688509 
4.56645 0.075299 4.07864 
4.94713 0.081859 4.88397 
4.85423 0.051434 4.07503 
5 0 1.54304 
4.86885 0.090295 0.16551 
5 -1e-06 5 
4.80127 0.08415 0.04673 
4.92188 0.068199 4.06376 
4.86654 0.085975 0.833691 
4.8404 0.094415 2.54359 
4.88024 0.087555 2.35112 
4.97727 0.031934 4.9216 
4.97847 0.023139 4.1381 
4.88819 0.089779 3.15651 
4.86575 0.094284 4.21168 
4.91664 0.089705 1.53072 
4.92075 0.089315 2.14368 
4.94313 0.071485 1.01334 
4.9212 0.077195 2.63383 
4.93354 0.07506 0.15797 
4.93612 0.07043 0.68866 
4.9423 0.066054 4.38517 
4.94065 0.06487 1.68707 
4.94529 0.056655 3.03596 
4.96023 0.039024 3.53771 
5 0 0.68346 
4.9937 0.03562 2.28519 
4.98709 0.03482 2.75389 
5 -1e-06 3.94531 
5 -1e-06 3.41797 
5 -1e-06 4.41406 
5 0 2.14844 
0.117615 0.08821 1.53105 
0.112312 0.087115 2.35172 
0.132042 0.091719 3.46872 
0.113453 0.072644 4.06816 
0.138855 0.094675 0.698009 
0.138962 0.094635 0.26025 
0.114494 0.082385 3.02254 
0.14518 0.09421 0.86937 
0.224663 0.094639 4.08236 
0.144932 0.0934 2.59151 
0.778393 0.09467 0.697939 
0.243294 0.09467 2.36006 
0.653671 0.094639 4.08236 
0.285622 0.094115 2.5445 
0.172813 0.094444 4.25446 
0.169582 0.094669 4.84148 
0.376713 0.09466 0.822319 
0.424881 0.094374 4.85308 
0.162323 0.092895 0.09367 
0.766754 0.085845 0.050159 
0.769112 0.094669 4.21218 
0.518005 0.09467 2.31278 
0.767685 0.093094 4.85156 
0.761433 0.07597 2.34569 
0.779625 0.088085 0.82122 
0.773651 0.094045 2.72279 
0.779663 0.08781 2.02476 
0.769112 0.077864 4.03274 
0.774231 0.094245 1.12196 
0.774162 0.094244 3.34841 
0.9104 0.094464 4.22671 
0.910095 0.094299 4.83885 
1.16677 0.097905 1.70873 
1.0667 0.09525 2.12554 
0.909775 0.09467 0.206949 
0.959633 0.088605 0.076321 
1.06699 0.094735 2.86614 
1.1255 0.094404 4.2268 
0.910423 0.094455 0.718719 
1.13794 0.082675 1.38537 
1.18388 0.088855 1.21582 
1.28375 0.063099 4.3475 
1.07797 0.094669 4.87042 
1.34121 0.074959 4.88391 
1.06698 0.093979 3.77383 
1.53722 0.09607 1.02551 
1.57263 0.078994 4.84213 
1.70363 0.076795 0.04068 
1.55725 0.094669 4.63923 
1.43833 0.094669 4.34567 
1.55725 0.087719 4.2232 
1.58332 0.094645 0.224831 
1.87008 0.093939 4.90563 
1.70364 0.09467 0.63423 
2.44624 0.094434 4.22661 
1.98338 0.094744 3.78832 
1.91876 0.08782 0.039209 
1.75043 0.077105 0.48315 
1.90821 0.09556 1.02504 
1.82122 0.077145 0.66482 
2.064 0.09431 0.71784 
2.4468 0.094324 4.85275 
2.3933 0.083395 0.096849 
2.7055 0.09503 1.02595 
2.44619 0.094455 0.71839 
2.44696 0.094675 0.29846 
2.58191 0.09446 0.718689 
2.58131 0.09467 0.31979 
2.68002 0.084745 0.110889 
2.88057 0.079155 0.104139 
2.92775 0.08398 0.745716 
2.84425 0.094579 3.8282 
2.98708 0.096005 1.37207 
2.58191 0.094459 4.22666 
2.60116 0.081104 4.87967 
3.09747 0.094359 4.87023 
2.94182 0.08713 0.280809 
3.01277 0.094485 0.578381 
3.27695 0.09467 0.63427 
3.23433 0.09556 1.61903 
3.39768 0.087319 4.84686 
3.42334 0.094214 4.22647 
3.69907 0.088385 0.093719 
3.40424 0.095305 1.76263 
3.37644 0.09513 1.46176 
3.02067 0.094845 1.02595 
3.51957 0.090639 4.8604 
3.63852 0.094309 4.22729 
3.54878 0.094225 1.02542 
4.04754 0.09467 0.675301 
3.62495 0.089335 1.70678 
4.04754 0.094669 4.79495 
3.73875 0.081415 1.04312 
3.78008 0.08785 2.07983 
3.78187 0.090884 3.85129 
4.11837 0.094459 4.22666 
4.11905 0.09466 0.22871 
3.93244 0.080495 1.03153 
3.87959 0.08445 1.90328 
3.89525 0.088644 3.4364 
3.82782 0.09201 2.16932 
3.8813 0.087145 1.56633 
3.86815 0.090385 1.21535 
3.93699 0.087295 2.61869 
3.93037 0.07585 2.84132 
3.92017 0.074744 3.20268 
4.34324 0.08034 0.05806 
4.2685 0.09467 0.697939 
4.26796 0.0944 0.822849 
4.26797 0.094395 2.35957 
4.27083 0.082634 3.36145 
4.27479 0.080284 3.78192 
4.50225 0.093574 3.93764 
4.28898 0.069709 4.06105 
4.32867 0.093149 3.14285 
4.3281 0.093609 4.86326 
4.26851 0.094669 4.21218 
4.56645 0.075299 4.07864 
4.8191 0.094669 4.84148 
4.89591 0.087885 0.688509 
4.86885 0.090295 0.16551 
4.92188 0.068199 4.06376 
4.39854 0.094285 2.54365 
4.86654 0.085975 0.833691 
4.87101 0.093815 1.25541 
4.88819 0.089779 3.15651 
4.8404 0.094415 2.54359 
4.92075 0.089315 2.14368 
4.86575 0.094284 4.21168 
4.91664 0.089705 1.53072 
4.89191 0.094589 3.74592 
3 0 1 2
3 3 4 5
3 3 5 6
3 7 3 6
3 7 6 8
3 9 7 8
3 10 9 11
3 12 0 2
3 4 12 13
3 10 11 14
3 4 13 5
3 9 8 11
3 15 4 3
3 16 9 10
3 2 13 12
3 17 0 12
3 18 15 3
3 7 18 3
3 16 19 9
3 20 16 10
3 2 21 13
3 21 5 13
3 22 8 6
3 23 4 15
3 8 22 11
3 22 14 11
3 24 25 16
3 26 27 23
3 28 29 30
3 28 30 31
3 32 20 10
3 33 34 35
3 33 35 36
3 27 37 23
3 31 30 19
3 35 34 38
3 36 35 17
3 29 39 18
3 24 16 20
3 32 24 20
3 38 0 35
3 0 17 35
3 12 4 37
3 4 23 37
3 23 15 26
3 7 29 18
3 7 9 29
3 9 30 29
3 9 19 30
3 40 19 16
3 41 15 18
3 14 42 10
3 43 351 352
3 44 353 354
3 34 45 38
3 16 25 46
3 47 12 37
3 15 48 26
3 21 6 5
3 355 49 356
3 50 357 353
3 50 353 44
3 40 16 46
3 43 358 351
3 51 43 352
3 32 25 24
3 359 31 19
3 0 38 45
3 1 21 2
3 357 50 360
3 37 52 47
3 39 53 18
3 47 17 12
3 41 48 15
3 1 0 45
3 54 10 42
3 55 359 19
3 361 36 17
3 48 362 26
3 51 56 43
3 57 50 44
3 25 58 46
3 363 359 55
3 32 10 54
3 364 360 50
3 59 365 366
3 43 367 358
3 368 32 54
3 60 1 45
3 61 362 48
3 53 62 18
3 40 55 19
3 356 63 369
3 6 64 22
3 60 21 1
3 21 64 6
3 47 65 17
3 34 370 45
3 49 63 356
3 66 365 59
3 67 55 40
3 52 68 47
3 62 41 18
3 361 17 65
3 66 371 365
3 41 69 48
3 70 51 372
3 58 71 46
3 40 46 71
3 72 42 14
3 73 70 372
3 74 62 53
3 373 368 54
3 71 67 40
3 48 374 61
3 75 69 41
3 62 76 41
3 77 65 47
3 22 78 14
3 79 55 67
3 72 54 42
3 370 60 45
3 363 55 79
3 48 69 374
3 80 50 57
3 375 367 43
3 56 375 43
3 74 76 62
3 80 376 364
3 80 364 50
3 374 81 377
3 60 82 21
3 70 56 51
3 378 80 57
3 60 370 83
3 68 77 47
3 76 75 41
3 379 377 84
3 58 373 85
3 361 83 370
3 68 379 84
3 377 86 84
3 76 74 87
3 377 81 86
3 74 380 87
3 380 88 87
3 380 79 88
3 373 54 85
3 58 85 71
3 361 65 83
3 68 84 77
3 374 69 81
3 79 67 88
3 71 89 67
3 83 82 60
3 75 76 87
3 90 75 87
3 88 90 87
3 89 91 88
3 92 71 85
3 83 65 93
3 94 86 81
3 94 69 95
3 75 95 69
3 92 96 71
3 92 85 54
3 86 97 84
3 67 89 88
3 71 98 89
3 99 92 54
3 72 99 54
3 91 90 88
3 89 100 91
3 78 72 14
3 93 65 77
3 84 101 77
3 97 86 94
3 90 95 75
3 98 71 96
3 97 102 103
3 104 105 95
3 106 104 100
3 107 108 82
3 102 97 109
3 105 109 95
3 106 100 89
3 110 106 89
3 107 82 93
3 111 107 93
3 109 94 95
3 100 104 95
3 112 113 96
3 112 96 99
3 103 114 97
3 109 97 94
3 83 93 82
3 84 114 101
3 84 97 114
3 90 91 95
3 91 100 95
3 92 99 96
3 115 381 382
3 110 89 116
3 98 96 117
3 118 93 77
3 118 77 101
3 119 109 105
3 120 383 384
3 114 121 101
3 122 103 102
3 119 102 109
3 111 93 118
3 98 116 89
3 385 123 386
3 72 124 99
3 121 114 103
3 122 121 103
3 99 124 112
3 125 124 72
3 126 64 21
3 387 120 384
3 113 388 96
3 127 106 110
3 121 128 101
3 96 388 117
3 129 115 382
3 108 130 82
3 127 110 116
3 128 118 101
3 117 116 98
3 123 385 389
3 132 117 388
3 111 118 131
3 133 112 124
3 390 134 391
3 129 392 115
3 393 129 382
3 108 135 130
3 133 124 136
3 125 72 78
3 82 130 21
3 394 129 393
3 134 390 383
3 395 137 387
3 128 138 131
3 121 139 128
3 122 139 121
3 130 126 21
3 394 392 129
3 134 396 391
3 117 140 116
3 137 120 387
3 141 117 132
3 141 142 117
3 142 143 117
3 144 392 394
3 135 145 130
3 146 111 131
3 397 136 147
3 124 147 136
3 125 147 124
3 123 398 386
3 144 399 392
3 143 148 117
3 149 125 78
3 150 106 127
3 138 128 151
3 127 116 140
3 128 139 151
3 152 131 138
3 148 140 117
3 151 152 138
3 22 149 78
3 153 123 389
3 154 396 134
3 120 134 383
3 400 155 401
3 150 127 156
3 156 127 140
3 157 135 402
3 399 155 400
3 158 399 144
3 403 397 147
3 159 125 149
3 404 157 402
3 158 155 399
3 159 147 125
3 146 404 111
3 405 148 143
3 152 146 131
3 406 106 150
3 160 157 404
3 160 404 146
3 135 161 145
3 162 140 148
3 22 163 149
3 146 152 160
3 159 149 163
3 407 398 408
3 139 409 151
3 408 164 407
3 120 154 134
3 130 165 126
3 165 130 145
3 166 160 152
3 164 408 410
3 403 147 167
3 168 407 164
3 411 164 410
3 167 169 403
3 64 163 22
3 411 168 164
3 170 406 150
3 156 140 162
3 168 171 407
3 412 155 158
3 170 150 156
3 413 145 161
3 409 172 151
3 147 159 167
3 411 173 168
3 165 145 174
3 175 414 154
3 159 169 167
3 415 166 152
3 176 165 174
3 151 177 152
3 178 159 163
3 159 178 169
3 413 174 145
3 165 176 126
3 120 175 154
3 415 152 177
3 405 162 148
3 413 416 174
3 405 169 178
3 416 415 177
3 416 177 174
3 405 178 162
3 177 179 174
3 180 179 177
3 181 151 172
3 178 182 162
3 183 184 178
3 185 176 174
3 179 185 174
3 151 181 177
3 181 180 177
3 162 186 156
3 184 182 178
3 176 187 126
3 188 185 179
3 189 190 184
3 191 188 179
3 191 179 180
3 190 182 184
3 176 185 192
3 170 156 193
3 183 178 163
3 191 180 194
3 417 195 418
3 196 419 418
3 197 191 194
3 198 184 183
3 198 189 184
3 194 180 181
3 176 199 187
3 187 200 126
3 196 201 419
3 420 192 185
3 202 162 182
3 417 421 195
3 199 176 192
3 126 200 64
3 193 406 170
3 186 193 156
3 202 186 162
3 203 181 172
3 193 422 406
3 195 196 418
3 423 203 172
3 204 424 425
3 183 163 205
3 189 198 426
3 206 194 181
3 207 206 181
3 207 181 203
3 420 199 192
3 64 205 163
3 208 201 196
3 209 194 206
3 210 427 428
3 207 211 206
3 212 183 205
3 213 422 193
3 210 428 197
3 212 198 183
3 214 200 187
3 215 203 423
3 210 197 194
3 190 202 182
3 215 207 203
3 213 193 186
3 199 214 187
3 216 208 196
3 210 194 217
3 218 426 198
3 219 205 64
3 429 427 210
3 220 175 120
3 202 221 186
3 209 217 194
3 222 211 207
3 215 423 430
3 431 223 204
3 211 224 206
3 209 206 224
3 225 198 212
3 226 212 205
3 227 220 120
3 226 225 212
3 223 424 204
3 190 432 202
3 228 199 420
3 208 433 201
3 186 221 213
3 225 218 198
3 229 220 227
3 202 432 230
3 199 231 214
3 222 207 215
3 232 222 215
3 434 215 430
3 233 217 209
3 434 232 215
3 234 221 202
3 235 230 432
3 236 218 225
3 233 209 224
3 234 202 230
3 211 237 224
3 435 238 436
3 437 438 223
3 437 223 431
3 239 210 217
3 216 240 208
3 238 439 436
3 239 429 210
3 238 435 241
3 242 422 213
3 243 438 437
3 237 244 224
3 213 221 245
3 246 240 216
3 239 440 429
3 242 213 245
3 247 226 205
3 235 234 230
3 441 222 232
3 233 224 244
3 234 248 221
3 238 249 439
3 235 250 234
3 208 240 433
3 249 251 439
3 252 441 232
3 236 253 442
3 237 443 244
3 254 438 243
3 255 239 256
3 217 256 239
3 257 232 434
3 444 229 227
3 247 225 226
3 248 245 221
3 219 247 205
3 64 258 219
3 445 259 120
3 260 444 227
3 261 214 231
3 262 199 228
3 252 232 257
3 235 446 250
3 253 236 225
3 259 227 120
3 250 248 234
3 447 262 228
3 255 440 239
3 443 263 244
3 247 264 225
3 448 251 249
3 265 261 231
3 449 238 241
3 266 259 445
3 267 242 245
3 262 231 199
3 253 225 264
3 449 268 238
3 269 252 257
3 270 227 259
3 267 450 242
3 268 249 238
3 271 260 227
3 272 257 451
3 270 271 227
3 273 270 259
3 266 273 259
3 256 217 233
3 244 256 233
3 269 452 252
3 244 263 453
3 262 265 231
3 447 440 255
3 253 446 442
3 454 455 274
3 456 450 275
3 275 450 267
3 272 451 454
3 267 245 275
3 453 452 244
3 257 272 269
3 454 274 272
3 455 456 276
3 456 275 276
3 269 244 452
3 274 455 276
3 446 253 264
3 447 255 256
3 262 447 265
3 265 447 256
3 250 446 264
3 277 244 269
3 278 269 272
3 279 277 269
3 278 279 269
3 280 245 248
3 281 250 264
3 247 219 282
3 283 278 272
3 280 275 245
3 250 280 248
3 284 261 265
3 284 265 256
3 285 256 244
3 283 272 274
3 286 283 274
3 276 287 274
3 288 280 250
3 289 284 256
3 285 244 277
3 287 276 275
3 290 275 280
3 288 250 281
3 289 256 285
3 291 285 277
3 279 291 277
3 287 286 274
3 290 287 275
3 292 293 284
3 294 295 279
3 295 285 291
3 296 297 287
3 298 290 299
3 292 284 289
3 279 295 291
3 296 287 290
3 298 296 290
3 300 301 281
3 294 279 283
3 287 297 286
3 302 288 301
3 261 284 293
3 278 283 279
3 280 299 290
3 281 301 288
3 264 303 281
3 296 304 297
3 297 305 286
3 306 457 458
3 307 459 460
3 304 305 297
3 308 461 462
3 300 281 303
3 300 302 301
3 285 309 289
3 247 303 264
3 261 310 214
3 214 310 200
3 463 304 296
3 302 311 288
3 311 280 288
3 312 309 285
3 286 313 283
3 308 462 464
3 314 313 286
3 315 303 247
3 316 465 308
3 466 317 467
3 318 289 309
3 315 247 282
3 319 308 464
3 294 283 313
3 320 300 303
3 310 261 293
3 468 299 321
3 200 258 64
3 320 469 300
3 258 282 219
3 470 306 458
3 322 258 200
3 306 323 457
3 315 282 324
3 471 325 293
3 280 321 299
3 326 308 319
3 295 312 285
3 305 314 286
3 311 321 280
3 329 294 313
3 327 459 307
3 320 303 330
3 310 293 325
3 470 323 306
3 472 468 321
3 331 321 311
3 315 330 303
3 332 328 473
3 332 473 465
3 332 465 316
3 302 333 311
3 334 307 460
3 335 294 329
3 331 311 333
3 336 474 475
3 476 337 477
3 326 316 308
3 471 338 325
3 478 334 460
3 479 467 317
3 339 318 309
3 330 315 324
3 339 471 318
3 320 333 469
3 339 338 471
3 340 333 320
3 331 472 321
3 480 336 475
3 335 341 480
3 342 337 476
3 325 338 310
3 474 336 312
3 335 329 313
3 477 337 314
3 476 481 342
3 481 472 343
3 336 309 312
3 336 480 341
3 337 342 314
3 481 343 342
3 333 340 331
3 320 330 340
3 309 344 339
3 345 341 335
3 313 345 335
3 346 314 342
3 347 343 472
3 310 344 200
3 348 347 258
3 347 349 258
3 349 282 258
3 345 313 314
3 346 345 314
3 322 200 344
3 349 324 282
3 310 338 339
3 344 310 339
3 341 322 336
3 350 258 322
3 350 348 258
3 309 336 344
3 341 345 350
3 331 340 349
3 346 342 348
3 472 331 347
3 330 324 340
3 336 322 344
3 322 341 350
3 345 346 350
3 342 343 348
3 343 347 348
3 331 349 347
3 350 346 348
3 340 324 349
3 94 81 69
3 128 131 118
3 318 292 289
3 295 474 312
3 305 477 314
