ply
format ascii 1.0
comment INFO-3111 Flatenator generated
comment TextureFile Dungeons_Texture_01.png
element vertex 117
property float x
property float y
property float z
property float nx
property float ny
property float nz
property uchar red
property uchar green
property uchar blue
property uchar alpha
property float texture_u
property float texture_v
element face 128
property list uchar int vertex_indices
end_header
4.9213 0 0.078705 -0.205618 -0.956787 0.205624 120 120 119 255 0.19968 0.305125 
3.94177 1.43922 1.05823 -0.362826 -0.858319 0.36283 120 120 119 255 0.19968 0.305125 
3.87881 1.46893 0.969811 -0.751518 -0.593501 -0.288059 120 120 119 255 0.19968 0.305125 
4.74534 0.182224 0.102692 -0.82089 -0.545287 -0.169708 120 120 119 255 0.19968 0.305125 
2.5 2.00153 2.35135 -7.78198e-08 -0.953955 -0.299952 120 120 119 255 0.19968 0.305125 
2.5 1.98943 2.5 2.05818e-09 -1 -2.30517e-07 120 120 119 255 0.19968 0.305125 
2.5 1.61113 0.883966 -0.0756167 -0.916033 0.39391 97 95 95 255 0.20021 0.279913 
3.89218 1.55689 0.880871 -0.220914 -0.869425 0.441924 97 95 95 255 0.20021 0.279913 
2.5 2.10553 2.28601 -0.0359825 -0.942472 0.332342 97 95 95 255 0.20021 0.279913 
3.80259 1.044 -0.027893 -0.261079 -0.856688 0.444887 97 95 95 255 0.20021 0.279913 
2.5 1.25839 -0.046586 -0.157022 -0.923476 0.350053 97 95 95 255 0.20021 0.279913 
4.78279 0.24936 -0.013827 -0.567358 -0.691943 0.446452 97 95 95 255 0.20021 0.279913 
5.01056 0.064708 -0.01056 -0.398788 -0.505448 -0.765173 120 120 119 255 0.19968 0.305125 
2.5 2.18099 2.5 -1 0 0 120 120 119 255 0.19968 0.305125 
0.078705 0 0.078705 0.205618 -0.956786 0.205623 120 120 119 255 0.19968 0.305125 
1.05823 1.43922 1.05823 0.362826 -0.858319 0.36283 120 120 119 255 0.19968 0.305125 
0.969809 1.46893 1.12119 -0.288069 -0.593494 0.751519 120 120 119 255 0.19968 0.305125 
0.102695 0.182224 0.254658 -0.169704 -0.545285 0.820893 120 120 119 255 0.19968 0.305125 
2.35135 2.00153 2.5 -0.29995 -0.953955 -6.74437e-07 120 120 119 255 0.19968 0.305125 
0.88397 1.61113 2.5 0.39391 -0.916033 0.0756168 97 95 95 255 0.20021 0.279913 
0.880875 1.55689 1.10782 0.441924 -0.869425 0.220914 97 95 95 255 0.20021 0.279913 
2.28601 2.10553 2.5 0.332343 -0.942472 0.0359824 97 95 95 255 0.20021 0.279913 
-0.027891 1.044 1.19741 0.444886 -0.856688 0.261079 97 95 95 255 0.20021 0.279913 
-0.046585 1.25839 2.5 0.350052 -0.923476 0.157022 97 95 95 255 0.20021 0.279913 
-0.013824 0.24936 0.217215 0.446452 -0.691943 0.567359 97 95 95 255 0.20021 0.279913 
-0.010559 0.064708 -0.010556 -0.765176 -0.505443 0.39879 120 120 119 255 0.19968 0.305125 
2.5 2.18099 2.5 0 0 1 120 120 119 255 0.19968 0.305125 
0.078705 -1e-06 4.9213 0.205617 -0.956787 -0.205622 120 120 119 255 0.19968 0.305125 
1.05823 1.43922 3.94177 0.362825 -0.858319 -0.36283 120 120 119 255 0.19968 0.305125 
1.12119 1.46893 4.03019 0.751518 -0.593501 0.288059 120 120 119 255 0.19968 0.305125 
0.254662 0.182223 4.89731 0.820891 -0.545286 0.169709 120 120 119 255 0.19968 0.305125 
2.5 2.00153 2.64865 0 -0.953955 0.299951 120 120 119 255 0.19968 0.305125 
2.5 1.61113 4.11603 0.0756166 -0.916033 -0.393911 97 95 95 255 0.20021 0.279913 
1.10782 1.55689 4.11913 0.220913 -0.869425 -0.441925 97 95 95 255 0.20021 0.279913 
2.5 2.10553 2.71399 0.0359824 -0.942472 -0.332343 97 95 95 255 0.20021 0.279913 
1.19741 1.044 5.02789 0.261078 -0.856688 -0.444887 97 95 95 255 0.20021 0.279913 
2.5 1.25839 5.04659 0.157022 -0.923476 -0.350053 97 95 95 255 0.20021 0.279913 
0.217213 0.249359 5.01383 0.567358 -0.691943 -0.446453 97 95 95 255 0.20021 0.279913 
-0.010557 0.064707 5.01056 0.398784 -0.505446 0.765177 120 120 119 255 0.19968 0.305125 
2.5 2.18099 2.5 1 0 0 120 120 119 255 0.19968 0.305125 
4.9213 -1e-06 4.9213 -0.205617 -0.956787 -0.205622 120 120 119 255 0.19968 0.305125 
3.94177 1.43922 3.94177 -0.362826 -0.858319 -0.36283 120 120 119 255 0.19968 0.305125 
4.03019 1.46893 3.87881 0.28807 -0.593493 -0.75152 120 120 119 255 0.19968 0.305125 
4.89731 0.182223 4.74534 0.169704 -0.545285 -0.820893 120 120 119 255 0.19968 0.305125 
2.64865 2.00153 2.5 0.29995 -0.953955 -6.48498e-07 120 120 119 255 0.19968 0.305125 
4.11603 1.61113 2.5 -0.39391 -0.916033 -0.0756175 97 95 95 255 0.20021 0.279913 
4.11912 1.55689 3.89218 -0.441924 -0.869425 -0.220914 97 95 95 255 0.20021 0.279913 
2.71399 2.10553 2.5 -0.332343 -0.942472 -0.0359832 97 95 95 255 0.20021 0.279913 
5.02789 1.044 3.80259 -0.444886 -0.856688 -0.261079 97 95 95 255 0.20021 0.279913 
5.04659 1.25839 2.5 -0.350052 -0.923476 -0.157023 97 95 95 255 0.20021 0.279913 
5.01382 0.249359 4.78278 -0.446452 -0.691943 -0.567358 97 95 95 255 0.20021 0.279913 
5.01056 0.064707 5.01056 0.765176 -0.505443 -0.39879 120 120 119 255 0.19968 0.305125 
2.5 2.18099 2.5 0 0 -1 120 120 119 255 0.19968 0.305125 
0.254662 0.182224 0.102692 0.820891 -0.545287 -0.169708 120 120 119 255 0.19968 0.305125 
1.12119 1.46893 0.969811 0.751518 -0.593501 -0.288059 120 120 119 255 0.19968 0.305125 
2.5 1.61113 0.883966 0.0756167 -0.916033 0.39391 97 95 95 255 0.20021 0.279913 
2.5 2.10553 2.28601 0.0359825 -0.942472 0.332342 97 95 95 255 0.20021 0.279913 
1.10782 1.55689 0.880871 0.220914 -0.869425 0.441924 97 95 95 255 0.20021 0.279913 
1.19741 1.044 -0.027893 0.261079 -0.856688 0.444887 97 95 95 255 0.20021 0.279913 
2.5 1.25839 -0.046586 0.157022 -0.923476 0.350053 97 95 95 255 0.20021 0.279913 
0.217213 0.24936 -0.013827 0.567358 -0.691943 0.446452 97 95 95 255 0.20021 0.279913 
-0.010557 0.064708 -0.01056 0.398789 -0.505448 -0.765173 120 120 119 255 0.19968 0.305125 
2.5 2.18099 2.5 1 0 0 120 120 119 255 0.19968 0.305125 
0.102695 0.182223 4.74534 -0.169705 -0.545285 -0.820893 120 120 119 255 0.19968 0.305125 
0.969809 1.46893 3.87881 -0.28807 -0.593493 -0.75152 120 120 119 255 0.19968 0.305125 
0.88397 1.61113 2.5 0.39391 -0.916033 -0.0756175 97 95 95 255 0.20021 0.279913 
2.28601 2.10553 2.5 0.332343 -0.942472 -0.0359831 97 95 95 255 0.20021 0.279913 
0.880875 1.55689 3.89218 0.441924 -0.869425 -0.220914 97 95 95 255 0.20021 0.279913 
-0.027891 1.044 3.80259 0.444886 -0.856688 -0.261079 97 95 95 255 0.20021 0.279913 
-0.046585 1.25839 2.5 0.350052 -0.923476 -0.157023 97 95 95 255 0.20021 0.279913 
-0.013824 0.249359 4.78278 0.446452 -0.691943 -0.567358 97 95 95 255 0.20021 0.279913 
-0.010559 0.064707 5.01056 -0.765176 -0.505444 -0.39879 120 120 119 255 0.19968 0.305125 
2.5 2.18099 2.5 0 0 -1 120 120 119 255 0.19968 0.305125 
4.74534 0.182223 4.89731 -0.820891 -0.545287 0.169709 120 120 119 255 0.19968 0.305125 
3.87881 1.46893 4.03019 -0.751518 -0.593501 0.288059 120 120 119 255 0.19968 0.305125 
2.5 1.61113 4.11603 -0.0756166 -0.916033 -0.393911 97 95 95 255 0.20021 0.279913 
2.5 2.10553 2.71399 -0.0359824 -0.942472 -0.332343 97 95 95 255 0.20021 0.279913 
3.89218 1.55689 4.11913 -0.220913 -0.869425 -0.441925 97 95 95 255 0.20021 0.279913 
3.80259 1.044 5.02789 -0.261078 -0.856688 -0.444887 97 95 95 255 0.20021 0.279913 
2.5 1.25839 5.04659 -0.157022 -0.923476 -0.350053 97 95 95 255 0.20021 0.279913 
4.78279 0.249359 5.01383 -0.567358 -0.691943 -0.446453 97 95 95 255 0.20021 0.279913 
5.01056 0.064707 5.01056 -0.398784 -0.505446 0.765177 120 120 119 255 0.19968 0.305125 
2.5 2.18099 2.5 -1 0 0 120 120 119 255 0.19968 0.305125 
4.89731 0.182224 0.254658 0.169704 -0.545285 0.820893 120 120 119 255 0.19968 0.305125 
4.03019 1.46893 1.12119 0.288069 -0.593494 0.75152 120 120 119 255 0.19968 0.305125 
4.11603 1.61113 2.5 -0.39391 -0.916033 0.0756169 97 95 95 255 0.20021 0.279913 
2.71399 2.10553 2.5 -0.332343 -0.942472 0.0359825 97 95 95 255 0.20021 0.279913 
4.11912 1.55689 1.10782 -0.441924 -0.869425 0.220914 97 95 95 255 0.20021 0.279913 
5.02789 1.044 1.19741 -0.444886 -0.856688 0.261079 97 95 95 255 0.20021 0.279913 
5.04659 1.25839 2.5 -0.350052 -0.923476 0.157022 97 95 95 255 0.20021 0.279913 
5.01382 0.24936 0.217215 -0.446452 -0.691943 0.567359 97 95 95 255 0.20021 0.279913 
5.01056 0.064708 -0.010556 0.765176 -0.505443 0.39879 120 120 119 255 0.19968 0.305125 
2.5 2.18099 2.5 0 0 1 120 120 119 255 0.19968 0.305125 
3.89218 1.55689 0.880871 -0.815034 -0.3403 -0.468952 120 120 119 255 0.19968 0.305125 
4.78279 0.24936 -0.013827 -0.655197 -0.463169 -0.596818 120 120 119 255 0.19968 0.305125 
2.5 2.10553 2.28601 -0.870517 -0.28633 -0.400269 120 120 119 255 0.19968 0.305125 
0.880875 1.55689 1.10782 -0.468956 -0.340292 0.815035 120 120 119 255 0.19968 0.305125 
-0.013824 0.24936 0.217215 -0.596801 -0.463175 0.655208 120 120 119 255 0.19968 0.305125 
2.28601 2.10553 2.5 -0.400274 -0.286321 0.870518 120 120 119 255 0.19968 0.305125 
1.10782 1.55689 4.11913 0.815033 -0.340299 0.468953 120 120 119 255 0.19968 0.305125 
0.217213 0.249359 5.01383 0.655196 -0.463167 0.59682 120 120 119 255 0.19968 0.305125 
2.5 2.10553 2.71399 0.870517 -0.28633 0.400269 120 120 119 255 0.19968 0.305125 
4.11912 1.55689 3.89218 0.468956 -0.340292 -0.815035 120 120 119 255 0.19968 0.305125 
5.01382 0.249359 4.78278 0.596802 -0.463175 -0.655207 120 120 119 255 0.19968 0.305125 
2.71399 2.10553 2.5 0.400274 -0.286321 -0.870518 120 120 119 255 0.19968 0.305125 
1.10782 1.55689 0.880871 0.815033 -0.340299 -0.468953 120 120 119 255 0.19968 0.305125 
0.217213 0.24936 -0.013827 0.655197 -0.463168 -0.596819 120 120 119 255 0.19968 0.305125 
2.5 2.10553 2.28601 0.870517 -0.28633 -0.400269 120 120 119 255 0.19968 0.305125 
0.880875 1.55689 3.89218 -0.468956 -0.340292 -0.815035 120 120 119 255 0.19968 0.305125 
-0.013824 0.249359 4.78278 -0.596802 -0.463175 -0.655207 120 120 119 255 0.19968 0.305125 
2.28601 2.10553 2.5 -0.400274 -0.286321 -0.870518 120 120 119 255 0.19968 0.305125 
3.89218 1.55689 4.11913 -0.815034 -0.3403 0.468952 120 120 119 255 0.19968 0.305125 
4.78279 0.249359 5.01383 -0.655196 -0.463168 0.59682 120 120 119 255 0.19968 0.305125 
2.5 2.10553 2.71399 -0.870517 -0.28633 0.400269 120 120 119 255 0.19968 0.305125 
4.11912 1.55689 1.10782 0.468956 -0.340292 0.815035 120 120 119 255 0.19968 0.305125 
5.01382 0.24936 0.217215 0.596802 -0.463175 0.655208 120 120 119 255 0.19968 0.305125 
2.71399 2.10553 2.5 0.400274 -0.286321 0.870518 120 120 119 255 0.19968 0.305125 
3 1 3 0
3 4 1 5
3 6 7 8
3 9 6 10
3 11 7 9
3 93 3 2
3 94 0 3
3 95 2 4
3 13 4 5
3 15 17 14
3 18 15 5
3 19 20 21
3 22 19 23
3 24 20 22
3 96 17 16
3 97 14 17
3 98 16 18
3 26 18 5
3 28 30 27
3 31 28 5
3 32 33 34
3 35 32 36
3 37 33 35
3 99 30 29
3 100 27 30
3 101 29 31
3 39 31 5
3 41 43 40
3 44 41 5
3 45 46 47
3 48 45 49
3 50 46 48
3 102 43 42
3 103 40 43
3 104 42 44
3 52 44 5
3 53 15 14
3 4 15 54
3 55 56 57
3 58 55 57
3 60 58 57
3 105 53 106
3 106 14 61
3 107 54 105
3 62 4 107
3 63 28 27
3 18 28 64
3 65 66 67
3 68 65 67
3 70 68 67
3 108 63 109
3 109 27 71
3 110 64 108
3 72 18 110
3 73 41 40
3 31 41 74
3 75 76 77
3 78 75 77
3 80 78 77
3 111 73 112
3 112 40 81
3 113 74 111
3 82 31 113
3 83 1 0
3 44 1 84
3 85 86 87
3 88 85 87
3 90 88 87
3 114 83 115
3 115 0 91
3 116 84 114
3 92 44 116
3 1 2 3
3 4 2 1
3 9 7 6
3 93 94 3
3 94 12 0
3 95 93 2
3 13 95 4
3 15 16 17
3 18 16 15
3 22 20 19
3 96 97 17
3 97 25 14
3 98 96 16
3 26 98 18
3 28 29 30
3 31 29 28
3 35 33 32
3 99 100 30
3 100 38 27
3 101 99 29
3 39 101 31
3 41 42 43
3 44 42 41
3 48 46 45
3 102 103 43
3 103 51 40
3 104 102 42
3 52 104 44
3 53 54 15
3 4 5 15
3 58 59 55
3 105 54 53
3 106 53 14
3 107 4 54
3 62 5 4
3 63 64 28
3 18 5 28
3 68 69 65
3 108 64 63
3 109 63 27
3 110 18 64
3 72 5 18
3 73 74 41
3 31 5 41
3 78 79 75
3 111 74 73
3 112 73 40
3 113 31 74
3 82 5 31
3 83 84 1
3 44 5 1
3 88 89 85
3 114 84 83
3 115 83 0
3 116 44 84
3 92 5 44
