ply
format ascii 1.0
comment INFO-3111 Flatenator generated
comment TextureFile Dungeons_Texture_01.png
element vertex 17
property float x
property float y
property float z
property float nx
property float ny
property float nz
property uchar red
property uchar green
property uchar blue
property uchar alpha
property float texture_u
property float texture_v
element face 30
property list uchar int vertex_indices
end_header
0.190247 0.071895 0.194796 0.56977 0.533678 0.624939 120 116 110 255 0.211594 0.300503 
0.04837 0.031008 0.263643 -0.348022 0.0426189 0.936517 120 116 110 255 0.211594 0.300503 
0.157318 -0.074556 0.225813 0.47791 -0.269453 0.836061 120 116 110 255 0.211594 0.300503 
0.011978 0.13475 0.17588 -0.0555797 0.874362 0.482081 120 116 110 255 0.211594 0.300503 
0.058273 -0.161528 0.168247 -0.444651 -0.661144 0.604297 120 116 110 255 0.211594 0.300503 
-0.102295 0.010134 0.076712 -0.877867 -0.464328 0.117254 120 116 110 255 0.211594 0.300503 
-0.090057 0.086354 0.109045 -0.829274 0.490319 0.268127 120 116 110 255 0.211594 0.300503 
0.256729 -0.018902 0.131233 0.987464 0.0395813 0.152799 120 116 110 255 0.211594 0.300503 
0.18396 0.106017 0.038086 0.705314 0.702428 -0.0955358 120 116 110 255 0.211594 0.300503 
0.161301 -0.172283 0.184832 0.318236 -0.857637 0.403962 120 116 110 255 0.211594 0.300503 
0.214066 -0.133693 0.069277 0.81315 -0.576918 -0.0771579 120 116 110 255 0.211594 0.300503 
0.034973 -0.169065 -0.028126 -0.134159 -0.898281 -0.418441 120 116 110 255 0.211594 0.300503 
0.059036 0.182653 -0.00825 -0.139728 0.955013 -0.261584 120 116 110 255 0.211594 0.300503 
0.186783 -0.011444 -0.068632 0.751206 -0.119746 -0.649116 120 116 110 255 0.211594 0.300503 
-0.070145 0.048511 -0.116557 -0.841763 0.305872 -0.444834 120 116 110 255 0.211594 0.300503 
0.019592 0.04115 -0.170746 -0.211914 -0.103785 -0.971762 120 116 110 255 0.211594 0.300503 
0.090256 0.096296 -0.132767 0.478404 0.556999 -0.678882 120 116 110 255 0.211594 0.300503 
3 0 1 2
3 1 0 3
3 2 1 4
3 1 5 4
3 6 1 3
3 1 6 5
3 7 0 2
3 0 8 3
3 8 0 7
3 9 2 4
3 7 2 10
3 11 9 4
3 3 8 12
3 2 9 10
3 7 10 13
3 14 5 6
3 4 5 11
3 8 7 13
3 12 6 3
3 11 10 9
3 12 14 6
3 12 15 14
3 13 10 11
3 5 14 15
3 13 16 8
3 16 12 8
3 16 15 12
3 5 15 11
3 13 11 15
3 13 15 16
