ply
format ascii 1.0
comment INFO-3111 Flatenator generated
comment TextureFile Dungeons_Texture_01.png
element vertex 666
property float x
property float y
property float z
element face 745
property list uchar int vertex_indices
end_header
-0.819633 0.271397 0.503023 
-0.497291 0.249733 0.965655 
-0.355331 0.159633 0.950562 
0.740992 0.193336 0.968424 
0.071879 0.283138 0.940385 
0.458405 0.218439 0.965901 
0.150694 0.19354 0.968548 
0.786416 0.001459 0.55725 
-0.791661 0.001459 0.721096 
-0.303588 -0.00568 0.968256 
0.17514 -0.02138 0.96485 
0.55032 -0.010006 0.960122 
-0.222237 0.360709 0.927008 
-0.083329 3.60569 2.46178 
0.828972 3.99372 2.15678 
0.733273 3.6717 2.45497 
0.735481 3.56617 2.42676 
0.800506 3.87511 2.02067 
-0.834502 3.44161 2.30481 
0.593626 3.43401 2.29096 
-0.432819 1.11437 0.936979 
-0.000152 1.13821 0.929921 
0.253164 1.11356 0.934566 
0.691303 1.13675 0.92459 
0.201671 0.977178 0.936979 
-0.55097 0.976173 0.936979 
0.795994 0.321363 0.445599 
-0.307151 3.63884 2.49594 
-0.736444 0.968473 0.916231 
-0.780533 3.6828 2.5112 
-0.840308 3.62133 2.48235 
0.806293 1.2571 0.380817 
-0.087866 0.946993 0.901366 
0.769506 0.998508 0.911317 
0.710402 0.357435 0.927771 
0.694227 3.39155 2.19555 
-0.695411 3.3899 2.19521 
-0.634401 1.22434 0.881938 
-0.807984 1.18008 0.6332 
0.685776 0.95107 0.901551 
-0.667206 0.768754 0.901328 
-0.207181 0.741641 0.894531 
0.124617 0.659587 0.901328 
-0.611055 0.626482 0.889786 
-0.645174 0.425404 0.904173 
0.638087 0.456799 0.901328 
-0.674194 3.60299 1.72546 
0.128112 3.27825 2.08972 
-0.470017 3.27825 2.08972 
0.312252 3.25286 2.05227 
0.795853 1.10365 0.407017 
0.715178 3.73042 2.50802 
-0.673302 3.76408 1.65918 
-0.552172 3.25161 2.03077 
-0.835407 3.86999 1.97376 
0.673913 3.23981 2.04907 
0.20052 3.25002 2.0099 
0.542346 3.25043 2.01119 
0.552917 1.28049 0.855184 
-0.666241 0.842758 0.368395 
-0.11844 3.7491 2.47238 
0.840931 4.13359 2.06183 
-0.62048 2.77066 1.57345 
0.61932 2.85507 1.65569 
0.462096 2.79034 1.59203 
-0.617535 2.61735 1.41022 
0.407266 2.61028 1.41643 
0.599693 2.9219 0.989748 
-0.271536 2.46658 1.27639 
-0.551827 2.47246 1.27016 
0.537091 2.4696 1.27178 
0.08109 2.27751 1.09179 
0.294887 2.36431 1.18249 
0.52272 2.70877 0.749035 
-0.594018 2.1149 0.921663 
0.039302 2.10243 0.920006 
0.620118 2.24486 1.0599 
0.62003 2.11806 0.936018 
-0.599366 1.98405 0.569244 
0.589349 1.71458 0.854376 
-0.450592 1.92411 0.854357 
-0.442847 1.2826 0.854503 
0.568018 1.49308 0.854047 
-0.545907 1.35622 0.580379 
-0.759669 3.75401 2.46117 
-0.538324 2.67552 1.45116 
0.610851 1.97588 0.854027 
0.548849 1.83086 0.328739 
-0.629238 0.528454 0.339388 
-0.799879 3.96453 1.97083 
-0.678829 3.88748 1.82229 
0.604703 3.13161 1.10781 
-0.539504 2.73083 1.50561 
0.05993 2.71188 1.47368 
0.500388 2.71223 1.47341 
0.536293 2.67548 1.45024 
-0.601081 2.45689 1.00447 
-0.617693 2.22595 0.64916 
0.518707 2.05394 0.832429 
-0.501823 2.05921 0.837208 
-0.681471 1.06786 0.310339 
0.781774 3.88286 1.88905 
-0.541596 3.685 1.61056 
0.51882 2.34962 1.10475 
-0.609676 3.21427 1.02601 
-0.503682 3.2191 0.876401 
0.603116 2.78498 0.852736 
-0.607463 2.07484 0.533199 
-0.788724 1.10165 0.019897 
0.674551 1.06847 0.126176 
0.694641 3.93662 1.72386 
-0.830144 4.23876 2.03657 
0.676752 3.68448 1.64417 
0.620118 2.79062 0.635509 
-0.677565 1.06986 0.161697 
0.623841 0.530455 -0.043621 
0.775327 0.000111 0.006935 
-0.776663 0.000111 0.045817 
0.618847 3.04401 0.873378 
-0.839894 4.04377 1.91832 
-0.795664 1.25699 -0.049322 
0.620118 2.76381 0.383038 
-0.683728 3.89487 1.71892 
0.618457 3.54754 1.18275 
0.561921 2.14955 0.073607 
-0.758777 4.3762 1.9869 
0.668941 3.82016 2.40146 
-0.631296 0.492994 -0.019664 
-0.835887 4.0337 1.81054 
-0.501135 2.50766 0.134484 
0.615912 3.03017 0.746361 
0.819499 4.1646 1.66664 
-0.620393 2.62153 0.208717 
0.502083 1.76961 0.089092 
0.520561 1.44307 0.100464 
0.81632 0.269562 0.377361 
-0.118506 3.87508 2.34933 
0.841072 4.29754 1.89801 
-0.684144 4.02907 1.58718 
0.592033 3.84615 1.47504 
-0.62048 2.81981 0.55192 
0.47786 1.7964 0.059153 
0.808931 0.269617 0.153055 
0.236524 3.92722 2.29841 
0.672056 4.05494 1.61015 
-0.543668 3.84062 1.45686 
-0.619121 3.38949 0.977179 
0.562281 2.83047 0.456296 
-0.56333 2.20647 0.010672 
-0.625218 0.809689 -0.03706 
-0.538428 1.52356 0.167484 
-0.738033 1.10715 -0.056397 
0.772302 1.10193 -0.083628 
-0.662864 4.40169 1.96804 
0.758562 4.37623 1.98694 
1.3e-05 3.23004 0.86601 
0.514958 1.43919 0.009016 
0.503161 3.22949 0.865064 
-0.572485 3.18923 0.796377 
0.518176 2.5052 0.132314 
-0.667956 1.07314 -0.042315 
0.07986 3.32334 0.914193 
0.620118 3.3426 0.929754 
-0.62048 3.13813 0.725255 
0.620118 3.13813 0.725255 
-0.454662 2.84775 0.436421 
0.540882 2.19657 0.015598 
-0.522717 1.43263 0.012213 
0.514709 3.78582 1.41568 
0.401257 3.84005 1.45626 
-0.350751 3.60972 1.19783 
0.596125 3.49737 1.08829 
-0.194392 3.41184 1.00718 
0.620118 2.93733 0.524395 
0.459857 2.75857 0.351967 
0.618917 2.6049 0.193669 
0.477831 1.91628 0.021319 
-0.033362 1.44135 0.009483 
0.414697 1.70008 0.009483 
0.032488 1.6729 0.009483 
-0.505746 1.70739 0.019617 
-0.80344 0.269951 -0.032623 
-0.197623 3.87155 1.45485 
-0.758085 1.25327 -0.079985 
-0.603827 0.551241 -0.034048 
0.793775 0.300798 -0.061205 
-0.381776 4.4029 1.96718 
0.148489 4.41198 1.92973 
-0.674332 3.88306 1.44511 
-0.775506 0.000334 -0.116694 
-0.824754 4.36909 1.90077 
-0.300924 3.96716 1.52487 
0.300508 3.9275 1.4931 
0.674127 3.88312 1.44519 
-0.045202 4.38746 1.95677 
-0.359251 4.07517 1.62366 
0.663745 1.0688 -0.044115 
-0.417545 1.06925 -0.043621 
-0.176763 0.492493 -0.047594 
-0.647447 0.446028 -0.057028 
-0.401535 4.37901 1.88723 
0.523 4.41848 1.9449 
-0.613457 1.10926 -0.079959 
0.718129 0.382612 -0.083111 
0.078564 4.37181 1.86408 
-0.819779 4.36115 1.86523 
-0.834502 4.17268 1.66786 
0.777882 1.2536 -0.083838 
0.772625 0 -0.090326 
0.516857 4.38936 1.88576 
-0.078907 4.27377 1.76619 
-0.519412 4.17504 1.66926 
-0.315507 4.27418 1.76783 
0.049468 4.17464 1.66904 
0.591419 0.30102 -0.116135 
-0.727162 0.300688 -0.115992 
-0.661413 0.941977 0.891845 
-0.073763 4.1442 4.93444 
0.729701 4.62013 4.94934 
0.553621 4.14312 4.98933 
0.656428 4.14122 4.8746 
0.722673 4.63435 4.74225 
-0.763407 4.14147 4.67653 
0.546031 4.14681 4.65923 
-0.683469 4.16576 5.03586 
-0.741126 4.1398 4.96358 
0.645392 4.19171 4.54794 
-0.646828 4.19065 4.54637 
-0.633993 4.65313 4.28099 
0.120784 4.18769 4.37194 
-0.439404 4.18769 4.37194 
0.292625 4.19822 4.32133 
0.621657 4.19454 5.05458 
-0.631187 4.83799 4.35808 
-0.513311 4.21511 4.30285 
-0.7574 4.66833 4.69995 
0.626374 4.19028 4.30835 
0.188812 4.23117 4.28462 
0.503258 4.23044 4.286 
0.621863 3.63736 2.3629 
0.733664 4.81104 4.98586 
-0.488823 4.23175 4.01414 
0.492061 4.23189 4.1306 
0.366089 4.23221 4.04087 
-0.498352 4.24151 3.79284 
0.330658 4.23202 3.79235 
0.48706 4.72366 3.69331 
-0.230664 4.23179 3.59408 
-0.476278 4.24046 3.59374 
0.462612 4.23726 3.59291 
-0.033615 4.23175 3.33298 
0.239007 4.23175 3.48417 
0.447679 4.74316 3.37239 
-0.589293 4.23993 3.10037 
-0.074438 4.23232 3.09059 
0.593461 4.23175 3.28787 
0.613426 4.23177 3.1127 
-0.61817 4.61089 2.66099 
0.620118 4.00558 2.77633 
-0.462692 4.15376 2.92102 
-0.505188 3.63935 2.36387 
0.618282 3.78852 2.50892 
-0.622706 4.06257 2.06722 
-0.42985 4.25302 3.86197 
0.618847 4.1906 2.95654 
0.620118 4.42224 2.44325 
-0.717075 4.74757 4.77443 
-0.622672 4.8057 4.59102 
0.487136 4.78846 3.92508 
-0.427091 4.2527 3.93867 
0.047942 4.26242 3.903 
0.39714 4.26287 3.90305 
0.427228 4.25365 3.86128 
-0.507206 4.7344 3.43809 
-0.596509 4.73325 2.90307 
0.524379 4.26143 2.99517 
-0.505909 4.2617 3.0022 
0.712565 4.74766 4.64154 
-0.509406 4.81321 4.25426 
0.482753 4.27335 3.39194 
-0.482942 4.90476 3.92569 
-0.397924 5.01395 3.82331 
0.504789 4.72372 3.49961 
-0.614927 4.70627 2.70237 
0.636174 4.92568 4.55094 
-0.717764 4.91709 5.05083 
0.639296 4.78547 4.28116 
0.537389 4.88131 3.34999 
0.492982 4.89228 3.69737 
-0.747536 4.85469 4.79616 
0.582257 5.04088 3.15251 
-0.630669 4.89574 4.51298 
0.498787 5.02958 3.9125 
0.620118 4.82533 2.49937 
-0.566974 5.10526 5.12759 
0.620188 4.99874 5.12647 
-0.749928 4.93413 4.70034 
-0.481289 5.03551 2.79564 
0.50025 4.97231 3.59777 
0.728852 5.15755 4.68978 
-0.564419 5.06353 2.92864 
0.609068 4.47869 2.11249 
0.622817 4.23976 1.88964 
0.727316 5.07752 4.98597 
-0.622694 5.11197 4.51499 
0.555856 5.05442 4.2751 
-0.517 4.96106 3.31153 
0.577852 4.51537 2.12464 
0.464215 5.09202 5.12786 
0.609735 5.1164 4.55261 
-0.507091 5.0647 4.25582 
-0.496863 5.06318 4.01506 
0.514996 5.03621 3.25145 
-0.619196 4.91008 2.49511 
-0.619368 4.374 1.94356 
0.649211 5.0692 5.12225 
7.2e-05 5.02904 3.8237 
0.621616 4.30166 1.82222 
0.406209 5.02932 3.82264 
-0.448447 5.04942 3.74561 
0.523588 5.0353 2.79236 
0.066731 5.06094 3.92374 
0.502929 5.06356 3.94836 
-0.483901 5.06358 3.65918 
0.502901 5.06358 3.65918 
-0.387065 5.06248 3.24961 
0.591517 4.8996 2.4916 
-0.610774 4.29477 1.81985 
0.485485 5.05363 4.17778 
0.378239 5.06472 4.25487 
-0.284272 5.06288 3.96713 
0.489138 5.06089 4.16991 
-0.15964 5.05777 4.05207 
0.543347 5.06362 3.37517 
0.440954 5.05914 3.12684 
0.612586 5.06241 2.90624 
0.566646 4.60224 2.28595 
-0.038668 4.30287 1.82409 
0.504607 4.48582 2.00703 
0.037598 4.4666 1.98782 
-0.532847 4.43369 1.96924 
-0.184945 5.09148 4.27933 
-0.326693 5.10694 5.12786 
0.127 5.14478 5.1048 
-0.626575 5.10877 4.28077 
-0.708423 5.13345 5.04638 
-0.277508 5.11229 4.414 
0.280378 5.10587 4.35592 
0.632328 5.10874 4.28088 
-0.324716 5.11979 4.58213 
-0.345479 5.15253 5.04344 
0.447173 5.13772 5.12242 
0.067582 5.16549 5.01876 
-0.705678 5.15589 5.01103 
-0.74005 5.16313 4.69734 
0.444042 5.16213 5.05066 
-0.068809 5.16537 4.85947 
-0.461977 5.1639 4.7004 
-0.275832 5.16437 4.86114 
0.043955 5.16376 4.6999 
-0.10348 5.11027 5.97924 
-0.581347 5.11098 5.90566 
0.52469 5.10723 5.90851 
-0.615872 4.61239 5.71285 
-0.097286 4.56578 5.71976 
0.57316 4.57111 5.70789 
-0.303588 -0.430268 -0.074138 
0.775327 -0.127243 -0.132546 
0.17514 -0.445967 -0.074378 
-0.71163 -0.34885 -0.09151 
-0.776663 -0.127243 -0.093663 
0.701477 -0.345388 -0.103027 
-0.791661 -0.319976 0.339571 
-0.303588 -0.346593 0.431026 
0.17514 -0.368893 0.413095 
0.786416 -0.322033 0.244046 
-0.638476 4.36288 5.12426 
-0.07515 4.33331 5.03515 
0.57987 4.37644 5.1339 
0.458405 0.218439 0.965901 
0.150694 0.19354 0.968548 
-0.497291 0.249733 0.965655 
-0.791661 0.001459 0.721096 
-0.303588 -0.00568 0.968256 
0.740992 0.193336 0.968424 
0.55032 -0.010006 0.960122 
-0.222237 0.360709 0.927008 
0.071879 0.283138 0.940385 
0.786416 0.001459 0.55725 
-0.083329 3.60569 2.46178 
0.733273 3.6717 2.45497 
0.735481 3.56617 2.42676 
0.593626 3.43401 2.29096 
-0.840308 3.62133 2.48235 
-0.307151 3.63884 2.49594 
-0.834502 3.44161 2.30481 
-0.432819 1.11437 0.936979 
-0.000152 1.13821 0.929921 
-0.780533 3.6828 2.5112 
-0.11844 3.7491 2.47238 
-0.087866 0.946993 0.901366 
0.685776 0.95107 0.901551 
-0.207181 0.741641 0.894531 
-0.667206 0.768754 0.901328 
0.124617 0.659587 0.901328 
-0.611055 0.626482 0.889786 
-0.835407 3.86999 1.97376 
0.694227 3.39155 2.19555 
-0.695411 3.3899 2.19521 
-0.470017 3.27825 2.08972 
-0.674194 3.60299 1.72546 
0.128112 3.27825 2.08972 
0.673913 3.23981 2.04907 
-0.634401 1.22434 0.881938 
0.253164 1.11356 0.934566 
0.691303 1.13675 0.92459 
0.552917 1.28049 0.855184 
0.715178 3.73042 2.50802 
0.828972 3.99372 2.15678 
0.800506 3.87511 2.02067 
0.20052 3.25002 2.0099 
-0.552172 3.25161 2.03077 
0.542346 3.25043 2.01119 
0.407266 2.61028 1.41643 
0.537091 2.4696 1.27178 
0.294887 2.36431 1.18249 
0.08109 2.27751 1.09179 
0.039302 2.10243 0.920006 
0.620118 2.24486 1.0599 
-0.442847 1.2826 0.854503 
-0.678829 3.88748 1.82229 
0.61932 2.85507 1.65569 
0.462096 2.79034 1.59203 
-0.551827 2.47246 1.27016 
-0.594018 2.1149 0.921663 
-0.450592 1.92411 0.854357 
-0.661413 0.941977 0.891845 
-0.645174 0.425404 0.904173 
0.694641 3.93662 1.72386 
0.676752 3.68448 1.64417 
-0.62048 2.77066 1.57345 
-0.617535 2.61735 1.41022 
0.62003 2.11806 0.936018 
0.610851 1.97588 0.854027 
0.17514 -0.02138 0.96485 
-0.799879 3.96453 1.97083 
0.781774 3.88286 1.88905 
0.840931 4.13359 2.06183 
-0.673302 3.76408 1.65918 
-0.541596 3.685 1.61056 
0.603116 2.78498 0.852736 
0.52272 2.70877 0.749035 
0.51882 2.34962 1.10475 
-0.759669 3.75401 2.46117 
-0.830144 4.23876 2.03657 
-0.609676 3.21427 1.02601 
0.599693 2.9219 0.989748 
0.620118 2.79062 0.635509 
0.604703 3.13161 1.10781 
0.618847 3.04401 0.873378 
-0.601081 2.45689 1.00447 
-0.617693 2.22595 0.64916 
-0.839894 4.04377 1.91832 
-0.807984 1.18008 0.6332 
-0.545907 1.35622 0.580379 
0.668941 3.82016 2.40146 
0.806293 1.2571 0.380817 
-0.795664 1.25699 -0.049322 
-0.683728 3.89487 1.71892 
0.674551 1.06847 0.126176 
-0.629238 0.528454 0.339388 
-0.666241 0.842758 0.368395 
-0.662864 4.40169 1.96804 
-0.572485 3.18923 0.796377 
0.618917 2.6049 0.193669 
-0.835887 4.0337 1.81054 
0.674127 3.88312 1.44519 
0.819499 4.1646 1.66664 
-0.607463 2.07484 0.533199 
-0.56333 2.20647 0.010672 
-0.599366 1.98405 0.569244 
-0.684144 4.02907 1.58718 
0.620118 3.3426 0.929754 
-0.620393 2.62153 0.208717 
0.561921 2.14955 0.073607 
-0.677565 1.06986 0.161697 
0.672056 4.05494 1.61015 
-0.619121 3.38949 0.977179 
0.841072 4.29754 1.89801 
0.620118 2.93733 0.524395 
0.615912 3.03017 0.746361 
0.620118 2.76381 0.383038 
-0.62048 2.81981 0.55192 
0.47786 1.7964 0.059153 
0.758562 4.37623 1.98694 
-0.824754 4.36909 1.90077 
0.514709 3.78582 1.41568 
-0.674332 3.88306 1.44511 
-0.543668 3.84062 1.45686 
-0.775506 0.000334 -0.116694 
0.618457 3.54754 1.18275 
0.620118 3.13813 0.725255 
0.514958 1.43919 0.009016 
0.777882 1.2536 -0.083838 
-0.667956 1.07314 -0.042315 
-0.62048 3.13813 0.725255 
0.401257 3.84005 1.45626 
0.596125 3.49737 1.08829 
0.07986 3.32334 0.914193 
-0.194392 3.41184 1.00718 
-0.454662 2.84775 0.436421 
0.459857 2.75857 0.351967 
0.540882 2.19657 0.015598 
0.477831 1.91628 0.021319 
0.414697 1.70008 0.009483 
-0.522717 1.43263 0.012213 
-0.80344 0.269951 -0.032623 
-0.631296 0.492994 -0.019664 
-0.625218 0.809689 -0.03706 
0.793775 0.300798 -0.061205 
0.775327 0.000111 0.006935 
0.663745 1.0688 -0.044115 
0.300508 3.9275 1.4931 
-0.300924 3.96716 1.52487 
0.623841 0.530455 -0.043621 
-0.381776 4.4029 1.96718 
-0.834502 4.17268 1.66786 
-0.359251 4.07517 1.62366 
-0.417545 1.06925 -0.043621 
-0.603827 0.551241 -0.034048 
-0.727162 0.300688 -0.115992 
0.718129 0.382612 -0.083111 
0.523 4.41848 1.9449 
-0.758085 1.25327 -0.079985 
0.148489 4.41198 1.92973 
-0.045202 4.38746 1.95677 
-0.819779 4.36115 1.86523 
-0.401535 4.37901 1.88723 
-0.315507 4.27418 1.76783 
-0.519412 4.17504 1.66926 
0.516857 4.38936 1.88576 
0.049468 4.17464 1.66904 
0.078564 4.37181 1.86408 
-0.078907 4.27377 1.76619 
0.591419 0.30102 -0.116135 
0.772625 0 -0.090326 
-0.073763 4.1442 4.93444 
0.553621 4.14312 4.98933 
0.656428 4.14122 4.8746 
0.546031 4.14681 4.65923 
-0.741126 4.1398 4.96358 
-0.763407 4.14147 4.67653 
-0.7574 4.66833 4.69995 
0.645392 4.19171 4.54794 
-0.646828 4.19065 4.54637 
-0.439404 4.18769 4.37194 
-0.633993 4.65313 4.28099 
0.120784 4.18769 4.37194 
0.626374 4.19028 4.30835 
0.729701 4.62013 4.94934 
0.722673 4.63435 4.74225 
0.188812 4.23117 4.28462 
-0.513311 4.21511 4.30285 
0.503258 4.23044 4.286 
0.330658 4.23202 3.79235 
0.462612 4.23726 3.59291 
0.239007 4.23175 3.48417 
-0.033615 4.23175 3.33298 
-0.074438 4.23232 3.09059 
0.593461 4.23175 3.28787 
-0.505188 3.63935 2.36387 
-0.622672 4.8057 4.59102 
0.492061 4.23189 4.1306 
0.366089 4.23221 4.04087 
-0.476278 4.24046 3.59374 
-0.589293 4.23993 3.10037 
-0.462692 4.15376 2.92102 
0.636174 4.92568 4.55094 
0.639296 4.78547 4.28116 
-0.488823 4.23175 4.01414 
-0.498352 4.24151 3.79284 
0.613426 4.23177 3.1127 
0.618847 4.1906 2.95654 
-0.717075 4.74757 4.77443 
0.712565 4.74766 4.64154 
0.733664 4.81104 4.98586 
-0.631187 4.83799 4.35808 
-0.509406 4.81321 4.25426 
0.504789 4.72372 3.49961 
0.447679 4.74316 3.37239 
0.482753 4.27335 3.39194 
-0.717764 4.91709 5.05083 
-0.482942 4.90476 3.92569 
0.48706 4.72366 3.69331 
0.537389 4.88131 3.34999 
0.487136 4.78846 3.92508 
0.492982 4.89228 3.69737 
-0.507206 4.7344 3.43809 
-0.596509 4.73325 2.90307 
-0.747536 4.85469 4.79616 
-0.566974 5.10526 5.12759 
-0.630669 4.89574 4.51298 
-0.448447 5.04942 3.74561 
0.612586 5.06241 2.90624 
-0.749928 4.93413 4.70034 
0.632328 5.10874 4.28088 
0.728852 5.15755 4.68978 
-0.614927 4.70627 2.70237 
-0.619196 4.91008 2.49511 
-0.61817 4.61089 2.66099 
-0.622694 5.11197 4.51499 
0.502929 5.06356 3.94836 
-0.564419 5.06353 2.92864 
0.620118 4.82533 2.49937 
0.609735 5.1164 4.55261 
-0.496863 5.06318 4.01506 
0.727316 5.07752 4.98597 
0.543347 5.06362 3.37517 
0.50025 4.97231 3.59777 
0.582257 5.04088 3.15251 
-0.517 4.96106 3.31153 
0.577852 4.51537 2.12464 
-0.622706 4.06257 2.06722 
0.620188 4.99874 5.12647 
0.649211 5.0692 5.12225 
-0.708423 5.13345 5.04638 
0.485485 5.05363 4.17778 
-0.626575 5.10877 4.28077 
-0.507091 5.0647 4.25582 
0.498787 5.02958 3.9125 
0.502901 5.06358 3.65918 
0.621616 4.30166 1.82222 
-0.483901 5.06358 3.65918 
0.378239 5.06472 4.25487 
0.489138 5.06089 4.16991 
0.066731 5.06094 3.92374 
-0.15964 5.05777 4.05207 
-0.387065 5.06248 3.24961 
0.440954 5.05914 3.12684 
0.591517 4.8996 2.4916 
0.566646 4.60224 2.28595 
0.504607 4.48582 2.00703 
0.280378 5.10587 4.35592 
-0.277508 5.11229 4.414 
-0.326693 5.10694 5.12786 
-0.74005 5.16313 4.69734 
-0.324716 5.11979 4.58213 
0.447173 5.13772 5.12242 
0.127 5.14478 5.1048 
-0.705678 5.15589 5.01103 
-0.345479 5.15253 5.04344 
-0.275832 5.16437 4.86114 
-0.461977 5.1639 4.7004 
0.444042 5.16213 5.05066 
0.043955 5.16376 4.6999 
0.067582 5.16549 5.01876 
-0.068809 5.16537 4.85947 
-0.776663 0.000111 0.045817 
-0.566974 5.10526 5.12759 
-0.683469 4.16576 5.03586 
-0.638476 4.36288 5.12426 
-0.07515 4.33331 5.03515 
0.621657 4.19454 5.05458 
-0.073763 4.1442 4.93444 
0.620188 4.99874 5.12647 
0.57987 4.37644 5.1339 
3 3 34 5
3 379 4 6
3 5 380 3
3 1 0 8
3 381 382 2
3 4 2 9
3 4 9 6
3 2 382 9
3 380 383 10
3 3 380 10
3 7 384 11
3 3 10 385
3 1 44 0
3 1 12 44
3 381 2 386
3 2 4 386
3 5 34 387
3 3 26 34
3 26 3 388
3 51 13 15
3 15 16 14
3 27 30 18
3 389 27 18
3 390 389 18
3 14 16 17
3 391 390 18
3 391 18 19
3 16 392 17
3 23 22 24
3 22 21 24
3 20 28 25
3 21 20 25
3 21 25 24
3 23 24 33
3 393 394 29
3 392 395 36
3 396 397 37
3 32 24 25
3 84 398 27
3 60 84 27
3 13 399 394
3 392 35 17
3 392 36 35
3 31 23 33
3 20 38 28
3 25 28 32
3 24 32 39
3 33 24 39
3 400 216 40
3 400 40 41
3 400 41 401
3 402 403 43
3 401 41 42
3 402 43 404
3 401 42 45
3 42 405 44
3 42 44 45
3 45 44 12
3 45 12 34
3 387 34 12
3 34 26 45
3 30 54 18
3 406 36 395
3 407 408 48
3 55 407 47
3 408 46 48
3 407 48 47
3 409 410 53
3 411 49 412
3 413 38 20
3 58 397 414
3 58 414 415
3 31 33 50
3 39 50 33
3 408 90 46
3 110 407 55
3 53 56 409
3 56 411 409
3 135 26 388
3 56 49 411
3 56 57 49
3 57 412 49
3 57 112 412
3 397 58 37
3 23 31 416
3 403 59 43
3 60 389 417
3 61 418 419
3 420 421 62
3 422 420 62
3 63 422 62
3 63 62 64
3 66 65 68
3 67 423 70
3 67 70 106
3 68 65 69
3 66 72 424
3 106 70 73
3 70 425 103
3 73 70 103
3 425 71 103
3 68 426 72
3 426 68 74
3 71 75 103
3 68 69 74
3 103 75 76
3 426 74 427
3 428 427 77
3 86 80 79
3 79 80 81
3 79 81 82
3 78 83 429
3 82 81 58
3 413 429 83
3 37 58 81
3 38 108 28
3 366 367 368
3 406 430 36
3 46 90 52
3 91 431 94
3 431 432 94
3 85 423 95
3 95 423 67
3 433 96 434
3 435 99 78
3 435 78 429
3 79 82 87
3 436 59 403
3 43 88 437
3 15 14 51
3 89 430 406
3 35 101 17
3 438 101 35
3 110 55 439
3 102 53 410
3 432 440 92
3 432 92 93
3 441 96 433
3 434 96 97
3 442 75 98
3 435 443 99
3 115 401 45
3 444 7 11
3 30 111 445
3 30 445 54
3 61 419 446
3 432 93 94
3 85 93 92
3 85 95 93
3 95 94 93
3 434 97 99
3 75 434 99
3 75 99 98
3 443 98 99
3 87 82 58
3 38 413 83
3 440 104 92
3 85 92 105
3 107 78 99
3 59 88 43
3 45 26 135
3 60 153 84
3 447 51 14
3 95 67 94
3 28 108 100
3 39 109 50
3 410 448 102
3 421 449 62
3 118 450 451
3 113 451 452
3 369 367 366
3 453 454 29
3 447 126 51
3 454 393 29
3 89 119 430
3 62 449 455
3 92 104 105
3 118 456 450
3 457 103 76
3 86 79 87
3 123 63 458
3 108 114 100
3 135 388 116
3 67 459 94
3 113 428 121
3 121 428 77
3 31 50 152
3 142 135 116
3 8 0 117
3 422 63 123
3 460 140 132
3 460 132 461
3 445 111 462
3 61 446 131
3 90 122 52
3 65 140 460
3 98 175 442
3 120 463 464
3 109 152 50
3 186 153 60
3 143 417 465
3 118 451 113
3 466 134 58
3 94 157 91
3 459 157 94
3 85 158 441
3 124 86 87
3 38 467 108
3 45 135 115
3 453 125 454
3 430 119 468
3 158 85 105
3 107 99 129
3 124 87 133
3 133 87 58
3 133 58 134
3 119 128 468
3 100 114 59
3 469 401 115
3 369 370 367
3 97 129 99
3 470 471 127
3 0 44 470
3 367 371 368
3 472 125 453
3 136 186 60
3 163 65 473
3 65 163 140
3 130 118 113
3 113 121 130
3 121 77 474
3 148 107 129
3 111 475 462
3 110 439 193
3 448 188 102
3 143 136 60
3 468 128 138
3 57 139 112
3 139 476 112
3 123 458 162
3 443 159 98
3 154 126 447
3 154 447 137
3 438 477 101
3 98 159 175
3 478 479 480
3 141 124 133
3 125 190 454
3 122 481 52
3 91 157 482
3 97 483 129
3 443 484 159
3 485 149 471
3 471 149 127
3 438 144 477
3 486 110 193
3 188 145 102
3 449 146 455
3 104 487 105
3 142 115 135
3 488 61 131
3 422 123 168
3 164 130 173
3 489 490 147
3 147 490 491
3 492 165 483
3 484 166 159
3 166 484 493
3 479 180 480
3 480 180 150
3 480 150 464
3 141 133 134
3 141 134 156
3 167 120 464
3 466 156 134
3 207 31 152
3 108 151 114
3 127 0 470
3 465 494 143
3 111 495 475
3 139 57 496
3 118 130 164
3 464 150 167
3 370 189 367
3 143 194 136
3 481 497 52
3 449 498 146
3 172 155 105
3 161 157 155
3 158 105 155
3 157 158 155
3 151 160 114
3 117 181 499
3 194 186 136
3 494 201 143
3 496 500 171
3 171 500 482
3 172 161 155
3 482 157 161
3 157 459 501
3 175 159 129
3 129 159 148
3 176 166 493
3 178 493 502
3 466 503 156
3 109 196 152
3 485 504 149
3 0 181 117
3 187 194 143
3 487 172 105
3 501 158 157
3 505 165 492
3 483 175 129
3 166 148 159
3 150 180 167
3 0 127 181
3 182 169 145
3 169 139 496
3 169 496 171
3 498 506 170
3 506 507 170
3 498 170 146
3 170 508 509
3 170 509 146
3 170 507 162
3 170 162 508
3 473 164 163
3 164 510 163
3 164 173 510
3 174 489 147
3 173 511 510
3 147 491 174
3 174 491 175
3 510 511 474
3 510 474 132
3 479 512 513
3 479 177 180
3 479 513 179
3 176 493 178
3 177 479 179
3 513 514 179
3 179 514 156
3 179 156 177
3 180 177 167
3 467 515 183
3 108 467 151
3 199 516 517
3 142 185 115
3 116 185 142
3 188 182 145
3 476 139 169
3 503 167 177
3 156 503 177
3 517 518 184
3 519 520 208
3 472 190 125
3 495 206 475
3 192 169 182
3 521 469 115
3 481 195 191
3 195 522 191
3 195 486 522
3 481 191 497
3 522 486 193
3 188 523 182
3 523 192 182
3 192 476 169
3 517 184 199
3 519 203 524
3 200 472 525
3 201 187 143
3 128 526 138
3 527 477 144
3 151 202 160
3 160 202 197
3 528 521 115
3 504 528 149
3 149 528 529
3 529 528 198
3 528 115 198
3 215 199 184
3 530 529 198
3 531 198 115
3 154 209 532
3 503 533 167
3 202 196 197
3 202 152 196
3 205 190 472
3 200 205 472
3 534 204 535
3 209 534 532
3 190 205 526
3 526 211 138
3 211 527 138
3 211 213 527
3 213 477 527
3 467 183 151
3 203 519 214
3 214 519 208
3 215 189 516
3 534 209 204
3 536 537 212
3 209 154 137
3 200 525 538
3 525 535 538
3 535 204 210
3 536 212 539
3 538 535 210
3 540 488 131
3 540 541 542
3 536 539 206
3 540 131 541
3 543 542 541
3 543 541 212
3 539 212 541
3 183 207 202
3 183 202 151
3 207 152 202
3 215 516 199
3 544 530 198
3 544 198 531
3 189 208 367
3 530 544 499
3 499 544 545
3 32 28 436
3 28 100 436
3 232 217 219
3 219 220 218
3 546 225 222
3 547 546 222
3 218 220 221
3 548 547 222
3 548 222 223
3 220 549 221
3 550 217 224
3 549 551 227
3 232 219 218
3 549 226 221
3 549 227 226
3 225 235 222
3 552 227 551
3 553 554 230
3 236 553 229
3 554 228 230
3 553 230 229
3 555 556 234
3 557 231 558
3 554 267 228
3 284 553 236
3 234 237 555
3 237 557 555
3 237 231 557
3 237 238 231
3 238 558 231
3 238 286 558
3 240 559 560
3 561 562 241
3 563 561 241
3 242 563 241
3 242 241 243
3 245 244 247
3 246 564 249
3 246 249 282
3 247 244 248
3 245 251 565
3 282 249 252
3 249 566 279
3 252 249 279
3 566 250 279
3 247 567 251
3 567 247 253
3 250 254 279
3 247 248 253
3 279 254 255
3 567 253 568
3 569 568 256
3 264 259 258
3 258 259 260
3 258 260 261
3 257 262 570
3 261 260 239
3 552 571 227
3 228 267 233
3 268 572 271
3 572 573 271
3 263 564 272
3 272 564 246
3 574 273 575
3 576 276 257
3 576 257 570
3 258 261 265
3 266 571 552
3 226 277 221
3 577 277 226
3 284 236 578
3 278 234 556
3 573 579 269
3 573 269 270
3 580 273 574
3 575 273 274
3 581 254 275
3 576 582 276
3 225 285 583
3 225 583 235
3 240 560 584
3 573 270 271
3 263 270 269
3 263 272 270
3 272 271 270
3 575 274 276
3 254 575 276
3 254 276 275
3 582 275 276
3 265 261 239
3 579 280 269
3 263 269 281
3 283 257 276
3 360 294 361
3 585 232 218
3 272 246 271
3 556 586 278
3 562 587 241
3 288 588 589
3 287 589 590
3 585 295 232
3 591 550 224
3 266 289 571
3 241 587 592
3 269 280 281
3 288 593 588
3 594 279 255
3 264 258 265
3 292 242 595
3 246 596 271
3 287 569 290
3 290 569 256
3 563 242 292
3 597 306 300
3 597 300 598
3 583 285 599
3 240 584 299
3 267 291 233
3 244 306 597
3 275 335 581
3 342 294 360
3 308 360 362
3 288 589 287
3 271 318 268
3 596 318 271
3 263 319 580
3 293 264 265
3 224 600 591
3 571 289 601
3 319 263 281
3 283 276 297
3 293 265 301
3 301 265 239
3 301 239 302
3 289 296 601
3 274 297 276
3 308 342 360
3 323 244 602
3 244 323 306
3 298 288 287
3 287 290 298
3 290 256 603
3 313 283 297
3 285 604 599
3 284 578 348
3 586 344 278
3 601 296 304
3 238 305 286
3 305 605 286
3 292 595 322
3 582 320 275
3 315 295 585
3 315 585 303
3 577 606 277
3 275 320 335
3 607 608 609
3 307 293 301
3 600 345 591
3 291 610 233
3 268 318 611
3 274 612 297
3 582 613 320
3 577 309 606
3 614 284 348
3 344 310 278
3 587 311 592
3 280 615 281
3 616 240 299
3 563 292 328
3 324 298 333
3 617 618 312
3 312 618 619
3 620 325 612
3 613 326 320
3 326 613 621
3 608 340 609
3 609 340 314
3 609 314 622
3 307 301 302
3 307 302 317
3 623 624 308
3 285 625 604
3 305 238 626
3 288 298 324
3 622 314 327
3 610 627 233
3 587 628 311
3 332 316 281
3 321 318 316
3 319 281 316
3 318 319 316
3 624 351 308
3 626 629 331
3 331 629 611
3 332 321 316
3 611 318 321
3 318 596 630
3 335 320 297
3 297 320 313
3 336 326 621
3 338 621 631
3 343 342 308
3 615 332 281
3 630 319 318
3 632 325 620
3 612 335 297
3 326 313 320
3 314 340 327
3 341 329 310
3 329 305 626
3 329 626 331
3 628 633 330
3 633 634 330
3 628 330 311
3 330 635 636
3 330 636 311
3 330 634 322
3 330 322 635
3 602 324 323
3 324 637 323
3 324 333 637
3 334 617 312
3 333 638 637
3 312 619 334
3 334 619 335
3 637 638 603
3 637 603 300
3 608 639 640
3 608 337 340
3 608 640 339
3 336 621 338
3 337 608 339
3 640 641 339
3 339 641 317
3 339 317 337
3 340 337 327
3 344 341 310
3 605 305 329
3 625 354 604
3 347 329 341
3 610 349 346
3 349 642 346
3 349 614 642
3 610 346 627
3 642 614 348
3 344 643 341
3 643 347 341
3 347 605 329
3 350 600 644
3 351 343 308
3 296 645 304
3 646 606 309
3 315 355 647
3 353 345 600
3 350 353 600
3 648 352 644
3 355 648 647
3 345 353 645
3 645 357 304
3 357 646 304
3 357 359 646
3 359 606 646
3 648 355 352
3 649 650 358
3 355 315 303
3 350 644 651
3 644 352 356
3 649 358 652
3 651 644 356
3 653 616 299
3 653 654 655
3 649 652 354
3 653 299 654
3 656 655 654
3 656 654 358
3 652 358 654
3 294 363 361
3 364 361 363
3 364 362 360
3 365 623 362
3 308 362 623
3 294 376 363
3 376 364 363
3 378 364 377
3 378 623 365
3 444 373 374
3 382 373 9
3 382 657 372
3 520 7 375
3 7 374 375
3 657 189 370
3 208 520 367
3 372 370 369
3 372 366 373
3 374 366 368
3 375 368 371
3 375 367 520
3 658 659 660
3 659 661 660
3 662 661 663
3 662 664 665
3 66 68 72
3 85 441 423
3 436 100 59
3 143 60 417
3 245 247 251
3 263 580 564
3 364 360 361
3 364 365 362
3 376 377 364
3 378 365 364
3 444 9 373
3 382 372 373
3 7 444 374
3 372 657 370
3 372 369 366
3 374 373 366
3 375 374 368
3 375 371 367
3 659 663 661
3 662 665 661
