ply
format ascii 1.0
comment VCGLIB generated
comment TextureFile Dungeons_Texture_01.png
element vertex 352
property float x
property float y
property float z
property float nx
property float ny
property float nz
property uchar red
property uchar green
property uchar blue
property uchar alpha
property float texture_u
property float texture_v
element face 450
property list uchar int vertex_indices
end_header
1.543427 4.499895 0.266512 0.01621393 0.06027663 0.99805 120 120 119 255 0.199488 0.300648
1.075935 4.573746 0.229701 -0.04415002 0.2076131 0.9772142 120 120 119 255 0.199488 0.300648
1.112228 4.337769 0.281475 -0.004188968 0.1029425 0.9946785 120 120 119 255 0.199488 0.300648
1.055359 4.033984 0.282586 -0.4252172 -0.4039705 0.8099372 97 95 95 255 0.198381 0.279604
2.527344 3.917239 0.2759 -0.000794548 -0.0002356512 0.9999996 106 103 98 255 0.223854 0.293449
1.563477 3.95471 0.275143 0.0004228656 0.001996423 0.9999979 106 103 98 255 0.223854 0.293449
2.513901 3.436332 0.275776 0.0004228656 0.001996423 0.9999979 106 103 98 255 0.223854 0.293449
1.50367 3.444731 0.274644 -0.1128787 0.00360141 0.9936023 120 120 119 255 0.199488 0.300648
1.516708 3.93118 0.274362 -0.05663389 -0.02532381 0.9980738 120 120 119 255 0.199488 0.300648
1.287849 3.482398 0.249989 -0.02320468 -0.01806504 0.9995675 120 120 119 255 0.199488 0.300648
1.547462 3.495513 0.277111 0.001640276 0.004228483 0.9999897 106 103 98 255 0.223854 0.293449
0.740723 3.955014 0.275529 0.02173183 -0.02884643 0.9993476 120 120 119 255 0.199488 0.300648
0.727013 3.472364 0.27443 0.04360074 -0.003513324 0.9990429 120 120 119 255 0.199488 0.300648
2.512527 2.794987 0.278796 0.0005538274 -0.003170463 0.9999948 120 120 119 255 0.199488 0.300648
1.620079 2.810682 0.274564 -0.001236608 0.004847346 0.9999875 120 120 119 255 0.199488 0.300648
1.560974 2.535281 0.277063 -0.5124131 -0.04819519 0.8573856 97 95 95 255 0.198381 0.279604
2.136063 2.330235 0.277531 0.001119029 0.0007500925 0.9999991 120 120 119 255 0.199488 0.300648
2.527504 2.331885 0.275261 0.005830167 -0.007444358 0.9999553 120 120 119 255 0.199488 0.300648
1.522789 2.338877 0.221622 0.1321265 -0.4190231 0.8983108 97 95 95 255 0.198381 0.279604
2.523827 1.68969 0.262533 -0.003102291 0.02836838 0.9995927 106 103 98 255 0.223854 0.293449
1.556664 1.675221 0.259942 -0.01045167 0.0130331 0.9998605 106 103 98 255 0.223854 0.293449
2.525024 1.21142 0.27611 -0.01045167 0.0130331 0.9998605 106 103 98 255 0.223854 0.293449
1.561089 1.195336 0.258914 -0.01779803 -0.002305954 0.9998389 106 103 98 255 0.223854 0.293449
0.85656 1.131589 0.275947 0.001737153 -0.003484402 0.9999924 120 120 119 255 0.199488 0.300648
-0.007652 1.116009 0.277394 -0.005619163 -0.01689672 0.9998415 120 120 119 255 0.199488 0.300648
0.844017 0.648925 0.274287 -0.005619163 -0.01689672 0.9998415 120 120 119 255 0.199488 0.300648
-0.023827 0.627874 0.262383 -0.01297416 -0.03030508 0.9994565 120 120 119 255 0.199488 0.300648
0.682014 5.058307 0.258909 0.1098758 -0.03557486 0.9933085 120 120 119 255 0.199488 0.300648
-0.080643 5.05872 0.258803 -0.0004334571 0.002389422 0.9999971 120 120 119 255 0.199488 0.300648
0.56292 4.718035 0.259896 0.05870975 -0.1235667 0.990598 120 120 119 255 0.199488 0.300648
2.308395 5.054064 0.258339 0.03254645 0.001762763 0.9994687 120 120 119 255 0.199488 0.300648
1.567986 5.081308 0.257718 -0.0007964235 0.001149293 0.999999 120 120 119 255 0.199488 0.300648
1.553032 4.60022 0.258259 0.01115152 -0.01873645 0.9997623 120 120 119 255 0.199488 0.300648
0.676414 4.574463 0.223563 0.1132825 -0.1586587 0.9808132 120 120 119 255 0.199488 0.300648
2.033279 4.591367 0.246815 -0.0005715485 -0.02455878 0.9996982 120 120 119 255 0.199488 0.300648
2.515968 4.559282 0.258181 0.05398414 0.02232892 0.9982921 120 120 119 255 0.199488 0.300648
1.51062 5.058789 0.258863 0.03126416 -0.02701494 0.999146 120 120 119 255 0.199488 0.300648
0.732758 5.057274 0.258696 -0.0002172778 0.00132026 0.9999991 120 120 119 255 0.199488 0.300648
0.758072 4.575171 0.259338 -0.001507209 0.003327491 0.9999933 120 120 119 255 0.199488 0.300648
1.098267 4.61727 0.260065 0.04702047 -0.04119733 0.998044 120 120 119 255 0.199488 0.300648
1.523094 4.544657 0.212254 0.09661939 -0.08753777 0.9914645 120 120 119 255 0.199488 0.300648
2.501785 4.98361 0.236497 0.1318159 0.05498397 0.9897481 120 120 119 255 0.199488 0.300648
-0.080338 4.575271 0.259688 0.03329207 -0.1514449 0.9879049 120 120 119 255 0.199488 0.300648
0.395454 4.561997 0.222235 0.03632693 -0.2711383 0.9618547 120 120 119 255 0.199488 0.300648
1.319763 4.537187 0.208903 0.04235906 0.266992 0.9627674 97 95 95 255 0.198381 0.279604
-0.084358 4.558084 0.197927 -0.1265906 0.1158198 0.9851704 120 120 119 255 0.199488 0.300648
-0.106758 4.020277 0.258275 -0.06623691 0.06035097 0.9959772 120 120 119 255 0.199488 0.300648
0.334351 4.500281 0.258525 -0.06623691 0.06035097 0.9959772 120 120 119 255 0.199488 0.300648
2.45993 4.545403 0.198998 0.07344469 0.1170751 0.9904036 120 120 119 255 0.199488 0.300648
1.87365 4.500486 0.247784 0.03849999 0.03524923 0.9986367 120 120 119 255 0.199488 0.300648
2.438034 4.035873 0.260853 0.03466014 0.07014561 0.9969344 120 120 119 255 0.199488 0.300648
1.002274 4.499086 0.258303 -0.006703423 -0.06945687 0.9975625 106 103 98 255 0.223854 0.293449
0.399582 4.525254 0.256075 0.02680296 -0.02979429 0.9991966 106 103 98 255 0.223854 0.293449
1.006561 4.013786 0.224542 0.02680296 -0.02979429 0.9991966 106 103 98 255 0.223854 0.293449
1.913765 4.020452 0.258976 0.01181873 0.02429419 0.999635 120 120 119 255 0.199488 0.300648
0.399704 4.034009 0.260964 0.06023701 0.009948688 0.9981346 106 103 98 255 0.223854 0.293449
0.739731 3.989049 0.212386 0.1064139 0.07321232 0.991623 120 120 119 255 0.199488 0.300648
0.346596 3.928836 0.25902 0.01080341 0.01361167 0.999849 120 120 119 255 0.199488 0.300648
0.666122 3.438685 0.260919 0.04306718 0.03194394 0.9985614 120 120 119 255 0.199488 0.300648
1.545395 3.950043 0.210909 -0.04252909 -0.03734935 0.9983969 97 95 95 255 0.198381 0.279604
0.273331 3.479394 0.253241 -0.01773047 -0.009965199 0.9997932 120 120 119 255 0.199488 0.300648
0.4217 3.385903 0.209738 -0.08818903 -0.05465934 0.994603 97 95 95 255 0.198381 0.279604
1.913612 2.879474 0.259191 -6.862622e-05 0.005267892 0.9999861 120 120 119 255 0.199488 0.300648
1.915466 3.365679 0.255734 -0.0001164986 0.008349286 0.9999651 120 120 119 255 0.199488 0.300648
0.88295 3.355826 0.258688 -0.003615145 -0.002399646 0.9999906 120 120 119 255 0.199488 0.300648
2.452965 3.365819 0.255679 9.947354e-05 0.01082608 0.9999415 120 120 119 255 0.199488 0.300648
2.438026 2.894254 0.260786 -0.001571326 0.008974235 0.9999585 120 120 119 255 0.199488 0.300648
0.374298 3.366316 0.254561 -0.01022093 -0.008364077 0.9999128 120 120 119 255 0.199488 0.300648
-0.037071 2.878072 0.246272 -0.009873223 -0.008346858 0.9999164 120 120 119 255 0.199488 0.300648
0.892433 2.893534 0.254932 -0.009177797 -0.008312413 0.9999233 120 120 119 255 0.199488 0.300648
0.937592 2.872695 0.259439 0.0002430904 0.001581912 0.9999987 120 120 119 255 0.199488 0.300648
2.459053 2.858365 0.198547 0.6319827 0.363953 0.6842047 97 95 95 255 0.198381 0.279604
-0.057793 2.814102 0.260077 -0.08492642 -0.02590921 0.9960504 120 120 119 255 0.199488 0.300648
-0.015396 2.332358 0.240574 -0.1703351 -0.05482147 0.9838601 120 120 119 255 0.199488 0.300648
0.104736 2.33341 0.261431 -0.05516668 -0.01748556 0.998324 120 120 119 255 0.199488 0.300648
0.674774 2.786331 0.259298 0.002724968 0.001279842 0.9999955 120 120 119 255 0.199488 0.300648
0.653625 2.301155 0.259069 0.004264562 -0.0006578853 0.9999907 120 120 119 255 0.199488 0.300648
2.532562 2.818686 0.222594 0.9151971 0.3718132 0.1554644 97 95 95 255 0.198381 0.279604
2.537354 2.316321 0.172771 0.7983079 -0.2703007 0.538184 97 95 95 255 0.198381 0.279604
-0.003784 2.251298 0.259502 0.003355876 -0.001135325 0.9999937 106 103 98 255 0.223854 0.293449
-0.007263 1.768018 0.258965 0.04702848 -0.03622932 0.9982364 106 103 98 255 0.223854 0.293449
0.381317 2.251623 0.25821 0.04702848 -0.03622932 0.9982364 106 103 98 255 0.223854 0.293449
1.864151 2.244986 0.259229 0.02882912 -0.02463834 0.9992807 120 120 119 255 0.199488 0.300648
1.055611 2.232523 0.282248 0.02279852 -0.0349514 0.9991289 120 120 119 255 0.199488 0.300648
1.86702 1.758565 0.247153 0.02279852 -0.0349514 0.9991289 120 120 119 255 0.199488 0.300648
2.500168 2.247157 0.258577 0.0009664805 0.0001332294 0.9999995 120 120 119 255 0.199488 0.300648
1.91993 2.252964 0.259137 0.0003949135 -0.0005268507 0.9999998 120 120 119 255 0.199488 0.300648
2.487427 1.761565 0.258654 0.0003949135 -0.0005268507 0.9999998 120 120 119 255 0.199488 0.300648
1.05648 1.752578 0.260486 0.01676467 -0.04525947 0.9988346 120 120 119 255 0.199488 0.300648
1.001175 2.251617 0.258231 0 -0.001284108 0.9999992 106 103 98 255 0.223854 0.293449
0.447113 2.251617 0.258231 -0.02783388 -0.03338715 0.9990548 106 103 98 255 0.223854 0.293449
1.002228 1.770341 0.257613 -0.02783388 -0.03338715 0.9990548 106 103 98 255 0.223854 0.293449
1.9077 1.781284 0.258575 -0.0001766539 -0.00118693 0.9999993 120 120 119 255 0.199488 0.300648
0.385849 1.755229 0.222212 0.01751486 -0.06850325 0.9974971 106 103 98 255 0.223854 0.293449
0.322189 1.688774 0.232627 -0.01314426 0.6752064 0.7375118 97 95 95 255 0.198381 0.279604
-0.034508 1.690613 0.258178 -0.5807468 0.7580789 0.2967317 97 95 95 255 0.198381 0.279604
0.503914 1.671686 0.260714 0.008280166 0.8771772 0.4800954 97 95 95 255 0.198381 0.279604
0.723183 1.711135 0.21172 0.2050481 0.07251131 0.9760622 120 120 119 255 0.199488 0.300648
0.681808 1.198667 0.258483 0.0248088 -0.03998734 0.9988922 120 120 119 255 0.199488 0.300648
1.510162 1.684503 0.258576 0.001030396 2.02433e-06 0.9999995 120 120 119 255 0.199488 0.300648
0.732819 1.67171 0.259377 0.0003788931 -0.001068596 0.9999993 120 120 119 255 0.199488 0.300648
1.510162 1.198675 0.258577 0.0003788931 -0.001068596 0.9999993 120 120 119 255 0.199488 0.300648
0.732971 1.198622 0.258365 -0.0002726098 -0.002139214 0.9999977 120 120 119 255 0.199488 0.300648
-0.041451 1.176823 0.160252 -0.1268219 -0.1840593 0.9746991 120 120 119 255 0.199488 0.300648
2.424629 1.188284 0.222376 0.2090398 -0.5241181 0.8255922 97 95 95 255 0.198381 0.279604
0.669327 1.146325 0.211729 0.08552487 0.4686725 0.8792222 97 95 95 255 0.198381 0.279604
2.423309 1.109919 0.222903 0.07141467 0.08104044 0.9941491 106 103 98 255 0.223854 0.293449
1.930618 1.094308 0.259568 0.0357599 0.03924409 0.9985896 106 103 98 255 0.223854 0.293449
2.493423 0.614066 0.258287 0.0357599 0.03924409 0.9985896 106 103 98 255 0.223854 0.293449
1.865868 1.093799 0.258471 -0.0005094968 0.001385815 0.9999989 120 120 119 255 0.199488 0.300648
0.928635 1.125082 0.258492 -0.0005878816 0.0002364932 0.9999998 120 120 119 255 0.199488 0.300648
1.282104 0.629523 0.258817 -0.0007467043 0.0008521509 0.9999993 120 120 119 255 0.199488 0.300648
0.913483 0.639476 0.258369 -0.001221118 -0.000215178 0.9999992 120 120 119 255 0.199488 0.300648
1.914314 0.614065 0.258285 -3.494795e-06 -0.002671477 0.9999965 106 103 98 255 0.223854 0.293449
0.862312 1.129814 0.223065 0.6668788 0.4192583 0.6160318 97 95 95 255 0.198381 0.279604
1.857887 0.610718 0.259469 -0.001064349 0.002083465 0.9999973 120 120 119 255 0.199488 0.300648
-0.033493 0.59637 0.134137 -0.9928834 -0.04298413 0.1110622 97 95 95 255 0.198381 0.279604
1.061371 0.612761 0.211694 -0.04246214 -0.001431811 0.9990971 97 95 95 255 0.198381 0.279604
1.51725 0.527487 0.254261 0.003942221 -0.02779822 0.9996058 106 103 98 255 0.223854 0.293449
0.740128 0.54967 0.258366 0.005381431 0.003476136 0.9999795 106 103 98 255 0.223854 0.293449
0.728539 0.069935 0.260096 0.02761919 -0.03486885 0.9990102 106 103 98 255 0.223854 0.293449
0.682289 0.533157 0.259691 -2.848161e-05 -0.001673043 0.9999986 120 120 119 255 0.199488 0.300648
-0.007774 0.533306 0.259581 -0.0001597269 -0.001485446 0.9999989 120 120 119 255 0.199488 0.300648
-0.008308 0.050009 0.258863 -2.848161e-05 -0.001673043 0.9999986 120 120 119 255 0.199488 0.300648
2.527 0.532688 0.259648 0.5769188 0.5586109 0.5959183 97 95 95 255 0.198381 0.279604
2.40435 0.066605 0.24809 0.1379763 -0.8177432 0.5588012 97 95 95 255 0.198381 0.279604
2.508232 0.066999 0.214602 0.7811638 -0.3090052 0.5424933 97 95 95 255 0.198381 0.279604
1.2136 0.053137 0.23461 0.003220062 -0.04344913 0.9990505 106 103 98 255 0.223854 0.293449
0.68248 0.050537 0.258793 0.0001027636 -0.001860641 0.9999983 120 120 119 255 0.199488 0.300648
1.504601 0.039753 0.247062 -0.04337239 -0.01361999 0.9989662 106 103 98 255 0.223854 0.293449
1.562859 0.53297 0.259578 -0.0002331433 -0.02504599 0.9996863 120 120 119 255 0.199488 0.300648
2.515137 5.075819 0.108394 0.2742838 0.9377865 0.2128967 97 95 95 255 0.198381 0.279604
-0.052795 3.934326 0.247894 -0.5752374 -0.1160747 0.809709 97 95 95 255 0.198381 0.279604
2.422348 3.947502 0.210123 0.3092852 0.4604601 0.8320572 97 95 95 255 0.198381 0.279604
-0.075966 3.453387 0.247753 -0.02138341 -0.004687131 0.9997604 120 120 119 255 0.199488 0.300648
-0.056007 3.392269 0.145577 -0.8908144 0.02782913 0.4535144 97 95 95 255 0.198381 0.279604
1.245514 3.400966 0.205032 0.004411536 -0.01312586 0.9999042 97 95 95 255 0.198381 0.279604
1.541061 3.428889 0.212042 -0.0747248 -0.4111825 0.9084851 97 95 95 255 0.198381 0.279604
0.685913 3.427495 0.21158 0.01790948 0.1022336 0.9945992 97 95 95 255 0.198381 0.279604
-0.047302 3.35784 0.249392 -0.01212334 -0.006761056 0.9999037 120 120 119 255 0.199488 0.300648
0.935768 2.830599 0.211814 -0.08368518 0.2628616 0.9611975 97 95 95 255 0.198381 0.279604
1.492355 2.835957 0.257589 -0.02047428 0.02334446 0.9995178 120 120 119 255 0.199488 0.300648
0.718628 2.79579 0.242678 -0.0235679 0.01778776 0.999564 120 120 119 255 0.199488 0.300648
1.511055 2.354836 0.269209 -0.0235679 0.01778776 0.999564 120 120 119 255 0.199488 0.300648
0.735847 2.312959 0.249045 -0.02666057 0.01223035 0.9995697 120 120 119 255 0.199488 0.300648
0.427437 2.271851 0.211995 -0.09803589 -0.1048165 0.9896477 97 95 95 255 0.198381 0.279604
1.860809 2.31125 0.223679 0.0262538 -0.1872519 0.9819611 97 95 95 255 0.198381 0.279604
1.639732 2.293323 0.213356 -0.0300345 0.3789446 0.9249319 97 95 95 255 0.198381 0.279604
1.061523 1.730891 0.211688 -0.3067053 -0.08702099 0.9478181 97 95 95 255 0.198381 0.279604
1.901611 1.750887 0.211746 -0.05798275 -0.4102414 0.9101319 97 95 95 255 0.198381 0.279604
-0.01619 1.738042 0.160393 -0.8845678 0.1734083 0.4329773 97 95 95 255 0.198381 0.279604
2.494263 1.735257 0.183798 0.8970537 0.123465 0.4243243 97 95 95 255 0.198381 0.279604
0.931389 1.152024 0.211507 -0.2569834 -0.09333342 0.9618984 97 95 95 255 0.198381 0.279604
1.578918 1.132013 0.212036 -0.3149859 0.3508758 0.881856 97 95 95 255 0.198381 0.279604
1.876366 1.105358 0.220716 0.1301195 0.1854904 0.9739929 97 95 95 255 0.198381 0.279604
0.110054 0.616053 0.211736 -0.06496354 -0.111878 0.9915962 97 95 95 255 0.198381 0.279604
1.557823 0.547478 0.222288 -0.08561709 -0.02307241 0.996061 97 95 95 255 0.198381 0.279604
1.526581 5.102062 0.085645 0.0287112 0.9876165 0.154238 97 95 95 255 0.198381 0.279604
-0.091187 5.099802 -0.086692 -0.7006409 0.5822735 -0.4123833 97 95 95 255 0.198381 0.279604
-0.068733 2.857653 0.082918 -0.9954019 0.04870284 0.08248152 97 95 95 255 0.198381 0.279604
1.520737 2.849468 0.212444 -0.1065034 -0.1275269 0.9861004 97 95 95 255 0.198381 0.279604
0.035873 2.826804 0.208215 -0.1799053 0.4787586 0.8593162 97 95 95 255 0.198381 0.279604
-0.090942 2.298002 0.123013 -0.8552607 -0.4391851 0.2750375 97 95 95 255 0.198381 0.279604
0.651581 2.268094 0.210001 0.3063416 0.2862812 0.9078535 97 95 95 255 0.198381 0.279604
1.006317 2.269133 0.210052 0.1630148 0.09853078 0.9816914 97 95 95 255 0.198381 0.279604
1.543587 1.710808 0.211852 0.08534957 -0.06712761 0.9940872 97 95 95 255 0.198381 0.279604
0.850731 0.613042 0.212022 0.1074972 -0.2728381 0.9560354 97 95 95 255 0.198381 0.279604
0.686249 0.547168 0.222352 0.07381476 0.4549541 0.8874504 97 95 95 255 0.198381 0.279604
1.864799 0.572483 0.212013 0.1087884 0.2663197 0.9577259 97 95 95 255 0.198381 0.279604
2.502411 0.587 0.158769 0.8553296 -0.08610728 0.5108786 97 95 95 255 0.198381 0.279604
-0.019325 0.008208 -0.086693 -0.7855405 -0.5772583 -0.2229327 97 95 95 255 0.198381 0.279604
0.695732 0.007645 0.085743 0.01036612 -0.9797885 0.1997675 97 95 95 255 0.198381 0.279604
0.694794 5.101235 0.08557 0.4309837 0.8883865 0.1581851 97 95 95 255 0.198381 0.279604
0.707069 5.020353 0.211612 0.2120045 0.4489154 0.8680605 97 95 95 255 0.198381 0.279604
1.520706 5.021868 0.211538 0.2845719 0.3948978 0.8735414 97 95 95 255 0.198381 0.279604
2.463203 3.980503 0.122123 0.939837 0.2931221 0.1754589 97 95 95 255 0.198381 0.279604
-0.05542 3.979093 0.123511 -0.9347598 -0.3536241 -0.03426578 97 95 95 255 0.198381 0.279604
2.460983 3.389773 0.174099 0.8980094 0.04224183 0.4379438 97 95 95 255 0.198381 0.279604
0.721619 2.82903 0.211465 -0.1297509 -0.06953952 0.9891052 97 95 95 255 0.198381 0.279604
2.508492 1.138951 0.108634 0.9009134 -0.2196535 0.3743092 97 95 95 255 0.198381 0.279604
0.705894 0.090863 0.208913 -0.006658754 -0.4695033 0.8829056 97 95 95 255 0.198381 0.279604
1.506958 -0 0.084894 -0.01175656 -0.9869815 0.160404 97 95 95 255 0.198381 0.279604
-0.020302 2.271622 0.122459 -0.8173367 -0.5109962 0.2661646 97 95 95 255 0.198381 0.279604
2.544907 0.007558 0.085282 0.4817371 -0.8476077 0.222465 97 95 95 255 0.198381 0.279604
-0.094971 4.579398 -0.086692 -0.8468139 0.02557793 -0.531274 97 95 95 255 0.198381 0.279604
2.544563 0.572764 -0.086693 0.9537871 0.06706992 -0.2929022 97 95 95 255 0.198381 0.279604
-0.117409 3.978666 -0.086692 -0.5481198 -0.3592455 -0.7553194 97 95 95 255 0.198381 0.279604
2.466415 2.872321 -0.067802 0.9821889 0.1631482 -0.09320804 97 95 95 255 0.198381 0.279604
2.47081 4.51906 -0.08837 0.9354191 -0.254623 -0.2452718 97 95 95 255 0.198381 0.279604
2.553085 5.080465 -0.086692 0.865329 0.4701726 -0.1736188 97 95 95 255 0.198381 0.279604
-0.045158 3.958834 -0.09314 -0.6837823 -0.3593619 -0.6350597 97 95 95 255 0.198381 0.279604
2.453484 3.95257 -0.104472 0.9826002 0.07909764 -0.1680492 97 95 95 255 0.198381 0.279604
-0.04586 2.87652 -0.081844 -0.8464333 -0.001746829 -0.5324919 97 95 95 255 0.198381 0.279604
1.538925 0.008835 -0.086693 0.002279544 -0.9650961 -0.2618864 97 95 95 255 0.198381 0.279604
0.720398 5.101235 -0.086308 0.003341767 0.9912381 -0.1320454 97 95 95 255 0.198381 0.279604
2.453796 3.404 -0.104693 0.8995719 -0.3965986 -0.1829755 97 95 95 255 0.198381 0.279604
-0.073967 3.429837 -0.094242 -0.8298641 -0.06393983 -0.5542899 97 95 95 255 0.198381 0.279604
2.544907 2.28346 -0.093896 0.9654774 -0.05372898 -0.2548854 97 95 95 255 0.198381 0.279604
0.69619 0.00813 -0.08648 0.004732671 -0.9707333 -0.2401135 97 95 95 255 0.198381 0.279604
-0.091713 2.2892 -0.080406 -0.8117419 -0.5028715 -0.2969771 97 95 95 255 0.198381 0.279604
2.554619 1.156981 -0.095076 0.9568248 -0.07042246 -0.2820054 97 95 95 255 0.198381 0.279604
2.471695 1.733557 -0.100802 0.896232 0.08836032 -0.434696 97 95 95 255 0.198381 0.279604
-0.02137 1.156108 -0.08939 -0.8333135 -0.02911803 -0.5520334 97 95 95 255 0.198381 0.279604
0.017311 0.610875 -0.097463 -0.8989654 0.008329337 -0.4379406 97 95 95 255 0.198381 0.279604
2.544907 0.007726 -0.079159 0.4322237 -0.6066124 -0.6672362 97 95 95 255 0.198381 0.279604
-0.018265 2.258271 -0.086693 -0.8241905 -0.1778547 -0.5376595 97 95 95 255 0.198381 0.279604
-0.042824 1.733475 -0.086693 -0.9150166 0.1123294 -0.3874621 97 95 95 255 0.198381 0.279604
2.529877 3.392445 -0.094308 0.6249391 -0.5485861 -0.5554318 97 95 95 255 0.198381 0.279604
1.528168 5.10222 -0.086692 0.01121759 0.9854559 -0.1695611 97 95 95 255 0.198381 0.279604
2.456505 4.484102 -0.152651 0.7811779 -0.006187283 -0.6242779 97 95 95 255 0.198381 0.279604
0.048897 5.071526 -0.15313 -0.402247 0.5104145 -0.760049 97 95 95 255 0.198381 0.279604
2.45607 5.071217 -0.152651 0.3591666 0.4159216 -0.8354692 97 95 95 255 0.198381 0.279604
0.013374 4.175358 -0.08811 -0.4236009 0.008944478 -0.9058048 97 95 95 255 0.198381 0.279604
0.032166 4.640898 -0.153047 -0.7594686 0.002440633 -0.6505395 97 95 95 255 0.198381 0.279604
0.03257 3.853951 -0.104795 -0.5861593 0.02132285 -0.8099152 97 95 95 255 0.198381 0.279604
0.032639 3.131884 -0.152778 -0.3270076 0.001854885 -0.9450199 97 95 95 255 0.198381 0.279604
2.456223 2.485161 -0.152441 0.4126275 0.009959355 -0.9108455 97 95 95 255 0.198381 0.279604
0.032516 1.252605 -0.104205 -0.7008613 -0.002706326 -0.7132925 97 95 95 255 0.198381 0.279604
0.032166 1.975723 -0.153048 -0.5819257 -0.0117281 -0.8131573 97 95 95 255 0.198381 0.279604
2.456505 1.113472 -0.152652 0.5367953 -0.008292537 -0.8436718 97 95 95 255 0.198381 0.279604
2.453827 0.569124 -0.103915 0.6076336 -0.008351968 -0.7941736 97 95 95 255 0.198381 0.279604
0.031197 0.05623 -0.152825 -0.3809013 -0.3387151 -0.8603408 97 95 95 255 0.198381 0.279604
2.456032 0.056046 -0.152687 0.5726991 -0.2633182 -0.7763242 97 95 95 255 0.198381 0.279604
1.84771 0.056265 -0.152761 0.0006089275 -0.5267292 -0.8500329 97 95 95 255 0.198381 0.279604
1.695984 5.071003 -0.15276 -0.0001048556 0.5373409 -0.8433651 97 95 95 255 0.198381 0.279604
2.456505 3.54346 -0.152652 0.8135426 0.007056252 -0.5814626 97 95 95 255 0.198381 0.279604
0.031532 0.778308 -0.152705 -0.7730132 0.005814357 -0.6343634 97 95 95 255 0.198381 0.279604
1.112228 4.337769 0.281475 -0.5318366 0.102635 0.8406045 97 95 95 255 0.198381 0.279604
1.075935 4.573746 0.229701 -0.1380156 -0.1319287 0.981604 97 95 95 255 0.198381 0.279604
2.136063 2.330235 0.277531 -0.03628222 -0.8370493 0.5459232 97 95 95 255 0.198381 0.279604
1.098267 4.61727 0.260065 0.02088586 -0.5640441 0.8254806 97 95 95 255 0.198381 0.279604
1.523094 4.544657 0.212254 -0.1627046 0.1041475 0.9811628 97 95 95 255 0.198381 0.279604
1.055359 4.033984 0.282586 0.04013281 -0.0007775641 0.9991941 120 120 119 255 0.199488 0.300648
1.006561 4.013786 0.224542 -0.09103378 0.2020801 0.975129 97 95 95 255 0.198381 0.279604
0.740723 3.955014 0.275529 -0.4775698 0.6646947 0.5745504 97 95 95 255 0.198381 0.279604
1.516708 3.93118 0.274362 0.4385743 0.6310404 0.6398755 97 95 95 255 0.198381 0.279604
1.547462 3.495513 0.277111 -0.8466336 -0.2763265 0.4548134 97 95 95 255 0.198381 0.279604
1.563477 3.95471 0.275143 -0.4125667 0.8752773 0.2523459 97 95 95 255 0.198381 0.279604
1.50367 3.444731 0.274644 0.736607 -0.4660577 0.4901025 97 95 95 255 0.198381 0.279604
0.273331 3.479394 0.253241 -0.04496955 -0.6592412 0.7505857 97 95 95 255 0.198381 0.279604
0.666122 3.438685 0.260919 0.4169836 -0.6484676 0.6368787 97 95 95 255 0.198381 0.279604
2.512527 2.794987 0.278796 0.497506 0.6576085 0.5657197 97 95 95 255 0.198381 0.279604
1.620079 2.810682 0.274564 -0.178698 0.6467114 0.7415062 97 95 95 255 0.198381 0.279604
2.527504 2.331885 0.275261 0.8641496 -0.4283936 0.2640539 97 95 95 255 0.198381 0.279604
0.503914 1.671686 0.260714 0.1006965 0.03318024 0.9943638 120 120 119 255 0.199488 0.300648
-0.034508 1.690613 0.258178 -0.06627189 -0.09588186 0.9931841 120 120 119 255 0.199488 0.300648
1.561089 1.195336 0.258914 -0.3555962 -0.6654722 0.6562759 97 95 95 255 0.198381 0.279604
2.525024 1.21142 0.27611 0.5837777 -0.7474335 0.3170909 97 95 95 255 0.198381 0.279604
-0.007652 1.116009 0.277394 -0.6780366 0.6379524 0.3650796 97 95 95 255 0.198381 0.279604
0.85656 1.131589 0.275947 0.4759934 0.8649633 0.158962 97 95 95 255 0.198381 0.279604
0.844017 0.648925 0.274287 0.6847336 -0.6425878 0.3438327 97 95 95 255 0.198381 0.279604
-0.023827 0.627874 0.262383 -0.4396899 -0.8588477 0.2627803 97 95 95 255 0.198381 0.279604
1.282104 0.629523 0.258817 -0.05013522 -0.7004995 0.7118897 97 95 95 255 0.198381 0.279604
0.913483 0.639476 0.258369 -0.5731421 -0.5742819 0.5845583 97 95 95 255 0.198381 0.279604
2.527 0.532688 0.259648 -7.983162e-05 -0.02476953 0.9996932 120 120 119 255 0.199488 0.300648
2.40435 0.066605 0.24809 -0.0002331433 -0.02504599 0.9996863 120 120 119 255 0.199488 0.300648
1.504601 0.039753 0.247062 -0.000386455 -0.02532245 0.9996793 120 120 119 255 0.199488 0.300648
1.567986 5.081308 0.257718 -0.6067663 0.6416665 0.469147 97 95 95 255 0.198381 0.279604
2.308395 5.054064 0.258339 0.1935753 0.8971449 0.3970638 97 95 95 255 0.198381 0.279604
0.758072 4.575171 0.259338 -0.3981146 -0.5296519 0.7489817 97 95 95 255 0.198381 0.279604
0.676414 4.574463 0.223563 0.1075304 0.1314769 0.98547 97 95 95 255 0.198381 0.279604
0.399582 4.525254 0.256075 -0.4352204 0.4990865 0.7493303 97 95 95 255 0.198381 0.279604
1.002274 4.499086 0.258303 0.1459766 0.2764569 0.9498749 97 95 95 255 0.198381 0.279604
0.399704 4.034009 0.260964 -0.005430444 0.004469573 0.9999753 120 120 119 255 0.199488 0.300648
1.913765 4.020452 0.258976 0.0076763 -0.5564181 0.8308671 97 95 95 255 0.198381 0.279604
0.346596 3.928836 0.25902 -0.01187019 0.6595676 0.7515516 97 95 95 255 0.198381 0.279604
0.739731 3.989049 0.212386 -0.2427804 0.1205248 0.9625651 97 95 95 255 0.198381 0.279604
2.527344 3.917239 0.2759 0.6081586 0.7809153 0.1425289 97 95 95 255 0.198381 0.279604
0.727013 3.472364 0.27443 -0.6214741 -0.4028566 0.6719201 97 95 95 255 0.198381 0.279604
-0.052795 3.934326 0.247894 -0.02783219 0.001047835 0.999612 120 120 119 255 0.199488 0.300648
-0.075966 3.453387 0.247753 -0.9568338 -0.2611786 0.1274945 97 95 95 255 0.198381 0.279604
1.287849 3.482398 0.249989 -0.04149862 -0.7244875 0.6880376 97 95 95 255 0.198381 0.279604
2.513901 3.436332 0.275776 0.5940313 -0.7649835 0.2488517 97 95 95 255 0.198381 0.279604
0.374298 3.366316 0.254561 -0.05407767 0.8852544 0.4619528 97 95 95 255 0.198381 0.279604
0.88295 3.355826 0.258688 -0.06530139 0.5170203 0.8534786 97 95 95 255 0.198381 0.279604
1.915466 3.365679 0.255734 -0.0002132286 0.7566171 0.6538581 97 95 95 255 0.198381 0.279604
0.937592 2.872695 0.259439 -0.4042835 -0.7302623 0.5507012 97 95 95 255 0.198381 0.279604
0.653625 2.301155 0.259069 0.424862 -0.7254241 0.5415277 97 95 95 255 0.198381 0.279604
0.104736 2.33341 0.261431 -0.06215154 -0.8024293 0.5935018 97 95 95 255 0.198381 0.279604
1.864151 2.244986 0.259229 0.4354323 0.5572878 0.706986 97 95 95 255 0.198381 0.279604
1.055611 2.232523 0.282248 -0.646054 0.5231997 0.5557664 97 95 95 255 0.198381 0.279604
1.91993 2.252964 0.259137 -0.1615733 0.4966036 0.8528066 97 95 95 255 0.198381 0.279604
2.500168 2.247157 0.258577 0.9474573 0.1051445 0.3021084 97 95 95 255 0.198381 0.279604
1.86702 1.758565 0.247153 0.6262994 -0.5336857 0.5682682 97 95 95 255 0.198381 0.279604
1.9077 1.781284 0.258575 -0.6391593 -0.3795284 0.6689048 97 95 95 255 0.198381 0.279604
1.05648 1.752578 0.260486 -0.4729111 -0.7350767 0.4858164 97 95 95 255 0.198381 0.279604
0.447113 2.251617 0.258231 -0.3654119 0.8036544 0.4696954 97 95 95 255 0.198381 0.279604
0.385849 1.755229 0.222212 -0.07849507 -0.2313307 0.9697034 97 95 95 255 0.198381 0.279604
2.487427 1.761565 0.258654 0.4222548 -0.7972188 0.4314431 97 95 95 255 0.198381 0.279604
0.723183 1.711135 0.21172 -0.1347172 0.09164301 0.9866372 97 95 95 255 0.198381 0.279604
2.523827 1.68969 0.262533 0.8840991 0.4517196 0.1196595 97 95 95 255 0.198381 0.279604
1.556664 1.675221 0.259942 -0.5835435 0.5764557 0.5719928 97 95 95 255 0.198381 0.279604
0.732971 1.198622 0.258365 -0.4982604 -0.4166945 0.7603304 97 95 95 255 0.198381 0.279604
0.732819 1.67171 0.259377 -0.313898 0.6759498 0.6667533 97 95 95 255 0.198381 0.279604
1.510162 1.198675 0.258577 0.3988219 -0.3642452 0.8415857 97 95 95 255 0.198381 0.279604
1.865868 1.093799 0.258471 0.4545278 0.7581944 0.4674889 97 95 95 255 0.198381 0.279604
0.928635 1.125082 0.258492 -0.4258257 0.7888284 0.4431957 97 95 95 255 0.198381 0.279604
1.930618 1.094308 0.259568 -0.3717973 0.6161017 0.6943958 97 95 95 255 0.198381 0.279604
1.914314 0.614065 0.258285 -0.3720174 -0.5366712 0.7573553 97 95 95 255 0.198381 0.279604
1.857887 0.610718 0.259469 0.6559922 -0.4092848 0.6341611 97 95 95 255 0.198381 0.279604
-0.007774 0.533306 0.259581 -0.7683654 0.3977312 0.5014225 97 95 95 255 0.198381 0.279604
0.682289 0.533157 0.259691 0.4905158 0.6376737 0.5939416 97 95 95 255 0.198381 0.279604
0.740128 0.54967 0.258366 -0.2806757 0.6063864 0.7439871 97 95 95 255 0.198381 0.279604
1.51725 0.527487 0.254261 0.2747558 0.4803403 0.832936 97 95 95 255 0.198381 0.279604
1.504601 0.039753 0.247062 -0.1588921 -0.7824773 0.6020653 97 95 95 255 0.198381 0.279604
1.562859 0.53297 0.259578 -0.434154 0.7534387 0.4938021 97 95 95 255 0.198381 0.279604
0.732758 5.057274 0.258696 -0.5621696 0.7671462 0.3089531 97 95 95 255 0.198381 0.279604
1.51062 5.058789 0.258863 0.8474694 0.4711332 0.2445999 97 95 95 255 0.198381 0.279604
-0.080643 5.05872 0.258803 -0.4565935 0.8726367 0.173285 97 95 95 255 0.198381 0.279604
-0.080338 4.575271 0.259688 -0.8927911 -0.421169 0.1598147 97 95 95 255 0.198381 0.279604
0.395454 4.561997 0.222235 -0.2114556 0.109535 0.9712305 97 95 95 255 0.198381 0.279604
1.543427 4.499895 0.266512 0.05171399 0.8850799 0.4625573 97 95 95 255 0.198381 0.279604
0.399704 4.034009 0.260964 -0.1145859 -0.2927995 0.9492832 97 95 95 255 0.198381 0.279604
-0.047302 3.35784 0.249392 -0.8737362 0.4104774 0.2609472 97 95 95 255 0.198381 0.279604
-0.037071 2.878072 0.246272 -0.456953 -0.6299669 0.6279615 97 95 95 255 0.198381 0.279604
2.452965 3.365819 0.255679 0.929151 0.2881922 0.2315679 97 95 95 255 0.198381 0.279604
2.438026 2.894254 0.260786 0.6197666 -0.5708382 0.5385474 97 95 95 255 0.198381 0.279604
1.913612 2.879474 0.259191 0.01467745 -0.8741713 0.4853959 97 95 95 255 0.198381 0.279604
0.718628 2.79579 0.242678 -0.4892145 0.6878906 0.5361676 97 95 95 255 0.198381 0.279604
1.492355 2.835957 0.257589 0.5798256 0.6183413 0.5305245 97 95 95 255 0.198381 0.279604
-0.057793 2.814102 0.260077 -0.6283935 0.6601365 0.4115112 97 95 95 255 0.198381 0.279604
0.674774 2.786331 0.259298 0.6230186 0.5463131 0.5598125 97 95 95 255 0.198381 0.279604
1.511055 2.354836 0.269209 0.6929952 -0.6145324 0.3769717 97 95 95 255 0.198381 0.279604
-0.015396 2.332358 0.240574 -0.3663408 -0.7473564 0.5543041 97 95 95 255 0.198381 0.279604
1.001175 2.251617 0.258231 0.4371574 0.8325621 0.3401965 97 95 95 255 0.198381 0.279604
1.002228 1.770341 0.257613 0.5208353 -0.367309 0.7705937 97 95 95 255 0.198381 0.279604
2.423309 1.109919 0.222903 0.4965722 0.3523285 0.7932721 97 95 95 255 0.198381 0.279604
0.68248 0.050537 0.258793 0.8698784 -0.3979592 0.2914448 97 95 95 255 0.198381 0.279604
0.728539 0.069935 0.260096 -0.7319859 -0.3892089 0.5592076 97 95 95 255 0.198381 0.279604
-0.008308 0.050009 0.258863 -0.4572418 -0.8719865 0.1748416 97 95 95 255 0.198381 0.279604
0.682014 5.058307 0.258909 0.7431139 0.5523633 0.3777253 97 95 95 255 0.198381 0.279604
1.553032 4.60022 0.258259 -0.3800159 -0.2251595 0.8971572 97 95 95 255 0.198381 0.279604
-0.084358 4.558084 0.197927 -0.9203725 -0.1058668 0.3764395 97 95 95 255 0.198381 0.279604
2.45993 4.545403 0.198998 0.7662932 -0.5195011 0.3780388 97 95 95 255 0.198381 0.279604
2.438034 4.035873 0.260853 0.7654233 -0.3427153 0.5446774 97 95 95 255 0.198381 0.279604
-0.106758 4.020277 0.258275 -0.8149304 -0.5273805 0.2403298 97 95 95 255 0.198381 0.279604
0.892433 2.893534 0.254932 0.2649193 -0.4131068 0.8712983 97 95 95 255 0.198381 0.279604
0.735847 2.312959 0.249045 -0.3658726 -0.5655914 0.739083 97 95 95 255 0.198381 0.279604
-0.041451 1.176823 0.160252 -0.9477954 0.04041005 0.3163083 97 95 95 255 0.198381 0.279604
2.493423 0.614066 0.258287 0.8133514 -0.3744422 0.4452558 97 95 95 255 0.198381 0.279604
2.033279 4.591367 0.246815 0.0183383 -0.447742 0.8939748 97 95 95 255 0.198381 0.279604
1.87365 4.500486 0.247784 -0.0008740121 0.003944721 0.9999918 97 95 95 255 0.198381 0.279604
2.515968 4.559282 0.258181 0.698747 -0.6990752 0.151811 97 95 95 255 0.198381 0.279604
0.334351 4.500281 0.258525 0.2186286 0.3246473 0.9202205 97 95 95 255 0.198381 0.279604
-0.003784 2.251298 0.259502 -0.4506262 0.842113 0.2962799 97 95 95 255 0.198381 0.279604
0.381317 2.251623 0.25821 0.4555448 0.5537818 0.696997 97 95 95 255 0.198381 0.279604
-0.007263 1.768018 0.258965 -0.8799866 -0.4199573 0.2219444 97 95 95 255 0.198381 0.279604
1.510162 1.684503 0.258576 0.5016532 0.5494257 0.6681882 97 95 95 255 0.198381 0.279604
0.681808 1.198667 0.258483 0.6860495 -0.5688052 0.4536483 97 95 95 255 0.198381 0.279604
1.2136 0.053137 0.23461 -0.01002398 -0.9791517 0.2028827 97 95 95 255 0.198381 0.279604
2.501785 4.98361 0.236497 0.8688744 0.3464175 0.3536273 97 95 95 255 0.198381 0.279604
1.560974 2.535281 0.277063 0.002249355 0.008590987 0.9999606 120 120 119 255 0.199488 0.300648
3 0 1 2 
3 227 228 3 
3 4 5 6 
3 7 8 9 
3 5 10 6 
3 8 11 9 
3 11 12 9 
3 14 16 13 
3 13 16 17 
3 229 15 18 
3 19 20 21 
3 21 20 22 
3 23 24 25 
3 25 24 26 
3 27 28 29 
3 30 31 32 
3 27 29 33 
3 30 32 34 
3 30 34 35 
3 36 37 38 
3 36 38 39 
3 36 39 40 
3 41 30 35 
3 29 28 42 
3 29 43 33 
3 230 228 44 
3 231 230 44 
3 45 46 47 
3 48 49 50 
3 51 52 53 
3 49 0 232 
3 232 0 2 
3 50 49 54 
3 52 55 53 
3 49 232 54 
3 233 234 235 
3 56 57 58 
3 236 237 59 
3 57 60 58 
3 59 235 238 
3 239 61 240 
3 62 63 64 
3 65 63 66 
3 64 67 68 
3 63 62 66 
3 64 68 69 
3 64 70 62 
3 241 71 242 
3 72 73 74 
3 75 72 74 
3 75 74 76 
3 241 243 77 
3 77 243 78 
3 79 80 81 
3 82 83 84 
3 85 86 87 
3 84 83 88 
3 89 90 91 
3 86 92 87 
3 81 80 93 
3 94 95 96 
3 97 244 98 
3 99 100 101 
3 101 100 102 
3 244 245 98 
3 98 245 103 
3 246 104 247 
3 105 248 249 
3 106 107 108 
3 109 110 111 
3 110 112 111 
3 107 113 108 
3 114 249 250 
3 109 111 115 
3 248 116 251 
3 252 253 117 
3 118 119 120 
3 121 122 123 
3 124 125 126 
3 118 120 127 
3 121 123 128 
3 118 127 129 
3 254 130 255 
3 130 256 255 
3 131 257 258 
3 43 29 42 
3 228 230 259 
3 260 261 262 
3 263 47 46 
3 59 264 3 
3 132 265 266 
3 237 267 133 
3 268 234 266 
3 57 269 134 
3 60 57 134 
3 239 270 135 
3 268 136 271 
3 137 238 271 
3 137 272 236 
3 138 61 273 
3 274 138 273 
3 274 275 136 
3 67 139 68 
3 274 140 276 
3 141 142 143 
3 143 142 144 
3 277 278 145 
3 146 229 18 
3 279 147 280 
3 78 146 281 
3 78 281 282 
3 279 283 146 
3 281 146 284 
3 148 285 280 
3 286 145 287 
3 91 90 93 
3 149 288 284 
3 150 95 94 
3 289 94 96 
3 290 151 291 
3 292 293 289 
3 152 294 292 
3 295 153 296 
3 296 152 253 
3 297 154 298 
3 154 295 299 
3 251 155 250 
3 155 300 301 
3 117 302 303 
3 304 305 156 
3 157 306 307 
3 308 158 309 
3 260 310 261 
3 44 228 311 
3 312 261 310 
3 3 228 233 
3 236 59 137 
3 313 159 314 
3 71 315 316 
3 160 317 276 
3 71 316 317 
3 140 318 319 
3 320 321 161 
3 18 319 322 
3 323 320 162 
3 146 78 229 
3 145 163 277 
3 164 324 325 
3 165 283 285 
3 246 291 153 
3 114 105 249 
3 326 154 297 
3 295 154 153 
3 114 250 166 
3 166 250 155 
3 166 117 253 
3 156 299 252 
3 155 301 167 
3 305 124 168 
3 124 169 168 
3 301 327 167 
3 156 303 304 
3 302 167 328 
3 300 170 329 
3 171 327 329 
3 308 330 172 
3 173 330 260 
3 331 257 231 
3 306 173 259 
3 174 307 231 
3 332 310 309 
3 260 228 259 
3 175 333 334 
3 176 132 335 
3 132 312 335 
3 233 59 3 
3 234 233 266 
3 59 233 235 
3 237 133 59 
3 132 176 270 
3 240 138 266 
3 266 138 268 
3 138 136 268 
3 137 177 272 
3 135 273 61 
3 177 275 315 
3 140 274 336 
3 140 160 276 
3 319 18 160 
3 178 318 140 
3 318 178 337 
3 242 160 15 
3 163 321 277 
3 323 145 278 
3 147 146 18 
3 78 243 229 
3 163 286 324 
3 163 324 164 
3 147 164 280 
3 280 164 148 
3 282 288 151 
3 284 146 149 
3 148 165 285 
3 292 289 105 
3 291 165 153 
3 105 152 292 
3 152 153 294 
3 154 246 153 
3 154 104 246 
3 105 338 248 
3 153 152 296 
3 179 339 169 
3 154 299 168 
3 253 152 166 
3 298 154 168 
3 117 156 252 
3 299 156 168 
3 298 169 339 
3 117 167 302 
3 168 156 305 
3 167 180 328 
3 125 304 181 
3 257 174 231 
3 259 173 260 
3 158 332 309 
3 340 331 341 
3 341 331 231 
3 333 342 340 
3 332 343 310 
3 260 262 228 
3 44 311 231 
3 311 341 231 
3 341 333 340 
3 343 312 310 
3 262 233 228 
3 233 312 266 
3 264 59 133 
3 334 264 133 
3 266 312 132 
3 59 238 137 
3 239 135 61 
3 240 61 138 
3 137 271 136 
3 137 275 177 
3 275 137 136 
3 274 136 138 
3 159 161 314 
3 336 314 178 
3 178 140 336 
3 317 160 71 
3 314 161 178 
3 319 160 140 
3 242 71 160 
3 241 77 71 
3 161 321 178 
3 178 321 163 
3 337 178 163 
3 15 160 18 
3 323 182 145 
3 18 322 337 
3 18 337 164 
3 337 163 164 
3 18 164 147 
3 344 145 182 
3 344 345 145 
3 145 286 163 
3 147 279 146 
3 345 287 145 
3 148 164 325 
3 146 283 149 
3 287 346 150 
3 287 150 94 
3 325 287 289 
3 325 289 148 
3 283 165 149 
3 288 149 151 
3 289 287 94 
3 165 148 293 
3 149 165 291 
3 149 291 151 
3 293 148 289 
3 293 347 165 
3 347 294 165 
3 348 105 289 
3 294 153 165 
3 348 338 105 
3 105 114 152 
3 104 154 326 
3 166 152 114 
3 116 155 251 
3 298 168 169 
3 166 155 167 
3 166 167 117 
3 303 156 117 
3 167 327 180 
3 159 320 161 
3 344 182 346 
3 247 104 179 
3 180 171 328 
3 170 171 329 
3 133 175 334 
3 179 104 326 
3 248 338 116 
3 181 304 349 
3 183 126 125 
3 173 172 330 
3 157 307 174 
3 258 350 131 
3 174 257 157 
3 332 184 335 
3 116 300 155 
3 185 124 126 
3 257 131 157 
3 335 184 186 
3 133 267 175 
3 313 135 159 
3 320 159 162 
3 182 150 346 
3 326 339 179 
3 124 185 169 
3 300 116 170 
3 181 183 125 
3 187 315 71 
3 158 184 332 
3 188 342 333 
3 177 315 187 
3 180 327 171 
3 131 350 189 
3 171 349 328 
3 158 308 172 
3 189 350 342 
3 335 190 176 
3 176 190 270 
3 323 162 182 
3 186 190 335 
3 267 191 175 
3 135 192 159 
3 193 183 181 
3 306 194 173 
3 177 195 272 
3 157 194 306 
3 192 135 196 
3 77 78 197 
3 198 349 171 
3 187 195 177 
3 159 199 162 
3 197 78 282 
3 179 200 247 
3 185 126 183 
3 270 196 135 
3 290 201 151 
3 202 116 338 
3 179 169 185 
3 290 247 200 
3 191 333 175 
3 282 151 197 
3 202 203 116 
3 204 185 183 
3 194 172 173 
3 199 182 162 
3 182 205 150 
3 95 206 338 
3 189 342 188 
3 159 192 199 
3 201 197 151 
3 206 95 150 
3 195 207 272 
3 77 187 71 
3 188 333 191 
3 349 198 181 
3 208 157 131 
3 189 208 131 
3 194 158 172 
3 208 194 157 
3 190 196 270 
3 191 272 207 
3 187 77 197 
3 199 205 182 
3 338 206 202 
3 200 179 185 
3 116 203 170 
3 170 198 171 
3 198 193 181 
3 193 204 183 
3 209 188 191 
3 192 205 199 
3 205 206 150 
3 201 290 200 
3 194 210 158 
3 211 208 189 
3 212 158 210 
3 184 158 212 
3 211 189 188 
3 209 211 188 
3 186 184 212 
3 186 212 190 
3 212 213 214 
3 190 212 214 
3 190 214 196 
3 214 215 196 
3 191 207 195 
3 216 197 201 
3 206 205 217 
3 217 205 218 
3 206 217 202 
3 202 217 203 
3 219 200 185 
3 220 219 185 
3 170 203 221 
3 222 220 204 
3 220 185 204 
3 221 223 198 
3 223 193 198 
3 223 204 193 
3 221 198 170 
3 224 210 194 
3 224 194 208 
3 211 224 208 
3 210 213 212 
3 225 209 191 
3 187 197 216 
3 219 201 200 
3 217 226 203 
3 203 226 221 
3 192 218 205 
3 204 223 222 
3 214 213 215 
3 225 191 195 
3 225 195 187 
3 216 225 187 
3 196 215 192 
3 219 216 201 
3 217 218 226 
3 219 220 222 
3 192 215 218 
3 210 224 213 
3 224 211 215 
3 211 209 215 
3 215 209 225 
3 213 224 215 
3 218 215 225 
3 218 225 216 
3 218 216 226 
3 219 223 216 
3 219 222 223 
3 226 216 221 
3 216 223 221 
3 14 351 16 
3 135 313 273 
3 191 267 272 
