ply
format ascii 1.0
comment VCGLIB generated
comment TextureFile Dungeons_Texture_01.png
element vertex 399
property float x
property float y
property float z
property float nx
property float ny
property float nz
property uchar red
property uchar green
property uchar blue
property uchar alpha
property float texture_u
property float texture_v
element face 452
property list uchar int vertex_indices
end_header
-0.655739 -0.290294 0.271397 -0.7793854 -0.5113413 0.3620613 120 120 119 255 0.200638 0.303862
-0.395095 -0.285923 0.299631 -0.006508448 -0.9493093 0.3142761 120 120 119 255 0.200638 0.303862
-0.285581 -0.26117 0.200088 0.08474796 -0.9910153 0.1034723 97 95 95 255 0.200638 0.281232
0.59435 -0.290463 0.237326 0.2886937 -0.9444675 0.1569624 120 120 119 255 0.200638 0.303862
0.05682 -0.244479 0.336536 -0.06455027 -0.9616027 0.266746 97 95 95 255 0.200638 0.281232
0.365825 -0.286329 0.26506 -0.001080249 -0.9523206 0.3050971 120 120 119 255 0.200638 0.303862
0.120584 -0.290668 0.237548 -0.1092082 -0.9258836 0.3616811 97 95 95 255 0.200638 0.281232
0.627353 -0.256738 0.062416 0.3670234 -0.3767981 -0.8504805 97 95 95 255 0.200638 0.281232
-0.451132 -0.290697 0.018175 -0.002346677 -0.9999972 -0.0003045968 120 120 119 255 0.200638 0.303862
-0.24859 -0.290189 0.017452 -0.06043861 -0.9482156 -0.3118242 97 95 95 255 0.200638 0.281232
0.595423 -0.272346 0.048799 0.3766994 -0.5139694 -0.7706705 97 95 95 255 0.200638 0.281232
0.14365 -0.284603 0.000111 0.01398157 -0.9989877 -0.04275653 120 120 119 255 0.200638 0.303862
-0.650086 -0.286464 0.000111 -0.7153072 -0.6983712 -0.02476501 120 120 119 255 0.200638 0.303862
-0.285635 -0.2478 0.000111 0.004208155 -0.234605 -0.9720817 97 95 95 255 0.200638 0.281232
0.451035 -0.276849 0.012672 0.1470816 -0.3699674 -0.9173282 97 95 95 255 0.200638 0.281232
-0.173806 -0.222541 0.42224 -0.002957023 -0.9263785 0.3765821 120 120 119 255 0.200638 0.303862
0.335424 -0.191558 0.003946 0.1136696 0.02909823 -0.9930924 97 95 95 255 0.200638 0.281232
-0.059276 -0.243667 5.011272 0.321142 -0.4925058 0.8088917 97 95 95 255 0.200638 0.281232
0.590262 -0.21773 4.977753 0.7516524 -0.5665172 0.3377526 97 95 95 255 0.200638 0.281232
0.447395 -0.245394 5.063339 0.1584177 -0.7778157 0.6081994 97 95 95 255 0.200638 0.281232
0.523699 -0.248442 4.954494 0.3662549 -0.9300581 0.02914171 97 95 95 255 0.200638 0.281232
0.569994 -0.19711 4.604681 0.5615491 -0.794091 -0.2325555 97 95 95 255 0.200638 0.281232
-0.594093 -0.248035 4.559995 -0.1902128 -0.9817346 -0.004049701 120 120 119 255 0.200638 0.303862
0.422702 -0.239473 4.540431 0.007963938 -0.9996898 -0.02359676 120 120 119 255 0.200638 0.303862
-0.310385 -0.238893 1.254882 -0.2040253 -0.963822 0.1715252 97 95 95 255 0.200638 0.281232
-4.8e-05 -0.227318 1.281227 0.0006369702 -0.9996698 0.02569076 97 95 95 255 0.200638 0.281232
0.17942 -0.234935 1.253993 0.006957373 -0.9996712 0.02468092 97 95 95 255 0.200638 0.281232
0.492215 -0.218575 1.279616 0.451375 -0.8585522 0.2432052 97 95 95 255 0.200638 0.281232
0.145233 -0.238893 1.103316 0.03943021 -0.9385314 -0.3429345 97 95 95 255 0.200638 0.281232
-0.398046 -0.238893 1.102205 -0.0579307 -0.9180506 -0.3922081 97 95 95 255 0.200638 0.281232
0.634053 -0.207035 0.321363 0.8792725 -0.3342806 0.3393177 120 120 119 255 0.200638 0.303862
-0.110292 -0.246041 5.06259 0.03246587 -0.7888016 0.6137899 120 120 119 255 0.200638 0.303862
-0.532648 -0.204867 1.093701 -0.4853588 -0.5718586 -0.6613656 97 95 95 255 0.200638 0.281232
-0.55567 -0.209135 5.107482 -0.6423918 -0.3415344 0.6860663 97 95 95 255 0.200638 0.281232
0.532162 -0.186552 5.109579 0.5701488 -0.4005728 0.717267 97 95 95 255 0.200638 0.281232
-0.598228 -0.250713 5.038908 -0.9659587 -0.2583543 -0.01330465 120 120 119 255 0.200638 0.303862
0.580074 -0.113109 1.257106 0.9329916 -0.2939897 0.2075977 97 95 95 255 0.200638 0.281232
-0.063266 -0.180486 1.069968 -0.007927014 -0.4768549 -0.8789464 97 95 95 255 0.200638 0.281232
0.554844 -0.196805 1.126882 0.5558863 -0.8046032 -0.2088159 97 95 95 255 0.200638 0.281232
0.557544 -0.223793 0.418628 0.2583136 -0.867043 0.4260405 120 120 119 255 0.200638 0.303862
0.494327 -0.16755 4.414543 0.6322861 -0.573531 -0.5208423 97 95 95 255 0.200638 0.281232
-0.495064 -0.169248 4.412764 -0.5307522 -0.514794 -0.6732676 97 95 95 255 0.200638 0.281232
-0.450047 -0.148624 1.37638 -0.007880586 -0.8055046 0.5925372 120 120 119 255 0.200638 0.303862
-0.580769 -0.151468 1.255716 -0.8242069 -0.502547 0.2610164 97 95 95 255 0.200638 0.281232
0.495803 -0.18079 1.07447 0.256051 -0.5393384 -0.8022169 97 95 95 255 0.200638 0.281232
-0.493883 -0.180423 0.873049 -0.005577199 -0.9999139 0.01187623 120 120 119 255 0.200638 0.303862
-0.153591 -0.169276 0.843091 -0.001315119 -0.9997129 -0.0239265 120 120 119 255 0.200638 0.303862
0.093572 -0.180423 0.75244 -0.01713357 -0.9990718 0.03952182 120 120 119 255 0.200638 0.303862
-0.461209 -0.161493 0.715869 -0.7693262 -0.6366214 -0.0533894 97 95 95 255 0.200638 0.281232
-0.501111 -0.185091 0.493716 -0.1677222 -0.9055869 0.3895918 120 120 119 255 0.200638 0.303862
0.493594 -0.180423 0.528398 0.5912939 -0.6893915 0.4184625 120 120 119 255 0.200638 0.303862
-0.479958 -0.16989 4.143424 -0.9084293 -0.416831 -0.03175359 120 120 119 255 0.200638 0.303862
0.091266 -0.173991 4.215456 0.00605081 -0.9997798 0.02009539 120 120 119 255 0.200638 0.303862
-0.334588 -0.173991 4.215456 -0.008973487 -0.9997695 0.01950505 120 120 119 255 0.200638 0.303862
0.22237 -0.157123 4.158208 -0.0815931 -0.7057707 -0.7037261 97 95 95 255 0.200638 0.281232
0.575845 -0.151095 1.10365 0.7576749 -0.2365024 -0.6082726 97 95 95 255 0.200638 0.281232
0.506329 -0.163014 5.125239 0.5771495 -0.1255671 0.8069271 97 95 95 255 0.200638 0.281232
-0.479323 0.098135 4.220513 -0.999506 -0.01082794 -0.02950421 120 120 119 255 0.200638 0.303862
-0.393082 -0.130076 4.13731 0.1059995 -0.6210881 -0.7765396 97 95 95 255 0.200638 0.281232
-0.594738 -0.147847 4.562385 -0.9954767 0.09410872 0.01302435 120 120 119 255 0.200638 0.303862
0.479864 -0.169853 4.143536 0.8926559 -0.449167 -0.03761087 120 120 119 255 0.200638 0.303862
0.142819 -0.104338 4.11669 -0.03849873 -0.7743355 -0.6316031 97 95 95 255 0.200638 0.281232
0.386191 -0.105521 4.118246 0.2901671 -0.2465616 -0.9246678 97 95 95 255 0.200638 0.281232
0.385162 -0.104746 1.438407 0.5748621 -0.6637801 0.4784659 120 120 119 255 0.200638 0.303862
-0.496004 -0.095097 0.842758 -0.9927674 -0.114643 -0.03563612 97 95 95 255 0.200638 0.281232
-0.084274 -0.071022 5.127476 -0.01505249 -0.1179162 0.9929095 120 120 119 255 0.200638 0.303862
0.598776 0.059069 5.008381 0.997946 -0.009203192 -0.06339566 120 120 119 255 0.200638 0.303862
-0.38413 -0.103422 3.451065 -0.4445603 -0.8956249 -0.01490848 120 120 119 255 0.200638 0.303862
0.383587 -0.10319 3.58279 0.7109896 -0.7028943 -0.02081642 120 120 119 255 0.200638 0.303862
0.28623 -0.102678 3.481301 0.001397849 -0.9999787 -0.006385687 120 120 119 255 0.200638 0.303862
-0.382305 -0.087781 3.200734 -0.8285853 -0.5528724 0.08819592 120 120 119 255 0.200638 0.303862
0.252279 -0.102987 3.200178 0.01353619 -0.9998466 0.01112181 120 120 119 255 0.200638 0.303862
0.371434 -0.067633 3.196065 0.6968825 -0.670733 0.2539133 97 95 95 255 0.200638 0.281232
-0.168054 -0.103358 2.975913 -0.03520477 -0.9993653 0.005452103 120 120 119 255 0.200638 0.303862
-0.341618 -0.089472 2.975524 -0.07974833 -0.9968147 -0.0008376349 120 120 119 255 0.200638 0.303862
0.332669 -0.094586 2.97458 0.6428893 -0.7530934 -0.1397986 97 95 95 255 0.200638 0.281232
-0.023516 -0.103421 2.680562 0.2140875 -0.9665357 -0.1413342 97 95 95 255 0.200638 0.281232
0.168006 -0.103421 2.851581 0.02145144 -0.9997606 -0.004317547 120 120 119 255 0.200638 0.303862
0.323769 -0.039358 2.875147 0.9340358 -0.2701533 -0.2336543 97 95 95 255 0.200638 0.281232
-0.367744 -0.090318 2.417447 -0.04862409 -0.9988137 -0.002619304 120 120 119 255 0.200638 0.303862
-0.049393 -0.102511 2.406386 -0.01007411 -0.9888374 -0.1486579 97 95 95 255 0.200638 0.281232
0.384081 -0.103421 2.629539 0.2211386 -0.7934809 0.5669972 97 95 95 255 0.200638 0.281232
0.384027 -0.103388 2.431397 0.8944607 -0.4471442 -0.001479681 120 120 119 255 0.200638 0.303862
-0.382699 -0.053242 2.112202 -0.5700657 -0.811327 0.1295128 97 95 95 255 0.200638 0.281232
0.384081 -0.103421 1.918006 0.5548484 -0.8319513 -0.0005055648 120 120 119 255 0.200638 0.303862
-0.286423 -0.103388 2.149496 0.0003531798 -0.9999993 0.001165555 120 120 119 255 0.200638 0.303862
-0.312737 -0.103629 1.440742 0.0002356451 -0.9887409 0.1496379 120 120 119 255 0.200638 0.303862
0.382944 -0.102881 1.673288 0.6987057 -0.7153993 0.003777869 120 120 119 255 0.200638 0.303862
-0.385508 -0.070344 1.443354 -0.512175 -0.5929408 0.6213678 97 95 95 255 0.200638 0.281232
-0.540815 -0.049689 5.122536 0.01821335 -0.1529676 0.9880634 120 120 119 255 0.200638 0.303862
-0.333256 -0.069363 3.278935 -0.5352723 -0.7524559 0.3837886 97 95 95 255 0.200638 0.281232
0.383294 -0.102846 2.206688 0.8948427 -0.446372 0.002922647 120 120 119 255 0.200638 0.303862
0.384081 -0.037601 1.830857 0.9999975 -0.001528703 -0.001654844 120 120 119 255 0.200638 0.303862
-0.488669 -0.05304 0.528453 -0.9859312 -0.1586416 0.05265568 97 95 95 255 0.200638 0.281232
0.647335 -0.034821 0.000111 0.1867707 -0.02557977 -0.9820705 97 95 95 255 0.200638 0.281232
-0.569444 -0.03296 4.636862 -0.9192684 0.1368598 -0.369073 97 95 95 255 0.200638 0.281232
-0.483259 0.051316 4.453448 -0.9994319 0.009579343 -0.03231269 120 120 119 255 0.200638 0.303862
0.374536 0.026326 3.427833 0.8829808 -0.105501 -0.4573997 97 95 95 255 0.200638 0.281232
-0.333987 -0.069868 3.365695 -0.6177503 -0.6722069 -0.4080717 97 95 95 255 0.200638 0.281232
0.037198 -0.054294 3.325344 0.01137891 -0.9999294 -0.003424583 97 95 95 255 0.200638 0.281232
0.309941 -0.053583 3.325399 0.8213184 -0.5686077 0.04605854 97 95 95 255 0.200638 0.281232
0.332175 -0.068344 3.278156 0.2794943 -0.8881053 0.3648998 97 95 95 255 0.200638 0.281232
-0.372117 -0.052058 2.940842 -0.8242003 -0.565855 -0.02240529 97 95 95 255 0.200638 0.281232
-0.382404 -0.053718 2.40583 -0.8899338 -0.214454 -0.4025263 97 95 95 255 0.200638 0.281232
0.324798 -0.055883 2.29845 0.6857407 -0.7092541 -0.1634574 97 95 95 255 0.200638 0.281232
-0.313183 -0.055443 2.306398 -0.5641026 -0.8256994 -0.002980935 97 95 95 255 0.200638 0.281232
-0.497174 -0.010922 1.067856 -0.7740116 -0.03823202 -0.6320161 97 95 95 255 0.200638 0.281232
0.556658 -0.032828 4.503971 0.8608466 -0.05324475 -0.5060713 97 95 95 255 0.200638 0.281232
-0.385552 0.062218 4.11669 -0.4643554 -0.007771853 -0.8856149 97 95 95 255 0.200638 0.281232
0.321354 -0.036785 2.747257 0.4412429 -0.8918647 0.0994094 97 95 95 255 0.200638 0.281232
-0.377439 0.194943 3.428445 -0.8738374 0.03371501 -0.4850481 97 95 95 255 0.200638 0.281232
-0.311805 0.353271 3.326066 -0.7822183 0.6162088 -0.09176774 97 95 95 255 0.200638 0.281232
0.373554 -0.067534 3.002369 0.632901 -0.7468362 -0.2041374 97 95 95 255 0.200638 0.281232
-0.382699 0.002117 2.208911 -0.8430825 -0.1702575 0.5101219 97 95 95 255 0.200638 0.281232
-0.061154 -0.069934 0.000111 0.004558007 -0.002003137 -0.9999877 97 95 95 255 0.200638 0.281232
-0.580365 0.410188 1.101649 -0.7615842 0.06228952 -0.6450656 97 95 95 255 0.200638 0.281232
0.497879 0.256095 1.068468 0.3698933 -0.005753561 -0.9290565 97 95 95 255 0.200638 0.281232
0.494622 0.225277 4.413376 0.9993098 0.01264805 -0.03492686 120 120 119 255 0.200638 0.303862
-0.590991 0.212822 5.062868 -0.9995055 -0.03118232 0.00407325 120 120 119 255 0.200638 0.303862
0.481885 0.021993 4.14359 0.1965335 0.005969332 -0.9804789 97 95 95 255 0.200638 0.281232
0.384081 0.160948 2.852748 0.9936987 -0.1120843 2.155461e-05 120 120 119 255 0.200638 0.303862
-0.496004 0.204593 1.069857 -0.5897431 0.03583445 -0.8067955 97 95 95 255 0.200638 0.281232
0.495954 0.502283 0.530454 0.845671 0.441933 0.2992254 120 120 119 255 0.200638 0.303862
-0.115365 0.159801 0.000111 -0.009155313 -0.006484388 -0.9999371 97 95 95 255 0.200638 0.281232
0.651906 0.300723 0.080869 0.9997389 0.008538989 -0.02119508 120 120 119 255 0.200638 0.303862
-0.647375 0.372607 0.000111 -0.9996274 -0.001733405 -0.02724446 120 120 119 255 0.200638 0.303862
0.383294 0.176862 3.200122 0.9977075 -0.02222218 -0.06392068 120 120 119 255 0.200638 0.303862
-0.597932 0.122347 4.658594 -0.8775175 -0.2258804 -0.4230143 97 95 95 255 0.200638 0.281232
-0.580464 0.510549 1.256994 -0.6709962 0.01264229 0.741353 120 120 119 255 0.200638 0.303862
0.384081 0.392312 2.655273 0.9999978 0.001841083 0.00102078 120 120 119 255 0.200638 0.303862
0.589181 0.174867 0.005614 0.4256448 -0.008773115 -0.9048478 97 95 95 255 0.200638 0.281232
-0.486747 0.181878 4.375414 -0.9991115 -0.02121955 -0.03641301 120 120 119 255 0.200638 0.303862
0.383053 0.37592 3.77493 0.9999375 0.0110115 0.001940547 120 120 119 255 0.200638 0.303862
0.384081 0.332314 2.149551 0.9883825 0.150668 -0.01998292 120 120 119 255 0.200638 0.303862
-0.54018 0.433378 5.122721 -0.5352296 0.1116652 0.8372934 97 95 95 255 0.200638 0.281232
0.476324 0.116083 5.126313 0.6873177 -0.02535044 0.7259144 97 95 95 255 0.200638 0.281232
-0.501363 0.467548 0.492994 -0.9540634 0.006647703 0.2995311 120 120 119 255 0.200638 0.303862
-0.595079 0.237537 4.562774 -0.8731157 -0.1059454 -0.475862 97 95 95 255 0.200638 0.281232
-0.314606 0.384524 2.298395 -0.7598136 0.6498305 -0.02009237 97 95 95 255 0.200638 0.281232
0.381478 0.292897 3.100523 0.9999894 -0.0009617454 -0.004498437 120 120 119 255 0.200638 0.303862
-0.41758 0.315789 0.005336 -0.002268227 -0.00955439 -0.9999518 97 95 95 255 0.200638 0.281232
0.647335 0.428982 0.000111 0.3988707 -0.04952681 -0.9156687 97 95 95 255 0.200638 0.281232
0.583517 0.561468 4.552213 0.8111818 0.5841869 0.0266406 120 120 119 255 0.200638 0.303862
-0.384075 0.425152 2.431397 -0.9025477 0.4305802 0.002908244 120 120 119 255 0.200638 0.303862
0.377238 0.309863 1.769608 0.9841661 0.1771314 -0.006447679 120 120 119 255 0.200638 0.303862
0.385753 0.293375 1.443076 0.9379362 0.09271199 0.3341857 120 120 119 255 0.200638 0.303862
0.656137 -0.108098 0.269562 0.9737935 -0.03349134 0.2249548 120 120 119 255 0.200638 0.303862
-0.084321 0.25711 5.127476 0.006731417 0.03745426 0.9992757 120 120 119 255 0.200638 0.303862
0.598877 0.445435 5.008474 0.7773503 0.4433366 0.4462949 97 95 95 255 0.200638 0.281232
-0.487042 0.495377 4.377415 -0.5407575 0.600215 -0.5893413 97 95 95 255 0.200638 0.281232
0.421566 0.411943 4.137532 0.3720638 0.2376711 -0.8972631 97 95 95 255 0.200638 0.281232
-0.38413 0.276577 2.814287 -0.9992211 -0.03362735 -0.02065266 120 120 119 255 0.200638 0.303862
0.357909 0.353272 1.796397 0.9580863 0.2861707 0.01330815 120 120 119 255 0.200638 0.303862
0.655984 0.217123 0.269618 0.9766157 0.004771798 0.2149397 120 120 119 255 0.200638 0.303862
0.168452 0.392919 5.127476 -0.01585858 0.04756882 0.998742 120 120 119 255 0.200638 0.303862
0.478542 0.501813 4.415043 0.4829282 0.6052586 -0.6328052 97 95 95 255 0.200638 0.281232
-0.387027 0.426847 4.118246 -0.08044205 0.3182822 -0.9445769 97 95 95 255 0.200638 0.281232
-0.383288 0.424647 3.517817 -0.7038441 0.7102014 -0.01474351 120 120 119 255 0.200638 0.303862
0.348268 0.385539 2.754205 0.788158 0.6126208 -0.05918371 97 95 95 255 0.200638 0.281232
-0.383334 0.423564 2.206465 -0.3252496 0.775874 0.5405852 97 95 95 255 0.200638 0.281232
-0.477597 0.49277 0.809688 -0.825913 0.5634175 -0.02070121 120 120 119 255 0.200638 0.303862
-0.38344 0.375722 1.576134 -0.9318905 0.3287281 0.1533552 120 120 119 255 0.200638 0.303862
-0.544947 0.520808 1.107151 -0.6045993 0.4919345 -0.6264664 97 95 95 255 0.200638 0.281232
0.580128 0.560289 1.101927 0.6604187 0.3605502 -0.6586735 97 95 95 255 0.200638 0.281232
-0.471892 0.485656 5.127245 -0.006157254 -0.003871902 0.9999735 120 120 119 255 0.200638 0.303862
0.540132 0.433378 5.122772 0.7168723 0.4135362 0.5613216 97 95 95 255 0.200638 0.281232
9.6e-05 0.37514 3.326455 -0.08332302 0.9965218 -0.001289088 97 95 95 255 0.200638 0.281232
0.385009 0.425965 1.439185 0.5624347 0.6661263 0.4898399 120 120 119 255 0.200638 0.303862
0.311658 0.375548 3.325399 0.6782517 0.7331183 -0.05012266 97 95 95 255 0.200638 0.281232
-0.354409 0.404697 3.248365 -0.4526703 0.6872377 0.5681495 97 95 95 255 0.200638 0.281232
0.324308 0.38422 2.295115 0.7589117 0.599371 0.2545732 97 95 95 255 0.200638 0.281232
-0.49418 0.500389 1.073136 -0.2862087 0.438344 -0.8520206 97 95 95 255 0.200638 0.281232
0.04954 0.421397 3.426499 -0.07990161 0.9262949 -0.3682303 97 95 95 255 0.200638 0.281232
0.384081 0.425188 3.451121 0.4512798 0.8923809 0.001722867 120 120 119 255 0.200638 0.303862
-0.38413 0.425223 3.161939 -0.6849167 0.7015572 0.1967402 120 120 119 255 0.200638 0.303862
0.384081 0.425223 3.161939 0.5601939 0.8264458 0.05630532 120 120 119 255 0.200638 0.303862
-0.28145 0.423632 2.752371 -0.8169167 0.5765698 0.01464031 97 95 95 255 0.200638 0.281232
0.366371 0.416421 2.196572 0.8820328 0.4357139 0.1793647 97 95 95 255 0.200638 0.281232
-0.378118 0.42133 1.432627 -0.5100962 0.7292884 0.4560049 120 120 119 255 0.200638 0.303862
0.366514 0.410797 4.040212 0.9973443 0.04648294 0.05606822 120 120 119 255 0.200638 0.303862
0.285739 0.426882 4.117301 0.07050344 0.8095536 -0.5827969 97 95 95 255 0.200638 0.281232
-0.217106 0.424206 3.829565 -0.003153328 0.9999195 -0.01229374 120 120 119 255 0.200638 0.303862
0.369224 0.421329 3.672662 0.767152 0.6400782 0.04216404 97 95 95 255 0.200638 0.281232
-0.120285 0.416792 3.554833 -0.08302028 0.9557499 -0.2822231 97 95 95 255 0.200638 0.281232
0.384081 0.425287 2.877926 0.4507635 0.8925605 -0.01216507 120 120 119 255 0.200638 0.303862
0.284843 0.418791 2.629595 0.5046763 0.8626127 -0.03465693 97 95 95 255 0.200638 0.281232
0.383338 0.423531 2.408998 0.5380705 0.7595599 -0.3654436 97 95 95 255 0.200638 0.281232
0.35097 0.408126 1.916283 0.9399827 0.3275904 -0.09548326 97 95 95 255 0.200638 0.281232
-0.023856 0.425287 1.441353 -0.0181576 0.9796809 0.1997391 120 120 119 255 0.200638 0.303862
0.312555 0.425287 1.700077 0.8251191 0.5639855 0.03314958 97 95 95 255 0.200638 0.281232
0.023369 0.425287 1.672898 0.003819426 0.9997436 0.02232079 120 120 119 255 0.200638 0.303862
-0.329865 0.410594 1.636494 -0.6131581 0.7794502 0.1284308 120 120 119 255 0.200638 0.303862
-0.656133 0.486337 0.269951 -0.9840893 -0.003024148 0.1776492 120 120 119 255 0.200638 0.303862
-0.140651 0.465681 4.141757 0.03018965 0.8158998 -0.5774046 97 95 95 255 0.200638 0.281232
-0.55405 0.555007 1.253271 -0.5198276 0.8467945 0.1127761 97 95 95 255 0.200638 0.281232
-0.476372 0.488403 0.551241 -0.9574203 0.1710418 0.2325747 97 95 95 255 0.200638 0.281232
0.648265 0.527778 0.300798 0.9595536 -0.004410456 0.2814916 120 120 119 255 0.200638 0.303862
-0.271762 0.488098 5.127476 0.0245342 0.02009174 0.9994971 120 120 119 255 0.200638 0.303862
0.105773 0.54295 5.108135 -0.04404704 0.109609 0.9929984 120 120 119 255 0.200638 0.303862
-0.480056 0.490739 4.143201 -0.2942471 0.4013991 -0.8673508 97 95 95 255 0.200638 0.281232
-0.649443 0.608232 0.000333 -0.2308545 0.09353738 -0.9684818 97 95 95 255 0.200638 0.281232
-0.587154 0.526524 5.059142 -0.6797393 0.3552614 0.6416728 97 95 95 255 0.200638 0.281232
-0.214199 0.49585 4.276426 -0.007982442 0.9986703 -0.05093041 120 120 119 255 0.200638 0.303862
0.214008 0.486541 4.218346 -0.0462666 0.8966607 -0.4402944 97 95 95 255 0.200638 0.281232
0.480016 0.4907 4.143313 0.8797752 0.4737595 -0.03933954 120 120 119 255 0.200638 0.303862
-0.032131 0.482169 5.109859 -0.003434043 0.0875008 0.9961586 120 120 119 255 0.200638 0.303862
-0.255726 0.506722 4.444555 -0.003802432 0.9974306 -0.07153868 120 120 119 255 0.200638 0.303862
0.497475 0.502999 1.068801 0.1271997 0.3926506 -0.9108489 97 95 95 255 0.200638 0.281232
-0.3089 0.502283 1.069246 -0.01204017 0.5837198 -0.8118659 97 95 95 255 0.200638 0.281232
-0.140703 0.508044 0.492493 -0.005235057 0.9551889 0.2959506 120 120 119 255 0.200638 0.303862
-0.518042 0.521721 0.446029 -0.8890411 0.04274822 0.4558274 97 95 95 255 0.200638 0.281232
-0.285832 0.554192 5.056668 0.2544959 0.7485924 0.6122427 97 95 95 255 0.200638 0.281232
0.372417 0.532724 5.12291 -0.02008569 0.06189544 0.9978805 120 120 119 255 0.200638 0.303862
-0.452956 0.554969 1.109263 -0.09541848 0.8314745 -0.5473076 97 95 95 255 0.200638 0.281232
0.581898 0.559539 0.382612 0.6973557 0.6433309 0.3159436 97 95 95 255 0.200638 0.281232
0.055989 0.572984 5.035973 -0.2819855 0.8431195 0.4578577 97 95 95 255 0.200638 0.281232
-0.583612 0.559068 5.029495 -0.5041678 0.6511497 0.5672909 97 95 95 255 0.200638 0.281232
-0.594093 0.569563 4.559773 -0.7076977 0.7060449 0.02577954 120 120 119 255 0.200638 0.303862
0.580674 0.560593 1.253604 0.4437563 0.8961378 -0.004169878 97 95 95 255 0.200638 0.281232
0.64704 0.570001 0 0.7518871 0.4700347 -0.4623129 97 95 95 255 0.200638 0.281232
0.368043 0.568108 5.062729 0.2457381 0.8678362 0.4318253 97 95 95 255 0.200638 0.281232
-0.056127 0.57281 4.90238 -0.2474032 0.8770602 0.4117732 97 95 95 255 0.200638 0.281232
-0.369757 0.57068 4.562829 0.0256296 0.9054956 -0.4235808 97 95 95 255 0.200638 0.281232
-0.224581 0.571358 4.903777 -0.008187061 0.9995631 0.02840106 120 120 119 255 0.200638 0.303862
0.035273 0.570478 4.56233 0.002619179 0.8766865 -0.4810551 97 95 95 255 0.200638 0.281232
0.483351 0.60742 0.301021 0.4340653 0.8986375 0.06354392 97 95 95 255 0.200638 0.281232
-0.593209 0.607213 0.300687 -0.9317656 0.1052507 0.3474699 97 95 95 255 0.200638 0.281232
-0.47917 -0.16487 1.064426 -0.03850461 -0.9957315 0.08388233 120 120 119 255 0.200638 0.303862
0.365825 -0.286329 0.26506 -0.02950487 -0.9129558 0.4069905 97 95 95 255 0.200638 0.281232
0.120584 -0.290668 0.237548 0.004710741 -0.9994101 0.03401848 120 120 119 255 0.200638 0.303862
-0.395095 -0.285923 0.299631 0.2276487 -0.9737078 0.008323276 97 95 95 255 0.200638 0.281232
-0.451132 -0.290697 0.018175 0.07839005 -0.8743278 -0.4789635 97 95 95 255 0.200638 0.281232
0.59435 -0.290463 0.237326 0.2663784 -0.9595918 -0.09069848 97 95 95 255 0.200638 0.281232
-0.24859 -0.290189 0.017452 0.01316353 -0.9996192 -0.02425516 120 120 119 255 0.200638 0.303862
0.451035 -0.276849 0.012672 0.02834436 -0.9965134 -0.07847047 120 120 119 255 0.200638 0.303862
-0.173806 -0.222541 0.42224 0.1161448 -0.9867666 0.1131465 97 95 95 255 0.200638 0.281232
0.05682 -0.244479 0.336536 -0.01487559 -0.9443209 0.3286895 120 120 119 255 0.200638 0.303862
0.627353 -0.256738 0.062416 0.9622944 -0.2718848 0.008255768 120 120 119 255 0.200638 0.303862
-0.650086 -0.286464 0.000111 0.01906473 -0.147 -0.9889528 97 95 95 255 0.200638 0.281232
0.14365 -0.284603 0.000111 0.005320656 -0.110877 -0.9938199 97 95 95 255 0.200638 0.281232
-0.059276 -0.243667 5.011272 -0.02386015 -0.9526661 0.3030809 120 120 119 255 0.200638 0.303862
0.447395 -0.245394 5.063339 -0.006612797 -0.999799 0.01892862 120 120 119 255 0.200638 0.303862
0.523699 -0.248442 4.954494 -0.0001242546 -0.9999998 -0.000679608 120 120 119 255 0.200638 0.303862
0.422702 -0.239473 4.540431 0.1784517 -0.9203007 -0.3481403 97 95 95 255 0.200638 0.281232
-0.598228 -0.250713 5.038908 -0.5336615 -0.5345677 0.6553188 97 95 95 255 0.200638 0.281232
-0.110292 -0.246041 5.06259 0.364386 -0.6619172 0.6550485 97 95 95 255 0.200638 0.281232
-0.594093 -0.248035 4.559995 -0.5256245 -0.550835 -0.6483054 97 95 95 255 0.200638 0.281232
-0.310385 -0.238893 1.254882 -0.01908941 -0.8129354 0.582041 120 120 119 255 0.200638 0.303862
-4.8e-05 -0.227318 1.281227 0.007416239 -0.8126939 0.5826436 120 120 119 255 0.200638 0.303862
-0.55567 -0.209135 5.107482 0.09138926 -0.1020402 0.9905735 120 120 119 255 0.200638 0.303862
-0.084274 -0.071022 5.127476 0.6741069 -0.3427778 0.6542807 97 95 95 255 0.200638 0.281232
-0.063266 -0.180486 1.069968 -0.003764641 -0.9999563 -0.00855951 120 120 119 255 0.200638 0.303862
0.495803 -0.18079 1.07447 0.5478019 -0.8365858 -0.006120766 120 120 119 255 0.200638 0.303862
-0.153591 -0.169276 0.843091 -0.006693092 -0.9989678 -0.0449297 97 95 95 255 0.200638 0.281232
-0.493883 -0.180423 0.873049 -0.8667896 -0.4858267 -0.1124646 97 95 95 255 0.200638 0.281232
0.093572 -0.180423 0.75244 -0.03575971 -0.9990389 0.02534794 97 95 95 255 0.200638 0.281232
-0.461209 -0.161493 0.715869 -0.04131486 -0.9927499 0.1128747 120 120 119 255 0.200638 0.303862
-0.594738 -0.147847 4.562385 -0.8660527 0.1764261 -0.4677889 97 95 95 255 0.200638 0.281232
0.494327 -0.16755 4.414543 0.3197376 -0.9474982 0.003882255 120 120 119 255 0.200638 0.303862
-0.495064 -0.169248 4.412764 -0.4673381 -0.8839734 -0.01363976 120 120 119 255 0.200638 0.303862
-0.334588 -0.173991 4.215456 0.104871 -0.8119304 -0.574257 97 95 95 255 0.200638 0.281232
-0.479958 -0.16989 4.143424 -0.1742069 -0.2590508 -0.9500235 97 95 95 255 0.200638 0.281232
0.091266 -0.173991 4.215456 -0.08233501 -0.8331923 -0.5468194 97 95 95 255 0.200638 0.281232
0.479864 -0.169853 4.143536 0.04414567 -0.5125415 -0.8575269 97 95 95 255 0.200638 0.281232
-0.450047 -0.148624 1.37638 -0.43875 -0.5577251 0.7045859 97 95 95 255 0.200638 0.281232
0.17942 -0.234935 1.253993 0.02076335 -0.8275293 0.5610386 120 120 119 255 0.200638 0.303862
0.492215 -0.218575 1.279616 -0.004953381 -0.8143156 0.5804012 120 120 119 255 0.200638 0.303862
0.385162 -0.104746 1.438407 0.6234086 -0.3726194 0.6873985 97 95 95 255 0.200638 0.281232
0.506329 -0.163014 5.125239 -0.04275018 -0.297658 0.953715 120 120 119 255 0.200638 0.303862
0.590262 -0.21773 4.977753 0.9981521 -0.02455155 -0.05558395 120 120 119 255 0.200638 0.303862
0.569994 -0.19711 4.604681 0.9974152 0.001155747 -0.07184468 120 120 119 255 0.200638 0.303862
0.142819 -0.104338 4.11669 0.02080892 -0.9996241 -0.01784922 120 120 119 255 0.200638 0.303862
-0.393082 -0.130076 4.13731 -0.7038319 -0.7094162 -0.03673539 120 120 119 255 0.200638 0.303862
0.386191 -0.105521 4.118246 0.7146741 -0.6992339 0.01769016 120 120 119 255 0.200638 0.303862
0.252279 -0.102987 3.200178 0.1405034 -0.9665046 0.2147735 97 95 95 255 0.200638 0.281232
0.332669 -0.094586 2.97458 0.06420509 -0.9978346 -0.01427922 120 120 119 255 0.200638 0.303862
0.168006 -0.103421 2.851581 0.2343716 -0.9381767 -0.2547439 97 95 95 255 0.200638 0.281232
-0.023516 -0.103421 2.680562 -0.02207086 -0.9997471 -0.004318066 120 120 119 255 0.200638 0.303862
-0.049393 -0.102511 2.406386 -0.02014134 -0.9997972 6.430787e-05 120 120 119 255 0.200638 0.303862
0.384081 -0.103421 2.629539 0.8942497 -0.4475684 -0.0001962919 120 120 119 255 0.200638 0.303862
-0.312737 -0.103629 1.440742 -0.4040886 -0.8572011 0.3192471 97 95 95 255 0.200638 0.281232
-0.483259 0.051316 4.453448 -0.8997017 0.03881573 -0.4347761 97 95 95 255 0.200638 0.281232
0.383587 -0.10319 3.58279 0.6434832 -0.6961492 -0.3182856 97 95 95 255 0.200638 0.281232
0.28623 -0.102678 3.481301 0.07201254 -0.9492162 -0.3062725 97 95 95 255 0.200638 0.281232
-0.341618 -0.089472 2.975524 -0.7546013 -0.6547877 -0.04277826 97 95 95 255 0.200638 0.281232
-0.367744 -0.090318 2.417447 -0.7080002 -0.672079 -0.2168997 97 95 95 255 0.200638 0.281232
-0.286423 -0.103388 2.149496 -0.3434544 -0.9246514 0.1644958 97 95 95 255 0.200638 0.281232
-0.47917 -0.16487 1.064426 -0.8155851 -0.2418328 -0.5256786 97 95 95 255 0.200638 0.281232
-0.501111 -0.185091 0.493716 -0.9840028 0.04754914 0.1716906 97 95 95 255 0.200638 0.281232
0.494622 0.225277 4.413376 0.8137658 0.01801161 -0.5809137 97 95 95 255 0.200638 0.281232
0.481885 0.021993 4.14359 0.9989954 -0.00328104 -0.04469184 120 120 119 255 0.200638 0.303862
-0.38413 -0.103422 3.451065 -0.5463512 -0.619012 -0.5642027 97 95 95 255 0.200638 0.281232
-0.382305 -0.087781 3.200734 -0.6619253 -0.6980867 0.2730016 97 95 95 255 0.200638 0.281232
0.384027 -0.103388 2.431397 0.6065539 -0.6236722 -0.4930774 97 95 95 255 0.200638 0.281232
0.383294 -0.102846 2.206688 0.5845689 -0.5976938 0.5486724 97 95 95 255 0.200638 0.281232
0.647335 -0.034821 0.000111 0.9972801 -0.05607886 -0.04782817 120 120 119 255 0.200638 0.303862
-0.569444 -0.03296 4.636862 -0.9999076 0.00815302 0.01088531 120 120 119 255 0.200638 0.303862
0.556658 -0.032828 4.503971 0.9966041 -0.00599764 -0.08212323 120 120 119 255 0.200638 0.303862
0.598776 0.059069 5.008381 0.7890285 -0.03403 0.6134134 97 95 95 255 0.200638 0.281232
-0.479323 0.098135 4.220513 -0.7351235 0.03742677 -0.6768994 97 95 95 255 0.200638 0.281232
-0.385552 0.062218 4.11669 -0.9999066 0.009077637 -0.01022147 120 120 119 255 0.200638 0.303862
0.373554 -0.067534 3.002369 0.9841595 0.08615177 -0.154945 120 120 119 255 0.200638 0.303862
0.323769 -0.039358 2.875147 0.9858043 -0.1251564 -0.1119187 120 120 119 255 0.200638 0.303862
0.321354 -0.036785 2.747257 0.956521 -0.2906817 -0.02391058 120 120 119 255 0.200638 0.303862
-0.540815 -0.049689 5.122536 -0.5650255 0.002773828 0.8250688 97 95 95 255 0.200638 0.281232
-0.590991 0.212822 5.062868 -0.7892641 0.002656827 0.6140482 97 95 95 255 0.200638 0.281232
-0.377439 0.194943 3.428445 -0.9999325 0.001216163 -0.01155262 120 120 119 255 0.200638 0.303862
0.371434 -0.067633 3.196065 0.9987574 -0.04862879 0.01090647 120 120 119 255 0.200638 0.303862
0.384081 0.160948 2.852748 0.5992861 -0.5164412 0.6116738 97 95 95 255 0.200638 0.281232
0.374536 0.026326 3.427833 0.9997598 -0.002770383 -0.0217416 120 120 119 255 0.200638 0.303862
0.383294 0.176862 3.200122 0.891966 0.0024672 0.4520957 97 95 95 255 0.200638 0.281232
-0.372117 -0.052058 2.940842 -0.9993137 -0.03398941 -0.0147309 120 120 119 255 0.200638 0.303862
-0.382404 -0.053718 2.40583 -0.9998047 -0.004515871 0.01923784 120 120 119 255 0.200638 0.303862
-0.597932 0.122347 4.658594 -0.9963461 -0.0780934 0.03458323 120 120 119 255 0.200638 0.303862
-0.580769 -0.151468 1.255716 -0.6926597 -0.001073306 0.7212637 120 120 119 255 0.200638 0.303862
-0.385508 -0.070344 1.443354 -0.916899 0.01180063 0.398945 120 120 119 255 0.200638 0.303862
0.651906 0.300723 0.080869 0.7813172 -0.01632811 -0.6239206 97 95 95 255 0.200638 0.281232
0.476324 0.116083 5.126313 0.005824973 0.001308324 0.9999822 120 120 119 255 0.200638 0.303862
0.580074 -0.113109 1.257106 0.6953366 0.006009351 0.7186592 120 120 119 255 0.200638 0.303862
-0.580464 0.510549 1.256994 -0.9360267 0.332359 0.1157222 97 95 95 255 0.200638 0.281232
-0.486747 0.181878 4.375414 -0.87709 -0.193581 -0.4395903 97 95 95 255 0.200638 0.281232
-0.647375 0.372607 0.000111 0.02286159 0.0005252522 -0.9997385 97 95 95 255 0.200638 0.281232
0.497879 0.256095 1.068468 0.9999894 -0.001595581 -0.004308037 120 120 119 255 0.200638 0.303862
-0.488669 -0.05304 0.528453 -0.922517 -0.03190915 0.3846352 120 120 119 255 0.200638 0.303862
-0.496004 -0.095097 0.842758 -0.9999163 0.01274738 0.002253186 120 120 119 255 0.200638 0.303862
-0.471892 0.485656 5.127245 -0.1414212 0.5474056 0.8248317 97 95 95 255 0.200638 0.281232
-0.354409 0.404697 3.248365 -0.6371548 0.6713626 0.378558 120 120 119 255 0.200638 0.303862
0.383338 0.423531 2.408998 0.4530481 0.8913914 0.01299124 120 120 119 255 0.200638 0.303862
-0.595079 0.237537 4.562774 -0.9998106 0.01611233 0.01091415 120 120 119 255 0.200638 0.303862
0.480016 0.4907 4.143313 0.02353399 0.2802326 -0.9596437 97 95 95 255 0.200638 0.281232
0.583517 0.561468 4.552213 0.5043058 0.5783952 -0.6411979 97 95 95 255 0.200638 0.281232
-0.382699 0.002117 2.208911 -0.9999986 -0.001501718 0.0008596264 120 120 119 255 0.200638 0.303862
-0.383334 0.423564 2.206465 -0.4502899 0.8924582 -0.02751939 120 120 119 255 0.200638 0.303862
-0.382699 -0.053242 2.112202 -0.987509 0.1350936 0.081091 120 120 119 255 0.200638 0.303862
-0.487042 0.495377 4.377415 -0.7141097 0.6975283 -0.05917503 120 120 119 255 0.200638 0.303862
0.384081 0.425188 3.451121 0.7475158 0.5710701 -0.3392628 97 95 95 255 0.200638 0.281232
-0.384075 0.425152 2.431397 -0.6969954 0.6816485 -0.2226046 97 95 95 255 0.200638 0.281232
0.384081 0.332314 2.149551 0.9671786 0.08944675 0.2378337 97 95 95 255 0.200638 0.281232
-0.496004 0.204593 1.069857 -0.9985507 0.01798565 -0.05072571 120 120 119 255 0.200638 0.303862
0.478542 0.501813 4.415043 0.4281425 0.9021755 -0.05266312 120 120 119 255 0.200638 0.303862
-0.383288 0.424647 3.517817 -0.5465465 0.6975345 -0.4633926 97 95 95 255 0.200638 0.281232
0.598877 0.445435 5.008474 0.8665954 0.4898091 0.09539092 120 120 119 255 0.200638 0.303862
0.384081 0.425287 2.877926 0.9596571 0.009985571 -0.2809958 97 95 95 255 0.200638 0.281232
0.381478 0.292897 3.100523 0.9133613 0.4065988 0.02118109 97 95 95 255 0.200638 0.281232
0.384081 0.392312 2.655273 0.2799896 0.9470126 0.1573946 97 95 95 255 0.200638 0.281232
-0.38413 0.276577 2.814287 -0.8169167 0.5765698 0.01464031 97 95 95 255 0.200638 0.281232
0.357909 0.353272 1.796397 0.9124225 0.409011 -0.01396877 97 95 95 255 0.200638 0.281232
0.540132 0.433378 5.122772 0.01125647 0.01284035 0.9998542 120 120 119 255 0.200638 0.303862
-0.587154 0.526524 5.059142 -0.9999045 0.007715965 0.01147226 120 120 119 255 0.200638 0.303862
0.366514 0.410797 4.040212 0.6830403 0.7111859 -0.1663447 97 95 95 255 0.200638 0.281232
-0.480056 0.490739 4.143201 -0.712524 0.7007678 -0.03512971 120 120 119 255 0.200638 0.303862
-0.387027 0.426847 4.118246 -0.4445661 0.8957055 -0.008528505 120 120 119 255 0.200638 0.303862
-0.649443 0.608232 0.000333 -0.438423 0.89676 -0.060057 120 120 119 255 0.200638 0.303862
0.383053 0.37592 3.77493 0.9253438 0.3767769 0.04216851 97 95 95 255 0.200638 0.281232
0.384081 0.425223 3.161939 0.5921287 0.6596795 0.4628246 97 95 95 255 0.200638 0.281232
0.385009 0.425965 1.439185 0.6920372 0.6953055 0.193997 97 95 95 255 0.200638 0.281232
0.580674 0.560593 1.253604 0.1874415 0.6952758 0.6938713 120 120 119 255 0.200638 0.303862
-0.49418 0.500389 1.073136 -0.7064831 0.7047524 -0.06485192 120 120 119 255 0.200638 0.303862
-0.38413 0.425223 3.161939 -0.8409181 0.4975868 -0.2127538 97 95 95 255 0.200638 0.281232
0.647335 0.428982 0.000111 0.9995517 0.02827366 -0.009851641 120 120 119 255 0.200638 0.303862
0.285739 0.426882 4.117301 0.0007912552 0.9999426 -0.01068249 120 120 119 255 0.200638 0.303862
0.369224 0.421329 3.672662 0.005694872 0.9999794 0.002945362 120 120 119 255 0.200638 0.303862
0.04954 0.421397 3.426499 -0.03744715 0.9987946 -0.03173359 120 120 119 255 0.200638 0.303862
-0.120285 0.416792 3.554833 -0.01626438 0.9993329 -0.03270011 120 120 119 255 0.200638 0.303862
-0.28145 0.423632 2.752371 0.003393103 0.9999942 0.0002318319 120 120 119 255 0.200638 0.303862
0.284843 0.418791 2.629595 0.008634521 0.9999626 0.0003978828 120 120 119 255 0.200638 0.303862
0.366371 0.416421 2.196572 0.009126081 0.9995058 -0.03008127 120 120 119 255 0.200638 0.303862
0.35097 0.408126 1.916283 0.01116248 0.9995997 0.0259986 120 120 119 255 0.200638 0.303862
0.312555 0.425287 1.700077 -0.003902885 0.9991298 0.04152691 120 120 119 255 0.200638 0.303862
-0.378118 0.42133 1.432627 -0.5112348 0.3687522 0.7763123 97 95 95 255 0.200638 0.281232
-0.656133 0.486337 0.269951 -0.838646 0.3187778 0.4416488 97 95 95 255 0.200638 0.281232
-0.501363 0.467548 0.492994 -0.8527997 0.3957119 0.3408004 97 95 95 255 0.200638 0.281232
-0.477597 0.49277 0.809688 -0.6180883 0.7859416 -0.01620974 97 95 95 255 0.200638 0.281232
0.648265 0.527778 0.300798 0.7792341 0.5945081 0.1983794 97 95 95 255 0.200638 0.281232
0.497475 0.502999 1.068801 0.7062081 0.7079983 -0.002936925 120 120 119 255 0.200638 0.303862
0.214008 0.486541 4.218346 -0.003473308 0.9981074 -0.06139737 120 120 119 255 0.200638 0.303862
-0.214199 0.49585 4.276426 0.03130894 0.9788466 -0.2021858 97 95 95 255 0.200638 0.281232
0.495954 0.502283 0.530454 0.7974651 0.2363854 0.5551319 97 95 95 255 0.200638 0.281232
-0.271762 0.488098 5.127476 0.2894513 0.8081318 0.5129728 97 95 95 255 0.200638 0.281232
-0.594093 0.569563 4.559773 -0.8063507 0.4590351 -0.3729415 97 95 95 255 0.200638 0.281232
-0.255726 0.506722 4.444555 0.01802758 0.8961312 -0.4434229 97 95 95 255 0.200638 0.281232
-0.3089 0.502283 1.069246 -0.01866409 0.9997889 -0.008598873 120 120 119 255 0.200638 0.303862
-0.476372 0.488403 0.551241 -0.02364565 0.9905541 0.1350685 120 120 119 255 0.200638 0.303862
-0.593209 0.607213 0.300687 0.00682955 0.9534446 0.3014909 120 120 119 255 0.200638 0.303862
0.581898 0.559539 0.382612 0.0002561532 0.9048477 0.4257354 120 120 119 255 0.200638 0.303862
0.372417 0.532724 5.12291 0.2401315 0.8443406 0.4789842 97 95 95 255 0.200638 0.281232
-0.55405 0.555007 1.253271 -0.004113697 0.7998545 0.6001799 120 120 119 255 0.200638 0.303862
0.105773 0.54295 5.108135 -0.1172331 0.8630698 0.4912911 97 95 95 255 0.200638 0.281232
-0.032131 0.482169 5.109859 -0.1963885 0.8766257 0.4392711 97 95 95 255 0.200638 0.281232
-0.583612 0.559068 5.029495 -0.00994146 0.9987416 0.0491581 120 120 119 255 0.200638 0.303862
-0.285832 0.554192 5.056668 0.005874365 0.9934752 0.1138972 120 120 119 255 0.200638 0.303862
-0.224581 0.571358 4.903777 0.2884013 0.8673496 0.4056223 97 95 95 255 0.200638 0.281232
-0.369757 0.57068 4.562829 -0.01172415 0.9998772 0.01040253 120 120 119 255 0.200638 0.303862
0.368043 0.568108 5.062729 0.1822075 0.9811612 0.06421125 120 120 119 255 0.200638 0.303862
0.035273 0.570478 4.56233 0.005854444 0.999966 -0.00580359 120 120 119 255 0.200638 0.303862
0.055989 0.572984 5.035973 0.01057556 0.9999276 -0.005752979 120 120 119 255 0.200638 0.303862
-0.056127 0.57281 4.90238 -0.001840695 0.9999713 -0.007352281 120 120 119 255 0.200638 0.303862
0.483351 0.60742 0.301021 0.01091161 0.9752236 0.2209522 120 120 119 255 0.200638 0.303862
0.64704 0.570001 0 0.02927666 0.9937619 -0.1076115 120 120 119 255 0.200638 0.303862
3 3 39 5 
3 228 4 6 
3 5 229 3 
3 1 0 8 
3 230 231 2 
3 4 2 9 
3 4 9 6 
3 232 10 7 
3 2 231 9 
3 9 231 13 
3 229 233 11 
3 3 229 11 
3 10 232 14 
3 0 12 8 
3 3 11 234 
3 1 49 0 
3 1 15 49 
3 230 2 235 
3 2 4 235 
3 5 39 236 
3 3 30 39 
3 30 3 237 
3 13 231 238 
3 13 239 9 
3 56 17 19 
3 19 20 18 
3 31 35 22 
3 240 31 22 
3 241 240 22 
3 18 20 21 
3 242 241 22 
3 242 22 23 
3 20 243 21 
3 27 26 28 
3 26 25 28 
3 24 32 29 
3 25 24 29 
3 25 29 28 
3 27 28 38 
3 16 14 239 
3 244 245 33 
3 19 18 34 
3 243 246 41 
3 247 248 42 
3 37 28 29 
3 89 249 31 
3 65 89 31 
3 17 250 245 
3 56 19 34 
3 243 40 21 
3 243 41 40 
3 36 27 38 
3 24 43 32 
3 29 32 37 
3 28 37 44 
3 38 28 44 
3 251 227 45 
3 251 45 46 
3 251 46 252 
3 253 254 48 
3 252 46 47 
3 253 48 255 
3 252 47 50 
3 47 256 49 
3 47 49 50 
3 50 49 15 
3 50 15 39 
3 236 39 15 
3 39 30 50 
3 35 59 22 
3 257 41 246 
3 258 259 53 
3 60 258 52 
3 259 51 53 
3 258 53 52 
3 260 261 58 
3 262 54 263 
3 264 43 24 
3 63 248 265 
3 63 265 266 
3 36 38 55 
3 44 55 38 
3 114 16 239 
3 16 10 14 
3 259 96 51 
3 117 258 60 
3 58 61 260 
3 61 262 260 
3 146 30 237 
3 16 7 10 
3 61 54 262 
3 61 62 54 
3 62 263 54 
3 62 119 263 
3 248 63 42 
3 27 36 267 
3 254 64 48 
3 239 13 114 
3 16 94 7 
3 65 240 268 
3 66 269 270 
3 271 272 67 
3 273 271 67 
3 68 273 67 
3 68 67 69 
3 71 70 73 
3 72 274 75 
3 72 75 112 
3 73 70 74 
3 71 77 275 
3 112 75 78 
3 75 276 109 
3 78 75 109 
3 276 76 109 
3 73 277 77 
3 277 73 79 
3 76 80 109 
3 73 74 79 
3 109 80 81 
3 277 79 278 
3 279 278 82 
3 91 85 84 
3 84 85 86 
3 84 86 87 
3 83 88 280 
3 87 86 63 
3 264 280 88 
3 42 63 86 
3 43 115 32 
3 13 123 114 
3 257 281 41 
3 51 96 57 
3 97 282 100 
3 282 283 100 
3 90 274 101 
3 101 274 72 
3 284 102 285 
3 286 105 83 
3 286 83 280 
3 84 87 92 
3 287 64 254 
3 48 93 288 
3 34 18 56 
3 95 281 257 
3 40 107 21 
3 289 107 40 
3 117 60 290 
3 108 58 261 
3 283 291 98 
3 283 98 99 
3 292 102 284 
3 285 102 103 
3 293 80 104 
3 286 294 105 
3 122 252 50 
3 295 146 237 
3 114 94 16 
3 35 118 296 
3 35 296 59 
3 66 270 297 
3 283 99 100 
3 90 99 98 
3 90 101 99 
3 101 100 99 
3 285 103 105 
3 80 285 105 
3 80 105 104 
3 294 104 105 
3 92 87 63 
3 43 264 88 
3 291 110 98 
3 90 98 111 
3 113 83 105 
3 64 93 48 
3 50 30 146 
3 65 164 89 
3 298 56 18 
3 101 72 100 
3 32 115 106 
3 44 116 55 
3 261 299 108 
3 272 300 67 
3 126 301 302 
3 120 302 303 
3 238 123 13 
3 304 305 33 
3 298 135 56 
3 305 244 33 
3 95 127 281 
3 67 300 306 
3 98 110 111 
3 126 307 301 
3 308 109 81 
3 91 84 92 
3 132 68 309 
3 115 121 106 
3 146 295 124 
3 72 310 100 
3 120 279 129 
3 129 279 82 
3 36 55 163 
3 153 146 124 
3 12 0 125 
3 273 68 132 
3 311 151 143 
3 311 143 312 
3 130 94 114 
3 296 118 313 
3 66 297 142 
3 96 131 57 
3 70 151 311 
3 104 186 293 
3 128 314 315 
3 116 163 55 
3 130 316 94 
3 197 164 65 
3 65 317 154 
3 126 302 120 
3 318 145 63 
3 100 168 97 
3 310 168 100 
3 90 169 292 
3 133 91 92 
3 43 319 115 
3 50 146 122 
3 304 134 305 
3 281 127 320 
3 169 90 111 
3 113 105 138 
3 133 92 144 
3 144 92 63 
3 144 63 145 
3 321 140 238 
3 127 137 320 
3 106 121 64 
3 322 252 122 
3 238 140 123 
3 103 138 105 
3 323 324 136 
3 0 49 323 
3 141 114 123 
3 141 130 114 
3 325 134 304 
3 147 197 65 
3 174 70 326 
3 70 174 151 
3 139 126 120 
3 120 129 139 
3 129 82 327 
3 159 113 138 
3 118 328 313 
3 117 290 204 
3 299 199 108 
3 154 147 65 
3 320 137 149 
3 62 150 119 
3 150 329 119 
3 132 309 173 
3 294 170 104 
3 165 135 298 
3 165 298 148 
3 289 330 107 
3 141 316 130 
3 104 170 186 
3 331 332 333 
3 152 133 144 
3 134 201 305 
3 131 334 57 
3 97 168 335 
3 103 336 138 
3 294 337 170 
3 338 160 324 
3 324 160 136 
3 289 155 330 
3 339 117 204 
3 199 156 108 
3 300 157 306 
3 110 340 111 
3 153 122 146 
3 341 66 142 
3 273 132 179 
3 175 139 184 
3 342 343 158 
3 158 343 344 
3 345 176 336 
3 337 177 170 
3 177 337 346 
3 332 191 333 
3 333 191 161 
3 333 161 315 
3 152 144 145 
3 152 145 167 
3 178 128 315 
3 318 167 145 
3 218 36 163 
3 115 162 121 
3 136 0 323 
3 317 347 154 
3 118 348 328 
3 150 62 349 
3 126 139 175 
3 315 161 178 
3 140 200 123 
3 200 141 123 
3 154 205 147 
3 334 350 57 
3 300 351 157 
3 183 166 111 
3 172 168 166 
3 169 111 166 
3 168 169 166 
3 162 171 121 
3 125 192 352 
3 205 197 147 
3 347 212 154 
3 349 353 182 
3 182 353 335 
3 183 172 166 
3 335 168 172 
3 168 310 354 
3 186 170 138 
3 138 170 159 
3 187 177 346 
3 189 346 355 
3 318 356 167 
3 116 207 163 
3 338 357 160 
3 0 192 125 
3 198 205 154 
3 340 183 111 
3 354 169 168 
3 358 176 345 
3 336 186 138 
3 177 159 170 
3 161 191 178 
3 0 136 192 
3 153 124 359 
3 193 180 156 
3 180 150 349 
3 180 349 182 
3 351 360 181 
3 360 361 181 
3 351 181 157 
3 181 362 363 
3 181 363 157 
3 181 361 173 
3 181 173 362 
3 326 175 174 
3 175 364 174 
3 175 184 364 
3 185 342 158 
3 184 365 364 
3 158 344 185 
3 185 344 186 
3 364 365 327 
3 364 327 143 
3 332 366 367 
3 332 188 191 
3 332 367 190 
3 187 346 189 
3 188 332 190 
3 367 368 190 
3 190 368 167 
3 190 167 188 
3 191 188 178 
3 319 369 194 
3 115 319 162 
3 210 370 371 
3 153 196 122 
3 359 196 153 
3 321 200 140 
3 199 193 156 
3 329 150 180 
3 356 178 188 
3 167 356 188 
3 371 372 195 
3 373 141 219 
3 325 201 134 
3 348 217 328 
3 203 180 193 
3 374 322 122 
3 334 206 202 
3 206 375 202 
3 206 339 375 
3 334 202 350 
3 375 339 204 
3 199 376 193 
3 376 203 193 
3 203 329 180 
3 371 195 210 
3 373 214 377 
3 211 325 378 
3 212 198 154 
3 137 379 149 
3 380 330 155 
3 162 213 171 
3 171 213 208 
3 381 374 122 
3 357 381 160 
3 160 381 382 
3 382 381 209 
3 381 122 209 
3 226 210 195 
3 383 382 209 
3 384 209 122 
3 165 220 385 
3 356 386 178 
3 213 207 208 
3 213 163 207 
3 216 201 325 
3 211 216 325 
3 387 215 388 
3 220 387 385 
3 201 216 379 
3 379 222 149 
3 222 380 149 
3 222 224 380 
3 224 330 380 
3 319 194 162 
3 214 373 225 
3 225 373 219 
3 226 200 370 
3 387 220 215 
3 389 390 223 
3 220 165 148 
3 211 378 391 
3 378 388 391 
3 388 215 221 
3 389 223 392 
3 391 388 221 
3 393 341 142 
3 393 394 395 
3 389 392 217 
3 393 142 394 
3 396 395 394 
3 396 394 223 
3 392 223 394 
3 194 218 213 
3 194 213 162 
3 218 163 213 
3 226 370 210 
3 397 383 209 
3 397 209 384 
3 200 219 141 
3 383 397 352 
3 352 397 398 
3 37 32 287 
3 32 106 287 
3 71 73 77 
3 90 292 274 
3 287 106 64 
3 65 268 317 
