ply
format ascii 1.0
comment VCGLIB generated
comment TextureFile Dungeons_Texture_01.png
element vertex 85
property float x
property float y
property float z
property float nx
property float ny
property float nz
property uchar red
property uchar green
property uchar blue
property uchar alpha
property float texture_u
property float texture_v
element face 100
property list uchar int vertex_indices
end_header
0.022007 0.144237 0.262927 0.4543285 0.1952838 0.8691662 97 92 89 255 0.212431 0.281711
0.044041 0.107319 0.248455 0.1416106 0.1903016 0.9714586 97 92 89 255 0.212431 0.281711
0.350136 -0 0.262084 0.8736678 -0.2232433 0.4322813 120 116 110 255 0.212431 0.305198
-0.065731 0.049888 0.265444 -0.003011571 -0.02798736 0.9996037 120 116 110 255 0.212431 0.305198
0.000526 0.061705 0.252734 0.01159826 -0.2658639 0.9639408 97 92 89 255 0.212431 0.281711
-0.350777 0.060612 0.264579 -0.5506663 -0.1139373 0.8269129 120 116 110 255 0.212431 0.305198
0.011105 0.00198 0.214616 -0.00580401 -0.9089656 0.4168308 97 92 89 255 0.212431 0.281711
0.054897 0.007024 0.265444 -0.4249219 -0.1900237 0.8850607 97 92 89 255 0.212431 0.281711
-0.340717 0.002994 0.25703 -0.6830992 -0.2108781 0.6992181 120 116 110 255 0.212431 0.305198
-0.093407 0.001683 0.259207 -0.008549277 -0.1277487 0.9917697 120 116 110 255 0.212431 0.305198
0.350777 0.143908 0.263336 0.3207459 0.8967952 0.304763 120 116 110 255 0.212431 0.305198
0.066154 0.13054 0.230688 0.2532388 0.8242073 0.5065101 97 92 89 255 0.212431 0.281711
0.122032 0.126574 0.24692 -0.3209904 0.8213183 0.4715947 97 92 89 255 0.212431 0.281711
0.142609 0.143759 0.262913 0.00394937 0.4459478 0.8950503 120 116 110 255 0.212431 0.305198
-0.350651 0.14394 0.263362 -0.7281857 0.5125145 0.4550545 120 116 110 255 0.212431 0.305198
-0.350777 0.038612 0.115123 -0.9996237 -0.01006327 -0.02551903 120 116 110 255 0.212431 0.305198
0.05489 0.142984 0.082355 0.1036761 0.9906476 0.08870622 97 92 89 255 0.212431 0.281711
0.142616 0.145538 0.112387 -0.3779251 0.9230101 0.07228532 97 92 89 255 0.212431 0.281711
-0.324905 0.005872 -0.01622 -0.3919987 -0.9183339 0.05477092 97 92 89 255 0.212431 0.281711
-0.306782 0.000451 0.112372 -0.05967131 -0.9981799 -0.008731241 97 92 89 255 0.212431 0.281711
-0.345261 0.030314 0.049774 -0.9991328 0.03606024 -0.02081861 120 116 110 255 0.212431 0.305198
0.35043 0.143382 0.008149 0.9007026 0.4344363 -0.0001570626 120 116 110 255 0.212431 0.305198
-0.219212 0 -0.033623 -0.006231808 -0.9998257 0.01759717 97 92 89 255 0.212431 0.281711
0.348202 0.081789 -0.107835 0.9997355 0.008014519 -0.02155623 120 116 110 255 0.212431 0.305198
0.350719 0.111927 -0.048807 0.4309789 0.8632026 -0.2629418 97 92 89 255 0.212431 0.281711
-0.35022 0.143297 -0.098687 -0.8948632 0.4400712 -0.07454597 120 116 110 255 0.212431 0.305198
-0.306919 0.145548 -0.132281 -0.03987256 0.9983918 -0.04029943 120 116 110 255 0.212431 0.305198
-0.350224 5e-06 -0.066361 -0.1085178 -0.9854887 0.1305215 97 92 89 255 0.212431 0.281711
0.349529 0.029661 -0.164937 0.9977807 0.03084938 -0.05900853 120 116 110 255 0.212431 0.305198
-0.350719 0.112177 -0.107829 -0.9840045 0.1166881 -0.1346073 120 116 110 255 0.212431 0.305198
0.344204 0.119769 -0.190485 0.6789119 0.7218398 -0.1342604 97 92 89 255 0.212431 0.281711
-0.350231 1.1e-05 -0.215015 -0.9916658 0.08672885 -0.09527338 120 116 110 255 0.212431 0.305198
-0.321594 0.134071 -0.199213 -0.5490916 0.7796715 -0.3010165 120 116 110 255 0.212431 0.305198
0.318035 0.145548 0.007995 0.007451891 0.9999599 -0.004969535 120 116 110 255 0.212431 0.305198
0.219296 0.000568 -0.259845 0.04652071 -0.4786937 -0.8767487 120 116 110 255 0.212431 0.305198
0.305939 0.14437 -0.224471 0.008364308 0.9999499 -0.005502363 120 116 110 255 0.212431 0.305198
-0.186195 0.143632 -0.223451 -0.1169773 0.8886873 -0.4433409 120 116 110 255 0.212431 0.305198
-0.331512 0.064864 -0.250197 -0.9489953 0.2377776 -0.2070502 120 116 110 255 0.212431 0.305198
0.32999 0.005282 -0.247299 0.4434063 -0.5341908 -0.7197438 97 92 89 255 0.212431 0.281711
0.27412 0.144513 -0.246854 0.04494505 0.830371 -0.5553953 120 116 110 255 0.212431 0.305198
-0.31776 0.114083 -0.238279 -0.135766 0.6012294 -0.7874585 120 116 110 255 0.212431 0.305198
0.334312 0.060235 -0.260461 0.6120576 0.09112522 -0.7855455 120 116 110 255 0.212431 0.305198
-0.098991 0.144311 -0.246578 -0.05872845 0.9730329 -0.223065 120 116 110 255 0.212431 0.305198
0.320892 0.106443 -0.257626 0.5764727 0.6546938 -0.4889328 97 92 89 255 0.212431 0.281711
0.011036 0.143324 -0.265261 0.02057192 0.7789523 -0.6267456 120 116 110 255 0.212431 0.305198
-0.13139 0.112023 -0.264138 -0.1403402 0.5888503 -0.7959648 120 116 110 255 0.212431 0.305198
0.208191 0.112363 -0.265445 0.04743652 0.09798899 -0.9940563 120 116 110 255 0.212431 0.305198
-0.219212 0.081736 -0.265439 -0.143065 0.3434937 -0.9281942 120 116 110 255 0.212431 0.305198
-0.316647 0.039519 -0.261638 -0.1635735 0.2926974 -0.9421104 120 116 110 255 0.212431 0.305198
-0.109356 0 -0.265303 0.02109008 -0.6805932 -0.7323579 97 92 89 255 0.212431 0.281711
0.252159 0.03146 -0.258235 0.04550643 -0.06411186 -0.9969046 120 116 110 255 0.212431 0.305198
-0.283817 0.006158 -0.252285 -0.1243365 -0.5268568 -0.8408105 97 92 89 255 0.212431 0.281711
0.022007 0.144237 0.262927 0.004633678 0.8969212 0.4421662 120 116 110 255 0.212431 0.305198
0.142609 0.143759 0.262913 -0.7235935 0.6497924 0.2327707 97 92 89 255 0.212431 0.281711
0.054897 0.007024 0.265444 0.01164181 0.01104011 0.9998713 120 116 110 255 0.212431 0.305198
-0.065731 0.049888 0.265444 0.2816988 -0.3341198 0.8994497 97 92 89 255 0.212431 0.281711
-0.093407 0.001683 0.259207 0.1474914 -0.9249191 0.350387 97 92 89 255 0.212431 0.281711
-0.340717 0.002994 0.25703 -0.2785913 -0.960344 -0.01124242 97 92 89 255 0.212431 0.281711
0.350136 -0 0.262084 0.07926133 -0.996673 0.0189903 97 92 89 255 0.212431 0.281711
0.142616 0.145538 0.112387 -0.005245149 0.9999766 -0.004395478 120 116 110 255 0.212431 0.305198
-0.350777 0.038612 0.115123 -0.8149869 -0.5792544 -0.0161451 97 92 89 255 0.212431 0.281711
0.05489 0.142984 0.082355 -0.004232102 0.9999753 -0.005621472 120 116 110 255 0.212431 0.305198
-0.345261 0.030314 0.049774 -0.5329511 -0.8337341 0.1443976 97 92 89 255 0.212431 0.281711
0.318035 0.145548 0.007995 0.4812106 0.8573159 -0.1828819 97 92 89 255 0.212431 0.281711
0.35043 0.143382 0.008149 0.06072324 0.8738911 -0.4823143 97 92 89 255 0.212431 0.281711
-0.109356 0 -0.265303 0.007811946 -0.4638828 -0.8858622 120 116 110 255 0.212431 0.305198
0.350719 0.111927 -0.048807 0.99971 -0.01389148 -0.01967131 120 116 110 255 0.212431 0.305198
-0.350224 5e-06 -0.066361 -0.9997109 0.00390231 0.02372709 120 116 110 255 0.212431 0.305198
0.344204 0.119769 -0.190485 0.9847304 0.08984499 -0.1491106 120 116 110 255 0.212431 0.305198
-0.350231 1.1e-05 -0.215015 -0.2768393 -0.8765805 -0.393658 97 92 89 255 0.212431 0.281711
0.219296 0.000568 -0.259845 0.1785941 -0.9168334 -0.3571004 97 92 89 255 0.212431 0.281711
0.349529 0.029661 -0.164937 0.5203516 -0.8539103 0.008449813 97 92 89 255 0.212431 0.281711
0.305939 0.14437 -0.224471 0.5871499 0.732512 -0.3445013 97 92 89 255 0.212431 0.281711
0.334312 0.060235 -0.260461 0.6454357 -0.2255489 -0.7297537 97 92 89 255 0.212431 0.281711
-0.321594 0.134071 -0.199213 -0.9145972 0.3164874 -0.2516901 97 92 89 255 0.212431 0.281711
-0.31776 0.114083 -0.238279 -0.6511723 0.3455552 -0.6756968 97 92 89 255 0.212431 0.281711
-0.331512 0.064864 -0.250197 -0.7048767 0.1738206 -0.687703 97 92 89 255 0.212431 0.281711
0.27412 0.144513 -0.246854 0.4210249 0.6853749 -0.5941375 97 92 89 255 0.212431 0.281711
0.320892 0.106443 -0.257626 0.399461 0.2781028 -0.8735501 120 116 110 255 0.212431 0.305198
-0.098991 0.144311 -0.246578 0.125283 0.1188074 -0.9849817 97 92 89 255 0.212431 0.281711
0.011036 0.143324 -0.265261 -0.1645852 0.1385375 -0.9765854 97 92 89 255 0.212431 0.281711
-0.13139 0.112023 -0.264138 0.2120734 0.05186163 -0.9758767 97 92 89 255 0.212431 0.281711
-0.316647 0.039519 -0.261638 -0.3547228 -0.1767097 -0.9181206 97 92 89 255 0.212431 0.281711
-0.219212 0.081736 -0.265439 -0.003645634 -0.1044223 -0.9945264 97 92 89 255 0.212431 0.281711
0.252159 0.03146 -0.258235 0.08632322 -0.1545091 -0.9842131 97 92 89 255 0.212431 0.281711
3 11 0 1 
3 14 5 3 
3 52 14 3 
3 12 11 1 
3 10 13 2 
3 0 4 1 
3 53 12 7 
3 12 1 7 
3 2 13 54 
3 0 55 4 
3 1 4 7 
3 4 55 6 
3 5 8 9 
3 3 5 9 
3 7 4 6 
3 22 56 57 
3 56 6 55 
3 6 58 7 
3 6 49 58 
3 16 0 11 
3 22 6 56 
3 12 16 11 
3 17 12 53 
3 10 59 13 
3 5 15 8 
3 49 6 22 
3 60 18 57 
3 18 19 57 
3 17 16 12 
3 14 15 5 
3 57 19 22 
3 26 14 52 
3 61 26 52 
3 33 59 10 
3 21 10 2 
3 14 20 15 
3 60 62 18 
3 33 61 59 
3 14 25 20 
3 18 22 19 
3 26 25 14 
3 33 26 61 
3 21 33 10 
3 24 63 64 
3 34 2 65 
3 66 21 2 
3 23 66 2 
3 27 22 18 
3 25 67 20 
3 62 27 18 
3 23 2 28 
3 30 63 24 
3 68 66 23 
3 32 25 26 
3 25 32 29 
3 25 29 67 
3 67 29 31 
3 27 69 22 
3 70 71 58 
3 35 39 33 
3 68 23 28 
3 38 71 70 
3 30 72 63 
3 36 32 26 
3 29 37 31 
3 68 28 41 
3 29 32 37 
3 73 71 38 
3 40 32 36 
3 42 36 26 
3 42 26 33 
3 74 75 76 
3 69 49 22 
3 43 77 72 
3 43 72 30 
3 78 68 41 
3 44 42 33 
3 39 44 33 
3 49 69 51 
3 36 42 45 
3 44 39 46 
3 40 36 45 
3 79 80 49 
3 44 46 65 
3 39 78 46 
3 40 47 48 
3 45 47 40 
3 79 49 81 
3 75 82 76 
3 46 78 41 
3 81 49 83 
3 46 41 50 
3 76 82 69 
3 82 83 51 
3 65 46 34 
3 84 73 38 
3 82 51 69 
3 83 49 51 
3 46 50 34 
3 84 38 70 
