ply
format ascii 1.0
comment VCGLIB generated
comment TextureFile Dungeons_Texture_01.png
element vertex 16
property float x
property float y
property float z
property float nx
property float ny
property float nz
property uchar red
property uchar green
property uchar blue
property uchar alpha
property float texture_u
property float texture_v
element face 28
property list uchar int vertex_indices
end_header
-0.201822 -0.019472 0.201822 -0.6164738 -0.0614032 0.7849776 120 116 110 255 0.211923 0.303946
-0.201822 -0.201822 0.100911 -0.5159526 -0.8470306 0.1277969 120 116 110 255 0.211923 0.303946
-0.100912 -0.201822 0.201822 -0.2931475 -0.6074045 0.7383254 120 116 110 255 0.211923 0.303946
0.201822 -0.201822 0.100911 0.8044876 -0.579605 0.1298372 120 116 110 255 0.211923 0.303946
0.201822 -0.100911 0.201822 0.6983988 -0.1564485 0.6984003 120 116 110 255 0.211923 0.303946
0.10091 -0.201822 0.201822 0.1564468 -0.6983997 0.6983997 120 116 110 255 0.211923 0.303946
-0.201822 0.100911 -0.201822 -0.8044887 0.1298363 -0.5796037 120 116 110 255 0.211923 0.303946
-0.201822 0.201822 -0.100911 -0.6984004 0.6983989 -0.1564474 120 116 110 255 0.211923 0.303946
-0.100912 0.201822 -0.201822 -0.1564491 0.6983995 -0.6983995 120 116 110 255 0.211923 0.303946
0.201822 0.201822 0.201822 0.4082483 0.4082483 0.8164966 120 116 110 255 0.211923 0.303946
-0.201822 0.201822 0.201822 -0.4082483 0.8164966 0.4082483 120 116 110 255 0.211923 0.303946
-0.201822 -0.201822 -0.201822 -0.4082483 -0.4082483 -0.8164966 120 116 110 255 0.211923 0.303946
0.201822 -0.201822 -0.201822 0.4082483 -0.8164966 -0.4082483 120 116 110 255 0.211923 0.303946
0.201822 0.201822 -0.01006 0.6166669 0.7850315 -0.05871542 120 116 110 255 0.211923 0.303946
0.201822 0.100911 -0.201822 0.5178296 0.1288816 -0.8457198 120 116 110 255 0.211923 0.303946
0.10091 0.201822 -0.201822 0.2956963 0.7418914 -0.6017981 120 116 110 255 0.211923 0.303946
3 0 1 2 
3 3 4 5 
3 6 7 8 
3 4 9 0 
3 5 2 1 
3 13 14 15 
3 6 0 7 
3 14 13 3 
3 14 12 11 
3 7 13 8 
3 10 0 9 
3 0 2 5 
3 4 0 5 
3 1 11 12 
3 12 3 1 
3 3 5 1 
3 6 11 1 
3 1 0 6 
3 0 10 7 
3 9 4 13 
3 4 3 13 
3 3 12 14 
3 11 6 14 
3 6 8 14 
3 8 15 14 
3 7 10 13 
3 10 9 13 
3 13 15 8 
