ply
format ascii 1.0
comment VCGLIB generated
comment TextureFile Dungeons_Texture_01.png
element vertex 104
property float x
property float y
property float z
property float nx
property float ny
property float nz
property uchar red
property uchar green
property uchar blue
property uchar alpha
property float texture_u
property float texture_v
element face 164
property list uchar int vertex_indices
end_header
-15.07603 -0.835052 0.88866 -0.3872984 -0.8944273 0.2236066 42 44 47 255 0.081415 0.27972
-7.538018 -0.835054 13.94489 -0.4330128 -0.75 0.5 42 44 47 255 0.081211 0.2801
-7.538019 0.83505 13.94489 -0.2165064 0.7500001 0.6249999 42 44 47 255 0.081213 0.280069
-15.07603 0.835052 0.888661 -0.7745968 0.4472134 0.4472137 42 44 47 255 0.081418 0.279688
7.538017 -0.835054 13.94489 0.2165063 -0.75 0.6250001 42 44 47 255 0.080695 0.280133
7.538018 0.83505 13.94489 0.4330127 0.75 0.5000001 42 44 47 255 0.080693 0.280102
15.07603 -0.835052 0.888662 0.7745966 -0.4472139 0.4472134 42 44 47 255 0.080421 0.279781
15.07603 0.835052 0.888663 0.3872984 0.8944272 0.2236069 42 44 47 255 0.080418 0.279749
-11.38099 -0.835052 0.888661 0.7745966 -0.4472136 -0.4472137 42 44 47 255 0.081294 0.279727
-5.690497 -0.835054 10.74489 0.2165063 -0.75 -0.6250001 42 44 47 255 0.081137 0.280012
-5.690497 0.83505 10.74489 0.4330128 0.75 -0.5 42 44 47 255 0.081139 0.279981
-11.38099 0.835052 0.888661 0.3872984 0.8944272 -0.2236067 42 44 47 255 0.081296 0.279695
5.690496 -0.835054 10.74489 -0.4330126 -0.75 -0.5000001 42 44 47 255 0.080751 0.280036
5.690496 0.83505 10.74489 -0.2165064 0.7500001 -0.625 42 44 47 255 0.08075 0.280005
11.38099 -0.835052 0.888663 -0.3872983 -0.8944272 -0.223607 42 44 47 255 0.080544 0.279773
11.38099 0.835052 0.888663 -0.7745967 0.4472136 -0.4472136 42 44 47 255 0.080541 0.279741
-11.2754 16.87169 3e-06 -0.3993321 0.6841214 -0.6103375 42 44 47 255 0.081128 0.279397
-16.04392 3e-06 0 -0.8195556 0.07721184 -0.5677738 42 44 47 255 0.081415 0.27972
-16.04392 2e-06 1.777325 -0.8195558 -0.0772117 0.5677735 42 44 47 255 0.081418 0.279688
-11.2754 16.87169 1.777328 -0.6401632 0.4665603 0.6103381 42 44 47 255 0.081129 0.279364
-11.2754 -16.87168 -3e-06 -0.5772511 -0.6389938 -0.5083977 42 44 47 255 0.081211 0.2801
-11.2754 -16.87168 1.777322 -0.433228 -0.4795662 0.7631054 42 44 47 255 0.081213 0.280069
11.2754 -16.87169 -3e-06 0.4332273 -0.4795659 -0.7631059 42 44 47 255 0.080695 0.280133
16.04392 0 0 0.8195554 -0.07721157 -0.5677739 42 44 47 255 0.080421 0.279781
16.04392 -0 1.777325 0.8195557 0.07721148 0.5677736 42 44 47 255 0.080418 0.279749
11.2754 -16.87169 1.777322 0.5772507 -0.6389944 0.5083973 42 44 47 255 0.080693 0.280102
11.2754 16.87168 3e-06 0.5772511 0.6389939 -0.5083976 42 44 47 255 0.080649 0.279425
11.2754 16.87168 1.777328 0.4332279 0.4795659 0.7631056 42 44 47 255 0.080647 0.279392
-7.426651 17.54823 3e-06 0.8181599 0.3578402 -0.450072 42 44 47 255 0.081078 0.279481
-9.099761 2e-06 0 0.5981541 0.01901015 -0.8011556 42 44 47 255 0.081294 0.279727
-9.099761 2e-06 1.777325 0.5981542 -0.01901019 0.8011556 42 44 47 255 0.081296 0.279695
-7.426651 17.54823 1.777328 0.2921992 0.8438332 0.4500724 42 44 47 255 0.081079 0.279448
-7.426652 -17.54823 -3e-06 0.5234277 -0.5664744 -0.6364983 42 44 47 255 0.081137 0.280012
-7.426652 -17.54823 1.777322 0.6273422 -0.6789351 0.3814301 42 44 47 255 0.081139 0.279981
7.426653 -17.54823 -3e-06 -0.6273428 -0.6789347 -0.38143 42 44 47 255 0.080751 0.280036
9.099761 0 0 -0.5981542 -0.01900988 -0.8011556 42 44 47 255 0.080544 0.279773
9.099761 -0 1.777325 -0.5981542 0.01900988 0.8011556 42 44 47 255 0.080541 0.279741
7.426653 -17.54823 1.777322 -0.5234282 -0.5664745 0.6364979 42 44 47 255 0.08075 0.280005
7.426653 17.54823 3e-06 -0.5234276 0.5664746 -0.6364983 42 44 47 255 0.080714 0.279503
7.426653 17.54823 1.777328 -0.6273423 0.678935 0.3814301 42 44 47 255 0.080712 0.27947
-11.35918 -15.83505 0.888658 -0.6123722 -0.7071073 0.353553 42 44 47 255 0.081415 0.279712
-5.679589 -15.83505 10.726 -0.2499999 -0.8660258 0.433012 42 44 47 255 0.081207 0.2801
-5.679591 -14.16495 10.726 -0.3779647 0.6546533 0.654654 42 44 47 255 0.081209 0.280061
-11.35918 -14.16495 0.888659 -0.6123726 0.7071066 0.3535534 42 44 47 255 0.081418 0.279672
5.679588 -15.83505 10.726 0.4330126 -0.5000005 0.7499998 42 44 47 255 0.080697 0.280133
5.679589 -14.16495 10.726 0.2500001 0.8660253 0.433013 42 44 47 255 0.080695 0.280094
11.35918 -15.83505 0.888659 0.3872981 -0.8944274 0.2236066 42 44 47 255 0.080421 0.279775
11.35918 -14.16495 0.888661 0.6123726 0.7071065 0.3535536 42 44 47 255 0.080418 0.279735
-8.575114 -15.83505 0.888658 0.7745969 -0.4472134 -0.4472135 42 44 47 255 0.081294 0.27972
-4.287558 -15.83505 8.314926 0.2165066 -0.7499996 -0.6250003 42 44 47 255 0.081135 0.280011
-4.287558 -14.16495 8.314927 0.4330128 0.7500002 -0.4999996 42 44 47 255 0.081137 0.279972
-8.575114 -14.16495 0.888659 0.3872983 0.8944273 -0.2236065 42 44 47 255 0.081296 0.27968
4.287557 -15.83505 8.314928 -0.3611577 -0.8340575 -0.4170292 42 44 47 255 0.080752 0.280035
4.287557 -14.16495 8.314929 -0.2165062 0.7500003 -0.6249998 42 44 47 255 0.080751 0.279996
8.575114 -15.83505 0.88866 -0.6123726 -0.7071066 -0.3535534 42 44 47 255 0.080544 0.279767
8.575114 -14.16495 0.888661 -0.7745966 0.4472138 -0.4472134 42 44 47 255 0.080541 0.279727
6.407303 -16.87169 10.20911 0.8774828 -0.4795659 -0.006367235 42 44 47 255 0.080695 0.280133
8.791567 -2e-06 14.33878 0.8429768 -1.401921e-07 0.5379499 42 44 47 255 0.080421 0.279781
7.252357 -2e-06 15.22744 -0.2773241 -2.147906e-07 0.9607764 42 44 47 255 0.080418 0.279749
4.868094 -16.87169 11.09777 -0.1516597 -0.6389944 0.7541125 42 44 47 255 0.080693 0.280102
6.407305 16.87168 10.20912 0.7282345 0.6841207 0.04066334 42 44 47 255 0.080649 0.279425
4.868097 16.87168 11.09778 -0.2084859 0.4665601 0.8595669 42 44 47 255 0.080647 0.279392
4.482931 -17.54823 6.875999 0.01665674 -0.6789346 -0.7340097 42 44 47 255 0.080751 0.280036
5.319485 -1e-06 8.324956 0.3947441 -0.01900984 -0.9185945 42 44 47 255 0.080544 0.279773
3.780276 -2e-06 9.213618 -0.9928982 0.01901005 -0.1174389 42 44 47 255 0.080541 0.279741
2.943722 -17.54823 7.764662 -0.8129376 -0.5664744 -0.1350532 42 44 47 255 0.08075 0.280005
4.482931 17.54823 6.876005 0.2895098 0.5664747 -0.7715508 42 44 47 255 0.080714 0.279503
2.943722 17.54823 7.764668 -0.6439992 0.6789351 -0.3525793 42 44 47 255 0.080712 0.27947
-11.35918 14.16495 0.888663 -0.6123722 -0.7071071 0.3535531 42 44 47 255 0.081414 0.279737
-5.679589 14.16495 10.726 -0.25 -0.8660256 0.4330125 42 44 47 255 0.081208 0.280101
-5.679591 15.83505 10.726 -0.3779647 0.6546533 0.654654 42 44 47 255 0.08121 0.280057
-11.35918 15.83505 0.888664 -0.6123726 0.7071066 0.3535534 42 44 47 255 0.081418 0.279691
5.679588 14.16495 10.726 0.4330126 -0.5000003 0.7499999 42 44 47 255 0.080696 0.280133
5.679589 15.83505 10.726 0.2500001 0.8660253 0.433013 42 44 47 255 0.080694 0.280089
11.35918 14.16495 0.888664 0.3872983 -0.8944272 0.2236067 42 44 47 255 0.080422 0.279795
11.35918 15.83505 0.888666 0.6123726 0.7071065 0.3535536 42 44 47 255 0.080418 0.27975
-8.575114 14.16495 0.888663 0.7745968 -0.4472134 -0.4472136 42 44 47 255 0.081293 0.279744
-4.287558 14.16495 8.314931 0.2165065 -0.7499998 -0.6250002 42 44 47 255 0.081136 0.280017
-4.287558 15.83505 8.314932 0.4330128 0.7500002 -0.4999996 42 44 47 255 0.081137 0.279973
-8.575114 15.83505 0.888664 0.3872983 0.8944273 -0.2236065 42 44 47 255 0.081296 0.279699
4.287557 14.16495 8.314933 -0.3611576 -0.8340576 -0.4170289 42 44 47 255 0.080752 0.28004
4.287557 15.83505 8.314934 -0.2165062 0.7500003 -0.6249998 42 44 47 255 0.080751 0.279996
8.575114 14.16495 0.888665 -0.6123726 -0.7071066 -0.3535535 42 44 47 255 0.080544 0.279788
8.575114 15.83505 0.888666 -0.7745966 0.4472138 -0.4472134 42 44 47 255 0.080541 0.279743
-4.868094 -16.87169 11.09777 0.3289022 -0.684121 0.6510007 42 44 47 255 0.080695 0.280133
-7.252357 -2e-06 15.22744 -0.04438935 -2.226978e-07 0.9990143 42 44 47 255 0.080421 0.279781
-8.791567 -2e-06 14.33878 -0.9707187 -8.584946e-08 0.2402188 42 44 47 255 0.080418 0.279749
-6.407304 -16.87169 10.20911 -0.8486496 -0.4665607 0.2492292 42 44 47 255 0.080693 0.280102
-4.868096 16.87168 11.09778 0.3289019 0.6841205 0.6510013 42 44 47 255 0.080649 0.279425
-6.407306 16.87168 10.20912 -0.8486496 0.4665604 0.2492296 42 44 47 255 0.080647 0.279392
-2.943722 -17.54823 7.764662 0.7988538 -0.3578402 -0.4835112 42 44 47 255 0.080751 0.280036
-3.780276 -2e-06 9.213618 0.9980935 -1.167252e-08 0.06171934 42 44 47 255 0.080544 0.279773
-5.319485 -1e-06 8.324956 -0.2610036 1.676483e-07 -0.9653378 42 44 47 255 0.080541 0.279741
-4.482931 -17.54823 6.875999 -0.2436742 -0.8438334 -0.4780879 42 44 47 255 0.08075 0.280005
-2.943722 17.54823 7.764668 0.7988538 0.3578404 -0.4835109 42 44 47 255 0.080714 0.279503
-4.482931 17.54823 6.876005 -0.2436749 0.8438337 -0.478087 42 44 47 255 0.080712 0.27947
-10.16192 -7.956816 0.88866 -0.4330127 -0.4999998 -0.7500002 42 44 47 255 0.081415 0.279712
-5.080961 -7.956818 9.689143 -0.4330128 -0.5000001 0.7499999 42 44 47 255 0.081207 0.2801
-5.080963 -4.727893 9.689143 -0.327327 0.7559289 0.5669468 42 44 47 255 0.081209 0.280061
-10.16192 -4.727892 0.888661 -0.8660255 0.4999999 0 42 44 47 255 0.081418 0.279672
5.080961 -7.956818 9.689145 0.4330127 -0.4999999 0.7500001 42 44 47 255 0.080697 0.280133
5.080961 -4.727893 9.689144 0.4803844 0.2773502 0.8320503 42 44 47 255 0.080695 0.280094
10.16192 -7.956816 0.888661 0.6546537 -0.7559289 -1.495024e-07 42 44 47 255 0.080421 0.279775
10.16192 -4.727892 0.888662 0.3273269 0.7559291 -0.5669466 42 44 47 255 0.080418 0.279735
3 1 3 0 
3 4 2 1 
3 6 5 4 
3 9 0 8 
3 11 2 10 
3 12 1 9 
3 10 5 13 
3 14 4 12 
3 13 7 15 
3 12 15 14 
3 9 13 12 
3 8 10 9 
3 17 19 16 
3 20 18 17 
3 23 25 22 
3 26 24 23 
3 29 16 28 
3 30 19 18 
3 29 20 17 
3 30 21 33 
3 35 22 34 
3 36 25 24 
3 35 26 23 
3 36 27 39 
3 35 39 38 
3 34 36 35 
3 29 33 32 
3 28 30 29 
3 26 39 27 
3 16 31 28 
3 20 33 21 
3 25 34 22 
3 40 42 43 
3 44 42 41 
3 44 47 45 
3 49 40 48 
3 51 42 50 
3 52 41 49 
3 50 45 53 
3 52 46 44 
3 53 47 55 
3 52 55 54 
3 49 53 52 
3 48 50 49 
3 57 59 56 
3 57 61 58 
3 63 56 62 
3 64 59 58 
3 63 60 57 
3 64 61 67 
3 63 67 66 
3 62 64 63 
3 60 67 61 
3 59 62 56 
3 68 70 71 
3 72 70 69 
3 72 75 73 
3 77 68 76 
3 79 70 78 
3 80 69 77 
3 78 73 81 
3 80 74 72 
3 81 75 83 
3 80 83 82 
3 77 81 80 
3 76 78 77 
3 85 87 84 
3 85 89 86 
3 91 84 90 
3 92 87 86 
3 91 88 85 
3 92 89 95 
3 94 92 95 
3 90 92 91 
3 88 95 89 
3 84 93 90 
3 97 99 96 
3 97 101 98 
3 102 101 100 
3 97 102 100 
3 103 98 101 
3 96 103 102 
3 1 2 3 
3 4 5 2 
3 6 7 5 
3 9 1 0 
3 11 3 2 
3 12 4 1 
3 10 2 5 
3 14 6 4 
3 13 5 7 
3 12 13 15 
3 9 10 13 
3 8 11 10 
3 17 18 19 
3 20 21 18 
3 23 24 25 
3 26 27 24 
3 29 17 16 
3 30 31 19 
3 29 32 20 
3 30 18 21 
3 35 23 22 
3 36 37 25 
3 35 38 26 
3 36 24 27 
3 35 36 39 
3 34 37 36 
3 29 30 33 
3 28 31 30 
3 26 38 39 
3 16 19 31 
3 20 32 33 
3 25 37 34 
3 40 41 42 
3 44 45 42 
3 44 46 47 
3 49 41 40 
3 51 43 42 
3 52 44 41 
3 50 42 45 
3 52 54 46 
3 53 45 47 
3 52 53 55 
3 49 50 53 
3 48 51 50 
3 57 58 59 
3 57 60 61 
3 63 57 56 
3 64 65 59 
3 63 66 60 
3 64 58 61 
3 63 64 67 
3 62 65 64 
3 60 66 67 
3 59 65 62 
3 68 69 70 
3 72 73 70 
3 72 74 75 
3 77 69 68 
3 79 71 70 
3 80 72 69 
3 78 70 73 
3 80 82 74 
3 81 73 75 
3 80 81 83 
3 77 78 81 
3 76 79 78 
3 85 86 87 
3 85 88 89 
3 91 85 84 
3 92 93 87 
3 91 94 88 
3 92 86 89 
3 94 91 92 
3 90 93 92 
3 88 94 95 
3 84 87 93 
3 97 98 99 
3 97 100 101 
3 102 103 101 
3 97 96 102 
3 103 99 98 
3 96 99 103 
