ply
format ascii 1.0
comment INFO-3111 Flatenator generated
comment TextureFile Dungeons_Texture_01.png
element vertex 158
property float x
property float y
property float z
element face 266
property list uchar int vertex_indices
end_header
-1.43614 21.2059 30.1826 
0 20.0025 30.1826 
1.43614 21.2059 30.1826 
0 22.4093 30.1826 
1.43614 21.2059 25.9533 
0 22.4093 25.9533 
0 20.0025 25.9533 
-1.43614 21.2059 25.9533 
-1.43614 9.17453 24.4825 
0 8.12487 23.894 
1.43614 9.17453 24.4825 
0 10.2242 25.071 
1.43614 10.148 22.7462 
0 11.1977 23.3347 
-1.43614 10.148 22.7462 
0 9.09834 22.1577 
-2.23767 6.47855 22.7316 
2.23767 6.47855 22.7316 
2.23767 12.952 26.3367 
-2.23767 12.952 26.3367 
-2.23767 13.4184 24.9653 
2.23767 13.4184 24.9653 
2.23767 6.94494 21.3601 
-2.23767 6.94494 21.3601 
2.23767 19.3295 28.0045 
-2.23767 19.3295 28.0045 
2.23767 19.5492 26.5409 
-2.23767 19.5492 26.5409 
2.23767 26.3193 27.9185 
-2.23767 26.3193 27.9185 
2.23767 26.3658 26.4363 
-2.23767 26.3658 26.4363 
0 27.8499 27.9185 
0 27.8965 26.4363 
-22.3689 6.7223 2e-06 
-18.0969 6.7223 13.1481 
-21.2779 13.4825 15.4593 
-26.3009 13.4825 4e-06 
-6.91238 6.7223 21.2741 
-8.12743 13.4825 25.0137 
6.91238 6.7223 21.2741 
8.12743 13.4825 25.0137 
18.0968 6.7223 13.1481 
21.2779 13.4825 15.4593 
22.3689 6.7223 0 
26.3009 13.4825 2e-06 
-18.5879 13.4825 13.5049 
-22.9759 13.4825 3e-06 
-7.09996 13.4825 21.8514 
7.09996 13.4825 21.8514 
18.5879 13.4825 13.5049 
22.9759 13.4825 2e-06 
-13.7281 6.40748 9.97407 
-16.9689 6.40748 2e-06 
-5.24368 6.40748 16.1384 
5.24368 6.40748 16.1384 
13.7281 6.40748 9.97407 
16.9689 6.40748 1e-06 
0 3.03902 -2e-06 
11.473 2.43952 8.33564 
14.1814 2.43952 -2e-06 
4.38231 2.43952 13.4874 
-4.38231 2.43952 13.4874 
-11.473 2.43952 8.33564 
-14.1814 2.43952 -1e-06 
0 0 -2e-06 
28.2615 21.2059 10.6928 
28.7053 20.0025 9.32693 
29.1491 21.2059 7.96107 
28.7053 22.4093 9.32693 
25.1269 21.2059 6.65416 
24.6831 22.4093 8.02002 
24.6831 20.0025 8.02002 
24.2393 21.2059 9.38587 
22.8404 9.17453 8.93136 
22.7245 8.12487 7.38364 
23.728 9.17453 6.19965 
23.8439 10.2242 7.74737 
22.0767 10.148 5.66312 
22.1927 11.1977 7.21083 
21.1891 10.148 8.39482 
21.0732 9.09834 6.84711 
20.9276 6.47855 9.1526 
22.3105 6.47855 4.8963 
25.7392 12.952 6.01035 
24.3563 12.952 10.2667 
23.0519 13.4184 9.84285 
24.4349 13.4184 5.58654 
21.0062 6.94494 4.47249 
19.6232 6.94494 8.7288 
27.3253 19.3295 6.5257 
25.9423 19.3295 10.782 
25.9334 19.5492 6.07344 
24.5504 19.5492 10.3298 
27.2435 26.3193 6.49913 
25.8606 26.3193 10.7554 
25.8339 26.3658 6.04113 
24.451 26.3658 10.2974 
26.552 27.8499 8.62729 
25.1424 27.8965 8.16928 
-31.1168 23.6935 7e-06 
-25.174 23.6935 18.29 
-23.743 23.6935 17.2503 
-29.3479 23.6935 6e-06 
-9.61563 23.6935 29.5939 
-9.06901 23.6935 27.9115 
9.61563 23.6935 29.5939 
9.06901 23.6935 27.9115 
25.174 23.6935 18.29 
23.743 23.6935 17.2503 
31.1168 23.6935 5e-06 
29.3479 23.6935 5e-06 
-31.1168 18.6361 6e-06 
-25.174 18.6361 18.29 
-23.743 18.6361 17.2503 
-29.3479 18.6361 5e-06 
-9.61563 18.6361 29.5939 
-9.06901 18.6361 27.9115 
9.61563 18.6361 29.5939 
9.06901 18.6361 27.9115 
25.174 18.6361 18.29 
23.743 18.6361 17.2503 
31.1168 18.6361 4e-06 
29.3479 18.6361 4e-06 
-29.1491 21.2059 7.96107 
-28.7053 20.0025 9.32693 
-28.2615 21.2059 10.6928 
-28.7053 22.4093 9.32693 
-24.2393 21.2059 9.38587 
-24.6831 22.4093 8.02002 
-24.6831 20.0025 8.02002 
-25.1269 21.2059 6.65416 
-23.728 9.17453 6.19965 
-22.7245 8.12487 7.38364 
-22.8404 9.17453 8.93136 
-23.8439 10.2242 7.74737 
-21.1891 10.148 8.39482 
-22.1927 11.1977 7.21083 
-22.0767 10.148 5.66312 
-21.0732 9.09834 6.84711 
-22.3105 6.47855 4.8963 
-20.9276 6.47855 9.1526 
-24.3563 12.952 10.2667 
-25.7392 12.952 6.01035 
-24.4349 13.4184 5.58654 
-23.0519 13.4184 9.84285 
-19.6232 6.94494 8.7288 
-21.0062 6.94494 4.47249 
-25.9423 19.3295 10.782 
-27.3253 19.3295 6.5257 
-24.5504 19.5492 10.3298 
-25.9334 19.5492 6.07344 
-25.8606 26.3193 10.7554 
-27.2435 26.3193 6.49913 
-24.451 26.3658 10.2974 
-25.8339 26.3658 6.04113 
-26.552 27.8499 8.62729 
-25.1424 27.8965 8.16928 
3 1 3 0
3 2 5 3
3 5 6 7
3 6 0 7
3 6 2 1
3 0 5 7
3 9 11 8
3 10 13 11
3 15 8 14
3 15 10 9
3 8 13 14
3 17 19 16
3 21 23 20
3 22 16 23
3 17 21 18
3 16 20 23
3 18 25 19
3 18 26 24
3 20 26 21
3 19 27 20
3 24 29 25
3 26 28 24
3 27 30 26
3 27 29 31
3 29 28 32
3 30 32 28
3 30 31 33
3 31 32 33
3 35 37 34
3 38 36 35
3 40 39 38
3 42 41 40
3 44 43 42
3 36 47 37
3 39 46 36
3 41 48 39
3 43 49 41
3 45 50 43
3 47 52 53
3 46 54 52
3 49 54 48
3 50 55 49
3 51 56 50
3 53 52 58
3 52 54 58
3 54 55 58
3 55 56 58
3 56 57 58
3 42 60 44
3 40 59 42
3 38 61 40
3 38 63 62
3 34 63 35
3 60 59 65
3 59 61 65
3 61 62 65
3 62 63 65
3 63 64 65
3 64 58 65
3 58 60 65
3 44 51 45
3 60 57 44
3 34 47 53
3 53 64 34
3 67 69 66
3 68 71 69
3 71 72 73
3 73 67 66
3 72 68 67
3 73 69 71
3 75 77 74
3 77 78 79
3 81 74 80
3 81 76 75
3 74 79 80
3 83 85 82
3 87 89 86
3 89 83 82
3 83 87 84
3 82 86 89
3 84 91 85
3 84 92 90
3 86 92 87
3 85 93 86
3 90 95 91
3 92 94 90
3 93 96 92
3 93 95 97
3 95 94 98
3 96 98 94
3 96 97 99
3 97 98 99
3 101 103 100
3 101 105 102
3 106 105 104
3 106 109 107
3 108 111 109
3 113 100 112
3 115 102 114
3 116 101 113
3 114 105 117
3 118 104 116
3 117 107 119
3 120 106 118
3 119 109 121
3 122 108 120
3 121 111 123
3 120 123 122
3 118 121 120
3 116 119 118
3 116 114 117
3 113 115 114
3 103 112 100
3 122 111 110
3 125 127 124
3 127 128 129
3 129 130 131
3 131 125 124
3 125 128 126
3 131 127 129
3 133 135 132
3 134 137 135
3 139 132 138
3 133 136 134
3 138 135 137
3 140 142 143
3 144 146 147
3 146 140 147
3 141 145 142
3 140 144 147
3 142 149 143
3 142 150 148
3 145 151 150
3 143 151 144
3 149 152 153
3 150 152 148
3 150 155 154
3 151 153 155
3 153 152 156
3 154 156 152
3 154 155 157
3 155 156 157
3 1 2 3
3 2 4 5
3 5 4 6
3 6 1 0
3 6 4 2
3 0 3 5
3 9 10 11
3 10 12 13
3 15 9 8
3 15 12 10
3 8 11 13
3 17 18 19
3 21 22 23
3 22 17 16
3 17 22 21
3 16 19 20
3 18 24 25
3 18 21 26
3 20 27 26
3 19 25 27
3 24 28 29
3 26 30 28
3 27 31 30
3 27 25 29
3 30 33 32
3 31 29 32
3 35 36 37
3 38 39 36
3 40 41 39
3 42 43 41
3 44 45 43
3 36 46 47
3 39 48 46
3 41 49 48
3 43 50 49
3 45 51 50
3 47 46 52
3 46 48 54
3 49 55 54
3 50 56 55
3 51 57 56
3 42 59 60
3 40 61 59
3 38 62 61
3 38 35 63
3 34 64 63
3 64 53 58
3 58 57 60
3 44 57 51
3 34 37 47
3 67 68 69
3 68 70 71
3 71 70 72
3 73 72 67
3 72 70 68
3 73 66 69
3 75 76 77
3 77 76 78
3 81 75 74
3 81 78 76
3 74 77 79
3 83 84 85
3 87 88 89
3 89 88 83
3 83 88 87
3 82 85 86
3 84 90 91
3 84 87 92
3 86 93 92
3 85 91 93
3 90 94 95
3 92 96 94
3 93 97 96
3 93 91 95
3 96 99 98
3 97 95 98
3 101 102 103
3 101 104 105
3 106 107 105
3 106 108 109
3 108 110 111
3 113 101 100
3 115 103 102
3 116 104 101
3 114 102 105
3 118 106 104
3 117 105 107
3 120 108 106
3 119 107 109
3 122 110 108
3 121 109 111
3 120 121 123
3 118 119 121
3 116 117 119
3 116 113 114
3 113 112 115
3 103 115 112
3 122 123 111
3 125 126 127
3 127 126 128
3 129 128 130
3 131 130 125
3 125 130 128
3 131 124 127
3 133 134 135
3 134 136 137
3 139 133 132
3 133 139 136
3 138 132 135
3 140 141 142
3 144 145 146
3 146 141 140
3 141 146 145
3 140 143 144
3 142 148 149
3 142 145 150
3 145 144 151
3 143 149 151
3 149 148 152
3 150 154 152
3 150 151 155
3 151 149 153
3 154 157 156
3 155 153 156
