ply
format ascii 1.0
comment INFO-3111 Flatenator generated
comment TextureFile Dungeons_Texture_01.png
element vertex 58
property float x
property float y
property float z
element face 104
property list uchar int vertex_indices
end_header
15.5439 8e-06 12.9068 
12.9068 7e-06 15.544 
0 -11.4313 2.8297 
2.82971 -11.4313 -2e-06 
-2.82971 -11.4313 -2e-06 
-12.8749 7e-06 15.5758 
-15.5758 8e-06 12.8749 
8.69645 8e-06 11.8256 
0 -7.16991 3.35078 
3.35078 -7.16991 -1e-06 
11.8428 9e-06 8.67919 
-9.15496 1.6e-05 12.429 
-12.3774 1.7e-05 9.20655 
-3.35078 -7.16991 -1e-06 
0 -13.6517 2.8297 
2.82971 -13.6517 -2e-06 
-2.82971 -13.6517 -2e-06 
0 -22.8112 -4e-06 
13.3593 2.49867 19.0283 
13.3593 -0.114391 19.0283 
19.0283 -0.11439 13.3593 
19.0283 2.49867 13.3593 
-19.0283 2.49867 13.3593 
-19.0283 -0.11439 13.3593 
-13.3593 -0.114391 19.0283 
-13.3593 2.49867 19.0283 
-5.45386 -0.11439 14.3362 
5.45386 -0.11439 14.3362 
5.45386 2.49867 14.3362 
-5.45386 2.49867 14.3362 
14.3362 -0.114389 4.91329 
14.3362 2.49867 4.91329 
-14.3362 2.49867 4.91329 
-14.3362 -0.114389 4.91329 
3.87962 2.49867 11.1192 
-4.06671 2.49867 10.9321 
11.1192 2.49867 3.87962 
-10.9321 2.49867 4.06671 
3.87962 -0.11439 11.1192 
11.1192 -0.114389 3.87962 
-4.06671 -0.11439 10.9321 
-10.9321 -0.114389 4.06671 
3.29605 -2.33861 3.28661 
-3.13993 -2.33861 3.34121 
-3.14029 -4.18884 3.34121 
3.29641 -4.18884 3.2866 
-3.21795 -2.33861 0 
-11.0257 2.49867 0 
3.21802 -2.33861 0 
11.0257 2.49867 0 
14.3362 2.49867 0 
14.3362 -0.114388 0 
11.0257 -0.114388 0 
3.2182 -4.18883 -1e-06 
-3.21813 -4.18883 -1e-06 
-11.0257 -0.114388 0 
-14.3362 -0.114388 0 
-14.3362 2.49867 0 
3 0 2 3
3 2 6 4
3 7 2 1
3 10 3 9
3 11 2 8
3 12 4 6
3 8 12 11
3 7 9 8
3 9 13 8
3 2 15 3
3 4 14 2
3 15 14 17
3 14 16 17
3 16 15 17
3 4 9 3
3 4 15 16
3 19 21 18
3 23 25 22
3 27 29 26
3 27 18 28
3 27 20 19
3 31 20 30
3 28 21 31
3 33 22 32
3 26 23 33
3 29 24 26
3 29 22 25
3 29 34 35
3 28 36 34
3 29 37 32
3 27 39 30
3 26 38 27
3 26 41 40
3 34 43 35
3 38 44 45
3 43 47 37
3 48 43 42
3 49 42 36
3 50 36 31
3 51 31 30
3 51 39 52
3 52 45 53
3 44 53 45
3 55 44 41
3 56 41 33
3 57 33 32
3 57 37 47
3 47 56 57
3 46 55 47
3 48 54 46
3 48 52 53
3 50 52 49
3 43 37 35
3 44 40 41
3 42 34 36
3 45 39 38
3 0 1 2
3 2 5 6
3 7 8 2
3 10 0 3
3 11 5 2
3 12 13 4
3 8 13 12
3 7 10 9
3 2 14 15
3 4 16 14
3 4 13 9
3 4 3 15
3 19 20 21
3 23 24 25
3 27 28 29
3 27 19 18
3 27 30 20
3 31 21 20
3 28 18 21
3 33 23 22
3 26 24 23
3 29 25 24
3 29 32 22
3 29 28 34
3 28 31 36
3 29 35 37
3 27 38 39
3 26 40 38
3 26 33 41
3 34 42 43
3 38 40 44
3 43 46 47
3 48 46 43
3 49 48 42
3 50 49 36
3 51 50 31
3 51 30 39
3 52 39 45
3 44 54 53
3 55 54 44
3 56 55 41
3 57 56 33
3 57 32 37
3 47 55 56
3 46 54 55
3 48 53 54
3 48 49 52
3 50 51 52
