ply
format ascii 1.0
comment INFO-3111 Flatenator generated
comment TextureFile Dungeons_Texture_01.png
element vertex 103
property float x
property float y
property float z
property float nx
property float ny
property float nz
property float texture_u
property float texture_v
element face 184
property list uchar int vertex_indices
end_header
31.0682 -1e-06 4.04412 0.408248 -0.408249 0.816496 0.080404 0.280996 
31.0682 1e-06 -4.04412 0.57735 -0.57735 -0.57735 0.08033 0.281045 
31.0682 4.6222 -4.04412 0.731165 0.455757 -0.507626 0.080331 0.280968 
31.0682 4.6222 4.04412 0.814046 0.50742 0.282584 0.080405 0.28092 
22.98 8.58926 -4.04412 0.391245 0.390256 -0.833443 0.080208 0.28087 
22.98 8.58926 4.04412 0.507227 0.2193 0.833444 0.080284 0.280826 
18.6555 1e-06 -4.04412 -0.408248 -0.408248 -0.816497 0.080143 0.280995 
18.6555 -1e-06 4.04412 -0.57735 -0.57735 0.57735 0.08022 0.280949 
21.6243 26.0664 4.04413 0.70613 0.00231789 0.708079 0.080266 0.280531 
21.6243 26.0664 -4.04411 0.89393 0.00293454 -0.448198 0.080188 0.280568 
22.98 45.1693 -4.04411 0.668225 -0.215066 -0.712195 0.08021 0.28023 
22.98 45.1693 4.04413 0.689317 -0.132742 0.712195 0.08029 0.280201 
18.6555 26.0664 -4.04411 -0.6 1.21842e-07 -0.8 0.080142 0.280558 
18.6555 47.5078 -4.04411 -0.707107 1.40462e-07 -0.707107 0.080142 0.280177 
18.6555 26.0664 4.04413 -0.6 -1.33774e-07 0.8 0.080222 0.280522 
18.6555 47.5078 4.04413 -0.447214 -1.71208e-07 0.894427 0.080223 0.28015 
27.1533 54.2506 -4.04411 0.64251 -0.295265 -0.707107 0.080278 0.280069 
27.1533 54.2506 4.04413 0.812717 -0.373484 0.447214 0.080358 0.280045 
-12.0318 5e-06 -28.9279 0.502983 -0.408248 -0.761802 0.080404 0.280996 
-19.0364 4e-06 -24.8838 -0.788675 -0.57735 -0.211325 0.08033 0.281045 
-19.0364 4.6222 -24.8838 -0.648395 0.644538 -0.405161 0.080331 0.280968 
-12.0318 4.6222 -28.9279 -0.127122 0.322269 -0.938074 0.080405 0.28092 
-14.9923 8.58927 -17.8792 -0.975397 0.2193 -0.0225502 0.080208 0.28087 
-7.9877 8.58927 -21.9233 0.526161 0.390256 -0.755549 0.080284 0.280826 
-12.8301 2e-06 -14.1341 -0.244017 -0.333333 0.910684 0.080143 0.280995 
-5.82545 3e-06 -18.1782 0.744017 -0.666667 -0.0446584 0.08022 0.280949 
-7.30982 26.0664 -20.7492 0.065649 0.0233057 -0.997571 0.080266 0.280531 
-14.3144 26.0664 -16.7051 -0.896814 -0.0178485 -0.442049 0.080188 0.280568 
-14.9923 45.1693 -17.8792 -0.950892 -0.215066 -0.222602 0.08021 0.28023 
-7.9877 45.1693 -21.9233 0.272121 -0.132742 -0.953063 0.08029 0.280201 
-12.8301 26.0664 -14.1341 -0.39282 -1.54033e-07 0.919615 0.080142 0.280558 
-12.8301 47.5078 -14.1341 -0.55099 -1.97826e-07 0.834512 0.080142 0.280177 
-5.82545 26.0664 -18.1782 0.99282 -5.79532e-09 0.119615 0.080222 0.280522 
-5.82545 47.5078 -18.1782 0.965926 -8.40694e-08 0.258819 0.080223 0.28015 
-17.079 54.2506 -21.4934 -0.933627 -0.295265 -0.202876 0.080278 0.280069 
-10.0744 54.2506 -25.5375 -0.0190601 -0.373483 -0.927441 0.080358 0.280045 
-19.0364 -4e-06 24.8838 -0.911231 -0.408248 -0.054695 0.080404 0.280996 
-12.0318 -5e-06 28.9279 0.211325 -0.57735 0.788675 0.08033 0.281045 
-12.0318 4.62219 28.9279 0.0740347 0.455757 0.88702 0.080331 0.280968 
-19.0364 4.6222 24.8838 -0.651748 0.50742 0.563693 0.080405 0.28092 
-7.9877 8.58926 21.9233 0.382554 0.36813 0.847427 0.080208 0.28087 
-14.9923 8.58926 17.8792 -0.959169 0.223617 -0.173179 0.080284 0.280826 
-5.82545 -3e-06 18.1782 0.911231 -0.408248 0.0546947 0.080143 0.280995 
-12.8301 -2e-06 14.1341 -0.211325 -0.57735 -0.788675 0.08022 0.280949 
-14.3145 26.0664 16.7051 -0.896746 0.0233054 0.441931 0.080266 0.280531 
-7.30983 26.0664 20.7492 0.0655812 -0.0178488 0.997688 0.080188 0.280568 
-7.9877 45.1693 21.9233 0.282667 -0.215066 0.934797 0.08021 0.28023 
-14.9923 45.1693 17.8792 -0.961438 -0.132742 0.240868 0.08029 0.280201 
-5.82546 26.0664 18.1782 0.99282 1.36989e-08 -0.119616 0.080142 0.280558 
-5.82545 47.5078 18.1782 0.965926 -6.97182e-09 -0.258819 0.080142 0.280177 
-12.8301 26.0664 14.1341 -0.39282 1.41732e-07 -0.919615 0.080222 0.280522 
-12.8301 47.5078 14.1341 -0.55099 1.5218e-07 -0.834512 0.080223 0.28015 
-10.0744 54.2506 25.5375 0.291117 -0.295265 0.909983 0.080278 0.280069 
-17.079 54.2506 21.4934 -0.793657 -0.373484 0.480227 0.080358 0.280045 
14.2863 4e-06 -24.7445 0.474289 0.316545 -0.821492 0.080414 0.280687 
-14.2863 4e-06 -24.7445 -0.296046 -0.426606 -0.854613 0.080877 0.280693 
-10 7.46899 -17.3205 -0.225474 0.938817 -0.260355 0.08081 0.280623 
10 7.46899 -17.3205 0.227071 0.89093 -0.393298 0.080475 0.280618 
-28.5725 0 -3e-06 -0.844212 0.510793 -0.162469 0.081136 0.280859 
-20 7.46899 -1e-06 -0.338211 0.938817 0.0650889 0.080988 0.280736 
-14.2863 -4e-06 24.7445 -0.592093 -0.426606 0.68369 0.080893 0.281045 
-10 7.46899 17.3205 -0.112737 0.938816 0.325444 0.080813 0.280856 
14.2863 -4e-06 24.7445 0.401781 0.59522 0.695906 0.080351 0.281036 
10 7.46899 17.3205 0.134172 0.963323 0.232394 0.080439 0.280851 
28.5725 0 1e-06 0.88814 -0.426606 -0.170923 0.080136 0.280844 
20 7.46899 2e-06 0.28808 0.956 0.0554412 0.080282 0.280726 
8.15493 7.46899 -14.1248 -0.34067 0.853933 0.393372 0.080503 0.280638 
-8.15493 7.46899 -14.1248 0.354667 0.704872 0.614302 0.080779 0.280642 
-7.98114 4.63867 -13.8237 0.355166 0.703867 0.615166 0.080776 0.280644 
7.98115 4.63867 -13.8237 -0.284548 0.591716 0.754258 0.080506 0.28064 
-16.3099 7.46899 -1e-06 0.610196 0.783499 -0.117432 0.080923 0.280735 
-15.9623 4.63866 -1e-06 0.79548 0.591716 0.130704 0.080917 0.280735 
-8.15493 7.46899 14.1248 0.203399 0.783499 -0.587161 0.080779 0.280832 
-7.98115 4.63866 13.8237 0.510933 0.591716 -0.623554 0.080775 0.28083 
8.15493 7.46899 14.1248 -0.236312 0.881264 -0.409305 0.080477 0.280828 
7.98114 4.63866 13.8237 -0.427561 0.518426 -0.740558 0.080481 0.280825 
16.3099 7.46899 2e-06 -0.736901 0.660958 -0.141817 0.080347 0.280727 
15.9623 4.63866 2e-06 -0.79548 0.591716 0.130704 0.080353 0.280727 
1e-06 0.985783 0 -1.28439e-08 1 1.92658e-07 0.080634 0.280836 
15.1518 54.9767 26.2436 0.21871 0.899258 0.378816 0.080414 0.280687 
-15.1518 54.9767 26.2436 -0.290745 0.459376 0.83931 0.080877 0.280693 
-10.2358 45.1693 17.7289 -0.158593 -0.977047 -0.142225 0.08081 0.280623 
10.2358 45.1693 17.7289 -0.025149 -0.989412 0.14294 0.080475 0.280618 
-30.3035 54.9767 1.5e-05 -0.872236 0.459376 0.167862 0.081136 0.280859 
-20.4716 45.1693 9e-06 0.200283 -0.975917 -0.0864414 0.080988 0.280736 
-15.1518 54.9767 -26.2436 -0.581491 0.459376 -0.671448 0.080893 0.281045 
-10.2358 45.1693 -17.7289 0.0149524 -0.998956 0.0431635 0.080813 0.280856 
15.1518 54.9767 -26.2436 0.290745 0.459376 -0.83931 0.080351 0.281036 
10.2358 45.1693 -17.7289 0.188033 -0.978164 -0.0885396 0.080439 0.280851 
30.3035 54.9767 3e-06 0.972846 -0.231455 -2.34118e-07 0.080136 0.280844 
20.4716 45.1693 5e-06 -0.258673 -0.957282 0.129223 0.080282 0.280726 
13.2711 54.9767 22.9863 -0.17724 0.935064 -0.306988 0.080414 0.280687 
9.28946 47.5078 16.0898 -0.413359 0.206842 -0.886764 0.080475 0.280618 
-9.28945 47.5078 16.0898 0.652761 0.0759889 -0.753744 0.08081 0.280623 
-13.2711 54.9767 22.9863 0.117886 0.932895 -0.340307 0.080877 0.280693 
-18.5789 47.5078 1e-05 0.997002 0.0773745 -1.10421e-08 0.080988 0.280736 
-26.5423 54.9767 1.2e-05 0.406903 0.913471 8.04162e-08 0.081136 0.280859 
-9.28945 47.5078 -16.0898 0.652761 0.0759883 0.753743 0.080813 0.280856 
-13.2711 54.9767 -22.9863 0.117886 0.932895 0.340307 0.080893 0.281045 
9.28945 47.5078 -16.0898 -0.431022 -0.0546964 0.900682 0.080439 0.280851 
13.2711 54.9767 -22.9863 -0.235772 0.932895 0.272246 0.080351 0.281036 
18.5789 47.5078 7e-06 -0.996948 0.0773702 -0.0103948 0.080282 0.280726 
26.5423 54.9767 8e-06 -0.301052 0.951846 -0.0579373 0.080136 0.280844 
3 1 3 0
3 3 4 5
3 1 4 2
3 7 1 0
3 5 0 3
3 9 11 8
3 12 10 9
3 14 13 12
3 14 11 15
3 5 9 8
3 4 12 9
3 7 12 6
3 5 14 7
3 10 17 11
3 10 13 16
3 15 11 17
3 19 21 18
3 20 23 21
3 19 22 20
3 25 19 18
3 23 18 21
3 27 29 26
3 30 28 27
3 30 33 31
3 32 29 33
3 22 26 23
3 22 30 27
3 24 32 30
3 23 32 25
3 28 35 29
3 28 31 34
3 33 29 35
3 37 39 36
3 39 40 41
3 37 40 38
3 43 37 36
3 41 36 39
3 45 47 44
3 48 46 45
3 50 49 48
3 50 47 51
3 40 44 41
3 40 48 45
3 43 48 42
3 41 50 43
3 46 53 47
3 46 49 52
3 51 47 53
3 55 57 54
3 58 56 55
3 60 59 58
3 62 61 60
3 62 65 63
3 64 57 65
3 64 60 55
3 67 69 66
3 67 71 68
3 70 73 71
3 72 75 73
3 76 75 74
3 66 77 76
3 69 68 78
3 68 71 78
3 71 73 78
3 73 75 78
3 75 77 78
3 77 69 78
3 56 66 57
3 59 67 56
3 61 70 59
3 63 72 61
3 65 74 63
3 65 66 76
3 80 82 79
3 83 81 80
3 85 84 83
3 87 86 85
3 89 88 87
3 89 82 90
3 92 94 91
3 93 96 94
3 96 97 98
3 98 99 100
3 100 101 102
3 102 92 91
3 94 79 91
3 92 81 93
3 96 80 94
3 93 84 95
3 98 83 96
3 97 84 86
3 100 85 98
3 99 86 88
3 102 87 100
3 99 90 101
3 102 79 89
3 101 82 92
3 1 2 3
3 3 2 4
3 1 6 4
3 7 6 1
3 5 7 0
3 9 10 11
3 12 13 10
3 14 15 13
3 14 8 11
3 5 4 9
3 4 6 12
3 7 14 12
3 5 8 14
3 10 16 17
3 19 20 21
3 20 22 23
3 19 24 22
3 25 24 19
3 23 25 18
3 27 28 29
3 30 31 28
3 30 32 33
3 32 26 29
3 22 27 26
3 22 24 30
3 24 25 32
3 23 26 32
3 28 34 35
3 37 38 39
3 39 38 40
3 37 42 40
3 43 42 37
3 41 43 36
3 45 46 47
3 48 49 46
3 50 51 49
3 50 44 47
3 40 45 44
3 40 42 48
3 43 50 48
3 41 44 50
3 46 52 53
3 55 56 57
3 58 59 56
3 60 61 59
3 62 63 61
3 62 64 65
3 64 54 57
3 55 54 64
3 64 62 60
3 60 58 55
3 67 68 69
3 67 70 71
3 70 72 73
3 72 74 75
3 76 77 75
3 66 69 77
3 56 67 66
3 59 70 67
3 61 72 70
3 63 74 72
3 65 76 74
3 65 57 66
3 80 81 82
3 83 84 81
3 85 86 84
3 87 88 86
3 89 90 88
3 89 79 82
3 92 93 94
3 93 95 96
3 96 95 97
3 98 97 99
3 100 99 101
3 102 101 92
3 94 80 79
3 92 82 81
3 96 83 80
3 93 81 84
3 98 85 83
3 97 95 84
3 100 87 85
3 99 97 86
3 102 89 87
3 99 88 90
3 102 91 79
3 101 90 82
