ply
format ascii 1.0
comment INFO-3111 Flatenator generated
comment TextureFile Dungeons_Texture_01.png
element vertex 104
property float x
property float y
property float z
element face 164
property list uchar int vertex_indices
end_header
-15.076 -0.835052 0.88866 
-7.53802 -0.835054 13.9449 
-7.53802 0.83505 13.9449 
-15.076 0.835052 0.888661 
7.53802 -0.835054 13.9449 
7.53802 0.83505 13.9449 
15.076 -0.835052 0.888662 
15.076 0.835052 0.888663 
-11.381 -0.835052 0.888661 
-5.6905 -0.835054 10.7449 
-5.6905 0.83505 10.7449 
-11.381 0.835052 0.888661 
5.6905 -0.835054 10.7449 
5.6905 0.83505 10.7449 
11.381 -0.835052 0.888663 
11.381 0.835052 0.888663 
-11.2754 16.8717 3e-06 
-16.0439 3e-06 0 
-16.0439 2e-06 1.77733 
-11.2754 16.8717 1.77733 
-11.2754 -16.8717 -3e-06 
-11.2754 -16.8717 1.77732 
11.2754 -16.8717 -3e-06 
16.0439 0 0 
16.0439 0 1.77733 
11.2754 -16.8717 1.77732 
11.2754 16.8717 3e-06 
11.2754 16.8717 1.77733 
-7.42665 17.5482 3e-06 
-9.09976 2e-06 0 
-9.09976 2e-06 1.77733 
-7.42665 17.5482 1.77733 
-7.42665 -17.5482 -3e-06 
-7.42665 -17.5482 1.77732 
7.42665 -17.5482 -3e-06 
9.09976 0 0 
9.09976 0 1.77733 
7.42665 -17.5482 1.77732 
7.42665 17.5482 3e-06 
7.42665 17.5482 1.77733 
-11.3592 -15.835 0.888658 
-5.67959 -15.835 10.726 
-5.67959 -14.165 10.726 
-11.3592 -14.165 0.888659 
5.67959 -15.835 10.726 
5.67959 -14.165 10.726 
11.3592 -15.835 0.888659 
11.3592 -14.165 0.888661 
-8.57511 -15.835 0.888658 
-4.28756 -15.835 8.31493 
-4.28756 -14.165 8.31493 
-8.57511 -14.165 0.888659 
4.28756 -15.835 8.31493 
4.28756 -14.165 8.31493 
8.57511 -15.835 0.88866 
8.57511 -14.165 0.888661 
6.4073 -16.8717 10.2091 
8.79157 -2e-06 14.3388 
7.25236 -2e-06 15.2274 
4.86809 -16.8717 11.0978 
6.4073 16.8717 10.2091 
4.8681 16.8717 11.0978 
4.48293 -17.5482 6.876 
5.31949 -1e-06 8.32496 
3.78028 -2e-06 9.21362 
2.94372 -17.5482 7.76466 
4.48293 17.5482 6.87601 
2.94372 17.5482 7.76467 
-11.3592 14.165 0.888663 
-5.67959 14.165 10.726 
-5.67959 15.835 10.726 
-11.3592 15.835 0.888664 
5.67959 14.165 10.726 
5.67959 15.835 10.726 
11.3592 14.165 0.888664 
11.3592 15.835 0.888666 
-8.57511 14.165 0.888663 
-4.28756 14.165 8.31493 
-4.28756 15.835 8.31493 
-8.57511 15.835 0.888664 
4.28756 14.165 8.31493 
4.28756 15.835 8.31493 
8.57511 14.165 0.888665 
8.57511 15.835 0.888666 
-4.86809 -16.8717 11.0978 
-7.25236 -2e-06 15.2274 
-8.79157 -2e-06 14.3388 
-6.4073 -16.8717 10.2091 
-4.8681 16.8717 11.0978 
-6.40731 16.8717 10.2091 
-2.94372 -17.5482 7.76466 
-3.78028 -2e-06 9.21362 
-5.31949 -1e-06 8.32496 
-4.48293 -17.5482 6.876 
-2.94372 17.5482 7.76467 
-4.48293 17.5482 6.87601 
-10.1619 -7.95682 0.88866 
-5.08096 -7.95682 9.68914 
-5.08096 -4.72789 9.68914 
-10.1619 -4.72789 0.888661 
5.08096 -7.95682 9.68915 
5.08096 -4.72789 9.68914 
10.1619 -7.95682 0.888661 
10.1619 -4.72789 0.888662 
3 1 3 0
3 4 2 1
3 6 5 4
3 9 0 8
3 11 2 10
3 12 1 9
3 10 5 13
3 14 4 12
3 13 7 15
3 12 15 14
3 9 13 12
3 8 10 9
3 17 19 16
3 20 18 17
3 23 25 22
3 26 24 23
3 29 16 28
3 30 19 18
3 29 20 17
3 30 21 33
3 35 22 34
3 36 25 24
3 35 26 23
3 36 27 39
3 35 39 38
3 34 36 35
3 29 33 32
3 28 30 29
3 26 39 27
3 16 31 28
3 20 33 21
3 25 34 22
3 40 42 43
3 44 42 41
3 44 47 45
3 49 40 48
3 51 42 50
3 52 41 49
3 50 45 53
3 52 46 44
3 53 47 55
3 52 55 54
3 49 53 52
3 48 50 49
3 57 59 56
3 57 61 58
3 63 56 62
3 64 59 58
3 63 60 57
3 64 61 67
3 63 67 66
3 62 64 63
3 60 67 61
3 59 62 56
3 68 70 71
3 72 70 69
3 72 75 73
3 77 68 76
3 79 70 78
3 80 69 77
3 78 73 81
3 80 74 72
3 81 75 83
3 80 83 82
3 77 81 80
3 76 78 77
3 85 87 84
3 85 89 86
3 91 84 90
3 92 87 86
3 91 88 85
3 92 89 95
3 94 92 95
3 90 92 91
3 88 95 89
3 84 93 90
3 97 99 96
3 97 101 98
3 102 101 100
3 97 102 100
3 103 98 101
3 96 103 102
3 1 2 3
3 4 5 2
3 6 7 5
3 9 1 0
3 11 3 2
3 12 4 1
3 10 2 5
3 14 6 4
3 13 5 7
3 12 13 15
3 9 10 13
3 8 11 10
3 17 18 19
3 20 21 18
3 23 24 25
3 26 27 24
3 29 17 16
3 30 31 19
3 29 32 20
3 30 18 21
3 35 23 22
3 36 37 25
3 35 38 26
3 36 24 27
3 35 36 39
3 34 37 36
3 29 30 33
3 28 31 30
3 26 38 39
3 16 19 31
3 20 32 33
3 25 37 34
3 40 41 42
3 44 45 42
3 44 46 47
3 49 41 40
3 51 43 42
3 52 44 41
3 50 42 45
3 52 54 46
3 53 45 47
3 52 53 55
3 49 50 53
3 48 51 50
3 57 58 59
3 57 60 61
3 63 57 56
3 64 65 59
3 63 66 60
3 64 58 61
3 63 64 67
3 62 65 64
3 60 66 67
3 59 65 62
3 68 69 70
3 72 73 70
3 72 74 75
3 77 69 68
3 79 71 70
3 80 72 69
3 78 70 73
3 80 82 74
3 81 73 75
3 80 81 83
3 77 78 81
3 76 79 78
3 85 86 87
3 85 88 89
3 91 85 84
3 92 93 87
3 91 94 88
3 92 86 89
3 94 91 92
3 90 93 92
3 88 94 95
3 84 87 93
3 97 98 99
3 97 100 101
3 102 103 101
3 97 96 102
3 103 99 98
3 96 99 103
