ply
format ascii 1.0
comment INFO-3111 Flatenator generated
comment TextureFile Dungeons_Texture_01.png
element vertex 89
property float x
property float y
property float z
element face 114
property list uchar int vertex_indices
end_header
-22.5934 0.853051 15.358 
-22.5934 0.85305 22.5306 
-22.3856 7.30156 22.1073 
-22.5934 7.30156 15.358 
-15.358 -0.941115 15.358 
-15.358 0.85305 22.5306 
-15.358 7.30156 22.5306 
-20.5293 7.30156 15.358 
-15.358 7.30156 20.4885 
-20.3934 9.50156 17.5579 
-20.3934 9.50156 20.3306 
-17.5579 9.50156 20.3306 
6.01805 6.24235 21.6959 
-2.15019 1.87398 21.6959 
21.6959 1.35014 21.6959 
21.6959 6.76618 21.6959 
-9.47256 -1.66499 9.47256 
9.47256 -1.66499 9.47256 
9.47256 -1.66499 0 
-9.47256 -1.66499 0 
21.6959 1.35014 0 
21.6959 6.76619 1e-06 
-21.6959 1.35014 0 
-21.6959 1.35014 21.6959 
-21.6959 6.76618 21.6959 
-21.6959 6.76619 1e-06 
-15.358 -0.712635 15.358 
15.358 -0.712635 15.358 
-15.358 -0.712632 0 
15.358 -0.712632 0 
14.2386 -5.82015 14.2386 
14.2386 -5.82015 -1e-06 
-14.3933 -5.11441 14.3933 
-14.2386 -5.82015 -1e-06 
11.9355 -10.0506 -2e-06 
12.127 -9.52819 12.127 
5.47805 -11.0732 5.47805 
5.47805 -11.0732 -2e-06 
-11.9355 -10.0507 11.9355 
-5.47805 -11.0732 5.47805 
-11.9355 -10.0506 -2e-06 
-5.47805 -11.0732 -2e-06 
0 -19.1264 -3e-06 
14.8487 6.76619 14.8487 
14.8487 6.76619 1e-06 
-14.8487 6.76619 14.8487 
-14.8487 6.76619 1e-06 
-13.3077 -6.30672 -1e-06 
-13.3077 -6.30673 13.3077 
13.3077 -6.30673 13.3077 
13.3077 -6.30672 -1e-06 
15.358 0.85305 22.5934 
22.3607 0.533827 22.4961 
22.5306 7.30156 22.5934 
15.358 7.30156 22.5934 
15.358 -0.941115 15.358 
22.5306 0.853051 15.358 
22.5306 7.30156 15.358 
15.358 7.30156 20.5293 
20.4885 7.30156 15.358 
17.5579 9.50156 20.3934 
20.3306 9.50156 20.3934 
20.3306 9.50156 17.5579 
15.358 -0.712635 15.358 
-15.358 -0.712635 15.358 
5.47805 -11.0732 -2e-06 
5.47805 -11.0732 5.47805 
-5.47805 -11.0732 5.47805 
-13.3077 -6.30673 13.3077 
-13.3077 -6.30672 -1e-06 
-14.8487 6.76619 1e-06 
-21.6959 1.35014 0 
-21.6959 6.76619 1e-06 
-9.47256 -1.66499 0 
-15.358 -0.712632 0 
15.358 -0.712632 0 
21.6959 1.35014 0 
-13.3077 -6.30672 -1e-06 
13.3077 -6.30672 -1e-06 
5.47805 -11.0732 -2e-06 
11.9355 -10.0506 -2e-06 
-5.47805 -11.0732 -2e-06 
13.3077 -6.30672 -1e-06 
-11.9355 -10.0506 -2e-06 
9.47256 -1.66499 0 
-15.358 -0.712632 0 
-5.47805 -11.0732 -2e-06 
15.358 -0.712632 0 
13.3077 -6.30673 13.3077 
3 0 2 3
3 4 1 0
3 5 2 1
3 4 7 8
3 4 5 1
3 8 5 4
3 0 7 4
3 9 10 11
3 6 8 11
3 7 11 8
3 7 3 9
3 2 9 3
3 2 11 10
3 12 14 15
3 17 19 16
3 20 15 14
3 23 25 22
3 13 27 14
3 22 26 23
3 29 30 31
3 63 32 30
3 28 32 64
3 34 36 37
3 38 36 35
3 40 39 38
3 65 66 42
3 66 67 42
3 67 41 42
3 43 12 15
3 21 43 15
3 25 45 46
3 43 16 45
3 44 17 43
3 46 16 19
3 27 20 14
3 47 38 48
3 35 48 38
3 50 35 34
3 49 31 30
3 49 32 68
3 68 33 69
3 28 69 33
3 42 41 65
3 70 71 72
3 73 74 70
3 75 18 44
3 44 76 75
3 77 18 78
3 78 18 75
3 79 78 80
3 81 78 79
3 82 29 31
3 73 77 74
3 77 81 83
3 51 53 54
3 55 52 51
3 56 53 52
3 55 58 59
3 55 56 52
3 59 56 55
3 51 58 55
3 60 61 62
3 57 59 62
3 58 62 59
3 58 54 60
3 54 61 60
3 57 61 53
3 12 45 24
3 13 24 23
3 26 13 23
3 0 1 2
3 5 6 2
3 8 6 5
3 0 3 7
3 7 9 11
3 2 10 9
3 2 6 11
3 12 13 14
3 17 84 19
3 20 21 15
3 23 24 25
3 13 26 27
3 22 85 26
3 29 63 30
3 63 64 32
3 28 33 32
3 34 35 36
3 38 39 36
3 40 86 39
3 21 44 43
3 25 24 45
3 43 17 16
3 44 84 17
3 46 45 16
3 27 87 20
3 47 40 38
3 35 88 48
3 50 88 35
3 49 82 31
3 49 30 32
3 68 32 33
3 70 74 71
3 44 21 76
3 77 73 18
3 81 77 78
3 51 52 53
3 56 57 53
3 59 57 56
3 51 54 58
3 58 60 62
3 54 53 61
3 57 62 61
3 12 43 45
3 13 12 24
