ply
format ascii 1.0
comment INFO-3111 Flatenator generated
comment TextureFile Dungeons_Texture_01.png
element vertex 327
property float x
property float y
property float z
property float nx
property float ny
property float nz
property uchar red
property uchar green
property uchar blue
property uchar alpha
property float texture_u
property float texture_v
element face 366
property list uchar int vertex_indices
end_header
27.2178 52.9905 19.8121 0.923243 0.00934496 0.384103 156 78 63 255 0.085903 0.820789 
19.7045 56.9651 27.2178 0.381011 -0.00372569 0.924563 156 78 63 255 0.085881 0.820786 
20.8687 34.524 27.2178 0.301683 0.135211 0.943772 156 78 63 255 0.085881 0.821189 
27.2178 34.524 20.8687 0.912955 0.231855 0.335792 156 78 63 255 0.085903 0.821188 
27.2178 34.524 -20.8687 0.964565 0.150819 -0.21649 156 78 63 255 0.086046 0.821188 
20.8687 34.524 -27.2178 0.358144 0.157479 -0.92029 156 78 63 255 0.08607 0.821189 
20.0429 61.3645 -27.2178 0.387021 -0.00581196 -0.922053 156 78 63 255 0.08607 0.820787 
27.2178 55.1598 -19.8121 0.92573 0.00565634 -0.378142 156 78 63 255 0.086047 0.820788 
-27.2178 34.524 20.8687 -0.943438 0.133761 0.303369 156 78 63 255 0.085904 0.821199 
-20.8687 34.524 27.2178 -0.337656 0.228616 0.913084 156 78 63 255 0.08588 0.821197 
-19.7045 53.2504 27.2178 -0.39044 0.00945468 0.92058 156 78 63 255 0.08588 0.820775 
-27.2178 65.4044 19.2288 -0.927249 -0.0105567 0.374296 156 78 63 255 0.085904 0.820773 
-20.8687 34.524 -27.2178 -0.375593 0.127721 -0.917942 156 78 63 255 0.086078 0.821197 
-27.2178 34.524 -20.8687 -0.916274 0.187325 -0.354049 156 78 63 255 0.086057 0.821198 
-27.2178 61.3497 -19.2288 -0.929039 0.00135166 -0.369978 156 78 63 255 0.086057 0.820773 
-20.0429 69.3208 -27.2178 -0.394795 -0.0143963 -0.918657 156 78 63 255 0.086079 0.820776 
27.2178 85.9251 27.2178 0.701217 -0.128805 0.701217 156 78 63 255 0.085881 0.820403 
20.8687 82.6838 27.2178 0.257462 -0.19362 0.946691 156 78 63 255 0.085881 0.820432 
27.2178 82.6838 20.8687 0.943931 -0.140942 0.298547 156 78 63 255 0.085902 0.820438 
27.2178 30.7207 27.2178 0.866066 0.148262 0.47744 156 78 63 255 0.085881 0.821205 
27.2178 30.807 -27.2178 0.690268 0.216932 -0.690268 156 78 63 255 0.086068 0.821205 
27.2178 87.3753 -27.2178 0.70299 -0.107748 -0.70299 156 78 63 255 0.086069 0.820404 
27.2178 82.6838 -20.8686 0.885009 -0.168222 -0.434121 156 78 63 255 0.086047 0.820437 
20.8687 82.6839 -27.2178 0.225256 -0.132959 -0.965185 156 78 63 255 0.08607 0.820435 
-27.2178 30.5729 27.2178 -0.478309 0.145535 0.866049 156 78 63 255 0.08588 0.821217 
-27.2178 87.7745 27.2178 -0.703368 -0.102693 0.703368 156 78 63 255 0.085881 0.820362 
-27.2178 82.6838 20.8687 -0.947158 -0.162872 0.276343 156 78 63 255 0.085904 0.8204 
-20.8687 82.6838 27.2178 -0.372081 -0.142016 0.917272 156 78 63 255 0.08588 0.820403 
-27.2178 28.8898 -27.2178 -0.703818 0.0963336 -0.703818 156 78 63 255 0.08608 0.821216 
-27.2178 87.8662 -27.2178 -0.703449 -0.101578 -0.703449 156 78 63 255 0.086081 0.820364 
-20.8687 82.6839 -27.2178 -0.350541 -0.197301 -0.915529 156 78 63 255 0.086079 0.820406 
-27.2178 82.6838 -20.8686 -0.922238 -0.139907 -0.360422 156 78 63 255 0.086057 0.8204 
-12.1333 70.5985 30.9253 -5.38351e-09 -1.76795e-07 1 156 78 63 255 0.048618 0.849959 
11.8152 69.8692 30.9253 -2.06123e-08 -1.64e-07 1 156 78 63 255 0.049197 0.850127 
-0.318067 82.0013 30.9253 -4.93769e-09 -1.62154e-07 1 156 78 63 255 0.048971 0.84994 
11.4232 42.4532 30.9253 -3.38719e-08 -1.58185e-07 1 156 78 63 255 0.049197 0.850127 
-10.7353 50.6291 30.9253 -3.5815e-08 -1.55613e-07 1 156 78 63 255 0.048618 0.849959 
-12.1333 23.2986 30.9253 -2.52729e-08 -1.68072e-07 1 156 78 63 255 0.048618 0.849959 
12.1333 23.2986 30.9253 0 -1.99153e-07 1 156 78 63 255 0.049197 0.850127 
-15.1855 71.8628 27.2178 -0.652498 0.270097 0.708021 145 145 145 255 0.048618 0.685951 
0 87.0468 27.2178 -0.0179458 0.592777 0.805166 145 145 145 255 0.048971 0.685933 
15.1855 71.8628 27.2178 0.596841 0.341369 0.726118 145 145 145 255 0.049197 0.686119 
15.1855 47.1646 27.2178 0.716922 -0.00337722 0.697146 145 145 145 255 0.049197 0.686119 
15.1855 23.2986 27.2178 0.737879 0.0143256 0.674781 145 145 145 255 0.049197 0.686119 
-15.1855 23.2986 27.2178 -0.772033 -9.98515e-08 0.635583 145 145 145 255 0.048618 0.685951 
-15.1855 47.1646 27.2178 -0.691558 0.011209 0.722234 145 145 145 255 0.048618 0.685951 
30.9253 70.5985 12.1333 1 0 0 156 78 63 255 0.048618 0.849959 
30.9253 70.5985 -12.1333 1 0 0 156 78 63 255 0.049197 0.850127 
30.9253 81.5834 1.41156 1 0 0 156 78 63 255 0.048971 0.84994 
30.9253 42.0645 -10.5653 1 0 0 156 78 63 255 0.049197 0.850127 
30.9253 37.0778 11.1692 1 0 0 156 78 63 255 0.048618 0.849959 
30.9253 23.2986 12.1333 1 0 0 156 78 63 255 0.048618 0.849959 
30.9253 23.2986 -12.1333 1 0 0 156 78 63 255 0.049197 0.850127 
27.2178 71.8628 15.1856 0.65407 0.380976 0.65349 145 145 145 255 0.048618 0.685951 
27.2178 87.0468 1.4e-05 0.815872 0.573243 0.0757995 145 145 145 255 0.048971 0.685933 
27.2178 71.8628 -15.1855 0.743652 0.263212 -0.614573 145 145 145 255 0.049197 0.686119 
27.2178 39.2201 -15.1855 0.729239 0.0180432 -0.684022 145 145 145 255 0.049197 0.686119 
27.2178 23.2986 -15.1855 0.635583 1.38731e-07 -0.772033 145 145 145 255 0.049197 0.686119 
27.2178 23.2986 15.1855 0.686574 0.0270426 0.726556 145 145 145 255 0.048618 0.685951 
27.2178 39.2201 15.1855 0.701332 -0.00656908 0.712805 145 145 145 255 0.048618 0.685951 
-30.9253 70.5985 -12.1333 -1 0 0 156 78 63 255 0.048618 0.849959 
-30.9253 70.5985 12.1333 -1 0 0 156 78 63 255 0.049197 0.850127 
-30.9253 82.132 1.01368 -1 0 0 156 78 63 255 0.048971 0.84994 
-30.9253 53.8235 11.3866 -1 0 0 156 78 63 255 0.049197 0.850127 
-30.9253 62.2048 -11.3866 -0.689178 -0.0158134 -0.72442 145 145 145 255 0.048618 0.685951 
-30.9253 23.2986 -12.1333 -1 0 0 156 78 63 255 0.048618 0.849959 
-30.9253 23.2986 12.1333 -1 0 0 156 78 63 255 0.049197 0.850127 
-27.2178 71.8628 -15.1855 -0.700183 0.367925 -0.611862 145 145 145 255 0.048618 0.685951 
-27.2178 87.0468 1.4e-05 -0.791178 0.60882 0.0580985 145 145 145 255 0.048971 0.685933 
-27.2178 71.8628 15.1856 -0.649451 0.382385 0.657263 145 145 145 255 0.049197 0.686119 
-27.2178 62.4159 15.1856 -0.676926 -0.0109171 0.73597 145 145 145 255 0.049197 0.686119 
-27.2178 23.2986 15.1855 -0.676597 0.00945491 0.736293 145 145 145 255 0.049197 0.686119 
-27.2178 23.2986 -15.1855 -0.676607 0.0074187 -0.736306 145 145 145 255 0.048618 0.685951 
-27.2178 62.4159 -15.1855 -0.689114 -0.0207581 -0.724356 145 145 145 255 0.048618 0.685951 
11.6222 69.9968 -30.9253 8.24409e-09 1.70777e-07 -1 156 78 63 255 0.048618 0.849959 
-12.1333 70.5985 -30.9253 4.38741e-09 1.73222e-07 -1 156 78 63 255 0.049197 0.850127 
0 82.7305 -30.9253 3.88362e-09 1.53332e-07 -1 156 78 63 255 0.048971 0.84994 
10.5755 35.6039 -30.9253 5.68674e-09 1.57952e-07 -1 156 78 63 255 0.048618 0.849959 
-11.2517 60.6993 -30.9253 7.31714e-09 1.70656e-07 -1 156 78 63 255 0.049197 0.850127 
15.1855 71.8628 -27.2178 0.613288 0.349045 -0.708552 145 145 145 255 0.048618 0.685951 
0 87.0468 -27.2178 0 0.651586 -0.758575 145 145 145 255 0.048971 0.685933 
-15.1855 71.8628 -27.2178 -0.646871 0.37896 -0.661776 145 145 145 255 0.049197 0.686119 
-15.1855 63.9785 -27.2178 -0.724619 -0.0211752 -0.688824 145 145 145 255 0.049197 0.686119 
15.1855 35.0542 -27.2178 0.690234 0.0152645 -0.723425 145 145 145 255 0.048618 0.685951 
-27.2178 23.2986 27.2178 1.49578e-08 1 2.79879e-07 145 145 145 255 0.08588 0.657237 
27.2178 23.2986 27.2178 0.447214 -2.32188e-07 0.894427 156 78 63 255 0.085881 0.821231 
-30.9253 23.2986 30.9253 -1.09809e-07 1 4.04645e-07 145 145 145 255 0.08588 0.657237 
30.9253 23.2986 30.9253 0.447214 -5.50025e-07 0.894427 156 78 63 255 0.085881 0.821231 
-4.4319 17.0953 30.9253 0.00467531 0.357625 0.933854 156 78 63 255 0.085882 0.82125 
30.9253 17.0953 30.9253 0.662434 0.559057 0.498634 156 78 63 255 0.085881 0.821242 
9.96286 11.1721 35.5307 -0.00361456 0.352407 0.93584 156 78 63 255 0.085881 0.821255 
35.5307 12.8434 35.5307 0.590047 0.522508 0.615492 156 78 63 255 0.085881 0.82125 
-35.5307 12.8434 25.5449 -0.922309 0.3743 0.0961513 156 78 63 255 0.085895 0.821264 
-35.5307 6.23001 35.5307 -0.793721 0.206425 0.572186 156 78 63 255 0.08588 0.821277 
-31.72 12.8434 35.5307 -0.324824 0.473786 0.818545 156 78 63 255 0.08588 0.821263 
-35.5307 -6e-06 35.5307 -0.534523 -0.267261 0.801784 156 78 63 255 0.08588 0.821289 
-35.5307 6e-06 -35.5307 -0.57735 -0.57735 -0.57735 156 78 63 255 0.08608 0.821288 
35.5307 6e-06 -35.5307 0.534522 -0.267261 -0.801784 156 78 63 255 0.086068 0.821272 
35.5307 -6e-06 35.5307 0.57735 -0.57735 0.57735 156 78 63 255 0.085881 0.821273 
-35.5307 12.8434 -35.5307 -0.591823 0.523172 -0.613218 156 78 63 255 0.08608 0.821264 
-13.3772 11.634 -35.5307 0.00311087 0.419597 -0.907705 156 78 63 255 0.086076 0.821259 
-30.9253 17.0953 -30.9253 -0.662549 0.564873 -0.491881 156 78 63 255 0.08608 0.821256 
-15.932 17.0953 -30.9253 -2.07447e-08 0.273806 -0.961785 156 78 63 255 0.086077 0.821252 
-30.9253 23.2986 -30.9253 -0.447214 -1.37506e-07 -0.894427 156 78 63 255 0.08608 0.821244 
-27.2178 23.2986 -27.2178 -0.707107 0 -0.707107 156 78 63 255 0.08608 0.821244 
27.2178 23.2986 -27.2178 1.12183e-08 1 3.38523e-07 145 145 145 255 0.086068 0.657223 
30.9253 23.2986 -30.9253 -1.64713e-07 1 3.49741e-07 145 145 145 255 0.086068 0.657223 
-8.31128 109.255 -27.2178 -2.51805e-08 2.19949e-07 -1 156 78 63 255 0.086076 0.820319 
8.31128 109.255 -27.2178 1.68846e-08 2.76845e-07 -1 156 78 63 255 0.086072 0.820334 
8.31128 112.009 -30.9253 0.617603 -0.639158 -0.458304 145 145 145 255 0.086073 0.656326 
-8.31128 111.302 -30.9253 -0.486173 -0.73297 -0.475806 145 145 145 255 0.086076 0.656313 
9.18716 105.803 -9.18714 -0.397817 0.82673 0.397817 145 145 145 255 0.086068 0.656327 
-9.18716 105.803 -9.18714 0.397817 0.82673 0.397817 145 145 145 255 0.08608 0.656283 
-9.18716 105.803 9.18718 0.397817 0.82673 -0.397817 145 145 145 255 0.08588 0.656281 
9.18716 105.803 9.18718 -0.397817 0.82673 -0.397817 145 145 145 255 0.085881 0.656326 
-10.6856 115.323 30.9253 -6.47142e-09 -1.60592e-07 1 156 78 63 255 0.08588 0.820316 
5.93428 123.342 30.9253 0.0102632 0.435417 0.90017 156 78 63 255 0.085881 0.820319 
-8.02734 126.091 30.9253 0.0471087 0.770291 0.63595 156 78 63 255 0.08588 0.820305 
-30.9253 126.091 30.9253 -0.57735 0.57735 0.57735 156 78 63 255 0.08588 0.820289 
8.31128 109.255 27.2178 0.308138 -0.761933 0.569658 145 145 145 255 0.085881 0.656325 
8.31128 112.076 30.9253 0.610886 -0.634656 0.473318 145 145 145 255 0.085881 0.656324 
-8.31128 111.953 30.9253 -0.454469 -0.736216 0.501441 145 145 145 255 0.08588 0.656312 
-8.31128 109.255 27.2178 -0.46951 -0.713957 0.519449 145 145 145 255 0.08588 0.656311 
30.9253 17.0953 -30.9253 0.44147 0.675608 -0.590472 156 78 63 255 0.086068 0.821242 
35.5307 12.8434 -19.3093 0.91111 0.41187 -0.0155367 156 78 63 255 0.086026 0.821249 
32.5341 15.61 -32.5341 0.688627 0.681019 -0.24901 156 78 63 255 0.086067 0.821244 
35.5307 9.3532 -35.5307 0.875067 0.297666 -0.381644 156 78 63 255 0.086068 0.821255 
-30.9253 17.0953 30.9253 -0.666113 0.523279 0.531482 156 78 63 255 0.085884 0.821256 
-27.2178 109.255 9.12931 -0.545864 -0.782208 0.300304 145 145 145 255 0.085947 0.656296 
-27.2178 109.255 -9.12927 -1 0 0 156 78 63 255 0.086014 0.820304 
-30.9253 111.652 -9.12927 -0.495423 -0.740477 -0.454148 145 145 145 255 0.086009 0.656297 
-30.9253 111.967 9.12931 -0.456061 -0.671822 0.583664 145 145 145 255 0.085951 0.656296 
30.9253 126.091 -30.9253 0.485071 0.727607 -0.485071 156 78 63 255 0.086068 0.820335 
30.9253 126.091 30.9253 0.727607 0.485071 0.485071 156 78 63 255 0.085881 0.820333 
30.9253 115.845 11.7373 0.519145 -0.797825 0.306535 145 145 145 255 0.085939 0.656339 
30.9253 116.233 -11.7373 1 0 0 156 78 63 255 0.086011 0.820347 
27.2178 109.255 -9.12927 0.445391 -0.765773 -0.463917 145 145 145 255 0.086006 0.656341 
30.9253 111.412 -9.12927 0.468865 -0.750262 -0.466125 145 145 145 255 0.086002 0.656341 
30.9253 111.667 9.12931 0.429425 -0.673755 0.601372 145 145 145 255 0.085947 0.65634 
27.2178 109.255 9.12931 0.503819 -0.808312 0.30463 145 145 145 255 0.085943 0.65634 
10.6856 113.609 -27.2178 0 4.38074e-07 -1 156 78 63 255 0.086072 0.820336 
27.2178 113.609 -27.2178 0.707107 2.31998e-07 -0.707107 156 78 63 255 0.086068 0.820348 
27.2178 113.609 -11.7373 0.439841 -0.654057 -0.615427 145 145 145 255 0.086015 0.656341 
27.2178 113.609 27.2178 0.707107 -2.27958e-07 0.707107 156 78 63 255 0.085881 0.820347 
10.6856 113.609 27.2178 0.609516 -0.643271 0.46335 145 145 145 255 0.085881 0.656327 
-27.2178 113.609 -11.7373 -1 0 0 156 78 63 255 0.086023 0.820304 
-27.2178 113.609 -27.2178 -0.707107 2.07273e-07 -0.707107 156 78 63 255 0.08608 0.820305 
30.9253 116.451 -30.9253 0.340518 -0.879172 -0.333322 145 145 145 255 0.086068 0.656341 
30.9253 116.435 30.9253 0.327895 -0.880277 0.342925 145 145 145 255 0.085881 0.65634 
10.6856 116.227 30.9253 0.306103 -0.771235 0.55812 145 145 145 255 0.085881 0.656324 
-30.9253 115.937 -11.7373 -0.496016 -0.816195 -0.296302 145 145 145 255 0.086018 0.656295 
-30.9253 115.701 -30.9253 -0.250426 -0.928715 -0.273452 145 145 145 255 0.08608 0.656297 
-10.6856 116.535 -30.9253 -0.315826 -0.773004 -0.550198 145 145 145 255 0.086076 0.656309 
-10.6856 113.609 -27.2178 -0.646397 -0.618563 -0.446712 145 145 145 255 0.086077 0.65631 
-10.6856 113.609 27.2178 -0.599008 -0.70906 0.372054 145 145 145 255 0.08588 0.656309 
-30.9253 116.369 30.9253 -0.335075 -0.8849 0.323537 145 145 145 255 0.08588 0.656296 
-27.2178 113.609 27.2178 -0.296027 -0.91546 0.272584 145 145 145 255 0.08588 0.656296 
-27.2178 113.609 11.7373 -0.419023 -0.698367 0.580262 145 145 145 255 0.085937 0.656296 
-30.9253 115.669 11.7373 -0.49831 -0.815452 0.294491 145 145 145 255 0.085942 0.656295 
27.2178 113.609 11.7373 0.419861 -0.682203 0.598594 145 145 145 255 0.085934 0.65634 
-30.9253 126.091 -14.187 -0.663989 0.745288 -0.0605342 156 78 63 255 0.086026 0.82029 
-30.9253 119.921 -30.9253 -0.702041 0.245156 -0.668608 156 78 63 255 0.08608 0.820298 
10.6856 116.021 -30.9253 0.308078 -0.784394 -0.538343 145 145 145 255 0.086072 0.656325 
-18.7075 126.091 -30.9253 -0.0840325 0.755181 -0.650107 156 78 63 255 0.086089 0.820297 
-18.9994 126.091 -18.9994 0.583634 0.564573 0.583634 145 145 145 255 0.08608 0.656283 
18.9994 126.091 -18.9994 -2.13245e-07 1 4.2649e-07 156 78 63 255 0.086068 0.820335 
-18.9994 126.091 18.9994 -8.71751e-08 1 3.13266e-07 156 78 63 255 0.08588 0.820289 
6.64797 126.091 24.3378 0.00879264 0.987623 0.156598 156 78 63 255 0.085881 0.820319 
18.9994 126.091 18.9994 -1.05854e-07 1 6.182e-07 156 78 63 255 0.085881 0.820333 
15.1855 23.2986 -27.2178 0.772033 1.01358e-07 -0.635583 145 145 145 255 0.048618 0.685951 
12.1333 23.2986 -30.9253 0.705231 0.0401338 -0.707841 145 145 145 255 0.048618 0.685951 
-12.1333 23.2986 -30.9253 5.51379e-10 1.53985e-07 -1 156 78 63 255 0.049197 0.850127 
-15.1855 23.2986 -27.2178 -0.730367 0.00911667 -0.682994 145 145 145 255 0.049197 0.686119 
29.0416 94.6942 -29.0416 0.478343 -0.735045 -0.480517 145 145 145 255 0.086068 0.656368 
29.0416 93.9092 -9.79777 0.926367 -0.212597 0.310881 145 145 145 255 0.086006 0.656368 
27.2178 92.315 -6.34668 0.898666 -0.25406 0.357565 145 145 145 255 0.086011 0.656368 
27.2178 92.315 -27.2178 0.426536 -0.793342 -0.434368 145 145 145 255 0.086068 0.656368 
9.79778 93.9092 29.0416 -0.395313 -0.207799 0.894733 145 145 145 255 0.085881 0.656353 
6.45328 91.8882 27.2178 -0.383466 -0.182436 0.905357 145 145 145 255 0.085881 0.656354 
27.2178 92.315 27.2178 0.424659 -0.814432 0.395431 145 145 145 255 0.085881 0.656367 
29.0416 93.9092 29.0416 0.383496 -0.850514 0.359938 145 145 145 255 0.085881 0.656367 
-29.0416 93.9092 -9.79777 -0.894366 -0.252455 0.369291 145 145 145 255 0.086014 0.656326 
-29.0416 93.9092 -29.0416 -0.707107 1.25096e-07 -0.707107 156 78 63 255 0.08608 0.820334 
-27.2178 92.315 -27.2178 -0.371769 -0.850632 -0.371769 145 145 145 255 0.08608 0.656327 
-27.2178 92.315 -6.34668 -0.898666 -0.25406 0.357565 145 145 145 255 0.086018 0.656326 
6.5392 92.315 -27.2178 -0.322049 -0.243235 -0.914943 145 145 145 255 0.086072 0.656356 
10.4385 94.0128 -29.0416 -0.354021 -0.197228 -0.914205 145 145 145 255 0.086072 0.656355 
29.0416 104.69 -29.0416 0.707107 1.3492e-07 -0.707107 156 78 63 255 0.086068 0.820362 
29.0416 104.481 -17.0973 1 0 0 156 78 63 255 0.086006 0.820362 
29.0416 104.179 29.0416 0.460554 0.759159 0.459965 145 145 145 255 0.085881 0.656354 
16.7749 104.69 29.0416 -3.87211e-09 -1.81319e-07 1 156 78 63 255 0.085881 0.820347 
-29.0416 104.69 -16.4544 -1 0 0 156 78 63 255 0.086014 0.820319 
-29.0416 104.69 -29.0416 -0.389133 0.834956 -0.389133 145 145 145 255 0.08608 0.656312 
16.7749 104.69 -29.0416 -3.34432e-09 1.86701e-07 -1 156 78 63 255 0.086072 0.820348 
15.867 106.391 -27.2178 -0.407817 0.513104 -0.755255 145 145 145 255 0.086071 0.656342 
27.2178 106.391 -27.2178 0.405737 0.827412 -0.388288 145 145 145 255 0.086068 0.656355 
27.2178 106.391 -15.2786 0.799433 0.479891 0.361402 145 145 145 255 0.08602 0.656353 
27.2178 106.391 27.2178 0.425251 0.799106 0.42496 145 145 145 255 0.085881 0.656354 
15.867 106.391 27.2178 -0.433997 0.53955 0.72148 145 145 145 255 0.085881 0.656341 
-27.2178 106.391 -15.2786 -0.757848 0.511332 0.405224 145 145 145 255 0.086029 0.65631 
-27.2178 106.391 -27.2178 -0.389133 0.834956 -0.389133 145 145 145 255 0.08608 0.656312 
-9.79778 93.9092 -29.0416 0.395276 -0.235554 -0.887846 145 145 145 255 0.086076 0.65634 
-6.5392 92.315 -27.2178 0.383469 -0.237292 -0.892549 145 145 145 255 0.086076 0.65634 
-16.7749 104.69 -29.0416 0 1.76913e-07 -1 156 78 63 255 0.086076 0.820333 
-15.867 106.391 -27.2178 0.424509 0.535852 -0.729832 145 145 145 255 0.086077 0.65632 
-29.0416 104.69 29.0416 -0.389133 0.834956 0.389133 145 145 145 255 0.08588 0.656311 
-16.7749 104.69 29.0416 0.227981 0.65304 0.722194 145 145 145 255 0.08588 0.656325 
-15.867 106.391 27.2178 0.406523 0.510279 0.757861 145 145 145 255 0.08588 0.656318 
-27.2178 106.391 27.2178 -0.389133 0.834956 0.389133 145 145 145 255 0.08588 0.656311 
-29.0416 93.9092 29.0416 -0.707107 -1.26762e-07 0.707107 156 78 63 255 0.08588 0.820333 
-10.7176 94.3269 29.0416 0.367226 -0.221625 0.903342 145 145 145 255 0.08588 0.656339 
-27.2178 92.315 27.2178 -0.371848 -0.836205 0.403101 145 145 145 255 0.08588 0.656325 
-6.5392 92.315 27.2178 0.307981 -0.202968 0.92949 145 145 145 255 0.08588 0.656338 
29.0416 94.5588 10.9951 0.912785 -0.225301 -0.340679 145 145 145 255 0.085943 0.656368 
27.2178 92.315 6.34671 0.941403 -0.194834 -0.27532 145 145 145 255 0.085939 0.656368 
-29.0416 93.9092 9.7978 -0.894366 -0.252454 -0.369292 145 145 145 255 0.085946 0.656326 
-27.2178 92.315 6.34671 -0.898666 -0.25406 -0.357565 145 145 145 255 0.085942 0.656326 
-29.0416 104.69 16.4544 -1 0 0 156 78 63 255 0.085946 0.820318 
-27.2178 106.391 15.2787 -0.757848 0.511333 -0.405223 145 145 145 255 0.085932 0.656309 
29.0416 104.69 16.4544 0.764731 0.608931 -0.210692 145 145 145 255 0.085943 0.656354 
27.2178 106.391 15.2787 0.786576 0.482423 -0.385442 145 145 145 255 0.085928 0.656352 
33.6671 12.8434 -35.5307 0.211655 0.476198 -0.853486 156 78 63 255 0.086069 0.82125 
24.7251 126.091 30.9253 -0.035753 0.776014 0.629702 156 78 63 255 0.085881 0.820329 
-0.318067 82.0013 30.9253 -0.0216824 0.603873 0.796785 145 145 145 255 0.048971 0.685933 
11.4232 42.4532 30.9253 0.728196 0.00616805 0.685341 145 145 145 255 0.049197 0.686119 
-12.1333 23.2986 30.9253 -0.716116 0.0168133 0.697779 145 145 145 255 0.048618 0.685951 
30.9253 81.5834 1.41156 0.778389 0.625415 0.0544767 145 145 145 255 0.048971 0.685933 
30.9253 23.2986 -12.1333 0.702053 0.027062 -0.71161 145 145 145 255 0.049197 0.686119 
30.9253 37.0778 11.1692 0.701331 0.011452 0.712743 145 145 145 255 0.048618 0.685951 
-30.9253 82.132 1.01368 -0.770009 0.636735 0.0406811 145 145 145 255 0.048971 0.685933 
-30.9253 53.8235 11.3866 -0.676962 -0.00461695 0.736004 145 145 145 255 0.049197 0.686119 
0 82.7305 -30.9253 -0.010775 0.624375 -0.78105 145 145 145 255 0.048971 0.685933 
-12.1333 70.5985 -30.9253 -0.707306 0.168137 -0.68662 145 145 145 255 0.049197 0.686119 
11.6222 69.9968 -30.9253 0.637658 0.153276 -0.754917 145 145 145 255 0.048618 0.685951 
27.2178 23.2986 27.2178 1.24767e-07 1 3.89688e-07 145 145 145 255 0.085881 0.657223 
-30.9253 23.2986 30.9253 -0.707107 -3.26125e-07 0.707107 156 78 63 255 0.08588 0.821244 
-30.9253 23.2986 -30.9253 1.12183e-08 1 3.38523e-07 145 145 145 255 0.08608 0.657236 
8.31128 109.255 -27.2178 0.319361 -0.789351 -0.524342 145 145 145 255 0.086072 0.656327 
27.2178 23.2986 -27.2178 0.707107 8.98129e-08 -0.707107 156 78 63 255 0.086068 0.82123 
30.9253 23.2986 30.9253 1.49578e-08 1 2.79879e-07 145 145 145 255 0.085881 0.657223 
30.9253 23.2986 -30.9253 0.707107 2.34411e-14 -0.707107 156 78 63 255 0.086068 0.82123 
-27.2178 23.2986 27.2178 -0.894427 -1.17262e-07 0.447214 156 78 63 255 0.08588 0.821244 
27.2178 109.255 -9.12927 1 0 0 156 78 63 255 0.086006 0.820348 
8.31128 109.255 27.2178 -1.77617e-08 -2.69424e-07 1 156 78 63 255 0.085881 0.820333 
30.9253 116.233 -11.7373 0.557912 -0.768396 -0.313531 145 145 145 255 0.086011 0.656339 
27.2178 113.609 -27.2178 0.327695 -0.890638 -0.315247 145 145 145 255 0.086068 0.656341 
27.2178 113.609 27.2178 0.304 -0.894433 0.327984 145 145 145 255 0.085881 0.65634 
-27.2178 113.609 -27.2178 -0.271013 -0.912482 -0.306478 145 145 145 255 0.08608 0.656297 
-27.2178 113.609 -11.7373 -0.427544 -0.675544 -0.600705 145 145 145 255 0.086023 0.656297 
-10.6856 115.323 30.9253 -0.30459 -0.836371 0.45575 145 145 145 255 0.08588 0.656308 
-27.2178 113.609 27.2178 -0.707107 -2.3319e-07 0.707107 156 78 63 255 0.08588 0.820303 
-8.31128 109.255 27.2178 1.10049e-08 -2.48875e-07 1 156 78 63 255 0.08588 0.820318 
-10.6856 113.609 27.2178 0 -4.38074e-07 1 156 78 63 255 0.08588 0.820316 
-27.2178 109.255 9.12931 -1 0 0 156 78 63 255 0.085947 0.820304 
27.2178 109.255 9.12931 1 0 0 156 78 63 255 0.085943 0.820348 
27.2178 113.609 11.7373 1 0 0 156 78 63 255 0.085934 0.820348 
-30.9253 115.937 -11.7373 -1 0 0 156 78 63 255 0.086018 0.820303 
-30.9253 115.669 11.7373 -1 0 0 156 78 63 255 0.085942 0.820302 
-8.31128 109.255 -27.2178 -0.485432 -0.765401 -0.422513 145 145 145 255 0.086076 0.656312 
10.6856 113.609 -27.2178 0.609639 -0.65731 -0.443038 145 145 145 255 0.086072 0.656329 
-10.6856 113.609 -27.2178 0 4.38074e-07 -1 156 78 63 255 0.086077 0.820317 
-30.9253 115.701 -30.9253 -0.707107 0 -0.707107 156 78 63 255 0.08608 0.820305 
-30.9253 111.967 9.12931 -1 0 0 156 78 63 255 0.085951 0.820304 
-30.9253 116.369 30.9253 -0.707107 -1.38729e-07 0.707107 156 78 63 255 0.08588 0.820303 
10.6856 116.227 30.9253 8.13122e-09 -1.49311e-07 1 156 78 63 255 0.085881 0.820332 
-8.31128 111.953 30.9253 0 0 1 156 78 63 255 0.08588 0.820319 
8.31128 112.076 30.9253 0 0 1 156 78 63 255 0.085881 0.820332 
30.9253 116.435 30.9253 0.707107 -1.39676e-07 0.707107 156 78 63 255 0.085881 0.820347 
30.9253 115.845 11.7373 1 0 0 156 78 63 255 0.085939 0.820346 
30.9253 111.667 9.12931 1 0 0 156 78 63 255 0.085947 0.820348 
30.9253 111.412 -9.12927 1 0 0 156 78 63 255 0.086002 0.820348 
30.9253 116.451 -30.9253 0.707107 1.39912e-07 -0.707107 156 78 63 255 0.086068 0.820348 
10.6856 116.021 -30.9253 1.73416e-10 1.47749e-07 -1 156 78 63 255 0.086072 0.820333 
8.31128 112.009 -30.9253 0 0 -1 156 78 63 255 0.086073 0.820333 
-10.6856 116.535 -30.9253 8.74898e-09 8.71845e-08 -1 156 78 63 255 0.086076 0.820317 
18.9994 126.091 -18.9994 -0.583634 0.564573 0.583634 145 145 145 255 0.086068 0.656327 
-18.9994 126.091 18.9994 0.583634 0.564573 -0.583634 145 145 145 255 0.08588 0.656281 
18.9994 126.091 18.9994 -0.583634 0.564573 -0.583634 145 145 145 255 0.085881 0.656326 
11.8152 69.8692 30.9253 0.670581 0.167148 0.722761 145 145 145 255 0.049197 0.686119 
-10.7353 50.6291 30.9253 -0.694984 -0.00706657 0.71899 145 145 145 255 0.048618 0.685951 
-30.9253 70.5985 12.1333 -0.676993 0.174006 0.715123 145 145 145 255 0.049197 0.686119 
-30.9253 62.2048 -11.3866 -1 0 0 156 78 63 255 0.048618 0.849959 
-30.9253 70.5985 -12.1333 -0.692602 0.184358 -0.697363 145 145 145 255 0.048618 0.685951 
-11.2517 60.6993 -30.9253 -0.724697 -0.0151011 -0.688903 145 145 145 255 0.049197 0.686119 
30.9253 42.0645 -10.5653 0.726815 0.0037238 -0.686823 145 145 145 255 0.049197 0.686119 
30.9253 70.5985 12.1333 0.694742 0.179893 0.696399 145 145 145 255 0.048618 0.685951 
29.0416 94.6942 -29.0416 0.707107 1.32018e-07 -0.707107 156 78 63 255 0.086068 0.820376 
29.0416 93.9092 29.0416 0.707107 -1.28212e-07 0.707107 156 78 63 255 0.085881 0.820375 
9.79778 93.9092 29.0416 0 -1.76913e-07 1 156 78 63 255 0.085881 0.820361 
-29.0416 93.9092 -9.79777 -1 0 0 156 78 63 255 0.086014 0.820334 
16.7749 104.69 -29.0416 -0.226471 0.653708 -0.722065 145 145 145 255 0.086072 0.65634 
29.0416 104.69 -29.0416 0.394689 0.83493 -0.383553 145 145 145 255 0.086068 0.656355 
29.0416 104.481 -17.0973 0.776122 0.60729 0.169806 145 145 145 255 0.086006 0.656354 
16.7749 104.69 29.0416 -0.208235 0.62873 0.749224 145 145 145 255 0.085881 0.656339 
-29.0416 104.69 -16.4544 -0.735365 0.644866 0.208294 145 145 145 255 0.086014 0.656311 
-29.0416 93.9092 -29.0416 -0.371769 -0.850632 -0.371769 145 145 145 255 0.08608 0.656327 
-29.0416 104.69 -29.0416 -0.707107 1.25096e-07 -0.707107 156 78 63 255 0.08608 0.820319 
-16.7749 104.69 -29.0416 0.217712 0.657541 -0.721277 145 145 145 255 0.086076 0.656326 
-16.7749 104.69 29.0416 2.07001e-09 -1.79268e-07 1 156 78 63 255 0.08588 0.820332 
-29.0416 104.69 29.0416 -0.707107 -1.25096e-07 0.707107 156 78 63 255 0.08588 0.820318 
-29.0416 93.9092 29.0416 -0.364239 -0.850585 0.379257 145 145 145 255 0.08588 0.656325 
-29.0416 93.9092 9.7978 -1 0 0 156 78 63 255 0.085946 0.820333 
-29.0416 104.69 16.4544 -0.735365 0.644866 -0.208293 145 145 145 255 0.085946 0.656311 
29.0416 104.69 16.4544 1 0 0 156 78 63 255 0.085943 0.820361 
29.0416 94.5588 10.9951 1 0 0 156 78 63 255 0.085943 0.820375 
-18.9994 126.091 -18.9994 8.69073e-08 1 4.28617e-07 156 78 63 255 0.08608 0.82029 
-12.1333 70.5985 30.9253 -0.697694 0.266118 0.665135 145 145 145 255 0.048618 0.685951 
12.1333 23.2986 30.9253 0.771717 0.0286097 0.635323 145 145 145 255 0.049197 0.686119 
30.9253 70.5985 -12.1333 0.665149 0.304284 -0.681901 145 145 145 255 0.049197 0.686119 
30.9253 23.2986 12.1333 0.634657 0.0539397 0.770909 145 145 145 255 0.048618 0.685951 
-30.9253 23.2986 12.1333 -0.635469 0.0188811 0.771895 145 145 145 255 0.049197 0.686119 
-30.9253 23.2986 -12.1333 -0.635513 0.0148149 -0.771948 145 145 145 255 0.048618 0.685951 
10.5755 35.6039 -30.9253 0.628612 0.0304311 -0.777124 145 145 145 255 0.048618 0.685951 
-27.2178 23.2986 -27.2178 1.8715e-07 1 3.27304e-07 145 145 145 255 0.08608 0.657236 
-27.2178 109.255 -9.12927 -0.482673 -0.746575 -0.457879 145 145 145 255 0.086014 0.656297 
27.2178 113.609 -11.7373 1 0 0 156 78 63 255 0.086015 0.820348 
10.6856 113.609 27.2178 0 -4.38074e-07 1 156 78 63 255 0.085881 0.820335 
-27.2178 113.609 11.7373 -1 0 0 156 78 63 255 0.085937 0.820304 
-30.9253 111.652 -9.12927 -1 0 0 156 78 63 255 0.086009 0.820304 
-8.31128 111.302 -30.9253 0 0 -1 156 78 63 255 0.086076 0.82032 
12.1333 23.2986 -30.9253 0 1.55002e-07 -1 156 78 63 255 0.048618 0.849959 
-12.1333 23.2986 -30.9253 -0.771905 0.0181961 -0.635477 145 145 145 255 0.049197 0.686119 
29.0416 93.9092 -9.79777 1 0 0 156 78 63 255 0.086006 0.820376 
29.0416 104.179 29.0416 0.707107 -1.31327e-07 0.707107 156 78 63 255 0.085881 0.820361 
10.4385 94.0128 -29.0416 -6.68863e-09 1.82597e-07 -1 156 78 63 255 0.086072 0.820362 
-9.79778 93.9092 -29.0416 0 1.76913e-07 -1 156 78 63 255 0.086076 0.820348 
-10.7176 94.3269 29.0416 4.14003e-09 -1.81623e-07 1 156 78 63 255 0.08588 0.820347 
3 0 2 3
3 5 7 4
3 8 10 11
3 12 14 15
3 16 17 18
3 19 3 2
3 20 5 4
3 21 22 23
3 24 9 8
3 25 26 27
3 28 13 12
3 29 30 31
3 32 33 34
3 35 37 38
3 39 223 40
3 223 41 40
3 224 43 42
3 225 45 44
3 46 47 48
3 50 52 49
3 53 226 54
3 226 55 54
3 56 227 57
3 58 228 59
3 60 61 62
3 63 65 66
3 67 229 68
3 229 69 68
3 230 71 70
3 72 64 73
3 74 75 76
3 74 78 75
3 79 231 80
3 231 81 80
3 232 82 81
3 83 233 79
3 25 17 16
3 10 2 1
3 24 2 9
3 24 85 19
3 86 234 84
3 88 87 235
3 90 89 88
3 92 93 94
3 96 98 95
3 96 100 97
3 101 100 99
3 101 103 102
3 236 105 106
3 28 5 20
3 12 6 5
3 23 29 21
3 21 107 108
3 237 110 109
3 112 114 111
3 115 117 118
3 119 121 122
3 21 18 22
3 0 4 7
3 19 4 3
3 19 238 20
3 239 105 234
3 89 240 87
3 123 124 125
3 124 97 126
3 92 96 95
3 235 101 127
3 84 236 86
3 241 28 104
3 8 28 24
3 8 14 13
3 26 29 31
3 25 129 29
3 130 128 131
3 133 135 132
3 137 139 136
3 141 108 140
3 141 242 21
3 143 243 16
3 146 129 145
3 244 245 147
3 149 246 148
3 150 247 248
3 152 247 151
3 249 156 154
3 250 251 252
3 250 253 25
3 158 156 155
3 134 246 159
3 143 254 255
3 16 251 25
3 160 256 257
3 242 16 21
3 153 110 258
3 259 109 162
3 121 154 122
3 120 144 149
3 157 131 128
3 248 130 150
3 138 159 139
3 137 142 244
3 107 146 260
3 261 256 161
3 256 262 257
3 118 257 263
3 263 115 118
3 264 265 266
3 264 267 133
3 268 133 267
3 135 269 270
3 132 135 271
3 271 272 132
3 273 274 272
3 163 165 132
3 161 160 163
3 166 167 168
3 132 168 133
3 275 112 111
3 276 112 164
3 276 114 113
3 275 114 277
3 278 42 41
3 36 33 32
3 279 39 45
3 280 70 69
3 281 61 60
3 73 282 67
3 170 83 169
3 77 171 78
3 283 172 82
3 55 284 56
3 46 49 47
3 59 285 53
3 174 176 173
3 177 179 180
3 181 183 184
3 176 186 173
3 188 286 187
3 287 190 288
3 191 182 289
3 286 193 187
3 290 195 291
3 292 195 196
3 293 197 198
3 294 200 192
3 201 183 295
3 203 182 296
3 297 200 204
3 206 208 205
3 209 298 299
3 211 210 300
3 213 179 214
3 215 211 300
3 209 217 301
3 302 208 218
3 219 197 189
3 303 287 304
3 177 198 178
3 210 207 206
3 194 186 185
3 218 215 302
3 220 213 214
3 196 174 292
3 204 201 297
3 199 181 184
3 18 1 0
3 27 1 17
3 11 27 26
3 11 31 14
3 15 31 30
3 15 23 6
3 6 22 7
3 18 7 22
3 126 221 125
3 124 126 125
3 94 127 92
3 90 98 91
3 92 101 99
3 245 162 147
3 238 28 20
3 163 272 274
3 161 274 261
3 160 166 305
3 163 160 305
3 117 116 167
3 222 264 133
3 167 116 222
3 168 222 133
3 117 166 118
3 264 116 115
3 102 240 123
3 221 123 125
3 97 221 126
3 100 123 221
3 89 124 123
3 98 124 91
3 235 127 88
3 94 88 127
3 95 90 94
3 94 93 95
3 95 93 92
3 0 1 2
3 5 6 7
3 8 9 10
3 12 13 14
3 35 36 37
3 39 306 223
3 223 278 41
3 224 307 43
3 225 279 45
3 50 51 52
3 53 285 226
3 226 308 55
3 56 284 227
3 58 309 228
3 63 281 65
3 67 282 229
3 229 280 69
3 230 310 71
3 72 311 64
3 74 77 78
3 79 233 231
3 231 232 81
3 232 283 82
3 83 312 233
3 25 27 17
3 10 9 2
3 24 19 2
3 24 241 85
3 86 239 234
3 88 89 87
3 90 91 89
3 96 97 98
3 96 99 100
3 101 102 100
3 236 313 105
3 28 12 5
3 12 15 6
3 23 30 29
3 21 29 107
3 237 258 110
3 112 113 114
3 115 116 117
3 119 120 121
3 21 16 18
3 0 3 4
3 19 20 4
3 19 85 238
3 239 106 105
3 89 123 240
3 92 99 96
3 235 103 101
3 84 313 236
3 241 24 28
3 8 13 28
3 8 11 14
3 26 25 29
3 25 253 129
3 130 314 128
3 133 268 135
3 137 138 139
3 141 21 108
3 141 315 242
3 143 316 243
3 146 29 129
3 244 142 245
3 149 144 246
3 150 151 247
3 152 153 247
3 249 155 156
3 250 25 251
3 250 317 253
3 158 157 156
3 134 148 246
3 143 16 254
3 16 243 251
3 257 118 160
3 160 161 256
3 242 254 16
3 153 152 110
3 259 237 109
3 121 249 154
3 120 119 144
3 157 158 131
3 248 314 130
3 138 134 159
3 137 136 142
3 107 29 146
3 256 318 262
3 264 115 265
3 135 268 269
3 273 319 274
3 163 305 165
3 132 165 168
3 275 164 112
3 276 113 112
3 276 277 114
3 275 111 114
3 278 224 42
3 36 35 33
3 279 306 39
3 280 230 70
3 281 63 61
3 73 64 282
3 170 312 83
3 77 320 171
3 283 321 172
3 55 308 284
3 46 50 49
3 59 228 285
3 174 175 176
3 177 178 179
3 181 295 183
3 176 185 186
3 188 322 286
3 287 323 190
3 191 296 182
3 286 324 193
3 290 194 195
3 292 291 195
3 293 189 197
3 294 199 200
3 201 202 183
3 203 325 182
3 297 192 200
3 206 207 208
3 209 326 298
3 211 212 210
3 213 180 179
3 215 216 211
3 209 299 217
3 302 205 208
3 219 220 197
3 303 323 287
3 177 293 198
3 210 212 207
3 194 290 186
3 218 216 215
3 220 219 213
3 196 175 174
3 204 202 201
3 199 294 181
3 18 17 1
3 27 10 1
3 11 10 27
3 11 26 31
3 15 14 31
3 15 30 23
3 6 23 22
3 18 0 7
3 92 127 101
3 245 259 162
3 238 104 28
3 274 161 163
3 163 132 272
3 160 118 166
3 222 116 264
3 168 167 222
3 117 167 166
3 102 103 240
3 97 100 221
3 100 102 123
3 89 91 124
3 98 97 124
3 94 90 88
3 95 98 90
