ply
format ascii 1.0
comment INFO-3111 Flatenator generated
comment TextureFile Dungeons_Texture_01.png
element vertex 104
property float x
property float y
property float z
property float nx
property float ny
property float nz
element face 164
property list uchar int vertex_indices
end_header
-15.076 -0.835052 0.88866 -0.387298 -0.894427 0.223607 
-7.53802 -0.835054 13.9449 -0.433013 -0.75 0.5 
-7.53802 0.83505 13.9449 -0.216506 0.75 0.625 
-15.076 0.835052 0.888661 -0.774597 0.447213 0.447214 
7.53802 -0.835054 13.9449 0.216506 -0.75 0.625 
7.53802 0.83505 13.9449 0.433013 0.75 0.5 
15.076 -0.835052 0.888662 0.774597 -0.447214 0.447213 
15.076 0.835052 0.888663 0.387298 0.894427 0.223607 
-11.381 -0.835052 0.888661 0.774597 -0.447214 -0.447214 
-5.6905 -0.835054 10.7449 0.216506 -0.75 -0.625 
-5.6905 0.83505 10.7449 0.433013 0.75 -0.5 
-11.381 0.835052 0.888661 0.387298 0.894427 -0.223607 
5.6905 -0.835054 10.7449 -0.433013 -0.75 -0.5 
5.6905 0.83505 10.7449 -0.216506 0.75 -0.625 
11.381 -0.835052 0.888663 -0.387298 -0.894427 -0.223607 
11.381 0.835052 0.888663 -0.774597 0.447214 -0.447214 
-11.2754 16.8717 3e-06 -0.399332 0.684121 -0.610337 
-16.0439 3e-06 0 -0.819556 0.0772118 -0.567774 
-16.0439 2e-06 1.77733 -0.819556 -0.0772117 0.567774 
-11.2754 16.8717 1.77733 -0.640163 0.46656 0.610338 
-11.2754 -16.8717 -3e-06 -0.577251 -0.638994 -0.508398 
-11.2754 -16.8717 1.77732 -0.433228 -0.479566 0.763105 
11.2754 -16.8717 -3e-06 0.433227 -0.479566 -0.763106 
16.0439 0 0 0.819555 -0.0772116 -0.567774 
16.0439 0 1.77733 0.819556 0.0772115 0.567774 
11.2754 -16.8717 1.77732 0.577251 -0.638994 0.508397 
11.2754 16.8717 3e-06 0.577251 0.638994 -0.508398 
11.2754 16.8717 1.77733 0.433228 0.479566 0.763106 
-7.42665 17.5482 3e-06 0.81816 0.35784 -0.450072 
-9.09976 2e-06 0 0.598154 0.0190102 -0.801156 
-9.09976 2e-06 1.77733 0.598154 -0.0190102 0.801156 
-7.42665 17.5482 1.77733 0.292199 0.843833 0.450072 
-7.42665 -17.5482 -3e-06 0.523428 -0.566474 -0.636498 
-7.42665 -17.5482 1.77732 0.627342 -0.678935 0.38143 
7.42665 -17.5482 -3e-06 -0.627343 -0.678935 -0.38143 
9.09976 0 0 -0.598154 -0.0190099 -0.801156 
9.09976 0 1.77733 -0.598154 0.0190099 0.801156 
7.42665 -17.5482 1.77732 -0.523428 -0.566474 0.636498 
7.42665 17.5482 3e-06 -0.523428 0.566475 -0.636498 
7.42665 17.5482 1.77733 -0.627342 0.678935 0.38143 
-11.3592 -15.835 0.888658 -0.612372 -0.707107 0.353553 
-5.67959 -15.835 10.726 -0.25 -0.866026 0.433012 
-5.67959 -14.165 10.726 -0.377965 0.654653 0.654654 
-11.3592 -14.165 0.888659 -0.612373 0.707107 0.353553 
5.67959 -15.835 10.726 0.433013 -0.5 0.75 
5.67959 -14.165 10.726 0.25 0.866025 0.433013 
11.3592 -15.835 0.888659 0.387298 -0.894427 0.223607 
11.3592 -14.165 0.888661 0.612373 0.707106 0.353554 
-8.57511 -15.835 0.888658 0.774597 -0.447213 -0.447214 
-4.28756 -15.835 8.31493 0.216507 -0.75 -0.625 
-4.28756 -14.165 8.31493 0.433013 0.75 -0.5 
-8.57511 -14.165 0.888659 0.387298 0.894427 -0.223606 
4.28756 -15.835 8.31493 -0.361158 -0.834058 -0.417029 
4.28756 -14.165 8.31493 -0.216506 0.75 -0.625 
8.57511 -15.835 0.88866 -0.612373 -0.707107 -0.353553 
8.57511 -14.165 0.888661 -0.774597 0.447214 -0.447213 
6.4073 -16.8717 10.2091 0.877483 -0.479566 -0.00636723 
8.79157 -2e-06 14.3388 0.842977 -1.40192e-07 0.53795 
7.25236 -2e-06 15.2274 -0.277324 -2.14791e-07 0.960776 
4.86809 -16.8717 11.0978 -0.15166 -0.638994 0.754112 
6.4073 16.8717 10.2091 0.728235 0.684121 0.0406633 
4.8681 16.8717 11.0978 -0.208486 0.46656 0.859567 
4.48293 -17.5482 6.876 0.0166567 -0.678935 -0.73401 
5.31949 -1e-06 8.32496 0.394744 -0.0190098 -0.918594 
3.78028 -2e-06 9.21362 -0.992898 0.0190101 -0.117439 
2.94372 -17.5482 7.76466 -0.812938 -0.566474 -0.135053 
4.48293 17.5482 6.87601 0.28951 0.566475 -0.771551 
2.94372 17.5482 7.76467 -0.643999 0.678935 -0.352579 
-11.3592 14.165 0.888663 -0.612372 -0.707107 0.353553 
-5.67959 14.165 10.726 -0.25 -0.866026 0.433012 
-5.67959 15.835 10.726 -0.377965 0.654653 0.654654 
-11.3592 15.835 0.888664 -0.612373 0.707107 0.353553 
5.67959 14.165 10.726 0.433013 -0.5 0.75 
5.67959 15.835 10.726 0.25 0.866025 0.433013 
11.3592 14.165 0.888664 0.387298 -0.894427 0.223607 
11.3592 15.835 0.888666 0.612373 0.707106 0.353554 
-8.57511 14.165 0.888663 0.774597 -0.447213 -0.447214 
-4.28756 14.165 8.31493 0.216506 -0.75 -0.625 
-4.28756 15.835 8.31493 0.433013 0.75 -0.5 
-8.57511 15.835 0.888664 0.387298 0.894427 -0.223606 
4.28756 14.165 8.31493 -0.361158 -0.834058 -0.417029 
4.28756 15.835 8.31493 -0.216506 0.75 -0.625 
8.57511 14.165 0.888665 -0.612373 -0.707107 -0.353554 
8.57511 15.835 0.888666 -0.774597 0.447214 -0.447213 
-4.86809 -16.8717 11.0978 0.328902 -0.684121 0.651001 
-7.25236 -2e-06 15.2274 -0.0443893 -2.22698e-07 0.999014 
-8.79157 -2e-06 14.3388 -0.970719 -8.58495e-08 0.240219 
-6.4073 -16.8717 10.2091 -0.84865 -0.466561 0.249229 
-4.8681 16.8717 11.0978 0.328902 0.68412 0.651001 
-6.40731 16.8717 10.2091 -0.84865 0.46656 0.24923 
-2.94372 -17.5482 7.76466 0.798854 -0.35784 -0.483511 
-3.78028 -2e-06 9.21362 0.998093 -1.16725e-08 0.0617193 
-5.31949 -1e-06 8.32496 -0.261004 1.67648e-07 -0.965338 
-4.48293 -17.5482 6.876 -0.243674 -0.843833 -0.478088 
-2.94372 17.5482 7.76467 0.798854 0.35784 -0.483511 
-4.48293 17.5482 6.87601 -0.243675 0.843834 -0.478087 
-10.1619 -7.95682 0.88866 -0.433013 -0.5 -0.75 
-5.08096 -7.95682 9.68914 -0.433013 -0.5 0.75 
-5.08096 -4.72789 9.68914 -0.327327 0.755929 0.566947 
-10.1619 -4.72789 0.888661 -0.866026 0.5 0 
5.08096 -7.95682 9.68915 0.433013 -0.5 0.75 
5.08096 -4.72789 9.68914 0.480384 0.27735 0.83205 
10.1619 -7.95682 0.888661 0.654654 -0.755929 -1.49502e-07 
10.1619 -4.72789 0.888662 0.327327 0.755929 -0.566947 
3 1 3 0
3 4 2 1
3 6 5 4
3 9 0 8
3 11 2 10
3 12 1 9
3 10 5 13
3 14 4 12
3 13 7 15
3 12 15 14
3 9 13 12
3 8 10 9
3 17 19 16
3 20 18 17
3 23 25 22
3 26 24 23
3 29 16 28
3 30 19 18
3 29 20 17
3 30 21 33
3 35 22 34
3 36 25 24
3 35 26 23
3 36 27 39
3 35 39 38
3 34 36 35
3 29 33 32
3 28 30 29
3 26 39 27
3 16 31 28
3 20 33 21
3 25 34 22
3 40 42 43
3 44 42 41
3 44 47 45
3 49 40 48
3 51 42 50
3 52 41 49
3 50 45 53
3 52 46 44
3 53 47 55
3 52 55 54
3 49 53 52
3 48 50 49
3 57 59 56
3 57 61 58
3 63 56 62
3 64 59 58
3 63 60 57
3 64 61 67
3 63 67 66
3 62 64 63
3 60 67 61
3 59 62 56
3 68 70 71
3 72 70 69
3 72 75 73
3 77 68 76
3 79 70 78
3 80 69 77
3 78 73 81
3 80 74 72
3 81 75 83
3 80 83 82
3 77 81 80
3 76 78 77
3 85 87 84
3 85 89 86
3 91 84 90
3 92 87 86
3 91 88 85
3 92 89 95
3 94 92 95
3 90 92 91
3 88 95 89
3 84 93 90
3 97 99 96
3 97 101 98
3 102 101 100
3 97 102 100
3 103 98 101
3 96 103 102
3 1 2 3
3 4 5 2
3 6 7 5
3 9 1 0
3 11 3 2
3 12 4 1
3 10 2 5
3 14 6 4
3 13 5 7
3 12 13 15
3 9 10 13
3 8 11 10
3 17 18 19
3 20 21 18
3 23 24 25
3 26 27 24
3 29 17 16
3 30 31 19
3 29 32 20
3 30 18 21
3 35 23 22
3 36 37 25
3 35 38 26
3 36 24 27
3 35 36 39
3 34 37 36
3 29 30 33
3 28 31 30
3 26 38 39
3 16 19 31
3 20 32 33
3 25 37 34
3 40 41 42
3 44 45 42
3 44 46 47
3 49 41 40
3 51 43 42
3 52 44 41
3 50 42 45
3 52 54 46
3 53 45 47
3 52 53 55
3 49 50 53
3 48 51 50
3 57 58 59
3 57 60 61
3 63 57 56
3 64 65 59
3 63 66 60
3 64 58 61
3 63 64 67
3 62 65 64
3 60 66 67
3 59 65 62
3 68 69 70
3 72 73 70
3 72 74 75
3 77 69 68
3 79 71 70
3 80 72 69
3 78 70 73
3 80 82 74
3 81 73 75
3 80 81 83
3 77 78 81
3 76 79 78
3 85 86 87
3 85 88 89
3 91 85 84
3 92 93 87
3 91 94 88
3 92 86 89
3 94 91 92
3 90 93 92
3 88 94 95
3 84 87 93
3 97 98 99
3 97 100 101
3 102 103 101
3 97 96 102
3 103 99 98
3 96 99 103
