ply
format ascii 1.0
comment INFO-3111 Flatenator generated
comment TextureFile Dungeons_Texture_01.png
element vertex 509
property float x
property float y
property float z
property float nx
property float ny
property float nz
element face 770
property list uchar int vertex_indices
end_header
-1.02642 -18.799 -0.502252 -0.750353 0.624333 0.217206 
1.02638 -18.799 -0.502252 0.750353 0.498313 0.434344 
1.02638 -14.4281 -3.00002 0.768776 -0.0442004 0.637989 
-1.02642 -14.4281 -3.00002 -0.515163 -0.0592381 0.855043 
1.02638 -13.1519 -2.01466 0.641219 -0.688732 0.338358 
-1.02642 -13.1519 -2.01466 -0.858114 -0.460849 0.226405 
-1.02642 -14.4263 2.99968 -0.612626 -0.20649 -0.762923 
1.02638 -14.4263 2.99968 0.612626 0.124525 -0.780502 
1.02638 -18.7991 0.503733 0.834374 0.520591 -0.181121 
-1.02642 -18.7991 0.503733 -0.834374 0.415403 -0.3623 
-1.02642 -13.1519 2.08064 -0.827966 -0.535056 -0.167889 
1.02638 -13.1519 2.08064 0.827966 -0.449138 -0.335778 
-1.02642 -21.5567 -1.05917 -0.74674 -0.630996 -0.210294 
-1.02642 -14.2466 -5.68827 -0.795112 0.0838752 -0.600635 
1.02638 -14.2466 -5.68827 0.934358 0.049282 -0.352911 
1.02638 -21.5567 -1.05917 0.74674 -0.515252 -0.420588 
-1.02642 -10.9697 -2.01761 -0.848801 0.493997 -0.188425 
1.02638 -10.9697 -2.01761 0.625981 0.728634 -0.277922 
-1.02642 -14.2459 5.68913 -0.858181 0.200167 0.472713 
-1.02642 -21.5567 1.06072 -0.599231 -0.620149 0.506297 
1.02638 -21.5567 1.06072 0.599231 -0.759498 0.253148 
1.02638 -14.2459 5.68913 0.858181 -0.0720593 0.508264 
1.02638 -10.9697 2.14888 0.578901 0.714333 0.393194 
-1.02642 -10.9697 2.14888 -0.578901 0.791342 0.196597 
-1.13183 87.7601 2.26524 -0.730517 0.03181 -0.682154 
-1.13183 92.1719 1.5e-05 -0.925762 -0.317137 -0.205887 
1.13179 92.1719 1.5e-05 0.925762 -0.317137 0.205887 
1.13179 87.7601 2.26524 0.730517 -0.15093 -0.666007 
-1.13183 87.7601 -2.26521 -0.730517 -0.15093 0.666007 
1.13179 87.7601 -2.26521 0.730517 0.0318097 0.682154 
-1.13183 82.7918 -0.738733 -0.802828 0.117997 0.584418 
1.13179 82.7918 -0.738733 0.710585 0.069811 0.700139 
-1.13183 82.7918 0.738759 -0.710585 0.0698112 -0.700139 
1.13179 82.7918 0.738759 0.710585 0.139254 -0.689694 
-1.13183 38.8533 -0.715937 -0.559653 -0.0929056 0.823503 
1.13179 38.8533 -0.715937 0.559653 -0.186247 0.807528 
-1.13183 38.8533 0.715949 -0.559653 -0.186247 -0.807528 
1.13179 38.8533 0.715949 0.559653 -0.0929055 -0.823503 
-1.13183 35.019 -2.07028 -0.605557 -0.134454 0.784361 
1.13179 35.019 -2.07028 0.835729 -0.0927797 0.541248 
-1.13183 35.019 2.07029 -0.835729 -0.0927796 -0.541248 
1.13179 35.019 2.07029 0.605557 -0.134454 -0.784361 
-1.13183 87.664 5.93912 -0.913851 -0.0680194 0.400312 
-2.3e-05 87.664 8.68926 -1.15763e-06 0.185121 0.982716 
-2.3e-05 103.89 1.7e-05 -2.39336e-06 1 -2.20441e-07 
-1.13183 99.7506 1.6e-05 -0.973059 0.230555 -2.45156e-08 
-2.3e-05 87.664 -8.68923 -1.20689e-06 0.185121 -0.982716 
-1.13183 87.664 -5.93909 -0.913851 -0.0680192 -0.400312 
-2.3e-05 82.7918 -6.12471 -1.09449e-06 -0.294215 -0.955739 
-1.13183 82.7918 -3.82742 -0.895262 -0.0629588 -0.44107 
-1.13183 82.7918 3.82745 -0.896042 -0.0471892 0.441454 
-2.3e-05 82.7918 6.12473 -1.04888e-06 -0.294215 0.955739 
-2.3e-05 55.9077 -6.12471 -0.159901 0.215211 -0.963388 
-1.13183 58.0467 -3.82743 -0.743829 -0.0264206 -0.667847 
0.65627 58.1232 -4.79262 0.578552 -0.0270284 -0.815198 
-1.13183 39.7521 3.82744 -0.896029 0.0475139 0.441447 
-2.3e-05 39.7521 6.12473 -1.15231e-06 0.336802 0.941576 
-2.3e-05 44.5762 6.12473 0.101175 0.122199 0.987335 
-0.394877 47.0929 5.32325 -0.640382 0.0236685 0.767692 
-2.3e-05 78.1564 6.12473 -0.00872934 -0.131862 0.99123 
-0.534533 75.3746 5.03983 -0.70598 0.00019662 0.708232 
-2.3e-05 72.5806 6.12473 -0.368651 0.146427 0.917963 
-2.3e-05 51.0267 6.12473 0.473258 -0.0856973 0.876745 
-1.13183 39.7521 -3.82743 -0.894214 0.079331 -0.440554 
-2.3e-05 39.7521 -6.12471 -1.17365e-06 0.336802 -0.941576 
-2.3e-05 35.9178 -8.14615 -1.14766e-06 0.169943 -0.985454 
-1.13183 35.9178 -5.9391 -0.881052 0.157785 -0.445927 
-1.13183 35.9178 5.93911 -0.881053 0.157784 0.445927 
-2.3e-05 35.9178 8.14617 -1.14766e-06 0.169943 0.985454 
1.13179 99.7506 1.6e-05 1 0 0 
1.13179 87.664 5.93912 1 0 0 
1.13179 87.664 -5.93909 1 0 0 
1.13179 82.7918 -3.82742 1 0 0 
1.13179 82.7918 3.82745 1 0 0 
1.13179 39.7521 -3.82743 1 0 0 
1.13179 39.7521 3.82744 1 0 0 
1.13179 35.9178 -5.9391 1 0 0 
1.13179 35.9178 5.93911 0.881051 0.157785 0.445929 
0.524997 75.3543 5.05904 0.699278 0.000197936 0.71485 
0.546723 47.1556 5.01499 0.758017 0.0200992 0.651926 
-2.3e-05 59.8755 -6.12471 -0.133265 -0.252843 -0.958285 
1.13179 29.8328 -5.9391 0.907538 -0.0638765 -0.415084 
-2.3e-05 28.0943 -8.14615 -1.0876e-06 -0.415473 -0.909605 
-1.13183 29.8328 5.93911 -0.907539 -0.0638763 0.415083 
-2.3e-05 28.0943 8.14616 -1.11125e-06 -0.415474 0.909605 
1.13179 33.0925 -2.07028 0.710955 0.0729725 0.699441 
-1.13183 33.0925 -2.07028 -0.710955 0.145945 0.687926 
-1.13183 33.0925 2.07029 -0.710955 0.0729729 -0.699441 
1.13179 33.0925 2.07029 0.710955 0.145945 -0.687926 
1.13179 29.8328 5.93911 0.907538 -0.0638766 0.415084 
-1.13183 29.8328 -5.9391 -0.907539 -0.0638762 -0.415083 
1.13179 26.4645 -3.96526 0.900632 -0.26268 -0.346211 
-2.3e-05 24.726 -5.07274 -1.08504e-06 -0.674027 -0.738707 
-1.13183 26.4645 3.96527 -0.900633 -0.262679 0.346209 
-2.3e-05 24.726 5.07275 -1.2056e-06 -0.674028 0.738706 
1.13179 30.3916 -1.19615 0.707107 0.217732 0.67275 
-1.13183 30.3916 -1.19615 -0.894427 0.137706 0.425485 
-1.13183 30.3916 1.19616 -0.707107 0.217733 -0.67275 
1.13179 30.3916 1.19616 0.894427 0.137706 -0.425484 
1.13179 26.4645 3.96527 0.900632 -0.26268 0.346211 
-1.13183 26.4645 -3.96526 -0.900633 -0.262679 -0.346209 
-1.49419 28.7432 0.403847 -0.442028 -0.810199 -0.384955 
1.49415 28.7432 0.403847 0.440138 -0.726742 -0.527375 
1.49415 23.1989 3.8571 0.409127 0.0603079 -0.910482 
-1.49419 23.1989 3.8571 -0.275423 0.0726485 -0.958574 
1.49415 20.4272 1.31631 0.359819 0.832705 -0.420871 
-1.49419 20.4272 1.31631 -0.497357 0.76379 -0.411414 
1.49415 23.1989 -3.85712 0.325004 -0.0881106 0.941599 
-1.49419 23.1989 -3.85712 -0.32695 0.222923 0.918373 
-1.49419 20.4272 -1.31715 -0.479856 0.826093 0.295481 
1.49415 20.4272 -1.31715 0.479562 0.771793 0.41756 
1.49415 28.7432 -0.403837 0.369422 -0.813012 0.450043 
-1.49419 28.7432 -0.403837 -0.362779 -0.706162 0.608052 
-0.659788 31.9643 1.34372 0.503499 0.810632 0.298937 
-0.659788 22.6972 7.21214 0.663208 -0.0762701 0.744539 
0.659749 22.6972 7.21214 -0.814928 -0.0569947 0.576753 
0.659749 31.9643 1.34372 -0.503556 0.686747 0.524224 
-0.659788 16.7196 1.28816 0.495198 -0.835099 0.23956 
0.659749 16.7196 1.28816 -0.49525 -0.758311 0.423901 
-0.659788 22.6963 -7.21127 0.730848 -0.187852 -0.65618 
-0.659788 31.9643 -1.34371 0.628106 0.644472 -0.43605 
0.659749 31.9643 -1.34371 -0.623361 0.741961 -0.246808 
0.659749 22.6963 -7.21127 -0.729962 0.0534161 -0.681398 
3.28625 23.4807 8.25294 0.72813 0.411045 0.548515 
3.28625 22.5427 8.81964 0.770698 -0.211746 0.60099 
3.28625 22.5427 5.68271 1 -4.16883e-06 -2.99266e-06 
3.28627 25.4879 5.40406 0.959665 0.121365 0.253603 
3.28625 30.7112 0.594978 1 -2.64762e-07 -2.66725e-06 
3.28625 28.3623 5.30352 0.834058 0.173619 0.523645 
3.28625 33.4908 2.2049 0.748399 0.507481 0.42704 
3.28625 15.0386 2.03446 0.734493 -0.653866 0.181602 
3.28625 18.4592 1.93934 1 0 0 
3.28625 18.4592 -1.94058 1 1.45773e-07 3.149e-06 
3.28625 15.0386 -2.05191 0.73824 -0.616332 -0.274109 
3.28625 17.1938 -3.99566 0.663676 -0.44424 -0.601818 
3.28627 19.2596 -4.88499 0.928284 -0.249484 -0.275767 
3.28625 22.5427 -8.81963 0.627547 0.11438 -0.770131 
3.28625 22.5427 -5.6827 1 2.84094e-06 2.1535e-07 
3.28625 20.3187 -6.81388 0.667918 -0.550764 -0.500545 
-3.28629 22.5427 -5.6827 -1 0 0 
-3.28629 22.5427 -8.81963 -0.770573 -0.211222 -0.601333 
-3.28629 15.0386 -2.05191 -0.585233 -0.781207 -0.217298 
-3.28629 18.4592 -1.94058 -1 0 0 
-3.28629 30.7112 -0.594968 -1 0 0 
-3.28629 33.4908 -2.20492 -0.748399 0.50748 -0.42704 
3.28625 33.4908 -2.20492 0.748399 0.627939 -0.21352 
3.28625 30.7112 -0.594968 1 0 0 
-3.28629 30.7112 0.594978 -0.701632 -0.601877 -0.381389 
-3.28629 33.4908 2.2049 -0.748399 0.62794 0.21352 
0.659749 16.7186 -1.30475 -0.534157 -0.788402 -0.305121 
-0.659788 16.7186 -1.30475 0.729396 -0.642334 -0.235349 
-3.28629 15.0386 2.03446 -0.734492 -0.57324 0.363205 
-3.28629 18.4592 1.93934 -0.755005 0.630462 -0.180236 
-3.28629 22.5427 5.68271 -0.717437 0.0222704 -0.696267 
-3.28629 22.5427 7.13723 -0.966401 -0.0712596 0.246964 
-2.36092 22.5427 8.81964 -0.325046 -0.234705 0.916111 
-3.28629 24.3847 7.70671 -0.853437 0.195753 0.483038 
-3.28629 19.8983 6.4286 -0.935762 -0.193192 0.295003 
-1.19463 22.5427 -8.81963 0 0.146908 -0.98915 
-1.19463 15.0386 -2.05191 0 -0.84424 -0.535966 
-1.19463 33.4908 -2.20492 0 0.946763 -0.321931 
-1.19463 33.4908 2.2049 -7.34564e-07 0.704848 0.709358 
-1.19463 15.0386 2.03446 0 -0.91397 0.405782 
1.19459 33.4908 2.2049 -1.62698e-06 0.870957 0.49136 
1.19459 22.5427 8.81964 -2.5048e-06 0.257167 0.966367 
2.03643 26.6417 6.34305 0.253157 0.48062 0.839593 
1.19459 15.0386 2.03446 0 -0.844717 0.535213 
1.19459 22.5427 -8.81963 -5.76099e-06 -0.435545 -0.900167 
2.15834 18.7362 -5.38669 0.219117 -0.65385 -0.724202 
1.19459 15.0386 -2.05191 -5.69876e-06 -0.874114 -0.485721 
1.19459 33.4908 -2.20492 0 0.765142 -0.643861 
-1.19463 22.5427 8.81964 0.949292 -0.0300782 0.312955 
2.48047 13.2642 -2.2e-05 0.981986 0 0.188955 
2.48047 11.8642 -2.2e-05 0.930092 -0.346525 -0.121859 
1.24029 11.8642 -2.14809 0.424068 -0.43397 -0.794881 
1.24029 13.2642 -2.14809 0.654662 0 -0.755921 
1.24027 13.2642 2.14826 0.327311 0 0.944916 
1.24027 11.8642 2.14826 0.50834 -0.490018 0.708148 
-1.2403 13.2642 2.14817 -0.654662 0 0.755921 
-1.2403 11.8642 2.14817 -0.424068 -0.43397 0.794881 
-2.48049 13.2642 9.8e-05 -0.981985 0 -0.188957 
-2.48049 11.8642 9.8e-05 -0.930092 -0.346525 0.121858 
-1.24028 13.2642 -2.14819 -0.327311 0 -0.944917 
-1.24028 11.8642 -2.14819 -0.508344 -0.489998 -0.708158 
-1.04124 -8.91551 1.80362 -0.479863 0.584743 0.65407 
-2.08258 -8.91551 -2.5e-05 -0.788796 0.610701 -0.0696065 
-2.65831 -9.25647 7e-05 -0.853097 0.519748 -0.0457014 
-1.32918 -9.25647 2.30218 -0.559407 0.415833 0.71704 
-1.04128 -8.91551 -1.80353 -0.468668 0.348403 -0.811767 
-1.32919 -9.25647 -2.30218 -0.372491 0.667083 -0.645175 
1.04122 -8.91551 -1.80355 0.466123 0.519755 -0.71595 
1.32917 -9.25647 -2.30211 0.490471 0.44823 -0.747347 
2.08257 -8.91551 9.5e-05 0.744969 0.667099 9.30265e-06 
2.65829 -9.25647 -2e-06 0.900681 0.41583 0.125934 
1.04124 -8.91551 1.80355 0.468668 0.348414 0.811763 
1.32917 -9.25647 2.30225 0.326498 0.584742 0.742614 
2.08257 11.5232 9.8e-05 0.900821 -0.434192 1.37506e-05 
1.04122 11.5232 -1.80355 0.35422 -0.512184 -0.782429 
1.04124 11.5232 1.80355 0.359501 -0.346592 0.866391 
-1.04124 11.5232 1.80362 -0.354213 -0.5122 0.782422 
-2.08258 11.5232 -2.2e-05 -0.900826 -0.43418 -1.07747e-05 
-1.04128 11.5232 -1.80352 -0.359502 -0.346565 -0.866401 
1.41558 13.8719 -2.60564 0.266135 -0.62886 -0.730553 
2.96434 13.8719 0.076924 0.782325 -0.622712 -0.0140808 
-1.50731 13.8719 -2.6107 -0.375564 -0.660162 -0.650491 
-2.96436 13.8719 -0.076872 -0.765757 -0.628844 -0.134798 
-1.41559 13.8719 2.60567 -0.403365 -0.6227 0.670478 
1.50732 13.8719 2.6108 0.375551 -0.660183 0.650477 
1.04122 -7.26779 -1.80355 0.327318 0 -0.944914 
2.08257 -8.24583 9.5e-05 1 0 1.81185e-05 
-1.04128 -7.26779 -1.80353 -0.499997 0 -0.866027 
-2.08258 -8.24583 -2.5e-05 -1 0 -7.51924e-06 
-1.04124 -7.26779 1.80362 -0.327302 0 0.94492 
1.04124 -7.26779 1.80355 0.499997 0 0.866027 
1.50732 18.4974 2.6108 0.65522 -1.84894e-07 0.755438 
-1.41559 18.4974 2.60567 -0.328511 -2.4341e-07 0.9445 
-2.96436 18.4974 -0.076871 -0.981887 -5.83283e-08 0.189469 
-1.50731 18.4974 -2.6107 -0.655217 1.58724e-07 -0.755441 
1.41558 18.4974 -2.60564 0.328496 1.94735e-07 -0.944506 
2.96434 18.4974 0.076925 0.981886 3.60182e-08 -0.18947 
-1.32929 -16.0915 4.5e-05 -0.452428 -0.891801 5.72465e-06 
-2.65831 -14.9405 7e-05 -0.869142 -0.487014 -0.0860796 
-1.32919 -14.9405 -2.30218 -0.360001 -0.344376 -0.867067 
-0.664661 -16.0915 -1.1512 -0.226209 -0.891805 -0.391808 
-0.664661 -16.0915 1.15122 -0.191348 -0.956331 0.220945 
-1.32918 -14.9405 2.30218 -0.476658 -0.431278 0.766027 
0.664646 -16.0915 1.15127 0.269473 -0.84234 0.466743 
1.32917 -14.9405 2.30225 0.360001 -0.344376 0.867066 
1.32917 -14.9405 -2.30211 0.509138 -0.487013 -0.709645 
0.664646 -16.0915 -1.15115 0.168835 -0.941268 -0.292419 
2.65829 -14.9405 -2e-06 0.888835 -0.425109 0.171039 
1.32928 -16.0915 2.1e-05 0.405905 -0.91057 -0.0781193 
-2.65831 -10.4364 7e-05 -0.959215 -0.282421 0.0120137 
-1.32918 -10.4364 2.30218 -0.399338 -0.320471 0.858969 
-1.32919 -10.4364 -2.30218 -0.491019 -0.188683 -0.85047 
1.32917 -10.4364 -2.30211 0.379565 -0.335259 -0.862283 
2.65829 -10.4364 -2e-06 0.943555 -0.320475 -0.083668 
1.32917 -10.4364 2.30225 0.585338 -0.224925 0.778966 
-1.16303 -10.964 2.01444 -0.38195 -0.224901 0.8964 
-2.32603 -10.964 4.6e-05 -0.943344 -0.277743 0.181549 
-2.32603 -13.164 4.6e-05 -0.959216 0.282418 -0.0119966 
-1.16303 -13.164 2.01444 -0.585336 0.224903 0.778974 
-1.16304 -10.964 -2.01439 -0.54423 -0.320481 -0.77531 
-1.16304 -13.164 -2.01439 -0.39932 0.320484 -0.858972 
1.16302 -10.964 -2.01434 0.469221 -0.282423 -0.836701 
1.16302 -13.164 -2.01434 0.628898 0.277753 -0.726182 
2.32602 -10.964 2.2e-05 0.967278 -0.224907 -0.11743 
2.32602 -13.164 2.2e-05 0.967279 0.224909 0.117419 
1.16302 -10.964 2.01446 0.544232 -0.320475 0.775311 
1.16302 -13.164 2.01446 0.399324 0.320477 0.858973 
-1.32918 -13.6916 2.30218 -0.399337 0.320473 0.858968 
-2.65831 -13.6916 7e-05 -0.959215 0.282423 0.0120139 
-1.32919 -13.6916 -2.30218 -0.585338 0.224927 -0.778966 
1.32917 -13.6916 -2.30211 0.314464 0.277755 -0.907725 
2.65829 -13.6916 -2e-06 0.943554 0.320478 -0.083668 
1.32917 -13.6916 2.30225 0.585338 0.224927 0.778966 
2.08257 10.0533 9.8e-05 1 0 1.80325e-05 
1.04122 11.0313 -1.80355 0.499993 0 -0.86603 
-1.04128 11.0313 -1.80352 -0.654646 0 -0.755936 
-2.08258 10.0533 -2.2e-05 -0.718763 0.695256 5.96647e-06 
-1.04124 11.0313 1.80362 -0.499983 0 0.866035 
1.04124 11.0313 1.80355 0.654639 0 0.755942 
2.6165 6.12038 0.000121 0.820416 -0.571768 1.76642e-05 
1.30819 6.93331 -2.26594 0.431071 -0.302827 -0.849984 
1.30819 10.4816 -2.26594 0.579246 0.510784 -0.635275 
2.6165 9.66869 0.000122 0.943855 0.330359 9.79679e-06 
-1.30826 6.93331 -2.26592 -0.429489 -0.448113 -0.78405 
-1.30826 10.4816 -2.26592 -0.412628 0.480929 -0.773593 
-2.61652 6.12038 -2.3e-05 -0.820418 -0.571765 -1.07175e-05 
-2.61652 9.66869 -2.2e-05 -0.943856 0.330358 -1.44921e-06 
-1.3082 6.93331 2.26604 -0.516535 -0.362877 0.775572 
-1.3082 10.4816 2.26604 -0.491373 0.433304 0.755513 
1.30822 6.93331 2.26597 0.368618 -0.384607 0.846285 
1.30822 10.4816 2.26597 0.475929 0.554718 0.68248 
2.08257 3.94642 9.7e-05 1 0 1.81013e-05 
1.04122 4.92448 -1.80355 0.654649 0 -0.755933 
1.04122 6.49371 -1.80355 0.327318 0 -0.944914 
2.08257 5.51566 9.7e-05 1 0 1.80841e-05 
-1.04128 4.92448 -1.80352 -0.499997 0 -0.866027 
-1.04128 6.49371 -1.80352 -0.499997 0 -0.866027 
-2.08258 3.94642 -2.3e-05 -1 0 -7.53645e-06 
-2.08258 5.51566 -2.3e-05 -1 0 -7.53645e-06 
-1.04124 4.92448 1.80362 -0.654644 0 0.755938 
-1.04124 6.49371 1.80362 -0.327302 0 0.94492 
1.04124 4.92448 1.80355 0.499997 0 0.866027 
1.04124 6.49371 1.80355 0.499997 0 0.866027 
2.6165 0.399668 0.00012 0.739971 -0.672638 1.66111e-05 
1.30819 1.2126 -2.26595 0.493953 -0.431117 -0.755082 
1.30819 4.51167 -2.26594 0.465201 0.513395 -0.72112 
2.6165 3.69874 0.000121 0.921909 0.387407 9.71844e-06 
-1.30826 1.2126 -2.26592 -0.351882 -0.457714 -0.816503 
-1.30826 4.51167 -2.26592 -0.443911 0.650651 -0.616114 
-2.61652 0.399668 -2.4e-05 -0.739973 -0.672636 -1.15178e-05 
-2.61652 3.69874 -2.3e-05 -0.921909 0.387406 -4.07062e-07 
-1.3082 1.2126 2.26604 -0.493944 -0.431124 0.755083 
-1.3082 4.51167 2.26604 -0.465193 0.513399 0.721122 
1.30822 1.2126 2.26597 0.351884 -0.457719 0.816499 
1.30822 4.51167 2.26597 0.443915 0.650655 0.616107 
2.08257 -1.15491 9.6e-05 1 0 1.80325e-05 
1.04122 -0.176876 -1.80355 0.654649 0 -0.755933 
1.04122 0.909877 -1.80355 0.327318 0 -0.944914 
2.08257 -0.068179 9.6e-05 1 0 1.80497e-05 
-1.04128 -0.176876 -1.80352 -0.499997 0 -0.866027 
-1.04128 0.909877 -1.80352 -0.499997 0 -0.866027 
-2.08258 -1.15491 -2.4e-05 -1 0 -7.53645e-06 
-2.08258 -0.068179 -2.4e-05 -1 0 -7.53645e-06 
-1.04124 -0.176876 1.80362 -0.654644 0 0.755938 
-1.04124 0.909877 1.80362 -0.327302 0 0.94492 
1.04124 -0.176876 1.80355 0.499997 0 0.866027 
1.04124 0.909877 1.80355 0.499997 0 0.866027 
2.6165 -3.96221 0.000119 0.748567 -0.663059 1.64522e-05 
1.30819 -3.14928 -2.26595 0.496177 -0.424542 -0.757346 
1.30819 -0.601899 -2.26595 0.468114 0.505661 -0.724691 
2.6165 -1.41483 0.00012 0.924082 0.382194 9.51155e-06 
-1.30826 -3.14928 -2.26592 -0.353524 -0.450615 -0.819736 
-1.30826 -0.601899 -2.26592 -0.447407 0.641494 -0.623147 
-2.61652 -3.96221 -2.5e-05 -0.748569 -0.663057 -1.1563e-05 
-2.61652 -1.41483 -2.4e-05 -0.924083 0.382192 -6.23837e-07 
-1.3082 -3.14928 2.26604 -0.496168 -0.42455 0.757347 
-1.3082 -0.601899 2.26604 -0.468106 0.505665 0.724693 
1.30822 -3.14928 2.26597 0.353526 -0.450622 0.819731 
1.30822 -0.601899 2.26597 0.447411 0.641499 0.623139 
2.08257 -5.50185 9.5e-05 1 0 1.81013e-05 
1.04122 -4.52378 -1.80355 0.654649 0 -0.755933 
1.04122 -3.46423 -1.80355 0.327318 0 -0.944914 
2.08257 -4.44229 9.5e-05 1 0 1.80841e-05 
-1.04128 -4.52378 -1.80353 -0.499997 0 -0.866027 
-1.04128 -3.46423 -1.80353 -0.499997 0 -0.866027 
-2.08258 -5.50185 -2.5e-05 -1 0 -7.53645e-06 
-2.08258 -4.44229 -2.5e-05 -1 0 -7.53645e-06 
-1.04124 -4.52378 1.80362 -0.654644 0 0.755938 
-1.04124 -3.46423 1.80362 -0.327302 0 0.94492 
1.04124 -4.52378 1.80355 0.499997 0 0.866027 
1.04124 -3.46423 1.80355 0.499997 0 0.866027 
2.6165 -7.82691 0.000119 0.702478 -0.711706 1.9243e-05 
1.30819 -7.01399 -2.26597 0.484766 -0.458182 -0.745031 
1.30819 -4.88766 -2.26597 0.452288 0.545351 -0.705711 
2.6165 -5.7006 0.000119 0.912941 0.408091 1.11665e-05 
-1.30826 -7.01398 -2.26592 -0.345127 -0.487082 -0.802271 
-1.30826 -4.88766 -2.26592 -0.428572 0.688192 -0.58542 
-2.61652 -7.82691 -2.5e-05 -0.702485 -0.711699 -1.42891e-05 
-2.61652 -5.7006 -2.5e-05 -0.912942 0.40809 -1.17852e-07 
-1.3082 -7.01399 2.26604 -0.484761 -0.458182 0.745034 
-1.3082 -4.88766 2.26604 -0.452284 0.545349 0.705715 
1.30822 -7.01399 2.26597 0.345122 -0.487089 0.802268 
1.30822 -4.88766 2.26597 0.428574 0.688194 0.585418 
-1.72948 35.7277 -5.12086 -0.830042 0.130072 -0.542321 
-1.72948 35.192 -2.81531 -0.839528 -0.100726 0.533897 
-1.72948 39.0264 -1.31513 -0.4646 -0.16338 0.870318 
-1.72948 39.562 -3.16934 -0.700154 0.165107 -0.69464 
-1.72948 82.7918 -3.17416 -0.697074 -0.181713 -0.693591 
-1.72948 82.7918 -1.33354 -0.716278 0.147605 0.682026 
-1.72948 87.6844 -5.16207 -0.718741 0.127867 -0.683418 
-1.72948 87.7416 -2.97271 -0.736776 -0.141954 0.661067 
-1.72948 98.1478 1.6e-05 -0.907089 0.420939 8.51602e-08 
-1.72948 93.6314 1.5e-05 -0.975925 -0.218107 -2.88554e-08 
-1.72948 87.6844 5.1621 -0.718741 0.127867 0.683419 
-1.72948 87.7416 2.97274 -0.736776 -0.141954 -0.661067 
-1.72948 82.7918 3.17418 -0.697074 -0.181713 0.693591 
-1.72948 82.7918 1.33356 -0.716278 0.147605 -0.682026 
-1.72948 39.562 3.16936 -0.700154 0.165107 0.69464 
-1.72948 39.0264 1.31514 -0.4646 -0.16338 -0.870318 
-1.72948 35.7277 5.12088 -0.830042 0.130071 0.542321 
-1.72948 35.192 2.81532 -0.839528 -0.100726 -0.533898 
1.72944 35.6834 4.93037 0.636864 0.178379 0.750056 
1.72944 35.1776 2.753 0.597741 -0.148084 -0.787894 
1.72944 39.0119 1.265 0.707993 -0.12982 -0.694185 
1.72944 39.5177 3.01616 0.903096 0.0985051 0.417989 
1.72944 82.7918 3.02211 0.727698 -0.0863676 0.680438 
1.72944 82.7918 1.28381 0.706065 0.0748383 -0.704181 
1.72944 87.6891 4.98121 0.750013 -0.072884 0.657395 
1.72944 87.7432 2.91354 0.726251 0.0432623 -0.686067 
1.72944 97.7746 1.6e-05 0.777683 0.628657 1.05935e-07 
1.72944 93.5093 1.5e-05 0.909241 -0.41627 -4.12857e-08 
1.72944 87.6891 -4.98118 0.750013 -0.0728839 -0.657395 
1.72944 87.7432 -2.91351 0.726251 0.0432621 0.686067 
1.72944 82.7918 -3.02209 0.727698 -0.0863675 -0.680438 
1.72944 82.7918 -1.28378 0.706065 0.0748381 0.704181 
1.72944 39.5177 -3.01615 0.903096 0.0985052 -0.417989 
1.72944 39.0119 -1.26499 0.707993 -0.12982 0.694185 
1.72944 35.6834 -4.93036 0.636864 0.178379 -0.750056 
1.72944 35.1776 -2.75299 0.597741 -0.148085 0.787894 
-1.72948 30.5624 -5.12086 -0.700469 -0.12824 -0.702067 
-1.72948 32.3474 -2.81531 -0.719959 0.0949952 0.687485 
-1.72948 32.3474 2.81532 -0.719959 0.0949955 -0.687485 
-1.72948 30.5624 5.12087 -0.700469 -0.12824 0.702067 
1.72944 30.5624 4.93037 0.733763 -0.240549 0.635396 
1.72944 32.3474 2.753 0.708567 0.191303 -0.679217 
1.72944 32.3474 -2.75299 0.708567 0.191303 0.679218 
1.72944 30.5624 -4.93036 0.733764 -0.240549 -0.635396 
-1.72948 27.6131 -3.32034 -0.419042 -0.466623 -0.778888 
-1.72948 29.6466 -1.62663 -0.711702 0.280339 0.644119 
-1.72948 29.6466 1.62664 -0.711702 0.280339 -0.644119 
-1.72948 27.6131 3.32035 -0.419042 -0.466623 0.778888 
1.72944 27.6131 3.19684 0.717903 -0.35276 0.600146 
1.72944 29.6466 1.59063 0.893575 0.177462 -0.412348 
1.72944 29.6466 -1.59062 0.893575 0.177461 0.412348 
1.72944 27.6131 -3.19683 0.717903 -0.35276 -0.600146 
-1.13183 87.664 5.93912 -1 0 0 
-1.13183 87.664 -5.93909 -1 0 0 
-1.13183 99.7506 1.6e-05 -1 0 0 
-1.13183 82.7918 -3.82742 -1 0 0 
-1.13183 82.7918 3.82745 -1 0 0 
-1.13183 39.7521 -3.82743 -1 0 0 
-1.13183 58.0467 -3.82743 -1 0 0 
-1.13183 39.7521 3.82744 -1 0 0 
-1.13183 35.9178 5.93911 -1 0 0 
1.13179 39.7521 3.82744 0.895455 0.0594388 0.441167 
1.13179 82.7918 3.82745 0.896401 -0.0377338 0.441635 
1.13179 87.664 5.93912 0.91385 -0.0680197 0.400314 
1.13179 99.7506 1.6e-05 0.973059 0.230556 -3.26875e-08 
1.13179 87.664 -5.93909 0.91385 -0.0680195 -0.400313 
1.13179 82.7918 -3.82742 0.896041 -0.0471896 -0.441456 
1.13179 39.7521 -3.82743 0.895455 0.0594391 -0.441167 
1.13179 35.9178 -5.9391 0.881051 0.157785 -0.445929 
1.13179 29.8328 -5.9391 1 0 0 
-1.13183 29.8328 5.93911 -1 0 0 
-1.13183 35.9178 -5.9391 -1 0 0 
-1.13183 29.8328 -5.9391 -1 0 0 
1.13179 35.9178 5.93911 1 0 0 
1.13179 29.8328 5.93911 1 0 0 
-1.13183 26.4645 -3.96526 -1 0 0 
1.13179 26.4645 3.96527 1 0 0 
-3.28629 22.5427 -5.6827 -0.717425 0.0222109 0.696281 
-3.28629 18.4592 -1.94058 -0.752857 0.599509 0.271653 
-3.28629 30.7112 -0.594968 -0.727594 -0.638095 0.251875 
3.28625 22.5427 5.68271 0.717437 0.0222703 -0.696267 
3.28625 18.4592 1.93934 0.755006 0.630461 -0.180236 
3.28625 22.5427 -5.6827 0.717426 0.0222108 0.696281 
3.28625 30.7112 -0.594968 0.727594 -0.638095 0.251875 
3.28625 30.7112 0.594978 0.701632 -0.601876 -0.381388 
3.28625 18.4592 -1.94058 0.752858 0.599508 0.271652 
-1.19463 33.4908 2.2049 0.952824 0.262175 0.15294 
1.19459 33.4908 2.2049 -0.952824 0.262175 0.15294 
1.19459 22.5427 8.81964 -0.949292 -0.0300782 0.312955 
-1.19463 15.0386 2.03446 0.954622 -0.270416 0.124784 
1.19459 15.0386 2.03446 -0.954622 -0.270416 0.124784 
-1.19463 33.4908 -2.20492 0.949871 0.237319 -0.203529 
-1.19463 22.5427 -8.81963 0.949336 -0.0298647 -0.31284 
1.19459 33.4908 -2.20492 -0.949871 0.237319 -0.203529 
1.19459 15.0386 -2.05191 -0.951667 -0.258154 -0.166394 
1.19459 22.5427 -8.81963 -0.949336 -0.0298647 -0.31284 
-1.19463 15.0386 -2.05191 0.951667 -0.258154 -0.166394 
1.24029 13.2642 -2.14809 0.531386 -0.602041 -0.595966 
2.48047 13.2642 -2.2e-05 0.783033 -0.621836 -0.0133681 
-1.24028 13.2642 -2.14819 -0.376443 -0.658155 -0.652014 
-2.48049 13.2642 9.8e-05 -0.781829 -0.602023 0.162211 
1.24027 13.2642 2.14826 0.37644 -0.658154 0.652017 
-1.2403 13.2642 2.14817 -0.403099 -0.621824 0.671451 
1.50732 13.8719 2.6108 0.326614 -2.41678e-07 0.945158 
-1.41559 13.8719 2.60567 -0.655033 -1.96337e-07 0.7556 
-2.96436 13.8719 -0.076872 -0.982214 3.03305e-08 -0.187765 
-1.50731 13.8719 -2.6107 -0.326626 1.96015e-07 -0.945154 
1.41558 13.8719 -2.60564 0.65503 1.54561e-07 -0.755603 
2.96434 13.8719 0.076924 0.982216 -4.95651e-08 0.187756 
1.04122 6.49371 -1.80355 0.255942 -0.713516 -0.652219 
2.08257 5.51566 9.7e-05 0.749617 -0.661871 2.30355e-05 
2.08257 10.0533 9.8e-05 0.718756 0.695262 -2.24876e-06 
1.04122 11.0313 -1.80355 0.310662 0.695706 -0.647674 
-1.04128 11.0313 -1.80352 -0.474864 0.690066 -0.54618 
-1.04128 6.49371 -1.80352 -0.340766 -0.698485 -0.629283 
-1.04124 6.49371 1.80362 -0.255928 -0.713531 0.652207 
-2.08258 5.51566 -2.3e-05 -0.749618 -0.661871 -1.35323e-05 
-1.04124 11.0313 1.80362 -0.310655 0.695718 0.647664 
1.04124 11.0313 1.80355 0.474861 0.690089 0.546154 
1.04124 6.49371 1.80355 0.340753 -0.698497 0.629278 
1.04122 0.909877 -1.80355 0.191099 -0.808743 -0.556252 
2.08257 -0.068179 9.6e-05 0.659027 -0.752119 2.19732e-05 
2.08257 3.94642 9.7e-05 0.615855 0.787859 -3.78204e-06 
1.04122 4.92448 -1.80355 0.289609 0.790989 -0.538946 
-1.04128 4.92448 -1.80352 -0.441624 0.780751 -0.442036 
-1.04128 0.909877 -1.80352 -0.255338 -0.792125 -0.554384 
-2.08258 3.94642 -2.3e-05 -0.615858 0.787857 8.5634e-06 
-1.04124 0.909877 1.80362 -0.191085 -0.808755 0.556239 
-2.08258 -0.068179 -2.4e-05 -0.659028 -0.752119 -1.41553e-05 
-1.04124 4.92448 1.80362 -0.2896 0.791001 0.538933 
1.04124 4.92448 1.80355 0.441625 0.780759 0.442021 
1.04124 0.909877 1.80355 0.255324 -0.792133 0.554378 
1.04122 -3.46423 -1.80355 0.197641 -0.800066 -0.56642 
2.08257 -4.44229 9.5e-05 0.668607 -0.743616 2.20969e-05 
2.08257 -1.15491 9.6e-05 0.626509 0.779414 -3.87532e-06 
1.04122 -0.176876 -1.80355 0.291908 0.782188 -0.550429 
-1.04128 -0.176876 -1.80352 -0.445246 0.772416 -0.452913 
-1.04128 -3.46423 -1.80353 -0.26399 -0.783582 -0.562413 
-2.08258 -1.15491 -2.4e-05 -0.626512 0.779412 8.09422e-06 
-1.04124 -3.46423 1.80362 -0.197627 -0.800079 0.566407 
-2.08258 -4.44229 -2.5e-05 -0.668608 -0.743615 -1.40478e-05 
-1.04124 -0.176876 1.80362 -0.291899 0.782201 0.550416 
1.04124 -0.176876 1.80355 0.445246 0.772425 0.452897 
1.04124 -3.46423 1.80355 0.263976 -0.783591 0.562407 
1.04122 -7.26779 -1.80355 0.163411 -0.843277 -0.512037 
2.08257 -8.24583 9.5e-05 0.617275 -0.786748 2.10457e-05 
2.08257 -5.50185 9.5e-05 0.570141 0.821547 -4.30309e-06 
1.04122 -4.52378 -1.80355 0.279413 0.826352 -0.488948 
-1.04128 -4.52378 -1.80353 -0.425592 0.814167 -0.394972 
-1.04128 -7.26779 -1.80353 -0.218652 -0.826154 -0.519289 
-2.08258 -5.50185 -2.5e-05 -0.570144 0.821545 9.31788e-06 
-1.04124 -7.26779 1.80362 -0.163403 -0.843284 0.512026 
-2.08258 -8.24583 -2.5e-05 -0.617275 -0.786747 -1.44594e-05 
-1.04124 -4.52378 1.80362 -0.279407 0.826358 0.488942 
1.04124 -4.52378 1.80355 0.425593 0.814174 0.394957 
1.04124 -7.26779 1.80355 0.218634 -0.826168 0.519275 
-1.19463 22.5427 8.81964 0 -0.0956697 0.995413 
-3.28629 30.7112 0.594978 -1 0 0 
-3.28629 22.5427 5.68271 -1 0 0 
-3.28629 18.4592 1.93934 -1 0 0 
1.13179 26.4645 -3.96526 1 0 0 
-1.13183 26.4645 3.96527 -1 0 0 
-2.08258 10.0533 -2.2e-05 -1 0 -7.50203e-06 
3 1 3 0
3 4 3 2
3 7 9 6
3 8 0 9
3 6 11 7
3 13 15 12
3 13 17 14
3 19 21 18
3 12 20 19
3 22 18 21
3 0 13 12
3 14 1 15
3 13 5 16
3 18 9 19
3 8 21 20
3 9 12 19
3 15 8 20
3 21 11 22
3 10 18 23
3 4 14 17
3 10 4 11
3 10 16 5
3 11 17 22
3 23 17 16
3 25 27 24
3 28 26 25
3 30 29 28
3 24 33 32
3 34 31 30
3 32 37 36
3 38 35 34
3 36 41 40
3 43 45 42
3 45 46 47
3 47 48 49
3 51 42 50
3 52 53 54
3 55 57 58
3 59 50 60
3 50 55 60
3 60 58 61
3 58 62 61
3 64 66 63
3 67 56 55
3 70 26 69
3 398 25 24
3 71 26 29
3 399 25 400
3 72 29 31
3 401 28 399
3 73 27 70
3 402 24 32
3 74 31 35
3 34 30 403
3 404 30 401
3 75 33 73
3 405 32 36
3 74 39 76
3 403 38 34
3 75 41 37
3 405 40 406
3 56 77 407
3 408 59 78
3 57 407 79
3 407 408 79
3 79 78 62
3 78 61 62
3 51 409 43
3 43 410 44
3 46 410 411
3 48 411 412
3 413 52 54
3 80 412 54
3 412 413 54
3 64 414 65
3 65 81 82
3 68 83 84
3 76 85 415
3 38 85 39
3 406 87 416
3 41 87 40
3 68 89 77
3 65 90 66
3 86 417 418
3 88 419 420
3 82 91 92
3 84 93 94
3 95 415 85
3 86 95 85
3 97 416 87
3 88 97 87
3 84 99 89
3 82 100 90
3 96 418 421
3 98 420 422
3 102 104 101
3 105 104 103
3 108 110 107
3 107 112 108
3 111 101 112
3 114 116 113
3 114 118 115
3 120 122 119
3 113 121 120
3 123 125 126
3 125 127 126
3 128 127 129
3 124 131 125
3 132 134 135
3 136 137 138
3 137 135 138
3 140 142 139
3 139 144 140
3 145 137 136
3 143 148 144
3 129 146 145
3 149 119 122
3 132 130 133
3 105 109 106
3 117 149 118
3 151 142 141
3 101 153 147
3 154 155 156
3 106 153 104
3 157 155 154
3 159 140 158
3 109 423 424
3 112 423 108
3 158 144 160
3 101 425 112
3 160 148 161
3 109 152 106
3 162 141 159
3 102 426 103
3 163 165 129
3 164 123 165
3 165 128 129
3 166 124 164
3 105 426 427
3 110 428 107
3 167 138 168
3 134 169 168
3 169 167 168
3 111 428 429
3 170 136 167
3 102 429 430
3 163 145 170
3 110 427 431
3 169 130 166
3 432 114 113
3 433 115 434
3 435 114 171
3 436 115 118
3 437 119 438
3 439 122 121
3 432 120 437
3 433 121 116
3 440 122 441
3 442 119 150
3 435 150 117
3 436 149 440
3 173 175 172
3 177 172 176
3 179 176 178
3 181 178 180
3 183 180 182
3 174 182 175
3 184 186 187
3 185 189 186
3 190 189 188
3 192 191 190
3 192 195 193
3 184 195 194
3 196 174 173
3 196 177 198
3 199 177 179
3 200 179 181
3 200 183 201
3 197 183 174
3 443 203 444
3 445 202 443
3 445 205 204
3 446 206 205
3 447 206 448
3 447 203 207
3 190 209 192
3 188 208 190
3 188 211 210
3 184 211 185
3 194 212 184
3 194 209 213
3 449 215 450
3 451 217 452
3 453 219 454
3 450 216 451
3 452 218 453
3 454 214 449
3 221 223 220
3 221 224 225
3 225 226 227
3 223 228 229
3 228 231 229
3 230 226 231
3 232 187 186
3 234 186 189
3 191 234 189
3 236 191 193
3 237 193 195
3 233 195 187
3 220 223 224
3 224 229 231
3 231 226 224
3 239 241 238
3 242 240 239
3 244 243 242
3 246 245 244
3 248 247 246
3 238 249 248
3 251 225 250
3 252 221 251
3 253 222 252
3 254 228 253
3 255 230 254
3 250 227 255
3 233 239 238
3 250 240 251
3 232 242 239
3 251 243 252
3 235 242 234
3 253 243 245
3 236 244 235
3 254 245 247
3 236 248 246
3 254 249 255
3 233 248 237
3 250 249 241
3 257 196 256
3 257 201 197
3 258 200 201
3 200 260 199
3 260 198 199
3 261 196 198
3 263 265 262
3 263 267 264
3 266 269 267
3 270 269 268
3 272 271 270
3 272 265 273
3 275 277 274
3 278 276 275
3 278 281 279
3 282 281 280
3 284 283 282
3 284 277 285
3 287 289 286
3 290 288 287
3 290 293 291
3 294 293 292
3 296 295 294
3 296 289 297
3 299 301 298
3 302 300 299
3 302 305 303
3 306 305 304
3 308 307 306
3 308 301 309
3 311 313 310
3 314 312 311
3 314 317 315
3 318 317 316
3 320 319 318
3 320 313 321
3 323 325 322
3 326 324 323
3 326 329 327
3 330 329 328
3 332 331 330
3 332 325 333
3 335 337 334
3 338 336 335
3 338 341 339
3 342 341 340
3 344 343 342
3 344 337 345
3 455 262 456
3 457 264 458
3 455 266 263
3 458 267 459
3 460 268 266
3 259 267 269
3 461 268 462
3 259 271 463
3 461 272 270
3 463 273 464
3 465 262 272
3 457 273 265
3 466 286 467
3 468 288 469
3 466 290 287
3 469 291 470
3 471 292 290
3 472 291 293
3 473 292 474
3 472 295 475
3 473 296 294
3 475 297 476
3 477 286 296
3 468 297 289
3 478 310 479
3 480 312 481
3 478 314 311
3 481 315 482
3 483 316 314
3 484 315 317
3 485 316 486
3 484 319 487
3 485 320 318
3 487 321 488
3 489 310 320
3 480 321 313
3 490 334 491
3 492 336 493
3 490 338 335
3 493 339 494
3 495 340 338
3 496 339 341
3 497 340 498
3 496 343 499
3 497 344 342
3 499 345 500
3 501 334 344
3 492 345 337
3 347 349 346
3 349 351 350
3 350 353 352
3 352 355 354
3 356 355 357
3 358 357 359
3 360 359 361
3 360 363 362
3 365 367 364
3 367 369 368
3 368 371 370
3 370 373 372
3 374 373 375
3 376 375 377
3 378 377 379
3 378 381 380
3 346 383 347
3 362 384 385
3 364 387 365
3 380 388 389
3 382 391 383
3 385 392 393
3 386 395 387
3 389 396 397
3 348 381 379
3 383 381 347
3 391 388 383
3 390 389 397
3 382 380 389
3 349 380 346
3 349 376 378
3 350 374 376
3 352 372 374
3 356 372 354
3 358 370 356
3 360 368 358
3 360 364 367
3 385 364 362
3 393 386 385
3 392 387 395
3 384 365 387
3 361 365 363
3 361 369 366
3 359 371 369
3 357 373 371
3 353 373 355
3 351 375 353
3 348 377 351
3 52 63 53
3 49 80 53
3 53 80 54
3 59 60 78
3 60 61 78
3 79 58 57
3 62 58 79
3 138 135 168
3 135 134 168
3 162 155 151
3 155 157 151
3 502 161 155
3 156 161 148
3 156 503 504
3 154 156 504
3 505 157 504
3 154 504 157
3 165 126 128
3 123 126 165
3 1 2 3
3 4 5 3
3 7 8 9
3 8 1 0
3 6 10 11
3 13 14 15
3 13 16 17
3 19 20 21
3 12 15 20
3 22 23 18
3 0 3 13
3 14 2 1
3 13 3 5
3 18 6 9
3 8 7 21
3 9 0 12
3 15 1 8
3 21 7 11
3 10 6 18
3 4 2 14
3 10 5 4
3 10 23 16
3 11 4 17
3 23 22 17
3 25 26 27
3 28 29 26
3 30 31 29
3 24 27 33
3 34 35 31
3 32 33 37
3 38 39 35
3 36 37 41
3 43 44 45
3 45 44 46
3 47 46 48
3 51 43 42
3 55 56 57
3 59 51 50
3 60 55 58
3 64 65 66
3 67 68 56
3 70 27 26
3 398 400 25
3 71 69 26
3 399 28 25
3 72 71 29
3 401 30 28
3 73 33 27
3 402 398 24
3 74 72 31
3 404 403 30
3 75 37 33
3 405 402 32
3 74 35 39
3 403 417 38
3 75 419 41
3 405 36 40
3 56 68 77
3 408 51 59
3 57 56 407
3 79 408 78
3 51 408 409
3 43 409 410
3 46 44 410
3 48 46 411
3 413 64 52
3 80 48 412
3 64 413 414
3 65 414 81
3 68 67 83
3 76 39 85
3 38 86 85
3 406 40 87
3 41 88 87
3 68 84 89
3 65 82 90
3 86 38 417
3 88 41 419
3 82 81 91
3 84 83 93
3 95 506 415
3 86 96 95
3 97 507 416
3 88 98 97
3 84 94 99
3 82 92 100
3 96 86 418
3 98 88 420
3 102 103 104
3 105 106 104
3 108 109 110
3 107 111 112
3 111 102 101
3 114 115 116
3 114 117 118
3 120 121 122
3 113 116 121
3 123 124 125
3 128 126 127
3 124 130 131
3 132 133 134
3 137 132 135
3 140 141 142
3 139 143 144
3 145 146 137
3 143 503 148
3 129 127 146
3 149 150 119
3 132 131 130
3 105 110 109
3 117 150 149
3 151 505 142
3 101 104 153
3 106 152 153
3 159 141 140
3 109 108 423
3 112 425 423
3 158 140 144
3 101 147 425
3 160 144 148
3 109 424 152
3 162 151 141
3 102 430 426
3 163 164 165
3 164 124 123
3 166 130 124
3 105 103 426
3 110 431 428
3 167 136 138
3 134 133 169
3 111 107 428
3 170 145 136
3 102 111 429
3 163 129 145
3 110 105 427
3 169 133 130
3 432 171 114
3 433 116 115
3 435 117 114
3 436 434 115
3 437 120 119
3 439 441 122
3 432 113 120
3 433 439 121
3 440 149 122
3 442 438 119
3 435 442 150
3 436 118 149
3 173 174 175
3 177 173 172
3 179 177 176
3 181 179 178
3 183 181 180
3 174 183 182
3 184 185 186
3 185 188 189
3 190 191 189
3 192 193 191
3 192 194 195
3 184 187 195
3 196 197 174
3 196 173 177
3 199 198 177
3 200 199 179
3 200 181 183
3 197 201 183
3 443 202 203
3 445 204 202
3 445 446 205
3 446 448 206
3 447 207 206
3 447 444 203
3 190 208 209
3 188 210 208
3 188 185 211
3 184 212 211
3 194 213 212
3 194 192 209
3 449 214 215
3 451 216 217
3 453 218 219
3 450 215 216
3 452 217 218
3 454 219 214
3 221 222 223
3 221 220 224
3 225 224 226
3 223 222 228
3 228 230 231
3 230 227 226
3 232 233 187
3 234 232 186
3 191 235 234
3 236 235 191
3 237 236 193
3 233 237 195
3 224 223 229
3 239 240 241
3 242 243 240
3 244 245 243
3 246 247 245
3 248 249 247
3 238 241 249
3 251 221 225
3 252 222 221
3 253 228 222
3 254 230 228
3 255 227 230
3 250 225 227
3 233 232 239
3 250 241 240
3 232 234 242
3 251 240 243
3 235 244 242
3 253 252 243
3 236 246 244
3 254 253 245
3 236 237 248
3 254 247 249
3 233 238 248
3 250 255 249
3 257 197 196
3 257 258 201
3 258 508 200
3 200 508 260
3 260 261 198
3 261 256 196
3 263 264 265
3 263 266 267
3 266 268 269
3 270 271 269
3 272 273 271
3 272 262 265
3 275 276 277
3 278 279 276
3 278 280 281
3 282 283 281
3 284 285 283
3 284 274 277
3 287 288 289
3 290 291 288
3 290 292 293
3 294 295 293
3 296 297 295
3 296 286 289
3 299 300 301
3 302 303 300
3 302 304 305
3 306 307 305
3 308 309 307
3 308 298 301
3 311 312 313
3 314 315 312
3 314 316 317
3 318 319 317
3 320 321 319
3 320 310 313
3 323 324 325
3 326 327 324
3 326 328 329
3 330 331 329
3 332 333 331
3 332 322 325
3 335 336 337
3 338 339 336
3 338 340 341
3 342 343 341
3 344 345 343
3 344 334 337
3 455 263 262
3 457 265 264
3 455 460 266
3 458 264 267
3 460 462 268
3 259 459 267
3 461 270 268
3 259 269 271
3 461 465 272
3 463 271 273
3 465 456 262
3 457 464 273
3 466 287 286
3 468 289 288
3 466 471 290
3 469 288 291
3 471 474 292
3 472 470 291
3 473 294 292
3 472 293 295
3 473 477 296
3 475 295 297
3 477 467 286
3 468 476 297
3 478 311 310
3 480 313 312
3 478 483 314
3 481 312 315
3 483 486 316
3 484 482 315
3 485 318 316
3 484 317 319
3 485 489 320
3 487 319 321
3 489 479 310
3 480 488 321
3 490 335 334
3 492 337 336
3 490 495 338
3 493 336 339
3 495 498 340
3 496 494 339
3 497 342 340
3 496 341 343
3 497 501 344
3 499 343 345
3 501 491 334
3 492 500 345
3 347 348 349
3 349 348 351
3 350 351 353
3 352 353 355
3 356 354 355
3 358 356 357
3 360 358 359
3 360 361 363
3 365 366 367
3 367 366 369
3 368 369 371
3 370 371 373
3 374 372 373
3 376 374 375
3 378 376 377
3 378 379 381
3 346 382 383
3 362 363 384
3 364 386 387
3 380 381 388
3 382 390 391
3 385 384 392
3 386 394 395
3 389 388 396
3 348 347 381
3 383 388 381
3 391 396 388
3 390 382 389
3 382 346 380
3 349 378 380
3 349 350 376
3 350 352 374
3 352 354 372
3 356 370 372
3 358 368 370
3 360 367 368
3 360 362 364
3 385 386 364
3 393 394 386
3 392 384 387
3 384 363 365
3 361 366 365
3 361 359 369
3 359 357 371
3 357 355 373
3 353 375 373
3 351 377 375
3 348 379 377
3 52 64 63
3 49 48 80
3 162 502 155
3 156 155 161
3 156 148 503
3 505 151 157
