ply
format ascii 1.0
comment INFO-3111 Flatenator generated
comment TextureFile Dungeons_Texture_01.png
element vertex 521
property float x
property float y
property float z
property float nx
property float ny
property float nz
property float texture_u
property float texture_v
element face 712
property list uchar int vertex_indices
end_header
0 26.5228 -4.92356 3.48695e-06 -0.210508 -0.977592 0.497021 0.176818 
1.32532 27.6611 -2.40637 1 0 0 0.494657 0.129616 
1.32532 20.0884 -2.40637 0.884849 3.55657e-07 -0.465878 0.497021 0.176818 
0 20.0884 -4.92357 0 1.40805e-06 -1 0.497021 0.176818 
1.32532 27.6611 5e-06 1 0 0 0.494657 0.129616 
1.32532 20.0884 3e-06 1 0 0 0.494657 0.129616 
-1.32532 35.0886 6e-06 -1 0 0 0.494657 0.129616 
-1.32532 35.1122 -5.91792 -1 0 0 0.494657 0.129616 
-1.32532 31.2314 -4.08901 -0.922857 -0.310792 -0.227471 0.497021 0.176818 
-1.32532 31.2728 -1.76242 -0.997464 -0.0187018 -0.0686763 0.494657 0.129616 
-1.32532 27.6611 5e-06 -1 0 0 0.494657 0.129616 
-1.32532 27.6611 -2.40637 -1 0 0 0.494657 0.129616 
-1.32532 29.6257 -3.33225 -0.940115 0.235166 -0.246742 0.494657 0.129616 
-1.32532 27.6611 2.40637 -1 0 0 0.494657 0.129616 
-1.32532 35.1122 5.91793 -0.900262 -0.074084 0.429 0.497021 0.176818 
0 26.5228 4.92356 0 -0.210463 0.977602 0.497021 0.176818 
1.32532 27.6611 2.40637 1 0 0 0.494657 0.129616 
1.32532 35.1122 5.91793 0.900262 -0.0740864 0.428997 0.497021 0.176818 
0 34.1657 8.53798 0 -0.214066 0.976819 0.497021 0.176818 
1.32532 35.0886 6e-06 1 0 0 0.494657 0.129616 
0 34.1657 -8.53797 -0.574413 -0.234759 -0.78418 0.497021 0.176818 
1.32532 35.1122 -5.91792 0.900263 -0.0740869 -0.428996 0.497021 0.176818 
-1.32532 20.0884 -2.40637 -0.884849 3.55657e-07 -0.465878 0.497021 0.176818 
-0.318848 29.267 -5.48338 -0.931639 -0.143045 -0.334045 0.497021 0.176818 
-1.32532 103.643 1.7e-05 -1 0 0 0.494657 0.129616 
-1.32532 103.643 -5.91791 -1 0 0 0.494657 0.129616 
-1.32532 77.9483 2.83375 -0.998215 0.00676826 0.0593453 0.494657 0.129616 
-1.32532 77.4987 5.91793 -0.933055 -0.146793 0.32842 0.497021 0.176818 
-1.32532 103.643 5.91794 -1 0 0 0.494657 0.129616 
-1.32532 75.8478 5.91793 -0.965192 0.216169 0.147223 0.494657 0.129616 
1.32532 103.643 5.91794 0.904139 0.0496105 0.424348 0.497021 0.176818 
0 105.386 8.538 2.03346e-07 0.325243 0.945631 0.497021 0.176818 
0 98.6714 8.538 0.0365182 -0.156249 0.987042 0.497021 0.176818 
0.699951 95.9305 7.15408 0.6785 -0.00993369 0.734533 0.497021 0.176818 
0 37.5812 8.53798 0.0766125 0.262502 0.961885 0.497021 0.176818 
0.94104 39.2141 6.67759 0.741682 -0.011303 0.670657 0.497021 0.176818 
1.32532 76.5669 5.91793 0.891561 0.142374 0.429941 0.497021 0.176818 
0 40.7435 8.53798 0.0396185 -0.211101 0.976661 0.497021 0.176818 
0.367188 76.8469 7.81205 0.932084 0.0209212 0.361638 0.497021 0.176818 
0 92.9204 8.53799 0.0398928 0.105744 0.993593 0.497021 0.176818 
1.32532 78.6432 5.91794 0.926645 -0.117834 0.356992 0.497021 0.176818 
1.32532 103.643 1.7e-05 1 0 0 0.494657 0.129616 
1.32532 78.5289 2.84456 0.998349 0.0148966 0.0554801 0.494657 0.129616 
0 85.9525 -8.53796 -0.0138423 -0.196575 -0.980391 0.497021 0.176818 
0 105.386 -8.53796 -2.54183e-07 0.325243 -0.94563 0.497021 0.176818 
1.32532 103.643 -5.91791 0.904141 0.0496136 -0.424343 0.497021 0.176818 
0.794678 83.3962 -6.96691 0.646079 -0.00307937 -0.763264 0.497021 0.176818 
0 80.7319 -8.53797 -0.0204099 0.191706 -0.98124 0.497021 0.176818 
-0.609375 96.0005 7.33325 -0.609373 -0.0107208 0.792811 0.497021 0.176818 
-0.732056 39.2789 7.09066 -0.651461 -0.012782 0.758574 0.497021 0.176818 
-0.442627 75.7922 7.66294 -0.934004 0.0111979 0.357087 0.497021 0.176818 
-0.839844 83.369 -6.87752 -0.671903 -0.00298852 -0.740633 0.497021 0.176818 
-1.32532 113.675 2.7e-05 -1 0 0 0.494657 0.129616 
1.32532 113.675 1.1e-05 0.979407 0.201897 -3.23461e-07 0.497021 0.176818 
0 120.367 2e-05 -8.10368e-08 1 1.62074e-07 0.497021 0.176818 
-1.32532 20.0884 3e-06 -1 0 0 0.494657 0.129616 
-1.32532 20.0884 2.40637 -1 0 0 0.494657 0.129616 
0 20.0884 4.92356 0 -1.39793e-07 1 0.497021 0.176818 
1.32532 20.0884 2.40637 0.884849 -6.18986e-08 0.465878 0.497021 0.176818 
1.00391 -16.3608 3.56908 0.733055 -0.602544 0.315549 0.494526 0.173996 
-1.00391 -16.3608 3.56908 -0.474383 -0.77985 0.408404 0.494526 0.173996 
-1.00391 -13.8878 -2e-06 -0.845061 -0.520956 0.120324 0.494526 0.173996 
1.00391 -13.8878 -2e-06 0.84506 -0.520956 -0.120325 0.494526 0.173996 
-1.00391 -16.3608 -3.56909 -0.733055 -0.602544 -0.31555 0.494526 0.173996 
1.00391 -16.3608 -3.56909 0.474383 -0.77985 -0.408404 0.494526 0.173996 
1.00391 -13.346 3.56908 0.59554 0.244755 0.765132 0.494526 0.173996 
1.00391 -10.8729 -2e-06 0.620026 0.764456 0.176566 0.494526 0.173996 
-1.00391 -10.8729 -2e-06 -0.620026 0.764456 -0.176565 0.494526 0.173996 
-1.00391 -13.346 3.56908 -0.59554 0.48951 0.636955 0.494526 0.173996 
1.00391 -13.346 -3.56909 0.59554 0.489511 -0.636954 0.494526 0.173996 
-1.00391 -13.346 -3.56909 -0.59554 0.244756 -0.765132 0.494526 0.173996 
1.02356 -14.9265 -1.77284 0.522232 -0.603022 -0.603024 0.494526 0.173996 
-1.02356 -14.9265 -1.77284 -0.261116 -0.603022 -0.753779 0.494526 0.173996 
-1.02356 -10.5578 -1.77284 -0.654652 0 -0.75593 0.494526 0.173996 
1.02356 -10.5578 -1.77284 0.327326 0 -0.944911 0.494526 0.173996 
0 -14.9265 -2e-06 0 -1 0 0.494526 0.173996 
-2.04712 -14.9265 -2e-06 -0.783349 -0.603023 -0.150757 0.494526 0.173996 
-1.02356 -14.9265 1.77284 -0.522232 -0.603022 0.603024 0.494526 0.173996 
1.02356 -14.9265 1.77284 0.261116 -0.603022 0.753779 0.494526 0.173996 
2.04712 -14.9265 -2e-06 0.783349 -0.603023 0.150757 0.494526 0.173996 
1.354 14.2247 -2.34519 0.261116 0.603023 -0.753779 0.495417 0.175245 
-1.354 14.2247 -2.34519 -0.522232 0.603023 -0.603024 0.495417 0.175245 
0 14.2247 2e-06 0 1 0 0.495417 0.175245 
-2.70801 14.2247 2e-06 -0.783349 0.603023 0.150756 0.495417 0.175245 
-1.354 14.2247 2.34519 -0.261116 0.603023 0.753779 0.495417 0.175245 
1.354 14.2247 2.34519 0.522232 0.603023 0.603024 0.495417 0.175245 
2.70801 14.2247 2e-06 0.783349 0.603023 -0.150756 0.495417 0.175245 
1.354 9.928 -2.34519 0.623537 -0.304632 -0.720001 0.495417 0.175245 
-1.354 9.928 -2.34519 -0.39354 -0.351118 -0.849613 0.495417 0.175245 
-2.70801 9.928 2e-06 -0.961877 -0.246703 -0.118027 0.495417 0.175245 
-1.354 9.928 2.34519 -0.623537 -0.304633 0.720001 0.495417 0.175245 
1.354 9.928 2.34519 0.39354 -0.351119 0.849613 0.495417 0.175245 
2.70801 9.928 2e-06 0.961877 -0.246703 0.118027 0.495417 0.175245 
1.02356 8.99416 -1.77284 0.268791 -0.570682 -0.775934 0.495417 0.175245 
-1.02356 8.99416 -1.77284 -0.40813 -0.577681 -0.706905 0.495417 0.175245 
-2.04712 8.99416 1e-06 -0.816263 -0.577681 -1.40021e-07 0.495417 0.175245 
-1.02356 8.99416 1.77284 -0.26879 -0.570683 0.775933 0.495417 0.175245 
1.02356 8.99416 1.77284 0.40813 -0.577682 0.706904 0.495417 0.175245 
2.04712 8.99416 1e-06 0.816263 -0.577681 -1.40021e-07 0.495417 0.175245 
-2.04712 -10.5578 -2e-06 -0.98198 0 0.188984 0.494526 0.173996 
-1.02356 -10.5578 1.77284 -0.327326 0 0.944911 0.494526 0.173996 
1.02356 -10.5578 1.77284 0.654652 0 0.75593 0.494526 0.173996 
2.04712 -10.5578 -2e-06 0.98198 0 -0.188984 0.494526 0.173996 
-1.3457 8.51816 -2.33093 -0.196771 0.799148 -0.568018 0.102309 0.177001 
-2.69153 8.51816 1e-06 -0.594157 0.804349 5.19868e-07 0.102309 0.177001 
-1.3457 8.51816 2.33093 -0.297082 0.804347 0.514556 0.102309 0.177001 
1.3457 8.51816 2.33093 0.196773 0.799145 0.568021 0.102309 0.177001 
2.69153 8.51816 1e-06 0.594158 0.804349 -7.87679e-09 0.102309 0.177001 
1.3457 8.51816 -2.33092 0.297083 0.804347 -0.514555 0.102309 0.177001 
-2.69153 -9.72404 -2e-06 -0.791214 -0.61154 4.99662e-07 0.102309 0.177001 
-1.3457 -9.72404 -2.33094 -0.395604 -0.611542 -0.685211 0.102309 0.177001 
-1.3457 -9.72404 2.33092 -0.260732 -0.604576 0.752667 0.102309 0.177001 
1.3457 -9.72404 2.33092 0.395606 -0.611538 0.685214 0.102309 0.177001 
2.69153 -9.72404 -2e-06 0.791214 -0.611539 -1.63824e-08 0.102309 0.177001 
1.3457 -9.72404 -2.33093 0.260733 -0.604577 -0.752665 0.102309 0.177001 
-1.38061 7.14658 -2.39136 -0.499343 0.0508236 -0.864912 0.105431 0.205102 
-2.76135 7.14658 1e-06 -0.652959 -0.757393 -7.96243e-08 0.102309 0.177001 
-1.38061 7.14657 2.39137 -0.499344 0.0508261 0.864912 0.105431 0.205102 
1.38061 7.14657 2.39137 0.653825 0.0499156 0.754998 0.105431 0.205102 
2.76135 7.14658 1e-06 0.652959 -0.757393 -5.5737e-08 0.102309 0.177001 
1.38061 7.14658 -2.39136 0.653825 0.0499156 -0.754998 0.105431 0.205102 
-2.79126 5.97053 1e-06 -0.98198 -9.24988e-09 0.188985 0.105431 0.205102 
-1.39563 5.97053 -2.41727 -0.65465 2.81e-07 -0.755932 0.105431 0.205102 
-1.39563 2.9909 -2.41727 -0.327325 3.7804e-07 -0.944912 0.105431 0.205102 
-2.79126 2.9909 0 -0.98198 6.63592e-08 -0.188985 0.105431 0.205102 
-1.39563 5.97053 2.41727 -0.327325 0 0.944912 0.105431 0.205102 
-1.39563 2.9909 2.41727 -0.65465 -6.34252e-08 0.755932 0.105431 0.205102 
1.39563 5.97053 2.41727 0.65465 -5.41753e-08 0.755932 0.105431 0.205102 
1.39563 2.9909 2.41727 0.327325 0 0.944912 0.105431 0.205102 
2.79126 5.97053 1e-06 0.98198 8.50957e-08 -0.188985 0.105431 0.205102 
2.79126 2.9909 0 0.98198 9.2499e-09 0.188985 0.105431 0.205102 
1.39563 5.97053 -2.41727 0.327325 3.78277e-07 -0.944912 0.105431 0.205102 
1.39563 2.9909 -2.41727 0.65465 2.90486e-07 -0.755932 0.105431 0.205102 
-2.79126 1.81457 0 -0.98198 0 0.188985 0.105431 0.205102 
-1.39563 1.81457 -2.41727 -0.65465 0 -0.755932 0.105431 0.205102 
-1.39563 -1.05584 -2.41727 -0.327325 0 -0.944912 0.105431 0.205102 
-2.79126 -1.05584 0 -0.98198 0 -0.188985 0.105431 0.205102 
-1.39563 1.81457 2.41727 -0.327325 0 0.944912 0.105431 0.205102 
-1.39563 -1.05584 2.41727 -0.65465 0 0.755932 0.105431 0.205102 
1.39563 1.81457 2.41727 0.65465 0 0.755932 0.105431 0.205102 
1.39563 -1.05584 2.41727 0.327325 0 0.944912 0.105431 0.205102 
2.79126 1.81457 0 0.98198 0 -0.188985 0.105431 0.205102 
2.79126 -1.05584 0 0.98198 0 0.188985 0.105431 0.205102 
1.39563 1.81457 -2.41727 0.327325 0 -0.944912 0.105431 0.205102 
1.39563 -1.05584 -2.41727 0.65465 0 -0.755932 0.105431 0.205102 
-2.79126 -2.23217 0 -0.98198 -7.30304e-08 0.188985 0.105431 0.205102 
-1.39563 -2.23217 -2.41727 -0.65465 4.64941e-08 -0.755932 0.105431 0.205102 
-1.39563 -5.70407 -2.41727 -0.327325 0 -0.944912 0.105431 0.205102 
-2.79126 -5.70407 -1e-06 -0.98198 -7.93841e-09 -0.188985 0.105431 0.205102 
-1.39563 -2.23217 2.41727 -0.327325 -3.24643e-07 0.944912 0.105431 0.205102 
-1.39563 -5.70407 2.41727 -0.65465 -2.493e-07 0.755932 0.105431 0.205102 
1.39563 -2.23217 2.41727 0.65465 -2.41158e-07 0.755932 0.105431 0.205102 
1.39563 -5.70407 2.41727 0.327325 -3.2444e-07 0.944912 0.105431 0.205102 
2.79126 -2.23217 0 0.98198 7.9384e-09 -0.188985 0.105431 0.205102 
2.79126 -5.70407 -1e-06 0.98198 -5.69504e-08 0.188985 0.105431 0.205102 
1.39563 -2.23217 -2.41727 0.327325 0 -0.944912 0.105431 0.205102 
1.39563 -5.70407 -2.41727 0.65465 5.44324e-08 -0.755932 0.105431 0.205102 
-2.77417 -6.88031 -1e-06 -0.999578 -0.0290487 0 0.105431 0.205102 
-1.38708 -6.88031 -2.40247 -0.499783 -0.029047 -0.865664 0.105431 0.205102 
-1.38708 -6.88031 2.40247 -0.499783 -0.0290488 0.865663 0.105431 0.205102 
1.38708 -6.88031 2.40247 0.65438 -0.0285286 0.755628 0.105431 0.205102 
2.77417 -6.88031 -1e-06 0.999578 -0.0290487 0 0.105431 0.205102 
1.38708 -6.88031 -2.40247 0.65438 -0.0285281 -0.755628 0.105431 0.205102 
-1.02905 6.54025 -1.78228 -0.654373 0.0294045 -0.7556 0.102309 0.177001 
-2.05798 6.54025 1e-06 -0.999552 0.0299344 1.11463e-06 0.102309 0.177001 
-1.02905 6.54025 1.78227 -0.499778 0.0299412 0.865636 0.102309 0.177001 
1.02905 6.54025 1.78227 0.654374 0.0294039 0.755599 0.102309 0.177001 
2.05798 6.54025 1e-06 0.999552 0.0299344 1.11463e-06 0.102309 0.177001 
1.02905 6.54025 -1.78228 0.499777 0.0299419 -0.865636 0.102309 0.177001 
-1.03259 2.40273 -1.7886 -0.327304 -1.07171e-06 -0.944919 0.102309 0.177001 
-2.06531 2.40273 0 -1 -1.29711e-06 -2.58162e-07 0.102309 0.177001 
-1.03259 2.40273 1.7886 -0.385901 -0.238165 0.891268 0.102309 0.177001 
1.03259 2.40273 1.7886 0.385901 0.238161 0.891269 0.102309 0.177001 
2.06531 2.40273 0 1 -1.29711e-06 -1.70009e-07 0.102309 0.177001 
1.03259 2.40273 -1.7886 0.499974 -1.10818e-06 -0.866041 0.102309 0.177001 
-1.03259 -1.644 -1.7886 -0.327304 -1.4839e-07 -0.944919 0.102309 0.177001 
-2.06531 -1.644 0 -1 -4.53358e-07 -3.77798e-08 0.102309 0.177001 
-1.03259 -1.644 1.7886 -0.499972 -4.78532e-07 0.866042 0.102309 0.177001 
1.03259 -1.644 1.7886 0.327304 -4.94635e-07 0.944919 0.102309 0.177001 
2.06531 -1.644 0 1 -4.65951e-07 6.9263e-08 0.102309 0.177001 
1.03259 -1.644 -1.7886 0.499974 -2.26673e-07 -0.866041 0.102309 0.177001 
-1.02844 -6.28165 -1.78126 -0.499925 -0.0171029 -0.8659 0.102309 0.177001 
-2.05676 -6.28165 -1e-06 -0.999854 -0.0171035 1.15858e-06 0.102309 0.177001 
-1.02844 -6.28165 1.78125 -0.560353 -0.189687 0.80624 0.102309 0.177001 
1.02844 -6.28166 1.78125 0.561284 0.156406 0.81271 0.102309 0.177001 
2.05676 -6.28166 -1e-06 0.999854 -0.0170953 -3.77798e-08 0.102309 0.177001 
1.02844 -6.28165 -1.78125 0.654565 -0.0167922 -0.755819 0.102309 0.177001 
-2.30652 34.5018 1.73594 -0.715583 -0.213726 0.665028 0.49516 0.102565 
2.30652 34.5018 1.73594 0.80687 -0.0903718 0.583776 0.49516 0.102565 
2.30652 104.466 1.73595 0.714495 0.200175 0.670393 0.49516 0.102565 
-2.30652 104.466 1.73595 -0.562775 0.118251 0.818108 0.49516 0.102565 
2.30652 108.215 1.8e-05 0.541305 0.682441 -0.491185 0.49516 0.102565 
-2.30652 108.215 1.8e-05 -0.541305 0.682441 0.491186 0.49516 0.102565 
2.30652 44.8519 -1.73592 0.698022 0.242714 -0.673688 0.49516 0.102565 
2.30652 34.5018 -1.73592 0.563971 -0.252665 -0.786191 0.49516 0.102565 
-2.30652 34.5018 -1.73592 -0.454497 -0.10181 -0.884911 0.49516 0.102565 
1.46838 45.2714 -1.73592 0.264971 0.0603711 -0.962365 0.49516 0.102565 
-2.30652 104.466 -1.73591 -0.609091 0.170645 -0.774525 0.49516 0.102565 
2.30652 104.466 -1.73591 0.714496 0.100088 -0.692444 0.49516 0.102565 
2.30652 46.4893 -1.73592 0.817066 -0.252377 -0.518372 0.49516 0.102565 
2.30652 45.8303 0.708686 0.99426 0.0534649 -0.092677 0.49516 0.102565 
-2.30652 31.0377 5e-06 -0.526628 -0.707807 -0.470821 0.49516 0.102565 
2.30652 31.0377 5e-06 0.526628 -0.707807 0.47082 0.49516 0.102565 
2.75989 15.5758 -5.50225 0.730095 -0.379724 -0.56813 0.496536 0.173128 
2.75989 12.3991 2e-06 0.501817 -0.854581 -0.133682 0.496536 0.173128 
-2.75989 12.3991 2e-06 -0.501817 -0.854581 0.133681 0.496536 0.173128 
-2.75989 15.5758 -5.50225 -0.560304 -0.347826 -0.751715 0.496536 0.173128 
2.75989 15.5758 5.50225 0.542032 -0.448644 0.710577 0.496536 0.173128 
-2.75989 15.5758 5.50225 -0.625612 -0.325382 0.709039 0.496536 0.173128 
2.75989 21.9293 5.50225 0.700213 0.273136 0.65962 0.496536 0.173128 
-1.13135 18.1734 5.50225 -0.10788 0.0213121 0.993936 0.496536 0.173128 
-2.75989 21.9293 5.50225 -0.419422 0.453895 0.786171 0.496536 0.173128 
-2.75989 19.0806 5.50225 -0.699322 -0.22637 0.678015 0.496536 0.173128 
-2.75989 17.734 5.50225 -0.676728 0.278559 0.681502 0.496536 0.173128 
2.75989 25.106 4e-06 0.501817 0.854581 0.133682 0.496536 0.173128 
-2.75989 25.106 4e-06 -0.535573 0.829695 -0.157379 0.496536 0.173128 
1.33533 21.9293 -5.50225 0.0780682 0.496959 -0.864255 0.496536 0.173128 
2.75989 22.4452 -4.6087 0.614416 0.600684 -0.511539 0.496536 0.173128 
2.75989 20.8676 -5.50225 0.613658 0.138484 -0.777332 0.496536 0.173128 
2.91968 17.6573 -1.89704 0.906555 -0.276322 -0.319069 0.467587 0.096331 
2.91968 19.8478 -1.89704 0.886865 0.231015 -0.400128 0.467587 0.096331 
2.91968 18.7525 3e-06 1 0 0 0.467587 0.096331 
2.91968 16.562 3e-06 0.938684 -0.344778 4.12588e-08 0.467587 0.096331 
2.91968 17.6573 1.89704 0.906555 -0.276322 0.319069 0.467587 0.096331 
2.91968 19.8478 1.89704 0.886865 0.231014 0.400128 0.467587 0.096331 
2.91968 20.943 3e-06 0.938684 0.344778 -2.47553e-08 0.467587 0.096331 
-2.91968 19.8478 -1.89704 -0.886865 0.231015 -0.400128 0.467587 0.096331 
-2.91968 17.6573 -1.89704 -0.906555 -0.276322 -0.319069 0.467587 0.096331 
-2.91968 18.7525 3e-06 -1 0 0 0.467587 0.096331 
-2.91968 16.562 3e-06 -0.938684 -0.344778 4.12588e-08 0.467587 0.096331 
-2.91968 17.6573 1.89704 -0.906555 -0.276322 0.319069 0.467587 0.096331 
-2.91968 19.8478 1.89704 -0.886865 0.231014 0.400129 0.467587 0.096331 
-2.91968 20.943 3e-06 -0.938684 0.344778 -2.47553e-08 0.467587 0.096331 
3.30408 21.0756 -4.02368 0.851732 -0.343023 0.396089 0.496583 0.133845 
2.65979 20.5424 -3.10006 0.509138 -0.281725 0.813271 0.496583 0.133845 
2.65979 16.9627 -3.10006 0.509138 0.563451 0.650616 0.496583 0.133845 
3.30408 16.4294 -4.02369 0.851732 0.171512 0.495112 0.496583 0.133845 
3.30408 23.3987 4e-06 0.85594 -0.517075 0 0.496583 0.133845 
2.65979 22.3322 4e-06 0.58005 -0.80977 0.0884036 0.496583 0.133845 
2.65979 15.1729 2e-06 0.509138 0.845176 -0.162654 0.496583 0.133845 
3.30408 14.1064 2e-06 0.851732 0.514535 0.0990223 0.496583 0.133845 
2.65979 16.9627 3.10006 0.412389 0.342286 -0.84426 0.496583 0.133845 
3.30408 16.4294 4.02369 0.855939 0.258538 -0.447801 0.496583 0.133845 
2.65979 20.5424 3.10006 0.515491 -0.466678 -0.718666 0.496583 0.133845 
3.30408 21.0756 4.02369 0.851733 -0.343023 -0.396089 0.496583 0.133845 
-3.30408 21.0756 -4.02368 -0.855939 -0.258538 0.447802 0.496583 0.133845 
-2.65979 20.5424 -3.10006 -0.412389 -0.560009 0.718558 0.496583 0.133845 
-2.65979 22.3322 4e-06 -0.58005 -0.80977 -0.0884038 0.496583 0.133845 
-3.30408 23.3987 4e-06 -0.85594 -0.517075 0 0.496583 0.133845 
-3.30408 16.4294 -4.02369 -0.851732 0.343023 0.396089 0.496583 0.133845 
-2.65979 16.9627 -3.10006 -0.509138 0.281725 0.813271 0.496583 0.133845 
-3.30408 14.1064 2e-06 -0.952771 -0.303689 -1.51285e-07 0.496536 0.173128 
-2.65979 15.1729 2e-06 -0.58005 0.80977 0.0884037 0.496583 0.133845 
-3.30408 16.4294 4.02369 -0.851732 0.343024 -0.396089 0.496583 0.133845 
-2.65979 16.9627 3.10006 -0.515491 0.466678 -0.718666 0.496583 0.133845 
-3.30408 18.328 4.02369 -0.820171 0 -0.572119 0.496583 0.133845 
-2.65979 20.5424 3.10006 -0.509138 -0.281725 -0.813271 0.496583 0.133845 
-3.30408 21.0756 4.02369 -0.851733 -0.343023 -0.396089 0.496583 0.133845 
3.15906 21.303 -4.41762 0.940263 0.169529 -0.295238 0.496536 0.173128 
-2.75989 21.9293 -5.50225 -0.730095 0.379724 -0.56813 0.496536 0.173128 
1.67542 20.5424 -3.10006 0 -0.654654 0.755929 0.496583 0.133845 
1.67542 16.9627 -3.10006 0 0.327327 0.944911 0.496583 0.133845 
1.67542 15.1729 2e-06 0 0.981981 0.188982 0.496583 0.133845 
1.67542 16.9627 3.10006 0 0.654654 -0.755929 0.496583 0.133845 
1.67542 20.5424 3.10006 0 -0.327327 -0.944911 0.496583 0.133845 
1.67542 22.3322 4e-06 0 -0.981981 -0.188982 0.496583 0.133845 
-1.67542 16.9627 -3.10006 0 0.654654 0.755929 0.496583 0.133845 
-1.67542 20.5424 -3.10006 0 -0.327327 0.944911 0.496583 0.133845 
-1.67542 15.1729 2e-06 0 0.981981 -0.188982 0.496583 0.133845 
-1.67542 16.9627 3.10006 0 0.327327 -0.944911 0.496583 0.133845 
-1.67542 20.5424 3.10006 0 -0.654654 -0.755929 0.496583 0.133845 
-1.67542 22.3322 4e-06 0 -0.981981 0.188982 0.496583 0.133845 
1.51257 26.6845 -6.1493 0.967511 0.0293722 0.251117 0.497021 0.176818 
-1.51257 26.6845 -6.1493 -0.852325 0.119969 0.509068 0.497021 0.176818 
-1.51257 16.2172 -6.1493 -0.927277 0.355738 0.116656 0.497021 0.176818 
1.51257 16.2172 -6.1493 0.958199 0.138361 0.25042 0.497021 0.176818 
-1.51257 12.5323 2e-06 -0.942251 0.307743 -0.132127 0.497021 0.176818 
1.51257 12.5323 2e-06 0.942251 0.307743 0.132128 0.497021 0.176818 
-1.51257 16.2172 6.14931 -0.875557 0.168117 -0.452921 0.497021 0.176818 
1.51257 16.2172 6.14931 0.853157 0.435242 -0.287555 0.497021 0.176818 
-1.51257 26.6845 6.14931 -0.966691 0.0309945 -0.254064 0.497021 0.176818 
1.51257 26.6845 6.14931 0.847667 0.0800956 -0.524448 0.497021 0.176818 
1.51257 33.9617 -9.56364 0.493192 0.765903 0.412497 0.497021 0.176818 
-1.51257 33.9617 -9.56364 -0.429717 0.815996 -0.386644 0.497021 0.176818 
-1.51257 33.9617 9.56365 -0.672847 0.732355 0.104562 0.497021 0.176818 
1.51257 33.9617 9.56365 0.883726 0.394494 0.251799 0.497021 0.176818 
0.395508 14.5017 -8.31901 0.591184 -0.336531 -0.732972 0.497021 0.176818 
0.395508 9.59587 2e-06 0.48272 -0.865459 -0.134028 0.497021 0.176818 
-0.395508 9.59587 2e-06 -0.48272 -0.865459 0.134028 0.497021 0.176818 
-0.395508 14.5017 -8.31901 -0.586602 -0.51956 -0.621253 0.497021 0.176818 
0.395508 14.5017 8.319 0.586602 -0.519561 0.621253 0.497021 0.176818 
-0.395508 14.5017 8.319 -0.591183 -0.336532 0.732973 0.497021 0.176818 
0.395508 25.3084 8.319 0.53691 -0.115093 0.835752 0.497021 0.176818 
-0.395508 25.3084 8.319 -0.537885 -0.197538 0.819548 0.497021 0.176818 
0.395508 25.3084 -8.319 0.536911 -0.115091 -0.835752 0.497021 0.176818 
-0.395508 25.3084 -8.319 -0.537883 -0.197535 -0.81955 0.497021 0.176818 
-0.395508 32.2415 -11.4524 -0.616967 -0.00502903 -0.786973 0.497021 0.176818 
0.395508 32.2415 -11.4524 0.421617 0.0722251 -0.903893 0.497021 0.176818 
0.395508 27.4509 9.28731 0.441022 -0.577146 0.687315 0.497021 0.176818 
-0.395508 26.9878 9.07799 -0.358322 -0.440521 0.823133 0.497021 0.176818 
1.17334 27.8623 7.52938 0.876752 -0.244839 0.413957 0.497021 0.176818 
0.395508 17.4851 -8.31901 0.164225 -0.0111473 -0.98636 0.497021 0.176818 
-0.395508 16.7253 -8.31901 -0.553174 0.139663 -0.821275 0.497021 0.176818 
-1.21228 17.4656 -6.73263 -0.84482 -0.00827137 -0.534987 0.497021 0.176818 
-0.395508 18.1502 -8.31901 -0.420483 -0.188251 -0.887556 0.497021 0.176818 
0.395508 32.2415 11.4524 0.508785 0.202108 0.836834 0.497021 0.176818 
0.395508 26.098 8.67587 0.580956 -0.222688 0.782879 0.497021 0.176818 
-0.395508 32.2415 11.4524 -0.300111 -0.0846911 0.950137 0.497021 0.176818 
2.16785 -15.3646 -4.32193 0.6256 0.451356 -0.636319 0.496536 0.173128 
2.16785 -20.3552 -4.32193 0.501808 -0.311523 -0.806934 0.496536 0.173128 
-2.16785 -20.3552 -4.32193 -0.6256 -0.451357 -0.636319 0.496536 0.173128 
-2.16785 -15.3646 -4.32193 -0.6256 0.32539 -0.709046 0.496536 0.173128 
2.16785 -22.8504 -4e-06 0.7002 -0.707829 -0.093266 0.496536 0.173128 
-2.16785 -22.8504 -4e-06 -0.7002 -0.707829 0.0932659 0.496536 0.173128 
2.16785 -20.3552 4.32193 0.6256 -0.451357 0.636319 0.496536 0.173128 
-2.16785 -20.3552 4.32193 -0.501808 -0.311523 0.806934 0.496536 0.173128 
2.16785 -15.3646 4.32193 0.6256 0.32539 0.709046 0.496536 0.173128 
-2.16785 -15.3646 4.32193 -0.6256 0.451356 0.636319 0.496536 0.173128 
2.16785 -12.8694 -2e-06 0.625601 0.776746 0.0727271 0.496536 0.173128 
-2.16785 -12.8694 -2e-06 -0.625601 0.776746 -0.0727267 0.496536 0.173128 
2.29333 -18.7202 -1.4901 0.906561 -0.276313 -0.319059 0.467587 0.096331 
2.29333 -16.9996 -1.4901 0.906561 0.138157 -0.398824 0.467587 0.096331 
2.29333 -17.8599 -3e-06 1 0 0 0.467587 0.096331 
2.29333 -19.5805 -3e-06 0.938689 -0.344766 8.2517e-09 0.467587 0.096331 
2.29333 -18.7202 1.49009 0.906561 -0.276313 0.319059 0.467587 0.096331 
2.29333 -16.9996 1.49009 0.906561 0.138157 0.398824 0.467587 0.096331 
2.29333 -16.1393 -3e-06 0.886873 0.462014 1.10579e-08 0.467587 0.096331 
-2.29333 -16.9996 -1.4901 -0.906561 0.138157 -0.398824 0.467587 0.096331 
-2.29333 -18.7202 -1.4901 -0.906561 -0.276313 -0.319059 0.467587 0.096331 
-2.29333 -17.8599 -3e-06 -1 0 0 0.467587 0.096331 
-2.29333 -19.5805 -3e-06 -0.938689 -0.344766 8.2517e-09 0.467587 0.096331 
-2.29333 -18.7202 1.49009 -0.906561 -0.276313 0.319059 0.467587 0.096331 
-2.29333 -16.9996 1.49009 -0.906561 0.138157 0.398824 0.467587 0.096331 
-2.29333 -16.1393 -3e-06 -0.886873 0.462014 1.10579e-08 0.467587 0.096331 
2.59534 -16.0352 -3.16055 0.851722 -0.171518 0.495128 0.496583 0.133845 
2.08923 -16.454 -2.43505 0.515481 -0.38905 0.763492 0.496583 0.133845 
2.08923 -19.2658 -2.43505 0.580038 0.481448 0.657087 0.496583 0.133845 
2.59534 -19.6846 -3.16055 0.855929 0.258547 0.447816 0.496583 0.133845 
2.59534 -14.2104 -2e-06 0.855927 -0.517096 -9.33063e-08 0.496583 0.133845 
2.08923 -15.0482 -2e-06 0.41238 -0.902298 0.125701 0.496583 0.133845 
2.08923 -20.6716 -3e-06 0.509128 0.845182 -0.162655 0.496583 0.133845 
2.59534 -21.5094 -4e-06 0.851721 0.514554 0.0990258 0.496583 0.133845 
2.08923 -19.2658 2.43504 0.509129 0.281727 -0.813276 0.496583 0.133845 
2.59534 -19.6846 3.16054 0.851722 0.343035 -0.396103 0.496583 0.133845 
2.08923 -16.454 2.43504 0.509128 -0.563455 -0.650621 0.496583 0.133845 
2.59534 -16.0352 3.16054 0.851722 -0.171518 -0.495128 0.496583 0.133845 
-2.59534 -16.0352 -3.16055 -0.851722 -0.171518 0.495128 0.496583 0.133845 
-2.08923 -16.454 -2.43505 -0.509128 -0.563455 0.650621 0.496583 0.133845 
-2.08923 -15.0482 -2e-06 -0.41238 -0.902298 -0.125702 0.496583 0.133845 
-2.59534 -14.2104 -2e-06 -0.855927 -0.517096 -9.33063e-08 0.496583 0.133845 
-2.59534 -19.6846 -3.16055 -0.851722 0.343035 0.396103 0.496583 0.133845 
-2.08923 -19.2658 -2.43505 -0.509129 0.281727 0.813276 0.496583 0.133845 
-2.59534 -21.5094 -4e-06 -0.851721 0.514554 -0.0990258 0.496583 0.133845 
-2.08923 -20.6716 -3e-06 -0.509128 0.845182 0.162655 0.496583 0.133845 
-2.59534 -19.6846 3.16054 -0.952763 -0.151857 0.263024 0.496536 0.173128 
-2.08923 -19.2658 2.43504 -0.580038 0.481449 -0.657087 0.496583 0.133845 
-2.59534 -16.0352 3.16054 -0.851721 -0.171518 -0.495128 0.496583 0.133845 
-2.08923 -16.454 2.43504 -0.515481 -0.38905 -0.763492 0.496583 0.133845 
1.31604 -16.454 -2.43505 0 -0.654654 0.755929 0.496583 0.133845 
1.31604 -19.2658 -2.43505 0 0.327327 0.944911 0.496583 0.133845 
1.31604 -20.6716 -3e-06 0 0.98198 0.188983 0.496583 0.133845 
1.31604 -19.2658 2.43504 0 0.654653 -0.75593 0.496583 0.133845 
1.31604 -16.454 2.43504 0 -0.327327 -0.944911 0.496583 0.133845 
1.31604 -15.0482 -2e-06 0 -0.981981 -0.188982 0.496583 0.133845 
-1.31604 -19.2658 -2.43505 0 0.654653 0.75593 0.496583 0.133845 
-1.31604 -16.454 -2.43505 0 -0.327327 0.944911 0.496583 0.133845 
-1.31604 -20.6716 -3e-06 0 0.98198 -0.188983 0.496583 0.133845 
-1.31604 -19.2658 2.43504 0 0.327327 -0.944911 0.496583 0.133845 
-1.31604 -16.454 2.43504 0 -0.654654 -0.755929 0.496583 0.133845 
-1.31604 -15.0482 -2e-06 0 -0.981981 0.188982 0.496583 0.133845 
0.759277 77.5191 5.63933 0.979238 0.0573096 0.194445 0.497021 0.176818 
-0.755981 76.7167 5.59529 -0.976926 0.0242015 0.212203 0.494657 0.129616 
-0.709351 30.3412 -3.66947 -0.959018 -0.0744491 -0.27339 0.494657 0.129616 
1.32532 20.0884 -2.40637 1 0 0 0.494657 0.129616 
1.32532 35.1122 5.91793 1 0 0 0.494657 0.129616 
1.32532 27.6611 -2.40637 0.897705 -0.0926685 -0.430742 0.497021 0.176818 
-1.32532 27.6611 2.40637 -0.897705 -0.0926686 0.430741 0.497021 0.176818 
-1.32532 27.6611 -2.40637 -0.900038 -0.123515 -0.417943 0.497021 0.176818 
-1.32532 35.1122 -5.91792 -0.897994 -0.0461125 -0.437586 0.497021 0.176818 
-1.32532 35.1122 5.91793 -1 0 0 0.494657 0.129616 
1.32532 103.643 5.91794 1 0 0 0.494657 0.129616 
1.32532 76.5669 5.91793 0.936883 0.294708 0.188142 0.494657 0.129616 
1.32532 35.1122 -5.91792 1 0 0 0.494657 0.129616 
-1.32532 103.643 5.91794 -0.904141 0.0496125 0.424343 0.497021 0.176818 
-1.32532 75.8478 5.91793 -0.879335 0.156393 0.449789 0.497021 0.176818 
-1.32532 103.643 -5.91791 -0.904139 0.0496128 -0.424349 0.497021 0.176818 
1.32532 113.675 1.1e-05 1 0 0 0.494657 0.129616 
1.32532 103.643 -5.91791 1 0 0 0.494657 0.129616 
-1.32532 113.675 2.7e-05 -0.979407 0.201897 4.02354e-07 0.497021 0.176818 
-1.32532 20.0884 -2.40637 -1 0 0 0.494657 0.129616 
1.32532 20.0884 2.40637 1 0 0 0.494657 0.129616 
-1.32532 20.0884 2.40637 -0.884849 -6.18986e-08 0.465878 0.497021 0.176818 
-1.02356 8.99416 -1.77284 -0.393538 0.799145 -0.454417 0.102309 0.177001 
-2.04712 8.99416 1e-06 -0.594145 0.804358 -1.57535e-08 0.102309 0.177001 
-1.02356 8.99416 1.77284 -0.297077 0.804353 0.514549 0.102309 0.177001 
1.02356 8.99416 1.77284 0.393539 0.799143 0.45442 0.102309 0.177001 
2.04712 8.99416 1e-06 0.594145 0.804358 -1.57535e-08 0.102309 0.177001 
1.02356 8.99416 -1.77284 0.297078 0.804354 -0.514547 0.102309 0.177001 
-1.02356 -10.5578 -1.77284 -0.395603 -0.611548 -0.685206 0.102309 0.177001 
-1.02356 -10.5578 1.77284 -0.521461 -0.604573 0.602137 0.102309 0.177001 
-2.04712 -10.5578 -2e-06 -0.791205 -0.611552 -1.63823e-08 0.102309 0.177001 
1.02356 -10.5578 1.77284 0.395604 -0.611546 0.685208 0.102309 0.177001 
1.02356 -10.5578 -1.77284 0.521461 -0.604573 -0.602137 0.102309 0.177001 
2.04712 -10.5578 -2e-06 0.791205 -0.611552 -1.63823e-08 0.102309 0.177001 
-2.69153 8.51816 1e-06 -0.998707 0.0508356 3.61222e-07 0.105431 0.205102 
-1.3457 8.51816 -2.33093 -0.499344 0.0508183 -0.864912 0.105431 0.205102 
-1.3457 8.51816 2.33093 -0.499345 0.0508232 0.864911 0.105431 0.205102 
1.3457 8.51816 2.33093 0.326913 0.0499076 0.943736 0.105431 0.205102 
2.69153 8.51816 1e-06 0.998707 0.0508365 3.44021e-08 0.105431 0.205102 
1.3457 8.51816 -2.33092 0.326914 0.0499054 -0.943735 0.105431 0.205102 
-2.69153 -9.72404 -2e-06 -0.999578 -0.0290572 3.52696e-07 0.105431 0.205102 
-1.3457 -9.72404 2.33092 -0.49978 -0.0290531 0.865665 0.105431 0.205102 
1.3457 -9.72404 2.33092 0.327188 -0.0285258 0.944529 0.105431 0.205102 
2.69153 -9.72404 -2e-06 0.999578 -0.0290576 -8.60235e-09 0.105431 0.205102 
1.3457 -9.72404 -2.33093 0.327189 -0.028524 -0.944528 0.105431 0.205102 
-1.38061 7.14658 -2.39136 -0.215964 -0.751471 -0.623419 0.102309 0.177001 
-2.79126 5.97053 1e-06 -0.61355 0.789656 1.58084e-07 0.102309 0.177001 
-1.38061 7.14657 2.39137 -0.326492 -0.757378 0.565493 0.102309 0.177001 
1.38061 7.14657 2.39137 0.215963 -0.751475 0.623414 0.102309 0.177001 
1.39563 5.97053 2.41727 0.203112 0.7842 0.586324 0.102309 0.177001 
2.79126 5.97053 1e-06 0.61355 0.789656 1.58084e-07 0.102309 0.177001 
1.38061 7.14658 -2.39136 0.326493 -0.757374 -0.565497 0.102309 0.177001 
-1.39563 5.97053 -2.41727 -0.203112 0.784197 -0.586328 0.102309 0.177001 
1.39563 5.97053 -2.41727 0.306785 0.789643 -0.531363 0.102309 0.177001 
-1.39563 2.9909 -2.41727 -0.416617 -0.771351 -0.48109 0.102309 0.177001 
-2.79126 2.9909 0 -0.629514 -0.776989 -2.21968e-07 0.102309 0.177001 
-1.39563 1.81457 -2.41727 -0.416618 0.77135 -0.481091 0.102309 0.177001 
-1.39563 2.9909 2.41727 -0.416616 -0.771353 0.481088 0.102309 0.177001 
-1.39563 1.81457 2.41727 -0.314747 0.776987 0.545184 0.102309 0.177001 
1.39563 2.9909 2.41727 0.314746 -0.776989 0.545182 0.102309 0.177001 
2.79126 2.9909 0 0.629514 -0.776989 -2.06113e-07 0.102309 0.177001 
1.39563 1.81457 2.41727 0.416617 0.771352 0.48109 0.102309 0.177001 
1.39563 2.9909 -2.41727 0.314747 -0.776987 -0.545184 0.102309 0.177001 
1.39563 1.81457 -2.41727 0.314748 0.776986 -0.545185 0.102309 0.177001 
-1.39563 -1.05584 -2.41727 -0.416618 -0.77135 -0.481091 0.102309 0.177001 
-2.79126 -1.05584 0 -0.629516 -0.776988 0 0.102309 0.177001 
-1.39563 -2.23217 -2.41727 -0.416618 0.771349 -0.481092 0.102309 0.177001 
-1.39563 -1.05584 2.41727 -0.314747 -0.776987 0.545184 0.102309 0.177001 
-1.39563 -2.23217 2.41727 -0.314748 0.776986 0.545184 0.102309 0.177001 
1.39563 -1.05584 2.41727 0.416617 -0.771352 0.48109 0.102309 0.177001 
2.79126 -1.05584 0 0.629516 -0.776988 0 0.102309 0.177001 
1.39563 -2.23217 2.41727 0.416617 0.771351 0.48109 0.102309 0.177001 
1.39563 -1.05584 -2.41727 0.314748 -0.776986 -0.545185 0.102309 0.177001 
1.39563 -2.23217 -2.41727 0.314748 0.776986 -0.545185 0.102309 0.177001 
-2.79126 -5.70407 -1e-06 -0.61816 -0.786052 6.32867e-08 0.102309 0.177001 
-1.39563 -5.70407 -2.41727 -0.309093 -0.786031 -0.535366 0.102309 0.177001 
-2.77417 -6.88031 -1e-06 -0.640728 0.767768 1.986e-07 0.102309 0.177001 
-1.39563 -5.70407 2.41727 -0.309092 -0.786033 0.535363 0.102309 0.177001 
1.39563 -5.70407 2.41727 0.204619 -0.780528 0.590684 0.102309 0.177001 
-1.38708 -6.88031 2.40247 -0.211977 0.761981 0.611924 0.102309 0.177001 
2.79126 -5.70407 -1e-06 0.618163 -0.78605 -7.11976e-08 0.102309 0.177001 
2.77417 -6.88031 -1e-06 0.640724 0.767771 2.30376e-07 0.102309 0.177001 
1.39563 -5.70407 -2.41727 0.204619 -0.780529 -0.590682 0.102309 0.177001 
1.38708 -6.88031 -2.40247 0.211979 0.761979 -0.611926 0.102309 0.177001 
-1.38708 -6.88031 -2.40247 -0.320377 0.767747 -0.554909 0.102309 0.177001 
3.30408 14.1064 2e-06 0.952771 -0.303689 -1.51285e-07 0.496536 0.173128 
3.30408 16.4294 4.02369 0.951148 -0.101057 0.291727 0.496536 0.173128 
3.30408 21.0756 4.02369 0.952771 0.151845 0.263003 0.496536 0.173128 
3.30408 23.3987 4e-06 0.952183 0.30351 -0.035051 0.496536 0.173128 
-3.30408 21.0756 -4.02368 -0.951148 0.101057 -0.291727 0.496536 0.173128 
-3.30408 16.4294 -4.02369 -0.952771 -0.151844 -0.263002 0.496536 0.173128 
-3.30408 18.328 4.02369 -0.835456 0.0423287 0.547925 0.496536 0.173128 
-3.30408 21.0756 4.02369 -0.952771 0.151845 0.263003 0.496536 0.173128 
-3.30408 23.3987 4e-06 -0.951148 0.303172 -0.0583454 0.496536 0.173128 
1.67542 16.9627 -3.10006 0.738813 -0.220589 -0.636786 0.467587 0.096331 
1.67542 15.1729 2e-06 0.744878 -0.667201 -7.98424e-09 0.467587 0.096331 
1.67542 16.9627 3.10006 0.738813 -0.220589 0.636786 0.467587 0.096331 
1.67542 20.5424 3.10006 0.744878 0.3336 0.577812 0.467587 0.096331 
1.67542 22.3322 4e-06 0.744878 0.667201 1.35732e-07 0.467587 0.096331 
1.67542 20.5424 -3.10006 0.744879 0.3336 -0.577812 0.467587 0.096331 
-1.67542 16.9627 -3.10006 -0.738813 -0.220589 -0.636786 0.467587 0.096331 
-1.67542 20.5424 -3.10006 -0.744879 0.3336 -0.577812 0.467587 0.096331 
-1.67542 15.1729 2e-06 -0.744878 -0.667201 -7.98424e-09 0.467587 0.096331 
-1.67542 16.9627 3.10006 -0.738813 -0.220589 0.636786 0.467587 0.096331 
-1.67542 22.3322 4e-06 -0.744878 0.6672 1.35732e-07 0.467587 0.096331 
-1.67542 20.5424 3.10006 -0.744878 0.3336 0.577812 0.467587 0.096331 
2.59534 -19.6846 -3.16055 0.952763 -0.151857 -0.263024 0.496536 0.173128 
2.59534 -21.5094 -4e-06 0.952763 -0.303714 -6.0514e-08 0.496536 0.173128 
2.59534 -19.6846 3.16054 0.95114 -0.202131 0.233401 0.496536 0.173128 
2.59534 -16.0352 3.16054 0.95114 0.101066 0.291751 0.496536 0.173128 
2.59534 -14.2104 -2e-06 0.95114 0.303196 0.0583506 0.496536 0.173128 
2.59534 -16.0352 -3.16055 0.95114 0.202131 -0.233401 0.496536 0.173128 
-2.59534 -16.0352 -3.16055 -0.95114 0.101066 -0.291751 0.496536 0.173128 
-2.59534 -19.6846 -3.16055 -0.95114 -0.202131 -0.233401 0.496536 0.173128 
-2.59534 -21.5094 -4e-06 -0.952763 -0.303714 -6.0514e-08 0.496536 0.173128 
-2.59534 -16.0352 3.16054 -0.95114 0.202131 0.233401 0.496536 0.173128 
-2.59534 -14.2104 -2e-06 -0.95114 0.303196 -0.0583504 0.496536 0.173128 
1.31604 -19.2658 -2.43505 0.738829 -0.220583 -0.636769 0.467587 0.096331 
1.31604 -20.6716 -3e-06 0.744896 -0.667181 -7.98422e-09 0.467587 0.096331 
1.31604 -19.2658 2.43504 0.738829 -0.220583 0.636769 0.467587 0.096331 
1.31604 -16.454 2.43504 0.738831 0.441166 0.509414 0.467587 0.096331 
1.31604 -15.0482 -2e-06 0.744896 0.66718 4.79053e-08 0.467587 0.096331 
1.31604 -16.454 -2.43505 0.73883 0.441166 -0.509414 0.467587 0.096331 
-1.31604 -19.2658 -2.43505 -0.738829 -0.220583 -0.636769 0.467587 0.096331 
-1.31604 -16.454 -2.43505 -0.73883 0.441166 -0.509414 0.467587 0.096331 
-1.31604 -20.6716 -3e-06 -0.744896 -0.667181 -7.98422e-09 0.467587 0.096331 
-1.31604 -19.2658 2.43504 -0.738829 -0.220583 0.636769 0.467587 0.096331 
-1.31604 -16.454 2.43504 -0.738831 0.441166 0.509414 0.467587 0.096331 
-1.31604 -15.0482 -2e-06 -0.744896 0.66718 4.79053e-08 0.467587 0.096331 
0.759277 77.5191 5.63933 0.974076 0.0586628 0.218481 0.494657 0.129616 
1.32532 78.6432 5.91794 0.972454 -0.232934 0.00865973 0.494657 0.129616 
-0.755981 76.7167 5.59529 -0.985934 0.0324951 0.163948 0.497021 0.176818 
-1.32532 77.4987 5.91793 -0.954343 -0.295588 -0.043094 0.494657 0.129616 
3.30408 16.4294 -4.02369 0.949128 -0.0756303 -0.305675 0.496536 0.173128 
3.30408 21.0756 -4.02368 0.952753 0.151873 -0.263051 0.496536 0.173128 
-0.709351 30.3412 -3.66947 -0.981346 -0.0387971 -0.188292 0.497021 0.176818 
-1.32532 29.6257 -3.33225 -0.886618 0.14536 -0.439066 0.497021 0.176818 
-1.32532 31.2314 -4.08901 -0.955119 -0.296175 0.00526452 0.494657 0.129616 
-3.30408 16.4294 4.02369 -0.951148 -0.101057 0.291727 0.496536 0.173128 
1.32532 27.6611 2.40637 0.897705 -0.0926686 0.430741 0.497021 0.176818 
-2.76135 7.14658 1e-06 -0.998707 0.0508423 0 0.105431 0.205102 
2.76135 7.14658 1e-06 0.998707 0.0508423 3.44021e-08 0.105431 0.205102 
-1.3457 -9.72404 -2.33094 -0.499779 -0.0290501 -0.865666 0.105431 0.205102 
-1.39563 5.97053 2.41727 -0.306784 0.789645 0.53136 0.102309 0.177001 
-2.79126 1.81457 0 -0.629516 0.776988 0 0.102309 0.177001 
2.79126 1.81457 0 0.629516 0.776988 0 0.102309 0.177001 
-2.79126 -2.23217 0 -0.629516 0.776987 6.34195e-08 0.102309 0.177001 
2.79126 -2.23217 0 0.629516 0.776987 7.92743e-08 0.102309 0.177001 
1.38708 -6.88031 2.40247 0.320373 0.767753 0.554902 0.102309 0.177001 
-3.30408 14.1064 2e-06 -0.855939 0.517076 9.3306e-08 0.496583 0.133845 
-2.59534 -19.6846 3.16054 -0.855929 0.258547 -0.447816 0.496583 0.133845 
3 0 2 3
3 4 373 1
3 7 9 6
3 6 9 10
3 11 9 12
3 13 6 10
3 15 17 18
3 16 19 374
3 0 21 375
3 1 19 4
3 15 14 376
3 0 22 377
3 377 23 0
3 0 23 20
3 20 8 378
3 7 24 25
3 26 28 24
3 24 6 26
3 29 6 379
3 30 32 33
3 34 17 35
3 17 36 35
3 37 36 38
3 37 38 39
3 39 40 33
3 30 33 40
3 19 42 374
3 380 42 41
3 374 42 381
3 43 45 46
3 21 47 46
3 45 21 46
3 382 41 19
3 32 383 48
3 14 34 49
3 14 49 384
3 384 37 50
3 37 39 50
3 27 39 48
3 383 27 48
3 385 43 51
3 47 378 51
3 385 51 378
3 25 24 52
3 24 28 52
3 31 53 54
3 380 41 386
3 44 53 45
3 41 387 386
3 31 388 383
3 44 388 54
3 55 11 389
3 56 10 55
3 58 15 57
3 5 16 390
3 391 15 376
3 60 62 59
3 61 64 62
3 66 68 65
3 69 67 66
3 65 62 66
3 61 68 67
3 60 65 68
3 62 69 66
3 64 70 69
3 70 61 67
3 72 74 71
3 72 71 75
3 76 72 75
3 77 76 75
3 78 77 75
3 79 78 75
3 71 79 75
3 80 81 82
3 81 83 82
3 83 84 82
3 84 85 82
3 85 86 82
3 86 80 82
3 88 80 87
3 89 81 88
3 90 83 89
3 91 84 90
3 92 85 91
3 87 86 92
3 93 88 87
3 95 88 94
3 95 90 89
3 96 91 90
3 98 91 97
3 98 87 92
3 73 76 99
3 99 77 100
3 100 78 101
3 101 79 102
3 102 71 74
3 392 104 393
3 394 104 105
3 394 106 395
3 395 107 396
3 397 107 108
3 397 103 392
3 398 109 110
3 399 109 400
3 401 111 399
3 401 113 112
3 402 113 403
3 398 114 402
3 115 404 405
3 404 117 406
3 117 407 406
3 118 408 407
3 408 120 409
3 115 409 120
3 122 124 121
3 121 126 125
3 125 128 127
3 127 130 129
3 129 132 131
3 123 131 132
3 134 136 133
3 133 138 137
3 137 140 139
3 139 142 141
3 141 144 143
3 135 143 144
3 146 148 145
3 145 150 149
3 149 152 151
3 151 154 153
3 153 156 155
3 147 155 156
3 158 410 157
3 159 410 411
3 159 412 160
3 160 413 161
3 162 413 414
3 414 158 162
3 163 116 415
3 163 416 164
3 116 165 417
3 416 165 164
3 165 418 417
3 165 419 166
3 166 119 418
3 166 420 167
3 119 168 421
3 420 168 167
3 422 168 423
3 415 168 163
3 424 170 425
3 426 170 169
3 170 427 425
3 170 428 171
3 171 429 427
3 428 172 171
3 429 173 430
3 431 173 172
3 173 432 430
3 173 433 174
3 169 433 426
3 169 432 174
3 434 176 435
3 436 176 175
3 176 437 435
3 176 438 177
3 437 178 439
3 438 178 177
3 439 179 440
3 441 179 178
3 179 442 440
3 179 443 180
3 175 443 436
3 175 442 180
3 181 444 445
3 181 446 182
3 444 183 447
3 446 183 182
3 183 448 447
3 449 184 183
3 184 450 448
3 184 451 185
3 450 186 452
3 451 186 185
3 181 453 454
3 181 452 186
3 188 190 187
3 189 192 190
3 193 195 196
3 197 196 195
3 198 199 196
3 191 189 198
3 197 190 192
3 191 197 192
3 189 200 198
3 188 193 200
3 200 199 198
3 187 197 195
3 187 202 188
3 194 201 195
3 194 188 202
3 187 195 201
3 204 206 203
3 207 205 204
3 207 210 208
3 211 210 209
3 210 213 208
3 214 211 209
3 216 217 218
3 219 220 221
3 222 219 221
3 223 222 221
3 224 223 221
3 225 224 221
3 220 225 221
3 226 227 228
3 227 229 228
3 229 230 228
3 230 231 228
3 231 232 228
3 232 226 228
3 234 236 233
3 233 238 234
3 235 240 236
3 239 242 240
3 242 243 244
3 244 238 237
3 245 247 248
3 245 250 246
3 249 252 250
3 252 253 254
3 253 255 254
3 256 255 257
3 257 247 256
3 258 218 217
3 203 455 204
3 207 455 456
3 209 456 457
3 209 458 214
3 206 459 259
3 206 251 460
3 208 251 205
3 210 461 213
3 215 462 211
3 259 463 215
3 234 261 235
3 235 262 239
3 239 263 241
3 241 264 243
3 243 265 238
3 238 260 234
3 250 267 246
3 252 266 250
3 254 268 252
3 256 269 254
3 247 270 256
3 246 271 247
3 464 220 219
3 465 219 222
3 465 223 466
3 466 224 467
3 468 224 225
3 468 220 469
3 470 226 471
3 472 227 470
3 472 230 229
3 473 231 230
3 474 231 475
3 474 226 232
3 273 275 272
3 274 277 275
3 276 279 277
3 278 281 279
3 282 273 272
3 284 281 280
3 287 289 286
3 290 288 287
3 292 291 290
3 295 297 294
3 298 299 300
3 286 301 275
3 294 275 301
3 302 274 303
3 274 273 303
3 303 295 304
3 286 277 287
3 276 289 288
3 277 290 287
3 291 276 288
3 279 292 290
3 293 278 291
3 273 296 295
3 283 297 296
3 297 272 294
3 285 300 281
3 306 281 300
3 305 298 300
3 305 284 307
3 284 299 307
3 293 299 280
3 309 311 308
3 312 310 309
3 314 313 312
3 316 315 314
3 318 317 316
3 308 319 318
3 320 321 322
3 323 320 322
3 324 323 322
3 325 324 322
3 326 325 322
3 321 326 322
3 327 328 329
3 328 330 329
3 330 331 329
3 331 332 329
3 332 333 329
3 333 327 329
3 334 336 337
3 335 338 339
3 336 341 337
3 340 343 341
3 342 345 343
3 344 338 345
3 347 349 346
3 346 351 347
3 350 353 351
3 352 355 353
3 355 356 357
3 357 349 348
3 308 476 309
3 312 476 477
3 312 478 314
3 314 479 316
3 316 480 318
3 318 481 308
3 310 482 311
3 313 483 310
3 313 354 484
3 317 354 315
3 319 485 317
3 311 486 319
3 335 359 336
3 336 360 340
3 340 361 342
3 342 362 344
3 344 363 339
3 339 358 335
3 351 365 347
3 353 364 351
3 355 366 353
3 357 367 355
3 348 368 357
3 347 369 348
3 487 321 320
3 488 320 323
3 488 324 489
3 489 325 490
3 490 326 491
3 492 326 321
3 493 327 494
3 495 328 493
3 495 331 330
3 496 332 331
3 497 333 332
3 494 333 498
3 43 46 51
3 46 47 51
3 298 307 299
3 293 306 299
3 299 306 300
3 37 49 35
3 49 34 35
3 33 48 39
3 32 48 33
3 370 38 36
3 381 42 499
3 499 42 500
3 40 38 370
3 193 196 200
3 196 199 200
3 371 26 29
3 384 50 501
3 501 50 27
3 502 26 371
3 503 218 258
3 258 504 503
3 218 206 216
3 216 206 259
3 215 217 216
3 216 259 215
3 217 458 258
3 258 458 504
3 12 9 372
3 505 23 506
3 372 9 507
3 8 23 505
3 213 508 208
3 212 462 461
3 212 461 210
3 301 303 304
3 294 304 295
3 302 286 289
3 302 303 301
3 0 375 2
3 4 5 373
3 7 507 9
3 11 10 9
3 13 379 6
3 15 509 17
3 16 4 19
3 0 20 21
3 1 382 19
3 15 18 14
3 0 3 22
3 377 506 23
3 20 23 8
3 7 6 24
3 26 502 28
3 29 26 6
3 30 31 32
3 34 18 17
3 37 35 36
3 39 38 40
3 19 41 42
3 380 500 42
3 43 44 45
3 21 20 47
3 382 387 41
3 32 31 383
3 14 18 34
3 384 49 37
3 27 50 39
3 385 44 43
3 47 20 378
3 31 30 53
3 44 54 53
3 31 54 388
3 44 385 388
3 55 10 11
3 56 13 10
3 58 509 15
3 5 4 16
3 391 57 15
3 60 61 62
3 61 63 64
3 66 67 68
3 69 70 67
3 65 59 62
3 61 60 68
3 60 59 65
3 62 64 69
3 64 63 70
3 70 63 61
3 72 73 74
3 88 81 80
3 89 83 81
3 90 84 83
3 91 85 84
3 92 86 85
3 87 80 86
3 93 94 88
3 95 89 88
3 95 96 90
3 96 97 91
3 98 92 91
3 98 93 87
3 73 72 76
3 99 76 77
3 100 77 78
3 101 78 79
3 102 79 71
3 392 103 104
3 394 393 104
3 394 105 106
3 395 106 107
3 397 396 107
3 397 108 103
3 398 400 109
3 399 111 109
3 401 112 111
3 401 403 113
3 402 114 113
3 398 110 114
3 115 510 404
3 404 510 117
3 117 118 407
3 118 511 408
3 408 511 120
3 115 405 409
3 122 123 124
3 121 124 126
3 125 126 128
3 127 128 130
3 129 130 132
3 123 122 131
3 134 135 136
3 133 136 138
3 137 138 140
3 139 140 142
3 141 142 144
3 135 134 143
3 146 147 148
3 145 148 150
3 149 150 152
3 151 152 154
3 153 154 156
3 147 146 155
3 158 512 410
3 159 157 410
3 159 411 412
3 160 412 413
3 162 161 413
3 414 512 158
3 163 164 116
3 163 422 416
3 116 164 165
3 416 513 165
3 165 166 418
3 165 513 419
3 166 167 119
3 166 419 420
3 119 167 168
3 420 423 168
3 422 163 168
3 415 421 168
3 424 169 170
3 426 514 170
3 170 171 427
3 170 514 428
3 171 172 429
3 428 431 172
3 429 172 173
3 431 515 173
3 173 174 432
3 173 515 433
3 169 174 433
3 169 424 432
3 434 175 176
3 436 516 176
3 176 177 437
3 176 516 438
3 437 177 178
3 438 441 178
3 439 178 179
3 441 517 179
3 179 180 442
3 179 517 443
3 175 180 443
3 175 434 442
3 181 182 444
3 181 454 446
3 444 182 183
3 446 449 183
3 183 184 448
3 449 518 184
3 184 185 450
3 184 518 451
3 450 185 186
3 451 453 186
3 181 186 453
3 181 445 452
3 188 189 190
3 189 191 192
3 193 194 195
3 197 198 196
3 191 198 197
3 189 188 200
3 188 194 193
3 187 190 197
3 187 201 202
3 194 202 201
3 204 205 206
3 207 208 205
3 207 209 210
3 211 212 210
3 214 215 211
3 234 235 236
3 233 237 238
3 235 239 240
3 239 241 242
3 242 241 243
3 244 243 238
3 245 246 247
3 245 249 250
3 249 519 252
3 252 519 253
3 256 254 255
3 257 248 247
3 203 503 455
3 207 204 455
3 209 207 456
3 209 457 458
3 206 460 459
3 206 205 251
3 208 508 251
3 215 463 462
3 259 459 463
3 234 260 261
3 235 261 262
3 239 262 263
3 241 263 264
3 243 264 265
3 238 265 260
3 250 266 267
3 252 268 266
3 254 269 268
3 256 270 269
3 247 271 270
3 246 267 271
3 464 469 220
3 465 464 219
3 465 222 223
3 466 223 224
3 468 467 224
3 468 225 220
3 470 227 226
3 472 229 227
3 472 473 230
3 473 475 231
3 474 232 231
3 474 471 226
3 273 274 275
3 274 276 277
3 276 278 279
3 278 280 281
3 282 283 273
3 284 285 281
3 287 288 289
3 290 291 288
3 292 293 291
3 295 296 297
3 294 272 275
3 302 289 274
3 303 273 295
3 286 275 277
3 276 274 289
3 277 279 290
3 291 278 276
3 279 281 292
3 293 280 278
3 273 283 296
3 283 282 297
3 297 282 272
3 285 305 300
3 306 292 281
3 305 285 284
3 284 280 299
3 309 310 311
3 312 313 310
3 314 315 313
3 316 317 315
3 318 319 317
3 308 311 319
3 334 335 336
3 335 334 338
3 336 340 341
3 340 342 343
3 342 344 345
3 344 339 338
3 347 348 349
3 346 350 351
3 350 352 353
3 352 520 355
3 355 520 356
3 357 356 349
3 308 481 476
3 312 309 476
3 312 477 478
3 314 478 479
3 316 479 480
3 318 480 481
3 310 483 482
3 313 484 483
3 313 315 354
3 317 485 354
3 319 486 485
3 311 482 486
3 335 358 359
3 336 359 360
3 340 360 361
3 342 361 362
3 344 362 363
3 339 363 358
3 351 364 365
3 353 366 364
3 355 367 366
3 357 368 367
3 348 369 368
3 347 365 369
3 487 492 321
3 488 487 320
3 488 323 324
3 489 324 325
3 490 325 326
3 492 491 326
3 493 328 327
3 495 330 328
3 495 496 331
3 496 497 332
3 497 498 333
3 494 327 333
3 298 305 307
3 293 292 306
3 503 203 218
3 218 203 206
3 215 214 217
3 217 214 458
3 213 461 508
3 212 211 462
3 294 301 304
3 302 301 286
