ply
format ascii 1.0
comment VCGLIB generated
element vertex 87
property float x
property float y
property float z
property float nx
property float ny
property float nz
property uchar red
property uchar green
property uchar blue
property uchar alpha
property float texture_u
property float texture_v
element face 128
property list uchar int vertex_indices
end_header
13.3064 0 -13.78487 0.6102746 -0.1266973 -0.7819928 192 192 192 255 0.323902 0.383965
0.036876 -0 -19.27074 -0.1434421 -0.5069601 -0.8499505 192 192 192 255 0.324228 0.383854
-13.12585 -0 -13.06152 -0.7659088 0.2349569 -0.5984806 192 192 192 255 0.324562 0.383948
-19.19412 -0 -0.501757 -0.7007772 -0.7088651 0.08013508 192 192 192 255 0.324731 0.384207
-13.94148 -0 13.04123 -0.5912254 0.3051842 0.7465354 192 192 192 255 0.324617 0.384499
-0.240872 0 19.47135 0.09927403 -0.7076387 0.6995656 192 192 192 255 0.324261 0.384638
13.95669 0 13.15059 0.7615356 0.313834 0.5670731 192 192 192 255 0.323893 0.384520
18.93351 0 0.436812 0.8545865 -0.504134 -0.1246228 192 192 192 255 0.323754 0.384233
12.12982 2.659049 -12.12982 0.4389088 0.8394636 -0.320406 192 192 192 255 0.323894 0.383881
0 2.659049 -17.15415 0.06098717 0.8512598 -0.5211884 192 192 192 255 0.324228 0.383769
-12.12982 2.659049 -12.12982 -0.3414513 0.8275997 -0.445522 192 192 192 255 0.324569 0.383863
-17.15415 2.659049 0 -0.4432073 0.8932907 -0.07482721 192 192 192 255 0.324742 0.384125
-12.12982 2.659049 12.12982 -0.5193704 0.7654921 0.379837 192 192 192 255 0.324627 0.384421
0 2.659049 17.15415 -0.05445264 0.9297523 0.3641367 192 192 192 255 0.324262 0.384561
12.12982 2.659049 12.12982 0.3926501 0.7666106 0.5080692 192 192 192 255 0.323884 0.384441
17.15415 2.659049 0 0.4380053 0.8973596 0.05382419 192 192 192 255 0.323742 0.384152
-0.365654 -0 0.208074 0 -1 0 192 192 192 255 0.324243 0.384220
0 2.659049 12.90242 0 0.9608321 0.2771314 192 192 192 255 0.442346 0.031813
-12.90242 2.659049 0 -0.2810742 0.9596861 0 192 192 192 255 0.442899 0.031355
0 2.659049 -12.90242 0 0.9608321 -0.2771314 192 192 192 255 0.442406 0.030854
12.90242 2.659049 0 0.2810742 0.9596861 0 192 192 192 255 0.441855 0.031295
0 4.705834 -5.806088 0 0.9634386 -0.2679294 192 192 192 255 0.442391 0.031051
0 4.705834 5.806088 -3.342076e-09 0.9634386 0.2679294 192 192 192 255 0.442362 0.031531
-5.913977 4.705834 0 -0.2683295 0.9633272 -8.434178e-10 192 192 192 255 0.442502 0.031296
5.913977 4.705834 0 0.2683295 0.9633272 -8.434178e-10 192 192 192 255 0.442252 0.031281
5.301677 2.659049 -5.301677 0.3425794 0.8740259 -0.344555 192 192 192 255 0.442131 0.031074
3.368315 4.705834 -3.306867 0.2178439 0.9504251 -0.2218919 192 192 192 255 0.442322 0.031166
-3.368315 4.705834 3.306867 -0.2178439 0.9504251 0.2218919 192 192 192 255 0.442432 0.031413
-5.301677 2.659049 5.301677 -0.3425794 0.8740259 0.344555 192 192 192 255 0.442623 0.031584
-5.301677 2.659049 -5.301677 -0.3425794 0.8740259 -0.344555 192 192 192 255 0.442653 0.031104
-3.368315 4.705834 -3.306867 -0.2178439 0.9504251 -0.2218919 192 192 192 255 0.442447 0.031173
0 5.111991 0 0 1 0 192 192 192 255 0.442377 0.031290
3.368315 4.705834 3.306867 0.2178439 0.9504251 0.2218919 192 192 192 255 0.442307 0.031406
5.301677 2.659049 5.301677 0.3425794 0.8740259 0.344555 192 192 192 255 0.442101 0.031554
-10.26276 2.659049 -9.826426 -0.5177388 0.7380719 -0.4326622 192 192 192 255 0.441003 0.030017
-13.35634 2.659049 -4.98679 -0.4470655 0.8752875 -0.1844027 192 192 192 255 0.441601 0.029813
-14.34424 2.659049 -1.311235 -0.009792143 0.9771552 0.2123013 192 192 192 255 0.442003 0.030263
-1.881981 2.659049 -14.19815 0.1055983 0.9855822 -0.1322 192 192 192 255 0.441649 0.030754
-5.52699 2.659049 -13.0834 -0.2894739 0.8159478 -0.5004339 192 192 192 255 0.441026 0.030599
-9.893142 3.217221 -9.410496 -0.3441348 0.8617488 -0.3727739 192 192 192 255 0.441157 0.030032
-11.68889 3.217221 -6.424964 -0.4055791 0.8903382 -0.2068899 192 192 192 255 0.441572 0.029891
-12.16907 3.217221 -4.102464 0.03819986 0.9890213 0.1427504 192 192 192 255 0.441849 0.030203
-4.659679 3.217221 -11.86819 0.1709642 0.9818874 0.08166084 192 192 192 255 0.441605 0.030541
-6.967717 3.217221 -11.3073 -0.158859 0.9243266 -0.3469643 192 192 192 255 0.441174 0.030434
-9.0757 3.594971 -8.622683 0.07403833 0.9946821 0.07159504 192 192 192 255 0.441470 0.030173
-8.139868 3.293291 -7.065566 0.1510348 0.9775813 0.1467088 192 192 192 255 0.441727 0.030372
-7.640011 2.659049 -6.530221 0.4193773 0.8086815 0.4125009 192 192 192 255 0.441826 0.030509
-9.826426 2.659049 10.26276 -0.4326622 0.7380719 0.5177388 192 192 192 255 0.441003 0.030017
-4.98679 2.659049 13.35634 -0.1844027 0.8752875 0.4470655 192 192 192 255 0.441601 0.029813
-1.311235 2.659049 14.34424 0.2123013 0.9771552 0.009792143 192 192 192 255 0.442003 0.030263
-14.19815 2.659049 1.881981 -0.1322 0.9855822 -0.1055983 192 192 192 255 0.441649 0.030754
-13.0834 2.659049 5.52699 -0.5004339 0.8159478 0.2894739 192 192 192 255 0.441026 0.030599
-9.410496 3.217221 9.893142 -0.3727739 0.8617488 0.3441348 192 192 192 255 0.441157 0.030032
-6.424964 3.217221 11.68889 -0.2068899 0.8903382 0.4055791 192 192 192 255 0.441572 0.029891
-4.102464 3.217221 12.16907 0.1427504 0.9890213 -0.03819986 192 192 192 255 0.441849 0.030203
-11.86819 3.217221 4.659679 0.08166084 0.9818874 -0.1709642 192 192 192 255 0.441605 0.030541
-11.3073 3.217221 6.967717 -0.3469643 0.9243266 0.158859 192 192 192 255 0.441174 0.030434
-8.622683 3.594971 9.0757 0.07159504 0.9946821 -0.07403833 192 192 192 255 0.441470 0.030173
-7.065566 3.293291 8.139868 0.1467088 0.9775813 -0.1510348 192 192 192 255 0.441727 0.030372
-6.530221 2.659049 7.640011 0.4125009 0.8086815 -0.4193772 192 192 192 255 0.441826 0.030509
10.26276 2.659049 9.826426 0.5177388 0.7380719 0.4326622 192 192 192 255 0.441003 0.030017
13.35634 2.659049 4.98679 0.4470655 0.8752875 0.1844027 192 192 192 255 0.441601 0.029813
14.34424 2.659049 1.311235 0.009792143 0.9771552 -0.2123013 192 192 192 255 0.442003 0.030263
1.881981 2.659049 14.19815 -0.1055983 0.9855822 0.1322 192 192 192 255 0.441649 0.030754
5.52699 2.659049 13.0834 0.2894739 0.8159478 0.5004339 192 192 192 255 0.441026 0.030599
9.893142 3.217221 9.410496 0.3441348 0.8617488 0.3727739 192 192 192 255 0.441157 0.030032
11.68889 3.217221 6.424964 0.4055791 0.8903382 0.2068899 192 192 192 255 0.441572 0.029891
12.16907 3.217221 4.102464 -0.03819986 0.9890213 -0.1427504 192 192 192 255 0.441849 0.030203
4.659679 3.217221 11.86819 -0.1709642 0.9818874 -0.08166084 192 192 192 255 0.441605 0.030541
6.967717 3.217221 11.3073 0.158859 0.9243266 0.3469643 192 192 192 255 0.441174 0.030434
9.0757 3.594971 8.622683 -0.07403833 0.9946821 -0.07159504 192 192 192 255 0.441470 0.030173
8.139868 3.293291 7.065566 -0.1510348 0.9775813 -0.1467088 192 192 192 255 0.441727 0.030372
7.640011 2.659049 6.530221 -0.4193773 0.8086815 -0.4125009 192 192 192 255 0.441826 0.030509
9.826426 2.659049 -10.26276 0.4326622 0.7380719 -0.5177388 192 192 192 255 0.441003 0.030017
4.98679 2.659049 -13.35634 0.1844027 0.8752875 -0.4470655 192 192 192 255 0.441601 0.029813
1.311235 2.659049 -14.34424 -0.2123013 0.9771552 -0.009792143 192 192 192 255 0.442003 0.030263
14.19815 2.659049 -1.881981 0.1322 0.9855822 0.1055983 192 192 192 255 0.441649 0.030754
13.0834 2.659049 -5.52699 0.5004339 0.8159478 -0.2894739 192 192 192 255 0.441026 0.030599
9.410496 3.217221 -9.893142 0.3727739 0.8617488 -0.3441348 192 192 192 255 0.441157 0.030032
6.424964 3.217221 -11.68889 0.2068899 0.8903382 -0.4055791 192 192 192 255 0.441572 0.029891
4.102464 3.217221 -12.16907 -0.1427504 0.9890213 0.03819986 192 192 192 255 0.441849 0.030203
11.86819 3.217221 -4.659679 -0.08166084 0.9818874 0.1709642 192 192 192 255 0.441605 0.030541
11.3073 3.217221 -6.967717 0.3469643 0.9243266 -0.158859 192 192 192 255 0.441174 0.030434
8.622683 3.594971 -9.0757 -0.07159504 0.9946821 0.07403833 192 192 192 255 0.441470 0.030173
7.065566 3.293291 -8.139868 -0.1467088 0.9775813 0.1510348 192 192 192 255 0.441727 0.030372
6.530221 2.659049 -7.640011 -0.4125009 0.8086815 0.4193772 192 192 192 255 0.441826 0.030509
1e-06 2.659049 0 0 1 0 192 192 192 255 0.324242 0.384138
3 0 1 9 
3 0 9 8 
3 1 2 10 
3 1 10 9 
3 2 3 11 
3 2 11 10 
3 3 4 12 
3 3 12 11 
3 4 5 13 
3 4 13 12 
3 5 6 14 
3 5 14 13 
3 6 7 15 
3 6 15 14 
3 7 0 8 
3 7 8 15 
3 5 16 7 
3 5 7 6 
3 8 9 86 
3 8 86 15 
3 0 7 16 
3 0 16 1 
3 3 16 5 
3 3 5 4 
3 1 16 3 
3 1 3 2 
3 33 20 24 
3 25 24 20 
3 19 29 21 
3 28 17 22 
3 32 24 31 
3 21 25 19 
3 31 26 21 
3 18 28 23 
3 29 18 23 
3 27 31 23 
3 22 32 31 
3 17 33 22 
3 28 22 27 
3 23 28 27 
3 29 23 30 
3 21 29 30 
3 21 26 25 
3 26 24 25 
3 33 24 32 
3 22 33 32 
3 31 21 30 
3 22 31 27 
3 31 24 26 
3 23 31 30 
3 40 39 34 
3 40 34 35 
3 41 40 35 
3 41 35 36 
3 42 45 46 
3 42 46 37 
3 43 42 37 
3 43 37 38 
3 39 43 38 
3 39 38 34 
3 44 39 40 
3 44 40 41 
3 44 45 42 
3 44 42 43 
3 44 43 39 
3 41 45 44 
3 46 45 41 
3 46 41 36 
3 53 52 47 
3 53 47 48 
3 54 53 48 
3 54 48 49 
3 55 58 59 
3 55 59 50 
3 56 55 50 
3 56 50 51 
3 52 56 51 
3 52 51 47 
3 57 52 53 
3 57 53 54 
3 57 58 55 
3 57 55 56 
3 57 56 52 
3 54 58 57 
3 59 58 54 
3 59 54 49 
3 66 65 60 
3 66 60 61 
3 67 66 61 
3 67 61 62 
3 68 71 72 
3 68 72 63 
3 69 68 63 
3 69 63 64 
3 65 69 64 
3 65 64 60 
3 70 65 66 
3 70 66 67 
3 70 71 68 
3 70 68 69 
3 70 69 65 
3 67 71 70 
3 72 71 67 
3 72 67 62 
3 79 78 73 
3 79 73 74 
3 80 79 74 
3 80 74 75 
3 81 84 85 
3 81 85 76 
3 82 81 76 
3 82 76 77 
3 78 82 77 
3 78 77 73 
3 83 78 79 
3 83 79 80 
3 83 84 81 
3 83 81 82 
3 83 82 78 
3 80 84 83 
3 85 84 80 
3 85 80 75 
3 15 86 13 
3 15 13 14 
3 86 9 10 
3 86 10 11 
3 13 86 11 
3 13 11 12 
