ply
format ascii 1.0
comment VCGLIB generated
element vertex 9
property float x
property float y
property float z
property float nx
property float ny
property float nz
property uchar red
property uchar green
property uchar blue
property uchar alpha
property float texture_u
property float texture_v
element face 14
property list uchar int vertex_indices
end_header
0 -5.171207 0 0 -1 0 192 192 192 255 0.442377 0.031392
5 0 5 0.4316537 -0.7952085 0.4258152 192 192 192 255 0.442346 0.031813
-5 0 5 -0.4258152 -0.7952085 0.4316537 192 192 192 255 0.442877 0.031352
-5 0 -5 -0.4316537 -0.7952085 -0.4258152 192 192 192 255 0.442406 0.030854
5 0 -5 0.4258152 -0.7952085 -0.4316537 192 192 192 255 0.441877 0.031295
-3.25 1.809923 -3.25 -0.206643 0.8868446 -0.413286 192 192 192 255 0.442391 0.031051
3.25 1.809923 -3.25 0.3275047 0.9305514 -0.1637524 192 192 192 255 0.442127 0.031272
3.25 1.809923 3.25 0.206643 0.8868446 0.413286 192 192 192 255 0.442362 0.031531
-3.25 1.809923 3.25 -0.3275047 0.9305514 0.1637524 192 192 192 255 0.442627 0.031300
3 0 1 2 
3 3 4 0 
3 0 4 1 
3 0 2 3 
3 8 7 6 
3 8 6 5 
3 2 1 7 
3 2 7 8 
3 1 4 6 
3 1 6 7 
3 5 6 4 
3 5 4 3 
3 3 2 8 
3 3 8 5 
