ply
format ascii 1.0
comment VCGLIB generated
element vertex 193
property float x
property float y
property float z
property float nx
property float ny
property float nz
property uchar red
property uchar green
property uchar blue
property uchar alpha
property float texture_u
property float texture_v
element face 304
property list uchar int vertex_indices
end_header
13.49197 -0 -13.37029 0.5947338 -0.1564599 -0.7885507 192 192 192 255 0.323902 0.383965
-0.373113 -0 -19.37452 -0.1052018 -0.4813242 -0.8702067 192 192 192 255 0.324228 0.383854
-13.91261 -0 -13.8212 -0.7598069 0.333952 -0.5578259 192 192 192 255 0.324562 0.383948
-19.08972 -0 -0.175544 -0.7007931 -0.7061468 0.1012213 192 192 192 255 0.324731 0.384207
-13.70182 0 13.3994 -0.5879542 0.2613096 0.7655241 192 192 192 255 0.324617 0.384499
-0.005945 0 19.23708 0.1249971 -0.5095642 0.8513049 192 192 192 255 0.324261 0.384638
13.61731 0 13.25353 0.7844984 -0.1490101 0.601962 192 192 192 255 0.323893 0.384520
19.39383 0 -0.104853 0.9802439 -0.1375759 -0.1421084 192 192 192 255 0.323754 0.384233
12.10297 2.891814 -12.10297 0.05655279 0.9974396 -0.04377244 192 192 192 255 0.323893 0.383880
0 2.891814 -17.11618 0.007969107 0.9986893 -0.0505597 192 192 192 255 0.324228 0.383769
-12.10297 2.891814 -12.10297 -0.0410929 0.9977301 -0.05334933 192 192 192 255 0.324570 0.383859
-17.11618 2.891814 0 -0.05039721 0.9987102 -0.006169986 192 192 192 255 0.324740 0.384123
-12.10297 2.891814 12.10297 -0.0575043 0.9974248 0.04286104 192 192 192 255 0.324633 0.384421
0 2.891814 17.11618 -0.006990133 0.9986508 0.05145644 192 192 192 255 0.324265 0.384559
12.10297 2.891814 12.10297 0.04372639 0.9973817 0.05759919 192 192 192 255 0.323883 0.384446
17.11618 2.891814 0 0.0505777 0.9986951 0.007065909 192 192 192 255 0.323745 0.384154
6.131032 2.891814 -9.337964 0.01044169 0.9986992 -0.0499096 192 192 192 255 0.324005 0.383843
2.267642 2.891814 -9.337964 -0.04370021 0.9928812 -0.1108026 192 192 192 255 0.324117 0.383806
-2.267643 2.891814 -9.337964 0.04394148 0.9896982 -0.1362595 192 192 192 255 0.324341 0.383800
-6.131035 2.891814 -9.337964 -0.02018342 0.9990253 -0.03925595 192 192 192 255 0.324455 0.383832
-9.337965 2.891814 -6.131033 -0.04990959 0.9986992 -0.01044168 192 192 192 255 0.324627 0.383951
-9.337965 2.891814 -2.267643 -0.1110127 0.9928541 0.0437831 192 192 192 255 0.324685 0.384038
-9.337965 2.891814 2.267642 -0.1365183 0.9896588 -0.04402501 192 192 192 255 0.324704 0.384223
-9.337965 2.891814 6.131033 -0.03925595 0.9990254 0.02018342 192 192 192 255 0.324665 0.384322
-6.131035 2.891814 9.337963 -0.01044168 0.9986992 0.04990963 192 192 192 255 0.324505 0.384467
-2.267643 2.891814 9.337963 0.04370023 0.9928812 0.1108027 192 192 192 255 0.324383 0.384514
2.267642 2.891814 9.337963 -0.04394148 0.9896982 0.1362595 192 192 192 255 0.324136 0.384521
6.131032 2.891814 9.337964 0.02018342 0.9990253 0.03925597 192 192 192 255 0.324010 0.384481
9.337964 2.891814 6.131033 0.04990962 0.9986992 0.01044167 192 192 192 255 0.323837 0.384345
9.337963 2.891814 2.267643 0.1110127 0.9928541 -0.0437831 192 192 192 255 0.323790 0.384248
9.337963 2.891814 -2.267643 0.1365183 0.9896588 0.04402499 192 192 192 255 0.323793 0.384061
9.337963 2.891814 -6.131033 0.03925597 0.9990254 -0.02018343 192 192 192 255 0.323844 0.383971
3.475746 3.748869 -7.000011 -0.01623636 0.9993057 0.0335353 192 192 192 255 0.324005 0.383843
7.000012 3.748869 -3.475744 -0.03560217 0.9993432 0.006766179 192 192 192 255 0.323844 0.383971
0.964143 3.748869 -7.000011 -0.1293388 0.9648455 -0.2287893 192 192 192 255 0.324117 0.383806
-0.96414 3.748869 -7.000011 0.1454696 0.9521289 -0.2688666 192 192 192 255 0.324341 0.383800
-3.475747 3.748869 -7.000011 0.01014866 0.9985216 0.05340001 192 192 192 255 0.324455 0.383832
-7.000011 3.748869 -3.475744 0.02095737 0.9997289 0.01014666 192 192 192 255 0.324627 0.383951
-7.000011 3.748869 -0.88324 -0.20019 0.972482 0.1191759 192 192 192 255 0.324685 0.384038
-7.000011 3.748869 0.883241 -0.2338438 0.963144 -0.1329311 192 192 192 255 0.324704 0.384223
-7.000011 3.748869 3.475744 0.03560215 0.9993432 -0.006766179 192 192 192 255 0.324665 0.384322
-3.475747 3.748869 7.000011 0.01353 0.9995179 -0.02794545 192 192 192 255 0.324505 0.384467
-0.96414 3.748869 7.000011 0.1459833 0.9549896 0.2582323 192 192 192 255 0.324383 0.384514
0.964143 3.748869 7.000011 -0.1289744 0.9625701 0.2383789 192 192 192 255 0.324136 0.384521
3.475747 3.748869 7.000012 -0.01014866 0.9985216 -0.05340004 192 192 192 255 0.324010 0.384481
7.000013 3.748869 3.475744 -0.02395231 0.9996459 -0.01159667 192 192 192 255 0.323837 0.384345
7.000012 3.748869 0.883241 0.2001901 0.9724819 -0.1191759 192 192 192 255 0.323790 0.384248
7.000012 3.748869 -0.88324 0.2338442 0.9631439 0.1329311 192 192 192 255 0.323793 0.384061
-8.134621 3.847305 4.763949 -0.2496599 0.9673313 0.04404655 192 192 192 255 0.324665 0.384322
-8.134621 3.847305 1.554795 -0.413138 0.8628109 -0.2913321 192 192 192 255 0.324704 0.384223
-8.134621 3.847305 -1.554795 -0.4978732 0.8187826 0.2858625 192 192 192 255 0.324685 0.384038
-8.134621 3.847305 -4.76395 -0.187772 0.9761769 -0.1087218 192 192 192 255 0.324627 0.383951
-4.76395 3.847305 -8.134621 -0.04404656 0.9673313 -0.2496601 192 192 192 255 0.324455 0.383832
-1.596463 3.847305 -8.134621 0.2888852 0.8678616 -0.4041802 192 192 192 255 0.324341 0.383800
1.596465 3.847305 -8.134621 -0.2837845 0.8249118 -0.4888628 192 192 192 255 0.324117 0.383806
4.76395 3.847305 -8.134621 0.1087219 0.9761769 -0.1877721 192 192 192 255 0.324005 0.383843
8.134621 3.847305 -4.76395 0.2496602 0.9673312 -0.0440466 192 192 192 255 0.323844 0.383971
8.134621 3.847305 -1.554795 0.4131386 0.8628106 0.2913322 192 192 192 255 0.323793 0.384061
8.134621 3.847305 1.554795 0.4978737 0.8187822 -0.2858627 192 192 192 255 0.323790 0.384248
8.134623 3.847305 4.76395 0.1877723 0.9761768 0.108722 192 192 192 255 0.323837 0.384345
4.763951 3.847305 8.134621 0.04404658 0.9673312 0.2496602 192 192 192 255 0.324010 0.384481
1.596465 3.847305 8.134621 -0.288885 0.8678618 0.4041799 192 192 192 255 0.324136 0.384521
-1.596463 3.847305 8.134621 0.2837848 0.8249113 0.4888636 192 192 192 255 0.324383 0.384514
-4.76395 3.847305 8.134621 -0.1087218 0.9761769 0.1877721 192 192 192 255 0.324505 0.384467
-8.186936 2.891814 -0 -0.1352167 0.9908161 2.361898e-09 192 192 192 255 0.324694 0.384131
-1e-06 2.891814 8.186935 0 0.9908059 0.1352911 192 192 192 255 0.324260 0.384518
8.186934 2.891814 -0 0.1352166 0.9908161 0 192 192 192 255 0.323791 0.384155
-1e-06 2.891814 -8.186936 -2.344136e-09 0.9908059 -0.1352911 192 192 192 255 0.324229 0.383803
-0.487648 -0 -0.146868 0 -1 0 192 192 192 255 0.324245 0.384246
-10.17959 3.760555 -8.514926 -0.1605042 0.8740053 0.4586428 192 192 192 255 0.408602 0.028875
-8.706049 3.737628 -8.706049 0.3671547 0.8564835 0.3628134 192 192 192 255 0.408859 0.028825
-8.514925 3.745109 -10.17959 0.4632078 0.8713152 -0.1620136 192 192 192 255 0.409099 0.028908
-9.473781 3.720105 -10.93954 0.1432157 0.8427057 -0.5189763 192 192 192 255 0.409133 0.029180
-10.93954 3.720105 -9.473781 -0.5207833 0.8420958 0.1402122 192 192 192 255 0.408491 0.029134
-10.1346 2.891814 -7.63857 -0.2219892 0.718767 0.6588588 192 192 192 255 0.408637 0.029160
-7.63857 2.891814 -10.1346 0.6565374 0.7211674 -0.2210802 192 192 192 255 0.409063 0.029201
-9.049476 2.891814 -11.77598 0.2065942 0.7149636 -0.6679417 192 192 192 255 0.409128 0.029455
-11.34574 2.891814 -11.34574 -0.4731708 0.7431142 -0.4731708 192 192 192 255 0.408790 0.029565
-11.77598 2.891814 -9.049476 -0.6701883 0.7128314 0.2066862 192 192 192 255 0.408498 0.029401
-9.556438 4.187078 -9.556438 -0.006078018 0.9999177 -0.01129946 192 192 192 255 0.408824 0.029071
-8.020154 2.891814 -8.020154 0.4535441 0.7675601 0.452934 192 192 192 255 0.408860 0.029115
-10.67128 3.720105 -10.67128 -0.3026104 0.9037998 -0.3026104 192 192 192 255 0.408812 0.029157
1.033613 3.760555 10.51787 0.3259106 0.9367645 -0.1274932 192 192 192 255 0.408602 0.028875
0 3.737628 9.528321 -0.005023222 0.9552929 -0.2956184 192 192 192 255 0.408859 0.028825
-1.033613 3.745109 10.51787 -0.3316106 0.9345323 -0.1291653 192 192 192 255 0.409099 0.028908
-1.474621 3.720105 13.85558 -0.3770848 0.9046684 0.1984496 192 192 192 255 0.409133 0.029180
1.474622 3.720105 13.85558 0.3763227 0.9045615 0.200374 192 192 192 255 0.408491 0.029134
1.549816 2.891814 9.806931 0.6358102 0.7053828 -0.3133379 192 192 192 255 0.408637 0.029160
-1.549816 2.891814 9.806931 -0.6339753 0.7078206 -0.3115533 192 192 192 255 0.409063 0.029201
-2.343906 2.891814 14.09854 -0.6174108 0.7126399 0.3330892 192 192 192 255 0.409128 0.029455
-0.970878 2.891814 15.47157 -0.2422762 0.7839662 0.5715762 192 192 192 255 0.408923 0.029577
0.970878 2.891814 15.47157 0.2422762 0.7839662 0.5715762 192 192 192 255 0.408657 0.029554
2.343906 2.891814 14.09854 0.6185121 0.7115492 0.3333776 192 192 192 255 0.408498 0.029401
0 4.187078 12.63461 -0.003224626 0.9999743 0.006404249 192 192 192 255 0.408824 0.029071
0 2.891814 8.217488 -0.0002998997 0.8292542 -0.5588716 192 192 192 255 0.408860 0.029115
0 3.720105 14.51265 0 0.9043826 0.4267226 192 192 192 255 0.408812 0.029157
8.514926 3.760555 -10.17959 -0.4586428 0.8740054 -0.1605042 192 192 192 255 0.408602 0.028875
8.706049 3.737628 -8.706049 -0.3628134 0.8564835 0.3671547 192 192 192 255 0.408859 0.028825
10.17959 3.745109 -8.514925 0.1620136 0.8713152 0.4632078 192 192 192 255 0.409099 0.028908
10.93954 3.720105 -9.473781 0.5189763 0.8427057 0.1432157 192 192 192 255 0.409133 0.029180
9.473781 3.720105 -10.93954 -0.1402122 0.8420958 -0.5207833 192 192 192 255 0.408491 0.029134
7.63857 2.891814 -10.1346 -0.6588588 0.718767 -0.2219892 192 192 192 255 0.408637 0.029160
10.1346 2.891814 -7.63857 0.2210801 0.7211674 0.6565374 192 192 192 255 0.409063 0.029201
11.77598 2.891814 -9.049476 0.6679417 0.7149635 0.2065942 192 192 192 255 0.409128 0.029455
11.34574 2.891814 -11.34574 0.4731708 0.7431142 -0.4731708 192 192 192 255 0.408790 0.029565
9.049476 2.891814 -11.77598 -0.2066862 0.7128314 -0.6701883 192 192 192 255 0.408498 0.029401
9.556438 4.187078 -9.556438 0.01129946 0.9999177 -0.006078018 192 192 192 255 0.408824 0.029071
8.020154 2.891814 -8.020154 -0.452934 0.7675601 0.4535441 192 192 192 255 0.408860 0.029115
10.67128 3.720105 -10.67128 0.3026104 0.9037998 -0.3026104 192 192 192 255 0.408812 0.029157
10.51787 3.760555 -1.033613 -0.1274932 0.9367645 -0.3259106 192 192 192 255 0.408602 0.028875
9.528321 3.737628 -0 -0.2956184 0.9552929 0.005023222 192 192 192 255 0.408859 0.028825
10.51787 3.745109 1.033613 -0.1291653 0.9345323 0.3316106 192 192 192 255 0.409099 0.028908
13.85558 3.720105 1.474621 0.1984496 0.9046684 0.3770848 192 192 192 255 0.409133 0.029180
13.85558 3.720105 -1.474622 0.200374 0.9045615 -0.3763227 192 192 192 255 0.408491 0.029134
9.806931 2.891814 -1.549816 -0.3133378 0.7053828 -0.6358101 192 192 192 255 0.408637 0.029160
9.806931 2.891814 1.549816 -0.3115533 0.7078206 0.6339753 192 192 192 255 0.409063 0.029201
14.09854 2.891814 2.343906 0.3330892 0.7126399 0.6174108 192 192 192 255 0.409128 0.029455
15.47157 2.891814 0.970878 0.5715762 0.7839662 0.2422762 192 192 192 255 0.408923 0.029577
15.47157 2.891814 -0.970878 0.5715762 0.7839662 -0.2422762 192 192 192 255 0.408657 0.029554
14.09854 2.891814 -2.343906 0.3333776 0.7115492 -0.6185121 192 192 192 255 0.408498 0.029401
12.63461 4.187078 -0 0.006404249 0.9999743 0.003224626 192 192 192 255 0.408824 0.029071
8.217488 2.891814 -0 -0.5588716 0.8292542 0.0002998997 192 192 192 255 0.408860 0.029115
14.51265 3.720105 -0 0.4267226 0.9043826 0 192 192 192 255 0.408812 0.029157
-10.51787 3.760555 1.033613 0.1274932 0.9367645 0.3259106 192 192 192 255 0.408602 0.028875
-9.528321 3.737628 0 0.2956184 0.9552929 -0.005023222 192 192 192 255 0.408859 0.028825
-10.51787 3.745109 -1.033613 0.1291653 0.9345323 -0.3316106 192 192 192 255 0.409099 0.028908
-13.85558 3.720105 -1.474621 -0.1984496 0.9046684 -0.3770848 192 192 192 255 0.409133 0.029180
-13.85558 3.720105 1.474622 -0.200374 0.9045615 0.3763227 192 192 192 255 0.408491 0.029134
-9.806931 2.891814 1.549816 0.3133378 0.7053828 0.6358101 192 192 192 255 0.408637 0.029160
-9.806931 2.891814 -1.549816 0.3115533 0.7078206 -0.6339753 192 192 192 255 0.409063 0.029201
-14.09854 2.891814 -2.343906 -0.3330892 0.7126399 -0.6174108 192 192 192 255 0.409128 0.029455
-15.47157 2.891814 -0.970878 -0.5715762 0.7839662 -0.2422762 192 192 192 255 0.408923 0.029577
-15.47157 2.891814 0.970878 -0.5715762 0.7839662 0.2422762 192 192 192 255 0.408657 0.029554
-14.09854 2.891814 2.343906 -0.3333776 0.7115492 0.6185121 192 192 192 255 0.408498 0.029401
-12.63461 4.187078 0 -0.006404249 0.9999743 -0.003224626 192 192 192 255 0.408824 0.029071
-8.217488 2.891814 0 0.5588716 0.8292542 -0.0002998997 192 192 192 255 0.408860 0.029115
-14.51265 3.720105 0 -0.4267226 0.9043826 0 192 192 192 255 0.408812 0.029157
-1.033613 3.760555 -10.51787 -0.3259106 0.9367645 0.1274932 192 192 192 255 0.408602 0.028875
-0 3.737628 -9.528321 0.005023222 0.9552929 0.2956184 192 192 192 255 0.408859 0.028825
1.033613 3.745109 -10.51787 0.3316106 0.9345323 0.1291653 192 192 192 255 0.409099 0.028908
1.474621 3.720105 -13.85558 0.3770848 0.9046684 -0.1984496 192 192 192 255 0.409133 0.029180
-1.474622 3.720105 -13.85558 -0.3763227 0.9045615 -0.200374 192 192 192 255 0.408491 0.029134
-1.549816 2.891814 -9.806931 -0.6358102 0.7053828 0.3133379 192 192 192 255 0.408637 0.029160
1.549816 2.891814 -9.806931 0.6339753 0.7078206 0.3115533 192 192 192 255 0.409063 0.029201
2.343906 2.891814 -14.09854 0.6174108 0.7126399 -0.3330892 192 192 192 255 0.409128 0.029455
0.970878 2.891814 -15.47157 0.2422762 0.7839662 -0.5715762 192 192 192 255 0.408923 0.029577
-0.970878 2.891814 -15.47157 -0.2422762 0.7839662 -0.5715762 192 192 192 255 0.408657 0.029554
-2.343906 2.891814 -14.09854 -0.6185121 0.7115492 -0.3333776 192 192 192 255 0.408498 0.029401
-0 4.187078 -12.63461 0.003224626 0.9999743 -0.006404249 192 192 192 255 0.408824 0.029071
-0 2.891814 -8.217488 0.0002998997 0.8292542 0.5588716 192 192 192 255 0.408860 0.029115
-0 3.720105 -14.51265 0 0.9043826 -0.4267226 192 192 192 255 0.408812 0.029157
-4.344034 5.038123 2.172237 -0.1740858 0.9837523 0.0438819 192 192 192 255 0.408224 0.033212
-2.172234 5.038123 4.344036 -0.1225833 0.9446094 0.3044445 192 192 192 255 0.408064 0.033238
4.344034 5.038123 2.172237 0.2142098 0.9690147 0.1229828 192 192 192 255 0.407698 0.033177
2.172234 5.038123 4.344036 0.07689846 0.9785766 0.1909829 192 192 192 255 0.407795 0.033219
-4.344034 5.038123 -2.172237 -0.1784368 0.9786038 -0.1024447 192 192 192 255 0.408268 0.033145
-2.172234 5.038123 -4.344036 -0.07670292 0.9494858 -0.3042916 192 192 192 255 0.408163 0.033106
2.172234 5.038123 -4.344036 0.1229828 0.9690146 -0.2142097 192 192 192 255 0.407915 0.033091
4.344034 5.038123 -2.172237 0.203385 0.9777557 -0.05126736 192 192 192 255 0.407763 0.033113
-6.950793 3.748869 3.475744 -0.3513205 0.9142705 0.2017013 192 192 192 255 0.408412 0.033424
-6.950793 3.748869 -3.475744 -0.4000891 0.9109105 -0.1008506 192 192 192 255 0.408474 0.033293
-3.475747 3.748869 -6.950793 -0.2017013 0.9142705 -0.3513205 192 192 192 255 0.408286 0.033219
3.475747 3.748869 -6.950793 0.1008507 0.9109104 -0.4000892 192 192 192 255 0.407864 0.033191
6.950793 3.748869 -3.475744 0.3513205 0.9142705 -0.2017013 192 192 192 255 0.407602 0.033232
6.950793 3.748869 3.475744 0.4000891 0.9109105 0.1008506 192 192 192 255 0.407474 0.033353
3.475747 3.748869 6.950793 0.1515141 0.9140267 0.3762961 192 192 192 255 0.407638 0.033440
-3.475747 3.748869 6.950793 -0.1515141 0.9140267 0.3762961 192 192 192 255 0.408125 0.033478
10.17959 3.760555 8.514926 0.1605042 0.8740053 -0.4586428 192 192 192 255 0.408602 0.028875
8.706049 3.737628 8.706049 -0.3671547 0.8564835 -0.3628134 192 192 192 255 0.408859 0.028825
8.514925 3.745109 10.17959 -0.4632078 0.8713152 0.1620136 192 192 192 255 0.409099 0.028908
9.473781 3.720105 10.93954 -0.1432157 0.8427057 0.5189763 192 192 192 255 0.409133 0.029180
10.93954 3.720105 9.473781 0.5207833 0.8420958 -0.1402122 192 192 192 255 0.408491 0.029134
10.1346 2.891814 7.63857 0.2219892 0.718767 -0.6588588 192 192 192 255 0.408637 0.029160
7.63857 2.891814 10.1346 -0.6565374 0.7211674 0.2210802 192 192 192 255 0.409063 0.029201
9.049476 2.891814 11.77598 -0.2065942 0.7149636 0.6679417 192 192 192 255 0.409128 0.029455
11.34574 2.891814 11.34574 0.4731708 0.7431142 0.4731708 192 192 192 255 0.408790 0.029565
11.77598 2.891814 9.049476 0.6701883 0.7128314 -0.2066862 192 192 192 255 0.408498 0.029401
9.556438 4.187078 9.556438 0.006078018 0.9999177 0.01129946 192 192 192 255 0.408824 0.029071
8.020154 2.891814 8.020154 -0.4535441 0.7675601 -0.452934 192 192 192 255 0.408860 0.029115
10.67128 3.720105 10.67128 0.3026104 0.9037998 0.3026104 192 192 192 255 0.408812 0.029157
-8.514926 3.760555 10.17959 0.4586428 0.8740054 0.1605042 192 192 192 255 0.408602 0.028875
-8.706049 3.737628 8.706049 0.3628134 0.8564835 -0.3671547 192 192 192 255 0.408859 0.028825
-10.17959 3.745109 8.514925 -0.1620136 0.8713152 -0.4632078 192 192 192 255 0.409099 0.028908
-10.93954 3.720105 9.473781 -0.5189763 0.8427057 -0.1432157 192 192 192 255 0.409133 0.029180
-9.473781 3.720105 10.93954 0.1402122 0.8420958 0.5207833 192 192 192 255 0.408491 0.029134
-7.63857 2.891814 10.1346 0.6588588 0.718767 0.2219892 192 192 192 255 0.408637 0.029160
-10.1346 2.891814 7.63857 -0.2210801 0.7211674 -0.6565374 192 192 192 255 0.409063 0.029201
-11.77598 2.891814 9.049476 -0.6679417 0.7149635 -0.2065942 192 192 192 255 0.409128 0.029455
-11.34574 2.891814 11.34574 -0.4731708 0.7431142 0.4731708 192 192 192 255 0.408790 0.029565
-9.049476 2.891814 11.77598 0.2066862 0.7128314 0.6701883 192 192 192 255 0.408498 0.029401
-9.556438 4.187078 9.556438 -0.01129946 0.9999177 0.006078018 192 192 192 255 0.408824 0.029071
-8.020154 2.891814 8.020154 0.452934 0.7675601 -0.4535441 192 192 192 255 0.408860 0.029115
-10.67128 3.720105 10.67128 -0.3026104 0.9037998 0.3026104 192 192 192 255 0.408812 0.029157
3 0 1 9 
3 0 9 8 
3 1 2 10 
3 1 10 9 
3 2 3 11 
3 2 11 10 
3 3 4 12 
3 3 12 11 
3 4 5 13 
3 4 13 12 
3 5 6 14 
3 5 14 13 
3 6 7 15 
3 6 15 14 
3 7 0 8 
3 7 8 15 
3 68 7 6 
3 68 6 5 
3 31 8 16 
3 17 9 67 
3 8 9 17 
3 8 17 16 
3 19 10 20 
3 9 10 19 
3 9 19 18 
3 64 11 22 
3 10 11 21 
3 10 21 20 
3 23 12 24 
3 11 12 23 
3 11 23 22 
3 25 13 65 
3 12 13 25 
3 12 25 24 
3 27 14 28 
3 13 14 27 
3 13 27 26 
3 29 15 66 
3 14 15 29 
3 14 29 28 
3 15 8 31 
3 15 31 30 
3 42 43 41 
3 41 43 45 
3 41 45 40 
3 40 45 46 
3 40 46 39 
3 39 46 47 
3 39 47 38 
3 38 47 33 
3 38 33 37 
3 37 33 32 
3 37 32 34 
3 35 36 37 
3 35 37 34 
3 45 43 44 
3 31 16 55 
3 31 55 56 
3 16 17 54 
3 16 54 55 
3 17 67 54 
3 18 19 52 
3 18 52 53 
3 19 20 51 
3 19 51 52 
3 20 21 50 
3 20 50 51 
3 21 64 50 
3 22 23 48 
3 22 48 49 
3 23 24 63 
3 23 63 48 
3 24 25 62 
3 24 62 63 
3 25 65 62 
3 26 27 60 
3 26 60 61 
3 27 28 59 
3 27 59 60 
3 28 29 58 
3 28 58 59 
3 29 66 58 
3 30 31 56 
3 30 56 57 
3 49 48 40 
3 49 40 39 
3 50 64 38 
3 51 50 38 
3 51 38 37 
3 52 51 37 
3 52 37 36 
3 53 52 36 
3 53 36 35 
3 54 67 34 
3 55 54 34 
3 55 34 32 
3 56 55 32 
3 56 32 33 
3 57 56 33 
3 57 33 47 
3 58 66 46 
3 59 58 46 
3 59 46 45 
3 60 59 45 
3 60 45 44 
3 61 60 44 
3 61 44 43 
3 62 65 42 
3 63 62 42 
3 63 42 41 
3 48 63 41 
3 48 41 40 
3 64 22 49 
3 39 64 49 
3 38 64 39 
3 65 13 26 
3 65 26 61 
3 43 65 61 
3 42 65 43 
3 66 15 30 
3 66 30 57 
3 47 66 57 
3 46 66 47 
3 67 9 18 
3 67 18 53 
3 35 67 53 
3 34 67 35 
3 21 11 64 
3 3 68 5 
3 3 5 4 
3 1 68 3 
3 1 3 2 
3 0 7 68 
3 0 68 1 
3 70 69 74 
3 70 74 80 
3 75 71 70 
3 75 70 80 
3 72 71 75 
3 72 75 76 
3 77 81 72 
3 77 72 76 
3 74 69 73 
3 74 73 78 
3 69 70 79 
3 70 71 79 
3 71 72 79 
3 79 72 81 
3 73 69 79 
3 73 81 77 
3 73 77 78 
3 79 81 73 
3 83 82 87 
3 83 87 94 
3 88 84 83 
3 88 83 94 
3 85 84 88 
3 85 88 89 
3 90 95 85 
3 87 82 86 
3 87 86 92 
3 86 91 92 
3 85 89 90 
3 82 83 93 
3 83 84 93 
3 84 85 93 
3 93 85 95 
3 86 82 93 
3 91 86 95 
3 91 95 90 
3 93 95 86 
3 97 96 101 
3 97 101 107 
3 102 98 97 
3 102 97 107 
3 99 98 102 
3 99 102 103 
3 104 108 99 
3 104 99 103 
3 101 96 100 
3 101 100 105 
3 96 97 106 
3 97 98 106 
3 98 99 106 
3 106 99 108 
3 100 96 106 
3 100 108 104 
3 100 104 105 
3 106 108 100 
3 110 109 114 
3 110 114 121 
3 115 111 110 
3 115 110 121 
3 112 111 115 
3 112 115 116 
3 117 122 112 
3 114 109 113 
3 114 113 119 
3 113 118 119 
3 112 116 117 
3 109 110 120 
3 110 111 120 
3 111 112 120 
3 120 112 122 
3 113 109 120 
3 118 113 122 
3 118 122 117 
3 120 122 113 
3 124 123 128 
3 124 128 135 
3 129 125 124 
3 129 124 135 
3 126 125 129 
3 126 129 130 
3 131 136 126 
3 128 123 127 
3 128 127 133 
3 127 132 133 
3 126 130 131 
3 123 124 134 
3 124 125 134 
3 125 126 134 
3 134 126 136 
3 127 123 134 
3 132 127 136 
3 132 136 131 
3 134 136 127 
3 138 137 142 
3 138 142 149 
3 143 139 138 
3 143 138 149 
3 140 139 143 
3 140 143 144 
3 145 150 140 
3 142 137 141 
3 142 141 147 
3 141 146 147 
3 140 144 145 
3 137 138 148 
3 138 139 148 
3 139 140 148 
3 148 140 150 
3 141 137 148 
3 146 141 150 
3 146 150 145 
3 148 150 141 
3 151 153 158 
3 151 158 155 
3 160 159 151 
3 160 151 155 
3 161 160 155 
3 161 155 156 
3 162 161 156 
3 162 156 157 
3 163 162 157 
3 163 157 158 
3 164 163 158 
3 164 158 153 
3 165 164 153 
3 165 153 154 
3 152 166 165 
3 152 165 154 
3 159 166 152 
3 159 152 151 
3 151 152 154 
3 151 154 153 
3 155 158 157 
3 155 157 156 
3 168 167 172 
3 168 172 178 
3 173 169 168 
3 173 168 178 
3 170 169 173 
3 170 173 174 
3 175 179 170 
3 175 170 174 
3 172 167 171 
3 172 171 176 
3 167 168 177 
3 168 169 177 
3 169 170 177 
3 177 170 179 
3 171 167 177 
3 171 179 175 
3 171 175 176 
3 177 179 171 
3 181 180 185 
3 181 185 191 
3 186 182 181 
3 186 181 191 
3 183 182 186 
3 183 186 187 
3 188 192 183 
3 188 183 187 
3 185 180 184 
3 185 184 189 
3 180 181 190 
3 181 182 190 
3 182 183 190 
3 190 183 192 
3 184 180 190 
3 184 192 188 
3 184 188 189 
3 190 192 184 
