ply
format ascii 1.0
comment VCGLIB generated
element vertex 87
property float x
property float y
property float z
property float nx
property float ny
property float nz
property uchar red
property uchar green
property uchar blue
property uchar alpha
property float texture_u
property float texture_v
element face 166
property list uchar int vertex_indices
end_header
1.767767 1.17142 -7.98543 -0.2575207 0.9472087 0.1909944 192 192 192 255 0.324892 0.381324
0 1.17142 -10.0035 -0.06727685 0.9804069 0.185138 192 192 192 255 0.324974 0.381235
3.300898 1.17142 -5.567905 -0.2437428 0.96435 0.1030461 192 192 192 255 0.324820 0.381432
-1.767767 1.17142 -7.98543 0.3076181 0.9170503 0.2537516 192 192 192 255 0.325054 0.381326
-3.300898 1.17142 -5.567907 0.2340293 0.9640501 0.1258486 192 192 192 255 0.325123 0.381436
-4.267767 1.17142 -2.353994 0.2547262 0.9652091 0.05904239 192 192 192 255 0.325167 0.381583
-4.450825 1.17142 0.879764 0.08602084 0.9962498 -0.009315097 192 192 192 255 0.325174 0.381732
-3.276649 1.17142 3.276649 0.04068911 0.998112 -0.04600946 192 192 192 255 0.325119 0.381843
0 1.17142 4.633883 -0.005862977 0.9990089 -0.04412328 192 192 192 255 0.324965 0.381904
3.276649 1.17142 3.276651 -0.02154514 0.9994702 -0.02439401 192 192 192 255 0.324814 0.381838
4.450826 1.17142 0.879764 -0.08688465 0.9958848 -0.02578028 192 192 192 255 0.324761 0.381726
4.267767 1.17142 -2.353994 -0.2539712 0.9664884 0.03740094 192 192 192 255 0.324773 0.381578
5.3e-05 1.899089 -11.69145 0.0676501 0.9799843 0.1872281 192 192 192 255 0.324976 0.381151
2.259936 1.888793 -9.288181 -0.2064381 0.9631093 0.1726378 192 192 192 255 0.324870 0.381258
4.219862 1.876644 -6.409167 -0.2331672 0.9640201 0.1276649 192 192 192 255 0.324777 0.381387
-4.219802 1.87873 -6.40913 0.2445558 0.9638928 0.1053719 192 192 192 255 0.325168 0.381393
-2.25985 1.88991 -9.288156 0.2154157 0.9630494 0.1616541 192 192 192 255 0.325078 0.381261
-5.689898 1.847982 1.269361 0.2318235 0.9704723 -0.06664397 192 192 192 255 0.325234 0.381749
-5.455866 1.863527 -2.581702 0.2550212 0.9661237 0.03961336 192 192 192 255 0.325224 0.381570
-4.188863 1.836046 4.123792 0.1072138 0.9871678 -0.1183429 192 192 192 255 0.325163 0.381882
-3.5e-05 1.828462 5.740086 0.03403996 0.9671696 -0.2518417 192 192 192 255 0.324965 0.381955
4.1888 1.833976 4.123753 -0.2139164 0.9466532 -0.2410134 192 192 192 255 0.324769 0.381876
5.689875 1.84517 1.269309 -0.2423303 0.9698904 -0.02426632 192 192 192 255 0.324701 0.381741
5.45587 1.860831 -2.581754 -0.2536521 0.9653711 0.0609851 192 192 192 255 0.324716 0.381562
5.1e-05 1.909549 -14.27302 0.1346738 0.8993241 -0.416028 192 192 192 255 0.324993 0.381052
3.088197 1.896382 -11.28061 0.4178253 0.8394662 -0.3474457 192 192 192 255 0.324841 0.381185
5.766454 1.880957 -7.69577 0.4894246 0.8413604 -0.2292948 192 192 192 255 0.324704 0.381344
-5.766377 1.884841 -7.695739 -0.4637557 0.8411331 -0.2782548 192 192 192 255 0.325262 0.381322
-3.088108 1.898464 -11.28056 -0.3971538 0.8405662 -0.3683985 192 192 192 255 0.325136 0.381172
-7.559321 1.846781 1.865181 -0.4988118 0.8624393 0.08593771 192 192 192 255 0.325350 0.381757
-7.455464 1.866102 -2.929988 -0.5194458 0.8456612 -0.1226098 192 192 192 255 0.325343 0.381533
-5.115213 1.831691 5.85533 -0.4018636 0.7710042 0.4940225 192 192 192 255 0.325247 0.381930
-3.3e-05 1.821607 7.762789 0.05891846 0.8770386 0.4767934 192 192 192 255 0.324949 0.382036
5.115146 1.827833 5.8553 0.1977888 0.9491876 0.2447909 192 192 192 255 0.324665 0.381944
7.559299 1.841543 1.86512 0.4654582 0.8667219 0.1792812 192 192 192 255 0.324581 0.381779
7.455471 1.861079 -2.930052 0.5251539 0.8485104 -0.06514271 192 192 192 255 0.324608 0.381559
5.6e-05 0.072255 -15.39663 -0.1828548 -0.7988176 -0.5731096 192 192 192 255 0.325033 0.381081
3.463435 0.058267 -12.09439 0.7280282 0.08148524 -0.6806872 192 192 192 255 0.324856 0.381227
6.46712 0.041878 -8.138401 0.7135304 -0.5490091 -0.4352738 192 192 192 255 0.324694 0.381400
-6.467036 0.046004 -8.138368 -0.6305035 -0.7147847 -0.3025691 192 192 192 255 0.325339 0.381344
-3.463338 0.060479 -12.09434 -0.7634435 0.07829741 -0.6411113 192 192 192 255 0.325193 0.381194
-8.477837 0.005565 2.412434 -0.05878556 -0.9980969 0.01862504 192 192 192 255 0.325435 0.381811
-8.361361 0.026093 -2.879199 -0.8357306 -0.5377641 -0.1111942 192 192 192 255 0.325433 0.381565
-5.736751 -0.010468 6.770565 -0.01254813 -0.9998583 0.01122813 192 192 192 255 0.325316 0.382010
-3.8e-05 -0.02118 8.886391 -0.003714375 -0.9997185 0.02343415 192 192 192 255 0.324954 0.382141
5.736674 -0.014566 6.770531 0.024302 -0.9993564 0.02638558 192 192 192 255 0.324622 0.382048
8.47781 0 2.412367 0.06044933 -0.9981502 0.006497156 192 192 192 255 0.324539 0.381869
8.361365 0.020758 -2.879269 0.815583 -0.5430338 -0.1998467 192 192 192 255 0.324575 0.381630
0 1.17142 -0.008246 0 1 0 192 192 192 255 0.324968 0.381692
0 1.17142 -5.567905 0 1 0 192 192 192 255 0.324971 0.381437
0 1.17142 -2.353994 0 1 0 192 192 192 255 0.324970 0.381584
6e-06 0.023426 -2.879227 -0.0003209876 -0.9999924 -0.003902323 192 192 192 255 0.324992 0.381635
-9e-06 0.008452 0.959297 -0.000340366 -0.9999933 -0.003652561 192 192 192 255 0.324979 0.381805
2.7e-05 0.043941 -8.138387 -0.0003190976 -0.9999924 -0.003900866 192 192 192 255 0.325009 0.381402
1.755312 3.003532 -4.023596 0.2782634 0.9531846 -0.1183581 192 192 192 255 0.474988 0.030631
0 2.9906 -5.423082 -0.002924677 0.9847391 -0.1740125 192 192 192 255 0.475245 0.030581
-1.755312 2.993733 -4.023598 -0.2809061 0.9522676 -0.1194907 192 192 192 255 0.475484 0.030664
-2.44333 2.981342 -0.334042 -0.3091904 0.9510002 0.000183392 192 192 192 255 0.475580 0.030845
-1.727695 2.981342 1.727695 -0.1992796 0.9622197 0.1855291 192 192 192 255 0.475457 0.031028
0 2.981342 2.443329 0 0.9643271 0.2647135 192 192 192 255 0.475170 0.031092
1.727695 2.981342 1.727695 0.1992795 0.9622197 0.1855291 192 192 192 255 0.474910 0.030988
2.443331 2.981342 -0.334042 0.3078701 0.9514263 0.002014505 192 192 192 255 0.474844 0.030793
1.767767 1.17142 -7.98543 0.7907105 -0.1688847 -0.5884343 192 192 192 255 0.475117 0.030860
0 1.17142 -10.0035 -0.0002951302 0.7102123 -0.7039875 192 192 192 255 0.475242 0.030851
3.300898 1.17142 -5.567905 0.8968804 -0.2420609 -0.3701515 192 192 192 255 0.475004 0.030900
-1.767767 1.17142 -7.98543 -0.790455 -0.1707329 -0.5882443 192 192 192 255 0.475363 0.030877
-3.300898 1.17142 -5.567907 -0.8962861 -0.2446193 -0.369909 192 192 192 255 0.475465 0.030934
-4.267767 1.17142 -2.353994 -0.8210057 0.5359124 -0.1968442 192 192 192 255 0.475530 0.031016
-4.633883 1.17142 -0.00824 -0.8008342 0.5988759 -0.003514725 192 192 192 255 0.475552 0.031113
-4.267767 1.17142 1.767767 -0.388337 -0.9074414 0.1604511 192 192 192 255 0.475519 0.031211
-3.276649 1.17142 3.276649 -0.5490387 -0.6301691 0.5490386 192 192 192 255 0.475437 0.031294
-1.767767 1.17142 4.267767 -0.3817638 -0.06930209 0.9216582 192 192 192 255 0.475314 0.031345
0 1.17142 4.633883 -4.536464e-09 0.4530231 0.8914988 192 192 192 255 0.475173 0.031356
1.767767 1.17142 4.267767 0.3817632 -0.06930225 0.9216583 192 192 192 255 0.475039 0.031323
3.276649 1.17142 3.276651 0.595346 -0.5395612 0.595346 192 192 192 255 0.474934 0.031254
4.267767 1.17142 1.767767 0.3467639 -0.9269452 0.1432742 192 192 192 255 0.474877 0.031161
4.633884 1.17142 -0.00824 0.7485313 0.6630947 -0.00251422 192 192 192 255 0.474872 0.031062
4.267767 1.17142 -2.353994 0.8934094 0.3948876 -0.2142039 192 192 192 255 0.474918 0.030971
-1.468122 2.076381 3.544361 -0.2375464 0.7840178 0.5734874 192 192 192 255 0.475319 0.031212
1.468122 2.076381 3.544361 0.2375463 0.7840179 0.5734874 192 192 192 255 0.475031 0.031190
3.544361 2.076381 1.468122 0.5782613 0.7885338 0.2093524 192 192 192 255 0.474863 0.031027
3.535135 2.05523 -2.279976 0.6434886 0.751628 -0.1448372 192 192 192 255 0.474907 0.030837
1.458897 2.050757 -7.744007 0.3877391 0.8525314 -0.3504978 192 192 192 255 0.475114 0.030725
-1.458897 2.040958 -7.744007 -0.3885475 0.8526641 -0.3492775 192 192 192 255 0.475369 0.030742
-3.535135 2.045431 -2.279976 -0.6421582 0.7526982 -0.1451841 192 192 192 255 0.475543 0.030882
-3.54436 2.076381 1.468122 -0.5784386 0.788612 0.2085664 192 192 192 255 0.475532 0.031077
0 2.986822 -1.029955 -0.0008974251 0.9999974 0.002105437 192 192 192 255 0.475210 0.030828
3 1 0 13 
3 1 13 12 
3 0 2 14 
3 0 14 13 
3 4 3 16 
3 4 16 15 
3 3 1 12 
3 3 12 16 
3 6 5 18 
3 6 18 17 
3 5 4 15 
3 5 15 18 
3 7 6 17 
3 7 17 19 
3 20 8 7 
3 20 7 19 
3 21 9 8 
3 21 8 20 
3 10 9 21 
3 10 21 22 
3 2 11 23 
3 2 23 14 
3 11 10 22 
3 11 22 23 
3 12 13 25 
3 12 25 24 
3 13 14 26 
3 13 26 25 
3 15 16 28 
3 15 28 27 
3 16 12 24 
3 16 24 28 
3 17 18 30 
3 17 30 29 
3 18 15 27 
3 18 27 30 
3 19 17 29 
3 19 29 31 
3 32 20 19 
3 32 19 31 
3 33 21 20 
3 33 20 32 
3 22 21 33 
3 22 33 34 
3 14 23 35 
3 14 35 26 
3 23 22 34 
3 23 34 35 
3 24 25 37 
3 24 37 36 
3 25 26 38 
3 25 38 37 
3 27 28 40 
3 27 40 39 
3 28 24 36 
3 28 36 40 
3 29 30 42 
3 29 42 41 
3 30 27 39 
3 30 39 42 
3 31 29 41 
3 31 41 43 
3 44 32 31 
3 44 31 43 
3 45 33 32 
3 45 32 44 
3 34 33 45 
3 34 45 46 
3 26 35 47 
3 26 47 38 
3 35 34 46 
3 35 46 47 
3 0 1 49 
3 0 49 2 
3 4 49 1 
3 4 1 3 
3 7 48 6 
3 10 48 9 
3 6 48 50 
3 6 50 5 
3 11 50 48 
3 11 48 10 
3 2 49 50 
3 2 50 11 
3 5 50 49 
3 5 49 4 
3 8 48 7 
3 9 48 8 
3 46 52 51 
3 46 51 47 
3 42 51 52 
3 42 52 41 
3 39 53 51 
3 39 51 42 
3 47 51 53 
3 47 53 38 
3 45 52 46 
3 41 52 43 
3 36 53 39 
3 36 39 40 
3 38 53 36 
3 38 36 37 
3 45 44 52 
3 43 52 44 
3 82 55 54 
3 83 56 55 
3 84 57 56 
3 85 58 57 
3 78 59 58 
3 79 60 59 
3 80 61 60 
3 81 54 61 
3 78 72 79 
3 79 74 80 
3 80 76 81 
3 81 64 82 
3 82 63 83 
3 83 66 84 
3 84 68 85 
3 85 70 78 
3 59 78 79 
3 60 79 80 
3 61 80 81 
3 54 81 82 
3 55 82 83 
3 56 83 84 
3 57 84 85 
3 58 85 78 
3 72 78 71 
3 79 72 73 
3 74 79 73 
3 80 74 75 
3 76 80 75 
3 81 76 77 
3 64 81 77 
3 82 64 62 
3 63 82 62 
3 83 63 65 
3 66 83 65 
3 84 66 67 
3 68 84 67 
3 85 68 69 
3 70 85 69 
3 78 70 71 
3 54 55 86 
3 55 56 86 
3 56 57 86 
3 57 58 86 
3 58 59 86 
3 59 60 86 
3 60 61 86 
3 61 54 86 
3 62 73 72 
3 62 72 63 
3 65 71 70 
3 65 70 66 
3 64 74 73 
3 64 73 62 
3 77 76 75 
3 77 75 64 
3 64 75 74 
3 63 72 71 
3 63 71 65 
3 66 69 68 
3 66 68 67 
3 66 70 69 
