ply
format ascii 1.0
comment VCGLIB generated
element vertex 66
property float x
property float y
property float z
property float nx
property float ny
property float nz
property uchar red
property uchar green
property uchar blue
property uchar alpha
property float texture_u
property float texture_v
element face 124
property list uchar int vertex_indices
end_header
-0.01376 1.17142 -4.537719 -0.04679373 0.9569927 0.2863134 192 192 192 255 0.324497 0.382320
3.198924 1.17142 -3.218381 -0.2333456 0.9554136 0.1809275 192 192 192 255 0.324255 0.382336
-3.218383 1.17142 -3.198924 0.1743884 0.957766 0.2286328 192 192 192 255 0.324692 0.382431
-4.537721 1.17142 0.013759 0.3013178 0.9528669 0.03538696 192 192 192 255 0.324731 0.382618
-3.198924 1.17142 3.218381 0.2522537 0.9489985 -0.1891294 192 192 192 255 0.324570 0.382775
0.01376 1.17142 4.537719 0.04355344 0.9535125 -0.2981896 192 192 192 255 0.324301 0.382796
3.218383 1.17142 3.198924 -0.1849981 0.9539068 -0.2362996 192 192 192 255 0.324100 0.382664
4.537721 1.17142 -0.013759 -0.2905954 0.9556999 -0.0468213 192 192 192 255 0.324090 0.382473
6.464716 -0.02118 6.425629 0.008849567 -0.9999383 0.006719739 192 192 192 255 0.324100 0.382664
0.02764 -0.02118 9.114845 0.01067916 -0.9969258 0.07762016 192 192 192 255 0.324301 0.382796
9.114848 -0.02118 -0.027637 0.008079007 -0.9999668 -0.001088253 192 192 192 255 0.324090 0.382473
-9.114848 -0.02118 0.027637 -0.008227671 -0.9999655 0.001165052 192 192 192 255 0.324731 0.382618
-6.425629 -0.02118 6.464712 -0.01360382 -0.9997475 0.01788719 192 192 192 255 0.324570 0.382775
-6.464716 -0.02118 -6.425627 -0.008918139 -0.9999374 -0.006757715 192 192 192 255 0.324692 0.382431
6.425629 -0.02118 -6.464712 0.01355172 -0.999746 -0.01801382 192 192 192 255 0.324255 0.382336
-0.02764 -0.02118 -9.114845 -0.01130307 -0.9969612 -0.07707647 192 192 192 255 0.324497 0.382320
5.799199 1.909549 5.992101 0.3247808 0.8409926 0.4327227 192 192 192 255 0.324100 0.382664
0.03441 1.909549 8.296566 -0.07279236 0.8427367 0.5333819 192 192 192 255 0.324301 0.382796
8.213511 1.909549 0.084423 0.5248697 0.8480917 0.07247334 192 192 192 255 0.324090 0.382473
-8.41092 1.909549 0.075562 -0.5383309 0.8393696 -0.07522313 192 192 192 255 0.324731 0.382618
-6.009467 1.909549 5.786094 -0.4394159 0.8345859 0.3322349 192 192 192 255 0.324570 0.382775
5.78779 1.909549 -5.995666 0.4256932 0.8450161 -0.3236252 192 192 192 255 0.324255 0.382336
-5.84558 1.909549 -5.742275 -0.328702 0.8433942 -0.4250191 192 192 192 255 0.324692 0.382431
0.033626 1.909549 -8.415646 0.0743277 0.8364391 -0.5429962 192 192 192 255 0.324497 0.382320
6.033794 1.909549 0.022475 -0.2404401 0.9700757 0.03378981 192 192 192 255 0.324090 0.382473
4.108159 1.909549 -4.097689 -0.1502085 0.9692048 0.1951398 192 192 192 255 0.324255 0.382336
0.129516 1.909549 -5.960668 0.02802419 0.971045 0.2372475 192 192 192 255 0.324497 0.382320
-4.154595 1.909549 -4.287614 0.1956303 0.9699484 0.1446688 192 192 192 255 0.324692 0.382431
-5.827016 1.909549 -0.049967 0.2557588 0.9659066 -0.04014949 192 192 192 255 0.324731 0.382618
-4.077103 1.909549 4.061247 0.1597807 0.9656295 -0.2050117 192 192 192 255 0.324570 0.382775
0.169635 1.909549 5.978372 -0.03688298 0.9690616 -0.2440478 192 192 192 255 0.324301 0.382796
4.008966 1.909549 4.089918 -0.1986167 0.9678547 -0.1543005 192 192 192 255 0.324100 0.382664
0 1.17142 0 0 1 0 192 192 192 255 0.324405 0.382552
1.727699 2.981342 -1.727695 0.2209832 0.9499121 -0.2209829 192 192 192 255 0.474988 0.030631
0 2.981342 -2.443329 0 0.9499121 -0.3125172 192 192 192 255 0.475245 0.030581
-1.727692 2.981342 -1.727695 -0.2209832 0.9499121 -0.2209829 192 192 192 255 0.475484 0.030664
-2.443329 2.981342 0 -0.3125175 0.949912 0 192 192 192 255 0.475580 0.030845
-1.727692 2.981342 1.727695 -0.2209832 0.9499121 0.2209829 192 192 192 255 0.475457 0.031028
0 2.981342 2.443329 0 0.9499121 0.3125172 192 192 192 255 0.475170 0.031092
1.727699 2.981342 1.727695 0.2209832 0.9499121 0.2209829 192 192 192 255 0.474910 0.030988
2.443329 2.981342 0 0.3125178 0.9499119 0 192 192 192 255 0.474844 0.030793
1.767769 1.17142 -4.267767 0.3719388 0.2353031 -0.8979387 192 192 192 255 0.475117 0.030860
0 1.17142 -4.633883 3.877859e-09 0.6474927 -0.7620717 192 192 192 255 0.475242 0.030851
3.276649 1.17142 -3.276649 0.6495748 -0.395103 -0.6495739 192 192 192 255 0.475004 0.030900
-1.767769 1.17142 -4.267767 -0.1873111 -0.8720219 -0.4522085 192 192 192 255 0.475363 0.030877
-3.276649 1.17142 -3.276649 -0.6495748 -0.3951029 -0.6495739 192 192 192 255 0.475465 0.030934
-4.267769 1.17142 -1.767767 -0.9216587 -0.0692962 -0.3817634 192 192 192 255 0.475530 0.031016
-4.633881 1.17142 0 -0.8914973 0.4530261 4.536456e-09 192 192 192 255 0.475552 0.031113
-4.267769 1.17142 1.767767 -0.9216587 -0.0692962 0.3817635 192 192 192 255 0.475519 0.031211
-3.276649 1.17142 3.276649 -0.6844622 -0.2510463 0.6844613 192 192 192 255 0.475437 0.031294
-1.767769 1.17142 4.267767 -0.1873112 -0.8720217 0.4522087 192 192 192 255 0.475314 0.031345
0 1.17142 4.633883 -3.877859e-09 0.6474927 0.7620717 192 192 192 255 0.475173 0.031356
1.767769 1.17142 4.267767 0.3719384 0.235303 0.897939 192 192 192 255 0.475039 0.031323
3.276649 1.17142 3.276651 0.6061147 -0.5150253 0.6061139 192 192 192 255 0.474934 0.031254
4.267769 1.17142 1.767767 0.9216588 -0.06929572 0.3817632 192 192 192 255 0.474877 0.031161
4.633881 1.17142 0 0.8914973 0.4530261 -4.536456e-09 192 192 192 255 0.474872 0.031062
4.267769 1.17142 -1.767767 0.9216587 -0.0692962 -0.3817635 192 192 192 255 0.474918 0.030971
-1.468124 2.076381 3.544361 -0.2375464 0.7840179 0.5734872 192 192 192 255 0.475319 0.031212
1.468124 2.076381 3.544361 0.2375463 0.7840179 0.5734875 192 192 192 255 0.475031 0.031190
3.544357 2.076381 1.468122 0.5734878 0.7840177 0.2375458 192 192 192 255 0.474863 0.031027
3.544357 2.076381 -1.468122 0.5734879 0.7840176 -0.2375458 192 192 192 255 0.474907 0.030837
1.468124 2.076381 -3.544361 0.2375464 0.7840177 -0.5734875 192 192 192 255 0.475114 0.030725
-1.468124 2.076381 -3.544361 -0.2375464 0.7840179 -0.5734872 192 192 192 255 0.475369 0.030742
-3.544357 2.076381 -1.468122 -0.5734874 0.784018 -0.2375459 192 192 192 255 0.475543 0.030882
-3.544357 2.076381 1.468122 -0.5734874 0.784018 0.2375459 192 192 192 255 0.475532 0.031077
0 2.981343 0 -6.732884e-15 1 3.366442e-15 192 192 192 255 0.475210 0.030828
3 12 8 9 
3 13 10 11 
3 11 10 8 
3 11 8 12 
3 13 14 10 
3 15 14 13 
3 16 17 9 
3 16 9 8 
3 17 20 12 
3 17 12 9 
3 19 22 13 
3 19 13 11 
3 18 16 8 
3 18 8 10 
3 20 19 11 
3 20 11 12 
3 21 18 10 
3 21 10 14 
3 22 23 15 
3 22 15 13 
3 23 21 14 
3 23 14 15 
3 6 5 30 
3 6 30 31 
3 5 4 29 
3 5 29 30 
3 3 2 27 
3 3 27 28 
3 7 6 31 
3 7 31 24 
3 4 3 28 
3 4 28 29 
3 1 7 24 
3 1 24 25 
3 2 0 26 
3 2 26 27 
3 0 1 25 
3 0 25 26 
3 24 31 16 
3 24 16 18 
3 25 24 18 
3 25 18 21 
3 26 25 21 
3 26 21 23 
3 27 26 23 
3 27 23 22 
3 28 27 22 
3 28 22 19 
3 29 28 19 
3 29 19 20 
3 30 29 20 
3 30 20 17 
3 31 30 17 
3 31 17 16 
3 32 7 1 
3 32 1 0 
3 32 0 2 
3 32 2 3 
3 32 3 4 
3 32 4 5 
3 32 5 6 
3 32 6 7 
3 61 34 33 
3 62 35 34 
3 63 36 35 
3 64 37 36 
3 57 38 37 
3 58 39 38 
3 59 40 39 
3 60 33 40 
3 57 51 58 
3 58 53 59 
3 59 55 60 
3 60 43 61 
3 61 42 62 
3 62 45 63 
3 63 47 64 
3 64 49 57 
3 38 57 58 
3 39 58 59 
3 40 59 60 
3 33 60 61 
3 34 61 62 
3 35 62 63 
3 36 63 64 
3 37 64 57 
3 51 57 50 
3 58 51 52 
3 53 58 52 
3 59 53 54 
3 55 59 54 
3 60 55 56 
3 43 60 56 
3 61 43 41 
3 42 61 41 
3 62 42 44 
3 45 62 44 
3 63 45 46 
3 47 63 46 
3 64 47 48 
3 49 64 48 
3 57 49 50 
3 33 34 65 
3 34 35 65 
3 35 36 65 
3 36 37 65 
3 37 38 65 
3 38 39 65 
3 39 40 65 
3 40 33 65 
3 50 53 52 
3 50 52 51 
3 46 56 55 
3 46 55 47 
3 47 55 54 
3 47 54 48 
3 48 54 53 
3 48 53 49 
3 49 53 50 
3 45 43 56 
3 45 56 46 
3 44 43 45 
3 41 43 44 
3 41 44 42 
