ply
format ascii 1.0
comment VCGLIB generated
element vertex 34
property float x
property float y
property float z
property float nx
property float ny
property float nz
property uchar red
property uchar green
property uchar blue
property uchar alpha
property float texture_u
property float texture_v
element face 60
property list uchar int vertex_indices
end_header
5 1.17142 5 -0.22771 0.9351618 -0.2713311 192 192 192 255 0.324575 0.382728
-5 1.17142 5 0.3623677 0.9090893 -0.2055387 192 192 192 255 0.325106 0.382799
-5 1.17142 -5 0.2860422 0.9003213 0.3280267 192 192 192 255 0.325161 0.382427
5 1.17142 -5 -0.2684193 0.948819 0.1664143 192 192 192 255 0.324670 0.382367
8.079726 1.909549 -8.079726 0.31175 0.8975655 -0.31175 192 192 192 255 0.324556 0.382227
5.962414 1.909549 8.079726 0.2406893 0.9477447 0.2094008 192 192 192 255 0.324502 0.382812
-8.079726 1.909549 8.079726 -0.3177206 0.8977235 0.3051988 192 192 192 255 0.325256 0.382918
-2.599685 1.909549 -8.079726 -0.04122464 0.896544 -0.4410322 192 192 192 255 0.325062 0.382283
9.189073 -0.02118 -9.189073 0.5471949 -0.6333683 -0.547195 192 192 192 255 0.324534 0.382272
9.189073 -0.02118 9.189072 0.02607928 -0.9995052 0.01758379 192 192 192 255 0.324356 0.382893
-9.189073 -0.02118 9.189073 -0.004903249 -0.9999769 0.004710006 192 192 192 255 0.325279 0.383018
-9.189073 -0.02118 -9.189073 -0.7761042 0.5774155 -0.2534832 192 192 192 255 0.325347 0.382370
5.743881 1.909549 -5.743881 -0.1117163 0.9581835 0.263446 192 192 192 255 0.324644 0.382315
5.743881 1.909549 5.743881 -0.0266454 0.9991407 -0.0317497 192 192 192 255 0.324533 0.382723
-5.743881 1.909549 5.743881 0.1191866 0.9574714 -0.2627606 192 192 192 255 0.325141 0.382804
-5.743881 1.909549 -5.743881 0.04250485 0.9979065 0.0487436 192 192 192 255 0.325200 0.382382
8.079726 1.909549 3.64399 0.2419797 0.9677709 0.06975127 192 192 192 255 0.324432 0.382639
8.817469 0.625568 8.817469 0.4466461 0.8689384 0.2131978 192 192 192 255 0.324359 0.382859
-5 1.17142 -0.3245 0.224479 0.9744785 0.0009230342 192 192 192 255 0.325135 0.382601
5 1.17142 -0.3245 -0.3213915 0.9469461 0.0007797158 192 192 192 255 0.324626 0.382536
6.15159 1.909549 -0.372778 -0.1369808 0.9905736 0.0003323241 192 192 192 255 0.324592 0.382506
-8.892561 -0.02118 -0.596372 -0.1066159 -0.9942957 0.003041149 192 192 192 255 0.325315 0.382673
-7.810474 1.909549 -2.293817 -0.7779735 0.6278117 0.02469666 192 192 192 255 0.325292 0.382599
-6.013133 1.909549 -1.508439 0.4489878 0.893536 0.001846191 192 192 192 255 0.325172 0.382579
-8.676713 0.87054 -8.676713 -0.115942 0.7679741 -0.6298994 192 192 192 255 0.325336 0.382346
-7.963291 1.909549 -7.060748 -0.128465 0.9585133 -0.2544584 192 192 192 255 0.325310 0.382440
5 1.17142 5 0.7412938 0.5595572 0.3706469 192 192 192 255 0.442346 0.031813
-5 1.17142 5 -0.4465851 0.05299943 0.8931701 192 192 192 255 0.442877 0.031352
-5 1.17142 -5 -0.7412938 0.5595572 -0.3706469 192 192 192 255 0.442406 0.030854
5 1.17142 -5 0.4465851 0.05299943 -0.8931701 192 192 192 255 0.441877 0.031295
-3.25 2.981342 -3.25 -0.2066429 0.8868448 -0.4132858 192 192 192 255 0.442391 0.031051
3.25 2.981342 -3.25 0.3275046 0.9305514 -0.1637523 192 192 192 255 0.442127 0.031272
3.25 2.981342 3.25 0.2066429 0.8868448 0.4132858 192 192 192 255 0.442362 0.031531
-3.25 2.981342 3.25 -0.3275046 0.9305514 0.1637523 192 192 192 255 0.442627 0.031300
3 8 9 21 
3 8 21 11 
3 12 20 16 
3 12 16 4 
3 13 14 6 
3 13 6 5 
3 22 23 15 
3 22 15 25 
3 15 12 4 
3 15 4 7 
3 4 16 9 
3 4 9 8 
3 21 22 11 
3 3 19 20 
3 3 20 12 
3 0 1 14 
3 0 14 13 
3 23 18 2 
3 23 2 15 
3 2 3 12 
3 2 12 15 
3 17 16 5 
3 9 5 6 
3 9 6 10 
3 16 13 5 
3 9 16 17 
3 17 5 9 
3 20 19 0 
3 20 0 13 
3 16 20 13 
3 21 9 10 
3 6 22 21 
3 6 21 10 
3 14 23 22 
3 14 22 6 
3 1 18 23 
3 1 23 14 
3 24 25 7 
3 11 7 4 
3 11 4 8 
3 25 15 7 
3 24 7 11 
3 18 19 3 
3 18 3 2 
3 18 1 0 
3 18 0 19 
3 11 22 25 
3 11 25 24 
3 33 32 31 
3 33 31 30 
3 27 26 32 
3 27 32 33 
3 26 29 31 
3 26 31 32 
3 30 31 29 
3 30 29 28 
3 28 27 33 
3 28 33 30 
3 29 26 27 
3 29 27 28 
