ply
format ascii 1.0
comment VCGLIB generated
element vertex 72
property float x
property float y
property float z
property float nx
property float ny
property float nz
property uchar red
property uchar green
property uchar blue
property uchar alpha
property float texture_u
property float texture_v
element face 106
property list uchar int vertex_indices
end_header
13.73514 -0 -13.96916 0.6078799 -0.07549757 -0.7904316 192 192 192 255 0.323902 0.383965
0.294087 -0 -19.17788 -0.1298302 -0.4797024 -0.8677729 192 192 192 255 0.324228 0.383854
-13.15169 -0 -13.73043 -0.7563285 0.2848645 -0.5889138 192 192 192 255 0.324562 0.383948
-19.3133 -0 -0.158718 -0.6926292 -0.713512 0.1056666 192 192 192 255 0.324731 0.384207
-13.12466 0 13.28038 -0.5856466 0.2086481 0.7832522 192 192 192 255 0.324617 0.384499
0.30111 0 19.00621 0.1115115 -0.5091138 0.853445 192 192 192 255 0.324261 0.384638
13.24532 0 13.53973 0.7908268 -0.1923326 0.5810345 192 192 192 255 0.323893 0.384520
18.76735 0 -0.265299 0.9822763 -0.151133 -0.1108704 192 192 192 255 0.323754 0.384233
12.12982 2.659049 -12.12982 0.4119228 0.8607261 -0.2991157 192 192 192 255 0.323894 0.383881
0 2.659049 -17.15415 0.04996963 0.9079164 -0.4161621 192 192 192 255 0.324228 0.383769
-12.12982 2.659049 -12.12982 -0.3897931 0.7576485 -0.5234789 192 192 192 255 0.324569 0.383863
-17.15415 2.659049 0 -0.3757918 0.9252383 -0.05210258 192 192 192 255 0.324742 0.384125
-12.12982 2.659049 12.12982 -0.5406916 0.7269042 0.4233947 192 192 192 255 0.324627 0.384421
0 2.659049 17.15415 -0.05835524 0.9181617 0.3918848 192 192 192 255 0.324262 0.384561
12.12982 2.659049 12.12982 0.4133556 0.7399782 0.5306311 192 192 192 255 0.323884 0.384441
17.15415 2.659049 0 0.4623035 0.8839253 0.07036772 192 192 192 255 0.323742 0.384152
0.475027 0 0.020804 0 -1 0 192 192 192 255 0.324245 0.384246
-10.68163 2.659049 -11.47076 -0.5127329 0.745002 -0.4267049 192 192 192 255 0.441003 0.030017
-11.69549 2.659049 -8.350414 -0.5977648 0.7046737 0.3822462 192 192 192 255 0.441601 0.029813
-9.041166 2.659049 -6.421932 0.1704049 0.6898344 0.7036268 192 192 192 255 0.442003 0.030263
-6.386839 2.659049 -8.350414 0.6872672 0.723497 0.06492919 192 192 192 255 0.441649 0.030754
-7.400701 2.659049 -11.47076 0.2563663 0.7550145 -0.6035143 192 192 192 255 0.441026 0.030599
-10.16966 3.462642 -10.68292 -0.1903108 0.9239081 -0.3319273 192 192 192 255 0.441157 0.030032
-10.86711 3.462642 -8.536399 -0.3847647 0.91946 0.08092873 192 192 192 255 0.441572 0.029891
-9.041166 3.462642 -7.209774 -0.04747312 0.9149528 0.4007591 192 192 192 255 0.441849 0.030203
-7.215222 3.462642 -8.536399 0.3609444 0.917003 0.1697783 192 192 192 255 0.441605 0.030541
-7.912671 3.462642 -10.68292 0.262302 0.9225549 -0.283002 192 192 192 255 0.441174 0.030434
-9.041166 4.006484 -9.129683 0 1 -6.800984e-09 192 192 192 255 0.441470 0.030173
10.68163 2.659049 11.47076 0.5127329 0.745002 0.4267049 192 192 192 255 0.441003 0.030017
11.69549 2.659049 8.350414 0.5977648 0.7046737 -0.3822462 192 192 192 255 0.441601 0.029813
9.041166 2.659049 6.421932 -0.1704049 0.6898344 -0.7036268 192 192 192 255 0.442003 0.030263
6.386839 2.659049 8.350414 -0.6872672 0.723497 -0.06492919 192 192 192 255 0.441649 0.030754
7.400701 2.659049 11.47076 -0.2563663 0.7550145 0.6035143 192 192 192 255 0.441026 0.030599
10.16966 3.462642 10.68292 0.1903108 0.9239081 0.3319273 192 192 192 255 0.441157 0.030032
10.86711 3.462642 8.536399 0.3847647 0.91946 -0.08092873 192 192 192 255 0.441572 0.029891
9.041166 3.462642 7.209774 0.04747312 0.9149528 -0.4007591 192 192 192 255 0.441849 0.030203
7.215222 3.462642 8.536399 -0.3609444 0.917003 -0.1697783 192 192 192 255 0.441605 0.030541
7.912671 3.462642 10.68292 -0.262302 0.9225549 0.283002 192 192 192 255 0.441174 0.030434
9.041166 4.006484 9.129683 0 1 6.800984e-09 192 192 192 255 0.441470 0.030173
-11.47076 2.659049 10.68163 -0.4267049 0.745002 0.5127329 192 192 192 255 0.441003 0.030017
-8.350414 2.659049 11.69549 0.3822462 0.7046737 0.5977648 192 192 192 255 0.441601 0.029813
-6.421932 2.659049 9.041166 0.7036268 0.6898344 -0.1704049 192 192 192 255 0.442003 0.030263
-8.350414 2.659049 6.386839 0.06492919 0.723497 -0.6872672 192 192 192 255 0.441649 0.030754
-11.47076 2.659049 7.400701 -0.6035143 0.7550145 -0.2563663 192 192 192 255 0.441026 0.030599
-10.68292 3.462642 10.16966 -0.3319273 0.9239081 0.1903108 192 192 192 255 0.441157 0.030032
-8.536399 3.462642 10.86711 0.08092873 0.91946 0.3847647 192 192 192 255 0.441572 0.029891
-7.209774 3.462642 9.041166 0.4007591 0.9149528 0.04747312 192 192 192 255 0.441849 0.030203
-8.536399 3.462642 7.215222 0.1697783 0.917003 -0.3609444 192 192 192 255 0.441605 0.030541
-10.68292 3.462642 7.912671 -0.283002 0.9225549 -0.262302 192 192 192 255 0.441174 0.030434
-9.129683 4.006484 9.041166 -6.800984e-09 1 0 192 192 192 255 0.441470 0.030173
11.47076 2.659049 -10.68163 0.4267049 0.745002 -0.5127329 192 192 192 255 0.441003 0.030017
8.350414 2.659049 -11.69549 -0.3822462 0.7046737 -0.5977648 192 192 192 255 0.441601 0.029813
6.421932 2.659049 -9.041166 -0.7036268 0.6898344 0.1704049 192 192 192 255 0.442003 0.030263
8.350414 2.659049 -6.386839 -0.06492919 0.723497 0.6872672 192 192 192 255 0.441649 0.030754
11.47076 2.659049 -7.400701 0.6035143 0.7550145 0.2563663 192 192 192 255 0.441026 0.030599
10.68292 3.462642 -10.16966 0.3319273 0.9239081 -0.1903108 192 192 192 255 0.441157 0.030032
8.536399 3.462642 -10.86711 -0.08092873 0.91946 -0.3847647 192 192 192 255 0.441572 0.029891
7.209774 3.462642 -9.041166 -0.4007591 0.9149528 -0.04747312 192 192 192 255 0.441849 0.030203
8.536399 3.462642 -7.215222 -0.1697783 0.917003 0.3609444 192 192 192 255 0.441605 0.030541
10.68292 3.462642 -7.912671 0.283002 0.9225549 0.262302 192 192 192 255 0.441174 0.030434
9.129683 4.006484 -9.041166 6.800984e-09 1 0 192 192 192 255 0.441470 0.030173
0 2.659049 12.90242 0.1482954 0.8832241 0.4448862 192 192 192 255 0.442346 0.031813
-12.90242 2.659049 0 -0.3701744 0.9289123 0.009637246 192 192 192 255 0.442899 0.031355
0 2.659049 -12.90242 -0.1482954 0.8832241 -0.4448862 192 192 192 255 0.442406 0.030854
12.90242 2.659049 0 0.3701744 0.9289123 -0.009637246 192 192 192 255 0.441855 0.031295
0 6.233521 -5.806088 0.07331412 0.9727541 -0.2199424 192 192 192 255 0.442391 0.031051
0 6.233521 5.806088 -0.07331413 0.9727541 0.2199424 192 192 192 255 0.442362 0.031531
-3.773958 6.233521 2.032131 -0.3583465 0.9335368 0.009841762 192 192 192 255 0.442494 0.031416
3.773958 6.233521 2.032131 0.3525625 0.9355985 0.01884817 192 192 192 255 0.442244 0.031401
3.773958 6.233521 -2.032131 0.3583465 0.9335368 -0.009841762 192 192 192 255 0.442259 0.031161
-3.773958 6.233521 -2.032131 -0.3525625 0.9355985 -0.01884817 192 192 192 255 0.442509 0.031176
0 2.659049 0 0 1 0 192 192 192 255 0.324245 0.384165
3 0 1 9 
3 0 9 8 
3 1 2 10 
3 1 10 9 
3 2 3 11 
3 2 11 10 
3 3 4 12 
3 3 12 11 
3 4 5 13 
3 4 13 12 
3 5 6 14 
3 5 14 13 
3 6 7 15 
3 6 15 14 
3 7 0 8 
3 7 8 15 
3 0 7 16 
3 0 16 1 
3 11 71 9 
3 11 9 10 
3 1 16 3 
3 1 3 2 
3 16 7 6 
3 16 6 5 
3 3 16 5 
3 3 5 4 
3 23 22 17 
3 23 17 18 
3 24 23 18 
3 24 18 19 
3 25 24 19 
3 25 19 20 
3 26 25 20 
3 26 20 21 
3 22 26 21 
3 22 21 17 
3 22 23 27 
3 23 24 27 
3 24 25 27 
3 25 26 27 
3 26 22 27 
3 34 33 28 
3 34 28 29 
3 35 34 29 
3 35 29 30 
3 36 35 30 
3 36 30 31 
3 37 36 31 
3 37 31 32 
3 33 37 32 
3 33 32 28 
3 33 34 38 
3 34 35 38 
3 35 36 38 
3 36 37 38 
3 37 33 38 
3 45 44 39 
3 45 39 40 
3 46 45 40 
3 46 40 41 
3 47 46 41 
3 47 41 42 
3 48 47 42 
3 48 42 43 
3 44 48 43 
3 44 43 39 
3 44 45 49 
3 45 46 49 
3 46 47 49 
3 47 48 49 
3 48 44 49 
3 56 55 50 
3 56 50 51 
3 57 56 51 
3 57 51 52 
3 58 57 52 
3 58 52 53 
3 59 58 53 
3 59 53 54 
3 55 59 54 
3 55 54 50 
3 55 56 60 
3 56 57 60 
3 57 58 60 
3 58 59 60 
3 59 55 60 
3 69 68 64 
3 70 62 67 
3 61 64 68 
3 61 68 66 
3 65 69 64 
3 65 64 63 
3 63 62 70 
3 63 70 65 
3 62 61 66 
3 62 66 67 
3 65 66 68 
3 65 68 69 
3 70 67 66 
3 70 66 65 
3 8 9 71 
3 8 71 15 
3 13 71 11 
3 13 11 12 
3 15 71 13 
3 15 13 14 
