ply
format ascii 1.0
comment VCGLIB generated
element vertex 48
property float x
property float y
property float z
property float nx
property float ny
property float nz
property uchar red
property uchar green
property uchar blue
property uchar alpha
property float texture_u
property float texture_v
element face 88
property list uchar int vertex_indices
end_header
2.476542 1.17142 4.97234 -0.1095896 0.9073122 -0.4059247 192 192 192 255 0.324993 0.384829
-2.476542 1.17142 4.97234 0.2365403 0.867549 -0.4375014 192 192 192 255 0.325170 0.384675
-5 1.17142 2.477077 0.3217968 0.9429092 -0.08584359 192 192 192 255 0.325190 0.384356
-5 1.17142 -2.477077 0.2746758 0.9484816 0.1579115 192 192 192 255 0.325033 0.384190
-2.476542 1.17142 -4.97234 0.09062981 0.917366 0.38759 192 192 192 255 0.324699 0.384171
2.476542 1.17142 -4.97234 -0.2346669 0.8743776 0.4247297 192 192 192 255 0.324523 0.384318
5 1.17142 -2.477077 -0.3236806 0.9429098 0.07843531 192 192 192 255 0.324503 0.384637
5 1.17142 2.477077 -0.3013262 0.9354753 -0.1846311 192 192 192 255 0.324660 0.384810
-9.204149 -0.02118 4.583263 -0.7604325 -0.4722714 0.4457601 192 192 192 255 0.325190 0.384356
9.096078 -0.02118 4.862482 0.8366993 -0.5002331 0.2229377 192 192 192 255 0.324660 0.384810
4.635769 -0.02118 9.005753 0.4867415 -0.08872218 0.8690289 192 192 192 255 0.324993 0.384829
-4.463893 -0.02118 9.380544 -0.2121121 0.3179461 0.9240773 192 192 192 255 0.325170 0.384675
4.596569 -0.02118 -9.518377 0.2572996 -0.05626455 -0.9646924 192 192 192 255 0.324523 0.384318
9.073949 -0.02118 -4.506731 0.8682076 -0.1336563 -0.4778614 192 192 192 255 0.324503 0.384637
-9.369207 -0.02118 -4.934973 -0.691967 -0.6995941 -0.1781847 192 192 192 255 0.325033 0.384190
-4.56804 -0.02118 -9.368154 -0.4366517 0.4356341 -0.7871202 192 192 192 255 0.324699 0.384171
3.799838 1.909549 7.76692 0.1118634 0.9010518 0.4190374 192 192 192 255 0.324993 0.384829
7.787854 1.909549 4.014957 0.3676064 0.903149 0.2217824 192 192 192 255 0.324660 0.384810
-3.710801 1.909549 7.910671 -0.2057135 0.9064832 0.3687414 192 192 192 255 0.325170 0.384675
-8.01657 1.909549 3.806749 -0.410672 0.9057251 0.1049316 192 192 192 255 0.325190 0.384356
3.908341 1.909549 -7.894852 0.2186184 0.9085087 -0.3561152 192 192 192 255 0.324523 0.384318
8.01577 1.909549 -3.952651 0.4411994 0.891313 -0.1044235 192 192 192 255 0.324503 0.384637
-3.7709 1.909549 -7.708774 -0.09795185 0.9197673 -0.3800443 192 192 192 255 0.324699 0.384171
-7.736553 1.909549 -3.933793 -0.3357444 0.9206154 -0.1993563 192 192 192 255 0.325033 0.384190
2.753153 1.909549 5.709653 -0.179068 0.934954 -0.3062608 192 192 192 255 0.324993 0.384829
-2.679136 1.909549 5.816653 0.07779775 0.9401674 -0.3317119 192 192 192 255 0.325170 0.384675
-5.816312 1.909549 3.022689 0.2808443 0.9443083 -0.1714888 192 192 192 255 0.325190 0.384356
-5.814328 1.909549 -3.010094 0.3184391 0.9446188 0.0793219 192 192 192 255 0.325033 0.384190
-2.922723 1.909549 -5.825112 0.1537429 0.947878 0.2790886 192 192 192 255 0.324699 0.384171
2.906259 1.909549 -5.720551 -0.0808971 0.9419489 0.3258649 192 192 192 255 0.324523 0.384318
5.884638 1.909549 -2.967399 -0.2787633 0.9465452 0.1623058 192 192 192 255 0.324503 0.384637
5.705955 1.909549 2.870888 -0.3351972 0.9373273 -0.09518664 192 192 192 255 0.324660 0.384810
-3.124847 2.981342 1.562582 -0.2881684 0.9547518 0.0735393 192 192 192 255 0.426357 0.030322
-1.56258 2.981342 3.124849 -0.2041473 0.8403952 0.5020556 192 192 192 255 0.426197 0.030348
3.124847 2.981342 1.562582 0.3571683 0.9109277 0.2064985 192 192 192 255 0.425832 0.030286
1.56258 2.981342 3.124849 0.1292298 0.9393056 0.3178124 192 192 192 255 0.425929 0.030329
-3.124847 2.981342 -1.562582 -0.2974002 0.9391425 -0.1719433 192 192 192 255 0.426401 0.030255
-1.56258 2.981342 -3.124849 -0.1280729 0.8554134 -0.5018618 192 192 192 255 0.426296 0.030216
1.56258 2.981342 -3.124849 0.2064986 0.9109276 -0.3571683 192 192 192 255 0.426049 0.030201
3.124847 2.981342 -1.562582 0.3375503 0.9373577 -0.08614135 192 192 192 255 0.425897 0.030223
-5 1.17142 2.50025 -0.7977954 -0.3882936 0.4612491 192 192 192 255 0.426546 0.030534
-5 1.17142 -2.50025 -0.7037693 -0.6873522 -0.1795988 192 192 192 255 0.426608 0.030403
-2.500252 1.17142 -5 -0.4234173 0.5332611 -0.7323595 192 192 192 255 0.426419 0.030329
2.500252 1.17142 -5 0.2462127 0.09241667 -0.9647997 192 192 192 255 0.425998 0.030301
5 1.17142 -2.50025 0.8610345 0.1039411 -0.4978111 192 192 192 255 0.425736 0.030342
5 1.17142 2.50025 0.8911843 -0.3925149 0.2274263 192 192 192 255 0.425608 0.030463
2.500252 1.17142 5 0.3540235 0.3415378 0.8706431 192 192 192 255 0.425772 0.030550
-2.500252 1.17142 5 -0.3540235 0.3415378 0.8706431 192 192 192 255 0.426259 0.030588
3 8 9 10 
3 8 10 11 
3 12 13 14 
3 12 14 15 
3 14 13 9 
3 14 9 8 
3 17 16 10 
3 17 10 9 
3 16 18 11 
3 16 11 10 
3 18 19 8 
3 18 8 11 
3 20 21 13 
3 20 13 12 
3 23 22 15 
3 23 15 14 
3 22 20 12 
3 22 12 15 
3 21 17 9 
3 21 9 13 
3 19 23 14 
3 19 14 8 
3 31 24 16 
3 31 16 17 
3 24 25 18 
3 24 18 16 
3 25 26 19 
3 25 19 18 
3 29 30 21 
3 29 21 20 
3 27 28 22 
3 27 22 23 
3 28 29 20 
3 28 20 22 
3 30 31 17 
3 30 17 21 
3 26 27 23 
3 26 23 19 
3 0 1 25 
3 0 25 24 
3 1 2 26 
3 1 26 25 
3 2 3 27 
3 2 27 26 
3 3 4 28 
3 3 28 27 
3 4 5 29 
3 4 29 28 
3 5 6 30 
3 5 30 29 
3 6 7 31 
3 6 31 30 
3 7 0 24 
3 7 24 31 
3 4 3 6 
3 4 6 5 
3 3 2 7 
3 3 7 6 
3 2 1 0 
3 2 0 7 
3 32 34 39 
3 32 39 36 
3 41 40 32 
3 41 32 36 
3 42 41 36 
3 42 36 37 
3 43 42 37 
3 43 37 38 
3 44 43 38 
3 44 38 39 
3 45 44 39 
3 45 39 34 
3 46 45 34 
3 46 34 35 
3 33 47 46 
3 33 46 35 
3 40 47 33 
3 40 33 32 
3 32 33 35 
3 32 35 34 
3 36 39 38 
3 36 38 37 
3 40 45 46 
3 40 46 47 
3 43 44 41 
3 43 41 42 
3 41 44 45 
3 41 45 40 
