ply
format ascii 1.0
comment VCGLIB generated
element vertex 41
property float x
property float y
property float z
property float nx
property float ny
property float nz
property uchar red
property uchar green
property uchar blue
property uchar alpha
property float texture_u
property float texture_v
element face 78
property list uchar int vertex_indices
end_header
0 -4.622551 0 0 -1 0 192 192 192 255 0.475210 0.031326
1.727696 1.809923 -1.727695 0.2523773 0.9341367 -0.2523773 192 192 192 255 0.474988 0.030631
0 1.809923 -2.44333 0 0.8685874 -0.4955361 192 192 192 255 0.475245 0.030581
-1.727695 1.809923 -1.727695 -0.3258745 0.8874749 -0.3258745 192 192 192 255 0.475484 0.030664
-2.44333 1.809923 0 -0.4608562 0.8874748 0 192 192 192 255 0.475580 0.030845
-1.727695 1.809923 1.727695 -0.3258745 0.8874749 0.3258745 192 192 192 255 0.475457 0.031028
0 1.809923 2.44333 -8.548217e-08 0.8874749 0.4608561 192 192 192 255 0.475170 0.031092
1.727696 1.809923 1.727695 0.3258744 0.887475 0.3258744 192 192 192 255 0.474910 0.030988
2.44333 1.809923 0 0.4955359 0.8685875 0 192 192 192 255 0.474844 0.030793
1.767767 0 -4.267766 0.3491897 -0.409129 -0.8430184 192 192 192 255 0.475117 0.030860
0 0 -4.633883 1.178323e-08 -0.3279129 -0.944708 192 192 192 255 0.475242 0.030851
3.27665 0 -3.27665 0.6680092 -0.3279131 -0.6680095 192 192 192 255 0.475004 0.030900
-1.767767 0 -4.267766 -0.3491897 -0.409129 -0.8430184 192 192 192 255 0.475363 0.030877
-3.27665 0 -3.27665 -0.6680094 -0.327913 -0.6680094 192 192 192 255 0.475465 0.030934
-4.267766 0 -1.767767 -0.8430184 -0.409129 -0.3491897 192 192 192 255 0.475530 0.031016
-4.633883 0 0 -0.944708 -0.3279129 -1.178323e-08 192 192 192 255 0.475552 0.031113
-4.267766 0 1.767767 -0.8430184 -0.409129 0.3491897 192 192 192 255 0.475519 0.031211
-3.27665 0 3.27665 -0.6680094 -0.327913 0.6680094 192 192 192 255 0.475437 0.031294
-1.767767 0 4.267766 -0.3491897 -0.409129 0.8430184 192 192 192 255 0.475314 0.031345
0 0 4.633883 -2.268271e-07 -0.327913 0.9447079 192 192 192 255 0.475173 0.031356
1.767767 0 4.267767 0.3491897 -0.4091292 0.8430184 192 192 192 255 0.475039 0.031323
3.27665 0 3.27665 0.6680093 -0.3279133 0.6680093 192 192 192 255 0.474934 0.031254
4.267767 0 1.767767 0.8430183 -0.4091294 0.3491897 192 192 192 255 0.474877 0.031161
4.633883 0 0 0.9447079 -0.3279132 -1.031033e-08 192 192 192 255 0.474872 0.031062
4.267767 0 -1.767767 0.8430183 -0.4091293 -0.3491897 192 192 192 255 0.474918 0.030971
0.883884 -2.5 2.133883 0.267181 -0.7159247 0.6450319 192 192 192 255 0.475124 0.031324
2.133883 -2.5 0.883883 0.6450319 -0.7159247 0.2671809 192 192 192 255 0.475043 0.031243
2.133883 -2.5 -0.883883 0.6450319 -0.7159247 -0.2671811 192 192 192 255 0.475064 0.031148
0.883883 -2.5 -2.133883 0.2671811 -0.7159246 -0.6450319 192 192 192 255 0.475164 0.031093
-0.883883 -2.5 -2.133883 -0.2671811 -0.7159246 -0.6450319 192 192 192 255 0.475286 0.031101
-2.133883 -2.5 -0.883883 -0.6450319 -0.7159246 -0.2671811 192 192 192 255 0.475370 0.031171
-2.133883 -2.5 0.883883 -0.6450319 -0.7159246 0.2671811 192 192 192 255 0.475364 0.031268
-0.883883 -2.5 2.133883 -0.267181 -0.7159246 0.6450319 192 192 192 255 0.475262 0.031335
-1.468122 0.904961 3.54436 -0.2375464 0.7840176 0.5734877 192 192 192 255 0.475319 0.031212
1.468123 0.904961 3.544361 0.2375463 0.7840176 0.5734877 192 192 192 255 0.475031 0.031190
3.544361 0.904961 1.468123 0.5734878 0.7840176 0.2375463 192 192 192 255 0.474863 0.031027
3.544361 0.904961 -1.468122 0.5734877 0.7840176 -0.2375464 192 192 192 255 0.474907 0.030837
1.468122 0.904961 -3.54436 0.2375463 0.7840176 -0.5734877 192 192 192 255 0.475114 0.030725
-1.468122 0.904961 -3.54436 -0.2375464 0.7840176 -0.5734876 192 192 192 255 0.475369 0.030742
-3.54436 0.904961 -1.468122 -0.5734876 0.7840176 -0.2375464 192 192 192 255 0.475543 0.030882
-3.54436 0.904961 1.468122 -0.5734876 0.7840176 0.2375464 192 192 192 255 0.475532 0.031077
3 11 28 9 
3 10 29 12 
3 13 30 14 
3 15 31 16 
3 17 32 18 
3 19 25 20 
3 21 26 22 
3 23 27 24 
3 1 2 3 
3 1 3 4 
3 1 4 5 
3 1 5 6 
3 1 6 7 
3 1 7 8 
3 28 10 9 
3 37 2 1 
3 29 13 12 
3 38 3 2 
3 30 15 14 
3 39 4 3 
3 31 17 16 
3 40 5 4 
3 32 19 18 
3 33 6 5 
3 25 21 20 
3 34 7 6 
3 26 23 22 
3 35 8 7 
3 27 11 24 
3 36 1 8 
3 25 0 26 
3 26 0 27 
3 27 0 28 
3 28 0 29 
3 29 0 30 
3 30 0 31 
3 31 0 32 
3 32 0 25 
3 33 19 34 
3 34 21 35 
3 35 23 36 
3 36 11 37 
3 37 10 38 
3 38 13 39 
3 39 15 40 
3 40 17 33 
3 6 33 34 
3 7 34 35 
3 8 35 36 
3 1 36 37 
3 2 37 38 
3 3 38 39 
3 4 39 40 
3 5 40 33 
3 19 33 18 
3 34 19 20 
3 21 34 20 
3 35 21 22 
3 23 35 22 
3 36 23 24 
3 11 36 24 
3 37 11 9 
3 10 37 9 
3 38 10 12 
3 13 38 12 
3 39 13 14 
3 15 39 14 
3 40 15 16 
3 17 40 16 
3 33 17 18 
3 19 32 25 
3 21 25 26 
3 23 26 27 
3 11 27 28 
3 10 28 29 
3 13 29 30 
3 15 30 31 
3 17 31 32 
