ply
format ascii 1.0
comment VCGLIB generated
element vertex 24
property float x
property float y
property float z
property float nx
property float ny
property float nz
property uchar red
property uchar green
property uchar blue
property uchar alpha
property float texture_u
property float texture_v
element face 44
property list uchar int vertex_indices
end_header
-3.124847 1.809923 4.226374 -0.2525295 0.9621252 0.1026843 192 192 192 255 0.426357 0.030322
-1.56258 1.809923 5.788641 -0.1721367 0.8894709 0.4233325 192 192 192 255 0.426197 0.030348
3.124847 1.809923 4.226374 0.2974004 0.9391425 0.1719434 192 192 192 255 0.425832 0.030286
1.56258 1.809923 5.788641 0.1721367 0.8894709 0.4233325 192 192 192 255 0.425929 0.030329
-5 -0 5.164042 -0.9263461 -2.358813e-08 0.3766735 192 192 192 255 0.426546 0.030534
5 -0 5.164042 0.9689464 -1.548465e-08 0.2472709 192 192 192 255 0.425608 0.030463
2.500252 -0 7.663792 0.3766736 2.358812e-08 0.9263461 192 192 192 255 0.425772 0.030550
-2.500252 -0 7.663792 -0.3766736 2.358812e-08 0.9263461 192 192 192 255 0.426259 0.030588
-2.500252 -0 -7.663792 -0.5005224 4.701571e-08 -0.8657236 192 192 192 255 0.426419 0.030329
2.500252 -0 -7.663792 0.2472709 0 -0.9689464 192 192 192 255 0.425998 0.030301
5 0 -5.164042 0.8657237 -3.134381e-08 -0.5005223 192 192 192 255 0.425736 0.030342
3.124847 1.809923 -4.226374 0.2881685 0.9547518 -0.07353934 192 192 192 255 0.425897 0.030223
1.56258 1.809923 -5.788641 0.2557739 0.8595725 -0.4423968 192 192 192 255 0.426049 0.030201
-1.56258 1.809923 -5.788641 -0.1034453 0.9082869 -0.4053567 192 192 192 255 0.426296 0.030216
-3.124847 1.809923 -4.226374 -0.4233324 0.8894711 -0.1721366 192 192 192 255 0.426401 0.030255
-5 0 -5.164042 -0.9263461 2.358813e-08 -0.3766735 192 192 192 255 0.426608 0.030403
-3.124847 -1.809923 4.226374 -0.2525295 -0.9621252 0.1026843 192 192 192 255 0.426357 0.030322
-1.56258 -1.809923 5.788641 -0.1721367 -0.8894709 0.4233325 192 192 192 255 0.426197 0.030348
3.124847 -1.809923 4.226374 0.2974004 -0.9391425 0.1719434 192 192 192 255 0.425832 0.030286
1.56258 -1.809923 5.788641 0.1721367 -0.8894709 0.4233325 192 192 192 255 0.425929 0.030329
3.124847 -1.809923 -4.226374 0.2881685 -0.9547518 -0.07353934 192 192 192 255 0.425897 0.030223
1.56258 -1.809923 -5.788641 0.2557739 -0.8595725 -0.4423968 192 192 192 255 0.426049 0.030201
-1.56258 -1.809923 -5.788641 -0.1034453 -0.9082869 -0.4053567 192 192 192 255 0.426296 0.030216
-3.124847 -1.809923 -4.226374 -0.4233324 -0.8894711 -0.1721366 192 192 192 255 0.426401 0.030255
3 11 12 13 
3 11 13 14 
3 4 0 14 
3 4 14 15 
3 8 15 14 
3 8 14 13 
3 9 8 13 
3 9 13 12 
3 10 9 12 
3 10 12 11 
3 11 2 5 
3 11 5 10 
3 6 5 2 
3 6 2 3 
3 1 7 6 
3 1 6 3 
3 4 7 1 
3 4 1 0 
3 2 0 1 
3 2 1 3 
3 11 14 0 
3 11 0 2 
3 20 23 22 
3 20 22 21 
3 4 15 23 
3 4 23 16 
3 8 22 23 
3 8 23 15 
3 9 21 22 
3 9 22 8 
3 10 20 21 
3 10 21 9 
3 20 10 5 
3 20 5 18 
3 6 19 18 
3 6 18 5 
3 17 19 6 
3 17 6 7 
3 4 16 17 
3 4 17 7 
3 18 19 17 
3 18 17 16 
3 20 18 16 
3 20 16 23 
