ply
format ascii 1.0
comment VCGLIB generated
element vertex 42
property float x
property float y
property float z
property float nx
property float ny
property float nz
property uchar red
property uchar green
property uchar blue
property uchar alpha
property float texture_u
property float texture_v
element face 76
property list uchar int vertex_indices
end_header
4.330126 1.17142 2.500002 -0.4375542 0.8154483 -0.3789332 192 192 192 255 0.323598 0.382839
0 1.17142 5 0.07312787 0.9220982 -0.3799832 192 192 192 255 0.323865 0.382876
-4.330126 1.17142 2.5 0.4408391 0.8845 -0.1527112 192 192 192 255 0.324123 0.382841
-4.330126 1.17142 -2.5 0.4375543 0.8154483 0.3789331 192 192 192 255 0.324098 0.382776
2e-06 1.17142 -5 -0.07312788 0.9220982 0.3799831 192 192 192 255 0.323847 0.382745
4.330126 1.17142 -2.5 -0.4408391 0.8845 0.1527111 192 192 192 255 0.323605 0.382774
8.041862 0.005565 4.642975 0.5389659 0.5200101 0.6626502 192 192 192 255 0.323365 0.382938
0 0.005565 9.285945 -5.998017e-08 -0.8948952 0.4462765 192 192 192 255 0.323873 0.383018
-8.041862 0.005565 4.642972 -0.4992411 0.4357982 0.7488913 192 192 192 255 0.324365 0.382944
-8.041862 0.005565 -4.642972 -0.9281071 -0.177651 -0.3271961 192 192 192 255 0.324293 0.382814
4e-06 0.005565 -9.285945 -0.2067561 -0.1334613 -0.9692472 192 192 192 255 0.323840 0.382758
8.041862 0.005565 -4.642972 0.7043316 0.4129016 -0.5774335 192 192 192 255 0.323404 0.382810
4.930126 1.909549 2.846412 -0.440839 0.8845 -0.1527111 192 192 192 255 0.323561 0.382799
-0 1.909549 5.692821 -0.04428928 0.9721506 -0.2301341 192 192 192 255 0.323867 0.382841
6.985944 1.909549 3.798881 0.4124403 0.7300341 0.5449249 192 192 192 255 0.323424 0.382816
-4.930126 1.909549 2.84641 0.2487212 0.9443204 -0.2153988 192 192 192 255 0.324163 0.382802
-7.169225 1.909549 3.963682 -0.4894055 0.5934495 0.6389835 192 192 192 255 0.324305 0.382820
-4.930126 1.909549 -2.84641 0.3656389 0.9220983 0.1266611 192 192 192 255 0.324132 0.382731
-6.648087 1.909549 -3.69008 -0.3340521 0.9004566 -0.2785447 192 192 192 255 0.324247 0.382717
2e-06 1.909549 -5.692821 0.07312774 0.9220982 0.3799831 192 192 192 255 0.323847 0.382697
-0.199417 1.909549 -7.92415 0.07608771 0.9109793 -0.4053731 192 192 192 255 0.323843 0.382671
4.930126 1.909549 -2.84641 -0.18099 0.9709143 0.1567419 192 192 192 255 0.323572 0.382728
6.626622 1.909549 -2.523778 0.4091538 0.8998875 -0.1509824 192 192 192 255 0.323454 0.382730
0 1.433553 8.469481 0.01697428 0.8884496 0.4586602 192 192 192 255 0.323873 0.382948
-0 1.909549 6.547677 0.01587082 0.9854983 0.1689415 192 192 192 255 0.323870 0.382860
2.464575 1.909549 6.774404 0.3080938 0.7821174 0.5416369 192 192 192 255 0.323648 0.382847
-1.774773 1.909549 7.17266 -0.3245651 0.71733 0.6165186 192 192 192 255 0.324089 0.382849
7.291426 0.966233 -4.213643 0.4831238 0.7867481 -0.384212 192 192 192 255 0.323429 0.382761
4.73053 1.909549 -4.908002 0.2735817 0.9102911 -0.3106819 192 192 192 255 0.323558 0.382702
1.330702 2.700459 2.304842 0.2391434 0.8782035 0.4142091 192 192 192 255 0.408794 0.032047
2.661402 2.700459 2e-06 0.4782875 0.8782034 -1.16796e-07 192 192 192 255 0.408837 0.031965
1.3307 2.700459 -2.304838 0.2391438 0.8782035 -0.4142089 192 192 192 255 0.409196 0.031933
-1.330702 2.700459 -2.304842 -0.2391434 0.8782034 -0.4142092 192 192 192 255 0.409535 0.031976
-2.661402 2.700459 -2e-06 -0.4782875 0.8782034 1.16796e-07 192 192 192 255 0.409532 0.032059
-1.3307 2.700459 2.304838 -0.2391438 0.8782034 0.4142089 192 192 192 255 0.409148 0.032098
4.330126 1.17142 2.500002 0.5228212 0.7972102 0.3018509 192 192 192 255 0.408797 0.032458
0 1.17142 5 -3.249081e-07 0.7839535 0.6208195 192 192 192 255 0.409146 0.032521
-4.330126 1.17142 2.5 -0.5376455 0.7839535 0.3104098 192 192 192 255 0.409524 0.032473
-4.330126 1.17142 -2.5 -0.5376461 0.783953 -0.3104101 192 192 192 255 0.409528 0.032368
2e-06 1.17142 -5 2.161758e-07 0.7972106 -0.6037013 192 192 192 255 0.409193 0.032314
4.330126 1.17142 -2.5 0.5690448 0.7538242 -0.3285381 192 192 192 255 0.408840 0.032355
0 3.643053 0 -6.634064e-09 1 0 192 192 192 255 0.409174 0.032013
3 25 24 23 
3 15 17 18 
3 15 18 16 
3 17 19 20 
3 17 20 18 
3 19 21 28 
3 19 28 20 
3 21 12 14 
3 21 14 22 
3 0 1 13 
3 0 13 12 
3 1 2 15 
3 1 15 13 
3 2 3 17 
3 2 17 15 
3 9 8 16 
3 9 16 18 
3 3 4 19 
3 3 19 17 
3 10 9 18 
3 10 18 20 
3 4 5 21 
3 4 21 19 
3 11 28 27 
3 5 0 12 
3 5 12 21 
3 22 11 27 
3 7 10 11 
3 7 11 6 
3 7 8 9 
3 7 9 10 
3 13 24 25 
3 13 26 24 
3 8 7 23 
3 8 23 26 
3 8 26 16 
3 23 7 6 
3 23 6 25 
3 6 14 25 
3 23 24 26 
3 1 0 5 
3 1 5 4 
3 4 3 2 
3 4 2 1 
3 27 28 22 
3 28 21 22 
3 6 11 22 
3 6 22 14 
3 11 10 20 
3 11 20 28 
3 13 25 14 
3 13 14 12 
3 15 16 26 
3 15 26 13 
3 36 29 34 
3 37 34 33 
3 38 33 32 
3 39 32 31 
3 40 31 30 
3 35 30 29 
3 29 30 41 
3 30 31 41 
3 31 32 41 
3 32 33 41 
3 33 34 41 
3 34 29 41 
3 37 36 34 
3 36 35 29 
3 35 40 30 
3 40 39 31 
3 39 38 32 
3 38 37 33 
3 40 35 36 
3 40 36 37 
3 40 37 38 
3 40 38 39 
