ply
format ascii 1.0
comment Created by Blender 2.93.5 - www.blender.org
element vertex 28
property float x
property float y
property float z
property float nx
property float ny
property float nz
property float s
property float t
element face 12
property list uchar uint vertex_indices
end_header
-1.000000 1.000000 1.000000 0.000000 0.000000 1.000000 0.991004 0.999900
1.000000 -1.000000 1.000000 0.000000 0.000000 1.000000 0.569324 0.482198
1.000000 1.000000 1.000000 0.000000 0.000000 1.000000 0.780699 0.456886
1.000000 -1.000000 1.000000 0.000000 -1.000000 0.000000 0.569324 0.482198
-1.000000 -1.000000 -1.000000 0.000000 -1.000000 0.000000 0.000100 0.133181
1.000000 -1.000000 -1.000000 0.000000 -1.000000 0.000000 0.566276 0.269335
-1.000000 -1.000000 1.000000 -1.000000 0.000000 0.000000 0.625000 0.000000
-1.000000 1.000000 -1.000000 -1.000000 0.000000 0.000000 0.375000 0.250000
-1.000000 -1.000000 -1.000000 -1.000000 0.000000 0.000000 0.375000 0.000000
1.000000 1.000000 -1.000000 0.000000 0.000000 -1.000000 0.375000 0.500000
-1.000000 -1.000000 -1.000000 0.000000 0.000000 -1.000000 0.125000 0.750000
-1.000000 1.000000 -1.000000 0.000000 0.000000 -1.000000 0.125000 0.500000
1.000000 1.000000 1.000000 1.000000 0.000000 -0.000000 0.780699 0.456886
1.000000 -1.000000 -1.000000 1.000000 0.000000 -0.000000 0.566276 0.269335
1.000000 1.000000 -1.000000 1.000000 0.000000 -0.000000 0.991004 0.000100
-1.000000 1.000000 1.000000 0.000000 1.000000 -0.000000 0.625000 0.250000
1.000000 1.000000 -1.000000 0.000000 1.000000 -0.000000 0.375000 0.500000
-1.000000 1.000000 -1.000000 0.000000 1.000000 -0.000000 0.375000 0.250000
-1.000000 -1.000000 1.000000 0.000000 -0.000000 1.000000 0.262493 0.832993
-1.000000 -1.000000 1.000000 0.000000 -1.000000 0.000000 0.262493 0.832993
-1.000000 1.000000 1.000000 -1.000000 0.000000 0.000000 0.625000 0.250000
1.000000 1.000000 -1.000000 0.000000 0.000000 -1.000000 0.991004 0.000100
1.000000 -1.000000 -1.000000 0.000000 0.000000 -1.000000 0.566276 0.269335
-1.000000 -1.000000 -1.000000 0.000000 0.000000 -1.000000 0.000100 0.133181
1.000000 -1.000000 1.000000 1.000000 0.000000 0.000000 0.569324 0.482198
-1.000000 1.000000 1.000000 0.000000 1.000000 -0.000000 0.991004 0.999900
1.000000 1.000000 1.000000 0.000000 1.000000 -0.000000 0.780699 0.456886
1.000000 1.000000 -1.000000 0.000000 1.000000 -0.000000 0.991004 0.000100
3 0 1 2
3 3 4 5
3 6 7 8
3 9 10 11
3 12 13 14
3 15 16 17
3 0 18 1
3 3 19 4
3 6 20 7
3 21 22 23
3 12 24 13
3 25 26 27
